<?xml version="1.0" encoding="utf-8" standalone="no"?>
<!DOCTYPE svg PUBLIC "-//W3C//DTD SVG 1.1//EN"
  "http://www.w3.org/Graphics/SVG/1.1/DTD/svg11.dtd">
<svg xmlns:xlink="http://www.w3.org/1999/xlink" width="452.752345pt" height="332.578125pt" viewBox="0 0 452.752345 332.578125" xmlns="http://www.w3.org/2000/svg" version="1.1">
 <metadata>
  <rdf:RDF xmlns:dc="http://purl.org/dc/elements/1.1/" xmlns:cc="http://creativecommons.org/ns#" xmlns:rdf="http://www.w3.org/1999/02/22-rdf-syntax-ns#">
   <cc:Work>
    <dc:type rdf:resource="http://purl.org/dc/dcmitype/StillImage"/>
    <dc:date>2025-01-09T08:52:32.827296</dc:date>
    <dc:format>image/svg+xml</dc:format>
    <dc:creator>
     <cc:Agent>
      <dc:title>Matplotlib v3.10.0, https://matplotlib.org/</dc:title>
     </cc:Agent>
    </dc:creator>
   </cc:Work>
  </rdf:RDF>
 </metadata>
 <defs>
  <style type="text/css">*{stroke-linejoin: round; stroke-linecap: butt}</style>
 </defs>
 <g id="figure_1">
  <g id="patch_1">
   <path d="M 0 332.578125 
L 452.752345 332.578125 
L 452.752345 0 
L 0 0 
z
" style="fill: #ffffff"/>
  </g>
  <g id="axes_1">
   <g id="patch_2">
    <path d="M 45.478125 295 
L 209.809087 295 
L 209.809087 7.2 
L 45.478125 7.2 
z
" style="fill: #ffffff"/>
   </g>
   <g id="FillBetweenPolyCollection_1">
    <path d="M 52.947714 20.281818 
L 52.947714 20.631354 
L 75.433418 75.896062 
L 88.586712 98.775524 
L 97.919122 111.26576 
L 105.157902 119.819875 
L 111.072416 126.496231 
L 116.073066 132.085467 
L 120.404826 136.959916 
L 124.22571 141.322232 
L 127.643606 145.298446 
L 130.73547 148.971085 
L 133.55812 152.395717 
L 136.154707 155.614445 
L 138.55877 158.656795 
L 140.7969 161.545218 
L 142.89053 164.298114 
L 144.857194 166.929855 
L 146.711414 169.450138 
L 148.465355 171.869759 
L 150.12931 174.196447 
L 151.712064 176.436505 
L 153.221174 178.594225 
L 154.66319 180.676952 
L 156.043824 182.686616 
L 157.36809 184.62769 
L 158.640411 186.50282 
L 159.864707 188.317185 
L 161.044474 190.072218 
L 162.182837 191.770005 
L 163.282604 193.41331 
L 164.346306 195.003831 
L 165.376234 196.543806 
L 166.374467 198.036028 
L 167.342898 199.481964 
L 168.283254 200.883488 
L 169.197118 202.23895 
L 170.085941 203.554831 
L 170.951059 204.830163 
L 171.793704 206.064087 
L 172.615014 207.262237 
L 173.416043 208.422176 
L 174.197768 209.54804 
L 174.961098 210.63768 
L 175.706878 211.695749 
L 176.435898 212.72039 
L 177.148894 213.714428 
L 177.846555 214.678578 
L 178.529528 215.611273 
L 179.198418 216.51584 
L 179.853794 217.39339 
L 180.496192 218.242651 
L 181.126115 219.064897 
L 181.744038 219.861534 
L 182.350411 220.634095 
L 182.945658 221.381601 
L 183.530178 222.105744 
L 184.104353 222.80834 
L 184.668541 223.485876 
L 185.223085 224.140237 
L 185.768308 224.776208 
L 186.304519 225.390376 
L 186.83201 225.982064 
L 187.351062 226.556314 
L 187.861938 227.109734 
L 188.364894 227.641749 
L 188.860171 228.157646 
L 189.348 228.654057 
L 189.828602 229.130504 
L 190.302187 229.592501 
L 190.768958 230.033694 
L 191.229108 230.459696 
L 191.682822 230.870191 
L 192.130277 231.261798 
L 192.571645 231.637246 
L 193.007088 231.996242 
L 193.436763 232.338501 
L 193.860822 232.666885 
L 194.279408 232.981173 
L 194.692662 233.27799 
L 195.100718 233.560266 
L 195.503705 233.827808 
L 195.901747 234.080429 
L 196.294964 234.31795 
L 196.683472 234.54343 
L 197.067382 234.753503 
L 197.446802 234.948019 
L 197.821835 235.130091 
L 198.192582 235.296349 
L 198.55914 235.449943 
L 198.921602 235.590782 
L 199.280058 235.718782 
L 199.634598 235.830578 
L 199.985304 235.92938 
L 200.332259 236.01513 
L 200.675543 236.091079 
L 201.015232 236.150579 
L 201.351401 236.196895 
L 201.684122 236.226687 
L 202.013465 236.246555 
L 202.339498 281.918182 
L 202.339498 279.356869 
L 202.339498 279.356869 
L 202.013465 234.437035 
L 201.684122 234.417709 
L 201.351401 234.385512 
L 201.015232 234.340463 
L 200.675543 234.279374 
L 200.332259 234.208711 
L 199.985304 234.125299 
L 199.634598 234.025985 
L 199.280058 233.914037 
L 198.921602 233.789521 
L 198.55914 233.652508 
L 198.192582 233.499902 
L 197.821835 233.334981 
L 197.446802 233.154679 
L 197.067382 232.962273 
L 196.683472 232.754733 
L 196.294964 232.535333 
L 195.901747 232.297959 
L 195.503705 232.04902 
L 195.100718 231.785557 
L 194.692662 231.50775 
L 194.279408 231.212719 
L 193.860822 230.906805 
L 193.436763 230.581056 
L 193.007088 230.241816 
L 192.571645 229.889303 
L 192.130277 229.517764 
L 191.682822 229.130504 
L 191.229108 228.727812 
L 190.768958 228.307053 
L 190.302187 227.871505 
L 189.828602 227.415692 
L 189.348 226.942928 
L 188.860171 226.453602 
L 188.364894 225.94528 
L 187.861938 225.418431 
L 187.351062 224.873531 
L 186.83201 224.308305 
L 186.304519 223.723316 
L 185.768308 223.116425 
L 185.223085 222.490968 
L 184.668541 221.842214 
L 184.104353 221.173539 
L 183.530178 220.480412 
L 182.945658 219.766247 
L 182.350411 219.026719 
L 181.744038 218.262767 
L 181.126115 217.475336 
L 180.496192 216.662918 
L 179.853794 215.824129 
L 179.198418 214.957708 
L 178.529528 214.062526 
L 177.846555 213.139905 
L 177.148894 212.188871 
L 176.435898 211.206321 
L 175.706878 210.193861 
L 174.961098 209.148714 
L 174.197768 208.07052 
L 173.416043 206.956931 
L 172.615014 205.810026 
L 171.793704 204.625735 
L 170.951059 203.404412 
L 170.085941 202.142597 
L 169.197118 200.841098 
L 168.283254 199.498945 
L 167.342898 198.113573 
L 166.374467 196.682828 
L 165.376234 195.206722 
L 164.346306 193.680325 
L 163.282604 192.10616 
L 162.182837 190.478574 
L 161.044474 188.797581 
L 159.864707 187.060417 
L 158.640411 185.263463 
L 157.36809 183.40538 
L 156.043824 181.481147 
L 154.66319 179.489618 
L 153.221174 177.427669 
L 151.712064 175.287984 
L 150.12931 173.067427 
L 148.465355 170.760466 
L 146.711414 168.360934 
L 144.857194 165.861245 
L 142.89053 163.250782 
L 140.7969 160.519991 
L 138.55877 157.653699 
L 136.154707 154.634819 
L 133.55812 151.439342 
L 130.73547 148.039181 
L 127.643606 144.392789 
L 124.22571 140.443725 
L 120.404826 136.10991 
L 116.073066 131.266989 
L 111.072416 125.711546 
L 105.157902 119.07409 
L 97.919122 110.567026 
L 88.586712 98.140651 
L 75.433418 75.362874 
L 52.947714 20.281818 
z
" clip-path="url(#pd976f8727e)" style="fill: #1f77b4"/>
   </g>
   <g id="matplotlib.axis_1">
    <g id="xtick_1">
     <g id="line2d_1">
      <defs>
       <path id="mf207bc503e" d="M 0 0 
L 0 3.5 
" style="stroke: #000000; stroke-width: 0.8"/>
      </defs>
      <g>
       <use xlink:href="#mf207bc503e" x="52.947714" y="295" style="stroke: #000000; stroke-width: 0.8"/>
      </g>
     </g>
     <g id="text_1">
      <!-- $\mathdefault{10^{0}}$ -->
      <g transform="translate(44.147714 309.598437) scale(0.1 -0.1)">
       <defs>
        <path id="DejaVuSans-31" d="M 794 531 
L 1825 531 
L 1825 4091 
L 703 3866 
L 703 4441 
L 1819 4666 
L 2450 4666 
L 2450 531 
L 3481 531 
L 3481 0 
L 794 0 
L 794 531 
z
" transform="scale(0.015625)"/>
        <path id="DejaVuSans-30" d="M 2034 4250 
Q 1547 4250 1301 3770 
Q 1056 3291 1056 2328 
Q 1056 1369 1301 889 
Q 1547 409 2034 409 
Q 2525 409 2770 889 
Q 3016 1369 3016 2328 
Q 3016 3291 2770 3770 
Q 2525 4250 2034 4250 
z
M 2034 4750 
Q 2819 4750 3233 4129 
Q 3647 3509 3647 2328 
Q 3647 1150 3233 529 
Q 2819 -91 2034 -91 
Q 1250 -91 836 529 
Q 422 1150 422 2328 
Q 422 3509 836 4129 
Q 1250 4750 2034 4750 
z
" transform="scale(0.015625)"/>
       </defs>
       <use xlink:href="#DejaVuSans-31" transform="translate(0 0.765625)"/>
       <use xlink:href="#DejaVuSans-30" transform="translate(63.623047 0.765625)"/>
       <use xlink:href="#DejaVuSans-30" transform="translate(128.203125 39.046875) scale(0.7)"/>
      </g>
     </g>
    </g>
    <g id="xtick_2">
     <g id="line2d_2">
      <g>
       <use xlink:href="#mf207bc503e" x="127.643606" y="295" style="stroke: #000000; stroke-width: 0.8"/>
      </g>
     </g>
     <g id="text_2">
      <!-- $\mathdefault{10^{1}}$ -->
      <g transform="translate(118.843606 309.598437) scale(0.1 -0.1)">
       <use xlink:href="#DejaVuSans-31" transform="translate(0 0.684375)"/>
       <use xlink:href="#DejaVuSans-30" transform="translate(63.623047 0.684375)"/>
       <use xlink:href="#DejaVuSans-31" transform="translate(128.203125 38.965625) scale(0.7)"/>
      </g>
     </g>
    </g>
    <g id="xtick_3">
     <g id="line2d_3">
      <g>
       <use xlink:href="#mf207bc503e" x="202.339498" y="295" style="stroke: #000000; stroke-width: 0.8"/>
      </g>
     </g>
     <g id="text_3">
      <!-- $\mathdefault{10^{2}}$ -->
      <g transform="translate(193.539498 309.598437) scale(0.1 -0.1)">
       <defs>
        <path id="DejaVuSans-32" d="M 1228 531 
L 3431 531 
L 3431 0 
L 469 0 
L 469 531 
Q 828 903 1448 1529 
Q 2069 2156 2228 2338 
Q 2531 2678 2651 2914 
Q 2772 3150 2772 3378 
Q 2772 3750 2511 3984 
Q 2250 4219 1831 4219 
Q 1534 4219 1204 4116 
Q 875 4013 500 3803 
L 500 4441 
Q 881 4594 1212 4672 
Q 1544 4750 1819 4750 
Q 2544 4750 2975 4387 
Q 3406 4025 3406 3419 
Q 3406 3131 3298 2873 
Q 3191 2616 2906 2266 
Q 2828 2175 2409 1742 
Q 1991 1309 1228 531 
z
" transform="scale(0.015625)"/>
       </defs>
       <use xlink:href="#DejaVuSans-31" transform="translate(0 0.765625)"/>
       <use xlink:href="#DejaVuSans-30" transform="translate(63.623047 0.765625)"/>
       <use xlink:href="#DejaVuSans-32" transform="translate(128.203125 39.046875) scale(0.7)"/>
      </g>
     </g>
    </g>
    <g id="xtick_4">
     <g id="line2d_4">
      <defs>
       <path id="m6db3868ebd" d="M 0 0 
L 0 2 
" style="stroke: #000000; stroke-width: 0.6"/>
      </defs>
      <g>
       <use xlink:href="#m6db3868ebd" x="45.708934" y="295" style="stroke: #000000; stroke-width: 0.6"/>
      </g>
     </g>
    </g>
    <g id="xtick_5">
     <g id="line2d_5">
      <g>
       <use xlink:href="#m6db3868ebd" x="49.529818" y="295" style="stroke: #000000; stroke-width: 0.6"/>
      </g>
     </g>
    </g>
    <g id="xtick_6">
     <g id="line2d_6">
      <g>
       <use xlink:href="#m6db3868ebd" x="75.433418" y="295" style="stroke: #000000; stroke-width: 0.6"/>
      </g>
     </g>
    </g>
    <g id="xtick_7">
     <g id="line2d_7">
      <g>
       <use xlink:href="#m6db3868ebd" x="88.586712" y="295" style="stroke: #000000; stroke-width: 0.6"/>
      </g>
     </g>
    </g>
    <g id="xtick_8">
     <g id="line2d_8">
      <g>
       <use xlink:href="#m6db3868ebd" x="97.919122" y="295" style="stroke: #000000; stroke-width: 0.6"/>
      </g>
     </g>
    </g>
    <g id="xtick_9">
     <g id="line2d_9">
      <g>
       <use xlink:href="#m6db3868ebd" x="105.157902" y="295" style="stroke: #000000; stroke-width: 0.6"/>
      </g>
     </g>
    </g>
    <g id="xtick_10">
     <g id="line2d_10">
      <g>
       <use xlink:href="#m6db3868ebd" x="111.072416" y="295" style="stroke: #000000; stroke-width: 0.6"/>
      </g>
     </g>
    </g>
    <g id="xtick_11">
     <g id="line2d_11">
      <g>
       <use xlink:href="#m6db3868ebd" x="116.073066" y="295" style="stroke: #000000; stroke-width: 0.6"/>
      </g>
     </g>
    </g>
    <g id="xtick_12">
     <g id="line2d_12">
      <g>
       <use xlink:href="#m6db3868ebd" x="120.404826" y="295" style="stroke: #000000; stroke-width: 0.6"/>
      </g>
     </g>
    </g>
    <g id="xtick_13">
     <g id="line2d_13">
      <g>
       <use xlink:href="#m6db3868ebd" x="124.22571" y="295" style="stroke: #000000; stroke-width: 0.6"/>
      </g>
     </g>
    </g>
    <g id="xtick_14">
     <g id="line2d_14">
      <g>
       <use xlink:href="#m6db3868ebd" x="150.12931" y="295" style="stroke: #000000; stroke-width: 0.6"/>
      </g>
     </g>
    </g>
    <g id="xtick_15">
     <g id="line2d_15">
      <g>
       <use xlink:href="#m6db3868ebd" x="163.282604" y="295" style="stroke: #000000; stroke-width: 0.6"/>
      </g>
     </g>
    </g>
    <g id="xtick_16">
     <g id="line2d_16">
      <g>
       <use xlink:href="#m6db3868ebd" x="172.615014" y="295" style="stroke: #000000; stroke-width: 0.6"/>
      </g>
     </g>
    </g>
    <g id="xtick_17">
     <g id="line2d_17">
      <g>
       <use xlink:href="#m6db3868ebd" x="179.853794" y="295" style="stroke: #000000; stroke-width: 0.6"/>
      </g>
     </g>
    </g>
    <g id="xtick_18">
     <g id="line2d_18">
      <g>
       <use xlink:href="#m6db3868ebd" x="185.768308" y="295" style="stroke: #000000; stroke-width: 0.6"/>
      </g>
     </g>
    </g>
    <g id="xtick_19">
     <g id="line2d_19">
      <g>
       <use xlink:href="#m6db3868ebd" x="190.768958" y="295" style="stroke: #000000; stroke-width: 0.6"/>
      </g>
     </g>
    </g>
    <g id="xtick_20">
     <g id="line2d_20">
      <g>
       <use xlink:href="#m6db3868ebd" x="195.100718" y="295" style="stroke: #000000; stroke-width: 0.6"/>
      </g>
     </g>
    </g>
    <g id="xtick_21">
     <g id="line2d_21">
      <g>
       <use xlink:href="#m6db3868ebd" x="198.921602" y="295" style="stroke: #000000; stroke-width: 0.6"/>
      </g>
     </g>
    </g>
    <g id="text_4">
     <!-- sample frequency -->
     <g transform="translate(82.799075 323.276562) scale(0.1 -0.1)">
      <defs>
       <path id="DejaVuSans-73" d="M 2834 3397 
L 2834 2853 
Q 2591 2978 2328 3040 
Q 2066 3103 1784 3103 
Q 1356 3103 1142 2972 
Q 928 2841 928 2578 
Q 928 2378 1081 2264 
Q 1234 2150 1697 2047 
L 1894 2003 
Q 2506 1872 2764 1633 
Q 3022 1394 3022 966 
Q 3022 478 2636 193 
Q 2250 -91 1575 -91 
Q 1294 -91 989 -36 
Q 684 19 347 128 
L 347 722 
Q 666 556 975 473 
Q 1284 391 1588 391 
Q 1994 391 2212 530 
Q 2431 669 2431 922 
Q 2431 1156 2273 1281 
Q 2116 1406 1581 1522 
L 1381 1569 
Q 847 1681 609 1914 
Q 372 2147 372 2553 
Q 372 3047 722 3315 
Q 1072 3584 1716 3584 
Q 2034 3584 2315 3537 
Q 2597 3491 2834 3397 
z
" transform="scale(0.015625)"/>
       <path id="DejaVuSans-61" d="M 2194 1759 
Q 1497 1759 1228 1600 
Q 959 1441 959 1056 
Q 959 750 1161 570 
Q 1363 391 1709 391 
Q 2188 391 2477 730 
Q 2766 1069 2766 1631 
L 2766 1759 
L 2194 1759 
z
M 3341 1997 
L 3341 0 
L 2766 0 
L 2766 531 
Q 2569 213 2275 61 
Q 1981 -91 1556 -91 
Q 1019 -91 701 211 
Q 384 513 384 1019 
Q 384 1609 779 1909 
Q 1175 2209 1959 2209 
L 2766 2209 
L 2766 2266 
Q 2766 2663 2505 2880 
Q 2244 3097 1772 3097 
Q 1472 3097 1187 3025 
Q 903 2953 641 2809 
L 641 3341 
Q 956 3463 1253 3523 
Q 1550 3584 1831 3584 
Q 2591 3584 2966 3190 
Q 3341 2797 3341 1997 
z
" transform="scale(0.015625)"/>
       <path id="DejaVuSans-6d" d="M 3328 2828 
Q 3544 3216 3844 3400 
Q 4144 3584 4550 3584 
Q 5097 3584 5394 3201 
Q 5691 2819 5691 2113 
L 5691 0 
L 5113 0 
L 5113 2094 
Q 5113 2597 4934 2840 
Q 4756 3084 4391 3084 
Q 3944 3084 3684 2787 
Q 3425 2491 3425 1978 
L 3425 0 
L 2847 0 
L 2847 2094 
Q 2847 2600 2669 2842 
Q 2491 3084 2119 3084 
Q 1678 3084 1418 2786 
Q 1159 2488 1159 1978 
L 1159 0 
L 581 0 
L 581 3500 
L 1159 3500 
L 1159 2956 
Q 1356 3278 1631 3431 
Q 1906 3584 2284 3584 
Q 2666 3584 2933 3390 
Q 3200 3197 3328 2828 
z
" transform="scale(0.015625)"/>
       <path id="DejaVuSans-70" d="M 1159 525 
L 1159 -1331 
L 581 -1331 
L 581 3500 
L 1159 3500 
L 1159 2969 
Q 1341 3281 1617 3432 
Q 1894 3584 2278 3584 
Q 2916 3584 3314 3078 
Q 3713 2572 3713 1747 
Q 3713 922 3314 415 
Q 2916 -91 2278 -91 
Q 1894 -91 1617 61 
Q 1341 213 1159 525 
z
M 3116 1747 
Q 3116 2381 2855 2742 
Q 2594 3103 2138 3103 
Q 1681 3103 1420 2742 
Q 1159 2381 1159 1747 
Q 1159 1113 1420 752 
Q 1681 391 2138 391 
Q 2594 391 2855 752 
Q 3116 1113 3116 1747 
z
" transform="scale(0.015625)"/>
       <path id="DejaVuSans-6c" d="M 603 4863 
L 1178 4863 
L 1178 0 
L 603 0 
L 603 4863 
z
" transform="scale(0.015625)"/>
       <path id="DejaVuSans-65" d="M 3597 1894 
L 3597 1613 
L 953 1613 
Q 991 1019 1311 708 
Q 1631 397 2203 397 
Q 2534 397 2845 478 
Q 3156 559 3463 722 
L 3463 178 
Q 3153 47 2828 -22 
Q 2503 -91 2169 -91 
Q 1331 -91 842 396 
Q 353 884 353 1716 
Q 353 2575 817 3079 
Q 1281 3584 2069 3584 
Q 2775 3584 3186 3129 
Q 3597 2675 3597 1894 
z
M 3022 2063 
Q 3016 2534 2758 2815 
Q 2500 3097 2075 3097 
Q 1594 3097 1305 2825 
Q 1016 2553 972 2059 
L 3022 2063 
z
" transform="scale(0.015625)"/>
       <path id="DejaVuSans-20" transform="scale(0.015625)"/>
       <path id="DejaVuSans-66" d="M 2375 4863 
L 2375 4384 
L 1825 4384 
Q 1516 4384 1395 4259 
Q 1275 4134 1275 3809 
L 1275 3500 
L 2222 3500 
L 2222 3053 
L 1275 3053 
L 1275 0 
L 697 0 
L 697 3053 
L 147 3053 
L 147 3500 
L 697 3500 
L 697 3744 
Q 697 4328 969 4595 
Q 1241 4863 1831 4863 
L 2375 4863 
z
" transform="scale(0.015625)"/>
       <path id="DejaVuSans-72" d="M 2631 2963 
Q 2534 3019 2420 3045 
Q 2306 3072 2169 3072 
Q 1681 3072 1420 2755 
Q 1159 2438 1159 1844 
L 1159 0 
L 581 0 
L 581 3500 
L 1159 3500 
L 1159 2956 
Q 1341 3275 1631 3429 
Q 1922 3584 2338 3584 
Q 2397 3584 2469 3576 
Q 2541 3569 2628 3553 
L 2631 2963 
z
" transform="scale(0.015625)"/>
       <path id="DejaVuSans-71" d="M 947 1747 
Q 947 1113 1208 752 
Q 1469 391 1925 391 
Q 2381 391 2643 752 
Q 2906 1113 2906 1747 
Q 2906 2381 2643 2742 
Q 2381 3103 1925 3103 
Q 1469 3103 1208 2742 
Q 947 2381 947 1747 
z
M 2906 525 
Q 2725 213 2448 61 
Q 2172 -91 1784 -91 
Q 1150 -91 751 415 
Q 353 922 353 1747 
Q 353 2572 751 3078 
Q 1150 3584 1784 3584 
Q 2172 3584 2448 3432 
Q 2725 3281 2906 2969 
L 2906 3500 
L 3481 3500 
L 3481 -1331 
L 2906 -1331 
L 2906 525 
z
" transform="scale(0.015625)"/>
       <path id="DejaVuSans-75" d="M 544 1381 
L 544 3500 
L 1119 3500 
L 1119 1403 
Q 1119 906 1312 657 
Q 1506 409 1894 409 
Q 2359 409 2629 706 
Q 2900 1003 2900 1516 
L 2900 3500 
L 3475 3500 
L 3475 0 
L 2900 0 
L 2900 538 
Q 2691 219 2414 64 
Q 2138 -91 1772 -91 
Q 1169 -91 856 284 
Q 544 659 544 1381 
z
M 1991 3584 
L 1991 3584 
z
" transform="scale(0.015625)"/>
       <path id="DejaVuSans-6e" d="M 3513 2113 
L 3513 0 
L 2938 0 
L 2938 2094 
Q 2938 2591 2744 2837 
Q 2550 3084 2163 3084 
Q 1697 3084 1428 2787 
Q 1159 2491 1159 1978 
L 1159 0 
L 581 0 
L 581 3500 
L 1159 3500 
L 1159 2956 
Q 1366 3272 1645 3428 
Q 1925 3584 2291 3584 
Q 2894 3584 3203 3211 
Q 3513 2838 3513 2113 
z
" transform="scale(0.015625)"/>
       <path id="DejaVuSans-63" d="M 3122 3366 
L 3122 2828 
Q 2878 2963 2633 3030 
Q 2388 3097 2138 3097 
Q 1578 3097 1268 2742 
Q 959 2388 959 1747 
Q 959 1106 1268 751 
Q 1578 397 2138 397 
Q 2388 397 2633 464 
Q 2878 531 3122 666 
L 3122 134 
Q 2881 22 2623 -34 
Q 2366 -91 2075 -91 
Q 1284 -91 818 406 
Q 353 903 353 1747 
Q 353 2603 823 3093 
Q 1294 3584 2113 3584 
Q 2378 3584 2631 3529 
Q 2884 3475 3122 3366 
z
" transform="scale(0.015625)"/>
       <path id="DejaVuSans-79" d="M 2059 -325 
Q 1816 -950 1584 -1140 
Q 1353 -1331 966 -1331 
L 506 -1331 
L 506 -850 
L 844 -850 
Q 1081 -850 1212 -737 
Q 1344 -625 1503 -206 
L 1606 56 
L 191 3500 
L 800 3500 
L 1894 763 
L 2988 3500 
L 3597 3500 
L 2059 -325 
z
" transform="scale(0.015625)"/>
      </defs>
      <use xlink:href="#DejaVuSans-73"/>
      <use xlink:href="#DejaVuSans-61" transform="translate(52.099609 0)"/>
      <use xlink:href="#DejaVuSans-6d" transform="translate(113.378906 0)"/>
      <use xlink:href="#DejaVuSans-70" transform="translate(210.791016 0)"/>
      <use xlink:href="#DejaVuSans-6c" transform="translate(274.267578 0)"/>
      <use xlink:href="#DejaVuSans-65" transform="translate(302.050781 0)"/>
      <use xlink:href="#DejaVuSans-20" transform="translate(363.574219 0)"/>
      <use xlink:href="#DejaVuSans-66" transform="translate(395.361328 0)"/>
      <use xlink:href="#DejaVuSans-72" transform="translate(430.566406 0)"/>
      <use xlink:href="#DejaVuSans-65" transform="translate(469.429688 0)"/>
      <use xlink:href="#DejaVuSans-71" transform="translate(530.953125 0)"/>
      <use xlink:href="#DejaVuSans-75" transform="translate(594.429688 0)"/>
      <use xlink:href="#DejaVuSans-65" transform="translate(657.808594 0)"/>
      <use xlink:href="#DejaVuSans-6e" transform="translate(719.332031 0)"/>
      <use xlink:href="#DejaVuSans-63" transform="translate(782.710938 0)"/>
      <use xlink:href="#DejaVuSans-79" transform="translate(837.691406 0)"/>
     </g>
    </g>
   </g>
   <g id="matplotlib.axis_2">
    <g id="ytick_1">
     <g id="line2d_22">
      <defs>
       <path id="m4ba6d8f81e" d="M 0 0 
L -3.5 0 
" style="stroke: #000000; stroke-width: 0.8"/>
      </defs>
      <g>
       <use xlink:href="#m4ba6d8f81e" x="45.478125" y="280.61844" style="stroke: #000000; stroke-width: 0.8"/>
      </g>
     </g>
     <g id="text_5">
      <!-- $\mathdefault{10^{4}}$ -->
      <g transform="translate(20.878125 284.417659) scale(0.1 -0.1)">
       <defs>
        <path id="DejaVuSans-34" d="M 2419 4116 
L 825 1625 
L 2419 1625 
L 2419 4116 
z
M 2253 4666 
L 3047 4666 
L 3047 1625 
L 3713 1625 
L 3713 1100 
L 3047 1100 
L 3047 0 
L 2419 0 
L 2419 1100 
L 313 1100 
L 313 1709 
L 2253 4666 
z
" transform="scale(0.015625)"/>
       </defs>
       <use xlink:href="#DejaVuSans-31" transform="translate(0 0.684375)"/>
       <use xlink:href="#DejaVuSans-30" transform="translate(63.623047 0.684375)"/>
       <use xlink:href="#DejaVuSans-34" transform="translate(128.203125 38.965625) scale(0.7)"/>
      </g>
     </g>
    </g>
    <g id="ytick_2">
     <g id="line2d_23">
      <g>
       <use xlink:href="#m4ba6d8f81e" x="45.478125" y="130.202719" style="stroke: #000000; stroke-width: 0.8"/>
      </g>
     </g>
     <g id="text_6">
      <!-- $\mathdefault{10^{5}}$ -->
      <g transform="translate(20.878125 134.001937) scale(0.1 -0.1)">
       <defs>
        <path id="DejaVuSans-35" d="M 691 4666 
L 3169 4666 
L 3169 4134 
L 1269 4134 
L 1269 2991 
Q 1406 3038 1543 3061 
Q 1681 3084 1819 3084 
Q 2600 3084 3056 2656 
Q 3513 2228 3513 1497 
Q 3513 744 3044 326 
Q 2575 -91 1722 -91 
Q 1428 -91 1123 -41 
Q 819 9 494 109 
L 494 744 
Q 775 591 1075 516 
Q 1375 441 1709 441 
Q 2250 441 2565 725 
Q 2881 1009 2881 1497 
Q 2881 1984 2565 2268 
Q 2250 2553 1709 2553 
Q 1456 2553 1204 2497 
Q 953 2441 691 2322 
L 691 4666 
z
" transform="scale(0.015625)"/>
       </defs>
       <use xlink:href="#DejaVuSans-31" transform="translate(0 0.684375)"/>
       <use xlink:href="#DejaVuSans-30" transform="translate(63.623047 0.684375)"/>
       <use xlink:href="#DejaVuSans-35" transform="translate(128.203125 38.965625) scale(0.7)"/>
      </g>
     </g>
    </g>
    <g id="ytick_3">
     <g id="line2d_24">
      <defs>
       <path id="m184fedf608" d="M 0 0 
L -2 0 
" style="stroke: #000000; stroke-width: 0.6"/>
      </defs>
      <g>
       <use xlink:href="#m184fedf608" x="45.478125" y="287.501086" style="stroke: #000000; stroke-width: 0.6"/>
      </g>
     </g>
    </g>
    <g id="ytick_4">
     <g id="line2d_25">
      <g>
       <use xlink:href="#m184fedf608" x="45.478125" y="235.338796" style="stroke: #000000; stroke-width: 0.6"/>
      </g>
     </g>
    </g>
    <g id="ytick_5">
     <g id="line2d_26">
      <g>
       <use xlink:href="#m184fedf608" x="45.478125" y="208.851902" style="stroke: #000000; stroke-width: 0.6"/>
      </g>
     </g>
    </g>
    <g id="ytick_6">
     <g id="line2d_27">
      <g>
       <use xlink:href="#m184fedf608" x="45.478125" y="190.059152" style="stroke: #000000; stroke-width: 0.6"/>
      </g>
     </g>
    </g>
    <g id="ytick_7">
     <g id="line2d_28">
      <g>
       <use xlink:href="#m184fedf608" x="45.478125" y="175.482363" style="stroke: #000000; stroke-width: 0.6"/>
      </g>
     </g>
    </g>
    <g id="ytick_8">
     <g id="line2d_29">
      <g>
       <use xlink:href="#m184fedf608" x="45.478125" y="163.572258" style="stroke: #000000; stroke-width: 0.6"/>
      </g>
     </g>
    </g>
    <g id="ytick_9">
     <g id="line2d_30">
      <g>
       <use xlink:href="#m184fedf608" x="45.478125" y="153.502409" style="stroke: #000000; stroke-width: 0.6"/>
      </g>
     </g>
    </g>
    <g id="ytick_10">
     <g id="line2d_31">
      <g>
       <use xlink:href="#m184fedf608" x="45.478125" y="144.779508" style="stroke: #000000; stroke-width: 0.6"/>
      </g>
     </g>
    </g>
    <g id="ytick_11">
     <g id="line2d_32">
      <g>
       <use xlink:href="#m184fedf608" x="45.478125" y="137.085364" style="stroke: #000000; stroke-width: 0.6"/>
      </g>
     </g>
    </g>
    <g id="ytick_12">
     <g id="line2d_33">
      <g>
       <use xlink:href="#m184fedf608" x="45.478125" y="84.923075" style="stroke: #000000; stroke-width: 0.6"/>
      </g>
     </g>
    </g>
    <g id="ytick_13">
     <g id="line2d_34">
      <g>
       <use xlink:href="#m184fedf608" x="45.478125" y="58.436181" style="stroke: #000000; stroke-width: 0.6"/>
      </g>
     </g>
    </g>
    <g id="ytick_14">
     <g id="line2d_35">
      <g>
       <use xlink:href="#m184fedf608" x="45.478125" y="39.643431" style="stroke: #000000; stroke-width: 0.6"/>
      </g>
     </g>
    </g>
    <g id="ytick_15">
     <g id="line2d_36">
      <g>
       <use xlink:href="#m184fedf608" x="45.478125" y="25.066641" style="stroke: #000000; stroke-width: 0.6"/>
      </g>
     </g>
    </g>
    <g id="ytick_16">
     <g id="line2d_37">
      <g>
       <use xlink:href="#m184fedf608" x="45.478125" y="13.156537" style="stroke: #000000; stroke-width: 0.6"/>
      </g>
     </g>
    </g>
    <g id="text_7">
     <!-- variant count -->
     <g transform="translate(14.798438 184.45625) rotate(-90) scale(0.1 -0.1)">
      <defs>
       <path id="DejaVuSans-76" d="M 191 3500 
L 800 3500 
L 1894 563 
L 2988 3500 
L 3597 3500 
L 2284 0 
L 1503 0 
L 191 3500 
z
" transform="scale(0.015625)"/>
       <path id="DejaVuSans-69" d="M 603 3500 
L 1178 3500 
L 1178 0 
L 603 0 
L 603 3500 
z
M 603 4863 
L 1178 4863 
L 1178 4134 
L 603 4134 
L 603 4863 
z
" transform="scale(0.015625)"/>
       <path id="DejaVuSans-74" d="M 1172 4494 
L 1172 3500 
L 2356 3500 
L 2356 3053 
L 1172 3053 
L 1172 1153 
Q 1172 725 1289 603 
Q 1406 481 1766 481 
L 2356 481 
L 2356 0 
L 1766 0 
Q 1100 0 847 248 
Q 594 497 594 1153 
L 594 3053 
L 172 3053 
L 172 3500 
L 594 3500 
L 594 4494 
L 1172 4494 
z
" transform="scale(0.015625)"/>
       <path id="DejaVuSans-6f" d="M 1959 3097 
Q 1497 3097 1228 2736 
Q 959 2375 959 1747 
Q 959 1119 1226 758 
Q 1494 397 1959 397 
Q 2419 397 2687 759 
Q 2956 1122 2956 1747 
Q 2956 2369 2687 2733 
Q 2419 3097 1959 3097 
z
M 1959 3584 
Q 2709 3584 3137 3096 
Q 3566 2609 3566 1747 
Q 3566 888 3137 398 
Q 2709 -91 1959 -91 
Q 1206 -91 779 398 
Q 353 888 353 1747 
Q 353 2609 779 3096 
Q 1206 3584 1959 3584 
z
" transform="scale(0.015625)"/>
      </defs>
      <use xlink:href="#DejaVuSans-76"/>
      <use xlink:href="#DejaVuSans-61" transform="translate(59.179688 0)"/>
      <use xlink:href="#DejaVuSans-72" transform="translate(120.458984 0)"/>
      <use xlink:href="#DejaVuSans-69" transform="translate(161.572266 0)"/>
      <use xlink:href="#DejaVuSans-61" transform="translate(189.355469 0)"/>
      <use xlink:href="#DejaVuSans-6e" transform="translate(250.634766 0)"/>
      <use xlink:href="#DejaVuSans-74" transform="translate(314.013672 0)"/>
      <use xlink:href="#DejaVuSans-20" transform="translate(353.222656 0)"/>
      <use xlink:href="#DejaVuSans-63" transform="translate(385.009766 0)"/>
      <use xlink:href="#DejaVuSans-6f" transform="translate(439.990234 0)"/>
      <use xlink:href="#DejaVuSans-75" transform="translate(501.171875 0)"/>
      <use xlink:href="#DejaVuSans-6e" transform="translate(564.550781 0)"/>
      <use xlink:href="#DejaVuSans-74" transform="translate(627.929688 0)"/>
     </g>
    </g>
   </g>
   <g id="line2d_38">
    <defs>
     <path id="m244c8c4653" d="M 0 1.5 
C 0.397805 1.5 0.77937 1.341951 1.06066 1.06066 
C 1.341951 0.77937 1.5 0.397805 1.5 0 
C 1.5 -0.397805 1.341951 -0.77937 1.06066 -1.06066 
C 0.77937 -1.341951 0.397805 -1.5 0 -1.5 
C -0.397805 -1.5 -0.77937 -1.341951 -1.06066 -1.06066 
C -1.341951 -0.77937 -1.5 -0.397805 -1.5 0 
C -1.5 0.397805 -1.341951 0.77937 -1.06066 1.06066 
C -0.77937 1.341951 -0.397805 1.5 0 1.5 
z
" style="stroke: #1f77b4"/>
    </defs>
    <g clip-path="url(#pd976f8727e)">
     <use xlink:href="#m244c8c4653" x="52.947714" y="20.434259" style="fill: #1f77b4; stroke: #1f77b4"/>
     <use xlink:href="#m244c8c4653" x="75.433418" y="75.707164" style="fill: #1f77b4; stroke: #1f77b4"/>
     <use xlink:href="#m244c8c4653" x="88.586712" y="98.649667" style="fill: #1f77b4; stroke: #1f77b4"/>
     <use xlink:href="#m244c8c4653" x="97.919122" y="110.988192" style="fill: #1f77b4; stroke: #1f77b4"/>
     <use xlink:href="#m244c8c4653" x="105.157902" y="119.379464" style="fill: #1f77b4; stroke: #1f77b4"/>
     <use xlink:href="#m244c8c4653" x="111.072416" y="126.187122" style="fill: #1f77b4; stroke: #1f77b4"/>
     <use xlink:href="#m244c8c4653" x="116.073066" y="131.597154" style="fill: #1f77b4; stroke: #1f77b4"/>
     <use xlink:href="#m244c8c4653" x="120.404826" y="136.624639" style="fill: #1f77b4; stroke: #1f77b4"/>
     <use xlink:href="#m244c8c4653" x="124.22571" y="140.781575" style="fill: #1f77b4; stroke: #1f77b4"/>
     <use xlink:href="#m244c8c4653" x="127.643606" y="144.365196" style="fill: #1f77b4; stroke: #1f77b4"/>
     <use xlink:href="#m244c8c4653" x="130.73547" y="148.767665" style="fill: #1f77b4; stroke: #1f77b4"/>
     <use xlink:href="#m244c8c4653" x="133.55812" y="152.062585" style="fill: #1f77b4; stroke: #1f77b4"/>
     <use xlink:href="#m244c8c4653" x="136.154707" y="155.400815" style="fill: #1f77b4; stroke: #1f77b4"/>
     <use xlink:href="#m244c8c4653" x="138.55877" y="157.449165" style="fill: #1f77b4; stroke: #1f77b4"/>
     <use xlink:href="#m244c8c4653" x="140.7969" y="160.896167" style="fill: #1f77b4; stroke: #1f77b4"/>
     <use xlink:href="#m244c8c4653" x="142.89053" y="163.453693" style="fill: #1f77b4; stroke: #1f77b4"/>
     <use xlink:href="#m244c8c4653" x="144.857194" y="166.376315" style="fill: #1f77b4; stroke: #1f77b4"/>
     <use xlink:href="#m244c8c4653" x="146.711414" y="169.143516" style="fill: #1f77b4; stroke: #1f77b4"/>
     <use xlink:href="#m244c8c4653" x="148.465355" y="170.733733" style="fill: #1f77b4; stroke: #1f77b4"/>
     <use xlink:href="#m244c8c4653" x="150.12931" y="173.890997" style="fill: #1f77b4; stroke: #1f77b4"/>
     <use xlink:href="#m244c8c4653" x="151.712064" y="176.239271" style="fill: #1f77b4; stroke: #1f77b4"/>
     <use xlink:href="#m244c8c4653" x="153.221174" y="178.070161" style="fill: #1f77b4; stroke: #1f77b4"/>
     <use xlink:href="#m244c8c4653" x="154.66319" y="180.002835" style="fill: #1f77b4; stroke: #1f77b4"/>
     <use xlink:href="#m244c8c4653" x="156.043824" y="181.98289" style="fill: #1f77b4; stroke: #1f77b4"/>
     <use xlink:href="#m244c8c4653" x="157.36809" y="184.471583" style="fill: #1f77b4; stroke: #1f77b4"/>
     <use xlink:href="#m244c8c4653" x="158.640411" y="185.674484" style="fill: #1f77b4; stroke: #1f77b4"/>
     <use xlink:href="#m244c8c4653" x="159.864707" y="188.433369" style="fill: #1f77b4; stroke: #1f77b4"/>
     <use xlink:href="#m244c8c4653" x="161.044474" y="189.410766" style="fill: #1f77b4; stroke: #1f77b4"/>
     <use xlink:href="#m244c8c4653" x="162.182837" y="190.768496" style="fill: #1f77b4; stroke: #1f77b4"/>
     <use xlink:href="#m244c8c4653" x="163.282604" y="192.200594" style="fill: #1f77b4; stroke: #1f77b4"/>
     <use xlink:href="#m244c8c4653" x="164.346306" y="194.849" style="fill: #1f77b4; stroke: #1f77b4"/>
     <use xlink:href="#m244c8c4653" x="165.376234" y="196.010335" style="fill: #1f77b4; stroke: #1f77b4"/>
     <use xlink:href="#m244c8c4653" x="166.374467" y="196.735263" style="fill: #1f77b4; stroke: #1f77b4"/>
     <use xlink:href="#m244c8c4653" x="167.342898" y="198.400553" style="fill: #1f77b4; stroke: #1f77b4"/>
     <use xlink:href="#m244c8c4653" x="168.283254" y="199.957206" style="fill: #1f77b4; stroke: #1f77b4"/>
     <use xlink:href="#m244c8c4653" x="169.197118" y="201.396266" style="fill: #1f77b4; stroke: #1f77b4"/>
     <use xlink:href="#m244c8c4653" x="170.085941" y="203.096635" style="fill: #1f77b4; stroke: #1f77b4"/>
     <use xlink:href="#m244c8c4653" x="170.951059" y="203.971792" style="fill: #1f77b4; stroke: #1f77b4"/>
     <use xlink:href="#m244c8c4653" x="171.793704" y="205.331667" style="fill: #1f77b4; stroke: #1f77b4"/>
     <use xlink:href="#m244c8c4653" x="172.615014" y="206.878714" style="fill: #1f77b4; stroke: #1f77b4"/>
     <use xlink:href="#m244c8c4653" x="173.416043" y="207.714327" style="fill: #1f77b4; stroke: #1f77b4"/>
     <use xlink:href="#m244c8c4653" x="174.197768" y="209.06783" style="fill: #1f77b4; stroke: #1f77b4"/>
     <use xlink:href="#m244c8c4653" x="174.961098" y="209.273516" style="fill: #1f77b4; stroke: #1f77b4"/>
     <use xlink:href="#m244c8c4653" x="175.706878" y="210.985469" style="fill: #1f77b4; stroke: #1f77b4"/>
     <use xlink:href="#m244c8c4653" x="176.435898" y="211.423392" style="fill: #1f77b4; stroke: #1f77b4"/>
     <use xlink:href="#m244c8c4653" x="177.148894" y="212.74812" style="fill: #1f77b4; stroke: #1f77b4"/>
     <use xlink:href="#m244c8c4653" x="177.846555" y="214.112069" style="fill: #1f77b4; stroke: #1f77b4"/>
     <use xlink:href="#m244c8c4653" x="178.529528" y="213.987104" style="fill: #1f77b4; stroke: #1f77b4"/>
     <use xlink:href="#m244c8c4653" x="179.198418" y="216.20805" style="fill: #1f77b4; stroke: #1f77b4"/>
     <use xlink:href="#m244c8c4653" x="179.853794" y="216.488912" style="fill: #1f77b4; stroke: #1f77b4"/>
     <use xlink:href="#m244c8c4653" x="180.496192" y="217.093797" style="fill: #1f77b4; stroke: #1f77b4"/>
     <use xlink:href="#m244c8c4653" x="181.126115" y="218.066898" style="fill: #1f77b4; stroke: #1f77b4"/>
     <use xlink:href="#m244c8c4653" x="181.744038" y="219.309769" style="fill: #1f77b4; stroke: #1f77b4"/>
     <use xlink:href="#m244c8c4653" x="182.350411" y="220.306326" style="fill: #1f77b4; stroke: #1f77b4"/>
     <use xlink:href="#m244c8c4653" x="182.945658" y="220.782914" style="fill: #1f77b4; stroke: #1f77b4"/>
     <use xlink:href="#m244c8c4653" x="183.530178" y="221.257738" style="fill: #1f77b4; stroke: #1f77b4"/>
     <use xlink:href="#m244c8c4653" x="184.104353" y="221.876758" style="fill: #1f77b4; stroke: #1f77b4"/>
     <use xlink:href="#m244c8c4653" x="184.668541" y="222.407846" style="fill: #1f77b4; stroke: #1f77b4"/>
     <use xlink:href="#m244c8c4653" x="185.223085" y="223.081219" style="fill: #1f77b4; stroke: #1f77b4"/>
     <use xlink:href="#m244c8c4653" x="185.768308" y="223.75887" style="fill: #1f77b4; stroke: #1f77b4"/>
     <use xlink:href="#m244c8c4653" x="186.304519" y="225.542014" style="fill: #1f77b4; stroke: #1f77b4"/>
     <use xlink:href="#m244c8c4653" x="186.83201" y="226.217408" style="fill: #1f77b4; stroke: #1f77b4"/>
     <use xlink:href="#m244c8c4653" x="187.351062" y="225.629224" style="fill: #1f77b4; stroke: #1f77b4"/>
     <use xlink:href="#m244c8c4653" x="187.861938" y="226.163459" style="fill: #1f77b4; stroke: #1f77b4"/>
     <use xlink:href="#m244c8c4653" x="188.364894" y="227.57791" style="fill: #1f77b4; stroke: #1f77b4"/>
     <use xlink:href="#m244c8c4653" x="188.860171" y="227.540216" style="fill: #1f77b4; stroke: #1f77b4"/>
     <use xlink:href="#m244c8c4653" x="189.348" y="227.941464" style="fill: #1f77b4; stroke: #1f77b4"/>
     <use xlink:href="#m244c8c4653" x="189.828602" y="228.374545" style="fill: #1f77b4; stroke: #1f77b4"/>
     <use xlink:href="#m244c8c4653" x="190.302187" y="229.118624" style="fill: #1f77b4; stroke: #1f77b4"/>
     <use xlink:href="#m244c8c4653" x="190.768958" y="229.181015" style="fill: #1f77b4; stroke: #1f77b4"/>
     <use xlink:href="#m244c8c4653" x="191.229108" y="229.95845" style="fill: #1f77b4; stroke: #1f77b4"/>
     <use xlink:href="#m244c8c4653" x="191.682822" y="230.65398" style="fill: #1f77b4; stroke: #1f77b4"/>
     <use xlink:href="#m244c8c4653" x="192.130277" y="230.235774" style="fill: #1f77b4; stroke: #1f77b4"/>
     <use xlink:href="#m244c8c4653" x="192.571645" y="230.669183" style="fill: #1f77b4; stroke: #1f77b4"/>
     <use xlink:href="#m244c8c4653" x="193.007088" y="231.283282" style="fill: #1f77b4; stroke: #1f77b4"/>
     <use xlink:href="#m244c8c4653" x="193.436763" y="231.160612" style="fill: #1f77b4; stroke: #1f77b4"/>
     <use xlink:href="#m244c8c4653" x="193.860822" y="232.083193" style="fill: #1f77b4; stroke: #1f77b4"/>
     <use xlink:href="#m244c8c4653" x="194.279408" y="232.098732" style="fill: #1f77b4; stroke: #1f77b4"/>
     <use xlink:href="#m244c8c4653" x="194.692662" y="232.397801" style="fill: #1f77b4; stroke: #1f77b4"/>
     <use xlink:href="#m244c8c4653" x="195.100718" y="232.82384" style="fill: #1f77b4; stroke: #1f77b4"/>
     <use xlink:href="#m244c8c4653" x="195.503705" y="233.363495" style="fill: #1f77b4; stroke: #1f77b4"/>
     <use xlink:href="#m244c8c4653" x="195.901747" y="233.262167" style="fill: #1f77b4; stroke: #1f77b4"/>
     <use xlink:href="#m244c8c4653" x="196.294964" y="233.525312" style="fill: #1f77b4; stroke: #1f77b4"/>
     <use xlink:href="#m244c8c4653" x="196.683472" y="233.028447" style="fill: #1f77b4; stroke: #1f77b4"/>
     <use xlink:href="#m244c8c4653" x="197.067382" y="233.075755" style="fill: #1f77b4; stroke: #1f77b4"/>
     <use xlink:href="#m244c8c4653" x="197.446802" y="233.703456" style="fill: #1f77b4; stroke: #1f77b4"/>
     <use xlink:href="#m244c8c4653" x="197.821835" y="233.64296" style="fill: #1f77b4; stroke: #1f77b4"/>
     <use xlink:href="#m244c8c4653" x="198.192582" y="233.76082" style="fill: #1f77b4; stroke: #1f77b4"/>
     <use xlink:href="#m244c8c4653" x="198.55914" y="234.559565" style="fill: #1f77b4; stroke: #1f77b4"/>
     <use xlink:href="#m244c8c4653" x="198.921602" y="234.692027" style="fill: #1f77b4; stroke: #1f77b4"/>
     <use xlink:href="#m244c8c4653" x="199.280058" y="234.038791" style="fill: #1f77b4; stroke: #1f77b4"/>
     <use xlink:href="#m244c8c4653" x="199.634598" y="235.702358" style="fill: #1f77b4; stroke: #1f77b4"/>
     <use xlink:href="#m244c8c4653" x="199.985304" y="235.094286" style="fill: #1f77b4; stroke: #1f77b4"/>
     <use xlink:href="#m244c8c4653" x="200.332259" y="235.459759" style="fill: #1f77b4; stroke: #1f77b4"/>
     <use xlink:href="#m244c8c4653" x="200.675543" y="234.99024" style="fill: #1f77b4; stroke: #1f77b4"/>
     <use xlink:href="#m244c8c4653" x="201.015232" y="235.646546" style="fill: #1f77b4; stroke: #1f77b4"/>
     <use xlink:href="#m244c8c4653" x="201.351401" y="235.718782" style="fill: #1f77b4; stroke: #1f77b4"/>
     <use xlink:href="#m244c8c4653" x="201.684122" y="235.1594" style="fill: #1f77b4; stroke: #1f77b4"/>
     <use xlink:href="#m244c8c4653" x="202.013465" y="235.293085" style="fill: #1f77b4; stroke: #1f77b4"/>
     <use xlink:href="#m244c8c4653" x="202.339498" y="279.871492" style="fill: #1f77b4; stroke: #1f77b4"/>
    </g>
   </g>
   <g id="line2d_39">
    <path d="M 52.947714 20.456434 
L 75.433418 75.628986 
L 88.586712 98.457525 
L 97.919122 110.915857 
L 105.157902 119.446232 
L 111.072416 126.102923 
L 116.073066 131.675241 
L 120.404826 136.533671 
L 124.22571 140.881896 
L 127.643606 144.844643 
L 130.73547 148.503947 
L 133.55812 151.916514 
L 136.154707 155.123038 
L 138.55877 158.153609 
L 140.7969 161.031055 
L 142.89053 163.77308 
L 144.857194 166.393696 
L 146.711414 168.904196 
L 148.465355 171.313832 
L 150.12931 173.630307 
L 151.712064 175.860125 
L 153.221174 178.008852 
L 154.66319 180.081311 
L 156.043824 182.081732 
L 157.36809 184.013858 
L 158.640411 185.881042 
L 159.864707 187.686308 
L 161.044474 189.432405 
L 162.182837 191.121854 
L 163.282604 192.756977 
L 164.346306 194.339929 
L 165.376234 195.872716 
L 166.374467 197.357216 
L 167.342898 198.79519 
L 168.283254 200.188301 
L 169.197118 201.538117 
L 170.085941 202.846124 
L 170.951059 204.11373 
L 171.793704 205.342277 
L 172.615014 206.533038 
L 173.416043 207.687227 
L 174.197768 208.806004 
L 174.961098 209.890474 
L 175.706878 210.941691 
L 176.435898 211.960667 
L 177.148894 212.948363 
L 177.846555 213.905704 
L 178.529528 214.833569 
L 179.198418 215.732804 
L 179.853794 216.604215 
L 180.496192 217.448575 
L 181.126115 218.266621 
L 181.744038 219.059061 
L 182.350411 219.826571 
L 182.945658 220.569797 
L 183.530178 221.289359 
L 184.104353 221.985846 
L 184.668541 222.659826 
L 185.223085 223.311839 
L 185.768308 223.942402 
L 186.304519 224.552008 
L 186.83201 225.14113 
L 187.351062 225.710218 
L 187.861938 226.259703 
L 188.364894 226.789995 
L 188.860171 227.301487 
L 189.348 227.794551 
L 189.828602 228.269546 
L 190.302187 228.726809 
L 190.768958 229.166666 
L 191.229108 229.589424 
L 191.682822 229.995377 
L 192.130277 230.384802 
L 192.571645 230.757965 
L 193.007088 231.115117 
L 193.436763 231.456496 
L 193.860822 231.782329 
L 194.279408 232.092828 
L 194.692662 232.388196 
L 195.100718 232.668624 
L 195.503705 232.934291 
L 195.901747 233.185365 
L 196.294964 233.422006 
L 196.683472 233.644362 
L 197.067382 233.85257 
L 197.446802 234.046761 
L 197.821835 234.227054 
L 198.192582 234.393559 
L 198.55914 234.546377 
L 198.921602 234.685602 
L 199.280058 234.811318 
L 199.634598 234.923599 
L 199.985304 235.022514 
L 200.332259 235.108122 
L 200.675543 235.180474 
L 201.015232 235.239612 
L 201.351401 235.285572 
L 201.684122 235.318381 
L 202.013465 235.338059 
L 202.339498 280.624973 
" clip-path="url(#pd976f8727e)" style="fill: none; stroke: #ff7f0e; stroke-width: 1.5; stroke-linecap: square"/>
   </g>
   <g id="patch_3">
    <path d="M 45.478125 295 
L 45.478125 7.2 
" style="fill: none; stroke: #000000; stroke-width: 0.8; stroke-linejoin: miter; stroke-linecap: square"/>
   </g>
   <g id="patch_4">
    <path d="M 209.809087 295 
L 209.809087 7.2 
" style="fill: none; stroke: #000000; stroke-width: 0.8; stroke-linejoin: miter; stroke-linecap: square"/>
   </g>
   <g id="patch_5">
    <path d="M 45.478125 295 
L 209.809087 295 
" style="fill: none; stroke: #000000; stroke-width: 0.8; stroke-linejoin: miter; stroke-linecap: square"/>
   </g>
   <g id="patch_6">
    <path d="M 45.478125 7.2 
L 209.809087 7.2 
" style="fill: none; stroke: #000000; stroke-width: 0.8; stroke-linejoin: miter; stroke-linecap: square"/>
   </g>
  </g>
  <g id="axes_2">
   <g id="patch_7">
    <path d="M 281.221383 295 
L 445.552345 295 
L 445.552345 7.2 
L 281.221383 7.2 
z
" style="fill: #ffffff"/>
   </g>
   <g id="matplotlib.axis_3">
    <g id="xtick_22">
     <g id="line2d_40">
      <g>
       <use xlink:href="#mf207bc503e" x="315.973735" y="295" style="stroke: #000000; stroke-width: 0.8"/>
      </g>
     </g>
     <g id="text_8">
      <!-- $\mathdefault{10^{1}}$ -->
      <g transform="translate(307.173735 309.598437) scale(0.1 -0.1)">
       <use xlink:href="#DejaVuSans-31" transform="translate(0 0.684375)"/>
       <use xlink:href="#DejaVuSans-30" transform="translate(63.623047 0.684375)"/>
       <use xlink:href="#DejaVuSans-31" transform="translate(128.203125 38.965625) scale(0.7)"/>
      </g>
     </g>
    </g>
    <g id="xtick_23">
     <g id="line2d_41">
      <g>
       <use xlink:href="#mf207bc503e" x="370.539262" y="295" style="stroke: #000000; stroke-width: 0.8"/>
      </g>
     </g>
     <g id="text_9">
      <!-- $\mathdefault{10^{3}}$ -->
      <g transform="translate(361.739262 309.598437) scale(0.1 -0.1)">
       <defs>
        <path id="DejaVuSans-33" d="M 2597 2516 
Q 3050 2419 3304 2112 
Q 3559 1806 3559 1356 
Q 3559 666 3084 287 
Q 2609 -91 1734 -91 
Q 1441 -91 1130 -33 
Q 819 25 488 141 
L 488 750 
Q 750 597 1062 519 
Q 1375 441 1716 441 
Q 2309 441 2620 675 
Q 2931 909 2931 1356 
Q 2931 1769 2642 2001 
Q 2353 2234 1838 2234 
L 1294 2234 
L 1294 2753 
L 1863 2753 
Q 2328 2753 2575 2939 
Q 2822 3125 2822 3475 
Q 2822 3834 2567 4026 
Q 2313 4219 1838 4219 
Q 1578 4219 1281 4162 
Q 984 4106 628 3988 
L 628 4550 
Q 988 4650 1302 4700 
Q 1616 4750 1894 4750 
Q 2613 4750 3031 4423 
Q 3450 4097 3450 3541 
Q 3450 3153 3228 2886 
Q 3006 2619 2597 2516 
z
" transform="scale(0.015625)"/>
       </defs>
       <use xlink:href="#DejaVuSans-31" transform="translate(0 0.765625)"/>
       <use xlink:href="#DejaVuSans-30" transform="translate(63.623047 0.765625)"/>
       <use xlink:href="#DejaVuSans-33" transform="translate(128.203125 39.046875) scale(0.7)"/>
      </g>
     </g>
    </g>
    <g id="xtick_24">
     <g id="line2d_42">
      <g>
       <use xlink:href="#mf207bc503e" x="425.104788" y="295" style="stroke: #000000; stroke-width: 0.8"/>
      </g>
     </g>
     <g id="text_10">
      <!-- $\mathdefault{10^{5}}$ -->
      <g transform="translate(416.304788 309.598437) scale(0.1 -0.1)">
       <use xlink:href="#DejaVuSans-31" transform="translate(0 0.684375)"/>
       <use xlink:href="#DejaVuSans-30" transform="translate(63.623047 0.684375)"/>
       <use xlink:href="#DejaVuSans-35" transform="translate(128.203125 38.965625) scale(0.7)"/>
      </g>
     </g>
    </g>
    <g id="text_11">
     <!-- $t$ (generations ago) -->
     <g transform="translate(315.236864 323.278125) scale(0.1 -0.1)">
      <defs>
       <path id="DejaVuSans-Oblique-74" d="M 2706 3500 
L 2619 3053 
L 1472 3053 
L 1100 1153 
Q 1081 1047 1072 975 
Q 1063 903 1063 863 
Q 1063 663 1183 572 
Q 1303 481 1569 481 
L 2150 481 
L 2053 0 
L 1503 0 
Q 991 0 739 200 
Q 488 400 488 806 
Q 488 878 497 964 
Q 506 1050 525 1153 
L 897 3053 
L 409 3053 
L 500 3500 
L 978 3500 
L 1172 4494 
L 1747 4494 
L 1556 3500 
L 2706 3500 
z
" transform="scale(0.015625)"/>
       <path id="DejaVuSans-28" d="M 1984 4856 
Q 1566 4138 1362 3434 
Q 1159 2731 1159 2009 
Q 1159 1288 1364 580 
Q 1569 -128 1984 -844 
L 1484 -844 
Q 1016 -109 783 600 
Q 550 1309 550 2009 
Q 550 2706 781 3412 
Q 1013 4119 1484 4856 
L 1984 4856 
z
" transform="scale(0.015625)"/>
       <path id="DejaVuSans-67" d="M 2906 1791 
Q 2906 2416 2648 2759 
Q 2391 3103 1925 3103 
Q 1463 3103 1205 2759 
Q 947 2416 947 1791 
Q 947 1169 1205 825 
Q 1463 481 1925 481 
Q 2391 481 2648 825 
Q 2906 1169 2906 1791 
z
M 3481 434 
Q 3481 -459 3084 -895 
Q 2688 -1331 1869 -1331 
Q 1566 -1331 1297 -1286 
Q 1028 -1241 775 -1147 
L 775 -588 
Q 1028 -725 1275 -790 
Q 1522 -856 1778 -856 
Q 2344 -856 2625 -561 
Q 2906 -266 2906 331 
L 2906 616 
Q 2728 306 2450 153 
Q 2172 0 1784 0 
Q 1141 0 747 490 
Q 353 981 353 1791 
Q 353 2603 747 3093 
Q 1141 3584 1784 3584 
Q 2172 3584 2450 3431 
Q 2728 3278 2906 2969 
L 2906 3500 
L 3481 3500 
L 3481 434 
z
" transform="scale(0.015625)"/>
       <path id="DejaVuSans-29" d="M 513 4856 
L 1013 4856 
Q 1481 4119 1714 3412 
Q 1947 2706 1947 2009 
Q 1947 1309 1714 600 
Q 1481 -109 1013 -844 
L 513 -844 
Q 928 -128 1133 580 
Q 1338 1288 1338 2009 
Q 1338 2731 1133 3434 
Q 928 4138 513 4856 
z
" transform="scale(0.015625)"/>
      </defs>
      <use xlink:href="#DejaVuSans-Oblique-74" transform="translate(0 0.015625)"/>
      <use xlink:href="#DejaVuSans-20" transform="translate(39.208984 0.015625)"/>
      <use xlink:href="#DejaVuSans-28" transform="translate(70.996094 0.015625)"/>
      <use xlink:href="#DejaVuSans-67" transform="translate(110.009766 0.015625)"/>
      <use xlink:href="#DejaVuSans-65" transform="translate(173.486328 0.015625)"/>
      <use xlink:href="#DejaVuSans-6e" transform="translate(235.009766 0.015625)"/>
      <use xlink:href="#DejaVuSans-65" transform="translate(298.388672 0.015625)"/>
      <use xlink:href="#DejaVuSans-72" transform="translate(359.912109 0.015625)"/>
      <use xlink:href="#DejaVuSans-61" transform="translate(401.025391 0.015625)"/>
      <use xlink:href="#DejaVuSans-74" transform="translate(462.304688 0.015625)"/>
      <use xlink:href="#DejaVuSans-69" transform="translate(501.513672 0.015625)"/>
      <use xlink:href="#DejaVuSans-6f" transform="translate(529.296875 0.015625)"/>
      <use xlink:href="#DejaVuSans-6e" transform="translate(590.478516 0.015625)"/>
      <use xlink:href="#DejaVuSans-73" transform="translate(653.857422 0.015625)"/>
      <use xlink:href="#DejaVuSans-20" transform="translate(705.957031 0.015625)"/>
      <use xlink:href="#DejaVuSans-61" transform="translate(737.744141 0.015625)"/>
      <use xlink:href="#DejaVuSans-67" transform="translate(799.023438 0.015625)"/>
      <use xlink:href="#DejaVuSans-6f" transform="translate(862.5 0.015625)"/>
      <use xlink:href="#DejaVuSans-29" transform="translate(923.681641 0.015625)"/>
     </g>
    </g>
   </g>
   <g id="matplotlib.axis_4">
    <g id="ytick_17">
     <g id="line2d_43">
      <g>
       <use xlink:href="#m4ba6d8f81e" x="281.221383" y="22.926846" style="stroke: #000000; stroke-width: 0.8"/>
      </g>
     </g>
     <g id="text_12">
      <!-- $\mathdefault{10^{4}}$ -->
      <g transform="translate(256.621383 26.726065) scale(0.1 -0.1)">
       <use xlink:href="#DejaVuSans-31" transform="translate(0 0.684375)"/>
       <use xlink:href="#DejaVuSans-30" transform="translate(63.623047 0.684375)"/>
       <use xlink:href="#DejaVuSans-34" transform="translate(128.203125 38.965625) scale(0.7)"/>
      </g>
     </g>
    </g>
    <g id="ytick_18">
     <g id="line2d_44">
      <g>
       <use xlink:href="#m184fedf608" x="281.221383" y="247.856366" style="stroke: #000000; stroke-width: 0.6"/>
      </g>
     </g>
     <g id="text_13">
      <!-- $\mathdefault{3\times10^{3}}$ -->
      <g transform="translate(239.621383 251.655584) scale(0.1 -0.1)">
       <defs>
        <path id="DejaVuSans-d7" d="M 4488 3438 
L 3059 2003 
L 4488 575 
L 4116 197 
L 2681 1631 
L 1247 197 
L 878 575 
L 2303 2003 
L 878 3438 
L 1247 3816 
L 2681 2381 
L 4116 3816 
L 4488 3438 
z
" transform="scale(0.015625)"/>
       </defs>
       <use xlink:href="#DejaVuSans-33" transform="translate(0 0.765625)"/>
       <use xlink:href="#DejaVuSans-d7" transform="translate(83.105469 0.765625)"/>
       <use xlink:href="#DejaVuSans-31" transform="translate(186.376953 0.765625)"/>
       <use xlink:href="#DejaVuSans-30" transform="translate(250 0.765625)"/>
       <use xlink:href="#DejaVuSans-33" transform="translate(314.580078 39.046875) scale(0.7)"/>
      </g>
     </g>
    </g>
    <g id="ytick_19">
     <g id="line2d_45">
      <g>
       <use xlink:href="#m184fedf608" x="281.221383" y="194.110808" style="stroke: #000000; stroke-width: 0.6"/>
      </g>
     </g>
     <g id="text_14">
      <!-- $\mathdefault{4\times10^{3}}$ -->
      <g transform="translate(239.621383 197.910026) scale(0.1 -0.1)">
       <use xlink:href="#DejaVuSans-34" transform="translate(0 0.765625)"/>
       <use xlink:href="#DejaVuSans-d7" transform="translate(83.105469 0.765625)"/>
       <use xlink:href="#DejaVuSans-31" transform="translate(186.376953 0.765625)"/>
       <use xlink:href="#DejaVuSans-30" transform="translate(250 0.765625)"/>
       <use xlink:href="#DejaVuSans-33" transform="translate(314.580078 39.046875) scale(0.7)"/>
      </g>
     </g>
    </g>
    <g id="ytick_20">
     <g id="line2d_46">
      <g>
       <use xlink:href="#m184fedf608" x="281.221383" y="152.422514" style="stroke: #000000; stroke-width: 0.6"/>
      </g>
     </g>
    </g>
    <g id="ytick_21">
     <g id="line2d_47">
      <g>
       <use xlink:href="#m184fedf608" x="281.221383" y="118.360698" style="stroke: #000000; stroke-width: 0.6"/>
      </g>
     </g>
     <g id="text_15">
      <!-- $\mathdefault{6\times10^{3}}$ -->
      <g transform="translate(239.621383 122.159916) scale(0.1 -0.1)">
       <defs>
        <path id="DejaVuSans-36" d="M 2113 2584 
Q 1688 2584 1439 2293 
Q 1191 2003 1191 1497 
Q 1191 994 1439 701 
Q 1688 409 2113 409 
Q 2538 409 2786 701 
Q 3034 994 3034 1497 
Q 3034 2003 2786 2293 
Q 2538 2584 2113 2584 
z
M 3366 4563 
L 3366 3988 
Q 3128 4100 2886 4159 
Q 2644 4219 2406 4219 
Q 1781 4219 1451 3797 
Q 1122 3375 1075 2522 
Q 1259 2794 1537 2939 
Q 1816 3084 2150 3084 
Q 2853 3084 3261 2657 
Q 3669 2231 3669 1497 
Q 3669 778 3244 343 
Q 2819 -91 2113 -91 
Q 1303 -91 875 529 
Q 447 1150 447 2328 
Q 447 3434 972 4092 
Q 1497 4750 2381 4750 
Q 2619 4750 2861 4703 
Q 3103 4656 3366 4563 
z
" transform="scale(0.015625)"/>
       </defs>
       <use xlink:href="#DejaVuSans-36" transform="translate(0 0.765625)"/>
       <use xlink:href="#DejaVuSans-d7" transform="translate(83.105469 0.765625)"/>
       <use xlink:href="#DejaVuSans-31" transform="translate(186.376953 0.765625)"/>
       <use xlink:href="#DejaVuSans-30" transform="translate(250 0.765625)"/>
       <use xlink:href="#DejaVuSans-33" transform="translate(314.580078 39.046875) scale(0.7)"/>
      </g>
     </g>
    </g>
    <g id="ytick_22">
     <g id="line2d_48">
      <g>
       <use xlink:href="#m184fedf608" x="281.221383" y="89.561843" style="stroke: #000000; stroke-width: 0.6"/>
      </g>
     </g>
    </g>
    <g id="ytick_23">
     <g id="line2d_49">
      <g>
       <use xlink:href="#m184fedf608" x="281.221383" y="64.615139" style="stroke: #000000; stroke-width: 0.6"/>
      </g>
     </g>
    </g>
    <g id="ytick_24">
     <g id="line2d_50">
      <g>
       <use xlink:href="#m184fedf608" x="281.221383" y="42.610588" style="stroke: #000000; stroke-width: 0.6"/>
      </g>
     </g>
    </g>
    <g id="text_16">
     <!-- $\eta(t)$ -->
     <g transform="translate(233.521383 160.15) rotate(-90) scale(0.1 -0.1)">
      <defs>
       <path id="DejaVuSans-Oblique-3b7" d="M 3703 2113 
L 3034 -1331 
L 2459 -1331 
L 3125 2094 
Q 3222 2591 3075 2838 
Q 2931 3084 2544 3084 
Q 2078 3084 1750 2788 
Q 1425 2491 1325 1978 
L 941 0 
L 363 0 
L 1044 3500 
L 1622 3500 
L 1516 2956 
Q 1781 3272 2094 3428 
Q 2403 3584 2769 3584 
Q 3372 3584 3609 3213 
Q 3844 2838 3703 2113 
z
" transform="scale(0.015625)"/>
      </defs>
      <use xlink:href="#DejaVuSans-Oblique-3b7" transform="translate(0 0.125)"/>
      <use xlink:href="#DejaVuSans-28" transform="translate(63.378906 0.125)"/>
      <use xlink:href="#DejaVuSans-Oblique-74" transform="translate(102.392578 0.125)"/>
      <use xlink:href="#DejaVuSans-29" transform="translate(141.601562 0.125)"/>
     </g>
    </g>
   </g>
   <g id="line2d_51">
    <path d="M -1 22.926846 
L 288.690972 22.926846 
L 289.793306 22.926846 
L 290.89564 22.926846 
L 291.997973 22.926846 
L 293.100307 22.926846 
L 294.202641 22.926846 
L 295.304975 22.926846 
L 296.407309 22.926846 
L 297.509643 22.926846 
L 298.611977 22.926846 
L 299.714311 22.926846 
L 300.816644 22.926846 
L 301.918978 22.926846 
L 303.021312 22.926846 
L 304.123646 22.926846 
L 305.22598 22.926846 
L 306.328314 22.926846 
L 307.430648 22.926846 
L 308.532981 22.926846 
L 309.635315 22.926846 
L 310.737649 22.926846 
L 311.839983 22.926846 
L 312.942317 22.926846 
L 314.044651 22.926846 
L 315.146985 22.926846 
L 316.249319 22.926846 
L 317.351652 22.926846 
L 318.453986 22.926846 
L 319.55632 22.926846 
L 320.658654 22.926846 
L 321.760988 22.926846 
L 322.863322 22.926846 
L 323.965656 22.926846 
L 325.067989 22.926846 
L 326.170323 22.926846 
L 327.272657 22.926846 
L 328.374991 22.926846 
L 329.477325 22.926846 
L 330.579659 22.926846 
L 331.681993 281.918182 
L 332.784327 281.918182 
L 333.88666 281.918182 
L 334.988994 281.918182 
L 336.091328 281.918182 
L 337.193662 281.918182 
L 338.295996 281.918182 
L 339.39833 281.918182 
L 340.500664 281.918182 
L 341.602997 281.918182 
L 342.705331 281.918182 
L 343.807665 281.918182 
L 344.909999 281.918182 
L 346.012333 281.918182 
L 347.114667 281.918182 
L 348.217001 281.918182 
L 349.319335 281.918182 
L 350.421668 281.918182 
L 351.524002 281.918182 
L 352.626336 281.918182 
L 353.72867 22.926846 
L 354.831004 22.926846 
L 355.933338 22.926846 
L 357.035672 22.926846 
L 358.138005 22.926846 
L 359.240339 22.926846 
L 360.342673 22.926846 
L 361.445007 22.926846 
L 362.547341 22.926846 
L 363.649675 22.926846 
L 364.752009 22.926846 
L 365.854343 22.926846 
L 366.956676 22.926846 
L 368.05901 22.926846 
L 369.161344 22.926846 
L 370.263678 22.926846 
L 371.366012 22.926846 
L 372.468346 22.926846 
L 373.57068 22.926846 
L 374.673014 22.926846 
L 375.775347 22.926846 
L 376.877681 22.926846 
L 377.980015 22.926846 
L 379.082349 22.926846 
L 380.184683 22.926846 
L 381.287017 22.926846 
L 382.389351 22.926846 
L 383.491684 22.926846 
L 384.594018 22.926846 
L 385.696352 22.926846 
L 386.798686 22.926846 
L 387.90102 22.926846 
L 389.003354 22.926846 
L 390.105688 22.926846 
L 391.208022 22.926846 
L 392.310355 22.926846 
L 393.412689 22.926846 
L 394.515023 22.926846 
L 395.617357 22.926846 
L 396.719691 22.926846 
L 397.822025 22.926846 
" clip-path="url(#pbd010b219b)" style="fill: none; stroke: #1f77b4; stroke-width: 1.5; stroke-linecap: square"/>
   </g>
   <g id="line2d_52">
    <path d="M -1 20.351513 
L 288.690972 20.352261 
L 290.19998 20.35089 
L 291.708988 20.349356 
L 293.217996 20.347646 
L 294.727003 20.345744 
L 296.236011 20.343635 
L 297.745019 20.341305 
L 299.254027 20.338742 
L 300.763035 20.335937 
L 302.272043 20.332888 
L 303.781051 20.329596 
L 305.290059 20.326074 
L 306.799067 20.322347 
L 308.308075 20.318462 
L 309.817083 20.314481 
L 311.326091 20.3105 
L 312.835099 20.306647 
L 314.344106 20.303096 
L 315.853114 20.300071 
L 317.362122 20.297861 
L 318.87113 20.296819 
L 320.380138 20.297378 
L 321.889146 20.300041 
L 323.398154 20.305416 
L 324.907162 20.314242 
L 326.41617 20.343901 
L 327.925178 23.911889 
L 329.434186 74.834791 
L 330.943194 192.813132 
L 332.452201 280.51881 
L 333.961209 280.582684 
L 335.470217 280.633124 
L 336.979225 280.659903 
L 338.488233 280.666514 
L 339.997241 280.656037 
L 341.506249 280.631384 
L 343.015257 280.595514 
L 344.524265 280.551494 
L 346.033273 280.502336 
L 347.542281 280.45077 
L 349.051289 280.395148 
L 350.560296 277.648807 
L 352.069304 222.789215 
L 353.578312 154.306322 
L 355.08732 97.24186 
L 356.596328 47.880487 
L 358.105336 26.006064 
L 359.614344 21.992143 
L 361.123352 21.966605 
L 362.63236 21.937547 
L 364.141368 21.906046 
L 365.650376 21.873585 
L 367.159384 21.841704 
L 368.668392 21.812388 
L 370.177399 21.787958 
L 371.686407 21.770879 
L 373.195415 21.763508 
L 374.704423 21.767797 
L 376.213431 21.784974 
L 377.722439 21.815314 
L 379.231447 21.858027 
L 380.740455 21.911334 
L 382.249463 21.972708 
L 383.758471 22.039359 
L 385.267479 22.116699 
L 386.776487 22.07294 
L 388.285494 23.068959 
L 389.794502 23.124335 
L 391.30351 23.107199 
L 392.812518 23.127281 
L 394.321526 23.168609 
L 395.830534 23.204115 
L 397.339542 23.22937 
L 398.84855 23.242953 
L 400.357558 23.243772 
L 401.866566 23.231356 
L 403.375574 23.206092 
L 404.884582 23.16936 
L 406.393589 23.123521 
L 407.902597 23.071585 
L 409.411605 23.014639 
L 410.920613 22.973608 
L 412.429621 22.954081 
L 413.938629 21.395829 
L 415.447637 21.363406 
L 416.956645 21.339498 
L 418.465653 21.323303 
L 419.974661 21.313319 
L 421.483669 21.307779 
L 422.992677 21.305048 
L 424.501685 21.303868 
L 426.010692 21.303429 
L 427.5197 21.303291 
L 429.028708 21.303255 
L 430.537716 21.303248 
L 432.046724 21.303247 
L 433.555732 21.303246 
L 435.06474 21.303246 
L 436.573748 21.303246 
L 438.082756 21.303246 
" clip-path="url(#pbd010b219b)" style="fill: none; stroke: #ff7f0e; stroke-width: 1.5; stroke-linecap: square"/>
   </g>
   <g id="patch_8">
    <path d="M 281.221383 295 
L 281.221383 7.2 
" style="fill: none; stroke: #000000; stroke-width: 0.8; stroke-linejoin: miter; stroke-linecap: square"/>
   </g>
   <g id="patch_9">
    <path d="M 445.552345 295 
L 445.552345 7.2 
" style="fill: none; stroke: #000000; stroke-width: 0.8; stroke-linejoin: miter; stroke-linecap: square"/>
   </g>
   <g id="patch_10">
    <path d="M 281.221383 295 
L 445.552345 295 
" style="fill: none; stroke: #000000; stroke-width: 0.8; stroke-linejoin: miter; stroke-linecap: square"/>
   </g>
   <g id="patch_11">
    <path d="M 281.221383 7.2 
L 445.552345 7.2 
" style="fill: none; stroke: #000000; stroke-width: 0.8; stroke-linejoin: miter; stroke-linecap: square"/>
   </g>
   <g id="legend_1">
    <g id="patch_12">
     <path d="M 367.439845 290 
L 438.552345 290 
Q 440.552345 290 440.552345 288 
L 440.552345 259.64375 
Q 440.552345 257.64375 438.552345 257.64375 
L 367.439845 257.64375 
Q 365.439845 257.64375 365.439845 259.64375 
L 365.439845 288 
Q 365.439845 290 367.439845 290 
z
" style="fill: #ffffff; opacity: 0.8; stroke: #cccccc; stroke-linejoin: miter"/>
    </g>
    <g id="line2d_53">
     <path d="M 369.439845 265.742187 
L 379.439845 265.742187 
L 389.439845 265.742187 
" style="fill: none; stroke: #1f77b4; stroke-width: 1.5; stroke-linecap: square"/>
    </g>
    <g id="text_17">
     <!-- true -->
     <g transform="translate(397.439845 269.242187) scale(0.1 -0.1)">
      <use xlink:href="#DejaVuSans-74"/>
      <use xlink:href="#DejaVuSans-72" transform="translate(39.208984 0)"/>
      <use xlink:href="#DejaVuSans-75" transform="translate(80.322266 0)"/>
      <use xlink:href="#DejaVuSans-65" transform="translate(143.701172 0)"/>
     </g>
    </g>
    <g id="line2d_54">
     <path d="M 369.439845 280.420312 
L 379.439845 280.420312 
L 389.439845 280.420312 
" style="fill: none; stroke: #ff7f0e; stroke-width: 1.5; stroke-linecap: square"/>
    </g>
    <g id="text_18">
     <!-- inferred -->
     <g transform="translate(397.439845 283.920312) scale(0.1 -0.1)">
      <defs>
       <path id="DejaVuSans-64" d="M 2906 2969 
L 2906 4863 
L 3481 4863 
L 3481 0 
L 2906 0 
L 2906 525 
Q 2725 213 2448 61 
Q 2172 -91 1784 -91 
Q 1150 -91 751 415 
Q 353 922 353 1747 
Q 353 2572 751 3078 
Q 1150 3584 1784 3584 
Q 2172 3584 2448 3432 
Q 2725 3281 2906 2969 
z
M 947 1747 
Q 947 1113 1208 752 
Q 1469 391 1925 391 
Q 2381 391 2643 752 
Q 2906 1113 2906 1747 
Q 2906 2381 2643 2742 
Q 2381 3103 1925 3103 
Q 1469 3103 1208 2742 
Q 947 2381 947 1747 
z
" transform="scale(0.015625)"/>
      </defs>
      <use xlink:href="#DejaVuSans-69"/>
      <use xlink:href="#DejaVuSans-6e" transform="translate(27.783203 0)"/>
      <use xlink:href="#DejaVuSans-66" transform="translate(91.162109 0)"/>
      <use xlink:href="#DejaVuSans-65" transform="translate(126.367188 0)"/>
      <use xlink:href="#DejaVuSans-72" transform="translate(187.890625 0)"/>
      <use xlink:href="#DejaVuSans-72" transform="translate(227.253906 0)"/>
      <use xlink:href="#DejaVuSans-65" transform="translate(266.117188 0)"/>
      <use xlink:href="#DejaVuSans-64" transform="translate(327.640625 0)"/>
     </g>
    </g>
   </g>
  </g>
 </g>
 <defs>
  <clipPath id="pd976f8727e">
   <rect x="45.478125" y="7.2" width="164.330962" height="287.8"/>
  </clipPath>
  <clipPath id="pbd010b219b">
   <rect x="281.221383" y="7.2" width="164.330962" height="287.8"/>
  </clipPath>
 </defs>
</svg>
