<?xml version="1.0" encoding="utf-8" standalone="no"?>
<!DOCTYPE svg PUBLIC "-//W3C//DTD SVG 1.1//EN"
  "http://www.w3.org/Graphics/SVG/1.1/DTD/svg11.dtd">
<svg xmlns:xlink="http://www.w3.org/1999/xlink" width="567.940626pt" height="274.978125pt" viewBox="0 0 567.940626 274.978125" xmlns="http://www.w3.org/2000/svg" version="1.1">
 <metadata>
  <rdf:RDF xmlns:dc="http://purl.org/dc/elements/1.1/" xmlns:cc="http://creativecommons.org/ns#" xmlns:rdf="http://www.w3.org/1999/02/22-rdf-syntax-ns#">
   <cc:Work>
    <dc:type rdf:resource="http://purl.org/dc/dcmitype/StillImage"/>
    <dc:date>2022-01-31T22:08:18.552029</dc:date>
    <dc:format>image/svg+xml</dc:format>
    <dc:creator>
     <cc:Agent>
      <dc:title>Matplotlib v3.5.1, https://matplotlib.org/</dc:title>
     </cc:Agent>
    </dc:creator>
   </cc:Work>
  </rdf:RDF>
 </metadata>
 <defs>
  <style type="text/css">*{stroke-linejoin: round; stroke-linecap: butt}</style>
 </defs>
 <g id="figure_1">
  <g id="patch_1">
   <path d="M 0 274.978125 
L 567.940626 274.978125 
L 567.940626 0 
L 0 0 
z
" style="fill: #ffffff"/>
  </g>
  <g id="axes_1">
   <g id="patch_2">
    <path d="M 45.478125 237.4 
L 276.646486 237.4 
L 276.646486 7.2 
L 45.478125 7.2 
z
" style="fill: #ffffff"/>
   </g>
   <g id="PolyCollection_1">
    <defs>
     <path id="m75faba5ada" d="M 55.985778 -257.314489 
L 55.985778 -257.199661 
L 83.50488 -214.042869 
L 99.602523 -195.001486 
L 111.023983 -184.682568 
L 119.883155 -177.427153 
L 127.121626 -171.488451 
L 133.241665 -166.260271 
L 138.543085 -161.489447 
L 143.219269 -157.05134 
L 147.402257 -152.877413 
L 151.186231 -148.925844 
L 154.640728 -145.169669 
L 157.818557 -141.590492 
L 160.760768 -138.174648 
L 163.4999 -134.912047 
L 166.062187 -131.795025 
L 168.469086 -128.81667 
L 170.738371 -125.970944 
L 172.88493 -123.253366 
L 174.92136 -120.658591 
L 176.858411 -118.182675 
L 178.705333 -115.820851 
L 180.470143 -113.569629 
L 182.15983 -111.423737 
L 183.780532 -109.379404 
L 185.33766 -107.433079 
L 186.836014 -105.580391 
L 188.27987 -103.816459 
L 189.673054 -102.137143 
L 191.019003 -100.539614 
L 192.320813 -99.019081 
L 193.58129 -97.571706 
L 194.802976 -96.194027 
L 195.988189 -94.882174 
L 197.139042 -93.632008 
L 198.257473 -92.440396 
L 199.345258 -91.304348 
L 200.404032 -90.219975 
L 201.435303 -89.184931 
L 202.440462 -88.196209 
L 203.4208 -87.250133 
L 204.377513 -86.344997 
L 205.311713 -85.478666 
L 206.224436 -84.647209 
L 207.116646 -83.850354 
L 207.989245 -83.084781 
L 208.843077 -82.348207 
L 209.678933 -81.640994 
L 210.497553 -80.957416 
L 211.299634 -80.300392 
L 212.085832 -79.665209 
L 212.856762 -79.051484 
L 213.613007 -78.458745 
L 214.355116 -77.884813 
L 215.083608 -77.328967 
L 215.798973 -76.788741 
L 216.501675 -76.264855 
L 217.192157 -75.756331 
L 217.870834 -75.262106 
L 218.538105 -74.779294 
L 219.194346 -74.310133 
L 219.839916 -73.853376 
L 220.475156 -73.405903 
L 221.100392 -72.971709 
L 221.715934 -72.54576 
L 222.322079 -72.128359 
L 222.919107 -71.72169 
L 223.507291 -71.322328 
L 224.086888 -70.930527 
L 224.658145 -70.546542 
L 225.221299 -70.170628 
L 225.776576 -69.801076 
L 226.324194 -69.43809 
L 226.864361 -69.081874 
L 227.397277 -68.732633 
L 227.923135 -68.386507 
L 228.442118 -68.047698 
L 228.954405 -67.714347 
L 229.460166 -67.384527 
L 229.959564 -67.060444 
L 230.452759 -66.74014 
L 230.939903 -66.425856 
L 231.421141 -66.115601 
L 231.896616 -65.807321 
L 232.366463 -65.505439 
L 232.830816 -65.205722 
L 233.2898 -64.910445 
L 233.743538 -64.619719 
L 234.192149 -64.329172 
L 234.635748 -64.045597 
L 235.074445 -63.762332 
L 235.508347 -63.483975 
L 235.937559 -63.208336 
L 236.36218 -62.935482 
L 236.782307 -62.665481 
L 237.198035 -62.39605 
L 237.609455 -62.131945 
L 238.016655 -61.868517 
L 238.419722 -61.610584 
L 238.818737 -61.351026 
L 239.213781 -61.097102 
L 239.604934 -60.844045 
L 239.992271 -60.594337 
L 240.375865 -60.345577 
L 240.755788 -60.097792 
L 241.13211 -59.85351 
L 241.504898 -59.612801 
L 241.874219 -59.373208 
L 242.240135 -59.134759 
L 242.60271 -58.897481 
L 242.962004 -58.663977 
L 243.318075 -58.43173 
L 243.670981 -58.20077 
L 244.020778 -57.971126 
L 244.36752 -57.745458 
L 244.711259 -57.518548 
L 245.052048 -57.295703 
L 245.389937 -57.074321 
L 245.724974 -56.854433 
L 246.057207 -56.636069 
L 246.386684 -56.419259 
L 246.713448 -56.201303 
L 247.037545 -55.987681 
L 247.359018 -55.775706 
L 247.677909 -55.56541 
L 247.994259 -55.356824 
L 248.308107 -55.14998 
L 248.619495 -54.942092 
L 248.928459 -54.738812 
L 249.235037 -54.534524 
L 249.539266 -54.334936 
L 249.841181 -54.134377 
L 250.140818 -53.935724 
L 250.43821 -53.739009 
L 250.733391 -53.544264 
L 251.026394 -53.351522 
L 251.31725 -53.157874 
L 251.60599 -52.969223 
L 251.892646 -52.779703 
L 252.177247 -52.592291 
L 252.459823 -52.407017 
L 252.740401 -52.223916 
L 253.01901 -52.043019 
L 253.295678 -51.86436 
L 253.570431 -51.684924 
L 253.843296 -51.507764 
L 254.114298 -51.335988 
L 254.383463 -51.163493 
L 254.650816 -50.993372 
L 254.91638 -50.825659 
L 255.180179 -50.660386 
L 255.442237 -50.497585 
L 255.702577 -50.340437 
L 255.961221 -50.182687 
L 256.21819 -50.027504 
L 256.473508 -49.878105 
L 256.727193 -49.731358 
L 256.979268 -49.587294 
L 257.229753 -49.445943 
L 257.478667 -49.310563 
L 257.72603 -49.177977 
L 257.971862 -49.05471 
L 258.21618 -48.931074 
L 258.459005 -48.816869 
L 258.700353 -48.7089 
L 258.940243 -48.607216 
L 259.178692 -48.511864 
L 259.415718 -48.426189 
L 259.651337 -48.346946 
L 259.885566 -48.280793 
L 260.118421 -48.22448 
L 260.349918 -48.178047 
L 260.580073 -48.148169 
L 260.808902 -48.131561 
L 261.03642 -48.134883 
L 261.26264 -48.15149 
L 261.48758 -48.191319 
L 261.711252 -48.254303 
L 261.933671 -48.343641 
L 262.15485 -48.462458 
L 262.374805 -48.613783 
L 262.593547 -48.800528 
L 262.811091 -49.028712 
L 263.02745 -49.304106 
L 263.242636 -49.632168 
L 263.456661 -50.021158 
L 263.669539 -50.478759 
L 263.881282 -51.015063 
L 264.091902 -51.645282 
L 264.30141 -52.38305 
L 264.509818 -53.248943 
L 264.717138 -54.272009 
L 264.923381 -55.49322 
L 265.128558 -56.988651 
L 265.33268 -58.889804 
L 265.535758 -61.517043 
L 265.737802 -65.850576 
L 265.938824 -75.650801 
L 266.138833 -105.55482 
L 266.138833 -106.274605 
L 266.138833 -106.274605 
L 265.938824 -76.6825 
L 265.737802 -67.012136 
L 265.535758 -62.742472 
L 265.33268 -60.152433 
L 265.128558 -58.281364 
L 264.923381 -56.811391 
L 264.717138 -55.607001 
L 264.509818 -54.599893 
L 264.30141 -53.747707 
L 264.091902 -53.022368 
L 263.881282 -52.404022 
L 263.669539 -51.876497 
L 263.456661 -51.4281 
L 263.242636 -51.04603 
L 263.02745 -50.722831 
L 262.811091 -50.450503 
L 262.593547 -50.226918 
L 262.374805 -50.043366 
L 262.15485 -49.894024 
L 261.933671 -49.779268 
L 261.711252 -49.69299 
L 261.48758 -49.628964 
L 261.26264 -49.590501 
L 261.03642 -49.571256 
L 260.808902 -49.571256 
L 260.580073 -49.587294 
L 260.349918 -49.616147 
L 260.118421 -49.66099 
L 259.885566 -49.715376 
L 259.651337 -49.78246 
L 259.415718 -49.858994 
L 259.178692 -49.941745 
L 258.940243 -50.037022 
L 258.700353 -50.135244 
L 258.459005 -50.242703 
L 258.21618 -50.356178 
L 257.971862 -50.47562 
L 257.72603 -50.600976 
L 257.478667 -50.729071 
L 257.229753 -50.862988 
L 256.979268 -50.999571 
L 256.727193 -51.14188 
L 256.473508 -51.286777 
L 256.21819 -51.434233 
L 255.961221 -51.584219 
L 255.702577 -51.73975 
L 255.442237 -51.897729 
L 255.180179 -52.055104 
L 254.91638 -52.217899 
L 254.650816 -52.38305 
L 254.383463 -52.550528 
L 254.114298 -52.7203 
L 253.843296 -52.889375 
L 253.570431 -53.063656 
L 253.295678 -53.237204 
L 253.01901 -53.415869 
L 252.740401 -53.593764 
L 252.459823 -53.773791 
L 252.177247 -53.955921 
L 251.892646 -54.140121 
L 251.60599 -54.326361 
L 251.31725 -54.511763 
L 251.026394 -54.702001 
L 250.733391 -54.891366 
L 250.43821 -55.082671 
L 250.140818 -55.278681 
L 249.841181 -55.473762 
L 249.539266 -55.667925 
L 249.235037 -55.866686 
L 248.928459 -56.067234 
L 248.619495 -56.269538 
L 248.308107 -56.470855 
L 247.994259 -56.673894 
L 247.677909 -56.881312 
L 247.359018 -57.087691 
L 247.037545 -57.298363 
L 246.713448 -57.507964 
L 246.386684 -57.719137 
L 246.057207 -57.934473 
L 245.724974 -58.148691 
L 245.389937 -58.364392 
L 245.052048 -58.584128 
L 244.711259 -58.805264 
L 244.36752 -59.02522 
L 244.020778 -59.249082 
L 243.670981 -59.474259 
L 243.318075 -59.703232 
L 242.962004 -59.93094 
L 242.60271 -60.16236 
L 242.240135 -60.394956 
L 241.874219 -60.6287 
L 241.504898 -60.866006 
L 241.13211 -61.104379 
L 240.755788 -61.343793 
L 240.375865 -61.586619 
L 239.992271 -61.830407 
L 239.604934 -62.077499 
L 239.213781 -62.327828 
L 238.818737 -62.578987 
L 238.419722 -62.833276 
L 238.016655 -63.088318 
L 237.609455 -63.346386 
L 237.198035 -63.607414 
L 236.782307 -63.871336 
L 236.36218 -64.138086 
L 235.937559 -64.407598 
L 235.508347 -64.679808 
L 235.074445 -64.954651 
L 234.635748 -65.232062 
L 234.192149 -65.514158 
L 233.743538 -65.798665 
L 233.2898 -66.085521 
L 232.830816 -66.376799 
L 232.366463 -66.672389 
L 231.896616 -66.970084 
L 231.421141 -67.273998 
L 230.939903 -67.579833 
L 230.452759 -67.891647 
L 229.959564 -68.205203 
L 229.460166 -68.526522 
L 228.954405 -68.849376 
L 228.442118 -69.179692 
L 227.923135 -69.513317 
L 227.397277 -69.854072 
L 226.864361 -70.199816 
L 226.324194 -70.552328 
L 225.776576 -70.909501 
L 225.221299 -71.273082 
L 224.658145 -71.644756 
L 224.086888 -72.024276 
L 223.507291 -72.409554 
L 222.919107 -72.804049 
L 222.322079 -73.205656 
L 221.715934 -73.617716 
L 221.100392 -74.038104 
L 220.475156 -74.468283 
L 219.839916 -74.907904 
L 219.194346 -75.360053 
L 218.538105 -75.822574 
L 217.870834 -76.298423 
L 217.192157 -76.787083 
L 216.501675 -77.289677 
L 215.798973 -77.80725 
L 215.083608 -78.340765 
L 214.355116 -78.889526 
L 213.613007 -79.457504 
L 212.856762 -80.043815 
L 212.085832 -80.649088 
L 211.299634 -81.276839 
L 210.497553 -81.927386 
L 209.678933 -82.600957 
L 208.843077 -83.300522 
L 207.989245 -84.028769 
L 207.116646 -84.785362 
L 206.224436 -85.573894 
L 205.311713 -86.396244 
L 204.377513 -87.252705 
L 203.4208 -88.14841 
L 202.440462 -89.082936 
L 201.435303 -90.06168 
L 200.404032 -91.085759 
L 199.345258 -92.159305 
L 198.257473 -93.283461 
L 197.139042 -94.463172 
L 195.988189 -95.700281 
L 194.802976 -96.999958 
L 193.58129 -98.364172 
L 192.320813 -99.797744 
L 191.019003 -101.304059 
L 189.673054 -102.887757 
L 188.27987 -104.550902 
L 186.836014 -106.299733 
L 185.33766 -108.136576 
L 183.780532 -110.066997 
L 182.15983 -112.094524 
L 180.470143 -114.222706 
L 178.705333 -116.45722 
L 176.858411 -118.800626 
L 174.92136 -121.258256 
L 172.88493 -123.834711 
L 170.738371 -126.533308 
L 168.469086 -129.359831 
L 166.062187 -132.319102 
L 163.4999 -135.416984 
L 160.760768 -138.659868 
L 157.818557 -142.056063 
L 154.640728 -145.615776 
L 151.186231 -149.352122 
L 147.402257 -153.283581 
L 143.219269 -157.437564 
L 138.543085 -161.855375 
L 133.241665 -166.60589 
L 127.121626 -171.812743 
L 119.883155 -177.729013 
L 111.023983 -184.959078 
L 99.602523 -195.245511 
L 83.50488 -214.236594 
L 55.985778 -257.314489 
z
" style="stroke: #1f77b4; stroke-opacity: 0.1"/>
    </defs>
    <g clip-path="url(#p9fe125b9b2)">
     <use xlink:href="#m75faba5ada" x="0" y="274.978125" style="fill: #1f77b4; fill-opacity: 0.1; stroke: #1f77b4; stroke-opacity: 0.1"/>
    </g>
   </g>
   <g id="matplotlib.axis_1">
    <g id="xtick_1">
     <g id="line2d_1">
      <defs>
       <path id="m4a8ba0ba7a" d="M 0 0 
L 0 3.5 
" style="stroke: #000000; stroke-width: 0.8"/>
      </defs>
      <g>
       <use xlink:href="#m4a8ba0ba7a" x="55.985778" y="237.4" style="stroke: #000000; stroke-width: 0.8"/>
      </g>
     </g>
     <g id="text_1">
      <!-- $\mathdefault{10^{0}}$ -->
      <g transform="translate(47.185778 251.998437)scale(0.1 -0.1)">
       <defs>
        <path id="DejaVuSans-31" d="M 794 531 
L 1825 531 
L 1825 4091 
L 703 3866 
L 703 4441 
L 1819 4666 
L 2450 4666 
L 2450 531 
L 3481 531 
L 3481 0 
L 794 0 
L 794 531 
z
" transform="scale(0.015625)"/>
        <path id="DejaVuSans-30" d="M 2034 4250 
Q 1547 4250 1301 3770 
Q 1056 3291 1056 2328 
Q 1056 1369 1301 889 
Q 1547 409 2034 409 
Q 2525 409 2770 889 
Q 3016 1369 3016 2328 
Q 3016 3291 2770 3770 
Q 2525 4250 2034 4250 
z
M 2034 4750 
Q 2819 4750 3233 4129 
Q 3647 3509 3647 2328 
Q 3647 1150 3233 529 
Q 2819 -91 2034 -91 
Q 1250 -91 836 529 
Q 422 1150 422 2328 
Q 422 3509 836 4129 
Q 1250 4750 2034 4750 
z
" transform="scale(0.015625)"/>
       </defs>
       <use xlink:href="#DejaVuSans-31" transform="translate(0 0.765625)"/>
       <use xlink:href="#DejaVuSans-30" transform="translate(63.623047 0.765625)"/>
       <use xlink:href="#DejaVuSans-30" transform="translate(128.203125 39.046875)scale(0.7)"/>
      </g>
     </g>
    </g>
    <g id="xtick_2">
     <g id="line2d_2">
      <g>
       <use xlink:href="#m4a8ba0ba7a" x="147.402257" y="237.4" style="stroke: #000000; stroke-width: 0.8"/>
      </g>
     </g>
     <g id="text_2">
      <!-- $\mathdefault{10^{1}}$ -->
      <g transform="translate(138.602257 251.998437)scale(0.1 -0.1)">
       <use xlink:href="#DejaVuSans-31" transform="translate(0 0.684375)"/>
       <use xlink:href="#DejaVuSans-30" transform="translate(63.623047 0.684375)"/>
       <use xlink:href="#DejaVuSans-31" transform="translate(128.203125 38.965625)scale(0.7)"/>
      </g>
     </g>
    </g>
    <g id="xtick_3">
     <g id="line2d_3">
      <g>
       <use xlink:href="#m4a8ba0ba7a" x="238.818737" y="237.4" style="stroke: #000000; stroke-width: 0.8"/>
      </g>
     </g>
     <g id="text_3">
      <!-- $\mathdefault{10^{2}}$ -->
      <g transform="translate(230.018737 251.998437)scale(0.1 -0.1)">
       <defs>
        <path id="DejaVuSans-32" d="M 1228 531 
L 3431 531 
L 3431 0 
L 469 0 
L 469 531 
Q 828 903 1448 1529 
Q 2069 2156 2228 2338 
Q 2531 2678 2651 2914 
Q 2772 3150 2772 3378 
Q 2772 3750 2511 3984 
Q 2250 4219 1831 4219 
Q 1534 4219 1204 4116 
Q 875 4013 500 3803 
L 500 4441 
Q 881 4594 1212 4672 
Q 1544 4750 1819 4750 
Q 2544 4750 2975 4387 
Q 3406 4025 3406 3419 
Q 3406 3131 3298 2873 
Q 3191 2616 2906 2266 
Q 2828 2175 2409 1742 
Q 1991 1309 1228 531 
z
" transform="scale(0.015625)"/>
       </defs>
       <use xlink:href="#DejaVuSans-31" transform="translate(0 0.765625)"/>
       <use xlink:href="#DejaVuSans-30" transform="translate(63.623047 0.765625)"/>
       <use xlink:href="#DejaVuSans-32" transform="translate(128.203125 39.046875)scale(0.7)"/>
      </g>
     </g>
    </g>
    <g id="xtick_4">
     <g id="line2d_4">
      <defs>
       <path id="mdc5ac3a8ac" d="M 0 0 
L 0 2 
" style="stroke: #000000; stroke-width: 0.6"/>
      </defs>
      <g>
       <use xlink:href="#mdc5ac3a8ac" x="47.126606" y="237.4" style="stroke: #000000; stroke-width: 0.6"/>
      </g>
     </g>
    </g>
    <g id="xtick_5">
     <g id="line2d_5">
      <g>
       <use xlink:href="#mdc5ac3a8ac" x="51.802789" y="237.4" style="stroke: #000000; stroke-width: 0.6"/>
      </g>
     </g>
    </g>
    <g id="xtick_6">
     <g id="line2d_6">
      <g>
       <use xlink:href="#mdc5ac3a8ac" x="83.50488" y="237.4" style="stroke: #000000; stroke-width: 0.6"/>
      </g>
     </g>
    </g>
    <g id="xtick_7">
     <g id="line2d_7">
      <g>
       <use xlink:href="#mdc5ac3a8ac" x="99.602523" y="237.4" style="stroke: #000000; stroke-width: 0.6"/>
      </g>
     </g>
    </g>
    <g id="xtick_8">
     <g id="line2d_8">
      <g>
       <use xlink:href="#mdc5ac3a8ac" x="111.023983" y="237.4" style="stroke: #000000; stroke-width: 0.6"/>
      </g>
     </g>
    </g>
    <g id="xtick_9">
     <g id="line2d_9">
      <g>
       <use xlink:href="#mdc5ac3a8ac" x="119.883155" y="237.4" style="stroke: #000000; stroke-width: 0.6"/>
      </g>
     </g>
    </g>
    <g id="xtick_10">
     <g id="line2d_10">
      <g>
       <use xlink:href="#mdc5ac3a8ac" x="127.121626" y="237.4" style="stroke: #000000; stroke-width: 0.6"/>
      </g>
     </g>
    </g>
    <g id="xtick_11">
     <g id="line2d_11">
      <g>
       <use xlink:href="#mdc5ac3a8ac" x="133.241665" y="237.4" style="stroke: #000000; stroke-width: 0.6"/>
      </g>
     </g>
    </g>
    <g id="xtick_12">
     <g id="line2d_12">
      <g>
       <use xlink:href="#mdc5ac3a8ac" x="138.543085" y="237.4" style="stroke: #000000; stroke-width: 0.6"/>
      </g>
     </g>
    </g>
    <g id="xtick_13">
     <g id="line2d_13">
      <g>
       <use xlink:href="#mdc5ac3a8ac" x="143.219269" y="237.4" style="stroke: #000000; stroke-width: 0.6"/>
      </g>
     </g>
    </g>
    <g id="xtick_14">
     <g id="line2d_14">
      <g>
       <use xlink:href="#mdc5ac3a8ac" x="174.92136" y="237.4" style="stroke: #000000; stroke-width: 0.6"/>
      </g>
     </g>
    </g>
    <g id="xtick_15">
     <g id="line2d_15">
      <g>
       <use xlink:href="#mdc5ac3a8ac" x="191.019003" y="237.4" style="stroke: #000000; stroke-width: 0.6"/>
      </g>
     </g>
    </g>
    <g id="xtick_16">
     <g id="line2d_16">
      <g>
       <use xlink:href="#mdc5ac3a8ac" x="202.440462" y="237.4" style="stroke: #000000; stroke-width: 0.6"/>
      </g>
     </g>
    </g>
    <g id="xtick_17">
     <g id="line2d_17">
      <g>
       <use xlink:href="#mdc5ac3a8ac" x="211.299634" y="237.4" style="stroke: #000000; stroke-width: 0.6"/>
      </g>
     </g>
    </g>
    <g id="xtick_18">
     <g id="line2d_18">
      <g>
       <use xlink:href="#mdc5ac3a8ac" x="218.538105" y="237.4" style="stroke: #000000; stroke-width: 0.6"/>
      </g>
     </g>
    </g>
    <g id="xtick_19">
     <g id="line2d_19">
      <g>
       <use xlink:href="#mdc5ac3a8ac" x="224.658145" y="237.4" style="stroke: #000000; stroke-width: 0.6"/>
      </g>
     </g>
    </g>
    <g id="xtick_20">
     <g id="line2d_20">
      <g>
       <use xlink:href="#mdc5ac3a8ac" x="229.959564" y="237.4" style="stroke: #000000; stroke-width: 0.6"/>
      </g>
     </g>
    </g>
    <g id="xtick_21">
     <g id="line2d_21">
      <g>
       <use xlink:href="#mdc5ac3a8ac" x="234.635748" y="237.4" style="stroke: #000000; stroke-width: 0.6"/>
      </g>
     </g>
    </g>
    <g id="xtick_22">
     <g id="line2d_22">
      <g>
       <use xlink:href="#mdc5ac3a8ac" x="266.337839" y="237.4" style="stroke: #000000; stroke-width: 0.6"/>
      </g>
     </g>
    </g>
    <g id="text_4">
     <!-- sample frequency -->
     <g transform="translate(116.217774 265.676562)scale(0.1 -0.1)">
      <defs>
       <path id="DejaVuSans-73" d="M 2834 3397 
L 2834 2853 
Q 2591 2978 2328 3040 
Q 2066 3103 1784 3103 
Q 1356 3103 1142 2972 
Q 928 2841 928 2578 
Q 928 2378 1081 2264 
Q 1234 2150 1697 2047 
L 1894 2003 
Q 2506 1872 2764 1633 
Q 3022 1394 3022 966 
Q 3022 478 2636 193 
Q 2250 -91 1575 -91 
Q 1294 -91 989 -36 
Q 684 19 347 128 
L 347 722 
Q 666 556 975 473 
Q 1284 391 1588 391 
Q 1994 391 2212 530 
Q 2431 669 2431 922 
Q 2431 1156 2273 1281 
Q 2116 1406 1581 1522 
L 1381 1569 
Q 847 1681 609 1914 
Q 372 2147 372 2553 
Q 372 3047 722 3315 
Q 1072 3584 1716 3584 
Q 2034 3584 2315 3537 
Q 2597 3491 2834 3397 
z
" transform="scale(0.015625)"/>
       <path id="DejaVuSans-61" d="M 2194 1759 
Q 1497 1759 1228 1600 
Q 959 1441 959 1056 
Q 959 750 1161 570 
Q 1363 391 1709 391 
Q 2188 391 2477 730 
Q 2766 1069 2766 1631 
L 2766 1759 
L 2194 1759 
z
M 3341 1997 
L 3341 0 
L 2766 0 
L 2766 531 
Q 2569 213 2275 61 
Q 1981 -91 1556 -91 
Q 1019 -91 701 211 
Q 384 513 384 1019 
Q 384 1609 779 1909 
Q 1175 2209 1959 2209 
L 2766 2209 
L 2766 2266 
Q 2766 2663 2505 2880 
Q 2244 3097 1772 3097 
Q 1472 3097 1187 3025 
Q 903 2953 641 2809 
L 641 3341 
Q 956 3463 1253 3523 
Q 1550 3584 1831 3584 
Q 2591 3584 2966 3190 
Q 3341 2797 3341 1997 
z
" transform="scale(0.015625)"/>
       <path id="DejaVuSans-6d" d="M 3328 2828 
Q 3544 3216 3844 3400 
Q 4144 3584 4550 3584 
Q 5097 3584 5394 3201 
Q 5691 2819 5691 2113 
L 5691 0 
L 5113 0 
L 5113 2094 
Q 5113 2597 4934 2840 
Q 4756 3084 4391 3084 
Q 3944 3084 3684 2787 
Q 3425 2491 3425 1978 
L 3425 0 
L 2847 0 
L 2847 2094 
Q 2847 2600 2669 2842 
Q 2491 3084 2119 3084 
Q 1678 3084 1418 2786 
Q 1159 2488 1159 1978 
L 1159 0 
L 581 0 
L 581 3500 
L 1159 3500 
L 1159 2956 
Q 1356 3278 1631 3431 
Q 1906 3584 2284 3584 
Q 2666 3584 2933 3390 
Q 3200 3197 3328 2828 
z
" transform="scale(0.015625)"/>
       <path id="DejaVuSans-70" d="M 1159 525 
L 1159 -1331 
L 581 -1331 
L 581 3500 
L 1159 3500 
L 1159 2969 
Q 1341 3281 1617 3432 
Q 1894 3584 2278 3584 
Q 2916 3584 3314 3078 
Q 3713 2572 3713 1747 
Q 3713 922 3314 415 
Q 2916 -91 2278 -91 
Q 1894 -91 1617 61 
Q 1341 213 1159 525 
z
M 3116 1747 
Q 3116 2381 2855 2742 
Q 2594 3103 2138 3103 
Q 1681 3103 1420 2742 
Q 1159 2381 1159 1747 
Q 1159 1113 1420 752 
Q 1681 391 2138 391 
Q 2594 391 2855 752 
Q 3116 1113 3116 1747 
z
" transform="scale(0.015625)"/>
       <path id="DejaVuSans-6c" d="M 603 4863 
L 1178 4863 
L 1178 0 
L 603 0 
L 603 4863 
z
" transform="scale(0.015625)"/>
       <path id="DejaVuSans-65" d="M 3597 1894 
L 3597 1613 
L 953 1613 
Q 991 1019 1311 708 
Q 1631 397 2203 397 
Q 2534 397 2845 478 
Q 3156 559 3463 722 
L 3463 178 
Q 3153 47 2828 -22 
Q 2503 -91 2169 -91 
Q 1331 -91 842 396 
Q 353 884 353 1716 
Q 353 2575 817 3079 
Q 1281 3584 2069 3584 
Q 2775 3584 3186 3129 
Q 3597 2675 3597 1894 
z
M 3022 2063 
Q 3016 2534 2758 2815 
Q 2500 3097 2075 3097 
Q 1594 3097 1305 2825 
Q 1016 2553 972 2059 
L 3022 2063 
z
" transform="scale(0.015625)"/>
       <path id="DejaVuSans-20" transform="scale(0.015625)"/>
       <path id="DejaVuSans-66" d="M 2375 4863 
L 2375 4384 
L 1825 4384 
Q 1516 4384 1395 4259 
Q 1275 4134 1275 3809 
L 1275 3500 
L 2222 3500 
L 2222 3053 
L 1275 3053 
L 1275 0 
L 697 0 
L 697 3053 
L 147 3053 
L 147 3500 
L 697 3500 
L 697 3744 
Q 697 4328 969 4595 
Q 1241 4863 1831 4863 
L 2375 4863 
z
" transform="scale(0.015625)"/>
       <path id="DejaVuSans-72" d="M 2631 2963 
Q 2534 3019 2420 3045 
Q 2306 3072 2169 3072 
Q 1681 3072 1420 2755 
Q 1159 2438 1159 1844 
L 1159 0 
L 581 0 
L 581 3500 
L 1159 3500 
L 1159 2956 
Q 1341 3275 1631 3429 
Q 1922 3584 2338 3584 
Q 2397 3584 2469 3576 
Q 2541 3569 2628 3553 
L 2631 2963 
z
" transform="scale(0.015625)"/>
       <path id="DejaVuSans-71" d="M 947 1747 
Q 947 1113 1208 752 
Q 1469 391 1925 391 
Q 2381 391 2643 752 
Q 2906 1113 2906 1747 
Q 2906 2381 2643 2742 
Q 2381 3103 1925 3103 
Q 1469 3103 1208 2742 
Q 947 2381 947 1747 
z
M 2906 525 
Q 2725 213 2448 61 
Q 2172 -91 1784 -91 
Q 1150 -91 751 415 
Q 353 922 353 1747 
Q 353 2572 751 3078 
Q 1150 3584 1784 3584 
Q 2172 3584 2448 3432 
Q 2725 3281 2906 2969 
L 2906 3500 
L 3481 3500 
L 3481 -1331 
L 2906 -1331 
L 2906 525 
z
" transform="scale(0.015625)"/>
       <path id="DejaVuSans-75" d="M 544 1381 
L 544 3500 
L 1119 3500 
L 1119 1403 
Q 1119 906 1312 657 
Q 1506 409 1894 409 
Q 2359 409 2629 706 
Q 2900 1003 2900 1516 
L 2900 3500 
L 3475 3500 
L 3475 0 
L 2900 0 
L 2900 538 
Q 2691 219 2414 64 
Q 2138 -91 1772 -91 
Q 1169 -91 856 284 
Q 544 659 544 1381 
z
M 1991 3584 
L 1991 3584 
z
" transform="scale(0.015625)"/>
       <path id="DejaVuSans-6e" d="M 3513 2113 
L 3513 0 
L 2938 0 
L 2938 2094 
Q 2938 2591 2744 2837 
Q 2550 3084 2163 3084 
Q 1697 3084 1428 2787 
Q 1159 2491 1159 1978 
L 1159 0 
L 581 0 
L 581 3500 
L 1159 3500 
L 1159 2956 
Q 1366 3272 1645 3428 
Q 1925 3584 2291 3584 
Q 2894 3584 3203 3211 
Q 3513 2838 3513 2113 
z
" transform="scale(0.015625)"/>
       <path id="DejaVuSans-63" d="M 3122 3366 
L 3122 2828 
Q 2878 2963 2633 3030 
Q 2388 3097 2138 3097 
Q 1578 3097 1268 2742 
Q 959 2388 959 1747 
Q 959 1106 1268 751 
Q 1578 397 2138 397 
Q 2388 397 2633 464 
Q 2878 531 3122 666 
L 3122 134 
Q 2881 22 2623 -34 
Q 2366 -91 2075 -91 
Q 1284 -91 818 406 
Q 353 903 353 1747 
Q 353 2603 823 3093 
Q 1294 3584 2113 3584 
Q 2378 3584 2631 3529 
Q 2884 3475 3122 3366 
z
" transform="scale(0.015625)"/>
       <path id="DejaVuSans-79" d="M 2059 -325 
Q 1816 -950 1584 -1140 
Q 1353 -1331 966 -1331 
L 506 -1331 
L 506 -850 
L 844 -850 
Q 1081 -850 1212 -737 
Q 1344 -625 1503 -206 
L 1606 56 
L 191 3500 
L 800 3500 
L 1894 763 
L 2988 3500 
L 3597 3500 
L 2059 -325 
z
" transform="scale(0.015625)"/>
      </defs>
      <use xlink:href="#DejaVuSans-73"/>
      <use xlink:href="#DejaVuSans-61" x="52.099609"/>
      <use xlink:href="#DejaVuSans-6d" x="113.378906"/>
      <use xlink:href="#DejaVuSans-70" x="210.791016"/>
      <use xlink:href="#DejaVuSans-6c" x="274.267578"/>
      <use xlink:href="#DejaVuSans-65" x="302.050781"/>
      <use xlink:href="#DejaVuSans-20" x="363.574219"/>
      <use xlink:href="#DejaVuSans-66" x="395.361328"/>
      <use xlink:href="#DejaVuSans-72" x="430.566406"/>
      <use xlink:href="#DejaVuSans-65" x="469.429688"/>
      <use xlink:href="#DejaVuSans-71" x="530.953125"/>
      <use xlink:href="#DejaVuSans-75" x="594.429688"/>
      <use xlink:href="#DejaVuSans-65" x="657.808594"/>
      <use xlink:href="#DejaVuSans-6e" x="719.332031"/>
      <use xlink:href="#DejaVuSans-63" x="782.710938"/>
      <use xlink:href="#DejaVuSans-79" x="837.691406"/>
     </g>
    </g>
   </g>
   <g id="matplotlib.axis_2">
    <g id="ytick_1">
     <g id="line2d_23">
      <defs>
       <path id="m7b6c491d8a" d="M 0 0 
L -3.5 0 
" style="stroke: #000000; stroke-width: 0.8"/>
      </defs>
      <g>
       <use xlink:href="#m7b6c491d8a" x="45.478125" y="235.744713" style="stroke: #000000; stroke-width: 0.8"/>
      </g>
     </g>
     <g id="text_5">
      <!-- $\mathdefault{10^{4}}$ -->
      <g transform="translate(20.878125 239.543931)scale(0.1 -0.1)">
       <defs>
        <path id="DejaVuSans-34" d="M 2419 4116 
L 825 1625 
L 2419 1625 
L 2419 4116 
z
M 2253 4666 
L 3047 4666 
L 3047 1625 
L 3713 1625 
L 3713 1100 
L 3047 1100 
L 3047 0 
L 2419 0 
L 2419 1100 
L 313 1100 
L 313 1709 
L 2253 4666 
z
" transform="scale(0.015625)"/>
       </defs>
       <use xlink:href="#DejaVuSans-31" transform="translate(0 0.684375)"/>
       <use xlink:href="#DejaVuSans-30" transform="translate(63.623047 0.684375)"/>
       <use xlink:href="#DejaVuSans-34" transform="translate(128.203125 38.965625)scale(0.7)"/>
      </g>
     </g>
    </g>
    <g id="ytick_2">
     <g id="line2d_24">
      <g>
       <use xlink:href="#m7b6c491d8a" x="45.478125" y="140.817747" style="stroke: #000000; stroke-width: 0.8"/>
      </g>
     </g>
     <g id="text_6">
      <!-- $\mathdefault{10^{5}}$ -->
      <g transform="translate(20.878125 144.616966)scale(0.1 -0.1)">
       <defs>
        <path id="DejaVuSans-35" d="M 691 4666 
L 3169 4666 
L 3169 4134 
L 1269 4134 
L 1269 2991 
Q 1406 3038 1543 3061 
Q 1681 3084 1819 3084 
Q 2600 3084 3056 2656 
Q 3513 2228 3513 1497 
Q 3513 744 3044 326 
Q 2575 -91 1722 -91 
Q 1428 -91 1123 -41 
Q 819 9 494 109 
L 494 744 
Q 775 591 1075 516 
Q 1375 441 1709 441 
Q 2250 441 2565 725 
Q 2881 1009 2881 1497 
Q 2881 1984 2565 2268 
Q 2250 2553 1709 2553 
Q 1456 2553 1204 2497 
Q 953 2441 691 2322 
L 691 4666 
z
" transform="scale(0.015625)"/>
       </defs>
       <use xlink:href="#DejaVuSans-31" transform="translate(0 0.684375)"/>
       <use xlink:href="#DejaVuSans-30" transform="translate(63.623047 0.684375)"/>
       <use xlink:href="#DejaVuSans-35" transform="translate(128.203125 38.965625)scale(0.7)"/>
      </g>
     </g>
    </g>
    <g id="ytick_3">
     <g id="line2d_25">
      <g>
       <use xlink:href="#m7b6c491d8a" x="45.478125" y="45.890781" style="stroke: #000000; stroke-width: 0.8"/>
      </g>
     </g>
     <g id="text_7">
      <!-- $\mathdefault{10^{6}}$ -->
      <g transform="translate(20.878125 49.69)scale(0.1 -0.1)">
       <defs>
        <path id="DejaVuSans-36" d="M 2113 2584 
Q 1688 2584 1439 2293 
Q 1191 2003 1191 1497 
Q 1191 994 1439 701 
Q 1688 409 2113 409 
Q 2538 409 2786 701 
Q 3034 994 3034 1497 
Q 3034 2003 2786 2293 
Q 2538 2584 2113 2584 
z
M 3366 4563 
L 3366 3988 
Q 3128 4100 2886 4159 
Q 2644 4219 2406 4219 
Q 1781 4219 1451 3797 
Q 1122 3375 1075 2522 
Q 1259 2794 1537 2939 
Q 1816 3084 2150 3084 
Q 2853 3084 3261 2657 
Q 3669 2231 3669 1497 
Q 3669 778 3244 343 
Q 2819 -91 2113 -91 
Q 1303 -91 875 529 
Q 447 1150 447 2328 
Q 447 3434 972 4092 
Q 1497 4750 2381 4750 
Q 2619 4750 2861 4703 
Q 3103 4656 3366 4563 
z
" transform="scale(0.015625)"/>
       </defs>
       <use xlink:href="#DejaVuSans-31" transform="translate(0 0.765625)"/>
       <use xlink:href="#DejaVuSans-30" transform="translate(63.623047 0.765625)"/>
       <use xlink:href="#DejaVuSans-36" transform="translate(128.203125 39.046875)scale(0.7)"/>
      </g>
     </g>
    </g>
    <g id="ytick_4">
     <g id="line2d_26">
      <defs>
       <path id="m1ff7fbac7d" d="M 0 0 
L -2 0 
" style="stroke: #000000; stroke-width: 0.6"/>
      </defs>
      <g>
       <use xlink:href="#m1ff7fbac7d" x="45.478125" y="207.168849" style="stroke: #000000; stroke-width: 0.6"/>
      </g>
     </g>
    </g>
    <g id="ytick_5">
     <g id="line2d_27">
      <g>
       <use xlink:href="#m1ff7fbac7d" x="45.478125" y="190.45304" style="stroke: #000000; stroke-width: 0.6"/>
      </g>
     </g>
    </g>
    <g id="ytick_6">
     <g id="line2d_28">
      <g>
       <use xlink:href="#m1ff7fbac7d" x="45.478125" y="178.592984" style="stroke: #000000; stroke-width: 0.6"/>
      </g>
     </g>
    </g>
    <g id="ytick_7">
     <g id="line2d_29">
      <g>
       <use xlink:href="#m1ff7fbac7d" x="45.478125" y="169.393611" style="stroke: #000000; stroke-width: 0.6"/>
      </g>
     </g>
    </g>
    <g id="ytick_8">
     <g id="line2d_30">
      <g>
       <use xlink:href="#m1ff7fbac7d" x="45.478125" y="161.877176" style="stroke: #000000; stroke-width: 0.6"/>
      </g>
     </g>
    </g>
    <g id="ytick_9">
     <g id="line2d_31">
      <g>
       <use xlink:href="#m1ff7fbac7d" x="45.478125" y="155.52212" style="stroke: #000000; stroke-width: 0.6"/>
      </g>
     </g>
    </g>
    <g id="ytick_10">
     <g id="line2d_32">
      <g>
       <use xlink:href="#m1ff7fbac7d" x="45.478125" y="150.01712" style="stroke: #000000; stroke-width: 0.6"/>
      </g>
     </g>
    </g>
    <g id="ytick_11">
     <g id="line2d_33">
      <g>
       <use xlink:href="#m1ff7fbac7d" x="45.478125" y="145.161367" style="stroke: #000000; stroke-width: 0.6"/>
      </g>
     </g>
    </g>
    <g id="ytick_12">
     <g id="line2d_34">
      <g>
       <use xlink:href="#m1ff7fbac7d" x="45.478125" y="112.241883" style="stroke: #000000; stroke-width: 0.6"/>
      </g>
     </g>
    </g>
    <g id="ytick_13">
     <g id="line2d_35">
      <g>
       <use xlink:href="#m1ff7fbac7d" x="45.478125" y="95.526074" style="stroke: #000000; stroke-width: 0.6"/>
      </g>
     </g>
    </g>
    <g id="ytick_14">
     <g id="line2d_36">
      <g>
       <use xlink:href="#m1ff7fbac7d" x="45.478125" y="83.666019" style="stroke: #000000; stroke-width: 0.6"/>
      </g>
     </g>
    </g>
    <g id="ytick_15">
     <g id="line2d_37">
      <g>
       <use xlink:href="#m1ff7fbac7d" x="45.478125" y="74.466645" style="stroke: #000000; stroke-width: 0.6"/>
      </g>
     </g>
    </g>
    <g id="ytick_16">
     <g id="line2d_38">
      <g>
       <use xlink:href="#m1ff7fbac7d" x="45.478125" y="66.95021" style="stroke: #000000; stroke-width: 0.6"/>
      </g>
     </g>
    </g>
    <g id="ytick_17">
     <g id="line2d_39">
      <g>
       <use xlink:href="#m1ff7fbac7d" x="45.478125" y="60.595154" style="stroke: #000000; stroke-width: 0.6"/>
      </g>
     </g>
    </g>
    <g id="ytick_18">
     <g id="line2d_40">
      <g>
       <use xlink:href="#m1ff7fbac7d" x="45.478125" y="55.090155" style="stroke: #000000; stroke-width: 0.6"/>
      </g>
     </g>
    </g>
    <g id="ytick_19">
     <g id="line2d_41">
      <g>
       <use xlink:href="#m1ff7fbac7d" x="45.478125" y="50.234401" style="stroke: #000000; stroke-width: 0.6"/>
      </g>
     </g>
    </g>
    <g id="ytick_20">
     <g id="line2d_42">
      <g>
       <use xlink:href="#m1ff7fbac7d" x="45.478125" y="17.314917" style="stroke: #000000; stroke-width: 0.6"/>
      </g>
     </g>
    </g>
    <g id="text_8">
     <!-- variant count -->
     <g transform="translate(14.798438 155.65625)rotate(-90)scale(0.1 -0.1)">
      <defs>
       <path id="DejaVuSans-76" d="M 191 3500 
L 800 3500 
L 1894 563 
L 2988 3500 
L 3597 3500 
L 2284 0 
L 1503 0 
L 191 3500 
z
" transform="scale(0.015625)"/>
       <path id="DejaVuSans-69" d="M 603 3500 
L 1178 3500 
L 1178 0 
L 603 0 
L 603 3500 
z
M 603 4863 
L 1178 4863 
L 1178 4134 
L 603 4134 
L 603 4863 
z
" transform="scale(0.015625)"/>
       <path id="DejaVuSans-74" d="M 1172 4494 
L 1172 3500 
L 2356 3500 
L 2356 3053 
L 1172 3053 
L 1172 1153 
Q 1172 725 1289 603 
Q 1406 481 1766 481 
L 2356 481 
L 2356 0 
L 1766 0 
Q 1100 0 847 248 
Q 594 497 594 1153 
L 594 3053 
L 172 3053 
L 172 3500 
L 594 3500 
L 594 4494 
L 1172 4494 
z
" transform="scale(0.015625)"/>
       <path id="DejaVuSans-6f" d="M 1959 3097 
Q 1497 3097 1228 2736 
Q 959 2375 959 1747 
Q 959 1119 1226 758 
Q 1494 397 1959 397 
Q 2419 397 2687 759 
Q 2956 1122 2956 1747 
Q 2956 2369 2687 2733 
Q 2419 3097 1959 3097 
z
M 1959 3584 
Q 2709 3584 3137 3096 
Q 3566 2609 3566 1747 
Q 3566 888 3137 398 
Q 2709 -91 1959 -91 
Q 1206 -91 779 398 
Q 353 888 353 1747 
Q 353 2609 779 3096 
Q 1206 3584 1959 3584 
z
" transform="scale(0.015625)"/>
      </defs>
      <use xlink:href="#DejaVuSans-76"/>
      <use xlink:href="#DejaVuSans-61" x="59.179688"/>
      <use xlink:href="#DejaVuSans-72" x="120.458984"/>
      <use xlink:href="#DejaVuSans-69" x="161.572266"/>
      <use xlink:href="#DejaVuSans-61" x="189.355469"/>
      <use xlink:href="#DejaVuSans-6e" x="250.634766"/>
      <use xlink:href="#DejaVuSans-74" x="314.013672"/>
      <use xlink:href="#DejaVuSans-20" x="353.222656"/>
      <use xlink:href="#DejaVuSans-63" x="385.009766"/>
      <use xlink:href="#DejaVuSans-6f" x="439.990234"/>
      <use xlink:href="#DejaVuSans-75" x="501.171875"/>
      <use xlink:href="#DejaVuSans-6e" x="564.550781"/>
      <use xlink:href="#DejaVuSans-74" x="627.929688"/>
     </g>
    </g>
   </g>
   <g id="line2d_43">
    <defs>
     <path id="m9d33badc54" d="M 0 2.5 
C 0.663008 2.5 1.29895 2.236584 1.767767 1.767767 
C 2.236584 1.29895 2.5 0.663008 2.5 0 
C 2.5 -0.663008 2.236584 -1.29895 1.767767 -1.767767 
C 1.29895 -2.236584 0.663008 -2.5 0 -2.5 
C -0.663008 -2.5 -1.29895 -2.236584 -1.767767 -1.767767 
C -2.236584 -1.29895 -2.5 -0.663008 -2.5 0 
C -2.5 0.663008 -2.236584 1.29895 -1.767767 1.767767 
C -1.29895 2.236584 -0.663008 2.5 0 2.5 
z
" style="stroke: #000000; stroke-opacity: 0.75"/>
    </defs>
    <g clip-path="url(#p9fe125b9b2)">
     <use xlink:href="#m9d33badc54" x="55.985778" y="17.71666" style="fill-opacity: 0.75; stroke: #000000; stroke-opacity: 0.75"/>
     <use xlink:href="#m9d33badc54" x="83.50488" y="61.042879" style="fill-opacity: 0.75; stroke: #000000; stroke-opacity: 0.75"/>
     <use xlink:href="#m9d33badc54" x="99.602523" y="79.579627" style="fill-opacity: 0.75; stroke: #000000; stroke-opacity: 0.75"/>
     <use xlink:href="#m9d33badc54" x="111.023983" y="90.023136" style="fill-opacity: 0.75; stroke: #000000; stroke-opacity: 0.75"/>
     <use xlink:href="#m9d33badc54" x="119.883155" y="97.306036" style="fill-opacity: 0.75; stroke: #000000; stroke-opacity: 0.75"/>
     <use xlink:href="#m9d33badc54" x="127.121626" y="103.494176" style="fill-opacity: 0.75; stroke: #000000; stroke-opacity: 0.75"/>
     <use xlink:href="#m9d33badc54" x="133.241665" y="108.705366" style="fill-opacity: 0.75; stroke: #000000; stroke-opacity: 0.75"/>
     <use xlink:href="#m9d33badc54" x="138.543085" y="113.393181" style="fill-opacity: 0.75; stroke: #000000; stroke-opacity: 0.75"/>
     <use xlink:href="#m9d33badc54" x="143.219269" y="118.081581" style="fill-opacity: 0.75; stroke: #000000; stroke-opacity: 0.75"/>
     <use xlink:href="#m9d33badc54" x="147.402257" y="121.817873" style="fill-opacity: 0.75; stroke: #000000; stroke-opacity: 0.75"/>
     <use xlink:href="#m9d33badc54" x="151.186231" y="125.745386" style="fill-opacity: 0.75; stroke: #000000; stroke-opacity: 0.75"/>
     <use xlink:href="#m9d33badc54" x="154.640728" y="129.541342" style="fill-opacity: 0.75; stroke: #000000; stroke-opacity: 0.75"/>
     <use xlink:href="#m9d33badc54" x="157.818557" y="133.152821" style="fill-opacity: 0.75; stroke: #000000; stroke-opacity: 0.75"/>
     <use xlink:href="#m9d33badc54" x="160.760768" y="136.635886" style="fill-opacity: 0.75; stroke: #000000; stroke-opacity: 0.75"/>
     <use xlink:href="#m9d33badc54" x="163.4999" y="139.617964" style="fill-opacity: 0.75; stroke: #000000; stroke-opacity: 0.75"/>
     <use xlink:href="#m9d33badc54" x="166.062187" y="142.639197" style="fill-opacity: 0.75; stroke: #000000; stroke-opacity: 0.75"/>
     <use xlink:href="#m9d33badc54" x="168.469086" y="145.71289" style="fill-opacity: 0.75; stroke: #000000; stroke-opacity: 0.75"/>
     <use xlink:href="#m9d33badc54" x="170.738371" y="148.656675" style="fill-opacity: 0.75; stroke: #000000; stroke-opacity: 0.75"/>
     <use xlink:href="#m9d33badc54" x="172.88493" y="151.220808" style="fill-opacity: 0.75; stroke: #000000; stroke-opacity: 0.75"/>
     <use xlink:href="#m9d33badc54" x="174.92136" y="154.23953" style="fill-opacity: 0.75; stroke: #000000; stroke-opacity: 0.75"/>
     <use xlink:href="#m9d33badc54" x="176.858411" y="156.442836" style="fill-opacity: 0.75; stroke: #000000; stroke-opacity: 0.75"/>
     <use xlink:href="#m9d33badc54" x="178.705333" y="158.925077" style="fill-opacity: 0.75; stroke: #000000; stroke-opacity: 0.75"/>
     <use xlink:href="#m9d33badc54" x="180.470143" y="161.205873" style="fill-opacity: 0.75; stroke: #000000; stroke-opacity: 0.75"/>
     <use xlink:href="#m9d33badc54" x="182.15983" y="163.137145" style="fill-opacity: 0.75; stroke: #000000; stroke-opacity: 0.75"/>
     <use xlink:href="#m9d33badc54" x="183.780532" y="165.507827" style="fill-opacity: 0.75; stroke: #000000; stroke-opacity: 0.75"/>
     <use xlink:href="#m9d33badc54" x="185.33766" y="167.235592" style="fill-opacity: 0.75; stroke: #000000; stroke-opacity: 0.75"/>
     <use xlink:href="#m9d33badc54" x="186.836014" y="169.124869" style="fill-opacity: 0.75; stroke: #000000; stroke-opacity: 0.75"/>
     <use xlink:href="#m9d33badc54" x="188.27987" y="170.640831" style="fill-opacity: 0.75; stroke: #000000; stroke-opacity: 0.75"/>
     <use xlink:href="#m9d33badc54" x="189.673054" y="172.406713" style="fill-opacity: 0.75; stroke: #000000; stroke-opacity: 0.75"/>
     <use xlink:href="#m9d33badc54" x="191.019003" y="174.221031" style="fill-opacity: 0.75; stroke: #000000; stroke-opacity: 0.75"/>
     <use xlink:href="#m9d33badc54" x="192.320813" y="175.760349" style="fill-opacity: 0.75; stroke: #000000; stroke-opacity: 0.75"/>
     <use xlink:href="#m9d33badc54" x="193.58129" y="176.980026" style="fill-opacity: 0.75; stroke: #000000; stroke-opacity: 0.75"/>
     <use xlink:href="#m9d33badc54" x="194.802976" y="178.365836" style="fill-opacity: 0.75; stroke: #000000; stroke-opacity: 0.75"/>
     <use xlink:href="#m9d33badc54" x="195.988189" y="179.655775" style="fill-opacity: 0.75; stroke: #000000; stroke-opacity: 0.75"/>
     <use xlink:href="#m9d33badc54" x="197.139042" y="180.845628" style="fill-opacity: 0.75; stroke: #000000; stroke-opacity: 0.75"/>
     <use xlink:href="#m9d33badc54" x="198.257473" y="182.096646" style="fill-opacity: 0.75; stroke: #000000; stroke-opacity: 0.75"/>
     <use xlink:href="#m9d33badc54" x="199.345258" y="183.112189" style="fill-opacity: 0.75; stroke: #000000; stroke-opacity: 0.75"/>
     <use xlink:href="#m9d33badc54" x="200.404032" y="184.401819" style="fill-opacity: 0.75; stroke: #000000; stroke-opacity: 0.75"/>
     <use xlink:href="#m9d33badc54" x="201.435303" y="185.618057" style="fill-opacity: 0.75; stroke: #000000; stroke-opacity: 0.75"/>
     <use xlink:href="#m9d33badc54" x="202.440462" y="186.568756" style="fill-opacity: 0.75; stroke: #000000; stroke-opacity: 0.75"/>
     <use xlink:href="#m9d33badc54" x="203.4208" y="187.32733" style="fill-opacity: 0.75; stroke: #000000; stroke-opacity: 0.75"/>
     <use xlink:href="#m9d33badc54" x="204.377513" y="188.335729" style="fill-opacity: 0.75; stroke: #000000; stroke-opacity: 0.75"/>
     <use xlink:href="#m9d33badc54" x="205.311713" y="189.346665" style="fill-opacity: 0.75; stroke: #000000; stroke-opacity: 0.75"/>
     <use xlink:href="#m9d33badc54" x="206.224436" y="189.566653" style="fill-opacity: 0.75; stroke: #000000; stroke-opacity: 0.75"/>
     <use xlink:href="#m9d33badc54" x="207.116646" y="190.623795" style="fill-opacity: 0.75; stroke: #000000; stroke-opacity: 0.75"/>
     <use xlink:href="#m9d33badc54" x="207.989245" y="191.737103" style="fill-opacity: 0.75; stroke: #000000; stroke-opacity: 0.75"/>
     <use xlink:href="#m9d33badc54" x="208.843077" y="192.243478" style="fill-opacity: 0.75; stroke: #000000; stroke-opacity: 0.75"/>
     <use xlink:href="#m9d33badc54" x="209.678933" y="192.792495" style="fill-opacity: 0.75; stroke: #000000; stroke-opacity: 0.75"/>
     <use xlink:href="#m9d33badc54" x="210.497553" y="193.322395" style="fill-opacity: 0.75; stroke: #000000; stroke-opacity: 0.75"/>
     <use xlink:href="#m9d33badc54" x="211.299634" y="194.148272" style="fill-opacity: 0.75; stroke: #000000; stroke-opacity: 0.75"/>
     <use xlink:href="#m9d33badc54" x="212.085832" y="195.070884" style="fill-opacity: 0.75; stroke: #000000; stroke-opacity: 0.75"/>
     <use xlink:href="#m9d33badc54" x="212.856762" y="195.662274" style="fill-opacity: 0.75; stroke: #000000; stroke-opacity: 0.75"/>
     <use xlink:href="#m9d33badc54" x="213.613007" y="196.194293" style="fill-opacity: 0.75; stroke: #000000; stroke-opacity: 0.75"/>
     <use xlink:href="#m9d33badc54" x="214.355116" y="196.565575" style="fill-opacity: 0.75; stroke: #000000; stroke-opacity: 0.75"/>
     <use xlink:href="#m9d33badc54" x="215.083608" y="197.078785" style="fill-opacity: 0.75; stroke: #000000; stroke-opacity: 0.75"/>
     <use xlink:href="#m9d33badc54" x="215.798973" y="198.018976" style="fill-opacity: 0.75; stroke: #000000; stroke-opacity: 0.75"/>
     <use xlink:href="#m9d33badc54" x="216.501675" y="198.298949" style="fill-opacity: 0.75; stroke: #000000; stroke-opacity: 0.75"/>
     <use xlink:href="#m9d33badc54" x="217.192157" y="199.27793" style="fill-opacity: 0.75; stroke: #000000; stroke-opacity: 0.75"/>
     <use xlink:href="#m9d33badc54" x="217.870834" y="199.106362" style="fill-opacity: 0.75; stroke: #000000; stroke-opacity: 0.75"/>
     <use xlink:href="#m9d33badc54" x="218.538105" y="200.044201" style="fill-opacity: 0.75; stroke: #000000; stroke-opacity: 0.75"/>
     <use xlink:href="#m9d33badc54" x="219.194346" y="200.282468" style="fill-opacity: 0.75; stroke: #000000; stroke-opacity: 0.75"/>
     <use xlink:href="#m9d33badc54" x="219.839916" y="200.256313" style="fill-opacity: 0.75; stroke: #000000; stroke-opacity: 0.75"/>
     <use xlink:href="#m9d33badc54" x="220.475156" y="201.069599" style="fill-opacity: 0.75; stroke: #000000; stroke-opacity: 0.75"/>
     <use xlink:href="#m9d33badc54" x="221.100392" y="201.188886" style="fill-opacity: 0.75; stroke: #000000; stroke-opacity: 0.75"/>
     <use xlink:href="#m9d33badc54" x="221.715934" y="202.130273" style="fill-opacity: 0.75; stroke: #000000; stroke-opacity: 0.75"/>
     <use xlink:href="#m9d33badc54" x="222.322079" y="202.166773" style="fill-opacity: 0.75; stroke: #000000; stroke-opacity: 0.75"/>
     <use xlink:href="#m9d33badc54" x="222.919107" y="202.797822" style="fill-opacity: 0.75; stroke: #000000; stroke-opacity: 0.75"/>
     <use xlink:href="#m9d33badc54" x="223.507291" y="203.243315" style="fill-opacity: 0.75; stroke: #000000; stroke-opacity: 0.75"/>
     <use xlink:href="#m9d33badc54" x="224.086888" y="203.727792" style="fill-opacity: 0.75; stroke: #000000; stroke-opacity: 0.75"/>
     <use xlink:href="#m9d33badc54" x="224.658145" y="203.980767" style="fill-opacity: 0.75; stroke: #000000; stroke-opacity: 0.75"/>
     <use xlink:href="#m9d33badc54" x="225.221299" y="203.790415" style="fill-opacity: 0.75; stroke: #000000; stroke-opacity: 0.75"/>
     <use xlink:href="#m9d33badc54" x="225.776576" y="204.632678" style="fill-opacity: 0.75; stroke: #000000; stroke-opacity: 0.75"/>
     <use xlink:href="#m9d33badc54" x="226.324194" y="204.912746" style="fill-opacity: 0.75; stroke: #000000; stroke-opacity: 0.75"/>
     <use xlink:href="#m9d33badc54" x="226.864361" y="205.395641" style="fill-opacity: 0.75; stroke: #000000; stroke-opacity: 0.75"/>
     <use xlink:href="#m9d33badc54" x="227.397277" y="206.114682" style="fill-opacity: 0.75; stroke: #000000; stroke-opacity: 0.75"/>
     <use xlink:href="#m9d33badc54" x="227.923135" y="205.878267" style="fill-opacity: 0.75; stroke: #000000; stroke-opacity: 0.75"/>
     <use xlink:href="#m9d33badc54" x="228.442118" y="206.730071" style="fill-opacity: 0.75; stroke: #000000; stroke-opacity: 0.75"/>
     <use xlink:href="#m9d33badc54" x="228.954405" y="206.455655" style="fill-opacity: 0.75; stroke: #000000; stroke-opacity: 0.75"/>
     <use xlink:href="#m9d33badc54" x="229.460166" y="206.809688" style="fill-opacity: 0.75; stroke: #000000; stroke-opacity: 0.75"/>
     <use xlink:href="#m9d33badc54" x="229.959564" y="207.327876" style="fill-opacity: 0.75; stroke: #000000; stroke-opacity: 0.75"/>
     <use xlink:href="#m9d33badc54" x="230.452759" y="207.311325" style="fill-opacity: 0.75; stroke: #000000; stroke-opacity: 0.75"/>
     <use xlink:href="#m9d33badc54" x="230.939903" y="207.798206" style="fill-opacity: 0.75; stroke: #000000; stroke-opacity: 0.75"/>
     <use xlink:href="#m9d33badc54" x="231.421141" y="207.944978" style="fill-opacity: 0.75; stroke: #000000; stroke-opacity: 0.75"/>
     <use xlink:href="#m9d33badc54" x="231.896616" y="208.697477" style="fill-opacity: 0.75; stroke: #000000; stroke-opacity: 0.75"/>
     <use xlink:href="#m9d33badc54" x="232.366463" y="209.194613" style="fill-opacity: 0.75; stroke: #000000; stroke-opacity: 0.75"/>
     <use xlink:href="#m9d33badc54" x="232.830816" y="209.422581" style="fill-opacity: 0.75; stroke: #000000; stroke-opacity: 0.75"/>
     <use xlink:href="#m9d33badc54" x="233.2898" y="209.461788" style="fill-opacity: 0.75; stroke: #000000; stroke-opacity: 0.75"/>
     <use xlink:href="#m9d33badc54" x="233.743538" y="209.761426" style="fill-opacity: 0.75; stroke: #000000; stroke-opacity: 0.75"/>
     <use xlink:href="#m9d33badc54" x="234.192149" y="209.805351" style="fill-opacity: 0.75; stroke: #000000; stroke-opacity: 0.75"/>
     <use xlink:href="#m9d33badc54" x="234.635748" y="210.416351" style="fill-opacity: 0.75; stroke: #000000; stroke-opacity: 0.75"/>
     <use xlink:href="#m9d33badc54" x="235.074445" y="210.109719" style="fill-opacity: 0.75; stroke: #000000; stroke-opacity: 0.75"/>
     <use xlink:href="#m9d33badc54" x="235.508347" y="210.957377" style="fill-opacity: 0.75; stroke: #000000; stroke-opacity: 0.75"/>
     <use xlink:href="#m9d33badc54" x="235.937559" y="211.079583" style="fill-opacity: 0.75; stroke: #000000; stroke-opacity: 0.75"/>
     <use xlink:href="#m9d33badc54" x="236.36218" y="211.261297" style="fill-opacity: 0.75; stroke: #000000; stroke-opacity: 0.75"/>
     <use xlink:href="#m9d33badc54" x="236.782307" y="211.922179" style="fill-opacity: 0.75; stroke: #000000; stroke-opacity: 0.75"/>
     <use xlink:href="#m9d33badc54" x="237.198035" y="211.484993" style="fill-opacity: 0.75; stroke: #000000; stroke-opacity: 0.75"/>
     <use xlink:href="#m9d33badc54" x="237.609455" y="212.279964" style="fill-opacity: 0.75; stroke: #000000; stroke-opacity: 0.75"/>
     <use xlink:href="#m9d33badc54" x="238.016655" y="212.100683" style="fill-opacity: 0.75; stroke: #000000; stroke-opacity: 0.75"/>
     <use xlink:href="#m9d33badc54" x="238.419722" y="212.69977" style="fill-opacity: 0.75; stroke: #000000; stroke-opacity: 0.75"/>
     <use xlink:href="#m9d33badc54" x="238.818737" y="213.033492" style="fill-opacity: 0.75; stroke: #000000; stroke-opacity: 0.75"/>
     <use xlink:href="#m9d33badc54" x="239.213781" y="213.040622" style="fill-opacity: 0.75; stroke: #000000; stroke-opacity: 0.75"/>
     <use xlink:href="#m9d33badc54" x="239.604934" y="213.482699" style="fill-opacity: 0.75; stroke: #000000; stroke-opacity: 0.75"/>
     <use xlink:href="#m9d33badc54" x="239.992271" y="213.231209" style="fill-opacity: 0.75; stroke: #000000; stroke-opacity: 0.75"/>
     <use xlink:href="#m9d33badc54" x="240.375865" y="213.868896" style="fill-opacity: 0.75; stroke: #000000; stroke-opacity: 0.75"/>
     <use xlink:href="#m9d33badc54" x="240.755788" y="213.721231" style="fill-opacity: 0.75; stroke: #000000; stroke-opacity: 0.75"/>
     <use xlink:href="#m9d33badc54" x="241.13211" y="213.953861" style="fill-opacity: 0.75; stroke: #000000; stroke-opacity: 0.75"/>
     <use xlink:href="#m9d33badc54" x="241.504898" y="214.143844" style="fill-opacity: 0.75; stroke: #000000; stroke-opacity: 0.75"/>
     <use xlink:href="#m9d33badc54" x="241.874219" y="215.019745" style="fill-opacity: 0.75; stroke: #000000; stroke-opacity: 0.75"/>
     <use xlink:href="#m9d33badc54" x="242.240135" y="215.107118" style="fill-opacity: 0.75; stroke: #000000; stroke-opacity: 0.75"/>
     <use xlink:href="#m9d33badc54" x="242.60271" y="215.6758" style="fill-opacity: 0.75; stroke: #000000; stroke-opacity: 0.75"/>
     <use xlink:href="#m9d33badc54" x="242.962004" y="215.159631" style="fill-opacity: 0.75; stroke: #000000; stroke-opacity: 0.75"/>
     <use xlink:href="#m9d33badc54" x="243.318075" y="215.848454" style="fill-opacity: 0.75; stroke: #000000; stroke-opacity: 0.75"/>
     <use xlink:href="#m9d33badc54" x="243.670981" y="215.838278" style="fill-opacity: 0.75; stroke: #000000; stroke-opacity: 0.75"/>
     <use xlink:href="#m9d33badc54" x="244.020778" y="216.213913" style="fill-opacity: 0.75; stroke: #000000; stroke-opacity: 0.75"/>
     <use xlink:href="#m9d33badc54" x="244.36752" y="216.626695" style="fill-opacity: 0.75; stroke: #000000; stroke-opacity: 0.75"/>
     <use xlink:href="#m9d33badc54" x="244.711259" y="216.507596" style="fill-opacity: 0.75; stroke: #000000; stroke-opacity: 0.75"/>
     <use xlink:href="#m9d33badc54" x="245.052048" y="216.683777" style="fill-opacity: 0.75; stroke: #000000; stroke-opacity: 0.75"/>
     <use xlink:href="#m9d33badc54" x="245.389937" y="217.119679" style="fill-opacity: 0.75; stroke: #000000; stroke-opacity: 0.75"/>
     <use xlink:href="#m9d33badc54" x="245.724974" y="217.05675" style="fill-opacity: 0.75; stroke: #000000; stroke-opacity: 0.75"/>
     <use xlink:href="#m9d33badc54" x="246.057207" y="217.385562" style="fill-opacity: 0.75; stroke: #000000; stroke-opacity: 0.75"/>
     <use xlink:href="#m9d33badc54" x="246.386684" y="217.709032" style="fill-opacity: 0.75; stroke: #000000; stroke-opacity: 0.75"/>
     <use xlink:href="#m9d33badc54" x="246.713448" y="218.331246" style="fill-opacity: 0.75; stroke: #000000; stroke-opacity: 0.75"/>
     <use xlink:href="#m9d33badc54" x="247.037545" y="218.032376" style="fill-opacity: 0.75; stroke: #000000; stroke-opacity: 0.75"/>
     <use xlink:href="#m9d33badc54" x="247.359018" y="218.185579" style="fill-opacity: 0.75; stroke: #000000; stroke-opacity: 0.75"/>
     <use xlink:href="#m9d33badc54" x="247.677909" y="218.444899" style="fill-opacity: 0.75; stroke: #000000; stroke-opacity: 0.75"/>
     <use xlink:href="#m9d33badc54" x="247.994259" y="218.664975" style="fill-opacity: 0.75; stroke: #000000; stroke-opacity: 0.75"/>
     <use xlink:href="#m9d33badc54" x="248.308107" y="218.927338" style="fill-opacity: 0.75; stroke: #000000; stroke-opacity: 0.75"/>
     <use xlink:href="#m9d33badc54" x="248.619495" y="219.296366" style="fill-opacity: 0.75; stroke: #000000; stroke-opacity: 0.75"/>
     <use xlink:href="#m9d33badc54" x="248.928459" y="219.301899" style="fill-opacity: 0.75; stroke: #000000; stroke-opacity: 0.75"/>
     <use xlink:href="#m9d33badc54" x="249.235037" y="219.699444" style="fill-opacity: 0.75; stroke: #000000; stroke-opacity: 0.75"/>
     <use xlink:href="#m9d33badc54" x="249.539266" y="219.976931" style="fill-opacity: 0.75; stroke: #000000; stroke-opacity: 0.75"/>
     <use xlink:href="#m9d33badc54" x="249.841181" y="219.906682" style="fill-opacity: 0.75; stroke: #000000; stroke-opacity: 0.75"/>
     <use xlink:href="#m9d33badc54" x="250.140818" y="220.123434" style="fill-opacity: 0.75; stroke: #000000; stroke-opacity: 0.75"/>
     <use xlink:href="#m9d33badc54" x="250.43821" y="220.4749" style="fill-opacity: 0.75; stroke: #000000; stroke-opacity: 0.75"/>
     <use xlink:href="#m9d33badc54" x="250.733391" y="221.160896" style="fill-opacity: 0.75; stroke: #000000; stroke-opacity: 0.75"/>
     <use xlink:href="#m9d33badc54" x="251.026394" y="220.809297" style="fill-opacity: 0.75; stroke: #000000; stroke-opacity: 0.75"/>
     <use xlink:href="#m9d33badc54" x="251.31725" y="221.352363" style="fill-opacity: 0.75; stroke: #000000; stroke-opacity: 0.75"/>
     <use xlink:href="#m9d33badc54" x="251.60599" y="221.826133" style="fill-opacity: 0.75; stroke: #000000; stroke-opacity: 0.75"/>
     <use xlink:href="#m9d33badc54" x="251.892646" y="221.146428" style="fill-opacity: 0.75; stroke: #000000; stroke-opacity: 0.75"/>
     <use xlink:href="#m9d33badc54" x="252.177247" y="220.953032" style="fill-opacity: 0.75; stroke: #000000; stroke-opacity: 0.75"/>
     <use xlink:href="#m9d33badc54" x="252.459823" y="221.985274" style="fill-opacity: 0.75; stroke: #000000; stroke-opacity: 0.75"/>
     <use xlink:href="#m9d33badc54" x="252.740401" y="222.379871" style="fill-opacity: 0.75; stroke: #000000; stroke-opacity: 0.75"/>
     <use xlink:href="#m9d33badc54" x="253.01901" y="222.035501" style="fill-opacity: 0.75; stroke: #000000; stroke-opacity: 0.75"/>
     <use xlink:href="#m9d33badc54" x="253.295678" y="222.189518" style="fill-opacity: 0.75; stroke: #000000; stroke-opacity: 0.75"/>
     <use xlink:href="#m9d33badc54" x="253.570431" y="222.676066" style="fill-opacity: 0.75; stroke: #000000; stroke-opacity: 0.75"/>
     <use xlink:href="#m9d33badc54" x="253.843296" y="223.519367" style="fill-opacity: 0.75; stroke: #000000; stroke-opacity: 0.75"/>
     <use xlink:href="#m9d33badc54" x="254.114298" y="223.706738" style="fill-opacity: 0.75; stroke: #000000; stroke-opacity: 0.75"/>
     <use xlink:href="#m9d33badc54" x="254.383463" y="223.080396" style="fill-opacity: 0.75; stroke: #000000; stroke-opacity: 0.75"/>
     <use xlink:href="#m9d33badc54" x="254.650816" y="222.727143" style="fill-opacity: 0.75; stroke: #000000; stroke-opacity: 0.75"/>
     <use xlink:href="#m9d33badc54" x="254.91638" y="223.040996" style="fill-opacity: 0.75; stroke: #000000; stroke-opacity: 0.75"/>
     <use xlink:href="#m9d33badc54" x="255.180179" y="224.383408" style="fill-opacity: 0.75; stroke: #000000; stroke-opacity: 0.75"/>
     <use xlink:href="#m9d33badc54" x="255.442237" y="223.384741" style="fill-opacity: 0.75; stroke: #000000; stroke-opacity: 0.75"/>
     <use xlink:href="#m9d33badc54" x="255.702577" y="224.062313" style="fill-opacity: 0.75; stroke: #000000; stroke-opacity: 0.75"/>
     <use xlink:href="#m9d33badc54" x="255.961221" y="223.894965" style="fill-opacity: 0.75; stroke: #000000; stroke-opacity: 0.75"/>
     <use xlink:href="#m9d33badc54" x="256.21819" y="224.871373" style="fill-opacity: 0.75; stroke: #000000; stroke-opacity: 0.75"/>
     <use xlink:href="#m9d33badc54" x="256.473508" y="224.230342" style="fill-opacity: 0.75; stroke: #000000; stroke-opacity: 0.75"/>
     <use xlink:href="#m9d33badc54" x="256.727193" y="224.427246" style="fill-opacity: 0.75; stroke: #000000; stroke-opacity: 0.75"/>
     <use xlink:href="#m9d33badc54" x="256.979268" y="225.093652" style="fill-opacity: 0.75; stroke: #000000; stroke-opacity: 0.75"/>
     <use xlink:href="#m9d33badc54" x="257.229753" y="225.538619" style="fill-opacity: 0.75; stroke: #000000; stroke-opacity: 0.75"/>
     <use xlink:href="#m9d33badc54" x="257.478667" y="224.277139" style="fill-opacity: 0.75; stroke: #000000; stroke-opacity: 0.75"/>
     <use xlink:href="#m9d33badc54" x="257.72603" y="224.804922" style="fill-opacity: 0.75; stroke: #000000; stroke-opacity: 0.75"/>
     <use xlink:href="#m9d33badc54" x="257.971862" y="225.004596" style="fill-opacity: 0.75; stroke: #000000; stroke-opacity: 0.75"/>
     <use xlink:href="#m9d33badc54" x="258.21618" y="225.368388" style="fill-opacity: 0.75; stroke: #000000; stroke-opacity: 0.75"/>
     <use xlink:href="#m9d33badc54" x="258.459005" y="225.751591" style="fill-opacity: 0.75; stroke: #000000; stroke-opacity: 0.75"/>
     <use xlink:href="#m9d33badc54" x="258.700353" y="226.154722" style="fill-opacity: 0.75; stroke: #000000; stroke-opacity: 0.75"/>
     <use xlink:href="#m9d33badc54" x="258.940243" y="225.50323" style="fill-opacity: 0.75; stroke: #000000; stroke-opacity: 0.75"/>
     <use xlink:href="#m9d33badc54" x="259.178692" y="225.198857" style="fill-opacity: 0.75; stroke: #000000; stroke-opacity: 0.75"/>
     <use xlink:href="#m9d33badc54" x="259.415718" y="225.826068" style="fill-opacity: 0.75; stroke: #000000; stroke-opacity: 0.75"/>
     <use xlink:href="#m9d33badc54" x="259.651337" y="226.377478" style="fill-opacity: 0.75; stroke: #000000; stroke-opacity: 0.75"/>
     <use xlink:href="#m9d33badc54" x="259.885566" y="226.341362" style="fill-opacity: 0.75; stroke: #000000; stroke-opacity: 0.75"/>
     <use xlink:href="#m9d33badc54" x="260.118421" y="226.315116" style="fill-opacity: 0.75; stroke: #000000; stroke-opacity: 0.75"/>
     <use xlink:href="#m9d33badc54" x="260.349918" y="226.512371" style="fill-opacity: 0.75; stroke: #000000; stroke-opacity: 0.75"/>
     <use xlink:href="#m9d33badc54" x="260.580073" y="225.628836" style="fill-opacity: 0.75; stroke: #000000; stroke-opacity: 0.75"/>
     <use xlink:href="#m9d33badc54" x="260.808902" y="226.324957" style="fill-opacity: 0.75; stroke: #000000; stroke-opacity: 0.75"/>
     <use xlink:href="#m9d33badc54" x="261.03642" y="225.317135" style="fill-opacity: 0.75; stroke: #000000; stroke-opacity: 0.75"/>
     <use xlink:href="#m9d33badc54" x="261.26264" y="226.936364" style="fill-opacity: 0.75; stroke: #000000; stroke-opacity: 0.75"/>
     <use xlink:href="#m9d33badc54" x="261.48758" y="226.318396" style="fill-opacity: 0.75; stroke: #000000; stroke-opacity: 0.75"/>
     <use xlink:href="#m9d33badc54" x="261.711252" y="226.420202" style="fill-opacity: 0.75; stroke: #000000; stroke-opacity: 0.75"/>
     <use xlink:href="#m9d33badc54" x="261.933671" y="226.621265" style="fill-opacity: 0.75; stroke: #000000; stroke-opacity: 0.75"/>
     <use xlink:href="#m9d33badc54" x="262.15485" y="226.249574" style="fill-opacity: 0.75; stroke: #000000; stroke-opacity: 0.75"/>
     <use xlink:href="#m9d33badc54" x="262.374805" y="225.796909" style="fill-opacity: 0.75; stroke: #000000; stroke-opacity: 0.75"/>
     <use xlink:href="#m9d33badc54" x="262.593547" y="225.968922" style="fill-opacity: 0.75; stroke: #000000; stroke-opacity: 0.75"/>
     <use xlink:href="#m9d33badc54" x="262.811091" y="225.936412" style="fill-opacity: 0.75; stroke: #000000; stroke-opacity: 0.75"/>
     <use xlink:href="#m9d33badc54" x="263.02745" y="225.03638" style="fill-opacity: 0.75; stroke: #000000; stroke-opacity: 0.75"/>
     <use xlink:href="#m9d33badc54" x="263.242636" y="224.969663" style="fill-opacity: 0.75; stroke: #000000; stroke-opacity: 0.75"/>
     <use xlink:href="#m9d33badc54" x="263.456661" y="224.333365" style="fill-opacity: 0.75; stroke: #000000; stroke-opacity: 0.75"/>
     <use xlink:href="#m9d33badc54" x="263.669539" y="224.308366" style="fill-opacity: 0.75; stroke: #000000; stroke-opacity: 0.75"/>
     <use xlink:href="#m9d33badc54" x="263.881282" y="223.531628" style="fill-opacity: 0.75; stroke: #000000; stroke-opacity: 0.75"/>
     <use xlink:href="#m9d33badc54" x="264.091902" y="222.850588" style="fill-opacity: 0.75; stroke: #000000; stroke-opacity: 0.75"/>
     <use xlink:href="#m9d33badc54" x="264.30141" y="221.870277" style="fill-opacity: 0.75; stroke: #000000; stroke-opacity: 0.75"/>
     <use xlink:href="#m9d33badc54" x="264.509818" y="221.393092" style="fill-opacity: 0.75; stroke: #000000; stroke-opacity: 0.75"/>
     <use xlink:href="#m9d33badc54" x="264.717138" y="220.069843" style="fill-opacity: 0.75; stroke: #000000; stroke-opacity: 0.75"/>
     <use xlink:href="#m9d33badc54" x="264.923381" y="218.913632" style="fill-opacity: 0.75; stroke: #000000; stroke-opacity: 0.75"/>
     <use xlink:href="#m9d33badc54" x="265.128558" y="217.618629" style="fill-opacity: 0.75; stroke: #000000; stroke-opacity: 0.75"/>
     <use xlink:href="#m9d33badc54" x="265.33268" y="215.481163" style="fill-opacity: 0.75; stroke: #000000; stroke-opacity: 0.75"/>
     <use xlink:href="#m9d33badc54" x="265.535758" y="212.841449" style="fill-opacity: 0.75; stroke: #000000; stroke-opacity: 0.75"/>
     <use xlink:href="#m9d33badc54" x="265.737802" y="208.727437" style="fill-opacity: 0.75; stroke: #000000; stroke-opacity: 0.75"/>
     <use xlink:href="#m9d33badc54" x="265.938824" y="198.787216" style="fill-opacity: 0.75; stroke: #000000; stroke-opacity: 0.75"/>
     <use xlink:href="#m9d33badc54" x="266.138833" y="168.777372" style="fill-opacity: 0.75; stroke: #000000; stroke-opacity: 0.75"/>
    </g>
   </g>
   <g id="line2d_44">
    <path d="M 55.985778 17.721018 
L 83.50488 60.838334 
L 99.602523 79.854507 
L 111.023983 90.157146 
L 127.121626 103.327286 
L 133.241665 108.544788 
L 138.543085 113.305404 
L 143.219269 117.733306 
L 147.402257 121.897235 
L 154.640728 129.584999 
L 160.760768 136.560327 
L 166.062187 142.92043 
L 174.92136 154.018767 
L 186.836014 169.037094 
L 192.320813 175.568127 
L 197.139042 180.929281 
L 201.435303 185.352997 
L 205.311713 189.039053 
L 209.678933 192.855298 
L 214.355116 196.588504 
L 219.194346 200.140422 
L 225.221299 204.252971 
L 234.192149 210.053053 
L 249.841181 220.170403 
L 256.473508 224.392068 
L 258.700353 225.55144 
L 260.118421 226.031632 
L 261.03642 226.120882 
L 261.711252 225.999531 
L 262.374805 225.645307 
L 263.02745 224.960457 
L 263.669539 223.796 
L 264.30141 221.908749 
L 264.717138 220.035072 
L 265.128558 217.339309 
L 265.535758 212.844775 
L 265.737802 208.543418 
L 265.938824 198.809256 
L 266.138833 169.062019 
L 266.138833 169.062019 
" clip-path="url(#p9fe125b9b2)" style="fill: none; stroke: #1f77b4; stroke-opacity: 0.75; stroke-width: 3; stroke-linecap: square"/>
   </g>
   <g id="patch_3">
    <path d="M 45.478125 237.4 
L 45.478125 7.2 
" style="fill: none; stroke: #000000; stroke-width: 0.8; stroke-linejoin: miter; stroke-linecap: square"/>
   </g>
   <g id="patch_4">
    <path d="M 276.646486 237.4 
L 276.646486 7.2 
" style="fill: none; stroke: #000000; stroke-width: 0.8; stroke-linejoin: miter; stroke-linecap: square"/>
   </g>
   <g id="patch_5">
    <path d="M 45.478125 237.4 
L 276.646486 237.4 
" style="fill: none; stroke: #000000; stroke-width: 0.8; stroke-linejoin: miter; stroke-linecap: square"/>
   </g>
   <g id="patch_6">
    <path d="M 45.478125 7.2 
L 276.646486 7.2 
" style="fill: none; stroke: #000000; stroke-width: 0.8; stroke-linejoin: miter; stroke-linecap: square"/>
   </g>
  </g>
  <g id="axes_2">
   <g id="patch_7">
    <path d="M 329.572266 237.4 
L 560.740626 237.4 
L 560.740626 7.2 
L 329.572266 7.2 
z
" style="fill: #ffffff"/>
   </g>
   <g id="matplotlib.axis_3">
    <g id="xtick_23">
     <g id="line2d_45">
      <g>
       <use xlink:href="#m4a8ba0ba7a" x="340.079918" y="237.4" style="stroke: #000000; stroke-width: 0.8"/>
      </g>
     </g>
     <g id="text_9">
      <!-- $\mathdefault{10^{0}}$ -->
      <g transform="translate(331.279918 251.998437)scale(0.1 -0.1)">
       <use xlink:href="#DejaVuSans-31" transform="translate(0 0.765625)"/>
       <use xlink:href="#DejaVuSans-30" transform="translate(63.623047 0.765625)"/>
       <use xlink:href="#DejaVuSans-30" transform="translate(128.203125 39.046875)scale(0.7)"/>
      </g>
     </g>
    </g>
    <g id="xtick_24">
     <g id="line2d_46">
      <g>
       <use xlink:href="#m4a8ba0ba7a" x="378.102219" y="237.4" style="stroke: #000000; stroke-width: 0.8"/>
      </g>
     </g>
     <g id="text_10">
      <!-- $\mathdefault{10^{1}}$ -->
      <g transform="translate(369.302219 251.998437)scale(0.1 -0.1)">
       <use xlink:href="#DejaVuSans-31" transform="translate(0 0.684375)"/>
       <use xlink:href="#DejaVuSans-30" transform="translate(63.623047 0.684375)"/>
       <use xlink:href="#DejaVuSans-31" transform="translate(128.203125 38.965625)scale(0.7)"/>
      </g>
     </g>
    </g>
    <g id="xtick_25">
     <g id="line2d_47">
      <g>
       <use xlink:href="#m4a8ba0ba7a" x="416.124519" y="237.4" style="stroke: #000000; stroke-width: 0.8"/>
      </g>
     </g>
     <g id="text_11">
      <!-- $\mathdefault{10^{2}}$ -->
      <g transform="translate(407.324519 251.998437)scale(0.1 -0.1)">
       <use xlink:href="#DejaVuSans-31" transform="translate(0 0.765625)"/>
       <use xlink:href="#DejaVuSans-30" transform="translate(63.623047 0.765625)"/>
       <use xlink:href="#DejaVuSans-32" transform="translate(128.203125 39.046875)scale(0.7)"/>
      </g>
     </g>
    </g>
    <g id="xtick_26">
     <g id="line2d_48">
      <g>
       <use xlink:href="#m4a8ba0ba7a" x="454.146819" y="237.4" style="stroke: #000000; stroke-width: 0.8"/>
      </g>
     </g>
     <g id="text_12">
      <!-- $\mathdefault{10^{3}}$ -->
      <g transform="translate(445.346819 251.998437)scale(0.1 -0.1)">
       <defs>
        <path id="DejaVuSans-33" d="M 2597 2516 
Q 3050 2419 3304 2112 
Q 3559 1806 3559 1356 
Q 3559 666 3084 287 
Q 2609 -91 1734 -91 
Q 1441 -91 1130 -33 
Q 819 25 488 141 
L 488 750 
Q 750 597 1062 519 
Q 1375 441 1716 441 
Q 2309 441 2620 675 
Q 2931 909 2931 1356 
Q 2931 1769 2642 2001 
Q 2353 2234 1838 2234 
L 1294 2234 
L 1294 2753 
L 1863 2753 
Q 2328 2753 2575 2939 
Q 2822 3125 2822 3475 
Q 2822 3834 2567 4026 
Q 2313 4219 1838 4219 
Q 1578 4219 1281 4162 
Q 984 4106 628 3988 
L 628 4550 
Q 988 4650 1302 4700 
Q 1616 4750 1894 4750 
Q 2613 4750 3031 4423 
Q 3450 4097 3450 3541 
Q 3450 3153 3228 2886 
Q 3006 2619 2597 2516 
z
" transform="scale(0.015625)"/>
       </defs>
       <use xlink:href="#DejaVuSans-31" transform="translate(0 0.765625)"/>
       <use xlink:href="#DejaVuSans-30" transform="translate(63.623047 0.765625)"/>
       <use xlink:href="#DejaVuSans-33" transform="translate(128.203125 39.046875)scale(0.7)"/>
      </g>
     </g>
    </g>
    <g id="xtick_27">
     <g id="line2d_49">
      <g>
       <use xlink:href="#m4a8ba0ba7a" x="492.169119" y="237.4" style="stroke: #000000; stroke-width: 0.8"/>
      </g>
     </g>
     <g id="text_13">
      <!-- $\mathdefault{10^{4}}$ -->
      <g transform="translate(483.369119 251.998437)scale(0.1 -0.1)">
       <use xlink:href="#DejaVuSans-31" transform="translate(0 0.684375)"/>
       <use xlink:href="#DejaVuSans-30" transform="translate(63.623047 0.684375)"/>
       <use xlink:href="#DejaVuSans-34" transform="translate(128.203125 38.965625)scale(0.7)"/>
      </g>
     </g>
    </g>
    <g id="xtick_28">
     <g id="line2d_50">
      <g>
       <use xlink:href="#m4a8ba0ba7a" x="530.19142" y="237.4" style="stroke: #000000; stroke-width: 0.8"/>
      </g>
     </g>
     <g id="text_14">
      <!-- $\mathdefault{10^{5}}$ -->
      <g transform="translate(521.39142 251.998437)scale(0.1 -0.1)">
       <use xlink:href="#DejaVuSans-31" transform="translate(0 0.684375)"/>
       <use xlink:href="#DejaVuSans-30" transform="translate(63.623047 0.684375)"/>
       <use xlink:href="#DejaVuSans-35" transform="translate(128.203125 38.965625)scale(0.7)"/>
      </g>
     </g>
    </g>
    <g id="xtick_29">
     <g id="line2d_51">
      <g>
       <use xlink:href="#mdc5ac3a8ac" x="331.644719" y="237.4" style="stroke: #000000; stroke-width: 0.6"/>
      </g>
     </g>
    </g>
    <g id="xtick_30">
     <g id="line2d_52">
      <g>
       <use xlink:href="#mdc5ac3a8ac" x="334.19019" y="237.4" style="stroke: #000000; stroke-width: 0.6"/>
      </g>
     </g>
    </g>
    <g id="xtick_31">
     <g id="line2d_53">
      <g>
       <use xlink:href="#mdc5ac3a8ac" x="336.395177" y="237.4" style="stroke: #000000; stroke-width: 0.6"/>
      </g>
     </g>
    </g>
    <g id="xtick_32">
     <g id="line2d_54">
      <g>
       <use xlink:href="#mdc5ac3a8ac" x="338.340113" y="237.4" style="stroke: #000000; stroke-width: 0.6"/>
      </g>
     </g>
    </g>
    <g id="xtick_33">
     <g id="line2d_55">
      <g>
       <use xlink:href="#mdc5ac3a8ac" x="351.525771" y="237.4" style="stroke: #000000; stroke-width: 0.6"/>
      </g>
     </g>
    </g>
    <g id="xtick_34">
     <g id="line2d_56">
      <g>
       <use xlink:href="#mdc5ac3a8ac" x="358.221166" y="237.4" style="stroke: #000000; stroke-width: 0.6"/>
      </g>
     </g>
    </g>
    <g id="xtick_35">
     <g id="line2d_57">
      <g>
       <use xlink:href="#mdc5ac3a8ac" x="362.971624" y="237.4" style="stroke: #000000; stroke-width: 0.6"/>
      </g>
     </g>
    </g>
    <g id="xtick_36">
     <g id="line2d_58">
      <g>
       <use xlink:href="#mdc5ac3a8ac" x="366.656366" y="237.4" style="stroke: #000000; stroke-width: 0.6"/>
      </g>
     </g>
    </g>
    <g id="xtick_37">
     <g id="line2d_59">
      <g>
       <use xlink:href="#mdc5ac3a8ac" x="369.667019" y="237.4" style="stroke: #000000; stroke-width: 0.6"/>
      </g>
     </g>
    </g>
    <g id="xtick_38">
     <g id="line2d_60">
      <g>
       <use xlink:href="#mdc5ac3a8ac" x="372.21249" y="237.4" style="stroke: #000000; stroke-width: 0.6"/>
      </g>
     </g>
    </g>
    <g id="xtick_39">
     <g id="line2d_61">
      <g>
       <use xlink:href="#mdc5ac3a8ac" x="374.417477" y="237.4" style="stroke: #000000; stroke-width: 0.6"/>
      </g>
     </g>
    </g>
    <g id="xtick_40">
     <g id="line2d_62">
      <g>
       <use xlink:href="#mdc5ac3a8ac" x="376.362414" y="237.4" style="stroke: #000000; stroke-width: 0.6"/>
      </g>
     </g>
    </g>
    <g id="xtick_41">
     <g id="line2d_63">
      <g>
       <use xlink:href="#mdc5ac3a8ac" x="389.548071" y="237.4" style="stroke: #000000; stroke-width: 0.6"/>
      </g>
     </g>
    </g>
    <g id="xtick_42">
     <g id="line2d_64">
      <g>
       <use xlink:href="#mdc5ac3a8ac" x="396.243466" y="237.4" style="stroke: #000000; stroke-width: 0.6"/>
      </g>
     </g>
    </g>
    <g id="xtick_43">
     <g id="line2d_65">
      <g>
       <use xlink:href="#mdc5ac3a8ac" x="400.993924" y="237.4" style="stroke: #000000; stroke-width: 0.6"/>
      </g>
     </g>
    </g>
    <g id="xtick_44">
     <g id="line2d_66">
      <g>
       <use xlink:href="#mdc5ac3a8ac" x="404.678666" y="237.4" style="stroke: #000000; stroke-width: 0.6"/>
      </g>
     </g>
    </g>
    <g id="xtick_45">
     <g id="line2d_67">
      <g>
       <use xlink:href="#mdc5ac3a8ac" x="407.689319" y="237.4" style="stroke: #000000; stroke-width: 0.6"/>
      </g>
     </g>
    </g>
    <g id="xtick_46">
     <g id="line2d_68">
      <g>
       <use xlink:href="#mdc5ac3a8ac" x="410.23479" y="237.4" style="stroke: #000000; stroke-width: 0.6"/>
      </g>
     </g>
    </g>
    <g id="xtick_47">
     <g id="line2d_69">
      <g>
       <use xlink:href="#mdc5ac3a8ac" x="412.439777" y="237.4" style="stroke: #000000; stroke-width: 0.6"/>
      </g>
     </g>
    </g>
    <g id="xtick_48">
     <g id="line2d_70">
      <g>
       <use xlink:href="#mdc5ac3a8ac" x="414.384714" y="237.4" style="stroke: #000000; stroke-width: 0.6"/>
      </g>
     </g>
    </g>
    <g id="xtick_49">
     <g id="line2d_71">
      <g>
       <use xlink:href="#mdc5ac3a8ac" x="427.570372" y="237.4" style="stroke: #000000; stroke-width: 0.6"/>
      </g>
     </g>
    </g>
    <g id="xtick_50">
     <g id="line2d_72">
      <g>
       <use xlink:href="#mdc5ac3a8ac" x="434.265766" y="237.4" style="stroke: #000000; stroke-width: 0.6"/>
      </g>
     </g>
    </g>
    <g id="xtick_51">
     <g id="line2d_73">
      <g>
       <use xlink:href="#mdc5ac3a8ac" x="439.016225" y="237.4" style="stroke: #000000; stroke-width: 0.6"/>
      </g>
     </g>
    </g>
    <g id="xtick_52">
     <g id="line2d_74">
      <g>
       <use xlink:href="#mdc5ac3a8ac" x="442.700966" y="237.4" style="stroke: #000000; stroke-width: 0.6"/>
      </g>
     </g>
    </g>
    <g id="xtick_53">
     <g id="line2d_75">
      <g>
       <use xlink:href="#mdc5ac3a8ac" x="445.711619" y="237.4" style="stroke: #000000; stroke-width: 0.6"/>
      </g>
     </g>
    </g>
    <g id="xtick_54">
     <g id="line2d_76">
      <g>
       <use xlink:href="#mdc5ac3a8ac" x="448.25709" y="237.4" style="stroke: #000000; stroke-width: 0.6"/>
      </g>
     </g>
    </g>
    <g id="xtick_55">
     <g id="line2d_77">
      <g>
       <use xlink:href="#mdc5ac3a8ac" x="450.462077" y="237.4" style="stroke: #000000; stroke-width: 0.6"/>
      </g>
     </g>
    </g>
    <g id="xtick_56">
     <g id="line2d_78">
      <g>
       <use xlink:href="#mdc5ac3a8ac" x="452.407014" y="237.4" style="stroke: #000000; stroke-width: 0.6"/>
      </g>
     </g>
    </g>
    <g id="xtick_57">
     <g id="line2d_79">
      <g>
       <use xlink:href="#mdc5ac3a8ac" x="465.592672" y="237.4" style="stroke: #000000; stroke-width: 0.6"/>
      </g>
     </g>
    </g>
    <g id="xtick_58">
     <g id="line2d_80">
      <g>
       <use xlink:href="#mdc5ac3a8ac" x="472.288067" y="237.4" style="stroke: #000000; stroke-width: 0.6"/>
      </g>
     </g>
    </g>
    <g id="xtick_59">
     <g id="line2d_81">
      <g>
       <use xlink:href="#mdc5ac3a8ac" x="477.038525" y="237.4" style="stroke: #000000; stroke-width: 0.6"/>
      </g>
     </g>
    </g>
    <g id="xtick_60">
     <g id="line2d_82">
      <g>
       <use xlink:href="#mdc5ac3a8ac" x="480.723266" y="237.4" style="stroke: #000000; stroke-width: 0.6"/>
      </g>
     </g>
    </g>
    <g id="xtick_61">
     <g id="line2d_83">
      <g>
       <use xlink:href="#mdc5ac3a8ac" x="483.73392" y="237.4" style="stroke: #000000; stroke-width: 0.6"/>
      </g>
     </g>
    </g>
    <g id="xtick_62">
     <g id="line2d_84">
      <g>
       <use xlink:href="#mdc5ac3a8ac" x="486.27939" y="237.4" style="stroke: #000000; stroke-width: 0.6"/>
      </g>
     </g>
    </g>
    <g id="xtick_63">
     <g id="line2d_85">
      <g>
       <use xlink:href="#mdc5ac3a8ac" x="488.484378" y="237.4" style="stroke: #000000; stroke-width: 0.6"/>
      </g>
     </g>
    </g>
    <g id="xtick_64">
     <g id="line2d_86">
      <g>
       <use xlink:href="#mdc5ac3a8ac" x="490.429314" y="237.4" style="stroke: #000000; stroke-width: 0.6"/>
      </g>
     </g>
    </g>
    <g id="xtick_65">
     <g id="line2d_87">
      <g>
       <use xlink:href="#mdc5ac3a8ac" x="503.614972" y="237.4" style="stroke: #000000; stroke-width: 0.6"/>
      </g>
     </g>
    </g>
    <g id="xtick_66">
     <g id="line2d_88">
      <g>
       <use xlink:href="#mdc5ac3a8ac" x="510.310367" y="237.4" style="stroke: #000000; stroke-width: 0.6"/>
      </g>
     </g>
    </g>
    <g id="xtick_67">
     <g id="line2d_89">
      <g>
       <use xlink:href="#mdc5ac3a8ac" x="515.060825" y="237.4" style="stroke: #000000; stroke-width: 0.6"/>
      </g>
     </g>
    </g>
    <g id="xtick_68">
     <g id="line2d_90">
      <g>
       <use xlink:href="#mdc5ac3a8ac" x="518.745567" y="237.4" style="stroke: #000000; stroke-width: 0.6"/>
      </g>
     </g>
    </g>
    <g id="xtick_69">
     <g id="line2d_91">
      <g>
       <use xlink:href="#mdc5ac3a8ac" x="521.75622" y="237.4" style="stroke: #000000; stroke-width: 0.6"/>
      </g>
     </g>
    </g>
    <g id="xtick_70">
     <g id="line2d_92">
      <g>
       <use xlink:href="#mdc5ac3a8ac" x="524.301691" y="237.4" style="stroke: #000000; stroke-width: 0.6"/>
      </g>
     </g>
    </g>
    <g id="xtick_71">
     <g id="line2d_93">
      <g>
       <use xlink:href="#mdc5ac3a8ac" x="526.506678" y="237.4" style="stroke: #000000; stroke-width: 0.6"/>
      </g>
     </g>
    </g>
    <g id="xtick_72">
     <g id="line2d_94">
      <g>
       <use xlink:href="#mdc5ac3a8ac" x="528.451614" y="237.4" style="stroke: #000000; stroke-width: 0.6"/>
      </g>
     </g>
    </g>
    <g id="xtick_73">
     <g id="line2d_95">
      <g>
       <use xlink:href="#mdc5ac3a8ac" x="541.637272" y="237.4" style="stroke: #000000; stroke-width: 0.6"/>
      </g>
     </g>
    </g>
    <g id="xtick_74">
     <g id="line2d_96">
      <g>
       <use xlink:href="#mdc5ac3a8ac" x="548.332667" y="237.4" style="stroke: #000000; stroke-width: 0.6"/>
      </g>
     </g>
    </g>
    <g id="xtick_75">
     <g id="line2d_97">
      <g>
       <use xlink:href="#mdc5ac3a8ac" x="553.083125" y="237.4" style="stroke: #000000; stroke-width: 0.6"/>
      </g>
     </g>
    </g>
    <g id="xtick_76">
     <g id="line2d_98">
      <g>
       <use xlink:href="#mdc5ac3a8ac" x="556.767867" y="237.4" style="stroke: #000000; stroke-width: 0.6"/>
      </g>
     </g>
    </g>
    <g id="xtick_77">
     <g id="line2d_99">
      <g>
       <use xlink:href="#mdc5ac3a8ac" x="559.77852" y="237.4" style="stroke: #000000; stroke-width: 0.6"/>
      </g>
     </g>
    </g>
    <g id="text_15">
     <!-- $t$ (generations ago) -->
     <g transform="translate(397.006446 265.678125)scale(0.1 -0.1)">
      <defs>
       <path id="DejaVuSans-Oblique-74" d="M 2706 3500 
L 2619 3053 
L 1472 3053 
L 1100 1153 
Q 1081 1047 1072 975 
Q 1063 903 1063 863 
Q 1063 663 1183 572 
Q 1303 481 1569 481 
L 2150 481 
L 2053 0 
L 1503 0 
Q 991 0 739 200 
Q 488 400 488 806 
Q 488 878 497 964 
Q 506 1050 525 1153 
L 897 3053 
L 409 3053 
L 500 3500 
L 978 3500 
L 1172 4494 
L 1747 4494 
L 1556 3500 
L 2706 3500 
z
" transform="scale(0.015625)"/>
       <path id="DejaVuSans-28" d="M 1984 4856 
Q 1566 4138 1362 3434 
Q 1159 2731 1159 2009 
Q 1159 1288 1364 580 
Q 1569 -128 1984 -844 
L 1484 -844 
Q 1016 -109 783 600 
Q 550 1309 550 2009 
Q 550 2706 781 3412 
Q 1013 4119 1484 4856 
L 1984 4856 
z
" transform="scale(0.015625)"/>
       <path id="DejaVuSans-67" d="M 2906 1791 
Q 2906 2416 2648 2759 
Q 2391 3103 1925 3103 
Q 1463 3103 1205 2759 
Q 947 2416 947 1791 
Q 947 1169 1205 825 
Q 1463 481 1925 481 
Q 2391 481 2648 825 
Q 2906 1169 2906 1791 
z
M 3481 434 
Q 3481 -459 3084 -895 
Q 2688 -1331 1869 -1331 
Q 1566 -1331 1297 -1286 
Q 1028 -1241 775 -1147 
L 775 -588 
Q 1028 -725 1275 -790 
Q 1522 -856 1778 -856 
Q 2344 -856 2625 -561 
Q 2906 -266 2906 331 
L 2906 616 
Q 2728 306 2450 153 
Q 2172 0 1784 0 
Q 1141 0 747 490 
Q 353 981 353 1791 
Q 353 2603 747 3093 
Q 1141 3584 1784 3584 
Q 2172 3584 2450 3431 
Q 2728 3278 2906 2969 
L 2906 3500 
L 3481 3500 
L 3481 434 
z
" transform="scale(0.015625)"/>
       <path id="DejaVuSans-29" d="M 513 4856 
L 1013 4856 
Q 1481 4119 1714 3412 
Q 1947 2706 1947 2009 
Q 1947 1309 1714 600 
Q 1481 -109 1013 -844 
L 513 -844 
Q 928 -128 1133 580 
Q 1338 1288 1338 2009 
Q 1338 2731 1133 3434 
Q 928 4138 513 4856 
z
" transform="scale(0.015625)"/>
      </defs>
      <use xlink:href="#DejaVuSans-Oblique-74" transform="translate(0 0.015625)"/>
      <use xlink:href="#DejaVuSans-20" transform="translate(39.208984 0.015625)"/>
      <use xlink:href="#DejaVuSans-28" transform="translate(70.996094 0.015625)"/>
      <use xlink:href="#DejaVuSans-67" transform="translate(110.009766 0.015625)"/>
      <use xlink:href="#DejaVuSans-65" transform="translate(173.486328 0.015625)"/>
      <use xlink:href="#DejaVuSans-6e" transform="translate(235.009766 0.015625)"/>
      <use xlink:href="#DejaVuSans-65" transform="translate(298.388672 0.015625)"/>
      <use xlink:href="#DejaVuSans-72" transform="translate(359.912109 0.015625)"/>
      <use xlink:href="#DejaVuSans-61" transform="translate(401.025391 0.015625)"/>
      <use xlink:href="#DejaVuSans-74" transform="translate(462.304688 0.015625)"/>
      <use xlink:href="#DejaVuSans-69" transform="translate(501.513672 0.015625)"/>
      <use xlink:href="#DejaVuSans-6f" transform="translate(529.296875 0.015625)"/>
      <use xlink:href="#DejaVuSans-6e" transform="translate(590.478516 0.015625)"/>
      <use xlink:href="#DejaVuSans-73" transform="translate(653.857422 0.015625)"/>
      <use xlink:href="#DejaVuSans-20" transform="translate(705.957031 0.015625)"/>
      <use xlink:href="#DejaVuSans-61" transform="translate(737.744141 0.015625)"/>
      <use xlink:href="#DejaVuSans-67" transform="translate(799.023438 0.015625)"/>
      <use xlink:href="#DejaVuSans-6f" transform="translate(862.5 0.015625)"/>
      <use xlink:href="#DejaVuSans-29" transform="translate(923.681641 0.015625)"/>
     </g>
    </g>
   </g>
   <g id="matplotlib.axis_4">
    <g id="ytick_21">
     <g id="line2d_100">
      <g>
       <use xlink:href="#m7b6c491d8a" x="329.572266" y="120.988562" style="stroke: #000000; stroke-width: 0.8"/>
      </g>
     </g>
     <g id="text_16">
      <!-- $\mathdefault{10^{4}}$ -->
      <g transform="translate(304.972266 124.78778)scale(0.1 -0.1)">
       <use xlink:href="#DejaVuSans-31" transform="translate(0 0.684375)"/>
       <use xlink:href="#DejaVuSans-30" transform="translate(63.623047 0.684375)"/>
       <use xlink:href="#DejaVuSans-34" transform="translate(128.203125 38.965625)scale(0.7)"/>
      </g>
     </g>
    </g>
    <g id="ytick_22">
     <g id="line2d_101">
      <g>
       <use xlink:href="#m1ff7fbac7d" x="329.572266" y="219.991788" style="stroke: #000000; stroke-width: 0.6"/>
      </g>
     </g>
    </g>
    <g id="ytick_23">
     <g id="line2d_102">
      <g>
       <use xlink:href="#m1ff7fbac7d" x="329.572266" y="196.335562" style="stroke: #000000; stroke-width: 0.6"/>
      </g>
     </g>
    </g>
    <g id="ytick_24">
     <g id="line2d_103">
      <g>
       <use xlink:href="#m1ff7fbac7d" x="329.572266" y="177.986367" style="stroke: #000000; stroke-width: 0.6"/>
      </g>
     </g>
    </g>
    <g id="ytick_25">
     <g id="line2d_104">
      <g>
       <use xlink:href="#m1ff7fbac7d" x="329.572266" y="162.993983" style="stroke: #000000; stroke-width: 0.6"/>
      </g>
     </g>
    </g>
    <g id="ytick_26">
     <g id="line2d_105">
      <g>
       <use xlink:href="#m1ff7fbac7d" x="329.572266" y="150.318103" style="stroke: #000000; stroke-width: 0.6"/>
      </g>
     </g>
    </g>
    <g id="ytick_27">
     <g id="line2d_106">
      <g>
       <use xlink:href="#m1ff7fbac7d" x="329.572266" y="139.337756" style="stroke: #000000; stroke-width: 0.6"/>
      </g>
     </g>
    </g>
    <g id="ytick_28">
     <g id="line2d_107">
      <g>
       <use xlink:href="#m1ff7fbac7d" x="329.572266" y="129.652404" style="stroke: #000000; stroke-width: 0.6"/>
      </g>
     </g>
    </g>
    <g id="ytick_29">
     <g id="line2d_108">
      <g>
       <use xlink:href="#m1ff7fbac7d" x="329.572266" y="63.990756" style="stroke: #000000; stroke-width: 0.6"/>
      </g>
     </g>
    </g>
    <g id="ytick_30">
     <g id="line2d_109">
      <g>
       <use xlink:href="#m1ff7fbac7d" x="329.572266" y="30.649178" style="stroke: #000000; stroke-width: 0.6"/>
      </g>
     </g>
    </g>
    <g id="text_17">
     <!-- $\eta(t)$ -->
     <g transform="translate(298.872266 131.35)rotate(-90)scale(0.1 -0.1)">
      <defs>
       <path id="DejaVuSans-Oblique-3b7" d="M 3703 2113 
L 3034 -1331 
L 2459 -1331 
L 3125 2094 
Q 3222 2591 3075 2838 
Q 2931 3084 2544 3084 
Q 2078 3084 1750 2788 
Q 1425 2491 1325 1978 
L 941 0 
L 363 0 
L 1044 3500 
L 1622 3500 
L 1516 2956 
Q 1781 3272 2094 3428 
Q 2403 3584 2769 3584 
Q 3372 3584 3609 3213 
Q 3844 2838 3703 2113 
z
" transform="scale(0.015625)"/>
      </defs>
      <use xlink:href="#DejaVuSans-Oblique-3b7" transform="translate(0 0.125)"/>
      <use xlink:href="#DejaVuSans-28" transform="translate(63.378906 0.125)"/>
      <use xlink:href="#DejaVuSans-Oblique-74" transform="translate(102.392578 0.125)"/>
      <use xlink:href="#DejaVuSans-29" transform="translate(141.601562 0.125)"/>
     </g>
    </g>
   </g>
   <g id="line2d_110">
    <path d="M -1 34.51005 
L 397.399969 34.51005 
L 398.355303 35.948132 
L 400.265972 43.866595 
L 402.17664 52.756398 
L 404.087308 62.736693 
L 405.997977 73.941249 
L 407.908645 86.520242 
L 409.819313 100.642273 
L 411.729982 116.496622 
L 413.64065 134.295788 
L 415.551318 154.278339 
L 417.461987 176.712104 
L 419.372655 201.89777 
L 420.327989 215.626495 
L 421.283323 222.272174 
L 423.193992 214.336255 
L 425.10466 205.426853 
L 427.015328 195.424555 
L 428.925997 184.195298 
L 430.836665 171.588572 
L 432.747334 157.435408 
L 434.658002 141.546106 
L 436.56867 123.707699 
L 438.479339 103.681095 
L 440.390007 81.197871 
L 442.300675 55.956681 
L 443.256009 42.197689 
L 444.211344 36.232448 
L 446.122012 44.18584 
L 448.03268 53.114856 
L 449.943349 63.139175 
L 451.854017 74.393155 
L 453.764685 87.027635 
L 455.675354 101.211959 
L 457.586022 117.136242 
L 459.49669 135.013922 
L 461.407359 155.084617 
L 463.318027 177.617339 
L 465.228696 202.9141 
L 466.18403 216.703383 
L 467.139364 221.987342 
L 469.050032 214.016451 
L 470.960701 205.067788 
L 472.871369 195.021412 
L 474.782037 183.74267 
L 476.692706 171.080389 
L 478.603374 156.864855 
L 480.514042 140.905533 
L 482.424711 122.988516 
L 484.335379 102.873659 
L 486.246047 80.291357 
L 488.156716 54.938934 
L 489.11205 41.11931 
L 490.067384 36.518909 
L 491.978052 44.507365 
L 493.888721 53.475747 
L 495.799389 63.54426 
L 497.710058 74.847856 
L 499.620726 87.538038 
L 501.531394 101.784897 
L 503.442063 117.779387 
L 505.352731 135.735884 
L 507.263399 155.895066 
L 509.174068 178.527129 
L 511.084736 203.935417 
L 512.04007 217.785493 
L 512.995404 223.85266 
L 530.19142 223.85266 
L 530.19142 223.85266 
" clip-path="url(#pc64602144e)" style="fill: none; stroke: #000000; stroke-width: 2; stroke-linecap: square"/>
   </g>
   <g id="line2d_111">
    <path d="M -1 92.641974 
L 340.079918 92.703001 
L 342.202677 98.296649 
L 344.325435 108.453048 
L 346.448193 108.586832 
L 348.570951 107.275336 
L 350.693709 104.439319 
L 352.816467 101.111532 
L 354.939225 97.185497 
L 357.061983 92.692725 
L 359.184742 88.092709 
L 361.3075 83.465418 
L 363.430258 78.70116 
L 365.553016 73.85094 
L 367.675774 68.960653 
L 369.798532 64.041322 
L 371.92129 59.121638 
L 374.044048 54.233658 
L 376.166807 49.391804 
L 378.289565 44.594569 
L 380.412323 39.843988 
L 382.535081 35.158679 
L 384.657839 30.56182 
L 386.780597 26.074588 
L 388.903355 21.719149 
L 391.026114 18.044253 
L 393.148872 17.663636 
L 395.27163 17.757402 
L 397.394388 18.261418 
L 399.517146 19.279253 
L 401.639904 23.096127 
L 403.762662 31.219738 
L 405.88542 43.423225 
L 408.008179 68.193202 
L 410.130937 96.4692 
L 412.253695 126.815057 
L 414.376453 155.107815 
L 416.499211 181.570905 
L 418.621969 207.460412 
L 420.744727 226.936364 
L 422.867486 220.328141 
L 424.990244 207.226508 
L 427.113002 189.817088 
L 429.23576 171.208256 
L 431.358518 151.62223 
L 433.481276 132.206849 
L 435.604034 112.909066 
L 437.726792 93.151938 
L 439.849551 79.373958 
L 441.972309 69.306919 
L 444.095067 63.125881 
L 446.217825 61.856197 
L 448.340583 61.786186 
L 450.463341 62.54464 
L 452.586099 69.113402 
L 454.708858 91.252597 
L 456.831616 115.419849 
L 458.954374 141.044776 
L 461.077132 166.179896 
L 463.19989 191.257519 
L 465.322648 219.408131 
L 467.445406 211.51052 
L 469.568164 196.897568 
L 471.690923 182.07562 
L 473.813681 167.399164 
L 475.936439 151.29819 
L 478.059197 142.071468 
L 480.181955 134.945856 
L 482.304713 127.86584 
L 484.427471 120.793465 
L 486.55023 113.69061 
L 488.672988 106.666212 
L 490.795746 101.063511 
L 492.918504 99.019882 
L 495.041262 98.490002 
L 497.16402 101.156071 
L 499.286778 103.643503 
L 501.409536 106.234531 
L 503.532295 109.219603 
L 505.655053 112.582104 
L 507.777811 116.293665 
L 509.900569 120.131626 
L 512.023327 124.042626 
L 514.146085 127.775309 
L 516.268843 131.20814 
L 518.391601 133.039114 
L 520.51436 133.478112 
L 522.637118 133.808581 
L 524.759876 134.0514 
L 526.882634 134.236956 
L 529.005392 134.32438 
L 531.12815 134.357494 
L 533.250908 134.373999 
L 535.373667 134.399609 
L 537.496425 134.452874 
L 539.619183 134.535472 
L 541.741941 134.639058 
L 543.864699 134.761403 
L 545.987457 134.916277 
L 548.110215 135.132629 
L 550.232973 135.442378 
" clip-path="url(#pc64602144e)" style="fill: none; stroke: #1f77b4; stroke-opacity: 0.75; stroke-width: 3; stroke-linecap: square"/>
   </g>
   <g id="patch_8">
    <path d="M 329.572266 237.4 
L 329.572266 7.2 
" style="fill: none; stroke: #000000; stroke-width: 0.8; stroke-linejoin: miter; stroke-linecap: square"/>
   </g>
   <g id="patch_9">
    <path d="M 560.740626 237.4 
L 560.740626 7.2 
" style="fill: none; stroke: #000000; stroke-width: 0.8; stroke-linejoin: miter; stroke-linecap: square"/>
   </g>
   <g id="patch_10">
    <path d="M 329.572266 237.4 
L 560.740626 237.4 
" style="fill: none; stroke: #000000; stroke-width: 0.8; stroke-linejoin: miter; stroke-linecap: square"/>
   </g>
   <g id="patch_11">
    <path d="M 329.572266 7.2 
L 560.740626 7.2 
" style="fill: none; stroke: #000000; stroke-width: 0.8; stroke-linejoin: miter; stroke-linecap: square"/>
   </g>
   <g id="legend_1">
    <g id="patch_12">
     <path d="M 336.572266 232.4 
L 407.684766 232.4 
Q 409.684766 232.4 409.684766 230.4 
L 409.684766 202.04375 
Q 409.684766 200.04375 407.684766 200.04375 
L 336.572266 200.04375 
Q 334.572266 200.04375 334.572266 202.04375 
L 334.572266 230.4 
Q 334.572266 232.4 336.572266 232.4 
z
" style="fill: #ffffff; opacity: 0.8; stroke: #cccccc; stroke-linejoin: miter"/>
    </g>
    <g id="line2d_112">
     <path d="M 338.572266 208.142187 
L 348.572266 208.142187 
L 358.572266 208.142187 
" style="fill: none; stroke: #000000; stroke-width: 2; stroke-linecap: square"/>
    </g>
    <g id="text_18">
     <!-- true -->
     <g transform="translate(366.572266 211.642187)scale(0.1 -0.1)">
      <use xlink:href="#DejaVuSans-74"/>
      <use xlink:href="#DejaVuSans-72" x="39.208984"/>
      <use xlink:href="#DejaVuSans-75" x="80.322266"/>
      <use xlink:href="#DejaVuSans-65" x="143.701172"/>
     </g>
    </g>
    <g id="line2d_113">
     <path d="M 338.572266 222.820312 
L 348.572266 222.820312 
L 358.572266 222.820312 
" style="fill: none; stroke: #1f77b4; stroke-opacity: 0.75; stroke-width: 3; stroke-linecap: square"/>
    </g>
    <g id="text_19">
     <!-- inferred -->
     <g transform="translate(366.572266 226.320312)scale(0.1 -0.1)">
      <defs>
       <path id="DejaVuSans-64" d="M 2906 2969 
L 2906 4863 
L 3481 4863 
L 3481 0 
L 2906 0 
L 2906 525 
Q 2725 213 2448 61 
Q 2172 -91 1784 -91 
Q 1150 -91 751 415 
Q 353 922 353 1747 
Q 353 2572 751 3078 
Q 1150 3584 1784 3584 
Q 2172 3584 2448 3432 
Q 2725 3281 2906 2969 
z
M 947 1747 
Q 947 1113 1208 752 
Q 1469 391 1925 391 
Q 2381 391 2643 752 
Q 2906 1113 2906 1747 
Q 2906 2381 2643 2742 
Q 2381 3103 1925 3103 
Q 1469 3103 1208 2742 
Q 947 2381 947 1747 
z
" transform="scale(0.015625)"/>
      </defs>
      <use xlink:href="#DejaVuSans-69"/>
      <use xlink:href="#DejaVuSans-6e" x="27.783203"/>
      <use xlink:href="#DejaVuSans-66" x="91.162109"/>
      <use xlink:href="#DejaVuSans-65" x="126.367188"/>
      <use xlink:href="#DejaVuSans-72" x="187.890625"/>
      <use xlink:href="#DejaVuSans-72" x="227.253906"/>
      <use xlink:href="#DejaVuSans-65" x="266.117188"/>
      <use xlink:href="#DejaVuSans-64" x="327.640625"/>
     </g>
    </g>
   </g>
  </g>
 </g>
 <defs>
  <clipPath id="p9fe125b9b2">
   <rect x="45.478125" y="7.2" width="231.168361" height="230.2"/>
  </clipPath>
  <clipPath id="pc64602144e">
   <rect x="329.572266" y="7.2" width="231.168361" height="230.2"/>
  </clipPath>
 </defs>
</svg>
