<?xml version="1.0" encoding="utf-8" standalone="no"?>
<!DOCTYPE svg PUBLIC "-//W3C//DTD SVG 1.1//EN"
  "http://www.w3.org/Graphics/SVG/1.1/DTD/svg11.dtd">
<svg xmlns:xlink="http://www.w3.org/1999/xlink" width="455.096875pt" height="327.75625pt" viewBox="0 0 455.096875 327.75625" xmlns="http://www.w3.org/2000/svg" version="1.1">
 <metadata>
  <rdf:RDF xmlns:dc="http://purl.org/dc/elements/1.1/" xmlns:cc="http://creativecommons.org/ns#" xmlns:rdf="http://www.w3.org/1999/02/22-rdf-syntax-ns#">
   <cc:Work>
    <dc:type rdf:resource="http://purl.org/dc/dcmitype/StillImage"/>
    <dc:date>2022-01-31T08:51:49.680154</dc:date>
    <dc:format>image/svg+xml</dc:format>
    <dc:creator>
     <cc:Agent>
      <dc:title>Matplotlib v3.5.1, https://matplotlib.org/</dc:title>
     </cc:Agent>
    </dc:creator>
   </cc:Work>
  </rdf:RDF>
 </metadata>
 <defs>
  <style type="text/css">*{stroke-linejoin: round; stroke-linecap: butt}</style>
 </defs>
 <g id="figure_1">
  <g id="patch_1">
   <path d="M 0 327.75625 
L 455.096875 327.75625 
L 455.096875 0 
L 0 0 
z
" style="fill: #ffffff"/>
  </g>
  <g id="axes_1">
   <g id="patch_2">
    <path d="M 45.478125 290.2 
L 447.896875 290.2 
L 447.896875 7.2 
L 45.478125 7.2 
z
" style="fill: #ffffff"/>
   </g>
   <g id="matplotlib.axis_1">
    <g id="xtick_1">
     <g id="line2d_1">
      <defs>
       <path id="m188d7ae5bc" d="M 0 0 
L 0 3.5 
" style="stroke: #000000; stroke-width: 0.8"/>
      </defs>
      <g>
       <use xlink:href="#m188d7ae5bc" x="63.769886" y="290.2" style="stroke: #000000; stroke-width: 0.8"/>
      </g>
     </g>
     <g id="text_1">
      <!-- $\mathdefault{10^{0}}$ -->
      <g transform="translate(54.969886 304.798437)scale(0.1 -0.1)">
       <defs>
        <path id="DejaVuSans-31" d="M 794 531 
L 1825 531 
L 1825 4091 
L 703 3866 
L 703 4441 
L 1819 4666 
L 2450 4666 
L 2450 531 
L 3481 531 
L 3481 0 
L 794 0 
L 794 531 
z
" transform="scale(0.015625)"/>
        <path id="DejaVuSans-30" d="M 2034 4250 
Q 1547 4250 1301 3770 
Q 1056 3291 1056 2328 
Q 1056 1369 1301 889 
Q 1547 409 2034 409 
Q 2525 409 2770 889 
Q 3016 1369 3016 2328 
Q 3016 3291 2770 3770 
Q 2525 4250 2034 4250 
z
M 2034 4750 
Q 2819 4750 3233 4129 
Q 3647 3509 3647 2328 
Q 3647 1150 3233 529 
Q 2819 -91 2034 -91 
Q 1250 -91 836 529 
Q 422 1150 422 2328 
Q 422 3509 836 4129 
Q 1250 4750 2034 4750 
z
" transform="scale(0.015625)"/>
       </defs>
       <use xlink:href="#DejaVuSans-31" transform="translate(0 0.765625)"/>
       <use xlink:href="#DejaVuSans-30" transform="translate(63.623047 0.765625)"/>
       <use xlink:href="#DejaVuSans-30" transform="translate(128.203125 39.046875)scale(0.7)"/>
      </g>
     </g>
    </g>
    <g id="xtick_2">
     <g id="line2d_2">
      <g>
       <use xlink:href="#m188d7ae5bc" x="222.908037" y="290.2" style="stroke: #000000; stroke-width: 0.8"/>
      </g>
     </g>
     <g id="text_2">
      <!-- $\mathdefault{10^{1}}$ -->
      <g transform="translate(214.108037 304.798437)scale(0.1 -0.1)">
       <use xlink:href="#DejaVuSans-31" transform="translate(0 0.684375)"/>
       <use xlink:href="#DejaVuSans-30" transform="translate(63.623047 0.684375)"/>
       <use xlink:href="#DejaVuSans-31" transform="translate(128.203125 38.965625)scale(0.7)"/>
      </g>
     </g>
    </g>
    <g id="xtick_3">
     <g id="line2d_3">
      <g>
       <use xlink:href="#m188d7ae5bc" x="382.046188" y="290.2" style="stroke: #000000; stroke-width: 0.8"/>
      </g>
     </g>
     <g id="text_3">
      <!-- $\mathdefault{10^{2}}$ -->
      <g transform="translate(373.246188 304.798437)scale(0.1 -0.1)">
       <defs>
        <path id="DejaVuSans-32" d="M 1228 531 
L 3431 531 
L 3431 0 
L 469 0 
L 469 531 
Q 828 903 1448 1529 
Q 2069 2156 2228 2338 
Q 2531 2678 2651 2914 
Q 2772 3150 2772 3378 
Q 2772 3750 2511 3984 
Q 2250 4219 1831 4219 
Q 1534 4219 1204 4116 
Q 875 4013 500 3803 
L 500 4441 
Q 881 4594 1212 4672 
Q 1544 4750 1819 4750 
Q 2544 4750 2975 4387 
Q 3406 4025 3406 3419 
Q 3406 3131 3298 2873 
Q 3191 2616 2906 2266 
Q 2828 2175 2409 1742 
Q 1991 1309 1228 531 
z
" transform="scale(0.015625)"/>
       </defs>
       <use xlink:href="#DejaVuSans-31" transform="translate(0 0.765625)"/>
       <use xlink:href="#DejaVuSans-30" transform="translate(63.623047 0.765625)"/>
       <use xlink:href="#DejaVuSans-32" transform="translate(128.203125 39.046875)scale(0.7)"/>
      </g>
     </g>
    </g>
    <g id="xtick_4">
     <g id="line2d_4">
      <defs>
       <path id="mec61c6b06b" d="M 0 0 
L 0 2 
" style="stroke: #000000; stroke-width: 0.6"/>
      </defs>
      <g>
       <use xlink:href="#mec61c6b06b" x="48.347806" y="290.2" style="stroke: #000000; stroke-width: 0.6"/>
      </g>
     </g>
    </g>
    <g id="xtick_5">
     <g id="line2d_5">
      <g>
       <use xlink:href="#mec61c6b06b" x="56.488124" y="290.2" style="stroke: #000000; stroke-width: 0.6"/>
      </g>
     </g>
    </g>
    <g id="xtick_6">
     <g id="line2d_6">
      <g>
       <use xlink:href="#mec61c6b06b" x="111.675243" y="290.2" style="stroke: #000000; stroke-width: 0.6"/>
      </g>
     </g>
    </g>
    <g id="xtick_7">
     <g id="line2d_7">
      <g>
       <use xlink:href="#mec61c6b06b" x="139.69808" y="290.2" style="stroke: #000000; stroke-width: 0.6"/>
      </g>
     </g>
    </g>
    <g id="xtick_8">
     <g id="line2d_8">
      <g>
       <use xlink:href="#mec61c6b06b" x="159.5806" y="290.2" style="stroke: #000000; stroke-width: 0.6"/>
      </g>
     </g>
    </g>
    <g id="xtick_9">
     <g id="line2d_9">
      <g>
       <use xlink:href="#mec61c6b06b" x="175.00268" y="290.2" style="stroke: #000000; stroke-width: 0.6"/>
      </g>
     </g>
    </g>
    <g id="xtick_10">
     <g id="line2d_10">
      <g>
       <use xlink:href="#mec61c6b06b" x="187.603437" y="290.2" style="stroke: #000000; stroke-width: 0.6"/>
      </g>
     </g>
    </g>
    <g id="xtick_11">
     <g id="line2d_11">
      <g>
       <use xlink:href="#mec61c6b06b" x="198.257226" y="290.2" style="stroke: #000000; stroke-width: 0.6"/>
      </g>
     </g>
    </g>
    <g id="xtick_12">
     <g id="line2d_12">
      <g>
       <use xlink:href="#mec61c6b06b" x="207.485957" y="290.2" style="stroke: #000000; stroke-width: 0.6"/>
      </g>
     </g>
    </g>
    <g id="xtick_13">
     <g id="line2d_13">
      <g>
       <use xlink:href="#mec61c6b06b" x="215.626275" y="290.2" style="stroke: #000000; stroke-width: 0.6"/>
      </g>
     </g>
    </g>
    <g id="xtick_14">
     <g id="line2d_14">
      <g>
       <use xlink:href="#mec61c6b06b" x="270.813394" y="290.2" style="stroke: #000000; stroke-width: 0.6"/>
      </g>
     </g>
    </g>
    <g id="xtick_15">
     <g id="line2d_15">
      <g>
       <use xlink:href="#mec61c6b06b" x="298.836231" y="290.2" style="stroke: #000000; stroke-width: 0.6"/>
      </g>
     </g>
    </g>
    <g id="xtick_16">
     <g id="line2d_16">
      <g>
       <use xlink:href="#mec61c6b06b" x="318.718751" y="290.2" style="stroke: #000000; stroke-width: 0.6"/>
      </g>
     </g>
    </g>
    <g id="xtick_17">
     <g id="line2d_17">
      <g>
       <use xlink:href="#mec61c6b06b" x="334.140831" y="290.2" style="stroke: #000000; stroke-width: 0.6"/>
      </g>
     </g>
    </g>
    <g id="xtick_18">
     <g id="line2d_18">
      <g>
       <use xlink:href="#mec61c6b06b" x="346.741588" y="290.2" style="stroke: #000000; stroke-width: 0.6"/>
      </g>
     </g>
    </g>
    <g id="xtick_19">
     <g id="line2d_19">
      <g>
       <use xlink:href="#mec61c6b06b" x="357.395376" y="290.2" style="stroke: #000000; stroke-width: 0.6"/>
      </g>
     </g>
    </g>
    <g id="xtick_20">
     <g id="line2d_20">
      <g>
       <use xlink:href="#mec61c6b06b" x="366.624107" y="290.2" style="stroke: #000000; stroke-width: 0.6"/>
      </g>
     </g>
    </g>
    <g id="xtick_21">
     <g id="line2d_21">
      <g>
       <use xlink:href="#mec61c6b06b" x="374.764425" y="290.2" style="stroke: #000000; stroke-width: 0.6"/>
      </g>
     </g>
    </g>
    <g id="xtick_22">
     <g id="line2d_22">
      <g>
       <use xlink:href="#mec61c6b06b" x="429.951545" y="290.2" style="stroke: #000000; stroke-width: 0.6"/>
      </g>
     </g>
    </g>
    <g id="text_4">
     <!-- sample frequency -->
     <g transform="translate(201.842969 318.476562)scale(0.1 -0.1)">
      <defs>
       <path id="DejaVuSans-73" d="M 2834 3397 
L 2834 2853 
Q 2591 2978 2328 3040 
Q 2066 3103 1784 3103 
Q 1356 3103 1142 2972 
Q 928 2841 928 2578 
Q 928 2378 1081 2264 
Q 1234 2150 1697 2047 
L 1894 2003 
Q 2506 1872 2764 1633 
Q 3022 1394 3022 966 
Q 3022 478 2636 193 
Q 2250 -91 1575 -91 
Q 1294 -91 989 -36 
Q 684 19 347 128 
L 347 722 
Q 666 556 975 473 
Q 1284 391 1588 391 
Q 1994 391 2212 530 
Q 2431 669 2431 922 
Q 2431 1156 2273 1281 
Q 2116 1406 1581 1522 
L 1381 1569 
Q 847 1681 609 1914 
Q 372 2147 372 2553 
Q 372 3047 722 3315 
Q 1072 3584 1716 3584 
Q 2034 3584 2315 3537 
Q 2597 3491 2834 3397 
z
" transform="scale(0.015625)"/>
       <path id="DejaVuSans-61" d="M 2194 1759 
Q 1497 1759 1228 1600 
Q 959 1441 959 1056 
Q 959 750 1161 570 
Q 1363 391 1709 391 
Q 2188 391 2477 730 
Q 2766 1069 2766 1631 
L 2766 1759 
L 2194 1759 
z
M 3341 1997 
L 3341 0 
L 2766 0 
L 2766 531 
Q 2569 213 2275 61 
Q 1981 -91 1556 -91 
Q 1019 -91 701 211 
Q 384 513 384 1019 
Q 384 1609 779 1909 
Q 1175 2209 1959 2209 
L 2766 2209 
L 2766 2266 
Q 2766 2663 2505 2880 
Q 2244 3097 1772 3097 
Q 1472 3097 1187 3025 
Q 903 2953 641 2809 
L 641 3341 
Q 956 3463 1253 3523 
Q 1550 3584 1831 3584 
Q 2591 3584 2966 3190 
Q 3341 2797 3341 1997 
z
" transform="scale(0.015625)"/>
       <path id="DejaVuSans-6d" d="M 3328 2828 
Q 3544 3216 3844 3400 
Q 4144 3584 4550 3584 
Q 5097 3584 5394 3201 
Q 5691 2819 5691 2113 
L 5691 0 
L 5113 0 
L 5113 2094 
Q 5113 2597 4934 2840 
Q 4756 3084 4391 3084 
Q 3944 3084 3684 2787 
Q 3425 2491 3425 1978 
L 3425 0 
L 2847 0 
L 2847 2094 
Q 2847 2600 2669 2842 
Q 2491 3084 2119 3084 
Q 1678 3084 1418 2786 
Q 1159 2488 1159 1978 
L 1159 0 
L 581 0 
L 581 3500 
L 1159 3500 
L 1159 2956 
Q 1356 3278 1631 3431 
Q 1906 3584 2284 3584 
Q 2666 3584 2933 3390 
Q 3200 3197 3328 2828 
z
" transform="scale(0.015625)"/>
       <path id="DejaVuSans-70" d="M 1159 525 
L 1159 -1331 
L 581 -1331 
L 581 3500 
L 1159 3500 
L 1159 2969 
Q 1341 3281 1617 3432 
Q 1894 3584 2278 3584 
Q 2916 3584 3314 3078 
Q 3713 2572 3713 1747 
Q 3713 922 3314 415 
Q 2916 -91 2278 -91 
Q 1894 -91 1617 61 
Q 1341 213 1159 525 
z
M 3116 1747 
Q 3116 2381 2855 2742 
Q 2594 3103 2138 3103 
Q 1681 3103 1420 2742 
Q 1159 2381 1159 1747 
Q 1159 1113 1420 752 
Q 1681 391 2138 391 
Q 2594 391 2855 752 
Q 3116 1113 3116 1747 
z
" transform="scale(0.015625)"/>
       <path id="DejaVuSans-6c" d="M 603 4863 
L 1178 4863 
L 1178 0 
L 603 0 
L 603 4863 
z
" transform="scale(0.015625)"/>
       <path id="DejaVuSans-65" d="M 3597 1894 
L 3597 1613 
L 953 1613 
Q 991 1019 1311 708 
Q 1631 397 2203 397 
Q 2534 397 2845 478 
Q 3156 559 3463 722 
L 3463 178 
Q 3153 47 2828 -22 
Q 2503 -91 2169 -91 
Q 1331 -91 842 396 
Q 353 884 353 1716 
Q 353 2575 817 3079 
Q 1281 3584 2069 3584 
Q 2775 3584 3186 3129 
Q 3597 2675 3597 1894 
z
M 3022 2063 
Q 3016 2534 2758 2815 
Q 2500 3097 2075 3097 
Q 1594 3097 1305 2825 
Q 1016 2553 972 2059 
L 3022 2063 
z
" transform="scale(0.015625)"/>
       <path id="DejaVuSans-20" transform="scale(0.015625)"/>
       <path id="DejaVuSans-66" d="M 2375 4863 
L 2375 4384 
L 1825 4384 
Q 1516 4384 1395 4259 
Q 1275 4134 1275 3809 
L 1275 3500 
L 2222 3500 
L 2222 3053 
L 1275 3053 
L 1275 0 
L 697 0 
L 697 3053 
L 147 3053 
L 147 3500 
L 697 3500 
L 697 3744 
Q 697 4328 969 4595 
Q 1241 4863 1831 4863 
L 2375 4863 
z
" transform="scale(0.015625)"/>
       <path id="DejaVuSans-72" d="M 2631 2963 
Q 2534 3019 2420 3045 
Q 2306 3072 2169 3072 
Q 1681 3072 1420 2755 
Q 1159 2438 1159 1844 
L 1159 0 
L 581 0 
L 581 3500 
L 1159 3500 
L 1159 2956 
Q 1341 3275 1631 3429 
Q 1922 3584 2338 3584 
Q 2397 3584 2469 3576 
Q 2541 3569 2628 3553 
L 2631 2963 
z
" transform="scale(0.015625)"/>
       <path id="DejaVuSans-71" d="M 947 1747 
Q 947 1113 1208 752 
Q 1469 391 1925 391 
Q 2381 391 2643 752 
Q 2906 1113 2906 1747 
Q 2906 2381 2643 2742 
Q 2381 3103 1925 3103 
Q 1469 3103 1208 2742 
Q 947 2381 947 1747 
z
M 2906 525 
Q 2725 213 2448 61 
Q 2172 -91 1784 -91 
Q 1150 -91 751 415 
Q 353 922 353 1747 
Q 353 2572 751 3078 
Q 1150 3584 1784 3584 
Q 2172 3584 2448 3432 
Q 2725 3281 2906 2969 
L 2906 3500 
L 3481 3500 
L 3481 -1331 
L 2906 -1331 
L 2906 525 
z
" transform="scale(0.015625)"/>
       <path id="DejaVuSans-75" d="M 544 1381 
L 544 3500 
L 1119 3500 
L 1119 1403 
Q 1119 906 1312 657 
Q 1506 409 1894 409 
Q 2359 409 2629 706 
Q 2900 1003 2900 1516 
L 2900 3500 
L 3475 3500 
L 3475 0 
L 2900 0 
L 2900 538 
Q 2691 219 2414 64 
Q 2138 -91 1772 -91 
Q 1169 -91 856 284 
Q 544 659 544 1381 
z
M 1991 3584 
L 1991 3584 
z
" transform="scale(0.015625)"/>
       <path id="DejaVuSans-6e" d="M 3513 2113 
L 3513 0 
L 2938 0 
L 2938 2094 
Q 2938 2591 2744 2837 
Q 2550 3084 2163 3084 
Q 1697 3084 1428 2787 
Q 1159 2491 1159 1978 
L 1159 0 
L 581 0 
L 581 3500 
L 1159 3500 
L 1159 2956 
Q 1366 3272 1645 3428 
Q 1925 3584 2291 3584 
Q 2894 3584 3203 3211 
Q 3513 2838 3513 2113 
z
" transform="scale(0.015625)"/>
       <path id="DejaVuSans-63" d="M 3122 3366 
L 3122 2828 
Q 2878 2963 2633 3030 
Q 2388 3097 2138 3097 
Q 1578 3097 1268 2742 
Q 959 2388 959 1747 
Q 959 1106 1268 751 
Q 1578 397 2138 397 
Q 2388 397 2633 464 
Q 2878 531 3122 666 
L 3122 134 
Q 2881 22 2623 -34 
Q 2366 -91 2075 -91 
Q 1284 -91 818 406 
Q 353 903 353 1747 
Q 353 2603 823 3093 
Q 1294 3584 2113 3584 
Q 2378 3584 2631 3529 
Q 2884 3475 3122 3366 
z
" transform="scale(0.015625)"/>
       <path id="DejaVuSans-79" d="M 2059 -325 
Q 1816 -950 1584 -1140 
Q 1353 -1331 966 -1331 
L 506 -1331 
L 506 -850 
L 844 -850 
Q 1081 -850 1212 -737 
Q 1344 -625 1503 -206 
L 1606 56 
L 191 3500 
L 800 3500 
L 1894 763 
L 2988 3500 
L 3597 3500 
L 2059 -325 
z
" transform="scale(0.015625)"/>
      </defs>
      <use xlink:href="#DejaVuSans-73"/>
      <use xlink:href="#DejaVuSans-61" x="52.099609"/>
      <use xlink:href="#DejaVuSans-6d" x="113.378906"/>
      <use xlink:href="#DejaVuSans-70" x="210.791016"/>
      <use xlink:href="#DejaVuSans-6c" x="274.267578"/>
      <use xlink:href="#DejaVuSans-65" x="302.050781"/>
      <use xlink:href="#DejaVuSans-20" x="363.574219"/>
      <use xlink:href="#DejaVuSans-66" x="395.361328"/>
      <use xlink:href="#DejaVuSans-72" x="430.566406"/>
      <use xlink:href="#DejaVuSans-65" x="469.429688"/>
      <use xlink:href="#DejaVuSans-71" x="530.953125"/>
      <use xlink:href="#DejaVuSans-75" x="594.429688"/>
      <use xlink:href="#DejaVuSans-65" x="657.808594"/>
      <use xlink:href="#DejaVuSans-6e" x="719.332031"/>
      <use xlink:href="#DejaVuSans-63" x="782.710938"/>
      <use xlink:href="#DejaVuSans-79" x="837.691406"/>
     </g>
    </g>
   </g>
   <g id="matplotlib.axis_2">
    <g id="ytick_1">
     <g id="line2d_23">
      <defs>
       <path id="m596448160f" d="M 0 0 
L -3.5 0 
" style="stroke: #000000; stroke-width: 0.8"/>
      </defs>
      <g>
       <use xlink:href="#m596448160f" x="45.478125" y="243.890666" style="stroke: #000000; stroke-width: 0.8"/>
      </g>
     </g>
     <g id="text_5">
      <!-- $\mathdefault{10^{4}}$ -->
      <g transform="translate(20.878125 247.689884)scale(0.1 -0.1)">
       <defs>
        <path id="DejaVuSans-34" d="M 2419 4116 
L 825 1625 
L 2419 1625 
L 2419 4116 
z
M 2253 4666 
L 3047 4666 
L 3047 1625 
L 3713 1625 
L 3713 1100 
L 3047 1100 
L 3047 0 
L 2419 0 
L 2419 1100 
L 313 1100 
L 313 1709 
L 2253 4666 
z
" transform="scale(0.015625)"/>
       </defs>
       <use xlink:href="#DejaVuSans-31" transform="translate(0 0.684375)"/>
       <use xlink:href="#DejaVuSans-30" transform="translate(63.623047 0.684375)"/>
       <use xlink:href="#DejaVuSans-34" transform="translate(128.203125 38.965625)scale(0.7)"/>
      </g>
     </g>
    </g>
    <g id="ytick_2">
     <g id="line2d_24">
      <g>
       <use xlink:href="#m596448160f" x="45.478125" y="131.977151" style="stroke: #000000; stroke-width: 0.8"/>
      </g>
     </g>
     <g id="text_6">
      <!-- $\mathdefault{10^{5}}$ -->
      <g transform="translate(20.878125 135.77637)scale(0.1 -0.1)">
       <defs>
        <path id="DejaVuSans-35" d="M 691 4666 
L 3169 4666 
L 3169 4134 
L 1269 4134 
L 1269 2991 
Q 1406 3038 1543 3061 
Q 1681 3084 1819 3084 
Q 2600 3084 3056 2656 
Q 3513 2228 3513 1497 
Q 3513 744 3044 326 
Q 2575 -91 1722 -91 
Q 1428 -91 1123 -41 
Q 819 9 494 109 
L 494 744 
Q 775 591 1075 516 
Q 1375 441 1709 441 
Q 2250 441 2565 725 
Q 2881 1009 2881 1497 
Q 2881 1984 2565 2268 
Q 2250 2553 1709 2553 
Q 1456 2553 1204 2497 
Q 953 2441 691 2322 
L 691 4666 
z
" transform="scale(0.015625)"/>
       </defs>
       <use xlink:href="#DejaVuSans-31" transform="translate(0 0.684375)"/>
       <use xlink:href="#DejaVuSans-30" transform="translate(63.623047 0.684375)"/>
       <use xlink:href="#DejaVuSans-35" transform="translate(128.203125 38.965625)scale(0.7)"/>
      </g>
     </g>
    </g>
    <g id="ytick_3">
     <g id="line2d_25">
      <g>
       <use xlink:href="#m596448160f" x="45.478125" y="20.063636" style="stroke: #000000; stroke-width: 0.8"/>
      </g>
     </g>
     <g id="text_7">
      <!-- $\mathdefault{10^{6}}$ -->
      <g transform="translate(20.878125 23.862855)scale(0.1 -0.1)">
       <defs>
        <path id="DejaVuSans-36" d="M 2113 2584 
Q 1688 2584 1439 2293 
Q 1191 2003 1191 1497 
Q 1191 994 1439 701 
Q 1688 409 2113 409 
Q 2538 409 2786 701 
Q 3034 994 3034 1497 
Q 3034 2003 2786 2293 
Q 2538 2584 2113 2584 
z
M 3366 4563 
L 3366 3988 
Q 3128 4100 2886 4159 
Q 2644 4219 2406 4219 
Q 1781 4219 1451 3797 
Q 1122 3375 1075 2522 
Q 1259 2794 1537 2939 
Q 1816 3084 2150 3084 
Q 2853 3084 3261 2657 
Q 3669 2231 3669 1497 
Q 3669 778 3244 343 
Q 2819 -91 2113 -91 
Q 1303 -91 875 529 
Q 447 1150 447 2328 
Q 447 3434 972 4092 
Q 1497 4750 2381 4750 
Q 2619 4750 2861 4703 
Q 3103 4656 3366 4563 
z
" transform="scale(0.015625)"/>
       </defs>
       <use xlink:href="#DejaVuSans-31" transform="translate(0 0.765625)"/>
       <use xlink:href="#DejaVuSans-30" transform="translate(63.623047 0.765625)"/>
       <use xlink:href="#DejaVuSans-36" transform="translate(128.203125 39.046875)scale(0.7)"/>
      </g>
     </g>
    </g>
    <g id="ytick_4">
     <g id="line2d_26">
      <defs>
       <path id="m76632024a0" d="M 0 0 
L -2 0 
" style="stroke: #000000; stroke-width: 0.6"/>
      </defs>
      <g>
       <use xlink:href="#m76632024a0" x="45.478125" y="288.42553" style="stroke: #000000; stroke-width: 0.6"/>
      </g>
     </g>
    </g>
    <g id="ytick_5">
     <g id="line2d_27">
      <g>
       <use xlink:href="#m76632024a0" x="45.478125" y="277.57999" style="stroke: #000000; stroke-width: 0.6"/>
      </g>
     </g>
    </g>
    <g id="ytick_6">
     <g id="line2d_28">
      <g>
       <use xlink:href="#m76632024a0" x="45.478125" y="268.718539" style="stroke: #000000; stroke-width: 0.6"/>
      </g>
     </g>
    </g>
    <g id="ytick_7">
     <g id="line2d_29">
      <g>
       <use xlink:href="#m76632024a0" x="45.478125" y="261.226288" style="stroke: #000000; stroke-width: 0.6"/>
      </g>
     </g>
    </g>
    <g id="ytick_8">
     <g id="line2d_30">
      <g>
       <use xlink:href="#m76632024a0" x="45.478125" y="254.736206" style="stroke: #000000; stroke-width: 0.6"/>
      </g>
     </g>
    </g>
    <g id="ytick_9">
     <g id="line2d_31">
      <g>
       <use xlink:href="#m76632024a0" x="45.478125" y="249.011547" style="stroke: #000000; stroke-width: 0.6"/>
      </g>
     </g>
    </g>
    <g id="ytick_10">
     <g id="line2d_32">
      <g>
       <use xlink:href="#m76632024a0" x="45.478125" y="210.201341" style="stroke: #000000; stroke-width: 0.6"/>
      </g>
     </g>
    </g>
    <g id="ytick_11">
     <g id="line2d_33">
      <g>
       <use xlink:href="#m76632024a0" x="45.478125" y="190.494349" style="stroke: #000000; stroke-width: 0.6"/>
      </g>
     </g>
    </g>
    <g id="ytick_12">
     <g id="line2d_34">
      <g>
       <use xlink:href="#m76632024a0" x="45.478125" y="176.512016" style="stroke: #000000; stroke-width: 0.6"/>
      </g>
     </g>
    </g>
    <g id="ytick_13">
     <g id="line2d_35">
      <g>
       <use xlink:href="#m76632024a0" x="45.478125" y="165.666476" style="stroke: #000000; stroke-width: 0.6"/>
      </g>
     </g>
    </g>
    <g id="ytick_14">
     <g id="line2d_36">
      <g>
       <use xlink:href="#m76632024a0" x="45.478125" y="156.805024" style="stroke: #000000; stroke-width: 0.6"/>
      </g>
     </g>
    </g>
    <g id="ytick_15">
     <g id="line2d_37">
      <g>
       <use xlink:href="#m76632024a0" x="45.478125" y="149.312774" style="stroke: #000000; stroke-width: 0.6"/>
      </g>
     </g>
    </g>
    <g id="ytick_16">
     <g id="line2d_38">
      <g>
       <use xlink:href="#m76632024a0" x="45.478125" y="142.822691" style="stroke: #000000; stroke-width: 0.6"/>
      </g>
     </g>
    </g>
    <g id="ytick_17">
     <g id="line2d_39">
      <g>
       <use xlink:href="#m76632024a0" x="45.478125" y="137.098033" style="stroke: #000000; stroke-width: 0.6"/>
      </g>
     </g>
    </g>
    <g id="ytick_18">
     <g id="line2d_40">
      <g>
       <use xlink:href="#m76632024a0" x="45.478125" y="98.287826" style="stroke: #000000; stroke-width: 0.6"/>
      </g>
     </g>
    </g>
    <g id="ytick_19">
     <g id="line2d_41">
      <g>
       <use xlink:href="#m76632024a0" x="45.478125" y="78.580834" style="stroke: #000000; stroke-width: 0.6"/>
      </g>
     </g>
    </g>
    <g id="ytick_20">
     <g id="line2d_42">
      <g>
       <use xlink:href="#m76632024a0" x="45.478125" y="64.598501" style="stroke: #000000; stroke-width: 0.6"/>
      </g>
     </g>
    </g>
    <g id="ytick_21">
     <g id="line2d_43">
      <g>
       <use xlink:href="#m76632024a0" x="45.478125" y="53.752961" style="stroke: #000000; stroke-width: 0.6"/>
      </g>
     </g>
    </g>
    <g id="ytick_22">
     <g id="line2d_44">
      <g>
       <use xlink:href="#m76632024a0" x="45.478125" y="44.89151" style="stroke: #000000; stroke-width: 0.6"/>
      </g>
     </g>
    </g>
    <g id="ytick_23">
     <g id="line2d_45">
      <g>
       <use xlink:href="#m76632024a0" x="45.478125" y="37.399259" style="stroke: #000000; stroke-width: 0.6"/>
      </g>
     </g>
    </g>
    <g id="ytick_24">
     <g id="line2d_46">
      <g>
       <use xlink:href="#m76632024a0" x="45.478125" y="30.909177" style="stroke: #000000; stroke-width: 0.6"/>
      </g>
     </g>
    </g>
    <g id="ytick_25">
     <g id="line2d_47">
      <g>
       <use xlink:href="#m76632024a0" x="45.478125" y="25.184518" style="stroke: #000000; stroke-width: 0.6"/>
      </g>
     </g>
    </g>
    <g id="text_8">
     <!-- variant count -->
     <g transform="translate(14.798438 182.05625)rotate(-90)scale(0.1 -0.1)">
      <defs>
       <path id="DejaVuSans-76" d="M 191 3500 
L 800 3500 
L 1894 563 
L 2988 3500 
L 3597 3500 
L 2284 0 
L 1503 0 
L 191 3500 
z
" transform="scale(0.015625)"/>
       <path id="DejaVuSans-69" d="M 603 3500 
L 1178 3500 
L 1178 0 
L 603 0 
L 603 3500 
z
M 603 4863 
L 1178 4863 
L 1178 4134 
L 603 4134 
L 603 4863 
z
" transform="scale(0.015625)"/>
       <path id="DejaVuSans-74" d="M 1172 4494 
L 1172 3500 
L 2356 3500 
L 2356 3053 
L 1172 3053 
L 1172 1153 
Q 1172 725 1289 603 
Q 1406 481 1766 481 
L 2356 481 
L 2356 0 
L 1766 0 
Q 1100 0 847 248 
Q 594 497 594 1153 
L 594 3053 
L 172 3053 
L 172 3500 
L 594 3500 
L 594 4494 
L 1172 4494 
z
" transform="scale(0.015625)"/>
       <path id="DejaVuSans-6f" d="M 1959 3097 
Q 1497 3097 1228 2736 
Q 959 2375 959 1747 
Q 959 1119 1226 758 
Q 1494 397 1959 397 
Q 2419 397 2687 759 
Q 2956 1122 2956 1747 
Q 2956 2369 2687 2733 
Q 2419 3097 1959 3097 
z
M 1959 3584 
Q 2709 3584 3137 3096 
Q 3566 2609 3566 1747 
Q 3566 888 3137 398 
Q 2709 -91 1959 -91 
Q 1206 -91 779 398 
Q 353 888 353 1747 
Q 353 2609 779 3096 
Q 1206 3584 1959 3584 
z
" transform="scale(0.015625)"/>
      </defs>
      <use xlink:href="#DejaVuSans-76"/>
      <use xlink:href="#DejaVuSans-61" x="59.179688"/>
      <use xlink:href="#DejaVuSans-72" x="120.458984"/>
      <use xlink:href="#DejaVuSans-69" x="161.572266"/>
      <use xlink:href="#DejaVuSans-61" x="189.355469"/>
      <use xlink:href="#DejaVuSans-6e" x="250.634766"/>
      <use xlink:href="#DejaVuSans-74" x="314.013672"/>
      <use xlink:href="#DejaVuSans-20" x="353.222656"/>
      <use xlink:href="#DejaVuSans-63" x="385.009766"/>
      <use xlink:href="#DejaVuSans-6f" x="439.990234"/>
      <use xlink:href="#DejaVuSans-75" x="501.171875"/>
      <use xlink:href="#DejaVuSans-6e" x="564.550781"/>
      <use xlink:href="#DejaVuSans-74" x="627.929688"/>
     </g>
    </g>
   </g>
   <g id="line2d_48">
    <defs>
     <path id="mb731674af9" d="M 0 1.5 
C 0.397805 1.5 0.77937 1.341951 1.06066 1.06066 
C 1.341951 0.77937 1.5 0.397805 1.5 0 
C 1.5 -0.397805 1.341951 -0.77937 1.06066 -1.06066 
C 0.77937 -1.341951 0.397805 -1.5 0 -1.5 
C -0.397805 -1.5 -0.77937 -1.341951 -1.06066 -1.06066 
C -1.341951 -0.77937 -1.5 -0.397805 -1.5 0 
C -1.5 0.397805 -1.341951 0.77937 -1.06066 1.06066 
C -0.77937 1.341951 -0.397805 1.5 0 1.5 
z
" style="stroke: #1f77b4"/>
    </defs>
    <g clip-path="url(#pc6a6573d79)">
     <use xlink:href="#mb731674af9" x="63.769886" y="20.063636" style="fill: #1f77b4; stroke: #1f77b4"/>
     <use xlink:href="#mb731674af9" x="111.675243" y="53.752961" style="fill: #1f77b4; stroke: #1f77b4"/>
     <use xlink:href="#mb731674af9" x="139.69808" y="73.459953" style="fill: #1f77b4; stroke: #1f77b4"/>
     <use xlink:href="#mb731674af9" x="159.5806" y="87.442286" style="fill: #1f77b4; stroke: #1f77b4"/>
     <use xlink:href="#mb731674af9" x="175.00268" y="98.287826" style="fill: #1f77b4; stroke: #1f77b4"/>
     <use xlink:href="#mb731674af9" x="187.603437" y="107.149278" style="fill: #1f77b4; stroke: #1f77b4"/>
     <use xlink:href="#mb731674af9" x="198.257226" y="114.641528" style="fill: #1f77b4; stroke: #1f77b4"/>
     <use xlink:href="#mb731674af9" x="207.485957" y="121.131611" style="fill: #1f77b4; stroke: #1f77b4"/>
     <use xlink:href="#mb731674af9" x="215.626275" y="126.856269" style="fill: #1f77b4; stroke: #1f77b4"/>
     <use xlink:href="#mb731674af9" x="222.908037" y="131.977151" style="fill: #1f77b4; stroke: #1f77b4"/>
     <use xlink:href="#mb731674af9" x="229.495192" y="136.609552" style="fill: #1f77b4; stroke: #1f77b4"/>
     <use xlink:href="#mb731674af9" x="235.508794" y="140.838602" style="fill: #1f77b4; stroke: #1f77b4"/>
     <use xlink:href="#mb731674af9" x="241.040771" y="144.728952" style="fill: #1f77b4; stroke: #1f77b4"/>
     <use xlink:href="#mb731674af9" x="246.162582" y="148.330853" style="fill: #1f77b4; stroke: #1f77b4"/>
     <use xlink:href="#mb731674af9" x="250.930874" y="151.684143" style="fill: #1f77b4; stroke: #1f77b4"/>
     <use xlink:href="#mb731674af9" x="255.391314" y="154.820936" style="fill: #1f77b4; stroke: #1f77b4"/>
     <use xlink:href="#mb731674af9" x="259.581252" y="157.7675" style="fill: #1f77b4; stroke: #1f77b4"/>
     <use xlink:href="#mb731674af9" x="263.531631" y="160.545594" style="fill: #1f77b4; stroke: #1f77b4"/>
     <use xlink:href="#mb731674af9" x="267.26837" y="163.173446" style="fill: #1f77b4; stroke: #1f77b4"/>
     <use xlink:href="#mb731674af9" x="270.813394" y="165.666476" style="fill: #1f77b4; stroke: #1f77b4"/>
     <use xlink:href="#mb731674af9" x="274.18542" y="168.037845" style="fill: #1f77b4; stroke: #1f77b4"/>
     <use xlink:href="#mb731674af9" x="277.400549" y="170.298877" style="fill: #1f77b4; stroke: #1f77b4"/>
     <use xlink:href="#mb731674af9" x="280.472736" y="172.459384" style="fill: #1f77b4; stroke: #1f77b4"/>
     <use xlink:href="#mb731674af9" x="283.414151" y="174.527927" style="fill: #1f77b4; stroke: #1f77b4"/>
     <use xlink:href="#mb731674af9" x="286.235474" y="176.512016" style="fill: #1f77b4; stroke: #1f77b4"/>
     <use xlink:href="#mb731674af9" x="288.946128" y="178.418277" style="fill: #1f77b4; stroke: #1f77b4"/>
     <use xlink:href="#mb731674af9" x="291.554469" y="180.252586" style="fill: #1f77b4; stroke: #1f77b4"/>
     <use xlink:href="#mb731674af9" x="294.067939" y="182.020178" style="fill: #1f77b4; stroke: #1f77b4"/>
     <use xlink:href="#mb731674af9" x="296.493199" y="183.725736" style="fill: #1f77b4; stroke: #1f77b4"/>
     <use xlink:href="#mb731674af9" x="298.836231" y="185.373467" style="fill: #1f77b4; stroke: #1f77b4"/>
     <use xlink:href="#mb731674af9" x="301.102428" y="186.967165" style="fill: #1f77b4; stroke: #1f77b4"/>
     <use xlink:href="#mb731674af9" x="303.29667" y="188.51026" style="fill: #1f77b4; stroke: #1f77b4"/>
     <use xlink:href="#mb731674af9" x="305.423387" y="190.005868" style="fill: #1f77b4; stroke: #1f77b4"/>
     <use xlink:href="#mb731674af9" x="307.486609" y="191.456824" style="fill: #1f77b4; stroke: #1f77b4"/>
     <use xlink:href="#mb731674af9" x="309.490019" y="192.865718" style="fill: #1f77b4; stroke: #1f77b4"/>
     <use xlink:href="#mb731674af9" x="311.436988" y="194.234919" style="fill: #1f77b4; stroke: #1f77b4"/>
     <use xlink:href="#mb731674af9" x="313.330609" y="195.566603" style="fill: #1f77b4; stroke: #1f77b4"/>
     <use xlink:href="#mb731674af9" x="315.173726" y="196.862771" style="fill: #1f77b4; stroke: #1f77b4"/>
     <use xlink:href="#mb731674af9" x="316.968966" y="198.125268" style="fill: #1f77b4; stroke: #1f77b4"/>
     <use xlink:href="#mb731674af9" x="318.718751" y="199.355801" style="fill: #1f77b4; stroke: #1f77b4"/>
     <use xlink:href="#mb731674af9" x="320.425327" y="200.555946" style="fill: #1f77b4; stroke: #1f77b4"/>
     <use xlink:href="#mb731674af9" x="322.090777" y="201.727169" style="fill: #1f77b4; stroke: #1f77b4"/>
     <use xlink:href="#mb731674af9" x="323.717036" y="202.870832" style="fill: #1f77b4; stroke: #1f77b4"/>
     <use xlink:href="#mb731674af9" x="325.305906" y="203.988201" style="fill: #1f77b4; stroke: #1f77b4"/>
     <use xlink:href="#mb731674af9" x="326.859068" y="205.080459" style="fill: #1f77b4; stroke: #1f77b4"/>
     <use xlink:href="#mb731674af9" x="328.378093" y="206.148709" style="fill: #1f77b4; stroke: #1f77b4"/>
     <use xlink:href="#mb731674af9" x="329.864447" y="207.193984" style="fill: #1f77b4; stroke: #1f77b4"/>
     <use xlink:href="#mb731674af9" x="331.319508" y="208.217252" style="fill: #1f77b4; stroke: #1f77b4"/>
     <use xlink:href="#mb731674af9" x="332.744565" y="209.21942" style="fill: #1f77b4; stroke: #1f77b4"/>
     <use xlink:href="#mb731674af9" x="334.140831" y="210.201341" style="fill: #1f77b4; stroke: #1f77b4"/>
     <use xlink:href="#mb731674af9" x="335.509446" y="211.163816" style="fill: #1f77b4; stroke: #1f77b4"/>
     <use xlink:href="#mb731674af9" x="336.851485" y="212.107602" style="fill: #1f77b4; stroke: #1f77b4"/>
     <use xlink:href="#mb731674af9" x="338.16796" y="213.033409" style="fill: #1f77b4; stroke: #1f77b4"/>
     <use xlink:href="#mb731674af9" x="339.459826" y="213.941911" style="fill: #1f77b4; stroke: #1f77b4"/>
     <use xlink:href="#mb731674af9" x="340.727986" y="214.833742" style="fill: #1f77b4; stroke: #1f77b4"/>
     <use xlink:href="#mb731674af9" x="341.973296" y="215.709503" style="fill: #1f77b4; stroke: #1f77b4"/>
     <use xlink:href="#mb731674af9" x="343.196564" y="216.569763" style="fill: #1f77b4; stroke: #1f77b4"/>
     <use xlink:href="#mb731674af9" x="344.398556" y="217.415061" style="fill: #1f77b4; stroke: #1f77b4"/>
     <use xlink:href="#mb731674af9" x="345.580001" y="218.245909" style="fill: #1f77b4; stroke: #1f77b4"/>
     <use xlink:href="#mb731674af9" x="346.741588" y="219.062792" style="fill: #1f77b4; stroke: #1f77b4"/>
     <use xlink:href="#mb731674af9" x="347.883975" y="219.866173" style="fill: #1f77b4; stroke: #1f77b4"/>
     <use xlink:href="#mb731674af9" x="349.007785" y="220.65649" style="fill: #1f77b4; stroke: #1f77b4"/>
     <use xlink:href="#mb731674af9" x="350.113614" y="221.434161" style="fill: #1f77b4; stroke: #1f77b4"/>
     <use xlink:href="#mb731674af9" x="351.202027" y="222.199585" style="fill: #1f77b4; stroke: #1f77b4"/>
     <use xlink:href="#mb731674af9" x="352.273565" y="222.953142" style="fill: #1f77b4; stroke: #1f77b4"/>
     <use xlink:href="#mb731674af9" x="353.328743" y="223.695193" style="fill: #1f77b4; stroke: #1f77b4"/>
     <use xlink:href="#mb731674af9" x="354.368053" y="224.426085" style="fill: #1f77b4; stroke: #1f77b4"/>
     <use xlink:href="#mb731674af9" x="355.391966" y="225.146149" style="fill: #1f77b4; stroke: #1f77b4"/>
     <use xlink:href="#mb731674af9" x="356.40093" y="225.855701" style="fill: #1f77b4; stroke: #1f77b4"/>
     <use xlink:href="#mb731674af9" x="357.395376" y="226.555043" style="fill: #1f77b4; stroke: #1f77b4"/>
     <use xlink:href="#mb731674af9" x="358.375716" y="227.244465" style="fill: #1f77b4; stroke: #1f77b4"/>
     <use xlink:href="#mb731674af9" x="359.342345" y="227.924244" style="fill: #1f77b4; stroke: #1f77b4"/>
     <use xlink:href="#mb731674af9" x="360.29564" y="228.594646" style="fill: #1f77b4; stroke: #1f77b4"/>
     <use xlink:href="#mb731674af9" x="361.235965" y="229.255928" style="fill: #1f77b4; stroke: #1f77b4"/>
     <use xlink:href="#mb731674af9" x="362.163668" y="229.908332" style="fill: #1f77b4; stroke: #1f77b4"/>
     <use xlink:href="#mb731674af9" x="363.079083" y="230.552096" style="fill: #1f77b4; stroke: #1f77b4"/>
     <use xlink:href="#mb731674af9" x="363.982532" y="231.187444" style="fill: #1f77b4; stroke: #1f77b4"/>
     <use xlink:href="#mb731674af9" x="364.874322" y="231.814593" style="fill: #1f77b4; stroke: #1f77b4"/>
     <use xlink:href="#mb731674af9" x="365.754752" y="232.433754" style="fill: #1f77b4; stroke: #1f77b4"/>
     <use xlink:href="#mb731674af9" x="366.624107" y="233.045125" style="fill: #1f77b4; stroke: #1f77b4"/>
     <use xlink:href="#mb731674af9" x="367.482663" y="233.648902" style="fill: #1f77b4; stroke: #1f77b4"/>
     <use xlink:href="#mb731674af9" x="368.330684" y="234.245271" style="fill: #1f77b4; stroke: #1f77b4"/>
     <use xlink:href="#mb731674af9" x="369.168425" y="234.83441" style="fill: #1f77b4; stroke: #1f77b4"/>
     <use xlink:href="#mb731674af9" x="369.996133" y="235.416494" style="fill: #1f77b4; stroke: #1f77b4"/>
     <use xlink:href="#mb731674af9" x="370.814046" y="235.991689" style="fill: #1f77b4; stroke: #1f77b4"/>
     <use xlink:href="#mb731674af9" x="371.622392" y="236.560157" style="fill: #1f77b4; stroke: #1f77b4"/>
     <use xlink:href="#mb731674af9" x="372.421393" y="237.122053" style="fill: #1f77b4; stroke: #1f77b4"/>
     <use xlink:href="#mb731674af9" x="373.211263" y="237.677526" style="fill: #1f77b4; stroke: #1f77b4"/>
     <use xlink:href="#mb731674af9" x="373.992207" y="238.226723" style="fill: #1f77b4; stroke: #1f77b4"/>
     <use xlink:href="#mb731674af9" x="374.764425" y="238.769784" style="fill: #1f77b4; stroke: #1f77b4"/>
     <use xlink:href="#mb731674af9" x="375.528111" y="239.306844" style="fill: #1f77b4; stroke: #1f77b4"/>
     <use xlink:href="#mb731674af9" x="376.28345" y="239.838034" style="fill: #1f77b4; stroke: #1f77b4"/>
     <use xlink:href="#mb731674af9" x="377.030622" y="240.363482" style="fill: #1f77b4; stroke: #1f77b4"/>
     <use xlink:href="#mb731674af9" x="377.769804" y="240.883309" style="fill: #1f77b4; stroke: #1f77b4"/>
     <use xlink:href="#mb731674af9" x="378.501163" y="241.397636" style="fill: #1f77b4; stroke: #1f77b4"/>
     <use xlink:href="#mb731674af9" x="379.224865" y="241.906577" style="fill: #1f77b4; stroke: #1f77b4"/>
     <use xlink:href="#mb731674af9" x="379.941066" y="242.410244" style="fill: #1f77b4; stroke: #1f77b4"/>
     <use xlink:href="#mb731674af9" x="380.649922" y="242.908745" style="fill: #1f77b4; stroke: #1f77b4"/>
     <use xlink:href="#mb731674af9" x="381.351581" y="243.402185" style="fill: #1f77b4; stroke: #1f77b4"/>
     <use xlink:href="#mb731674af9" x="382.046188" y="243.890666" style="fill: #1f77b4; stroke: #1f77b4"/>
     <use xlink:href="#mb731674af9" x="382.733883" y="244.374286" style="fill: #1f77b4; stroke: #1f77b4"/>
     <use xlink:href="#mb731674af9" x="383.414803" y="244.853141" style="fill: #1f77b4; stroke: #1f77b4"/>
     <use xlink:href="#mb731674af9" x="384.08908" y="245.327324" style="fill: #1f77b4; stroke: #1f77b4"/>
     <use xlink:href="#mb731674af9" x="384.756842" y="245.796926" style="fill: #1f77b4; stroke: #1f77b4"/>
     <use xlink:href="#mb731674af9" x="385.418214" y="246.262034" style="fill: #1f77b4; stroke: #1f77b4"/>
     <use xlink:href="#mb731674af9" x="386.073316" y="246.722734" style="fill: #1f77b4; stroke: #1f77b4"/>
     <use xlink:href="#mb731674af9" x="386.722268" y="247.179107" style="fill: #1f77b4; stroke: #1f77b4"/>
     <use xlink:href="#mb731674af9" x="387.365182" y="247.631235" style="fill: #1f77b4; stroke: #1f77b4"/>
     <use xlink:href="#mb731674af9" x="388.002171" y="248.079196" style="fill: #1f77b4; stroke: #1f77b4"/>
     <use xlink:href="#mb731674af9" x="388.633343" y="248.523066" style="fill: #1f77b4; stroke: #1f77b4"/>
     <use xlink:href="#mb731674af9" x="389.258803" y="248.962919" style="fill: #1f77b4; stroke: #1f77b4"/>
     <use xlink:href="#mb731674af9" x="389.878653" y="249.398827" style="fill: #1f77b4; stroke: #1f77b4"/>
     <use xlink:href="#mb731674af9" x="390.492993" y="249.830861" style="fill: #1f77b4; stroke: #1f77b4"/>
     <use xlink:href="#mb731674af9" x="391.101921" y="250.259087" style="fill: #1f77b4; stroke: #1f77b4"/>
     <use xlink:href="#mb731674af9" x="391.70553" y="250.683574" style="fill: #1f77b4; stroke: #1f77b4"/>
     <use xlink:href="#mb731674af9" x="392.303913" y="251.104386" style="fill: #1f77b4; stroke: #1f77b4"/>
     <use xlink:href="#mb731674af9" x="392.89716" y="251.521585" style="fill: #1f77b4; stroke: #1f77b4"/>
     <use xlink:href="#mb731674af9" x="393.485357" y="251.935234" style="fill: #1f77b4; stroke: #1f77b4"/>
     <use xlink:href="#mb731674af9" x="394.068591" y="252.345391" style="fill: #1f77b4; stroke: #1f77b4"/>
     <use xlink:href="#mb731674af9" x="394.646945" y="252.752117" style="fill: #1f77b4; stroke: #1f77b4"/>
     <use xlink:href="#mb731674af9" x="395.220498" y="253.155467" style="fill: #1f77b4; stroke: #1f77b4"/>
     <use xlink:href="#mb731674af9" x="395.789331" y="253.555498" style="fill: #1f77b4; stroke: #1f77b4"/>
     <use xlink:href="#mb731674af9" x="396.353521" y="253.952263" style="fill: #1f77b4; stroke: #1f77b4"/>
     <use xlink:href="#mb731674af9" x="396.913142" y="254.345815" style="fill: #1f77b4; stroke: #1f77b4"/>
     <use xlink:href="#mb731674af9" x="397.468268" y="254.736206" style="fill: #1f77b4; stroke: #1f77b4"/>
     <use xlink:href="#mb731674af9" x="398.018971" y="255.123486" style="fill: #1f77b4; stroke: #1f77b4"/>
     <use xlink:href="#mb731674af9" x="398.56532" y="255.507705" style="fill: #1f77b4; stroke: #1f77b4"/>
     <use xlink:href="#mb731674af9" x="399.107384" y="255.88891" style="fill: #1f77b4; stroke: #1f77b4"/>
     <use xlink:href="#mb731674af9" x="399.64523" y="256.267149" style="fill: #1f77b4; stroke: #1f77b4"/>
     <use xlink:href="#mb731674af9" x="400.178922" y="256.642467" style="fill: #1f77b4; stroke: #1f77b4"/>
     <use xlink:href="#mb731674af9" x="400.708525" y="257.014908" style="fill: #1f77b4; stroke: #1f77b4"/>
     <use xlink:href="#mb731674af9" x="401.2341" y="257.384518" style="fill: #1f77b4; stroke: #1f77b4"/>
     <use xlink:href="#mb731674af9" x="401.755709" y="257.751338" style="fill: #1f77b4; stroke: #1f77b4"/>
     <use xlink:href="#mb731674af9" x="402.27341" y="258.11541" style="fill: #1f77b4; stroke: #1f77b4"/>
     <use xlink:href="#mb731674af9" x="402.787263" y="258.476776" style="fill: #1f77b4; stroke: #1f77b4"/>
     <use xlink:href="#mb731674af9" x="403.297323" y="258.835474" style="fill: #1f77b4; stroke: #1f77b4"/>
     <use xlink:href="#mb731674af9" x="403.803646" y="259.191545" style="fill: #1f77b4; stroke: #1f77b4"/>
     <use xlink:href="#mb731674af9" x="404.306287" y="259.545026" style="fill: #1f77b4; stroke: #1f77b4"/>
     <use xlink:href="#mb731674af9" x="404.805299" y="259.895954" style="fill: #1f77b4; stroke: #1f77b4"/>
     <use xlink:href="#mb731674af9" x="405.300733" y="260.244368" style="fill: #1f77b4; stroke: #1f77b4"/>
     <use xlink:href="#mb731674af9" x="405.792641" y="260.590301" style="fill: #1f77b4; stroke: #1f77b4"/>
     <use xlink:href="#mb731674af9" x="406.281073" y="260.933789" style="fill: #1f77b4; stroke: #1f77b4"/>
     <use xlink:href="#mb731674af9" x="406.766077" y="261.274867" style="fill: #1f77b4; stroke: #1f77b4"/>
     <use xlink:href="#mb731674af9" x="407.247702" y="261.613569" style="fill: #1f77b4; stroke: #1f77b4"/>
     <use xlink:href="#mb731674af9" x="407.725993" y="261.949926" style="fill: #1f77b4; stroke: #1f77b4"/>
     <use xlink:href="#mb731674af9" x="408.200997" y="262.283971" style="fill: #1f77b4; stroke: #1f77b4"/>
     <use xlink:href="#mb731674af9" x="408.672759" y="262.615736" style="fill: #1f77b4; stroke: #1f77b4"/>
     <use xlink:href="#mb731674af9" x="409.141322" y="262.945252" style="fill: #1f77b4; stroke: #1f77b4"/>
     <use xlink:href="#mb731674af9" x="409.60673" y="263.272549" style="fill: #1f77b4; stroke: #1f77b4"/>
     <use xlink:href="#mb731674af9" x="410.069025" y="263.597657" style="fill: #1f77b4; stroke: #1f77b4"/>
     <use xlink:href="#mb731674af9" x="410.528248" y="263.920605" style="fill: #1f77b4; stroke: #1f77b4"/>
     <use xlink:href="#mb731674af9" x="410.98444" y="264.241421" style="fill: #1f77b4; stroke: #1f77b4"/>
     <use xlink:href="#mb731674af9" x="411.43764" y="264.560133" style="fill: #1f77b4; stroke: #1f77b4"/>
     <use xlink:href="#mb731674af9" x="411.887888" y="264.876768" style="fill: #1f77b4; stroke: #1f77b4"/>
     <use xlink:href="#mb731674af9" x="412.335222" y="265.191355" style="fill: #1f77b4; stroke: #1f77b4"/>
     <use xlink:href="#mb731674af9" x="412.779679" y="265.503918" style="fill: #1f77b4; stroke: #1f77b4"/>
     <use xlink:href="#mb731674af9" x="413.221296" y="265.814484" style="fill: #1f77b4; stroke: #1f77b4"/>
     <use xlink:href="#mb731674af9" x="413.660109" y="266.123078" style="fill: #1f77b4; stroke: #1f77b4"/>
     <use xlink:href="#mb731674af9" x="414.096154" y="266.429726" style="fill: #1f77b4; stroke: #1f77b4"/>
     <use xlink:href="#mb731674af9" x="414.529464" y="266.73445" style="fill: #1f77b4; stroke: #1f77b4"/>
     <use xlink:href="#mb731674af9" x="414.960075" y="267.037276" style="fill: #1f77b4; stroke: #1f77b4"/>
     <use xlink:href="#mb731674af9" x="415.38802" y="267.338227" style="fill: #1f77b4; stroke: #1f77b4"/>
     <use xlink:href="#mb731674af9" x="415.813331" y="267.637326" style="fill: #1f77b4; stroke: #1f77b4"/>
     <use xlink:href="#mb731674af9" x="416.23604" y="267.934596" style="fill: #1f77b4; stroke: #1f77b4"/>
     <use xlink:href="#mb731674af9" x="416.65618" y="268.230058" style="fill: #1f77b4; stroke: #1f77b4"/>
     <use xlink:href="#mb731674af9" x="417.073782" y="268.523735" style="fill: #1f77b4; stroke: #1f77b4"/>
     <use xlink:href="#mb731674af9" x="417.488875" y="268.815649" style="fill: #1f77b4; stroke: #1f77b4"/>
     <use xlink:href="#mb731674af9" x="417.90149" y="269.105819" style="fill: #1f77b4; stroke: #1f77b4"/>
     <use xlink:href="#mb731674af9" x="418.311656" y="269.394268" style="fill: #1f77b4; stroke: #1f77b4"/>
     <use xlink:href="#mb731674af9" x="418.719403" y="269.681014" style="fill: #1f77b4; stroke: #1f77b4"/>
     <use xlink:href="#mb731674af9" x="419.124758" y="269.966079" style="fill: #1f77b4; stroke: #1f77b4"/>
     <use xlink:href="#mb731674af9" x="419.527749" y="270.249482" style="fill: #1f77b4; stroke: #1f77b4"/>
     <use xlink:href="#mb731674af9" x="419.928404" y="270.531242" style="fill: #1f77b4; stroke: #1f77b4"/>
     <use xlink:href="#mb731674af9" x="420.32675" y="270.811377" style="fill: #1f77b4; stroke: #1f77b4"/>
     <use xlink:href="#mb731674af9" x="420.722813" y="271.089908" style="fill: #1f77b4; stroke: #1f77b4"/>
     <use xlink:href="#mb731674af9" x="421.11662" y="271.366851" style="fill: #1f77b4; stroke: #1f77b4"/>
     <use xlink:href="#mb731674af9" x="421.508195" y="271.642225" style="fill: #1f77b4; stroke: #1f77b4"/>
     <use xlink:href="#mb731674af9" x="421.897564" y="271.916048" style="fill: #1f77b4; stroke: #1f77b4"/>
     <use xlink:href="#mb731674af9" x="422.284751" y="272.188337" style="fill: #1f77b4; stroke: #1f77b4"/>
     <use xlink:href="#mb731674af9" x="422.669782" y="272.459109" style="fill: #1f77b4; stroke: #1f77b4"/>
     <use xlink:href="#mb731674af9" x="423.05268" y="272.72838" style="fill: #1f77b4; stroke: #1f77b4"/>
     <use xlink:href="#mb731674af9" x="423.433467" y="272.996169" style="fill: #1f77b4; stroke: #1f77b4"/>
     <use xlink:href="#mb731674af9" x="423.812169" y="273.262489" style="fill: #1f77b4; stroke: #1f77b4"/>
     <use xlink:href="#mb731674af9" x="424.188806" y="273.527359" style="fill: #1f77b4; stroke: #1f77b4"/>
     <use xlink:href="#mb731674af9" x="424.563403" y="273.790793" style="fill: #1f77b4; stroke: #1f77b4"/>
     <use xlink:href="#mb731674af9" x="424.935979" y="274.052806" style="fill: #1f77b4; stroke: #1f77b4"/>
     <use xlink:href="#mb731674af9" x="425.306558" y="274.313415" style="fill: #1f77b4; stroke: #1f77b4"/>
     <use xlink:href="#mb731674af9" x="425.675161" y="274.572634" style="fill: #1f77b4; stroke: #1f77b4"/>
     <use xlink:href="#mb731674af9" x="426.041808" y="274.830478" style="fill: #1f77b4; stroke: #1f77b4"/>
     <use xlink:href="#mb731674af9" x="426.40652" y="275.086961" style="fill: #1f77b4; stroke: #1f77b4"/>
     <use xlink:href="#mb731674af9" x="426.769318" y="275.342097" style="fill: #1f77b4; stroke: #1f77b4"/>
     <use xlink:href="#mb731674af9" x="427.130221" y="275.595902" style="fill: #1f77b4; stroke: #1f77b4"/>
     <use xlink:href="#mb731674af9" x="427.48925" y="275.848388" style="fill: #1f77b4; stroke: #1f77b4"/>
     <use xlink:href="#mb731674af9" x="427.846423" y="276.099569" style="fill: #1f77b4; stroke: #1f77b4"/>
     <use xlink:href="#mb731674af9" x="428.201759" y="276.349458" style="fill: #1f77b4; stroke: #1f77b4"/>
     <use xlink:href="#mb731674af9" x="428.555278" y="276.59807" style="fill: #1f77b4; stroke: #1f77b4"/>
     <use xlink:href="#mb731674af9" x="428.906998" y="276.845416" style="fill: #1f77b4; stroke: #1f77b4"/>
     <use xlink:href="#mb731674af9" x="429.256937" y="277.09151" style="fill: #1f77b4; stroke: #1f77b4"/>
     <use xlink:href="#mb731674af9" x="429.605114" y="277.336364" style="fill: #1f77b4; stroke: #1f77b4"/>
    </g>
   </g>
   <g id="patch_3">
    <path d="M 45.478125 290.2 
L 45.478125 7.2 
" style="fill: none; stroke: #000000; stroke-width: 0.8; stroke-linejoin: miter; stroke-linecap: square"/>
   </g>
   <g id="patch_4">
    <path d="M 447.896875 290.2 
L 447.896875 7.2 
" style="fill: none; stroke: #000000; stroke-width: 0.8; stroke-linejoin: miter; stroke-linecap: square"/>
   </g>
   <g id="patch_5">
    <path d="M 45.478125 290.2 
L 447.896875 290.2 
" style="fill: none; stroke: #000000; stroke-width: 0.8; stroke-linejoin: miter; stroke-linecap: square"/>
   </g>
   <g id="patch_6">
    <path d="M 45.478125 7.2 
L 447.896875 7.2 
" style="fill: none; stroke: #000000; stroke-width: 0.8; stroke-linejoin: miter; stroke-linecap: square"/>
   </g>
  </g>
 </g>
 <defs>
  <clipPath id="pc6a6573d79">
   <rect x="45.478125" y="7.2" width="402.41875" height="283"/>
  </clipPath>
 </defs>
</svg>
