<?xml version="1.0" encoding="utf-8" standalone="no"?>
<!DOCTYPE svg PUBLIC "-//W3C//DTD SVG 1.1//EN"
  "http://www.w3.org/Graphics/SVG/1.1/DTD/svg11.dtd">
<svg xmlns:xlink="http://www.w3.org/1999/xlink" width="452.752345pt" height="332.578125pt" viewBox="0 0 452.752345 332.578125" xmlns="http://www.w3.org/2000/svg" version="1.1">
 <metadata>
  <rdf:RDF xmlns:dc="http://purl.org/dc/elements/1.1/" xmlns:cc="http://creativecommons.org/ns#" xmlns:rdf="http://www.w3.org/1999/02/22-rdf-syntax-ns#">
   <cc:Work>
    <dc:type rdf:resource="http://purl.org/dc/dcmitype/StillImage"/>
    <dc:date>2025-01-09T07:54:03.954986</dc:date>
    <dc:format>image/svg+xml</dc:format>
    <dc:creator>
     <cc:Agent>
      <dc:title>Matplotlib v3.10.0, https://matplotlib.org/</dc:title>
     </cc:Agent>
    </dc:creator>
   </cc:Work>
  </rdf:RDF>
 </metadata>
 <defs>
  <style type="text/css">*{stroke-linejoin: round; stroke-linecap: butt}</style>
 </defs>
 <g id="figure_1">
  <g id="patch_1">
   <path d="M 0 332.578125 
L 452.752345 332.578125 
L 452.752345 0 
L 0 0 
z
" style="fill: #ffffff"/>
  </g>
  <g id="axes_1">
   <g id="patch_2">
    <path d="M 45.478125 295 
L 210.586407 295 
L 210.586407 7.2 
L 45.478125 7.2 
z
" style="fill: #ffffff"/>
   </g>
   <g id="FillBetweenPolyCollection_1">
    <path d="M 52.983047 20.281818 
L 52.983047 20.602326 
L 72.638123 71.269107 
L 84.135606 92.494485 
L 92.293199 104.184497 
L 98.62072 112.246006 
L 103.790682 118.57625 
L 108.161822 123.906208 
L 111.948275 128.57879 
L 115.288164 132.783443 
L 118.275797 136.635883 
L 120.978439 140.212675 
L 123.445758 143.565939 
L 125.715471 146.73389 
L 127.816898 149.745234 
L 129.773279 152.618836 
L 131.603351 155.37366 
L 133.32244 158.021578 
L 134.94324 160.573154 
L 136.476386 163.037895 
L 137.930873 165.42079 
L 139.31438 167.729172 
L 140.633515 169.967154 
L 141.894002 172.140627 
L 143.100834 174.252759 
L 144.258394 176.306463 
L 145.370547 178.305845 
L 146.440723 180.252881 
L 147.471974 182.148673 
L 148.467033 183.99685 
L 149.428355 185.80016 
L 150.358153 187.558302 
L 151.258428 189.277305 
L 152.130997 190.954111 
L 152.977516 192.59193 
L 153.799495 194.19252 
L 154.598316 195.755921 
L 155.375249 197.286986 
L 156.131462 198.782028 
L 156.86803 200.246744 
L 157.585949 201.680298 
L 158.286139 203.081959 
L 158.969456 204.456236 
L 159.636694 205.802995 
L 160.288591 207.12224 
L 160.925838 208.414121 
L 161.549078 209.678938 
L 162.158914 210.922867 
L 162.75591 212.141056 
L 163.340596 213.337279 
L 163.91347 214.509652 
L 164.474999 215.659332 
L 165.025624 216.790815 
L 165.56576 217.899379 
L 166.095799 218.989845 
L 166.616112 220.060799 
L 167.12705 221.114183 
L 167.628944 222.148687 
L 168.122109 223.166479 
L 168.606844 224.166363 
L 169.083431 225.150746 
L 169.552141 226.118553 
L 170.013229 227.072437 
L 170.466939 228.007635 
L 170.913504 228.930749 
L 171.353145 229.837031 
L 171.786074 230.733462 
L 172.212492 231.615315 
L 172.632593 232.481718 
L 173.04656 233.335964 
L 173.454571 234.177329 
L 173.856795 235.009373 
L 174.253393 235.827168 
L 174.64452 236.634364 
L 175.030326 237.430365 
L 175.410953 238.21456 
L 175.786538 238.990925 
L 176.157213 239.75435 
L 176.523106 240.504193 
L 176.884337 241.249356 
L 177.241025 241.984699 
L 177.593281 242.704837 
L 177.941216 243.419004 
L 178.284932 244.126873 
L 178.624533 244.823033 
L 178.960114 245.512099 
L 179.29177 246.188529 
L 179.619592 246.862295 
L 179.943667 247.52259 
L 180.264081 248.179612 
L 180.580914 248.827737 
L 180.894246 249.466586 
L 181.204154 250.101328 
L 181.510711 250.720534 
L 181.81399 251.34064 
L 182.114059 251.950149 
L 182.410986 252.554449 
L 182.704836 253.147469 
L 182.995673 253.740605 
L 183.283556 254.321878 
L 183.568546 254.896894 
L 183.850701 255.465413 
L 184.130075 256.033324 
L 184.406724 256.588169 
L 184.6807 257.142027 
L 184.952054 257.682199 
L 185.220836 258.227362 
L 185.487094 258.758326 
L 185.750875 259.287626 
L 186.012225 259.808632 
L 186.271188 260.32108 
L 186.527808 260.83136 
L 186.782126 261.339378 
L 187.034184 261.838264 
L 187.28402 262.334576 
L 187.531675 262.821327 
L 187.777186 263.305185 
L 188.020589 263.786046 
L 188.26192 264.256747 
L 188.501215 264.724124 
L 188.738507 265.188065 
L 188.973831 265.648459 
L 189.207217 266.097918 
L 189.438698 266.543494 
L 189.668305 266.992459 
L 189.896067 267.429978 
L 190.122015 267.863266 
L 190.346177 268.292205 
L 190.56858 268.709071 
L 190.789252 269.128902 
L 191.008221 269.544026 
L 191.225512 269.954322 
L 191.44115 270.359668 
L 191.65516 270.759941 
L 191.867568 271.147092 
L 192.078396 271.536799 
L 192.287669 271.921065 
L 192.495408 272.299765 
L 192.701636 272.68091 
L 192.906376 273.048158 
L 193.109647 273.409468 
L 193.311472 273.773004 
L 193.511871 274.122117 
L 193.710863 274.473308 
L 193.908469 274.818164 
L 194.104707 275.156563 
L 194.299596 275.488381 
L 194.493155 275.813494 
L 194.685402 276.131783 
L 194.876354 276.451797 
L 195.066029 276.764837 
L 195.254443 277.062018 
L 195.441614 277.360703 
L 195.627558 277.652057 
L 195.81229 277.935961 
L 195.995826 278.212302 
L 196.178182 278.489944 
L 196.359373 278.75086 
L 196.539414 279.003879 
L 196.718318 279.257987 
L 196.896101 279.494929 
L 197.072776 279.732825 
L 197.248358 279.953277 
L 197.422858 280.165318 
L 197.596292 280.368855 
L 197.768671 280.563798 
L 197.940008 280.750059 
L 198.110317 280.927552 
L 198.279609 281.086816 
L 198.447896 281.237105 
L 198.61519 281.378349 
L 198.781503 281.501035 
L 198.946846 281.61451 
L 199.111231 281.70924 
L 199.274668 281.785133 
L 199.437169 281.85162 
L 199.598743 281.889646 
L 199.759403 281.918182 
L 199.919157 281.918182 
L 200.078016 281.899156 
L 200.23599 281.85162 
L 200.393089 281.775641 
L 200.549322 281.661856 
L 200.704699 281.529383 
L 200.85923 281.350073 
L 201.012923 281.13374 
L 201.165787 280.862098 
L 201.317832 280.545204 
L 201.469066 280.156083 
L 201.619498 279.696163 
L 201.769135 279.14895 
L 201.917987 278.480967 
L 202.066062 277.678615 
L 202.213368 276.66901 
L 202.359912 275.394602 
L 202.505703 273.690186 
L 202.650749 271.234354 
L 202.795056 267.103385 
L 202.938632 257.979513 
L 203.081485 228.244726 
L 203.081485 226.396418 
L 203.081485 226.396418 
L 202.938632 255.605356 
L 202.795056 264.546651 
L 202.650749 268.579907 
L 202.505703 270.988764 
L 202.359912 272.648376 
L 202.213368 273.897451 
L 202.066062 274.877244 
L 201.917987 275.667827 
L 201.769135 276.3132 
L 201.619498 276.852088 
L 201.469066 277.299086 
L 201.317832 277.678615 
L 201.165787 277.989346 
L 201.012923 278.248054 
L 200.85923 278.463018 
L 200.704699 278.633755 
L 200.549322 278.768897 
L 200.393089 278.877234 
L 200.23599 278.949569 
L 200.078016 278.994824 
L 199.919157 279.012936 
L 199.759403 279.012936 
L 199.598743 278.994824 
L 199.437169 278.949569 
L 199.274668 278.886271 
L 199.111231 278.814013 
L 198.946846 278.723815 
L 198.781503 278.615759 
L 198.61519 278.489944 
L 198.447896 278.355438 
L 198.279609 278.212302 
L 198.110317 278.051689 
L 197.940008 277.882625 
L 197.768671 277.696327 
L 197.596292 277.510615 
L 197.422858 277.307884 
L 197.248358 277.097079 
L 197.072776 276.878288 
L 196.896101 276.651603 
L 196.718318 276.417117 
L 196.539414 276.174927 
L 196.359373 275.92513 
L 196.178182 275.667827 
L 195.995826 275.403121 
L 195.81229 275.131116 
L 195.627558 274.851917 
L 195.441614 274.565633 
L 195.254443 274.28073 
L 195.066029 273.980561 
L 194.876354 273.68191 
L 194.685402 273.368299 
L 194.493155 273.056345 
L 194.299596 272.737888 
L 194.104707 272.41304 
L 193.908469 272.081917 
L 193.710863 271.744632 
L 193.511871 271.409265 
L 193.311472 271.059959 
L 193.109647 270.712709 
L 192.906376 270.351846 
L 192.701636 269.993177 
L 192.495408 269.628948 
L 192.287669 269.259275 
L 192.078396 268.876645 
L 191.867568 268.496481 
L 191.65516 268.111219 
L 191.44115 267.720976 
L 191.225512 267.325866 
L 191.008221 266.926003 
L 190.789252 266.521501 
L 190.56858 266.112474 
L 190.346177 265.699034 
L 190.122015 265.281292 
L 189.896067 264.85936 
L 189.668305 264.426274 
L 189.438698 263.996344 
L 189.207217 263.55558 
L 188.973831 263.111166 
L 188.738507 262.663207 
L 188.501215 262.211809 
L 188.26192 261.757076 
L 188.020589 261.292403 
L 187.777186 260.824705 
L 187.531675 260.347479 
L 187.28402 259.867534 
L 187.034184 259.384965 
L 186.782126 258.899868 
L 186.527808 258.399561 
L 186.271188 257.90346 
L 186.012225 257.398935 
L 185.750875 256.886233 
L 185.487094 256.365605 
L 185.220836 255.843412 
L 184.952054 255.319738 
L 184.6807 254.782644 
L 184.406724 254.24444 
L 184.130075 253.693406 
L 183.850701 253.141626 
L 183.568546 252.58338 
L 183.283556 252.0189 
L 182.995673 251.448412 
L 182.704836 250.87214 
L 182.410986 250.284738 
L 182.114059 249.692103 
L 181.81399 249.094448 
L 181.510711 248.486584 
L 181.204154 247.874229 
L 180.894246 247.257585 
L 180.580914 246.626385 
L 180.264081 245.991513 
L 179.943667 245.348036 
L 179.619592 244.70137 
L 179.29177 244.041679 
L 178.960114 243.374424 
L 178.624533 242.699942 
L 178.284932 242.013724 
L 177.941216 241.321044 
L 177.593281 240.617496 
L 177.241025 239.908227 
L 176.884337 239.184316 
L 176.523106 238.455509 
L 176.157213 237.713096 
L 175.786538 236.966578 
L 175.410953 236.203071 
L 175.030326 235.432 
L 174.64452 234.649515 
L 174.253393 233.856196 
L 173.856795 233.052611 
L 173.454571 232.235216 
L 173.04656 231.404729 
L 172.632593 230.565836 
L 172.212492 229.711196 
L 171.786074 228.845527 
L 171.353145 227.96567 
L 170.913504 227.068681 
L 170.466939 226.162924 
L 170.013229 225.238076 
L 169.552141 224.302404 
L 169.083431 223.349586 
L 168.606844 222.380674 
L 168.122109 221.393286 
L 167.628944 220.39195 
L 167.12705 219.37434 
L 166.616112 218.335094 
L 166.095799 217.278819 
L 165.56576 216.203611 
L 165.025624 215.110824 
L 164.474999 213.995752 
L 163.91347 212.860009 
L 163.340596 211.705164 
L 162.75591 210.52422 
L 162.158914 209.324718 
L 161.549078 208.097341 
L 160.925838 206.846955 
L 160.288591 205.57291 
L 159.636694 204.27216 
L 158.969456 202.942032 
L 158.286139 201.5851 
L 157.585949 200.201459 
L 156.86803 198.78668 
L 156.131462 197.339165 
L 155.375249 195.862077 
L 154.598316 194.349814 
L 153.799495 192.803831 
L 152.977516 191.221556 
L 152.130997 189.600913 
L 151.258428 187.944172 
L 150.358153 186.246093 
L 149.428355 184.505962 
L 148.467033 182.723468 
L 147.471974 180.893527 
L 146.440723 179.017036 
L 145.370547 177.090375 
L 144.258394 175.112388 
L 143.100834 173.079561 
L 141.894002 170.987946 
L 140.633515 168.836155 
L 139.31438 166.61829 
L 137.930873 164.331376 
L 136.476386 161.970017 
L 134.94324 159.527048 
L 133.32244 156.998735 
L 131.603351 154.372306 
L 129.773279 151.640804 
L 127.816898 148.790383 
L 125.715471 145.803423 
L 123.445758 142.659472 
L 120.978439 139.332127 
L 118.275797 135.781157 
L 115.288164 131.956122 
L 111.948275 127.78005 
L 108.161822 123.138187 
L 103.790682 117.842282 
L 98.62072 111.550191 
L 92.293199 103.534447 
L 84.135606 91.905935 
L 72.638123 70.777125 
L 52.983047 20.281818 
z
" clip-path="url(#pa91c32315a)" style="fill: #1f77b4"/>
   </g>
   <g id="matplotlib.axis_1">
    <g id="xtick_1">
     <g id="line2d_1">
      <defs>
       <path id="m8a4f6928cc" d="M 0 0 
L 0 3.5 
" style="stroke: #000000; stroke-width: 0.8"/>
      </defs>
      <g>
       <use xlink:href="#m8a4f6928cc" x="52.983047" y="295" style="stroke: #000000; stroke-width: 0.8"/>
      </g>
     </g>
     <g id="text_1">
      <!-- $\mathdefault{10^{0}}$ -->
      <g transform="translate(44.183047 309.598437) scale(0.1 -0.1)">
       <defs>
        <path id="DejaVuSans-31" d="M 794 531 
L 1825 531 
L 1825 4091 
L 703 3866 
L 703 4441 
L 1819 4666 
L 2450 4666 
L 2450 531 
L 3481 531 
L 3481 0 
L 794 0 
L 794 531 
z
" transform="scale(0.015625)"/>
        <path id="DejaVuSans-30" d="M 2034 4250 
Q 1547 4250 1301 3770 
Q 1056 3291 1056 2328 
Q 1056 1369 1301 889 
Q 1547 409 2034 409 
Q 2525 409 2770 889 
Q 3016 1369 3016 2328 
Q 3016 3291 2770 3770 
Q 2525 4250 2034 4250 
z
M 2034 4750 
Q 2819 4750 3233 4129 
Q 3647 3509 3647 2328 
Q 3647 1150 3233 529 
Q 2819 -91 2034 -91 
Q 1250 -91 836 529 
Q 422 1150 422 2328 
Q 422 3509 836 4129 
Q 1250 4750 2034 4750 
z
" transform="scale(0.015625)"/>
       </defs>
       <use xlink:href="#DejaVuSans-31" transform="translate(0 0.765625)"/>
       <use xlink:href="#DejaVuSans-30" transform="translate(63.623047 0.765625)"/>
       <use xlink:href="#DejaVuSans-30" transform="translate(128.203125 39.046875) scale(0.7)"/>
      </g>
     </g>
    </g>
    <g id="xtick_2">
     <g id="line2d_2">
      <g>
       <use xlink:href="#m8a4f6928cc" x="118.275797" y="295" style="stroke: #000000; stroke-width: 0.8"/>
      </g>
     </g>
     <g id="text_2">
      <!-- $\mathdefault{10^{1}}$ -->
      <g transform="translate(109.475797 309.598437) scale(0.1 -0.1)">
       <use xlink:href="#DejaVuSans-31" transform="translate(0 0.684375)"/>
       <use xlink:href="#DejaVuSans-30" transform="translate(63.623047 0.684375)"/>
       <use xlink:href="#DejaVuSans-31" transform="translate(128.203125 38.965625) scale(0.7)"/>
      </g>
     </g>
    </g>
    <g id="xtick_3">
     <g id="line2d_3">
      <g>
       <use xlink:href="#m8a4f6928cc" x="183.568546" y="295" style="stroke: #000000; stroke-width: 0.8"/>
      </g>
     </g>
     <g id="text_3">
      <!-- $\mathdefault{10^{2}}$ -->
      <g transform="translate(174.768546 309.598437) scale(0.1 -0.1)">
       <defs>
        <path id="DejaVuSans-32" d="M 1228 531 
L 3431 531 
L 3431 0 
L 469 0 
L 469 531 
Q 828 903 1448 1529 
Q 2069 2156 2228 2338 
Q 2531 2678 2651 2914 
Q 2772 3150 2772 3378 
Q 2772 3750 2511 3984 
Q 2250 4219 1831 4219 
Q 1534 4219 1204 4116 
Q 875 4013 500 3803 
L 500 4441 
Q 881 4594 1212 4672 
Q 1544 4750 1819 4750 
Q 2544 4750 2975 4387 
Q 3406 4025 3406 3419 
Q 3406 3131 3298 2873 
Q 3191 2616 2906 2266 
Q 2828 2175 2409 1742 
Q 1991 1309 1228 531 
z
" transform="scale(0.015625)"/>
       </defs>
       <use xlink:href="#DejaVuSans-31" transform="translate(0 0.765625)"/>
       <use xlink:href="#DejaVuSans-30" transform="translate(63.623047 0.765625)"/>
       <use xlink:href="#DejaVuSans-32" transform="translate(128.203125 39.046875) scale(0.7)"/>
      </g>
     </g>
    </g>
    <g id="xtick_4">
     <g id="line2d_4">
      <defs>
       <path id="m029f976f79" d="M 0 0 
L 0 2 
" style="stroke: #000000; stroke-width: 0.6"/>
      </defs>
      <g>
       <use xlink:href="#m029f976f79" x="46.655526" y="295" style="stroke: #000000; stroke-width: 0.6"/>
      </g>
     </g>
    </g>
    <g id="xtick_5">
     <g id="line2d_5">
      <g>
       <use xlink:href="#m029f976f79" x="49.995415" y="295" style="stroke: #000000; stroke-width: 0.6"/>
      </g>
     </g>
    </g>
    <g id="xtick_6">
     <g id="line2d_6">
      <g>
       <use xlink:href="#m029f976f79" x="72.638123" y="295" style="stroke: #000000; stroke-width: 0.6"/>
      </g>
     </g>
    </g>
    <g id="xtick_7">
     <g id="line2d_7">
      <g>
       <use xlink:href="#m029f976f79" x="84.135606" y="295" style="stroke: #000000; stroke-width: 0.6"/>
      </g>
     </g>
    </g>
    <g id="xtick_8">
     <g id="line2d_8">
      <g>
       <use xlink:href="#m029f976f79" x="92.293199" y="295" style="stroke: #000000; stroke-width: 0.6"/>
      </g>
     </g>
    </g>
    <g id="xtick_9">
     <g id="line2d_9">
      <g>
       <use xlink:href="#m029f976f79" x="98.62072" y="295" style="stroke: #000000; stroke-width: 0.6"/>
      </g>
     </g>
    </g>
    <g id="xtick_10">
     <g id="line2d_10">
      <g>
       <use xlink:href="#m029f976f79" x="103.790682" y="295" style="stroke: #000000; stroke-width: 0.6"/>
      </g>
     </g>
    </g>
    <g id="xtick_11">
     <g id="line2d_11">
      <g>
       <use xlink:href="#m029f976f79" x="108.161822" y="295" style="stroke: #000000; stroke-width: 0.6"/>
      </g>
     </g>
    </g>
    <g id="xtick_12">
     <g id="line2d_12">
      <g>
       <use xlink:href="#m029f976f79" x="111.948275" y="295" style="stroke: #000000; stroke-width: 0.6"/>
      </g>
     </g>
    </g>
    <g id="xtick_13">
     <g id="line2d_13">
      <g>
       <use xlink:href="#m029f976f79" x="115.288164" y="295" style="stroke: #000000; stroke-width: 0.6"/>
      </g>
     </g>
    </g>
    <g id="xtick_14">
     <g id="line2d_14">
      <g>
       <use xlink:href="#m029f976f79" x="137.930873" y="295" style="stroke: #000000; stroke-width: 0.6"/>
      </g>
     </g>
    </g>
    <g id="xtick_15">
     <g id="line2d_15">
      <g>
       <use xlink:href="#m029f976f79" x="149.428355" y="295" style="stroke: #000000; stroke-width: 0.6"/>
      </g>
     </g>
    </g>
    <g id="xtick_16">
     <g id="line2d_16">
      <g>
       <use xlink:href="#m029f976f79" x="157.585949" y="295" style="stroke: #000000; stroke-width: 0.6"/>
      </g>
     </g>
    </g>
    <g id="xtick_17">
     <g id="line2d_17">
      <g>
       <use xlink:href="#m029f976f79" x="163.91347" y="295" style="stroke: #000000; stroke-width: 0.6"/>
      </g>
     </g>
    </g>
    <g id="xtick_18">
     <g id="line2d_18">
      <g>
       <use xlink:href="#m029f976f79" x="169.083431" y="295" style="stroke: #000000; stroke-width: 0.6"/>
      </g>
     </g>
    </g>
    <g id="xtick_19">
     <g id="line2d_19">
      <g>
       <use xlink:href="#m029f976f79" x="173.454571" y="295" style="stroke: #000000; stroke-width: 0.6"/>
      </g>
     </g>
    </g>
    <g id="xtick_20">
     <g id="line2d_20">
      <g>
       <use xlink:href="#m029f976f79" x="177.241025" y="295" style="stroke: #000000; stroke-width: 0.6"/>
      </g>
     </g>
    </g>
    <g id="xtick_21">
     <g id="line2d_21">
      <g>
       <use xlink:href="#m029f976f79" x="180.580914" y="295" style="stroke: #000000; stroke-width: 0.6"/>
      </g>
     </g>
    </g>
    <g id="xtick_22">
     <g id="line2d_22">
      <g>
       <use xlink:href="#m029f976f79" x="203.223622" y="295" style="stroke: #000000; stroke-width: 0.6"/>
      </g>
     </g>
    </g>
    <g id="text_4">
     <!-- sample frequency -->
     <g transform="translate(83.187735 323.276562) scale(0.1 -0.1)">
      <defs>
       <path id="DejaVuSans-73" d="M 2834 3397 
L 2834 2853 
Q 2591 2978 2328 3040 
Q 2066 3103 1784 3103 
Q 1356 3103 1142 2972 
Q 928 2841 928 2578 
Q 928 2378 1081 2264 
Q 1234 2150 1697 2047 
L 1894 2003 
Q 2506 1872 2764 1633 
Q 3022 1394 3022 966 
Q 3022 478 2636 193 
Q 2250 -91 1575 -91 
Q 1294 -91 989 -36 
Q 684 19 347 128 
L 347 722 
Q 666 556 975 473 
Q 1284 391 1588 391 
Q 1994 391 2212 530 
Q 2431 669 2431 922 
Q 2431 1156 2273 1281 
Q 2116 1406 1581 1522 
L 1381 1569 
Q 847 1681 609 1914 
Q 372 2147 372 2553 
Q 372 3047 722 3315 
Q 1072 3584 1716 3584 
Q 2034 3584 2315 3537 
Q 2597 3491 2834 3397 
z
" transform="scale(0.015625)"/>
       <path id="DejaVuSans-61" d="M 2194 1759 
Q 1497 1759 1228 1600 
Q 959 1441 959 1056 
Q 959 750 1161 570 
Q 1363 391 1709 391 
Q 2188 391 2477 730 
Q 2766 1069 2766 1631 
L 2766 1759 
L 2194 1759 
z
M 3341 1997 
L 3341 0 
L 2766 0 
L 2766 531 
Q 2569 213 2275 61 
Q 1981 -91 1556 -91 
Q 1019 -91 701 211 
Q 384 513 384 1019 
Q 384 1609 779 1909 
Q 1175 2209 1959 2209 
L 2766 2209 
L 2766 2266 
Q 2766 2663 2505 2880 
Q 2244 3097 1772 3097 
Q 1472 3097 1187 3025 
Q 903 2953 641 2809 
L 641 3341 
Q 956 3463 1253 3523 
Q 1550 3584 1831 3584 
Q 2591 3584 2966 3190 
Q 3341 2797 3341 1997 
z
" transform="scale(0.015625)"/>
       <path id="DejaVuSans-6d" d="M 3328 2828 
Q 3544 3216 3844 3400 
Q 4144 3584 4550 3584 
Q 5097 3584 5394 3201 
Q 5691 2819 5691 2113 
L 5691 0 
L 5113 0 
L 5113 2094 
Q 5113 2597 4934 2840 
Q 4756 3084 4391 3084 
Q 3944 3084 3684 2787 
Q 3425 2491 3425 1978 
L 3425 0 
L 2847 0 
L 2847 2094 
Q 2847 2600 2669 2842 
Q 2491 3084 2119 3084 
Q 1678 3084 1418 2786 
Q 1159 2488 1159 1978 
L 1159 0 
L 581 0 
L 581 3500 
L 1159 3500 
L 1159 2956 
Q 1356 3278 1631 3431 
Q 1906 3584 2284 3584 
Q 2666 3584 2933 3390 
Q 3200 3197 3328 2828 
z
" transform="scale(0.015625)"/>
       <path id="DejaVuSans-70" d="M 1159 525 
L 1159 -1331 
L 581 -1331 
L 581 3500 
L 1159 3500 
L 1159 2969 
Q 1341 3281 1617 3432 
Q 1894 3584 2278 3584 
Q 2916 3584 3314 3078 
Q 3713 2572 3713 1747 
Q 3713 922 3314 415 
Q 2916 -91 2278 -91 
Q 1894 -91 1617 61 
Q 1341 213 1159 525 
z
M 3116 1747 
Q 3116 2381 2855 2742 
Q 2594 3103 2138 3103 
Q 1681 3103 1420 2742 
Q 1159 2381 1159 1747 
Q 1159 1113 1420 752 
Q 1681 391 2138 391 
Q 2594 391 2855 752 
Q 3116 1113 3116 1747 
z
" transform="scale(0.015625)"/>
       <path id="DejaVuSans-6c" d="M 603 4863 
L 1178 4863 
L 1178 0 
L 603 0 
L 603 4863 
z
" transform="scale(0.015625)"/>
       <path id="DejaVuSans-65" d="M 3597 1894 
L 3597 1613 
L 953 1613 
Q 991 1019 1311 708 
Q 1631 397 2203 397 
Q 2534 397 2845 478 
Q 3156 559 3463 722 
L 3463 178 
Q 3153 47 2828 -22 
Q 2503 -91 2169 -91 
Q 1331 -91 842 396 
Q 353 884 353 1716 
Q 353 2575 817 3079 
Q 1281 3584 2069 3584 
Q 2775 3584 3186 3129 
Q 3597 2675 3597 1894 
z
M 3022 2063 
Q 3016 2534 2758 2815 
Q 2500 3097 2075 3097 
Q 1594 3097 1305 2825 
Q 1016 2553 972 2059 
L 3022 2063 
z
" transform="scale(0.015625)"/>
       <path id="DejaVuSans-20" transform="scale(0.015625)"/>
       <path id="DejaVuSans-66" d="M 2375 4863 
L 2375 4384 
L 1825 4384 
Q 1516 4384 1395 4259 
Q 1275 4134 1275 3809 
L 1275 3500 
L 2222 3500 
L 2222 3053 
L 1275 3053 
L 1275 0 
L 697 0 
L 697 3053 
L 147 3053 
L 147 3500 
L 697 3500 
L 697 3744 
Q 697 4328 969 4595 
Q 1241 4863 1831 4863 
L 2375 4863 
z
" transform="scale(0.015625)"/>
       <path id="DejaVuSans-72" d="M 2631 2963 
Q 2534 3019 2420 3045 
Q 2306 3072 2169 3072 
Q 1681 3072 1420 2755 
Q 1159 2438 1159 1844 
L 1159 0 
L 581 0 
L 581 3500 
L 1159 3500 
L 1159 2956 
Q 1341 3275 1631 3429 
Q 1922 3584 2338 3584 
Q 2397 3584 2469 3576 
Q 2541 3569 2628 3553 
L 2631 2963 
z
" transform="scale(0.015625)"/>
       <path id="DejaVuSans-71" d="M 947 1747 
Q 947 1113 1208 752 
Q 1469 391 1925 391 
Q 2381 391 2643 752 
Q 2906 1113 2906 1747 
Q 2906 2381 2643 2742 
Q 2381 3103 1925 3103 
Q 1469 3103 1208 2742 
Q 947 2381 947 1747 
z
M 2906 525 
Q 2725 213 2448 61 
Q 2172 -91 1784 -91 
Q 1150 -91 751 415 
Q 353 922 353 1747 
Q 353 2572 751 3078 
Q 1150 3584 1784 3584 
Q 2172 3584 2448 3432 
Q 2725 3281 2906 2969 
L 2906 3500 
L 3481 3500 
L 3481 -1331 
L 2906 -1331 
L 2906 525 
z
" transform="scale(0.015625)"/>
       <path id="DejaVuSans-75" d="M 544 1381 
L 544 3500 
L 1119 3500 
L 1119 1403 
Q 1119 906 1312 657 
Q 1506 409 1894 409 
Q 2359 409 2629 706 
Q 2900 1003 2900 1516 
L 2900 3500 
L 3475 3500 
L 3475 0 
L 2900 0 
L 2900 538 
Q 2691 219 2414 64 
Q 2138 -91 1772 -91 
Q 1169 -91 856 284 
Q 544 659 544 1381 
z
M 1991 3584 
L 1991 3584 
z
" transform="scale(0.015625)"/>
       <path id="DejaVuSans-6e" d="M 3513 2113 
L 3513 0 
L 2938 0 
L 2938 2094 
Q 2938 2591 2744 2837 
Q 2550 3084 2163 3084 
Q 1697 3084 1428 2787 
Q 1159 2491 1159 1978 
L 1159 0 
L 581 0 
L 581 3500 
L 1159 3500 
L 1159 2956 
Q 1366 3272 1645 3428 
Q 1925 3584 2291 3584 
Q 2894 3584 3203 3211 
Q 3513 2838 3513 2113 
z
" transform="scale(0.015625)"/>
       <path id="DejaVuSans-63" d="M 3122 3366 
L 3122 2828 
Q 2878 2963 2633 3030 
Q 2388 3097 2138 3097 
Q 1578 3097 1268 2742 
Q 959 2388 959 1747 
Q 959 1106 1268 751 
Q 1578 397 2138 397 
Q 2388 397 2633 464 
Q 2878 531 3122 666 
L 3122 134 
Q 2881 22 2623 -34 
Q 2366 -91 2075 -91 
Q 1284 -91 818 406 
Q 353 903 353 1747 
Q 353 2603 823 3093 
Q 1294 3584 2113 3584 
Q 2378 3584 2631 3529 
Q 2884 3475 3122 3366 
z
" transform="scale(0.015625)"/>
       <path id="DejaVuSans-79" d="M 2059 -325 
Q 1816 -950 1584 -1140 
Q 1353 -1331 966 -1331 
L 506 -1331 
L 506 -850 
L 844 -850 
Q 1081 -850 1212 -737 
Q 1344 -625 1503 -206 
L 1606 56 
L 191 3500 
L 800 3500 
L 1894 763 
L 2988 3500 
L 3597 3500 
L 2059 -325 
z
" transform="scale(0.015625)"/>
      </defs>
      <use xlink:href="#DejaVuSans-73"/>
      <use xlink:href="#DejaVuSans-61" transform="translate(52.099609 0)"/>
      <use xlink:href="#DejaVuSans-6d" transform="translate(113.378906 0)"/>
      <use xlink:href="#DejaVuSans-70" transform="translate(210.791016 0)"/>
      <use xlink:href="#DejaVuSans-6c" transform="translate(274.267578 0)"/>
      <use xlink:href="#DejaVuSans-65" transform="translate(302.050781 0)"/>
      <use xlink:href="#DejaVuSans-20" transform="translate(363.574219 0)"/>
      <use xlink:href="#DejaVuSans-66" transform="translate(395.361328 0)"/>
      <use xlink:href="#DejaVuSans-72" transform="translate(430.566406 0)"/>
      <use xlink:href="#DejaVuSans-65" transform="translate(469.429688 0)"/>
      <use xlink:href="#DejaVuSans-71" transform="translate(530.953125 0)"/>
      <use xlink:href="#DejaVuSans-75" transform="translate(594.429688 0)"/>
      <use xlink:href="#DejaVuSans-65" transform="translate(657.808594 0)"/>
      <use xlink:href="#DejaVuSans-6e" transform="translate(719.332031 0)"/>
      <use xlink:href="#DejaVuSans-63" transform="translate(782.710938 0)"/>
      <use xlink:href="#DejaVuSans-79" transform="translate(837.691406 0)"/>
     </g>
    </g>
   </g>
   <g id="matplotlib.axis_2">
    <g id="ytick_1">
     <g id="line2d_23">
      <defs>
       <path id="m9a68eb592b" d="M 0 0 
L -3.5 0 
" style="stroke: #000000; stroke-width: 0.8"/>
      </defs>
      <g>
       <use xlink:href="#m9a68eb592b" x="45.478125" y="253.734703" style="stroke: #000000; stroke-width: 0.8"/>
      </g>
     </g>
     <g id="text_5">
      <!-- $\mathdefault{10^{4}}$ -->
      <g transform="translate(20.878125 257.533922) scale(0.1 -0.1)">
       <defs>
        <path id="DejaVuSans-34" d="M 2419 4116 
L 825 1625 
L 2419 1625 
L 2419 4116 
z
M 2253 4666 
L 3047 4666 
L 3047 1625 
L 3713 1625 
L 3713 1100 
L 3047 1100 
L 3047 0 
L 2419 0 
L 2419 1100 
L 313 1100 
L 313 1709 
L 2253 4666 
z
" transform="scale(0.015625)"/>
       </defs>
       <use xlink:href="#DejaVuSans-31" transform="translate(0 0.684375)"/>
       <use xlink:href="#DejaVuSans-30" transform="translate(63.623047 0.684375)"/>
       <use xlink:href="#DejaVuSans-34" transform="translate(128.203125 38.965625) scale(0.7)"/>
      </g>
     </g>
    </g>
    <g id="ytick_2">
     <g id="line2d_24">
      <g>
       <use xlink:href="#m9a68eb592b" x="45.478125" y="117.844053" style="stroke: #000000; stroke-width: 0.8"/>
      </g>
     </g>
     <g id="text_6">
      <!-- $\mathdefault{10^{5}}$ -->
      <g transform="translate(20.878125 121.643272) scale(0.1 -0.1)">
       <defs>
        <path id="DejaVuSans-35" d="M 691 4666 
L 3169 4666 
L 3169 4134 
L 1269 4134 
L 1269 2991 
Q 1406 3038 1543 3061 
Q 1681 3084 1819 3084 
Q 2600 3084 3056 2656 
Q 3513 2228 3513 1497 
Q 3513 744 3044 326 
Q 2575 -91 1722 -91 
Q 1428 -91 1123 -41 
Q 819 9 494 109 
L 494 744 
Q 775 591 1075 516 
Q 1375 441 1709 441 
Q 2250 441 2565 725 
Q 2881 1009 2881 1497 
Q 2881 1984 2565 2268 
Q 2250 2553 1709 2553 
Q 1456 2553 1204 2497 
Q 953 2441 691 2322 
L 691 4666 
z
" transform="scale(0.015625)"/>
       </defs>
       <use xlink:href="#DejaVuSans-31" transform="translate(0 0.684375)"/>
       <use xlink:href="#DejaVuSans-30" transform="translate(63.623047 0.684375)"/>
       <use xlink:href="#DejaVuSans-35" transform="translate(128.203125 38.965625) scale(0.7)"/>
      </g>
     </g>
    </g>
    <g id="ytick_3">
     <g id="line2d_25">
      <defs>
       <path id="m93b8303230" d="M 0 0 
L -2 0 
" style="stroke: #000000; stroke-width: 0.6"/>
      </defs>
      <g>
       <use xlink:href="#m93b8303230" x="45.478125" y="294.641865" style="stroke: #000000; stroke-width: 0.6"/>
      </g>
     </g>
    </g>
    <g id="ytick_4">
     <g id="line2d_26">
      <g>
       <use xlink:href="#m93b8303230" x="45.478125" y="283.881874" style="stroke: #000000; stroke-width: 0.6"/>
      </g>
     </g>
    </g>
    <g id="ytick_5">
     <g id="line2d_27">
      <g>
       <use xlink:href="#m93b8303230" x="45.478125" y="274.784431" style="stroke: #000000; stroke-width: 0.6"/>
      </g>
     </g>
    </g>
    <g id="ytick_6">
     <g id="line2d_28">
      <g>
       <use xlink:href="#m93b8303230" x="45.478125" y="266.903868" style="stroke: #000000; stroke-width: 0.6"/>
      </g>
     </g>
    </g>
    <g id="ytick_7">
     <g id="line2d_29">
      <g>
       <use xlink:href="#m93b8303230" x="45.478125" y="259.952718" style="stroke: #000000; stroke-width: 0.6"/>
      </g>
     </g>
    </g>
    <g id="ytick_8">
     <g id="line2d_30">
      <g>
       <use xlink:href="#m93b8303230" x="45.478125" y="212.827541" style="stroke: #000000; stroke-width: 0.6"/>
      </g>
     </g>
    </g>
    <g id="ytick_9">
     <g id="line2d_31">
      <g>
       <use xlink:href="#m93b8303230" x="45.478125" y="188.898386" style="stroke: #000000; stroke-width: 0.6"/>
      </g>
     </g>
    </g>
    <g id="ytick_10">
     <g id="line2d_32">
      <g>
       <use xlink:href="#m93b8303230" x="45.478125" y="171.920379" style="stroke: #000000; stroke-width: 0.6"/>
      </g>
     </g>
    </g>
    <g id="ytick_11">
     <g id="line2d_33">
      <g>
       <use xlink:href="#m93b8303230" x="45.478125" y="158.751215" style="stroke: #000000; stroke-width: 0.6"/>
      </g>
     </g>
    </g>
    <g id="ytick_12">
     <g id="line2d_34">
      <g>
       <use xlink:href="#m93b8303230" x="45.478125" y="147.991224" style="stroke: #000000; stroke-width: 0.6"/>
      </g>
     </g>
    </g>
    <g id="ytick_13">
     <g id="line2d_35">
      <g>
       <use xlink:href="#m93b8303230" x="45.478125" y="138.893781" style="stroke: #000000; stroke-width: 0.6"/>
      </g>
     </g>
    </g>
    <g id="ytick_14">
     <g id="line2d_36">
      <g>
       <use xlink:href="#m93b8303230" x="45.478125" y="131.013218" style="stroke: #000000; stroke-width: 0.6"/>
      </g>
     </g>
    </g>
    <g id="ytick_15">
     <g id="line2d_37">
      <g>
       <use xlink:href="#m93b8303230" x="45.478125" y="124.062068" style="stroke: #000000; stroke-width: 0.6"/>
      </g>
     </g>
    </g>
    <g id="ytick_16">
     <g id="line2d_38">
      <g>
       <use xlink:href="#m93b8303230" x="45.478125" y="76.936891" style="stroke: #000000; stroke-width: 0.6"/>
      </g>
     </g>
    </g>
    <g id="ytick_17">
     <g id="line2d_39">
      <g>
       <use xlink:href="#m93b8303230" x="45.478125" y="53.007735" style="stroke: #000000; stroke-width: 0.6"/>
      </g>
     </g>
    </g>
    <g id="ytick_18">
     <g id="line2d_40">
      <g>
       <use xlink:href="#m93b8303230" x="45.478125" y="36.029729" style="stroke: #000000; stroke-width: 0.6"/>
      </g>
     </g>
    </g>
    <g id="ytick_19">
     <g id="line2d_41">
      <g>
       <use xlink:href="#m93b8303230" x="45.478125" y="22.860565" style="stroke: #000000; stroke-width: 0.6"/>
      </g>
     </g>
    </g>
    <g id="ytick_20">
     <g id="line2d_42">
      <g>
       <use xlink:href="#m93b8303230" x="45.478125" y="12.100574" style="stroke: #000000; stroke-width: 0.6"/>
      </g>
     </g>
    </g>
    <g id="text_7">
     <!-- variant count -->
     <g transform="translate(14.798438 184.45625) rotate(-90) scale(0.1 -0.1)">
      <defs>
       <path id="DejaVuSans-76" d="M 191 3500 
L 800 3500 
L 1894 563 
L 2988 3500 
L 3597 3500 
L 2284 0 
L 1503 0 
L 191 3500 
z
" transform="scale(0.015625)"/>
       <path id="DejaVuSans-69" d="M 603 3500 
L 1178 3500 
L 1178 0 
L 603 0 
L 603 3500 
z
M 603 4863 
L 1178 4863 
L 1178 4134 
L 603 4134 
L 603 4863 
z
" transform="scale(0.015625)"/>
       <path id="DejaVuSans-74" d="M 1172 4494 
L 1172 3500 
L 2356 3500 
L 2356 3053 
L 1172 3053 
L 1172 1153 
Q 1172 725 1289 603 
Q 1406 481 1766 481 
L 2356 481 
L 2356 0 
L 1766 0 
Q 1100 0 847 248 
Q 594 497 594 1153 
L 594 3053 
L 172 3053 
L 172 3500 
L 594 3500 
L 594 4494 
L 1172 4494 
z
" transform="scale(0.015625)"/>
       <path id="DejaVuSans-6f" d="M 1959 3097 
Q 1497 3097 1228 2736 
Q 959 2375 959 1747 
Q 959 1119 1226 758 
Q 1494 397 1959 397 
Q 2419 397 2687 759 
Q 2956 1122 2956 1747 
Q 2956 2369 2687 2733 
Q 2419 3097 1959 3097 
z
M 1959 3584 
Q 2709 3584 3137 3096 
Q 3566 2609 3566 1747 
Q 3566 888 3137 398 
Q 2709 -91 1959 -91 
Q 1206 -91 779 398 
Q 353 888 353 1747 
Q 353 2609 779 3096 
Q 1206 3584 1959 3584 
z
" transform="scale(0.015625)"/>
      </defs>
      <use xlink:href="#DejaVuSans-76"/>
      <use xlink:href="#DejaVuSans-61" transform="translate(59.179688 0)"/>
      <use xlink:href="#DejaVuSans-72" transform="translate(120.458984 0)"/>
      <use xlink:href="#DejaVuSans-69" transform="translate(161.572266 0)"/>
      <use xlink:href="#DejaVuSans-61" transform="translate(189.355469 0)"/>
      <use xlink:href="#DejaVuSans-6e" transform="translate(250.634766 0)"/>
      <use xlink:href="#DejaVuSans-74" transform="translate(314.013672 0)"/>
      <use xlink:href="#DejaVuSans-20" transform="translate(353.222656 0)"/>
      <use xlink:href="#DejaVuSans-63" transform="translate(385.009766 0)"/>
      <use xlink:href="#DejaVuSans-6f" transform="translate(439.990234 0)"/>
      <use xlink:href="#DejaVuSans-75" transform="translate(501.171875 0)"/>
      <use xlink:href="#DejaVuSans-6e" transform="translate(564.550781 0)"/>
      <use xlink:href="#DejaVuSans-74" transform="translate(627.929688 0)"/>
     </g>
    </g>
   </g>
   <g id="line2d_43">
    <defs>
     <path id="ma9d8debf33" d="M 0 1.5 
C 0.397805 1.5 0.77937 1.341951 1.06066 1.06066 
C 1.341951 0.77937 1.5 0.397805 1.5 0 
C 1.5 -0.397805 1.341951 -0.77937 1.06066 -1.06066 
C 0.77937 -1.341951 0.397805 -1.5 0 -1.5 
C -0.397805 -1.5 -0.77937 -1.341951 -1.06066 -1.06066 
C -1.341951 -0.77937 -1.5 -0.397805 -1.5 0 
C -1.5 0.397805 -1.341951 0.77937 -1.06066 1.06066 
C -0.77937 1.341951 -0.397805 1.5 0 1.5 
z
" style="stroke: #1f77b4"/>
    </defs>
    <g clip-path="url(#pa91c32315a)">
     <use xlink:href="#ma9d8debf33" x="52.983047" y="20.420616" style="fill: #1f77b4; stroke: #1f77b4"/>
     <use xlink:href="#ma9d8debf33" x="72.638123" y="71.127739" style="fill: #1f77b4; stroke: #1f77b4"/>
     <use xlink:href="#ma9d8debf33" x="84.135606" y="92.337985" style="fill: #1f77b4; stroke: #1f77b4"/>
     <use xlink:href="#ma9d8debf33" x="92.293199" y="103.87022" style="fill: #1f77b4; stroke: #1f77b4"/>
     <use xlink:href="#ma9d8debf33" x="98.62072" y="111.867733" style="fill: #1f77b4; stroke: #1f77b4"/>
     <use xlink:href="#ma9d8debf33" x="103.790682" y="118.288345" style="fill: #1f77b4; stroke: #1f77b4"/>
     <use xlink:href="#ma9d8debf33" x="108.161822" y="123.457307" style="fill: #1f77b4; stroke: #1f77b4"/>
     <use xlink:href="#ma9d8debf33" x="111.948275" y="128.310401" style="fill: #1f77b4; stroke: #1f77b4"/>
     <use xlink:href="#ma9d8debf33" x="115.288164" y="132.360785" style="fill: #1f77b4; stroke: #1f77b4"/>
     <use xlink:href="#ma9d8debf33" x="118.275797" y="135.792355" style="fill: #1f77b4; stroke: #1f77b4"/>
     <use xlink:href="#ma9d8debf33" x="120.978439" y="140.022447" style="fill: #1f77b4; stroke: #1f77b4"/>
     <use xlink:href="#ma9d8debf33" x="123.445758" y="143.241961" style="fill: #1f77b4; stroke: #1f77b4"/>
     <use xlink:href="#ma9d8debf33" x="125.715471" y="146.51668" style="fill: #1f77b4; stroke: #1f77b4"/>
     <use xlink:href="#ma9d8debf33" x="127.816898" y="148.546617" style="fill: #1f77b4; stroke: #1f77b4"/>
     <use xlink:href="#ma9d8debf33" x="129.773279" y="151.886161" style="fill: #1f77b4; stroke: #1f77b4"/>
     <use xlink:href="#ma9d8debf33" x="131.603351" y="154.638117" style="fill: #1f77b4; stroke: #1f77b4"/>
     <use xlink:href="#ma9d8debf33" x="133.32244" y="157.594105" style="fill: #1f77b4; stroke: #1f77b4"/>
     <use xlink:href="#ma9d8debf33" x="134.94324" y="160.368995" style="fill: #1f77b4; stroke: #1f77b4"/>
     <use xlink:href="#ma9d8debf33" x="136.476386" y="161.999941" style="fill: #1f77b4; stroke: #1f77b4"/>
     <use xlink:href="#ma9d8debf33" x="137.930873" y="164.988905" style="fill: #1f77b4; stroke: #1f77b4"/>
     <use xlink:href="#ma9d8debf33" x="139.31438" y="167.375671" style="fill: #1f77b4; stroke: #1f77b4"/>
     <use xlink:href="#ma9d8debf33" x="140.633515" y="169.363613" style="fill: #1f77b4; stroke: #1f77b4"/>
     <use xlink:href="#ma9d8debf33" x="141.894002" y="171.466228" style="fill: #1f77b4; stroke: #1f77b4"/>
     <use xlink:href="#ma9d8debf33" x="143.100834" y="173.561517" style="fill: #1f77b4; stroke: #1f77b4"/>
     <use xlink:href="#ma9d8debf33" x="144.258394" y="176.146167" style="fill: #1f77b4; stroke: #1f77b4"/>
     <use xlink:href="#ma9d8debf33" x="145.370547" y="177.508974" style="fill: #1f77b4; stroke: #1f77b4"/>
     <use xlink:href="#ma9d8debf33" x="146.440723" y="180.34811" style="fill: #1f77b4; stroke: #1f77b4"/>
     <use xlink:href="#ma9d8debf33" x="147.471974" y="181.369525" style="fill: #1f77b4; stroke: #1f77b4"/>
     <use xlink:href="#ma9d8debf33" x="148.467033" y="182.67742" style="fill: #1f77b4; stroke: #1f77b4"/>
     <use xlink:href="#ma9d8debf33" x="149.428355" y="184.657725" style="fill: #1f77b4; stroke: #1f77b4"/>
     <use xlink:href="#ma9d8debf33" x="150.358153" y="187.337565" style="fill: #1f77b4; stroke: #1f77b4"/>
     <use xlink:href="#ma9d8debf33" x="151.258428" y="188.73337" style="fill: #1f77b4; stroke: #1f77b4"/>
     <use xlink:href="#ma9d8debf33" x="152.130997" y="189.680598" style="fill: #1f77b4; stroke: #1f77b4"/>
     <use xlink:href="#ma9d8debf33" x="152.977516" y="191.673446" style="fill: #1f77b4; stroke: #1f77b4"/>
     <use xlink:href="#ma9d8debf33" x="153.799495" y="193.046035" style="fill: #1f77b4; stroke: #1f77b4"/>
     <use xlink:href="#ma9d8debf33" x="154.598316" y="194.819878" style="fill: #1f77b4; stroke: #1f77b4"/>
     <use xlink:href="#ma9d8debf33" x="155.375249" y="196.868947" style="fill: #1f77b4; stroke: #1f77b4"/>
     <use xlink:href="#ma9d8debf33" x="156.131462" y="198.182682" style="fill: #1f77b4; stroke: #1f77b4"/>
     <use xlink:href="#ma9d8debf33" x="156.86803" y="199.389873" style="fill: #1f77b4; stroke: #1f77b4"/>
     <use xlink:href="#ma9d8debf33" x="157.585949" y="201.52172" style="fill: #1f77b4; stroke: #1f77b4"/>
     <use xlink:href="#ma9d8debf33" x="158.286139" y="202.44251" style="fill: #1f77b4; stroke: #1f77b4"/>
     <use xlink:href="#ma9d8debf33" x="158.969456" y="203.855008" style="fill: #1f77b4; stroke: #1f77b4"/>
     <use xlink:href="#ma9d8debf33" x="159.636694" y="204.492095" style="fill: #1f77b4; stroke: #1f77b4"/>
     <use xlink:href="#ma9d8debf33" x="160.288591" y="206.604805" style="fill: #1f77b4; stroke: #1f77b4"/>
     <use xlink:href="#ma9d8debf33" x="160.925838" y="207.130277" style="fill: #1f77b4; stroke: #1f77b4"/>
     <use xlink:href="#ma9d8debf33" x="161.549078" y="208.307427" style="fill: #1f77b4; stroke: #1f77b4"/>
     <use xlink:href="#ma9d8debf33" x="162.158914" y="210.620787" style="fill: #1f77b4; stroke: #1f77b4"/>
     <use xlink:href="#ma9d8debf33" x="162.75591" y="210.615102" style="fill: #1f77b4; stroke: #1f77b4"/>
     <use xlink:href="#ma9d8debf33" x="163.340596" y="213.384921" style="fill: #1f77b4; stroke: #1f77b4"/>
     <use xlink:href="#ma9d8debf33" x="163.91347" y="213.420677" style="fill: #1f77b4; stroke: #1f77b4"/>
     <use xlink:href="#ma9d8debf33" x="164.474999" y="214.622097" style="fill: #1f77b4; stroke: #1f77b4"/>
     <use xlink:href="#ma9d8debf33" x="165.025624" y="215.483131" style="fill: #1f77b4; stroke: #1f77b4"/>
     <use xlink:href="#ma9d8debf33" x="165.56576" y="217.046989" style="fill: #1f77b4; stroke: #1f77b4"/>
     <use xlink:href="#ma9d8debf33" x="166.095799" y="218.777314" style="fill: #1f77b4; stroke: #1f77b4"/>
     <use xlink:href="#ma9d8debf33" x="166.616112" y="219.147284" style="fill: #1f77b4; stroke: #1f77b4"/>
     <use xlink:href="#ma9d8debf33" x="167.12705" y="220.221125" style="fill: #1f77b4; stroke: #1f77b4"/>
     <use xlink:href="#ma9d8debf33" x="167.628944" y="220.900644" style="fill: #1f77b4; stroke: #1f77b4"/>
     <use xlink:href="#ma9d8debf33" x="168.122109" y="221.893517" style="fill: #1f77b4; stroke: #1f77b4"/>
     <use xlink:href="#ma9d8debf33" x="168.606844" y="222.753064" style="fill: #1f77b4; stroke: #1f77b4"/>
     <use xlink:href="#ma9d8debf33" x="169.083431" y="224.227185" style="fill: #1f77b4; stroke: #1f77b4"/>
     <use xlink:href="#ma9d8debf33" x="169.552141" y="226.21103" style="fill: #1f77b4; stroke: #1f77b4"/>
     <use xlink:href="#ma9d8debf33" x="170.013229" y="227.351066" style="fill: #1f77b4; stroke: #1f77b4"/>
     <use xlink:href="#ma9d8debf33" x="170.466939" y="227.532505" style="fill: #1f77b4; stroke: #1f77b4"/>
     <use xlink:href="#ma9d8debf33" x="170.913504" y="227.96567" style="fill: #1f77b4; stroke: #1f77b4"/>
     <use xlink:href="#ma9d8debf33" x="171.353145" y="229.825223" style="fill: #1f77b4; stroke: #1f77b4"/>
     <use xlink:href="#ma9d8debf33" x="171.786074" y="229.73477" style="fill: #1f77b4; stroke: #1f77b4"/>
     <use xlink:href="#ma9d8debf33" x="172.212492" y="231.066132" style="fill: #1f77b4; stroke: #1f77b4"/>
     <use xlink:href="#ma9d8debf33" x="172.632593" y="232.034668" style="fill: #1f77b4; stroke: #1f77b4"/>
     <use xlink:href="#ma9d8debf33" x="173.04656" y="232.799578" style="fill: #1f77b4; stroke: #1f77b4"/>
     <use xlink:href="#ma9d8debf33" x="173.454571" y="233.069241" style="fill: #1f77b4; stroke: #1f77b4"/>
     <use xlink:href="#ma9d8debf33" x="173.856795" y="234.636703" style="fill: #1f77b4; stroke: #1f77b4"/>
     <use xlink:href="#ma9d8debf33" x="174.253393" y="235.814098" style="fill: #1f77b4; stroke: #1f77b4"/>
     <use xlink:href="#ma9d8debf33" x="174.64452" y="235.518624" style="fill: #1f77b4; stroke: #1f77b4"/>
     <use xlink:href="#ma9d8debf33" x="175.030326" y="236.343555" style="fill: #1f77b4; stroke: #1f77b4"/>
     <use xlink:href="#ma9d8debf33" x="175.410953" y="237.162351" style="fill: #1f77b4; stroke: #1f77b4"/>
     <use xlink:href="#ma9d8debf33" x="175.786538" y="237.744594" style="fill: #1f77b4; stroke: #1f77b4"/>
     <use xlink:href="#ma9d8debf33" x="176.157213" y="239.763664" style="fill: #1f77b4; stroke: #1f77b4"/>
     <use xlink:href="#ma9d8debf33" x="176.523106" y="239.308975" style="fill: #1f77b4; stroke: #1f77b4"/>
     <use xlink:href="#ma9d8debf33" x="176.884337" y="239.83357" style="fill: #1f77b4; stroke: #1f77b4"/>
     <use xlink:href="#ma9d8debf33" x="177.241025" y="241.34496" style="fill: #1f77b4; stroke: #1f77b4"/>
     <use xlink:href="#ma9d8debf33" x="177.593281" y="242.202732" style="fill: #1f77b4; stroke: #1f77b4"/>
     <use xlink:href="#ma9d8debf33" x="177.941216" y="242.348536" style="fill: #1f77b4; stroke: #1f77b4"/>
     <use xlink:href="#ma9d8debf33" x="178.284932" y="243.468577" style="fill: #1f77b4; stroke: #1f77b4"/>
     <use xlink:href="#ma9d8debf33" x="178.624533" y="243.389281" style="fill: #1f77b4; stroke: #1f77b4"/>
     <use xlink:href="#ma9d8debf33" x="178.960114" y="243.592692" style="fill: #1f77b4; stroke: #1f77b4"/>
     <use xlink:href="#ma9d8debf33" x="179.29177" y="244.939862" style="fill: #1f77b4; stroke: #1f77b4"/>
     <use xlink:href="#ma9d8debf33" x="179.619592" y="244.549644" style="fill: #1f77b4; stroke: #1f77b4"/>
     <use xlink:href="#ma9d8debf33" x="179.943667" y="245.527503" style="fill: #1f77b4; stroke: #1f77b4"/>
     <use xlink:href="#ma9d8debf33" x="180.264081" y="247.268162" style="fill: #1f77b4; stroke: #1f77b4"/>
     <use xlink:href="#ma9d8debf33" x="180.580914" y="247.565101" style="fill: #1f77b4; stroke: #1f77b4"/>
     <use xlink:href="#ma9d8debf33" x="180.894246" y="247.358146" style="fill: #1f77b4; stroke: #1f77b4"/>
     <use xlink:href="#ma9d8debf33" x="181.204154" y="249.159949" style="fill: #1f77b4; stroke: #1f77b4"/>
     <use xlink:href="#ma9d8debf33" x="181.510711" y="250.217978" style="fill: #1f77b4; stroke: #1f77b4"/>
     <use xlink:href="#ma9d8debf33" x="181.81399" y="250.945274" style="fill: #1f77b4; stroke: #1f77b4"/>
     <use xlink:href="#ma9d8debf33" x="182.114059" y="250.206858" style="fill: #1f77b4; stroke: #1f77b4"/>
     <use xlink:href="#ma9d8debf33" x="182.410986" y="252.030366" style="fill: #1f77b4; stroke: #1f77b4"/>
     <use xlink:href="#ma9d8debf33" x="182.704836" y="252.763071" style="fill: #1f77b4; stroke: #1f77b4"/>
     <use xlink:href="#ma9d8debf33" x="182.995673" y="252.856028" style="fill: #1f77b4; stroke: #1f77b4"/>
     <use xlink:href="#ma9d8debf33" x="183.283556" y="253.03072" style="fill: #1f77b4; stroke: #1f77b4"/>
     <use xlink:href="#ma9d8debf33" x="183.568546" y="253.059885" style="fill: #1f77b4; stroke: #1f77b4"/>
     <use xlink:href="#ma9d8debf33" x="183.850701" y="254.363618" style="fill: #1f77b4; stroke: #1f77b4"/>
     <use xlink:href="#ma9d8debf33" x="184.130075" y="254.29804" style="fill: #1f77b4; stroke: #1f77b4"/>
     <use xlink:href="#ma9d8debf33" x="184.406724" y="255.422887" style="fill: #1f77b4; stroke: #1f77b4"/>
     <use xlink:href="#ma9d8debf33" x="184.6807" y="256.064013" style="fill: #1f77b4; stroke: #1f77b4"/>
     <use xlink:href="#ma9d8debf33" x="184.952054" y="256.817794" style="fill: #1f77b4; stroke: #1f77b4"/>
     <use xlink:href="#ma9d8debf33" x="185.220836" y="256.892459" style="fill: #1f77b4; stroke: #1f77b4"/>
     <use xlink:href="#ma9d8debf33" x="185.487094" y="257.004634" style="fill: #1f77b4; stroke: #1f77b4"/>
     <use xlink:href="#ma9d8debf33" x="185.750875" y="259.410949" style="fill: #1f77b4; stroke: #1f77b4"/>
     <use xlink:href="#ma9d8debf33" x="186.012225" y="258.265585" style="fill: #1f77b4; stroke: #1f77b4"/>
     <use xlink:href="#ma9d8debf33" x="186.271188" y="259.320054" style="fill: #1f77b4; stroke: #1f77b4"/>
     <use xlink:href="#ma9d8debf33" x="186.527808" y="259.417447" style="fill: #1f77b4; stroke: #1f77b4"/>
     <use xlink:href="#ma9d8debf33" x="186.782126" y="259.972394" style="fill: #1f77b4; stroke: #1f77b4"/>
     <use xlink:href="#ma9d8debf33" x="187.034184" y="260.997989" style="fill: #1f77b4; stroke: #1f77b4"/>
     <use xlink:href="#ma9d8debf33" x="187.28402" y="260.612128" style="fill: #1f77b4; stroke: #1f77b4"/>
     <use xlink:href="#ma9d8debf33" x="187.531675" y="261.078138" style="fill: #1f77b4; stroke: #1f77b4"/>
     <use xlink:href="#ma9d8debf33" x="187.777186" y="261.252169" style="fill: #1f77b4; stroke: #1f77b4"/>
     <use xlink:href="#ma9d8debf33" x="188.020589" y="262.204996" style="fill: #1f77b4; stroke: #1f77b4"/>
     <use xlink:href="#ma9d8debf33" x="188.26192" y="263.201167" style="fill: #1f77b4; stroke: #1f77b4"/>
     <use xlink:href="#ma9d8debf33" x="188.501215" y="263.632302" style="fill: #1f77b4; stroke: #1f77b4"/>
     <use xlink:href="#ma9d8debf33" x="188.738507" y="263.681177" style="fill: #1f77b4; stroke: #1f77b4"/>
     <use xlink:href="#ma9d8debf33" x="188.973831" y="264.980625" style="fill: #1f77b4; stroke: #1f77b4"/>
     <use xlink:href="#ma9d8debf33" x="189.207217" y="265.102139" style="fill: #1f77b4; stroke: #1f77b4"/>
     <use xlink:href="#ma9d8debf33" x="189.438698" y="264.369711" style="fill: #1f77b4; stroke: #1f77b4"/>
     <use xlink:href="#ma9d8debf33" x="189.668305" y="265.381856" style="fill: #1f77b4; stroke: #1f77b4"/>
     <use xlink:href="#ma9d8debf33" x="189.896067" y="266.616861" style="fill: #1f77b4; stroke: #1f77b4"/>
     <use xlink:href="#ma9d8debf33" x="190.122015" y="266.499517" style="fill: #1f77b4; stroke: #1f77b4"/>
     <use xlink:href="#ma9d8debf33" x="190.346177" y="266.837511" style="fill: #1f77b4; stroke: #1f77b4"/>
     <use xlink:href="#ma9d8debf33" x="190.56858" y="267.355593" style="fill: #1f77b4; stroke: #1f77b4"/>
     <use xlink:href="#ma9d8debf33" x="190.789252" y="267.676114" style="fill: #1f77b4; stroke: #1f77b4"/>
     <use xlink:href="#ma9d8debf33" x="191.008221" y="268.519222" style="fill: #1f77b4; stroke: #1f77b4"/>
     <use xlink:href="#ma9d8debf33" x="191.225512" y="268.853766" style="fill: #1f77b4; stroke: #1f77b4"/>
     <use xlink:href="#ma9d8debf33" x="191.44115" y="268.352658" style="fill: #1f77b4; stroke: #1f77b4"/>
     <use xlink:href="#ma9d8debf33" x="191.65516" y="269.044697" style="fill: #1f77b4; stroke: #1f77b4"/>
     <use xlink:href="#ma9d8debf33" x="191.867568" y="270.571239" style="fill: #1f77b4; stroke: #1f77b4"/>
     <use xlink:href="#ma9d8debf33" x="192.078396" y="270.492791" style="fill: #1f77b4; stroke: #1f77b4"/>
     <use xlink:href="#ma9d8debf33" x="192.287669" y="270.390964" style="fill: #1f77b4; stroke: #1f77b4"/>
     <use xlink:href="#ma9d8debf33" x="192.495408" y="269.806907" style="fill: #1f77b4; stroke: #1f77b4"/>
     <use xlink:href="#ma9d8debf33" x="192.701636" y="271.824763" style="fill: #1f77b4; stroke: #1f77b4"/>
     <use xlink:href="#ma9d8debf33" x="192.906376" y="272.356375" style="fill: #1f77b4; stroke: #1f77b4"/>
     <use xlink:href="#ma9d8debf33" x="193.109647" y="271.568726" style="fill: #1f77b4; stroke: #1f77b4"/>
     <use xlink:href="#ma9d8debf33" x="193.311472" y="272.925488" style="fill: #1f77b4; stroke: #1f77b4"/>
     <use xlink:href="#ma9d8debf33" x="193.511871" y="272.909151" style="fill: #1f77b4; stroke: #1f77b4"/>
     <use xlink:href="#ma9d8debf33" x="193.710863" y="273.665363" style="fill: #1f77b4; stroke: #1f77b4"/>
     <use xlink:href="#ma9d8debf33" x="193.908469" y="273.401232" style="fill: #1f77b4; stroke: #1f77b4"/>
     <use xlink:href="#ma9d8debf33" x="194.104707" y="274.590837" style="fill: #1f77b4; stroke: #1f77b4"/>
     <use xlink:href="#ma9d8debf33" x="194.299596" y="274.005517" style="fill: #1f77b4; stroke: #1f77b4"/>
     <use xlink:href="#ma9d8debf33" x="194.493155" y="275.275463" style="fill: #1f77b4; stroke: #1f77b4"/>
     <use xlink:href="#ma9d8debf33" x="194.685402" y="275.352025" style="fill: #1f77b4; stroke: #1f77b4"/>
     <use xlink:href="#ma9d8debf33" x="194.876354" y="274.42301" style="fill: #1f77b4; stroke: #1f77b4"/>
     <use xlink:href="#ma9d8debf33" x="195.066029" y="275.719198" style="fill: #1f77b4; stroke: #1f77b4"/>
     <use xlink:href="#ma9d8debf33" x="195.254443" y="274.843477" style="fill: #1f77b4; stroke: #1f77b4"/>
     <use xlink:href="#ma9d8debf33" x="195.441614" y="275.05484" style="fill: #1f77b4; stroke: #1f77b4"/>
     <use xlink:href="#ma9d8debf33" x="195.627558" y="275.488381" style="fill: #1f77b4; stroke: #1f77b4"/>
     <use xlink:href="#ma9d8debf33" x="195.81229" y="277.62551" style="fill: #1f77b4; stroke: #1f77b4"/>
     <use xlink:href="#ma9d8debf33" x="195.995826" y="276.365136" style="fill: #1f77b4; stroke: #1f77b4"/>
     <use xlink:href="#ma9d8debf33" x="196.178182" y="276.391121" style="fill: #1f77b4; stroke: #1f77b4"/>
     <use xlink:href="#ma9d8debf33" x="196.359373" y="276.729973" style="fill: #1f77b4; stroke: #1f77b4"/>
     <use xlink:href="#ma9d8debf33" x="196.539414" y="278.105178" style="fill: #1f77b4; stroke: #1f77b4"/>
     <use xlink:href="#ma9d8debf33" x="196.718318" y="277.554779" style="fill: #1f77b4; stroke: #1f77b4"/>
     <use xlink:href="#ma9d8debf33" x="196.896101" y="277.395942" style="fill: #1f77b4; stroke: #1f77b4"/>
     <use xlink:href="#ma9d8debf33" x="197.072776" y="278.732829" style="fill: #1f77b4; stroke: #1f77b4"/>
     <use xlink:href="#ma9d8debf33" x="197.248358" y="277.422385" style="fill: #1f77b4; stroke: #1f77b4"/>
     <use xlink:href="#ma9d8debf33" x="197.422858" y="278.678768" style="fill: #1f77b4; stroke: #1f77b4"/>
     <use xlink:href="#ma9d8debf33" x="197.596292" y="279.2398" style="fill: #1f77b4; stroke: #1f77b4"/>
     <use xlink:href="#ma9d8debf33" x="197.768671" y="279.96248" style="fill: #1f77b4; stroke: #1f77b4"/>
     <use xlink:href="#ma9d8debf33" x="197.940008" y="278.409203" style="fill: #1f77b4; stroke: #1f77b4"/>
     <use xlink:href="#ma9d8debf33" x="198.110317" y="279.07637" style="fill: #1f77b4; stroke: #1f77b4"/>
     <use xlink:href="#ma9d8debf33" x="198.279609" y="279.76951" style="fill: #1f77b4; stroke: #1f77b4"/>
     <use xlink:href="#ma9d8debf33" x="198.447896" y="280.368855" style="fill: #1f77b4; stroke: #1f77b4"/>
     <use xlink:href="#ma9d8debf33" x="198.61519" y="279.385453" style="fill: #1f77b4; stroke: #1f77b4"/>
     <use xlink:href="#ma9d8debf33" x="198.781503" y="281.633444" style="fill: #1f77b4; stroke: #1f77b4"/>
     <use xlink:href="#ma9d8debf33" x="198.946846" y="280.84341" style="fill: #1f77b4; stroke: #1f77b4"/>
     <use xlink:href="#ma9d8debf33" x="199.111231" y="280.712759" style="fill: #1f77b4; stroke: #1f77b4"/>
     <use xlink:href="#ma9d8debf33" x="199.274668" y="280.156083" style="fill: #1f77b4; stroke: #1f77b4"/>
     <use xlink:href="#ma9d8debf33" x="199.437169" y="280.666169" style="fill: #1f77b4; stroke: #1f77b4"/>
     <use xlink:href="#ma9d8debf33" x="199.598743" y="280.433765" style="fill: #1f77b4; stroke: #1f77b4"/>
     <use xlink:href="#ma9d8debf33" x="199.759403" y="280.554501" style="fill: #1f77b4; stroke: #1f77b4"/>
     <use xlink:href="#ma9d8debf33" x="199.919157" y="281.124352" style="fill: #1f77b4; stroke: #1f77b4"/>
     <use xlink:href="#ma9d8debf33" x="200.078016" y="281.737688" style="fill: #1f77b4; stroke: #1f77b4"/>
     <use xlink:href="#ma9d8debf33" x="200.23599" y="281.491588" style="fill: #1f77b4; stroke: #1f77b4"/>
     <use xlink:href="#ma9d8debf33" x="200.393089" y="279.63206" style="fill: #1f77b4; stroke: #1f77b4"/>
     <use xlink:href="#ma9d8debf33" x="200.549322" y="279.641213" style="fill: #1f77b4; stroke: #1f77b4"/>
     <use xlink:href="#ma9d8debf33" x="200.704699" y="279.257987" style="fill: #1f77b4; stroke: #1f77b4"/>
     <use xlink:href="#ma9d8debf33" x="200.85923" y="279.158029" style="fill: #1f77b4; stroke: #1f77b4"/>
     <use xlink:href="#ma9d8debf33" x="201.012923" y="280.619615" style="fill: #1f77b4; stroke: #1f77b4"/>
     <use xlink:href="#ma9d8debf33" x="201.165787" y="279.540604" style="fill: #1f77b4; stroke: #1f77b4"/>
     <use xlink:href="#ma9d8debf33" x="201.317832" y="279.367227" style="fill: #1f77b4; stroke: #1f77b4"/>
     <use xlink:href="#ma9d8debf33" x="201.469066" y="278.868198" style="fill: #1f77b4; stroke: #1f77b4"/>
     <use xlink:href="#ma9d8debf33" x="201.619498" y="278.364395" style="fill: #1f77b4; stroke: #1f77b4"/>
     <use xlink:href="#ma9d8debf33" x="201.769135" y="277.088312" style="fill: #1f77b4; stroke: #1f77b4"/>
     <use xlink:href="#ma9d8debf33" x="201.917987" y="276.019756" style="fill: #1f77b4; stroke: #1f77b4"/>
     <use xlink:href="#ma9d8debf33" x="202.066062" y="275.736332" style="fill: #1f77b4; stroke: #1f77b4"/>
     <use xlink:href="#ma9d8debf33" x="202.213368" y="275.114157" style="fill: #1f77b4; stroke: #1f77b4"/>
     <use xlink:href="#ma9d8debf33" x="202.359912" y="274.030483" style="fill: #1f77b4; stroke: #1f77b4"/>
     <use xlink:href="#ma9d8debf33" x="202.505703" y="271.800713" style="fill: #1f77b4; stroke: #1f77b4"/>
     <use xlink:href="#ma9d8debf33" x="202.650749" y="270.862407" style="fill: #1f77b4; stroke: #1f77b4"/>
     <use xlink:href="#ma9d8debf33" x="202.795056" y="266.653579" style="fill: #1f77b4; stroke: #1f77b4"/>
     <use xlink:href="#ma9d8debf33" x="202.938632" y="256.051735" style="fill: #1f77b4; stroke: #1f77b4"/>
     <use xlink:href="#ma9d8debf33" x="203.081485" y="227.343519" style="fill: #1f77b4; stroke: #1f77b4"/>
    </g>
   </g>
   <g id="line2d_44">
    <path d="M 52.983047 20.441882 
L 72.638123 71.022623 
L 84.135606 92.199588 
L 92.293199 103.858702 
L 98.62072 111.897417 
L 115.288164 132.368732 
L 120.978439 139.770946 
L 125.715471 146.267318 
L 129.773279 152.128633 
L 134.94324 160.048886 
L 139.31438 167.171577 
L 144.258394 175.707512 
L 149.428355 185.150394 
L 155.375249 196.570465 
L 162.75591 211.328791 
L 189.438698 265.26105 
L 193.109647 272.048908 
L 195.441614 275.953458 
L 197.072776 278.291236 
L 198.279609 279.6365 
L 199.111231 280.247906 
L 199.759403 280.451406 
L 200.23599 280.383872 
L 200.704699 280.067345 
L 201.165787 279.413074 
L 201.619498 278.261322 
L 202.066062 276.262422 
L 202.359912 274.010089 
L 202.650749 269.897343 
L 202.795056 265.814214 
L 202.938632 256.78236 
L 203.081485 227.315233 
L 203.081485 227.315233 
" clip-path="url(#pa91c32315a)" style="fill: none; stroke: #ff7f0e; stroke-width: 1.5; stroke-linecap: square"/>
   </g>
   <g id="patch_3">
    <path d="M 45.478125 295 
L 45.478125 7.2 
" style="fill: none; stroke: #000000; stroke-width: 0.8; stroke-linejoin: miter; stroke-linecap: square"/>
   </g>
   <g id="patch_4">
    <path d="M 210.586407 295 
L 210.586407 7.2 
" style="fill: none; stroke: #000000; stroke-width: 0.8; stroke-linejoin: miter; stroke-linecap: square"/>
   </g>
   <g id="patch_5">
    <path d="M 45.478125 295 
L 210.586407 295 
" style="fill: none; stroke: #000000; stroke-width: 0.8; stroke-linejoin: miter; stroke-linecap: square"/>
   </g>
   <g id="patch_6">
    <path d="M 45.478125 7.2 
L 210.586407 7.2 
" style="fill: none; stroke: #000000; stroke-width: 0.8; stroke-linejoin: miter; stroke-linecap: square"/>
   </g>
  </g>
  <g id="axes_2">
   <g id="patch_7">
    <path d="M 280.444063 295 
L 445.552345 295 
L 445.552345 7.2 
L 280.444063 7.2 
z
" style="fill: #ffffff"/>
   </g>
   <g id="matplotlib.axis_3">
    <g id="xtick_23">
     <g id="line2d_45">
      <g>
       <use xlink:href="#m8a4f6928cc" x="315.360801" y="295" style="stroke: #000000; stroke-width: 0.8"/>
      </g>
     </g>
     <g id="text_8">
      <!-- $\mathdefault{10^{1}}$ -->
      <g transform="translate(306.560801 309.598437) scale(0.1 -0.1)">
       <use xlink:href="#DejaVuSans-31" transform="translate(0 0.684375)"/>
       <use xlink:href="#DejaVuSans-30" transform="translate(63.623047 0.684375)"/>
       <use xlink:href="#DejaVuSans-31" transform="translate(128.203125 38.965625) scale(0.7)"/>
      </g>
     </g>
    </g>
    <g id="xtick_24">
     <g id="line2d_46">
      <g>
       <use xlink:href="#m8a4f6928cc" x="370.184434" y="295" style="stroke: #000000; stroke-width: 0.8"/>
      </g>
     </g>
     <g id="text_9">
      <!-- $\mathdefault{10^{3}}$ -->
      <g transform="translate(361.384434 309.598437) scale(0.1 -0.1)">
       <defs>
        <path id="DejaVuSans-33" d="M 2597 2516 
Q 3050 2419 3304 2112 
Q 3559 1806 3559 1356 
Q 3559 666 3084 287 
Q 2609 -91 1734 -91 
Q 1441 -91 1130 -33 
Q 819 25 488 141 
L 488 750 
Q 750 597 1062 519 
Q 1375 441 1716 441 
Q 2309 441 2620 675 
Q 2931 909 2931 1356 
Q 2931 1769 2642 2001 
Q 2353 2234 1838 2234 
L 1294 2234 
L 1294 2753 
L 1863 2753 
Q 2328 2753 2575 2939 
Q 2822 3125 2822 3475 
Q 2822 3834 2567 4026 
Q 2313 4219 1838 4219 
Q 1578 4219 1281 4162 
Q 984 4106 628 3988 
L 628 4550 
Q 988 4650 1302 4700 
Q 1616 4750 1894 4750 
Q 2613 4750 3031 4423 
Q 3450 4097 3450 3541 
Q 3450 3153 3228 2886 
Q 3006 2619 2597 2516 
z
" transform="scale(0.015625)"/>
       </defs>
       <use xlink:href="#DejaVuSans-31" transform="translate(0 0.765625)"/>
       <use xlink:href="#DejaVuSans-30" transform="translate(63.623047 0.765625)"/>
       <use xlink:href="#DejaVuSans-33" transform="translate(128.203125 39.046875) scale(0.7)"/>
      </g>
     </g>
    </g>
    <g id="xtick_25">
     <g id="line2d_47">
      <g>
       <use xlink:href="#m8a4f6928cc" x="425.008067" y="295" style="stroke: #000000; stroke-width: 0.8"/>
      </g>
     </g>
     <g id="text_10">
      <!-- $\mathdefault{10^{5}}$ -->
      <g transform="translate(416.208067 309.598437) scale(0.1 -0.1)">
       <use xlink:href="#DejaVuSans-31" transform="translate(0 0.684375)"/>
       <use xlink:href="#DejaVuSans-30" transform="translate(63.623047 0.684375)"/>
       <use xlink:href="#DejaVuSans-35" transform="translate(128.203125 38.965625) scale(0.7)"/>
      </g>
     </g>
    </g>
    <g id="text_11">
     <!-- $t$ (generations ago) -->
     <g transform="translate(314.848204 323.278125) scale(0.1 -0.1)">
      <defs>
       <path id="DejaVuSans-Oblique-74" d="M 2706 3500 
L 2619 3053 
L 1472 3053 
L 1100 1153 
Q 1081 1047 1072 975 
Q 1063 903 1063 863 
Q 1063 663 1183 572 
Q 1303 481 1569 481 
L 2150 481 
L 2053 0 
L 1503 0 
Q 991 0 739 200 
Q 488 400 488 806 
Q 488 878 497 964 
Q 506 1050 525 1153 
L 897 3053 
L 409 3053 
L 500 3500 
L 978 3500 
L 1172 4494 
L 1747 4494 
L 1556 3500 
L 2706 3500 
z
" transform="scale(0.015625)"/>
       <path id="DejaVuSans-28" d="M 1984 4856 
Q 1566 4138 1362 3434 
Q 1159 2731 1159 2009 
Q 1159 1288 1364 580 
Q 1569 -128 1984 -844 
L 1484 -844 
Q 1016 -109 783 600 
Q 550 1309 550 2009 
Q 550 2706 781 3412 
Q 1013 4119 1484 4856 
L 1984 4856 
z
" transform="scale(0.015625)"/>
       <path id="DejaVuSans-67" d="M 2906 1791 
Q 2906 2416 2648 2759 
Q 2391 3103 1925 3103 
Q 1463 3103 1205 2759 
Q 947 2416 947 1791 
Q 947 1169 1205 825 
Q 1463 481 1925 481 
Q 2391 481 2648 825 
Q 2906 1169 2906 1791 
z
M 3481 434 
Q 3481 -459 3084 -895 
Q 2688 -1331 1869 -1331 
Q 1566 -1331 1297 -1286 
Q 1028 -1241 775 -1147 
L 775 -588 
Q 1028 -725 1275 -790 
Q 1522 -856 1778 -856 
Q 2344 -856 2625 -561 
Q 2906 -266 2906 331 
L 2906 616 
Q 2728 306 2450 153 
Q 2172 0 1784 0 
Q 1141 0 747 490 
Q 353 981 353 1791 
Q 353 2603 747 3093 
Q 1141 3584 1784 3584 
Q 2172 3584 2450 3431 
Q 2728 3278 2906 2969 
L 2906 3500 
L 3481 3500 
L 3481 434 
z
" transform="scale(0.015625)"/>
       <path id="DejaVuSans-29" d="M 513 4856 
L 1013 4856 
Q 1481 4119 1714 3412 
Q 1947 2706 1947 2009 
Q 1947 1309 1714 600 
Q 1481 -109 1013 -844 
L 513 -844 
Q 928 -128 1133 580 
Q 1338 1288 1338 2009 
Q 1338 2731 1133 3434 
Q 928 4138 513 4856 
z
" transform="scale(0.015625)"/>
      </defs>
      <use xlink:href="#DejaVuSans-Oblique-74" transform="translate(0 0.015625)"/>
      <use xlink:href="#DejaVuSans-20" transform="translate(39.208984 0.015625)"/>
      <use xlink:href="#DejaVuSans-28" transform="translate(70.996094 0.015625)"/>
      <use xlink:href="#DejaVuSans-67" transform="translate(110.009766 0.015625)"/>
      <use xlink:href="#DejaVuSans-65" transform="translate(173.486328 0.015625)"/>
      <use xlink:href="#DejaVuSans-6e" transform="translate(235.009766 0.015625)"/>
      <use xlink:href="#DejaVuSans-65" transform="translate(298.388672 0.015625)"/>
      <use xlink:href="#DejaVuSans-72" transform="translate(359.912109 0.015625)"/>
      <use xlink:href="#DejaVuSans-61" transform="translate(401.025391 0.015625)"/>
      <use xlink:href="#DejaVuSans-74" transform="translate(462.304688 0.015625)"/>
      <use xlink:href="#DejaVuSans-69" transform="translate(501.513672 0.015625)"/>
      <use xlink:href="#DejaVuSans-6f" transform="translate(529.296875 0.015625)"/>
      <use xlink:href="#DejaVuSans-6e" transform="translate(590.478516 0.015625)"/>
      <use xlink:href="#DejaVuSans-73" transform="translate(653.857422 0.015625)"/>
      <use xlink:href="#DejaVuSans-20" transform="translate(705.957031 0.015625)"/>
      <use xlink:href="#DejaVuSans-61" transform="translate(737.744141 0.015625)"/>
      <use xlink:href="#DejaVuSans-67" transform="translate(799.023438 0.015625)"/>
      <use xlink:href="#DejaVuSans-6f" transform="translate(862.5 0.015625)"/>
      <use xlink:href="#DejaVuSans-29" transform="translate(923.681641 0.015625)"/>
     </g>
    </g>
   </g>
   <g id="matplotlib.axis_4">
    <g id="ytick_21">
     <g id="line2d_48">
      <g>
       <use xlink:href="#m9a68eb592b" x="280.444063" y="22.928521" style="stroke: #000000; stroke-width: 0.8"/>
      </g>
     </g>
     <g id="text_12">
      <!-- $\mathdefault{10^{4}}$ -->
      <g transform="translate(255.844063 26.727739) scale(0.1 -0.1)">
       <use xlink:href="#DejaVuSans-31" transform="translate(0 0.684375)"/>
       <use xlink:href="#DejaVuSans-30" transform="translate(63.623047 0.684375)"/>
       <use xlink:href="#DejaVuSans-34" transform="translate(128.203125 38.965625) scale(0.7)"/>
      </g>
     </g>
    </g>
    <g id="ytick_22">
     <g id="line2d_49">
      <g>
       <use xlink:href="#m93b8303230" x="280.444063" y="247.856586" style="stroke: #000000; stroke-width: 0.6"/>
      </g>
     </g>
     <g id="text_13">
      <!-- $\mathdefault{3\times10^{3}}$ -->
      <g transform="translate(238.844063 251.655805) scale(0.1 -0.1)">
       <defs>
        <path id="DejaVuSans-d7" d="M 4488 3438 
L 3059 2003 
L 4488 575 
L 4116 197 
L 2681 1631 
L 1247 197 
L 878 575 
L 2303 2003 
L 878 3438 
L 1247 3816 
L 2681 2381 
L 4116 3816 
L 4488 3438 
z
" transform="scale(0.015625)"/>
       </defs>
       <use xlink:href="#DejaVuSans-33" transform="translate(0 0.765625)"/>
       <use xlink:href="#DejaVuSans-d7" transform="translate(83.105469 0.765625)"/>
       <use xlink:href="#DejaVuSans-31" transform="translate(186.376953 0.765625)"/>
       <use xlink:href="#DejaVuSans-30" transform="translate(250 0.765625)"/>
       <use xlink:href="#DejaVuSans-33" transform="translate(314.580078 39.046875) scale(0.7)"/>
      </g>
     </g>
    </g>
    <g id="ytick_23">
     <g id="line2d_50">
      <g>
       <use xlink:href="#m93b8303230" x="280.444063" y="194.111375" style="stroke: #000000; stroke-width: 0.6"/>
      </g>
     </g>
     <g id="text_14">
      <!-- $\mathdefault{4\times10^{3}}$ -->
      <g transform="translate(238.844063 197.910594) scale(0.1 -0.1)">
       <use xlink:href="#DejaVuSans-34" transform="translate(0 0.765625)"/>
       <use xlink:href="#DejaVuSans-d7" transform="translate(83.105469 0.765625)"/>
       <use xlink:href="#DejaVuSans-31" transform="translate(186.376953 0.765625)"/>
       <use xlink:href="#DejaVuSans-30" transform="translate(250 0.765625)"/>
       <use xlink:href="#DejaVuSans-33" transform="translate(314.580078 39.046875) scale(0.7)"/>
      </g>
     </g>
    </g>
    <g id="ytick_24">
     <g id="line2d_51">
      <g>
       <use xlink:href="#m93b8303230" x="280.444063" y="152.423351" style="stroke: #000000; stroke-width: 0.6"/>
      </g>
     </g>
    </g>
    <g id="ytick_25">
     <g id="line2d_52">
      <g>
       <use xlink:href="#m93b8303230" x="280.444063" y="118.361755" style="stroke: #000000; stroke-width: 0.6"/>
      </g>
     </g>
     <g id="text_15">
      <!-- $\mathdefault{6\times10^{3}}$ -->
      <g transform="translate(238.844063 122.160974) scale(0.1 -0.1)">
       <defs>
        <path id="DejaVuSans-36" d="M 2113 2584 
Q 1688 2584 1439 2293 
Q 1191 2003 1191 1497 
Q 1191 994 1439 701 
Q 1688 409 2113 409 
Q 2538 409 2786 701 
Q 3034 994 3034 1497 
Q 3034 2003 2786 2293 
Q 2538 2584 2113 2584 
z
M 3366 4563 
L 3366 3988 
Q 3128 4100 2886 4159 
Q 2644 4219 2406 4219 
Q 1781 4219 1451 3797 
Q 1122 3375 1075 2522 
Q 1259 2794 1537 2939 
Q 1816 3084 2150 3084 
Q 2853 3084 3261 2657 
Q 3669 2231 3669 1497 
Q 3669 778 3244 343 
Q 2819 -91 2113 -91 
Q 1303 -91 875 529 
Q 447 1150 447 2328 
Q 447 3434 972 4092 
Q 1497 4750 2381 4750 
Q 2619 4750 2861 4703 
Q 3103 4656 3366 4563 
z
" transform="scale(0.015625)"/>
       </defs>
       <use xlink:href="#DejaVuSans-36" transform="translate(0 0.765625)"/>
       <use xlink:href="#DejaVuSans-d7" transform="translate(83.105469 0.765625)"/>
       <use xlink:href="#DejaVuSans-31" transform="translate(186.376953 0.765625)"/>
       <use xlink:href="#DejaVuSans-30" transform="translate(250 0.765625)"/>
       <use xlink:href="#DejaVuSans-33" transform="translate(314.580078 39.046875) scale(0.7)"/>
      </g>
     </g>
    </g>
    <g id="ytick_26">
     <g id="line2d_53">
      <g>
       <use xlink:href="#m93b8303230" x="280.444063" y="89.563086" style="stroke: #000000; stroke-width: 0.6"/>
      </g>
     </g>
    </g>
    <g id="ytick_27">
     <g id="line2d_54">
      <g>
       <use xlink:href="#m93b8303230" x="280.444063" y="64.616545" style="stroke: #000000; stroke-width: 0.6"/>
      </g>
     </g>
    </g>
    <g id="ytick_28">
     <g id="line2d_55">
      <g>
       <use xlink:href="#m93b8303230" x="280.444063" y="42.612135" style="stroke: #000000; stroke-width: 0.6"/>
      </g>
     </g>
    </g>
    <g id="text_16">
     <!-- $\eta(t)$ -->
     <g transform="translate(232.744063 160.15) rotate(-90) scale(0.1 -0.1)">
      <defs>
       <path id="DejaVuSans-Oblique-3b7" d="M 3703 2113 
L 3034 -1331 
L 2459 -1331 
L 3125 2094 
Q 3222 2591 3075 2838 
Q 2931 3084 2544 3084 
Q 2078 3084 1750 2788 
Q 1425 2491 1325 1978 
L 941 0 
L 363 0 
L 1044 3500 
L 1622 3500 
L 1516 2956 
Q 1781 3272 2094 3428 
Q 2403 3584 2769 3584 
Q 3372 3584 3609 3213 
Q 3844 2838 3703 2113 
z
" transform="scale(0.015625)"/>
      </defs>
      <use xlink:href="#DejaVuSans-Oblique-3b7" transform="translate(0 0.125)"/>
      <use xlink:href="#DejaVuSans-28" transform="translate(63.378906 0.125)"/>
      <use xlink:href="#DejaVuSans-Oblique-74" transform="translate(102.392578 0.125)"/>
      <use xlink:href="#DejaVuSans-29" transform="translate(141.601562 0.125)"/>
     </g>
    </g>
   </g>
   <g id="line2d_56">
    <path d="M -1 22.928521 
L 287.948985 22.928521 
L 289.056533 22.928521 
L 290.164081 22.928521 
L 291.271629 22.928521 
L 292.379177 22.928521 
L 293.486725 22.928521 
L 294.594274 22.928521 
L 295.701822 22.928521 
L 296.80937 22.928521 
L 297.916918 22.928521 
L 299.024466 22.928521 
L 300.132014 22.928521 
L 301.239562 22.928521 
L 302.347111 22.928521 
L 303.454659 22.928521 
L 304.562207 22.928521 
L 305.669755 22.928521 
L 306.777303 22.928521 
L 307.884851 22.928521 
L 308.992399 22.928521 
L 310.099947 22.928521 
L 311.207496 22.928521 
L 312.315044 22.928521 
L 313.422592 22.928521 
L 314.53014 22.928521 
L 315.637688 22.928521 
L 316.745236 22.928521 
L 317.852784 22.928521 
L 318.960333 22.928521 
L 320.067881 22.928521 
L 321.175429 22.928521 
L 322.282977 22.928521 
L 323.390525 22.928521 
L 324.498073 22.928521 
L 325.605621 22.928521 
L 326.71317 22.928521 
L 327.820718 22.928521 
L 328.928266 22.928521 
L 330.035814 22.928521 
L 331.143362 281.918182 
L 332.25091 281.918182 
L 333.358458 281.918182 
L 334.466006 281.918182 
L 335.573555 281.918182 
L 336.681103 281.918182 
L 337.788651 281.918182 
L 338.896199 281.918182 
L 340.003747 281.918182 
L 341.111295 281.918182 
L 342.218843 281.918182 
L 343.326392 281.918182 
L 344.43394 281.918182 
L 345.541488 281.918182 
L 346.649036 281.918182 
L 347.756584 281.918182 
L 348.864132 281.918182 
L 349.97168 281.918182 
L 351.079229 281.918182 
L 352.186777 281.918182 
L 353.294325 22.928521 
L 354.401873 22.928521 
L 355.509421 22.928521 
L 356.616969 22.928521 
L 357.724517 22.928521 
L 358.832066 22.928521 
L 359.939614 22.928521 
L 361.047162 22.928521 
L 362.15471 22.928521 
L 363.262258 22.928521 
L 364.369806 22.928521 
L 365.477354 22.928521 
L 366.584902 22.928521 
L 367.692451 22.928521 
L 368.799999 22.928521 
L 369.907547 22.928521 
L 371.015095 22.928521 
L 372.122643 22.928521 
L 373.230191 22.928521 
L 374.337739 22.928521 
L 375.445288 22.928521 
L 376.552836 22.928521 
L 377.660384 22.928521 
L 378.767932 22.928521 
L 379.87548 22.928521 
L 380.983028 22.928521 
L 382.090576 22.928521 
L 383.198125 22.928521 
L 384.305673 22.928521 
L 385.413221 22.928521 
L 386.520769 22.928521 
L 387.628317 22.928521 
L 388.735865 22.928521 
L 389.843413 22.928521 
L 390.950962 22.928521 
L 392.05851 22.928521 
L 393.166058 22.928521 
L 394.273606 22.928521 
L 395.381154 22.928521 
L 396.488702 22.928521 
L 397.59625 22.928521 
" clip-path="url(#ped91de18a3)" style="fill: none; stroke: #1f77b4; stroke-width: 1.5; stroke-linecap: square"/>
   </g>
   <g id="line2d_57">
    <path d="M -1 20.345609 
L 287.948985 20.346289 
L 289.465131 20.345035 
L 290.981276 20.343634 
L 292.497422 20.342071 
L 294.013568 20.340334 
L 295.529714 20.338407 
L 297.04586 20.33628 
L 298.562006 20.333941 
L 300.078151 20.331384 
L 301.594297 20.328604 
L 303.110443 20.325605 
L 304.626589 20.322398 
L 306.142735 20.319009 
L 307.658881 20.315478 
L 309.175027 20.311867 
L 310.691172 20.30826 
L 312.207318 20.304777 
L 313.723464 20.301578 
L 315.23961 20.298867 
L 316.755756 20.296906 
L 318.271902 20.296018 
L 319.788047 20.296595 
L 321.304193 20.299089 
L 322.820339 20.304052 
L 324.336485 20.312161 
L 325.852631 20.341956 
L 327.368777 23.919806 
L 328.884922 74.835713 
L 330.401068 192.801956 
L 331.917214 280.528325 
L 333.43336 280.583074 
L 334.949506 280.628076 
L 336.465652 280.65193 
L 337.981797 280.657836 
L 339.497943 280.648511 
L 341.014089 280.626464 
L 342.530235 280.594229 
L 344.046381 280.554445 
L 345.562527 280.509729 
L 347.078673 280.462486 
L 348.594818 280.410552 
L 350.110964 277.652726 
L 351.62711 222.783534 
L 353.143256 154.306275 
L 354.659402 97.245136 
L 356.175548 47.886035 
L 357.691693 26.013875 
L 359.207839 21.991256 
L 360.723985 21.967369 
L 362.240131 21.940125 
L 363.756277 21.910605 
L 365.272423 21.880272 
L 366.788568 21.850603 
L 368.304714 21.8235 
L 369.82086 21.801183 
L 371.337006 21.786 
L 372.853152 21.780178 
L 374.369298 21.785532 
L 375.885444 21.803151 
L 377.401589 21.833178 
L 378.917735 21.874702 
L 380.433881 21.925847 
L 381.950027 21.984043 
L 383.466173 22.046534 
L 384.982319 22.119477 
L 386.498464 22.061774 
L 388.01461 23.065151 
L 389.530756 23.114233 
L 391.046902 23.08644 
L 392.563048 23.100032 
L 394.079194 23.138166 
L 395.595339 23.171947 
L 397.111485 23.196645 
L 398.627631 23.21065 
L 400.143777 23.212643 
L 401.659923 23.201937 
L 403.176069 23.178747 
L 404.692215 23.144331 
L 406.20836 23.100955 
L 407.724506 23.051533 
L 409.240652 22.996868 
L 410.756798 22.959053 
L 412.272944 22.943746 
L 413.78909 21.379273 
L 415.305235 21.348255 
L 416.821381 21.325387 
L 418.337527 21.309899 
L 419.853673 21.300353 
L 421.369819 21.295057 
L 422.885965 21.292447 
L 424.40211 21.291321 
L 425.918256 21.290902 
L 427.434402 21.29077 
L 428.950548 21.290736 
L 430.466694 21.290728 
L 431.98284 21.290727 
L 433.498986 21.290727 
L 435.015131 21.290727 
L 436.531277 21.290727 
L 438.047423 21.290727 
" clip-path="url(#ped91de18a3)" style="fill: none; stroke: #ff7f0e; stroke-width: 1.5; stroke-linecap: square"/>
   </g>
   <g id="patch_8">
    <path d="M 280.444063 295 
L 280.444063 7.2 
" style="fill: none; stroke: #000000; stroke-width: 0.8; stroke-linejoin: miter; stroke-linecap: square"/>
   </g>
   <g id="patch_9">
    <path d="M 445.552345 295 
L 445.552345 7.2 
" style="fill: none; stroke: #000000; stroke-width: 0.8; stroke-linejoin: miter; stroke-linecap: square"/>
   </g>
   <g id="patch_10">
    <path d="M 280.444063 295 
L 445.552345 295 
" style="fill: none; stroke: #000000; stroke-width: 0.8; stroke-linejoin: miter; stroke-linecap: square"/>
   </g>
   <g id="patch_11">
    <path d="M 280.444063 7.2 
L 445.552345 7.2 
" style="fill: none; stroke: #000000; stroke-width: 0.8; stroke-linejoin: miter; stroke-linecap: square"/>
   </g>
   <g id="legend_1">
    <g id="patch_12">
     <path d="M 367.439845 290 
L 438.552345 290 
Q 440.552345 290 440.552345 288 
L 440.552345 259.64375 
Q 440.552345 257.64375 438.552345 257.64375 
L 367.439845 257.64375 
Q 365.439845 257.64375 365.439845 259.64375 
L 365.439845 288 
Q 365.439845 290 367.439845 290 
z
" style="fill: #ffffff; opacity: 0.8; stroke: #cccccc; stroke-linejoin: miter"/>
    </g>
    <g id="line2d_58">
     <path d="M 369.439845 265.742187 
L 379.439845 265.742187 
L 389.439845 265.742187 
" style="fill: none; stroke: #1f77b4; stroke-width: 1.5; stroke-linecap: square"/>
    </g>
    <g id="text_17">
     <!-- true -->
     <g transform="translate(397.439845 269.242187) scale(0.1 -0.1)">
      <use xlink:href="#DejaVuSans-74"/>
      <use xlink:href="#DejaVuSans-72" transform="translate(39.208984 0)"/>
      <use xlink:href="#DejaVuSans-75" transform="translate(80.322266 0)"/>
      <use xlink:href="#DejaVuSans-65" transform="translate(143.701172 0)"/>
     </g>
    </g>
    <g id="line2d_59">
     <path d="M 369.439845 280.420312 
L 379.439845 280.420312 
L 389.439845 280.420312 
" style="fill: none; stroke: #ff7f0e; stroke-width: 1.5; stroke-linecap: square"/>
    </g>
    <g id="text_18">
     <!-- inferred -->
     <g transform="translate(397.439845 283.920312) scale(0.1 -0.1)">
      <defs>
       <path id="DejaVuSans-64" d="M 2906 2969 
L 2906 4863 
L 3481 4863 
L 3481 0 
L 2906 0 
L 2906 525 
Q 2725 213 2448 61 
Q 2172 -91 1784 -91 
Q 1150 -91 751 415 
Q 353 922 353 1747 
Q 353 2572 751 3078 
Q 1150 3584 1784 3584 
Q 2172 3584 2448 3432 
Q 2725 3281 2906 2969 
z
M 947 1747 
Q 947 1113 1208 752 
Q 1469 391 1925 391 
Q 2381 391 2643 752 
Q 2906 1113 2906 1747 
Q 2906 2381 2643 2742 
Q 2381 3103 1925 3103 
Q 1469 3103 1208 2742 
Q 947 2381 947 1747 
z
" transform="scale(0.015625)"/>
      </defs>
      <use xlink:href="#DejaVuSans-69"/>
      <use xlink:href="#DejaVuSans-6e" transform="translate(27.783203 0)"/>
      <use xlink:href="#DejaVuSans-66" transform="translate(91.162109 0)"/>
      <use xlink:href="#DejaVuSans-65" transform="translate(126.367188 0)"/>
      <use xlink:href="#DejaVuSans-72" transform="translate(187.890625 0)"/>
      <use xlink:href="#DejaVuSans-72" transform="translate(227.253906 0)"/>
      <use xlink:href="#DejaVuSans-65" transform="translate(266.117188 0)"/>
      <use xlink:href="#DejaVuSans-64" transform="translate(327.640625 0)"/>
     </g>
    </g>
   </g>
  </g>
 </g>
 <defs>
  <clipPath id="pa91c32315a">
   <rect x="45.478125" y="7.2" width="165.108282" height="287.8"/>
  </clipPath>
  <clipPath id="ped91de18a3">
   <rect x="280.444063" y="7.2" width="165.108282" height="287.8"/>
  </clipPath>
 </defs>
</svg>
