<?xml version="1.0" encoding="utf-8" standalone="no"?>
<!DOCTYPE svg PUBLIC "-//W3C//DTD SVG 1.1//EN"
  "http://www.w3.org/Graphics/SVG/1.1/DTD/svg11.dtd">
<svg xmlns:xlink="http://www.w3.org/1999/xlink" width="281.808161pt" height="198.15625pt" viewBox="0 0 281.808161 198.15625" xmlns="http://www.w3.org/2000/svg" version="1.1">
 <metadata>
  <rdf:RDF xmlns:dc="http://purl.org/dc/elements/1.1/" xmlns:cc="http://creativecommons.org/ns#" xmlns:rdf="http://www.w3.org/1999/02/22-rdf-syntax-ns#">
   <cc:Work>
    <dc:type rdf:resource="http://purl.org/dc/dcmitype/StillImage"/>
    <dc:date>2022-01-31T08:53:22.220661</dc:date>
    <dc:format>image/svg+xml</dc:format>
    <dc:creator>
     <cc:Agent>
      <dc:title>Matplotlib v3.5.1, https://matplotlib.org/</dc:title>
     </cc:Agent>
    </dc:creator>
   </cc:Work>
  </rdf:RDF>
 </metadata>
 <defs>
  <style type="text/css">*{stroke-linejoin: round; stroke-linecap: butt}</style>
 </defs>
 <g id="figure_1">
  <g id="patch_1">
   <path d="M 0 198.15625 
L 281.808161 198.15625 
L 281.808161 0 
L 0 0 
z
" style="fill: #ffffff"/>
  </g>
  <g id="axes_1">
   <g id="patch_2">
    <path d="M 45.478125 160.6 
L 274.608161 160.6 
L 274.608161 7.2 
L 45.478125 7.2 
z
" style="fill: #ffffff"/>
   </g>
   <g id="matplotlib.axis_1">
    <g id="xtick_1">
     <g id="line2d_1">
      <defs>
       <path id="mbe21689e1e" d="M 0 0 
L 0 3.5 
" style="stroke: #000000; stroke-width: 0.8"/>
      </defs>
      <g>
       <use xlink:href="#mbe21689e1e" x="55.893127" y="160.6" style="stroke: #000000; stroke-width: 0.8"/>
      </g>
     </g>
     <g id="text_1">
      <!-- $\mathdefault{10^{0}}$ -->
      <g transform="translate(47.093127 175.198438)scale(0.1 -0.1)">
       <defs>
        <path id="DejaVuSans-31" d="M 794 531 
L 1825 531 
L 1825 4091 
L 703 3866 
L 703 4441 
L 1819 4666 
L 2450 4666 
L 2450 531 
L 3481 531 
L 3481 0 
L 794 0 
L 794 531 
z
" transform="scale(0.015625)"/>
        <path id="DejaVuSans-30" d="M 2034 4250 
Q 1547 4250 1301 3770 
Q 1056 3291 1056 2328 
Q 1056 1369 1301 889 
Q 1547 409 2034 409 
Q 2525 409 2770 889 
Q 3016 1369 3016 2328 
Q 3016 3291 2770 3770 
Q 2525 4250 2034 4250 
z
M 2034 4750 
Q 2819 4750 3233 4129 
Q 3647 3509 3647 2328 
Q 3647 1150 3233 529 
Q 2819 -91 2034 -91 
Q 1250 -91 836 529 
Q 422 1150 422 2328 
Q 422 3509 836 4129 
Q 1250 4750 2034 4750 
z
" transform="scale(0.015625)"/>
       </defs>
       <use xlink:href="#DejaVuSans-31" transform="translate(0 0.765625)"/>
       <use xlink:href="#DejaVuSans-30" transform="translate(63.623047 0.765625)"/>
       <use xlink:href="#DejaVuSans-30" transform="translate(128.203125 39.046875)scale(0.7)"/>
      </g>
     </g>
    </g>
    <g id="xtick_2">
     <g id="line2d_2">
      <g>
       <use xlink:href="#mbe21689e1e" x="146.503542" y="160.6" style="stroke: #000000; stroke-width: 0.8"/>
      </g>
     </g>
     <g id="text_2">
      <!-- $\mathdefault{10^{1}}$ -->
      <g transform="translate(137.703542 175.198438)scale(0.1 -0.1)">
       <use xlink:href="#DejaVuSans-31" transform="translate(0 0.684375)"/>
       <use xlink:href="#DejaVuSans-30" transform="translate(63.623047 0.684375)"/>
       <use xlink:href="#DejaVuSans-31" transform="translate(128.203125 38.965625)scale(0.7)"/>
      </g>
     </g>
    </g>
    <g id="xtick_3">
     <g id="line2d_3">
      <g>
       <use xlink:href="#mbe21689e1e" x="237.113958" y="160.6" style="stroke: #000000; stroke-width: 0.8"/>
      </g>
     </g>
     <g id="text_3">
      <!-- $\mathdefault{10^{2}}$ -->
      <g transform="translate(228.313958 175.198438)scale(0.1 -0.1)">
       <defs>
        <path id="DejaVuSans-32" d="M 1228 531 
L 3431 531 
L 3431 0 
L 469 0 
L 469 531 
Q 828 903 1448 1529 
Q 2069 2156 2228 2338 
Q 2531 2678 2651 2914 
Q 2772 3150 2772 3378 
Q 2772 3750 2511 3984 
Q 2250 4219 1831 4219 
Q 1534 4219 1204 4116 
Q 875 4013 500 3803 
L 500 4441 
Q 881 4594 1212 4672 
Q 1544 4750 1819 4750 
Q 2544 4750 2975 4387 
Q 3406 4025 3406 3419 
Q 3406 3131 3298 2873 
Q 3191 2616 2906 2266 
Q 2828 2175 2409 1742 
Q 1991 1309 1228 531 
z
" transform="scale(0.015625)"/>
       </defs>
       <use xlink:href="#DejaVuSans-31" transform="translate(0 0.765625)"/>
       <use xlink:href="#DejaVuSans-30" transform="translate(63.623047 0.765625)"/>
       <use xlink:href="#DejaVuSans-32" transform="translate(128.203125 39.046875)scale(0.7)"/>
      </g>
     </g>
    </g>
    <g id="xtick_4">
     <g id="line2d_4">
      <defs>
       <path id="m09dab8d021" d="M 0 0 
L 0 2 
" style="stroke: #000000; stroke-width: 0.6"/>
      </defs>
      <g>
       <use xlink:href="#m09dab8d021" x="47.11207" y="160.6" style="stroke: #000000; stroke-width: 0.6"/>
      </g>
     </g>
    </g>
    <g id="xtick_5">
     <g id="line2d_5">
      <g>
       <use xlink:href="#m09dab8d021" x="51.747021" y="160.6" style="stroke: #000000; stroke-width: 0.6"/>
      </g>
     </g>
    </g>
    <g id="xtick_6">
     <g id="line2d_6">
      <g>
       <use xlink:href="#m09dab8d021" x="83.16958" y="160.6" style="stroke: #000000; stroke-width: 0.6"/>
      </g>
     </g>
    </g>
    <g id="xtick_7">
     <g id="line2d_7">
      <g>
       <use xlink:href="#m09dab8d021" x="99.125282" y="160.6" style="stroke: #000000; stroke-width: 0.6"/>
      </g>
     </g>
    </g>
    <g id="xtick_8">
     <g id="line2d_8">
      <g>
       <use xlink:href="#m09dab8d021" x="110.446033" y="160.6" style="stroke: #000000; stroke-width: 0.6"/>
      </g>
     </g>
    </g>
    <g id="xtick_9">
     <g id="line2d_9">
      <g>
       <use xlink:href="#m09dab8d021" x="119.227089" y="160.6" style="stroke: #000000; stroke-width: 0.6"/>
      </g>
     </g>
    </g>
    <g id="xtick_10">
     <g id="line2d_10">
      <g>
       <use xlink:href="#m09dab8d021" x="126.401735" y="160.6" style="stroke: #000000; stroke-width: 0.6"/>
      </g>
     </g>
    </g>
    <g id="xtick_11">
     <g id="line2d_11">
      <g>
       <use xlink:href="#m09dab8d021" x="132.467811" y="160.6" style="stroke: #000000; stroke-width: 0.6"/>
      </g>
     </g>
    </g>
    <g id="xtick_12">
     <g id="line2d_12">
      <g>
       <use xlink:href="#m09dab8d021" x="137.722486" y="160.6" style="stroke: #000000; stroke-width: 0.6"/>
      </g>
     </g>
    </g>
    <g id="xtick_13">
     <g id="line2d_13">
      <g>
       <use xlink:href="#m09dab8d021" x="142.357437" y="160.6" style="stroke: #000000; stroke-width: 0.6"/>
      </g>
     </g>
    </g>
    <g id="xtick_14">
     <g id="line2d_14">
      <g>
       <use xlink:href="#m09dab8d021" x="173.779995" y="160.6" style="stroke: #000000; stroke-width: 0.6"/>
      </g>
     </g>
    </g>
    <g id="xtick_15">
     <g id="line2d_15">
      <g>
       <use xlink:href="#m09dab8d021" x="189.735698" y="160.6" style="stroke: #000000; stroke-width: 0.6"/>
      </g>
     </g>
    </g>
    <g id="xtick_16">
     <g id="line2d_16">
      <g>
       <use xlink:href="#m09dab8d021" x="201.056448" y="160.6" style="stroke: #000000; stroke-width: 0.6"/>
      </g>
     </g>
    </g>
    <g id="xtick_17">
     <g id="line2d_17">
      <g>
       <use xlink:href="#m09dab8d021" x="209.837505" y="160.6" style="stroke: #000000; stroke-width: 0.6"/>
      </g>
     </g>
    </g>
    <g id="xtick_18">
     <g id="line2d_18">
      <g>
       <use xlink:href="#m09dab8d021" x="217.012151" y="160.6" style="stroke: #000000; stroke-width: 0.6"/>
      </g>
     </g>
    </g>
    <g id="xtick_19">
     <g id="line2d_19">
      <g>
       <use xlink:href="#m09dab8d021" x="223.078227" y="160.6" style="stroke: #000000; stroke-width: 0.6"/>
      </g>
     </g>
    </g>
    <g id="xtick_20">
     <g id="line2d_20">
      <g>
       <use xlink:href="#m09dab8d021" x="228.332901" y="160.6" style="stroke: #000000; stroke-width: 0.6"/>
      </g>
     </g>
    </g>
    <g id="xtick_21">
     <g id="line2d_21">
      <g>
       <use xlink:href="#m09dab8d021" x="232.967853" y="160.6" style="stroke: #000000; stroke-width: 0.6"/>
      </g>
     </g>
    </g>
    <g id="xtick_22">
     <g id="line2d_22">
      <g>
       <use xlink:href="#m09dab8d021" x="264.390411" y="160.6" style="stroke: #000000; stroke-width: 0.6"/>
      </g>
     </g>
    </g>
    <g id="text_4">
     <!-- sample frequency -->
     <g transform="translate(115.198612 188.876563)scale(0.1 -0.1)">
      <defs>
       <path id="DejaVuSans-73" d="M 2834 3397 
L 2834 2853 
Q 2591 2978 2328 3040 
Q 2066 3103 1784 3103 
Q 1356 3103 1142 2972 
Q 928 2841 928 2578 
Q 928 2378 1081 2264 
Q 1234 2150 1697 2047 
L 1894 2003 
Q 2506 1872 2764 1633 
Q 3022 1394 3022 966 
Q 3022 478 2636 193 
Q 2250 -91 1575 -91 
Q 1294 -91 989 -36 
Q 684 19 347 128 
L 347 722 
Q 666 556 975 473 
Q 1284 391 1588 391 
Q 1994 391 2212 530 
Q 2431 669 2431 922 
Q 2431 1156 2273 1281 
Q 2116 1406 1581 1522 
L 1381 1569 
Q 847 1681 609 1914 
Q 372 2147 372 2553 
Q 372 3047 722 3315 
Q 1072 3584 1716 3584 
Q 2034 3584 2315 3537 
Q 2597 3491 2834 3397 
z
" transform="scale(0.015625)"/>
       <path id="DejaVuSans-61" d="M 2194 1759 
Q 1497 1759 1228 1600 
Q 959 1441 959 1056 
Q 959 750 1161 570 
Q 1363 391 1709 391 
Q 2188 391 2477 730 
Q 2766 1069 2766 1631 
L 2766 1759 
L 2194 1759 
z
M 3341 1997 
L 3341 0 
L 2766 0 
L 2766 531 
Q 2569 213 2275 61 
Q 1981 -91 1556 -91 
Q 1019 -91 701 211 
Q 384 513 384 1019 
Q 384 1609 779 1909 
Q 1175 2209 1959 2209 
L 2766 2209 
L 2766 2266 
Q 2766 2663 2505 2880 
Q 2244 3097 1772 3097 
Q 1472 3097 1187 3025 
Q 903 2953 641 2809 
L 641 3341 
Q 956 3463 1253 3523 
Q 1550 3584 1831 3584 
Q 2591 3584 2966 3190 
Q 3341 2797 3341 1997 
z
" transform="scale(0.015625)"/>
       <path id="DejaVuSans-6d" d="M 3328 2828 
Q 3544 3216 3844 3400 
Q 4144 3584 4550 3584 
Q 5097 3584 5394 3201 
Q 5691 2819 5691 2113 
L 5691 0 
L 5113 0 
L 5113 2094 
Q 5113 2597 4934 2840 
Q 4756 3084 4391 3084 
Q 3944 3084 3684 2787 
Q 3425 2491 3425 1978 
L 3425 0 
L 2847 0 
L 2847 2094 
Q 2847 2600 2669 2842 
Q 2491 3084 2119 3084 
Q 1678 3084 1418 2786 
Q 1159 2488 1159 1978 
L 1159 0 
L 581 0 
L 581 3500 
L 1159 3500 
L 1159 2956 
Q 1356 3278 1631 3431 
Q 1906 3584 2284 3584 
Q 2666 3584 2933 3390 
Q 3200 3197 3328 2828 
z
" transform="scale(0.015625)"/>
       <path id="DejaVuSans-70" d="M 1159 525 
L 1159 -1331 
L 581 -1331 
L 581 3500 
L 1159 3500 
L 1159 2969 
Q 1341 3281 1617 3432 
Q 1894 3584 2278 3584 
Q 2916 3584 3314 3078 
Q 3713 2572 3713 1747 
Q 3713 922 3314 415 
Q 2916 -91 2278 -91 
Q 1894 -91 1617 61 
Q 1341 213 1159 525 
z
M 3116 1747 
Q 3116 2381 2855 2742 
Q 2594 3103 2138 3103 
Q 1681 3103 1420 2742 
Q 1159 2381 1159 1747 
Q 1159 1113 1420 752 
Q 1681 391 2138 391 
Q 2594 391 2855 752 
Q 3116 1113 3116 1747 
z
" transform="scale(0.015625)"/>
       <path id="DejaVuSans-6c" d="M 603 4863 
L 1178 4863 
L 1178 0 
L 603 0 
L 603 4863 
z
" transform="scale(0.015625)"/>
       <path id="DejaVuSans-65" d="M 3597 1894 
L 3597 1613 
L 953 1613 
Q 991 1019 1311 708 
Q 1631 397 2203 397 
Q 2534 397 2845 478 
Q 3156 559 3463 722 
L 3463 178 
Q 3153 47 2828 -22 
Q 2503 -91 2169 -91 
Q 1331 -91 842 396 
Q 353 884 353 1716 
Q 353 2575 817 3079 
Q 1281 3584 2069 3584 
Q 2775 3584 3186 3129 
Q 3597 2675 3597 1894 
z
M 3022 2063 
Q 3016 2534 2758 2815 
Q 2500 3097 2075 3097 
Q 1594 3097 1305 2825 
Q 1016 2553 972 2059 
L 3022 2063 
z
" transform="scale(0.015625)"/>
       <path id="DejaVuSans-20" transform="scale(0.015625)"/>
       <path id="DejaVuSans-66" d="M 2375 4863 
L 2375 4384 
L 1825 4384 
Q 1516 4384 1395 4259 
Q 1275 4134 1275 3809 
L 1275 3500 
L 2222 3500 
L 2222 3053 
L 1275 3053 
L 1275 0 
L 697 0 
L 697 3053 
L 147 3053 
L 147 3500 
L 697 3500 
L 697 3744 
Q 697 4328 969 4595 
Q 1241 4863 1831 4863 
L 2375 4863 
z
" transform="scale(0.015625)"/>
       <path id="DejaVuSans-72" d="M 2631 2963 
Q 2534 3019 2420 3045 
Q 2306 3072 2169 3072 
Q 1681 3072 1420 2755 
Q 1159 2438 1159 1844 
L 1159 0 
L 581 0 
L 581 3500 
L 1159 3500 
L 1159 2956 
Q 1341 3275 1631 3429 
Q 1922 3584 2338 3584 
Q 2397 3584 2469 3576 
Q 2541 3569 2628 3553 
L 2631 2963 
z
" transform="scale(0.015625)"/>
       <path id="DejaVuSans-71" d="M 947 1747 
Q 947 1113 1208 752 
Q 1469 391 1925 391 
Q 2381 391 2643 752 
Q 2906 1113 2906 1747 
Q 2906 2381 2643 2742 
Q 2381 3103 1925 3103 
Q 1469 3103 1208 2742 
Q 947 2381 947 1747 
z
M 2906 525 
Q 2725 213 2448 61 
Q 2172 -91 1784 -91 
Q 1150 -91 751 415 
Q 353 922 353 1747 
Q 353 2572 751 3078 
Q 1150 3584 1784 3584 
Q 2172 3584 2448 3432 
Q 2725 3281 2906 2969 
L 2906 3500 
L 3481 3500 
L 3481 -1331 
L 2906 -1331 
L 2906 525 
z
" transform="scale(0.015625)"/>
       <path id="DejaVuSans-75" d="M 544 1381 
L 544 3500 
L 1119 3500 
L 1119 1403 
Q 1119 906 1312 657 
Q 1506 409 1894 409 
Q 2359 409 2629 706 
Q 2900 1003 2900 1516 
L 2900 3500 
L 3475 3500 
L 3475 0 
L 2900 0 
L 2900 538 
Q 2691 219 2414 64 
Q 2138 -91 1772 -91 
Q 1169 -91 856 284 
Q 544 659 544 1381 
z
M 1991 3584 
L 1991 3584 
z
" transform="scale(0.015625)"/>
       <path id="DejaVuSans-6e" d="M 3513 2113 
L 3513 0 
L 2938 0 
L 2938 2094 
Q 2938 2591 2744 2837 
Q 2550 3084 2163 3084 
Q 1697 3084 1428 2787 
Q 1159 2491 1159 1978 
L 1159 0 
L 581 0 
L 581 3500 
L 1159 3500 
L 1159 2956 
Q 1366 3272 1645 3428 
Q 1925 3584 2291 3584 
Q 2894 3584 3203 3211 
Q 3513 2838 3513 2113 
z
" transform="scale(0.015625)"/>
       <path id="DejaVuSans-63" d="M 3122 3366 
L 3122 2828 
Q 2878 2963 2633 3030 
Q 2388 3097 2138 3097 
Q 1578 3097 1268 2742 
Q 959 2388 959 1747 
Q 959 1106 1268 751 
Q 1578 397 2138 397 
Q 2388 397 2633 464 
Q 2878 531 3122 666 
L 3122 134 
Q 2881 22 2623 -34 
Q 2366 -91 2075 -91 
Q 1284 -91 818 406 
Q 353 903 353 1747 
Q 353 2603 823 3093 
Q 1294 3584 2113 3584 
Q 2378 3584 2631 3529 
Q 2884 3475 3122 3366 
z
" transform="scale(0.015625)"/>
       <path id="DejaVuSans-79" d="M 2059 -325 
Q 1816 -950 1584 -1140 
Q 1353 -1331 966 -1331 
L 506 -1331 
L 506 -850 
L 844 -850 
Q 1081 -850 1212 -737 
Q 1344 -625 1503 -206 
L 1606 56 
L 191 3500 
L 800 3500 
L 1894 763 
L 2988 3500 
L 3597 3500 
L 2059 -325 
z
" transform="scale(0.015625)"/>
      </defs>
      <use xlink:href="#DejaVuSans-73"/>
      <use xlink:href="#DejaVuSans-61" x="52.099609"/>
      <use xlink:href="#DejaVuSans-6d" x="113.378906"/>
      <use xlink:href="#DejaVuSans-70" x="210.791016"/>
      <use xlink:href="#DejaVuSans-6c" x="274.267578"/>
      <use xlink:href="#DejaVuSans-65" x="302.050781"/>
      <use xlink:href="#DejaVuSans-20" x="363.574219"/>
      <use xlink:href="#DejaVuSans-66" x="395.361328"/>
      <use xlink:href="#DejaVuSans-72" x="430.566406"/>
      <use xlink:href="#DejaVuSans-65" x="469.429688"/>
      <use xlink:href="#DejaVuSans-71" x="530.953125"/>
      <use xlink:href="#DejaVuSans-75" x="594.429688"/>
      <use xlink:href="#DejaVuSans-65" x="657.808594"/>
      <use xlink:href="#DejaVuSans-6e" x="719.332031"/>
      <use xlink:href="#DejaVuSans-63" x="782.710938"/>
      <use xlink:href="#DejaVuSans-79" x="837.691406"/>
     </g>
    </g>
   </g>
   <g id="matplotlib.axis_2">
    <g id="ytick_1">
     <g id="line2d_23">
      <defs>
       <path id="mab6428be44" d="M 0 0 
L -3.5 0 
" style="stroke: #000000; stroke-width: 0.8"/>
      </defs>
      <g>
       <use xlink:href="#mab6428be44" x="45.478125" y="159.498442" style="stroke: #000000; stroke-width: 0.8"/>
      </g>
     </g>
     <g id="text_5">
      <!-- $\mathdefault{10^{4}}$ -->
      <g transform="translate(20.878125 163.297661)scale(0.1 -0.1)">
       <defs>
        <path id="DejaVuSans-34" d="M 2419 4116 
L 825 1625 
L 2419 1625 
L 2419 4116 
z
M 2253 4666 
L 3047 4666 
L 3047 1625 
L 3713 1625 
L 3713 1100 
L 3047 1100 
L 3047 0 
L 2419 0 
L 2419 1100 
L 313 1100 
L 313 1709 
L 2253 4666 
z
" transform="scale(0.015625)"/>
       </defs>
       <use xlink:href="#DejaVuSans-31" transform="translate(0 0.684375)"/>
       <use xlink:href="#DejaVuSans-30" transform="translate(63.623047 0.684375)"/>
       <use xlink:href="#DejaVuSans-34" transform="translate(128.203125 38.965625)scale(0.7)"/>
      </g>
     </g>
    </g>
    <g id="ytick_2">
     <g id="line2d_24">
      <g>
       <use xlink:href="#mab6428be44" x="45.478125" y="96.225258" style="stroke: #000000; stroke-width: 0.8"/>
      </g>
     </g>
     <g id="text_6">
      <!-- $\mathdefault{10^{5}}$ -->
      <g transform="translate(20.878125 100.024477)scale(0.1 -0.1)">
       <defs>
        <path id="DejaVuSans-35" d="M 691 4666 
L 3169 4666 
L 3169 4134 
L 1269 4134 
L 1269 2991 
Q 1406 3038 1543 3061 
Q 1681 3084 1819 3084 
Q 2600 3084 3056 2656 
Q 3513 2228 3513 1497 
Q 3513 744 3044 326 
Q 2575 -91 1722 -91 
Q 1428 -91 1123 -41 
Q 819 9 494 109 
L 494 744 
Q 775 591 1075 516 
Q 1375 441 1709 441 
Q 2250 441 2565 725 
Q 2881 1009 2881 1497 
Q 2881 1984 2565 2268 
Q 2250 2553 1709 2553 
Q 1456 2553 1204 2497 
Q 953 2441 691 2322 
L 691 4666 
z
" transform="scale(0.015625)"/>
       </defs>
       <use xlink:href="#DejaVuSans-31" transform="translate(0 0.684375)"/>
       <use xlink:href="#DejaVuSans-30" transform="translate(63.623047 0.684375)"/>
       <use xlink:href="#DejaVuSans-35" transform="translate(128.203125 38.965625)scale(0.7)"/>
      </g>
     </g>
    </g>
    <g id="ytick_3">
     <g id="line2d_25">
      <g>
       <use xlink:href="#mab6428be44" x="45.478125" y="32.952074" style="stroke: #000000; stroke-width: 0.8"/>
      </g>
     </g>
     <g id="text_7">
      <!-- $\mathdefault{10^{6}}$ -->
      <g transform="translate(20.878125 36.751292)scale(0.1 -0.1)">
       <defs>
        <path id="DejaVuSans-36" d="M 2113 2584 
Q 1688 2584 1439 2293 
Q 1191 2003 1191 1497 
Q 1191 994 1439 701 
Q 1688 409 2113 409 
Q 2538 409 2786 701 
Q 3034 994 3034 1497 
Q 3034 2003 2786 2293 
Q 2538 2584 2113 2584 
z
M 3366 4563 
L 3366 3988 
Q 3128 4100 2886 4159 
Q 2644 4219 2406 4219 
Q 1781 4219 1451 3797 
Q 1122 3375 1075 2522 
Q 1259 2794 1537 2939 
Q 1816 3084 2150 3084 
Q 2853 3084 3261 2657 
Q 3669 2231 3669 1497 
Q 3669 778 3244 343 
Q 2819 -91 2113 -91 
Q 1303 -91 875 529 
Q 447 1150 447 2328 
Q 447 3434 972 4092 
Q 1497 4750 2381 4750 
Q 2619 4750 2861 4703 
Q 3103 4656 3366 4563 
z
" transform="scale(0.015625)"/>
       </defs>
       <use xlink:href="#DejaVuSans-31" transform="translate(0 0.765625)"/>
       <use xlink:href="#DejaVuSans-30" transform="translate(63.623047 0.765625)"/>
       <use xlink:href="#DejaVuSans-36" transform="translate(128.203125 39.046875)scale(0.7)"/>
      </g>
     </g>
    </g>
    <g id="ytick_4">
     <g id="line2d_26">
      <defs>
       <path id="m9b2b73a0c6" d="M 0 0 
L -2 0 
" style="stroke: #000000; stroke-width: 0.6"/>
      </defs>
      <g>
       <use xlink:href="#m9b2b73a0c6" x="45.478125" y="140.451316" style="stroke: #000000; stroke-width: 0.6"/>
      </g>
     </g>
    </g>
    <g id="ytick_5">
     <g id="line2d_27">
      <g>
       <use xlink:href="#m9b2b73a0c6" x="45.478125" y="129.309461" style="stroke: #000000; stroke-width: 0.6"/>
      </g>
     </g>
    </g>
    <g id="ytick_6">
     <g id="line2d_28">
      <g>
       <use xlink:href="#m9b2b73a0c6" x="45.478125" y="121.404189" style="stroke: #000000; stroke-width: 0.6"/>
      </g>
     </g>
    </g>
    <g id="ytick_7">
     <g id="line2d_29">
      <g>
       <use xlink:href="#m9b2b73a0c6" x="45.478125" y="115.272384" style="stroke: #000000; stroke-width: 0.6"/>
      </g>
     </g>
    </g>
    <g id="ytick_8">
     <g id="line2d_30">
      <g>
       <use xlink:href="#m9b2b73a0c6" x="45.478125" y="110.262335" style="stroke: #000000; stroke-width: 0.6"/>
      </g>
     </g>
    </g>
    <g id="ytick_9">
     <g id="line2d_31">
      <g>
       <use xlink:href="#m9b2b73a0c6" x="45.478125" y="106.026398" style="stroke: #000000; stroke-width: 0.6"/>
      </g>
     </g>
    </g>
    <g id="ytick_10">
     <g id="line2d_32">
      <g>
       <use xlink:href="#m9b2b73a0c6" x="45.478125" y="102.357063" style="stroke: #000000; stroke-width: 0.6"/>
      </g>
     </g>
    </g>
    <g id="ytick_11">
     <g id="line2d_33">
      <g>
       <use xlink:href="#m9b2b73a0c6" x="45.478125" y="99.12048" style="stroke: #000000; stroke-width: 0.6"/>
      </g>
     </g>
    </g>
    <g id="ytick_12">
     <g id="line2d_34">
      <g>
       <use xlink:href="#m9b2b73a0c6" x="45.478125" y="77.178131" style="stroke: #000000; stroke-width: 0.6"/>
      </g>
     </g>
    </g>
    <g id="ytick_13">
     <g id="line2d_35">
      <g>
       <use xlink:href="#m9b2b73a0c6" x="45.478125" y="66.036277" style="stroke: #000000; stroke-width: 0.6"/>
      </g>
     </g>
    </g>
    <g id="ytick_14">
     <g id="line2d_36">
      <g>
       <use xlink:href="#m9b2b73a0c6" x="45.478125" y="58.131005" style="stroke: #000000; stroke-width: 0.6"/>
      </g>
     </g>
    </g>
    <g id="ytick_15">
     <g id="line2d_37">
      <g>
       <use xlink:href="#m9b2b73a0c6" x="45.478125" y="51.9992" style="stroke: #000000; stroke-width: 0.6"/>
      </g>
     </g>
    </g>
    <g id="ytick_16">
     <g id="line2d_38">
      <g>
       <use xlink:href="#m9b2b73a0c6" x="45.478125" y="46.98915" style="stroke: #000000; stroke-width: 0.6"/>
      </g>
     </g>
    </g>
    <g id="ytick_17">
     <g id="line2d_39">
      <g>
       <use xlink:href="#m9b2b73a0c6" x="45.478125" y="42.753214" style="stroke: #000000; stroke-width: 0.6"/>
      </g>
     </g>
    </g>
    <g id="ytick_18">
     <g id="line2d_40">
      <g>
       <use xlink:href="#m9b2b73a0c6" x="45.478125" y="39.083879" style="stroke: #000000; stroke-width: 0.6"/>
      </g>
     </g>
    </g>
    <g id="ytick_19">
     <g id="line2d_41">
      <g>
       <use xlink:href="#m9b2b73a0c6" x="45.478125" y="35.847296" style="stroke: #000000; stroke-width: 0.6"/>
      </g>
     </g>
    </g>
    <g id="ytick_20">
     <g id="line2d_42">
      <g>
       <use xlink:href="#m9b2b73a0c6" x="45.478125" y="13.904947" style="stroke: #000000; stroke-width: 0.6"/>
      </g>
     </g>
    </g>
    <g id="text_8">
     <!-- variant count -->
     <g transform="translate(14.798438 117.25625)rotate(-90)scale(0.1 -0.1)">
      <defs>
       <path id="DejaVuSans-76" d="M 191 3500 
L 800 3500 
L 1894 563 
L 2988 3500 
L 3597 3500 
L 2284 0 
L 1503 0 
L 191 3500 
z
" transform="scale(0.015625)"/>
       <path id="DejaVuSans-69" d="M 603 3500 
L 1178 3500 
L 1178 0 
L 603 0 
L 603 3500 
z
M 603 4863 
L 1178 4863 
L 1178 4134 
L 603 4134 
L 603 4863 
z
" transform="scale(0.015625)"/>
       <path id="DejaVuSans-74" d="M 1172 4494 
L 1172 3500 
L 2356 3500 
L 2356 3053 
L 1172 3053 
L 1172 1153 
Q 1172 725 1289 603 
Q 1406 481 1766 481 
L 2356 481 
L 2356 0 
L 1766 0 
Q 1100 0 847 248 
Q 594 497 594 1153 
L 594 3053 
L 172 3053 
L 172 3500 
L 594 3500 
L 594 4494 
L 1172 4494 
z
" transform="scale(0.015625)"/>
       <path id="DejaVuSans-6f" d="M 1959 3097 
Q 1497 3097 1228 2736 
Q 959 2375 959 1747 
Q 959 1119 1226 758 
Q 1494 397 1959 397 
Q 2419 397 2687 759 
Q 2956 1122 2956 1747 
Q 2956 2369 2687 2733 
Q 2419 3097 1959 3097 
z
M 1959 3584 
Q 2709 3584 3137 3096 
Q 3566 2609 3566 1747 
Q 3566 888 3137 398 
Q 2709 -91 1959 -91 
Q 1206 -91 779 398 
Q 353 888 353 1747 
Q 353 2609 779 3096 
Q 1206 3584 1959 3584 
z
" transform="scale(0.015625)"/>
      </defs>
      <use xlink:href="#DejaVuSans-76"/>
      <use xlink:href="#DejaVuSans-61" x="59.179688"/>
      <use xlink:href="#DejaVuSans-72" x="120.458984"/>
      <use xlink:href="#DejaVuSans-69" x="161.572266"/>
      <use xlink:href="#DejaVuSans-61" x="189.355469"/>
      <use xlink:href="#DejaVuSans-6e" x="250.634766"/>
      <use xlink:href="#DejaVuSans-74" x="314.013672"/>
      <use xlink:href="#DejaVuSans-20" x="353.222656"/>
      <use xlink:href="#DejaVuSans-63" x="385.009766"/>
      <use xlink:href="#DejaVuSans-6f" x="439.990234"/>
      <use xlink:href="#DejaVuSans-75" x="501.171875"/>
      <use xlink:href="#DejaVuSans-6e" x="564.550781"/>
      <use xlink:href="#DejaVuSans-74" x="627.929688"/>
     </g>
    </g>
   </g>
   <g id="line2d_43">
    <defs>
     <path id="mdff5dcd2d9" d="M 0 1.5 
C 0.397805 1.5 0.77937 1.341951 1.06066 1.06066 
C 1.341951 0.77937 1.5 0.397805 1.5 0 
C 1.5 -0.397805 1.341951 -0.77937 1.06066 -1.06066 
C 0.77937 -1.341951 0.397805 -1.5 0 -1.5 
C -0.397805 -1.5 -0.77937 -1.341951 -1.06066 -1.06066 
C -1.341951 -0.77937 -1.5 -0.397805 -1.5 0 
C -1.5 0.397805 -1.341951 0.77937 -1.06066 1.06066 
C -0.77937 1.341951 -0.397805 1.5 0 1.5 
z
" style="stroke: #1f77b4"/>
    </defs>
    <g clip-path="url(#pb835be9190)">
     <use xlink:href="#mdff5dcd2d9" x="55.893127" y="14.172727" style="fill: #1f77b4; stroke: #1f77b4"/>
     <use xlink:href="#mdff5dcd2d9" x="83.16958" y="43.051643" style="fill: #1f77b4; stroke: #1f77b4"/>
     <use xlink:href="#mdff5dcd2d9" x="99.125282" y="55.407237" style="fill: #1f77b4; stroke: #1f77b4"/>
     <use xlink:href="#mdff5dcd2d9" x="110.446033" y="62.368316" style="fill: #1f77b4; stroke: #1f77b4"/>
     <use xlink:href="#mdff5dcd2d9" x="119.227089" y="67.222704" style="fill: #1f77b4; stroke: #1f77b4"/>
     <use xlink:href="#mdff5dcd2d9" x="126.401735" y="71.347383" style="fill: #1f77b4; stroke: #1f77b4"/>
     <use xlink:href="#mdff5dcd2d9" x="132.467811" y="74.82088" style="fill: #1f77b4; stroke: #1f77b4"/>
     <use xlink:href="#mdff5dcd2d9" x="137.722486" y="77.945525" style="fill: #1f77b4; stroke: #1f77b4"/>
     <use xlink:href="#mdff5dcd2d9" x="142.357437" y="81.070559" style="fill: #1f77b4; stroke: #1f77b4"/>
     <use xlink:href="#mdff5dcd2d9" x="146.503542" y="83.560969" style="fill: #1f77b4; stroke: #1f77b4"/>
     <use xlink:href="#mdff5dcd2d9" x="150.254151" y="86.178837" style="fill: #1f77b4; stroke: #1f77b4"/>
     <use xlink:href="#mdff5dcd2d9" x="153.678188" y="88.709016" style="fill: #1f77b4; stroke: #1f77b4"/>
     <use xlink:href="#mdff5dcd2d9" x="156.827997" y="91.116233" style="fill: #1f77b4; stroke: #1f77b4"/>
     <use xlink:href="#mdff5dcd2d9" x="159.744264" y="93.437856" style="fill: #1f77b4; stroke: #1f77b4"/>
     <use xlink:href="#mdff5dcd2d9" x="162.459245" y="95.425548" style="fill: #1f77b4; stroke: #1f77b4"/>
     <use xlink:href="#mdff5dcd2d9" x="164.998939" y="97.439338" style="fill: #1f77b4; stroke: #1f77b4"/>
     <use xlink:href="#mdff5dcd2d9" x="167.384615" y="99.488096" style="fill: #1f77b4; stroke: #1f77b4"/>
     <use xlink:href="#mdff5dcd2d9" x="169.63389" y="101.450264" style="fill: #1f77b4; stroke: #1f77b4"/>
     <use xlink:href="#mdff5dcd2d9" x="171.761522" y="103.159376" style="fill: #1f77b4; stroke: #1f77b4"/>
     <use xlink:href="#mdff5dcd2d9" x="173.779995" y="105.171493" style="fill: #1f77b4; stroke: #1f77b4"/>
     <use xlink:href="#mdff5dcd2d9" x="175.699967" y="106.640098" style="fill: #1f77b4; stroke: #1f77b4"/>
     <use xlink:href="#mdff5dcd2d9" x="177.530604" y="108.294626" style="fill: #1f77b4; stroke: #1f77b4"/>
     <use xlink:href="#mdff5dcd2d9" x="179.279852" y="109.814881" style="fill: #1f77b4; stroke: #1f77b4"/>
     <use xlink:href="#mdff5dcd2d9" x="180.954641" y="111.102162" style="fill: #1f77b4; stroke: #1f77b4"/>
     <use xlink:href="#mdff5dcd2d9" x="182.561052" y="112.682331" style="fill: #1f77b4; stroke: #1f77b4"/>
     <use xlink:href="#mdff5dcd2d9" x="184.10445" y="113.833965" style="fill: #1f77b4; stroke: #1f77b4"/>
     <use xlink:href="#mdff5dcd2d9" x="185.589592" y="115.093255" style="fill: #1f77b4; stroke: #1f77b4"/>
     <use xlink:href="#mdff5dcd2d9" x="187.020717" y="116.103714" style="fill: #1f77b4; stroke: #1f77b4"/>
     <use xlink:href="#mdff5dcd2d9" x="188.401617" y="117.280755" style="fill: #1f77b4; stroke: #1f77b4"/>
     <use xlink:href="#mdff5dcd2d9" x="189.735698" y="118.490082" style="fill: #1f77b4; stroke: #1f77b4"/>
     <use xlink:href="#mdff5dcd2d9" x="191.02603" y="119.516108" style="fill: #1f77b4; stroke: #1f77b4"/>
     <use xlink:href="#mdff5dcd2d9" x="192.275392" y="120.329078" style="fill: #1f77b4; stroke: #1f77b4"/>
     <use xlink:href="#mdff5dcd2d9" x="193.486306" y="121.252785" style="fill: #1f77b4; stroke: #1f77b4"/>
     <use xlink:href="#mdff5dcd2d9" x="194.661068" y="122.112588" style="fill: #1f77b4; stroke: #1f77b4"/>
     <use xlink:href="#mdff5dcd2d9" x="195.801774" y="122.90568" style="fill: #1f77b4; stroke: #1f77b4"/>
     <use xlink:href="#mdff5dcd2d9" x="196.910343" y="123.73954" style="fill: #1f77b4; stroke: #1f77b4"/>
     <use xlink:href="#mdff5dcd2d9" x="197.988537" y="124.416447" style="fill: #1f77b4; stroke: #1f77b4"/>
     <use xlink:href="#mdff5dcd2d9" x="199.037975" y="125.276045" style="fill: #1f77b4; stroke: #1f77b4"/>
     <use xlink:href="#mdff5dcd2d9" x="200.060152" y="126.086723" style="fill: #1f77b4; stroke: #1f77b4"/>
     <use xlink:href="#mdff5dcd2d9" x="201.056448" y="126.720408" style="fill: #1f77b4; stroke: #1f77b4"/>
     <use xlink:href="#mdff5dcd2d9" x="202.028142" y="127.226032" style="fill: #1f77b4; stroke: #1f77b4"/>
     <use xlink:href="#mdff5dcd2d9" x="202.97642" y="127.898177" style="fill: #1f77b4; stroke: #1f77b4"/>
     <use xlink:href="#mdff5dcd2d9" x="203.902382" y="128.572011" style="fill: #1f77b4; stroke: #1f77b4"/>
     <use xlink:href="#mdff5dcd2d9" x="204.807057" y="128.718644" style="fill: #1f77b4; stroke: #1f77b4"/>
     <use xlink:href="#mdff5dcd2d9" x="205.6914" y="129.423277" style="fill: #1f77b4; stroke: #1f77b4"/>
     <use xlink:href="#mdff5dcd2d9" x="206.556305" y="130.165348" style="fill: #1f77b4; stroke: #1f77b4"/>
     <use xlink:href="#mdff5dcd2d9" x="207.402609" y="130.50287" style="fill: #1f77b4; stroke: #1f77b4"/>
     <use xlink:href="#mdff5dcd2d9" x="208.231094" y="130.868816" style="fill: #1f77b4; stroke: #1f77b4"/>
     <use xlink:href="#mdff5dcd2d9" x="209.042496" y="131.222018" style="fill: #1f77b4; stroke: #1f77b4"/>
     <use xlink:href="#mdff5dcd2d9" x="209.837505" y="131.772503" style="fill: #1f77b4; stroke: #1f77b4"/>
     <use xlink:href="#mdff5dcd2d9" x="210.61677" y="132.387467" style="fill: #1f77b4; stroke: #1f77b4"/>
     <use xlink:href="#mdff5dcd2d9" x="211.380903" y="132.781655" style="fill: #1f77b4; stroke: #1f77b4"/>
     <use xlink:href="#mdff5dcd2d9" x="212.13048" y="133.136271" style="fill: #1f77b4; stroke: #1f77b4"/>
     <use xlink:href="#mdff5dcd2d9" x="212.866045" y="133.383747" style="fill: #1f77b4; stroke: #1f77b4"/>
     <use xlink:href="#mdff5dcd2d9" x="213.588113" y="133.725825" style="fill: #1f77b4; stroke: #1f77b4"/>
     <use xlink:href="#mdff5dcd2d9" x="214.29717" y="134.352505" style="fill: #1f77b4; stroke: #1f77b4"/>
     <use xlink:href="#mdff5dcd2d9" x="214.993677" y="134.53912" style="fill: #1f77b4; stroke: #1f77b4"/>
     <use xlink:href="#mdff5dcd2d9" x="215.67807" y="135.191656" style="fill: #1f77b4; stroke: #1f77b4"/>
     <use xlink:href="#mdff5dcd2d9" x="216.350764" y="135.077298" style="fill: #1f77b4; stroke: #1f77b4"/>
     <use xlink:href="#mdff5dcd2d9" x="217.012151" y="135.70241" style="fill: #1f77b4; stroke: #1f77b4"/>
     <use xlink:href="#mdff5dcd2d9" x="217.662605" y="135.861227" style="fill: #1f77b4; stroke: #1f77b4"/>
     <use xlink:href="#mdff5dcd2d9" x="218.302483" y="135.843793" style="fill: #1f77b4; stroke: #1f77b4"/>
     <use xlink:href="#mdff5dcd2d9" x="218.932122" y="136.385886" style="fill: #1f77b4; stroke: #1f77b4"/>
     <use xlink:href="#mdff5dcd2d9" x="219.551845" y="136.465396" style="fill: #1f77b4; stroke: #1f77b4"/>
     <use xlink:href="#mdff5dcd2d9" x="220.16196" y="137.092874" style="fill: #1f77b4; stroke: #1f77b4"/>
     <use xlink:href="#mdff5dcd2d9" x="220.762759" y="137.117202" style="fill: #1f77b4; stroke: #1f77b4"/>
     <use xlink:href="#mdff5dcd2d9" x="221.354524" y="137.537826" style="fill: #1f77b4; stroke: #1f77b4"/>
     <use xlink:href="#mdff5dcd2d9" x="221.937521" y="137.834767" style="fill: #1f77b4; stroke: #1f77b4"/>
     <use xlink:href="#mdff5dcd2d9" x="222.512007" y="138.157693" style="fill: #1f77b4; stroke: #1f77b4"/>
     <use xlink:href="#mdff5dcd2d9" x="223.078227" y="138.326313" style="fill: #1f77b4; stroke: #1f77b4"/>
     <use xlink:href="#mdff5dcd2d9" x="223.636415" y="138.199435" style="fill: #1f77b4; stroke: #1f77b4"/>
     <use xlink:href="#mdff5dcd2d9" x="224.186796" y="138.760841" style="fill: #1f77b4; stroke: #1f77b4"/>
     <use xlink:href="#mdff5dcd2d9" x="224.729586" y="138.94752" style="fill: #1f77b4; stroke: #1f77b4"/>
     <use xlink:href="#mdff5dcd2d9" x="225.26499" y="139.269392" style="fill: #1f77b4; stroke: #1f77b4"/>
     <use xlink:href="#mdff5dcd2d9" x="225.793207" y="139.748665" style="fill: #1f77b4; stroke: #1f77b4"/>
     <use xlink:href="#mdff5dcd2d9" x="226.314428" y="139.591084" style="fill: #1f77b4; stroke: #1f77b4"/>
     <use xlink:href="#mdff5dcd2d9" x="226.828835" y="140.15885" style="fill: #1f77b4; stroke: #1f77b4"/>
     <use xlink:href="#mdff5dcd2d9" x="227.336605" y="139.975939" style="fill: #1f77b4; stroke: #1f77b4"/>
     <use xlink:href="#mdff5dcd2d9" x="227.837906" y="140.211919" style="fill: #1f77b4; stroke: #1f77b4"/>
     <use xlink:href="#mdff5dcd2d9" x="228.332901" y="140.557315" style="fill: #1f77b4; stroke: #1f77b4"/>
     <use xlink:href="#mdff5dcd2d9" x="228.821748" y="140.546283" style="fill: #1f77b4; stroke: #1f77b4"/>
     <use xlink:href="#mdff5dcd2d9" x="229.304595" y="140.870811" style="fill: #1f77b4; stroke: #1f77b4"/>
     <use xlink:href="#mdff5dcd2d9" x="229.78159" y="140.968642" style="fill: #1f77b4; stroke: #1f77b4"/>
     <use xlink:href="#mdff5dcd2d9" x="230.252873" y="141.470217" style="fill: #1f77b4; stroke: #1f77b4"/>
     <use xlink:href="#mdff5dcd2d9" x="230.718578" y="141.801581" style="fill: #1f77b4; stroke: #1f77b4"/>
     <use xlink:href="#mdff5dcd2d9" x="231.178835" y="141.953532" style="fill: #1f77b4; stroke: #1f77b4"/>
     <use xlink:href="#mdff5dcd2d9" x="231.633772" y="141.979665" style="fill: #1f77b4; stroke: #1f77b4"/>
     <use xlink:href="#mdff5dcd2d9" x="232.08351" y="142.179388" style="fill: #1f77b4; stroke: #1f77b4"/>
     <use xlink:href="#mdff5dcd2d9" x="232.528165" y="142.208666" style="fill: #1f77b4; stroke: #1f77b4"/>
     <use xlink:href="#mdff5dcd2d9" x="232.967853" y="142.615926" style="fill: #1f77b4; stroke: #1f77b4"/>
     <use xlink:href="#mdff5dcd2d9" x="233.402682" y="142.411541" style="fill: #1f77b4; stroke: #1f77b4"/>
     <use xlink:href="#mdff5dcd2d9" x="233.832758" y="142.976544" style="fill: #1f77b4; stroke: #1f77b4"/>
     <use xlink:href="#mdff5dcd2d9" x="234.258185" y="143.058" style="fill: #1f77b4; stroke: #1f77b4"/>
     <use xlink:href="#mdff5dcd2d9" x="234.679062" y="143.17912" style="fill: #1f77b4; stroke: #1f77b4"/>
     <use xlink:href="#mdff5dcd2d9" x="235.095485" y="143.619629" style="fill: #1f77b4; stroke: #1f77b4"/>
     <use xlink:href="#mdff5dcd2d9" x="235.507547" y="143.328224" style="fill: #1f77b4; stroke: #1f77b4"/>
     <use xlink:href="#mdff5dcd2d9" x="235.915339" y="143.858109" style="fill: #1f77b4; stroke: #1f77b4"/>
     <use xlink:href="#mdff5dcd2d9" x="236.318949" y="143.73861" style="fill: #1f77b4; stroke: #1f77b4"/>
     <use xlink:href="#mdff5dcd2d9" x="236.718461" y="144.137929" style="fill: #1f77b4; stroke: #1f77b4"/>
     <use xlink:href="#mdff5dcd2d9" x="237.113958" y="144.36037" style="fill: #1f77b4; stroke: #1f77b4"/>
     <use xlink:href="#mdff5dcd2d9" x="237.50552" y="144.365122" style="fill: #1f77b4; stroke: #1f77b4"/>
     <use xlink:href="#mdff5dcd2d9" x="237.893223" y="144.659787" style="fill: #1f77b4; stroke: #1f77b4"/>
     <use xlink:href="#mdff5dcd2d9" x="238.277144" y="144.492157" style="fill: #1f77b4; stroke: #1f77b4"/>
     <use xlink:href="#mdff5dcd2d9" x="238.657356" y="144.917205" style="fill: #1f77b4; stroke: #1f77b4"/>
     <use xlink:href="#mdff5dcd2d9" x="239.033929" y="144.81878" style="fill: #1f77b4; stroke: #1f77b4"/>
     <use xlink:href="#mdff5dcd2d9" x="239.406933" y="144.973838" style="fill: #1f77b4; stroke: #1f77b4"/>
     <use xlink:href="#mdff5dcd2d9" x="239.776434" y="145.100471" style="fill: #1f77b4; stroke: #1f77b4"/>
     <use xlink:href="#mdff5dcd2d9" x="240.142498" y="145.684299" style="fill: #1f77b4; stroke: #1f77b4"/>
     <use xlink:href="#mdff5dcd2d9" x="240.505189" y="145.742537" style="fill: #1f77b4; stroke: #1f77b4"/>
     <use xlink:href="#mdff5dcd2d9" x="240.864566" y="146.12159" style="fill: #1f77b4; stroke: #1f77b4"/>
     <use xlink:href="#mdff5dcd2d9" x="241.220692" y="145.777539" style="fill: #1f77b4; stroke: #1f77b4"/>
     <use xlink:href="#mdff5dcd2d9" x="241.573624" y="146.236672" style="fill: #1f77b4; stroke: #1f77b4"/>
     <use xlink:href="#mdff5dcd2d9" x="241.923418" y="146.229889" style="fill: #1f77b4; stroke: #1f77b4"/>
     <use xlink:href="#mdff5dcd2d9" x="242.27013" y="146.480267" style="fill: #1f77b4; stroke: #1f77b4"/>
     <use xlink:href="#mdff5dcd2d9" x="242.613815" y="146.755405" style="fill: #1f77b4; stroke: #1f77b4"/>
     <use xlink:href="#mdff5dcd2d9" x="242.954523" y="146.67602" style="fill: #1f77b4; stroke: #1f77b4"/>
     <use xlink:href="#mdff5dcd2d9" x="243.292307" y="146.793453" style="fill: #1f77b4; stroke: #1f77b4"/>
     <use xlink:href="#mdff5dcd2d9" x="243.627217" y="147.084001" style="fill: #1f77b4; stroke: #1f77b4"/>
     <use xlink:href="#mdff5dcd2d9" x="243.9593" y="147.042056" style="fill: #1f77b4; stroke: #1f77b4"/>
     <use xlink:href="#mdff5dcd2d9" x="244.288604" y="147.261225" style="fill: #1f77b4; stroke: #1f77b4"/>
     <use xlink:href="#mdff5dcd2d9" x="244.615175" y="147.476832" style="fill: #1f77b4; stroke: #1f77b4"/>
     <use xlink:href="#mdff5dcd2d9" x="244.939058" y="147.891566" style="fill: #1f77b4; stroke: #1f77b4"/>
     <use xlink:href="#mdff5dcd2d9" x="245.260298" y="147.692356" style="fill: #1f77b4; stroke: #1f77b4"/>
     <use xlink:href="#mdff5dcd2d9" x="245.578936" y="147.794473" style="fill: #1f77b4; stroke: #1f77b4"/>
     <use xlink:href="#mdff5dcd2d9" x="245.895015" y="147.967321" style="fill: #1f77b4; stroke: #1f77b4"/>
     <use xlink:href="#mdff5dcd2d9" x="246.208575" y="148.114012" style="fill: #1f77b4; stroke: #1f77b4"/>
     <use xlink:href="#mdff5dcd2d9" x="246.519656" y="148.288889" style="fill: #1f77b4; stroke: #1f77b4"/>
     <use xlink:href="#mdff5dcd2d9" x="246.828298" y="148.534863" style="fill: #1f77b4; stroke: #1f77b4"/>
     <use xlink:href="#mdff5dcd2d9" x="247.134538" y="148.538551" style="fill: #1f77b4; stroke: #1f77b4"/>
     <use xlink:href="#mdff5dcd2d9" x="247.438413" y="148.803534" style="fill: #1f77b4; stroke: #1f77b4"/>
     <use xlink:href="#mdff5dcd2d9" x="247.739959" y="148.988491" style="fill: #1f77b4; stroke: #1f77b4"/>
     <use xlink:href="#mdff5dcd2d9" x="248.039212" y="148.941667" style="fill: #1f77b4; stroke: #1f77b4"/>
     <use xlink:href="#mdff5dcd2d9" x="248.336207" y="149.086142" style="fill: #1f77b4; stroke: #1f77b4"/>
     <use xlink:href="#mdff5dcd2d9" x="248.630977" y="149.320411" style="fill: #1f77b4; stroke: #1f77b4"/>
     <use xlink:href="#mdff5dcd2d9" x="248.923555" y="149.777658" style="fill: #1f77b4; stroke: #1f77b4"/>
     <use xlink:href="#mdff5dcd2d9" x="249.213974" y="149.543301" style="fill: #1f77b4; stroke: #1f77b4"/>
     <use xlink:href="#mdff5dcd2d9" x="249.502265" y="149.90528" style="fill: #1f77b4; stroke: #1f77b4"/>
     <use xlink:href="#mdff5dcd2d9" x="249.78846" y="150.221069" style="fill: #1f77b4; stroke: #1f77b4"/>
     <use xlink:href="#mdff5dcd2d9" x="250.072589" y="149.768014" style="fill: #1f77b4; stroke: #1f77b4"/>
     <use xlink:href="#mdff5dcd2d9" x="250.35468" y="149.639108" style="fill: #1f77b4; stroke: #1f77b4"/>
     <use xlink:href="#mdff5dcd2d9" x="250.634764" y="150.327144" style="fill: #1f77b4; stroke: #1f77b4"/>
     <use xlink:href="#mdff5dcd2d9" x="250.912868" y="150.590161" style="fill: #1f77b4; stroke: #1f77b4"/>
     <use xlink:href="#mdff5dcd2d9" x="251.189021" y="150.360623" style="fill: #1f77b4; stroke: #1f77b4"/>
     <use xlink:href="#mdff5dcd2d9" x="251.463249" y="150.463282" style="fill: #1f77b4; stroke: #1f77b4"/>
     <use xlink:href="#mdff5dcd2d9" x="251.73558" y="150.787589" style="fill: #1f77b4; stroke: #1f77b4"/>
     <use xlink:href="#mdff5dcd2d9" x="252.006039" y="151.349687" style="fill: #1f77b4; stroke: #1f77b4"/>
     <use xlink:href="#mdff5dcd2d9" x="252.274651" y="151.474579" style="fill: #1f77b4; stroke: #1f77b4"/>
     <use xlink:href="#mdff5dcd2d9" x="252.541443" y="151.057093" style="fill: #1f77b4; stroke: #1f77b4"/>
     <use xlink:href="#mdff5dcd2d9" x="252.806438" y="150.821634" style="fill: #1f77b4; stroke: #1f77b4"/>
     <use xlink:href="#mdff5dcd2d9" x="253.06966" y="151.030831" style="fill: #1f77b4; stroke: #1f77b4"/>
     <use xlink:href="#mdff5dcd2d9" x="253.331134" y="151.925611" style="fill: #1f77b4; stroke: #1f77b4"/>
     <use xlink:href="#mdff5dcd2d9" x="253.590881" y="151.259953" style="fill: #1f77b4; stroke: #1f77b4"/>
     <use xlink:href="#mdff5dcd2d9" x="253.848925" y="151.711586" style="fill: #1f77b4; stroke: #1f77b4"/>
     <use xlink:href="#mdff5dcd2d9" x="254.105288" y="151.600041" style="fill: #1f77b4; stroke: #1f77b4"/>
     <use xlink:href="#mdff5dcd2d9" x="254.359992" y="152.250862" style="fill: #1f77b4; stroke: #1f77b4"/>
     <use xlink:href="#mdff5dcd2d9" x="254.613058" y="151.823585" style="fill: #1f77b4; stroke: #1f77b4"/>
     <use xlink:href="#mdff5dcd2d9" x="254.864507" y="151.95483" style="fill: #1f77b4; stroke: #1f77b4"/>
     <use xlink:href="#mdff5dcd2d9" x="255.114359" y="152.399021" style="fill: #1f77b4; stroke: #1f77b4"/>
     <use xlink:href="#mdff5dcd2d9" x="255.362635" y="152.695611" style="fill: #1f77b4; stroke: #1f77b4"/>
     <use xlink:href="#mdff5dcd2d9" x="255.609355" y="151.854777" style="fill: #1f77b4; stroke: #1f77b4"/>
     <use xlink:href="#mdff5dcd2d9" x="255.854537" y="152.206569" style="fill: #1f77b4; stroke: #1f77b4"/>
     <use xlink:href="#mdff5dcd2d9" x="256.098201" y="152.339661" style="fill: #1f77b4; stroke: #1f77b4"/>
     <use xlink:href="#mdff5dcd2d9" x="256.340365" y="152.582145" style="fill: #1f77b4; stroke: #1f77b4"/>
     <use xlink:href="#mdff5dcd2d9" x="256.581048" y="152.837567" style="fill: #1f77b4; stroke: #1f77b4"/>
     <use xlink:href="#mdff5dcd2d9" x="256.820269" y="153.106272" style="fill: #1f77b4; stroke: #1f77b4"/>
     <use xlink:href="#mdff5dcd2d9" x="257.058043" y="152.672023" style="fill: #1f77b4; stroke: #1f77b4"/>
     <use xlink:href="#mdff5dcd2d9" x="257.29439" y="152.469145" style="fill: #1f77b4; stroke: #1f77b4"/>
     <use xlink:href="#mdff5dcd2d9" x="257.529326" y="152.88721" style="fill: #1f77b4; stroke: #1f77b4"/>
     <use xlink:href="#mdff5dcd2d9" x="257.762867" y="153.25475" style="fill: #1f77b4; stroke: #1f77b4"/>
     <use xlink:href="#mdff5dcd2d9" x="257.995031" y="153.230677" style="fill: #1f77b4; stroke: #1f77b4"/>
     <use xlink:href="#mdff5dcd2d9" x="258.225832" y="153.213183" style="fill: #1f77b4; stroke: #1f77b4"/>
     <use xlink:href="#mdff5dcd2d9" x="258.455289" y="153.344662" style="fill: #1f77b4; stroke: #1f77b4"/>
     <use xlink:href="#mdff5dcd2d9" x="258.683414" y="152.755746" style="fill: #1f77b4; stroke: #1f77b4"/>
     <use xlink:href="#mdff5dcd2d9" x="258.910225" y="153.219742" style="fill: #1f77b4; stroke: #1f77b4"/>
     <use xlink:href="#mdff5dcd2d9" x="259.135737" y="152.547983" style="fill: #1f77b4; stroke: #1f77b4"/>
     <use xlink:href="#mdff5dcd2d9" x="259.359963" y="153.627273" style="fill: #1f77b4; stroke: #1f77b4"/>
     <use xlink:href="#mdff5dcd2d9" x="259.582919" y="153.215369" style="fill: #1f77b4; stroke: #1f77b4"/>
     <use xlink:href="#mdff5dcd2d9" x="259.804619" y="153.283227" style="fill: #1f77b4; stroke: #1f77b4"/>
     <use xlink:href="#mdff5dcd2d9" x="260.025076" y="153.417245" style="fill: #1f77b4; stroke: #1f77b4"/>
     <use xlink:href="#mdff5dcd2d9" x="260.244306" y="153.169496" style="fill: #1f77b4; stroke: #1f77b4"/>
     <use xlink:href="#mdff5dcd2d9" x="260.462321" y="152.867774" style="fill: #1f77b4; stroke: #1f77b4"/>
     <use xlink:href="#mdff5dcd2d9" x="260.679135" y="152.982428" style="fill: #1f77b4; stroke: #1f77b4"/>
     <use xlink:href="#mdff5dcd2d9" x="260.89476" y="152.960759" style="fill: #1f77b4; stroke: #1f77b4"/>
     <use xlink:href="#mdff5dcd2d9" x="261.109211" y="152.360846" style="fill: #1f77b4; stroke: #1f77b4"/>
     <use xlink:href="#mdff5dcd2d9" x="261.322499" y="152.316376" style="fill: #1f77b4; stroke: #1f77b4"/>
     <use xlink:href="#mdff5dcd2d9" x="261.534638" y="151.892254" style="fill: #1f77b4; stroke: #1f77b4"/>
     <use xlink:href="#mdff5dcd2d9" x="261.745639" y="151.875592" style="fill: #1f77b4; stroke: #1f77b4"/>
     <use xlink:href="#mdff5dcd2d9" x="261.955515" y="151.35786" style="fill: #1f77b4; stroke: #1f77b4"/>
     <use xlink:href="#mdff5dcd2d9" x="262.164277" y="150.903916" style="fill: #1f77b4; stroke: #1f77b4"/>
     <use xlink:href="#mdff5dcd2d9" x="262.371938" y="150.250493" style="fill: #1f77b4; stroke: #1f77b4"/>
     <use xlink:href="#mdff5dcd2d9" x="262.578508" y="149.932428" style="fill: #1f77b4; stroke: #1f77b4"/>
     <use xlink:href="#mdff5dcd2d9" x="262.784" y="149.050422" style="fill: #1f77b4; stroke: #1f77b4"/>
     <use xlink:href="#mdff5dcd2d9" x="262.988425" y="148.279753" style="fill: #1f77b4; stroke: #1f77b4"/>
     <use xlink:href="#mdff5dcd2d9" x="263.191792" y="147.416574" style="fill: #1f77b4; stroke: #1f77b4"/>
     <use xlink:href="#mdff5dcd2d9" x="263.394115" y="145.991855" style="fill: #1f77b4; stroke: #1f77b4"/>
     <use xlink:href="#mdff5dcd2d9" x="263.595402" y="144.232365" style="fill: #1f77b4; stroke: #1f77b4"/>
     <use xlink:href="#mdff5dcd2d9" x="263.795665" y="141.490186" style="fill: #1f77b4; stroke: #1f77b4"/>
     <use xlink:href="#mdff5dcd2d9" x="263.994914" y="134.864572" style="fill: #1f77b4; stroke: #1f77b4"/>
     <use xlink:href="#mdff5dcd2d9" x="264.19316" y="114.861633" style="fill: #1f77b4; stroke: #1f77b4"/>
    </g>
   </g>
   <g id="patch_3">
    <path d="M 45.478125 160.6 
L 45.478125 7.2 
" style="fill: none; stroke: #000000; stroke-width: 0.8; stroke-linejoin: miter; stroke-linecap: square"/>
   </g>
   <g id="patch_4">
    <path d="M 274.608161 160.6 
L 274.608161 7.2 
" style="fill: none; stroke: #000000; stroke-width: 0.8; stroke-linejoin: miter; stroke-linecap: square"/>
   </g>
   <g id="patch_5">
    <path d="M 45.478125 160.6 
L 274.608161 160.6 
" style="fill: none; stroke: #000000; stroke-width: 0.8; stroke-linejoin: miter; stroke-linecap: square"/>
   </g>
   <g id="patch_6">
    <path d="M 45.478125 7.2 
L 274.608161 7.2 
" style="fill: none; stroke: #000000; stroke-width: 0.8; stroke-linejoin: miter; stroke-linecap: square"/>
   </g>
  </g>
 </g>
 <defs>
  <clipPath id="pb835be9190">
   <rect x="45.478125" y="7.2" width="229.130036" height="153.4"/>
  </clipPath>
 </defs>
</svg>
