<?xml version="1.0" encoding="utf-8" standalone="no"?>
<!DOCTYPE svg PUBLIC "-//W3C//DTD SVG 1.1//EN"
  "http://www.w3.org/Graphics/SVG/1.1/DTD/svg11.dtd">
<svg xmlns:xlink="http://www.w3.org/1999/xlink" width="452.740626pt" height="332.578125pt" viewBox="0 0 452.740626 332.578125" xmlns="http://www.w3.org/2000/svg" version="1.1">
 <metadata>
  <rdf:RDF xmlns:dc="http://purl.org/dc/elements/1.1/" xmlns:cc="http://creativecommons.org/ns#" xmlns:rdf="http://www.w3.org/1999/02/22-rdf-syntax-ns#">
   <cc:Work>
    <dc:type rdf:resource="http://purl.org/dc/dcmitype/StillImage"/>
    <dc:date>2025-01-09T08:52:49.775256</dc:date>
    <dc:format>image/svg+xml</dc:format>
    <dc:creator>
     <cc:Agent>
      <dc:title>Matplotlib v3.10.0, https://matplotlib.org/</dc:title>
     </cc:Agent>
    </dc:creator>
   </cc:Work>
  </rdf:RDF>
 </metadata>
 <defs>
  <style type="text/css">*{stroke-linejoin: round; stroke-linecap: butt}</style>
 </defs>
 <g id="figure_1">
  <g id="patch_1">
   <path d="M 0 332.578125 
L 452.740626 332.578125 
L 452.740626 0 
L 0 0 
z
" style="fill: #ffffff"/>
  </g>
  <g id="axes_1">
   <g id="patch_2">
    <path d="M 45.478125 295 
L 210.580548 295 
L 210.580548 7.2 
L 45.478125 7.2 
z
" style="fill: #ffffff"/>
   </g>
   <g id="FillBetweenPolyCollection_1">
    <path d="M 52.982781 20.281818 
L 52.982781 20.509739 
L 72.637159 71.051185 
L 84.134234 92.354017 
L 92.291538 104.084124 
L 98.618834 112.156141 
L 103.788612 118.490193 
L 108.159597 123.827482 
L 111.945916 128.513148 
L 115.285687 132.736303 
L 118.273213 136.610583 
L 120.975759 140.210963 
L 123.442991 143.588999 
L 125.712624 146.782187 
L 127.813976 149.818024 
L 129.770288 152.716341 
L 131.600295 155.493821 
L 133.319323 158.1636 
L 134.940065 160.735231 
L 136.473156 163.217654 
L 137.927592 165.618483 
L 139.31105 167.942557 
L 140.630138 170.195387 
L 141.89058 172.3815 
L 143.09737 174.504788 
L 144.254888 176.568189 
L 145.367002 178.575874 
L 146.43714 180.529834 
L 147.468354 182.432081 
L 148.463378 184.286406 
L 149.424666 186.093788 
L 150.354431 187.856794 
L 151.254674 189.575693 
L 152.127212 191.254318 
L 152.973701 192.894095 
L 153.795651 194.49473 
L 154.594444 196.059597 
L 155.371349 197.589232 
L 156.127535 199.084479 
L 156.864077 200.546506 
L 157.58197 201.978074 
L 158.282136 203.37857 
L 158.965429 204.750126 
L 159.632643 206.092567 
L 160.284517 207.407232 
L 160.921741 208.697135 
L 161.544959 209.959957 
L 162.154773 211.199159 
L 162.751748 212.412636 
L 163.336414 213.604322 
L 163.909267 214.773905 
L 164.470776 215.921142 
L 165.021381 217.047477 
L 165.561498 218.152898 
L 166.091518 219.239154 
L 166.611813 220.304775 
L 167.122733 221.353472 
L 167.624609 222.383975 
L 168.117757 223.396783 
L 168.602474 224.392484 
L 169.079045 225.373623 
L 169.547738 226.337281 
L 170.008809 227.284238 
L 170.462503 228.217331 
L 170.909052 229.135644 
L 171.348678 230.040258 
L 171.781591 230.93031 
L 172.207994 231.806994 
L 172.62808 232.67161 
L 173.042033 233.521285 
L 173.45003 234.359519 
L 173.852239 235.187839 
L 174.248823 236.001189 
L 174.639936 236.805562 
L 175.025728 237.595846 
L 175.406341 238.378286 
L 175.781913 239.147714 
L 176.152576 239.908245 
L 176.518456 240.656985 
L 176.879674 241.398242 
L 177.236349 242.129132 
L 177.588593 242.849149 
L 177.936515 243.560313 
L 178.280219 244.262192 
L 178.619807 244.956946 
L 178.955377 245.64159 
L 179.287021 246.31833 
L 179.614831 246.986799 
L 179.938895 247.646622 
L 180.259297 248.297421 
L 180.576119 248.941589 
L 180.88944 249.578827 
L 181.199337 250.208832 
L 181.505884 250.828422 
L 181.809152 251.442997 
L 182.10921 252.052328 
L 182.406127 252.653222 
L 182.699966 253.245356 
L 182.990792 253.831418 
L 183.278666 254.414219 
L 183.563646 254.987439 
L 183.84579 255.553851 
L 184.125155 256.116342 
L 184.401794 256.671576 
L 184.67576 257.219295 
L 184.947104 257.762468 
L 185.215876 258.29766 
L 185.482125 258.831184 
L 185.745897 259.356312 
L 186.007238 259.876123 
L 186.266192 260.390433 
L 186.522802 260.899055 
L 186.777112 261.401802 
L 187.02916 261.898484 
L 187.278988 262.392405 
L 187.526634 262.876413 
L 187.772136 263.36088 
L 188.01553 263.835044 
L 188.256853 264.309448 
L 188.496139 264.773154 
L 188.733423 265.236874 
L 188.968738 265.693189 
L 189.202116 266.141898 
L 189.433589 266.590301 
L 189.663188 267.030804 
L 189.890942 267.467012 
L 190.116882 267.898803 
L 190.341035 268.326056 
L 190.563431 268.748649 
L 190.784096 269.166457 
L 191.003056 269.575411 
L 191.220339 269.98325 
L 191.43597 270.385931 
L 191.649973 270.783328 
L 191.862373 271.179369 
L 192.073194 271.565845 
L 192.282459 271.946657 
L 192.490191 272.325813 
L 192.696412 272.699102 
L 192.901144 273.066397 
L 193.104408 273.431785 
L 193.306226 273.790975 
L 193.506617 274.143839 
L 193.705603 274.490251 
L 193.903201 274.834398 
L 194.099432 275.171888 
L 194.294315 275.502595 
L 194.487867 275.826393 
L 194.680107 276.147569 
L 194.871052 276.46607 
L 195.06072 276.772925 
L 195.249128 277.076904 
L 195.436292 277.373451 
L 195.622229 277.662444 
L 195.806955 277.948314 
L 195.990484 278.226436 
L 196.172834 278.496695 
L 196.354019 278.758975 
L 196.534053 279.013165 
L 196.712951 279.263804 
L 196.890728 279.506173 
L 197.067396 279.735475 
L 197.242972 279.960967 
L 197.417466 280.173152 
L 197.590893 280.381363 
L 197.763266 280.576043 
L 197.934598 280.761825 
L 198.1049 280.933838 
L 198.274186 281.096757 
L 198.442467 281.245695 
L 198.609755 281.385366 
L 198.776062 281.51087 
L 198.9414 281.617275 
L 199.105779 281.714174 
L 199.26921 281.791808 
L 199.431705 281.854961 
L 199.593274 281.893858 
L 199.753927 281.918182 
L 199.913676 281.918182 
L 200.072529 281.893858 
L 200.230498 281.845241 
L 200.387591 281.767536 
L 200.543819 281.66086 
L 200.699191 281.515702 
L 200.853716 281.337166 
L 201.007403 281.111154 
L 201.160262 280.842991 
L 201.312302 280.514245 
L 201.46353 280.125933 
L 201.613956 279.660503 
L 201.763589 279.101231 
L 201.912436 278.432453 
L 202.060505 277.617196 
L 202.207806 276.612627 
L 202.354345 275.328307 
L 202.500131 273.621671 
L 202.645171 271.155045 
L 202.789473 267.004356 
L 202.933044 257.820616 
L 203.075892 228.111837 
L 203.075892 226.789768 
L 203.075892 226.789768 
L 202.933044 256.122622 
L 202.789473 265.170927 
L 202.645171 269.256654 
L 202.500131 271.684329 
L 202.354345 273.360209 
L 202.207806 274.62337 
L 202.060505 275.611787 
L 201.912436 276.412867 
L 201.763589 277.072423 
L 201.613956 277.617196 
L 201.46353 278.075813 
L 201.312302 278.459977 
L 201.160262 278.782038 
L 201.007403 279.045595 
L 200.853716 279.263804 
L 200.699191 279.440822 
L 200.543819 279.580949 
L 200.387591 279.688606 
L 200.230498 279.763614 
L 200.072529 279.815238 
L 199.913676 279.838718 
L 199.753927 279.838718 
L 199.593274 279.815238 
L 199.431705 279.772997 
L 199.26921 279.716723 
L 199.105779 279.637093 
L 198.9414 279.543549 
L 198.776062 279.436157 
L 198.609755 279.314991 
L 198.442467 279.180139 
L 198.274186 279.031694 
L 198.1049 278.869759 
L 197.934598 278.699054 
L 197.763266 278.519655 
L 197.590893 278.327066 
L 197.417466 278.125978 
L 197.242972 277.911936 
L 197.067396 277.694139 
L 196.890728 277.463609 
L 196.712951 277.229484 
L 196.534053 276.987336 
L 196.354019 276.73281 
L 196.172834 276.474942 
L 195.990484 276.209365 
L 195.806955 275.936188 
L 195.622229 275.655521 
L 195.436292 275.371831 
L 195.249128 275.080835 
L 195.06072 274.782648 
L 194.871052 274.477385 
L 194.680107 274.16943 
L 194.487867 273.850346 
L 194.294315 273.532981 
L 194.099432 273.204726 
L 193.903201 272.874116 
L 193.705603 272.537053 
L 193.506617 272.193655 
L 193.306226 271.848147 
L 193.104408 271.4965 
L 192.901144 271.138835 
L 192.696412 270.775273 
L 192.490191 270.40994 
L 192.282459 270.034926 
L 192.073194 269.658333 
L 191.862373 269.276281 
L 191.649973 268.888889 
L 191.43597 268.500154 
L 191.220339 268.10242 
L 191.003056 267.703532 
L 190.784096 267.295937 
L 190.563431 266.887373 
L 190.341035 266.470393 
L 190.116882 266.048909 
L 189.890942 265.62673 
L 189.663188 265.196564 
L 189.433589 264.762244 
L 189.202116 264.320275 
L 188.968738 263.878014 
L 188.733423 263.428384 
L 188.496139 262.975104 
L 188.256853 262.514784 
L 188.01553 262.051088 
L 187.772136 261.580677 
L 187.526634 261.107157 
L 187.278988 260.627243 
L 187.02916 260.141121 
L 186.777112 259.652309 
L 186.522802 259.154294 
L 186.266192 258.653898 
L 186.007238 258.147965 
L 185.745897 257.636675 
L 185.482125 257.117008 
L 185.215876 256.595554 
L 184.947104 256.066125 
L 184.67576 255.528976 
L 184.401794 254.987439 
L 184.125155 254.44168 
L 183.84579 253.888835 
L 183.563646 253.32915 
L 183.278666 252.762868 
L 182.990792 252.190227 
L 182.699966 251.611463 
L 182.406127 251.026809 
L 182.10921 250.433643 
L 181.809152 249.835101 
L 181.505884 249.228611 
L 181.199337 248.614477 
L 180.88944 247.995738 
L 180.576119 247.367188 
L 180.259297 246.731886 
L 179.938895 246.087471 
L 179.614831 245.436931 
L 179.287021 244.775365 
L 178.955377 244.10834 
L 178.619807 243.433592 
L 178.280219 242.748967 
L 177.936515 242.054892 
L 177.588593 241.351792 
L 177.236349 240.640081 
L 176.879674 239.92017 
L 176.518456 239.187746 
L 176.152576 238.448031 
L 175.781913 237.696816 
L 175.406341 236.93692 
L 175.025728 236.16432 
L 174.639936 235.381845 
L 174.248823 234.590015 
L 173.852239 233.782894 
L 173.45003 232.967604 
L 173.042033 232.13836 
L 172.62808 231.297959 
L 172.207994 230.442976 
L 171.781591 229.576209 
L 171.348678 228.696378 
L 170.909052 227.802307 
L 170.462503 226.894831 
L 170.008809 225.972883 
L 169.547738 225.033642 
L 169.079045 224.081794 
L 168.602474 223.1128 
L 168.117757 222.12774 
L 167.624609 221.124202 
L 167.122733 220.105094 
L 166.611813 219.068153 
L 166.091518 218.012964 
L 165.561498 216.937582 
L 165.021381 215.843432 
L 164.470776 214.728788 
L 163.909267 213.592117 
L 163.336414 212.435069 
L 162.751748 211.254844 
L 162.154773 210.053255 
L 161.544959 208.826426 
L 160.921741 207.575024 
L 160.284517 206.298418 
L 159.632643 204.994818 
L 158.965429 203.663998 
L 158.282136 202.305879 
L 157.58197 200.918061 
L 156.864077 199.499712 
L 156.127535 198.050235 
L 155.371349 196.566979 
L 154.594444 195.051078 
L 153.795651 193.500499 
L 152.973701 191.912573 
L 152.127212 190.2872 
L 151.254674 188.621552 
L 150.354431 186.915329 
L 149.424666 185.166687 
L 148.463378 183.373405 
L 147.468354 181.533884 
L 146.43714 179.645394 
L 145.367002 177.705979 
L 144.254888 175.713603 
L 143.09737 173.664697 
L 141.89058 171.556 
L 140.630138 169.385354 
L 139.31105 167.147463 
L 137.927592 164.838613 
L 136.473156 162.454005 
L 134.940065 159.987548 
L 133.319323 157.431787 
L 131.600295 154.778505 
L 129.770288 152.017689 
L 127.813976 149.135872 
L 125.712624 146.117614 
L 123.442991 142.942293 
L 120.975759 139.582308 
L 118.273213 136.000624 
L 115.285687 132.146226 
L 111.945916 127.944101 
L 108.159597 123.280019 
L 103.788612 117.967082 
L 98.618834 111.660464 
L 92.291538 103.621261 
L 84.134234 91.934803 
L 72.637159 70.701262 
L 52.982781 20.281818 
z
" clip-path="url(#p9bd9cf7a9d)" style="fill: #1f77b4"/>
   </g>
   <g id="matplotlib.axis_1">
    <g id="xtick_1">
     <g id="line2d_1">
      <defs>
       <path id="meaa8e2943a" d="M 0 0 
L 0 3.5 
" style="stroke: #000000; stroke-width: 0.8"/>
      </defs>
      <g>
       <use xlink:href="#meaa8e2943a" x="52.982781" y="295" style="stroke: #000000; stroke-width: 0.8"/>
      </g>
     </g>
     <g id="text_1">
      <!-- $\mathdefault{10^{0}}$ -->
      <g transform="translate(44.182781 309.598437) scale(0.1 -0.1)">
       <defs>
        <path id="DejaVuSans-31" d="M 794 531 
L 1825 531 
L 1825 4091 
L 703 3866 
L 703 4441 
L 1819 4666 
L 2450 4666 
L 2450 531 
L 3481 531 
L 3481 0 
L 794 0 
L 794 531 
z
" transform="scale(0.015625)"/>
        <path id="DejaVuSans-30" d="M 2034 4250 
Q 1547 4250 1301 3770 
Q 1056 3291 1056 2328 
Q 1056 1369 1301 889 
Q 1547 409 2034 409 
Q 2525 409 2770 889 
Q 3016 1369 3016 2328 
Q 3016 3291 2770 3770 
Q 2525 4250 2034 4250 
z
M 2034 4750 
Q 2819 4750 3233 4129 
Q 3647 3509 3647 2328 
Q 3647 1150 3233 529 
Q 2819 -91 2034 -91 
Q 1250 -91 836 529 
Q 422 1150 422 2328 
Q 422 3509 836 4129 
Q 1250 4750 2034 4750 
z
" transform="scale(0.015625)"/>
       </defs>
       <use xlink:href="#DejaVuSans-31" transform="translate(0 0.765625)"/>
       <use xlink:href="#DejaVuSans-30" transform="translate(63.623047 0.765625)"/>
       <use xlink:href="#DejaVuSans-30" transform="translate(128.203125 39.046875) scale(0.7)"/>
      </g>
     </g>
    </g>
    <g id="xtick_2">
     <g id="line2d_2">
      <g>
       <use xlink:href="#meaa8e2943a" x="118.273213" y="295" style="stroke: #000000; stroke-width: 0.8"/>
      </g>
     </g>
     <g id="text_2">
      <!-- $\mathdefault{10^{1}}$ -->
      <g transform="translate(109.473213 309.598437) scale(0.1 -0.1)">
       <use xlink:href="#DejaVuSans-31" transform="translate(0 0.684375)"/>
       <use xlink:href="#DejaVuSans-30" transform="translate(63.623047 0.684375)"/>
       <use xlink:href="#DejaVuSans-31" transform="translate(128.203125 38.965625) scale(0.7)"/>
      </g>
     </g>
    </g>
    <g id="xtick_3">
     <g id="line2d_3">
      <g>
       <use xlink:href="#meaa8e2943a" x="183.563646" y="295" style="stroke: #000000; stroke-width: 0.8"/>
      </g>
     </g>
     <g id="text_3">
      <!-- $\mathdefault{10^{2}}$ -->
      <g transform="translate(174.763646 309.598437) scale(0.1 -0.1)">
       <defs>
        <path id="DejaVuSans-32" d="M 1228 531 
L 3431 531 
L 3431 0 
L 469 0 
L 469 531 
Q 828 903 1448 1529 
Q 2069 2156 2228 2338 
Q 2531 2678 2651 2914 
Q 2772 3150 2772 3378 
Q 2772 3750 2511 3984 
Q 2250 4219 1831 4219 
Q 1534 4219 1204 4116 
Q 875 4013 500 3803 
L 500 4441 
Q 881 4594 1212 4672 
Q 1544 4750 1819 4750 
Q 2544 4750 2975 4387 
Q 3406 4025 3406 3419 
Q 3406 3131 3298 2873 
Q 3191 2616 2906 2266 
Q 2828 2175 2409 1742 
Q 1991 1309 1228 531 
z
" transform="scale(0.015625)"/>
       </defs>
       <use xlink:href="#DejaVuSans-31" transform="translate(0 0.765625)"/>
       <use xlink:href="#DejaVuSans-30" transform="translate(63.623047 0.765625)"/>
       <use xlink:href="#DejaVuSans-32" transform="translate(128.203125 39.046875) scale(0.7)"/>
      </g>
     </g>
    </g>
    <g id="xtick_4">
     <g id="line2d_4">
      <defs>
       <path id="m17441381ac" d="M 0 0 
L 0 2 
" style="stroke: #000000; stroke-width: 0.6"/>
      </defs>
      <g>
       <use xlink:href="#m17441381ac" x="46.655484" y="295" style="stroke: #000000; stroke-width: 0.6"/>
      </g>
     </g>
    </g>
    <g id="xtick_5">
     <g id="line2d_5">
      <g>
       <use xlink:href="#m17441381ac" x="49.995254" y="295" style="stroke: #000000; stroke-width: 0.6"/>
      </g>
     </g>
    </g>
    <g id="xtick_6">
     <g id="line2d_6">
      <g>
       <use xlink:href="#m17441381ac" x="72.637159" y="295" style="stroke: #000000; stroke-width: 0.6"/>
      </g>
     </g>
    </g>
    <g id="xtick_7">
     <g id="line2d_7">
      <g>
       <use xlink:href="#m17441381ac" x="84.134234" y="295" style="stroke: #000000; stroke-width: 0.6"/>
      </g>
     </g>
    </g>
    <g id="xtick_8">
     <g id="line2d_8">
      <g>
       <use xlink:href="#m17441381ac" x="92.291538" y="295" style="stroke: #000000; stroke-width: 0.6"/>
      </g>
     </g>
    </g>
    <g id="xtick_9">
     <g id="line2d_9">
      <g>
       <use xlink:href="#m17441381ac" x="98.618834" y="295" style="stroke: #000000; stroke-width: 0.6"/>
      </g>
     </g>
    </g>
    <g id="xtick_10">
     <g id="line2d_10">
      <g>
       <use xlink:href="#m17441381ac" x="103.788612" y="295" style="stroke: #000000; stroke-width: 0.6"/>
      </g>
     </g>
    </g>
    <g id="xtick_11">
     <g id="line2d_11">
      <g>
       <use xlink:href="#m17441381ac" x="108.159597" y="295" style="stroke: #000000; stroke-width: 0.6"/>
      </g>
     </g>
    </g>
    <g id="xtick_12">
     <g id="line2d_12">
      <g>
       <use xlink:href="#m17441381ac" x="111.945916" y="295" style="stroke: #000000; stroke-width: 0.6"/>
      </g>
     </g>
    </g>
    <g id="xtick_13">
     <g id="line2d_13">
      <g>
       <use xlink:href="#m17441381ac" x="115.285687" y="295" style="stroke: #000000; stroke-width: 0.6"/>
      </g>
     </g>
    </g>
    <g id="xtick_14">
     <g id="line2d_14">
      <g>
       <use xlink:href="#m17441381ac" x="137.927592" y="295" style="stroke: #000000; stroke-width: 0.6"/>
      </g>
     </g>
    </g>
    <g id="xtick_15">
     <g id="line2d_15">
      <g>
       <use xlink:href="#m17441381ac" x="149.424666" y="295" style="stroke: #000000; stroke-width: 0.6"/>
      </g>
     </g>
    </g>
    <g id="xtick_16">
     <g id="line2d_16">
      <g>
       <use xlink:href="#m17441381ac" x="157.58197" y="295" style="stroke: #000000; stroke-width: 0.6"/>
      </g>
     </g>
    </g>
    <g id="xtick_17">
     <g id="line2d_17">
      <g>
       <use xlink:href="#m17441381ac" x="163.909267" y="295" style="stroke: #000000; stroke-width: 0.6"/>
      </g>
     </g>
    </g>
    <g id="xtick_18">
     <g id="line2d_18">
      <g>
       <use xlink:href="#m17441381ac" x="169.079045" y="295" style="stroke: #000000; stroke-width: 0.6"/>
      </g>
     </g>
    </g>
    <g id="xtick_19">
     <g id="line2d_19">
      <g>
       <use xlink:href="#m17441381ac" x="173.45003" y="295" style="stroke: #000000; stroke-width: 0.6"/>
      </g>
     </g>
    </g>
    <g id="xtick_20">
     <g id="line2d_20">
      <g>
       <use xlink:href="#m17441381ac" x="177.236349" y="295" style="stroke: #000000; stroke-width: 0.6"/>
      </g>
     </g>
    </g>
    <g id="xtick_21">
     <g id="line2d_21">
      <g>
       <use xlink:href="#m17441381ac" x="180.576119" y="295" style="stroke: #000000; stroke-width: 0.6"/>
      </g>
     </g>
    </g>
    <g id="xtick_22">
     <g id="line2d_22">
      <g>
       <use xlink:href="#m17441381ac" x="203.218024" y="295" style="stroke: #000000; stroke-width: 0.6"/>
      </g>
     </g>
    </g>
    <g id="text_4">
     <!-- sample frequency -->
     <g transform="translate(83.184805 323.276562) scale(0.1 -0.1)">
      <defs>
       <path id="DejaVuSans-73" d="M 2834 3397 
L 2834 2853 
Q 2591 2978 2328 3040 
Q 2066 3103 1784 3103 
Q 1356 3103 1142 2972 
Q 928 2841 928 2578 
Q 928 2378 1081 2264 
Q 1234 2150 1697 2047 
L 1894 2003 
Q 2506 1872 2764 1633 
Q 3022 1394 3022 966 
Q 3022 478 2636 193 
Q 2250 -91 1575 -91 
Q 1294 -91 989 -36 
Q 684 19 347 128 
L 347 722 
Q 666 556 975 473 
Q 1284 391 1588 391 
Q 1994 391 2212 530 
Q 2431 669 2431 922 
Q 2431 1156 2273 1281 
Q 2116 1406 1581 1522 
L 1381 1569 
Q 847 1681 609 1914 
Q 372 2147 372 2553 
Q 372 3047 722 3315 
Q 1072 3584 1716 3584 
Q 2034 3584 2315 3537 
Q 2597 3491 2834 3397 
z
" transform="scale(0.015625)"/>
       <path id="DejaVuSans-61" d="M 2194 1759 
Q 1497 1759 1228 1600 
Q 959 1441 959 1056 
Q 959 750 1161 570 
Q 1363 391 1709 391 
Q 2188 391 2477 730 
Q 2766 1069 2766 1631 
L 2766 1759 
L 2194 1759 
z
M 3341 1997 
L 3341 0 
L 2766 0 
L 2766 531 
Q 2569 213 2275 61 
Q 1981 -91 1556 -91 
Q 1019 -91 701 211 
Q 384 513 384 1019 
Q 384 1609 779 1909 
Q 1175 2209 1959 2209 
L 2766 2209 
L 2766 2266 
Q 2766 2663 2505 2880 
Q 2244 3097 1772 3097 
Q 1472 3097 1187 3025 
Q 903 2953 641 2809 
L 641 3341 
Q 956 3463 1253 3523 
Q 1550 3584 1831 3584 
Q 2591 3584 2966 3190 
Q 3341 2797 3341 1997 
z
" transform="scale(0.015625)"/>
       <path id="DejaVuSans-6d" d="M 3328 2828 
Q 3544 3216 3844 3400 
Q 4144 3584 4550 3584 
Q 5097 3584 5394 3201 
Q 5691 2819 5691 2113 
L 5691 0 
L 5113 0 
L 5113 2094 
Q 5113 2597 4934 2840 
Q 4756 3084 4391 3084 
Q 3944 3084 3684 2787 
Q 3425 2491 3425 1978 
L 3425 0 
L 2847 0 
L 2847 2094 
Q 2847 2600 2669 2842 
Q 2491 3084 2119 3084 
Q 1678 3084 1418 2786 
Q 1159 2488 1159 1978 
L 1159 0 
L 581 0 
L 581 3500 
L 1159 3500 
L 1159 2956 
Q 1356 3278 1631 3431 
Q 1906 3584 2284 3584 
Q 2666 3584 2933 3390 
Q 3200 3197 3328 2828 
z
" transform="scale(0.015625)"/>
       <path id="DejaVuSans-70" d="M 1159 525 
L 1159 -1331 
L 581 -1331 
L 581 3500 
L 1159 3500 
L 1159 2969 
Q 1341 3281 1617 3432 
Q 1894 3584 2278 3584 
Q 2916 3584 3314 3078 
Q 3713 2572 3713 1747 
Q 3713 922 3314 415 
Q 2916 -91 2278 -91 
Q 1894 -91 1617 61 
Q 1341 213 1159 525 
z
M 3116 1747 
Q 3116 2381 2855 2742 
Q 2594 3103 2138 3103 
Q 1681 3103 1420 2742 
Q 1159 2381 1159 1747 
Q 1159 1113 1420 752 
Q 1681 391 2138 391 
Q 2594 391 2855 752 
Q 3116 1113 3116 1747 
z
" transform="scale(0.015625)"/>
       <path id="DejaVuSans-6c" d="M 603 4863 
L 1178 4863 
L 1178 0 
L 603 0 
L 603 4863 
z
" transform="scale(0.015625)"/>
       <path id="DejaVuSans-65" d="M 3597 1894 
L 3597 1613 
L 953 1613 
Q 991 1019 1311 708 
Q 1631 397 2203 397 
Q 2534 397 2845 478 
Q 3156 559 3463 722 
L 3463 178 
Q 3153 47 2828 -22 
Q 2503 -91 2169 -91 
Q 1331 -91 842 396 
Q 353 884 353 1716 
Q 353 2575 817 3079 
Q 1281 3584 2069 3584 
Q 2775 3584 3186 3129 
Q 3597 2675 3597 1894 
z
M 3022 2063 
Q 3016 2534 2758 2815 
Q 2500 3097 2075 3097 
Q 1594 3097 1305 2825 
Q 1016 2553 972 2059 
L 3022 2063 
z
" transform="scale(0.015625)"/>
       <path id="DejaVuSans-20" transform="scale(0.015625)"/>
       <path id="DejaVuSans-66" d="M 2375 4863 
L 2375 4384 
L 1825 4384 
Q 1516 4384 1395 4259 
Q 1275 4134 1275 3809 
L 1275 3500 
L 2222 3500 
L 2222 3053 
L 1275 3053 
L 1275 0 
L 697 0 
L 697 3053 
L 147 3053 
L 147 3500 
L 697 3500 
L 697 3744 
Q 697 4328 969 4595 
Q 1241 4863 1831 4863 
L 2375 4863 
z
" transform="scale(0.015625)"/>
       <path id="DejaVuSans-72" d="M 2631 2963 
Q 2534 3019 2420 3045 
Q 2306 3072 2169 3072 
Q 1681 3072 1420 2755 
Q 1159 2438 1159 1844 
L 1159 0 
L 581 0 
L 581 3500 
L 1159 3500 
L 1159 2956 
Q 1341 3275 1631 3429 
Q 1922 3584 2338 3584 
Q 2397 3584 2469 3576 
Q 2541 3569 2628 3553 
L 2631 2963 
z
" transform="scale(0.015625)"/>
       <path id="DejaVuSans-71" d="M 947 1747 
Q 947 1113 1208 752 
Q 1469 391 1925 391 
Q 2381 391 2643 752 
Q 2906 1113 2906 1747 
Q 2906 2381 2643 2742 
Q 2381 3103 1925 3103 
Q 1469 3103 1208 2742 
Q 947 2381 947 1747 
z
M 2906 525 
Q 2725 213 2448 61 
Q 2172 -91 1784 -91 
Q 1150 -91 751 415 
Q 353 922 353 1747 
Q 353 2572 751 3078 
Q 1150 3584 1784 3584 
Q 2172 3584 2448 3432 
Q 2725 3281 2906 2969 
L 2906 3500 
L 3481 3500 
L 3481 -1331 
L 2906 -1331 
L 2906 525 
z
" transform="scale(0.015625)"/>
       <path id="DejaVuSans-75" d="M 544 1381 
L 544 3500 
L 1119 3500 
L 1119 1403 
Q 1119 906 1312 657 
Q 1506 409 1894 409 
Q 2359 409 2629 706 
Q 2900 1003 2900 1516 
L 2900 3500 
L 3475 3500 
L 3475 0 
L 2900 0 
L 2900 538 
Q 2691 219 2414 64 
Q 2138 -91 1772 -91 
Q 1169 -91 856 284 
Q 544 659 544 1381 
z
M 1991 3584 
L 1991 3584 
z
" transform="scale(0.015625)"/>
       <path id="DejaVuSans-6e" d="M 3513 2113 
L 3513 0 
L 2938 0 
L 2938 2094 
Q 2938 2591 2744 2837 
Q 2550 3084 2163 3084 
Q 1697 3084 1428 2787 
Q 1159 2491 1159 1978 
L 1159 0 
L 581 0 
L 581 3500 
L 1159 3500 
L 1159 2956 
Q 1366 3272 1645 3428 
Q 1925 3584 2291 3584 
Q 2894 3584 3203 3211 
Q 3513 2838 3513 2113 
z
" transform="scale(0.015625)"/>
       <path id="DejaVuSans-63" d="M 3122 3366 
L 3122 2828 
Q 2878 2963 2633 3030 
Q 2388 3097 2138 3097 
Q 1578 3097 1268 2742 
Q 959 2388 959 1747 
Q 959 1106 1268 751 
Q 1578 397 2138 397 
Q 2388 397 2633 464 
Q 2878 531 3122 666 
L 3122 134 
Q 2881 22 2623 -34 
Q 2366 -91 2075 -91 
Q 1284 -91 818 406 
Q 353 903 353 1747 
Q 353 2603 823 3093 
Q 1294 3584 2113 3584 
Q 2378 3584 2631 3529 
Q 2884 3475 3122 3366 
z
" transform="scale(0.015625)"/>
       <path id="DejaVuSans-79" d="M 2059 -325 
Q 1816 -950 1584 -1140 
Q 1353 -1331 966 -1331 
L 506 -1331 
L 506 -850 
L 844 -850 
Q 1081 -850 1212 -737 
Q 1344 -625 1503 -206 
L 1606 56 
L 191 3500 
L 800 3500 
L 1894 763 
L 2988 3500 
L 3597 3500 
L 2059 -325 
z
" transform="scale(0.015625)"/>
      </defs>
      <use xlink:href="#DejaVuSans-73"/>
      <use xlink:href="#DejaVuSans-61" transform="translate(52.099609 0)"/>
      <use xlink:href="#DejaVuSans-6d" transform="translate(113.378906 0)"/>
      <use xlink:href="#DejaVuSans-70" transform="translate(210.791016 0)"/>
      <use xlink:href="#DejaVuSans-6c" transform="translate(274.267578 0)"/>
      <use xlink:href="#DejaVuSans-65" transform="translate(302.050781 0)"/>
      <use xlink:href="#DejaVuSans-20" transform="translate(363.574219 0)"/>
      <use xlink:href="#DejaVuSans-66" transform="translate(395.361328 0)"/>
      <use xlink:href="#DejaVuSans-72" transform="translate(430.566406 0)"/>
      <use xlink:href="#DejaVuSans-65" transform="translate(469.429688 0)"/>
      <use xlink:href="#DejaVuSans-71" transform="translate(530.953125 0)"/>
      <use xlink:href="#DejaVuSans-75" transform="translate(594.429688 0)"/>
      <use xlink:href="#DejaVuSans-65" transform="translate(657.808594 0)"/>
      <use xlink:href="#DejaVuSans-6e" transform="translate(719.332031 0)"/>
      <use xlink:href="#DejaVuSans-63" transform="translate(782.710938 0)"/>
      <use xlink:href="#DejaVuSans-79" transform="translate(837.691406 0)"/>
     </g>
    </g>
   </g>
   <g id="matplotlib.axis_2">
    <g id="ytick_1">
     <g id="line2d_23">
      <defs>
       <path id="m52b84cb57d" d="M 0 0 
L -3.5 0 
" style="stroke: #000000; stroke-width: 0.8"/>
      </defs>
      <g>
       <use xlink:href="#m52b84cb57d" x="45.478125" y="293.175847" style="stroke: #000000; stroke-width: 0.8"/>
      </g>
     </g>
     <g id="text_5">
      <!-- $\mathdefault{10^{4}}$ -->
      <g transform="translate(20.878125 296.975065) scale(0.1 -0.1)">
       <defs>
        <path id="DejaVuSans-34" d="M 2419 4116 
L 825 1625 
L 2419 1625 
L 2419 4116 
z
M 2253 4666 
L 3047 4666 
L 3047 1625 
L 3713 1625 
L 3713 1100 
L 3047 1100 
L 3047 0 
L 2419 0 
L 2419 1100 
L 313 1100 
L 313 1709 
L 2253 4666 
z
" transform="scale(0.015625)"/>
       </defs>
       <use xlink:href="#DejaVuSans-31" transform="translate(0 0.684375)"/>
       <use xlink:href="#DejaVuSans-30" transform="translate(63.623047 0.684375)"/>
       <use xlink:href="#DejaVuSans-34" transform="translate(128.203125 38.965625) scale(0.7)"/>
      </g>
     </g>
    </g>
    <g id="ytick_2">
     <g id="line2d_24">
      <g>
       <use xlink:href="#m52b84cb57d" x="45.478125" y="157.542424" style="stroke: #000000; stroke-width: 0.8"/>
      </g>
     </g>
     <g id="text_6">
      <!-- $\mathdefault{10^{5}}$ -->
      <g transform="translate(20.878125 161.341643) scale(0.1 -0.1)">
       <defs>
        <path id="DejaVuSans-35" d="M 691 4666 
L 3169 4666 
L 3169 4134 
L 1269 4134 
L 1269 2991 
Q 1406 3038 1543 3061 
Q 1681 3084 1819 3084 
Q 2600 3084 3056 2656 
Q 3513 2228 3513 1497 
Q 3513 744 3044 326 
Q 2575 -91 1722 -91 
Q 1428 -91 1123 -41 
Q 819 9 494 109 
L 494 744 
Q 775 591 1075 516 
Q 1375 441 1709 441 
Q 2250 441 2565 725 
Q 2881 1009 2881 1497 
Q 2881 1984 2565 2268 
Q 2250 2553 1709 2553 
Q 1456 2553 1204 2497 
Q 953 2441 691 2322 
L 691 4666 
z
" transform="scale(0.015625)"/>
       </defs>
       <use xlink:href="#DejaVuSans-31" transform="translate(0 0.684375)"/>
       <use xlink:href="#DejaVuSans-30" transform="translate(63.623047 0.684375)"/>
       <use xlink:href="#DejaVuSans-35" transform="translate(128.203125 38.965625) scale(0.7)"/>
      </g>
     </g>
    </g>
    <g id="ytick_3">
     <g id="line2d_25">
      <g>
       <use xlink:href="#m52b84cb57d" x="45.478125" y="21.909001" style="stroke: #000000; stroke-width: 0.8"/>
      </g>
     </g>
     <g id="text_7">
      <!-- $\mathdefault{10^{6}}$ -->
      <g transform="translate(20.878125 25.70822) scale(0.1 -0.1)">
       <defs>
        <path id="DejaVuSans-36" d="M 2113 2584 
Q 1688 2584 1439 2293 
Q 1191 2003 1191 1497 
Q 1191 994 1439 701 
Q 1688 409 2113 409 
Q 2538 409 2786 701 
Q 3034 994 3034 1497 
Q 3034 2003 2786 2293 
Q 2538 2584 2113 2584 
z
M 3366 4563 
L 3366 3988 
Q 3128 4100 2886 4159 
Q 2644 4219 2406 4219 
Q 1781 4219 1451 3797 
Q 1122 3375 1075 2522 
Q 1259 2794 1537 2939 
Q 1816 3084 2150 3084 
Q 2853 3084 3261 2657 
Q 3669 2231 3669 1497 
Q 3669 778 3244 343 
Q 2819 -91 2113 -91 
Q 1303 -91 875 529 
Q 447 1150 447 2328 
Q 447 3434 972 4092 
Q 1497 4750 2381 4750 
Q 2619 4750 2861 4703 
Q 3103 4656 3366 4563 
z
" transform="scale(0.015625)"/>
       </defs>
       <use xlink:href="#DejaVuSans-31" transform="translate(0 0.765625)"/>
       <use xlink:href="#DejaVuSans-30" transform="translate(63.623047 0.765625)"/>
       <use xlink:href="#DejaVuSans-36" transform="translate(128.203125 39.046875) scale(0.7)"/>
      </g>
     </g>
    </g>
    <g id="ytick_4">
     <g id="line2d_26">
      <defs>
       <path id="ma5b566a086" d="M 0 0 
L -2 0 
" style="stroke: #000000; stroke-width: 0.6"/>
      </defs>
      <g>
       <use xlink:href="#ma5b566a086" x="45.478125" y="252.346118" style="stroke: #000000; stroke-width: 0.6"/>
      </g>
     </g>
    </g>
    <g id="ytick_5">
     <g id="line2d_27">
      <g>
       <use xlink:href="#ma5b566a086" x="45.478125" y="228.462258" style="stroke: #000000; stroke-width: 0.6"/>
      </g>
     </g>
    </g>
    <g id="ytick_6">
     <g id="line2d_28">
      <g>
       <use xlink:href="#ma5b566a086" x="45.478125" y="211.516389" style="stroke: #000000; stroke-width: 0.6"/>
      </g>
     </g>
    </g>
    <g id="ytick_7">
     <g id="line2d_29">
      <g>
       <use xlink:href="#ma5b566a086" x="45.478125" y="198.372153" style="stroke: #000000; stroke-width: 0.6"/>
      </g>
     </g>
    </g>
    <g id="ytick_8">
     <g id="line2d_30">
      <g>
       <use xlink:href="#ma5b566a086" x="45.478125" y="187.632529" style="stroke: #000000; stroke-width: 0.6"/>
      </g>
     </g>
    </g>
    <g id="ytick_9">
     <g id="line2d_31">
      <g>
       <use xlink:href="#ma5b566a086" x="45.478125" y="178.552307" style="stroke: #000000; stroke-width: 0.6"/>
      </g>
     </g>
    </g>
    <g id="ytick_10">
     <g id="line2d_32">
      <g>
       <use xlink:href="#ma5b566a086" x="45.478125" y="170.686661" style="stroke: #000000; stroke-width: 0.6"/>
      </g>
     </g>
    </g>
    <g id="ytick_11">
     <g id="line2d_33">
      <g>
       <use xlink:href="#ma5b566a086" x="45.478125" y="163.748669" style="stroke: #000000; stroke-width: 0.6"/>
      </g>
     </g>
    </g>
    <g id="ytick_12">
     <g id="line2d_34">
      <g>
       <use xlink:href="#ma5b566a086" x="45.478125" y="116.712695" style="stroke: #000000; stroke-width: 0.6"/>
      </g>
     </g>
    </g>
    <g id="ytick_13">
     <g id="line2d_35">
      <g>
       <use xlink:href="#ma5b566a086" x="45.478125" y="92.828835" style="stroke: #000000; stroke-width: 0.6"/>
      </g>
     </g>
    </g>
    <g id="ytick_14">
     <g id="line2d_36">
      <g>
       <use xlink:href="#ma5b566a086" x="45.478125" y="75.882967" style="stroke: #000000; stroke-width: 0.6"/>
      </g>
     </g>
    </g>
    <g id="ytick_15">
     <g id="line2d_37">
      <g>
       <use xlink:href="#ma5b566a086" x="45.478125" y="62.73873" style="stroke: #000000; stroke-width: 0.6"/>
      </g>
     </g>
    </g>
    <g id="ytick_16">
     <g id="line2d_38">
      <g>
       <use xlink:href="#ma5b566a086" x="45.478125" y="51.999106" style="stroke: #000000; stroke-width: 0.6"/>
      </g>
     </g>
    </g>
    <g id="ytick_17">
     <g id="line2d_39">
      <g>
       <use xlink:href="#ma5b566a086" x="45.478125" y="42.918884" style="stroke: #000000; stroke-width: 0.6"/>
      </g>
     </g>
    </g>
    <g id="ytick_18">
     <g id="line2d_40">
      <g>
       <use xlink:href="#ma5b566a086" x="45.478125" y="35.053238" style="stroke: #000000; stroke-width: 0.6"/>
      </g>
     </g>
    </g>
    <g id="ytick_19">
     <g id="line2d_41">
      <g>
       <use xlink:href="#ma5b566a086" x="45.478125" y="28.115246" style="stroke: #000000; stroke-width: 0.6"/>
      </g>
     </g>
    </g>
    <g id="text_8">
     <!-- variant count -->
     <g transform="translate(14.798438 184.45625) rotate(-90) scale(0.1 -0.1)">
      <defs>
       <path id="DejaVuSans-76" d="M 191 3500 
L 800 3500 
L 1894 563 
L 2988 3500 
L 3597 3500 
L 2284 0 
L 1503 0 
L 191 3500 
z
" transform="scale(0.015625)"/>
       <path id="DejaVuSans-69" d="M 603 3500 
L 1178 3500 
L 1178 0 
L 603 0 
L 603 3500 
z
M 603 4863 
L 1178 4863 
L 1178 4134 
L 603 4134 
L 603 4863 
z
" transform="scale(0.015625)"/>
       <path id="DejaVuSans-74" d="M 1172 4494 
L 1172 3500 
L 2356 3500 
L 2356 3053 
L 1172 3053 
L 1172 1153 
Q 1172 725 1289 603 
Q 1406 481 1766 481 
L 2356 481 
L 2356 0 
L 1766 0 
Q 1100 0 847 248 
Q 594 497 594 1153 
L 594 3053 
L 172 3053 
L 172 3500 
L 594 3500 
L 594 4494 
L 1172 4494 
z
" transform="scale(0.015625)"/>
       <path id="DejaVuSans-6f" d="M 1959 3097 
Q 1497 3097 1228 2736 
Q 959 2375 959 1747 
Q 959 1119 1226 758 
Q 1494 397 1959 397 
Q 2419 397 2687 759 
Q 2956 1122 2956 1747 
Q 2956 2369 2687 2733 
Q 2419 3097 1959 3097 
z
M 1959 3584 
Q 2709 3584 3137 3096 
Q 3566 2609 3566 1747 
Q 3566 888 3137 398 
Q 2709 -91 1959 -91 
Q 1206 -91 779 398 
Q 353 888 353 1747 
Q 353 2609 779 3096 
Q 1206 3584 1959 3584 
z
" transform="scale(0.015625)"/>
      </defs>
      <use xlink:href="#DejaVuSans-76"/>
      <use xlink:href="#DejaVuSans-61" transform="translate(59.179688 0)"/>
      <use xlink:href="#DejaVuSans-72" transform="translate(120.458984 0)"/>
      <use xlink:href="#DejaVuSans-69" transform="translate(161.572266 0)"/>
      <use xlink:href="#DejaVuSans-61" transform="translate(189.355469 0)"/>
      <use xlink:href="#DejaVuSans-6e" transform="translate(250.634766 0)"/>
      <use xlink:href="#DejaVuSans-74" transform="translate(314.013672 0)"/>
      <use xlink:href="#DejaVuSans-20" transform="translate(353.222656 0)"/>
      <use xlink:href="#DejaVuSans-63" transform="translate(385.009766 0)"/>
      <use xlink:href="#DejaVuSans-6f" transform="translate(439.990234 0)"/>
      <use xlink:href="#DejaVuSans-75" transform="translate(501.171875 0)"/>
      <use xlink:href="#DejaVuSans-6e" transform="translate(564.550781 0)"/>
      <use xlink:href="#DejaVuSans-74" transform="translate(627.929688 0)"/>
     </g>
    </g>
   </g>
   <g id="line2d_42">
    <defs>
     <path id="mfcab87be0a" d="M 0 1.5 
C 0.397805 1.5 0.77937 1.341951 1.06066 1.06066 
C 1.341951 0.77937 1.5 0.397805 1.5 0 
C 1.5 -0.397805 1.341951 -0.77937 1.06066 -1.06066 
C 0.77937 -1.341951 0.397805 -1.5 0 -1.5 
C -0.397805 -1.5 -0.77937 -1.341951 -1.06066 -1.06066 
C -1.341951 -0.77937 -1.5 -0.397805 -1.5 0 
C -1.5 0.397805 -1.341951 0.77937 -1.06066 1.06066 
C -0.77937 1.341951 -0.397805 1.5 0 1.5 
z
" style="stroke: #1f77b4"/>
    </defs>
    <g clip-path="url(#p9bd9cf7a9d)">
     <use xlink:href="#mfcab87be0a" x="52.982781" y="20.391076" style="fill: #1f77b4; stroke: #1f77b4"/>
     <use xlink:href="#mfcab87be0a" x="72.637159" y="70.917571" style="fill: #1f77b4; stroke: #1f77b4"/>
     <use xlink:href="#mfcab87be0a" x="84.134234" y="92.173739" style="fill: #1f77b4; stroke: #1f77b4"/>
     <use xlink:href="#mfcab87be0a" x="92.291538" y="103.925085" style="fill: #1f77b4; stroke: #1f77b4"/>
     <use xlink:href="#mfcab87be0a" x="98.618834" y="111.803635" style="fill: #1f77b4; stroke: #1f77b4"/>
     <use xlink:href="#mfcab87be0a" x="103.788612" y="118.404351" style="fill: #1f77b4; stroke: #1f77b4"/>
     <use xlink:href="#mfcab87be0a" x="108.159597" y="123.647631" style="fill: #1f77b4; stroke: #1f77b4"/>
     <use xlink:href="#mfcab87be0a" x="111.945916" y="128.196968" style="fill: #1f77b4; stroke: #1f77b4"/>
     <use xlink:href="#mfcab87be0a" x="115.285687" y="132.815609" style="fill: #1f77b4; stroke: #1f77b4"/>
     <use xlink:href="#mfcab87be0a" x="118.273213" y="136.032914" style="fill: #1f77b4; stroke: #1f77b4"/>
     <use xlink:href="#mfcab87be0a" x="120.975759" y="139.653132" style="fill: #1f77b4; stroke: #1f77b4"/>
     <use xlink:href="#mfcab87be0a" x="123.442991" y="143.100194" style="fill: #1f77b4; stroke: #1f77b4"/>
     <use xlink:href="#mfcab87be0a" x="125.712624" y="146.389466" style="fill: #1f77b4; stroke: #1f77b4"/>
     <use xlink:href="#mfcab87be0a" x="127.813976" y="149.552546" style="fill: #1f77b4; stroke: #1f77b4"/>
     <use xlink:href="#mfcab87be0a" x="129.770288" y="152.072955" style="fill: #1f77b4; stroke: #1f77b4"/>
     <use xlink:href="#mfcab87be0a" x="131.600295" y="154.750971" style="fill: #1f77b4; stroke: #1f77b4"/>
     <use xlink:href="#mfcab87be0a" x="133.319323" y="157.590746" style="fill: #1f77b4; stroke: #1f77b4"/>
     <use xlink:href="#mfcab87be0a" x="134.940065" y="160.309556" style="fill: #1f77b4; stroke: #1f77b4"/>
     <use xlink:href="#mfcab87be0a" x="136.473156" y="162.593749" style="fill: #1f77b4; stroke: #1f77b4"/>
     <use xlink:href="#mfcab87be0a" x="137.927592" y="165.552311" style="fill: #1f77b4; stroke: #1f77b4"/>
     <use xlink:href="#mfcab87be0a" x="139.31105" y="167.569852" style="fill: #1f77b4; stroke: #1f77b4"/>
     <use xlink:href="#mfcab87be0a" x="140.630138" y="169.961459" style="fill: #1f77b4; stroke: #1f77b4"/>
     <use xlink:href="#mfcab87be0a" x="141.89058" y="172.188576" style="fill: #1f77b4; stroke: #1f77b4"/>
     <use xlink:href="#mfcab87be0a" x="143.09737" y="174.055561" style="fill: #1f77b4; stroke: #1f77b4"/>
     <use xlink:href="#mfcab87be0a" x="144.254888" y="176.504761" style="fill: #1f77b4; stroke: #1f77b4"/>
     <use xlink:href="#mfcab87be0a" x="145.367002" y="178.23675" style="fill: #1f77b4; stroke: #1f77b4"/>
     <use xlink:href="#mfcab87be0a" x="146.43714" y="180.247687" style="fill: #1f77b4; stroke: #1f77b4"/>
     <use xlink:href="#mfcab87be0a" x="147.468354" y="181.818717" style="fill: #1f77b4; stroke: #1f77b4"/>
     <use xlink:href="#mfcab87be0a" x="148.463378" y="183.758232" style="fill: #1f77b4; stroke: #1f77b4"/>
     <use xlink:href="#mfcab87be0a" x="149.424666" y="185.623195" style="fill: #1f77b4; stroke: #1f77b4"/>
     <use xlink:href="#mfcab87be0a" x="150.354431" y="187.183622" style="fill: #1f77b4; stroke: #1f77b4"/>
     <use xlink:href="#mfcab87be0a" x="151.254674" y="189.259962" style="fill: #1f77b4; stroke: #1f77b4"/>
     <use xlink:href="#mfcab87be0a" x="152.127212" y="190.522855" style="fill: #1f77b4; stroke: #1f77b4"/>
     <use xlink:href="#mfcab87be0a" x="152.973701" y="192.532373" style="fill: #1f77b4; stroke: #1f77b4"/>
     <use xlink:href="#mfcab87be0a" x="153.795651" y="194.500245" style="fill: #1f77b4; stroke: #1f77b4"/>
     <use xlink:href="#mfcab87be0a" x="154.594444" y="195.463404" style="fill: #1f77b4; stroke: #1f77b4"/>
     <use xlink:href="#mfcab87be0a" x="155.371349" y="196.89006" style="fill: #1f77b4; stroke: #1f77b4"/>
     <use xlink:href="#mfcab87be0a" x="156.127535" y="198.374509" style="fill: #1f77b4; stroke: #1f77b4"/>
     <use xlink:href="#mfcab87be0a" x="156.864077" y="199.956607" style="fill: #1f77b4; stroke: #1f77b4"/>
     <use xlink:href="#mfcab87be0a" x="157.58197" y="201.143607" style="fill: #1f77b4; stroke: #1f77b4"/>
     <use xlink:href="#mfcab87be0a" x="158.282136" y="202.832158" style="fill: #1f77b4; stroke: #1f77b4"/>
     <use xlink:href="#mfcab87be0a" x="158.965429" y="204.154503" style="fill: #1f77b4; stroke: #1f77b4"/>
     <use xlink:href="#mfcab87be0a" x="159.632643" y="205.309408" style="fill: #1f77b4; stroke: #1f77b4"/>
     <use xlink:href="#mfcab87be0a" x="160.284517" y="207.003468" style="fill: #1f77b4; stroke: #1f77b4"/>
     <use xlink:href="#mfcab87be0a" x="160.921741" y="208.299799" style="fill: #1f77b4; stroke: #1f77b4"/>
     <use xlink:href="#mfcab87be0a" x="161.544959" y="209.650977" style="fill: #1f77b4; stroke: #1f77b4"/>
     <use xlink:href="#mfcab87be0a" x="162.154773" y="210.666951" style="fill: #1f77b4; stroke: #1f77b4"/>
     <use xlink:href="#mfcab87be0a" x="162.751748" y="212.254358" style="fill: #1f77b4; stroke: #1f77b4"/>
     <use xlink:href="#mfcab87be0a" x="163.336414" y="213.202893" style="fill: #1f77b4; stroke: #1f77b4"/>
     <use xlink:href="#mfcab87be0a" x="163.909267" y="214.576579" style="fill: #1f77b4; stroke: #1f77b4"/>
     <use xlink:href="#mfcab87be0a" x="164.470776" y="215.043771" style="fill: #1f77b4; stroke: #1f77b4"/>
     <use xlink:href="#mfcab87be0a" x="165.021381" y="216.209085" style="fill: #1f77b4; stroke: #1f77b4"/>
     <use xlink:href="#mfcab87be0a" x="165.561498" y="217.526611" style="fill: #1f77b4; stroke: #1f77b4"/>
     <use xlink:href="#mfcab87be0a" x="166.091518" y="218.322912" style="fill: #1f77b4; stroke: #1f77b4"/>
     <use xlink:href="#mfcab87be0a" x="166.611813" y="219.931565" style="fill: #1f77b4; stroke: #1f77b4"/>
     <use xlink:href="#mfcab87be0a" x="167.122733" y="221.073952" style="fill: #1f77b4; stroke: #1f77b4"/>
     <use xlink:href="#mfcab87be0a" x="167.624609" y="221.907739" style="fill: #1f77b4; stroke: #1f77b4"/>
     <use xlink:href="#mfcab87be0a" x="168.117757" y="223.066199" style="fill: #1f77b4; stroke: #1f77b4"/>
     <use xlink:href="#mfcab87be0a" x="168.602474" y="223.597112" style="fill: #1f77b4; stroke: #1f77b4"/>
     <use xlink:href="#mfcab87be0a" x="169.079045" y="224.333876" style="fill: #1f77b4; stroke: #1f77b4"/>
     <use xlink:href="#mfcab87be0a" x="169.547738" y="225.871329" style="fill: #1f77b4; stroke: #1f77b4"/>
     <use xlink:href="#mfcab87be0a" x="170.008809" y="226.344857" style="fill: #1f77b4; stroke: #1f77b4"/>
     <use xlink:href="#mfcab87be0a" x="170.462503" y="227.363201" style="fill: #1f77b4; stroke: #1f77b4"/>
     <use xlink:href="#mfcab87be0a" x="170.909052" y="228.866156" style="fill: #1f77b4; stroke: #1f77b4"/>
     <use xlink:href="#mfcab87be0a" x="171.348678" y="229.560203" style="fill: #1f77b4; stroke: #1f77b4"/>
     <use xlink:href="#mfcab87be0a" x="171.781591" y="230.036225" style="fill: #1f77b4; stroke: #1f77b4"/>
     <use xlink:href="#mfcab87be0a" x="172.207994" y="231.147747" style="fill: #1f77b4; stroke: #1f77b4"/>
     <use xlink:href="#mfcab87be0a" x="172.62808" y="232.054822" style="fill: #1f77b4; stroke: #1f77b4"/>
     <use xlink:href="#mfcab87be0a" x="173.042033" y="233.063062" style="fill: #1f77b4; stroke: #1f77b4"/>
     <use xlink:href="#mfcab87be0a" x="173.45003" y="233.744223" style="fill: #1f77b4; stroke: #1f77b4"/>
     <use xlink:href="#mfcab87be0a" x="173.852239" y="233.847403" style="fill: #1f77b4; stroke: #1f77b4"/>
     <use xlink:href="#mfcab87be0a" x="174.248823" y="235.309018" style="fill: #1f77b4; stroke: #1f77b4"/>
     <use xlink:href="#mfcab87be0a" x="174.639936" y="235.956574" style="fill: #1f77b4; stroke: #1f77b4"/>
     <use xlink:href="#mfcab87be0a" x="175.025728" y="236.968671" style="fill: #1f77b4; stroke: #1f77b4"/>
     <use xlink:href="#mfcab87be0a" x="175.406341" y="238.178805" style="fill: #1f77b4; stroke: #1f77b4"/>
     <use xlink:href="#mfcab87be0a" x="175.781913" y="238.222818" style="fill: #1f77b4; stroke: #1f77b4"/>
     <use xlink:href="#mfcab87be0a" x="176.152576" y="239.653642" style="fill: #1f77b4; stroke: #1f77b4"/>
     <use xlink:href="#mfcab87be0a" x="176.518456" y="239.622784" style="fill: #1f77b4; stroke: #1f77b4"/>
     <use xlink:href="#mfcab87be0a" x="176.879674" y="240.4304" style="fill: #1f77b4; stroke: #1f77b4"/>
     <use xlink:href="#mfcab87be0a" x="177.236349" y="241.368901" style="fill: #1f77b4; stroke: #1f77b4"/>
     <use xlink:href="#mfcab87be0a" x="177.588593" y="241.680172" style="fill: #1f77b4; stroke: #1f77b4"/>
     <use xlink:href="#mfcab87be0a" x="177.936515" y="242.62148" style="fill: #1f77b4; stroke: #1f77b4"/>
     <use xlink:href="#mfcab87be0a" x="178.280219" y="243.092802" style="fill: #1f77b4; stroke: #1f77b4"/>
     <use xlink:href="#mfcab87be0a" x="178.619807" y="244.393284" style="fill: #1f77b4; stroke: #1f77b4"/>
     <use xlink:href="#mfcab87be0a" x="178.955377" y="245.340098" style="fill: #1f77b4; stroke: #1f77b4"/>
     <use xlink:href="#mfcab87be0a" x="179.287021" y="245.944633" style="fill: #1f77b4; stroke: #1f77b4"/>
     <use xlink:href="#mfcab87be0a" x="179.614831" y="246.267835" style="fill: #1f77b4; stroke: #1f77b4"/>
     <use xlink:href="#mfcab87be0a" x="179.938895" y="246.951851" style="fill: #1f77b4; stroke: #1f77b4"/>
     <use xlink:href="#mfcab87be0a" x="180.259297" y="247.315787" style="fill: #1f77b4; stroke: #1f77b4"/>
     <use xlink:href="#mfcab87be0a" x="180.576119" y="248.357943" style="fill: #1f77b4; stroke: #1f77b4"/>
     <use xlink:href="#mfcab87be0a" x="180.88944" y="248.184795" style="fill: #1f77b4; stroke: #1f77b4"/>
     <use xlink:href="#mfcab87be0a" x="181.199337" y="249.640681" style="fill: #1f77b4; stroke: #1f77b4"/>
     <use xlink:href="#mfcab87be0a" x="181.505884" y="250.052822" style="fill: #1f77b4; stroke: #1f77b4"/>
     <use xlink:href="#mfcab87be0a" x="181.809152" y="250.533518" style="fill: #1f77b4; stroke: #1f77b4"/>
     <use xlink:href="#mfcab87be0a" x="182.10921" y="251.65511" style="fill: #1f77b4; stroke: #1f77b4"/>
     <use xlink:href="#mfcab87be0a" x="182.406127" y="251.344465" style="fill: #1f77b4; stroke: #1f77b4"/>
     <use xlink:href="#mfcab87be0a" x="182.699966" y="252.623623" style="fill: #1f77b4; stroke: #1f77b4"/>
     <use xlink:href="#mfcab87be0a" x="182.990792" y="252.602913" style="fill: #1f77b4; stroke: #1f77b4"/>
     <use xlink:href="#mfcab87be0a" x="183.278666" y="253.674564" style="fill: #1f77b4; stroke: #1f77b4"/>
     <use xlink:href="#mfcab87be0a" x="183.563646" y="254.353241" style="fill: #1f77b4; stroke: #1f77b4"/>
     <use xlink:href="#mfcab87be0a" x="183.84579" y="254.612835" style="fill: #1f77b4; stroke: #1f77b4"/>
     <use xlink:href="#mfcab87be0a" x="184.125155" y="255.404757" style="fill: #1f77b4; stroke: #1f77b4"/>
     <use xlink:href="#mfcab87be0a" x="184.401794" y="255.321056" style="fill: #1f77b4; stroke: #1f77b4"/>
     <use xlink:href="#mfcab87be0a" x="184.67576" y="256.361766" style="fill: #1f77b4; stroke: #1f77b4"/>
     <use xlink:href="#mfcab87be0a" x="184.947104" y="256.39015" style="fill: #1f77b4; stroke: #1f77b4"/>
     <use xlink:href="#mfcab87be0a" x="185.215876" y="256.909781" style="fill: #1f77b4; stroke: #1f77b4"/>
     <use xlink:href="#mfcab87be0a" x="185.482125" y="257.337787" style="fill: #1f77b4; stroke: #1f77b4"/>
     <use xlink:href="#mfcab87be0a" x="185.745897" y="258.768744" style="fill: #1f77b4; stroke: #1f77b4"/>
     <use xlink:href="#mfcab87be0a" x="186.007238" y="259.091512" style="fill: #1f77b4; stroke: #1f77b4"/>
     <use xlink:href="#mfcab87be0a" x="186.266192" y="260.070562" style="fill: #1f77b4; stroke: #1f77b4"/>
     <use xlink:href="#mfcab87be0a" x="186.522802" y="259.515766" style="fill: #1f77b4; stroke: #1f77b4"/>
     <use xlink:href="#mfcab87be0a" x="186.777112" y="260.650977" style="fill: #1f77b4; stroke: #1f77b4"/>
     <use xlink:href="#mfcab87be0a" x="187.02916" y="260.844592" style="fill: #1f77b4; stroke: #1f77b4"/>
     <use xlink:href="#mfcab87be0a" x="187.278988" y="261.518697" style="fill: #1f77b4; stroke: #1f77b4"/>
     <use xlink:href="#mfcab87be0a" x="187.526634" y="262.298171" style="fill: #1f77b4; stroke: #1f77b4"/>
     <use xlink:href="#mfcab87be0a" x="187.772136" y="262.263308" style="fill: #1f77b4; stroke: #1f77b4"/>
     <use xlink:href="#mfcab87be0a" x="188.01553" y="262.711122" style="fill: #1f77b4; stroke: #1f77b4"/>
     <use xlink:href="#mfcab87be0a" x="188.256853" y="263.410612" style="fill: #1f77b4; stroke: #1f77b4"/>
     <use xlink:href="#mfcab87be0a" x="188.496139" y="263.513764" style="fill: #1f77b4; stroke: #1f77b4"/>
     <use xlink:href="#mfcab87be0a" x="188.733423" y="264.154488" style="fill: #1f77b4; stroke: #1f77b4"/>
     <use xlink:href="#mfcab87be0a" x="188.968738" y="264.758608" style="fill: #1f77b4; stroke: #1f77b4"/>
     <use xlink:href="#mfcab87be0a" x="189.202116" y="265.785618" style="fill: #1f77b4; stroke: #1f77b4"/>
     <use xlink:href="#mfcab87be0a" x="189.433589" y="265.497718" style="fill: #1f77b4; stroke: #1f77b4"/>
     <use xlink:href="#mfcab87be0a" x="189.663188" y="265.833738" style="fill: #1f77b4; stroke: #1f77b4"/>
     <use xlink:href="#mfcab87be0a" x="189.890942" y="266.947723" style="fill: #1f77b4; stroke: #1f77b4"/>
     <use xlink:href="#mfcab87be0a" x="190.116882" y="266.384359" style="fill: #1f77b4; stroke: #1f77b4"/>
     <use xlink:href="#mfcab87be0a" x="190.341035" y="267.55083" style="fill: #1f77b4; stroke: #1f77b4"/>
     <use xlink:href="#mfcab87be0a" x="190.563431" y="267.501287" style="fill: #1f77b4; stroke: #1f77b4"/>
     <use xlink:href="#mfcab87be0a" x="190.784096" y="267.737945" style="fill: #1f77b4; stroke: #1f77b4"/>
     <use xlink:href="#mfcab87be0a" x="191.003056" y="268.96304" style="fill: #1f77b4; stroke: #1f77b4"/>
     <use xlink:href="#mfcab87be0a" x="191.220339" y="268.310606" style="fill: #1f77b4; stroke: #1f77b4"/>
     <use xlink:href="#mfcab87be0a" x="191.43597" y="269.42172" style="fill: #1f77b4; stroke: #1f77b4"/>
     <use xlink:href="#mfcab87be0a" x="191.649973" y="269.417784" style="fill: #1f77b4; stroke: #1f77b4"/>
     <use xlink:href="#mfcab87be0a" x="191.862373" y="270.83168" style="fill: #1f77b4; stroke: #1f77b4"/>
     <use xlink:href="#mfcab87be0a" x="192.073194" y="270.622441" style="fill: #1f77b4; stroke: #1f77b4"/>
     <use xlink:href="#mfcab87be0a" x="192.282459" y="271.766181" style="fill: #1f77b4; stroke: #1f77b4"/>
     <use xlink:href="#mfcab87be0a" x="192.490191" y="271.520966" style="fill: #1f77b4; stroke: #1f77b4"/>
     <use xlink:href="#mfcab87be0a" x="192.696412" y="271.950766" style="fill: #1f77b4; stroke: #1f77b4"/>
     <use xlink:href="#mfcab87be0a" x="192.901144" y="272.412702" style="fill: #1f77b4; stroke: #1f77b4"/>
     <use xlink:href="#mfcab87be0a" x="193.104408" y="272.537053" style="fill: #1f77b4; stroke: #1f77b4"/>
     <use xlink:href="#mfcab87be0a" x="193.306226" y="272.694941" style="fill: #1f77b4; stroke: #1f77b4"/>
     <use xlink:href="#mfcab87be0a" x="193.506617" y="273.621671" style="fill: #1f77b4; stroke: #1f77b4"/>
     <use xlink:href="#mfcab87be0a" x="193.705603" y="273.63858" style="fill: #1f77b4; stroke: #1f77b4"/>
     <use xlink:href="#mfcab87be0a" x="193.903201" y="273.70203" style="fill: #1f77b4; stroke: #1f77b4"/>
     <use xlink:href="#mfcab87be0a" x="194.099432" y="274.404528" style="fill: #1f77b4; stroke: #1f77b4"/>
     <use xlink:href="#mfcab87be0a" x="194.294315" y="274.49883" style="fill: #1f77b4; stroke: #1f77b4"/>
     <use xlink:href="#mfcab87be0a" x="194.487867" y="274.53316" style="fill: #1f77b4; stroke: #1f77b4"/>
     <use xlink:href="#mfcab87be0a" x="194.680107" y="276.452765" style="fill: #1f77b4; stroke: #1f77b4"/>
     <use xlink:href="#mfcab87be0a" x="194.871052" y="275.489506" style="fill: #1f77b4; stroke: #1f77b4"/>
     <use xlink:href="#mfcab87be0a" x="195.06072" y="276.737265" style="fill: #1f77b4; stroke: #1f77b4"/>
     <use xlink:href="#mfcab87be0a" x="195.249128" y="275.515687" style="fill: #1f77b4; stroke: #1f77b4"/>
     <use xlink:href="#mfcab87be0a" x="195.436292" y="275.63365" style="fill: #1f77b4; stroke: #1f77b4"/>
     <use xlink:href="#mfcab87be0a" x="195.622229" y="276.342004" style="fill: #1f77b4; stroke: #1f77b4"/>
     <use xlink:href="#mfcab87be0a" x="195.806955" y="277.540352" style="fill: #1f77b4; stroke: #1f77b4"/>
     <use xlink:href="#mfcab87be0a" x="195.990484" y="276.514882" style="fill: #1f77b4; stroke: #1f77b4"/>
     <use xlink:href="#mfcab87be0a" x="196.172834" y="277.278933" style="fill: #1f77b4; stroke: #1f77b4"/>
     <use xlink:href="#mfcab87be0a" x="196.354019" y="277.599106" style="fill: #1f77b4; stroke: #1f77b4"/>
     <use xlink:href="#mfcab87be0a" x="196.534053" y="278.620787" style="fill: #1f77b4; stroke: #1f77b4"/>
     <use xlink:href="#mfcab87be0a" x="196.712951" y="278.043913" style="fill: #1f77b4; stroke: #1f77b4"/>
     <use xlink:href="#mfcab87be0a" x="196.890728" y="278.957612" style="fill: #1f77b4; stroke: #1f77b4"/>
     <use xlink:href="#mfcab87be0a" x="197.067396" y="277.930122" style="fill: #1f77b4; stroke: #1f77b4"/>
     <use xlink:href="#mfcab87be0a" x="197.242972" y="279.552897" style="fill: #1f77b4; stroke: #1f77b4"/>
     <use xlink:href="#mfcab87be0a" x="197.417466" y="279.543549" style="fill: #1f77b4; stroke: #1f77b4"/>
     <use xlink:href="#mfcab87be0a" x="197.590893" y="279.208014" style="fill: #1f77b4; stroke: #1f77b4"/>
     <use xlink:href="#mfcab87be0a" x="197.763266" y="279.273108" style="fill: #1f77b4; stroke: #1f77b4"/>
     <use xlink:href="#mfcab87be0a" x="197.934598" y="279.772997" style="fill: #1f77b4; stroke: #1f77b4"/>
     <use xlink:href="#mfcab87be0a" x="198.1049" y="279.646456" style="fill: #1f77b4; stroke: #1f77b4"/>
     <use xlink:href="#mfcab87be0a" x="198.274186" y="280.400328" style="fill: #1f77b4; stroke: #1f77b4"/>
     <use xlink:href="#mfcab87be0a" x="198.442467" y="280.277165" style="fill: #1f77b4; stroke: #1f77b4"/>
     <use xlink:href="#mfcab87be0a" x="198.609755" y="280.30083" style="fill: #1f77b4; stroke: #1f77b4"/>
     <use xlink:href="#mfcab87be0a" x="198.776062" y="280.962556" style="fill: #1f77b4; stroke: #1f77b4"/>
     <use xlink:href="#mfcab87be0a" x="198.9414" y="280.599828" style="fill: #1f77b4; stroke: #1f77b4"/>
     <use xlink:href="#mfcab87be0a" x="199.105779" y="279.871606" style="fill: #1f77b4; stroke: #1f77b4"/>
     <use xlink:href="#mfcab87be0a" x="199.26921" y="279.942143" style="fill: #1f77b4; stroke: #1f77b4"/>
     <use xlink:href="#mfcab87be0a" x="199.431705" y="280.485745" style="fill: #1f77b4; stroke: #1f77b4"/>
     <use xlink:href="#mfcab87be0a" x="199.593274" y="281.07277" style="fill: #1f77b4; stroke: #1f77b4"/>
     <use xlink:href="#mfcab87be0a" x="199.753927" y="281.622116" style="fill: #1f77b4; stroke: #1f77b4"/>
     <use xlink:href="#mfcab87be0a" x="199.913676" y="280.881225" style="fill: #1f77b4; stroke: #1f77b4"/>
     <use xlink:href="#mfcab87be0a" x="200.072529" y="281.154366" style="fill: #1f77b4; stroke: #1f77b4"/>
     <use xlink:href="#mfcab87be0a" x="200.230498" y="281.544705" style="fill: #1f77b4; stroke: #1f77b4"/>
     <use xlink:href="#mfcab87be0a" x="200.387591" y="281.039205" style="fill: #1f77b4; stroke: #1f77b4"/>
     <use xlink:href="#mfcab87be0a" x="200.543819" y="280.59507" style="fill: #1f77b4; stroke: #1f77b4"/>
     <use xlink:href="#mfcab87be0a" x="200.699191" y="280.828659" style="fill: #1f77b4; stroke: #1f77b4"/>
     <use xlink:href="#mfcab87be0a" x="200.853716" y="280.948195" style="fill: #1f77b4; stroke: #1f77b4"/>
     <use xlink:href="#mfcab87be0a" x="201.007403" y="279.815238" style="fill: #1f77b4; stroke: #1f77b4"/>
     <use xlink:href="#mfcab87be0a" x="201.160262" y="280.291363" style="fill: #1f77b4; stroke: #1f77b4"/>
     <use xlink:href="#mfcab87be0a" x="201.312302" y="280.433531" style="fill: #1f77b4; stroke: #1f77b4"/>
     <use xlink:href="#mfcab87be0a" x="201.46353" y="278.708269" style="fill: #1f77b4; stroke: #1f77b4"/>
     <use xlink:href="#mfcab87be0a" x="201.613956" y="278.948358" style="fill: #1f77b4; stroke: #1f77b4"/>
     <use xlink:href="#mfcab87be0a" x="201.763589" y="277.585542" style="fill: #1f77b4; stroke: #1f77b4"/>
     <use xlink:href="#mfcab87be0a" x="201.912436" y="277.513255" style="fill: #1f77b4; stroke: #1f77b4"/>
     <use xlink:href="#mfcab87be0a" x="202.060505" y="276.674913" style="fill: #1f77b4; stroke: #1f77b4"/>
     <use xlink:href="#mfcab87be0a" x="202.207806" y="275.184907" style="fill: #1f77b4; stroke: #1f77b4"/>
     <use xlink:href="#mfcab87be0a" x="202.354345" y="274.041589" style="fill: #1f77b4; stroke: #1f77b4"/>
     <use xlink:href="#mfcab87be0a" x="202.500131" y="272.71991" style="fill: #1f77b4; stroke: #1f77b4"/>
     <use xlink:href="#mfcab87be0a" x="202.645171" y="269.935589" style="fill: #1f77b4; stroke: #1f77b4"/>
     <use xlink:href="#mfcab87be0a" x="202.789473" y="265.900431" style="fill: #1f77b4; stroke: #1f77b4"/>
     <use xlink:href="#mfcab87be0a" x="202.933044" y="257.254498" style="fill: #1f77b4; stroke: #1f77b4"/>
     <use xlink:href="#mfcab87be0a" x="203.075892" y="227.272692" style="fill: #1f77b4; stroke: #1f77b4"/>
    </g>
   </g>
   <g id="line2d_43">
    <path d="M 52.982781 20.39569 
L 72.637159 70.876041 
L 84.134234 92.14412 
L 92.291538 103.852435 
L 98.618834 111.907859 
L 115.285687 132.440595 
L 120.975759 139.895943 
L 125.712624 146.449383 
L 129.770288 152.366103 
L 134.940065 160.360551 
L 139.31105 167.543922 
L 144.254888 176.139776 
L 149.424666 185.629 
L 155.371349 197.076452 
L 162.751748 211.832033 
L 189.202116 265.226966 
L 193.104408 272.457264 
L 195.436292 276.365689 
L 197.067396 278.708284 
L 198.274186 280.057071 
L 199.105779 280.669107 
L 199.753927 280.870226 
L 200.230498 280.797938 
L 200.699191 280.472834 
L 201.160262 279.804831 
L 201.613956 278.633179 
L 202.060505 276.60914 
L 202.354345 274.339227 
L 202.645171 270.200913 
L 202.789473 266.081868 
L 202.933044 256.967459 
L 203.075892 227.44752 
L 203.075892 227.44752 
" clip-path="url(#p9bd9cf7a9d)" style="fill: none; stroke: #ff7f0e; stroke-width: 1.5; stroke-linecap: square"/>
   </g>
   <g id="patch_3">
    <path d="M 45.478125 295 
L 45.478125 7.2 
" style="fill: none; stroke: #000000; stroke-width: 0.8; stroke-linejoin: miter; stroke-linecap: square"/>
   </g>
   <g id="patch_4">
    <path d="M 210.580548 295 
L 210.580548 7.2 
" style="fill: none; stroke: #000000; stroke-width: 0.8; stroke-linejoin: miter; stroke-linecap: square"/>
   </g>
   <g id="patch_5">
    <path d="M 45.478125 295 
L 210.580548 295 
" style="fill: none; stroke: #000000; stroke-width: 0.8; stroke-linejoin: miter; stroke-linecap: square"/>
   </g>
   <g id="patch_6">
    <path d="M 45.478125 7.2 
L 210.580548 7.2 
" style="fill: none; stroke: #000000; stroke-width: 0.8; stroke-linejoin: miter; stroke-linecap: square"/>
   </g>
  </g>
  <g id="axes_2">
   <g id="patch_7">
    <path d="M 280.438203 295 
L 445.540626 295 
L 445.540626 7.2 
L 280.438203 7.2 
z
" style="fill: #ffffff"/>
   </g>
   <g id="matplotlib.axis_3">
    <g id="xtick_23">
     <g id="line2d_44">
      <g>
       <use xlink:href="#meaa8e2943a" x="315.3729" y="295" style="stroke: #000000; stroke-width: 0.8"/>
      </g>
     </g>
     <g id="text_9">
      <!-- $\mathdefault{10^{1}}$ -->
      <g transform="translate(306.5729 309.598437) scale(0.1 -0.1)">
       <use xlink:href="#DejaVuSans-31" transform="translate(0 0.684375)"/>
       <use xlink:href="#DejaVuSans-30" transform="translate(63.623047 0.684375)"/>
       <use xlink:href="#DejaVuSans-31" transform="translate(128.203125 38.965625) scale(0.7)"/>
      </g>
     </g>
    </g>
    <g id="xtick_24">
     <g id="line2d_45">
      <g>
       <use xlink:href="#meaa8e2943a" x="370.232983" y="295" style="stroke: #000000; stroke-width: 0.8"/>
      </g>
     </g>
     <g id="text_10">
      <!-- $\mathdefault{10^{3}}$ -->
      <g transform="translate(361.432983 309.598437) scale(0.1 -0.1)">
       <defs>
        <path id="DejaVuSans-33" d="M 2597 2516 
Q 3050 2419 3304 2112 
Q 3559 1806 3559 1356 
Q 3559 666 3084 287 
Q 2609 -91 1734 -91 
Q 1441 -91 1130 -33 
Q 819 25 488 141 
L 488 750 
Q 750 597 1062 519 
Q 1375 441 1716 441 
Q 2309 441 2620 675 
Q 2931 909 2931 1356 
Q 2931 1769 2642 2001 
Q 2353 2234 1838 2234 
L 1294 2234 
L 1294 2753 
L 1863 2753 
Q 2328 2753 2575 2939 
Q 2822 3125 2822 3475 
Q 2822 3834 2567 4026 
Q 2313 4219 1838 4219 
Q 1578 4219 1281 4162 
Q 984 4106 628 3988 
L 628 4550 
Q 988 4650 1302 4700 
Q 1616 4750 1894 4750 
Q 2613 4750 3031 4423 
Q 3450 4097 3450 3541 
Q 3450 3153 3228 2886 
Q 3006 2619 2597 2516 
z
" transform="scale(0.015625)"/>
       </defs>
       <use xlink:href="#DejaVuSans-31" transform="translate(0 0.765625)"/>
       <use xlink:href="#DejaVuSans-30" transform="translate(63.623047 0.765625)"/>
       <use xlink:href="#DejaVuSans-33" transform="translate(128.203125 39.046875) scale(0.7)"/>
      </g>
     </g>
    </g>
    <g id="xtick_25">
     <g id="line2d_46">
      <g>
       <use xlink:href="#meaa8e2943a" x="425.093066" y="295" style="stroke: #000000; stroke-width: 0.8"/>
      </g>
     </g>
     <g id="text_11">
      <!-- $\mathdefault{10^{5}}$ -->
      <g transform="translate(416.293066 309.598437) scale(0.1 -0.1)">
       <use xlink:href="#DejaVuSans-31" transform="translate(0 0.684375)"/>
       <use xlink:href="#DejaVuSans-30" transform="translate(63.623047 0.684375)"/>
       <use xlink:href="#DejaVuSans-35" transform="translate(128.203125 38.965625) scale(0.7)"/>
      </g>
     </g>
    </g>
    <g id="text_12">
     <!-- $t$ (generations ago) -->
     <g transform="translate(314.839415 323.278125) scale(0.1 -0.1)">
      <defs>
       <path id="DejaVuSans-Oblique-74" d="M 2706 3500 
L 2619 3053 
L 1472 3053 
L 1100 1153 
Q 1081 1047 1072 975 
Q 1063 903 1063 863 
Q 1063 663 1183 572 
Q 1303 481 1569 481 
L 2150 481 
L 2053 0 
L 1503 0 
Q 991 0 739 200 
Q 488 400 488 806 
Q 488 878 497 964 
Q 506 1050 525 1153 
L 897 3053 
L 409 3053 
L 500 3500 
L 978 3500 
L 1172 4494 
L 1747 4494 
L 1556 3500 
L 2706 3500 
z
" transform="scale(0.015625)"/>
       <path id="DejaVuSans-28" d="M 1984 4856 
Q 1566 4138 1362 3434 
Q 1159 2731 1159 2009 
Q 1159 1288 1364 580 
Q 1569 -128 1984 -844 
L 1484 -844 
Q 1016 -109 783 600 
Q 550 1309 550 2009 
Q 550 2706 781 3412 
Q 1013 4119 1484 4856 
L 1984 4856 
z
" transform="scale(0.015625)"/>
       <path id="DejaVuSans-67" d="M 2906 1791 
Q 2906 2416 2648 2759 
Q 2391 3103 1925 3103 
Q 1463 3103 1205 2759 
Q 947 2416 947 1791 
Q 947 1169 1205 825 
Q 1463 481 1925 481 
Q 2391 481 2648 825 
Q 2906 1169 2906 1791 
z
M 3481 434 
Q 3481 -459 3084 -895 
Q 2688 -1331 1869 -1331 
Q 1566 -1331 1297 -1286 
Q 1028 -1241 775 -1147 
L 775 -588 
Q 1028 -725 1275 -790 
Q 1522 -856 1778 -856 
Q 2344 -856 2625 -561 
Q 2906 -266 2906 331 
L 2906 616 
Q 2728 306 2450 153 
Q 2172 0 1784 0 
Q 1141 0 747 490 
Q 353 981 353 1791 
Q 353 2603 747 3093 
Q 1141 3584 1784 3584 
Q 2172 3584 2450 3431 
Q 2728 3278 2906 2969 
L 2906 3500 
L 3481 3500 
L 3481 434 
z
" transform="scale(0.015625)"/>
       <path id="DejaVuSans-29" d="M 513 4856 
L 1013 4856 
Q 1481 4119 1714 3412 
Q 1947 2706 1947 2009 
Q 1947 1309 1714 600 
Q 1481 -109 1013 -844 
L 513 -844 
Q 928 -128 1133 580 
Q 1338 1288 1338 2009 
Q 1338 2731 1133 3434 
Q 928 4138 513 4856 
z
" transform="scale(0.015625)"/>
      </defs>
      <use xlink:href="#DejaVuSans-Oblique-74" transform="translate(0 0.015625)"/>
      <use xlink:href="#DejaVuSans-20" transform="translate(39.208984 0.015625)"/>
      <use xlink:href="#DejaVuSans-28" transform="translate(70.996094 0.015625)"/>
      <use xlink:href="#DejaVuSans-67" transform="translate(110.009766 0.015625)"/>
      <use xlink:href="#DejaVuSans-65" transform="translate(173.486328 0.015625)"/>
      <use xlink:href="#DejaVuSans-6e" transform="translate(235.009766 0.015625)"/>
      <use xlink:href="#DejaVuSans-65" transform="translate(298.388672 0.015625)"/>
      <use xlink:href="#DejaVuSans-72" transform="translate(359.912109 0.015625)"/>
      <use xlink:href="#DejaVuSans-61" transform="translate(401.025391 0.015625)"/>
      <use xlink:href="#DejaVuSans-74" transform="translate(462.304688 0.015625)"/>
      <use xlink:href="#DejaVuSans-69" transform="translate(501.513672 0.015625)"/>
      <use xlink:href="#DejaVuSans-6f" transform="translate(529.296875 0.015625)"/>
      <use xlink:href="#DejaVuSans-6e" transform="translate(590.478516 0.015625)"/>
      <use xlink:href="#DejaVuSans-73" transform="translate(653.857422 0.015625)"/>
      <use xlink:href="#DejaVuSans-20" transform="translate(705.957031 0.015625)"/>
      <use xlink:href="#DejaVuSans-61" transform="translate(737.744141 0.015625)"/>
      <use xlink:href="#DejaVuSans-67" transform="translate(799.023438 0.015625)"/>
      <use xlink:href="#DejaVuSans-6f" transform="translate(862.5 0.015625)"/>
      <use xlink:href="#DejaVuSans-29" transform="translate(923.681641 0.015625)"/>
     </g>
    </g>
   </g>
   <g id="matplotlib.axis_4">
    <g id="ytick_20">
     <g id="line2d_47">
      <g>
       <use xlink:href="#m52b84cb57d" x="280.438203" y="21.672533" style="stroke: #000000; stroke-width: 0.8"/>
      </g>
     </g>
     <g id="text_13">
      <!-- $\mathdefault{10^{4}}$ -->
      <g transform="translate(255.838203 25.471752) scale(0.1 -0.1)">
       <use xlink:href="#DejaVuSans-31" transform="translate(0 0.684375)"/>
       <use xlink:href="#DejaVuSans-30" transform="translate(63.623047 0.684375)"/>
       <use xlink:href="#DejaVuSans-34" transform="translate(128.203125 38.965625) scale(0.7)"/>
      </g>
     </g>
    </g>
    <g id="ytick_21">
     <g id="line2d_48">
      <g>
       <use xlink:href="#ma5b566a086" x="280.438203" y="245.315912" style="stroke: #000000; stroke-width: 0.6"/>
      </g>
     </g>
     <g id="text_14">
      <!-- $\mathdefault{3\times10^{3}}$ -->
      <g transform="translate(238.838203 249.11513) scale(0.1 -0.1)">
       <defs>
        <path id="DejaVuSans-d7" d="M 4488 3438 
L 3059 2003 
L 4488 575 
L 4116 197 
L 2681 1631 
L 1247 197 
L 878 575 
L 2303 2003 
L 878 3438 
L 1247 3816 
L 2681 2381 
L 4116 3816 
L 4488 3438 
z
" transform="scale(0.015625)"/>
       </defs>
       <use xlink:href="#DejaVuSans-33" transform="translate(0 0.765625)"/>
       <use xlink:href="#DejaVuSans-d7" transform="translate(83.105469 0.765625)"/>
       <use xlink:href="#DejaVuSans-31" transform="translate(186.376953 0.765625)"/>
       <use xlink:href="#DejaVuSans-30" transform="translate(250 0.765625)"/>
       <use xlink:href="#DejaVuSans-33" transform="translate(314.580078 39.046875) scale(0.7)"/>
      </g>
     </g>
    </g>
    <g id="ytick_22">
     <g id="line2d_49">
      <g>
       <use xlink:href="#ma5b566a086" x="280.438203" y="191.877669" style="stroke: #000000; stroke-width: 0.6"/>
      </g>
     </g>
     <g id="text_15">
      <!-- $\mathdefault{4\times10^{3}}$ -->
      <g transform="translate(238.838203 195.676888) scale(0.1 -0.1)">
       <use xlink:href="#DejaVuSans-34" transform="translate(0 0.765625)"/>
       <use xlink:href="#DejaVuSans-d7" transform="translate(83.105469 0.765625)"/>
       <use xlink:href="#DejaVuSans-31" transform="translate(186.376953 0.765625)"/>
       <use xlink:href="#DejaVuSans-30" transform="translate(250 0.765625)"/>
       <use xlink:href="#DejaVuSans-33" transform="translate(314.580078 39.046875) scale(0.7)"/>
      </g>
     </g>
    </g>
    <g id="ytick_23">
     <g id="line2d_50">
      <g>
       <use xlink:href="#ma5b566a086" x="280.438203" y="150.427748" style="stroke: #000000; stroke-width: 0.6"/>
      </g>
     </g>
    </g>
    <g id="ytick_24">
     <g id="line2d_51">
      <g>
       <use xlink:href="#ma5b566a086" x="280.438203" y="116.560696" style="stroke: #000000; stroke-width: 0.6"/>
      </g>
     </g>
     <g id="text_16">
      <!-- $\mathdefault{6\times10^{3}}$ -->
      <g transform="translate(238.838203 120.359915) scale(0.1 -0.1)">
       <use xlink:href="#DejaVuSans-36" transform="translate(0 0.765625)"/>
       <use xlink:href="#DejaVuSans-d7" transform="translate(83.105469 0.765625)"/>
       <use xlink:href="#DejaVuSans-31" transform="translate(186.376953 0.765625)"/>
       <use xlink:href="#DejaVuSans-30" transform="translate(250 0.765625)"/>
       <use xlink:href="#DejaVuSans-33" transform="translate(314.580078 39.046875) scale(0.7)"/>
      </g>
     </g>
    </g>
    <g id="ytick_25">
     <g id="line2d_52">
      <g>
       <use xlink:href="#ma5b566a086" x="280.438203" y="87.926512" style="stroke: #000000; stroke-width: 0.6"/>
      </g>
     </g>
    </g>
    <g id="ytick_26">
     <g id="line2d_53">
      <g>
       <use xlink:href="#ma5b566a086" x="280.438203" y="63.122454" style="stroke: #000000; stroke-width: 0.6"/>
      </g>
     </g>
    </g>
    <g id="ytick_27">
     <g id="line2d_54">
      <g>
       <use xlink:href="#ma5b566a086" x="280.438203" y="41.243724" style="stroke: #000000; stroke-width: 0.6"/>
      </g>
     </g>
    </g>
    <g id="text_17">
     <!-- $\eta(t)$ -->
     <g transform="translate(232.738203 160.15) rotate(-90) scale(0.1 -0.1)">
      <defs>
       <path id="DejaVuSans-Oblique-3b7" d="M 3703 2113 
L 3034 -1331 
L 2459 -1331 
L 3125 2094 
Q 3222 2591 3075 2838 
Q 2931 3084 2544 3084 
Q 2078 3084 1750 2788 
Q 1425 2491 1325 1978 
L 941 0 
L 363 0 
L 1044 3500 
L 1622 3500 
L 1516 2956 
Q 1781 3272 2094 3428 
Q 2403 3584 2769 3584 
Q 3372 3584 3609 3213 
Q 3844 2838 3703 2113 
z
" transform="scale(0.015625)"/>
      </defs>
      <use xlink:href="#DejaVuSans-Oblique-3b7" transform="translate(0 0.125)"/>
      <use xlink:href="#DejaVuSans-28" transform="translate(63.378906 0.125)"/>
      <use xlink:href="#DejaVuSans-Oblique-74" transform="translate(102.392578 0.125)"/>
      <use xlink:href="#DejaVuSans-29" transform="translate(141.601562 0.125)"/>
     </g>
    </g>
   </g>
   <g id="line2d_55">
    <path d="M -1 21.672533 
L 287.942859 21.672533 
L 289.051144 21.672533 
L 290.159428 21.672533 
L 291.267713 21.672533 
L 292.375997 21.672533 
L 293.484282 21.672533 
L 294.592566 21.672533 
L 295.700851 21.672533 
L 296.809135 21.672533 
L 297.91742 21.672533 
L 299.025704 21.672533 
L 300.133989 21.672533 
L 301.242273 21.672533 
L 302.350558 21.672533 
L 303.458842 21.672533 
L 304.567127 21.672533 
L 305.675411 21.672533 
L 306.783696 21.672533 
L 307.89198 21.672533 
L 309.000265 21.672533 
L 310.108549 21.672533 
L 311.216834 21.672533 
L 312.325118 21.672533 
L 313.433403 21.672533 
L 314.541687 21.672533 
L 315.649972 21.672533 
L 316.758256 21.672533 
L 317.866541 21.672533 
L 318.974825 21.672533 
L 320.08311 21.672533 
L 321.191394 21.672533 
L 322.299679 21.672533 
L 323.407963 21.672533 
L 324.516248 21.672533 
L 325.624532 21.672533 
L 326.732816 21.672533 
L 327.841101 21.672533 
L 328.949385 21.672533 
L 330.05767 21.672533 
L 331.165954 279.182963 
L 332.274239 279.182963 
L 333.382523 279.182963 
L 334.490808 279.182963 
L 335.599092 279.182963 
L 336.707377 279.182963 
L 337.815661 279.182963 
L 338.923946 279.182963 
L 340.03223 279.182963 
L 341.140515 279.182963 
L 342.248799 279.182963 
L 343.357084 279.182963 
L 344.465368 279.182963 
L 345.573653 279.182963 
L 346.681937 279.182963 
L 347.790222 279.182963 
L 348.898506 279.182963 
L 350.006791 279.182963 
L 351.115075 279.182963 
L 352.22336 279.182963 
L 353.331644 21.672533 
L 354.439929 21.672533 
L 355.548213 21.672533 
L 356.656498 21.672533 
L 357.764782 21.672533 
L 358.873067 21.672533 
L 359.981351 21.672533 
L 361.089636 21.672533 
L 362.19792 21.672533 
L 363.306205 21.672533 
L 364.414489 21.672533 
L 365.522774 21.672533 
L 366.631058 21.672533 
L 367.739343 21.672533 
L 368.847627 21.672533 
L 369.955912 21.672533 
L 371.064196 21.672533 
L 372.172481 21.672533 
L 373.280765 21.672533 
L 374.38905 21.672533 
L 375.497334 21.672533 
L 376.605619 21.672533 
L 377.713903 21.672533 
L 378.822188 21.672533 
L 379.930472 21.672533 
L 381.038757 21.672533 
L 382.147041 21.672533 
L 383.255326 21.672533 
L 384.36361 21.672533 
L 385.471895 21.672533 
L 386.580179 21.672533 
L 387.688464 21.672533 
L 388.796748 21.672533 
L 389.905033 21.672533 
L 391.013317 21.672533 
L 392.121602 21.672533 
L 393.229886 21.672533 
L 394.338171 21.672533 
L 395.446455 21.672533 
L 396.55474 21.672533 
L 397.663024 21.672533 
" clip-path="url(#p6dc33e7460)" style="fill: none; stroke: #1f77b4; stroke-width: 1.5; stroke-linecap: square"/>
   </g>
   <g id="line2d_56">
    <path d="M -1 20.836872 
L 287.942859 20.837023 
L 289.458951 20.836727 
L 290.975043 20.836403 
L 292.491135 20.836078 
L 294.007227 20.835747 
L 295.523319 20.835399 
L 297.039411 20.834998 
L 298.555503 20.834669 
L 300.071595 20.834237 
L 301.587687 20.834688 
L 303.103779 20.83403 
L 304.619871 20.836058 
L 306.135963 20.826529 
L 307.652055 20.830431 
L 309.168148 20.830508 
L 310.68424 20.830527 
L 312.200332 20.830918 
L 313.716424 20.831589 
L 315.232516 20.833679 
L 316.748608 20.842373 
L 318.2647 20.818305 
L 319.780792 20.759062 
L 321.296884 20.729485 
L 322.812976 20.75311 
L 324.329068 20.928906 
L 325.84516 20.563052 
L 327.361252 35.85656 
L 328.877344 86.256857 
L 330.393436 157.547132 
L 331.909528 258.632551 
L 333.42562 281.595893 
L 334.941712 281.89337 
L 336.457804 281.913177 
L 337.973896 281.918182 
L 339.489988 281.909028 
L 341.00608 281.880039 
L 342.522172 281.831542 
L 344.038264 281.77073 
L 345.554356 281.692465 
L 347.070448 281.665659 
L 348.58654 281.445411 
L 350.102633 246.901598 
L 351.618725 190.30765 
L 353.134817 142.790349 
L 354.650909 101.741565 
L 356.167001 65.721429 
L 357.683093 33.780007 
L 359.199185 30.440321 
L 360.715277 23.695216 
L 362.231369 23.714027 
L 363.747461 23.719382 
L 365.263553 23.699199 
L 366.779645 23.693575 
L 368.295737 23.690374 
L 369.811829 23.69399 
L 371.327921 23.703977 
L 372.844013 23.719798 
L 374.360105 23.73987 
L 375.876197 23.762117 
L 377.392289 23.784443 
L 378.908381 23.80081 
L 380.424473 23.811625 
L 381.940565 23.814272 
L 383.456657 23.809734 
L 384.972749 23.801455 
L 386.488841 23.790991 
L 388.004933 23.78602 
L 389.521025 23.793066 
L 391.037118 23.807316 
L 392.55321 23.809835 
L 394.069302 24.05655 
L 395.585394 24.945001 
L 397.101486 24.780517 
L 398.617578 24.863824 
L 400.13367 24.990614 
L 401.649762 25.114635 
L 403.165854 25.147063 
L 404.681946 25.138766 
L 406.198038 25.106663 
L 407.71413 25.019594 
L 409.230222 24.990642 
L 410.746314 24.368028 
L 412.262406 24.332599 
L 413.778498 20.371503 
L 415.29459 20.335493 
L 416.810682 20.315032 
L 418.326774 20.30032 
L 419.842866 20.291178 
L 421.358958 20.286065 
L 422.87505 20.283522 
L 424.391142 20.282413 
L 425.907234 20.281995 
L 427.423326 20.281862 
L 428.939418 20.281827 
L 430.45551 20.28182 
L 431.971602 20.281818 
L 433.487695 20.281818 
L 435.003787 20.281818 
L 436.519879 20.281818 
L 438.035971 20.281818 
" clip-path="url(#p6dc33e7460)" style="fill: none; stroke: #ff7f0e; stroke-width: 1.5; stroke-linecap: square"/>
   </g>
   <g id="patch_8">
    <path d="M 280.438203 295 
L 280.438203 7.2 
" style="fill: none; stroke: #000000; stroke-width: 0.8; stroke-linejoin: miter; stroke-linecap: square"/>
   </g>
   <g id="patch_9">
    <path d="M 445.540626 295 
L 445.540626 7.2 
" style="fill: none; stroke: #000000; stroke-width: 0.8; stroke-linejoin: miter; stroke-linecap: square"/>
   </g>
   <g id="patch_10">
    <path d="M 280.438203 295 
L 445.540626 295 
" style="fill: none; stroke: #000000; stroke-width: 0.8; stroke-linejoin: miter; stroke-linecap: square"/>
   </g>
   <g id="patch_11">
    <path d="M 280.438203 7.2 
L 445.540626 7.2 
" style="fill: none; stroke: #000000; stroke-width: 0.8; stroke-linejoin: miter; stroke-linecap: square"/>
   </g>
   <g id="legend_1">
    <g id="patch_12">
     <path d="M 367.428126 290 
L 438.540626 290 
Q 440.540626 290 440.540626 288 
L 440.540626 259.64375 
Q 440.540626 257.64375 438.540626 257.64375 
L 367.428126 257.64375 
Q 365.428126 257.64375 365.428126 259.64375 
L 365.428126 288 
Q 365.428126 290 367.428126 290 
z
" style="fill: #ffffff; opacity: 0.8; stroke: #cccccc; stroke-linejoin: miter"/>
    </g>
    <g id="line2d_57">
     <path d="M 369.428126 265.742187 
L 379.428126 265.742187 
L 389.428126 265.742187 
" style="fill: none; stroke: #1f77b4; stroke-width: 1.5; stroke-linecap: square"/>
    </g>
    <g id="text_18">
     <!-- true -->
     <g transform="translate(397.428126 269.242187) scale(0.1 -0.1)">
      <use xlink:href="#DejaVuSans-74"/>
      <use xlink:href="#DejaVuSans-72" transform="translate(39.208984 0)"/>
      <use xlink:href="#DejaVuSans-75" transform="translate(80.322266 0)"/>
      <use xlink:href="#DejaVuSans-65" transform="translate(143.701172 0)"/>
     </g>
    </g>
    <g id="line2d_58">
     <path d="M 369.428126 280.420312 
L 379.428126 280.420312 
L 389.428126 280.420312 
" style="fill: none; stroke: #ff7f0e; stroke-width: 1.5; stroke-linecap: square"/>
    </g>
    <g id="text_19">
     <!-- inferred -->
     <g transform="translate(397.428126 283.920312) scale(0.1 -0.1)">
      <defs>
       <path id="DejaVuSans-64" d="M 2906 2969 
L 2906 4863 
L 3481 4863 
L 3481 0 
L 2906 0 
L 2906 525 
Q 2725 213 2448 61 
Q 2172 -91 1784 -91 
Q 1150 -91 751 415 
Q 353 922 353 1747 
Q 353 2572 751 3078 
Q 1150 3584 1784 3584 
Q 2172 3584 2448 3432 
Q 2725 3281 2906 2969 
z
M 947 1747 
Q 947 1113 1208 752 
Q 1469 391 1925 391 
Q 2381 391 2643 752 
Q 2906 1113 2906 1747 
Q 2906 2381 2643 2742 
Q 2381 3103 1925 3103 
Q 1469 3103 1208 2742 
Q 947 2381 947 1747 
z
" transform="scale(0.015625)"/>
      </defs>
      <use xlink:href="#DejaVuSans-69"/>
      <use xlink:href="#DejaVuSans-6e" transform="translate(27.783203 0)"/>
      <use xlink:href="#DejaVuSans-66" transform="translate(91.162109 0)"/>
      <use xlink:href="#DejaVuSans-65" transform="translate(126.367188 0)"/>
      <use xlink:href="#DejaVuSans-72" transform="translate(187.890625 0)"/>
      <use xlink:href="#DejaVuSans-72" transform="translate(227.253906 0)"/>
      <use xlink:href="#DejaVuSans-65" transform="translate(266.117188 0)"/>
      <use xlink:href="#DejaVuSans-64" transform="translate(327.640625 0)"/>
     </g>
    </g>
   </g>
  </g>
 </g>
 <defs>
  <clipPath id="p9bd9cf7a9d">
   <rect x="45.478125" y="7.2" width="165.102423" height="287.8"/>
  </clipPath>
  <clipPath id="p6dc33e7460">
   <rect x="280.438203" y="7.2" width="165.102423" height="287.8"/>
  </clipPath>
 </defs>
</svg>
