<?xml version="1.0" encoding="utf-8" standalone="no"?>
<!DOCTYPE svg PUBLIC "-//W3C//DTD SVG 1.1//EN"
  "http://www.w3.org/Graphics/SVG/1.1/DTD/svg11.dtd">
<!-- Created with matplotlib (https://matplotlib.org/) -->
<svg height="604.8pt" version="1.1" viewBox="0 0 424.8 604.8" width="424.8pt" xmlns="http://www.w3.org/2000/svg" xmlns:xlink="http://www.w3.org/1999/xlink">
 <defs>
  <style type="text/css">
*{stroke-linecap:butt;stroke-linejoin:round;}
  </style>
 </defs>
 <g id="figure_1">
  <g id="patch_1">
   <path d="M 0 604.8 
L 424.8 604.8 
L 424.8 0 
L 0 0 
z
" style="fill:#ffffff;"/>
  </g>
  <g id="axes_1">
   <g id="patch_2">
    <path d="M 42.096548 567.781683 
L 410.633046 567.781683 
L 410.633046 7.2 
L 42.096548 7.2 
z
" style="fill:#ffffff;"/>
   </g>
   <g id="matplotlib.axis_1">
    <g id="xtick_1">
     <g id="line2d_1">
      <defs>
       <path d="M 0 0 
L 0 3.5 
" id="maae8350208" style="stroke:#000000;stroke-width:0.8;"/>
      </defs>
      <g>
       <use style="stroke:#000000;stroke-width:0.8;" x="42.096548" xlink:href="#maae8350208" y="567.781683"/>
      </g>
     </g>
     <g id="text_1">
      <!-- $10^{3}$ -->
      <defs>
       <path d="M 26.59375 63.40625 
C 26.59375 65.5 26.5 65.5 25.09375 65.5 
C 21.203125 61.1875 15.296875 59.796875 9.703125 59.796875 
C 9.40625 59.796875 8.90625 59.796875 8.796875 59.5 
C 8.703125 59.296875 8.703125 59.09375 8.703125 57 
C 11.796875 57 17 57.59375 21 59.984375 
L 21 7.203125 
C 21 3.6875 20.796875 2.5 12.203125 2.5 
L 9.203125 2.5 
L 9.203125 0 
C 14 0 19 0 23.796875 0 
C 28.59375 0 33.59375 0 38.40625 0 
L 38.40625 2.5 
L 35.40625 2.5 
C 26.796875 2.5 26.59375 3.59375 26.59375 7.15625 
z
" id="CMR17-49"/>
       <path d="M 42 31.640625 
C 42 37.75 41.90625 48.125 37.703125 56.109375 
C 34 63.109375 28.09375 65.59375 22.90625 65.59375 
C 18.09375 65.59375 12 63.40625 8.203125 56.203125 
C 4.203125 48.71875 3.796875 39.4375 3.796875 31.640625 
C 3.796875 25.953125 3.90625 17.28125 7 9.671875 
C 11.296875 -0.609375 19 -2 22.90625 -2 
C 27.5 -2 34.5 -0.109375 38.59375 9.375 
C 41.59375 16.28125 42 24.359375 42 31.640625 
z
M 22.90625 -0.40625 
C 16.5 -0.40625 12.703125 5.078125 11.296875 12.6875 
C 10.203125 18.5625 10.203125 27.15625 10.203125 32.75 
C 10.203125 40.4375 10.203125 46.828125 11.5 52.921875 
C 13.40625 61.390625 19 64 22.90625 64 
C 27 64 32.296875 61.296875 34.203125 53.125 
C 35.5 47.4375 35.59375 40.734375 35.59375 32.75 
C 35.59375 26.25 35.59375 18.265625 34.40625 12.375 
C 32.296875 1.484375 26.40625 -0.40625 22.90625 -0.40625 
z
" id="CMR17-48"/>
       <path d="M 22.09375 33.703125 
C 31 33.703125 34.90625 25.96875 34.90625 17.03125 
C 34.90625 5 28.5 0.390625 22.703125 0.390625 
C 17.40625 0.390625 8.796875 3.03125 6.09375 10.828125 
C 6.59375 10.625 7.09375 10.625 7.59375 10.625 
C 10 10.625 11.796875 12.21875 11.796875 14.8125 
C 11.796875 17.703125 9.59375 19 7.59375 19 
C 5.90625 19 3.296875 18.203125 3.296875 14.46875 
C 3.296875 5.234375 12.296875 -2 22.90625 -2 
C 34 -2 42.5 6.71875 42.5 16.953125 
C 42.5 26.671875 34.5 33.703125 25 34.796875 
C 32.59375 36.375 39.90625 43.0625 39.90625 52.015625 
C 39.90625 59.6875 32 65.296875 23 65.296875 
C 13.90625 65.296875 5.90625 59.828125 5.90625 52.015625 
C 5.90625 48.59375 8.5 48 9.796875 48 
C 11.90625 48 13.703125 49.296875 13.703125 51.890625 
C 13.703125 54.46875 11.90625 55.765625 9.796875 55.765625 
C 9.40625 55.765625 8.90625 55.765625 8.5 55.578125 
C 11.40625 61.859375 19.296875 63 22.796875 63 
C 26.296875 63 32.90625 61.328125 32.90625 51.875 
C 32.90625 49.109375 32.5 44.1875 29.09375 39.84375 
C 26.09375 36 22.703125 36 19.40625 35.6875 
C 18.90625 35.6875 16.59375 35.453125 16.203125 35.453125 
C 15.5 35.359375 15.09375 35.265625 15.09375 34.5 
C 15.09375 33.796875 15.203125 33.703125 17.203125 33.703125 
z
" id="CMR17-51"/>
      </defs>
      <g transform="translate(35.129594 581.700182)scale(0.1 -0.1)">
       <use transform="scale(0.996264)" xlink:href="#CMR17-49"/>
       <use transform="translate(45.690477 0)scale(0.996264)" xlink:href="#CMR17-48"/>
       <use transform="translate(91.380954 36.153639)scale(0.697382)" xlink:href="#CMR17-51"/>
      </g>
     </g>
    </g>
    <g id="xtick_2">
     <g id="line2d_2">
      <g>
       <use style="stroke:#000000;stroke-width:0.8;" x="164.942047" xlink:href="#maae8350208" y="567.781683"/>
      </g>
     </g>
     <g id="text_2">
      <!-- $10^{4}$ -->
      <defs>
       <path d="M 33.59375 64.40625 
C 33.59375 66.5 33.5 66.5 31.703125 66.5 
L 2 19.59375 
L 2 17 
L 27.796875 17 
L 27.796875 7.140625 
C 27.796875 3.5 27.59375 2.5 20.59375 2.5 
L 18.703125 2.5 
L 18.703125 0 
C 21.90625 0 27.296875 0 30.703125 0 
C 34.09375 0 39.5 0 42.703125 0 
L 42.703125 2.5 
L 40.796875 2.5 
C 33.796875 2.5 33.59375 3.5 33.59375 7.140625 
L 33.59375 17 
L 43.796875 17 
L 43.796875 19.59375 
L 33.59375 19.59375 
z
M 28.09375 57.859375 
L 28.09375 19.59375 
L 4 19.59375 
z
" id="CMR17-52"/>
      </defs>
      <g transform="translate(157.975093 581.700182)scale(0.1 -0.1)">
       <use transform="scale(0.996264)" xlink:href="#CMR17-49"/>
       <use transform="translate(45.690477 0)scale(0.996264)" xlink:href="#CMR17-48"/>
       <use transform="translate(91.380954 36.153639)scale(0.697382)" xlink:href="#CMR17-52"/>
      </g>
     </g>
    </g>
    <g id="xtick_3">
     <g id="line2d_3">
      <g>
       <use style="stroke:#000000;stroke-width:0.8;" x="287.787547" xlink:href="#maae8350208" y="567.781683"/>
      </g>
     </g>
     <g id="text_3">
      <!-- $10^{5}$ -->
      <defs>
       <path d="M 11.40625 57.6875 
C 12.40625 57.28125 16.5 56 20.703125 56 
C 30 56 35.09375 61.109375 38 64.0625 
C 38 64.953125 38 65.5 37.40625 65.5 
C 37.296875 65.5 37.09375 65.5 36.296875 65.046875 
C 32.796875 63.40625 28.703125 62.078125 23.703125 62.078125 
C 20.703125 62.078125 16.203125 62.484375 11.296875 64.671875 
C 10.203125 65.171875 10 65.171875 9.90625 65.171875 
C 9.40625 65.171875 9.296875 65.0625 9.296875 63.078125 
L 9.296875 34.421875 
C 9.296875 32.640625 9.296875 32.140625 10.296875 32.140625 
C 10.796875 32.140625 11 32.34375 11.5 33.03125 
C 14.703125 37.515625 19.09375 39.40625 24.09375 39.40625 
C 27.59375 39.40625 35.09375 37.21875 35.09375 20.140625 
C 35.09375 16.953125 35.09375 11.171875 32.09375 6.578125 
C 29.59375 2.484375 25.703125 0.390625 21.40625 0.390625 
C 14.796875 0.390625 8.09375 5 6.296875 12.71875 
C 6.703125 12.609375 7.5 12.421875 7.90625 12.421875 
C 9.203125 12.421875 11.703125 13.125 11.703125 16.21875 
C 11.703125 18.90625 9.796875 20 7.90625 20 
C 5.59375 20 4.09375 18.59375 4.09375 15.796875 
C 4.09375 7.09375 11 -2 21.59375 -2 
C 31.90625 -2 41.703125 6.875 41.703125 19.75 
C 41.703125 31.71875 33.90625 41 24.203125 41 
C 19.09375 41 14.796875 39.109375 11.40625 35.53125 
z
" id="CMR17-53"/>
      </defs>
      <g transform="translate(280.820593 581.700182)scale(0.1 -0.1)">
       <use transform="scale(0.996264)" xlink:href="#CMR17-49"/>
       <use transform="translate(45.690477 0)scale(0.996264)" xlink:href="#CMR17-48"/>
       <use transform="translate(91.380954 36.153639)scale(0.697382)" xlink:href="#CMR17-53"/>
      </g>
     </g>
    </g>
    <g id="xtick_4">
     <g id="line2d_4">
      <g>
       <use style="stroke:#000000;stroke-width:0.8;" x="410.633046" xlink:href="#maae8350208" y="567.781683"/>
      </g>
     </g>
     <g id="text_4">
      <!-- $10^{6}$ -->
      <defs>
       <path d="M 10.59375 34 
C 10.59375 57.65625 21.796875 63 28.296875 63 
C 30.40625 63 35.5 62.640625 37.5 59 
C 35.90625 59 32.90625 59 32.90625 55.515625 
C 32.90625 52.828125 35.09375 51.921875 36.5 51.921875 
C 37.40625 51.921875 40.09375 52.3125 40.09375 55.625 
C 40.09375 61.78125 35.09375 65.296875 28.203125 65.296875 
C 16.296875 65.296875 3.796875 52.96875 3.796875 31 
C 3.796875 3.953125 15.09375 -2 23.09375 -2 
C 32.796875 -2 42 6.671875 42 20.046875 
C 42 32.515625 33.90625 41.59375 23.703125 41.59375 
C 17.59375 41.59375 13.09375 37.609375 10.59375 30.625 
z
M 23.09375 0.390625 
C 10.796875 0.390625 10.796875 18.75 10.796875 22.4375 
C 10.796875 29.625 14.203125 40 23.5 40 
C 25.203125 40 30.09375 40 33.40625 33.125 
C 35.203125 29.21875 35.203125 25.140625 35.203125 20.140625 
C 35.203125 14.75 35.203125 10.78125 33.09375 6.78125 
C 30.90625 2.671875 27.703125 0.390625 23.09375 0.390625 
z
" id="CMR17-54"/>
      </defs>
      <g transform="translate(403.666092 581.700182)scale(0.1 -0.1)">
       <use transform="scale(0.996264)" xlink:href="#CMR17-49"/>
       <use transform="translate(45.690477 0)scale(0.996264)" xlink:href="#CMR17-48"/>
       <use transform="translate(91.380954 36.153639)scale(0.697382)" xlink:href="#CMR17-54"/>
      </g>
     </g>
    </g>
    <g id="xtick_5">
     <g id="line2d_5">
      <defs>
       <path d="M 0 0 
L 0 2 
" id="md577868392" style="stroke:#000000;stroke-width:0.6;"/>
      </defs>
      <g>
       <use style="stroke:#000000;stroke-width:0.6;" x="79.076728" xlink:href="#md577868392" y="567.781683"/>
      </g>
     </g>
    </g>
    <g id="xtick_6">
     <g id="line2d_6">
      <g>
       <use style="stroke:#000000;stroke-width:0.6;" x="100.708747" xlink:href="#md577868392" y="567.781683"/>
      </g>
     </g>
    </g>
    <g id="xtick_7">
     <g id="line2d_7">
      <g>
       <use style="stroke:#000000;stroke-width:0.6;" x="116.056908" xlink:href="#md577868392" y="567.781683"/>
      </g>
     </g>
    </g>
    <g id="xtick_8">
     <g id="line2d_8">
      <g>
       <use style="stroke:#000000;stroke-width:0.6;" x="127.961867" xlink:href="#md577868392" y="567.781683"/>
      </g>
     </g>
    </g>
    <g id="xtick_9">
     <g id="line2d_9">
      <g>
       <use style="stroke:#000000;stroke-width:0.6;" x="137.688927" xlink:href="#md577868392" y="567.781683"/>
      </g>
     </g>
    </g>
    <g id="xtick_10">
     <g id="line2d_10">
      <g>
       <use style="stroke:#000000;stroke-width:0.6;" x="145.913039" xlink:href="#md577868392" y="567.781683"/>
      </g>
     </g>
    </g>
    <g id="xtick_11">
     <g id="line2d_11">
      <g>
       <use style="stroke:#000000;stroke-width:0.6;" x="153.037089" xlink:href="#md577868392" y="567.781683"/>
      </g>
     </g>
    </g>
    <g id="xtick_12">
     <g id="line2d_12">
      <g>
       <use style="stroke:#000000;stroke-width:0.6;" x="159.320946" xlink:href="#md577868392" y="567.781683"/>
      </g>
     </g>
    </g>
    <g id="xtick_13">
     <g id="line2d_13">
      <g>
       <use style="stroke:#000000;stroke-width:0.6;" x="201.922228" xlink:href="#md577868392" y="567.781683"/>
      </g>
     </g>
    </g>
    <g id="xtick_14">
     <g id="line2d_14">
      <g>
       <use style="stroke:#000000;stroke-width:0.6;" x="223.554246" xlink:href="#md577868392" y="567.781683"/>
      </g>
     </g>
    </g>
    <g id="xtick_15">
     <g id="line2d_15">
      <g>
       <use style="stroke:#000000;stroke-width:0.6;" x="238.902408" xlink:href="#md577868392" y="567.781683"/>
      </g>
     </g>
    </g>
    <g id="xtick_16">
     <g id="line2d_16">
      <g>
       <use style="stroke:#000000;stroke-width:0.6;" x="250.807367" xlink:href="#md577868392" y="567.781683"/>
      </g>
     </g>
    </g>
    <g id="xtick_17">
     <g id="line2d_17">
      <g>
       <use style="stroke:#000000;stroke-width:0.6;" x="260.534426" xlink:href="#md577868392" y="567.781683"/>
      </g>
     </g>
    </g>
    <g id="xtick_18">
     <g id="line2d_18">
      <g>
       <use style="stroke:#000000;stroke-width:0.6;" x="268.758538" xlink:href="#md577868392" y="567.781683"/>
      </g>
     </g>
    </g>
    <g id="xtick_19">
     <g id="line2d_19">
      <g>
       <use style="stroke:#000000;stroke-width:0.6;" x="275.882588" xlink:href="#md577868392" y="567.781683"/>
      </g>
     </g>
    </g>
    <g id="xtick_20">
     <g id="line2d_20">
      <g>
       <use style="stroke:#000000;stroke-width:0.6;" x="282.166445" xlink:href="#md577868392" y="567.781683"/>
      </g>
     </g>
    </g>
    <g id="xtick_21">
     <g id="line2d_21">
      <g>
       <use style="stroke:#000000;stroke-width:0.6;" x="324.767727" xlink:href="#md577868392" y="567.781683"/>
      </g>
     </g>
    </g>
    <g id="xtick_22">
     <g id="line2d_22">
      <g>
       <use style="stroke:#000000;stroke-width:0.6;" x="346.399745" xlink:href="#md577868392" y="567.781683"/>
      </g>
     </g>
    </g>
    <g id="xtick_23">
     <g id="line2d_23">
      <g>
       <use style="stroke:#000000;stroke-width:0.6;" x="361.747907" xlink:href="#md577868392" y="567.781683"/>
      </g>
     </g>
    </g>
    <g id="xtick_24">
     <g id="line2d_24">
      <g>
       <use style="stroke:#000000;stroke-width:0.6;" x="373.652866" xlink:href="#md577868392" y="567.781683"/>
      </g>
     </g>
    </g>
    <g id="xtick_25">
     <g id="line2d_25">
      <g>
       <use style="stroke:#000000;stroke-width:0.6;" x="383.379926" xlink:href="#md577868392" y="567.781683"/>
      </g>
     </g>
    </g>
    <g id="xtick_26">
     <g id="line2d_26">
      <g>
       <use style="stroke:#000000;stroke-width:0.6;" x="391.604037" xlink:href="#md577868392" y="567.781683"/>
      </g>
     </g>
    </g>
    <g id="xtick_27">
     <g id="line2d_27">
      <g>
       <use style="stroke:#000000;stroke-width:0.6;" x="398.728087" xlink:href="#md577868392" y="567.781683"/>
      </g>
     </g>
    </g>
    <g id="xtick_28">
     <g id="line2d_28">
      <g>
       <use style="stroke:#000000;stroke-width:0.6;" x="405.011944" xlink:href="#md577868392" y="567.781683"/>
      </g>
     </g>
    </g>
    <g id="text_5">
     <!-- $t$ (years ago) -->
     <defs>
      <path d="M 20.09375 40.09375 
L 29.296875 40.09375 
C 31.203125 40.09375 32.203125 40.09375 32.203125 41.890625 
C 32.203125 43 31.59375 43 29.59375 43 
L 20.796875 43 
L 24.5 57.6875 
C 24.90625 59.078125 24.90625 59.28125 24.90625 60 
C 24.90625 61.609375 23.59375 62.5 22.296875 62.5 
C 21.5 62.5 19.203125 62.203125 18.40625 58.984375 
L 14.5 43 
L 5.09375 43 
C 3.09375 43 2.203125 43 2.203125 41.09375 
C 2.203125 40.09375 2.90625 40.09375 4.796875 40.09375 
L 13.703125 40.09375 
L 7.09375 13.765625 
C 6.296875 10.28125 6 9.28125 6 7.984375 
C 6 3.296875 9.296875 -1 14.90625 -1 
C 25 -1 30.40625 13.5625 30.40625 14.25 
C 30.40625 14.859375 30 15.15625 29.40625 15.15625 
C 29.203125 15.15625 28.796875 15.15625 28.59375 14.75 
C 28.5 14.65625 28.40625 14.546875 27.703125 12.953125 
C 25.59375 7.984375 21 1 15.203125 1 
C 12.203125 1 12 3.5 12 5.6875 
C 12 5.78125 12 7.6875 12.296875 8.875 
z
" id="CMMI12-116"/>
      <path d="M 25.203125 74.5 
C 19.796875 69.015625 7.40625 56.265625 7.40625 24.8125 
C 7.40625 -6.765625 19.796875 -19.421875 25.203125 -25 
L 31.296875 -25 
C 19 -12.25 15 5.578125 15 24.703125 
C 15 43.71875 18.796875 61.65625 31.296875 74.5 
z
" id="CMSS17-40"/>
      <path d="M 41.796875 43 
L 34 43 
C 25.5 20.21875 22.59375 10.96875 22.40625 5.984375 
L 22.296875 5.984375 
C 22 10.875 17.59375 22.8125 14.09375 31.359375 
L 9.40625 43 
L 1.296875 43 
L 19 0.203125 
C 17.90625 -2.78125 16.296875 -7.265625 15.796875 -8.265625 
C 13.59375 -13.828125 12.09375 -13.828125 10.5 -13.828125 
C 10.09375 -13.828125 6.90625 -13.828125 3.296875 -12.640625 
L 3.90625 -19.203125 
C 6.40625 -19.703125 8.90625 -20 10.703125 -20 
C 13.203125 -20 18.203125 -20 22.796875 -7.765625 
z
" id="CMSS17-121"/>
      <path d="M 39.09375 21.515625 
C 39.09375 24.84375 38.90625 31.296875 35.703125 36.640625 
C 32.203125 42.390625 26.5 44 22.203125 44 
C 11.796875 44 3 34.1875 3 21.484375 
C 3 9.09375 12.09375 -1 23.59375 -1 
C 28.09375 -1 33.59375 0.296875 38.59375 3.875 
C 38.59375 4.28125 38.40625 6.46875 38.296875 6.5625 
C 38.296875 6.765625 38 9.84375 38 10.25 
C 33.203125 6.359375 27.703125 5.078125 23.703125 5.078125 
C 17.296875 5.078125 10.40625 10.421875 10.09375 21.515625 
z
M 10.90625 27 
C 12.203125 32.5625 16.59375 37.828125 22.203125 37.828125 
C 23.703125 37.828125 30.703125 37.828125 32.5 27 
z
" id="CMSS17-101"/>
      <path d="M 37.59375 27.984375 
C 37.59375 37.375 30.90625 43.875 21.90625 43.875 
C 17.5 43.875 12.703125 43.078125 7.203125 39.890625 
L 7.796875 33.359375 
C 10.296875 35.125 14.59375 38 21.796875 38 
C 26.90625 38 30 34.0625 30 27.84375 
L 30 24 
C 14 24 4 19.34375 4 11.34375 
C 4 7.203125 6.5 -1 14.796875 -1 
C 16.296875 -1 24.40625 -1 30.203125 3.390625 
L 30.203125 -0.296875 
L 37.59375 -0.296875 
z
M 30 12.75 
C 30 10.953125 30 8.5625 27 6.78125 
C 24.40625 5.078125 21.09375 5.078125 19.703125 5.078125 
C 14.703125 5.078125 11.296875 7.984375 11.296875 11.625 
C 11.296875 18.921875 26.90625 18.921875 30 18.921875 
z
" id="CMSS17-97"/>
      <path d="M 14.90625 21.296875 
C 14.90625 30.703125 21.796875 37 30.59375 37 
L 30.59375 43.578125 
C 24.203125 43.578125 18.203125 40.390625 14.59375 35.203125 
L 14.59375 43.09375 
L 7.5 43.09375 
L 7.5 0 
L 14.90625 0 
z
" id="CMSS17-114"/>
      <path d="M 32.203125 41.046875 
C 26.296875 43.859375 21.703125 43.859375 18.703125 43.859375 
C 11.59375 43.859375 3.09375 41.375 3.09375 31.296875 
C 3.09375 21.234375 14.09375 19.03125 17.09375 18.421875 
C 21.703125 17.53125 26.796875 16.53125 26.796875 11.5625 
C 26.796875 5.265625 19.59375 5.265625 18.296875 5.265625 
C 14.296875 5.265625 8.796875 6.359375 3.796875 9.96875 
L 2.59375 3.28125 
C 8.296875 0 13.796875 -1 18.40625 -1 
C 30.703125 -1 33.796875 6.5 33.796875 12.203125 
C 33.796875 17.09375 31 20.390625 29.09375 21.890625 
C 25.796875 24.5 24.59375 24.796875 16.40625 26.5 
C 15 26.703125 10.09375 27.796875 10.09375 32.28125 
C 10.09375 38 16.40625 38 17.796875 38 
C 24.296875 38 28.296875 35.984375 31 34.5 
z
" id="CMSS17-115"/>
      <path d="M 44.5 43.875 
C 38.796875 43.875 33.90625 42.78125 29.90625 40.890625 
C 26.59375 43.390625 23.203125 43.875 20.90625 43.875 
C 12.203125 43.875 5.59375 36.703125 5.59375 28.34375 
C 5.59375 22.9375 8.59375 18.859375 8.796875 18.671875 
C 7 16.171875 6 13.484375 6 10.5 
C 6 7 7.40625 4.515625 8.5 3.125 
C 3.296875 -0.046875 2.59375 -4.90625 2.59375 -6.796875 
C 2.59375 -14.03125 11.703125 -20 23.40625 -20 
C 35.203125 -20 44.296875 -14.03125 44.296875 -6.6875 
C 44.296875 7 29 7 24.796875 7 
L 16.703125 7 
C 15.203125 7 11.203125 7 11.203125 12.359375 
C 11.203125 14.390625 12.09375 15.6875 12.203125 15.78125 
C 13.703125 14.6875 16.796875 13 20.90625 13 
C 29.203125 13 36.09375 19.96875 36.09375 28.546875 
C 36.09375 33.3125 33.90625 36.796875 33 38 
L 33.296875 38 
C 33.59375 38 37.796875 38 39.296875 38 
C 42.5 38 42.796875 37.953125 45.59375 37.796875 
z
M 20.90625 18.46875 
C 17.5 18.46875 12.703125 20.546875 12.703125 28.484375 
C 12.703125 37.109375 18.203125 38.5 20.796875 38.5 
C 24.203125 38.5 29 36.421875 29 28.484375 
C 29 19.859375 23.5 18.46875 20.90625 18.46875 
z
M 24.703125 -0.15625 
C 27.09375 -0.15625 37.203125 -0.15625 37.203125 -6.90625 
C 37.203125 -11.15625 31 -14.515625 23.5 -14.515625 
C 15.90625 -14.515625 9.703125 -11.25 9.703125 -6.796875 
C 9.703125 -6.296875 9.703125 -0.15625 16.59375 -0.15625 
z
" id="CMSS17-103"/>
      <path d="M 44.203125 21.1875 
C 44.203125 34 34.703125 44 23.5 44 
C 12 44 2.703125 33.703125 2.703125 21.1875 
C 2.703125 8.5 12.296875 -1 23.40625 -1 
C 34.796875 -1 44.203125 8.796875 44.203125 21.1875 
z
M 23.5 5.265625 
C 16.40625 5.265625 10.296875 11.078125 10.296875 22 
C 10.296875 33.609375 17.40625 37.921875 23.40625 37.921875 
C 29.90625 37.921875 36.59375 33.21875 36.59375 22 
C 36.59375 10.671875 30.09375 5.265625 23.5 5.265625 
z
" id="CMSS17-111"/>
      <path d="M 11.296875 -25 
C 16.703125 -19.515625 29.09375 -6.765625 29.09375 24.703125 
C 29.09375 56.265625 16.703125 68.921875 11.296875 74.5 
L 5.203125 74.5 
C 17.5 61.75 21.5 43.921875 21.5 24.8125 
C 21.5 5.78125 17.703125 -12.15625 5.203125 -25 
z
" id="CMSS17-41"/>
     </defs>
     <g transform="translate(199.756198 595.10934)scale(0.1 -0.1)">
      <use transform="scale(0.996264)" xlink:href="#CMMI12-116"/>
      <use transform="translate(66.455443 0)scale(0.996264)" xlink:href="#CMSS17-40"/>
      <use transform="translate(102.889357 0)scale(0.996264)" xlink:href="#CMSS17-121"/>
      <use transform="translate(143.287045 0)scale(0.996264)" xlink:href="#CMSS17-101"/>
      <use transform="translate(184.925867 0)scale(0.996264)" xlink:href="#CMSS17-97"/>
      <use transform="translate(227.245334 0)scale(0.996264)" xlink:href="#CMSS17-114"/>
      <use transform="translate(259.155106 0)scale(0.996264)" xlink:href="#CMSS17-115"/>
      <use transform="translate(326.297761 0)scale(0.996264)" xlink:href="#CMSS17-97"/>
      <use transform="translate(371.219682 0)scale(0.996264)" xlink:href="#CMSS17-103"/>
      <use transform="translate(418.063305 0)scale(0.996264)" xlink:href="#CMSS17-111"/>
      <use transform="translate(464.906929 0)scale(0.996264)" xlink:href="#CMSS17-41"/>
     </g>
    </g>
   </g>
   <g id="matplotlib.axis_2">
    <g id="ytick_1">
     <g id="line2d_29">
      <defs>
       <path d="M 0 0 
L -3.5 0 
" id="md22f728f5f" style="stroke:#000000;stroke-width:0.8;"/>
      </defs>
      <g>
       <use style="stroke:#000000;stroke-width:0.8;" x="42.096548" xlink:href="#md22f728f5f" y="535.100099"/>
      </g>
     </g>
     <g id="text_6">
      <!-- $10^{4}$ -->
      <g transform="translate(21.16264 538.559348)scale(0.1 -0.1)">
       <use transform="scale(0.996264)" xlink:href="#CMR17-49"/>
       <use transform="translate(45.690477 0)scale(0.996264)" xlink:href="#CMR17-48"/>
       <use transform="translate(91.380954 36.153639)scale(0.697382)" xlink:href="#CMR17-52"/>
      </g>
     </g>
    </g>
    <g id="ytick_2">
     <g id="line2d_30">
      <g>
       <use style="stroke:#000000;stroke-width:0.8;" x="42.096548" xlink:href="#md22f728f5f" y="255.795354"/>
      </g>
     </g>
     <g id="text_7">
      <!-- $10^{5}$ -->
      <g transform="translate(21.16264 259.254603)scale(0.1 -0.1)">
       <use transform="scale(0.996264)" xlink:href="#CMR17-49"/>
       <use transform="translate(45.690477 0)scale(0.996264)" xlink:href="#CMR17-48"/>
       <use transform="translate(91.380954 36.153639)scale(0.697382)" xlink:href="#CMR17-53"/>
      </g>
     </g>
    </g>
    <g id="ytick_3">
     <g id="line2d_31">
      <defs>
       <path d="M 0 0 
L -2 0 
" id="ma0bbfaa8df" style="stroke:#000000;stroke-width:0.6;"/>
      </defs>
      <g>
       <use style="stroke:#000000;stroke-width:0.6;" x="42.096548" xlink:href="#ma0bbfaa8df" y="562.167525"/>
      </g>
     </g>
    </g>
    <g id="ytick_4">
     <g id="line2d_32">
      <g>
       <use style="stroke:#000000;stroke-width:0.6;" x="42.096548" xlink:href="#ma0bbfaa8df" y="547.880383"/>
      </g>
     </g>
    </g>
    <g id="ytick_5">
     <g id="line2d_33">
      <g>
       <use style="stroke:#000000;stroke-width:0.6;" x="42.096548" xlink:href="#ma0bbfaa8df" y="451.020993"/>
      </g>
     </g>
    </g>
    <g id="ytick_6">
     <g id="line2d_34">
      <g>
       <use style="stroke:#000000;stroke-width:0.6;" x="42.096548" xlink:href="#ma0bbfaa8df" y="401.837868"/>
      </g>
     </g>
    </g>
    <g id="ytick_7">
     <g id="line2d_35">
      <g>
       <use style="stroke:#000000;stroke-width:0.6;" x="42.096548" xlink:href="#ma0bbfaa8df" y="366.941886"/>
      </g>
     </g>
    </g>
    <g id="ytick_8">
     <g id="line2d_36">
      <g>
       <use style="stroke:#000000;stroke-width:0.6;" x="42.096548" xlink:href="#ma0bbfaa8df" y="339.87446"/>
      </g>
     </g>
    </g>
    <g id="ytick_9">
     <g id="line2d_37">
      <g>
       <use style="stroke:#000000;stroke-width:0.6;" x="42.096548" xlink:href="#ma0bbfaa8df" y="317.758762"/>
      </g>
     </g>
    </g>
    <g id="ytick_10">
     <g id="line2d_38">
      <g>
       <use style="stroke:#000000;stroke-width:0.6;" x="42.096548" xlink:href="#ma0bbfaa8df" y="299.060206"/>
      </g>
     </g>
    </g>
    <g id="ytick_11">
     <g id="line2d_39">
      <g>
       <use style="stroke:#000000;stroke-width:0.6;" x="42.096548" xlink:href="#ma0bbfaa8df" y="282.86278"/>
      </g>
     </g>
    </g>
    <g id="ytick_12">
     <g id="line2d_40">
      <g>
       <use style="stroke:#000000;stroke-width:0.6;" x="42.096548" xlink:href="#ma0bbfaa8df" y="268.575638"/>
      </g>
     </g>
    </g>
    <g id="ytick_13">
     <g id="line2d_41">
      <g>
       <use style="stroke:#000000;stroke-width:0.6;" x="42.096548" xlink:href="#ma0bbfaa8df" y="171.716247"/>
      </g>
     </g>
    </g>
    <g id="ytick_14">
     <g id="line2d_42">
      <g>
       <use style="stroke:#000000;stroke-width:0.6;" x="42.096548" xlink:href="#ma0bbfaa8df" y="122.533123"/>
      </g>
     </g>
    </g>
    <g id="ytick_15">
     <g id="line2d_43">
      <g>
       <use style="stroke:#000000;stroke-width:0.6;" x="42.096548" xlink:href="#ma0bbfaa8df" y="87.637141"/>
      </g>
     </g>
    </g>
    <g id="ytick_16">
     <g id="line2d_44">
      <g>
       <use style="stroke:#000000;stroke-width:0.6;" x="42.096548" xlink:href="#ma0bbfaa8df" y="60.569715"/>
      </g>
     </g>
    </g>
    <g id="ytick_17">
     <g id="line2d_45">
      <g>
       <use style="stroke:#000000;stroke-width:0.6;" x="42.096548" xlink:href="#ma0bbfaa8df" y="38.454017"/>
      </g>
     </g>
    </g>
    <g id="ytick_18">
     <g id="line2d_46">
      <g>
       <use style="stroke:#000000;stroke-width:0.6;" x="42.096548" xlink:href="#ma0bbfaa8df" y="19.755461"/>
      </g>
     </g>
    </g>
    <g id="text_8">
     <!-- $\eta(t)$ -->
     <defs>
      <path d="M 47.5 27.625 
C 48 29.609375 48.296875 30.828125 48.296875 33.515625 
C 48.296875 39.5 44.796875 43.984375 37.203125 43.984375 
C 28.296875 43.984375 23.59375 37.703125 21.796875 35.21875 
C 21.5 40.90625 17.40625 43.984375 13 43.984375 
C 10.09375 43.984375 7.796875 42.59375 5.90625 38.796875 
C 4.09375 35.21875 2.703125 29.125 2.703125 28.734375 
C 2.703125 28.328125 3.09375 27.828125 3.796875 27.828125 
C 4.59375 27.828125 4.703125 27.9375 5.296875 30.21875 
C 6.796875 36.109375 8.703125 42 12.703125 42 
C 15 42 15.796875 40.40625 15.796875 37.40625 
C 15.796875 35.21875 14.796875 31.328125 14.09375 28.234375 
L 11.296875 17.46875 
C 10.90625 15.5625 9.796875 11.078125 9.296875 9.265625 
C 8.59375 6.6875 7.5 1.984375 7.5 1.5 
C 7.5 0.09375 8.59375 -1 10.09375 -1 
C 11.296875 -1 12.703125 -0.390625 13.5 1.09375 
C 13.703125 1.59375 14.59375 5.09375 15.09375 7.078125 
L 17.296875 16.0625 
L 20.59375 29.234375 
C 20.796875 29.828125 23.296875 34.8125 27 38 
C 29.59375 40.40625 33 42 36.90625 42 
C 40.90625 42 42.296875 39 42.296875 35.015625 
C 42.296875 32.109375 41.90625 30.515625 41.40625 28.609375 
L 29.796875 -17.296875 
C 29.703125 -17.796875 29.5 -18.390625 29.5 -19 
C 29.5 -20.5 30.703125 -21.5 32.203125 -21.5 
C 33.09375 -21.5 35.203125 -21.09375 36 -18.09375 
z
" id="CMMI12-17"/>
      <path d="M 30.59375 -24.390625 
C 30.59375 -24.296875 30.59375 -24.09375 30.296875 -23.796875 
C 25.703125 -19.125 13.40625 -6.359375 13.40625 24.703125 
C 13.40625 55.765625 25.5 68.421875 30.40625 73.390625 
C 30.40625 73.5 30.59375 73.703125 30.59375 74 
C 30.59375 74.296875 30.296875 74.5 29.90625 74.5 
C 28.796875 74.5 20.296875 67.125 15.40625 56.15625 
C 10.40625 45.109375 9 34.359375 9 24.8125 
C 9 17.625 9.703125 5.484375 15.703125 -7.359375 
C 20.5 -17.734375 28.703125 -25 29.90625 -25 
C 30.40625 -25 30.59375 -24.796875 30.59375 -24.390625 
z
" id="CMR17-40"/>
      <path d="M 26.296875 24.703125 
C 26.296875 31.875 25.59375 44.015625 19.59375 56.859375 
C 14.796875 67.234375 6.59375 74.5 5.40625 74.5 
C 5.09375 74.5 4.703125 74.390625 4.703125 73.890625 
C 4.703125 73.703125 4.796875 73.59375 4.90625 73.390625 
C 9.703125 68.40625 21.90625 55.75 21.90625 24.75 
C 21.90625 -6.359375 9.796875 -19.015625 4.90625 -24.015625 
C 4.796875 -24.203125 4.703125 -24.3125 4.703125 -24.5 
C 4.703125 -25 5.09375 -25 5.40625 -25 
C 6.5 -25 15 -17.625 19.90625 -6.65625 
C 24.90625 4.390625 26.296875 15.140625 26.296875 24.703125 
z
" id="CMR17-41"/>
     </defs>
     <g transform="translate(14.67198 295.816121)rotate(-90)scale(0.1 -0.1)">
      <use transform="scale(0.996264)" xlink:href="#CMMI12-17"/>
      <use transform="translate(51.703816 0)scale(0.996264)" xlink:href="#CMR17-40"/>
      <use transform="translate(86.984584 0)scale(0.996264)" xlink:href="#CMMI12-116"/>
      <use transform="translate(122.210914 0)scale(0.996264)" xlink:href="#CMR17-41"/>
     </g>
    </g>
   </g>
   <g id="line2d_47">
    <path clip-path="url(#pabb6d61781)" d="M -1 139.569629 
L 23.373883 139.569629 
L 26.646283 139.763274 
L 29.918683 140.271136 
L 33.191084 140.951428 
L 36.463484 141.794909 
L 39.735884 142.8128 
L 43.008285 144.006492 
L 46.280685 145.381321 
L 49.553086 146.937635 
L 52.825486 148.678673 
L 56.097886 150.604604 
L 59.370287 152.719653 
L 62.642687 155.02508 
L 65.915088 157.527579 
L 69.187488 160.230625 
L 72.459888 163.142047 
L 75.732289 166.273936 
L 79.004689 169.621365 
L 82.277089 173.202827 
L 85.54949 177.111442 
L 88.82189 181.473595 
L 92.094291 186.362981 
L 95.366691 191.770688 
L 98.639091 197.639926 
L 101.911492 203.911888 
L 105.183892 210.548684 
L 108.456293 217.534419 
L 111.728693 224.867093 
L 115.001093 232.548895 
L 118.273494 240.577135 
L 121.545894 248.937902 
L 128.090695 266.535669 
L 137.907896 294.280897 
L 144.452697 312.573379 
L 147.725097 321.245524 
L 150.997498 329.372117 
L 154.269898 336.764867 
L 157.542298 343.231043 
L 160.814699 348.583054 
L 164.087099 352.650079 
L 167.359499 355.291272 
L 170.6319 356.408223 
L 190.266302 356.408223 
L 193.538703 355.57037 
L 196.811103 353.731255 
L 200.083503 351.07022 
L 203.355904 347.774324 
L 206.628304 344.031284 
L 219.717906 328.109922 
L 222.990306 324.671971 
L 226.262706 321.714856 
L 229.535107 319.348669 
L 232.807507 317.673431 
L 236.079908 316.780402 
L 252.441909 316.753036 
L 265.531511 316.807873 
L 268.803911 317.719332 
L 272.076312 319.377395 
L 275.348712 321.647191 
L 278.621112 324.366938 
L 288.438314 333.170305 
L 291.710714 335.505406 
L 294.983114 337.101053 
L 298.255515 337.710337 
L 317.889917 337.639974 
L 321.162317 336.146815 
L 324.434718 333.430813 
L 327.707118 329.764301 
L 330.979519 325.474776 
L 337.524319 316.50229 
L 340.79672 312.581378 
L 344.06912 309.537537 
L 347.341521 307.736246 
L 350.613921 307.537142 
L 360.431122 307.537142 
L 363.703522 308.927706 
L 366.975923 313.300098 
L 370.248323 320.785351 
L 373.520724 331.462589 
L 376.793124 345.316672 
L 380.065524 362.165381 
L 383.337925 381.547985 
L 389.882726 423.817741 
L 393.155126 443.251984 
L 396.427526 458.595023 
L 399.699927 467.90837 
L 402.972327 470.262801 
L 406.244727 470.262801 
L 409.517128 468.333737 
L 412.789528 461.945137 
L 416.061929 452.409446 
L 419.334329 440.863767 
L 422.606729 428.190423 
L 425.8 415.34958 
L 425.8 415.34958 
" style="fill:none;stroke:#1f77b4;stroke-linecap:square;stroke-opacity:0.3;stroke-width:3;"/>
   </g>
   <g id="line2d_48">
    <path clip-path="url(#pabb6d61781)" d="M -1 229.560244 
L 56.097886 229.582392 
L 59.370287 229.752854 
L 62.642687 230.053646 
L 65.915088 230.501234 
L 69.187488 231.095744 
L 72.459888 231.8582 
L 75.732289 232.78196 
L 79.004689 233.881855 
L 82.277089 235.238353 
L 85.54949 236.954531 
L 88.82189 239.085182 
L 92.094291 241.610883 
L 95.366691 244.468144 
L 98.639091 247.590946 
L 101.911492 250.931071 
L 108.456293 258.144873 
L 115.001093 265.92596 
L 121.545894 274.118078 
L 137.907896 295.110704 
L 144.452697 302.982589 
L 147.725097 306.693734 
L 150.997498 310.205017 
L 154.269898 313.466525 
L 157.542298 316.40924 
L 160.814699 318.948756 
L 164.087099 321.008342 
L 167.359499 322.511628 
L 170.6319 323.377323 
L 173.9043 323.533395 
L 206.628304 323.532347 
L 209.900704 322.883772 
L 213.173105 321.696603 
L 216.445505 320.084813 
L 219.717906 318.166375 
L 232.807507 309.829362 
L 236.079908 308.1938 
L 239.352308 307.008961 
L 242.624708 306.411009 
L 272.076312 306.500919 
L 275.348712 307.523113 
L 278.621112 309.374835 
L 281.893513 311.91989 
L 285.165913 314.984396 
L 294.983114 325.004412 
L 298.255515 327.697074 
L 301.527915 329.56044 
L 304.800316 330.303189 
L 321.162317 330.303189 
L 324.434718 329.591461 
L 327.707118 327.49869 
L 330.979519 324.300932 
L 334.251919 320.346108 
L 340.79672 311.783419 
L 344.06912 308.037229 
L 347.341521 305.228286 
L 350.613921 303.785548 
L 363.703522 303.785548 
L 366.975923 306.836258 
L 370.248323 313.184971 
L 373.520724 322.97546 
L 376.793124 336.271198 
L 380.065524 352.988868 
L 383.337925 372.782862 
L 386.610325 394.881359 
L 389.882726 417.900978 
L 393.155126 439.74845 
L 396.427526 457.829836 
L 399.699927 469.724727 
L 402.972327 474.060227 
L 406.244727 474.060227 
L 409.517128 472.632721 
L 412.789528 466.217518 
L 416.061929 456.316493 
L 419.334329 444.22247 
L 422.606729 430.924003 
L 425.8 417.462768 
L 425.8 417.462768 
" style="fill:none;stroke:#1f77b4;stroke-linecap:square;stroke-opacity:0.3;stroke-width:3;"/>
   </g>
   <g id="line2d_49">
    <path clip-path="url(#pabb6d61781)" d="M -1 247.48092 
L 52.825486 247.472331 
L 59.370287 247.843674 
L 65.915088 248.446106 
L 72.459888 249.260267 
L 79.004689 250.261683 
L 88.82189 252.036042 
L 105.183892 255.304986 
L 108.456293 256.112586 
L 111.728693 257.075813 
L 118.273494 259.304152 
L 131.363095 264.099359 
L 141.180296 267.946483 
L 147.725097 270.714344 
L 154.269898 273.665815 
L 160.814699 276.800779 
L 170.6319 281.809311 
L 196.811103 295.630701 
L 203.355904 298.596272 
L 206.628304 299.881607 
L 209.900704 300.991875 
L 213.173105 301.903474 
L 216.445505 302.613963 
L 219.717906 303.139586 
L 222.990306 303.491875 
L 226.262706 303.668968 
L 258.98671 303.677765 
L 262.259111 303.967419 
L 265.531511 304.612592 
L 268.803911 305.662657 
L 272.076312 307.154409 
L 275.348712 309.106744 
L 278.621112 311.515153 
L 281.893513 314.349484 
L 285.165913 317.542008 
L 298.255515 331.196629 
L 301.527915 333.837826 
L 304.800316 335.649855 
L 308.072716 336.35856 
L 324.434718 336.35856 
L 327.707118 335.595087 
L 330.979519 333.469874 
L 334.251919 330.311637 
L 337.524319 326.528002 
L 340.79672 322.572691 
L 344.06912 318.916702 
L 347.341521 316.031174 
L 350.613921 314.379326 
L 363.703522 314.379326 
L 366.975923 316.943636 
L 370.248323 322.766909 
L 373.520724 331.958137 
L 376.793124 344.51976 
L 380.065524 360.280243 
L 383.337925 378.790961 
L 393.155126 439.448329 
L 396.427526 455.076731 
L 399.699927 464.969486 
L 402.972327 468.084783 
L 406.244727 468.084783 
L 409.517128 466.920782 
L 412.789528 461.199626 
L 416.061929 452.22471 
L 419.334329 441.152486 
L 422.606729 428.889098 
L 425.8 416.400176 
L 425.8 416.400176 
" style="fill:none;stroke:#1f77b4;stroke-linecap:square;stroke-opacity:0.3;stroke-width:3;"/>
   </g>
   <g id="line2d_50">
    <path clip-path="url(#pabb6d61781)" d="M -1 176.763646 
L 79.004689 176.763646 
L 82.277089 176.938121 
L 85.54949 177.381465 
L 88.82189 178.076752 
L 92.094291 179.022334 
L 95.366691 180.239762 
L 98.639091 181.723723 
L 101.911492 183.453075 
L 105.183892 185.477873 
L 108.456293 187.910923 
L 111.728693 190.827475 
L 115.001093 194.21453 
L 118.273494 198.007038 
L 121.545894 202.144462 
L 124.818294 206.595738 
L 128.090695 211.352771 
L 131.363095 216.414217 
L 134.635496 221.77441 
L 137.907896 227.419935 
L 141.180296 233.330405 
L 147.725097 245.839269 
L 154.269898 259.040189 
L 167.359499 285.926323 
L 170.6319 292.352669 
L 173.9043 298.502194 
L 177.176701 304.293809 
L 180.449101 309.649296 
L 183.721501 314.495849 
L 186.993902 318.77087 
L 190.266302 322.428492 
L 193.538703 325.444812 
L 196.811103 327.818438 
L 200.083503 329.56513 
L 203.355904 330.70961 
L 206.628304 331.279848 
L 222.990306 331.30554 
L 258.98671 331.402961 
L 262.259111 331.896632 
L 265.531511 332.748325 
L 268.803911 333.906828 
L 275.348712 336.786022 
L 278.621112 338.255064 
L 281.893513 339.542044 
L 285.165913 340.477968 
L 288.438314 340.890867 
L 311.345116 340.890867 
L 314.617517 340.431824 
L 317.889917 338.74204 
L 321.162317 335.967814 
L 324.434718 332.311526 
L 327.707118 328.022146 
L 337.524319 314.293252 
L 340.79672 310.489661 
L 344.06912 307.617673 
L 347.341521 306.007671 
L 360.431122 305.994167 
L 363.703522 307.403425 
L 366.975923 311.756749 
L 370.248323 319.208136 
L 373.520724 329.866158 
L 376.793124 343.752363 
L 380.065524 360.72815 
L 383.337925 380.379071 
L 389.882726 423.725242 
L 393.155126 443.915023 
L 396.427526 460.008051 
L 399.699927 469.901827 
L 402.972327 472.555325 
L 406.244727 472.555325 
L 409.517128 470.410785 
L 412.789528 463.672855 
L 416.061929 453.738013 
L 419.334329 441.799818 
L 425.8 415.625937 
L 425.8 415.625937 
" style="fill:none;stroke:#1f77b4;stroke-linecap:square;stroke-opacity:0.3;stroke-width:3;"/>
   </g>
   <g id="line2d_51">
    <path clip-path="url(#pabb6d61781)" d="M -1 230.793804 
L 69.187488 230.826498 
L 72.459888 231.075824 
L 75.732289 231.550398 
L 79.004689 232.266724 
L 82.277089 233.238728 
L 85.54949 234.46223 
L 88.82189 235.935553 
L 92.094291 237.670678 
L 95.366691 239.661588 
L 98.639091 241.903232 
L 101.911492 244.442103 
L 105.183892 247.357553 
L 108.456293 250.699202 
L 111.728693 254.463151 
L 115.001093 258.61396 
L 118.273494 263.111427 
L 121.545894 267.92118 
L 124.818294 273.012891 
L 128.090695 278.354668 
L 134.635496 289.637274 
L 144.452697 307.423232 
L 150.997498 319.285992 
L 154.269898 325.033298 
L 157.542298 330.533787 
L 160.814699 335.665324 
L 164.087099 340.295802 
L 167.359499 344.282859 
L 170.6319 347.4771 
L 173.9043 349.743736 
L 177.176701 350.993464 
L 180.449101 351.157297 
L 203.355904 351.157297 
L 206.628304 350.453348 
L 209.900704 348.934752 
L 213.173105 346.74294 
L 216.445505 344.031126 
L 219.717906 340.96183 
L 229.535107 331.24975 
L 232.807507 328.356936 
L 236.079908 325.865969 
L 239.352308 323.896713 
L 242.624708 322.558314 
L 245.897109 321.951143 
L 275.348712 321.951143 
L 278.621112 322.618488 
L 281.893513 323.852273 
L 285.165913 325.474352 
L 291.710714 329.045711 
L 294.983114 330.526277 
L 298.255515 331.474918 
L 301.527915 331.652383 
L 321.162317 331.652383 
L 324.434718 330.92251 
L 327.707118 329.075174 
L 330.979519 326.364006 
L 334.251919 323.100773 
L 337.524319 319.63866 
L 340.79672 316.356976 
L 344.06912 313.648524 
L 347.341521 311.910626 
L 350.613921 311.540718 
L 360.431122 311.540718 
L 363.703522 312.203028 
L 366.975923 315.796875 
L 370.248323 322.478997 
L 373.520724 332.349599 
L 376.793124 345.412524 
L 380.065524 361.506676 
L 383.337925 380.200451 
L 389.882726 421.479452 
L 393.155126 440.736849 
L 396.427526 456.177352 
L 399.699927 465.840255 
L 402.972327 468.706903 
L 406.244727 468.706903 
L 409.517128 467.318957 
L 412.789528 461.401177 
L 416.061929 452.253572 
L 419.334329 441.022088 
L 422.606729 428.604076 
L 425.8 415.967672 
L 425.8 415.967672 
" style="fill:none;stroke:#1f77b4;stroke-linecap:square;stroke-opacity:0.3;stroke-width:3;"/>
   </g>
   <g id="line2d_52">
    <path clip-path="url(#pabb6d61781)" d="M -1 232.24317 
L 121.545894 232.24317 
L 124.818294 232.377378 
L 128.090695 232.633245 
L 131.363095 233.03441 
L 137.907896 234.227447 
L 141.180296 235.005218 
L 147.725097 236.909458 
L 154.269898 239.280685 
L 157.542298 240.644834 
L 160.814699 242.134697 
L 164.087099 243.752532 
L 167.359499 245.505572 
L 170.6319 247.398023 
L 173.9043 249.432112 
L 177.176701 251.610587 
L 183.721501 256.386808 
L 190.266302 261.662448 
L 196.811103 267.306853 
L 209.900704 278.888479 
L 216.445505 284.258936 
L 219.717906 286.697494 
L 222.990306 288.923172 
L 226.262706 290.908879 
L 229.535107 292.636365 
L 232.807507 294.098035 
L 236.079908 295.299822 
L 239.352308 296.263957 
L 242.624708 297.030132 
L 249.169509 298.206614 
L 255.71431 299.415282 
L 258.98671 300.239001 
L 262.259111 301.316515 
L 265.531511 302.719222 
L 268.803911 304.504501 
L 272.076312 306.710435 
L 275.348712 309.353838 
L 278.621112 312.431054 
L 281.893513 315.916897 
L 285.165913 319.757238 
L 294.983114 332.160103 
L 298.255515 335.883991 
L 301.527915 338.925957 
L 304.800316 340.969732 
L 308.072716 341.723724 
L 324.434718 341.723724 
L 327.707118 340.945061 
L 330.979519 339.055267 
L 334.251919 336.419941 
L 340.79672 330.566742 
L 344.06912 328.213682 
L 347.341521 326.814676 
L 357.158722 326.776686 
L 360.431122 326.776686 
L 363.703522 327.348383 
L 366.975923 330.528587 
L 370.248323 336.344586 
L 373.520724 344.746911 
L 376.793124 355.581355 
L 380.065524 368.551123 
L 383.337925 383.170592 
L 389.882726 414.253979 
L 393.155126 428.618317 
L 396.427526 440.62755 
L 399.699927 449.248509 
L 402.972327 453.7912 
L 406.244727 454.000154 
L 412.789528 454.000154 
L 416.061929 450.58056 
L 419.334329 444.195465 
L 422.606729 435.490852 
L 425.8 425.359131 
L 425.8 425.359131 
" style="fill:none;stroke:#1f77b4;stroke-linecap:square;stroke-opacity:0.3;stroke-width:3;"/>
   </g>
   <g id="line2d_53">
    <path clip-path="url(#pabb6d61781)" d="M -1 159.270558 
L 82.277089 159.270558 
L 85.54949 159.447302 
L 88.82189 159.863671 
L 92.094291 160.516342 
L 95.366691 161.415448 
L 98.639091 162.580148 
L 101.911492 164.012194 
L 105.183892 165.708033 
L 108.456293 167.679452 
L 111.728693 169.924842 
L 115.001093 172.426075 
L 118.273494 175.20612 
L 121.545894 178.349891 
L 124.818294 181.947819 
L 128.090695 186.035609 
L 131.363095 190.587461 
L 134.635496 195.546713 
L 137.907896 200.857257 
L 141.180296 206.480457 
L 144.452697 212.39853 
L 147.725097 218.607817 
L 150.997498 225.106023 
L 157.542298 238.895118 
L 167.359499 260.761867 
L 173.9043 275.102565 
L 177.176701 281.869527 
L 180.449101 288.212618 
L 183.721501 294.019062 
L 186.993902 299.170285 
L 190.266302 303.535337 
L 193.538703 306.993775 
L 196.811103 309.449431 
L 200.083503 310.811581 
L 203.355904 311.018812 
L 232.807507 311.018812 
L 242.624708 310.244603 
L 275.348712 310.244603 
L 278.621112 311.219002 
L 281.893513 313.086379 
L 285.165913 315.703994 
L 288.438314 318.89281 
L 298.255515 329.515497 
L 301.527915 332.44674 
L 304.800316 334.543527 
L 308.072716 335.499987 
L 324.434718 335.499987 
L 327.707118 334.881113 
L 330.979519 332.964734 
L 334.251919 330.084179 
L 344.06912 319.855994 
L 347.341521 317.442332 
L 350.613921 316.295857 
L 363.703522 316.295857 
L 366.975923 319.27294 
L 370.248323 325.406526 
L 373.520724 334.77821 
L 376.793124 347.353402 
L 380.065524 362.922115 
L 383.337925 380.999633 
L 389.882726 420.636405 
L 393.155126 438.934701 
L 396.427526 453.508745 
L 399.699927 462.591735 
L 402.972327 465.288544 
L 406.244727 465.288544 
L 409.517128 464.441209 
L 412.789528 459.239568 
L 416.061929 450.862448 
L 419.334329 440.372526 
L 422.606729 428.62094 
L 425.8 416.542296 
L 425.8 416.542296 
" style="fill:none;stroke:#1f77b4;stroke-linecap:square;stroke-opacity:0.3;stroke-width:3;"/>
   </g>
   <g id="line2d_54">
    <path clip-path="url(#pabb6d61781)" d="M -1 207.668637 
L 56.097886 207.668637 
L 59.370287 207.850677 
L 62.642687 208.226024 
L 65.915088 208.793079 
L 69.187488 209.554396 
L 72.459888 210.514107 
L 75.732289 211.67648 
L 79.004689 213.044139 
L 82.277089 214.620278 
L 85.54949 216.401351 
L 88.82189 218.37683 
L 92.094291 220.554477 
L 95.366691 222.97558 
L 98.639091 225.691218 
L 101.911492 228.727223 
L 105.183892 232.073138 
L 108.456293 235.693977 
L 111.728693 239.545024 
L 118.273494 247.751093 
L 134.635496 268.883286 
L 137.907896 272.711973 
L 141.180296 276.222476 
L 144.452697 279.333583 
L 147.725097 281.96135 
L 150.997498 284.017586 
L 154.269898 285.408873 
L 157.542298 286.04118 
L 186.993902 286.04118 
L 190.266302 285.610856 
L 193.538703 284.558009 
L 196.811103 283.03228 
L 203.355904 279.257478 
L 206.628304 277.384435 
L 209.900704 275.778249 
L 213.173105 274.630849 
L 216.445505 274.132138 
L 236.079908 274.132138 
L 239.352308 274.840589 
L 242.624708 277.323018 
L 245.897109 281.626671 
L 249.169509 287.785809 
L 252.441909 295.817094 
L 255.71431 305.712166 
L 258.98671 317.426856 
L 262.259111 330.866914 
L 265.531511 345.870672 
L 268.803911 362.189841 
L 275.348712 397.240042 
L 278.621112 414.901896 
L 281.893513 431.755393 
L 285.165913 447.042113 
L 288.438314 460.02557 
L 291.710714 470.086556 
L 294.983114 476.800142 
L 298.255515 479.963844 
L 308.072716 479.963844 
L 311.345116 477.951615 
L 314.617517 473.13795 
L 317.889917 465.871841 
L 321.162317 456.570263 
L 324.434718 445.689104 
L 327.707118 433.692838 
L 340.79672 382.953424 
L 344.06912 371.32898 
L 347.341521 360.691434 
L 350.613921 351.269681 
L 353.886321 343.274367 
L 357.158722 336.905299 
L 360.431122 332.358766 
L 363.703522 329.834824 
L 366.975923 329.544526 
L 376.793124 329.544526 
L 380.065524 332.06208 
L 383.337925 337.616177 
L 386.610325 346.292869 
L 389.882726 358.133468 
L 393.155126 373.074656 
L 396.427526 390.836168 
L 399.699927 410.735087 
L 402.972327 431.465632 
L 406.244727 451.02045 
L 409.517128 466.834069 
L 412.789528 476.241325 
L 416.061929 477.369365 
L 419.334329 477.369365 
L 422.606729 470.094022 
L 425.8 457.536692 
L 425.8 457.536692 
" style="fill:none;stroke:#ff7f0e;stroke-linecap:square;stroke-opacity:0.3;stroke-width:3;"/>
   </g>
   <g id="line2d_55">
    <path clip-path="url(#pabb6d61781)" d="M -1 95.864031 
L 98.639091 95.864031 
L 101.911492 95.980053 
L 105.183892 96.343812 
L 108.456293 96.947639 
L 111.728693 97.839536 
L 115.001093 98.990615 
L 118.273494 100.378964 
L 121.545894 102.195809 
L 124.818294 104.671402 
L 128.090695 107.857491 
L 131.363095 111.660961 
L 134.635496 115.974162 
L 137.907896 120.739859 
L 141.180296 125.946959 
L 144.452697 131.606364 
L 147.725097 137.737329 
L 150.997498 144.368301 
L 154.269898 151.541573 
L 157.542298 159.311265 
L 160.814699 167.73313 
L 164.087099 176.852329 
L 167.359499 186.696585 
L 170.6319 197.277182 
L 173.9043 208.594654 
L 177.176701 220.644676 
L 180.449101 233.420781 
L 183.721501 246.911769 
L 186.993902 261.094381 
L 190.266302 275.923838 
L 196.811103 307.171991 
L 206.628304 355.378797 
L 209.900704 370.736013 
L 213.173105 385.202964 
L 216.445505 398.490119 
L 219.717906 410.40611 
L 222.990306 420.917079 
L 226.262706 430.178445 
L 229.535107 438.52049 
L 236.079908 454.264918 
L 239.352308 462.572477 
L 242.624708 471.613605 
L 245.897109 481.51085 
L 249.169509 492.172076 
L 255.71431 514.272466 
L 258.98671 524.449797 
L 262.259111 533.002439 
L 265.531511 539.158801 
L 268.803911 542.300698 
L 278.621112 542.300698 
L 281.893513 539.99164 
L 285.165913 534.819534 
L 288.438314 527.266876 
L 291.710714 517.865585 
L 294.983114 507.140959 
L 298.255515 495.574889 
L 308.072716 459.700739 
L 311.345116 448.32625 
L 314.617517 437.596982 
L 317.889917 427.662912 
L 321.162317 418.644356 
L 324.434718 410.638766 
L 327.707118 403.726427 
L 330.979519 397.975511 
L 334.251919 393.446144 
L 337.524319 390.193664 
L 340.79672 388.271443 
L 344.06912 387.730768 
L 363.703522 387.730768 
L 366.975923 388.92565 
L 370.248323 391.259024 
L 373.520724 394.603809 
L 376.793124 398.813077 
L 380.065524 403.704763 
L 383.337925 409.062674 
L 389.882726 420.155117 
L 393.155126 425.314466 
L 396.427526 429.797693 
L 399.699927 433.261313 
L 402.972327 435.330225 
L 406.244727 435.607008 
L 416.061929 435.607008 
L 419.334329 433.211641 
L 422.606729 428.063078 
L 425.8 420.767196 
L 425.8 420.767196 
" style="fill:none;stroke:#ff7f0e;stroke-linecap:square;stroke-opacity:0.3;stroke-width:3;"/>
   </g>
   <g id="line2d_56">
    <path clip-path="url(#pabb6d61781)" d="M -1 119.179247 
L 65.915088 119.226026 
L 69.187488 119.419946 
L 75.732289 120.273404 
L 82.277089 121.716431 
L 85.54949 122.679662 
L 88.82189 124.222208 
L 92.094291 126.309942 
L 98.639091 131.192554 
L 105.183892 136.306454 
L 111.728693 141.684873 
L 118.273494 147.444833 
L 124.818294 153.56927 
L 131.363095 160.016811 
L 137.907896 166.80894 
L 144.452697 174.058527 
L 147.725097 177.910729 
L 150.997498 181.949876 
L 154.269898 186.203224 
L 157.542298 190.697293 
L 160.814699 195.457071 
L 164.087099 200.505739 
L 167.359499 205.864996 
L 170.6319 211.555437 
L 173.9043 217.59777 
L 177.176701 224.014197 
L 180.449101 230.830198 
L 183.721501 238.076731 
L 186.993902 245.791427 
L 190.266302 254.018356 
L 193.538703 262.80557 
L 196.811103 272.199696 
L 200.083503 282.239758 
L 203.355904 292.952553 
L 206.628304 304.349498 
L 209.900704 316.423919 
L 213.173105 329.146955 
L 216.445505 342.45994 
L 222.990306 370.410034 
L 229.535107 398.862252 
L 232.807507 412.620664 
L 236.079908 425.666492 
L 239.352308 437.720648 
L 242.624708 448.564999 
L 245.897109 458.070382 
L 249.169509 466.205266 
L 252.441909 473.020162 
L 255.71431 478.613783 
L 258.98671 483.093899 
L 262.259111 486.543832 
L 265.531511 489.000754 
L 268.803911 490.449361 
L 272.076312 490.831886 
L 291.710714 490.755738 
L 294.983114 488.96387 
L 298.255515 485.477885 
L 301.527915 480.384813 
L 304.800316 473.835952 
L 308.072716 466.034132 
L 311.345116 457.218122 
L 314.617517 447.644416 
L 321.162317 427.248739 
L 327.707118 406.772931 
L 330.979519 397.027813 
L 334.251919 387.859532 
L 337.524319 379.43738 
L 340.79672 371.915768 
L 344.06912 365.437789 
L 347.341521 360.139851 
L 350.613921 356.154763 
L 353.886321 353.616699 
L 357.158722 352.668205 
L 370.248323 352.668205 
L 373.520724 353.454542 
L 376.793124 356.389761 
L 380.065524 361.478786 
L 383.337925 368.690097 
L 386.610325 377.933573 
L 389.882726 389.029078 
L 393.155126 401.661471 
L 402.972327 442.230734 
L 406.244727 453.00234 
L 409.517128 460.069625 
L 412.789528 462.139077 
L 416.061929 462.139077 
L 419.334329 460.684512 
L 422.606729 454.113751 
L 425.8 443.875954 
L 425.8 443.875954 
" style="fill:none;stroke:#ff7f0e;stroke-linecap:square;stroke-opacity:0.3;stroke-width:3;"/>
   </g>
   <g id="line2d_57">
    <path clip-path="url(#pabb6d61781)" d="M -1 205.616427 
L 82.277089 205.616778 
L 85.54949 205.806552 
L 88.82189 206.178202 
L 92.094291 206.761578 
L 95.366691 207.569461 
L 98.639091 208.582509 
L 101.911492 209.790568 
L 105.183892 211.200353 
L 108.456293 212.811714 
L 111.728693 214.60875 
L 115.001093 216.572239 
L 118.273494 218.689554 
L 124.818294 223.33719 
L 131.363095 228.390081 
L 147.725097 241.364678 
L 154.269898 246.058525 
L 157.542298 248.174308 
L 160.814699 250.103043 
L 164.087099 251.827188 
L 167.359499 253.336244 
L 170.6319 254.627045 
L 173.9043 255.703921 
L 177.176701 256.579546 
L 180.449101 257.276586 
L 186.993902 258.286685 
L 193.538703 259.17527 
L 196.811103 259.772271 
L 200.083503 260.602794 
L 203.355904 261.780306 
L 206.628304 263.428416 
L 209.900704 265.678708 
L 213.173105 268.66785 
L 216.445505 272.534198 
L 219.717906 277.41401 
L 222.990306 283.436938 
L 226.262706 290.720204 
L 229.535107 299.360853 
L 232.807507 309.425453 
L 236.079908 320.93636 
L 239.352308 333.853706 
L 242.624708 348.053447 
L 245.897109 363.304856 
L 255.71431 411.284611 
L 258.98671 426.23296 
L 262.259111 439.767757 
L 265.531511 451.513182 
L 268.803911 461.261157 
L 272.076312 468.957404 
L 275.348712 474.655316 
L 278.621112 478.460247 
L 281.893513 480.481798 
L 285.165913 480.803026 
L 298.255515 480.803026 
L 301.527915 480.506826 
L 304.800316 478.278192 
L 308.072716 474.125729 
L 311.345116 468.13708 
L 314.617517 460.478758 
L 317.889917 451.38456 
L 321.162317 441.136669 
L 324.434718 430.044379 
L 337.524319 383.409054 
L 340.79672 372.587001 
L 344.06912 362.585326 
L 347.341521 353.612017 
L 350.613921 345.861036 
L 353.886321 339.517379 
L 357.158722 334.762592 
L 360.431122 331.780642 
L 363.703522 330.764025 
L 373.520724 330.764025 
L 376.793124 331.467986 
L 380.065524 334.965961 
L 383.337925 341.352404 
L 386.610325 350.701376 
L 389.882726 363.033508 
L 393.155126 378.253739 
L 396.427526 396.038925 
L 406.244727 454.389998 
L 409.517128 469.021828 
L 412.789528 477.178728 
L 416.061929 477.203631 
L 419.334329 476.837571 
L 422.606729 469.139105 
L 425.8 456.471414 
L 425.8 456.471414 
" style="fill:none;stroke:#ff7f0e;stroke-linecap:square;stroke-opacity:0.3;stroke-width:3;"/>
   </g>
   <g id="line2d_58">
    <path clip-path="url(#pabb6d61781)" d="M -1 84.942429 
L 7.011881 84.942429 
L 16.829082 86.624904 
L 23.373883 87.991178 
L 26.646283 88.835902 
L 33.191084 90.873797 
L 39.735884 93.351171 
L 46.280685 96.256235 
L 52.825486 99.583089 
L 59.370287 103.32934 
L 65.915088 107.512411 
L 72.459888 112.191086 
L 75.732289 114.758174 
L 79.004689 117.483997 
L 82.277089 120.380465 
L 85.54949 123.511434 
L 88.82189 126.86837 
L 92.094291 130.406673 
L 95.366691 134.200136 
L 98.639091 138.43025 
L 101.911492 143.23974 
L 105.183892 148.652854 
L 108.456293 154.609955 
L 111.728693 161.036821 
L 115.001093 167.883962 
L 118.273494 175.131393 
L 121.545894 182.77849 
L 124.818294 190.832369 
L 128.090695 199.300423 
L 131.363095 208.185325 
L 134.635496 217.481778 
L 137.907896 227.17431 
L 144.452697 247.622343 
L 150.997498 269.135479 
L 160.814699 301.951672 
L 167.359499 322.937136 
L 170.6319 332.845533 
L 173.9043 342.270354 
L 177.176701 351.190447 
L 180.449101 359.634077 
L 186.993902 375.459906 
L 193.538703 390.890129 
L 196.811103 398.917481 
L 200.083503 407.389842 
L 203.355904 416.443745 
L 206.628304 426.158854 
L 209.900704 436.541686 
L 213.173105 447.515351 
L 226.262706 493.08292 
L 229.535107 503.396754 
L 232.807507 512.628583 
L 236.079908 520.491106 
L 239.352308 526.755107 
L 242.624708 531.263988 
L 245.897109 533.937128 
L 249.169509 534.761513 
L 265.531511 534.761513 
L 268.803911 533.601567 
L 272.076312 530.938912 
L 275.348712 526.855018 
L 278.621112 521.458111 
L 281.893513 514.882929 
L 285.165913 507.28649 
L 288.438314 498.840576 
L 291.710714 489.724168 
L 298.255515 470.191736 
L 308.072716 440.084574 
L 311.345116 430.403487 
L 314.617517 421.102859 
L 317.889917 412.287887 
L 321.162317 404.054981 
L 324.434718 396.493854 
L 327.707118 389.689451 
L 330.979519 383.723671 
L 334.251919 378.67688 
L 337.524319 374.629123 
L 340.79672 371.660997 
L 344.06912 369.854348 
L 347.341521 369.293002 
L 363.703522 369.293002 
L 366.975923 369.566712 
L 370.248323 371.389321 
L 373.520724 374.715361 
L 376.793124 379.476026 
L 380.065524 385.572392 
L 383.337925 392.865728 
L 386.610325 401.16297 
L 389.882726 410.198282 
L 396.427526 428.936412 
L 399.699927 437.560387 
L 402.972327 444.741369 
L 406.244727 449.657701 
L 409.517128 451.495017 
L 416.061929 451.495017 
L 419.334329 449.171763 
L 422.606729 443.072537 
L 425.8 434.168801 
L 425.8 434.168801 
" style="fill:none;stroke:#2ca02c;stroke-linecap:square;stroke-opacity:0.3;stroke-width:3;"/>
   </g>
   <g id="line2d_59">
    <path clip-path="url(#pabb6d61781)" d="M -1 160.596791 
L 52.825486 160.600291 
L 56.097886 160.896334 
L 59.370287 161.45512 
L 62.642687 162.370767 
L 65.915088 163.516272 
L 69.187488 165.004967 
L 72.459888 166.817578 
L 75.732289 168.996367 
L 79.004689 171.615978 
L 82.277089 174.683722 
L 85.54949 178.267124 
L 88.82189 182.416543 
L 92.094291 187.145014 
L 95.366691 192.532546 
L 98.639091 198.614095 
L 101.911492 205.411 
L 105.183892 212.933464 
L 108.456293 221.202275 
L 111.728693 230.293963 
L 115.001093 240.218965 
L 118.273494 250.930651 
L 121.545894 262.432767 
L 124.818294 274.710401 
L 128.090695 287.657347 
L 131.363095 301.166443 
L 134.635496 315.206079 
L 141.180296 344.692981 
L 147.725097 374.536976 
L 150.997498 388.647912 
L 154.269898 401.675658 
L 157.542298 413.275586 
L 160.814699 423.183845 
L 164.087099 431.244876 
L 167.359499 437.447275 
L 170.6319 441.915596 
L 173.9043 444.877296 
L 177.176701 446.623378 
L 180.449101 447.457726 
L 183.721501 447.693548 
L 193.538703 447.782341 
L 196.811103 448.265504 
L 200.083503 449.31306 
L 203.355904 451.05257 
L 206.628304 453.545311 
L 209.900704 456.853424 
L 213.173105 461.028619 
L 216.445505 466.067812 
L 219.717906 471.92638 
L 222.990306 478.538393 
L 226.262706 485.807825 
L 229.535107 493.586479 
L 236.079908 509.744414 
L 239.352308 517.498655 
L 242.624708 524.535695 
L 245.897109 530.465173 
L 249.169509 534.92758 
L 252.441909 537.610865 
L 255.71431 538.27289 
L 265.531511 538.27289 
L 268.803911 538.084437 
L 272.076312 535.773595 
L 275.348712 531.477476 
L 278.621112 525.451235 
L 281.893513 517.9889 
L 285.165913 509.404782 
L 288.438314 499.955239 
L 291.710714 489.833396 
L 298.255515 468.373624 
L 304.800316 446.628158 
L 308.072716 436.092081 
L 311.345116 425.976334 
L 314.617517 416.403687 
L 317.889917 407.478886 
L 321.162317 399.284993 
L 324.434718 391.888951 
L 327.707118 385.360381 
L 330.979519 379.778818 
L 334.251919 375.220975 
L 337.524319 371.754555 
L 340.79672 369.444489 
L 344.06912 368.356509 
L 363.703522 368.356509 
L 366.975923 369.314689 
L 370.248323 371.781556 
L 373.520724 375.738008 
L 376.793124 381.121047 
L 380.065524 387.795697 
L 383.337925 395.551353 
L 386.610325 404.11921 
L 396.427526 431.21035 
L 399.699927 439.129522 
L 402.972327 445.455933 
L 406.244727 449.474149 
L 409.517128 450.485052 
L 416.061929 450.485052 
L 419.334329 447.947087 
L 422.606729 441.813278 
L 425.8 432.983101 
L 425.8 432.983101 
" style="fill:none;stroke:#2ca02c;stroke-linecap:square;stroke-opacity:0.3;stroke-width:3;"/>
   </g>
   <g id="line2d_60">
    <path clip-path="url(#pabb6d61781)" d="M -1 85.394392 
L 7.011881 85.420151 
L 29.918683 85.44243 
L 33.191084 85.59096 
L 36.463484 85.945752 
L 39.735884 86.475642 
L 43.008285 87.160309 
L 46.280685 88.05193 
L 49.553086 89.088992 
L 56.097886 91.671806 
L 62.642687 94.889785 
L 65.915088 96.600222 
L 69.187488 98.676871 
L 72.459888 101.332911 
L 75.732289 104.494988 
L 79.004689 108.002014 
L 82.277089 111.756241 
L 85.54949 115.729691 
L 88.82189 119.931514 
L 92.094291 124.383222 
L 95.366691 129.109779 
L 98.639091 134.136267 
L 101.911492 139.487231 
L 105.183892 145.188155 
L 108.456293 151.265457 
L 111.728693 157.749304 
L 115.001093 164.672917 
L 118.273494 172.074201 
L 121.545894 179.994811 
L 124.818294 188.479846 
L 128.090695 197.578569 
L 131.363095 207.342673 
L 134.635496 217.826097 
L 137.907896 229.083223 
L 141.180296 241.165608 
L 144.452697 254.118021 
L 147.725097 267.97136 
L 150.997498 282.733046 
L 154.269898 298.373762 
L 157.542298 314.811297 
L 164.087099 349.384214 
L 170.6319 384.112375 
L 173.9043 400.378081 
L 177.176701 415.19392 
L 180.449101 428.091792 
L 183.721501 438.779407 
L 186.993902 447.212413 
L 190.266302 453.602834 
L 193.538703 458.362899 
L 196.811103 462.014359 
L 203.355904 468.106569 
L 206.628304 471.435533 
L 209.900704 475.364372 
L 213.173105 480.046568 
L 216.445505 485.511748 
L 219.717906 491.67424 
L 226.262706 505.272937 
L 229.535107 512.128931 
L 232.807507 518.57119 
L 236.079908 524.255613 
L 239.352308 528.871342 
L 242.624708 532.166336 
L 245.897109 533.962891 
L 249.169509 534.161715 
L 265.531511 534.161715 
L 268.803911 532.697976 
L 272.076312 529.722175 
L 275.348712 525.332969 
L 278.621112 519.656128 
L 281.893513 512.844868 
L 285.165913 505.075477 
L 288.438314 496.537429 
L 291.710714 487.42016 
L 298.255515 468.136021 
L 308.072716 438.710596 
L 311.345116 429.26098 
L 314.617517 420.179408 
L 317.889917 411.571161 
L 321.162317 403.53597 
L 324.434718 396.167953 
L 327.707118 389.556223 
L 330.979519 383.787109 
L 334.251919 378.945624 
L 337.524319 375.115295 
L 340.79672 372.377362 
L 344.06912 370.809308 
L 347.341521 370.484134 
L 363.703522 370.484134 
L 366.975923 370.80271 
L 370.248323 372.620092 
L 373.520724 375.893556 
L 376.793124 380.561856 
L 380.065524 386.534514 
L 383.337925 393.679376 
L 386.610325 401.807724 
L 389.882726 410.657043 
L 396.427526 428.988222 
L 399.699927 437.407616 
L 402.972327 444.401488 
L 406.244727 449.162084 
L 409.517128 450.883272 
L 416.061929 450.883272 
L 419.334329 448.592949 
L 422.606729 442.560489 
L 425.8 433.735145 
L 425.8 433.735145 
" style="fill:none;stroke:#2ca02c;stroke-linecap:square;stroke-opacity:0.3;stroke-width:3;"/>
   </g>
   <g id="line2d_61">
    <path clip-path="url(#pabb6d61781)" d="M -1 32.680986 
L 52.825486 32.680986 
L 56.097886 32.838687 
L 59.370287 33.219836 
L 62.642687 33.834792 
L 65.915088 34.696078 
L 69.187488 35.821092 
L 72.459888 37.224418 
L 75.732289 38.926125 
L 79.004689 40.942745 
L 82.277089 43.284298 
L 85.54949 45.970082 
L 88.82189 49.015943 
L 92.094291 52.436512 
L 95.366691 56.261956 
L 98.639091 60.511404 
L 101.911492 65.172064 
L 105.183892 70.241889 
L 108.456293 75.775866 
L 111.728693 81.870332 
L 115.001093 88.61575 
L 118.273494 96.074823 
L 121.545894 104.289522 
L 124.818294 113.290686 
L 128.090695 123.103543 
L 131.363095 133.760024 
L 134.635496 145.317358 
L 137.907896 157.866397 
L 141.180296 171.517663 
L 144.452697 186.371637 
L 147.725097 202.490668 
L 150.997498 219.884794 
L 154.269898 238.510407 
L 157.542298 258.271445 
L 160.814699 279.013011 
L 167.359499 322.411742 
L 173.9043 365.546841 
L 177.176701 385.545408 
L 180.449101 403.626059 
L 183.721501 419.257035 
L 186.993902 432.145811 
L 190.266302 442.305984 
L 193.538703 450.044623 
L 196.811103 455.879451 
L 200.083503 460.423886 
L 209.900704 471.875753 
L 213.173105 476.257459 
L 216.445505 481.225865 
L 219.717906 486.769915 
L 222.990306 492.774091 
L 229.535107 505.30915 
L 232.807507 511.286429 
L 236.079908 516.671721 
L 239.352308 521.191516 
L 242.624708 524.62546 
L 245.897109 526.818967 
L 249.169509 527.679907 
L 268.803911 527.679907 
L 272.076312 526.239122 
L 275.348712 523.316572 
L 278.621112 518.993799 
L 281.893513 513.386468 
L 285.165913 506.640029 
L 288.438314 498.92277 
L 291.710714 490.417359 
L 294.983114 481.312104 
L 301.527915 462.037575 
L 308.072716 442.463324 
L 314.617517 423.742171 
L 317.889917 415.007253 
L 321.162317 406.833147 
L 324.434718 399.318337 
L 327.707118 392.555286 
L 330.979519 386.631446 
L 334.251919 381.630317 
L 337.524319 377.632627 
L 340.79672 374.71761 
L 344.06912 372.964357 
L 347.341521 372.45318 
L 363.703522 372.45318 
L 366.975923 372.679262 
L 370.248323 374.421164 
L 373.520724 377.631163 
L 376.793124 382.239288 
L 380.065524 388.143798 
L 383.337925 395.198953 
L 386.610325 403.200533 
L 393.155126 420.83997 
L 396.427526 429.637934 
L 399.699927 437.675923 
L 402.972327 444.251505 
L 406.244727 448.601272 
L 409.517128 449.971635 
L 416.061929 449.971635 
L 419.334329 447.63941 
L 422.606729 441.650522 
L 425.8 432.927354 
L 425.8 432.927354 
" style="fill:none;stroke:#2ca02c;stroke-linecap:square;stroke-opacity:0.3;stroke-width:3;"/>
   </g>
   <g id="line2d_62">
    <path clip-path="url(#pabb6d61781)" d="M -1 255.047073 
L 79.004689 255.047073 
L 82.277089 255.182942 
L 85.54949 255.583968 
L 88.82189 256.251807 
L 92.094291 257.191602 
L 95.366691 258.407131 
L 98.639091 259.907382 
L 101.911492 261.700429 
L 105.183892 263.788539 
L 108.456293 266.184814 
L 111.728693 268.886801 
L 115.001093 271.877108 
L 118.273494 275.164467 
L 121.545894 278.768689 
L 124.818294 282.695512 
L 128.090695 286.950435 
L 131.363095 291.525452 
L 137.907896 301.403567 
L 141.180296 306.619791 
L 144.452697 312.070728 
L 147.725097 317.82869 
L 150.997498 323.920099 
L 157.542298 336.915392 
L 167.359499 357.320452 
L 180.449101 384.873985 
L 186.993902 399.130017 
L 193.538703 414.247962 
L 196.811103 422.26786 
L 200.083503 430.637693 
L 203.355904 439.358912 
L 209.900704 457.75294 
L 226.262706 505.511389 
L 229.535107 514.119719 
L 232.807507 521.895352 
L 236.079908 528.598488 
L 239.352308 534.006209 
L 242.624708 537.925715 
L 245.897109 540.204229 
L 249.169509 540.734894 
L 262.259111 540.734894 
L 265.531511 540.225279 
L 268.803911 537.971388 
L 272.076312 534.079128 
L 275.348712 528.694252 
L 278.621112 521.992991 
L 281.893513 514.171281 
L 285.165913 505.434231 
L 288.438314 495.986907 
L 294.983114 475.740834 
L 304.800316 444.566089 
L 308.072716 434.544819 
L 311.345116 424.912722 
L 314.617517 415.774287 
L 317.889917 407.223937 
L 321.162317 399.347352 
L 324.434718 392.222968 
L 327.707118 385.923862 
L 330.979519 380.519768 
L 334.251919 376.078901 
L 337.524319 372.669582 
L 340.79672 370.361839 
L 344.06912 369.228971 
L 363.703522 369.228971 
L 366.975923 369.968322 
L 370.248323 372.191446 
L 373.520724 375.862105 
L 376.793124 380.917265 
L 380.065524 387.255994 
L 383.337925 394.727078 
L 386.610325 403.115676 
L 396.427526 430.40023 
L 399.699927 438.572491 
L 402.972327 445.195564 
L 406.244727 449.509018 
L 409.517128 450.771426 
L 416.061929 450.771426 
L 419.334329 448.242723 
L 422.606729 442.070167 
L 425.8 433.193212 
L 425.8 433.193212 
" style="fill:none;stroke:#2ca02c;stroke-linecap:square;stroke-opacity:0.3;stroke-width:3;"/>
   </g>
   <g id="line2d_63">
    <path clip-path="url(#pabb6d61781)" d="M -1 117.771151 
L 69.187488 117.838331 
L 72.459888 118.150034 
L 75.732289 118.717341 
L 79.004689 119.56824 
L 82.277089 120.715803 
L 85.54949 122.169143 
L 88.82189 123.93024 
L 92.094291 126.004067 
L 95.366691 128.423305 
L 98.639091 131.196502 
L 101.911492 134.292305 
L 105.183892 137.725532 
L 108.456293 141.601341 
L 111.728693 146.048596 
L 115.001093 151.135818 
L 118.273494 156.852638 
L 121.545894 163.149848 
L 124.818294 169.991048 
L 128.090695 177.379936 
L 131.363095 185.353682 
L 134.635496 193.95601 
L 137.907896 203.212574 
L 141.180296 213.12263 
L 144.452697 223.6658 
L 147.725097 234.813709 
L 150.997498 246.536689 
L 154.269898 258.802299 
L 160.814699 284.772909 
L 167.359499 312.107703 
L 173.9043 339.681076 
L 177.176701 353.063452 
L 180.449101 365.874384 
L 183.721501 377.894084 
L 186.993902 388.933921 
L 190.266302 398.856984 
L 193.538703 407.593895 
L 196.811103 415.147545 
L 200.083503 421.582946 
L 203.355904 427.007275 
L 206.628304 431.551165 
L 209.900704 435.358421 
L 213.173105 438.582101 
L 216.445505 441.379917 
L 222.990306 446.293642 
L 229.535107 451.076344 
L 232.807507 453.608948 
L 236.079908 456.291836 
L 239.352308 459.148409 
L 242.624708 462.19069 
L 245.897109 465.418444 
L 252.441909 472.347052 
L 258.98671 479.538614 
L 262.259111 482.986949 
L 265.531511 486.140479 
L 268.803911 488.811046 
L 272.076312 490.782988 
L 275.348712 491.822561 
L 291.710714 491.822561 
L 294.983114 491.045733 
L 298.255515 488.201901 
L 301.527915 483.351351 
L 304.800316 476.644186 
L 308.072716 468.304207 
L 311.345116 458.606455 
L 314.617517 447.8537 
L 317.889917 436.356041 
L 330.979519 388.671863 
L 334.251919 377.578203 
L 337.524319 367.236909 
L 340.79672 357.825062 
L 344.06912 349.505953 
L 347.341521 342.432907 
L 350.613921 336.753305 
L 353.886321 332.613082 
L 357.158722 330.161887 
L 360.431122 329.558815 
L 370.248323 329.558815 
L 373.520724 329.883289 
L 376.793124 332.746019 
L 380.065524 338.229115 
L 383.337925 346.401802 
L 386.610325 357.29802 
L 389.882726 370.877691 
L 393.155126 386.959923 
L 396.427526 405.111501 
L 402.972327 443.647319 
L 406.244727 460.607409 
L 409.517128 473.039132 
L 412.789528 478.784676 
L 416.061929 478.784676 
L 419.334329 476.737966 
L 422.606729 468.012364 
L 425.8 454.908707 
L 425.8 454.908707 
" style="fill:none;stroke:#d62728;stroke-linecap:square;stroke-opacity:0.3;stroke-width:3;"/>
   </g>
   <g id="line2d_64">
    <path clip-path="url(#pabb6d61781)" d="M -1 81.26996 
L 62.642687 81.26996 
L 65.915088 81.46638 
L 69.187488 81.904283 
L 72.459888 82.595161 
L 75.732289 83.555161 
L 79.004689 84.797657 
L 82.277089 86.340436 
L 85.54949 88.212824 
L 88.82189 90.44414 
L 92.094291 93.057036 
L 95.366691 96.071438 
L 98.639091 99.510254 
L 101.911492 103.398703 
L 105.183892 107.761383 
L 108.456293 112.623272 
L 111.728693 118.012531 
L 115.001093 123.958831 
L 118.273494 130.48908 
L 121.545894 137.627295 
L 124.818294 145.396791 
L 128.090695 153.819887 
L 131.363095 162.916356 
L 134.635496 172.703206 
L 137.907896 183.194735 
L 141.180296 194.399745 
L 144.452697 206.314797 
L 147.725097 218.916311 
L 150.997498 232.156064 
L 157.542298 260.229488 
L 170.6319 318.711744 
L 173.9043 332.539361 
L 177.176701 345.508527 
L 180.449101 357.36871 
L 183.721501 367.926594 
L 186.993902 377.071831 
L 190.266302 384.795656 
L 193.538703 391.196316 
L 196.811103 396.466024 
L 200.083503 400.86082 
L 203.355904 404.662307 
L 213.173105 415.039104 
L 216.445505 418.78052 
L 219.717906 422.845515 
L 222.990306 427.266794 
L 226.262706 432.031102 
L 232.807507 442.342664 
L 242.624708 458.209475 
L 245.897109 463.148259 
L 249.169509 467.757919 
L 252.441909 471.98223 
L 255.71431 475.788036 
L 258.98671 479.156266 
L 262.259111 482.068377 
L 265.531511 484.490926 
L 268.803911 486.361727 
L 272.076312 487.581391 
L 275.348712 488.013162 
L 294.983114 488.013162 
L 298.255515 486.263428 
L 301.527915 482.601675 
L 304.800316 477.103916 
L 308.072716 469.92796 
L 311.345116 461.297149 
L 314.617517 451.479225 
L 317.889917 440.764999 
L 324.434718 417.822832 
L 330.979519 394.695207 
L 334.251919 383.676459 
L 337.524319 373.307766 
L 340.79672 363.78108 
L 344.06912 355.273343 
L 347.341521 347.950177 
L 350.613921 341.970132 
L 353.886321 337.489364 
L 357.158722 334.66658 
L 360.431122 333.668082 
L 373.520724 333.668082 
L 376.793124 336.105285 
L 380.065524 341.152145 
L 383.337925 348.867061 
L 386.610325 359.27385 
L 389.882726 372.324351 
L 393.155126 387.833726 
L 396.427526 405.37309 
L 402.972327 442.667951 
L 406.244727 459.10909 
L 409.517128 471.19137 
L 412.789528 476.819579 
L 416.061929 476.819579 
L 419.334329 475.081081 
L 422.606729 466.75995 
L 425.8 454.05397 
L 425.8 454.05397 
" style="fill:none;stroke:#d62728;stroke-linecap:square;stroke-opacity:0.3;stroke-width:3;"/>
   </g>
   <g id="line2d_65">
    <path clip-path="url(#pabb6d61781)" d="M -1 155.196125 
L 36.463484 155.207365 
L 39.735884 155.441888 
L 43.008285 155.911102 
L 46.280685 156.6179 
L 49.553086 157.56941 
L 52.825486 158.775449 
L 56.097886 160.246278 
L 59.370287 162.000369 
L 62.642687 164.062341 
L 65.915088 166.462774 
L 69.187488 169.229054 
L 72.459888 172.371138 
L 75.732289 175.893313 
L 79.004689 179.806198 
L 82.277089 184.112275 
L 85.54949 188.802351 
L 88.82189 193.883883 
L 92.094291 199.401471 
L 95.366691 205.420245 
L 98.639091 211.994054 
L 101.911492 219.148779 
L 105.183892 226.88497 
L 108.456293 235.190108 
L 111.728693 244.050825 
L 115.001093 253.456967 
L 118.273494 263.39673 
L 121.545894 273.850603 
L 124.818294 284.788623 
L 131.363095 307.914733 
L 147.725097 367.71064 
L 150.997498 378.709858 
L 154.269898 388.966457 
L 157.542298 398.286985 
L 160.814699 406.488385 
L 164.087099 413.446632 
L 167.359499 419.124201 
L 170.6319 423.548829 
L 173.9043 426.798088 
L 177.176701 429.009271 
L 180.449101 430.364476 
L 183.721501 431.052356 
L 186.993902 431.269447 
L 200.083503 431.296981 
L 203.355904 431.587732 
L 206.628304 432.216479 
L 209.900704 433.2318 
L 213.173105 434.665901 
L 216.445505 436.526281 
L 219.717906 438.800875 
L 222.990306 441.47701 
L 226.262706 444.523007 
L 229.535107 447.890578 
L 232.807507 451.547251 
L 236.079908 455.474671 
L 242.624708 463.967097 
L 249.169509 472.73652 
L 252.441909 476.960035 
L 255.71431 480.927955 
L 258.98671 484.524224 
L 262.259111 487.623943 
L 265.531511 490.089325 
L 268.803911 491.768948 
L 272.076312 492.501404 
L 288.438314 492.501404 
L 291.710714 492.319024 
L 294.983114 490.254802 
L 298.255515 486.332815 
L 301.527915 480.658228 
L 304.800316 473.394289 
L 308.072716 464.753271 
L 311.345116 454.989319 
L 314.617517 444.380949 
L 321.162317 421.735464 
L 327.707118 398.833039 
L 330.979519 387.832758 
L 334.251919 377.392439 
L 337.524319 367.688959 
L 340.79672 358.888558 
L 344.06912 351.150073 
L 347.341521 344.627551 
L 350.613921 339.472959 
L 353.886321 335.839168 
L 357.158722 333.8823 
L 360.431122 333.764009 
L 370.248323 333.764009 
L 373.520724 334.456327 
L 376.793124 337.618274 
L 380.065524 343.306081 
L 383.337925 351.560367 
L 386.610325 362.38412 
L 389.882726 375.703626 
L 393.155126 391.302526 
L 396.427526 408.716261 
L 402.972327 445.015488 
L 406.244727 460.621453 
L 409.517128 471.761294 
L 412.789528 476.491554 
L 416.061929 476.491554 
L 419.334329 474.306049 
L 422.606729 465.802221 
L 425.8 453.112995 
L 425.8 453.112995 
" style="fill:none;stroke:#d62728;stroke-linecap:square;stroke-opacity:0.3;stroke-width:3;"/>
   </g>
   <g id="line2d_66">
    <path clip-path="url(#pabb6d61781)" d="M -1 242.890221 
L 3.73948 244.007527 
L 7.011881 244.933484 
L 10.284281 245.98671 
L 13.556681 247.163685 
L 16.829082 248.490835 
L 20.101482 249.962497 
L 23.373883 251.612267 
L 26.646283 253.435651 
L 29.918683 255.458858 
L 33.191084 257.70346 
L 36.463484 260.146286 
L 39.735884 262.866382 
L 43.008285 265.845735 
L 46.280685 268.997671 
L 49.553086 272.432181 
L 52.825486 276.386752 
L 56.097886 280.984388 
L 59.370287 286.178662 
L 62.642687 291.859673 
L 65.915088 297.940773 
L 69.187488 304.379765 
L 72.459888 311.165088 
L 75.732289 318.29674 
L 79.004689 325.777219 
L 82.277089 333.606677 
L 85.54949 341.783812 
L 88.82189 350.307405 
L 95.366691 368.350027 
L 101.911492 387.435814 
L 111.728693 416.43419 
L 115.001093 425.636913 
L 118.273494 434.304093 
L 121.545894 442.22939 
L 124.818294 449.202368 
L 128.090695 455.016184 
L 131.363095 459.481574 
L 134.635496 462.441568 
L 137.907896 463.780726 
L 154.269898 463.780726 
L 157.542298 463.562989 
L 160.814699 462.083049 
L 164.087099 459.534723 
L 167.359499 456.098065 
L 170.6319 451.99943 
L 177.176701 442.78533 
L 180.449101 438.107938 
L 183.721501 433.639502 
L 186.993902 429.539019 
L 190.266302 425.945159 
L 193.538703 422.996219 
L 196.811103 420.824397 
L 200.083503 419.544205 
L 203.355904 419.261426 
L 222.990306 419.261426 
L 226.262706 419.921351 
L 229.535107 421.898034 
L 232.807507 425.147286 
L 236.079908 429.602026 
L 239.352308 435.160449 
L 242.624708 441.681818 
L 245.897109 448.988879 
L 249.169509 456.866439 
L 255.71431 473.250273 
L 258.98671 481.1074 
L 262.259111 488.257177 
L 265.531511 494.329815 
L 268.803911 498.979099 
L 272.076312 501.904744 
L 275.348712 502.872027 
L 288.438314 502.872027 
L 291.710714 500.758905 
L 294.983114 496.517143 
L 298.255515 490.357002 
L 301.527915 482.537647 
L 304.800316 473.346719 
L 308.072716 463.080857 
L 311.345116 452.024397 
L 317.889917 428.603965 
L 324.434718 405.016356 
L 327.707118 393.698446 
L 330.979519 382.923651 
L 334.251919 372.830319 
L 337.524319 363.563214 
L 340.79672 355.272324 
L 344.06912 348.101368 
L 347.341521 342.189233 
L 350.613921 337.676044 
L 353.886321 334.706661 
L 357.158722 333.436271 
L 370.248323 333.436271 
L 373.520724 334.781862 
L 376.793124 338.542813 
L 380.065524 344.763614 
L 383.337925 353.469088 
L 386.610325 364.64008 
L 389.882726 378.172714 
L 393.155126 393.815163 
L 396.427526 411.069957 
L 399.699927 429.059133 
L 402.972327 446.406072 
L 406.244727 461.284471 
L 409.517128 471.661729 
L 412.789528 475.725759 
L 416.061929 475.725759 
L 419.334329 473.306967 
L 422.606729 464.777915 
L 425.8 452.200128 
L 425.8 452.200128 
" style="fill:none;stroke:#d62728;stroke-linecap:square;stroke-opacity:0.3;stroke-width:3;"/>
   </g>
   <g id="line2d_67">
    <path clip-path="url(#pabb6d61781)" d="M -1 53.060199 
L 36.463484 53.060199 
L 39.735884 53.276601 
L 43.008285 54.382694 
L 46.280685 55.815087 
L 49.553086 57.483425 
L 52.825486 59.409908 
L 56.097886 61.610429 
L 59.370287 64.109647 
L 62.642687 66.917813 
L 65.915088 70.049919 
L 69.187488 73.51099 
L 72.459888 77.310823 
L 75.732289 81.459019 
L 79.004689 85.970512 
L 82.277089 90.868548 
L 85.54949 96.17726 
L 88.82189 101.92884 
L 92.094291 108.154402 
L 95.366691 114.885251 
L 98.639091 122.153734 
L 101.911492 129.987049 
L 105.183892 138.412966 
L 108.456293 147.460648 
L 111.728693 157.156219 
L 115.001093 167.527358 
L 118.273494 178.604929 
L 121.545894 190.416515 
L 124.818294 202.985616 
L 128.090695 216.333816 
L 131.363095 230.472188 
L 134.635496 245.388856 
L 137.907896 261.044256 
L 144.452697 294.230368 
L 154.269898 345.885437 
L 157.542298 362.319436 
L 160.814699 377.626447 
L 164.087099 391.368324 
L 167.359499 403.182088 
L 170.6319 412.799735 
L 173.9043 420.106577 
L 177.176701 425.192003 
L 180.449101 428.297842 
L 183.721501 429.766088 
L 186.993902 429.992816 
L 209.900704 429.992816 
L 213.173105 430.426534 
L 216.445505 431.46671 
L 219.717906 433.11395 
L 222.990306 435.349909 
L 226.262706 438.138761 
L 229.535107 441.431038 
L 232.807507 445.166056 
L 236.079908 449.271994 
L 239.352308 453.669479 
L 245.897109 463.006746 
L 252.441909 472.480784 
L 255.71431 477.032497 
L 258.98671 481.306514 
L 262.259111 485.163074 
L 265.531511 488.436877 
L 268.803911 490.937699 
L 272.076312 492.469514 
L 275.348712 492.853228 
L 291.710714 492.853228 
L 294.983114 491.298846 
L 298.255515 487.802837 
L 301.527915 482.459035 
L 304.800316 475.433159 
L 308.072716 466.948332 
L 311.345116 457.266405 
L 314.617517 446.669715 
L 321.162317 423.867653 
L 327.707118 400.665518 
L 330.979519 389.487843 
L 334.251919 378.856231 
L 337.524319 368.947567 
L 340.79672 359.926676 
L 344.06912 351.95013 
L 347.341521 345.169566 
L 350.613921 339.735109 
L 353.886321 335.799872 
L 357.158722 333.525245 
L 360.431122 333.085179 
L 370.248323 333.085179 
L 373.520724 333.535029 
L 376.793124 336.495842 
L 380.065524 342.036383 
L 383.337925 350.207202 
L 386.610325 361.019902 
L 389.882726 374.40884 
L 393.155126 390.164159 
L 396.427526 407.823763 
L 402.972327 444.84407 
L 406.244727 460.862162 
L 409.517128 472.375142 
L 412.789528 477.378452 
L 416.061929 477.378452 
L 419.334329 475.193131 
L 422.606729 466.583362 
L 425.8 453.733767 
L 425.8 453.733767 
" style="fill:none;stroke:#d62728;stroke-linecap:square;stroke-opacity:0.3;stroke-width:3;"/>
   </g>
   <g id="line2d_68">
    <path clip-path="url(#pabb6d61781)" d="M -1 179.189622 
L 69.187488 179.189622 
L 72.459888 179.318638 
L 75.732289 179.682992 
L 79.004689 180.306703 
L 82.277089 181.209328 
L 85.54949 182.397533 
L 88.82189 183.873666 
L 92.094291 185.656278 
L 95.366691 187.740282 
L 98.639091 190.100005 
L 101.911492 192.760543 
L 105.183892 195.810619 
L 108.456293 199.331755 
L 111.728693 203.339502 
L 115.001093 207.790292 
L 118.273494 212.624719 
L 121.545894 217.801839 
L 124.818294 223.306992 
L 128.090695 229.140623 
L 131.363095 235.30275 
L 134.635496 241.78295 
L 137.907896 248.557671 
L 144.452697 262.840587 
L 154.269898 285.304998 
L 160.814699 300.171439 
L 164.087099 307.329485 
L 167.359499 314.194602 
L 170.6319 320.693055 
L 173.9043 326.764016 
L 177.176701 332.365654 
L 180.449101 337.481945 
L 183.721501 342.127348 
L 186.993902 346.347075 
L 190.266302 350.214812 
L 196.811103 357.32827 
L 200.083503 360.862024 
L 203.355904 364.610894 
L 206.628304 368.756893 
L 209.900704 373.467432 
L 213.173105 378.878894 
L 216.445505 385.085679 
L 219.717906 392.13431 
L 222.990306 400.020336 
L 226.262706 408.685895 
L 229.535107 418.017192 
L 236.079908 437.937036 
L 242.624708 457.805314 
L 245.897109 466.96249 
L 249.169509 475.202364 
L 252.441909 482.271872 
L 255.71431 487.976398 
L 258.98671 492.185036 
L 262.259111 494.825101 
L 265.531511 495.869295 
L 281.893513 495.869295 
L 285.165913 495.518163 
L 288.438314 493.573324 
L 291.710714 490.065443 
L 294.983114 485.065151 
L 298.255515 478.684064 
L 301.527915 471.071416 
L 304.800316 462.406994 
L 308.072716 452.892055 
L 311.345116 442.739934 
L 317.889917 421.386767 
L 324.434718 399.99921 
L 327.707118 389.754878 
L 330.979519 380.026175 
L 334.251919 370.957757 
L 337.524319 362.683961 
L 340.79672 355.332382 
L 344.06912 349.027425 
L 347.341521 343.893743 
L 350.613921 340.059568 
L 353.886321 337.659864 
L 357.158722 336.839263 
L 370.248323 336.839263 
L 373.520724 337.946962 
L 376.793124 341.339664 
L 380.065524 347.07328 
L 383.337925 355.181886 
L 386.610325 365.655086 
L 389.882726 378.400794 
L 393.155126 393.185495 
L 396.427526 409.541973 
L 402.972327 443.196188 
L 406.244727 457.479045 
L 409.517128 467.56852 
L 412.789528 471.720368 
L 416.061929 471.720368 
L 419.334329 470.008822 
L 422.606729 462.303357 
L 425.8 450.502142 
L 425.8 450.502142 
" style="fill:none;stroke:#9467bd;stroke-linecap:square;stroke-opacity:0.3;stroke-width:3;"/>
   </g>
   <g id="line2d_69">
    <path clip-path="url(#pabb6d61781)" d="M -1 111.409075 
L 3.73948 111.436025 
L 10.284281 111.634063 
L 16.829082 111.805965 
L 20.101482 112.076847 
L 23.373883 112.48386 
L 26.646283 113.009558 
L 29.918683 113.664136 
L 33.191084 114.447562 
L 36.463484 115.356342 
L 39.735884 116.395506 
L 43.008285 117.563565 
L 46.280685 118.863998 
L 49.553086 120.296556 
L 52.825486 121.862992 
L 56.097886 123.561585 
L 59.370287 125.392361 
L 65.915088 129.435626 
L 72.459888 133.967756 
L 79.004689 138.987258 
L 82.277089 141.697858 
L 88.82189 147.572183 
L 92.094291 150.76337 
L 95.366691 154.264106 
L 98.639091 158.217769 
L 101.911492 162.693083 
L 105.183892 167.670782 
L 108.456293 173.089221 
L 111.728693 178.890096 
L 115.001093 185.036929 
L 118.273494 191.513524 
L 121.545894 198.315945 
L 124.818294 205.445302 
L 128.090695 212.902957 
L 131.363095 220.68674 
L 134.635496 228.787843 
L 141.180296 245.856227 
L 147.725097 263.802038 
L 157.542298 291.111023 
L 160.814699 299.925514 
L 164.087099 308.409744 
L 167.359499 316.453034 
L 170.6319 323.954631 
L 173.9043 330.831522 
L 177.176701 337.026213 
L 180.449101 342.512984 
L 183.721501 347.302287 
L 186.993902 351.442932 
L 190.266302 355.021127 
L 193.538703 358.156334 
L 200.083503 363.705298 
L 203.355904 366.465959 
L 206.628304 369.460903 
L 209.900704 372.869594 
L 213.173105 376.860484 
L 216.445505 381.584119 
L 219.717906 387.16462 
L 222.990306 393.68932 
L 226.262706 401.197684 
L 229.535107 409.670671 
L 232.807507 419.020643 
L 236.079908 429.081995 
L 245.897109 460.65314 
L 249.169509 470.353643 
L 252.441909 478.940839 
L 255.71431 486.049341 
L 258.98671 491.408813 
L 262.259111 494.862029 
L 265.531511 496.360169 
L 281.893513 496.360169 
L 285.165913 495.599455 
L 288.438314 493.32184 
L 291.710714 489.587654 
L 294.983114 484.477476 
L 298.255515 478.095628 
L 301.527915 470.569872 
L 304.800316 462.049661 
L 308.072716 452.702614 
L 311.345116 442.708387 
L 317.889917 421.521415 
L 324.434718 399.966347 
L 327.707118 389.49127 
L 330.979519 379.435846 
L 334.251919 369.952495 
L 337.524319 361.185834 
L 340.79672 353.274424 
L 344.06912 346.353341 
L 347.341521 340.557286 
L 350.613921 336.023834 
L 353.886321 332.896554 
L 357.158722 331.327951 
L 370.248323 331.327951 
L 373.520724 331.893885 
L 376.793124 334.864777 
L 380.065524 340.319441 
L 383.337925 348.32429 
L 386.610325 358.913309 
L 389.882726 372.051714 
L 393.155126 387.572367 
L 396.427526 405.069404 
L 402.972327 442.235137 
L 406.244727 458.649777 
L 409.517128 470.758565 
L 412.789528 476.465591 
L 416.061929 476.465591 
L 419.334329 474.84878 
L 422.606729 466.637554 
L 425.8 454.015431 
L 425.8 454.015431 
" style="fill:none;stroke:#9467bd;stroke-linecap:square;stroke-opacity:0.3;stroke-width:3;"/>
   </g>
   <g id="line2d_70">
    <path clip-path="url(#pabb6d61781)" d="M -1 114.585434 
L 43.008285 114.655124 
L 46.280685 114.916696 
L 49.553086 115.338876 
L 52.825486 115.918674 
L 56.097886 116.698211 
L 59.370287 117.664777 
L 62.642687 118.853424 
L 65.915088 120.267818 
L 69.187488 121.931622 
L 72.459888 123.854795 
L 75.732289 126.054024 
L 79.004689 128.537826 
L 82.277089 131.318041 
L 85.54949 134.399525 
L 88.82189 137.791823 
L 92.094291 141.498594 
L 95.366691 145.53032 
L 98.639091 149.893603 
L 101.911492 154.60071 
L 105.183892 159.662931 
L 108.456293 165.090566 
L 111.728693 170.895413 
L 115.001093 177.082738 
L 118.273494 183.657056 
L 121.545894 190.62057 
L 124.818294 197.970048 
L 128.090695 205.703329 
L 131.363095 213.81732 
L 134.635496 222.304339 
L 137.907896 231.155862 
L 141.180296 240.361079 
L 147.725097 259.743077 
L 154.269898 280.163567 
L 164.087099 311.441819 
L 167.359499 321.555301 
L 170.6319 331.252483 
L 173.9043 340.364112 
L 177.176701 348.730496 
L 180.449101 356.218028 
L 183.721501 362.736246 
L 186.993902 368.252999 
L 190.266302 372.803888 
L 193.538703 376.493799 
L 196.811103 379.488791 
L 200.083503 381.998431 
L 206.628304 386.498163 
L 209.900704 388.96222 
L 213.173105 391.863157 
L 216.445505 395.381913 
L 219.717906 399.653441 
L 222.990306 404.764658 
L 226.262706 410.755683 
L 229.535107 417.616005 
L 232.807507 425.274112 
L 236.079908 433.587143 
L 249.169509 468.30192 
L 252.441909 475.821257 
L 255.71431 482.321673 
L 258.98671 487.609282 
L 262.259111 491.544718 
L 265.531511 494.033583 
L 268.803911 495.014672 
L 285.165913 495.014672 
L 288.438314 494.289798 
L 291.710714 491.858911 
L 294.983114 487.775163 
L 298.255515 482.138612 
L 301.527915 475.09274 
L 304.800316 466.817002 
L 308.072716 457.517066 
L 311.345116 447.414347 
L 317.889917 425.705589 
L 327.707118 392.585791 
L 330.979519 382.168952 
L 334.251919 372.35418 
L 337.524319 363.303009 
L 340.79672 355.168023 
L 344.06912 348.092514 
L 347.341521 342.211909 
L 350.613921 337.657123 
L 353.886321 334.559296 
L 357.158722 333.055353 
L 370.248323 333.055353 
L 373.520724 333.666003 
L 376.793124 336.646935 
L 380.065524 342.075494 
L 383.337925 350.014871 
L 386.610325 360.490732 
L 389.882726 373.45224 
L 393.155126 388.708366 
L 396.427526 405.826246 
L 402.972327 441.847565 
L 406.244727 457.565488 
L 409.517128 469.021084 
L 412.789528 474.24941 
L 416.061929 474.24941 
L 419.334329 472.698496 
L 422.606729 464.770267 
L 425.8 452.534298 
L 425.8 452.534298 
" style="fill:none;stroke:#9467bd;stroke-linecap:square;stroke-opacity:0.3;stroke-width:3;"/>
   </g>
   <g id="line2d_71">
    <path clip-path="url(#pabb6d61781)" d="M -1 230.090862 
L 59.370287 230.090862 
L 62.642687 230.218609 
L 65.915088 230.551643 
L 69.187488 231.059381 
L 72.459888 231.771124 
L 75.732289 232.68894 
L 79.004689 233.734211 
L 82.277089 235.033793 
L 85.54949 236.810116 
L 88.82189 239.128782 
L 92.094291 241.908349 
L 95.366691 245.041266 
L 98.639091 248.461813 
L 101.911492 252.155637 
L 105.183892 256.141035 
L 108.456293 260.44242 
L 111.728693 265.071438 
L 115.001093 270.023565 
L 118.273494 275.283819 
L 121.545894 280.832638 
L 124.818294 286.649705 
L 131.363095 298.998566 
L 137.907896 312.094321 
L 150.997498 338.933002 
L 154.269898 345.371323 
L 157.542298 351.531244 
L 160.814699 357.316909 
L 164.087099 362.648107 
L 167.359499 367.4768 
L 170.6319 371.788619 
L 173.9043 375.59157 
L 177.176701 378.903766 
L 180.449101 381.749345 
L 183.721501 384.163058 
L 186.993902 386.198046 
L 190.266302 387.931193 
L 203.355904 394.125471 
L 206.628304 396.155733 
L 209.900704 398.63681 
L 213.173105 401.670279 
L 216.445505 405.331569 
L 219.717906 409.665875 
L 222.990306 414.684798 
L 226.262706 420.363733 
L 229.535107 426.640544 
L 232.807507 433.415706 
L 239.352308 447.892449 
L 245.897109 462.413561 
L 249.169509 469.204206 
L 252.441909 475.4288 
L 255.71431 480.915924 
L 258.98671 485.512062 
L 262.259111 489.079668 
L 265.531511 491.493943 
L 268.803911 492.640198 
L 285.165913 492.640198 
L 288.438314 492.373509 
L 291.710714 490.312833 
L 294.983114 486.483712 
L 298.255515 480.97594 
L 301.527915 473.940035 
L 304.800316 465.576735 
L 308.072716 456.121536 
L 311.345116 445.828273 
L 317.889917 423.752536 
L 324.434718 401.284943 
L 327.707118 390.431372 
L 330.979519 380.070605 
L 334.251919 370.358596 
L 337.524319 361.43806 
L 340.79672 353.444547 
L 344.06912 346.511669 
L 347.341521 340.774837 
L 350.613921 336.373718 
L 353.886321 333.453722 
L 357.158722 332.167356 
L 370.248323 332.167356 
L 373.520724 333.220578 
L 376.793124 336.660902 
L 380.065524 342.543263 
L 383.337925 350.906869 
L 386.610325 361.754722 
L 389.882726 375.016427 
L 393.155126 390.484434 
L 396.427526 407.711099 
L 402.972327 443.592343 
L 406.244727 459.056693 
L 409.517128 470.161702 
L 412.789528 474.989307 
L 416.061929 474.989307 
L 419.334329 473.10668 
L 422.606729 464.931646 
L 425.8 452.537188 
L 425.8 452.537188 
" style="fill:none;stroke:#9467bd;stroke-linecap:square;stroke-opacity:0.3;stroke-width:3;"/>
   </g>
   <g id="line2d_72">
    <path clip-path="url(#pabb6d61781)" d="M -1 122.922502 
L 92.094291 122.922502 
L 95.366691 123.106006 
L 98.639091 123.611765 
L 101.911492 124.47327 
L 105.183892 125.716955 
L 108.456293 127.359601 
L 111.728693 129.460368 
L 115.001093 132.101979 
L 118.273494 135.333285 
L 121.545894 139.158015 
L 124.818294 143.559707 
L 128.090695 148.522358 
L 131.363095 154.035722 
L 134.635496 160.093615 
L 137.907896 166.691769 
L 141.180296 173.826597 
L 144.452697 181.493888 
L 147.725097 189.686878 
L 150.997498 198.394099 
L 154.269898 207.596564 
L 157.542298 217.264841 
L 160.814699 227.358114 
L 167.359499 248.595261 
L 183.721501 303.423421 
L 186.993902 313.675761 
L 190.266302 323.390239 
L 193.538703 332.499782 
L 196.811103 340.997535 
L 200.083503 348.933622 
L 203.355904 356.401597 
L 209.900704 370.443322 
L 216.445505 384.31925 
L 219.717906 391.621481 
L 222.990306 399.387231 
L 226.262706 407.744951 
L 229.535107 416.765055 
L 232.807507 426.437159 
L 239.352308 447.18948 
L 242.624708 457.724284 
L 245.897109 467.844097 
L 249.169509 477.093445 
L 252.441909 485.031653 
L 255.71431 491.293094 
L 258.98671 495.631434 
L 262.259111 497.935093 
L 265.531511 498.21337 
L 278.621112 498.21337 
L 281.893513 498.087109 
L 285.165913 496.528253 
L 288.438314 493.59954 
L 291.710714 489.368296 
L 294.983114 483.913079 
L 298.255515 477.329064 
L 301.527915 469.73079 
L 304.800316 461.251732 
L 308.072716 452.041265 
L 311.345116 442.260234 
L 317.889917 421.660814 
L 324.434718 400.817869 
L 327.707118 390.725901 
L 330.979519 381.068784 
L 334.251919 371.998909 
L 337.524319 363.660362 
L 340.79672 356.18954 
L 344.06912 349.717238 
L 347.341521 344.3719 
L 350.613921 340.283503 
L 353.886321 337.587537 
L 357.158722 336.428752 
L 370.248323 336.428752 
L 373.520724 337.137718 
L 376.793124 340.162685 
L 380.065524 345.571256 
L 383.337925 353.411928 
L 386.610325 363.69225 
L 389.882726 376.342359 
L 393.155126 391.15485 
L 396.427526 407.688936 
L 402.972327 442.19409 
L 406.244727 457.100414 
L 409.517128 467.84521 
L 412.789528 472.573099 
L 416.061929 472.573099 
L 419.334329 471.053627 
L 422.606729 463.348032 
L 425.8 451.419022 
L 425.8 451.419022 
" style="fill:none;stroke:#9467bd;stroke-linecap:square;stroke-opacity:0.3;stroke-width:3;"/>
   </g>
   <g id="patch_3">
    <path d="M 42.096548 567.781683 
L 42.096548 7.2 
" style="fill:none;stroke:#000000;stroke-linecap:square;stroke-linejoin:miter;stroke-width:0.8;"/>
   </g>
   <g id="patch_4">
    <path d="M 410.633046 567.781683 
L 410.633046 7.2 
" style="fill:none;stroke:#000000;stroke-linecap:square;stroke-linejoin:miter;stroke-width:0.8;"/>
   </g>
   <g id="patch_5">
    <path d="M 42.096548 567.781683 
L 410.633046 567.781683 
" style="fill:none;stroke:#000000;stroke-linecap:square;stroke-linejoin:miter;stroke-width:0.8;"/>
   </g>
   <g id="patch_6">
    <path d="M 42.096548 7.2 
L 410.633046 7.2 
" style="fill:none;stroke:#000000;stroke-linecap:square;stroke-linejoin:miter;stroke-width:0.8;"/>
   </g>
   <g id="legend_1">
    <g id="patch_7">
     <path d="M 349.83968 84.885892 
L 403.633046 84.885892 
Q 405.633046 84.885892 405.633046 82.885892 
L 405.633046 14.2 
Q 405.633046 12.2 403.633046 12.2 
L 349.83968 12.2 
Q 347.83968 12.2 347.83968 14.2 
L 347.83968 82.885892 
Q 347.83968 84.885892 349.83968 84.885892 
z
" style="fill:#ffffff;opacity:0.8;stroke:#cccccc;stroke-linejoin:miter;"/>
    </g>
    <g id="line2d_73">
     <path d="M 351.83968 19.7 
L 371.83968 19.7 
" style="fill:none;stroke:#1f77b4;stroke-linecap:square;stroke-opacity:0.3;stroke-width:3;"/>
    </g>
    <g id="line2d_74"/>
    <g id="text_9">
     <!-- AFR -->
     <defs>
      <path d="M 35.5 69 
L 26.90625 69 
L 2.59375 0 
L 10.203125 0 
L 17.203125 20 
L 44 20 
L 51.09375 0 
L 59.796875 0 
z
M 42.09375 25.578125 
L 19.09375 25.578125 
C 23.90625 39.5 29.90625 56.84375 30.59375 61.328125 
L 30.703125 61.328125 
C 31.40625 57.234375 33.40625 51.265625 35.09375 46.1875 
z
" id="CMSS17-65"/>
      <path d="M 45.59375 31 
L 45.59375 37.078125 
L 17.203125 37.078125 
L 17.203125 62 
L 29.40625 62 
C 30.59375 62 31.796875 62 33 62 
L 49.5 62 
L 49.5 68.359375 
L 8.796875 68.359375 
L 8.796875 -0.5 
L 17.203125 -0.5 
L 17.203125 31 
z
" id="CMSS17-70"/>
      <path d="M 39.40625 32.953125 
L 39.59375 33.046875 
C 55.203125 38.421875 55.296875 49.171875 55.296875 51.0625 
C 55.296875 60.515625 45.703125 69.578125 31.296875 69.578125 
L 8.90625 69.578125 
L 8.90625 0.5 
L 17.09375 0.5 
L 17.09375 32 
L 31.796875 32 
L 49.5 0.5 
L 57.90625 0.5 
z
M 17.09375 38.078125 
L 17.09375 64 
L 30.203125 64 
C 42.90625 64 47.40625 56.828125 47.40625 51.046875 
C 47.40625 45.65625 43.40625 38.078125 30.203125 38.078125 
z
" id="CMSS17-82"/>
     </defs>
     <g transform="translate(379.83968 23.2)scale(0.1 -0.1)">
      <use transform="scale(0.996264)" xlink:href="#CMSS17-65"/>
      <use transform="translate(62.217855 0)scale(0.996264)" xlink:href="#CMSS17-70"/>
      <use transform="translate(115.507414 0)scale(0.996264)" xlink:href="#CMSS17-82"/>
     </g>
    </g>
    <g id="line2d_75">
     <path d="M 351.83968 33.637178 
L 371.83968 33.637178 
" style="fill:none;stroke:#ff7f0e;stroke-linecap:square;stroke-opacity:0.3;stroke-width:3;"/>
    </g>
    <g id="line2d_76"/>
    <g id="text_10">
     <!-- AMR -->
     <defs>
      <path d="M 49.90625 37.046875 
L 45.09375 23.015625 
C 44.296875 20.421875 41.59375 12.359375 41 9.171875 
L 40.90625 9.171875 
C 40.59375 11.171875 40 13.265625 38.40625 18.34375 
C 37.5 21.328125 36.5 24.40625 35.5 27.203125 
L 20.703125 69 
L 9 69 
L 9 0 
L 16.796875 0 
L 16.796875 60.9375 
L 16.90625 60.9375 
C 16.90625 60.84375 17.796875 56.453125 23.90625 39.046875 
L 37.09375 1.5 
L 44.5 1.5 
L 56.40625 34.859375 
C 57.203125 37.15625 59.703125 44.421875 60.796875 47.90625 
C 61.796875 50.890625 64.296875 58.25 64.90625 61.140625 
L 65 61.140625 
L 65 0 
L 72.90625 0 
L 72.90625 69 
L 61.296875 69 
z
" id="CMSS17-77"/>
     </defs>
     <g transform="translate(379.83968 37.137178)scale(0.1 -0.1)">
      <use transform="scale(0.996264)" xlink:href="#CMSS17-65"/>
      <use transform="translate(62.217855 0)scale(0.996264)" xlink:href="#CMSS17-77"/>
      <use transform="translate(143.893885 0)scale(0.996264)" xlink:href="#CMSS17-82"/>
     </g>
    </g>
    <g id="line2d_77">
     <path d="M 351.83968 47.574357 
L 371.83968 47.574357 
" style="fill:none;stroke:#2ca02c;stroke-linecap:square;stroke-opacity:0.3;stroke-width:3;"/>
    </g>
    <g id="line2d_78"/>
    <g id="text_11">
     <!-- EAS -->
     <defs>
      <path d="M 30.59375 6.765625 
C 22.59375 6.765625 19 6.765625 17.203125 6.765625 
L 17.203125 32.921875 
L 48.203125 32.921875 
L 48.203125 39 
L 17.203125 39 
L 17.203125 62.640625 
L 30.09375 62.640625 
C 31.296875 62.640625 32.5 62.640625 33.703125 62.640625 
L 50.796875 62.640625 
L 50.796875 69 
L 8.796875 69 
L 8.796875 0 
L 52.09375 0 
L 52.09375 6.765625 
z
" id="CMSS17-69"/>
      <path d="M 43.703125 65.140625 
C 39.296875 67.71875 34.5 70 26.40625 70 
C 13.5 70 5.203125 60.609375 5.203125 51.03125 
C 5.203125 47.265625 6.296875 43.015625 10.203125 38.671875 
C 14.09375 34.3125 18.5 33.140625 24.09375 31.765625 
C 26.40625 31.15625 30.296875 30.0625 31 29.78125 
C 36.59375 27.609375 39.296875 22.5625 39.296875 17.8125 
C 39.296875 11.59375 34.40625 4.96875 25.703125 4.96875 
C 22.703125 4.96875 13.90625 4.96875 5.59375 12.796875 
L 4.203125 4.96875 
C 12.40625 -1 21.296875 -2 25.796875 -2 
C 38.09375 -2 46.90625 7.625 46.90625 18.53125 
C 46.90625 22.5 45.703125 27.546875 41.5 32.203125 
C 37.40625 36.671875 33.796875 37.65625 25.59375 39.828125 
C 20.90625 41.03125 17.90625 41.828125 15.40625 44.890625 
C 13.703125 47.078125 12.796875 49.15625 12.796875 51.828125 
C 12.796875 57.390625 17.59375 63.4375 26.40625 63.4375 
C 30.796875 63.4375 36.5 62.53125 42.296875 57.1875 
z
" id="CMSS17-83"/>
     </defs>
     <g transform="translate(379.83968 51.074357)scale(0.1 -0.1)">
      <use transform="scale(0.996264)" xlink:href="#CMSS17-69"/>
      <use transform="translate(55.892013 0)scale(0.996264)" xlink:href="#CMSS17-65"/>
      <use transform="translate(118.109868 0)scale(0.996264)" xlink:href="#CMSS17-83"/>
     </g>
    </g>
    <g id="line2d_79">
     <path d="M 351.83968 61.511535 
L 371.83968 61.511535 
" style="fill:none;stroke:#d62728;stroke-linecap:square;stroke-opacity:0.3;stroke-width:3;"/>
    </g>
    <g id="line2d_80"/>
    <g id="text_12">
     <!-- EUR -->
     <defs>
      <path d="M 55.5 68.5 
L 47.90625 68.5 
L 47.90625 22.640625 
C 47.90625 9.4375 39.796875 3.578125 32.40625 3.578125 
C 24.796875 3.578125 17.203125 9.734375 17.203125 22.546875 
L 17.203125 68.5 
L 8.796875 68.5 
L 8.796875 22.71875 
C 8.796875 8.421875 19.90625 -2 32.296875 -2 
C 44.703125 -2 55.5 8.421875 55.5 22.71875 
z
" id="CMSS17-85"/>
     </defs>
     <g transform="translate(379.83968 65.011535)scale(0.1 -0.1)">
      <use transform="scale(0.996264)" xlink:href="#CMSS17-69"/>
      <use transform="translate(55.892013 0)scale(0.996264)" xlink:href="#CMSS17-85"/>
      <use transform="translate(120.031753 0)scale(0.996264)" xlink:href="#CMSS17-82"/>
     </g>
    </g>
    <g id="line2d_81">
     <path d="M 351.83968 75.448713 
L 371.83968 75.448713 
" style="fill:none;stroke:#9467bd;stroke-linecap:square;stroke-opacity:0.3;stroke-width:3;"/>
    </g>
    <g id="line2d_82"/>
    <g id="text_13">
     <!-- SAS -->
     <g transform="translate(379.83968 78.948713)scale(0.1 -0.1)">
      <use transform="scale(0.996264)" xlink:href="#CMSS17-83"/>
      <use transform="translate(52.048516 0)scale(0.996264)" xlink:href="#CMSS17-65"/>
      <use transform="translate(114.266371 0)scale(0.996264)" xlink:href="#CMSS17-83"/>
     </g>
    </g>
   </g>
  </g>
 </g>
 <defs>
  <clipPath id="pabb6d61781">
   <rect height="560.581683" width="368.536498" x="42.096548" y="7.2"/>
  </clipPath>
 </defs>
</svg>
