<?xml version="1.0" encoding="utf-8" standalone="no"?>
<!DOCTYPE svg PUBLIC "-//W3C//DTD SVG 1.1//EN"
  "http://www.w3.org/Graphics/SVG/1.1/DTD/svg11.dtd">
<!-- Created with matplotlib (https://matplotlib.org/) -->
<svg height="280.65625pt" version="1.1" viewBox="0 0 281.094496 280.65625" width="281.094496pt" xmlns="http://www.w3.org/2000/svg" xmlns:xlink="http://www.w3.org/1999/xlink">
 <defs>
  <style type="text/css">
*{stroke-linecap:butt;stroke-linejoin:round;}
  </style>
 </defs>
 <g id="figure_1">
  <g id="patch_1">
   <path d="M 0 280.65625 
L 281.094496 280.65625 
L 281.094496 0 
L 0 0 
z
" style="fill:#ffffff;"/>
  </g>
  <g id="axes_1">
   <g id="patch_2">
    <path d="M 42.620313 243.1 
L 254.728267 243.1 
L 254.728267 7.2 
L 42.620313 7.2 
z
" style="fill:#ffffff;"/>
   </g>
   <g id="PathCollection_1">
    <defs>
     <path d="M 0 3 
C 0.795609 3 1.55874 2.683901 2.12132 2.12132 
C 2.683901 1.55874 3 0.795609 3 0 
C 3 -0.795609 2.683901 -1.55874 2.12132 -2.12132 
C 1.55874 -2.683901 0.795609 -3 0 -3 
C -0.795609 -3 -1.55874 -2.683901 -2.12132 -2.12132 
C -2.683901 -1.55874 -3 -0.795609 -3 0 
C -3 0.795609 -2.683901 1.55874 -2.12132 2.12132 
C -1.55874 2.683901 -0.795609 3 0 3 
z
" id="C0_0_5f927804f1"/>
    </defs>
    <g clip-path="url(#pcbcc393b93)">
     <use style="fill:#f77189;stroke:#ffffff;stroke-width:0.75;" x="98.253493" xlink:href="#C0_0_5f927804f1" y="163.216593"/>
    </g>
    <g clip-path="url(#pcbcc393b93)">
     <use style="fill:#f77189;stroke:#ffffff;stroke-width:0.75;" x="86.577992" xlink:href="#C0_0_5f927804f1" y="137.897409"/>
    </g>
    <g clip-path="url(#pcbcc393b93)">
     <use style="fill:#f77189;stroke:#ffffff;stroke-width:0.75;" x="84.527008" xlink:href="#C0_0_5f927804f1" y="127.195074"/>
    </g>
    <g clip-path="url(#pcbcc393b93)">
     <use style="fill:#f77189;stroke:#ffffff;stroke-width:0.75;" x="73.06795" xlink:href="#C0_0_5f927804f1" y="152.159364"/>
    </g>
    <g clip-path="url(#pcbcc393b93)">
     <use style="fill:#f77189;stroke:#ffffff;stroke-width:0.75;" x="72.345546" xlink:href="#C0_0_5f927804f1" y="154.754688"/>
    </g>
    <g clip-path="url(#pcbcc393b93)">
     <use style="fill:#f77189;stroke:#ffffff;stroke-width:0.75;" x="99.398152" xlink:href="#C0_0_5f927804f1" y="141.80887"/>
    </g>
    <g clip-path="url(#pcbcc393b93)">
     <use style="fill:#f77189;stroke:#ffffff;stroke-width:0.75;" x="64.339054" xlink:href="#C0_0_5f927804f1" y="150.632964"/>
    </g>
    <g clip-path="url(#pcbcc393b93)">
     <use style="fill:#f77189;stroke:#ffffff;stroke-width:0.75;" x="74.026113" xlink:href="#C0_0_5f927804f1" y="158.13822"/>
    </g>
    <g clip-path="url(#pcbcc393b93)">
     <use style="fill:#f77189;stroke:#ffffff;stroke-width:0.75;" x="61.515312" xlink:href="#C0_0_5f927804f1" y="153.848411"/>
    </g>
    <g clip-path="url(#pcbcc393b93)">
     <use style="fill:#f77189;stroke:#ffffff;stroke-width:0.75;" x="57.228169" xlink:href="#C0_0_5f927804f1" y="143.725981"/>
    </g>
    <g clip-path="url(#pcbcc393b93)">
     <use style="fill:#f77189;stroke:#ffffff;stroke-width:0.75;" x="61.498443" xlink:href="#C0_0_5f927804f1" y="144.997552"/>
    </g>
    <g clip-path="url(#pcbcc393b93)">
     <use style="fill:#f77189;stroke:#ffffff;stroke-width:0.75;" x="57.546104" xlink:href="#C0_0_5f927804f1" y="151.173968"/>
    </g>
    <g clip-path="url(#pcbcc393b93)">
     <use style="fill:#f77189;stroke:#ffffff;stroke-width:0.75;" x="85.330041" xlink:href="#C0_0_5f927804f1" y="158.716406"/>
    </g>
    <g clip-path="url(#pcbcc393b93)">
     <use style="fill:#f77189;stroke:#ffffff;stroke-width:0.75;" x="65.539387" xlink:href="#C0_0_5f927804f1" y="145.437518"/>
    </g>
    <g clip-path="url(#pcbcc393b93)">
     <use style="fill:#f77189;stroke:#ffffff;stroke-width:0.75;" x="60.305716" xlink:href="#C0_0_5f927804f1" y="149.833524"/>
    </g>
    <g clip-path="url(#pcbcc393b93)">
     <use style="fill:#f77189;stroke:#ffffff;stroke-width:0.75;" x="71.066745" xlink:href="#C0_0_5f927804f1" y="160.199709"/>
    </g>
    <g clip-path="url(#pcbcc393b93)">
     <use style="fill:#bb9832;stroke:#ffffff;stroke-width:0.75;" x="96.978342" xlink:href="#C0_0_5f927804f1" y="163.970968"/>
    </g>
    <g clip-path="url(#pcbcc393b93)">
     <use style="fill:#bb9832;stroke:#ffffff;stroke-width:0.75;" x="84.316857" xlink:href="#C0_0_5f927804f1" y="157.610594"/>
    </g>
    <g clip-path="url(#pcbcc393b93)">
     <use style="fill:#bb9832;stroke:#ffffff;stroke-width:0.75;" x="85.619364" xlink:href="#C0_0_5f927804f1" y="144.570548"/>
    </g>
    <g clip-path="url(#pcbcc393b93)">
     <use style="fill:#bb9832;stroke:#ffffff;stroke-width:0.75;" x="157.628641" xlink:href="#C0_0_5f927804f1" y="153.067937"/>
    </g>
    <g clip-path="url(#pcbcc393b93)">
     <use style="fill:#bb9832;stroke:#ffffff;stroke-width:0.75;" x="91.459083" xlink:href="#C0_0_5f927804f1" y="154.457192"/>
    </g>
    <g clip-path="url(#pcbcc393b93)">
     <use style="fill:#bb9832;stroke:#ffffff;stroke-width:0.75;" x="118.830064" xlink:href="#C0_0_5f927804f1" y="162.715568"/>
    </g>
    <g clip-path="url(#pcbcc393b93)">
     <use style="fill:#bb9832;stroke:#ffffff;stroke-width:0.75;" x="145.600558" xlink:href="#C0_0_5f927804f1" y="151.999805"/>
    </g>
    <g clip-path="url(#pcbcc393b93)">
     <use style="fill:#bb9832;stroke:#ffffff;stroke-width:0.75;" x="245.086996" xlink:href="#C0_0_5f927804f1" y="232.377273"/>
    </g>
    <g clip-path="url(#pcbcc393b93)">
     <use style="fill:#bb9832;stroke:#ffffff;stroke-width:0.75;" x="76.933955" xlink:href="#C0_0_5f927804f1" y="166.472219"/>
    </g>
    <g clip-path="url(#pcbcc393b93)">
     <use style="fill:#bb9832;stroke:#ffffff;stroke-width:0.75;" x="76.883653" xlink:href="#C0_0_5f927804f1" y="153.472937"/>
    </g>
    <g clip-path="url(#pcbcc393b93)">
     <use style="fill:#bb9832;stroke:#ffffff;stroke-width:0.75;" x="81.107093" xlink:href="#C0_0_5f927804f1" y="146.12237"/>
    </g>
    <g clip-path="url(#pcbcc393b93)">
     <use style="fill:#bb9832;stroke:#ffffff;stroke-width:0.75;" x="73.136789" xlink:href="#C0_0_5f927804f1" y="151.332367"/>
    </g>
    <g clip-path="url(#pcbcc393b93)">
     <use style="fill:#bb9832;stroke:#ffffff;stroke-width:0.75;" x="81.517699" xlink:href="#C0_0_5f927804f1" y="165.757785"/>
    </g>
    <g clip-path="url(#pcbcc393b93)">
     <use style="fill:#bb9832;stroke:#ffffff;stroke-width:0.75;" x="83.332235" xlink:href="#C0_0_5f927804f1" y="160.935311"/>
    </g>
    <g clip-path="url(#pcbcc393b93)">
     <use style="fill:#bb9832;stroke:#ffffff;stroke-width:0.75;" x="75.257019" xlink:href="#C0_0_5f927804f1" y="155.191355"/>
    </g>
    <g clip-path="url(#pcbcc393b93)">
     <use style="fill:#bb9832;stroke:#ffffff;stroke-width:0.75;" x="148.262567" xlink:href="#C0_0_5f927804f1" y="193.437795"/>
    </g>
    <g clip-path="url(#pcbcc393b93)">
     <use style="fill:#50b131;stroke:#ffffff;stroke-width:0.75;" x="72.543625" xlink:href="#C0_0_5f927804f1" y="156.974553"/>
    </g>
    <g clip-path="url(#pcbcc393b93)">
     <use style="fill:#50b131;stroke:#ffffff;stroke-width:0.75;" x="65.769977" xlink:href="#C0_0_5f927804f1" y="154.5855"/>
    </g>
    <g clip-path="url(#pcbcc393b93)">
     <use style="fill:#50b131;stroke:#ffffff;stroke-width:0.75;" x="56.851942" xlink:href="#C0_0_5f927804f1" y="142.772603"/>
    </g>
    <g clip-path="url(#pcbcc393b93)">
     <use style="fill:#50b131;stroke:#ffffff;stroke-width:0.75;" x="79.97399" xlink:href="#C0_0_5f927804f1" y="161.868422"/>
    </g>
    <g clip-path="url(#pcbcc393b93)">
     <use style="fill:#50b131;stroke:#ffffff;stroke-width:0.75;" x="58.442285" xlink:href="#C0_0_5f927804f1" y="147.370111"/>
    </g>
    <g clip-path="url(#pcbcc393b93)">
     <use style="fill:#50b131;stroke:#ffffff;stroke-width:0.75;" x="66.01932" xlink:href="#C0_0_5f927804f1" y="147.689555"/>
    </g>
    <g clip-path="url(#pcbcc393b93)">
     <use style="fill:#50b131;stroke:#ffffff;stroke-width:0.75;" x="62.696829" xlink:href="#C0_0_5f927804f1" y="147.587276"/>
    </g>
    <g clip-path="url(#pcbcc393b93)">
     <use style="fill:#50b131;stroke:#ffffff;stroke-width:0.75;" x="78.238001" xlink:href="#C0_0_5f927804f1" y="158.052605"/>
    </g>
    <g clip-path="url(#pcbcc393b93)">
     <use style="fill:#50b131;stroke:#ffffff;stroke-width:0.75;" x="54.385679" xlink:href="#C0_0_5f927804f1" y="147.160006"/>
    </g>
    <g clip-path="url(#pcbcc393b93)">
     <use style="fill:#50b131;stroke:#ffffff;stroke-width:0.75;" x="58.3138" xlink:href="#C0_0_5f927804f1" y="146.400445"/>
    </g>
    <g clip-path="url(#pcbcc393b93)">
     <use style="fill:#50b131;stroke:#ffffff;stroke-width:0.75;" x="56.367792" xlink:href="#C0_0_5f927804f1" y="146.43039"/>
    </g>
    <g clip-path="url(#pcbcc393b93)">
     <use style="fill:#50b131;stroke:#ffffff;stroke-width:0.75;" x="69.672756" xlink:href="#C0_0_5f927804f1" y="146.318702"/>
    </g>
    <g clip-path="url(#pcbcc393b93)">
     <use style="fill:#50b131;stroke:#ffffff;stroke-width:0.75;" x="90.699508" xlink:href="#C0_0_5f927804f1" y="162.766734"/>
    </g>
    <g clip-path="url(#pcbcc393b93)">
     <use style="fill:#50b131;stroke:#ffffff;stroke-width:0.75;" x="59.449388" xlink:href="#C0_0_5f927804f1" y="146.632183"/>
    </g>
    <g clip-path="url(#pcbcc393b93)">
     <use style="fill:#50b131;stroke:#ffffff;stroke-width:0.75;" x="58.291205" xlink:href="#C0_0_5f927804f1" y="144.823839"/>
    </g>
    <g clip-path="url(#pcbcc393b93)">
     <use style="fill:#50b131;stroke:#ffffff;stroke-width:0.75;" x="122.678186" xlink:href="#C0_0_5f927804f1" y="137.381234"/>
    </g>
    <g clip-path="url(#pcbcc393b93)">
     <use style="fill:#36ada4;stroke:#ffffff;stroke-width:0.75;" x="105.042611" xlink:href="#C0_0_5f927804f1" y="129.809981"/>
    </g>
    <g clip-path="url(#pcbcc393b93)">
     <use style="fill:#36ada4;stroke:#ffffff;stroke-width:0.75;" x="78.632485" xlink:href="#C0_0_5f927804f1" y="149.65543"/>
    </g>
    <g clip-path="url(#pcbcc393b93)">
     <use style="fill:#36ada4;stroke:#ffffff;stroke-width:0.75;" x="59.533097" xlink:href="#C0_0_5f927804f1" y="152.057441"/>
    </g>
    <g clip-path="url(#pcbcc393b93)">
     <use style="fill:#36ada4;stroke:#ffffff;stroke-width:0.75;" x="68.354826" xlink:href="#C0_0_5f927804f1" y="139.660483"/>
    </g>
    <g clip-path="url(#pcbcc393b93)">
     <use style="fill:#36ada4;stroke:#ffffff;stroke-width:0.75;" x="71.599131" xlink:href="#C0_0_5f927804f1" y="133.107276"/>
    </g>
    <g clip-path="url(#pcbcc393b93)">
     <use style="fill:#36ada4;stroke:#ffffff;stroke-width:0.75;" x="61.739831" xlink:href="#C0_0_5f927804f1" y="141.113958"/>
    </g>
    <g clip-path="url(#pcbcc393b93)">
     <use style="fill:#36ada4;stroke:#ffffff;stroke-width:0.75;" x="54.718518" xlink:href="#C0_0_5f927804f1" y="149.77607"/>
    </g>
    <g clip-path="url(#pcbcc393b93)">
     <use style="fill:#36ada4;stroke:#ffffff;stroke-width:0.75;" x="67.084473" xlink:href="#C0_0_5f927804f1" y="137.562238"/>
    </g>
    <g clip-path="url(#pcbcc393b93)">
     <use style="fill:#36ada4;stroke:#ffffff;stroke-width:0.75;" x="81.528109" xlink:href="#C0_0_5f927804f1" y="134.522886"/>
    </g>
    <g clip-path="url(#pcbcc393b93)">
     <use style="fill:#36ada4;stroke:#ffffff;stroke-width:0.75;" x="64.051678" xlink:href="#C0_0_5f927804f1" y="137.091859"/>
    </g>
    <g clip-path="url(#pcbcc393b93)">
     <use style="fill:#36ada4;stroke:#ffffff;stroke-width:0.75;" x="56.147042" xlink:href="#C0_0_5f927804f1" y="149.826853"/>
    </g>
    <g clip-path="url(#pcbcc393b93)">
     <use style="fill:#36ada4;stroke:#ffffff;stroke-width:0.75;" x="66.375936" xlink:href="#C0_0_5f927804f1" y="141.976495"/>
    </g>
    <g clip-path="url(#pcbcc393b93)">
     <use style="fill:#36ada4;stroke:#ffffff;stroke-width:0.75;" x="75.440953" xlink:href="#C0_0_5f927804f1" y="133.755005"/>
    </g>
    <g clip-path="url(#pcbcc393b93)">
     <use style="fill:#36ada4;stroke:#ffffff;stroke-width:0.75;" x="66.971492" xlink:href="#C0_0_5f927804f1" y="142.17174"/>
    </g>
    <g clip-path="url(#pcbcc393b93)">
     <use style="fill:#36ada4;stroke:#ffffff;stroke-width:0.75;" x="53.3495" xlink:href="#C0_0_5f927804f1" y="148.066332"/>
    </g>
    <g clip-path="url(#pcbcc393b93)">
     <use style="fill:#36ada4;stroke:#ffffff;stroke-width:0.75;" x="92.197341" xlink:href="#C0_0_5f927804f1" y="128.136253"/>
    </g>
    <g clip-path="url(#pcbcc393b93)">
     <use style="fill:#3ba3ec;stroke:#ffffff;stroke-width:0.75;" x="76.778798" xlink:href="#C0_0_5f927804f1" y="149.303262"/>
    </g>
    <g clip-path="url(#pcbcc393b93)">
     <use style="fill:#3ba3ec;stroke:#ffffff;stroke-width:0.75;" x="65.367847" xlink:href="#C0_0_5f927804f1" y="152.486742"/>
    </g>
    <g clip-path="url(#pcbcc393b93)">
     <use style="fill:#3ba3ec;stroke:#ffffff;stroke-width:0.75;" x="54.937591" xlink:href="#C0_0_5f927804f1" y="149.37249"/>
    </g>
    <g clip-path="url(#pcbcc393b93)">
     <use style="fill:#3ba3ec;stroke:#ffffff;stroke-width:0.75;" x="80.25208" xlink:href="#C0_0_5f927804f1" y="143.418186"/>
    </g>
    <g clip-path="url(#pcbcc393b93)">
     <use style="fill:#3ba3ec;stroke:#ffffff;stroke-width:0.75;" x="65.974388" xlink:href="#C0_0_5f927804f1" y="147.415206"/>
    </g>
    <g clip-path="url(#pcbcc393b93)">
     <use style="fill:#3ba3ec;stroke:#ffffff;stroke-width:0.75;" x="63.351203" xlink:href="#C0_0_5f927804f1" y="150.90265"/>
    </g>
    <g clip-path="url(#pcbcc393b93)">
     <use style="fill:#3ba3ec;stroke:#ffffff;stroke-width:0.75;" x="56.091278" xlink:href="#C0_0_5f927804f1" y="147.868121"/>
    </g>
    <g clip-path="url(#pcbcc393b93)">
     <use style="fill:#3ba3ec;stroke:#ffffff;stroke-width:0.75;" x="88.786019" xlink:href="#C0_0_5f927804f1" y="151.997381"/>
    </g>
    <g clip-path="url(#pcbcc393b93)">
     <use style="fill:#3ba3ec;stroke:#ffffff;stroke-width:0.75;" x="80.605659" xlink:href="#C0_0_5f927804f1" y="139.32422"/>
    </g>
    <g clip-path="url(#pcbcc393b93)">
     <use style="fill:#3ba3ec;stroke:#ffffff;stroke-width:0.75;" x="67.86177" xlink:href="#C0_0_5f927804f1" y="145.31616"/>
    </g>
    <g clip-path="url(#pcbcc393b93)">
     <use style="fill:#3ba3ec;stroke:#ffffff;stroke-width:0.75;" x="52.261583" xlink:href="#C0_0_5f927804f1" y="148.840477"/>
    </g>
    <g clip-path="url(#pcbcc393b93)">
     <use style="fill:#3ba3ec;stroke:#ffffff;stroke-width:0.75;" x="87.969043" xlink:href="#C0_0_5f927804f1" y="136.106403"/>
    </g>
    <g clip-path="url(#pcbcc393b93)">
     <use style="fill:#3ba3ec;stroke:#ffffff;stroke-width:0.75;" x="72.31439" xlink:href="#C0_0_5f927804f1" y="146.806852"/>
    </g>
    <g clip-path="url(#pcbcc393b93)">
     <use style="fill:#3ba3ec;stroke:#ffffff;stroke-width:0.75;" x="66.917253" xlink:href="#C0_0_5f927804f1" y="144.112221"/>
    </g>
    <g clip-path="url(#pcbcc393b93)">
     <use style="fill:#3ba3ec;stroke:#ffffff;stroke-width:0.75;" x="53.453849" xlink:href="#C0_0_5f927804f1" y="147.88538"/>
    </g>
    <g clip-path="url(#pcbcc393b93)">
     <use style="fill:#3ba3ec;stroke:#ffffff;stroke-width:0.75;" x="94.757229" xlink:href="#C0_0_5f927804f1" y="147.491085"/>
    </g>
    <g clip-path="url(#pcbcc393b93)">
     <use style="fill:#e866f4;stroke:#ffffff;stroke-width:0.75;" x="163.925544" xlink:href="#C0_0_5f927804f1" y="164.944672"/>
    </g>
    <g clip-path="url(#pcbcc393b93)">
     <use style="fill:#e866f4;stroke:#ffffff;stroke-width:0.75;" x="109.460551" xlink:href="#C0_0_5f927804f1" y="99.720361"/>
    </g>
    <g clip-path="url(#pcbcc393b93)">
     <use style="fill:#e866f4;stroke:#ffffff;stroke-width:0.75;" x="66.45332" xlink:href="#C0_0_5f927804f1" y="133.59547"/>
    </g>
    <g clip-path="url(#pcbcc393b93)">
     <use style="fill:#e866f4;stroke:#ffffff;stroke-width:0.75;" x="98.816705" xlink:href="#C0_0_5f927804f1" y="141.487067"/>
    </g>
    <g clip-path="url(#pcbcc393b93)">
     <use style="fill:#e866f4;stroke:#ffffff;stroke-width:0.75;" x="126.646028" xlink:href="#C0_0_5f927804f1" y="132.402201"/>
    </g>
    <g clip-path="url(#pcbcc393b93)">
     <use style="fill:#e866f4;stroke:#ffffff;stroke-width:0.75;" x="123.581195" xlink:href="#C0_0_5f927804f1" y="114.902276"/>
    </g>
    <g clip-path="url(#pcbcc393b93)">
     <use style="fill:#e866f4;stroke:#ffffff;stroke-width:0.75;" x="67.103882" xlink:href="#C0_0_5f927804f1" y="141.201578"/>
    </g>
    <g clip-path="url(#pcbcc393b93)">
     <use style="fill:#e866f4;stroke:#ffffff;stroke-width:0.75;" x="130.641798" xlink:href="#C0_0_5f927804f1" y="142.39462"/>
    </g>
    <g clip-path="url(#pcbcc393b93)">
     <use style="fill:#e866f4;stroke:#ffffff;stroke-width:0.75;" x="108.566035" xlink:href="#C0_0_5f927804f1" y="149.195812"/>
    </g>
    <g clip-path="url(#pcbcc393b93)">
     <use style="fill:#e866f4;stroke:#ffffff;stroke-width:0.75;" x="91.151616" xlink:href="#C0_0_5f927804f1" y="138.745959"/>
    </g>
    <g clip-path="url(#pcbcc393b93)">
     <use style="fill:#e866f4;stroke:#ffffff;stroke-width:0.75;" x="67.113037" xlink:href="#C0_0_5f927804f1" y="134.72667"/>
    </g>
    <g clip-path="url(#pcbcc393b93)">
     <use style="fill:#e866f4;stroke:#ffffff;stroke-width:0.75;" x="109.278782" xlink:href="#C0_0_5f927804f1" y="133.450077"/>
    </g>
    <g clip-path="url(#pcbcc393b93)">
     <use style="fill:#e866f4;stroke:#ffffff;stroke-width:0.75;" x="93.013511" xlink:href="#C0_0_5f927804f1" y="117.779483"/>
    </g>
    <g clip-path="url(#pcbcc393b93)">
     <use style="fill:#e866f4;stroke:#ffffff;stroke-width:0.75;" x="169.106353" xlink:href="#C0_0_5f927804f1" y="17.922727"/>
    </g>
    <g clip-path="url(#pcbcc393b93)">
     <use style="fill:#e866f4;stroke:#ffffff;stroke-width:0.75;" x="62.434167" xlink:href="#C0_0_5f927804f1" y="138.603711"/>
    </g>
    <g clip-path="url(#pcbcc393b93)">
     <use style="fill:#e866f4;stroke:#ffffff;stroke-width:0.75;" x="151.659913" xlink:href="#C0_0_5f927804f1" y="87.892755"/>
    </g>
   </g>
   <g id="PathCollection_2"/>
   <g id="PathCollection_3"/>
   <g id="PathCollection_4"/>
   <g id="PathCollection_5"/>
   <g id="PathCollection_6"/>
   <g id="PathCollection_7"/>
   <g id="matplotlib.axis_1">
    <g id="xtick_1">
     <g id="line2d_1">
      <defs>
       <path d="M 0 0 
L 0 3.5 
" id="maed531e069" style="stroke:#000000;stroke-width:0.8;"/>
      </defs>
      <g>
       <use style="stroke:#000000;stroke-width:0.8;" x="52.056633" xlink:href="#maed531e069" y="243.1"/>
      </g>
     </g>
     <g id="text_1">
      <!-- −1 -->
      <defs>
       <path d="M 10.59375 35.5 
L 73.1875 35.5 
L 73.1875 27.203125 
L 10.59375 27.203125 
z
" id="DejaVuSans-8722"/>
       <path d="M 12.40625 8.296875 
L 28.515625 8.296875 
L 28.515625 63.921875 
L 10.984375 60.40625 
L 10.984375 69.390625 
L 28.421875 72.90625 
L 38.28125 72.90625 
L 38.28125 8.296875 
L 54.390625 8.296875 
L 54.390625 0 
L 12.40625 0 
z
" id="DejaVuSans-49"/>
      </defs>
      <g transform="translate(44.685539 257.698438)scale(0.1 -0.1)">
       <use xlink:href="#DejaVuSans-8722"/>
       <use x="83.789062" xlink:href="#DejaVuSans-49"/>
      </g>
     </g>
    </g>
    <g id="xtick_2">
     <g id="line2d_2">
      <g>
       <use style="stroke:#000000;stroke-width:0.8;" x="83.274061" xlink:href="#maed531e069" y="243.1"/>
      </g>
     </g>
     <g id="text_2">
      <!-- 0 -->
      <defs>
       <path d="M 31.78125 66.40625 
Q 24.171875 66.40625 20.328125 58.90625 
Q 16.5 51.421875 16.5 36.375 
Q 16.5 21.390625 20.328125 13.890625 
Q 24.171875 6.390625 31.78125 6.390625 
Q 39.453125 6.390625 43.28125 13.890625 
Q 47.125 21.390625 47.125 36.375 
Q 47.125 51.421875 43.28125 58.90625 
Q 39.453125 66.40625 31.78125 66.40625 
z
M 31.78125 74.21875 
Q 44.046875 74.21875 50.515625 64.515625 
Q 56.984375 54.828125 56.984375 36.375 
Q 56.984375 17.96875 50.515625 8.265625 
Q 44.046875 -1.421875 31.78125 -1.421875 
Q 19.53125 -1.421875 13.0625 8.265625 
Q 6.59375 17.96875 6.59375 36.375 
Q 6.59375 54.828125 13.0625 64.515625 
Q 19.53125 74.21875 31.78125 74.21875 
z
" id="DejaVuSans-48"/>
      </defs>
      <g transform="translate(80.092811 257.698438)scale(0.1 -0.1)">
       <use xlink:href="#DejaVuSans-48"/>
      </g>
     </g>
    </g>
    <g id="xtick_3">
     <g id="line2d_3">
      <g>
       <use style="stroke:#000000;stroke-width:0.8;" x="114.49149" xlink:href="#maed531e069" y="243.1"/>
      </g>
     </g>
     <g id="text_3">
      <!-- 1 -->
      <g transform="translate(111.31024 257.698438)scale(0.1 -0.1)">
       <use xlink:href="#DejaVuSans-49"/>
      </g>
     </g>
    </g>
    <g id="xtick_4">
     <g id="line2d_4">
      <g>
       <use style="stroke:#000000;stroke-width:0.8;" x="145.708918" xlink:href="#maed531e069" y="243.1"/>
      </g>
     </g>
     <g id="text_4">
      <!-- 2 -->
      <defs>
       <path d="M 19.1875 8.296875 
L 53.609375 8.296875 
L 53.609375 0 
L 7.328125 0 
L 7.328125 8.296875 
Q 12.9375 14.109375 22.625 23.890625 
Q 32.328125 33.6875 34.8125 36.53125 
Q 39.546875 41.84375 41.421875 45.53125 
Q 43.3125 49.21875 43.3125 52.78125 
Q 43.3125 58.59375 39.234375 62.25 
Q 35.15625 65.921875 28.609375 65.921875 
Q 23.96875 65.921875 18.8125 64.3125 
Q 13.671875 62.703125 7.8125 59.421875 
L 7.8125 69.390625 
Q 13.765625 71.78125 18.9375 73 
Q 24.125 74.21875 28.421875 74.21875 
Q 39.75 74.21875 46.484375 68.546875 
Q 53.21875 62.890625 53.21875 53.421875 
Q 53.21875 48.921875 51.53125 44.890625 
Q 49.859375 40.875 45.40625 35.40625 
Q 44.1875 33.984375 37.640625 27.21875 
Q 31.109375 20.453125 19.1875 8.296875 
z
" id="DejaVuSans-50"/>
      </defs>
      <g transform="translate(142.527668 257.698438)scale(0.1 -0.1)">
       <use xlink:href="#DejaVuSans-50"/>
      </g>
     </g>
    </g>
    <g id="xtick_5">
     <g id="line2d_5">
      <g>
       <use style="stroke:#000000;stroke-width:0.8;" x="176.926346" xlink:href="#maed531e069" y="243.1"/>
      </g>
     </g>
     <g id="text_5">
      <!-- 3 -->
      <defs>
       <path d="M 40.578125 39.3125 
Q 47.65625 37.796875 51.625 33 
Q 55.609375 28.21875 55.609375 21.1875 
Q 55.609375 10.40625 48.1875 4.484375 
Q 40.765625 -1.421875 27.09375 -1.421875 
Q 22.515625 -1.421875 17.65625 -0.515625 
Q 12.796875 0.390625 7.625 2.203125 
L 7.625 11.71875 
Q 11.71875 9.328125 16.59375 8.109375 
Q 21.484375 6.890625 26.8125 6.890625 
Q 36.078125 6.890625 40.9375 10.546875 
Q 45.796875 14.203125 45.796875 21.1875 
Q 45.796875 27.640625 41.28125 31.265625 
Q 36.765625 34.90625 28.71875 34.90625 
L 20.21875 34.90625 
L 20.21875 43.015625 
L 29.109375 43.015625 
Q 36.375 43.015625 40.234375 45.921875 
Q 44.09375 48.828125 44.09375 54.296875 
Q 44.09375 59.90625 40.109375 62.90625 
Q 36.140625 65.921875 28.71875 65.921875 
Q 24.65625 65.921875 20.015625 65.03125 
Q 15.375 64.15625 9.8125 62.3125 
L 9.8125 71.09375 
Q 15.4375 72.65625 20.34375 73.4375 
Q 25.25 74.21875 29.59375 74.21875 
Q 40.828125 74.21875 47.359375 69.109375 
Q 53.90625 64.015625 53.90625 55.328125 
Q 53.90625 49.265625 50.4375 45.09375 
Q 46.96875 40.921875 40.578125 39.3125 
z
" id="DejaVuSans-51"/>
      </defs>
      <g transform="translate(173.745096 257.698438)scale(0.1 -0.1)">
       <use xlink:href="#DejaVuSans-51"/>
      </g>
     </g>
    </g>
    <g id="xtick_6">
     <g id="line2d_6">
      <g>
       <use style="stroke:#000000;stroke-width:0.8;" x="208.143775" xlink:href="#maed531e069" y="243.1"/>
      </g>
     </g>
     <g id="text_6">
      <!-- 4 -->
      <defs>
       <path d="M 37.796875 64.3125 
L 12.890625 25.390625 
L 37.796875 25.390625 
z
M 35.203125 72.90625 
L 47.609375 72.90625 
L 47.609375 25.390625 
L 58.015625 25.390625 
L 58.015625 17.1875 
L 47.609375 17.1875 
L 47.609375 0 
L 37.796875 0 
L 37.796875 17.1875 
L 4.890625 17.1875 
L 4.890625 26.703125 
z
" id="DejaVuSans-52"/>
      </defs>
      <g transform="translate(204.962525 257.698438)scale(0.1 -0.1)">
       <use xlink:href="#DejaVuSans-52"/>
      </g>
     </g>
    </g>
    <g id="xtick_7">
     <g id="line2d_7">
      <g>
       <use style="stroke:#000000;stroke-width:0.8;" x="239.361203" xlink:href="#maed531e069" y="243.1"/>
      </g>
     </g>
     <g id="text_7">
      <!-- 5 -->
      <defs>
       <path d="M 10.796875 72.90625 
L 49.515625 72.90625 
L 49.515625 64.59375 
L 19.828125 64.59375 
L 19.828125 46.734375 
Q 21.96875 47.46875 24.109375 47.828125 
Q 26.265625 48.1875 28.421875 48.1875 
Q 40.625 48.1875 47.75 41.5 
Q 54.890625 34.8125 54.890625 23.390625 
Q 54.890625 11.625 47.5625 5.09375 
Q 40.234375 -1.421875 26.90625 -1.421875 
Q 22.3125 -1.421875 17.546875 -0.640625 
Q 12.796875 0.140625 7.71875 1.703125 
L 7.71875 11.625 
Q 12.109375 9.234375 16.796875 8.0625 
Q 21.484375 6.890625 26.703125 6.890625 
Q 35.15625 6.890625 40.078125 11.328125 
Q 45.015625 15.765625 45.015625 23.390625 
Q 45.015625 31 40.078125 35.4375 
Q 35.15625 39.890625 26.703125 39.890625 
Q 22.75 39.890625 18.8125 39.015625 
Q 14.890625 38.140625 10.796875 36.28125 
z
" id="DejaVuSans-53"/>
      </defs>
      <g transform="translate(236.179953 257.698438)scale(0.1 -0.1)">
       <use xlink:href="#DejaVuSans-53"/>
      </g>
     </g>
    </g>
    <g id="text_8">
     <!-- PC 1 -->
     <defs>
      <path d="M 19.671875 64.796875 
L 19.671875 37.40625 
L 32.078125 37.40625 
Q 38.96875 37.40625 42.71875 40.96875 
Q 46.484375 44.53125 46.484375 51.125 
Q 46.484375 57.671875 42.71875 61.234375 
Q 38.96875 64.796875 32.078125 64.796875 
z
M 9.8125 72.90625 
L 32.078125 72.90625 
Q 44.34375 72.90625 50.609375 67.359375 
Q 56.890625 61.8125 56.890625 51.125 
Q 56.890625 40.328125 50.609375 34.8125 
Q 44.34375 29.296875 32.078125 29.296875 
L 19.671875 29.296875 
L 19.671875 0 
L 9.8125 0 
z
" id="DejaVuSans-80"/>
      <path d="M 64.40625 67.28125 
L 64.40625 56.890625 
Q 59.421875 61.53125 53.78125 63.8125 
Q 48.140625 66.109375 41.796875 66.109375 
Q 29.296875 66.109375 22.65625 58.46875 
Q 16.015625 50.828125 16.015625 36.375 
Q 16.015625 21.96875 22.65625 14.328125 
Q 29.296875 6.6875 41.796875 6.6875 
Q 48.140625 6.6875 53.78125 8.984375 
Q 59.421875 11.28125 64.40625 15.921875 
L 64.40625 5.609375 
Q 59.234375 2.09375 53.4375 0.328125 
Q 47.65625 -1.421875 41.21875 -1.421875 
Q 24.65625 -1.421875 15.125 8.703125 
Q 5.609375 18.84375 5.609375 36.375 
Q 5.609375 53.953125 15.125 64.078125 
Q 24.65625 74.21875 41.21875 74.21875 
Q 47.75 74.21875 53.53125 72.484375 
Q 59.328125 70.75 64.40625 67.28125 
z
" id="DejaVuSans-67"/>
      <path id="DejaVuSans-32"/>
     </defs>
     <g transform="translate(137.397727 271.376562)scale(0.1 -0.1)">
      <use xlink:href="#DejaVuSans-80"/>
      <use x="60.302734" xlink:href="#DejaVuSans-67"/>
      <use x="130.126953" xlink:href="#DejaVuSans-32"/>
      <use x="161.914062" xlink:href="#DejaVuSans-49"/>
     </g>
    </g>
   </g>
   <g id="matplotlib.axis_2">
    <g id="ytick_1">
     <g id="line2d_8">
      <defs>
       <path d="M 0 0 
L -3.5 0 
" id="mdce85cd3e7" style="stroke:#000000;stroke-width:0.8;"/>
      </defs>
      <g>
       <use style="stroke:#000000;stroke-width:0.8;" x="42.620313" xlink:href="#mdce85cd3e7" y="228.557636"/>
      </g>
     </g>
     <g id="text_9">
      <!-- −4 -->
      <g transform="translate(20.878125 232.356855)scale(0.1 -0.1)">
       <use xlink:href="#DejaVuSans-8722"/>
       <use x="83.789062" xlink:href="#DejaVuSans-52"/>
      </g>
     </g>
    </g>
    <g id="ytick_2">
     <g id="line2d_9">
      <g>
       <use style="stroke:#000000;stroke-width:0.8;" x="42.620313" xlink:href="#mdce85cd3e7" y="187.132698"/>
      </g>
     </g>
     <g id="text_10">
      <!-- −2 -->
      <g transform="translate(20.878125 190.931917)scale(0.1 -0.1)">
       <use xlink:href="#DejaVuSans-8722"/>
       <use x="83.789062" xlink:href="#DejaVuSans-50"/>
      </g>
     </g>
    </g>
    <g id="ytick_3">
     <g id="line2d_10">
      <g>
       <use style="stroke:#000000;stroke-width:0.8;" x="42.620313" xlink:href="#mdce85cd3e7" y="145.70776"/>
      </g>
     </g>
     <g id="text_11">
      <!-- 0 -->
      <g transform="translate(29.257813 149.506979)scale(0.1 -0.1)">
       <use xlink:href="#DejaVuSans-48"/>
      </g>
     </g>
    </g>
    <g id="ytick_4">
     <g id="line2d_11">
      <g>
       <use style="stroke:#000000;stroke-width:0.8;" x="42.620313" xlink:href="#mdce85cd3e7" y="104.282823"/>
      </g>
     </g>
     <g id="text_12">
      <!-- 2 -->
      <g transform="translate(29.257813 108.082041)scale(0.1 -0.1)">
       <use xlink:href="#DejaVuSans-50"/>
      </g>
     </g>
    </g>
    <g id="ytick_5">
     <g id="line2d_12">
      <g>
       <use style="stroke:#000000;stroke-width:0.8;" x="42.620313" xlink:href="#mdce85cd3e7" y="62.857885"/>
      </g>
     </g>
     <g id="text_13">
      <!-- 4 -->
      <g transform="translate(29.257813 66.657104)scale(0.1 -0.1)">
       <use xlink:href="#DejaVuSans-52"/>
      </g>
     </g>
    </g>
    <g id="ytick_6">
     <g id="line2d_13">
      <g>
       <use style="stroke:#000000;stroke-width:0.8;" x="42.620313" xlink:href="#mdce85cd3e7" y="21.432947"/>
      </g>
     </g>
     <g id="text_14">
      <!-- 6 -->
      <defs>
       <path d="M 33.015625 40.375 
Q 26.375 40.375 22.484375 35.828125 
Q 18.609375 31.296875 18.609375 23.390625 
Q 18.609375 15.53125 22.484375 10.953125 
Q 26.375 6.390625 33.015625 6.390625 
Q 39.65625 6.390625 43.53125 10.953125 
Q 47.40625 15.53125 47.40625 23.390625 
Q 47.40625 31.296875 43.53125 35.828125 
Q 39.65625 40.375 33.015625 40.375 
z
M 52.59375 71.296875 
L 52.59375 62.3125 
Q 48.875 64.0625 45.09375 64.984375 
Q 41.3125 65.921875 37.59375 65.921875 
Q 27.828125 65.921875 22.671875 59.328125 
Q 17.53125 52.734375 16.796875 39.40625 
Q 19.671875 43.65625 24.015625 45.921875 
Q 28.375 48.1875 33.59375 48.1875 
Q 44.578125 48.1875 50.953125 41.515625 
Q 57.328125 34.859375 57.328125 23.390625 
Q 57.328125 12.15625 50.6875 5.359375 
Q 44.046875 -1.421875 33.015625 -1.421875 
Q 20.359375 -1.421875 13.671875 8.265625 
Q 6.984375 17.96875 6.984375 36.375 
Q 6.984375 53.65625 15.1875 63.9375 
Q 23.390625 74.21875 37.203125 74.21875 
Q 40.921875 74.21875 44.703125 73.484375 
Q 48.484375 72.75 52.59375 71.296875 
z
" id="DejaVuSans-54"/>
      </defs>
      <g transform="translate(29.257813 25.232166)scale(0.1 -0.1)">
       <use xlink:href="#DejaVuSans-54"/>
      </g>
     </g>
    </g>
    <g id="text_15">
     <!-- PC 2 -->
     <g transform="translate(14.798438 136.426562)rotate(-90)scale(0.1 -0.1)">
      <use xlink:href="#DejaVuSans-80"/>
      <use x="60.302734" xlink:href="#DejaVuSans-67"/>
      <use x="130.126953" xlink:href="#DejaVuSans-32"/>
      <use x="161.914062" xlink:href="#DejaVuSans-50"/>
     </g>
    </g>
   </g>
   <g id="patch_3">
    <path d="M 42.620313 243.1 
L 42.620313 7.2 
" style="fill:none;stroke:#000000;stroke-linecap:square;stroke-linejoin:miter;stroke-width:0.8;"/>
   </g>
   <g id="patch_4">
    <path d="M 254.728267 243.1 
L 254.728267 7.2 
" style="fill:none;stroke:#000000;stroke-linecap:square;stroke-linejoin:miter;stroke-width:0.8;"/>
   </g>
   <g id="patch_5">
    <path d="M 42.620313 243.1 
L 254.728267 243.1 
" style="fill:none;stroke:#000000;stroke-linecap:square;stroke-linejoin:miter;stroke-width:0.8;"/>
   </g>
   <g id="patch_6">
    <path d="M 42.620313 7.2 
L 254.728267 7.2 
" style="fill:none;stroke:#000000;stroke-linecap:square;stroke-linejoin:miter;stroke-width:0.8;"/>
   </g>
   <g id="text_16">
    <!-- AAT&gt;AGT -->
    <defs>
     <path d="M 34.1875 63.1875 
L 20.796875 26.90625 
L 47.609375 26.90625 
z
M 28.609375 72.90625 
L 39.796875 72.90625 
L 67.578125 0 
L 57.328125 0 
L 50.6875 18.703125 
L 17.828125 18.703125 
L 11.1875 0 
L 0.78125 0 
z
" id="DejaVuSans-65"/>
     <path d="M -0.296875 72.90625 
L 61.375 72.90625 
L 61.375 64.59375 
L 35.5 64.59375 
L 35.5 0 
L 25.59375 0 
L 25.59375 64.59375 
L -0.296875 64.59375 
z
" id="DejaVuSans-84"/>
     <path d="M 10.59375 49.21875 
L 10.59375 58.109375 
L 73.1875 35.40625 
L 73.1875 27.296875 
L 10.59375 4.59375 
L 10.59375 13.484375 
L 60.890625 31.296875 
z
" id="DejaVuSans-62"/>
     <path d="M 59.515625 10.40625 
L 59.515625 29.984375 
L 43.40625 29.984375 
L 43.40625 38.09375 
L 69.28125 38.09375 
L 69.28125 6.78125 
Q 63.578125 2.734375 56.6875 0.65625 
Q 49.8125 -1.421875 42 -1.421875 
Q 24.90625 -1.421875 15.25 8.5625 
Q 5.609375 18.5625 5.609375 36.375 
Q 5.609375 54.25 15.25 64.234375 
Q 24.90625 74.21875 42 74.21875 
Q 49.125 74.21875 55.546875 72.453125 
Q 61.96875 70.703125 67.390625 67.28125 
L 67.390625 56.78125 
Q 61.921875 61.421875 55.765625 63.765625 
Q 49.609375 66.109375 42.828125 66.109375 
Q 29.4375 66.109375 22.71875 58.640625 
Q 16.015625 51.171875 16.015625 36.375 
Q 16.015625 21.625 22.71875 14.15625 
Q 29.4375 6.6875 42.828125 6.6875 
Q 48.046875 6.6875 52.140625 7.59375 
Q 56.25 8.5 59.515625 10.40625 
z
" id="DejaVuSans-71"/>
    </defs>
    <g transform="translate(157.628641 153.067937)scale(0.06 -0.06)">
     <use xlink:href="#DejaVuSans-65"/>
     <use x="71.158203" xlink:href="#DejaVuSans-65"/>
     <use x="131.816406" xlink:href="#DejaVuSans-84"/>
     <use x="192.900391" xlink:href="#DejaVuSans-62"/>
     <use x="276.689453" xlink:href="#DejaVuSans-65"/>
     <use x="343.347656" xlink:href="#DejaVuSans-71"/>
     <use x="417.212891" xlink:href="#DejaVuSans-84"/>
    </g>
   </g>
   <g id="text_17">
    <!-- CAC&gt;CGC -->
    <g transform="translate(118.830064 162.715568)scale(0.06 -0.06)">
     <use xlink:href="#DejaVuSans-67"/>
     <use x="69.824219" xlink:href="#DejaVuSans-65"/>
     <use x="136.482422" xlink:href="#DejaVuSans-67"/>
     <use x="206.306641" xlink:href="#DejaVuSans-62"/>
     <use x="290.095703" xlink:href="#DejaVuSans-67"/>
     <use x="359.919922" xlink:href="#DejaVuSans-71"/>
     <use x="437.410156" xlink:href="#DejaVuSans-67"/>
    </g>
   </g>
   <g id="text_18">
    <!-- CAG&gt;CGG -->
    <g transform="translate(145.600558 151.999805)scale(0.06 -0.06)">
     <use xlink:href="#DejaVuSans-67"/>
     <use x="69.824219" xlink:href="#DejaVuSans-65"/>
     <use x="136.482422" xlink:href="#DejaVuSans-71"/>
     <use x="213.972656" xlink:href="#DejaVuSans-62"/>
     <use x="297.761719" xlink:href="#DejaVuSans-67"/>
     <use x="367.585938" xlink:href="#DejaVuSans-71"/>
     <use x="445.076172" xlink:href="#DejaVuSans-71"/>
    </g>
   </g>
   <g id="text_19">
    <!-- CAT&gt;CGT -->
    <g transform="translate(245.086996 232.377273)scale(0.06 -0.06)">
     <use xlink:href="#DejaVuSans-67"/>
     <use x="69.824219" xlink:href="#DejaVuSans-65"/>
     <use x="130.482422" xlink:href="#DejaVuSans-84"/>
     <use x="191.566406" xlink:href="#DejaVuSans-62"/>
     <use x="275.355469" xlink:href="#DejaVuSans-67"/>
     <use x="345.179688" xlink:href="#DejaVuSans-71"/>
     <use x="419.044922" xlink:href="#DejaVuSans-84"/>
    </g>
   </g>
   <g id="text_20">
    <!-- GAA&gt;GGA -->
    <g transform="translate(76.933955 166.472219)scale(0.06 -0.06)">
     <use xlink:href="#DejaVuSans-71"/>
     <use x="77.490234" xlink:href="#DejaVuSans-65"/>
     <use x="148.648438" xlink:href="#DejaVuSans-65"/>
     <use x="217.056641" xlink:href="#DejaVuSans-62"/>
     <use x="300.845703" xlink:href="#DejaVuSans-71"/>
     <use x="378.335938" xlink:href="#DejaVuSans-71"/>
     <use x="455.826172" xlink:href="#DejaVuSans-65"/>
    </g>
   </g>
   <g id="text_21">
    <!-- TAT&gt;TGT -->
    <g transform="translate(148.262567 193.437795)scale(0.06 -0.06)">
     <use xlink:href="#DejaVuSans-84"/>
     <use x="53.333984" xlink:href="#DejaVuSans-65"/>
     <use x="113.992188" xlink:href="#DejaVuSans-84"/>
     <use x="175.076172" xlink:href="#DejaVuSans-62"/>
     <use x="258.865234" xlink:href="#DejaVuSans-84"/>
     <use x="319.949219" xlink:href="#DejaVuSans-71"/>
     <use x="393.814453" xlink:href="#DejaVuSans-84"/>
    </g>
   </g>
   <g id="text_22">
    <!-- TAT&gt;TTT -->
    <g transform="translate(122.678186 137.381234)scale(0.06 -0.06)">
     <use xlink:href="#DejaVuSans-84"/>
     <use x="53.333984" xlink:href="#DejaVuSans-65"/>
     <use x="113.992188" xlink:href="#DejaVuSans-84"/>
     <use x="175.076172" xlink:href="#DejaVuSans-62"/>
     <use x="258.865234" xlink:href="#DejaVuSans-84"/>
     <use x="318.199219" xlink:href="#DejaVuSans-84"/>
     <use x="377.533203" xlink:href="#DejaVuSans-84"/>
    </g>
   </g>
   <g id="text_23">
    <!-- ACA&gt;ATA -->
    <g transform="translate(163.925544 164.944672)scale(0.06 -0.06)">
     <use xlink:href="#DejaVuSans-65"/>
     <use x="66.658203" xlink:href="#DejaVuSans-67"/>
     <use x="136.482422" xlink:href="#DejaVuSans-65"/>
     <use x="204.890625" xlink:href="#DejaVuSans-62"/>
     <use x="288.679688" xlink:href="#DejaVuSans-65"/>
     <use x="349.337891" xlink:href="#DejaVuSans-84"/>
     <use x="402.671875" xlink:href="#DejaVuSans-65"/>
    </g>
   </g>
   <g id="text_24">
    <!-- ACC&gt;ATC -->
    <g transform="translate(109.460551 99.720361)scale(0.06 -0.06)">
     <use xlink:href="#DejaVuSans-65"/>
     <use x="66.658203" xlink:href="#DejaVuSans-67"/>
     <use x="136.482422" xlink:href="#DejaVuSans-67"/>
     <use x="206.306641" xlink:href="#DejaVuSans-62"/>
     <use x="290.095703" xlink:href="#DejaVuSans-65"/>
     <use x="350.753906" xlink:href="#DejaVuSans-84"/>
     <use x="405.962891" xlink:href="#DejaVuSans-67"/>
    </g>
   </g>
   <g id="text_25">
    <!-- CCA&gt;CTA -->
    <g transform="translate(126.646028 132.402201)scale(0.06 -0.06)">
     <use xlink:href="#DejaVuSans-67"/>
     <use x="69.824219" xlink:href="#DejaVuSans-67"/>
     <use x="139.648438" xlink:href="#DejaVuSans-65"/>
     <use x="208.056641" xlink:href="#DejaVuSans-62"/>
     <use x="291.845703" xlink:href="#DejaVuSans-67"/>
     <use x="361.669922" xlink:href="#DejaVuSans-84"/>
     <use x="415.003906" xlink:href="#DejaVuSans-65"/>
    </g>
   </g>
   <g id="text_26">
    <!-- CCC&gt;CTC -->
    <g transform="translate(123.581195 114.902276)scale(0.06 -0.06)">
     <use xlink:href="#DejaVuSans-67"/>
     <use x="69.824219" xlink:href="#DejaVuSans-67"/>
     <use x="139.648438" xlink:href="#DejaVuSans-67"/>
     <use x="209.472656" xlink:href="#DejaVuSans-62"/>
     <use x="293.261719" xlink:href="#DejaVuSans-67"/>
     <use x="363.085938" xlink:href="#DejaVuSans-84"/>
     <use x="418.294922" xlink:href="#DejaVuSans-67"/>
    </g>
   </g>
   <g id="text_27">
    <!-- CCT&gt;CTT -->
    <g transform="translate(130.641798 142.39462)scale(0.06 -0.06)">
     <use xlink:href="#DejaVuSans-67"/>
     <use x="69.824219" xlink:href="#DejaVuSans-67"/>
     <use x="139.648438" xlink:href="#DejaVuSans-84"/>
     <use x="200.732422" xlink:href="#DejaVuSans-62"/>
     <use x="284.521484" xlink:href="#DejaVuSans-67"/>
     <use x="354.345703" xlink:href="#DejaVuSans-84"/>
     <use x="413.679688" xlink:href="#DejaVuSans-84"/>
    </g>
   </g>
   <g id="text_28">
    <!-- TCA&gt;TTA -->
    <g transform="translate(93.013511 117.779483)scale(0.06 -0.06)">
     <use xlink:href="#DejaVuSans-84"/>
     <use x="55.208984" xlink:href="#DejaVuSans-67"/>
     <use x="125.033203" xlink:href="#DejaVuSans-65"/>
     <use x="193.441406" xlink:href="#DejaVuSans-62"/>
     <use x="277.230469" xlink:href="#DejaVuSans-84"/>
     <use x="336.564453" xlink:href="#DejaVuSans-84"/>
     <use x="389.898438" xlink:href="#DejaVuSans-65"/>
    </g>
   </g>
   <g id="text_29">
    <!-- TCC&gt;TTC -->
    <g transform="translate(169.106353 17.922727)scale(0.06 -0.06)">
     <use xlink:href="#DejaVuSans-84"/>
     <use x="55.208984" xlink:href="#DejaVuSans-67"/>
     <use x="125.033203" xlink:href="#DejaVuSans-67"/>
     <use x="194.857422" xlink:href="#DejaVuSans-62"/>
     <use x="278.646484" xlink:href="#DejaVuSans-84"/>
     <use x="337.980469" xlink:href="#DejaVuSans-84"/>
     <use x="393.189453" xlink:href="#DejaVuSans-67"/>
    </g>
   </g>
   <g id="text_30">
    <!-- TCT&gt;TTT -->
    <g transform="translate(151.659913 87.892755)scale(0.06 -0.06)">
     <use xlink:href="#DejaVuSans-84"/>
     <use x="55.208984" xlink:href="#DejaVuSans-67"/>
     <use x="125.033203" xlink:href="#DejaVuSans-84"/>
     <use x="186.117188" xlink:href="#DejaVuSans-62"/>
     <use x="269.90625" xlink:href="#DejaVuSans-84"/>
     <use x="329.240234" xlink:href="#DejaVuSans-84"/>
     <use x="388.574219" xlink:href="#DejaVuSans-84"/>
    </g>
   </g>
   <g id="legend_1">
    <g id="patch_7">
     <path d="M 192.61733 103.26875 
L 247.728267 103.26875 
Q 249.728267 103.26875 249.728267 101.26875 
L 249.728267 14.2 
Q 249.728267 12.2 247.728267 12.2 
L 192.61733 12.2 
Q 190.61733 12.2 190.61733 14.2 
L 190.61733 101.26875 
Q 190.61733 103.26875 192.61733 103.26875 
z
" style="fill:#ffffff;opacity:0.8;stroke:#cccccc;stroke-linejoin:miter;"/>
    </g>
    <g id="PathCollection_8">
     <defs>
      <path d="M 0 3 
C 0.795609 3 1.55874 2.683901 2.12132 2.12132 
C 2.683901 1.55874 3 0.795609 3 0 
C 3 -0.795609 2.683901 -1.55874 2.12132 -2.12132 
C 1.55874 -2.683901 0.795609 -3 0 -3 
C -0.795609 -3 -1.55874 -2.683901 -2.12132 -2.12132 
C -2.683901 -1.55874 -3 -0.795609 -3 0 
C -3 0.795609 -2.683901 1.55874 -2.12132 2.12132 
C -1.55874 2.683901 -0.795609 3 0 3 
z
" id="m6b3572313d" style="stroke:#f77189;"/>
     </defs>
     <g>
      <use style="fill:#f77189;stroke:#f77189;" x="204.61733" xlink:href="#m6b3572313d" y="21.173437"/>
     </g>
    </g>
    <g id="text_31">
     <!-- A&gt;C -->
     <g transform="translate(222.61733 23.798437)scale(0.1 -0.1)">
      <use xlink:href="#DejaVuSans-65"/>
      <use x="68.408203" xlink:href="#DejaVuSans-62"/>
      <use x="152.197266" xlink:href="#DejaVuSans-67"/>
     </g>
    </g>
    <g id="PathCollection_9">
     <defs>
      <path d="M 0 3 
C 0.795609 3 1.55874 2.683901 2.12132 2.12132 
C 2.683901 1.55874 3 0.795609 3 0 
C 3 -0.795609 2.683901 -1.55874 2.12132 -2.12132 
C 1.55874 -2.683901 0.795609 -3 0 -3 
C -0.795609 -3 -1.55874 -2.683901 -2.12132 -2.12132 
C -2.683901 -1.55874 -3 -0.795609 -3 0 
C -3 0.795609 -2.683901 1.55874 -2.12132 2.12132 
C -1.55874 2.683901 -0.795609 3 0 3 
z
" id="m8ad9f4d9f1" style="stroke:#bb9832;"/>
     </defs>
     <g>
      <use style="fill:#bb9832;stroke:#bb9832;" x="204.61733" xlink:href="#m8ad9f4d9f1" y="35.851562"/>
     </g>
    </g>
    <g id="text_32">
     <!-- A&gt;G -->
     <g transform="translate(222.61733 38.476562)scale(0.1 -0.1)">
      <use xlink:href="#DejaVuSans-65"/>
      <use x="68.408203" xlink:href="#DejaVuSans-62"/>
      <use x="152.197266" xlink:href="#DejaVuSans-71"/>
     </g>
    </g>
    <g id="PathCollection_10">
     <defs>
      <path d="M 0 3 
C 0.795609 3 1.55874 2.683901 2.12132 2.12132 
C 2.683901 1.55874 3 0.795609 3 0 
C 3 -0.795609 2.683901 -1.55874 2.12132 -2.12132 
C 1.55874 -2.683901 0.795609 -3 0 -3 
C -0.795609 -3 -1.55874 -2.683901 -2.12132 -2.12132 
C -2.683901 -1.55874 -3 -0.795609 -3 0 
C -3 0.795609 -2.683901 1.55874 -2.12132 2.12132 
C -1.55874 2.683901 -0.795609 3 0 3 
z
" id="mfc8cb9f8fe" style="stroke:#50b131;"/>
     </defs>
     <g>
      <use style="fill:#50b131;stroke:#50b131;" x="204.61733" xlink:href="#mfc8cb9f8fe" y="50.529687"/>
     </g>
    </g>
    <g id="text_33">
     <!-- A&gt;T -->
     <g transform="translate(222.61733 53.154687)scale(0.1 -0.1)">
      <use xlink:href="#DejaVuSans-65"/>
      <use x="68.408203" xlink:href="#DejaVuSans-62"/>
      <use x="152.197266" xlink:href="#DejaVuSans-84"/>
     </g>
    </g>
    <g id="PathCollection_11">
     <defs>
      <path d="M 0 3 
C 0.795609 3 1.55874 2.683901 2.12132 2.12132 
C 2.683901 1.55874 3 0.795609 3 0 
C 3 -0.795609 2.683901 -1.55874 2.12132 -2.12132 
C 1.55874 -2.683901 0.795609 -3 0 -3 
C -0.795609 -3 -1.55874 -2.683901 -2.12132 -2.12132 
C -2.683901 -1.55874 -3 -0.795609 -3 0 
C -3 0.795609 -2.683901 1.55874 -2.12132 2.12132 
C -1.55874 2.683901 -0.795609 3 0 3 
z
" id="ma386879d2f" style="stroke:#36ada4;"/>
     </defs>
     <g>
      <use style="fill:#36ada4;stroke:#36ada4;" x="204.61733" xlink:href="#ma386879d2f" y="65.207812"/>
     </g>
    </g>
    <g id="text_34">
     <!-- C&gt;A -->
     <g transform="translate(222.61733 67.832812)scale(0.1 -0.1)">
      <use xlink:href="#DejaVuSans-67"/>
      <use x="69.824219" xlink:href="#DejaVuSans-62"/>
      <use x="153.613281" xlink:href="#DejaVuSans-65"/>
     </g>
    </g>
    <g id="PathCollection_12">
     <defs>
      <path d="M 0 3 
C 0.795609 3 1.55874 2.683901 2.12132 2.12132 
C 2.683901 1.55874 3 0.795609 3 0 
C 3 -0.795609 2.683901 -1.55874 2.12132 -2.12132 
C 1.55874 -2.683901 0.795609 -3 0 -3 
C -0.795609 -3 -1.55874 -2.683901 -2.12132 -2.12132 
C -2.683901 -1.55874 -3 -0.795609 -3 0 
C -3 0.795609 -2.683901 1.55874 -2.12132 2.12132 
C -1.55874 2.683901 -0.795609 3 0 3 
z
" id="m92a57c2b8d" style="stroke:#3ba3ec;"/>
     </defs>
     <g>
      <use style="fill:#3ba3ec;stroke:#3ba3ec;" x="204.61733" xlink:href="#m92a57c2b8d" y="79.885937"/>
     </g>
    </g>
    <g id="text_35">
     <!-- C&gt;G -->
     <g transform="translate(222.61733 82.510937)scale(0.1 -0.1)">
      <use xlink:href="#DejaVuSans-67"/>
      <use x="69.824219" xlink:href="#DejaVuSans-62"/>
      <use x="153.613281" xlink:href="#DejaVuSans-71"/>
     </g>
    </g>
    <g id="PathCollection_13">
     <defs>
      <path d="M 0 3 
C 0.795609 3 1.55874 2.683901 2.12132 2.12132 
C 2.683901 1.55874 3 0.795609 3 0 
C 3 -0.795609 2.683901 -1.55874 2.12132 -2.12132 
C 1.55874 -2.683901 0.795609 -3 0 -3 
C -0.795609 -3 -1.55874 -2.683901 -2.12132 -2.12132 
C -2.683901 -1.55874 -3 -0.795609 -3 0 
C -3 0.795609 -2.683901 1.55874 -2.12132 2.12132 
C -1.55874 2.683901 -0.795609 3 0 3 
z
" id="me01fc90fe4" style="stroke:#e866f4;"/>
     </defs>
     <g>
      <use style="fill:#e866f4;stroke:#e866f4;" x="204.61733" xlink:href="#me01fc90fe4" y="94.564062"/>
     </g>
    </g>
    <g id="text_36">
     <!-- C&gt;T -->
     <g transform="translate(222.61733 97.189062)scale(0.1 -0.1)">
      <use xlink:href="#DejaVuSans-67"/>
      <use x="69.824219" xlink:href="#DejaVuSans-62"/>
      <use x="153.613281" xlink:href="#DejaVuSans-84"/>
     </g>
    </g>
   </g>
  </g>
 </g>
 <defs>
  <clipPath id="pcbcc393b93">
   <rect height="235.9" width="212.107955" x="42.620313" y="7.2"/>
  </clipPath>
 </defs>
</svg>
