<svg baseProfile="full" height="200" version="1.1" width="500" xmlns="http://www.w3.org/2000/svg" xmlns:ev="http://www.w3.org/2001/xml-events" xmlns:xlink="http://www.w3.org/1999/xlink"><defs/><g id="tree_0"><g fill="none" id="edges" stroke="black"><path d="M 39.17210820895522 117.92398133320648 V 30.0 H 123.25705457089528" id="edge_0_28723"/><path d="M 15.219216417910447 167.66463098586337 V 117.92398133320648 H 39.17210820895522" id="edge_0_11525"/><path d="M 12.388059701492537 170.0 V 167.66463098586337 H 15.219216417910447" id="edge_0_0"/><path d="M 18.050373134328357 169.0840911727244 V 167.66463098586337 H 15.219216417910447" id="edge_0_8323"/><path d="M 14.776119402985074 170.0 V 169.0840911727244 H 18.050373134328357" id="edge_0_64"/><path d="M 21.32462686567164 169.32019967486667 V 169.0840911727244 H 18.050373134328357" id="edge_0_6471"/><path d="M 18.35820895522388 169.95327774849304 V 169.32019967486667 H 21.32462686567164" id="edge_0_249"/><path d="M 17.16417910447761 170.0 V 169.95327774849304 H 18.35820895522388" id="edge_0_36"/><path d="M 19.55223880597015 170.0 V 169.95327774849304 H 18.35820895522388" id="edge_0_99"/><path d="M 24.291044776119403 169.3420735734549 V 169.32019967486667 H 21.32462686567164" id="edge_0_6252"/><path d="M 21.940298507462686 170.0 V 169.3420735734549 H 24.291044776119403" id="edge_0_195"/><path d="M 26.64179104477612 169.35141169326766 V 169.3420735734549 H 24.291044776119403" id="edge_0_6129"/><path d="M 24.328358208955223 170.0 V 169.35141169326766 H 26.64179104477612" id="edge_0_169"/><path d="M 28.955223880597014 169.4628181714446 V 169.35141169326766 H 26.64179104477612" id="edge_0_4575"/><path d="M 26.71641791044776 170.0 V 169.4628181714446 H 28.955223880597014" id="edge_0_66"/><path d="M 31.19402985074627 169.87073150542867 V 169.4628181714446 H 28.955223880597014" id="edge_0_481"/><path d="M 29.104477611940297 170.0 V 169.87073150542867 H 31.19402985074627" id="edge_0_70"/><path d="M 33.28358208955224 169.8918393460458 V 169.87073150542867 H 31.19402985074627" id="edge_0_389"/><path d="M 31.492537313432834 170.0 V 169.8918393460458 H 33.28358208955224" id="edge_0_3"/><path d="M 35.07462686567164 169.96497987044876 V 169.8918393460458 H 33.28358208955224" id="edge_0_226"/><path d="M 33.88059701492537 170.0 V 169.96497987044876 H 35.07462686567164" id="edge_0_24"/><path d="M 36.26865671641791 170.0 V 169.96497987044876 H 35.07462686567164" id="edge_0_193"/><path d="M 63.125 158.51910725424247 V 117.92398133320648 H 39.17210820895522" id="edge_0_22945"/><path d="M 48.0410447761194 167.83594007765976 V 158.51910725424247 H 63.125" id="edge_0_11288"/><path d="M 40.8955223880597 169.2581877957357 V 167.83594007765976 H 48.0410447761194" id="edge_0_7179"/><path d="M 38.656716417910445 170.0 V 169.2581877957357 H 40.8955223880597" id="edge_0_19"/><path d="M 43.134328358208954 169.50815636063413 V 169.2581877957357 H 40.8955223880597" id="edge_0_3937"/><path d="M 41.04477611940298 170.0 V 169.50815636063413 H 43.134328358208954" id="edge_0_58"/><path d="M 45.223880597014926 169.8398146908131 V 169.50815636063413 H 43.134328358208954" id="edge_0_611"/><path d="M 43.43283582089552 170.0 V 169.8398146908131 H 45.223880597014926" id="edge_0_119"/><path d="M 47.014925373134325 169.84021041951968 V 169.8398146908131 H 45.223880597014926" id="edge_0_610"/><path d="M 45.82089552238806 170.0 V 169.84021041951968 H 47.014925373134325" id="edge_0_43"/><path d="M 48.208955223880594 170.0 V 169.84021041951968 H 47.014925373134325" id="edge_0_131"/><path d="M 55.186567164179095 168.5528802918708 V 167.83594007765976 H 48.0410447761194" id="edge_0_10067"/><path d="M 51.7910447761194 169.66819426806364 V 168.5528802918708 H 55.186567164179095" id="edge_0_1907"/><path d="M 50.59701492537313 170.0 V 169.66819426806364 H 51.7910447761194" id="edge_0_102"/><path d="M 52.98507462686567 170.0 V 169.66819426806364 H 51.7910447761194" id="edge_0_171"/><path d="M 58.5820895522388 168.6825445009784 V 168.5528802918708 H 55.186567164179095" id="edge_0_9753"/><path d="M 55.373134328358205 170.0 V 168.6825445009784 H 58.5820895522388" id="edge_0_188"/><path d="M 61.79104477611939 168.8444708406111 V 168.6825445009784 H 58.5820895522388" id="edge_0_9287"/><path d="M 58.95522388059701 169.7282490500338 V 168.8444708406111 H 61.79104477611939" id="edge_0_1358"/><path d="M 57.76119402985074 170.0 V 169.7282490500338 H 58.95522388059701" id="edge_0_50"/><path d="M 60.14925373134328 170.0 V 169.7282490500338 H 58.95522388059701" id="edge_0_179"/><path d="M 64.62686567164178 169.33579178264864 V 168.8444708406111 H 61.79104477611939" id="edge_0_6315"/><path d="M 62.537313432835816 170.0 V 169.33579178264864 H 64.62686567164178" id="edge_0_42"/><path d="M 66.71641791044775 169.52271094488844 V 169.33579178264864 H 64.62686567164178" id="edge_0_3724"/><path d="M 64.92537313432835 170.0 V 169.52271094488844 H 66.71641791044775" id="edge_0_187"/><path d="M 68.50746268656715 169.9576292419741 V 169.52271094488844 H 66.71641791044775" id="edge_0_241"/><path d="M 67.31343283582089 170.0 V 169.9576292419741 H 68.50746268656715" id="edge_0_147"/><path d="M 69.70149253731343 170.0 V 169.9576292419741 H 68.50746268656715" id="edge_0_160"/><path d="M 78.2089552238806 161.17480599795306 V 158.51910725424247 H 63.125" id="edge_0_20354"/><path d="M 73.28358208955223 169.55465586921486 V 161.17480599795306 H 78.2089552238806" id="edge_0_3304"/><path d="M 72.08955223880596 170.0 V 169.55465586921486 H 73.28358208955223" id="edge_0_84"/><path d="M 74.4776119402985 170.0 V 169.55465586921486 H 73.28358208955223" id="edge_0_145"/><path d="M 83.13432835820896 168.84798753601584 V 161.17480599795306 H 78.2089552238806" id="edge_0_9277"/><path d="M 78.65671641791045 169.29216510372504 V 168.84798753601584 H 83.13432835820896" id="edge_0_6807"/><path d="M 76.86567164179104 170.0 V 169.29216510372504 H 78.65671641791045" id="edge_0_157"/><path d="M 80.44776119402985 169.84469034217486 V 169.29216510372504 H 78.65671641791045" id="edge_0_596"/><path d="M 79.25373134328358 170.0 V 169.84469034217486 H 80.44776119402985" id="edge_0_49"/><path d="M 81.64179104477611 170.0 V 169.84469034217486 H 80.44776119402985" id="edge_0_55"/><path d="M 87.61194029850746 169.2289118557849 V 168.84798753601584 H 83.13432835820896" id="edge_0_7451"/><path d="M 85.22388059701493 169.97638113515538 V 169.2289118557849 H 87.61194029850746" id="edge_0_213"/><path d="M 84.02985074626865 170.0 V 169.97638113515538 H 85.22388059701493" id="edge_0_143"/><path d="M 86.41791044776119 170.0 V 169.97638113515538 H 85.22388059701493" id="edge_0_172"/><path d="M 90.0 169.37993412002393 V 169.2289118557849 H 87.61194029850746" id="edge_0_5754"/><path d="M 88.80597014925372 170.0 V 169.37993412002393 H 90.0" id="edge_0_13"/><path d="M 91.19402985074626 170.0 V 169.37993412002393 H 90.0" id="edge_0_78"/><path d="M 207.34200093283533 63.78897874256744 V 30.0 H 123.25705457089528" id="edge_0_33484"/><path d="M 147.32334421641775 158.28812640232638 V 63.78897874256744 H 207.34200093283533" id="edge_0_23117"/><path d="M 106.63362873134326 161.01256830915915 V 158.28812640232638 H 147.32334421641775" id="edge_0_20544"/><path d="M 98.65671641791043 169.12820539808496 V 161.01256830915915 H 106.63362873134326" id="edge_0_8093"/><path d="M 95.37313432835819 169.49591024646548 V 169.12820539808496 H 98.65671641791043" id="edge_0_4142"/><path d="M 93.5820895522388 170.0 V 169.49591024646548 H 95.37313432835819" id="edge_0_28"/><path d="M 97.1641791044776 169.5800871796222 V 169.49591024646548 H 95.37313432835819" id="edge_0_2958"/><path d="M 95.97014925373134 170.0 V 169.5800871796222 H 97.1641791044776" id="edge_0_23"/><path d="M 98.35820895522387 170.0 V 169.5800871796222 H 97.1641791044776" id="edge_0_45"/><path d="M 101.94029850746267 169.21509546789665 V 169.12820539808496 H 98.65671641791043" id="edge_0_7546"/><path d="M 100.74626865671641 170.0 V 169.21509546789665 H 101.94029850746267" id="edge_0_62"/><path d="M 103.13432835820895 170.0 V 169.21509546789665 H 101.94029850746267" id="edge_0_123"/><path d="M 114.6105410447761 161.24572891809993 V 161.01256830915915 H 106.63362873134326" id="edge_0_20281"/><path d="M 105.52238805970148 170.0 V 161.24572891809993 H 114.6105410447761" id="edge_0_32"/><path d="M 123.69869402985071 164.1720483093052 V 161.24572891809993 H 114.6105410447761" id="edge_0_16024"/><path d="M 111.79104477611939 166.23109321707932 V 164.1720483093052 H 123.69869402985071" id="edge_0_12977"/><path d="M 109.1044776119403 169.5160337922708 V 166.23109321707932 H 111.79104477611939" id="edge_0_3808"/><path d="M 107.91044776119402 170.0 V 169.5160337922708 H 109.1044776119403" id="edge_0_129"/><path d="M 110.29850746268656 170.0 V 169.5160337922708 H 109.1044776119403" id="edge_0_181"/><path d="M 114.47761194029849 169.24315442314608 V 166.23109321707932 H 111.79104477611939" id="edge_0_7321"/><path d="M 112.6865671641791 170.0 V 169.24315442314608 H 114.47761194029849" id="edge_0_87"/><path d="M 116.2686567164179 169.4679247102687 V 169.24315442314608 H 114.47761194029849" id="edge_0_4512"/><path d="M 115.07462686567163 170.0 V 169.4679247102687 H 116.2686567164179" id="edge_0_63"/><path d="M 117.46268656716417 170.0 V 169.4679247102687 H 116.2686567164179" id="edge_0_199"/><path d="M 135.60634328358202 165.36917014875004 V 164.1720483093052 H 123.69869402985071" id="edge_0_14170"/><path d="M 122.22014925373134 169.07234312796163 V 165.36917014875004 H 135.60634328358202" id="edge_0_8372"/><path d="M 119.8507462686567 170.0 V 169.07234312796163 H 122.22014925373134" id="edge_0_74"/><path d="M 124.58955223880596 169.26998298790656 V 169.07234312796163 H 122.22014925373134" id="edge_0_7070"/><path d="M 122.23880597014924 170.0 V 169.26998298790656 H 124.58955223880596" id="edge_0_115"/><path d="M 126.94029850746267 169.31650603855888 V 169.26998298790656 H 124.58955223880596" id="edge_0_6510"/><path d="M 124.62686567164178 170.0 V 169.31650603855888 H 126.94029850746267" id="edge_0_191"/><path d="M 129.25373134328356 169.43142686918392 V 169.31650603855888 H 126.94029850746267" id="edge_0_5036"/><path d="M 127.01492537313432 170.0 V 169.43142686918392 H 129.25373134328356" id="edge_0_57"/><path d="M 131.49253731343282 169.4739921201847 V 169.43142686918392 H 129.25373134328356" id="edge_0_4425"/><path d="M 129.40298507462686 170.0 V 169.4739921201847 H 131.49253731343282" id="edge_0_164"/><path d="M 133.5820895522388 169.66550625025215 V 169.4739921201847 H 131.49253731343282" id="edge_0_1937"/><path d="M 131.7910447761194 170.0 V 169.66550625025215 H 133.5820895522388" id="edge_0_29"/><path d="M 135.3731343283582 169.7134819510753 V 169.66550625025215 H 133.5820895522388" id="edge_0_1494"/><path d="M 134.17910447761193 170.0 V 169.7134819510753 H 135.3731343283582" id="edge_0_7"/><path d="M 136.56716417910445 170.0 V 169.7134819510753 H 135.3731343283582" id="edge_0_150"/><path d="M 148.99253731343273 168.92004979426616 V 165.36917014875004 H 135.60634328358202" id="edge_0_9027"/><path d="M 140.74626865671638 169.41036224738633 V 168.92004979426616 H 148.99253731343273" id="edge_0_5341"/><path d="M 138.95522388059698 170.0 V 169.41036224738633 H 140.74626865671638" id="edge_0_110"/><path d="M 142.53731343283576 169.53670990630076 V 169.41036224738633 H 140.74626865671638" id="edge_0_3547"/><path d="M 141.3432835820895 170.0 V 169.53670990630076 H 142.53731343283576" id="edge_0_52"/><path d="M 143.73134328358202 170.0 V 169.53670990630076 H 142.53731343283576" id="edge_0_68"/><path d="M 157.2388059701491 169.15502178065114 V 168.92004979426616 H 148.99253731343273" id="edge_0_7933"/><path d="M 148.2089552238805 169.37794612818809 V 169.15502178065114 H 157.2388059701491" id="edge_0_5783"/><path d="M 146.11940298507454 170.0 V 169.37794612818809 H 148.2089552238805" id="edge_0_149"/><path d="M 150.29850746268647 169.86381991197217 V 169.37794612818809 H 148.2089552238805" id="edge_0_512"/><path d="M 148.50746268656707 170.0 V 169.86381991197217 H 150.29850746268647" id="edge_0_168"/><path d="M 152.08955223880585 169.94274489245342 V 169.86381991197217 H 150.29850746268647" id="edge_0_265"/><path d="M 150.8955223880596 170.0 V 169.94274489245342 H 152.08955223880585" id="edge_0_27"/><path d="M 153.2835820895521 170.0 V 169.94274489245342 H 152.08955223880585" id="edge_0_190"/><path d="M 166.2686567164177 169.31172384148638 V 169.15502178065114 H 157.2388059701491" id="edge_0_6570"/><path d="M 160.44776119402968 169.38735891552113 V 169.31172384148638 H 166.2686567164177" id="edge_0_5642"/><path d="M 156.8656716417909 169.5314378710276 V 169.38735891552113 H 160.44776119402968" id="edge_0_3607"/><path d="M 155.67164179104464 170.0 V 169.5314378710276 H 156.8656716417909" id="edge_0_177"/><path d="M 158.05970149253716 170.0 V 169.5314378710276 H 156.8656716417909" id="edge_0_180"/><path d="M 164.02985074626847 169.40556561822694 V 169.38735891552113 H 160.44776119402968" id="edge_0_5404"/><path d="M 161.64179104477594 169.55393053780836 V 169.40556561822694 H 164.02985074626847" id="edge_0_3313"/><path d="M 160.44776119402968 170.0 V 169.55393053780836 H 161.64179104477594" id="edge_0_65"/><path d="M 162.8358208955222 170.0 V 169.55393053780836 H 161.64179104477594" id="edge_0_126"/><path d="M 166.417910447761 169.4656517489902 V 169.40556561822694 H 164.02985074626847" id="edge_0_4539"/><path d="M 165.22388059701473 170.0 V 169.4656517489902 H 166.417910447761" id="edge_0_72"/><path d="M 167.61194029850725 170.0 V 169.4656517489902 H 166.417910447761" id="edge_0_153"/><path d="M 172.08955223880574 169.3334653684805 V 169.31172384148638 H 166.2686567164177" id="edge_0_6336"/><path d="M 169.99999999999977 170.0 V 169.3334653684805 H 172.08955223880574" id="edge_0_92"/><path d="M 174.1791044776117 169.51010201195174 V 169.3334653684805 H 172.08955223880574" id="edge_0_3913"/><path d="M 172.3880597014923 170.0 V 169.51010201195174 H 174.1791044776117" id="edge_0_170"/><path d="M 175.97014925373108 169.64686746619097 V 169.51010201195174 H 174.1791044776117" id="edge_0_2152"/><path d="M 174.77611940298482 170.0 V 169.64686746619097 H 175.97014925373108" id="edge_0_26"/><path d="M 177.16417910447734 170.0 V 169.64686746619097 H 175.97014925373108" id="edge_0_151"/><path d="M 188.0130597014922 160.14263141186206 V 158.28812640232638 H 147.32334421641775" id="edge_0_21517"/><path d="M 181.34328358208927 169.42553482961733 V 160.14263141186206 H 188.0130597014922" id="edge_0_5124"/><path d="M 179.55223880596986 170.0 V 169.42553482961733 H 181.34328358208927" id="edge_0_189"/><path d="M 183.13432835820865 169.5379322311322 V 169.42553482961733 H 181.34328358208927" id="edge_0_3531"/><path d="M 181.9402985074624 170.0 V 169.5379322311322 H 183.13432835820865" id="edge_0_48"/><path d="M 184.3283582089549 170.0 V 169.5379322311322 H 183.13432835820865" id="edge_0_146"/><path d="M 194.68283582089515 168.84239587017004 V 160.14263141186206 H 188.0130597014922" id="edge_0_9292"/><path d="M 190.29850746268622 169.50435877795098 V 168.84239587017004 H 194.68283582089515" id="edge_0_3996"/><path d="M 187.9104477611937 169.91189736711775 V 169.50435877795098 H 190.29850746268622" id="edge_0_335"/><path d="M 186.71641791044743 170.0 V 169.91189736711775 H 187.9104477611937" id="edge_0_46"/><path d="M 189.10447761193996 170.0 V 169.91189736711775 H 187.9104477611937" id="edge_0_93"/><path d="M 192.68656716417874 169.81951454660648 V 169.50435877795098 H 190.29850746268622" id="edge_0_722"/><path d="M 191.49253731343248 170.0 V 169.81951454660648 H 192.68656716417874" id="edge_0_69"/><path d="M 193.880597014925 170.0 V 169.81951454660648 H 192.68656716417874" id="edge_0_142"/><path d="M 199.06716417910408 169.2334582573515 V 168.84239587017004 H 194.68283582089515" id="edge_0_7404"/><path d="M 196.26865671641752 170.0 V 169.2334582573515 H 199.06716417910408" id="edge_0_75"/><path d="M 201.86567164179064 169.27507744871772 V 169.2334582573515 H 199.06716417910408" id="edge_0_7009"/><path d="M 198.65671641791005 170.0 V 169.27507744871772 H 201.86567164179064" id="edge_0_175"/><path d="M 205.0746268656712 169.30545581330477 V 169.27507744871772 H 201.86567164179064" id="edge_0_6671"/><path d="M 202.23880597014883 169.50629231757893 V 169.30545581330477 H 205.0746268656712" id="edge_0_3969"/><path d="M 201.04477611940257 170.0 V 169.50629231757893 H 202.23880597014883" id="edge_0_136"/><path d="M 203.4328358208951 170.0 V 169.50629231757893 H 202.23880597014883" id="edge_0_198"/><path d="M 207.91044776119358 169.31292980205686 V 169.30545581330477 H 205.0746268656712" id="edge_0_6550"/><path d="M 205.82089552238762 170.0 V 169.31292980205686 H 207.91044776119358" id="edge_0_176"/><path d="M 209.99999999999955 169.32703757129906 V 169.31292980205686 H 207.91044776119358" id="edge_0_6394"/><path d="M 208.20895522388014 170.0 V 169.32703757129906 H 209.99999999999955" id="edge_0_125"/><path d="M 211.79104477611892 169.9924464682537 V 169.32703757129906 H 209.99999999999955" id="edge_0_201"/><path d="M 210.59701492537266 170.0 V 169.9924464682537 H 211.79104477611892" id="edge_0_37"/><path d="M 212.98507462686518 170.0 V 169.9924464682537 H 211.79104477611892" id="edge_0_162"/><path d="M 267.3606576492529 146.43951563152848 V 63.78897874256744 H 207.34200093283533" id="edge_0_26313"/><path d="M 222.98507462686513 168.24237668785793 V 146.43951563152848 H 267.3606576492529" id="edge_0_10686"/><path d="M 217.46268656716367 169.41477078379802 V 168.24237668785793 H 222.98507462686513" id="edge_0_5277"/><path d="M 215.3731343283577 170.0 V 169.41477078379802 H 217.46268656716367" id="edge_0_17"/><path d="M 219.55223880596964 169.45784760143096 V 169.41477078379802 H 217.46268656716367" id="edge_0_4633"/><path d="M 217.76119402985023 170.0 V 169.45784760143096 H 219.55223880596964" id="edge_0_81"/><path d="M 221.34328358208901 169.65850495434316 V 169.45784760143096 H 219.55223880596964" id="edge_0_2008"/><path d="M 220.14925373134275 170.0 V 169.65850495434316 H 221.34328358208901" id="edge_0_88"/><path d="M 222.53731343283528 170.0 V 169.65850495434316 H 221.34328358208901" id="edge_0_122"/><path d="M 228.50746268656658 168.74702341199063 V 168.24237668785793 H 222.98507462686513" id="edge_0_9567"/><path d="M 226.11940298507406 169.54696845575032 V 168.74702341199063 H 228.50746268656658" id="edge_0_3408"/><path d="M 224.9253731343278 170.0 V 169.54696845575032 H 226.11940298507406" id="edge_0_18"/><path d="M 227.31343283582032 170.0 V 169.54696845575032 H 226.11940298507406" id="edge_0_109"/><path d="M 230.8955223880591 168.8711488323533 V 168.74702341199063 H 228.50746268656658" id="edge_0_9196"/><path d="M 229.70149253731284 170.0 V 168.8711488323533 H 230.8955223880591" id="edge_0_35"/><path d="M 232.08955223880537 170.0 V 168.8711488323533 H 230.8955223880591" id="edge_0_73"/><path d="M 311.7362406716407 159.51735128087586 V 146.43951563152848 H 267.3606576492529" id="edge_0_22121"/><path d="M 241.71641791044712 169.10137351039478 V 159.51735128087586 H 311.7362406716407" id="edge_0_8242"/><path d="M 236.2686567164173 169.738020096293 V 169.10137351039478 H 241.71641791044712" id="edge_0_1294"/><path d="M 234.4776119402979 170.0 V 169.738020096293 H 236.2686567164173" id="edge_0_167"/><path d="M 238.05970149253668 169.7693131750176 V 169.738020096293 H 236.2686567164173" id="edge_0_1035"/><path d="M 236.8656716417904 170.0 V 169.7693131750176 H 238.05970149253668" id="edge_0_51"/><path d="M 239.25373134328294 170.0 V 169.7693131750176 H 238.05970149253668" id="edge_0_82"/><path d="M 247.16417910447694 169.23608915486534 V 169.10137351039478 H 241.71641791044712" id="edge_0_7381"/><path d="M 242.83582089552172 169.60041140521747 V 169.23608915486534 H 247.16417910447694" id="edge_0_2718"/><path d="M 241.64179104477546 170.0 V 169.60041140521747 H 242.83582089552172" id="edge_0_178"/><path d="M 244.02985074626798 170.0 V 169.60041140521747 H 242.83582089552172" id="edge_0_182"/><path d="M 251.49253731343214 169.35839616036148 V 169.23608915486534 H 247.16417910447694" id="edge_0_6040"/><path d="M 248.2089552238799 169.7027888231456 V 169.35839616036148 H 251.49253731343214" id="edge_0_1602"/><path d="M 246.4179104477605 170.0 V 169.7027888231456 H 248.2089552238799" id="edge_0_105"/><path d="M 249.9999999999993 169.7704982634663 V 169.7027888231456 H 248.2089552238799" id="edge_0_1028"/><path d="M 248.80597014925303 170.0 V 169.7704982634663 H 249.9999999999993" id="edge_0_22"/><path d="M 251.19402985074555 170.0 V 169.7704982634663 H 249.9999999999993" id="edge_0_197"/><path d="M 254.77611940298434 169.46266644737295 V 169.35839616036148 H 251.49253731343214" id="edge_0_4578"/><path d="M 253.58208955223807 170.0 V 169.46266644737295 H 254.77611940298434" id="edge_0_12"/><path d="M 255.9701492537306 170.0 V 169.46266644737295 H 254.77611940298434" id="edge_0_95"/><path d="M 381.7560634328343 159.92332425621012 V 159.51735128087586 H 311.7362406716407" id="edge_0_21737"/><path d="M 302.392723880596 160.5200134517787 V 159.92332425621012 H 381.7560634328343" id="edge_0_21119"/><path d="M 278.3208955223872 165.70158836496637 V 160.5200134517787 H 302.392723880596" id="edge_0_13674"/><path d="M 270.2238805970141 168.5449774007261 V 165.70158836496637 H 278.3208955223872" id="edge_0_10086"/><path d="M 263.2835820895515 169.23044976119246 V 168.5449774007261 H 270.2238805970141" id="edge_0_7432"/><path d="M 259.5522388059694 169.7275938397916 V 169.23044976119246 H 263.2835820895515" id="edge_0_1365"/><path d="M 258.3582089552231 170.0 V 169.7275938397916 H 259.5522388059694" id="edge_0_108"/><path d="M 260.74626865671564 170.0 V 169.7275938397916 H 259.5522388059694" id="edge_0_112"/><path d="M 267.0149253731335 169.35370395976477 V 169.23044976119246 H 263.2835820895515" id="edge_0_6104"/><path d="M 264.32835820895446 169.84229787125273 V 169.35370395976477 H 267.0149253731335" id="edge_0_603"/><path d="M 263.13432835820817 170.0 V 169.84229787125273 H 264.32835820895446" id="edge_0_31"/><path d="M 265.5223880597007 170.0 V 169.84229787125273 H 264.32835820895446" id="edge_0_106"/><path d="M 269.70149253731256 169.474791375734 V 169.35370395976477 H 267.0149253731335" id="edge_0_4414"/><path d="M 267.9104477611932 170.0 V 169.474791375734 H 269.70149253731256" id="edge_0_101"/><path d="M 271.49253731343197 169.48819936885772 V 169.474791375734 H 269.70149253731256" id="edge_0_4250"/><path d="M 270.29850746268573 170.0 V 169.48819936885772 H 271.49253731343197" id="edge_0_8"/><path d="M 272.68656716417826 170.0 V 169.48819936885772 H 271.49253731343197" id="edge_0_114"/><path d="M 277.1641791044767 169.2056099340196 V 168.5449774007261 H 270.2238805970141" id="edge_0_7616"/><path d="M 275.0746268656708 170.0 V 169.2056099340196 H 277.1641791044767" id="edge_0_117"/><path d="M 279.25373134328265 169.51868933979586 V 169.2056099340196 H 277.1641791044767" id="edge_0_3774"/><path d="M 277.4626865671633 170.0 V 169.51868933979586 H 279.25373134328265" id="edge_0_1"/><path d="M 281.04477611940206 169.99040550587017 V 169.51868933979586 H 279.25373134328265" id="edge_0_203"/><path d="M 279.8507462686558 170.0 V 169.99040550587017 H 281.04477611940206" id="edge_0_156"/><path d="M 282.23880597014835 170.0 V 169.99040550587017 H 281.04477611940206" id="edge_0_174"/><path d="M 286.4179104477603 167.41434011969184 V 165.70158836496637 H 278.3208955223872" id="edge_0_11815"/><path d="M 284.62686567164087 170.0 V 167.41434011969184 H 286.4179104477603" id="edge_0_113"/><path d="M 288.2089552238797 169.55706945149132 V 167.41434011969184 H 286.4179104477603" id="edge_0_3269"/><path d="M 287.0149253731334 170.0 V 169.55706945149132 H 288.2089552238797" id="edge_0_5"/><path d="M 289.4029850746259 170.0 V 169.55706945149132 H 288.2089552238797" id="edge_0_38"/><path d="M 326.4645522388048 162.05637840031247 V 160.5200134517787 H 302.392723880596" id="edge_0_19213"/><path d="M 295.89552238805874 169.34213213550947 V 162.05637840031247 H 326.4645522388048" id="edge_0_6251"/><path d="M 292.98507462686473 169.9770953766031 V 169.34213213550947 H 295.89552238805874" id="edge_0_212"/><path d="M 291.79104477611844 170.0 V 169.9770953766031 H 292.98507462686473" id="edge_0_15"/><path d="M 294.17910447761096 170.0 V 169.9770953766031 H 292.98507462686473" id="edge_0_30"/><path d="M 298.80597014925274 169.65745303591396 V 169.34213213550947 H 295.89552238805874" id="edge_0_2018"/><path d="M 296.5671641791035 170.0 V 169.65745303591396 H 298.80597014925274" id="edge_0_140"/><path d="M 301.04477611940194 169.7514561221309 V 169.65745303591396 H 298.80597014925274" id="edge_0_1184"/><path d="M 298.955223880596 170.0 V 169.7514561221309 H 301.04477611940194" id="edge_0_47"/><path d="M 303.1343283582079 169.8850786379686 V 169.7514561221309 H 301.04477611940194" id="edge_0_420"/><path d="M 301.34328358208853 170.0 V 169.8850786379686 H 303.1343283582079" id="edge_0_9"/><path d="M 304.9253731343273 169.9884145920613 V 169.8850786379686 H 303.1343283582079" id="edge_0_205"/><path d="M 303.73134328358105 170.0 V 169.9884145920613 H 304.9253731343273" id="edge_0_127"/><path d="M 306.1194029850736 170.0 V 169.9884145920613 H 304.9253731343273" id="edge_0_166"/><path d="M 357.03358208955086 164.2733552202253 V 162.05637840031247 H 326.4645522388048" id="edge_0_15847"/><path d="M 323.26492537313317 164.4991658114859 V 164.2733552202253 H 357.03358208955086" id="edge_0_15482"/><path d="M 312.08955223880486 169.1193891062607 V 164.4991658114859 H 323.26492537313317" id="edge_0_8143"/><path d="M 309.70149253731233 169.29812937582258 V 169.1193891062607 H 312.08955223880486" id="edge_0_6747"/><path d="M 308.5074626865661 170.0 V 169.29812937582258 H 309.70149253731233" id="edge_0_21"/><path d="M 310.8955223880586 170.0 V 169.29812937582258 H 309.70149253731233" id="edge_0_94"/><path d="M 314.4776119402974 169.20636559519482 V 169.1193891062607 H 312.08955223880486" id="edge_0_7610"/><path d="M 313.28358208955115 170.0 V 169.20636559519482 H 314.4776119402974" id="edge_0_116"/><path d="M 315.67164179104367 170.0 V 169.20636559519482 H 314.4776119402974" id="edge_0_148"/><path d="M 334.4402985074615 168.34341209947848 V 164.4991658114859 H 323.26492537313317" id="edge_0_10501"/><path d="M 320.82089552238693 168.61015409759162 V 168.34341209947848 H 334.4402985074615" id="edge_0_9936"/><path d="M 318.0597014925362 170.0 V 168.61015409759162 H 320.82089552238693" id="edge_0_41"/><path d="M 323.5820895522377 168.6313123522474 V 168.61015409759162 H 320.82089552238693" id="edge_0_9884"/><path d="M 320.4477611940287 170.0 V 168.6313123522474 H 323.5820895522377" id="edge_0_54"/><path d="M 326.7164179104466 168.68495839031291 V 168.6313123522474 H 323.5820895522377" id="edge_0_9740"/><path d="M 324.02985074626747 169.7355076006903 V 168.68495839031291 H 326.7164179104466" id="edge_0_1305"/><path d="M 322.83582089552124 170.0 V 169.7355076006903 H 324.02985074626747" id="edge_0_59"/><path d="M 325.22388059701376 170.0 V 169.7355076006903 H 324.02985074626747" id="edge_0_139"/><path d="M 329.4029850746257 169.70448758494211 V 168.68495839031291 H 326.7164179104466" id="edge_0_1586"/><path d="M 327.6119402985063 170.0 V 169.70448758494211 H 329.4029850746257" id="edge_0_158"/><path d="M 331.1940298507451 169.78951184486925 V 169.70448758494211 H 329.4029850746257" id="edge_0_895"/><path d="M 329.9999999999988 170.0 V 169.78951184486925 H 331.1940298507451" id="edge_0_80"/><path d="M 332.38805970149133 170.0 V 169.78951184486925 H 331.1940298507451" id="edge_0_96"/><path d="M 348.059701492536 168.54193143931303 V 168.34341209947848 H 334.4402985074615" id="edge_0_10088"/><path d="M 337.9104477611928 169.16267463284532 V 168.54193143931303 H 348.059701492536" id="edge_0_7881"/><path d="M 334.77611940298385 170.0 V 169.16267463284532 H 337.9104477611928" id="edge_0_39"/><path d="M 341.0447761194017 169.44097976672788 V 169.16267463284532 H 337.9104477611928" id="edge_0_4903"/><path d="M 337.1641791044764 170.0 V 169.44097976672788 H 341.0447761194017" id="edge_0_53"/><path d="M 344.92537313432706 169.55502907647823 V 169.44097976672788 H 341.0447761194017" id="edge_0_3296"/><path d="M 341.34328358208825 169.76828015574407 V 169.55502907647823 H 344.92537313432706" id="edge_0_1043"/><path d="M 339.5522388059689 170.0 V 169.76828015574407 H 341.34328358208825" id="edge_0_107"/><path d="M 343.13432835820765 169.87414710698752 V 169.76828015574407 H 341.34328358208825" id="edge_0_459"/><path d="M 341.9402985074614 170.0 V 169.87414710698752 H 343.13432835820765" id="edge_0_104"/><path d="M 344.32835820895394 170.0 V 169.87414710698752 H 343.13432835820765" id="edge_0_133"/><path d="M 348.5074626865659 169.60799623591072 V 169.55502907647823 H 344.92537313432706" id="edge_0_2605"/><path d="M 346.71641791044647 170.0 V 169.60799623591072 H 348.5074626865659" id="edge_0_6"/><path d="M 350.2985074626853 169.8900597456399 V 169.60799623591072 H 348.5074626865659" id="edge_0_398"/><path d="M 349.104477611939 170.0 V 169.8900597456399 H 350.2985074626853" id="edge_0_2"/><path d="M 351.4925373134315 170.0 V 169.8900597456399 H 350.2985074626853" id="edge_0_71"/><path d="M 358.20895522387923 168.7827797869271 V 168.54193143931303 H 348.059701492536" id="edge_0_9483"/><path d="M 353.88059701492404 170.0 V 168.7827797869271 H 358.20895522387923" id="edge_0_161"/><path d="M 362.5373134328345 169.21376782241458 V 168.7827797869271 H 358.20895522387923" id="edge_0_7567"/><path d="M 358.05970149253596 169.46911607500428 V 169.21376782241458 H 362.5373134328345" id="edge_0_4501"/><path d="M 356.26865671641656 170.0 V 169.46911607500428 H 358.05970149253596" id="edge_0_130"/><path d="M 359.85074626865537 169.80644870878245 V 169.46911607500428 H 358.05970149253596" id="edge_0_784"/><path d="M 358.6567164179091 170.0 V 169.80644870878245 H 359.85074626865537" id="edge_0_61"/><path d="M 361.0447761194016 170.0 V 169.80644870878245 H 359.85074626865537" id="edge_0_83"/><path d="M 367.01492537313294 169.45221848131973 V 169.21376782241458 H 362.5373134328345" id="edge_0_4722"/><path d="M 364.6268656716404 169.8933654492742 V 169.45221848131973 H 367.01492537313294" id="edge_0_387"/><path d="M 363.4328358208941 170.0 V 169.8933654492742 H 364.6268656716404" id="edge_0_33"/><path d="M 365.82089552238665 170.0 V 169.8933654492742 H 364.6268656716404" id="edge_0_89"/><path d="M 369.40298507462546 169.7626777087239 V 169.45221848131973 H 367.01492537313294" id="edge_0_1085"/><path d="M 368.2089552238792 170.0 V 169.7626777087239 H 369.40298507462546" id="edge_0_138"/><path d="M 370.5970149253717 170.0 V 169.7626777087239 H 369.40298507462546" id="edge_0_144"/><path d="M 390.80223880596856 164.46503637743334 V 164.2733552202253 H 357.03358208955086" id="edge_0_15538"/><path d="M 374.77611940298357 169.01010431159253 V 164.46503637743334 H 390.80223880596856" id="edge_0_8647"/><path d="M 372.9850746268642 170.0 V 169.01010431159253 H 374.77611940298357" id="edge_0_163"/><path d="M 376.567164179103 169.64583637837347 V 169.01010431159253 H 374.77611940298357" id="edge_0_2164"/><path d="M 375.37313432835674 170.0 V 169.64583637837347 H 376.567164179103" id="edge_0_118"/><path d="M 377.76119402984926 170.0 V 169.64583637837347 H 376.567164179103" id="edge_0_159"/><path d="M 406.82835820895355 168.16898825917062 V 164.46503637743334 H 390.80223880596856" id="edge_0_10810"/><path d="M 395.8208955223864 168.68919497854526 V 168.16898825917062 H 406.82835820895355" id="edge_0_9726"/><path d="M 388.208955223879 169.14770808470735 V 168.68919497854526 H 395.8208955223864" id="edge_0_7970"/><path d="M 383.73134328358054 169.3409927090164 V 169.14770808470735 H 388.208955223879" id="edge_0_6264"/><path d="M 381.343283582088 169.640746021966 V 169.3409927090164 H 383.73134328358054" id="edge_0_2231"/><path d="M 380.1492537313418 170.0 V 169.640746021966 H 381.343283582088" id="edge_0_124"/><path d="M 382.5373134328343 170.0 V 169.640746021966 H 381.343283582088" id="edge_0_183"/><path d="M 386.11940298507307 169.38610422677425 V 169.3409927090164 H 383.73134328358054" id="edge_0_5657"/><path d="M 384.92537313432683 170.0 V 169.38610422677425 H 386.11940298507307" id="edge_0_16"/><path d="M 387.31343283581936 170.0 V 169.38610422677425 H 386.11940298507307" id="edge_0_91"/><path d="M 392.6865671641775 169.2612950098828 V 169.14770808470735 H 388.208955223879" id="edge_0_7150"/><path d="M 389.7014925373119 170.0 V 169.2612950098828 H 392.6865671641775" id="edge_0_155"/><path d="M 395.6716417910432 169.2715975000439 V 169.2612950098828 H 392.6865671641775" id="edge_0_7056"/><path d="M 393.2835820895507 169.80967760584429 V 169.2715975000439 H 395.6716417910432" id="edge_0_769"/><path d="M 392.0895522388044 170.0 V 169.80967760584429 H 393.2835820895507" id="edge_0_90"/><path d="M 394.4776119402969 170.0 V 169.80967760584429 H 393.2835820895507" id="edge_0_184"/><path d="M 398.05970149253574 169.3116064840844 V 169.2715975000439 H 395.6716417910432" id="edge_0_6571"/><path d="M 396.86567164178945 170.0 V 169.3116064840844 H 398.05970149253574" id="edge_0_44"/><path d="M 399.25373134328197 170.0 V 169.3116064840844 H 398.05970149253574" id="edge_0_76"/><path d="M 403.43283582089384 169.14343196352377 V 168.68919497854526 H 395.8208955223864" id="edge_0_8004"/><path d="M 401.6417910447745 170.0 V 169.14343196352377 H 403.43283582089384" id="edge_0_165"/><path d="M 405.22388059701325 169.3615952419667 V 169.14343196352377 H 403.43283582089384" id="edge_0_5994"/><path d="M 404.029850746267 170.0 V 169.3615952419667 H 405.22388059701325" id="edge_0_34"/><path d="M 406.41791044775954 170.0 V 169.3615952419667 H 405.22388059701325" id="edge_0_77"/><path d="M 417.83582089552067 168.66659193810386 V 168.16898825917062 H 406.82835820895355" id="edge_0_9792"/><path d="M 411.0447761194013 169.08226764831693 V 168.66659193810386 H 417.83582089552067" id="edge_0_8336"/><path d="M 408.80597014925206 170.0 V 169.08226764831693 H 411.0447761194013" id="edge_0_128"/><path d="M 413.2835820895506 169.12128131443865 V 169.08226764831693 H 411.0447761194013" id="edge_0_8131"/><path d="M 411.1940298507446 170.0 V 169.12128131443865 H 413.2835820895506" id="edge_0_10"/><path d="M 415.3731343283565 169.1713946411627 V 169.12128131443865 H 413.2835820895506" id="edge_0_7824"/><path d="M 413.5820895522371 170.0 V 169.1713946411627 H 415.3731343283565" id="edge_0_79"/><path d="M 417.1641791044759 169.24655659221744 V 169.1713946411627 H 415.3731343283565" id="edge_0_7299"/><path d="M 415.97014925372963 170.0 V 169.24655659221744 H 417.1641791044759" id="edge_0_132"/><path d="M 418.35820895522215 170.0 V 169.24655659221744 H 417.1641791044759" id="edge_0_185"/><path d="M 424.62686567164 169.04669548645543 V 168.66659193810386 H 417.83582089552067" id="edge_0_8487"/><path d="M 421.94029850746097 169.48207012009414 V 169.04669548645543 H 424.62686567164" id="edge_0_4325"/><path d="M 420.7462686567147 170.0 V 169.48207012009414 H 421.94029850746097" id="edge_0_120"/><path d="M 423.1343283582072 170.0 V 169.48207012009414 H 421.94029850746097" id="edge_0_137"/><path d="M 427.31343283581907 169.36475223156336 V 169.04669548645543 H 424.62686567164" id="edge_0_5946"/><path d="M 425.5223880596997 170.0 V 169.36475223156336 H 427.31343283581907" id="edge_0_135"/><path d="M 429.1044776119385 169.39446747646693 V 169.36475223156336 H 427.31343283581907" id="edge_0_5551"/><path d="M 427.91044776119224 170.0 V 169.39446747646693 H 429.1044776119385" id="edge_0_20"/><path d="M 430.29850746268477 170.0 V 169.39446747646693 H 429.1044776119385" id="edge_0_196"/><path d="M 461.1194029850726 160.30131248850623 V 159.92332425621012 H 381.7560634328343" id="edge_0_21335"/><path d="M 447.089552238804 168.7341426197041 V 160.30131248850623 H 461.1194029850726" id="edge_0_9604"/><path d="M 435.8208955223862 168.88736811684007 V 168.7341426197041 H 447.089552238804" id="edge_0_9132"/><path d="M 432.6865671641773 170.0 V 168.88736811684007 H 435.8208955223862" id="edge_0_152"/><path d="M 438.95522388059516 169.15645019146538 V 168.88736811684007 H 435.8208955223862" id="edge_0_7924"/><path d="M 436.2686567164161 169.54740661789353 V 169.15645019146538 H 438.95522388059516" id="edge_0_3398"/><path d="M 435.0746268656698 170.0 V 169.54740661789353 H 436.2686567164161" id="edge_0_100"/><path d="M 437.46268656716234 170.0 V 169.54740661789353 H 436.2686567164161" id="edge_0_141"/><path d="M 441.6417910447742 169.20951243221717 V 169.15645019146538 H 438.95522388059516" id="edge_0_7585"/><path d="M 439.85074626865486 170.0 V 169.20951243221717 H 441.6417910447742" id="edge_0_186"/><path d="M 443.4328358208936 169.63079089894498 V 169.20951243221717 H 441.6417910447742" id="edge_0_2336"/><path d="M 442.2388059701474 170.0 V 169.63079089894498 H 443.4328358208936" id="edge_0_11"/><path d="M 444.6268656716399 170.0 V 169.63079089894498 H 443.4328358208936" id="edge_0_134"/><path d="M 458.35820895522187 168.74501553983964 V 168.7341426197041 H 447.089552238804" id="edge_0_9575"/><path d="M 454.17910447760994 169.37851295177356 V 168.74501553983964 H 458.35820895522187" id="edge_0_5775"/><path d="M 450.5970149253712 169.47800599339428 V 169.37851295177356 H 454.17910447760994" id="edge_0_4371"/><path d="M 448.20895522387866 169.87551487094868 V 169.47800599339428 H 450.5970149253712" id="edge_0_456"/><path d="M 447.0149253731324 170.0 V 169.87551487094868 H 448.20895522387866" id="edge_0_14"/><path d="M 449.40298507462495 170.0 V 169.87551487094868 H 448.20895522387866" id="edge_0_192"/><path d="M 452.9850746268637 169.5556649801999 V 169.47800599339428 H 450.5970149253712" id="edge_0_3285"/><path d="M 451.7910447761175 170.0 V 169.5556649801999 H 452.9850746268637" id="edge_0_4"/><path d="M 454.17910447761 170.0 V 169.5556649801999 H 452.9850746268637" id="edge_0_173"/><path d="M 457.76119402984875 169.45221204623763 V 169.37851295177356 H 454.17910447760994" id="edge_0_4723"/><path d="M 456.5671641791025 170.0 V 169.45221204623763 H 457.76119402984875" id="edge_0_25"/><path d="M 458.95522388059504 170.0 V 169.45221204623763 H 457.76119402984875" id="edge_0_97"/><path d="M 462.5373134328338 169.23181897269396 V 168.74501553983964 H 458.35820895522187" id="edge_0_7420"/><path d="M 461.34328358208757 170.0 V 169.23181897269396 H 462.5373134328338" id="edge_0_85"/><path d="M 463.7313432835801 170.0 V 169.23181897269396 H 462.5373134328338" id="edge_0_111"/><path d="M 475.1492537313412 163.89960026116415 V 160.30131248850623 H 461.1194029850726" id="edge_0_16423"/><path d="M 468.35820895522187 168.65057976845685 V 163.89960026116415 H 475.1492537313412" id="edge_0_9828"/><path d="M 466.1194029850726 170.0 V 168.65057976845685 H 468.35820895522187" id="edge_0_121"/><path d="M 470.5970149253711 169.32373909237063 V 168.65057976845685 H 468.35820895522187" id="edge_0_6424"/><path d="M 468.50746268656513 170.0 V 169.32373909237063 H 470.5970149253711" id="edge_0_56"/><path d="M 472.68656716417706 169.53238137254465 V 169.32373909237063 H 470.5970149253711" id="edge_0_3597"/><path d="M 470.89552238805766 170.0 V 169.53238137254465 H 472.68656716417706" id="edge_0_98"/><path d="M 474.47761194029647 169.74935767225105 V 169.53238137254465 H 472.68656716417706" id="edge_0_1204"/><path d="M 473.2835820895502 170.0 V 169.74935767225105 H 474.47761194029647" id="edge_0_67"/><path d="M 475.6716417910427 170.0 V 169.74935767225105 H 474.47761194029647" id="edge_0_86"/><path d="M 481.94029850746057 168.17069166727282 V 163.89960026116415 H 475.1492537313412" id="edge_0_10808"/><path d="M 479.2537313432815 169.4326804132422 V 168.17069166727282 H 481.94029850746057" id="edge_0_5016"/><path d="M 478.0597014925352 170.0 V 169.4326804132422 H 479.2537313432815" id="edge_0_154"/><path d="M 480.44776119402775 170.0 V 169.4326804132422 H 479.2537313432815" id="edge_0_194"/><path d="M 484.6268656716396 169.15997386932466 V 168.17069166727282 H 481.94029850746057" id="edge_0_7894"/><path d="M 482.83582089552027 170.0 V 169.15997386932466 H 484.6268656716396" id="edge_0_40"/><path d="M 486.417910447759 169.92990583784783 V 169.15997386932466 H 484.6268656716396" id="edge_0_298"/><path d="M 485.2238805970128 170.0 V 169.92990583784783 H 486.417910447759" id="edge_0_60"/><path d="M 487.6119402985053 170.0 V 169.92990583784783 H 486.417910447759" id="edge_0_103"/></g><g id="symbols"><g class="nodes"><circle cx="123.25705457089528" cy="30.0" id="node_0_36059" r="3"/><circle cx="39.17210820895522" cy="117.92398133320648" id="node_0_28723" r="3"/><circle cx="15.219216417910447" cy="167.66463098586337" id="node_0_11525" r="3"/><circle cx="12.388059701492537" cy="170.0" id="node_0_0" r="3"/><circle cx="18.050373134328357" cy="169.0840911727244" id="node_0_8323" r="3"/><circle cx="14.776119402985074" cy="170.0" id="node_0_64" r="3"/><circle cx="21.32462686567164" cy="169.32019967486667" id="node_0_6471" r="3"/><circle cx="18.35820895522388" cy="169.95327774849304" id="node_0_249" r="3"/><circle cx="17.16417910447761" cy="170.0" id="node_0_36" r="3"/><circle cx="19.55223880597015" cy="170.0" id="node_0_99" r="3"/><circle cx="24.291044776119403" cy="169.3420735734549" id="node_0_6252" r="3"/><circle cx="21.940298507462686" cy="170.0" id="node_0_195" r="3"/><circle cx="26.64179104477612" cy="169.35141169326766" id="node_0_6129" r="3"/><circle cx="24.328358208955223" cy="170.0" id="node_0_169" r="3"/><circle cx="28.955223880597014" cy="169.4628181714446" id="node_0_4575" r="3"/><circle cx="26.71641791044776" cy="170.0" id="node_0_66" r="3"/><circle cx="31.19402985074627" cy="169.87073150542867" id="node_0_481" r="3"/><circle cx="29.104477611940297" cy="170.0" id="node_0_70" r="3"/><circle cx="33.28358208955224" cy="169.8918393460458" id="node_0_389" r="3"/><circle cx="31.492537313432834" cy="170.0" id="node_0_3" r="3"/><circle cx="35.07462686567164" cy="169.96497987044876" id="node_0_226" r="3"/><circle cx="33.88059701492537" cy="170.0" id="node_0_24" r="3"/><circle cx="36.26865671641791" cy="170.0" id="node_0_193" r="3"/><circle cx="63.125" cy="158.51910725424247" id="node_0_22945" r="3"/><circle cx="48.0410447761194" cy="167.83594007765976" id="node_0_11288" r="3"/><circle cx="40.8955223880597" cy="169.2581877957357" id="node_0_7179" r="3"/><circle cx="38.656716417910445" cy="170.0" id="node_0_19" r="3"/><circle cx="43.134328358208954" cy="169.50815636063413" id="node_0_3937" r="3"/><circle cx="41.04477611940298" cy="170.0" id="node_0_58" r="3"/><circle cx="45.223880597014926" cy="169.8398146908131" id="node_0_611" r="3"/><circle cx="43.43283582089552" cy="170.0" id="node_0_119" r="3"/><circle cx="47.014925373134325" cy="169.84021041951968" id="node_0_610" r="3"/><circle cx="45.82089552238806" cy="170.0" id="node_0_43" r="3"/><circle cx="48.208955223880594" cy="170.0" id="node_0_131" r="3"/><circle cx="55.186567164179095" cy="168.5528802918708" id="node_0_10067" r="3"/><circle cx="51.7910447761194" cy="169.66819426806364" id="node_0_1907" r="3"/><circle cx="50.59701492537313" cy="170.0" id="node_0_102" r="3"/><circle cx="52.98507462686567" cy="170.0" id="node_0_171" r="3"/><circle cx="58.5820895522388" cy="168.6825445009784" id="node_0_9753" r="3"/><circle cx="55.373134328358205" cy="170.0" id="node_0_188" r="3"/><circle cx="61.79104477611939" cy="168.8444708406111" id="node_0_9287" r="3"/><circle cx="58.95522388059701" cy="169.7282490500338" id="node_0_1358" r="3"/><circle cx="57.76119402985074" cy="170.0" id="node_0_50" r="3"/><circle cx="60.14925373134328" cy="170.0" id="node_0_179" r="3"/><circle cx="64.62686567164178" cy="169.33579178264864" id="node_0_6315" r="3"/><circle cx="62.537313432835816" cy="170.0" id="node_0_42" r="3"/><circle cx="66.71641791044775" cy="169.52271094488844" id="node_0_3724" r="3"/><circle cx="64.92537313432835" cy="170.0" id="node_0_187" r="3"/><circle cx="68.50746268656715" cy="169.9576292419741" id="node_0_241" r="3"/><circle cx="67.31343283582089" cy="170.0" id="node_0_147" r="3"/><circle cx="69.70149253731343" cy="170.0" id="node_0_160" r="3"/><circle cx="78.2089552238806" cy="161.17480599795306" id="node_0_20354" r="3"/><circle cx="73.28358208955223" cy="169.55465586921486" id="node_0_3304" r="3"/><circle cx="72.08955223880596" cy="170.0" id="node_0_84" r="3"/><circle cx="74.4776119402985" cy="170.0" id="node_0_145" r="3"/><circle cx="83.13432835820896" cy="168.84798753601584" id="node_0_9277" r="3"/><circle cx="78.65671641791045" cy="169.29216510372504" id="node_0_6807" r="3"/><circle cx="76.86567164179104" cy="170.0" id="node_0_157" r="3"/><circle cx="80.44776119402985" cy="169.84469034217486" id="node_0_596" r="3"/><circle cx="79.25373134328358" cy="170.0" id="node_0_49" r="3"/><circle cx="81.64179104477611" cy="170.0" id="node_0_55" r="3"/><circle cx="87.61194029850746" cy="169.2289118557849" id="node_0_7451" r="3"/><circle cx="85.22388059701493" cy="169.97638113515538" id="node_0_213" r="3"/><circle cx="84.02985074626865" cy="170.0" id="node_0_143" r="3"/><circle cx="86.41791044776119" cy="170.0" id="node_0_172" r="3"/><circle cx="90.0" cy="169.37993412002393" id="node_0_5754" r="3"/><circle cx="88.80597014925372" cy="170.0" id="node_0_13" r="3"/><circle cx="91.19402985074626" cy="170.0" id="node_0_78" r="3"/><circle cx="207.34200093283533" cy="63.78897874256744" id="node_0_33484" r="3"/><circle cx="147.32334421641775" cy="158.28812640232638" id="node_0_23117" r="3"/><circle cx="106.63362873134326" cy="161.01256830915915" id="node_0_20544" r="3"/><circle cx="98.65671641791043" cy="169.12820539808496" id="node_0_8093" r="3"/><circle cx="95.37313432835819" cy="169.49591024646548" id="node_0_4142" r="3"/><circle cx="93.5820895522388" cy="170.0" id="node_0_28" r="3"/><circle cx="97.1641791044776" cy="169.5800871796222" id="node_0_2958" r="3"/><circle cx="95.97014925373134" cy="170.0" id="node_0_23" r="3"/><circle cx="98.35820895522387" cy="170.0" id="node_0_45" r="3"/><circle cx="101.94029850746267" cy="169.21509546789665" id="node_0_7546" r="3"/><circle cx="100.74626865671641" cy="170.0" id="node_0_62" r="3"/><circle cx="103.13432835820895" cy="170.0" id="node_0_123" r="3"/><circle cx="114.6105410447761" cy="161.24572891809993" id="node_0_20281" r="3"/><circle cx="105.52238805970148" cy="170.0" id="node_0_32" r="3"/><circle cx="123.69869402985071" cy="164.1720483093052" id="node_0_16024" r="3"/><circle cx="111.79104477611939" cy="166.23109321707932" id="node_0_12977" r="3"/><circle cx="109.1044776119403" cy="169.5160337922708" id="node_0_3808" r="3"/><circle cx="107.91044776119402" cy="170.0" id="node_0_129" r="3"/><circle cx="110.29850746268656" cy="170.0" id="node_0_181" r="3"/><circle cx="114.47761194029849" cy="169.24315442314608" id="node_0_7321" r="3"/><circle cx="112.6865671641791" cy="170.0" id="node_0_87" r="3"/><circle cx="116.2686567164179" cy="169.4679247102687" id="node_0_4512" r="3"/><circle cx="115.07462686567163" cy="170.0" id="node_0_63" r="3"/><circle cx="117.46268656716417" cy="170.0" id="node_0_199" r="3"/><circle cx="135.60634328358202" cy="165.36917014875004" id="node_0_14170" r="3"/><circle cx="122.22014925373134" cy="169.07234312796163" id="node_0_8372" r="3"/><circle cx="119.8507462686567" cy="170.0" id="node_0_74" r="3"/><circle cx="124.58955223880596" cy="169.26998298790656" id="node_0_7070" r="3"/><circle cx="122.23880597014924" cy="170.0" id="node_0_115" r="3"/><circle cx="126.94029850746267" cy="169.31650603855888" id="node_0_6510" r="3"/><circle cx="124.62686567164178" cy="170.0" id="node_0_191" r="3"/><circle cx="129.25373134328356" cy="169.43142686918392" id="node_0_5036" r="3"/><circle cx="127.01492537313432" cy="170.0" id="node_0_57" r="3"/><circle cx="131.49253731343282" cy="169.4739921201847" id="node_0_4425" r="3"/><circle cx="129.40298507462686" cy="170.0" id="node_0_164" r="3"/><circle cx="133.5820895522388" cy="169.66550625025215" id="node_0_1937" r="3"/><circle cx="131.7910447761194" cy="170.0" id="node_0_29" r="3"/><circle cx="135.3731343283582" cy="169.7134819510753" id="node_0_1494" r="3"/><circle cx="134.17910447761193" cy="170.0" id="node_0_7" r="3"/><circle cx="136.56716417910445" cy="170.0" id="node_0_150" r="3"/><circle cx="148.99253731343273" cy="168.92004979426616" id="node_0_9027" r="3"/><circle cx="140.74626865671638" cy="169.41036224738633" id="node_0_5341" r="3"/><circle cx="138.95522388059698" cy="170.0" id="node_0_110" r="3"/><circle cx="142.53731343283576" cy="169.53670990630076" id="node_0_3547" r="3"/><circle cx="141.3432835820895" cy="170.0" id="node_0_52" r="3"/><circle cx="143.73134328358202" cy="170.0" id="node_0_68" r="3"/><circle cx="157.2388059701491" cy="169.15502178065114" id="node_0_7933" r="3"/><circle cx="148.2089552238805" cy="169.37794612818809" id="node_0_5783" r="3"/><circle cx="146.11940298507454" cy="170.0" id="node_0_149" r="3"/><circle cx="150.29850746268647" cy="169.86381991197217" id="node_0_512" r="3"/><circle cx="148.50746268656707" cy="170.0" id="node_0_168" r="3"/><circle cx="152.08955223880585" cy="169.94274489245342" id="node_0_265" r="3"/><circle cx="150.8955223880596" cy="170.0" id="node_0_27" r="3"/><circle cx="153.2835820895521" cy="170.0" id="node_0_190" r="3"/><circle cx="166.2686567164177" cy="169.31172384148638" id="node_0_6570" r="3"/><circle cx="160.44776119402968" cy="169.38735891552113" id="node_0_5642" r="3"/><circle cx="156.8656716417909" cy="169.5314378710276" id="node_0_3607" r="3"/><circle cx="155.67164179104464" cy="170.0" id="node_0_177" r="3"/><circle cx="158.05970149253716" cy="170.0" id="node_0_180" r="3"/><circle cx="164.02985074626847" cy="169.40556561822694" id="node_0_5404" r="3"/><circle cx="161.64179104477594" cy="169.55393053780836" id="node_0_3313" r="3"/><circle cx="160.44776119402968" cy="170.0" id="node_0_65" r="3"/><circle cx="162.8358208955222" cy="170.0" id="node_0_126" r="3"/><circle cx="166.417910447761" cy="169.4656517489902" id="node_0_4539" r="3"/><circle cx="165.22388059701473" cy="170.0" id="node_0_72" r="3"/><circle cx="167.61194029850725" cy="170.0" id="node_0_153" r="3"/><circle cx="172.08955223880574" cy="169.3334653684805" id="node_0_6336" r="3"/><circle cx="169.99999999999977" cy="170.0" id="node_0_92" r="3"/><circle cx="174.1791044776117" cy="169.51010201195174" id="node_0_3913" r="3"/><circle cx="172.3880597014923" cy="170.0" id="node_0_170" r="3"/><circle cx="175.97014925373108" cy="169.64686746619097" id="node_0_2152" r="3"/><circle cx="174.77611940298482" cy="170.0" id="node_0_26" r="3"/><circle cx="177.16417910447734" cy="170.0" id="node_0_151" r="3"/><circle cx="188.0130597014922" cy="160.14263141186206" id="node_0_21517" r="3"/><circle cx="181.34328358208927" cy="169.42553482961733" id="node_0_5124" r="3"/><circle cx="179.55223880596986" cy="170.0" id="node_0_189" r="3"/><circle cx="183.13432835820865" cy="169.5379322311322" id="node_0_3531" r="3"/><circle cx="181.9402985074624" cy="170.0" id="node_0_48" r="3"/><circle cx="184.3283582089549" cy="170.0" id="node_0_146" r="3"/><circle cx="194.68283582089515" cy="168.84239587017004" id="node_0_9292" r="3"/><circle cx="190.29850746268622" cy="169.50435877795098" id="node_0_3996" r="3"/><circle cx="187.9104477611937" cy="169.91189736711775" id="node_0_335" r="3"/><circle cx="186.71641791044743" cy="170.0" id="node_0_46" r="3"/><circle cx="189.10447761193996" cy="170.0" id="node_0_93" r="3"/><circle cx="192.68656716417874" cy="169.81951454660648" id="node_0_722" r="3"/><circle cx="191.49253731343248" cy="170.0" id="node_0_69" r="3"/><circle cx="193.880597014925" cy="170.0" id="node_0_142" r="3"/><circle cx="199.06716417910408" cy="169.2334582573515" id="node_0_7404" r="3"/><circle cx="196.26865671641752" cy="170.0" id="node_0_75" r="3"/><circle cx="201.86567164179064" cy="169.27507744871772" id="node_0_7009" r="3"/><circle cx="198.65671641791005" cy="170.0" id="node_0_175" r="3"/><circle cx="205.0746268656712" cy="169.30545581330477" id="node_0_6671" r="3"/><circle cx="202.23880597014883" cy="169.50629231757893" id="node_0_3969" r="3"/><circle cx="201.04477611940257" cy="170.0" id="node_0_136" r="3"/><circle cx="203.4328358208951" cy="170.0" id="node_0_198" r="3"/><circle cx="207.91044776119358" cy="169.31292980205686" id="node_0_6550" r="3"/><circle cx="205.82089552238762" cy="170.0" id="node_0_176" r="3"/><circle cx="209.99999999999955" cy="169.32703757129906" id="node_0_6394" r="3"/><circle cx="208.20895522388014" cy="170.0" id="node_0_125" r="3"/><circle cx="211.79104477611892" cy="169.9924464682537" id="node_0_201" r="3"/><circle cx="210.59701492537266" cy="170.0" id="node_0_37" r="3"/><circle cx="212.98507462686518" cy="170.0" id="node_0_162" r="3"/><circle cx="267.3606576492529" cy="146.43951563152848" id="node_0_26313" r="3"/><circle cx="222.98507462686513" cy="168.24237668785793" id="node_0_10686" r="3"/><circle cx="217.46268656716367" cy="169.41477078379802" id="node_0_5277" r="3"/><circle cx="215.3731343283577" cy="170.0" id="node_0_17" r="3"/><circle cx="219.55223880596964" cy="169.45784760143096" id="node_0_4633" r="3"/><circle cx="217.76119402985023" cy="170.0" id="node_0_81" r="3"/><circle cx="221.34328358208901" cy="169.65850495434316" id="node_0_2008" r="3"/><circle cx="220.14925373134275" cy="170.0" id="node_0_88" r="3"/><circle cx="222.53731343283528" cy="170.0" id="node_0_122" r="3"/><circle cx="228.50746268656658" cy="168.74702341199063" id="node_0_9567" r="3"/><circle cx="226.11940298507406" cy="169.54696845575032" id="node_0_3408" r="3"/><circle cx="224.9253731343278" cy="170.0" id="node_0_18" r="3"/><circle cx="227.31343283582032" cy="170.0" id="node_0_109" r="3"/><circle cx="230.8955223880591" cy="168.8711488323533" id="node_0_9196" r="3"/><circle cx="229.70149253731284" cy="170.0" id="node_0_35" r="3"/><circle cx="232.08955223880537" cy="170.0" id="node_0_73" r="3"/><circle cx="311.7362406716407" cy="159.51735128087586" id="node_0_22121" r="3"/><circle cx="241.71641791044712" cy="169.10137351039478" id="node_0_8242" r="3"/><circle cx="236.2686567164173" cy="169.738020096293" id="node_0_1294" r="3"/><circle cx="234.4776119402979" cy="170.0" id="node_0_167" r="3"/><circle cx="238.05970149253668" cy="169.7693131750176" id="node_0_1035" r="3"/><circle cx="236.8656716417904" cy="170.0" id="node_0_51" r="3"/><circle cx="239.25373134328294" cy="170.0" id="node_0_82" r="3"/><circle cx="247.16417910447694" cy="169.23608915486534" id="node_0_7381" r="3"/><circle cx="242.83582089552172" cy="169.60041140521747" id="node_0_2718" r="3"/><circle cx="241.64179104477546" cy="170.0" id="node_0_178" r="3"/><circle cx="244.02985074626798" cy="170.0" id="node_0_182" r="3"/><circle cx="251.49253731343214" cy="169.35839616036148" id="node_0_6040" r="3"/><circle cx="248.2089552238799" cy="169.7027888231456" id="node_0_1602" r="3"/><circle cx="246.4179104477605" cy="170.0" id="node_0_105" r="3"/><circle cx="249.9999999999993" cy="169.7704982634663" id="node_0_1028" r="3"/><circle cx="248.80597014925303" cy="170.0" id="node_0_22" r="3"/><circle cx="251.19402985074555" cy="170.0" id="node_0_197" r="3"/><circle cx="254.77611940298434" cy="169.46266644737295" id="node_0_4578" r="3"/><circle cx="253.58208955223807" cy="170.0" id="node_0_12" r="3"/><circle cx="255.9701492537306" cy="170.0" id="node_0_95" r="3"/><circle cx="381.7560634328343" cy="159.92332425621012" id="node_0_21737" r="3"/><circle cx="302.392723880596" cy="160.5200134517787" id="node_0_21119" r="3"/><circle cx="278.3208955223872" cy="165.70158836496637" id="node_0_13674" r="3"/><circle cx="270.2238805970141" cy="168.5449774007261" id="node_0_10086" r="3"/><circle cx="263.2835820895515" cy="169.23044976119246" id="node_0_7432" r="3"/><circle cx="259.5522388059694" cy="169.7275938397916" id="node_0_1365" r="3"/><circle cx="258.3582089552231" cy="170.0" id="node_0_108" r="3"/><circle cx="260.74626865671564" cy="170.0" id="node_0_112" r="3"/><circle cx="267.0149253731335" cy="169.35370395976477" id="node_0_6104" r="3"/><circle cx="264.32835820895446" cy="169.84229787125273" id="node_0_603" r="3"/><circle cx="263.13432835820817" cy="170.0" id="node_0_31" r="3"/><circle cx="265.5223880597007" cy="170.0" id="node_0_106" r="3"/><circle cx="269.70149253731256" cy="169.474791375734" id="node_0_4414" r="3"/><circle cx="267.9104477611932" cy="170.0" id="node_0_101" r="3"/><circle cx="271.49253731343197" cy="169.48819936885772" id="node_0_4250" r="3"/><circle cx="270.29850746268573" cy="170.0" id="node_0_8" r="3"/><circle cx="272.68656716417826" cy="170.0" id="node_0_114" r="3"/><circle cx="277.1641791044767" cy="169.2056099340196" id="node_0_7616" r="3"/><circle cx="275.0746268656708" cy="170.0" id="node_0_117" r="3"/><circle cx="279.25373134328265" cy="169.51868933979586" id="node_0_3774" r="3"/><circle cx="277.4626865671633" cy="170.0" id="node_0_1" r="3"/><circle cx="281.04477611940206" cy="169.99040550587017" id="node_0_203" r="3"/><circle cx="279.8507462686558" cy="170.0" id="node_0_156" r="3"/><circle cx="282.23880597014835" cy="170.0" id="node_0_174" r="3"/><circle cx="286.4179104477603" cy="167.41434011969184" id="node_0_11815" r="3"/><circle cx="284.62686567164087" cy="170.0" id="node_0_113" r="3"/><circle cx="288.2089552238797" cy="169.55706945149132" id="node_0_3269" r="3"/><circle cx="287.0149253731334" cy="170.0" id="node_0_5" r="3"/><circle cx="289.4029850746259" cy="170.0" id="node_0_38" r="3"/><circle cx="326.4645522388048" cy="162.05637840031247" id="node_0_19213" r="3"/><circle cx="295.89552238805874" cy="169.34213213550947" id="node_0_6251" r="3"/><circle cx="292.98507462686473" cy="169.9770953766031" id="node_0_212" r="3"/><circle cx="291.79104477611844" cy="170.0" id="node_0_15" r="3"/><circle cx="294.17910447761096" cy="170.0" id="node_0_30" r="3"/><circle cx="298.80597014925274" cy="169.65745303591396" id="node_0_2018" r="3"/><circle cx="296.5671641791035" cy="170.0" id="node_0_140" r="3"/><circle cx="301.04477611940194" cy="169.7514561221309" id="node_0_1184" r="3"/><circle cx="298.955223880596" cy="170.0" id="node_0_47" r="3"/><circle cx="303.1343283582079" cy="169.8850786379686" id="node_0_420" r="3"/><circle cx="301.34328358208853" cy="170.0" id="node_0_9" r="3"/><circle cx="304.9253731343273" cy="169.9884145920613" id="node_0_205" r="3"/><circle cx="303.73134328358105" cy="170.0" id="node_0_127" r="3"/><circle cx="306.1194029850736" cy="170.0" id="node_0_166" r="3"/><circle cx="357.03358208955086" cy="164.2733552202253" id="node_0_15847" r="3"/><circle cx="323.26492537313317" cy="164.4991658114859" id="node_0_15482" r="3"/><circle cx="312.08955223880486" cy="169.1193891062607" id="node_0_8143" r="3"/><circle cx="309.70149253731233" cy="169.29812937582258" id="node_0_6747" r="3"/><circle cx="308.5074626865661" cy="170.0" id="node_0_21" r="3"/><circle cx="310.8955223880586" cy="170.0" id="node_0_94" r="3"/><circle cx="314.4776119402974" cy="169.20636559519482" id="node_0_7610" r="3"/><circle cx="313.28358208955115" cy="170.0" id="node_0_116" r="3"/><circle cx="315.67164179104367" cy="170.0" id="node_0_148" r="3"/><circle cx="334.4402985074615" cy="168.34341209947848" id="node_0_10501" r="3"/><circle cx="320.82089552238693" cy="168.61015409759162" id="node_0_9936" r="3"/><circle cx="318.0597014925362" cy="170.0" id="node_0_41" r="3"/><circle cx="323.5820895522377" cy="168.6313123522474" id="node_0_9884" r="3"/><circle cx="320.4477611940287" cy="170.0" id="node_0_54" r="3"/><circle cx="326.7164179104466" cy="168.68495839031291" id="node_0_9740" r="3"/><circle cx="324.02985074626747" cy="169.7355076006903" id="node_0_1305" r="3"/><circle cx="322.83582089552124" cy="170.0" id="node_0_59" r="3"/><circle cx="325.22388059701376" cy="170.0" id="node_0_139" r="3"/><circle cx="329.4029850746257" cy="169.70448758494211" id="node_0_1586" r="3"/><circle cx="327.6119402985063" cy="170.0" id="node_0_158" r="3"/><circle cx="331.1940298507451" cy="169.78951184486925" id="node_0_895" r="3"/><circle cx="329.9999999999988" cy="170.0" id="node_0_80" r="3"/><circle cx="332.38805970149133" cy="170.0" id="node_0_96" r="3"/><circle cx="348.059701492536" cy="168.54193143931303" id="node_0_10088" r="3"/><circle cx="337.9104477611928" cy="169.16267463284532" id="node_0_7881" r="3"/><circle cx="334.77611940298385" cy="170.0" id="node_0_39" r="3"/><circle cx="341.0447761194017" cy="169.44097976672788" id="node_0_4903" r="3"/><circle cx="337.1641791044764" cy="170.0" id="node_0_53" r="3"/><circle cx="344.92537313432706" cy="169.55502907647823" id="node_0_3296" r="3"/><circle cx="341.34328358208825" cy="169.76828015574407" id="node_0_1043" r="3"/><circle cx="339.5522388059689" cy="170.0" id="node_0_107" r="3"/><circle cx="343.13432835820765" cy="169.87414710698752" id="node_0_459" r="3"/><circle cx="341.9402985074614" cy="170.0" id="node_0_104" r="3"/><circle cx="344.32835820895394" cy="170.0" id="node_0_133" r="3"/><circle cx="348.5074626865659" cy="169.60799623591072" id="node_0_2605" r="3"/><circle cx="346.71641791044647" cy="170.0" id="node_0_6" r="3"/><circle cx="350.2985074626853" cy="169.8900597456399" id="node_0_398" r="3"/><circle cx="349.104477611939" cy="170.0" id="node_0_2" r="3"/><circle cx="351.4925373134315" cy="170.0" id="node_0_71" r="3"/><circle cx="358.20895522387923" cy="168.7827797869271" id="node_0_9483" r="3"/><circle cx="353.88059701492404" cy="170.0" id="node_0_161" r="3"/><circle cx="362.5373134328345" cy="169.21376782241458" id="node_0_7567" r="3"/><circle cx="358.05970149253596" cy="169.46911607500428" id="node_0_4501" r="3"/><circle cx="356.26865671641656" cy="170.0" id="node_0_130" r="3"/><circle cx="359.85074626865537" cy="169.80644870878245" id="node_0_784" r="3"/><circle cx="358.6567164179091" cy="170.0" id="node_0_61" r="3"/><circle cx="361.0447761194016" cy="170.0" id="node_0_83" r="3"/><circle cx="367.01492537313294" cy="169.45221848131973" id="node_0_4722" r="3"/><circle cx="364.6268656716404" cy="169.8933654492742" id="node_0_387" r="3"/><circle cx="363.4328358208941" cy="170.0" id="node_0_33" r="3"/><circle cx="365.82089552238665" cy="170.0" id="node_0_89" r="3"/><circle cx="369.40298507462546" cy="169.7626777087239" id="node_0_1085" r="3"/><circle cx="368.2089552238792" cy="170.0" id="node_0_138" r="3"/><circle cx="370.5970149253717" cy="170.0" id="node_0_144" r="3"/><circle cx="390.80223880596856" cy="164.46503637743334" id="node_0_15538" r="3"/><circle cx="374.77611940298357" cy="169.01010431159253" id="node_0_8647" r="3"/><circle cx="372.9850746268642" cy="170.0" id="node_0_163" r="3"/><circle cx="376.567164179103" cy="169.64583637837347" id="node_0_2164" r="3"/><circle cx="375.37313432835674" cy="170.0" id="node_0_118" r="3"/><circle cx="377.76119402984926" cy="170.0" id="node_0_159" r="3"/><circle cx="406.82835820895355" cy="168.16898825917062" id="node_0_10810" r="3"/><circle cx="395.8208955223864" cy="168.68919497854526" id="node_0_9726" r="3"/><circle cx="388.208955223879" cy="169.14770808470735" id="node_0_7970" r="3"/><circle cx="383.73134328358054" cy="169.3409927090164" id="node_0_6264" r="3"/><circle cx="381.343283582088" cy="169.640746021966" id="node_0_2231" r="3"/><circle cx="380.1492537313418" cy="170.0" id="node_0_124" r="3"/><circle cx="382.5373134328343" cy="170.0" id="node_0_183" r="3"/><circle cx="386.11940298507307" cy="169.38610422677425" id="node_0_5657" r="3"/><circle cx="384.92537313432683" cy="170.0" id="node_0_16" r="3"/><circle cx="387.31343283581936" cy="170.0" id="node_0_91" r="3"/><circle cx="392.6865671641775" cy="169.2612950098828" id="node_0_7150" r="3"/><circle cx="389.7014925373119" cy="170.0" id="node_0_155" r="3"/><circle cx="395.6716417910432" cy="169.2715975000439" id="node_0_7056" r="3"/><circle cx="393.2835820895507" cy="169.80967760584429" id="node_0_769" r="3"/><circle cx="392.0895522388044" cy="170.0" id="node_0_90" r="3"/><circle cx="394.4776119402969" cy="170.0" id="node_0_184" r="3"/><circle cx="398.05970149253574" cy="169.3116064840844" id="node_0_6571" r="3"/><circle cx="396.86567164178945" cy="170.0" id="node_0_44" r="3"/><circle cx="399.25373134328197" cy="170.0" id="node_0_76" r="3"/><circle cx="403.43283582089384" cy="169.14343196352377" id="node_0_8004" r="3"/><circle cx="401.6417910447745" cy="170.0" id="node_0_165" r="3"/><circle cx="405.22388059701325" cy="169.3615952419667" id="node_0_5994" r="3"/><circle cx="404.029850746267" cy="170.0" id="node_0_34" r="3"/><circle cx="406.41791044775954" cy="170.0" id="node_0_77" r="3"/><circle cx="417.83582089552067" cy="168.66659193810386" id="node_0_9792" r="3"/><circle cx="411.0447761194013" cy="169.08226764831693" id="node_0_8336" r="3"/><circle cx="408.80597014925206" cy="170.0" id="node_0_128" r="3"/><circle cx="413.2835820895506" cy="169.12128131443865" id="node_0_8131" r="3"/><circle cx="411.1940298507446" cy="170.0" id="node_0_10" r="3"/><circle cx="415.3731343283565" cy="169.1713946411627" id="node_0_7824" r="3"/><circle cx="413.5820895522371" cy="170.0" id="node_0_79" r="3"/><circle cx="417.1641791044759" cy="169.24655659221744" id="node_0_7299" r="3"/><circle cx="415.97014925372963" cy="170.0" id="node_0_132" r="3"/><circle cx="418.35820895522215" cy="170.0" id="node_0_185" r="3"/><circle cx="424.62686567164" cy="169.04669548645543" id="node_0_8487" r="3"/><circle cx="421.94029850746097" cy="169.48207012009414" id="node_0_4325" r="3"/><circle cx="420.7462686567147" cy="170.0" id="node_0_120" r="3"/><circle cx="423.1343283582072" cy="170.0" id="node_0_137" r="3"/><circle cx="427.31343283581907" cy="169.36475223156336" id="node_0_5946" r="3"/><circle cx="425.5223880596997" cy="170.0" id="node_0_135" r="3"/><circle cx="429.1044776119385" cy="169.39446747646693" id="node_0_5551" r="3"/><circle cx="427.91044776119224" cy="170.0" id="node_0_20" r="3"/><circle cx="430.29850746268477" cy="170.0" id="node_0_196" r="3"/><circle cx="461.1194029850726" cy="160.30131248850623" id="node_0_21335" r="3"/><circle cx="447.089552238804" cy="168.7341426197041" id="node_0_9604" r="3"/><circle cx="435.8208955223862" cy="168.88736811684007" id="node_0_9132" r="3"/><circle cx="432.6865671641773" cy="170.0" id="node_0_152" r="3"/><circle cx="438.95522388059516" cy="169.15645019146538" id="node_0_7924" r="3"/><circle cx="436.2686567164161" cy="169.54740661789353" id="node_0_3398" r="3"/><circle cx="435.0746268656698" cy="170.0" id="node_0_100" r="3"/><circle cx="437.46268656716234" cy="170.0" id="node_0_141" r="3"/><circle cx="441.6417910447742" cy="169.20951243221717" id="node_0_7585" r="3"/><circle cx="439.85074626865486" cy="170.0" id="node_0_186" r="3"/><circle cx="443.4328358208936" cy="169.63079089894498" id="node_0_2336" r="3"/><circle cx="442.2388059701474" cy="170.0" id="node_0_11" r="3"/><circle cx="444.6268656716399" cy="170.0" id="node_0_134" r="3"/><circle cx="458.35820895522187" cy="168.74501553983964" id="node_0_9575" r="3"/><circle cx="454.17910447760994" cy="169.37851295177356" id="node_0_5775" r="3"/><circle cx="450.5970149253712" cy="169.47800599339428" id="node_0_4371" r="3"/><circle cx="448.20895522387866" cy="169.87551487094868" id="node_0_456" r="3"/><circle cx="447.0149253731324" cy="170.0" id="node_0_14" r="3"/><circle cx="449.40298507462495" cy="170.0" id="node_0_192" r="3"/><circle cx="452.9850746268637" cy="169.5556649801999" id="node_0_3285" r="3"/><circle cx="451.7910447761175" cy="170.0" id="node_0_4" r="3"/><circle cx="454.17910447761" cy="170.0" id="node_0_173" r="3"/><circle cx="457.76119402984875" cy="169.45221204623763" id="node_0_4723" r="3"/><circle cx="456.5671641791025" cy="170.0" id="node_0_25" r="3"/><circle cx="458.95522388059504" cy="170.0" id="node_0_97" r="3"/><circle cx="462.5373134328338" cy="169.23181897269396" id="node_0_7420" r="3"/><circle cx="461.34328358208757" cy="170.0" id="node_0_85" r="3"/><circle cx="463.7313432835801" cy="170.0" id="node_0_111" r="3"/><circle cx="475.1492537313412" cy="163.89960026116415" id="node_0_16423" r="3"/><circle cx="468.35820895522187" cy="168.65057976845685" id="node_0_9828" r="3"/><circle cx="466.1194029850726" cy="170.0" id="node_0_121" r="3"/><circle cx="470.5970149253711" cy="169.32373909237063" id="node_0_6424" r="3"/><circle cx="468.50746268656513" cy="170.0" id="node_0_56" r="3"/><circle cx="472.68656716417706" cy="169.53238137254465" id="node_0_3597" r="3"/><circle cx="470.89552238805766" cy="170.0" id="node_0_98" r="3"/><circle cx="474.47761194029647" cy="169.74935767225105" id="node_0_1204" r="3"/><circle cx="473.2835820895502" cy="170.0" id="node_0_67" r="3"/><circle cx="475.6716417910427" cy="170.0" id="node_0_86" r="3"/><circle cx="481.94029850746057" cy="168.17069166727282" id="node_0_10808" r="3"/><circle cx="479.2537313432815" cy="169.4326804132422" id="node_0_5016" r="3"/><circle cx="478.0597014925352" cy="170.0" id="node_0_154" r="3"/><circle cx="480.44776119402775" cy="170.0" id="node_0_194" r="3"/><circle cx="484.6268656716396" cy="169.15997386932466" id="node_0_7894" r="3"/><circle cx="482.83582089552027" cy="170.0" id="node_0_40" r="3"/><circle cx="486.417910447759" cy="169.92990583784783" id="node_0_298" r="3"/><circle cx="485.2238805970128" cy="170.0" id="node_0_60" r="3"/><circle cx="487.6119402985053" cy="170.0" id="node_0_103" r="3"/></g><g class="mutations" fill="red"/></g><g font-size="14" id="labels"><g class="nodes"><g text-anchor="start"><text x="23.050373134328357" y="164.0840911727244"/><text x="26.32462686567164" y="164.32019967486667"/><text x="29.291044776119403" y="164.3420735734549"/><text x="31.64179104477612" y="164.35141169326766"/><text x="33.95522388059702" y="164.4628181714446"/><text x="36.19402985074627" y="164.87073150542867"/><text x="38.28358208955224" y="164.8918393460458"/><text x="40.07462686567164" y="164.96497987044876"/><text x="68.125" y="153.51910725424247"/><text x="48.134328358208954" y="164.50815636063413"/><text x="50.223880597014926" y="164.8398146908131"/><text x="52.014925373134325" y="164.84021041951968"/><text x="60.186567164179095" y="163.5528802918708"/><text x="63.5820895522388" y="163.6825445009784"/><text x="66.79104477611939" y="163.8444708406111"/><text x="69.62686567164178" y="164.33579178264864"/><text x="71.71641791044775" y="164.52271094488844"/><text x="73.50746268656715" y="164.9576292419741"/><text x="83.2089552238806" y="156.17480599795306"/><text x="88.13432835820896" y="163.84798753601584"/><text x="85.44776119402985" y="164.84469034217486"/><text x="92.61194029850746" y="164.2289118557849"/><text x="95.0" y="164.37993412002393"/><text x="212.34200093283533" y="58.78897874256744"/><text x="102.1641791044776" y="164.5800871796222"/><text x="106.94029850746267" y="164.21509546789665"/><text x="119.6105410447761" y="156.24572891809993"/><text x="128.6986940298507" y="159.1720483093052"/><text x="119.47761194029849" y="164.24315442314608"/><text x="121.2686567164179" y="164.4679247102687"/><text x="140.60634328358202" y="160.36917014875004"/><text x="129.58955223880596" y="164.26998298790656"/><text x="131.94029850746267" y="164.31650603855888"/><text x="134.25373134328356" y="164.43142686918392"/><text x="136.49253731343282" y="164.4739921201847"/><text x="138.5820895522388" y="164.66550625025215"/><text x="140.3731343283582" y="164.7134819510753"/><text x="153.99253731343273" y="163.92004979426616"/><text x="147.53731343283576" y="164.53670990630076"/><text x="162.2388059701491" y="164.15502178065114"/><text x="155.29850746268647" y="164.86381991197217"/><text x="157.08955223880585" y="164.94274489245342"/><text x="171.2686567164177" y="164.31172384148638"/><text x="169.02985074626847" y="164.40556561822694"/><text x="171.417910447761" y="164.4656517489902"/><text x="177.08955223880574" y="164.3334653684805"/><text x="179.1791044776117" y="164.51010201195174"/><text x="180.97014925373108" y="164.64686746619097"/><text x="193.0130597014922" y="155.14263141186206"/><text x="188.13432835820865" y="164.5379322311322"/><text x="199.68283582089515" y="163.84239587017004"/><text x="197.68656716417874" y="164.81951454660648"/><text x="204.06716417910408" y="164.2334582573515"/><text x="206.86567164179064" y="164.27507744871772"/><text x="210.0746268656712" y="164.30545581330477"/><text x="212.91044776119358" y="164.31292980205686"/><text x="214.99999999999955" y="164.32703757129906"/><text x="216.79104477611892" y="164.9924464682537"/><text x="272.3606576492529" y="141.43951563152848"/><text x="224.55223880596964" y="164.45784760143096"/><text x="226.34328358208901" y="164.65850495434316"/><text x="233.50746268656658" y="163.74702341199063"/><text x="235.8955223880591" y="163.8711488323533"/><text x="316.7362406716407" y="154.51735128087586"/><text x="243.05970149253668" y="164.7693131750176"/><text x="252.16417910447694" y="164.23608915486534"/><text x="256.49253731343214" y="164.35839616036148"/><text x="254.9999999999993" y="164.7704982634663"/><text x="259.77611940298436" y="164.46266644737295"/><text x="386.7560634328343" y="154.92332425621012"/><text x="272.0149253731335" y="164.35370395976477"/><text x="274.70149253731256" y="164.474791375734"/><text x="276.49253731343197" y="164.48819936885772"/><text x="282.1641791044767" y="164.2056099340196"/><text x="284.25373134328265" y="164.51868933979586"/><text x="286.04477611940206" y="164.99040550587017"/><text x="291.4179104477603" y="162.41434011969184"/><text x="293.2089552238797" y="164.55706945149132"/><text x="331.4645522388048" y="157.05637840031247"/><text x="303.80597014925274" y="164.65745303591396"/><text x="306.04477611940194" y="164.7514561221309"/><text x="308.1343283582079" y="164.8850786379686"/><text x="309.9253731343273" y="164.9884145920613"/><text x="362.03358208955086" y="159.2733552202253"/><text x="319.4776119402974" y="164.20636559519482"/><text x="339.4402985074615" y="163.34341209947848"/><text x="328.5820895522377" y="163.6313123522474"/><text x="331.7164179104466" y="163.68495839031291"/><text x="334.4029850746257" y="164.70448758494211"/><text x="336.1940298507451" y="164.78951184486925"/><text x="353.059701492536" y="163.54193143931303"/><text x="346.0447761194017" y="164.44097976672788"/><text x="349.92537313432706" y="164.55502907647823"/><text x="348.13432835820765" y="164.87414710698752"/><text x="353.5074626865659" y="164.60799623591072"/><text x="355.2985074626853" y="164.8900597456399"/><text x="363.20895522387923" y="163.7827797869271"/><text x="367.5373134328345" y="164.21376782241458"/><text x="364.85074626865537" y="164.80644870878245"/><text x="372.01492537313294" y="164.45221848131973"/><text x="374.40298507462546" y="164.7626777087239"/><text x="395.80223880596856" y="159.46503637743334"/><text x="381.567164179103" y="164.64583637837347"/><text x="411.82835820895355" y="163.16898825917062"/><text x="391.11940298507307" y="164.38610422677425"/><text x="397.6865671641775" y="164.2612950098828"/><text x="400.6716417910432" y="164.2715975000439"/><text x="403.05970149253574" y="164.3116064840844"/><text x="408.43283582089384" y="164.14343196352377"/><text x="410.22388059701325" y="164.3615952419667"/><text x="422.83582089552067" y="163.66659193810386"/><text x="418.2835820895506" y="164.12128131443865"/><text x="420.3731343283565" y="164.1713946411627"/><text x="422.1641791044759" y="164.24655659221744"/><text x="429.62686567164" y="164.04669548645543"/><text x="432.31343283581907" y="164.36475223156336"/><text x="434.1044776119385" y="164.39446747646693"/><text x="466.1194029850726" y="155.30131248850623"/><text x="443.95522388059516" y="164.15645019146538"/><text x="446.6417910447742" y="164.20951243221717"/><text x="448.4328358208936" y="164.63079089894498"/><text x="463.35820895522187" y="163.74501553983964"/><text x="457.9850746268637" y="164.5556649801999"/><text x="462.76119402984875" y="164.45221204623763"/><text x="467.5373134328338" y="164.23181897269396"/><text x="480.1492537313412" y="158.89960026116415"/><text x="475.5970149253711" y="164.32373909237063"/><text x="477.68656716417706" y="164.53238137254465"/><text x="479.47761194029647" y="164.74935767225105"/><text x="486.94029850746057" y="163.17069166727282"/><text x="489.6268656716396" y="164.15997386932466"/><text x="491.417910447759" y="164.92990583784783"/></g><g text-anchor="middle"><text x="123.25705457089528" y="25.0"/><text x="12.388059701492537" y="190.0"/><text x="14.776119402985074" y="190.0"/><text x="17.16417910447761" y="190.0"/><text x="19.55223880597015" y="190.0"/><text x="21.940298507462686" y="190.0"/><text x="24.328358208955223" y="190.0"/><text x="26.71641791044776" y="190.0"/><text x="29.104477611940297" y="190.0"/><text x="31.492537313432834" y="190.0"/><text x="33.88059701492537" y="190.0"/><text x="36.26865671641791" y="190.0"/><text x="38.656716417910445" y="190.0"/><text x="41.04477611940298" y="190.0"/><text x="43.43283582089552" y="190.0"/><text x="45.82089552238806" y="190.0"/><text x="48.208955223880594" y="190.0"/><text x="50.59701492537313" y="190.0"/><text x="52.98507462686567" y="190.0"/><text x="55.373134328358205" y="190.0"/><text x="57.76119402985074" y="190.0"/><text x="60.14925373134328" y="190.0"/><text x="62.537313432835816" y="190.0"/><text x="64.92537313432835" y="190.0"/><text x="67.31343283582089" y="190.0"/><text x="69.70149253731343" y="190.0"/><text x="72.08955223880596" y="190.0"/><text x="74.4776119402985" y="190.0"/><text x="76.86567164179104" y="190.0"/><text x="79.25373134328358" y="190.0"/><text x="81.64179104477611" y="190.0"/><text x="84.02985074626865" y="190.0"/><text x="86.41791044776119" y="190.0"/><text x="88.80597014925372" y="190.0"/><text x="91.19402985074626" y="190.0"/><text x="93.5820895522388" y="190.0"/><text x="95.97014925373134" y="190.0"/><text x="98.35820895522387" y="190.0"/><text x="100.74626865671641" y="190.0"/><text x="103.13432835820895" y="190.0"/><text x="105.52238805970148" y="190.0"/><text x="107.91044776119402" y="190.0"/><text x="110.29850746268656" y="190.0"/><text x="112.6865671641791" y="190.0"/><text x="115.07462686567163" y="190.0"/><text x="117.46268656716417" y="190.0"/><text x="119.8507462686567" y="190.0"/><text x="122.23880597014924" y="190.0"/><text x="124.62686567164178" y="190.0"/><text x="127.01492537313432" y="190.0"/><text x="129.40298507462686" y="190.0"/><text x="131.7910447761194" y="190.0"/><text x="134.17910447761193" y="190.0"/><text x="136.56716417910445" y="190.0"/><text x="138.95522388059698" y="190.0"/><text x="141.3432835820895" y="190.0"/><text x="143.73134328358202" y="190.0"/><text x="146.11940298507454" y="190.0"/><text x="148.50746268656707" y="190.0"/><text x="150.8955223880596" y="190.0"/><text x="153.2835820895521" y="190.0"/><text x="155.67164179104464" y="190.0"/><text x="158.05970149253716" y="190.0"/><text x="160.44776119402968" y="190.0"/><text x="162.8358208955222" y="190.0"/><text x="165.22388059701473" y="190.0"/><text x="167.61194029850725" y="190.0"/><text x="169.99999999999977" y="190.0"/><text x="172.3880597014923" y="190.0"/><text x="174.77611940298482" y="190.0"/><text x="177.16417910447734" y="190.0"/><text x="179.55223880596986" y="190.0"/><text x="181.9402985074624" y="190.0"/><text x="184.3283582089549" y="190.0"/><text x="186.71641791044743" y="190.0"/><text x="189.10447761193996" y="190.0"/><text x="191.49253731343248" y="190.0"/><text x="193.880597014925" y="190.0"/><text x="196.26865671641752" y="190.0"/><text x="198.65671641791005" y="190.0"/><text x="201.04477611940257" y="190.0"/><text x="203.4328358208951" y="190.0"/><text x="205.82089552238762" y="190.0"/><text x="208.20895522388014" y="190.0"/><text x="210.59701492537266" y="190.0"/><text x="212.98507462686518" y="190.0"/><text x="215.3731343283577" y="190.0"/><text x="217.76119402985023" y="190.0"/><text x="220.14925373134275" y="190.0"/><text x="222.53731343283528" y="190.0"/><text x="224.9253731343278" y="190.0"/><text x="227.31343283582032" y="190.0"/><text x="229.70149253731284" y="190.0"/><text x="232.08955223880537" y="190.0"/><text x="234.4776119402979" y="190.0"/><text x="236.8656716417904" y="190.0"/><text x="239.25373134328294" y="190.0"/><text x="241.64179104477546" y="190.0"/><text x="244.02985074626798" y="190.0"/><text x="246.4179104477605" y="190.0"/><text x="248.80597014925303" y="190.0"/><text x="251.19402985074555" y="190.0"/><text x="253.58208955223807" y="190.0"/><text x="255.9701492537306" y="190.0"/><text x="258.3582089552231" y="190.0"/><text x="260.74626865671564" y="190.0"/><text x="263.13432835820817" y="190.0"/><text x="265.5223880597007" y="190.0"/><text x="267.9104477611932" y="190.0"/><text x="270.29850746268573" y="190.0"/><text x="272.68656716417826" y="190.0"/><text x="275.0746268656708" y="190.0"/><text x="277.4626865671633" y="190.0"/><text x="279.8507462686558" y="190.0"/><text x="282.23880597014835" y="190.0"/><text x="284.62686567164087" y="190.0"/><text x="287.0149253731334" y="190.0"/><text x="289.4029850746259" y="190.0"/><text x="291.79104477611844" y="190.0"/><text x="294.17910447761096" y="190.0"/><text x="296.5671641791035" y="190.0"/><text x="298.955223880596" y="190.0"/><text x="301.34328358208853" y="190.0"/><text x="303.73134328358105" y="190.0"/><text x="306.1194029850736" y="190.0"/><text x="308.5074626865661" y="190.0"/><text x="310.8955223880586" y="190.0"/><text x="313.28358208955115" y="190.0"/><text x="315.67164179104367" y="190.0"/><text x="318.0597014925362" y="190.0"/><text x="320.4477611940287" y="190.0"/><text x="322.83582089552124" y="190.0"/><text x="325.22388059701376" y="190.0"/><text x="327.6119402985063" y="190.0"/><text x="329.9999999999988" y="190.0"/><text x="332.38805970149133" y="190.0"/><text x="334.77611940298385" y="190.0"/><text x="337.1641791044764" y="190.0"/><text x="339.5522388059689" y="190.0"/><text x="341.9402985074614" y="190.0"/><text x="344.32835820895394" y="190.0"/><text x="346.71641791044647" y="190.0"/><text x="349.104477611939" y="190.0"/><text x="351.4925373134315" y="190.0"/><text x="353.88059701492404" y="190.0"/><text x="356.26865671641656" y="190.0"/><text x="358.6567164179091" y="190.0"/><text x="361.0447761194016" y="190.0"/><text x="363.4328358208941" y="190.0"/><text x="365.82089552238665" y="190.0"/><text x="368.2089552238792" y="190.0"/><text x="370.5970149253717" y="190.0"/><text x="372.9850746268642" y="190.0"/><text x="375.37313432835674" y="190.0"/><text x="377.76119402984926" y="190.0"/><text x="380.1492537313418" y="190.0"/><text x="382.5373134328343" y="190.0"/><text x="384.92537313432683" y="190.0"/><text x="387.31343283581936" y="190.0"/><text x="389.7014925373119" y="190.0"/><text x="392.0895522388044" y="190.0"/><text x="394.4776119402969" y="190.0"/><text x="396.86567164178945" y="190.0"/><text x="399.25373134328197" y="190.0"/><text x="401.6417910447745" y="190.0"/><text x="404.029850746267" y="190.0"/><text x="406.41791044775954" y="190.0"/><text x="408.80597014925206" y="190.0"/><text x="411.1940298507446" y="190.0"/><text x="413.5820895522371" y="190.0"/><text x="415.97014925372963" y="190.0"/><text x="418.35820895522215" y="190.0"/><text x="420.7462686567147" y="190.0"/><text x="423.1343283582072" y="190.0"/><text x="425.5223880596997" y="190.0"/><text x="427.91044776119224" y="190.0"/><text x="430.29850746268477" y="190.0"/><text x="432.6865671641773" y="190.0"/><text x="435.0746268656698" y="190.0"/><text x="437.46268656716234" y="190.0"/><text x="439.85074626865486" y="190.0"/><text x="442.2388059701474" y="190.0"/><text x="444.6268656716399" y="190.0"/><text x="447.0149253731324" y="190.0"/><text x="449.40298507462495" y="190.0"/><text x="451.7910447761175" y="190.0"/><text x="454.17910447761" y="190.0"/><text x="456.5671641791025" y="190.0"/><text x="458.95522388059504" y="190.0"/><text x="461.34328358208757" y="190.0"/><text x="463.7313432835801" y="190.0"/><text x="466.1194029850726" y="190.0"/><text x="468.50746268656513" y="190.0"/><text x="470.89552238805766" y="190.0"/><text x="473.2835820895502" y="190.0"/><text x="475.6716417910427" y="190.0"/><text x="478.0597014925352" y="190.0"/><text x="480.44776119402775" y="190.0"/><text x="482.83582089552027" y="190.0"/><text x="485.2238805970128" y="190.0"/><text x="487.6119402985053" y="190.0"/></g><g text-anchor="end"><text x="34.17210820895522" y="112.92398133320648"/><text x="10.219216417910447" y="162.66463098586337"/><text x="13.35820895522388" y="164.95327774849304"/><text x="43.0410447761194" y="162.83594007765976"/><text x="35.8955223880597" y="164.2581877957357"/><text x="46.7910447761194" y="164.66819426806364"/><text x="53.95522388059701" y="164.7282490500338"/><text x="68.28358208955223" y="164.55465586921486"/><text x="73.65671641791045" y="164.29216510372504"/><text x="80.22388059701493" y="164.97638113515538"/><text x="142.32334421641775" y="153.28812640232638"/><text x="101.63362873134326" y="156.01256830915915"/><text x="93.65671641791043" y="164.12820539808496"/><text x="90.37313432835819" y="164.49591024646548"/><text x="106.79104477611939" y="161.23109321707932"/><text x="104.1044776119403" y="164.5160337922708"/><text x="117.22014925373134" y="164.07234312796163"/><text x="135.74626865671638" y="164.41036224738633"/><text x="143.2089552238805" y="164.37794612818809"/><text x="155.44776119402968" y="164.38735891552113"/><text x="151.8656716417909" y="164.5314378710276"/><text x="156.64179104477594" y="164.55393053780836"/><text x="176.34328358208927" y="164.42553482961733"/><text x="185.29850746268622" y="164.50435877795098"/><text x="182.9104477611937" y="164.91189736711775"/><text x="197.23880597014883" y="164.50629231757893"/><text x="217.98507462686513" y="163.24237668785793"/><text x="212.46268656716367" y="164.41477078379802"/><text x="221.11940298507406" y="164.54696845575032"/><text x="236.71641791044712" y="164.10137351039478"/><text x="231.2686567164173" y="164.738020096293"/><text x="237.83582089552172" y="164.60041140521747"/><text x="243.2089552238799" y="164.7027888231456"/><text x="297.392723880596" y="155.5200134517787"/><text x="273.3208955223872" y="160.70158836496637"/><text x="265.2238805970141" y="163.5449774007261"/><text x="258.2835820895515" y="164.23044976119246"/><text x="254.5522388059694" y="164.7275938397916"/><text x="259.32835820895446" y="164.84229787125273"/><text x="290.89552238805874" y="164.34213213550947"/><text x="287.98507462686473" y="164.9770953766031"/><text x="318.26492537313317" y="159.4991658114859"/><text x="307.08955223880486" y="164.1193891062607"/><text x="304.70149253731233" y="164.29812937582258"/><text x="315.82089552238693" y="163.61015409759162"/><text x="319.02985074626747" y="164.7355076006903"/><text x="332.9104477611928" y="164.16267463284532"/><text x="336.34328358208825" y="164.76828015574407"/><text x="353.05970149253596" y="164.46911607500428"/><text x="359.6268656716404" y="164.8933654492742"/><text x="369.77611940298357" y="164.01010431159253"/><text x="390.8208955223864" y="163.68919497854526"/><text x="383.208955223879" y="164.14770808470735"/><text x="378.73134328358054" y="164.3409927090164"/><text x="376.343283582088" y="164.640746021966"/><text x="388.2835820895507" y="164.80967760584429"/><text x="406.0447761194013" y="164.08226764831693"/><text x="416.94029850746097" y="164.48207012009414"/><text x="442.089552238804" y="163.7341426197041"/><text x="430.8208955223862" y="163.88736811684007"/><text x="431.2686567164161" y="164.54740661789353"/><text x="449.17910447760994" y="164.37851295177356"/><text x="445.5970149253712" y="164.47800599339428"/><text x="443.20895522387866" y="164.87551487094868"/><text x="463.35820895522187" y="163.65057976845685"/><text x="474.2537313432815" y="164.4326804132422"/></g></g><g class="mutations" font-style="italic"><g text-anchor="start"/><g text-anchor="end"/></g></g></g></svg>