<?xml version="1.0" encoding="utf-8" standalone="no"?>
<!DOCTYPE svg PUBLIC "-//W3C//DTD SVG 1.1//EN"
  "http://www.w3.org/Graphics/SVG/1.1/DTD/svg11.dtd">
<!-- Created with matplotlib (https://matplotlib.org/) -->
<svg height="280.8pt" version="1.1" viewBox="0 0 280.802019 280.8" width="280.802019pt" xmlns="http://www.w3.org/2000/svg" xmlns:xlink="http://www.w3.org/1999/xlink">
 <defs>
  <style type="text/css">
*{stroke-linecap:butt;stroke-linejoin:round;}
  </style>
 </defs>
 <g id="figure_1">
  <g id="patch_1">
   <path d="M 0 280.8 
L 280.802019 280.8 
L 280.802019 0 
L 0 0 
z
" style="fill:#ffffff;"/>
  </g>
  <g id="axes_1">
   <g id="patch_2">
    <path d="M 47.534499 244.888647 
L 270.690088 244.888647 
L 270.690088 17.202655 
L 47.534499 17.202655 
z
" style="fill:#ffffff;"/>
   </g>
   <g id="PathCollection_1">
    <defs>
     <path d="M 0 3 
C 0.795609 3 1.55874 2.683901 2.12132 2.12132 
C 2.683901 1.55874 3 0.795609 3 0 
C 3 -0.795609 2.683901 -1.55874 2.12132 -2.12132 
C 1.55874 -2.683901 0.795609 -3 0 -3 
C -0.795609 -3 -1.55874 -2.683901 -2.12132 -2.12132 
C -2.683901 -1.55874 -3 -0.795609 -3 0 
C -3 0.795609 -2.683901 1.55874 -2.12132 2.12132 
C -1.55874 2.683901 -0.795609 3 0 3 
z
" id="C0_0_599ce77f9b"/>
    </defs>
    <g clip-path="url(#peecc5021b6)">
     <use style="fill:#1f77b4;stroke:#ffffff;stroke-width:0.75;" x="147.328512" xlink:href="#C0_0_599ce77f9b" y="190.355512"/>
    </g>
    <g clip-path="url(#peecc5021b6)">
     <use style="fill:#1f77b4;stroke:#ffffff;stroke-width:0.75;" x="166.271122" xlink:href="#C0_0_599ce77f9b" y="211.503344"/>
    </g>
    <g clip-path="url(#peecc5021b6)">
     <use style="fill:#1f77b4;stroke:#ffffff;stroke-width:0.75;" x="217.107998" xlink:href="#C0_0_599ce77f9b" y="199.887459"/>
    </g>
    <g clip-path="url(#peecc5021b6)">
     <use style="fill:#1f77b4;stroke:#ffffff;stroke-width:0.75;" x="209.28329" xlink:href="#C0_0_599ce77f9b" y="234.539283"/>
    </g>
    <g clip-path="url(#peecc5021b6)">
     <use style="fill:#1f77b4;stroke:#ffffff;stroke-width:0.75;" x="156.730513" xlink:href="#C0_0_599ce77f9b" y="225.401272"/>
    </g>
    <g clip-path="url(#peecc5021b6)">
     <use style="fill:#1f77b4;stroke:#ffffff;stroke-width:0.75;" x="252.67405" xlink:href="#C0_0_599ce77f9b" y="203.99837"/>
    </g>
    <g clip-path="url(#peecc5021b6)">
     <use style="fill:#1f77b4;stroke:#ffffff;stroke-width:0.75;" x="212.356149" xlink:href="#C0_0_599ce77f9b" y="201.574601"/>
    </g>
    <g clip-path="url(#peecc5021b6)">
     <use style="fill:#ff7f0e;stroke:#ffffff;stroke-width:0.75;" x="225.707811" xlink:href="#C0_0_599ce77f9b" y="119.18508"/>
    </g>
    <g clip-path="url(#peecc5021b6)">
     <use style="fill:#ff7f0e;stroke:#ffffff;stroke-width:0.75;" x="213.738001" xlink:href="#C0_0_599ce77f9b" y="66.527232"/>
    </g>
    <g clip-path="url(#peecc5021b6)">
     <use style="fill:#ff7f0e;stroke:#ffffff;stroke-width:0.75;" x="255.457547" xlink:href="#C0_0_599ce77f9b" y="161.16038"/>
    </g>
    <g clip-path="url(#peecc5021b6)">
     <use style="fill:#ff7f0e;stroke:#ffffff;stroke-width:0.75;" x="260.546652" xlink:href="#C0_0_599ce77f9b" y="132.120548"/>
    </g>
    <g clip-path="url(#peecc5021b6)">
     <use style="fill:#2ca02c;stroke:#ffffff;stroke-width:0.75;" x="117.11662" xlink:href="#C0_0_599ce77f9b" y="168.725141"/>
    </g>
    <g clip-path="url(#peecc5021b6)">
     <use style="fill:#2ca02c;stroke:#ffffff;stroke-width:0.75;" x="64.092848" xlink:href="#C0_0_599ce77f9b" y="186.98582"/>
    </g>
    <g clip-path="url(#peecc5021b6)">
     <use style="fill:#2ca02c;stroke:#ffffff;stroke-width:0.75;" x="98.969104" xlink:href="#C0_0_599ce77f9b" y="157.447544"/>
    </g>
    <g clip-path="url(#peecc5021b6)">
     <use style="fill:#2ca02c;stroke:#ffffff;stroke-width:0.75;" x="85.873625" xlink:href="#C0_0_599ce77f9b" y="151.721258"/>
    </g>
    <g clip-path="url(#peecc5021b6)">
     <use style="fill:#2ca02c;stroke:#ffffff;stroke-width:0.75;" x="57.677935" xlink:href="#C0_0_599ce77f9b" y="172.994267"/>
    </g>
    <g clip-path="url(#peecc5021b6)">
     <use style="fill:#d62728;stroke:#ffffff;stroke-width:0.75;" x="161.698532" xlink:href="#C0_0_599ce77f9b" y="27.552019"/>
    </g>
    <g clip-path="url(#peecc5021b6)">
     <use style="fill:#d62728;stroke:#ffffff;stroke-width:0.75;" x="193.860462" xlink:href="#C0_0_599ce77f9b" y="42.013335"/>
    </g>
    <g clip-path="url(#peecc5021b6)">
     <use style="fill:#d62728;stroke:#ffffff;stroke-width:0.75;" x="144.416245" xlink:href="#C0_0_599ce77f9b" y="61.2294"/>
    </g>
    <g clip-path="url(#peecc5021b6)">
     <use style="fill:#d62728;stroke:#ffffff;stroke-width:0.75;" x="187.156832" xlink:href="#C0_0_599ce77f9b" y="69.907544"/>
    </g>
    <g clip-path="url(#peecc5021b6)">
     <use style="fill:#d62728;stroke:#ffffff;stroke-width:0.75;" x="206.301601" xlink:href="#C0_0_599ce77f9b" y="42.374068"/>
    </g>
    <g clip-path="url(#peecc5021b6)">
     <use style="fill:#9467bd;stroke:#ffffff;stroke-width:0.75;" x="89.905554" xlink:href="#C0_0_599ce77f9b" y="121.077756"/>
    </g>
    <g clip-path="url(#peecc5021b6)">
     <use style="fill:#9467bd;stroke:#ffffff;stroke-width:0.75;" x="93.399874" xlink:href="#C0_0_599ce77f9b" y="115.496531"/>
    </g>
    <g clip-path="url(#peecc5021b6)">
     <use style="fill:#9467bd;stroke:#ffffff;stroke-width:0.75;" x="68.369891" xlink:href="#C0_0_599ce77f9b" y="101.579276"/>
    </g>
    <g clip-path="url(#peecc5021b6)">
     <use style="fill:#9467bd;stroke:#ffffff;stroke-width:0.75;" x="106.273113" xlink:href="#C0_0_599ce77f9b" y="113.151383"/>
    </g>
    <g clip-path="url(#peecc5021b6)">
     <use style="fill:#9467bd;stroke:#ffffff;stroke-width:0.75;" x="134.107145" xlink:href="#C0_0_599ce77f9b" y="173.228302"/>
    </g>
   </g>
   <g id="PathCollection_2"/>
   <g id="PathCollection_3"/>
   <g id="PathCollection_4"/>
   <g id="PathCollection_5"/>
   <g id="PathCollection_6"/>
   <g id="matplotlib.axis_1">
    <g id="xtick_1">
     <g id="line2d_1">
      <defs>
       <path d="M 0 0 
L 0 3.5 
" id="m4e14bd491b" style="stroke:#000000;stroke-width:0.8;"/>
      </defs>
      <g>
       <use style="stroke:#000000;stroke-width:0.8;" x="83.354035" xlink:href="#m4e14bd491b" y="244.888647"/>
      </g>
     </g>
     <g id="text_1">
      <!-- $-4$ -->
      <defs>
       <path d="M 65.90625 23 
C 67.59375 23 69.40625 23 69.40625 25 
C 69.40625 27 67.59375 27 65.90625 27 
L 11.796875 27 
C 10.09375 27 8.296875 27 8.296875 25 
C 8.296875 23 10.09375 23 11.796875 23 
z
" id="CMSY10-0"/>
       <path d="M 33.59375 64.40625 
C 33.59375 66.5 33.5 66.5 31.703125 66.5 
L 2 19.59375 
L 2 17 
L 27.796875 17 
L 27.796875 7.140625 
C 27.796875 3.5 27.59375 2.5 20.59375 2.5 
L 18.703125 2.5 
L 18.703125 0 
C 21.90625 0 27.296875 0 30.703125 0 
C 34.09375 0 39.5 0 42.703125 0 
L 42.703125 2.5 
L 40.796875 2.5 
C 33.796875 2.5 33.59375 3.5 33.59375 7.140625 
L 33.59375 17 
L 43.796875 17 
L 43.796875 19.59375 
L 33.59375 19.59375 
z
M 28.09375 57.859375 
L 28.09375 19.59375 
L 4 19.59375 
z
" id="CMR17-52"/>
      </defs>
      <g transform="translate(76.988996 258.807145)scale(0.1 -0.1)">
       <use transform="scale(0.996264)" xlink:href="#CMSY10-0"/>
       <use transform="translate(77.487468 0)scale(0.996264)" xlink:href="#CMR17-52"/>
      </g>
     </g>
    </g>
    <g id="xtick_2">
     <g id="line2d_2">
      <g>
       <use style="stroke:#000000;stroke-width:0.8;" x="121.031268" xlink:href="#m4e14bd491b" y="244.888647"/>
      </g>
     </g>
     <g id="text_2">
      <!-- $-2$ -->
      <defs>
       <path d="M 41.703125 15.453125 
L 39.90625 15.453125 
C 38.90625 8.375 38.09375 7.171875 37.703125 6.5625 
C 37.203125 5.765625 30 5.765625 28.59375 5.765625 
L 9.40625 5.765625 
C 13 9.671875 20 16.75 28.5 24.953125 
C 34.59375 30.734375 41.703125 37.53125 41.703125 47.421875 
C 41.703125 59.21875 32.296875 66 21.796875 66 
C 10.796875 66 4.09375 56.3125 4.09375 47.34375 
C 4.09375 43.4375 7 42.9375 8.203125 42.9375 
C 9.203125 42.9375 12.203125 43.546875 12.203125 47.03125 
C 12.203125 50.109375 9.59375 51 8.203125 51 
C 7.59375 51 7 50.90625 6.59375 50.703125 
C 8.5 59.21875 14.296875 63.40625 20.40625 63.40625 
C 29.09375 63.40625 34.796875 56.515625 34.796875 47.421875 
C 34.796875 38.734375 29.703125 31.25 24 24.75 
L 4.09375 2.28125 
L 4.09375 0 
L 39.296875 0 
z
" id="CMR17-50"/>
      </defs>
      <g transform="translate(114.666228 258.807145)scale(0.1 -0.1)">
       <use transform="scale(0.996264)" xlink:href="#CMSY10-0"/>
       <use transform="translate(77.487468 0)scale(0.996264)" xlink:href="#CMR17-50"/>
      </g>
     </g>
    </g>
    <g id="xtick_3">
     <g id="line2d_3">
      <g>
       <use style="stroke:#000000;stroke-width:0.8;" x="158.708501" xlink:href="#m4e14bd491b" y="244.888647"/>
      </g>
     </g>
     <g id="text_3">
      <!-- $0$ -->
      <defs>
       <path d="M 42 31.640625 
C 42 37.75 41.90625 48.125 37.703125 56.109375 
C 34 63.109375 28.09375 65.59375 22.90625 65.59375 
C 18.09375 65.59375 12 63.40625 8.203125 56.203125 
C 4.203125 48.71875 3.796875 39.4375 3.796875 31.640625 
C 3.796875 25.953125 3.90625 17.28125 7 9.671875 
C 11.296875 -0.609375 19 -2 22.90625 -2 
C 27.5 -2 34.5 -0.109375 38.59375 9.375 
C 41.59375 16.28125 42 24.359375 42 31.640625 
z
M 22.90625 -0.40625 
C 16.5 -0.40625 12.703125 5.078125 11.296875 12.6875 
C 10.203125 18.5625 10.203125 27.15625 10.203125 32.75 
C 10.203125 40.4375 10.203125 46.828125 11.5 52.921875 
C 13.40625 61.390625 19 64 22.90625 64 
C 27 64 32.296875 61.296875 34.203125 53.125 
C 35.5 47.4375 35.59375 40.734375 35.59375 32.75 
C 35.59375 26.25 35.59375 18.265625 34.40625 12.375 
C 32.296875 1.484375 26.40625 -0.40625 22.90625 -0.40625 
z
" id="CMR17-48"/>
      </defs>
      <g transform="translate(156.217833 258.807145)scale(0.1 -0.1)">
       <use transform="scale(0.996264)" xlink:href="#CMR17-48"/>
      </g>
     </g>
    </g>
    <g id="xtick_4">
     <g id="line2d_4">
      <g>
       <use style="stroke:#000000;stroke-width:0.8;" x="196.385734" xlink:href="#m4e14bd491b" y="244.888647"/>
      </g>
     </g>
     <g id="text_4">
      <!-- $2$ -->
      <g transform="translate(193.895066 258.807145)scale(0.1 -0.1)">
       <use transform="scale(0.996264)" xlink:href="#CMR17-50"/>
      </g>
     </g>
    </g>
    <g id="xtick_5">
     <g id="line2d_5">
      <g>
       <use style="stroke:#000000;stroke-width:0.8;" x="234.062967" xlink:href="#m4e14bd491b" y="244.888647"/>
      </g>
     </g>
     <g id="text_5">
      <!-- $4$ -->
      <g transform="translate(231.572299 258.807145)scale(0.1 -0.1)">
       <use transform="scale(0.996264)" xlink:href="#CMR17-52"/>
      </g>
     </g>
    </g>
    <g id="text_6">
     <!-- PC 1 -->
     <defs>
      <path d="M 32.90625 29 
C 44.90625 29 54.703125 38.328125 54.703125 49.34375 
C 54.703125 60.15625 45.296875 69.578125 32.296875 69.578125 
L 8.90625 69.578125 
L 8.90625 0 
L 17.296875 0 
L 17.296875 29 
z
M 30.09375 64 
C 41.703125 64 46.796875 56.671875 46.796875 49.328125 
C 46.796875 42.5 42.09375 34.78125 30.09375 34.78125 
L 17.09375 34.78125 
L 17.09375 64 
z
" id="CMSS17-80"/>
      <path d="M 54.703125 11.15625 
C 48 6.671875 44.90625 5.375 36.796875 5.375 
C 22.796875 5.375 14.59375 20.359375 14.59375 34.046875 
C 14.59375 48.625 23 63 37.203125 63 
C 43.59375 63 47.796875 61.21875 52.90625 58.046875 
L 54.296875 65.890625 
C 49.5 68.28125 43.40625 69.375 37.296875 69.375 
C 18.09375 69.375 6.203125 51.8125 6.203125 34.046875 
C 6.203125 14.484375 20.296875 -1 36.296875 -1 
C 44.90625 -1 47.90625 -0.296875 55.296875 4.375 
z
" id="CMSS17-67"/>
      <path d="M 28.40625 67 
L 26.5 67 
C 21.09375 61.5625 14.796875 60.78125 8.40625 60.78125 
L 8.40625 55 
C 11.296875 55 16 55 20.703125 57.296875 
L 20.703125 5.765625 
L 8.90625 5.765625 
L 8.90625 0 
L 40.203125 0 
L 40.203125 5.765625 
L 28.40625 5.765625 
z
" id="CMSS17-49"/>
     </defs>
     <g transform="translate(148.596157 271.662822)scale(0.1 -0.1)">
      <use transform="scale(0.996264)" xlink:href="#CMSS17-80"/>
      <use transform="translate(59.735586 0)scale(0.996264)" xlink:href="#CMSS17-67"/>
      <use transform="translate(150.820471 0)scale(0.996264)" xlink:href="#CMSS17-49"/>
     </g>
    </g>
    <g id="text_7">
     <!-- $\times10^{-8}$ -->
     <defs>
      <path d="M 38.90625 27.890625 
L 18.90625 47.796875 
C 17.703125 49 17.5 49.1875 16.703125 49.1875 
C 15.703125 49.1875 14.703125 48.296875 14.703125 47.1875 
C 14.703125 46.5 14.90625 46.296875 16 45.1875 
L 36 25.09375 
L 16 5 
C 14.90625 3.890625 14.703125 3.6875 14.703125 3 
C 14.703125 1.890625 15.703125 1 16.703125 1 
C 17.5 1 17.703125 1.1875 18.90625 2.390625 
L 38.796875 22.296875 
L 59.5 1.59375 
C 59.703125 1.5 60.40625 1 61 1 
C 62.203125 1 63 1.890625 63 3 
C 63 3.1875 63 3.59375 62.703125 4.09375 
C 62.59375 4.296875 46.703125 20 41.703125 25.09375 
L 60 43.390625 
C 60.5 44 62 45.296875 62.5 45.890625 
C 62.59375 46.09375 63 46.5 63 47.1875 
C 63 48.296875 62.203125 49.1875 61 49.1875 
C 60.203125 49.1875 59.796875 48.796875 58.703125 47.6875 
z
" id="CMSY10-2"/>
      <path d="M 26.59375 63.40625 
C 26.59375 65.5 26.5 65.5 25.09375 65.5 
C 21.203125 61.1875 15.296875 59.796875 9.703125 59.796875 
C 9.40625 59.796875 8.90625 59.796875 8.796875 59.5 
C 8.703125 59.296875 8.703125 59.09375 8.703125 57 
C 11.796875 57 17 57.59375 21 59.984375 
L 21 7.203125 
C 21 3.6875 20.796875 2.5 12.203125 2.5 
L 9.203125 2.5 
L 9.203125 0 
C 14 0 19 0 23.796875 0 
C 28.59375 0 33.59375 0 38.40625 0 
L 38.40625 2.5 
L 35.40625 2.5 
C 26.796875 2.5 26.59375 3.59375 26.59375 7.15625 
z
" id="CMR17-49"/>
      <path d="M 27.203125 35.375 
C 33.5 38.546875 39.90625 43.328125 39.90625 50.984375 
C 39.90625 60.015625 31.09375 65.296875 23 65.296875 
C 13.90625 65.296875 5.90625 58.734375 5.90625 49.6875 
C 5.90625 47.203125 6.5 42.921875 10.40625 39.140625 
C 11.40625 38.15625 15.59375 35.171875 18.296875 33.28125 
C 13.796875 30.984375 3.296875 25.53125 3.296875 14.59375 
C 3.296875 4.359375 13.09375 -2 22.796875 -2 
C 33.5 -2 42.5 5.65625 42.5 15.78125 
C 42.5 24.84375 36.40625 29.015625 32.40625 31.703125 
z
M 14.09375 44.09375 
C 13.296875 44.59375 9.296875 47.671875 9.296875 52.359375 
C 9.296875 58.421875 15.59375 63 22.796875 63 
C 30.703125 63 36.5 57.4375 36.5 50.96875 
C 36.5 41.703125 26.09375 36.421875 25.59375 36.421875 
C 25.5 36.421875 25.40625 36.421875 24.59375 37.03125 
z
M 32.5 23.734375 
C 34 22.640625 38.796875 19.375 38.796875 13.296875 
C 38.796875 5.953125 31.40625 0.390625 23 0.390625 
C 13.90625 0.390625 7 6.84375 7 14.6875 
C 7 22.546875 13.09375 29.09375 20 32.1875 
z
" id="CMR17-56"/>
     </defs>
     <g transform="translate(242.780771 270.746979)scale(0.1 -0.1)">
      <use transform="scale(0.996264)" xlink:href="#CMSY10-2"/>
      <use transform="translate(77.487468 0)scale(0.996264)" xlink:href="#CMR17-49"/>
      <use transform="translate(123.177945 0)scale(0.996264)" xlink:href="#CMR17-48"/>
      <use transform="translate(168.868422 36.153639)scale(0.697382)" xlink:href="#CMSY10-0"/>
      <use transform="translate(223.109415 36.153639)scale(0.697382)" xlink:href="#CMR17-56"/>
     </g>
    </g>
   </g>
   <g id="matplotlib.axis_2">
    <g id="ytick_1">
     <g id="line2d_6">
      <defs>
       <path d="M 0 0 
L -3.5 0 
" id="m2b84de955d" style="stroke:#000000;stroke-width:0.8;"/>
      </defs>
      <g>
       <use style="stroke:#000000;stroke-width:0.8;" x="47.534499" xlink:href="#m2b84de955d" y="223.119528"/>
      </g>
     </g>
     <g id="text_8">
      <!-- $-1.0$ -->
      <defs>
       <path d="M 18.40625 4.796875 
C 18.40625 7.6875 16 9.671875 13.59375 9.671875 
C 10.703125 9.671875 8.703125 7.28125 8.703125 4.890625 
C 8.703125 2 11.09375 0 13.5 0 
C 16.40625 0 18.40625 2.390625 18.40625 4.796875 
z
" id="CMMI12-58"/>
      </defs>
      <g transform="translate(20.055677 226.578777)scale(0.1 -0.1)">
       <use transform="scale(0.996264)" xlink:href="#CMSY10-0"/>
       <use transform="translate(77.487468 0)scale(0.996264)" xlink:href="#CMR17-49"/>
       <use transform="translate(123.177945 0)scale(0.996264)" xlink:href="#CMMI12-58"/>
       <use transform="translate(150.275122 0)scale(0.996264)" xlink:href="#CMR17-48"/>
      </g>
     </g>
    </g>
    <g id="ytick_2">
     <g id="line2d_7">
      <g>
       <use style="stroke:#000000;stroke-width:0.8;" x="47.534499" xlink:href="#m2b84de955d" y="181.78547"/>
      </g>
     </g>
     <g id="text_9">
      <!-- $-0.5$ -->
      <defs>
       <path d="M 11.40625 57.6875 
C 12.40625 57.28125 16.5 56 20.703125 56 
C 30 56 35.09375 61.109375 38 64.0625 
C 38 64.953125 38 65.5 37.40625 65.5 
C 37.296875 65.5 37.09375 65.5 36.296875 65.046875 
C 32.796875 63.40625 28.703125 62.078125 23.703125 62.078125 
C 20.703125 62.078125 16.203125 62.484375 11.296875 64.671875 
C 10.203125 65.171875 10 65.171875 9.90625 65.171875 
C 9.40625 65.171875 9.296875 65.0625 9.296875 63.078125 
L 9.296875 34.421875 
C 9.296875 32.640625 9.296875 32.140625 10.296875 32.140625 
C 10.796875 32.140625 11 32.34375 11.5 33.03125 
C 14.703125 37.515625 19.09375 39.40625 24.09375 39.40625 
C 27.59375 39.40625 35.09375 37.21875 35.09375 20.140625 
C 35.09375 16.953125 35.09375 11.171875 32.09375 6.578125 
C 29.59375 2.484375 25.703125 0.390625 21.40625 0.390625 
C 14.796875 0.390625 8.09375 5 6.296875 12.71875 
C 6.703125 12.609375 7.5 12.421875 7.90625 12.421875 
C 9.203125 12.421875 11.703125 13.125 11.703125 16.21875 
C 11.703125 18.90625 9.796875 20 7.90625 20 
C 5.59375 20 4.09375 18.59375 4.09375 15.796875 
C 4.09375 7.09375 11 -2 21.59375 -2 
C 31.90625 -2 41.703125 6.875 41.703125 19.75 
C 41.703125 31.71875 33.90625 41 24.203125 41 
C 19.09375 41 14.796875 39.109375 11.40625 35.53125 
z
" id="CMR17-53"/>
      </defs>
      <g transform="translate(20.055677 185.244719)scale(0.1 -0.1)">
       <use transform="scale(0.996264)" xlink:href="#CMSY10-0"/>
       <use transform="translate(77.487468 0)scale(0.996264)" xlink:href="#CMR17-48"/>
       <use transform="translate(123.177945 0)scale(0.996264)" xlink:href="#CMMI12-58"/>
       <use transform="translate(150.275122 0)scale(0.996264)" xlink:href="#CMR17-53"/>
      </g>
     </g>
    </g>
    <g id="ytick_3">
     <g id="line2d_8">
      <g>
       <use style="stroke:#000000;stroke-width:0.8;" x="47.534499" xlink:href="#m2b84de955d" y="140.451412"/>
      </g>
     </g>
     <g id="text_10">
      <!-- $0.0$ -->
      <g transform="translate(27.80442 143.910662)scale(0.1 -0.1)">
       <use transform="scale(0.996264)" xlink:href="#CMR17-48"/>
       <use transform="translate(45.690477 0)scale(0.996264)" xlink:href="#CMMI12-58"/>
       <use transform="translate(72.787654 0)scale(0.996264)" xlink:href="#CMR17-48"/>
      </g>
     </g>
    </g>
    <g id="ytick_4">
     <g id="line2d_9">
      <g>
       <use style="stroke:#000000;stroke-width:0.8;" x="47.534499" xlink:href="#m2b84de955d" y="99.117355"/>
      </g>
     </g>
     <g id="text_11">
      <!-- $0.5$ -->
      <g transform="translate(27.80442 102.576604)scale(0.1 -0.1)">
       <use transform="scale(0.996264)" xlink:href="#CMR17-48"/>
       <use transform="translate(45.690477 0)scale(0.996264)" xlink:href="#CMMI12-58"/>
       <use transform="translate(72.787654 0)scale(0.996264)" xlink:href="#CMR17-53"/>
      </g>
     </g>
    </g>
    <g id="ytick_5">
     <g id="line2d_10">
      <g>
       <use style="stroke:#000000;stroke-width:0.8;" x="47.534499" xlink:href="#m2b84de955d" y="57.783297"/>
      </g>
     </g>
     <g id="text_12">
      <!-- $1.0$ -->
      <g transform="translate(27.80442 61.242546)scale(0.1 -0.1)">
       <use transform="scale(0.996264)" xlink:href="#CMR17-49"/>
       <use transform="translate(45.690477 0)scale(0.996264)" xlink:href="#CMMI12-58"/>
       <use transform="translate(72.787654 0)scale(0.996264)" xlink:href="#CMR17-48"/>
      </g>
     </g>
    </g>
    <g id="text_13">
     <!-- PC 2 -->
     <defs>
      <path d="M 25.796875 21.203125 
C 28.59375 24.078125 32.796875 27.5625 35.703125 31.046875 
C 38.5 34.4375 42.203125 39.234375 42.203125 46.203125 
C 42.203125 57.140625 34.796875 67 22.203125 67 
C 12.296875 67 6.59375 60.828125 3.90625 51.15625 
L 7.796875 45.765625 
C 10 54.84375 13.09375 60.625 20.90625 60.625 
C 29.5 60.625 34.296875 53.640625 34.296875 45.96875 
C 34.296875 36.796875 27.296875 29.703125 22 24.421875 
C 16.09375 18.546875 10.296875 12.5625 4.703125 6.375 
L 4.703125 0 
L 42.203125 0 
L 42.203125 6.765625 
L 25.203125 6.765625 
C 24 6.765625 22.796875 6.765625 21.59375 6.765625 
L 11.59375 6.765625 
L 11.59375 6.859375 
z
" id="CMSS17-50"/>
     </defs>
     <g transform="translate(14.118498 141.561788)rotate(-90)scale(0.1 -0.1)">
      <use transform="scale(0.996264)" xlink:href="#CMSS17-80"/>
      <use transform="translate(59.735586 0)scale(0.996264)" xlink:href="#CMSS17-67"/>
      <use transform="translate(150.820471 0)scale(0.996264)" xlink:href="#CMSS17-50"/>
     </g>
    </g>
    <g id="text_14">
     <!-- $\times10^{-8}$ -->
     <g transform="translate(47.534499 14.202655)scale(0.1 -0.1)">
      <use transform="scale(0.996264)" xlink:href="#CMSY10-2"/>
      <use transform="translate(77.487468 0)scale(0.996264)" xlink:href="#CMR17-49"/>
      <use transform="translate(123.177945 0)scale(0.996264)" xlink:href="#CMR17-48"/>
      <use transform="translate(168.868422 36.153639)scale(0.697382)" xlink:href="#CMSY10-0"/>
      <use transform="translate(223.109415 36.153639)scale(0.697382)" xlink:href="#CMR17-56"/>
     </g>
    </g>
   </g>
   <g id="patch_3">
    <path d="M 47.534499 244.888647 
L 47.534499 17.202655 
" style="fill:none;stroke:#000000;stroke-linecap:square;stroke-linejoin:miter;stroke-width:0.8;"/>
   </g>
   <g id="patch_4">
    <path d="M 270.690088 244.888647 
L 270.690088 17.202655 
" style="fill:none;stroke:#000000;stroke-linecap:square;stroke-linejoin:miter;stroke-width:0.8;"/>
   </g>
   <g id="patch_5">
    <path d="M 47.534499 244.888647 
L 270.690088 244.888647 
" style="fill:none;stroke:#000000;stroke-linecap:square;stroke-linejoin:miter;stroke-width:0.8;"/>
   </g>
   <g id="patch_6">
    <path d="M 47.534499 17.202655 
L 270.690088 17.202655 
" style="fill:none;stroke:#000000;stroke-linecap:square;stroke-linejoin:miter;stroke-width:0.8;"/>
   </g>
   <g id="text_15">
    <!-- YRI -->
    <defs>
     <path d="M 62.09375 69 
L 53.5 69 
L 38 44.953125 
C 36.796875 43.046875 33.40625 37.890625 31.796875 35 
L 26.90625 42.859375 
L 10.09375 69 
L 0.296875 69 
L 27.09375 27.640625 
L 27.09375 0 
L 35.296875 0 
L 35.296875 27.546875 
z
" id="CMSS17-89"/>
     <path d="M 39.40625 32.953125 
L 39.59375 33.046875 
C 55.203125 38.421875 55.296875 49.171875 55.296875 51.0625 
C 55.296875 60.515625 45.703125 69.578125 31.296875 69.578125 
L 8.90625 69.578125 
L 8.90625 0.5 
L 17.09375 0.5 
L 17.09375 32 
L 31.796875 32 
L 49.5 0.5 
L 57.90625 0.5 
z
M 17.09375 38.078125 
L 17.09375 64 
L 30.203125 64 
C 42.90625 64 47.40625 56.828125 47.40625 51.046875 
C 47.40625 45.65625 43.40625 38.078125 30.203125 38.078125 
z
" id="CMSS17-82"/>
     <path d="M 17.09375 69 
L 8.703125 69 
L 8.703125 0 
L 17.09375 0 
z
" id="CMSS17-73"/>
    </defs>
    <g transform="translate(147.328512 190.355512)scale(0.06 -0.06)">
     <use transform="scale(0.996264)" xlink:href="#CMSS17-89"/>
     <use transform="translate(62.217855 0)scale(0.996264)" xlink:href="#CMSS17-82"/>
     <use transform="translate(122.63401 0)scale(0.996264)" xlink:href="#CMSS17-73"/>
    </g>
   </g>
   <g id="text_16">
    <!-- MSL -->
    <defs>
     <path d="M 49.90625 37.046875 
L 45.09375 23.015625 
C 44.296875 20.421875 41.59375 12.359375 41 9.171875 
L 40.90625 9.171875 
C 40.59375 11.171875 40 13.265625 38.40625 18.34375 
C 37.5 21.328125 36.5 24.40625 35.5 27.203125 
L 20.703125 69 
L 9 69 
L 9 0 
L 16.796875 0 
L 16.796875 60.9375 
L 16.90625 60.9375 
C 16.90625 60.84375 17.796875 56.453125 23.90625 39.046875 
L 37.09375 1.5 
L 44.5 1.5 
L 56.40625 34.859375 
C 57.203125 37.15625 59.703125 44.421875 60.796875 47.90625 
C 61.796875 50.890625 64.296875 58.25 64.90625 61.140625 
L 65 61.140625 
L 65 0 
L 72.90625 0 
L 72.90625 69 
L 61.296875 69 
z
" id="CMSS17-77"/>
     <path d="M 43.703125 65.140625 
C 39.296875 67.71875 34.5 70 26.40625 70 
C 13.5 70 5.203125 60.609375 5.203125 51.03125 
C 5.203125 47.265625 6.296875 43.015625 10.203125 38.671875 
C 14.09375 34.3125 18.5 33.140625 24.09375 31.765625 
C 26.40625 31.15625 30.296875 30.0625 31 29.78125 
C 36.59375 27.609375 39.296875 22.5625 39.296875 17.8125 
C 39.296875 11.59375 34.40625 4.96875 25.703125 4.96875 
C 22.703125 4.96875 13.90625 4.96875 5.59375 12.796875 
L 4.203125 4.96875 
C 12.40625 -1 21.296875 -2 25.796875 -2 
C 38.09375 -2 46.90625 7.625 46.90625 18.53125 
C 46.90625 22.5 45.703125 27.546875 41.5 32.203125 
C 37.40625 36.671875 33.796875 37.65625 25.59375 39.828125 
C 20.90625 41.03125 17.90625 41.828125 15.40625 44.890625 
C 13.703125 47.078125 12.796875 49.15625 12.796875 51.828125 
C 12.796875 57.390625 17.59375 63.4375 26.40625 63.4375 
C 30.796875 63.4375 36.5 62.53125 42.296875 57.1875 
z
" id="CMSS17-83"/>
     <path d="M 26.09375 6.46875 
C 24.90625 6.46875 23.703125 6.46875 22.5 6.46875 
L 17.203125 6.46875 
L 17.203125 69 
L 8.796875 69 
L 8.796875 0 
L 46.90625 0 
L 46.90625 6.46875 
z
" id="CMSS17-76"/>
    </defs>
    <g transform="translate(166.271122 211.503344)scale(0.06 -0.06)">
     <use transform="scale(0.996264)" xlink:href="#CMSS17-77"/>
     <use transform="translate(81.67603 0)scale(0.996264)" xlink:href="#CMSS17-83"/>
     <use transform="translate(133.724546 0)scale(0.996264)" xlink:href="#CMSS17-76"/>
    </g>
   </g>
   <g id="text_17">
    <!-- LWK -->
    <defs>
     <path d="M 87.203125 69 
L 79.59375 69 
L 71.203125 38.078125 
C 69.90625 33.09375 68.703125 28.140625 67.5 23.15625 
C 65.703125 15.796875 64.40625 10.640625 64.203125 8.046875 
L 64.09375 8.046875 
C 63.90625 10.734375 62.59375 16.390625 61 22.765625 
C 59.796875 28.046875 58.5 33.296875 57.09375 38.46875 
L 48.796875 69 
L 40.40625 69 
L 32.5 40.03125 
L 28.5 24.203125 
C 25.5 11.671875 25.40625 9.875 25.203125 7.890625 
L 25.09375 7.890625 
C 25.09375 8.484375 24.703125 11.765625 21.90625 23.40625 
C 20.5 29.1875 19.09375 35.0625 17.59375 40.640625 
L 9.90625 69 
L 1.296875 69 
L 20.296875 0 
L 28.59375 0 
L 36.5 28.734375 
L 40.5 44.546875 
C 43.203125 55.6875 43.796875 58.46875 44 60.953125 
L 44.09375 60.953125 
C 44.09375 60.5625 45 54.28125 48.90625 39.765625 
L 59.5 0 
L 68.203125 0 
z
" id="CMSS17-87"/>
     <path d="M 34.90625 41.65625 
L 59.796875 69 
L 50.203125 69 
L 17.203125 32.90625 
L 17.203125 69 
L 8.796875 69 
L 8.796875 0 
L 17.203125 0 
L 17.203125 22.375 
L 29.296875 35.59375 
L 51.796875 0 
L 61.09375 0 
z
" id="CMSS17-75"/>
    </defs>
    <g transform="translate(217.107998 199.887459)scale(0.06 -0.06)">
     <use transform="scale(0.996264)" xlink:href="#CMSS17-76"/>
     <use transform="translate(40.277396 0)scale(0.996264)" xlink:href="#CMSS17-87"/>
     <use transform="translate(128.519562 0)scale(0.996264)" xlink:href="#CMSS17-75"/>
    </g>
   </g>
   <g id="text_18">
    <!-- GWD -->
    <defs>
     <path d="M 56.40625 29 
L 36.5 29 
L 36.5 22.828125 
L 48.796875 22.828125 
L 48.796875 7.359375 
C 44.90625 6.265625 40.90625 5.46875 36.90625 5.46875 
C 22.90625 5.46875 14.59375 20.328125 14.59375 34.375 
C 14.59375 48.359375 23.296875 63 36.90625 63 
C 44.59375 63 48.90625 60.640625 54.203125 56.671875 
L 55.5 64.59375 
C 48.90625 67.984375 44.796875 69.375 37.296875 69.375 
C 17.90625 69.375 6.203125 51.9375 6.203125 34.09375 
C 6.203125 17.03125 18 -1 36.703125 -1 
C 43.703125 -1 50.203125 0.796875 56.40625 3.875 
z
" id="CMSS17-71"/>
     <path d="M 8.90625 69 
L 8.90625 0 
L 33.5 0 
C 49.90625 0 62.5 15.3125 62.5 33.90625 
C 62.5 53.09375 49.90625 69 33.5 69 
z
M 17.09375 5.578125 
L 17.09375 63.421875 
L 31.296875 63.421875 
C 44.703125 63.421875 54.296875 51.203125 54.296875 33.90625 
C 54.296875 17.296875 44.796875 5.578125 31.296875 5.578125 
z
" id="CMSS17-68"/>
    </defs>
    <g transform="translate(209.28329 234.539283)scale(0.06 -0.06)">
     <use transform="scale(0.996264)" xlink:href="#CMSS17-71"/>
     <use transform="translate(62.458226 0)scale(0.996264)" xlink:href="#CMSS17-87"/>
     <use transform="translate(150.700392 0)scale(0.996264)" xlink:href="#CMSS17-68"/>
    </g>
   </g>
   <g id="text_19">
    <!-- ESN -->
    <defs>
     <path d="M 30.59375 6.765625 
C 22.59375 6.765625 19 6.765625 17.203125 6.765625 
L 17.203125 32.921875 
L 48.203125 32.921875 
L 48.203125 39 
L 17.203125 39 
L 17.203125 62.640625 
L 30.09375 62.640625 
C 31.296875 62.640625 32.5 62.640625 33.703125 62.640625 
L 50.796875 62.640625 
L 50.796875 69 
L 8.796875 69 
L 8.796875 0 
L 52.09375 0 
L 52.09375 6.765625 
z
" id="CMSS17-69"/>
     <path d="M 22.90625 65.3125 
L 21.09375 69 
L 8.796875 69 
L 8.796875 0 
L 16.59375 0 
L 16.59375 61.34375 
L 16.703125 61.4375 
C 17.40625 59.640625 17.796875 58.75 21.90625 49.90625 
L 43.296875 3.6875 
L 45.09375 0 
L 57.40625 0 
L 57.40625 69 
L 49.59375 69 
L 49.59375 7.65625 
L 49.5 7.546875 
C 48.796875 9.34375 48.40625 10.234375 44.296875 19.078125 
z
" id="CMSS17-78"/>
    </defs>
    <g transform="translate(156.730513 225.401272)scale(0.06 -0.06)">
     <use transform="scale(0.996264)" xlink:href="#CMSS17-69"/>
     <use transform="translate(55.892013 0)scale(0.996264)" xlink:href="#CMSS17-83"/>
     <use transform="translate(107.940529 0)scale(0.996264)" xlink:href="#CMSS17-78"/>
    </g>
   </g>
   <g id="text_20">
    <!-- ASW -->
    <defs>
     <path d="M 35.5 69 
L 26.90625 69 
L 2.59375 0 
L 10.203125 0 
L 17.203125 20 
L 44 20 
L 51.09375 0 
L 59.796875 0 
z
M 42.09375 25.578125 
L 19.09375 25.578125 
C 23.90625 39.5 29.90625 56.84375 30.59375 61.328125 
L 30.703125 61.328125 
C 31.40625 57.234375 33.40625 51.265625 35.09375 46.1875 
z
" id="CMSS17-65"/>
    </defs>
    <g transform="translate(252.67405 203.99837)scale(0.06 -0.06)">
     <use transform="scale(0.996264)" xlink:href="#CMSS17-65"/>
     <use transform="translate(62.217855 0)scale(0.996264)" xlink:href="#CMSS17-83"/>
     <use transform="translate(114.266371 0)scale(0.996264)" xlink:href="#CMSS17-87"/>
    </g>
   </g>
   <g id="text_21">
    <!-- ACB -->
    <defs>
     <path d="M 8.90625 69 
L 8.90625 0 
L 33.796875 0 
C 47.40625 0 57.296875 8.96875 57.296875 18.75 
C 57.296875 26.328125 50.796875 34 39.09375 36.203125 
C 52.09375 39.96875 54.703125 47.5 54.703125 51.765625 
C 54.703125 60.671875 44.90625 69 31.203125 69 
z
M 17 39 
L 17 63.421875 
L 28.5 63.421875 
C 38.796875 63.421875 46.90625 58.1875 46.90625 51.65625 
C 46.90625 45.71875 40.5 39 27.59375 39 
z
M 17 5.578125 
L 17 32.921875 
L 30.296875 32.921875 
C 41.09375 32.921875 49.40625 26.234375 49.40625 18.84375 
C 49.40625 12.0625 42.09375 5.578125 31 5.578125 
z
" id="CMSS17-66"/>
    </defs>
    <g transform="translate(212.356149 201.574601)scale(0.06 -0.06)">
     <use transform="scale(0.996264)" xlink:href="#CMSS17-65"/>
     <use transform="translate(59.615401 0)scale(0.996264)" xlink:href="#CMSS17-67"/>
     <use transform="translate(119.471173 0)scale(0.996264)" xlink:href="#CMSS17-66"/>
    </g>
   </g>
   <g id="text_22">
    <!-- PUR -->
    <defs>
     <path d="M 55.5 68.5 
L 47.90625 68.5 
L 47.90625 22.640625 
C 47.90625 9.4375 39.796875 3.578125 32.40625 3.578125 
C 24.796875 3.578125 17.203125 9.734375 17.203125 22.546875 
L 17.203125 68.5 
L 8.796875 68.5 
L 8.796875 22.71875 
C 8.796875 8.421875 19.90625 -2 32.296875 -2 
C 44.703125 -2 55.5 8.421875 55.5 22.71875 
z
" id="CMSS17-85"/>
    </defs>
    <g transform="translate(225.707811 119.18508)scale(0.06 -0.06)">
     <use transform="scale(0.996264)" xlink:href="#CMSS17-80"/>
     <use transform="translate(59.735586 0)scale(0.996264)" xlink:href="#CMSS17-85"/>
     <use transform="translate(123.875327 0)scale(0.996264)" xlink:href="#CMSS17-82"/>
    </g>
   </g>
   <g id="text_23">
    <!-- PEL -->
    <g transform="translate(213.738001 66.527232)scale(0.06 -0.06)">
     <use transform="scale(0.996264)" xlink:href="#CMSS17-80"/>
     <use transform="translate(59.735586 0)scale(0.996264)" xlink:href="#CMSS17-69"/>
     <use transform="translate(115.6276 0)scale(0.996264)" xlink:href="#CMSS17-76"/>
    </g>
   </g>
   <g id="text_24">
    <!-- MXL -->
    <defs>
     <path d="M 34.59375 36.390625 
L 57.203125 69 
L 48 69 
L 30.5 43.15625 
L 12.5 69 
L 2.59375 69 
L 26.40625 36.390625 
L 1.296875 0 
L 10.5 0 
L 30.5 30.328125 
L 51.203125 0 
L 61.09375 0 
z
" id="CMSS17-88"/>
    </defs>
    <g transform="translate(255.457547 161.16038)scale(0.06 -0.06)">
     <use transform="scale(0.996264)" xlink:href="#CMSS17-77"/>
     <use transform="translate(81.67603 0)scale(0.996264)" xlink:href="#CMSS17-88"/>
     <use transform="translate(143.893885 0)scale(0.996264)" xlink:href="#CMSS17-76"/>
    </g>
   </g>
   <g id="text_25">
    <!-- CLM -->
    <g transform="translate(260.546652 132.120548)scale(0.06 -0.06)">
     <use transform="scale(0.996264)" xlink:href="#CMSS17-67"/>
     <use transform="translate(59.855772 0)scale(0.996264)" xlink:href="#CMSS17-76"/>
     <use transform="translate(110.542877 0)scale(0.996264)" xlink:href="#CMSS17-77"/>
    </g>
   </g>
   <g id="text_26">
    <!-- KHV -->
    <defs>
     <path d="M 57.40625 69 
L 49 69 
L 49 39.078125 
L 17.203125 39.078125 
L 17.203125 69 
L 8.796875 69 
L 8.796875 0 
L 17.203125 0 
L 17.203125 33 
L 49 33 
L 49 0 
L 57.40625 0 
z
" id="CMSS17-72"/>
     <path d="M 61.09375 69 
L 53.296875 69 
L 36 21.28125 
C 35.5 19.890625 32.40625 10.75 31.796875 7.5625 
L 31.703125 7.5625 
C 30.90625 11.34375 27.703125 20.1875 26 25.0625 
L 14.40625 57.375 
L 10.09375 69 
L 1.296875 69 
L 26.796875 0 
L 35.59375 0 
z
" id="CMSS17-86"/>
    </defs>
    <g transform="translate(117.11662 168.725141)scale(0.06 -0.06)">
     <use transform="scale(0.996264)" xlink:href="#CMSS17-75"/>
     <use transform="translate(64.820294 0)scale(0.996264)" xlink:href="#CMSS17-72"/>
     <use transform="translate(130.881813 0)scale(0.996264)" xlink:href="#CMSS17-86"/>
    </g>
   </g>
   <g id="text_27">
    <!-- JPT -->
    <defs>
     <path d="M 36.5 68.5 
L 28.296875 68.5 
L 28.296875 14.6875 
C 28.296875 9.9375 26.296875 4.078125 17.296875 4.078125 
C 12.203125 4.078125 7.90625 6.46875 5.203125 9.4375 
L 3.90625 2.1875 
C 10.09375 -1.109375 15.796875 -2 20 -2 
C 29.703125 -2 36.5 3.5625 36.5 14.375 
z
" id="CMSS17-74"/>
     <path d="M 36.203125 62 
L 44.5 62 
C 45.703125 62 46.90625 62 48.09375 62 
L 60.59375 62 
L 60.59375 68.375 
L 3.40625 68.375 
L 3.40625 62 
L 15.90625 62 
C 17.09375 62 18.296875 62 19.5 62 
L 27.796875 62 
L 27.796875 -0.5 
L 36.203125 -0.5 
z
" id="CMSS17-84"/>
    </defs>
    <g transform="translate(64.092848 186.98582)scale(0.06 -0.06)">
     <use transform="scale(0.996264)" xlink:href="#CMSS17-74"/>
     <use transform="translate(44.121076 0)scale(0.996264)" xlink:href="#CMSS17-80"/>
     <use transform="translate(103.856662 0)scale(0.996264)" xlink:href="#CMSS17-84"/>
    </g>
   </g>
   <g id="text_28">
    <!-- CHS -->
    <g transform="translate(98.969104 157.447544)scale(0.06 -0.06)">
     <use transform="scale(0.996264)" xlink:href="#CMSS17-67"/>
     <use transform="translate(59.855772 0)scale(0.996264)" xlink:href="#CMSS17-72"/>
     <use transform="translate(125.917291 0)scale(0.996264)" xlink:href="#CMSS17-83"/>
    </g>
   </g>
   <g id="text_29">
    <!-- CHB -->
    <g transform="translate(85.873625 151.721258)scale(0.06 -0.06)">
     <use transform="scale(0.996264)" xlink:href="#CMSS17-67"/>
     <use transform="translate(59.855772 0)scale(0.996264)" xlink:href="#CMSS17-72"/>
     <use transform="translate(125.917291 0)scale(0.996264)" xlink:href="#CMSS17-66"/>
    </g>
   </g>
   <g id="text_30">
    <!-- CDX -->
    <g transform="translate(57.677935 172.994267)scale(0.06 -0.06)">
     <use transform="scale(0.996264)" xlink:href="#CMSS17-67"/>
     <use transform="translate(59.855772 0)scale(0.996264)" xlink:href="#CMSS17-68"/>
     <use transform="translate(124.796159 0)scale(0.996264)" xlink:href="#CMSS17-88"/>
    </g>
   </g>
   <g id="text_31">
    <!-- TSI -->
    <g transform="translate(161.698532 27.552019)scale(0.06 -0.06)">
     <use transform="scale(0.996264)" xlink:href="#CMSS17-84"/>
     <use transform="translate(63.819454 0)scale(0.996264)" xlink:href="#CMSS17-83"/>
     <use transform="translate(115.86797 0)scale(0.996264)" xlink:href="#CMSS17-73"/>
    </g>
   </g>
   <g id="text_32">
    <!-- IBS -->
    <g transform="translate(193.860462 42.013335)scale(0.06 -0.06)">
     <use transform="scale(0.996264)" xlink:href="#CMSS17-73"/>
     <use transform="translate(25.783926 0)scale(0.996264)" xlink:href="#CMSS17-66"/>
     <use transform="translate(88.121966 0)scale(0.996264)" xlink:href="#CMSS17-83"/>
    </g>
   </g>
   <g id="text_33">
    <!-- GBR -->
    <g transform="translate(144.416245 61.2294)scale(0.06 -0.06)">
     <use transform="scale(0.996264)" xlink:href="#CMSS17-71"/>
     <use transform="translate(62.458226 0)scale(0.996264)" xlink:href="#CMSS17-66"/>
     <use transform="translate(124.796266 0)scale(0.996264)" xlink:href="#CMSS17-82"/>
    </g>
   </g>
   <g id="text_34">
    <!-- FIN -->
    <defs>
     <path d="M 45.59375 31 
L 45.59375 37.078125 
L 17.203125 37.078125 
L 17.203125 62 
L 29.40625 62 
C 30.59375 62 31.796875 62 33 62 
L 49.5 62 
L 49.5 68.359375 
L 8.796875 68.359375 
L 8.796875 -0.5 
L 17.203125 -0.5 
L 17.203125 31 
z
" id="CMSS17-70"/>
    </defs>
    <g transform="translate(187.156832 69.907544)scale(0.06 -0.06)">
     <use transform="scale(0.996264)" xlink:href="#CMSS17-70"/>
     <use transform="translate(53.289559 0)scale(0.996264)" xlink:href="#CMSS17-73"/>
     <use transform="translate(79.073485 0)scale(0.996264)" xlink:href="#CMSS17-78"/>
    </g>
   </g>
   <g id="text_35">
    <!-- CEU -->
    <g transform="translate(206.301601 42.374068)scale(0.06 -0.06)">
     <use transform="scale(0.996264)" xlink:href="#CMSS17-67"/>
     <use transform="translate(59.855772 0)scale(0.996264)" xlink:href="#CMSS17-69"/>
     <use transform="translate(115.747785 0)scale(0.996264)" xlink:href="#CMSS17-85"/>
    </g>
   </g>
   <g id="text_36">
    <!-- STU -->
    <g transform="translate(89.905554 121.077756)scale(0.06 -0.06)">
     <use transform="scale(0.996264)" xlink:href="#CMSS17-83"/>
     <use transform="translate(52.048516 0)scale(0.996264)" xlink:href="#CMSS17-84"/>
     <use transform="translate(115.86797 0)scale(0.996264)" xlink:href="#CMSS17-85"/>
    </g>
   </g>
   <g id="text_37">
    <!-- PJL -->
    <g transform="translate(93.399874 115.496531)scale(0.06 -0.06)">
     <use transform="scale(0.996264)" xlink:href="#CMSS17-80"/>
     <use transform="translate(59.735586 0)scale(0.996264)" xlink:href="#CMSS17-74"/>
     <use transform="translate(103.856662 0)scale(0.996264)" xlink:href="#CMSS17-76"/>
    </g>
   </g>
   <g id="text_38">
    <!-- ITU -->
    <g transform="translate(68.369891 101.579276)scale(0.06 -0.06)">
     <use transform="scale(0.996264)" xlink:href="#CMSS17-73"/>
     <use transform="translate(25.783926 0)scale(0.996264)" xlink:href="#CMSS17-84"/>
     <use transform="translate(89.603379 0)scale(0.996264)" xlink:href="#CMSS17-85"/>
    </g>
   </g>
   <g id="text_39">
    <!-- GIH -->
    <g transform="translate(106.273113 113.151383)scale(0.06 -0.06)">
     <use transform="scale(0.996264)" xlink:href="#CMSS17-71"/>
     <use transform="translate(62.458226 0)scale(0.996264)" xlink:href="#CMSS17-73"/>
     <use transform="translate(88.242151 0)scale(0.996264)" xlink:href="#CMSS17-72"/>
    </g>
   </g>
   <g id="text_40">
    <!-- BEB -->
    <g transform="translate(134.107145 173.228302)scale(0.06 -0.06)">
     <use transform="scale(0.996264)" xlink:href="#CMSS17-66"/>
     <use transform="translate(62.33804 0)scale(0.996264)" xlink:href="#CMSS17-69"/>
     <use transform="translate(118.230053 0)scale(0.996264)" xlink:href="#CMSS17-66"/>
    </g>
   </g>
   <g id="legend_1">
    <g id="patch_7">
     <path d="M 54.534499 94.888547 
L 108.327866 94.888547 
Q 110.327866 94.888547 110.327866 92.888547 
L 110.327866 24.202655 
Q 110.327866 22.202655 108.327866 22.202655 
L 54.534499 22.202655 
Q 52.534499 22.202655 52.534499 24.202655 
L 52.534499 92.888547 
Q 52.534499 94.888547 54.534499 94.888547 
z
" style="fill:#ffffff;opacity:0.8;stroke:#cccccc;stroke-linejoin:miter;"/>
    </g>
    <g id="PathCollection_7">
     <defs>
      <path d="M 0 3 
C 0.795609 3 1.55874 2.683901 2.12132 2.12132 
C 2.683901 1.55874 3 0.795609 3 0 
C 3 -0.795609 2.683901 -1.55874 2.12132 -2.12132 
C 1.55874 -2.683901 0.795609 -3 0 -3 
C -0.795609 -3 -1.55874 -2.683901 -2.12132 -2.12132 
C -2.683901 -1.55874 -3 -0.795609 -3 0 
C -3 0.795609 -2.683901 1.55874 -2.12132 2.12132 
C -1.55874 2.683901 -0.795609 3 0 3 
z
" id="mbc9fb5b994" style="stroke:#1f77b4;"/>
     </defs>
     <g>
      <use style="fill:#1f77b4;stroke:#1f77b4;" x="66.534499" xlink:href="#mbc9fb5b994" y="30.577655"/>
     </g>
    </g>
    <g id="text_41">
     <!-- AFR -->
     <g transform="translate(84.534499 33.202655)scale(0.1 -0.1)">
      <use transform="scale(0.996264)" xlink:href="#CMSS17-65"/>
      <use transform="translate(62.217855 0)scale(0.996264)" xlink:href="#CMSS17-70"/>
      <use transform="translate(115.507414 0)scale(0.996264)" xlink:href="#CMSS17-82"/>
     </g>
    </g>
    <g id="PathCollection_8">
     <defs>
      <path d="M 0 3 
C 0.795609 3 1.55874 2.683901 2.12132 2.12132 
C 2.683901 1.55874 3 0.795609 3 0 
C 3 -0.795609 2.683901 -1.55874 2.12132 -2.12132 
C 1.55874 -2.683901 0.795609 -3 0 -3 
C -0.795609 -3 -1.55874 -2.683901 -2.12132 -2.12132 
C -2.683901 -1.55874 -3 -0.795609 -3 0 
C -3 0.795609 -2.683901 1.55874 -2.12132 2.12132 
C -1.55874 2.683901 -0.795609 3 0 3 
z
" id="m4bd39b22a2" style="stroke:#ff7f0e;"/>
     </defs>
     <g>
      <use style="fill:#ff7f0e;stroke:#ff7f0e;" x="66.534499" xlink:href="#m4bd39b22a2" y="44.514834"/>
     </g>
    </g>
    <g id="text_42">
     <!-- AMR -->
     <g transform="translate(84.534499 47.139834)scale(0.1 -0.1)">
      <use transform="scale(0.996264)" xlink:href="#CMSS17-65"/>
      <use transform="translate(62.217855 0)scale(0.996264)" xlink:href="#CMSS17-77"/>
      <use transform="translate(143.893885 0)scale(0.996264)" xlink:href="#CMSS17-82"/>
     </g>
    </g>
    <g id="PathCollection_9">
     <defs>
      <path d="M 0 3 
C 0.795609 3 1.55874 2.683901 2.12132 2.12132 
C 2.683901 1.55874 3 0.795609 3 0 
C 3 -0.795609 2.683901 -1.55874 2.12132 -2.12132 
C 1.55874 -2.683901 0.795609 -3 0 -3 
C -0.795609 -3 -1.55874 -2.683901 -2.12132 -2.12132 
C -2.683901 -1.55874 -3 -0.795609 -3 0 
C -3 0.795609 -2.683901 1.55874 -2.12132 2.12132 
C -1.55874 2.683901 -0.795609 3 0 3 
z
" id="m9069f25ead" style="stroke:#2ca02c;"/>
     </defs>
     <g>
      <use style="fill:#2ca02c;stroke:#2ca02c;" x="66.534499" xlink:href="#m9069f25ead" y="58.452012"/>
     </g>
    </g>
    <g id="text_43">
     <!-- EAS -->
     <g transform="translate(84.534499 61.077012)scale(0.1 -0.1)">
      <use transform="scale(0.996264)" xlink:href="#CMSS17-69"/>
      <use transform="translate(55.892013 0)scale(0.996264)" xlink:href="#CMSS17-65"/>
      <use transform="translate(118.109868 0)scale(0.996264)" xlink:href="#CMSS17-83"/>
     </g>
    </g>
    <g id="PathCollection_10">
     <defs>
      <path d="M 0 3 
C 0.795609 3 1.55874 2.683901 2.12132 2.12132 
C 2.683901 1.55874 3 0.795609 3 0 
C 3 -0.795609 2.683901 -1.55874 2.12132 -2.12132 
C 1.55874 -2.683901 0.795609 -3 0 -3 
C -0.795609 -3 -1.55874 -2.683901 -2.12132 -2.12132 
C -2.683901 -1.55874 -3 -0.795609 -3 0 
C -3 0.795609 -2.683901 1.55874 -2.12132 2.12132 
C -1.55874 2.683901 -0.795609 3 0 3 
z
" id="m819914af23" style="stroke:#d62728;"/>
     </defs>
     <g>
      <use style="fill:#d62728;stroke:#d62728;" x="66.534499" xlink:href="#m819914af23" y="72.38919"/>
     </g>
    </g>
    <g id="text_44">
     <!-- EUR -->
     <g transform="translate(84.534499 75.01419)scale(0.1 -0.1)">
      <use transform="scale(0.996264)" xlink:href="#CMSS17-69"/>
      <use transform="translate(55.892013 0)scale(0.996264)" xlink:href="#CMSS17-85"/>
      <use transform="translate(120.031753 0)scale(0.996264)" xlink:href="#CMSS17-82"/>
     </g>
    </g>
    <g id="PathCollection_11">
     <defs>
      <path d="M 0 3 
C 0.795609 3 1.55874 2.683901 2.12132 2.12132 
C 2.683901 1.55874 3 0.795609 3 0 
C 3 -0.795609 2.683901 -1.55874 2.12132 -2.12132 
C 1.55874 -2.683901 0.795609 -3 0 -3 
C -0.795609 -3 -1.55874 -2.683901 -2.12132 -2.12132 
C -2.683901 -1.55874 -3 -0.795609 -3 0 
C -3 0.795609 -2.683901 1.55874 -2.12132 2.12132 
C -1.55874 2.683901 -0.795609 3 0 3 
z
" id="mc8b6a61755" style="stroke:#9467bd;"/>
     </defs>
     <g>
      <use style="fill:#9467bd;stroke:#9467bd;" x="66.534499" xlink:href="#mc8b6a61755" y="86.326369"/>
     </g>
    </g>
    <g id="text_45">
     <!-- SAS -->
     <g transform="translate(84.534499 88.951369)scale(0.1 -0.1)">
      <use transform="scale(0.996264)" xlink:href="#CMSS17-83"/>
      <use transform="translate(52.048516 0)scale(0.996264)" xlink:href="#CMSS17-65"/>
      <use transform="translate(114.266371 0)scale(0.996264)" xlink:href="#CMSS17-83"/>
     </g>
    </g>
   </g>
  </g>
 </g>
 <defs>
  <clipPath id="peecc5021b6">
   <rect height="227.685991" width="223.155588" x="47.534499" y="17.202655"/>
  </clipPath>
 </defs>
</svg>
