<?xml version="1.0" encoding="utf-8" standalone="no"?>
<!DOCTYPE svg PUBLIC "-//W3C//DTD SVG 1.1//EN"
  "http://www.w3.org/Graphics/SVG/1.1/DTD/svg11.dtd">
<!-- Created with matplotlib (https://matplotlib.org/) -->
<svg height="332.578125pt" version="1.1" viewBox="0 0 452.740626 332.578125" width="452.740626pt" xmlns="http://www.w3.org/2000/svg" xmlns:xlink="http://www.w3.org/1999/xlink">
 <defs>
  <style type="text/css">
*{stroke-linecap:butt;stroke-linejoin:round;}
  </style>
 </defs>
 <g id="figure_1">
  <g id="patch_1">
   <path d="M 0 332.578125 
L 452.740626 332.578125 
L 452.740626 0 
L 0 0 
z
" style="fill:#ffffff;"/>
  </g>
  <g id="axes_1">
   <g id="patch_2">
    <path d="M 45.478125 295 
L 210.580548 295 
L 210.580548 7.2 
L 45.478125 7.2 
z
" style="fill:#ffffff;"/>
   </g>
   <g id="PolyCollection_1">
    <path clip-path="url(#p6f56bba4ee)" d="M 52.982781 20.281818 
L 52.982781 20.509739 
L 72.637159 71.051185 
L 84.134234 92.354017 
L 92.291538 104.084124 
L 98.618834 112.156141 
L 103.788612 118.490193 
L 108.159597 123.827482 
L 111.945916 128.513148 
L 115.285687 132.736303 
L 118.273213 136.610583 
L 120.975759 140.210963 
L 123.442991 143.588999 
L 125.712624 146.782187 
L 127.813976 149.818024 
L 129.770288 152.716341 
L 131.600295 155.493821 
L 133.319323 158.1636 
L 134.940065 160.735231 
L 136.473156 163.217654 
L 137.927592 165.618483 
L 139.31105 167.942557 
L 140.630138 170.195387 
L 141.89058 172.3815 
L 143.09737 174.504788 
L 144.254888 176.568189 
L 145.367002 178.575874 
L 146.43714 180.529834 
L 147.468354 182.432081 
L 148.463378 184.286406 
L 149.424666 186.093788 
L 150.354431 187.856794 
L 151.254674 189.575693 
L 152.127212 191.254318 
L 152.973701 192.894095 
L 153.795651 194.49473 
L 154.594444 196.059597 
L 155.371349 197.589232 
L 156.127535 199.084479 
L 156.864077 200.546506 
L 157.58197 201.978074 
L 158.282136 203.37857 
L 158.965429 204.750126 
L 159.632643 206.092567 
L 160.284517 207.407232 
L 160.921741 208.697135 
L 161.544959 209.959957 
L 162.154773 211.199159 
L 162.751748 212.412636 
L 163.336414 213.604322 
L 163.909267 214.773905 
L 164.470776 215.921142 
L 165.021381 217.047477 
L 165.561498 218.152898 
L 166.091518 219.239154 
L 166.611813 220.304775 
L 167.122733 221.353472 
L 167.624609 222.383975 
L 168.117757 223.396783 
L 168.602474 224.392484 
L 169.079045 225.373623 
L 169.547738 226.337281 
L 170.008809 227.284238 
L 170.462503 228.217331 
L 170.909052 229.135644 
L 171.348678 230.040258 
L 171.781591 230.93031 
L 172.207994 231.806994 
L 172.62808 232.67161 
L 173.042033 233.521285 
L 173.45003 234.359519 
L 173.852239 235.187839 
L 174.248823 236.001189 
L 174.639936 236.805562 
L 175.025728 237.595846 
L 175.406341 238.378286 
L 175.781913 239.147714 
L 176.152576 239.908245 
L 176.518456 240.656985 
L 176.879674 241.398242 
L 177.236349 242.129132 
L 177.588593 242.849149 
L 177.936515 243.560313 
L 178.280219 244.262192 
L 178.619807 244.956946 
L 178.955377 245.64159 
L 179.287021 246.31833 
L 179.614831 246.986799 
L 179.938895 247.646622 
L 180.259297 248.297421 
L 180.576119 248.941589 
L 180.88944 249.578827 
L 181.199337 250.208832 
L 181.505884 250.828422 
L 181.809152 251.442997 
L 182.10921 252.052328 
L 182.406127 252.653222 
L 182.699966 253.245356 
L 182.990792 253.831418 
L 183.278666 254.414219 
L 183.563646 254.987439 
L 183.84579 255.553851 
L 184.125155 256.116342 
L 184.401794 256.671576 
L 184.67576 257.219295 
L 184.947104 257.762468 
L 185.215876 258.29766 
L 185.482125 258.831184 
L 185.745897 259.356312 
L 186.007238 259.876123 
L 186.266192 260.390433 
L 186.522802 260.899055 
L 186.777112 261.401802 
L 187.02916 261.898484 
L 187.278988 262.392405 
L 187.526634 262.876413 
L 187.772136 263.36088 
L 188.01553 263.835044 
L 188.256853 264.309448 
L 188.496139 264.773154 
L 188.733423 265.236874 
L 188.968738 265.693189 
L 189.202116 266.141898 
L 189.433589 266.590301 
L 189.663188 267.030804 
L 189.890942 267.467012 
L 190.116882 267.898803 
L 190.341035 268.326056 
L 190.563431 268.748649 
L 190.784096 269.166457 
L 191.003056 269.575411 
L 191.220339 269.98325 
L 191.43597 270.385931 
L 191.649973 270.783328 
L 191.862373 271.179369 
L 192.073194 271.565845 
L 192.282459 271.946657 
L 192.490191 272.325813 
L 192.696412 272.699102 
L 192.901144 273.066397 
L 193.104408 273.431785 
L 193.306226 273.790975 
L 193.506617 274.143839 
L 193.705603 274.490251 
L 193.903201 274.834398 
L 194.099432 275.171888 
L 194.294315 275.502595 
L 194.487867 275.826393 
L 194.680107 276.147569 
L 194.871052 276.46607 
L 195.06072 276.772925 
L 195.249128 277.076904 
L 195.436292 277.373451 
L 195.622229 277.662444 
L 195.806955 277.948314 
L 195.990484 278.226436 
L 196.172834 278.496695 
L 196.354019 278.758975 
L 196.534053 279.013165 
L 196.712951 279.263804 
L 196.890728 279.506173 
L 197.067396 279.735475 
L 197.242972 279.960967 
L 197.417466 280.173152 
L 197.590893 280.381363 
L 197.763266 280.576043 
L 197.934598 280.761825 
L 198.1049 280.933838 
L 198.274186 281.096757 
L 198.442467 281.245695 
L 198.609755 281.385366 
L 198.776062 281.51087 
L 198.9414 281.617275 
L 199.105779 281.714174 
L 199.26921 281.791808 
L 199.431705 281.854961 
L 199.593274 281.893858 
L 199.753927 281.918182 
L 199.913676 281.918182 
L 200.072529 281.893858 
L 200.230498 281.845241 
L 200.387591 281.767536 
L 200.543819 281.66086 
L 200.699191 281.515702 
L 200.853716 281.337166 
L 201.007403 281.111154 
L 201.160262 280.842991 
L 201.312302 280.514245 
L 201.46353 280.125933 
L 201.613956 279.660503 
L 201.763589 279.101231 
L 201.912436 278.432453 
L 202.060505 277.617196 
L 202.207806 276.612627 
L 202.354345 275.328307 
L 202.500131 273.621671 
L 202.645171 271.155045 
L 202.789473 267.004356 
L 202.933044 257.820616 
L 203.075892 228.111837 
L 203.075892 226.789768 
L 203.075892 226.789768 
L 202.933044 256.122622 
L 202.789473 265.170927 
L 202.645171 269.256654 
L 202.500131 271.684329 
L 202.354345 273.360209 
L 202.207806 274.62337 
L 202.060505 275.611787 
L 201.912436 276.412867 
L 201.763589 277.072423 
L 201.613956 277.617196 
L 201.46353 278.075813 
L 201.312302 278.459977 
L 201.160262 278.782038 
L 201.007403 279.045595 
L 200.853716 279.263804 
L 200.699191 279.440822 
L 200.543819 279.580949 
L 200.387591 279.688606 
L 200.230498 279.763614 
L 200.072529 279.815238 
L 199.913676 279.838718 
L 199.753927 279.838718 
L 199.593274 279.815238 
L 199.431705 279.772997 
L 199.26921 279.716723 
L 199.105779 279.637093 
L 198.9414 279.543549 
L 198.776062 279.436157 
L 198.609755 279.314991 
L 198.442467 279.180139 
L 198.274186 279.031694 
L 198.1049 278.869759 
L 197.934598 278.699054 
L 197.763266 278.519655 
L 197.590893 278.327066 
L 197.417466 278.125978 
L 197.242972 277.911936 
L 197.067396 277.694139 
L 196.890728 277.463609 
L 196.712951 277.229484 
L 196.534053 276.987336 
L 196.354019 276.73281 
L 196.172834 276.474942 
L 195.990484 276.209365 
L 195.806955 275.936188 
L 195.622229 275.655521 
L 195.436292 275.371831 
L 195.249128 275.080835 
L 195.06072 274.782648 
L 194.871052 274.477385 
L 194.680107 274.16943 
L 194.487867 273.850346 
L 194.294315 273.532981 
L 194.099432 273.204726 
L 193.903201 272.874116 
L 193.705603 272.537053 
L 193.506617 272.193655 
L 193.306226 271.848147 
L 193.104408 271.4965 
L 192.901144 271.138835 
L 192.696412 270.775273 
L 192.490191 270.40994 
L 192.282459 270.034926 
L 192.073194 269.658333 
L 191.862373 269.276281 
L 191.649973 268.888889 
L 191.43597 268.500154 
L 191.220339 268.10242 
L 191.003056 267.703532 
L 190.784096 267.295937 
L 190.563431 266.887373 
L 190.341035 266.470393 
L 190.116882 266.048909 
L 189.890942 265.62673 
L 189.663188 265.196564 
L 189.433589 264.762244 
L 189.202116 264.320275 
L 188.968738 263.878014 
L 188.733423 263.428384 
L 188.496139 262.975104 
L 188.256853 262.514784 
L 188.01553 262.051088 
L 187.772136 261.580677 
L 187.526634 261.107157 
L 187.278988 260.627243 
L 187.02916 260.141121 
L 186.777112 259.652309 
L 186.522802 259.154294 
L 186.266192 258.653898 
L 186.007238 258.147965 
L 185.745897 257.636675 
L 185.482125 257.117008 
L 185.215876 256.595554 
L 184.947104 256.066125 
L 184.67576 255.528976 
L 184.401794 254.987439 
L 184.125155 254.44168 
L 183.84579 253.888835 
L 183.563646 253.32915 
L 183.278666 252.762868 
L 182.990792 252.190227 
L 182.699966 251.611463 
L 182.406127 251.026809 
L 182.10921 250.433643 
L 181.809152 249.835101 
L 181.505884 249.228611 
L 181.199337 248.614477 
L 180.88944 247.995738 
L 180.576119 247.367188 
L 180.259297 246.731886 
L 179.938895 246.087471 
L 179.614831 245.436931 
L 179.287021 244.775365 
L 178.955377 244.10834 
L 178.619807 243.433592 
L 178.280219 242.748967 
L 177.936515 242.054892 
L 177.588593 241.351792 
L 177.236349 240.640081 
L 176.879674 239.92017 
L 176.518456 239.187746 
L 176.152576 238.448031 
L 175.781913 237.696816 
L 175.406341 236.93692 
L 175.025728 236.16432 
L 174.639936 235.381845 
L 174.248823 234.590015 
L 173.852239 233.782894 
L 173.45003 232.967604 
L 173.042033 232.13836 
L 172.62808 231.297959 
L 172.207994 230.442976 
L 171.781591 229.576209 
L 171.348678 228.696378 
L 170.909052 227.802307 
L 170.462503 226.894831 
L 170.008809 225.972883 
L 169.547738 225.033642 
L 169.079045 224.081794 
L 168.602474 223.1128 
L 168.117757 222.12774 
L 167.624609 221.124202 
L 167.122733 220.105094 
L 166.611813 219.068153 
L 166.091518 218.012964 
L 165.561498 216.937582 
L 165.021381 215.843432 
L 164.470776 214.728788 
L 163.909267 213.592117 
L 163.336414 212.435069 
L 162.751748 211.254844 
L 162.154773 210.053255 
L 161.544959 208.826426 
L 160.921741 207.575024 
L 160.284517 206.298418 
L 159.632643 204.994818 
L 158.965429 203.663998 
L 158.282136 202.305879 
L 157.58197 200.918061 
L 156.864077 199.499712 
L 156.127535 198.050235 
L 155.371349 196.566979 
L 154.594444 195.051078 
L 153.795651 193.500499 
L 152.973701 191.912573 
L 152.127212 190.2872 
L 151.254674 188.621552 
L 150.354431 186.915329 
L 149.424666 185.166687 
L 148.463378 183.373405 
L 147.468354 181.533884 
L 146.43714 179.645394 
L 145.367002 177.705979 
L 144.254888 175.713603 
L 143.09737 173.664697 
L 141.89058 171.556 
L 140.630138 169.385354 
L 139.31105 167.147463 
L 137.927592 164.838613 
L 136.473156 162.454005 
L 134.940065 159.987548 
L 133.319323 157.431787 
L 131.600295 154.778505 
L 129.770288 152.017689 
L 127.813976 149.135872 
L 125.712624 146.117614 
L 123.442991 142.942293 
L 120.975759 139.582308 
L 118.273213 136.000624 
L 115.285687 132.146226 
L 111.945916 127.944101 
L 108.159597 123.280019 
L 103.788612 117.967082 
L 98.618834 111.660464 
L 92.291538 103.621261 
L 84.134234 91.934803 
L 72.637159 70.701262 
L 52.982781 20.281818 
z
" style="fill:#1f77b4;"/>
   </g>
   <g id="matplotlib.axis_1">
    <g id="xtick_1">
     <g id="line2d_1">
      <defs>
       <path d="M 0 0 
L 0 3.5 
" id="m33e55e4695" style="stroke:#000000;stroke-width:0.8;"/>
      </defs>
      <g>
       <use style="stroke:#000000;stroke-width:0.8;" x="52.982781" xlink:href="#m33e55e4695" y="295"/>
      </g>
     </g>
     <g id="text_1">
      <!-- $\mathdefault{10^{0}}$ -->
      <defs>
       <path d="M 12.40625 8.296875 
L 28.515625 8.296875 
L 28.515625 63.921875 
L 10.984375 60.40625 
L 10.984375 69.390625 
L 28.421875 72.90625 
L 38.28125 72.90625 
L 38.28125 8.296875 
L 54.390625 8.296875 
L 54.390625 0 
L 12.40625 0 
z
" id="DejaVuSans-49"/>
       <path d="M 31.78125 66.40625 
Q 24.171875 66.40625 20.328125 58.90625 
Q 16.5 51.421875 16.5 36.375 
Q 16.5 21.390625 20.328125 13.890625 
Q 24.171875 6.390625 31.78125 6.390625 
Q 39.453125 6.390625 43.28125 13.890625 
Q 47.125 21.390625 47.125 36.375 
Q 47.125 51.421875 43.28125 58.90625 
Q 39.453125 66.40625 31.78125 66.40625 
z
M 31.78125 74.21875 
Q 44.046875 74.21875 50.515625 64.515625 
Q 56.984375 54.828125 56.984375 36.375 
Q 56.984375 17.96875 50.515625 8.265625 
Q 44.046875 -1.421875 31.78125 -1.421875 
Q 19.53125 -1.421875 13.0625 8.265625 
Q 6.59375 17.96875 6.59375 36.375 
Q 6.59375 54.828125 13.0625 64.515625 
Q 19.53125 74.21875 31.78125 74.21875 
z
" id="DejaVuSans-48"/>
      </defs>
      <g transform="translate(44.182781 309.598437)scale(0.1 -0.1)">
       <use transform="translate(0 0.765625)" xlink:href="#DejaVuSans-49"/>
       <use transform="translate(63.623047 0.765625)" xlink:href="#DejaVuSans-48"/>
       <use transform="translate(128.203125 39.046875)scale(0.7)" xlink:href="#DejaVuSans-48"/>
      </g>
     </g>
    </g>
    <g id="xtick_2">
     <g id="line2d_2">
      <g>
       <use style="stroke:#000000;stroke-width:0.8;" x="118.273213" xlink:href="#m33e55e4695" y="295"/>
      </g>
     </g>
     <g id="text_2">
      <!-- $\mathdefault{10^{1}}$ -->
      <g transform="translate(109.473213 309.598437)scale(0.1 -0.1)">
       <use transform="translate(0 0.684375)" xlink:href="#DejaVuSans-49"/>
       <use transform="translate(63.623047 0.684375)" xlink:href="#DejaVuSans-48"/>
       <use transform="translate(128.203125 38.965625)scale(0.7)" xlink:href="#DejaVuSans-49"/>
      </g>
     </g>
    </g>
    <g id="xtick_3">
     <g id="line2d_3">
      <g>
       <use style="stroke:#000000;stroke-width:0.8;" x="183.563646" xlink:href="#m33e55e4695" y="295"/>
      </g>
     </g>
     <g id="text_3">
      <!-- $\mathdefault{10^{2}}$ -->
      <defs>
       <path d="M 19.1875 8.296875 
L 53.609375 8.296875 
L 53.609375 0 
L 7.328125 0 
L 7.328125 8.296875 
Q 12.9375 14.109375 22.625 23.890625 
Q 32.328125 33.6875 34.8125 36.53125 
Q 39.546875 41.84375 41.421875 45.53125 
Q 43.3125 49.21875 43.3125 52.78125 
Q 43.3125 58.59375 39.234375 62.25 
Q 35.15625 65.921875 28.609375 65.921875 
Q 23.96875 65.921875 18.8125 64.3125 
Q 13.671875 62.703125 7.8125 59.421875 
L 7.8125 69.390625 
Q 13.765625 71.78125 18.9375 73 
Q 24.125 74.21875 28.421875 74.21875 
Q 39.75 74.21875 46.484375 68.546875 
Q 53.21875 62.890625 53.21875 53.421875 
Q 53.21875 48.921875 51.53125 44.890625 
Q 49.859375 40.875 45.40625 35.40625 
Q 44.1875 33.984375 37.640625 27.21875 
Q 31.109375 20.453125 19.1875 8.296875 
z
" id="DejaVuSans-50"/>
      </defs>
      <g transform="translate(174.763646 309.598437)scale(0.1 -0.1)">
       <use transform="translate(0 0.765625)" xlink:href="#DejaVuSans-49"/>
       <use transform="translate(63.623047 0.765625)" xlink:href="#DejaVuSans-48"/>
       <use transform="translate(128.203125 39.046875)scale(0.7)" xlink:href="#DejaVuSans-50"/>
      </g>
     </g>
    </g>
    <g id="xtick_4">
     <g id="line2d_4">
      <defs>
       <path d="M 0 0 
L 0 2 
" id="mc346cfcf8d" style="stroke:#000000;stroke-width:0.6;"/>
      </defs>
      <g>
       <use style="stroke:#000000;stroke-width:0.6;" x="46.655484" xlink:href="#mc346cfcf8d" y="295"/>
      </g>
     </g>
    </g>
    <g id="xtick_5">
     <g id="line2d_5">
      <g>
       <use style="stroke:#000000;stroke-width:0.6;" x="49.995254" xlink:href="#mc346cfcf8d" y="295"/>
      </g>
     </g>
    </g>
    <g id="xtick_6">
     <g id="line2d_6">
      <g>
       <use style="stroke:#000000;stroke-width:0.6;" x="72.637159" xlink:href="#mc346cfcf8d" y="295"/>
      </g>
     </g>
    </g>
    <g id="xtick_7">
     <g id="line2d_7">
      <g>
       <use style="stroke:#000000;stroke-width:0.6;" x="84.134234" xlink:href="#mc346cfcf8d" y="295"/>
      </g>
     </g>
    </g>
    <g id="xtick_8">
     <g id="line2d_8">
      <g>
       <use style="stroke:#000000;stroke-width:0.6;" x="92.291538" xlink:href="#mc346cfcf8d" y="295"/>
      </g>
     </g>
    </g>
    <g id="xtick_9">
     <g id="line2d_9">
      <g>
       <use style="stroke:#000000;stroke-width:0.6;" x="98.618834" xlink:href="#mc346cfcf8d" y="295"/>
      </g>
     </g>
    </g>
    <g id="xtick_10">
     <g id="line2d_10">
      <g>
       <use style="stroke:#000000;stroke-width:0.6;" x="103.788612" xlink:href="#mc346cfcf8d" y="295"/>
      </g>
     </g>
    </g>
    <g id="xtick_11">
     <g id="line2d_11">
      <g>
       <use style="stroke:#000000;stroke-width:0.6;" x="108.159597" xlink:href="#mc346cfcf8d" y="295"/>
      </g>
     </g>
    </g>
    <g id="xtick_12">
     <g id="line2d_12">
      <g>
       <use style="stroke:#000000;stroke-width:0.6;" x="111.945916" xlink:href="#mc346cfcf8d" y="295"/>
      </g>
     </g>
    </g>
    <g id="xtick_13">
     <g id="line2d_13">
      <g>
       <use style="stroke:#000000;stroke-width:0.6;" x="115.285687" xlink:href="#mc346cfcf8d" y="295"/>
      </g>
     </g>
    </g>
    <g id="xtick_14">
     <g id="line2d_14">
      <g>
       <use style="stroke:#000000;stroke-width:0.6;" x="137.927592" xlink:href="#mc346cfcf8d" y="295"/>
      </g>
     </g>
    </g>
    <g id="xtick_15">
     <g id="line2d_15">
      <g>
       <use style="stroke:#000000;stroke-width:0.6;" x="149.424666" xlink:href="#mc346cfcf8d" y="295"/>
      </g>
     </g>
    </g>
    <g id="xtick_16">
     <g id="line2d_16">
      <g>
       <use style="stroke:#000000;stroke-width:0.6;" x="157.58197" xlink:href="#mc346cfcf8d" y="295"/>
      </g>
     </g>
    </g>
    <g id="xtick_17">
     <g id="line2d_17">
      <g>
       <use style="stroke:#000000;stroke-width:0.6;" x="163.909267" xlink:href="#mc346cfcf8d" y="295"/>
      </g>
     </g>
    </g>
    <g id="xtick_18">
     <g id="line2d_18">
      <g>
       <use style="stroke:#000000;stroke-width:0.6;" x="169.079045" xlink:href="#mc346cfcf8d" y="295"/>
      </g>
     </g>
    </g>
    <g id="xtick_19">
     <g id="line2d_19">
      <g>
       <use style="stroke:#000000;stroke-width:0.6;" x="173.45003" xlink:href="#mc346cfcf8d" y="295"/>
      </g>
     </g>
    </g>
    <g id="xtick_20">
     <g id="line2d_20">
      <g>
       <use style="stroke:#000000;stroke-width:0.6;" x="177.236349" xlink:href="#mc346cfcf8d" y="295"/>
      </g>
     </g>
    </g>
    <g id="xtick_21">
     <g id="line2d_21">
      <g>
       <use style="stroke:#000000;stroke-width:0.6;" x="180.576119" xlink:href="#mc346cfcf8d" y="295"/>
      </g>
     </g>
    </g>
    <g id="xtick_22">
     <g id="line2d_22">
      <g>
       <use style="stroke:#000000;stroke-width:0.6;" x="203.218024" xlink:href="#mc346cfcf8d" y="295"/>
      </g>
     </g>
    </g>
    <g id="text_4">
     <!-- sample frequency -->
     <defs>
      <path d="M 44.28125 53.078125 
L 44.28125 44.578125 
Q 40.484375 46.53125 36.375 47.5 
Q 32.28125 48.484375 27.875 48.484375 
Q 21.1875 48.484375 17.84375 46.4375 
Q 14.5 44.390625 14.5 40.28125 
Q 14.5 37.15625 16.890625 35.375 
Q 19.28125 33.59375 26.515625 31.984375 
L 29.59375 31.296875 
Q 39.15625 29.25 43.1875 25.515625 
Q 47.21875 21.78125 47.21875 15.09375 
Q 47.21875 7.46875 41.1875 3.015625 
Q 35.15625 -1.421875 24.609375 -1.421875 
Q 20.21875 -1.421875 15.453125 -0.5625 
Q 10.6875 0.296875 5.421875 2 
L 5.421875 11.28125 
Q 10.40625 8.6875 15.234375 7.390625 
Q 20.0625 6.109375 24.8125 6.109375 
Q 31.15625 6.109375 34.5625 8.28125 
Q 37.984375 10.453125 37.984375 14.40625 
Q 37.984375 18.0625 35.515625 20.015625 
Q 33.0625 21.96875 24.703125 23.78125 
L 21.578125 24.515625 
Q 13.234375 26.265625 9.515625 29.90625 
Q 5.8125 33.546875 5.8125 39.890625 
Q 5.8125 47.609375 11.28125 51.796875 
Q 16.75 56 26.8125 56 
Q 31.78125 56 36.171875 55.265625 
Q 40.578125 54.546875 44.28125 53.078125 
z
" id="DejaVuSans-115"/>
      <path d="M 34.28125 27.484375 
Q 23.390625 27.484375 19.1875 25 
Q 14.984375 22.515625 14.984375 16.5 
Q 14.984375 11.71875 18.140625 8.90625 
Q 21.296875 6.109375 26.703125 6.109375 
Q 34.1875 6.109375 38.703125 11.40625 
Q 43.21875 16.703125 43.21875 25.484375 
L 43.21875 27.484375 
z
M 52.203125 31.203125 
L 52.203125 0 
L 43.21875 0 
L 43.21875 8.296875 
Q 40.140625 3.328125 35.546875 0.953125 
Q 30.953125 -1.421875 24.3125 -1.421875 
Q 15.921875 -1.421875 10.953125 3.296875 
Q 6 8.015625 6 15.921875 
Q 6 25.140625 12.171875 29.828125 
Q 18.359375 34.515625 30.609375 34.515625 
L 43.21875 34.515625 
L 43.21875 35.40625 
Q 43.21875 41.609375 39.140625 45 
Q 35.0625 48.390625 27.6875 48.390625 
Q 23 48.390625 18.546875 47.265625 
Q 14.109375 46.140625 10.015625 43.890625 
L 10.015625 52.203125 
Q 14.9375 54.109375 19.578125 55.046875 
Q 24.21875 56 28.609375 56 
Q 40.484375 56 46.34375 49.84375 
Q 52.203125 43.703125 52.203125 31.203125 
z
" id="DejaVuSans-97"/>
      <path d="M 52 44.1875 
Q 55.375 50.25 60.0625 53.125 
Q 64.75 56 71.09375 56 
Q 79.640625 56 84.28125 50.015625 
Q 88.921875 44.046875 88.921875 33.015625 
L 88.921875 0 
L 79.890625 0 
L 79.890625 32.71875 
Q 79.890625 40.578125 77.09375 44.375 
Q 74.3125 48.1875 68.609375 48.1875 
Q 61.625 48.1875 57.5625 43.546875 
Q 53.515625 38.921875 53.515625 30.90625 
L 53.515625 0 
L 44.484375 0 
L 44.484375 32.71875 
Q 44.484375 40.625 41.703125 44.40625 
Q 38.921875 48.1875 33.109375 48.1875 
Q 26.21875 48.1875 22.15625 43.53125 
Q 18.109375 38.875 18.109375 30.90625 
L 18.109375 0 
L 9.078125 0 
L 9.078125 54.6875 
L 18.109375 54.6875 
L 18.109375 46.1875 
Q 21.1875 51.21875 25.484375 53.609375 
Q 29.78125 56 35.6875 56 
Q 41.65625 56 45.828125 52.96875 
Q 50 49.953125 52 44.1875 
z
" id="DejaVuSans-109"/>
      <path d="M 18.109375 8.203125 
L 18.109375 -20.796875 
L 9.078125 -20.796875 
L 9.078125 54.6875 
L 18.109375 54.6875 
L 18.109375 46.390625 
Q 20.953125 51.265625 25.265625 53.625 
Q 29.59375 56 35.59375 56 
Q 45.5625 56 51.78125 48.09375 
Q 58.015625 40.1875 58.015625 27.296875 
Q 58.015625 14.40625 51.78125 6.484375 
Q 45.5625 -1.421875 35.59375 -1.421875 
Q 29.59375 -1.421875 25.265625 0.953125 
Q 20.953125 3.328125 18.109375 8.203125 
z
M 48.6875 27.296875 
Q 48.6875 37.203125 44.609375 42.84375 
Q 40.53125 48.484375 33.40625 48.484375 
Q 26.265625 48.484375 22.1875 42.84375 
Q 18.109375 37.203125 18.109375 27.296875 
Q 18.109375 17.390625 22.1875 11.75 
Q 26.265625 6.109375 33.40625 6.109375 
Q 40.53125 6.109375 44.609375 11.75 
Q 48.6875 17.390625 48.6875 27.296875 
z
" id="DejaVuSans-112"/>
      <path d="M 9.421875 75.984375 
L 18.40625 75.984375 
L 18.40625 0 
L 9.421875 0 
z
" id="DejaVuSans-108"/>
      <path d="M 56.203125 29.59375 
L 56.203125 25.203125 
L 14.890625 25.203125 
Q 15.484375 15.921875 20.484375 11.0625 
Q 25.484375 6.203125 34.421875 6.203125 
Q 39.59375 6.203125 44.453125 7.46875 
Q 49.3125 8.734375 54.109375 11.28125 
L 54.109375 2.78125 
Q 49.265625 0.734375 44.1875 -0.34375 
Q 39.109375 -1.421875 33.890625 -1.421875 
Q 20.796875 -1.421875 13.15625 6.1875 
Q 5.515625 13.8125 5.515625 26.8125 
Q 5.515625 40.234375 12.765625 48.109375 
Q 20.015625 56 32.328125 56 
Q 43.359375 56 49.78125 48.890625 
Q 56.203125 41.796875 56.203125 29.59375 
z
M 47.21875 32.234375 
Q 47.125 39.59375 43.09375 43.984375 
Q 39.0625 48.390625 32.421875 48.390625 
Q 24.90625 48.390625 20.390625 44.140625 
Q 15.875 39.890625 15.1875 32.171875 
z
" id="DejaVuSans-101"/>
      <path id="DejaVuSans-32"/>
      <path d="M 37.109375 75.984375 
L 37.109375 68.5 
L 28.515625 68.5 
Q 23.6875 68.5 21.796875 66.546875 
Q 19.921875 64.59375 19.921875 59.515625 
L 19.921875 54.6875 
L 34.71875 54.6875 
L 34.71875 47.703125 
L 19.921875 47.703125 
L 19.921875 0 
L 10.890625 0 
L 10.890625 47.703125 
L 2.296875 47.703125 
L 2.296875 54.6875 
L 10.890625 54.6875 
L 10.890625 58.5 
Q 10.890625 67.625 15.140625 71.796875 
Q 19.390625 75.984375 28.609375 75.984375 
z
" id="DejaVuSans-102"/>
      <path d="M 41.109375 46.296875 
Q 39.59375 47.171875 37.8125 47.578125 
Q 36.03125 48 33.890625 48 
Q 26.265625 48 22.1875 43.046875 
Q 18.109375 38.09375 18.109375 28.8125 
L 18.109375 0 
L 9.078125 0 
L 9.078125 54.6875 
L 18.109375 54.6875 
L 18.109375 46.1875 
Q 20.953125 51.171875 25.484375 53.578125 
Q 30.03125 56 36.53125 56 
Q 37.453125 56 38.578125 55.875 
Q 39.703125 55.765625 41.0625 55.515625 
z
" id="DejaVuSans-114"/>
      <path d="M 14.796875 27.296875 
Q 14.796875 17.390625 18.875 11.75 
Q 22.953125 6.109375 30.078125 6.109375 
Q 37.203125 6.109375 41.296875 11.75 
Q 45.40625 17.390625 45.40625 27.296875 
Q 45.40625 37.203125 41.296875 42.84375 
Q 37.203125 48.484375 30.078125 48.484375 
Q 22.953125 48.484375 18.875 42.84375 
Q 14.796875 37.203125 14.796875 27.296875 
z
M 45.40625 8.203125 
Q 42.578125 3.328125 38.25 0.953125 
Q 33.9375 -1.421875 27.875 -1.421875 
Q 17.96875 -1.421875 11.734375 6.484375 
Q 5.515625 14.40625 5.515625 27.296875 
Q 5.515625 40.1875 11.734375 48.09375 
Q 17.96875 56 27.875 56 
Q 33.9375 56 38.25 53.625 
Q 42.578125 51.265625 45.40625 46.390625 
L 45.40625 54.6875 
L 54.390625 54.6875 
L 54.390625 -20.796875 
L 45.40625 -20.796875 
z
" id="DejaVuSans-113"/>
      <path d="M 8.5 21.578125 
L 8.5 54.6875 
L 17.484375 54.6875 
L 17.484375 21.921875 
Q 17.484375 14.15625 20.5 10.265625 
Q 23.53125 6.390625 29.59375 6.390625 
Q 36.859375 6.390625 41.078125 11.03125 
Q 45.3125 15.671875 45.3125 23.6875 
L 45.3125 54.6875 
L 54.296875 54.6875 
L 54.296875 0 
L 45.3125 0 
L 45.3125 8.40625 
Q 42.046875 3.421875 37.71875 1 
Q 33.40625 -1.421875 27.6875 -1.421875 
Q 18.265625 -1.421875 13.375 4.4375 
Q 8.5 10.296875 8.5 21.578125 
z
M 31.109375 56 
z
" id="DejaVuSans-117"/>
      <path d="M 54.890625 33.015625 
L 54.890625 0 
L 45.90625 0 
L 45.90625 32.71875 
Q 45.90625 40.484375 42.875 44.328125 
Q 39.84375 48.1875 33.796875 48.1875 
Q 26.515625 48.1875 22.3125 43.546875 
Q 18.109375 38.921875 18.109375 30.90625 
L 18.109375 0 
L 9.078125 0 
L 9.078125 54.6875 
L 18.109375 54.6875 
L 18.109375 46.1875 
Q 21.34375 51.125 25.703125 53.5625 
Q 30.078125 56 35.796875 56 
Q 45.21875 56 50.046875 50.171875 
Q 54.890625 44.34375 54.890625 33.015625 
z
" id="DejaVuSans-110"/>
      <path d="M 48.78125 52.59375 
L 48.78125 44.1875 
Q 44.96875 46.296875 41.140625 47.34375 
Q 37.3125 48.390625 33.40625 48.390625 
Q 24.65625 48.390625 19.8125 42.84375 
Q 14.984375 37.3125 14.984375 27.296875 
Q 14.984375 17.28125 19.8125 11.734375 
Q 24.65625 6.203125 33.40625 6.203125 
Q 37.3125 6.203125 41.140625 7.25 
Q 44.96875 8.296875 48.78125 10.40625 
L 48.78125 2.09375 
Q 45.015625 0.34375 40.984375 -0.53125 
Q 36.96875 -1.421875 32.421875 -1.421875 
Q 20.0625 -1.421875 12.78125 6.34375 
Q 5.515625 14.109375 5.515625 27.296875 
Q 5.515625 40.671875 12.859375 48.328125 
Q 20.21875 56 33.015625 56 
Q 37.15625 56 41.109375 55.140625 
Q 45.0625 54.296875 48.78125 52.59375 
z
" id="DejaVuSans-99"/>
      <path d="M 32.171875 -5.078125 
Q 28.375 -14.84375 24.75 -17.8125 
Q 21.140625 -20.796875 15.09375 -20.796875 
L 7.90625 -20.796875 
L 7.90625 -13.28125 
L 13.1875 -13.28125 
Q 16.890625 -13.28125 18.9375 -11.515625 
Q 21 -9.765625 23.484375 -3.21875 
L 25.09375 0.875 
L 2.984375 54.6875 
L 12.5 54.6875 
L 29.59375 11.921875 
L 46.6875 54.6875 
L 56.203125 54.6875 
z
" id="DejaVuSans-121"/>
     </defs>
     <g transform="translate(83.184805 323.276562)scale(0.1 -0.1)">
      <use xlink:href="#DejaVuSans-115"/>
      <use x="52.099609" xlink:href="#DejaVuSans-97"/>
      <use x="113.378906" xlink:href="#DejaVuSans-109"/>
      <use x="210.791016" xlink:href="#DejaVuSans-112"/>
      <use x="274.267578" xlink:href="#DejaVuSans-108"/>
      <use x="302.050781" xlink:href="#DejaVuSans-101"/>
      <use x="363.574219" xlink:href="#DejaVuSans-32"/>
      <use x="395.361328" xlink:href="#DejaVuSans-102"/>
      <use x="430.566406" xlink:href="#DejaVuSans-114"/>
      <use x="469.429688" xlink:href="#DejaVuSans-101"/>
      <use x="530.953125" xlink:href="#DejaVuSans-113"/>
      <use x="594.429688" xlink:href="#DejaVuSans-117"/>
      <use x="657.808594" xlink:href="#DejaVuSans-101"/>
      <use x="719.332031" xlink:href="#DejaVuSans-110"/>
      <use x="782.710938" xlink:href="#DejaVuSans-99"/>
      <use x="837.691406" xlink:href="#DejaVuSans-121"/>
     </g>
    </g>
   </g>
   <g id="matplotlib.axis_2">
    <g id="ytick_1">
     <g id="line2d_23">
      <defs>
       <path d="M 0 0 
L -3.5 0 
" id="m3bf5882713" style="stroke:#000000;stroke-width:0.8;"/>
      </defs>
      <g>
       <use style="stroke:#000000;stroke-width:0.8;" x="45.478125" xlink:href="#m3bf5882713" y="293.175847"/>
      </g>
     </g>
     <g id="text_5">
      <!-- $\mathdefault{10^{4}}$ -->
      <defs>
       <path d="M 37.796875 64.3125 
L 12.890625 25.390625 
L 37.796875 25.390625 
z
M 35.203125 72.90625 
L 47.609375 72.90625 
L 47.609375 25.390625 
L 58.015625 25.390625 
L 58.015625 17.1875 
L 47.609375 17.1875 
L 47.609375 0 
L 37.796875 0 
L 37.796875 17.1875 
L 4.890625 17.1875 
L 4.890625 26.703125 
z
" id="DejaVuSans-52"/>
      </defs>
      <g transform="translate(20.878125 296.975065)scale(0.1 -0.1)">
       <use transform="translate(0 0.684375)" xlink:href="#DejaVuSans-49"/>
       <use transform="translate(63.623047 0.684375)" xlink:href="#DejaVuSans-48"/>
       <use transform="translate(128.203125 38.965625)scale(0.7)" xlink:href="#DejaVuSans-52"/>
      </g>
     </g>
    </g>
    <g id="ytick_2">
     <g id="line2d_24">
      <g>
       <use style="stroke:#000000;stroke-width:0.8;" x="45.478125" xlink:href="#m3bf5882713" y="157.542424"/>
      </g>
     </g>
     <g id="text_6">
      <!-- $\mathdefault{10^{5}}$ -->
      <defs>
       <path d="M 10.796875 72.90625 
L 49.515625 72.90625 
L 49.515625 64.59375 
L 19.828125 64.59375 
L 19.828125 46.734375 
Q 21.96875 47.46875 24.109375 47.828125 
Q 26.265625 48.1875 28.421875 48.1875 
Q 40.625 48.1875 47.75 41.5 
Q 54.890625 34.8125 54.890625 23.390625 
Q 54.890625 11.625 47.5625 5.09375 
Q 40.234375 -1.421875 26.90625 -1.421875 
Q 22.3125 -1.421875 17.546875 -0.640625 
Q 12.796875 0.140625 7.71875 1.703125 
L 7.71875 11.625 
Q 12.109375 9.234375 16.796875 8.0625 
Q 21.484375 6.890625 26.703125 6.890625 
Q 35.15625 6.890625 40.078125 11.328125 
Q 45.015625 15.765625 45.015625 23.390625 
Q 45.015625 31 40.078125 35.4375 
Q 35.15625 39.890625 26.703125 39.890625 
Q 22.75 39.890625 18.8125 39.015625 
Q 14.890625 38.140625 10.796875 36.28125 
z
" id="DejaVuSans-53"/>
      </defs>
      <g transform="translate(20.878125 161.341643)scale(0.1 -0.1)">
       <use transform="translate(0 0.684375)" xlink:href="#DejaVuSans-49"/>
       <use transform="translate(63.623047 0.684375)" xlink:href="#DejaVuSans-48"/>
       <use transform="translate(128.203125 38.965625)scale(0.7)" xlink:href="#DejaVuSans-53"/>
      </g>
     </g>
    </g>
    <g id="ytick_3">
     <g id="line2d_25">
      <g>
       <use style="stroke:#000000;stroke-width:0.8;" x="45.478125" xlink:href="#m3bf5882713" y="21.909001"/>
      </g>
     </g>
     <g id="text_7">
      <!-- $\mathdefault{10^{6}}$ -->
      <defs>
       <path d="M 33.015625 40.375 
Q 26.375 40.375 22.484375 35.828125 
Q 18.609375 31.296875 18.609375 23.390625 
Q 18.609375 15.53125 22.484375 10.953125 
Q 26.375 6.390625 33.015625 6.390625 
Q 39.65625 6.390625 43.53125 10.953125 
Q 47.40625 15.53125 47.40625 23.390625 
Q 47.40625 31.296875 43.53125 35.828125 
Q 39.65625 40.375 33.015625 40.375 
z
M 52.59375 71.296875 
L 52.59375 62.3125 
Q 48.875 64.0625 45.09375 64.984375 
Q 41.3125 65.921875 37.59375 65.921875 
Q 27.828125 65.921875 22.671875 59.328125 
Q 17.53125 52.734375 16.796875 39.40625 
Q 19.671875 43.65625 24.015625 45.921875 
Q 28.375 48.1875 33.59375 48.1875 
Q 44.578125 48.1875 50.953125 41.515625 
Q 57.328125 34.859375 57.328125 23.390625 
Q 57.328125 12.15625 50.6875 5.359375 
Q 44.046875 -1.421875 33.015625 -1.421875 
Q 20.359375 -1.421875 13.671875 8.265625 
Q 6.984375 17.96875 6.984375 36.375 
Q 6.984375 53.65625 15.1875 63.9375 
Q 23.390625 74.21875 37.203125 74.21875 
Q 40.921875 74.21875 44.703125 73.484375 
Q 48.484375 72.75 52.59375 71.296875 
z
" id="DejaVuSans-54"/>
      </defs>
      <g transform="translate(20.878125 25.70822)scale(0.1 -0.1)">
       <use transform="translate(0 0.765625)" xlink:href="#DejaVuSans-49"/>
       <use transform="translate(63.623047 0.765625)" xlink:href="#DejaVuSans-48"/>
       <use transform="translate(128.203125 39.046875)scale(0.7)" xlink:href="#DejaVuSans-54"/>
      </g>
     </g>
    </g>
    <g id="ytick_4">
     <g id="line2d_26">
      <defs>
       <path d="M 0 0 
L -2 0 
" id="m6c1b889fbc" style="stroke:#000000;stroke-width:0.6;"/>
      </defs>
      <g>
       <use style="stroke:#000000;stroke-width:0.6;" x="45.478125" xlink:href="#m6c1b889fbc" y="252.346118"/>
      </g>
     </g>
    </g>
    <g id="ytick_5">
     <g id="line2d_27">
      <g>
       <use style="stroke:#000000;stroke-width:0.6;" x="45.478125" xlink:href="#m6c1b889fbc" y="228.462258"/>
      </g>
     </g>
    </g>
    <g id="ytick_6">
     <g id="line2d_28">
      <g>
       <use style="stroke:#000000;stroke-width:0.6;" x="45.478125" xlink:href="#m6c1b889fbc" y="211.516389"/>
      </g>
     </g>
    </g>
    <g id="ytick_7">
     <g id="line2d_29">
      <g>
       <use style="stroke:#000000;stroke-width:0.6;" x="45.478125" xlink:href="#m6c1b889fbc" y="198.372153"/>
      </g>
     </g>
    </g>
    <g id="ytick_8">
     <g id="line2d_30">
      <g>
       <use style="stroke:#000000;stroke-width:0.6;" x="45.478125" xlink:href="#m6c1b889fbc" y="187.632529"/>
      </g>
     </g>
    </g>
    <g id="ytick_9">
     <g id="line2d_31">
      <g>
       <use style="stroke:#000000;stroke-width:0.6;" x="45.478125" xlink:href="#m6c1b889fbc" y="178.552307"/>
      </g>
     </g>
    </g>
    <g id="ytick_10">
     <g id="line2d_32">
      <g>
       <use style="stroke:#000000;stroke-width:0.6;" x="45.478125" xlink:href="#m6c1b889fbc" y="170.686661"/>
      </g>
     </g>
    </g>
    <g id="ytick_11">
     <g id="line2d_33">
      <g>
       <use style="stroke:#000000;stroke-width:0.6;" x="45.478125" xlink:href="#m6c1b889fbc" y="163.748669"/>
      </g>
     </g>
    </g>
    <g id="ytick_12">
     <g id="line2d_34">
      <g>
       <use style="stroke:#000000;stroke-width:0.6;" x="45.478125" xlink:href="#m6c1b889fbc" y="116.712695"/>
      </g>
     </g>
    </g>
    <g id="ytick_13">
     <g id="line2d_35">
      <g>
       <use style="stroke:#000000;stroke-width:0.6;" x="45.478125" xlink:href="#m6c1b889fbc" y="92.828835"/>
      </g>
     </g>
    </g>
    <g id="ytick_14">
     <g id="line2d_36">
      <g>
       <use style="stroke:#000000;stroke-width:0.6;" x="45.478125" xlink:href="#m6c1b889fbc" y="75.882967"/>
      </g>
     </g>
    </g>
    <g id="ytick_15">
     <g id="line2d_37">
      <g>
       <use style="stroke:#000000;stroke-width:0.6;" x="45.478125" xlink:href="#m6c1b889fbc" y="62.73873"/>
      </g>
     </g>
    </g>
    <g id="ytick_16">
     <g id="line2d_38">
      <g>
       <use style="stroke:#000000;stroke-width:0.6;" x="45.478125" xlink:href="#m6c1b889fbc" y="51.999106"/>
      </g>
     </g>
    </g>
    <g id="ytick_17">
     <g id="line2d_39">
      <g>
       <use style="stroke:#000000;stroke-width:0.6;" x="45.478125" xlink:href="#m6c1b889fbc" y="42.918884"/>
      </g>
     </g>
    </g>
    <g id="ytick_18">
     <g id="line2d_40">
      <g>
       <use style="stroke:#000000;stroke-width:0.6;" x="45.478125" xlink:href="#m6c1b889fbc" y="35.053238"/>
      </g>
     </g>
    </g>
    <g id="ytick_19">
     <g id="line2d_41">
      <g>
       <use style="stroke:#000000;stroke-width:0.6;" x="45.478125" xlink:href="#m6c1b889fbc" y="28.115246"/>
      </g>
     </g>
    </g>
    <g id="text_8">
     <!-- variant count -->
     <defs>
      <path d="M 2.984375 54.6875 
L 12.5 54.6875 
L 29.59375 8.796875 
L 46.6875 54.6875 
L 56.203125 54.6875 
L 35.6875 0 
L 23.484375 0 
z
" id="DejaVuSans-118"/>
      <path d="M 9.421875 54.6875 
L 18.40625 54.6875 
L 18.40625 0 
L 9.421875 0 
z
M 9.421875 75.984375 
L 18.40625 75.984375 
L 18.40625 64.59375 
L 9.421875 64.59375 
z
" id="DejaVuSans-105"/>
      <path d="M 18.3125 70.21875 
L 18.3125 54.6875 
L 36.8125 54.6875 
L 36.8125 47.703125 
L 18.3125 47.703125 
L 18.3125 18.015625 
Q 18.3125 11.328125 20.140625 9.421875 
Q 21.96875 7.515625 27.59375 7.515625 
L 36.8125 7.515625 
L 36.8125 0 
L 27.59375 0 
Q 17.1875 0 13.234375 3.875 
Q 9.28125 7.765625 9.28125 18.015625 
L 9.28125 47.703125 
L 2.6875 47.703125 
L 2.6875 54.6875 
L 9.28125 54.6875 
L 9.28125 70.21875 
z
" id="DejaVuSans-116"/>
      <path d="M 30.609375 48.390625 
Q 23.390625 48.390625 19.1875 42.75 
Q 14.984375 37.109375 14.984375 27.296875 
Q 14.984375 17.484375 19.15625 11.84375 
Q 23.34375 6.203125 30.609375 6.203125 
Q 37.796875 6.203125 41.984375 11.859375 
Q 46.1875 17.53125 46.1875 27.296875 
Q 46.1875 37.015625 41.984375 42.703125 
Q 37.796875 48.390625 30.609375 48.390625 
z
M 30.609375 56 
Q 42.328125 56 49.015625 48.375 
Q 55.71875 40.765625 55.71875 27.296875 
Q 55.71875 13.875 49.015625 6.21875 
Q 42.328125 -1.421875 30.609375 -1.421875 
Q 18.84375 -1.421875 12.171875 6.21875 
Q 5.515625 13.875 5.515625 27.296875 
Q 5.515625 40.765625 12.171875 48.375 
Q 18.84375 56 30.609375 56 
z
" id="DejaVuSans-111"/>
     </defs>
     <g transform="translate(14.798438 184.45625)rotate(-90)scale(0.1 -0.1)">
      <use xlink:href="#DejaVuSans-118"/>
      <use x="59.179688" xlink:href="#DejaVuSans-97"/>
      <use x="120.458984" xlink:href="#DejaVuSans-114"/>
      <use x="161.572266" xlink:href="#DejaVuSans-105"/>
      <use x="189.355469" xlink:href="#DejaVuSans-97"/>
      <use x="250.634766" xlink:href="#DejaVuSans-110"/>
      <use x="314.013672" xlink:href="#DejaVuSans-116"/>
      <use x="353.222656" xlink:href="#DejaVuSans-32"/>
      <use x="385.009766" xlink:href="#DejaVuSans-99"/>
      <use x="439.990234" xlink:href="#DejaVuSans-111"/>
      <use x="501.171875" xlink:href="#DejaVuSans-117"/>
      <use x="564.550781" xlink:href="#DejaVuSans-110"/>
      <use x="627.929688" xlink:href="#DejaVuSans-116"/>
     </g>
    </g>
   </g>
   <g id="line2d_42">
    <defs>
     <path d="M 0 1.5 
C 0.397805 1.5 0.77937 1.341951 1.06066 1.06066 
C 1.341951 0.77937 1.5 0.397805 1.5 0 
C 1.5 -0.397805 1.341951 -0.77937 1.06066 -1.06066 
C 0.77937 -1.341951 0.397805 -1.5 0 -1.5 
C -0.397805 -1.5 -0.77937 -1.341951 -1.06066 -1.06066 
C -1.341951 -0.77937 -1.5 -0.397805 -1.5 0 
C -1.5 0.397805 -1.341951 0.77937 -1.06066 1.06066 
C -0.77937 1.341951 -0.397805 1.5 0 1.5 
z
" id="m1c219c995d" style="stroke:#1f77b4;"/>
    </defs>
    <g clip-path="url(#p6f56bba4ee)">
     <use style="fill:#1f77b4;stroke:#1f77b4;" x="52.982781" xlink:href="#m1c219c995d" y="20.391076"/>
     <use style="fill:#1f77b4;stroke:#1f77b4;" x="72.637159" xlink:href="#m1c219c995d" y="70.917571"/>
     <use style="fill:#1f77b4;stroke:#1f77b4;" x="84.134234" xlink:href="#m1c219c995d" y="92.173739"/>
     <use style="fill:#1f77b4;stroke:#1f77b4;" x="92.291538" xlink:href="#m1c219c995d" y="103.925085"/>
     <use style="fill:#1f77b4;stroke:#1f77b4;" x="98.618834" xlink:href="#m1c219c995d" y="111.803635"/>
     <use style="fill:#1f77b4;stroke:#1f77b4;" x="103.788612" xlink:href="#m1c219c995d" y="118.404351"/>
     <use style="fill:#1f77b4;stroke:#1f77b4;" x="108.159597" xlink:href="#m1c219c995d" y="123.647631"/>
     <use style="fill:#1f77b4;stroke:#1f77b4;" x="111.945916" xlink:href="#m1c219c995d" y="128.196968"/>
     <use style="fill:#1f77b4;stroke:#1f77b4;" x="115.285687" xlink:href="#m1c219c995d" y="132.815609"/>
     <use style="fill:#1f77b4;stroke:#1f77b4;" x="118.273213" xlink:href="#m1c219c995d" y="136.032914"/>
     <use style="fill:#1f77b4;stroke:#1f77b4;" x="120.975759" xlink:href="#m1c219c995d" y="139.653132"/>
     <use style="fill:#1f77b4;stroke:#1f77b4;" x="123.442991" xlink:href="#m1c219c995d" y="143.100194"/>
     <use style="fill:#1f77b4;stroke:#1f77b4;" x="125.712624" xlink:href="#m1c219c995d" y="146.389466"/>
     <use style="fill:#1f77b4;stroke:#1f77b4;" x="127.813976" xlink:href="#m1c219c995d" y="149.552546"/>
     <use style="fill:#1f77b4;stroke:#1f77b4;" x="129.770288" xlink:href="#m1c219c995d" y="152.072955"/>
     <use style="fill:#1f77b4;stroke:#1f77b4;" x="131.600295" xlink:href="#m1c219c995d" y="154.750971"/>
     <use style="fill:#1f77b4;stroke:#1f77b4;" x="133.319323" xlink:href="#m1c219c995d" y="157.590746"/>
     <use style="fill:#1f77b4;stroke:#1f77b4;" x="134.940065" xlink:href="#m1c219c995d" y="160.309556"/>
     <use style="fill:#1f77b4;stroke:#1f77b4;" x="136.473156" xlink:href="#m1c219c995d" y="162.593749"/>
     <use style="fill:#1f77b4;stroke:#1f77b4;" x="137.927592" xlink:href="#m1c219c995d" y="165.552311"/>
     <use style="fill:#1f77b4;stroke:#1f77b4;" x="139.31105" xlink:href="#m1c219c995d" y="167.569852"/>
     <use style="fill:#1f77b4;stroke:#1f77b4;" x="140.630138" xlink:href="#m1c219c995d" y="169.961459"/>
     <use style="fill:#1f77b4;stroke:#1f77b4;" x="141.89058" xlink:href="#m1c219c995d" y="172.188576"/>
     <use style="fill:#1f77b4;stroke:#1f77b4;" x="143.09737" xlink:href="#m1c219c995d" y="174.055561"/>
     <use style="fill:#1f77b4;stroke:#1f77b4;" x="144.254888" xlink:href="#m1c219c995d" y="176.504761"/>
     <use style="fill:#1f77b4;stroke:#1f77b4;" x="145.367002" xlink:href="#m1c219c995d" y="178.23675"/>
     <use style="fill:#1f77b4;stroke:#1f77b4;" x="146.43714" xlink:href="#m1c219c995d" y="180.247687"/>
     <use style="fill:#1f77b4;stroke:#1f77b4;" x="147.468354" xlink:href="#m1c219c995d" y="181.818717"/>
     <use style="fill:#1f77b4;stroke:#1f77b4;" x="148.463378" xlink:href="#m1c219c995d" y="183.758232"/>
     <use style="fill:#1f77b4;stroke:#1f77b4;" x="149.424666" xlink:href="#m1c219c995d" y="185.623195"/>
     <use style="fill:#1f77b4;stroke:#1f77b4;" x="150.354431" xlink:href="#m1c219c995d" y="187.183622"/>
     <use style="fill:#1f77b4;stroke:#1f77b4;" x="151.254674" xlink:href="#m1c219c995d" y="189.259962"/>
     <use style="fill:#1f77b4;stroke:#1f77b4;" x="152.127212" xlink:href="#m1c219c995d" y="190.522855"/>
     <use style="fill:#1f77b4;stroke:#1f77b4;" x="152.973701" xlink:href="#m1c219c995d" y="192.532373"/>
     <use style="fill:#1f77b4;stroke:#1f77b4;" x="153.795651" xlink:href="#m1c219c995d" y="194.500245"/>
     <use style="fill:#1f77b4;stroke:#1f77b4;" x="154.594444" xlink:href="#m1c219c995d" y="195.463404"/>
     <use style="fill:#1f77b4;stroke:#1f77b4;" x="155.371349" xlink:href="#m1c219c995d" y="196.89006"/>
     <use style="fill:#1f77b4;stroke:#1f77b4;" x="156.127535" xlink:href="#m1c219c995d" y="198.374509"/>
     <use style="fill:#1f77b4;stroke:#1f77b4;" x="156.864077" xlink:href="#m1c219c995d" y="199.956607"/>
     <use style="fill:#1f77b4;stroke:#1f77b4;" x="157.58197" xlink:href="#m1c219c995d" y="201.143607"/>
     <use style="fill:#1f77b4;stroke:#1f77b4;" x="158.282136" xlink:href="#m1c219c995d" y="202.832158"/>
     <use style="fill:#1f77b4;stroke:#1f77b4;" x="158.965429" xlink:href="#m1c219c995d" y="204.154503"/>
     <use style="fill:#1f77b4;stroke:#1f77b4;" x="159.632643" xlink:href="#m1c219c995d" y="205.309408"/>
     <use style="fill:#1f77b4;stroke:#1f77b4;" x="160.284517" xlink:href="#m1c219c995d" y="207.003468"/>
     <use style="fill:#1f77b4;stroke:#1f77b4;" x="160.921741" xlink:href="#m1c219c995d" y="208.299799"/>
     <use style="fill:#1f77b4;stroke:#1f77b4;" x="161.544959" xlink:href="#m1c219c995d" y="209.650977"/>
     <use style="fill:#1f77b4;stroke:#1f77b4;" x="162.154773" xlink:href="#m1c219c995d" y="210.666951"/>
     <use style="fill:#1f77b4;stroke:#1f77b4;" x="162.751748" xlink:href="#m1c219c995d" y="212.254358"/>
     <use style="fill:#1f77b4;stroke:#1f77b4;" x="163.336414" xlink:href="#m1c219c995d" y="213.202893"/>
     <use style="fill:#1f77b4;stroke:#1f77b4;" x="163.909267" xlink:href="#m1c219c995d" y="214.576579"/>
     <use style="fill:#1f77b4;stroke:#1f77b4;" x="164.470776" xlink:href="#m1c219c995d" y="215.043771"/>
     <use style="fill:#1f77b4;stroke:#1f77b4;" x="165.021381" xlink:href="#m1c219c995d" y="216.209085"/>
     <use style="fill:#1f77b4;stroke:#1f77b4;" x="165.561498" xlink:href="#m1c219c995d" y="217.526611"/>
     <use style="fill:#1f77b4;stroke:#1f77b4;" x="166.091518" xlink:href="#m1c219c995d" y="218.322912"/>
     <use style="fill:#1f77b4;stroke:#1f77b4;" x="166.611813" xlink:href="#m1c219c995d" y="219.931565"/>
     <use style="fill:#1f77b4;stroke:#1f77b4;" x="167.122733" xlink:href="#m1c219c995d" y="221.073952"/>
     <use style="fill:#1f77b4;stroke:#1f77b4;" x="167.624609" xlink:href="#m1c219c995d" y="221.907739"/>
     <use style="fill:#1f77b4;stroke:#1f77b4;" x="168.117757" xlink:href="#m1c219c995d" y="223.066199"/>
     <use style="fill:#1f77b4;stroke:#1f77b4;" x="168.602474" xlink:href="#m1c219c995d" y="223.597112"/>
     <use style="fill:#1f77b4;stroke:#1f77b4;" x="169.079045" xlink:href="#m1c219c995d" y="224.333876"/>
     <use style="fill:#1f77b4;stroke:#1f77b4;" x="169.547738" xlink:href="#m1c219c995d" y="225.871329"/>
     <use style="fill:#1f77b4;stroke:#1f77b4;" x="170.008809" xlink:href="#m1c219c995d" y="226.344857"/>
     <use style="fill:#1f77b4;stroke:#1f77b4;" x="170.462503" xlink:href="#m1c219c995d" y="227.363201"/>
     <use style="fill:#1f77b4;stroke:#1f77b4;" x="170.909052" xlink:href="#m1c219c995d" y="228.866156"/>
     <use style="fill:#1f77b4;stroke:#1f77b4;" x="171.348678" xlink:href="#m1c219c995d" y="229.560203"/>
     <use style="fill:#1f77b4;stroke:#1f77b4;" x="171.781591" xlink:href="#m1c219c995d" y="230.036225"/>
     <use style="fill:#1f77b4;stroke:#1f77b4;" x="172.207994" xlink:href="#m1c219c995d" y="231.147747"/>
     <use style="fill:#1f77b4;stroke:#1f77b4;" x="172.62808" xlink:href="#m1c219c995d" y="232.054822"/>
     <use style="fill:#1f77b4;stroke:#1f77b4;" x="173.042033" xlink:href="#m1c219c995d" y="233.063062"/>
     <use style="fill:#1f77b4;stroke:#1f77b4;" x="173.45003" xlink:href="#m1c219c995d" y="233.744223"/>
     <use style="fill:#1f77b4;stroke:#1f77b4;" x="173.852239" xlink:href="#m1c219c995d" y="233.847403"/>
     <use style="fill:#1f77b4;stroke:#1f77b4;" x="174.248823" xlink:href="#m1c219c995d" y="235.309018"/>
     <use style="fill:#1f77b4;stroke:#1f77b4;" x="174.639936" xlink:href="#m1c219c995d" y="235.956574"/>
     <use style="fill:#1f77b4;stroke:#1f77b4;" x="175.025728" xlink:href="#m1c219c995d" y="236.968671"/>
     <use style="fill:#1f77b4;stroke:#1f77b4;" x="175.406341" xlink:href="#m1c219c995d" y="238.178805"/>
     <use style="fill:#1f77b4;stroke:#1f77b4;" x="175.781913" xlink:href="#m1c219c995d" y="238.222818"/>
     <use style="fill:#1f77b4;stroke:#1f77b4;" x="176.152576" xlink:href="#m1c219c995d" y="239.653642"/>
     <use style="fill:#1f77b4;stroke:#1f77b4;" x="176.518456" xlink:href="#m1c219c995d" y="239.622784"/>
     <use style="fill:#1f77b4;stroke:#1f77b4;" x="176.879674" xlink:href="#m1c219c995d" y="240.4304"/>
     <use style="fill:#1f77b4;stroke:#1f77b4;" x="177.236349" xlink:href="#m1c219c995d" y="241.368901"/>
     <use style="fill:#1f77b4;stroke:#1f77b4;" x="177.588593" xlink:href="#m1c219c995d" y="241.680172"/>
     <use style="fill:#1f77b4;stroke:#1f77b4;" x="177.936515" xlink:href="#m1c219c995d" y="242.62148"/>
     <use style="fill:#1f77b4;stroke:#1f77b4;" x="178.280219" xlink:href="#m1c219c995d" y="243.092802"/>
     <use style="fill:#1f77b4;stroke:#1f77b4;" x="178.619807" xlink:href="#m1c219c995d" y="244.393284"/>
     <use style="fill:#1f77b4;stroke:#1f77b4;" x="178.955377" xlink:href="#m1c219c995d" y="245.340098"/>
     <use style="fill:#1f77b4;stroke:#1f77b4;" x="179.287021" xlink:href="#m1c219c995d" y="245.944633"/>
     <use style="fill:#1f77b4;stroke:#1f77b4;" x="179.614831" xlink:href="#m1c219c995d" y="246.267835"/>
     <use style="fill:#1f77b4;stroke:#1f77b4;" x="179.938895" xlink:href="#m1c219c995d" y="246.951851"/>
     <use style="fill:#1f77b4;stroke:#1f77b4;" x="180.259297" xlink:href="#m1c219c995d" y="247.315787"/>
     <use style="fill:#1f77b4;stroke:#1f77b4;" x="180.576119" xlink:href="#m1c219c995d" y="248.357943"/>
     <use style="fill:#1f77b4;stroke:#1f77b4;" x="180.88944" xlink:href="#m1c219c995d" y="248.184795"/>
     <use style="fill:#1f77b4;stroke:#1f77b4;" x="181.199337" xlink:href="#m1c219c995d" y="249.640681"/>
     <use style="fill:#1f77b4;stroke:#1f77b4;" x="181.505884" xlink:href="#m1c219c995d" y="250.052822"/>
     <use style="fill:#1f77b4;stroke:#1f77b4;" x="181.809152" xlink:href="#m1c219c995d" y="250.533518"/>
     <use style="fill:#1f77b4;stroke:#1f77b4;" x="182.10921" xlink:href="#m1c219c995d" y="251.65511"/>
     <use style="fill:#1f77b4;stroke:#1f77b4;" x="182.406127" xlink:href="#m1c219c995d" y="251.344465"/>
     <use style="fill:#1f77b4;stroke:#1f77b4;" x="182.699966" xlink:href="#m1c219c995d" y="252.623623"/>
     <use style="fill:#1f77b4;stroke:#1f77b4;" x="182.990792" xlink:href="#m1c219c995d" y="252.602913"/>
     <use style="fill:#1f77b4;stroke:#1f77b4;" x="183.278666" xlink:href="#m1c219c995d" y="253.674564"/>
     <use style="fill:#1f77b4;stroke:#1f77b4;" x="183.563646" xlink:href="#m1c219c995d" y="254.353241"/>
     <use style="fill:#1f77b4;stroke:#1f77b4;" x="183.84579" xlink:href="#m1c219c995d" y="254.612835"/>
     <use style="fill:#1f77b4;stroke:#1f77b4;" x="184.125155" xlink:href="#m1c219c995d" y="255.404757"/>
     <use style="fill:#1f77b4;stroke:#1f77b4;" x="184.401794" xlink:href="#m1c219c995d" y="255.321056"/>
     <use style="fill:#1f77b4;stroke:#1f77b4;" x="184.67576" xlink:href="#m1c219c995d" y="256.361766"/>
     <use style="fill:#1f77b4;stroke:#1f77b4;" x="184.947104" xlink:href="#m1c219c995d" y="256.39015"/>
     <use style="fill:#1f77b4;stroke:#1f77b4;" x="185.215876" xlink:href="#m1c219c995d" y="256.909781"/>
     <use style="fill:#1f77b4;stroke:#1f77b4;" x="185.482125" xlink:href="#m1c219c995d" y="257.337787"/>
     <use style="fill:#1f77b4;stroke:#1f77b4;" x="185.745897" xlink:href="#m1c219c995d" y="258.768744"/>
     <use style="fill:#1f77b4;stroke:#1f77b4;" x="186.007238" xlink:href="#m1c219c995d" y="259.091512"/>
     <use style="fill:#1f77b4;stroke:#1f77b4;" x="186.266192" xlink:href="#m1c219c995d" y="260.070562"/>
     <use style="fill:#1f77b4;stroke:#1f77b4;" x="186.522802" xlink:href="#m1c219c995d" y="259.515766"/>
     <use style="fill:#1f77b4;stroke:#1f77b4;" x="186.777112" xlink:href="#m1c219c995d" y="260.650977"/>
     <use style="fill:#1f77b4;stroke:#1f77b4;" x="187.02916" xlink:href="#m1c219c995d" y="260.844592"/>
     <use style="fill:#1f77b4;stroke:#1f77b4;" x="187.278988" xlink:href="#m1c219c995d" y="261.518697"/>
     <use style="fill:#1f77b4;stroke:#1f77b4;" x="187.526634" xlink:href="#m1c219c995d" y="262.298171"/>
     <use style="fill:#1f77b4;stroke:#1f77b4;" x="187.772136" xlink:href="#m1c219c995d" y="262.263308"/>
     <use style="fill:#1f77b4;stroke:#1f77b4;" x="188.01553" xlink:href="#m1c219c995d" y="262.711122"/>
     <use style="fill:#1f77b4;stroke:#1f77b4;" x="188.256853" xlink:href="#m1c219c995d" y="263.410612"/>
     <use style="fill:#1f77b4;stroke:#1f77b4;" x="188.496139" xlink:href="#m1c219c995d" y="263.513764"/>
     <use style="fill:#1f77b4;stroke:#1f77b4;" x="188.733423" xlink:href="#m1c219c995d" y="264.154488"/>
     <use style="fill:#1f77b4;stroke:#1f77b4;" x="188.968738" xlink:href="#m1c219c995d" y="264.758608"/>
     <use style="fill:#1f77b4;stroke:#1f77b4;" x="189.202116" xlink:href="#m1c219c995d" y="265.785618"/>
     <use style="fill:#1f77b4;stroke:#1f77b4;" x="189.433589" xlink:href="#m1c219c995d" y="265.497718"/>
     <use style="fill:#1f77b4;stroke:#1f77b4;" x="189.663188" xlink:href="#m1c219c995d" y="265.833738"/>
     <use style="fill:#1f77b4;stroke:#1f77b4;" x="189.890942" xlink:href="#m1c219c995d" y="266.947723"/>
     <use style="fill:#1f77b4;stroke:#1f77b4;" x="190.116882" xlink:href="#m1c219c995d" y="266.384359"/>
     <use style="fill:#1f77b4;stroke:#1f77b4;" x="190.341035" xlink:href="#m1c219c995d" y="267.55083"/>
     <use style="fill:#1f77b4;stroke:#1f77b4;" x="190.563431" xlink:href="#m1c219c995d" y="267.501287"/>
     <use style="fill:#1f77b4;stroke:#1f77b4;" x="190.784096" xlink:href="#m1c219c995d" y="267.737945"/>
     <use style="fill:#1f77b4;stroke:#1f77b4;" x="191.003056" xlink:href="#m1c219c995d" y="268.96304"/>
     <use style="fill:#1f77b4;stroke:#1f77b4;" x="191.220339" xlink:href="#m1c219c995d" y="268.310606"/>
     <use style="fill:#1f77b4;stroke:#1f77b4;" x="191.43597" xlink:href="#m1c219c995d" y="269.42172"/>
     <use style="fill:#1f77b4;stroke:#1f77b4;" x="191.649973" xlink:href="#m1c219c995d" y="269.417784"/>
     <use style="fill:#1f77b4;stroke:#1f77b4;" x="191.862373" xlink:href="#m1c219c995d" y="270.83168"/>
     <use style="fill:#1f77b4;stroke:#1f77b4;" x="192.073194" xlink:href="#m1c219c995d" y="270.622441"/>
     <use style="fill:#1f77b4;stroke:#1f77b4;" x="192.282459" xlink:href="#m1c219c995d" y="271.766181"/>
     <use style="fill:#1f77b4;stroke:#1f77b4;" x="192.490191" xlink:href="#m1c219c995d" y="271.520966"/>
     <use style="fill:#1f77b4;stroke:#1f77b4;" x="192.696412" xlink:href="#m1c219c995d" y="271.950766"/>
     <use style="fill:#1f77b4;stroke:#1f77b4;" x="192.901144" xlink:href="#m1c219c995d" y="272.412702"/>
     <use style="fill:#1f77b4;stroke:#1f77b4;" x="193.104408" xlink:href="#m1c219c995d" y="272.537053"/>
     <use style="fill:#1f77b4;stroke:#1f77b4;" x="193.306226" xlink:href="#m1c219c995d" y="272.694941"/>
     <use style="fill:#1f77b4;stroke:#1f77b4;" x="193.506617" xlink:href="#m1c219c995d" y="273.621671"/>
     <use style="fill:#1f77b4;stroke:#1f77b4;" x="193.705603" xlink:href="#m1c219c995d" y="273.63858"/>
     <use style="fill:#1f77b4;stroke:#1f77b4;" x="193.903201" xlink:href="#m1c219c995d" y="273.70203"/>
     <use style="fill:#1f77b4;stroke:#1f77b4;" x="194.099432" xlink:href="#m1c219c995d" y="274.404528"/>
     <use style="fill:#1f77b4;stroke:#1f77b4;" x="194.294315" xlink:href="#m1c219c995d" y="274.49883"/>
     <use style="fill:#1f77b4;stroke:#1f77b4;" x="194.487867" xlink:href="#m1c219c995d" y="274.53316"/>
     <use style="fill:#1f77b4;stroke:#1f77b4;" x="194.680107" xlink:href="#m1c219c995d" y="276.452765"/>
     <use style="fill:#1f77b4;stroke:#1f77b4;" x="194.871052" xlink:href="#m1c219c995d" y="275.489506"/>
     <use style="fill:#1f77b4;stroke:#1f77b4;" x="195.06072" xlink:href="#m1c219c995d" y="276.737265"/>
     <use style="fill:#1f77b4;stroke:#1f77b4;" x="195.249128" xlink:href="#m1c219c995d" y="275.515687"/>
     <use style="fill:#1f77b4;stroke:#1f77b4;" x="195.436292" xlink:href="#m1c219c995d" y="275.63365"/>
     <use style="fill:#1f77b4;stroke:#1f77b4;" x="195.622229" xlink:href="#m1c219c995d" y="276.342004"/>
     <use style="fill:#1f77b4;stroke:#1f77b4;" x="195.806955" xlink:href="#m1c219c995d" y="277.540352"/>
     <use style="fill:#1f77b4;stroke:#1f77b4;" x="195.990484" xlink:href="#m1c219c995d" y="276.514882"/>
     <use style="fill:#1f77b4;stroke:#1f77b4;" x="196.172834" xlink:href="#m1c219c995d" y="277.278933"/>
     <use style="fill:#1f77b4;stroke:#1f77b4;" x="196.354019" xlink:href="#m1c219c995d" y="277.599106"/>
     <use style="fill:#1f77b4;stroke:#1f77b4;" x="196.534053" xlink:href="#m1c219c995d" y="278.620787"/>
     <use style="fill:#1f77b4;stroke:#1f77b4;" x="196.712951" xlink:href="#m1c219c995d" y="278.043913"/>
     <use style="fill:#1f77b4;stroke:#1f77b4;" x="196.890728" xlink:href="#m1c219c995d" y="278.957612"/>
     <use style="fill:#1f77b4;stroke:#1f77b4;" x="197.067396" xlink:href="#m1c219c995d" y="277.930122"/>
     <use style="fill:#1f77b4;stroke:#1f77b4;" x="197.242972" xlink:href="#m1c219c995d" y="279.552897"/>
     <use style="fill:#1f77b4;stroke:#1f77b4;" x="197.417466" xlink:href="#m1c219c995d" y="279.543549"/>
     <use style="fill:#1f77b4;stroke:#1f77b4;" x="197.590893" xlink:href="#m1c219c995d" y="279.208014"/>
     <use style="fill:#1f77b4;stroke:#1f77b4;" x="197.763266" xlink:href="#m1c219c995d" y="279.273108"/>
     <use style="fill:#1f77b4;stroke:#1f77b4;" x="197.934598" xlink:href="#m1c219c995d" y="279.772997"/>
     <use style="fill:#1f77b4;stroke:#1f77b4;" x="198.1049" xlink:href="#m1c219c995d" y="279.646456"/>
     <use style="fill:#1f77b4;stroke:#1f77b4;" x="198.274186" xlink:href="#m1c219c995d" y="280.400328"/>
     <use style="fill:#1f77b4;stroke:#1f77b4;" x="198.442467" xlink:href="#m1c219c995d" y="280.277165"/>
     <use style="fill:#1f77b4;stroke:#1f77b4;" x="198.609755" xlink:href="#m1c219c995d" y="280.30083"/>
     <use style="fill:#1f77b4;stroke:#1f77b4;" x="198.776062" xlink:href="#m1c219c995d" y="280.962556"/>
     <use style="fill:#1f77b4;stroke:#1f77b4;" x="198.9414" xlink:href="#m1c219c995d" y="280.599828"/>
     <use style="fill:#1f77b4;stroke:#1f77b4;" x="199.105779" xlink:href="#m1c219c995d" y="279.871606"/>
     <use style="fill:#1f77b4;stroke:#1f77b4;" x="199.26921" xlink:href="#m1c219c995d" y="279.942143"/>
     <use style="fill:#1f77b4;stroke:#1f77b4;" x="199.431705" xlink:href="#m1c219c995d" y="280.485745"/>
     <use style="fill:#1f77b4;stroke:#1f77b4;" x="199.593274" xlink:href="#m1c219c995d" y="281.07277"/>
     <use style="fill:#1f77b4;stroke:#1f77b4;" x="199.753927" xlink:href="#m1c219c995d" y="281.622116"/>
     <use style="fill:#1f77b4;stroke:#1f77b4;" x="199.913676" xlink:href="#m1c219c995d" y="280.881225"/>
     <use style="fill:#1f77b4;stroke:#1f77b4;" x="200.072529" xlink:href="#m1c219c995d" y="281.154366"/>
     <use style="fill:#1f77b4;stroke:#1f77b4;" x="200.230498" xlink:href="#m1c219c995d" y="281.544705"/>
     <use style="fill:#1f77b4;stroke:#1f77b4;" x="200.387591" xlink:href="#m1c219c995d" y="281.039205"/>
     <use style="fill:#1f77b4;stroke:#1f77b4;" x="200.543819" xlink:href="#m1c219c995d" y="280.59507"/>
     <use style="fill:#1f77b4;stroke:#1f77b4;" x="200.699191" xlink:href="#m1c219c995d" y="280.828659"/>
     <use style="fill:#1f77b4;stroke:#1f77b4;" x="200.853716" xlink:href="#m1c219c995d" y="280.948195"/>
     <use style="fill:#1f77b4;stroke:#1f77b4;" x="201.007403" xlink:href="#m1c219c995d" y="279.815238"/>
     <use style="fill:#1f77b4;stroke:#1f77b4;" x="201.160262" xlink:href="#m1c219c995d" y="280.291363"/>
     <use style="fill:#1f77b4;stroke:#1f77b4;" x="201.312302" xlink:href="#m1c219c995d" y="280.433531"/>
     <use style="fill:#1f77b4;stroke:#1f77b4;" x="201.46353" xlink:href="#m1c219c995d" y="278.708269"/>
     <use style="fill:#1f77b4;stroke:#1f77b4;" x="201.613956" xlink:href="#m1c219c995d" y="278.948358"/>
     <use style="fill:#1f77b4;stroke:#1f77b4;" x="201.763589" xlink:href="#m1c219c995d" y="277.585542"/>
     <use style="fill:#1f77b4;stroke:#1f77b4;" x="201.912436" xlink:href="#m1c219c995d" y="277.513255"/>
     <use style="fill:#1f77b4;stroke:#1f77b4;" x="202.060505" xlink:href="#m1c219c995d" y="276.674913"/>
     <use style="fill:#1f77b4;stroke:#1f77b4;" x="202.207806" xlink:href="#m1c219c995d" y="275.184907"/>
     <use style="fill:#1f77b4;stroke:#1f77b4;" x="202.354345" xlink:href="#m1c219c995d" y="274.041589"/>
     <use style="fill:#1f77b4;stroke:#1f77b4;" x="202.500131" xlink:href="#m1c219c995d" y="272.71991"/>
     <use style="fill:#1f77b4;stroke:#1f77b4;" x="202.645171" xlink:href="#m1c219c995d" y="269.935589"/>
     <use style="fill:#1f77b4;stroke:#1f77b4;" x="202.789473" xlink:href="#m1c219c995d" y="265.900431"/>
     <use style="fill:#1f77b4;stroke:#1f77b4;" x="202.933044" xlink:href="#m1c219c995d" y="257.254498"/>
     <use style="fill:#1f77b4;stroke:#1f77b4;" x="203.075892" xlink:href="#m1c219c995d" y="227.272692"/>
    </g>
   </g>
   <g id="line2d_43">
    <path clip-path="url(#p6f56bba4ee)" d="M 52.982781 20.39569 
L 72.637159 70.876041 
L 84.134234 92.14412 
L 92.291538 103.852435 
L 98.618834 111.907859 
L 115.285687 132.440595 
L 120.975759 139.895943 
L 125.712624 146.449383 
L 129.770288 152.366103 
L 134.940065 160.360551 
L 139.31105 167.543922 
L 144.254888 176.139776 
L 149.424666 185.629 
L 155.371349 197.076452 
L 162.751748 211.832033 
L 189.202116 265.226966 
L 193.104408 272.457264 
L 195.436292 276.365689 
L 197.067396 278.708284 
L 198.274186 280.057071 
L 199.105779 280.669107 
L 199.753927 280.870226 
L 200.230498 280.797938 
L 200.699191 280.472834 
L 201.160262 279.804831 
L 201.613956 278.633179 
L 202.060505 276.60914 
L 202.354345 274.339227 
L 202.645171 270.200913 
L 202.789473 266.081868 
L 202.933044 256.967459 
L 203.075892 227.44752 
L 203.075892 227.44752 
" style="fill:none;stroke:#ff7f0e;stroke-linecap:square;stroke-width:1.5;"/>
   </g>
   <g id="patch_3">
    <path d="M 45.478125 295 
L 45.478125 7.2 
" style="fill:none;stroke:#000000;stroke-linecap:square;stroke-linejoin:miter;stroke-width:0.8;"/>
   </g>
   <g id="patch_4">
    <path d="M 210.580548 295 
L 210.580548 7.2 
" style="fill:none;stroke:#000000;stroke-linecap:square;stroke-linejoin:miter;stroke-width:0.8;"/>
   </g>
   <g id="patch_5">
    <path d="M 45.478125 295 
L 210.580548 295 
" style="fill:none;stroke:#000000;stroke-linecap:square;stroke-linejoin:miter;stroke-width:0.8;"/>
   </g>
   <g id="patch_6">
    <path d="M 45.478125 7.2 
L 210.580548 7.2 
" style="fill:none;stroke:#000000;stroke-linecap:square;stroke-linejoin:miter;stroke-width:0.8;"/>
   </g>
  </g>
  <g id="axes_2">
   <g id="patch_7">
    <path d="M 280.438203 295 
L 445.540626 295 
L 445.540626 7.2 
L 280.438203 7.2 
z
" style="fill:#ffffff;"/>
   </g>
   <g id="matplotlib.axis_3">
    <g id="xtick_23">
     <g id="line2d_44">
      <g>
       <use style="stroke:#000000;stroke-width:0.8;" x="315.3729" xlink:href="#m33e55e4695" y="295"/>
      </g>
     </g>
     <g id="text_9">
      <!-- $\mathdefault{10^{1}}$ -->
      <g transform="translate(306.5729 309.598437)scale(0.1 -0.1)">
       <use transform="translate(0 0.684375)" xlink:href="#DejaVuSans-49"/>
       <use transform="translate(63.623047 0.684375)" xlink:href="#DejaVuSans-48"/>
       <use transform="translate(128.203125 38.965625)scale(0.7)" xlink:href="#DejaVuSans-49"/>
      </g>
     </g>
    </g>
    <g id="xtick_24">
     <g id="line2d_45">
      <g>
       <use style="stroke:#000000;stroke-width:0.8;" x="370.232983" xlink:href="#m33e55e4695" y="295"/>
      </g>
     </g>
     <g id="text_10">
      <!-- $\mathdefault{10^{3}}$ -->
      <defs>
       <path d="M 40.578125 39.3125 
Q 47.65625 37.796875 51.625 33 
Q 55.609375 28.21875 55.609375 21.1875 
Q 55.609375 10.40625 48.1875 4.484375 
Q 40.765625 -1.421875 27.09375 -1.421875 
Q 22.515625 -1.421875 17.65625 -0.515625 
Q 12.796875 0.390625 7.625 2.203125 
L 7.625 11.71875 
Q 11.71875 9.328125 16.59375 8.109375 
Q 21.484375 6.890625 26.8125 6.890625 
Q 36.078125 6.890625 40.9375 10.546875 
Q 45.796875 14.203125 45.796875 21.1875 
Q 45.796875 27.640625 41.28125 31.265625 
Q 36.765625 34.90625 28.71875 34.90625 
L 20.21875 34.90625 
L 20.21875 43.015625 
L 29.109375 43.015625 
Q 36.375 43.015625 40.234375 45.921875 
Q 44.09375 48.828125 44.09375 54.296875 
Q 44.09375 59.90625 40.109375 62.90625 
Q 36.140625 65.921875 28.71875 65.921875 
Q 24.65625 65.921875 20.015625 65.03125 
Q 15.375 64.15625 9.8125 62.3125 
L 9.8125 71.09375 
Q 15.4375 72.65625 20.34375 73.4375 
Q 25.25 74.21875 29.59375 74.21875 
Q 40.828125 74.21875 47.359375 69.109375 
Q 53.90625 64.015625 53.90625 55.328125 
Q 53.90625 49.265625 50.4375 45.09375 
Q 46.96875 40.921875 40.578125 39.3125 
z
" id="DejaVuSans-51"/>
      </defs>
      <g transform="translate(361.432983 309.598437)scale(0.1 -0.1)">
       <use transform="translate(0 0.765625)" xlink:href="#DejaVuSans-49"/>
       <use transform="translate(63.623047 0.765625)" xlink:href="#DejaVuSans-48"/>
       <use transform="translate(128.203125 39.046875)scale(0.7)" xlink:href="#DejaVuSans-51"/>
      </g>
     </g>
    </g>
    <g id="xtick_25">
     <g id="line2d_46">
      <g>
       <use style="stroke:#000000;stroke-width:0.8;" x="425.093066" xlink:href="#m33e55e4695" y="295"/>
      </g>
     </g>
     <g id="text_11">
      <!-- $\mathdefault{10^{5}}$ -->
      <g transform="translate(416.293066 309.598437)scale(0.1 -0.1)">
       <use transform="translate(0 0.684375)" xlink:href="#DejaVuSans-49"/>
       <use transform="translate(63.623047 0.684375)" xlink:href="#DejaVuSans-48"/>
       <use transform="translate(128.203125 38.965625)scale(0.7)" xlink:href="#DejaVuSans-53"/>
      </g>
     </g>
    </g>
    <g id="text_12">
     <!-- $t$ (generations ago) -->
     <defs>
      <path d="M 42.28125 54.6875 
L 40.921875 47.703125 
L 23 47.703125 
L 17.1875 18.015625 
Q 16.890625 16.359375 16.75 15.234375 
Q 16.609375 14.109375 16.609375 13.484375 
Q 16.609375 10.359375 18.484375 8.9375 
Q 20.359375 7.515625 24.515625 7.515625 
L 33.59375 7.515625 
L 32.078125 0 
L 23.484375 0 
Q 15.484375 0 11.546875 3.125 
Q 7.625 6.25 7.625 12.59375 
Q 7.625 13.71875 7.765625 15.0625 
Q 7.90625 16.40625 8.203125 18.015625 
L 14.015625 47.703125 
L 6.390625 47.703125 
L 7.8125 54.6875 
L 15.28125 54.6875 
L 18.3125 70.21875 
L 27.296875 70.21875 
L 24.3125 54.6875 
z
" id="DejaVuSans-Oblique-116"/>
      <path d="M 31 75.875 
Q 24.46875 64.65625 21.28125 53.65625 
Q 18.109375 42.671875 18.109375 31.390625 
Q 18.109375 20.125 21.3125 9.0625 
Q 24.515625 -2 31 -13.1875 
L 23.1875 -13.1875 
Q 15.875 -1.703125 12.234375 9.375 
Q 8.59375 20.453125 8.59375 31.390625 
Q 8.59375 42.28125 12.203125 53.3125 
Q 15.828125 64.359375 23.1875 75.875 
z
" id="DejaVuSans-40"/>
      <path d="M 45.40625 27.984375 
Q 45.40625 37.75 41.375 43.109375 
Q 37.359375 48.484375 30.078125 48.484375 
Q 22.859375 48.484375 18.828125 43.109375 
Q 14.796875 37.75 14.796875 27.984375 
Q 14.796875 18.265625 18.828125 12.890625 
Q 22.859375 7.515625 30.078125 7.515625 
Q 37.359375 7.515625 41.375 12.890625 
Q 45.40625 18.265625 45.40625 27.984375 
z
M 54.390625 6.78125 
Q 54.390625 -7.171875 48.1875 -13.984375 
Q 42 -20.796875 29.203125 -20.796875 
Q 24.46875 -20.796875 20.265625 -20.09375 
Q 16.0625 -19.390625 12.109375 -17.921875 
L 12.109375 -9.1875 
Q 16.0625 -11.328125 19.921875 -12.34375 
Q 23.78125 -13.375 27.78125 -13.375 
Q 36.625 -13.375 41.015625 -8.765625 
Q 45.40625 -4.15625 45.40625 5.171875 
L 45.40625 9.625 
Q 42.625 4.78125 38.28125 2.390625 
Q 33.9375 0 27.875 0 
Q 17.828125 0 11.671875 7.65625 
Q 5.515625 15.328125 5.515625 27.984375 
Q 5.515625 40.671875 11.671875 48.328125 
Q 17.828125 56 27.875 56 
Q 33.9375 56 38.28125 53.609375 
Q 42.625 51.21875 45.40625 46.390625 
L 45.40625 54.6875 
L 54.390625 54.6875 
z
" id="DejaVuSans-103"/>
      <path d="M 8.015625 75.875 
L 15.828125 75.875 
Q 23.140625 64.359375 26.78125 53.3125 
Q 30.421875 42.28125 30.421875 31.390625 
Q 30.421875 20.453125 26.78125 9.375 
Q 23.140625 -1.703125 15.828125 -13.1875 
L 8.015625 -13.1875 
Q 14.5 -2 17.703125 9.0625 
Q 20.90625 20.125 20.90625 31.390625 
Q 20.90625 42.671875 17.703125 53.65625 
Q 14.5 64.65625 8.015625 75.875 
z
" id="DejaVuSans-41"/>
     </defs>
     <g transform="translate(314.839415 323.278125)scale(0.1 -0.1)">
      <use transform="translate(0 0.015625)" xlink:href="#DejaVuSans-Oblique-116"/>
      <use transform="translate(39.208984 0.015625)" xlink:href="#DejaVuSans-32"/>
      <use transform="translate(70.996094 0.015625)" xlink:href="#DejaVuSans-40"/>
      <use transform="translate(110.009766 0.015625)" xlink:href="#DejaVuSans-103"/>
      <use transform="translate(173.486328 0.015625)" xlink:href="#DejaVuSans-101"/>
      <use transform="translate(235.009766 0.015625)" xlink:href="#DejaVuSans-110"/>
      <use transform="translate(298.388672 0.015625)" xlink:href="#DejaVuSans-101"/>
      <use transform="translate(359.912109 0.015625)" xlink:href="#DejaVuSans-114"/>
      <use transform="translate(401.025391 0.015625)" xlink:href="#DejaVuSans-97"/>
      <use transform="translate(462.304688 0.015625)" xlink:href="#DejaVuSans-116"/>
      <use transform="translate(501.513672 0.015625)" xlink:href="#DejaVuSans-105"/>
      <use transform="translate(529.296875 0.015625)" xlink:href="#DejaVuSans-111"/>
      <use transform="translate(590.478516 0.015625)" xlink:href="#DejaVuSans-110"/>
      <use transform="translate(653.857422 0.015625)" xlink:href="#DejaVuSans-115"/>
      <use transform="translate(705.957031 0.015625)" xlink:href="#DejaVuSans-32"/>
      <use transform="translate(737.744141 0.015625)" xlink:href="#DejaVuSans-97"/>
      <use transform="translate(799.023438 0.015625)" xlink:href="#DejaVuSans-103"/>
      <use transform="translate(862.5 0.015625)" xlink:href="#DejaVuSans-111"/>
      <use transform="translate(923.681641 0.015625)" xlink:href="#DejaVuSans-41"/>
     </g>
    </g>
   </g>
   <g id="matplotlib.axis_4">
    <g id="ytick_20">
     <g id="line2d_47">
      <g>
       <use style="stroke:#000000;stroke-width:0.8;" x="280.438203" xlink:href="#m3bf5882713" y="21.672533"/>
      </g>
     </g>
     <g id="text_13">
      <!-- $\mathdefault{10^{4}}$ -->
      <g transform="translate(255.838203 25.471752)scale(0.1 -0.1)">
       <use transform="translate(0 0.684375)" xlink:href="#DejaVuSans-49"/>
       <use transform="translate(63.623047 0.684375)" xlink:href="#DejaVuSans-48"/>
       <use transform="translate(128.203125 38.965625)scale(0.7)" xlink:href="#DejaVuSans-52"/>
      </g>
     </g>
    </g>
    <g id="ytick_21">
     <g id="line2d_48">
      <g>
       <use style="stroke:#000000;stroke-width:0.6;" x="280.438203" xlink:href="#m6c1b889fbc" y="245.315912"/>
      </g>
     </g>
     <g id="text_14">
      <!-- $\mathdefault{3\times10^{3}}$ -->
      <defs>
       <path d="M 70.125 53.71875 
L 47.796875 31.296875 
L 70.125 8.984375 
L 64.3125 3.078125 
L 41.890625 25.484375 
L 19.484375 3.078125 
L 13.71875 8.984375 
L 35.984375 31.296875 
L 13.71875 53.71875 
L 19.484375 59.625 
L 41.890625 37.203125 
L 64.3125 59.625 
z
" id="DejaVuSans-215"/>
      </defs>
      <g transform="translate(238.838203 249.11513)scale(0.1 -0.1)">
       <use transform="translate(0 0.765625)" xlink:href="#DejaVuSans-51"/>
       <use transform="translate(83.105469 0.765625)" xlink:href="#DejaVuSans-215"/>
       <use transform="translate(186.376953 0.765625)" xlink:href="#DejaVuSans-49"/>
       <use transform="translate(250 0.765625)" xlink:href="#DejaVuSans-48"/>
       <use transform="translate(314.580078 39.046875)scale(0.7)" xlink:href="#DejaVuSans-51"/>
      </g>
     </g>
    </g>
    <g id="ytick_22">
     <g id="line2d_49">
      <g>
       <use style="stroke:#000000;stroke-width:0.6;" x="280.438203" xlink:href="#m6c1b889fbc" y="191.877669"/>
      </g>
     </g>
     <g id="text_15">
      <!-- $\mathdefault{4\times10^{3}}$ -->
      <g transform="translate(238.838203 195.676888)scale(0.1 -0.1)">
       <use transform="translate(0 0.765625)" xlink:href="#DejaVuSans-52"/>
       <use transform="translate(83.105469 0.765625)" xlink:href="#DejaVuSans-215"/>
       <use transform="translate(186.376953 0.765625)" xlink:href="#DejaVuSans-49"/>
       <use transform="translate(250 0.765625)" xlink:href="#DejaVuSans-48"/>
       <use transform="translate(314.580078 39.046875)scale(0.7)" xlink:href="#DejaVuSans-51"/>
      </g>
     </g>
    </g>
    <g id="ytick_23">
     <g id="line2d_50">
      <g>
       <use style="stroke:#000000;stroke-width:0.6;" x="280.438203" xlink:href="#m6c1b889fbc" y="150.427748"/>
      </g>
     </g>
    </g>
    <g id="ytick_24">
     <g id="line2d_51">
      <g>
       <use style="stroke:#000000;stroke-width:0.6;" x="280.438203" xlink:href="#m6c1b889fbc" y="116.560696"/>
      </g>
     </g>
     <g id="text_16">
      <!-- $\mathdefault{6\times10^{3}}$ -->
      <g transform="translate(238.838203 120.359915)scale(0.1 -0.1)">
       <use transform="translate(0 0.765625)" xlink:href="#DejaVuSans-54"/>
       <use transform="translate(83.105469 0.765625)" xlink:href="#DejaVuSans-215"/>
       <use transform="translate(186.376953 0.765625)" xlink:href="#DejaVuSans-49"/>
       <use transform="translate(250 0.765625)" xlink:href="#DejaVuSans-48"/>
       <use transform="translate(314.580078 39.046875)scale(0.7)" xlink:href="#DejaVuSans-51"/>
      </g>
     </g>
    </g>
    <g id="ytick_25">
     <g id="line2d_52">
      <g>
       <use style="stroke:#000000;stroke-width:0.6;" x="280.438203" xlink:href="#m6c1b889fbc" y="87.926512"/>
      </g>
     </g>
    </g>
    <g id="ytick_26">
     <g id="line2d_53">
      <g>
       <use style="stroke:#000000;stroke-width:0.6;" x="280.438203" xlink:href="#m6c1b889fbc" y="63.122454"/>
      </g>
     </g>
    </g>
    <g id="ytick_27">
     <g id="line2d_54">
      <g>
       <use style="stroke:#000000;stroke-width:0.6;" x="280.438203" xlink:href="#m6c1b889fbc" y="41.243724"/>
      </g>
     </g>
    </g>
    <g id="text_17">
     <!-- $\eta(t)$ -->
     <defs>
      <path d="M 57.859375 33.015625 
L 47.40625 -20.796875 
L 38.421875 -20.796875 
L 48.828125 32.71875 
Q 50.34375 40.484375 48.046875 44.34375 
Q 45.796875 48.1875 39.75 48.1875 
Q 32.46875 48.1875 27.34375 43.5625 
Q 22.265625 38.921875 20.703125 30.90625 
L 14.703125 0 
L 5.671875 0 
L 16.3125 54.6875 
L 25.34375 54.6875 
L 23.6875 46.1875 
Q 27.828125 51.125 32.71875 53.5625 
Q 37.546875 56 43.265625 56 
Q 52.6875 56 56.390625 50.203125 
Q 60.0625 44.34375 57.859375 33.015625 
z
" id="DejaVuSans-Oblique-951"/>
     </defs>
     <g transform="translate(232.738203 160.15)rotate(-90)scale(0.1 -0.1)">
      <use transform="translate(0 0.125)" xlink:href="#DejaVuSans-Oblique-951"/>
      <use transform="translate(63.378906 0.125)" xlink:href="#DejaVuSans-40"/>
      <use transform="translate(102.392578 0.125)" xlink:href="#DejaVuSans-Oblique-116"/>
      <use transform="translate(141.601562 0.125)" xlink:href="#DejaVuSans-41"/>
     </g>
    </g>
   </g>
   <g id="line2d_55">
    <path clip-path="url(#p4c4e00c000)" d="M -1 21.672533 
L 287.942859 21.672533 
L 289.051144 21.672533 
L 290.159428 21.672533 
L 291.267713 21.672533 
L 292.375997 21.672533 
L 293.484282 21.672533 
L 294.592566 21.672533 
L 295.700851 21.672533 
L 296.809135 21.672533 
L 297.91742 21.672533 
L 299.025704 21.672533 
L 300.133989 21.672533 
L 301.242273 21.672533 
L 302.350558 21.672533 
L 303.458842 21.672533 
L 304.567127 21.672533 
L 305.675411 21.672533 
L 306.783696 21.672533 
L 307.89198 21.672533 
L 309.000265 21.672533 
L 310.108549 21.672533 
L 311.216834 21.672533 
L 312.325118 21.672533 
L 313.433403 21.672533 
L 314.541687 21.672533 
L 315.649972 21.672533 
L 316.758256 21.672533 
L 317.866541 21.672533 
L 318.974825 21.672533 
L 320.08311 21.672533 
L 321.191394 21.672533 
L 322.299679 21.672533 
L 323.407963 21.672533 
L 324.516248 21.672533 
L 325.624532 21.672533 
L 326.732816 21.672533 
L 327.841101 21.672533 
L 328.949385 21.672533 
L 330.05767 21.672533 
L 331.165954 279.182963 
L 332.274239 279.182963 
L 333.382523 279.182963 
L 334.490808 279.182963 
L 335.599092 279.182963 
L 336.707377 279.182963 
L 337.815661 279.182963 
L 338.923946 279.182963 
L 340.03223 279.182963 
L 341.140515 279.182963 
L 342.248799 279.182963 
L 343.357084 279.182963 
L 344.465368 279.182963 
L 345.573653 279.182963 
L 346.681937 279.182963 
L 347.790222 279.182963 
L 348.898506 279.182963 
L 350.006791 279.182963 
L 351.115075 279.182963 
L 352.22336 279.182963 
L 353.331644 21.672533 
L 354.439929 21.672533 
L 355.548213 21.672533 
L 356.656498 21.672533 
L 357.764782 21.672533 
L 358.873067 21.672533 
L 359.981351 21.672533 
L 361.089636 21.672533 
L 362.19792 21.672533 
L 363.306205 21.672533 
L 364.414489 21.672533 
L 365.522774 21.672533 
L 366.631058 21.672533 
L 367.739343 21.672533 
L 368.847627 21.672533 
L 369.955912 21.672533 
L 371.064196 21.672533 
L 372.172481 21.672533 
L 373.280765 21.672533 
L 374.38905 21.672533 
L 375.497334 21.672533 
L 376.605619 21.672533 
L 377.713903 21.672533 
L 378.822188 21.672533 
L 379.930472 21.672533 
L 381.038757 21.672533 
L 382.147041 21.672533 
L 383.255326 21.672533 
L 384.36361 21.672533 
L 385.471895 21.672533 
L 386.580179 21.672533 
L 387.688464 21.672533 
L 388.796748 21.672533 
L 389.905033 21.672533 
L 391.013317 21.672533 
L 392.121602 21.672533 
L 393.229886 21.672533 
L 394.338171 21.672533 
L 395.446455 21.672533 
L 396.55474 21.672533 
L 397.663024 21.672533 
" style="fill:none;stroke:#1f77b4;stroke-linecap:square;stroke-width:1.5;"/>
   </g>
   <g id="line2d_56">
    <path clip-path="url(#p4c4e00c000)" d="M -1 20.836872 
L 287.942859 20.837023 
L 289.458951 20.836727 
L 290.975043 20.836403 
L 292.491135 20.836078 
L 294.007227 20.835747 
L 295.523319 20.835399 
L 297.039411 20.834998 
L 298.555503 20.834669 
L 300.071595 20.834237 
L 301.587687 20.834688 
L 303.103779 20.83403 
L 304.619871 20.836058 
L 306.135963 20.826529 
L 307.652055 20.830431 
L 309.168148 20.830508 
L 310.68424 20.830527 
L 312.200332 20.830918 
L 313.716424 20.831589 
L 315.232516 20.833679 
L 316.748608 20.842373 
L 318.2647 20.818305 
L 319.780792 20.759062 
L 321.296884 20.729485 
L 322.812976 20.75311 
L 324.329068 20.928906 
L 325.84516 20.563052 
L 327.361252 35.85656 
L 328.877344 86.256857 
L 330.393436 157.547132 
L 331.909528 258.632551 
L 333.42562 281.595893 
L 334.941712 281.89337 
L 336.457804 281.913177 
L 337.973896 281.918182 
L 339.489988 281.909028 
L 341.00608 281.880039 
L 342.522172 281.831542 
L 344.038264 281.77073 
L 345.554356 281.692465 
L 347.070448 281.665659 
L 348.58654 281.445411 
L 350.102633 246.901598 
L 351.618725 190.30765 
L 353.134817 142.790349 
L 354.650909 101.741565 
L 356.167001 65.721429 
L 357.683093 33.780007 
L 359.199185 30.440321 
L 360.715277 23.695216 
L 362.231369 23.714027 
L 363.747461 23.719382 
L 365.263553 23.699199 
L 366.779645 23.693575 
L 368.295737 23.690374 
L 369.811829 23.69399 
L 371.327921 23.703977 
L 372.844013 23.719798 
L 374.360105 23.73987 
L 375.876197 23.762117 
L 377.392289 23.784443 
L 378.908381 23.80081 
L 380.424473 23.811625 
L 381.940565 23.814272 
L 383.456657 23.809734 
L 384.972749 23.801455 
L 386.488841 23.790991 
L 388.004933 23.78602 
L 389.521025 23.793066 
L 391.037118 23.807316 
L 392.55321 23.809835 
L 394.069302 24.05655 
L 395.585394 24.945001 
L 397.101486 24.780517 
L 398.617578 24.863824 
L 400.13367 24.990614 
L 401.649762 25.114635 
L 403.165854 25.147063 
L 404.681946 25.138766 
L 406.198038 25.106663 
L 407.71413 25.019594 
L 409.230222 24.990642 
L 410.746314 24.368028 
L 412.262406 24.332599 
L 413.778498 20.371503 
L 415.29459 20.335493 
L 416.810682 20.315032 
L 418.326774 20.30032 
L 419.842866 20.291178 
L 421.358958 20.286065 
L 422.87505 20.283522 
L 424.391142 20.282413 
L 425.907234 20.281995 
L 427.423326 20.281862 
L 428.939418 20.281827 
L 430.45551 20.28182 
L 431.971602 20.281818 
L 433.487695 20.281818 
L 435.003787 20.281818 
L 436.519879 20.281818 
L 438.035971 20.281818 
" style="fill:none;stroke:#ff7f0e;stroke-linecap:square;stroke-width:1.5;"/>
   </g>
   <g id="patch_8">
    <path d="M 280.438203 295 
L 280.438203 7.2 
" style="fill:none;stroke:#000000;stroke-linecap:square;stroke-linejoin:miter;stroke-width:0.8;"/>
   </g>
   <g id="patch_9">
    <path d="M 445.540626 295 
L 445.540626 7.2 
" style="fill:none;stroke:#000000;stroke-linecap:square;stroke-linejoin:miter;stroke-width:0.8;"/>
   </g>
   <g id="patch_10">
    <path d="M 280.438203 295 
L 445.540626 295 
" style="fill:none;stroke:#000000;stroke-linecap:square;stroke-linejoin:miter;stroke-width:0.8;"/>
   </g>
   <g id="patch_11">
    <path d="M 280.438203 7.2 
L 445.540626 7.2 
" style="fill:none;stroke:#000000;stroke-linecap:square;stroke-linejoin:miter;stroke-width:0.8;"/>
   </g>
   <g id="legend_1">
    <g id="patch_12">
     <path d="M 367.428126 290 
L 438.540626 290 
Q 440.540626 290 440.540626 288 
L 440.540626 259.64375 
Q 440.540626 257.64375 438.540626 257.64375 
L 367.428126 257.64375 
Q 365.428126 257.64375 365.428126 259.64375 
L 365.428126 288 
Q 365.428126 290 367.428126 290 
z
" style="fill:#ffffff;opacity:0.8;stroke:#cccccc;stroke-linejoin:miter;"/>
    </g>
    <g id="line2d_57">
     <path d="M 369.428126 265.742187 
L 389.428126 265.742187 
" style="fill:none;stroke:#1f77b4;stroke-linecap:square;stroke-width:1.5;"/>
    </g>
    <g id="line2d_58"/>
    <g id="text_18">
     <!-- true -->
     <g transform="translate(397.428126 269.242187)scale(0.1 -0.1)">
      <use xlink:href="#DejaVuSans-116"/>
      <use x="39.208984" xlink:href="#DejaVuSans-114"/>
      <use x="80.322266" xlink:href="#DejaVuSans-117"/>
      <use x="143.701172" xlink:href="#DejaVuSans-101"/>
     </g>
    </g>
    <g id="line2d_59">
     <path d="M 369.428126 280.420312 
L 389.428126 280.420312 
" style="fill:none;stroke:#ff7f0e;stroke-linecap:square;stroke-width:1.5;"/>
    </g>
    <g id="line2d_60"/>
    <g id="text_19">
     <!-- inferred -->
     <defs>
      <path d="M 45.40625 46.390625 
L 45.40625 75.984375 
L 54.390625 75.984375 
L 54.390625 0 
L 45.40625 0 
L 45.40625 8.203125 
Q 42.578125 3.328125 38.25 0.953125 
Q 33.9375 -1.421875 27.875 -1.421875 
Q 17.96875 -1.421875 11.734375 6.484375 
Q 5.515625 14.40625 5.515625 27.296875 
Q 5.515625 40.1875 11.734375 48.09375 
Q 17.96875 56 27.875 56 
Q 33.9375 56 38.25 53.625 
Q 42.578125 51.265625 45.40625 46.390625 
z
M 14.796875 27.296875 
Q 14.796875 17.390625 18.875 11.75 
Q 22.953125 6.109375 30.078125 6.109375 
Q 37.203125 6.109375 41.296875 11.75 
Q 45.40625 17.390625 45.40625 27.296875 
Q 45.40625 37.203125 41.296875 42.84375 
Q 37.203125 48.484375 30.078125 48.484375 
Q 22.953125 48.484375 18.875 42.84375 
Q 14.796875 37.203125 14.796875 27.296875 
z
" id="DejaVuSans-100"/>
     </defs>
     <g transform="translate(397.428126 283.920312)scale(0.1 -0.1)">
      <use xlink:href="#DejaVuSans-105"/>
      <use x="27.783203" xlink:href="#DejaVuSans-110"/>
      <use x="91.162109" xlink:href="#DejaVuSans-102"/>
      <use x="126.367188" xlink:href="#DejaVuSans-101"/>
      <use x="187.890625" xlink:href="#DejaVuSans-114"/>
      <use x="227.253906" xlink:href="#DejaVuSans-114"/>
      <use x="266.117188" xlink:href="#DejaVuSans-101"/>
      <use x="327.640625" xlink:href="#DejaVuSans-100"/>
     </g>
    </g>
   </g>
  </g>
 </g>
 <defs>
  <clipPath id="p6f56bba4ee">
   <rect height="287.8" width="165.102423" x="45.478125" y="7.2"/>
  </clipPath>
  <clipPath id="p4c4e00c000">
   <rect height="287.8" width="165.102423" x="280.438203" y="7.2"/>
  </clipPath>
 </defs>
</svg>
