<?xml version="1.0" encoding="utf-8" standalone="no"?>
<!DOCTYPE svg PUBLIC "-//W3C//DTD SVG 1.1//EN"
  "http://www.w3.org/Graphics/SVG/1.1/DTD/svg11.dtd">
<!-- Created with matplotlib (https://matplotlib.org/) -->
<svg height="274.978125pt" version="1.1" viewBox="0 0 567.940626 274.978125" width="567.940626pt" xmlns="http://www.w3.org/2000/svg" xmlns:xlink="http://www.w3.org/1999/xlink">
 <defs>
  <style type="text/css">
*{stroke-linecap:butt;stroke-linejoin:round;}
  </style>
 </defs>
 <g id="figure_1">
  <g id="patch_1">
   <path d="M 0 274.978125 
L 567.940626 274.978125 
L 567.940626 0 
L 0 0 
z
" style="fill:#ffffff;"/>
  </g>
  <g id="axes_1">
   <g id="patch_2">
    <path d="M 45.478125 237.4 
L 276.646486 237.4 
L 276.646486 7.2 
L 45.478125 7.2 
z
" style="fill:#ffffff;"/>
   </g>
   <g id="PolyCollection_1">
    <defs>
     <path d="M 55.985778 -257.314489 
L 55.985778 -257.191256 
L 83.50488 -213.897649 
L 99.602523 -195.413698 
L 111.023983 -184.994282 
L 119.883155 -177.52957 
L 127.121626 -171.427979 
L 133.241665 -166.093337 
L 138.543085 -161.258812 
L 143.219269 -156.786541 
L 147.402257 -152.598746 
L 151.186231 -148.64784 
L 154.640728 -144.902072 
L 157.818557 -141.340022 
L 160.760768 -137.946057 
L 163.4999 -134.708312 
L 166.062187 -131.617386 
L 168.469086 -128.666158 
L 170.738371 -125.847902 
L 172.88493 -123.156541 
L 174.92136 -120.587224 
L 176.858411 -118.135308 
L 178.705333 -115.795344 
L 180.470143 -113.564187 
L 182.15983 -111.436751 
L 183.780532 -109.408789 
L 185.33766 -107.475971 
L 186.836014 -105.63538 
L 188.27987 -103.88137 
L 189.673054 -102.210538 
L 191.019003 -100.619399 
L 192.320813 -99.103559 
L 193.58129 -97.658991 
L 194.802976 -96.28236 
L 195.988189 -94.970144 
L 197.139042 -93.720052 
L 198.257473 -92.526159 
L 199.345258 -91.386566 
L 200.404032 -90.298613 
L 201.435303 -89.258872 
L 202.440462 -88.266033 
L 203.4208 -87.313848 
L 204.377513 -86.404245 
L 205.311713 -85.531325 
L 206.224436 -84.693166 
L 207.116646 -83.889094 
L 207.989245 -83.116564 
L 208.843077 -82.374341 
L 209.678933 -81.659262 
L 210.497553 -80.969546 
L 211.299634 -80.304942 
L 212.085832 -79.663308 
L 212.856762 -79.042285 
L 213.613007 -78.442969 
L 214.355116 -77.862734 
L 215.083608 -77.298749 
L 215.798973 -76.753713 
L 216.501675 -76.224617 
L 217.192157 -75.710216 
L 217.870834 -75.209166 
L 218.538105 -74.722038 
L 219.194346 -74.247373 
L 219.839916 -73.783618 
L 220.475156 -73.333285 
L 221.100392 -72.892676 
L 221.715934 -72.46216 
L 222.322079 -72.042105 
L 222.919107 -71.628551 
L 223.507291 -71.22611 
L 224.086888 -70.83074 
L 224.658145 -70.444909 
L 225.221299 -70.064428 
L 225.776576 -69.691749 
L 226.324194 -69.327117 
L 226.864361 -68.966159 
L 227.397277 -68.613659 
L 227.923135 -68.265166 
L 228.442118 -67.925544 
L 228.954405 -67.587877 
L 229.460166 -67.25705 
L 229.959564 -66.930826 
L 230.452759 -66.609335 
L 230.939903 -66.29271 
L 231.421141 -65.9786 
L 231.896616 -65.672084 
L 232.366463 -65.365792 
L 232.830816 -65.067362 
L 233.2898 -64.769312 
L 233.743538 -64.476817 
L 234.192149 -64.187418 
L 234.635748 -63.901195 
L 235.074445 -63.61823 
L 235.508347 -63.338603 
L 235.937559 -63.062396 
L 236.36218 -62.787009 
L 236.782307 -62.517872 
L 237.198035 -62.249683 
L 237.609455 -61.985209 
L 238.016655 -61.721781 
L 238.419722 -61.462199 
L 238.818737 -61.20376 
L 239.213781 -60.9493 
L 239.604934 -60.696083 
L 239.992271 -60.446979 
L 240.375865 -60.196361 
L 240.755788 -59.952832 
L 241.13211 -59.707855 
L 241.504898 -59.46723 
L 241.874219 -59.228116 
L 242.240135 -58.990549 
L 242.60271 -58.754563 
L 242.962004 -58.520193 
L 243.318075 -58.287476 
L 243.670981 -58.059455 
L 244.020778 -57.830166 
L 244.36752 -57.605678 
L 244.711259 -57.379962 
L 245.052048 -57.156078 
L 245.389937 -56.937155 
L 245.724974 -56.717063 
L 246.057207 -56.498915 
L 246.386684 -56.282748 
L 246.713448 -56.068598 
L 247.037545 -55.856504 
L 247.359018 -55.646503 
L 247.677909 -55.435427 
L 247.994259 -55.22971 
L 248.308107 -55.022962 
L 248.619495 -54.818426 
L 248.928459 -54.61614 
L 249.235037 -54.412858 
L 249.539266 -54.211871 
L 249.841181 -54.016537 
L 250.140818 -53.816938 
L 250.43821 -53.62307 
L 250.733391 -53.428285 
L 251.026394 -53.23934 
L 251.31725 -53.046128 
L 251.60599 -52.858832 
L 251.892646 -52.670682 
L 252.177247 -52.485113 
L 252.459823 -52.302165 
L 252.740401 -52.121876 
L 253.01901 -51.940795 
L 253.295678 -51.762421 
L 253.570431 -51.586791 
L 253.843296 -51.413945 
L 254.114298 -51.240372 
L 254.383463 -51.073193 
L 254.650816 -50.905334 
L 254.91638 -50.736788 
L 255.180179 -50.574766 
L 255.442237 -50.415727 
L 255.702577 -50.256072 
L 255.961221 -50.103094 
L 256.21819 -49.949547 
L 256.473508 -49.802778 
L 256.727193 -49.655485 
L 256.979268 -49.515067 
L 257.229753 -49.377883 
L 257.478667 -49.243968 
L 257.72603 -49.113353 
L 257.971862 -48.989823 
L 258.21618 -48.869681 
L 258.459005 -48.756729 
L 258.700353 -48.651027 
L 258.940243 -48.548843 
L 259.178692 -48.457799 
L 259.415718 -48.374166 
L 259.651337 -48.297988 
L 259.885566 -48.229307 
L 260.118421 -48.17581 
L 260.349918 -48.133727 
L 260.580073 -48.103095 
L 260.808902 -48.08777 
L 261.03642 -48.08777 
L 261.26264 -48.106925 
L 261.48758 -48.145209 
L 261.711252 -48.206388 
L 261.933671 -48.294175 
L 262.15485 -48.412202 
L 262.374805 -48.556421 
L 262.593547 -48.741645 
L 262.811091 -48.963572 
L 263.02745 -49.236515 
L 263.242636 -49.555764 
L 263.456661 -49.938558 
L 263.669539 -50.386745 
L 263.881282 -50.916069 
L 264.091902 -51.53748 
L 264.30141 -52.267555 
L 264.509818 -53.130982 
L 264.717138 -54.155683 
L 264.923381 -55.387305 
L 265.128558 -56.906227 
L 265.33268 -58.857973 
L 265.535758 -61.56457 
L 265.737802 -65.95128 
L 265.938824 -75.452561 
L 266.138833 -105.388921 
L 266.138833 -106.16328 
L 266.138833 -106.16328 
L 265.938824 -76.56402 
L 265.737802 -67.196833 
L 265.535758 -62.878117 
L 265.33268 -60.213497 
L 265.128558 -58.293459 
L 264.923381 -56.800899 
L 264.717138 -55.589044 
L 264.509818 -54.583421 
L 264.30141 -53.736827 
L 264.091902 -53.018938 
L 263.881282 -52.409271 
L 263.669539 -51.888412 
L 263.456661 -51.449279 
L 263.242636 -51.073193 
L 263.02745 -50.758343 
L 262.811091 -50.491709 
L 262.593547 -50.274245 
L 262.374805 -50.092146 
L 262.15485 -49.949547 
L 261.933671 -49.835847 
L 261.711252 -49.747605 
L 261.48758 -49.688672 
L 261.26264 -49.648107 
L 261.03642 -49.629654 
L 260.808902 -49.629654 
L 260.580073 -49.644417 
L 260.349918 -49.673926 
L 260.118421 -49.718149 
L 259.885566 -49.769683 
L 259.651337 -49.835847 
L 259.415718 -49.909238 
L 259.178692 -49.993476 
L 258.940243 -50.084845 
L 258.700353 -50.183296 
L 258.459005 -50.288779 
L 258.21618 -50.401238 
L 257.971862 -50.517005 
L 257.72603 -50.639652 
L 257.478667 -50.765525 
L 257.229753 -50.898176 
L 256.979268 -51.0304 
L 256.727193 -51.17287 
L 256.473508 -51.31485 
L 256.21819 -51.459873 
L 255.961221 -51.607906 
L 255.702577 -51.762421 
L 255.442237 -51.916358 
L 255.180179 -52.073202 
L 254.91638 -52.232916 
L 254.650816 -52.395466 
L 254.383463 -52.560816 
L 254.114298 -52.728929 
L 253.843296 -52.896359 
L 253.570431 -53.066509 
L 253.295678 -53.23934 
L 253.01901 -53.414818 
L 252.740401 -53.592905 
L 252.459823 -53.770226 
L 252.177247 -53.950111 
L 251.892646 -54.132524 
L 251.60599 -54.317429 
L 251.31725 -54.501507 
L 251.026394 -54.688033 
L 250.733391 -54.876968 
L 250.43821 -55.068277 
L 250.140818 -55.258701 
L 249.841181 -55.451456 
L 249.539266 -55.646503 
L 249.235037 -55.843807 
L 248.928459 -56.040171 
L 248.619495 -56.241893 
L 248.308107 -56.442633 
L 247.994259 -56.645513 
L 247.677909 -56.850498 
L 247.359018 -57.054469 
L 247.037545 -57.263571 
L 246.713448 -57.471617 
L 246.386684 -57.681655 
L 246.057207 -57.89365 
L 245.724974 -58.107564 
L 245.389937 -58.323364 
L 245.052048 -58.541014 
L 244.711259 -58.760479 
L 244.36752 -58.981723 
L 244.020778 -59.204713 
L 243.670981 -59.426503 
L 243.318075 -59.652896 
L 242.962004 -59.880931 
L 242.60271 -60.110574 
L 242.240135 -60.341791 
L 241.874219 -60.57738 
L 241.504898 -60.81163 
L 241.13211 -61.050153 
L 240.755788 -61.290086 
L 240.375865 -61.531396 
L 239.992271 -61.776801 
L 239.604934 -62.023486 
L 239.213781 -62.27142 
L 238.818737 -62.523272 
L 238.419722 -62.776278 
L 238.016655 -63.030407 
L 237.609455 -63.29093 
L 237.198035 -63.552451 
L 236.782307 -63.814939 
L 236.36218 -64.080967 
L 235.937559 -64.350454 
L 235.508347 -64.623324 
L 235.074445 -64.899496 
L 234.635748 -65.176362 
L 234.192149 -65.458924 
L 233.743538 -65.744557 
L 233.2898 -66.033184 
L 232.830816 -66.324728 
L 232.366463 -66.621559 
L 231.896616 -66.921121 
L 231.421141 -67.22334 
L 230.939903 -67.532924 
L 230.452759 -67.844946 
L 229.959564 -68.161689 
L 229.460166 -68.483027 
L 228.954405 -68.808834 
L 228.442118 -69.141285 
L 227.923135 -69.477919 
L 227.397277 -69.818612 
L 226.864361 -70.167729 
L 226.324194 -70.522809 
L 225.776576 -70.881471 
L 225.221299 -71.250149 
L 224.658145 -71.624221 
L 224.086888 -72.005655 
L 223.507291 -72.394218 
L 222.919107 -72.791782 
L 222.322079 -73.198054 
L 221.715934 -73.612741 
L 221.100392 -74.037593 
L 220.475156 -74.472258 
L 219.839916 -74.91838 
L 219.194346 -75.373565 
L 218.538105 -75.841374 
L 217.870834 -76.323255 
L 217.192157 -76.81675 
L 216.501675 -77.323267 
L 215.798973 -77.847844 
L 215.083608 -78.386046 
L 214.355116 -78.940887 
L 213.613007 -79.513397 
L 212.856762 -80.106273 
L 212.085832 -80.718535 
L 211.299634 -81.352625 
L 210.497553 -82.009097 
L 209.678933 -82.688399 
L 208.843077 -83.39576 
L 207.989245 -84.129569 
L 207.116646 -84.892934 
L 206.224436 -85.687081 
L 205.311713 -86.514524 
L 204.377513 -87.375948 
L 203.4208 -88.277599 
L 202.440462 -89.216506 
L 201.435303 -90.199398 
L 200.404032 -91.228085 
L 199.345258 -92.302582 
L 198.257473 -93.430226 
L 197.139042 -94.609743 
L 195.988189 -95.847975 
L 194.802976 -97.145795 
L 193.58129 -98.507889 
L 192.320813 -99.937679 
L 191.019003 -101.438404 
L 189.673054 -103.015008 
L 188.27987 -104.669726 
L 186.836014 -106.407028 
L 185.33766 -108.231152 
L 183.780532 -110.145842 
L 182.15983 -112.155735 
L 180.470143 -114.265009 
L 178.705333 -116.477776 
L 176.858411 -118.798304 
L 174.92136 -121.231076 
L 172.88493 -123.780716 
L 170.738371 -126.452379 
L 168.469086 -129.250229 
L 166.062187 -132.181306 
L 163.4999 -135.251184 
L 160.760768 -138.468283 
L 157.818557 -141.841325 
L 154.640728 -145.382009 
L 151.186231 -149.106807 
L 147.402257 -153.036414 
L 143.219269 -157.202235 
L 138.543085 -161.652688 
L 133.241665 -166.464859 
L 127.121626 -171.776327 
L 119.883155 -177.853048 
L 111.023983 -185.289783 
L 99.602523 -195.674156 
L 83.50488 -214.105934 
L 55.985778 -257.314489 
z
" id="m5a3b6ce633" style="stroke:#1f77b4;stroke-opacity:0.1;"/>
    </defs>
    <g clip-path="url(#pea3a365962)">
     <use style="fill:#1f77b4;fill-opacity:0.1;stroke:#1f77b4;stroke-opacity:0.1;" x="0" xlink:href="#m5a3b6ce633" y="274.978125"/>
    </g>
   </g>
   <g id="matplotlib.axis_1">
    <g id="xtick_1">
     <g id="line2d_1">
      <defs>
       <path d="M 0 0 
L 0 3.5 
" id="m15e447e604" style="stroke:#000000;stroke-width:0.8;"/>
      </defs>
      <g>
       <use style="stroke:#000000;stroke-width:0.8;" x="55.985778" xlink:href="#m15e447e604" y="237.4"/>
      </g>
     </g>
     <g id="text_1">
      <!-- $\mathdefault{10^{0}}$ -->
      <defs>
       <path d="M 12.40625 8.296875 
L 28.515625 8.296875 
L 28.515625 63.921875 
L 10.984375 60.40625 
L 10.984375 69.390625 
L 28.421875 72.90625 
L 38.28125 72.90625 
L 38.28125 8.296875 
L 54.390625 8.296875 
L 54.390625 0 
L 12.40625 0 
z
" id="DejaVuSans-49"/>
       <path d="M 31.78125 66.40625 
Q 24.171875 66.40625 20.328125 58.90625 
Q 16.5 51.421875 16.5 36.375 
Q 16.5 21.390625 20.328125 13.890625 
Q 24.171875 6.390625 31.78125 6.390625 
Q 39.453125 6.390625 43.28125 13.890625 
Q 47.125 21.390625 47.125 36.375 
Q 47.125 51.421875 43.28125 58.90625 
Q 39.453125 66.40625 31.78125 66.40625 
z
M 31.78125 74.21875 
Q 44.046875 74.21875 50.515625 64.515625 
Q 56.984375 54.828125 56.984375 36.375 
Q 56.984375 17.96875 50.515625 8.265625 
Q 44.046875 -1.421875 31.78125 -1.421875 
Q 19.53125 -1.421875 13.0625 8.265625 
Q 6.59375 17.96875 6.59375 36.375 
Q 6.59375 54.828125 13.0625 64.515625 
Q 19.53125 74.21875 31.78125 74.21875 
z
" id="DejaVuSans-48"/>
      </defs>
      <g transform="translate(47.185778 251.998438)scale(0.1 -0.1)">
       <use transform="translate(0 0.765625)" xlink:href="#DejaVuSans-49"/>
       <use transform="translate(63.623047 0.765625)" xlink:href="#DejaVuSans-48"/>
       <use transform="translate(128.203125 39.046875)scale(0.7)" xlink:href="#DejaVuSans-48"/>
      </g>
     </g>
    </g>
    <g id="xtick_2">
     <g id="line2d_2">
      <g>
       <use style="stroke:#000000;stroke-width:0.8;" x="147.402257" xlink:href="#m15e447e604" y="237.4"/>
      </g>
     </g>
     <g id="text_2">
      <!-- $\mathdefault{10^{1}}$ -->
      <g transform="translate(138.602257 251.998438)scale(0.1 -0.1)">
       <use transform="translate(0 0.684375)" xlink:href="#DejaVuSans-49"/>
       <use transform="translate(63.623047 0.684375)" xlink:href="#DejaVuSans-48"/>
       <use transform="translate(128.203125 38.965625)scale(0.7)" xlink:href="#DejaVuSans-49"/>
      </g>
     </g>
    </g>
    <g id="xtick_3">
     <g id="line2d_3">
      <g>
       <use style="stroke:#000000;stroke-width:0.8;" x="238.818737" xlink:href="#m15e447e604" y="237.4"/>
      </g>
     </g>
     <g id="text_3">
      <!-- $\mathdefault{10^{2}}$ -->
      <defs>
       <path d="M 19.1875 8.296875 
L 53.609375 8.296875 
L 53.609375 0 
L 7.328125 0 
L 7.328125 8.296875 
Q 12.9375 14.109375 22.625 23.890625 
Q 32.328125 33.6875 34.8125 36.53125 
Q 39.546875 41.84375 41.421875 45.53125 
Q 43.3125 49.21875 43.3125 52.78125 
Q 43.3125 58.59375 39.234375 62.25 
Q 35.15625 65.921875 28.609375 65.921875 
Q 23.96875 65.921875 18.8125 64.3125 
Q 13.671875 62.703125 7.8125 59.421875 
L 7.8125 69.390625 
Q 13.765625 71.78125 18.9375 73 
Q 24.125 74.21875 28.421875 74.21875 
Q 39.75 74.21875 46.484375 68.546875 
Q 53.21875 62.890625 53.21875 53.421875 
Q 53.21875 48.921875 51.53125 44.890625 
Q 49.859375 40.875 45.40625 35.40625 
Q 44.1875 33.984375 37.640625 27.21875 
Q 31.109375 20.453125 19.1875 8.296875 
z
" id="DejaVuSans-50"/>
      </defs>
      <g transform="translate(230.018737 251.998438)scale(0.1 -0.1)">
       <use transform="translate(0 0.765625)" xlink:href="#DejaVuSans-49"/>
       <use transform="translate(63.623047 0.765625)" xlink:href="#DejaVuSans-48"/>
       <use transform="translate(128.203125 39.046875)scale(0.7)" xlink:href="#DejaVuSans-50"/>
      </g>
     </g>
    </g>
    <g id="xtick_4">
     <g id="line2d_4">
      <defs>
       <path d="M 0 0 
L 0 2 
" id="m7b66628621" style="stroke:#000000;stroke-width:0.6;"/>
      </defs>
      <g>
       <use style="stroke:#000000;stroke-width:0.6;" x="47.126606" xlink:href="#m7b66628621" y="237.4"/>
      </g>
     </g>
    </g>
    <g id="xtick_5">
     <g id="line2d_5">
      <g>
       <use style="stroke:#000000;stroke-width:0.6;" x="51.802789" xlink:href="#m7b66628621" y="237.4"/>
      </g>
     </g>
    </g>
    <g id="xtick_6">
     <g id="line2d_6">
      <g>
       <use style="stroke:#000000;stroke-width:0.6;" x="83.50488" xlink:href="#m7b66628621" y="237.4"/>
      </g>
     </g>
    </g>
    <g id="xtick_7">
     <g id="line2d_7">
      <g>
       <use style="stroke:#000000;stroke-width:0.6;" x="99.602523" xlink:href="#m7b66628621" y="237.4"/>
      </g>
     </g>
    </g>
    <g id="xtick_8">
     <g id="line2d_8">
      <g>
       <use style="stroke:#000000;stroke-width:0.6;" x="111.023983" xlink:href="#m7b66628621" y="237.4"/>
      </g>
     </g>
    </g>
    <g id="xtick_9">
     <g id="line2d_9">
      <g>
       <use style="stroke:#000000;stroke-width:0.6;" x="119.883155" xlink:href="#m7b66628621" y="237.4"/>
      </g>
     </g>
    </g>
    <g id="xtick_10">
     <g id="line2d_10">
      <g>
       <use style="stroke:#000000;stroke-width:0.6;" x="127.121626" xlink:href="#m7b66628621" y="237.4"/>
      </g>
     </g>
    </g>
    <g id="xtick_11">
     <g id="line2d_11">
      <g>
       <use style="stroke:#000000;stroke-width:0.6;" x="133.241665" xlink:href="#m7b66628621" y="237.4"/>
      </g>
     </g>
    </g>
    <g id="xtick_12">
     <g id="line2d_12">
      <g>
       <use style="stroke:#000000;stroke-width:0.6;" x="138.543085" xlink:href="#m7b66628621" y="237.4"/>
      </g>
     </g>
    </g>
    <g id="xtick_13">
     <g id="line2d_13">
      <g>
       <use style="stroke:#000000;stroke-width:0.6;" x="143.219269" xlink:href="#m7b66628621" y="237.4"/>
      </g>
     </g>
    </g>
    <g id="xtick_14">
     <g id="line2d_14">
      <g>
       <use style="stroke:#000000;stroke-width:0.6;" x="174.92136" xlink:href="#m7b66628621" y="237.4"/>
      </g>
     </g>
    </g>
    <g id="xtick_15">
     <g id="line2d_15">
      <g>
       <use style="stroke:#000000;stroke-width:0.6;" x="191.019003" xlink:href="#m7b66628621" y="237.4"/>
      </g>
     </g>
    </g>
    <g id="xtick_16">
     <g id="line2d_16">
      <g>
       <use style="stroke:#000000;stroke-width:0.6;" x="202.440462" xlink:href="#m7b66628621" y="237.4"/>
      </g>
     </g>
    </g>
    <g id="xtick_17">
     <g id="line2d_17">
      <g>
       <use style="stroke:#000000;stroke-width:0.6;" x="211.299634" xlink:href="#m7b66628621" y="237.4"/>
      </g>
     </g>
    </g>
    <g id="xtick_18">
     <g id="line2d_18">
      <g>
       <use style="stroke:#000000;stroke-width:0.6;" x="218.538105" xlink:href="#m7b66628621" y="237.4"/>
      </g>
     </g>
    </g>
    <g id="xtick_19">
     <g id="line2d_19">
      <g>
       <use style="stroke:#000000;stroke-width:0.6;" x="224.658145" xlink:href="#m7b66628621" y="237.4"/>
      </g>
     </g>
    </g>
    <g id="xtick_20">
     <g id="line2d_20">
      <g>
       <use style="stroke:#000000;stroke-width:0.6;" x="229.959564" xlink:href="#m7b66628621" y="237.4"/>
      </g>
     </g>
    </g>
    <g id="xtick_21">
     <g id="line2d_21">
      <g>
       <use style="stroke:#000000;stroke-width:0.6;" x="234.635748" xlink:href="#m7b66628621" y="237.4"/>
      </g>
     </g>
    </g>
    <g id="xtick_22">
     <g id="line2d_22">
      <g>
       <use style="stroke:#000000;stroke-width:0.6;" x="266.337839" xlink:href="#m7b66628621" y="237.4"/>
      </g>
     </g>
    </g>
    <g id="text_4">
     <!-- sample frequency -->
     <defs>
      <path d="M 44.28125 53.078125 
L 44.28125 44.578125 
Q 40.484375 46.53125 36.375 47.5 
Q 32.28125 48.484375 27.875 48.484375 
Q 21.1875 48.484375 17.84375 46.4375 
Q 14.5 44.390625 14.5 40.28125 
Q 14.5 37.15625 16.890625 35.375 
Q 19.28125 33.59375 26.515625 31.984375 
L 29.59375 31.296875 
Q 39.15625 29.25 43.1875 25.515625 
Q 47.21875 21.78125 47.21875 15.09375 
Q 47.21875 7.46875 41.1875 3.015625 
Q 35.15625 -1.421875 24.609375 -1.421875 
Q 20.21875 -1.421875 15.453125 -0.5625 
Q 10.6875 0.296875 5.421875 2 
L 5.421875 11.28125 
Q 10.40625 8.6875 15.234375 7.390625 
Q 20.0625 6.109375 24.8125 6.109375 
Q 31.15625 6.109375 34.5625 8.28125 
Q 37.984375 10.453125 37.984375 14.40625 
Q 37.984375 18.0625 35.515625 20.015625 
Q 33.0625 21.96875 24.703125 23.78125 
L 21.578125 24.515625 
Q 13.234375 26.265625 9.515625 29.90625 
Q 5.8125 33.546875 5.8125 39.890625 
Q 5.8125 47.609375 11.28125 51.796875 
Q 16.75 56 26.8125 56 
Q 31.78125 56 36.171875 55.265625 
Q 40.578125 54.546875 44.28125 53.078125 
z
" id="DejaVuSans-115"/>
      <path d="M 34.28125 27.484375 
Q 23.390625 27.484375 19.1875 25 
Q 14.984375 22.515625 14.984375 16.5 
Q 14.984375 11.71875 18.140625 8.90625 
Q 21.296875 6.109375 26.703125 6.109375 
Q 34.1875 6.109375 38.703125 11.40625 
Q 43.21875 16.703125 43.21875 25.484375 
L 43.21875 27.484375 
z
M 52.203125 31.203125 
L 52.203125 0 
L 43.21875 0 
L 43.21875 8.296875 
Q 40.140625 3.328125 35.546875 0.953125 
Q 30.953125 -1.421875 24.3125 -1.421875 
Q 15.921875 -1.421875 10.953125 3.296875 
Q 6 8.015625 6 15.921875 
Q 6 25.140625 12.171875 29.828125 
Q 18.359375 34.515625 30.609375 34.515625 
L 43.21875 34.515625 
L 43.21875 35.40625 
Q 43.21875 41.609375 39.140625 45 
Q 35.0625 48.390625 27.6875 48.390625 
Q 23 48.390625 18.546875 47.265625 
Q 14.109375 46.140625 10.015625 43.890625 
L 10.015625 52.203125 
Q 14.9375 54.109375 19.578125 55.046875 
Q 24.21875 56 28.609375 56 
Q 40.484375 56 46.34375 49.84375 
Q 52.203125 43.703125 52.203125 31.203125 
z
" id="DejaVuSans-97"/>
      <path d="M 52 44.1875 
Q 55.375 50.25 60.0625 53.125 
Q 64.75 56 71.09375 56 
Q 79.640625 56 84.28125 50.015625 
Q 88.921875 44.046875 88.921875 33.015625 
L 88.921875 0 
L 79.890625 0 
L 79.890625 32.71875 
Q 79.890625 40.578125 77.09375 44.375 
Q 74.3125 48.1875 68.609375 48.1875 
Q 61.625 48.1875 57.5625 43.546875 
Q 53.515625 38.921875 53.515625 30.90625 
L 53.515625 0 
L 44.484375 0 
L 44.484375 32.71875 
Q 44.484375 40.625 41.703125 44.40625 
Q 38.921875 48.1875 33.109375 48.1875 
Q 26.21875 48.1875 22.15625 43.53125 
Q 18.109375 38.875 18.109375 30.90625 
L 18.109375 0 
L 9.078125 0 
L 9.078125 54.6875 
L 18.109375 54.6875 
L 18.109375 46.1875 
Q 21.1875 51.21875 25.484375 53.609375 
Q 29.78125 56 35.6875 56 
Q 41.65625 56 45.828125 52.96875 
Q 50 49.953125 52 44.1875 
z
" id="DejaVuSans-109"/>
      <path d="M 18.109375 8.203125 
L 18.109375 -20.796875 
L 9.078125 -20.796875 
L 9.078125 54.6875 
L 18.109375 54.6875 
L 18.109375 46.390625 
Q 20.953125 51.265625 25.265625 53.625 
Q 29.59375 56 35.59375 56 
Q 45.5625 56 51.78125 48.09375 
Q 58.015625 40.1875 58.015625 27.296875 
Q 58.015625 14.40625 51.78125 6.484375 
Q 45.5625 -1.421875 35.59375 -1.421875 
Q 29.59375 -1.421875 25.265625 0.953125 
Q 20.953125 3.328125 18.109375 8.203125 
z
M 48.6875 27.296875 
Q 48.6875 37.203125 44.609375 42.84375 
Q 40.53125 48.484375 33.40625 48.484375 
Q 26.265625 48.484375 22.1875 42.84375 
Q 18.109375 37.203125 18.109375 27.296875 
Q 18.109375 17.390625 22.1875 11.75 
Q 26.265625 6.109375 33.40625 6.109375 
Q 40.53125 6.109375 44.609375 11.75 
Q 48.6875 17.390625 48.6875 27.296875 
z
" id="DejaVuSans-112"/>
      <path d="M 9.421875 75.984375 
L 18.40625 75.984375 
L 18.40625 0 
L 9.421875 0 
z
" id="DejaVuSans-108"/>
      <path d="M 56.203125 29.59375 
L 56.203125 25.203125 
L 14.890625 25.203125 
Q 15.484375 15.921875 20.484375 11.0625 
Q 25.484375 6.203125 34.421875 6.203125 
Q 39.59375 6.203125 44.453125 7.46875 
Q 49.3125 8.734375 54.109375 11.28125 
L 54.109375 2.78125 
Q 49.265625 0.734375 44.1875 -0.34375 
Q 39.109375 -1.421875 33.890625 -1.421875 
Q 20.796875 -1.421875 13.15625 6.1875 
Q 5.515625 13.8125 5.515625 26.8125 
Q 5.515625 40.234375 12.765625 48.109375 
Q 20.015625 56 32.328125 56 
Q 43.359375 56 49.78125 48.890625 
Q 56.203125 41.796875 56.203125 29.59375 
z
M 47.21875 32.234375 
Q 47.125 39.59375 43.09375 43.984375 
Q 39.0625 48.390625 32.421875 48.390625 
Q 24.90625 48.390625 20.390625 44.140625 
Q 15.875 39.890625 15.1875 32.171875 
z
" id="DejaVuSans-101"/>
      <path id="DejaVuSans-32"/>
      <path d="M 37.109375 75.984375 
L 37.109375 68.5 
L 28.515625 68.5 
Q 23.6875 68.5 21.796875 66.546875 
Q 19.921875 64.59375 19.921875 59.515625 
L 19.921875 54.6875 
L 34.71875 54.6875 
L 34.71875 47.703125 
L 19.921875 47.703125 
L 19.921875 0 
L 10.890625 0 
L 10.890625 47.703125 
L 2.296875 47.703125 
L 2.296875 54.6875 
L 10.890625 54.6875 
L 10.890625 58.5 
Q 10.890625 67.625 15.140625 71.796875 
Q 19.390625 75.984375 28.609375 75.984375 
z
" id="DejaVuSans-102"/>
      <path d="M 41.109375 46.296875 
Q 39.59375 47.171875 37.8125 47.578125 
Q 36.03125 48 33.890625 48 
Q 26.265625 48 22.1875 43.046875 
Q 18.109375 38.09375 18.109375 28.8125 
L 18.109375 0 
L 9.078125 0 
L 9.078125 54.6875 
L 18.109375 54.6875 
L 18.109375 46.1875 
Q 20.953125 51.171875 25.484375 53.578125 
Q 30.03125 56 36.53125 56 
Q 37.453125 56 38.578125 55.875 
Q 39.703125 55.765625 41.0625 55.515625 
z
" id="DejaVuSans-114"/>
      <path d="M 14.796875 27.296875 
Q 14.796875 17.390625 18.875 11.75 
Q 22.953125 6.109375 30.078125 6.109375 
Q 37.203125 6.109375 41.296875 11.75 
Q 45.40625 17.390625 45.40625 27.296875 
Q 45.40625 37.203125 41.296875 42.84375 
Q 37.203125 48.484375 30.078125 48.484375 
Q 22.953125 48.484375 18.875 42.84375 
Q 14.796875 37.203125 14.796875 27.296875 
z
M 45.40625 8.203125 
Q 42.578125 3.328125 38.25 0.953125 
Q 33.9375 -1.421875 27.875 -1.421875 
Q 17.96875 -1.421875 11.734375 6.484375 
Q 5.515625 14.40625 5.515625 27.296875 
Q 5.515625 40.1875 11.734375 48.09375 
Q 17.96875 56 27.875 56 
Q 33.9375 56 38.25 53.625 
Q 42.578125 51.265625 45.40625 46.390625 
L 45.40625 54.6875 
L 54.390625 54.6875 
L 54.390625 -20.796875 
L 45.40625 -20.796875 
z
" id="DejaVuSans-113"/>
      <path d="M 8.5 21.578125 
L 8.5 54.6875 
L 17.484375 54.6875 
L 17.484375 21.921875 
Q 17.484375 14.15625 20.5 10.265625 
Q 23.53125 6.390625 29.59375 6.390625 
Q 36.859375 6.390625 41.078125 11.03125 
Q 45.3125 15.671875 45.3125 23.6875 
L 45.3125 54.6875 
L 54.296875 54.6875 
L 54.296875 0 
L 45.3125 0 
L 45.3125 8.40625 
Q 42.046875 3.421875 37.71875 1 
Q 33.40625 -1.421875 27.6875 -1.421875 
Q 18.265625 -1.421875 13.375 4.4375 
Q 8.5 10.296875 8.5 21.578125 
z
M 31.109375 56 
z
" id="DejaVuSans-117"/>
      <path d="M 54.890625 33.015625 
L 54.890625 0 
L 45.90625 0 
L 45.90625 32.71875 
Q 45.90625 40.484375 42.875 44.328125 
Q 39.84375 48.1875 33.796875 48.1875 
Q 26.515625 48.1875 22.3125 43.546875 
Q 18.109375 38.921875 18.109375 30.90625 
L 18.109375 0 
L 9.078125 0 
L 9.078125 54.6875 
L 18.109375 54.6875 
L 18.109375 46.1875 
Q 21.34375 51.125 25.703125 53.5625 
Q 30.078125 56 35.796875 56 
Q 45.21875 56 50.046875 50.171875 
Q 54.890625 44.34375 54.890625 33.015625 
z
" id="DejaVuSans-110"/>
      <path d="M 48.78125 52.59375 
L 48.78125 44.1875 
Q 44.96875 46.296875 41.140625 47.34375 
Q 37.3125 48.390625 33.40625 48.390625 
Q 24.65625 48.390625 19.8125 42.84375 
Q 14.984375 37.3125 14.984375 27.296875 
Q 14.984375 17.28125 19.8125 11.734375 
Q 24.65625 6.203125 33.40625 6.203125 
Q 37.3125 6.203125 41.140625 7.25 
Q 44.96875 8.296875 48.78125 10.40625 
L 48.78125 2.09375 
Q 45.015625 0.34375 40.984375 -0.53125 
Q 36.96875 -1.421875 32.421875 -1.421875 
Q 20.0625 -1.421875 12.78125 6.34375 
Q 5.515625 14.109375 5.515625 27.296875 
Q 5.515625 40.671875 12.859375 48.328125 
Q 20.21875 56 33.015625 56 
Q 37.15625 56 41.109375 55.140625 
Q 45.0625 54.296875 48.78125 52.59375 
z
" id="DejaVuSans-99"/>
      <path d="M 32.171875 -5.078125 
Q 28.375 -14.84375 24.75 -17.8125 
Q 21.140625 -20.796875 15.09375 -20.796875 
L 7.90625 -20.796875 
L 7.90625 -13.28125 
L 13.1875 -13.28125 
Q 16.890625 -13.28125 18.9375 -11.515625 
Q 21 -9.765625 23.484375 -3.21875 
L 25.09375 0.875 
L 2.984375 54.6875 
L 12.5 54.6875 
L 29.59375 11.921875 
L 46.6875 54.6875 
L 56.203125 54.6875 
z
" id="DejaVuSans-121"/>
     </defs>
     <g transform="translate(116.217774 265.676563)scale(0.1 -0.1)">
      <use xlink:href="#DejaVuSans-115"/>
      <use x="52.099609" xlink:href="#DejaVuSans-97"/>
      <use x="113.378906" xlink:href="#DejaVuSans-109"/>
      <use x="210.791016" xlink:href="#DejaVuSans-112"/>
      <use x="274.267578" xlink:href="#DejaVuSans-108"/>
      <use x="302.050781" xlink:href="#DejaVuSans-101"/>
      <use x="363.574219" xlink:href="#DejaVuSans-32"/>
      <use x="395.361328" xlink:href="#DejaVuSans-102"/>
      <use x="430.566406" xlink:href="#DejaVuSans-114"/>
      <use x="469.429688" xlink:href="#DejaVuSans-101"/>
      <use x="530.953125" xlink:href="#DejaVuSans-113"/>
      <use x="594.429688" xlink:href="#DejaVuSans-117"/>
      <use x="657.808594" xlink:href="#DejaVuSans-101"/>
      <use x="719.332031" xlink:href="#DejaVuSans-110"/>
      <use x="782.710938" xlink:href="#DejaVuSans-99"/>
      <use x="837.691406" xlink:href="#DejaVuSans-121"/>
     </g>
    </g>
   </g>
   <g id="matplotlib.axis_2">
    <g id="ytick_1">
     <g id="line2d_23">
      <defs>
       <path d="M 0 0 
L -3.5 0 
" id="mb0f2a81784" style="stroke:#000000;stroke-width:0.8;"/>
      </defs>
      <g>
       <use style="stroke:#000000;stroke-width:0.8;" x="45.478125" xlink:href="#mb0f2a81784" y="229.902346"/>
      </g>
     </g>
     <g id="text_5">
      <!-- $\mathdefault{10^{4}}$ -->
      <defs>
       <path d="M 37.796875 64.3125 
L 12.890625 25.390625 
L 37.796875 25.390625 
z
M 35.203125 72.90625 
L 47.609375 72.90625 
L 47.609375 25.390625 
L 58.015625 25.390625 
L 58.015625 17.1875 
L 47.609375 17.1875 
L 47.609375 0 
L 37.796875 0 
L 37.796875 17.1875 
L 4.890625 17.1875 
L 4.890625 26.703125 
z
" id="DejaVuSans-52"/>
      </defs>
      <g transform="translate(20.878125 233.701565)scale(0.1 -0.1)">
       <use transform="translate(0 0.684375)" xlink:href="#DejaVuSans-49"/>
       <use transform="translate(63.623047 0.684375)" xlink:href="#DejaVuSans-48"/>
       <use transform="translate(128.203125 38.965625)scale(0.7)" xlink:href="#DejaVuSans-52"/>
      </g>
     </g>
    </g>
    <g id="ytick_2">
     <g id="line2d_24">
      <g>
       <use style="stroke:#000000;stroke-width:0.8;" x="45.478125" xlink:href="#mb0f2a81784" y="134.981308"/>
      </g>
     </g>
     <g id="text_6">
      <!-- $\mathdefault{10^{5}}$ -->
      <defs>
       <path d="M 10.796875 72.90625 
L 49.515625 72.90625 
L 49.515625 64.59375 
L 19.828125 64.59375 
L 19.828125 46.734375 
Q 21.96875 47.46875 24.109375 47.828125 
Q 26.265625 48.1875 28.421875 48.1875 
Q 40.625 48.1875 47.75 41.5 
Q 54.890625 34.8125 54.890625 23.390625 
Q 54.890625 11.625 47.5625 5.09375 
Q 40.234375 -1.421875 26.90625 -1.421875 
Q 22.3125 -1.421875 17.546875 -0.640625 
Q 12.796875 0.140625 7.71875 1.703125 
L 7.71875 11.625 
Q 12.109375 9.234375 16.796875 8.0625 
Q 21.484375 6.890625 26.703125 6.890625 
Q 35.15625 6.890625 40.078125 11.328125 
Q 45.015625 15.765625 45.015625 23.390625 
Q 45.015625 31 40.078125 35.4375 
Q 35.15625 39.890625 26.703125 39.890625 
Q 22.75 39.890625 18.8125 39.015625 
Q 14.890625 38.140625 10.796875 36.28125 
z
" id="DejaVuSans-53"/>
      </defs>
      <g transform="translate(20.878125 138.780527)scale(0.1 -0.1)">
       <use transform="translate(0 0.684375)" xlink:href="#DejaVuSans-49"/>
       <use transform="translate(63.623047 0.684375)" xlink:href="#DejaVuSans-48"/>
       <use transform="translate(128.203125 38.965625)scale(0.7)" xlink:href="#DejaVuSans-53"/>
      </g>
     </g>
    </g>
    <g id="ytick_3">
     <g id="line2d_25">
      <g>
       <use style="stroke:#000000;stroke-width:0.8;" x="45.478125" xlink:href="#mb0f2a81784" y="40.060271"/>
      </g>
     </g>
     <g id="text_7">
      <!-- $\mathdefault{10^{6}}$ -->
      <defs>
       <path d="M 33.015625 40.375 
Q 26.375 40.375 22.484375 35.828125 
Q 18.609375 31.296875 18.609375 23.390625 
Q 18.609375 15.53125 22.484375 10.953125 
Q 26.375 6.390625 33.015625 6.390625 
Q 39.65625 6.390625 43.53125 10.953125 
Q 47.40625 15.53125 47.40625 23.390625 
Q 47.40625 31.296875 43.53125 35.828125 
Q 39.65625 40.375 33.015625 40.375 
z
M 52.59375 71.296875 
L 52.59375 62.3125 
Q 48.875 64.0625 45.09375 64.984375 
Q 41.3125 65.921875 37.59375 65.921875 
Q 27.828125 65.921875 22.671875 59.328125 
Q 17.53125 52.734375 16.796875 39.40625 
Q 19.671875 43.65625 24.015625 45.921875 
Q 28.375 48.1875 33.59375 48.1875 
Q 44.578125 48.1875 50.953125 41.515625 
Q 57.328125 34.859375 57.328125 23.390625 
Q 57.328125 12.15625 50.6875 5.359375 
Q 44.046875 -1.421875 33.015625 -1.421875 
Q 20.359375 -1.421875 13.671875 8.265625 
Q 6.984375 17.96875 6.984375 36.375 
Q 6.984375 53.65625 15.1875 63.9375 
Q 23.390625 74.21875 37.203125 74.21875 
Q 40.921875 74.21875 44.703125 73.484375 
Q 48.484375 72.75 52.59375 71.296875 
z
" id="DejaVuSans-54"/>
      </defs>
      <g transform="translate(20.878125 43.85949)scale(0.1 -0.1)">
       <use transform="translate(0 0.765625)" xlink:href="#DejaVuSans-49"/>
       <use transform="translate(63.623047 0.765625)" xlink:href="#DejaVuSans-48"/>
       <use transform="translate(128.203125 39.046875)scale(0.7)" xlink:href="#DejaVuSans-54"/>
      </g>
     </g>
    </g>
    <g id="ytick_4">
     <g id="line2d_26">
      <defs>
       <path d="M 0 0 
L -2 0 
" id="m4af6973e33" style="stroke:#000000;stroke-width:0.6;"/>
      </defs>
      <g>
       <use style="stroke:#000000;stroke-width:0.6;" x="45.478125" xlink:href="#m4af6973e33" y="234.245694"/>
      </g>
     </g>
    </g>
    <g id="ytick_5">
     <g id="line2d_27">
      <g>
       <use style="stroke:#000000;stroke-width:0.6;" x="45.478125" xlink:href="#m4af6973e33" y="201.328266"/>
      </g>
     </g>
    </g>
    <g id="ytick_6">
     <g id="line2d_28">
      <g>
       <use style="stroke:#000000;stroke-width:0.6;" x="45.478125" xlink:href="#m4af6973e33" y="184.613501"/>
      </g>
     </g>
    </g>
    <g id="ytick_7">
     <g id="line2d_29">
      <g>
       <use style="stroke:#000000;stroke-width:0.6;" x="45.478125" xlink:href="#m4af6973e33" y="172.754187"/>
      </g>
     </g>
    </g>
    <g id="ytick_8">
     <g id="line2d_30">
      <g>
       <use style="stroke:#000000;stroke-width:0.6;" x="45.478125" xlink:href="#m4af6973e33" y="163.555388"/>
      </g>
     </g>
    </g>
    <g id="ytick_9">
     <g id="line2d_31">
      <g>
       <use style="stroke:#000000;stroke-width:0.6;" x="45.478125" xlink:href="#m4af6973e33" y="156.039422"/>
      </g>
     </g>
    </g>
    <g id="ytick_10">
     <g id="line2d_32">
      <g>
       <use style="stroke:#000000;stroke-width:0.6;" x="45.478125" xlink:href="#m4af6973e33" y="149.684763"/>
      </g>
     </g>
    </g>
    <g id="ytick_11">
     <g id="line2d_33">
      <g>
       <use style="stroke:#000000;stroke-width:0.6;" x="45.478125" xlink:href="#m4af6973e33" y="144.180107"/>
      </g>
     </g>
    </g>
    <g id="ytick_12">
     <g id="line2d_34">
      <g>
       <use style="stroke:#000000;stroke-width:0.6;" x="45.478125" xlink:href="#m4af6973e33" y="139.324657"/>
      </g>
     </g>
    </g>
    <g id="ytick_13">
     <g id="line2d_35">
      <g>
       <use style="stroke:#000000;stroke-width:0.6;" x="45.478125" xlink:href="#m4af6973e33" y="106.407229"/>
      </g>
     </g>
    </g>
    <g id="ytick_14">
     <g id="line2d_36">
      <g>
       <use style="stroke:#000000;stroke-width:0.6;" x="45.478125" xlink:href="#m4af6973e33" y="89.692464"/>
      </g>
     </g>
    </g>
    <g id="ytick_15">
     <g id="line2d_37">
      <g>
       <use style="stroke:#000000;stroke-width:0.6;" x="45.478125" xlink:href="#m4af6973e33" y="77.833149"/>
      </g>
     </g>
    </g>
    <g id="ytick_16">
     <g id="line2d_38">
      <g>
       <use style="stroke:#000000;stroke-width:0.6;" x="45.478125" xlink:href="#m4af6973e33" y="68.63435"/>
      </g>
     </g>
    </g>
    <g id="ytick_17">
     <g id="line2d_39">
      <g>
       <use style="stroke:#000000;stroke-width:0.6;" x="45.478125" xlink:href="#m4af6973e33" y="61.118384"/>
      </g>
     </g>
    </g>
    <g id="ytick_18">
     <g id="line2d_40">
      <g>
       <use style="stroke:#000000;stroke-width:0.6;" x="45.478125" xlink:href="#m4af6973e33" y="54.763726"/>
      </g>
     </g>
    </g>
    <g id="ytick_19">
     <g id="line2d_41">
      <g>
       <use style="stroke:#000000;stroke-width:0.6;" x="45.478125" xlink:href="#m4af6973e33" y="49.25907"/>
      </g>
     </g>
    </g>
    <g id="ytick_20">
     <g id="line2d_42">
      <g>
       <use style="stroke:#000000;stroke-width:0.6;" x="45.478125" xlink:href="#m4af6973e33" y="44.403619"/>
      </g>
     </g>
    </g>
    <g id="ytick_21">
     <g id="line2d_43">
      <g>
       <use style="stroke:#000000;stroke-width:0.6;" x="45.478125" xlink:href="#m4af6973e33" y="11.486191"/>
      </g>
     </g>
    </g>
    <g id="text_8">
     <!-- variant count -->
     <defs>
      <path d="M 2.984375 54.6875 
L 12.5 54.6875 
L 29.59375 8.796875 
L 46.6875 54.6875 
L 56.203125 54.6875 
L 35.6875 0 
L 23.484375 0 
z
" id="DejaVuSans-118"/>
      <path d="M 9.421875 54.6875 
L 18.40625 54.6875 
L 18.40625 0 
L 9.421875 0 
z
M 9.421875 75.984375 
L 18.40625 75.984375 
L 18.40625 64.59375 
L 9.421875 64.59375 
z
" id="DejaVuSans-105"/>
      <path d="M 18.3125 70.21875 
L 18.3125 54.6875 
L 36.8125 54.6875 
L 36.8125 47.703125 
L 18.3125 47.703125 
L 18.3125 18.015625 
Q 18.3125 11.328125 20.140625 9.421875 
Q 21.96875 7.515625 27.59375 7.515625 
L 36.8125 7.515625 
L 36.8125 0 
L 27.59375 0 
Q 17.1875 0 13.234375 3.875 
Q 9.28125 7.765625 9.28125 18.015625 
L 9.28125 47.703125 
L 2.6875 47.703125 
L 2.6875 54.6875 
L 9.28125 54.6875 
L 9.28125 70.21875 
z
" id="DejaVuSans-116"/>
      <path d="M 30.609375 48.390625 
Q 23.390625 48.390625 19.1875 42.75 
Q 14.984375 37.109375 14.984375 27.296875 
Q 14.984375 17.484375 19.15625 11.84375 
Q 23.34375 6.203125 30.609375 6.203125 
Q 37.796875 6.203125 41.984375 11.859375 
Q 46.1875 17.53125 46.1875 27.296875 
Q 46.1875 37.015625 41.984375 42.703125 
Q 37.796875 48.390625 30.609375 48.390625 
z
M 30.609375 56 
Q 42.328125 56 49.015625 48.375 
Q 55.71875 40.765625 55.71875 27.296875 
Q 55.71875 13.875 49.015625 6.21875 
Q 42.328125 -1.421875 30.609375 -1.421875 
Q 18.84375 -1.421875 12.171875 6.21875 
Q 5.515625 13.875 5.515625 27.296875 
Q 5.515625 40.765625 12.171875 48.375 
Q 18.84375 56 30.609375 56 
z
" id="DejaVuSans-111"/>
     </defs>
     <g transform="translate(14.798438 155.65625)rotate(-90)scale(0.1 -0.1)">
      <use xlink:href="#DejaVuSans-118"/>
      <use x="59.179688" xlink:href="#DejaVuSans-97"/>
      <use x="120.458984" xlink:href="#DejaVuSans-114"/>
      <use x="161.572266" xlink:href="#DejaVuSans-105"/>
      <use x="189.355469" xlink:href="#DejaVuSans-97"/>
      <use x="250.634766" xlink:href="#DejaVuSans-110"/>
      <use x="314.013672" xlink:href="#DejaVuSans-116"/>
      <use x="353.222656" xlink:href="#DejaVuSans-32"/>
      <use x="385.009766" xlink:href="#DejaVuSans-99"/>
      <use x="439.990234" xlink:href="#DejaVuSans-111"/>
      <use x="501.171875" xlink:href="#DejaVuSans-117"/>
      <use x="564.550781" xlink:href="#DejaVuSans-110"/>
      <use x="627.929688" xlink:href="#DejaVuSans-116"/>
     </g>
    </g>
   </g>
   <g id="line2d_44">
    <defs>
     <path d="M 0 2.5 
C 0.663008 2.5 1.29895 2.236584 1.767767 1.767767 
C 2.236584 1.29895 2.5 0.663008 2.5 0 
C 2.5 -0.663008 2.236584 -1.29895 1.767767 -1.767767 
C 1.29895 -2.236584 0.663008 -2.5 0 -2.5 
C -0.663008 -2.5 -1.29895 -2.236584 -1.767767 -1.767767 
C -2.236584 -1.29895 -2.5 -0.663008 -2.5 0 
C -2.5 0.663008 -2.236584 1.29895 -1.767767 1.767767 
C -1.29895 2.236584 -0.663008 2.5 0 2.5 
z
" id="mc5e1ca5273" style="stroke:#000000;stroke-opacity:0.75;"/>
    </defs>
    <g clip-path="url(#pea3a365962)">
     <use style="fill-opacity:0.75;stroke:#000000;stroke-opacity:0.75;" x="55.985778" xlink:href="#mc5e1ca5273" y="17.716563"/>
     <use style="fill-opacity:0.75;stroke:#000000;stroke-opacity:0.75;" x="83.50488" xlink:href="#mc5e1ca5273" y="60.991268"/>
     <use style="fill-opacity:0.75;stroke:#000000;stroke-opacity:0.75;" x="99.602523" xlink:href="#mc5e1ca5273" y="79.522961"/>
     <use style="fill-opacity:0.75;stroke:#000000;stroke-opacity:0.75;" x="111.023983" xlink:href="#mc5e1ca5273" y="89.803092"/>
     <use style="fill-opacity:0.75;stroke:#000000;stroke-opacity:0.75;" x="119.883155" xlink:href="#mc5e1ca5273" y="97.468629"/>
     <use style="fill-opacity:0.75;stroke:#000000;stroke-opacity:0.75;" x="127.121626" xlink:href="#mc5e1ca5273" y="103.487307"/>
     <use style="fill-opacity:0.75;stroke:#000000;stroke-opacity:0.75;" x="133.241665" xlink:href="#mc5e1ca5273" y="108.668876"/>
     <use style="fill-opacity:0.75;stroke:#000000;stroke-opacity:0.75;" x="138.543085" xlink:href="#mc5e1ca5273" y="113.519455"/>
     <use style="fill-opacity:0.75;stroke:#000000;stroke-opacity:0.75;" x="143.219269" xlink:href="#mc5e1ca5273" y="117.745214"/>
     <use style="fill-opacity:0.75;stroke:#000000;stroke-opacity:0.75;" x="147.402257" xlink:href="#mc5e1ca5273" y="122.119963"/>
     <use style="fill-opacity:0.75;stroke:#000000;stroke-opacity:0.75;" x="151.186231" xlink:href="#mc5e1ca5273" y="125.820783"/>
     <use style="fill-opacity:0.75;stroke:#000000;stroke-opacity:0.75;" x="154.640728" xlink:href="#mc5e1ca5273" y="129.861046"/>
     <use style="fill-opacity:0.75;stroke:#000000;stroke-opacity:0.75;" x="157.818557" xlink:href="#mc5e1ca5273" y="133.089523"/>
     <use style="fill-opacity:0.75;stroke:#000000;stroke-opacity:0.75;" x="160.760768" xlink:href="#mc5e1ca5273" y="136.626799"/>
     <use style="fill-opacity:0.75;stroke:#000000;stroke-opacity:0.75;" x="163.4999" xlink:href="#mc5e1ca5273" y="139.792673"/>
     <use style="fill-opacity:0.75;stroke:#000000;stroke-opacity:0.75;" x="166.062187" xlink:href="#mc5e1ca5273" y="143.058755"/>
     <use style="fill-opacity:0.75;stroke:#000000;stroke-opacity:0.75;" x="168.469086" xlink:href="#mc5e1ca5273" y="145.978507"/>
     <use style="fill-opacity:0.75;stroke:#000000;stroke-opacity:0.75;" x="170.738371" xlink:href="#mc5e1ca5273" y="148.619757"/>
     <use style="fill-opacity:0.75;stroke:#000000;stroke-opacity:0.75;" x="172.88493" xlink:href="#mc5e1ca5273" y="151.470784"/>
     <use style="fill-opacity:0.75;stroke:#000000;stroke-opacity:0.75;" x="174.92136" xlink:href="#mc5e1ca5273" y="154.142125"/>
     <use style="fill-opacity:0.75;stroke:#000000;stroke-opacity:0.75;" x="176.858411" xlink:href="#mc5e1ca5273" y="156.696654"/>
     <use style="fill-opacity:0.75;stroke:#000000;stroke-opacity:0.75;" x="178.705333" xlink:href="#mc5e1ca5273" y="158.798993"/>
     <use style="fill-opacity:0.75;stroke:#000000;stroke-opacity:0.75;" x="180.470143" xlink:href="#mc5e1ca5273" y="161.478956"/>
     <use style="fill-opacity:0.75;stroke:#000000;stroke-opacity:0.75;" x="182.15983" xlink:href="#mc5e1ca5273" y="162.742284"/>
     <use style="fill-opacity:0.75;stroke:#000000;stroke-opacity:0.75;" x="183.780532" xlink:href="#mc5e1ca5273" y="165.023217"/>
     <use style="fill-opacity:0.75;stroke:#000000;stroke-opacity:0.75;" x="185.33766" xlink:href="#mc5e1ca5273" y="166.714915"/>
     <use style="fill-opacity:0.75;stroke:#000000;stroke-opacity:0.75;" x="186.836014" xlink:href="#mc5e1ca5273" y="168.765232"/>
     <use style="fill-opacity:0.75;stroke:#000000;stroke-opacity:0.75;" x="188.27987" xlink:href="#mc5e1ca5273" y="170.657573"/>
     <use style="fill-opacity:0.75;stroke:#000000;stroke-opacity:0.75;" x="189.673054" xlink:href="#mc5e1ca5273" y="172.900791"/>
     <use style="fill-opacity:0.75;stroke:#000000;stroke-opacity:0.75;" x="191.019003" xlink:href="#mc5e1ca5273" y="174.197247"/>
     <use style="fill-opacity:0.75;stroke:#000000;stroke-opacity:0.75;" x="192.320813" xlink:href="#mc5e1ca5273" y="176.012639"/>
     <use style="fill-opacity:0.75;stroke:#000000;stroke-opacity:0.75;" x="193.58129" xlink:href="#mc5e1ca5273" y="177.239773"/>
     <use style="fill-opacity:0.75;stroke:#000000;stroke-opacity:0.75;" x="194.802976" xlink:href="#mc5e1ca5273" y="178.485606"/>
     <use style="fill-opacity:0.75;stroke:#000000;stroke-opacity:0.75;" x="195.988189" xlink:href="#mc5e1ca5273" y="179.926955"/>
     <use style="fill-opacity:0.75;stroke:#000000;stroke-opacity:0.75;" x="197.139042" xlink:href="#mc5e1ca5273" y="181.134123"/>
     <use style="fill-opacity:0.75;stroke:#000000;stroke-opacity:0.75;" x="198.257473" xlink:href="#mc5e1ca5273" y="182.319179"/>
     <use style="fill-opacity:0.75;stroke:#000000;stroke-opacity:0.75;" x="199.345258" xlink:href="#mc5e1ca5273" y="183.345646"/>
     <use style="fill-opacity:0.75;stroke:#000000;stroke-opacity:0.75;" x="200.404032" xlink:href="#mc5e1ca5273" y="184.533879"/>
     <use style="fill-opacity:0.75;stroke:#000000;stroke-opacity:0.75;" x="201.435303" xlink:href="#mc5e1ca5273" y="185.541789"/>
     <use style="fill-opacity:0.75;stroke:#000000;stroke-opacity:0.75;" x="202.440462" xlink:href="#mc5e1ca5273" y="186.488586"/>
     <use style="fill-opacity:0.75;stroke:#000000;stroke-opacity:0.75;" x="203.4208" xlink:href="#mc5e1ca5273" y="187.75167"/>
     <use style="fill-opacity:0.75;stroke:#000000;stroke-opacity:0.75;" x="204.377513" xlink:href="#mc5e1ca5273" y="188.397274"/>
     <use style="fill-opacity:0.75;stroke:#000000;stroke-opacity:0.75;" x="205.311713" xlink:href="#mc5e1ca5273" y="189.38813"/>
     <use style="fill-opacity:0.75;stroke:#000000;stroke-opacity:0.75;" x="206.224436" xlink:href="#mc5e1ca5273" y="189.950463"/>
     <use style="fill-opacity:0.75;stroke:#000000;stroke-opacity:0.75;" x="207.116646" xlink:href="#mc5e1ca5273" y="190.682646"/>
     <use style="fill-opacity:0.75;stroke:#000000;stroke-opacity:0.75;" x="207.989245" xlink:href="#mc5e1ca5273" y="191.150174"/>
     <use style="fill-opacity:0.75;stroke:#000000;stroke-opacity:0.75;" x="208.843077" xlink:href="#mc5e1ca5273" y="192.264903"/>
     <use style="fill-opacity:0.75;stroke:#000000;stroke-opacity:0.75;" x="209.678933" xlink:href="#mc5e1ca5273" y="193.051572"/>
     <use style="fill-opacity:0.75;stroke:#000000;stroke-opacity:0.75;" x="210.497553" xlink:href="#mc5e1ca5273" y="193.198537"/>
     <use style="fill-opacity:0.75;stroke:#000000;stroke-opacity:0.75;" x="211.299634" xlink:href="#mc5e1ca5273" y="194.362165"/>
     <use style="fill-opacity:0.75;stroke:#000000;stroke-opacity:0.75;" x="212.085832" xlink:href="#mc5e1ca5273" y="194.841902"/>
     <use style="fill-opacity:0.75;stroke:#000000;stroke-opacity:0.75;" x="212.856762" xlink:href="#mc5e1ca5273" y="195.441491"/>
     <use style="fill-opacity:0.75;stroke:#000000;stroke-opacity:0.75;" x="213.613007" xlink:href="#mc5e1ca5273" y="195.874398"/>
     <use style="fill-opacity:0.75;stroke:#000000;stroke-opacity:0.75;" x="214.355116" xlink:href="#mc5e1ca5273" y="196.781774"/>
     <use style="fill-opacity:0.75;stroke:#000000;stroke-opacity:0.75;" x="215.083608" xlink:href="#mc5e1ca5273" y="197.035448"/>
     <use style="fill-opacity:0.75;stroke:#000000;stroke-opacity:0.75;" x="215.798973" xlink:href="#mc5e1ca5273" y="197.773813"/>
     <use style="fill-opacity:0.75;stroke:#000000;stroke-opacity:0.75;" x="216.501675" xlink:href="#mc5e1ca5273" y="198.241621"/>
     <use style="fill-opacity:0.75;stroke:#000000;stroke-opacity:0.75;" x="217.192157" xlink:href="#mc5e1ca5273" y="199.029396"/>
     <use style="fill-opacity:0.75;stroke:#000000;stroke-opacity:0.75;" x="217.870834" xlink:href="#mc5e1ca5273" y="198.564178"/>
     <use style="fill-opacity:0.75;stroke:#000000;stroke-opacity:0.75;" x="218.538105" xlink:href="#mc5e1ca5273" y="199.766975"/>
     <use style="fill-opacity:0.75;stroke:#000000;stroke-opacity:0.75;" x="219.194346" xlink:href="#mc5e1ca5273" y="200.121752"/>
     <use style="fill-opacity:0.75;stroke:#000000;stroke-opacity:0.75;" x="219.839916" xlink:href="#mc5e1ca5273" y="200.763269"/>
     <use style="fill-opacity:0.75;stroke:#000000;stroke-opacity:0.75;" x="220.475156" xlink:href="#mc5e1ca5273" y="201.243844"/>
     <use style="fill-opacity:0.75;stroke:#000000;stroke-opacity:0.75;" x="221.100392" xlink:href="#mc5e1ca5273" y="201.217112"/>
     <use style="fill-opacity:0.75;stroke:#000000;stroke-opacity:0.75;" x="221.715934" xlink:href="#mc5e1ca5273" y="201.844723"/>
     <use style="fill-opacity:0.75;stroke:#000000;stroke-opacity:0.75;" x="222.322079" xlink:href="#mc5e1ca5273" y="202.452371"/>
     <use style="fill-opacity:0.75;stroke:#000000;stroke-opacity:0.75;" x="222.919107" xlink:href="#mc5e1ca5273" y="202.348712"/>
     <use style="fill-opacity:0.75;stroke:#000000;stroke-opacity:0.75;" x="223.507291" xlink:href="#mc5e1ca5273" y="203.717053"/>
     <use style="fill-opacity:0.75;stroke:#000000;stroke-opacity:0.75;" x="224.086888" xlink:href="#mc5e1ca5273" y="203.379892"/>
     <use style="fill-opacity:0.75;stroke:#000000;stroke-opacity:0.75;" x="224.658145" xlink:href="#mc5e1ca5273" y="203.966802"/>
     <use style="fill-opacity:0.75;stroke:#000000;stroke-opacity:0.75;" x="225.221299" xlink:href="#mc5e1ca5273" y="204.187132"/>
     <use style="fill-opacity:0.75;stroke:#000000;stroke-opacity:0.75;" x="225.776576" xlink:href="#mc5e1ca5273" y="204.311033"/>
     <use style="fill-opacity:0.75;stroke:#000000;stroke-opacity:0.75;" x="226.324194" xlink:href="#mc5e1ca5273" y="205.420459"/>
     <use style="fill-opacity:0.75;stroke:#000000;stroke-opacity:0.75;" x="226.864361" xlink:href="#mc5e1ca5273" y="205.500206"/>
     <use style="fill-opacity:0.75;stroke:#000000;stroke-opacity:0.75;" x="227.397277" xlink:href="#mc5e1ca5273" y="206.141484"/>
     <use style="fill-opacity:0.75;stroke:#000000;stroke-opacity:0.75;" x="227.923135" xlink:href="#mc5e1ca5273" y="206.132219"/>
     <use style="fill-opacity:0.75;stroke:#000000;stroke-opacity:0.75;" x="228.442118" xlink:href="#mc5e1ca5273" y="206.097495"/>
     <use style="fill-opacity:0.75;stroke:#000000;stroke-opacity:0.75;" x="228.954405" xlink:href="#mc5e1ca5273" y="206.55355"/>
     <use style="fill-opacity:0.75;stroke:#000000;stroke-opacity:0.75;" x="229.460166" xlink:href="#mc5e1ca5273" y="207.097601"/>
     <use style="fill-opacity:0.75;stroke:#000000;stroke-opacity:0.75;" x="229.959564" xlink:href="#mc5e1ca5273" y="207.435639"/>
     <use style="fill-opacity:0.75;stroke:#000000;stroke-opacity:0.75;" x="230.452759" xlink:href="#mc5e1ca5273" y="207.904409"/>
     <use style="fill-opacity:0.75;stroke:#000000;stroke-opacity:0.75;" x="230.939903" xlink:href="#mc5e1ca5273" y="207.569715"/>
     <use style="fill-opacity:0.75;stroke:#000000;stroke-opacity:0.75;" x="231.421141" xlink:href="#mc5e1ca5273" y="208.850829"/>
     <use style="fill-opacity:0.75;stroke:#000000;stroke-opacity:0.75;" x="231.896616" xlink:href="#mc5e1ca5273" y="208.459356"/>
     <use style="fill-opacity:0.75;stroke:#000000;stroke-opacity:0.75;" x="232.366463" xlink:href="#mc5e1ca5273" y="208.769273"/>
     <use style="fill-opacity:0.75;stroke:#000000;stroke-opacity:0.75;" x="232.830816" xlink:href="#mc5e1ca5273" y="208.749527"/>
     <use style="fill-opacity:0.75;stroke:#000000;stroke-opacity:0.75;" x="233.2898" xlink:href="#mc5e1ca5273" y="209.318549"/>
     <use style="fill-opacity:0.75;stroke:#000000;stroke-opacity:0.75;" x="233.743538" xlink:href="#mc5e1ca5273" y="209.273537"/>
     <use style="fill-opacity:0.75;stroke:#000000;stroke-opacity:0.75;" x="234.192149" xlink:href="#mc5e1ca5273" y="209.862565"/>
     <use style="fill-opacity:0.75;stroke:#000000;stroke-opacity:0.75;" x="234.635748" xlink:href="#mc5e1ca5273" y="210.303519"/>
     <use style="fill-opacity:0.75;stroke:#000000;stroke-opacity:0.75;" x="235.074445" xlink:href="#mc5e1ca5273" y="210.697465"/>
     <use style="fill-opacity:0.75;stroke:#000000;stroke-opacity:0.75;" x="235.508347" xlink:href="#mc5e1ca5273" y="211.344124"/>
     <use style="fill-opacity:0.75;stroke:#000000;stroke-opacity:0.75;" x="235.937559" xlink:href="#mc5e1ca5273" y="211.048218"/>
     <use style="fill-opacity:0.75;stroke:#000000;stroke-opacity:0.75;" x="236.36218" xlink:href="#mc5e1ca5273" y="211.191978"/>
     <use style="fill-opacity:0.75;stroke:#000000;stroke-opacity:0.75;" x="236.782307" xlink:href="#mc5e1ca5273" y="211.346752"/>
     <use style="fill-opacity:0.75;stroke:#000000;stroke-opacity:0.75;" x="237.198035" xlink:href="#mc5e1ca5273" y="211.504748"/>
     <use style="fill-opacity:0.75;stroke:#000000;stroke-opacity:0.75;" x="237.609455" xlink:href="#mc5e1ca5273" y="212.201847"/>
     <use style="fill-opacity:0.75;stroke:#000000;stroke-opacity:0.75;" x="238.016655" xlink:href="#mc5e1ca5273" y="212.682265"/>
     <use style="fill-opacity:0.75;stroke:#000000;stroke-opacity:0.75;" x="238.419722" xlink:href="#mc5e1ca5273" y="212.946442"/>
     <use style="fill-opacity:0.75;stroke:#000000;stroke-opacity:0.75;" x="238.818737" xlink:href="#mc5e1ca5273" y="211.809276"/>
     <use style="fill-opacity:0.75;stroke:#000000;stroke-opacity:0.75;" x="239.213781" xlink:href="#mc5e1ca5273" y="213.143632"/>
     <use style="fill-opacity:0.75;stroke:#000000;stroke-opacity:0.75;" x="239.604934" xlink:href="#mc5e1ca5273" y="213.838531"/>
     <use style="fill-opacity:0.75;stroke:#000000;stroke-opacity:0.75;" x="239.992271" xlink:href="#mc5e1ca5273" y="213.989575"/>
     <use style="fill-opacity:0.75;stroke:#000000;stroke-opacity:0.75;" x="240.375865" xlink:href="#mc5e1ca5273" y="213.626884"/>
     <use style="fill-opacity:0.75;stroke:#000000;stroke-opacity:0.75;" x="240.755788" xlink:href="#mc5e1ca5273" y="214.205913"/>
     <use style="fill-opacity:0.75;stroke:#000000;stroke-opacity:0.75;" x="241.13211" xlink:href="#mc5e1ca5273" y="215.019546"/>
     <use style="fill-opacity:0.75;stroke:#000000;stroke-opacity:0.75;" x="241.504898" xlink:href="#mc5e1ca5273" y="214.699005"/>
     <use style="fill-opacity:0.75;stroke:#000000;stroke-opacity:0.75;" x="241.874219" xlink:href="#mc5e1ca5273" y="215.065542"/>
     <use style="fill-opacity:0.75;stroke:#000000;stroke-opacity:0.75;" x="242.240135" xlink:href="#mc5e1ca5273" y="214.930575"/>
     <use style="fill-opacity:0.75;stroke:#000000;stroke-opacity:0.75;" x="242.60271" xlink:href="#mc5e1ca5273" y="215.371567"/>
     <use style="fill-opacity:0.75;stroke:#000000;stroke-opacity:0.75;" x="242.962004" xlink:href="#mc5e1ca5273" y="216.306478"/>
     <use style="fill-opacity:0.75;stroke:#000000;stroke-opacity:0.75;" x="243.318075" xlink:href="#mc5e1ca5273" y="215.48183"/>
     <use style="fill-opacity:0.75;stroke:#000000;stroke-opacity:0.75;" x="243.670981" xlink:href="#mc5e1ca5273" y="215.455688"/>
     <use style="fill-opacity:0.75;stroke:#000000;stroke-opacity:0.75;" x="244.020778" xlink:href="#mc5e1ca5273" y="216.861546"/>
     <use style="fill-opacity:0.75;stroke:#000000;stroke-opacity:0.75;" x="244.36752" xlink:href="#mc5e1ca5273" y="216.589047"/>
     <use style="fill-opacity:0.75;stroke:#000000;stroke-opacity:0.75;" x="244.711259" xlink:href="#mc5e1ca5273" y="216.493649"/>
     <use style="fill-opacity:0.75;stroke:#000000;stroke-opacity:0.75;" x="245.052048" xlink:href="#mc5e1ca5273" y="217.060317"/>
     <use style="fill-opacity:0.75;stroke:#000000;stroke-opacity:0.75;" x="245.389937" xlink:href="#mc5e1ca5273" y="217.345079"/>
     <use style="fill-opacity:0.75;stroke:#000000;stroke-opacity:0.75;" x="245.724974" xlink:href="#mc5e1ca5273" y="217.247918"/>
     <use style="fill-opacity:0.75;stroke:#000000;stroke-opacity:0.75;" x="246.057207" xlink:href="#mc5e1ca5273" y="217.436376"/>
     <use style="fill-opacity:0.75;stroke:#000000;stroke-opacity:0.75;" x="246.386684" xlink:href="#mc5e1ca5273" y="217.512612"/>
     <use style="fill-opacity:0.75;stroke:#000000;stroke-opacity:0.75;" x="246.713448" xlink:href="#mc5e1ca5273" y="218.767686"/>
     <use style="fill-opacity:0.75;stroke:#000000;stroke-opacity:0.75;" x="247.037545" xlink:href="#mc5e1ca5273" y="218.251738"/>
     <use style="fill-opacity:0.75;stroke:#000000;stroke-opacity:0.75;" x="247.359018" xlink:href="#mc5e1ca5273" y="218.607521"/>
     <use style="fill-opacity:0.75;stroke:#000000;stroke-opacity:0.75;" x="247.677909" xlink:href="#mc5e1ca5273" y="218.931635"/>
     <use style="fill-opacity:0.75;stroke:#000000;stroke-opacity:0.75;" x="247.994259" xlink:href="#mc5e1ca5273" y="218.569925"/>
     <use style="fill-opacity:0.75;stroke:#000000;stroke-opacity:0.75;" x="248.308107" xlink:href="#mc5e1ca5273" y="218.62006"/>
     <use style="fill-opacity:0.75;stroke:#000000;stroke-opacity:0.75;" x="248.619495" xlink:href="#mc5e1ca5273" y="218.739376"/>
     <use style="fill-opacity:0.75;stroke:#000000;stroke-opacity:0.75;" x="248.928459" xlink:href="#mc5e1ca5273" y="219.738749"/>
     <use style="fill-opacity:0.75;stroke:#000000;stroke-opacity:0.75;" x="249.235037" xlink:href="#mc5e1ca5273" y="219.392275"/>
     <use style="fill-opacity:0.75;stroke:#000000;stroke-opacity:0.75;" x="249.539266" xlink:href="#mc5e1ca5273" y="219.571565"/>
     <use style="fill-opacity:0.75;stroke:#000000;stroke-opacity:0.75;" x="249.841181" xlink:href="#mc5e1ca5273" y="220.542266"/>
     <use style="fill-opacity:0.75;stroke:#000000;stroke-opacity:0.75;" x="250.140818" xlink:href="#mc5e1ca5273" y="220.114159"/>
     <use style="fill-opacity:0.75;stroke:#000000;stroke-opacity:0.75;" x="250.43821" xlink:href="#mc5e1ca5273" y="220.381613"/>
     <use style="fill-opacity:0.75;stroke:#000000;stroke-opacity:0.75;" x="250.733391" xlink:href="#mc5e1ca5273" y="221.117859"/>
     <use style="fill-opacity:0.75;stroke:#000000;stroke-opacity:0.75;" x="251.026394" xlink:href="#mc5e1ca5273" y="220.86215"/>
     <use style="fill-opacity:0.75;stroke:#000000;stroke-opacity:0.75;" x="251.31725" xlink:href="#mc5e1ca5273" y="221.12119"/>
     <use style="fill-opacity:0.75;stroke:#000000;stroke-opacity:0.75;" x="251.60599" xlink:href="#mc5e1ca5273" y="221.227935"/>
     <use style="fill-opacity:0.75;stroke:#000000;stroke-opacity:0.75;" x="251.892646" xlink:href="#mc5e1ca5273" y="221.288101"/>
     <use style="fill-opacity:0.75;stroke:#000000;stroke-opacity:0.75;" x="252.177247" xlink:href="#mc5e1ca5273" y="221.90143"/>
     <use style="fill-opacity:0.75;stroke:#000000;stroke-opacity:0.75;" x="252.459823" xlink:href="#mc5e1ca5273" y="222.321161"/>
     <use style="fill-opacity:0.75;stroke:#000000;stroke-opacity:0.75;" x="252.740401" xlink:href="#mc5e1ca5273" y="221.543108"/>
     <use style="fill-opacity:0.75;stroke:#000000;stroke-opacity:0.75;" x="253.01901" xlink:href="#mc5e1ca5273" y="221.979592"/>
     <use style="fill-opacity:0.75;stroke:#000000;stroke-opacity:0.75;" x="253.295678" xlink:href="#mc5e1ca5273" y="222.717495"/>
     <use style="fill-opacity:0.75;stroke:#000000;stroke-opacity:0.75;" x="253.570431" xlink:href="#mc5e1ca5273" y="222.499901"/>
     <use style="fill-opacity:0.75;stroke:#000000;stroke-opacity:0.75;" x="253.843296" xlink:href="#mc5e1ca5273" y="222.437942"/>
     <use style="fill-opacity:0.75;stroke:#000000;stroke-opacity:0.75;" x="254.114298" xlink:href="#mc5e1ca5273" y="223.588931"/>
     <use style="fill-opacity:0.75;stroke:#000000;stroke-opacity:0.75;" x="254.383463" xlink:href="#mc5e1ca5273" y="221.891246"/>
     <use style="fill-opacity:0.75;stroke:#000000;stroke-opacity:0.75;" x="254.650816" xlink:href="#mc5e1ca5273" y="223.81948"/>
     <use style="fill-opacity:0.75;stroke:#000000;stroke-opacity:0.75;" x="254.91638" xlink:href="#mc5e1ca5273" y="223.794589"/>
     <use style="fill-opacity:0.75;stroke:#000000;stroke-opacity:0.75;" x="255.180179" xlink:href="#mc5e1ca5273" y="223.507661"/>
     <use style="fill-opacity:0.75;stroke:#000000;stroke-opacity:0.75;" x="255.442237" xlink:href="#mc5e1ca5273" y="224.180294"/>
     <use style="fill-opacity:0.75;stroke:#000000;stroke-opacity:0.75;" x="255.702577" xlink:href="#mc5e1ca5273" y="224.019145"/>
     <use style="fill-opacity:0.75;stroke:#000000;stroke-opacity:0.75;" x="255.961221" xlink:href="#mc5e1ca5273" y="224.083529"/>
     <use style="fill-opacity:0.75;stroke:#000000;stroke-opacity:0.75;" x="256.21819" xlink:href="#mc5e1ca5273" y="224.248524"/>
     <use style="fill-opacity:0.75;stroke:#000000;stroke-opacity:0.75;" x="256.473508" xlink:href="#mc5e1ca5273" y="224.140844"/>
     <use style="fill-opacity:0.75;stroke:#000000;stroke-opacity:0.75;" x="256.727193" xlink:href="#mc5e1ca5273" y="224.108594"/>
     <use style="fill-opacity:0.75;stroke:#000000;stroke-opacity:0.75;" x="256.979268" xlink:href="#mc5e1ca5273" y="224.660295"/>
     <use style="fill-opacity:0.75;stroke:#000000;stroke-opacity:0.75;" x="257.229753" xlink:href="#mc5e1ca5273" y="224.966359"/>
     <use style="fill-opacity:0.75;stroke:#000000;stroke-opacity:0.75;" x="257.478667" xlink:href="#mc5e1ca5273" y="224.91519"/>
     <use style="fill-opacity:0.75;stroke:#000000;stroke-opacity:0.75;" x="257.72603" xlink:href="#mc5e1ca5273" y="225.455655"/>
     <use style="fill-opacity:0.75;stroke:#000000;stroke-opacity:0.75;" x="257.971862" xlink:href="#mc5e1ca5273" y="225.116576"/>
     <use style="fill-opacity:0.75;stroke:#000000;stroke-opacity:0.75;" x="258.21618" xlink:href="#mc5e1ca5273" y="224.948077"/>
     <use style="fill-opacity:0.75;stroke:#000000;stroke-opacity:0.75;" x="258.459005" xlink:href="#mc5e1ca5273" y="225.5075"/>
     <use style="fill-opacity:0.75;stroke:#000000;stroke-opacity:0.75;" x="258.700353" xlink:href="#mc5e1ca5273" y="225.271027"/>
     <use style="fill-opacity:0.75;stroke:#000000;stroke-opacity:0.75;" x="258.940243" xlink:href="#mc5e1ca5273" y="226.58874"/>
     <use style="fill-opacity:0.75;stroke:#000000;stroke-opacity:0.75;" x="259.178692" xlink:href="#mc5e1ca5273" y="225.827411"/>
     <use style="fill-opacity:0.75;stroke:#000000;stroke-opacity:0.75;" x="259.415718" xlink:href="#mc5e1ca5273" y="226.161117"/>
     <use style="fill-opacity:0.75;stroke:#000000;stroke-opacity:0.75;" x="259.651337" xlink:href="#mc5e1ca5273" y="225.74161"/>
     <use style="fill-opacity:0.75;stroke:#000000;stroke-opacity:0.75;" x="259.885566" xlink:href="#mc5e1ca5273" y="226.202549"/>
     <use style="fill-opacity:0.75;stroke:#000000;stroke-opacity:0.75;" x="260.118421" xlink:href="#mc5e1ca5273" y="226.520326"/>
     <use style="fill-opacity:0.75;stroke:#000000;stroke-opacity:0.75;" x="260.349918" xlink:href="#mc5e1ca5273" y="226.687762"/>
     <use style="fill-opacity:0.75;stroke:#000000;stroke-opacity:0.75;" x="260.580073" xlink:href="#mc5e1ca5273" y="226.936364"/>
     <use style="fill-opacity:0.75;stroke:#000000;stroke-opacity:0.75;" x="260.808902" xlink:href="#mc5e1ca5273" y="226.157352"/>
     <use style="fill-opacity:0.75;stroke:#000000;stroke-opacity:0.75;" x="261.03642" xlink:href="#mc5e1ca5273" y="226.259116"/>
     <use style="fill-opacity:0.75;stroke:#000000;stroke-opacity:0.75;" x="261.26264" xlink:href="#mc5e1ca5273" y="226.657269"/>
     <use style="fill-opacity:0.75;stroke:#000000;stroke-opacity:0.75;" x="261.48758" xlink:href="#mc5e1ca5273" y="226.164882"/>
     <use style="fill-opacity:0.75;stroke:#000000;stroke-opacity:0.75;" x="261.711252" xlink:href="#mc5e1ca5273" y="225.522325"/>
     <use style="fill-opacity:0.75;stroke:#000000;stroke-opacity:0.75;" x="261.933671" xlink:href="#mc5e1ca5273" y="226.119726"/>
     <use style="fill-opacity:0.75;stroke:#000000;stroke-opacity:0.75;" x="262.15485" xlink:href="#mc5e1ca5273" y="226.281764"/>
     <use style="fill-opacity:0.75;stroke:#000000;stroke-opacity:0.75;" x="262.374805" xlink:href="#mc5e1ca5273" y="225.984553"/>
     <use style="fill-opacity:0.75;stroke:#000000;stroke-opacity:0.75;" x="262.593547" xlink:href="#mc5e1ca5273" y="225.127589"/>
     <use style="fill-opacity:0.75;stroke:#000000;stroke-opacity:0.75;" x="262.811091" xlink:href="#mc5e1ca5273" y="225.496385"/>
     <use style="fill-opacity:0.75;stroke:#000000;stroke-opacity:0.75;" x="263.02745" xlink:href="#mc5e1ca5273" y="225.32264"/>
     <use style="fill-opacity:0.75;stroke:#000000;stroke-opacity:0.75;" x="263.242636" xlink:href="#mc5e1ca5273" y="224.948077"/>
     <use style="fill-opacity:0.75;stroke:#000000;stroke-opacity:0.75;" x="263.456661" xlink:href="#mc5e1ca5273" y="225.006607"/>
     <use style="fill-opacity:0.75;stroke:#000000;stroke-opacity:0.75;" x="263.669539" xlink:href="#mc5e1ca5273" y="224.334872"/>
     <use style="fill-opacity:0.75;stroke:#000000;stroke-opacity:0.75;" x="263.881282" xlink:href="#mc5e1ca5273" y="223.922757"/>
     <use style="fill-opacity:0.75;stroke:#000000;stroke-opacity:0.75;" x="264.091902" xlink:href="#mc5e1ca5273" y="222.551605"/>
     <use style="fill-opacity:0.75;stroke:#000000;stroke-opacity:0.75;" x="264.30141" xlink:href="#mc5e1ca5273" y="221.989798"/>
     <use style="fill-opacity:0.75;stroke:#000000;stroke-opacity:0.75;" x="264.509818" xlink:href="#mc5e1ca5273" y="221.345005"/>
     <use style="fill-opacity:0.75;stroke:#000000;stroke-opacity:0.75;" x="264.717138" xlink:href="#mc5e1ca5273" y="220.512711"/>
     <use style="fill-opacity:0.75;stroke:#000000;stroke-opacity:0.75;" x="264.923381" xlink:href="#mc5e1ca5273" y="219.453018"/>
     <use style="fill-opacity:0.75;stroke:#000000;stroke-opacity:0.75;" x="265.128558" xlink:href="#mc5e1ca5273" y="216.942746"/>
     <use style="fill-opacity:0.75;stroke:#000000;stroke-opacity:0.75;" x="265.33268" xlink:href="#mc5e1ca5273" y="215.377363"/>
     <use style="fill-opacity:0.75;stroke:#000000;stroke-opacity:0.75;" x="265.535758" xlink:href="#mc5e1ca5273" y="212.949174"/>
     <use style="fill-opacity:0.75;stroke:#000000;stroke-opacity:0.75;" x="265.737802" xlink:href="#mc5e1ca5273" y="208.739657"/>
     <use style="fill-opacity:0.75;stroke:#000000;stroke-opacity:0.75;" x="265.938824" xlink:href="#mc5e1ca5273" y="199.15239"/>
     <use style="fill-opacity:0.75;stroke:#000000;stroke-opacity:0.75;" x="266.138833" xlink:href="#mc5e1ca5273" y="168.807353"/>
    </g>
   </g>
   <g id="line2d_45">
    <path clip-path="url(#pea3a365962)" d="M 55.985778 17.725216 
L 83.50488 60.976221 
L 99.602523 79.43405 
L 111.023983 89.835908 
L 127.121626 103.375745 
L 133.241665 108.698618 
L 138.543085 113.522101 
L 143.219269 117.983288 
L 147.402257 122.160101 
L 154.640728 129.835488 
L 160.760768 136.770406 
L 168.469086 146.019057 
L 178.705333 158.840234 
L 186.836014 168.955866 
L 192.320813 175.455992 
L 197.139042 180.811425 
L 201.435303 185.246469 
L 205.311713 188.953653 
L 209.678933 192.802032 
L 214.355116 196.57395 
L 219.194346 200.164846 
L 225.221299 204.317706 
L 233.743538 209.864125 
L 257.72603 225.096238 
L 259.415718 225.831028 
L 260.580073 226.098958 
L 261.48758 226.055476 
L 262.15485 225.793374 
L 262.811091 225.243987 
L 263.456661 224.27963 
L 264.091902 222.693881 
L 264.509818 221.116267 
L 264.923381 218.879308 
L 265.33268 215.438713 
L 265.535758 212.752488 
L 265.737802 208.400443 
L 265.938824 198.966695 
L 266.138833 169.200528 
L 266.138833 169.200528 
" style="fill:none;stroke:#1f77b4;stroke-linecap:square;stroke-opacity:0.75;stroke-width:3;"/>
   </g>
   <g id="patch_3">
    <path d="M 45.478125 237.4 
L 45.478125 7.2 
" style="fill:none;stroke:#000000;stroke-linecap:square;stroke-linejoin:miter;stroke-width:0.8;"/>
   </g>
   <g id="patch_4">
    <path d="M 276.646486 237.4 
L 276.646486 7.2 
" style="fill:none;stroke:#000000;stroke-linecap:square;stroke-linejoin:miter;stroke-width:0.8;"/>
   </g>
   <g id="patch_5">
    <path d="M 45.478125 237.4 
L 276.646486 237.4 
" style="fill:none;stroke:#000000;stroke-linecap:square;stroke-linejoin:miter;stroke-width:0.8;"/>
   </g>
   <g id="patch_6">
    <path d="M 45.478125 7.2 
L 276.646486 7.2 
" style="fill:none;stroke:#000000;stroke-linecap:square;stroke-linejoin:miter;stroke-width:0.8;"/>
   </g>
  </g>
  <g id="axes_2">
   <g id="patch_7">
    <path d="M 329.572266 237.4 
L 560.740626 237.4 
L 560.740626 7.2 
L 329.572266 7.2 
z
" style="fill:#ffffff;"/>
   </g>
   <g id="matplotlib.axis_3">
    <g id="xtick_23">
     <g id="line2d_46">
      <g>
       <use style="stroke:#000000;stroke-width:0.8;" x="340.079918" xlink:href="#m15e447e604" y="237.4"/>
      </g>
     </g>
     <g id="text_9">
      <!-- $\mathdefault{10^{0}}$ -->
      <g transform="translate(331.279918 251.998438)scale(0.1 -0.1)">
       <use transform="translate(0 0.765625)" xlink:href="#DejaVuSans-49"/>
       <use transform="translate(63.623047 0.765625)" xlink:href="#DejaVuSans-48"/>
       <use transform="translate(128.203125 39.046875)scale(0.7)" xlink:href="#DejaVuSans-48"/>
      </g>
     </g>
    </g>
    <g id="xtick_24">
     <g id="line2d_47">
      <g>
       <use style="stroke:#000000;stroke-width:0.8;" x="378.102186" xlink:href="#m15e447e604" y="237.4"/>
      </g>
     </g>
     <g id="text_10">
      <!-- $\mathdefault{10^{1}}$ -->
      <g transform="translate(369.302186 251.998438)scale(0.1 -0.1)">
       <use transform="translate(0 0.684375)" xlink:href="#DejaVuSans-49"/>
       <use transform="translate(63.623047 0.684375)" xlink:href="#DejaVuSans-48"/>
       <use transform="translate(128.203125 38.965625)scale(0.7)" xlink:href="#DejaVuSans-49"/>
      </g>
     </g>
    </g>
    <g id="xtick_25">
     <g id="line2d_48">
      <g>
       <use style="stroke:#000000;stroke-width:0.8;" x="416.124455" xlink:href="#m15e447e604" y="237.4"/>
      </g>
     </g>
     <g id="text_11">
      <!-- $\mathdefault{10^{2}}$ -->
      <g transform="translate(407.324455 251.998438)scale(0.1 -0.1)">
       <use transform="translate(0 0.765625)" xlink:href="#DejaVuSans-49"/>
       <use transform="translate(63.623047 0.765625)" xlink:href="#DejaVuSans-48"/>
       <use transform="translate(128.203125 39.046875)scale(0.7)" xlink:href="#DejaVuSans-50"/>
      </g>
     </g>
    </g>
    <g id="xtick_26">
     <g id="line2d_49">
      <g>
       <use style="stroke:#000000;stroke-width:0.8;" x="454.146723" xlink:href="#m15e447e604" y="237.4"/>
      </g>
     </g>
     <g id="text_12">
      <!-- $\mathdefault{10^{3}}$ -->
      <defs>
       <path d="M 40.578125 39.3125 
Q 47.65625 37.796875 51.625 33 
Q 55.609375 28.21875 55.609375 21.1875 
Q 55.609375 10.40625 48.1875 4.484375 
Q 40.765625 -1.421875 27.09375 -1.421875 
Q 22.515625 -1.421875 17.65625 -0.515625 
Q 12.796875 0.390625 7.625 2.203125 
L 7.625 11.71875 
Q 11.71875 9.328125 16.59375 8.109375 
Q 21.484375 6.890625 26.8125 6.890625 
Q 36.078125 6.890625 40.9375 10.546875 
Q 45.796875 14.203125 45.796875 21.1875 
Q 45.796875 27.640625 41.28125 31.265625 
Q 36.765625 34.90625 28.71875 34.90625 
L 20.21875 34.90625 
L 20.21875 43.015625 
L 29.109375 43.015625 
Q 36.375 43.015625 40.234375 45.921875 
Q 44.09375 48.828125 44.09375 54.296875 
Q 44.09375 59.90625 40.109375 62.90625 
Q 36.140625 65.921875 28.71875 65.921875 
Q 24.65625 65.921875 20.015625 65.03125 
Q 15.375 64.15625 9.8125 62.3125 
L 9.8125 71.09375 
Q 15.4375 72.65625 20.34375 73.4375 
Q 25.25 74.21875 29.59375 74.21875 
Q 40.828125 74.21875 47.359375 69.109375 
Q 53.90625 64.015625 53.90625 55.328125 
Q 53.90625 49.265625 50.4375 45.09375 
Q 46.96875 40.921875 40.578125 39.3125 
z
" id="DejaVuSans-51"/>
      </defs>
      <g transform="translate(445.346723 251.998438)scale(0.1 -0.1)">
       <use transform="translate(0 0.765625)" xlink:href="#DejaVuSans-49"/>
       <use transform="translate(63.623047 0.765625)" xlink:href="#DejaVuSans-48"/>
       <use transform="translate(128.203125 39.046875)scale(0.7)" xlink:href="#DejaVuSans-51"/>
      </g>
     </g>
    </g>
    <g id="xtick_27">
     <g id="line2d_50">
      <g>
       <use style="stroke:#000000;stroke-width:0.8;" x="492.168991" xlink:href="#m15e447e604" y="237.4"/>
      </g>
     </g>
     <g id="text_13">
      <!-- $\mathdefault{10^{4}}$ -->
      <g transform="translate(483.368991 251.998438)scale(0.1 -0.1)">
       <use transform="translate(0 0.684375)" xlink:href="#DejaVuSans-49"/>
       <use transform="translate(63.623047 0.684375)" xlink:href="#DejaVuSans-48"/>
       <use transform="translate(128.203125 38.965625)scale(0.7)" xlink:href="#DejaVuSans-52"/>
      </g>
     </g>
    </g>
    <g id="xtick_28">
     <g id="line2d_51">
      <g>
       <use style="stroke:#000000;stroke-width:0.8;" x="530.191259" xlink:href="#m15e447e604" y="237.4"/>
      </g>
     </g>
     <g id="text_14">
      <!-- $\mathdefault{10^{5}}$ -->
      <g transform="translate(521.391259 251.998438)scale(0.1 -0.1)">
       <use transform="translate(0 0.684375)" xlink:href="#DejaVuSans-49"/>
       <use transform="translate(63.623047 0.684375)" xlink:href="#DejaVuSans-48"/>
       <use transform="translate(128.203125 38.965625)scale(0.7)" xlink:href="#DejaVuSans-53"/>
      </g>
     </g>
    </g>
    <g id="xtick_29">
     <g id="line2d_52">
      <g>
       <use style="stroke:#000000;stroke-width:0.6;" x="331.644726" xlink:href="#m7b66628621" y="237.4"/>
      </g>
     </g>
    </g>
    <g id="xtick_30">
     <g id="line2d_53">
      <g>
       <use style="stroke:#000000;stroke-width:0.6;" x="334.190195" xlink:href="#m7b66628621" y="237.4"/>
      </g>
     </g>
    </g>
    <g id="xtick_31">
     <g id="line2d_54">
      <g>
       <use style="stroke:#000000;stroke-width:0.6;" x="336.39518" xlink:href="#m7b66628621" y="237.4"/>
      </g>
     </g>
    </g>
    <g id="xtick_32">
     <g id="line2d_55">
      <g>
       <use style="stroke:#000000;stroke-width:0.6;" x="338.340115" xlink:href="#m7b66628621" y="237.4"/>
      </g>
     </g>
    </g>
    <g id="xtick_33">
     <g id="line2d_56">
      <g>
       <use style="stroke:#000000;stroke-width:0.6;" x="351.525762" xlink:href="#m7b66628621" y="237.4"/>
      </g>
     </g>
    </g>
    <g id="xtick_34">
     <g id="line2d_57">
      <g>
       <use style="stroke:#000000;stroke-width:0.6;" x="358.221151" xlink:href="#m7b66628621" y="237.4"/>
      </g>
     </g>
    </g>
    <g id="xtick_35">
     <g id="line2d_58">
      <g>
       <use style="stroke:#000000;stroke-width:0.6;" x="362.971605" xlink:href="#m7b66628621" y="237.4"/>
      </g>
     </g>
    </g>
    <g id="xtick_36">
     <g id="line2d_59">
      <g>
       <use style="stroke:#000000;stroke-width:0.6;" x="366.656343" xlink:href="#m7b66628621" y="237.4"/>
      </g>
     </g>
    </g>
    <g id="xtick_37">
     <g id="line2d_60">
      <g>
       <use style="stroke:#000000;stroke-width:0.6;" x="369.666994" xlink:href="#m7b66628621" y="237.4"/>
      </g>
     </g>
    </g>
    <g id="xtick_38">
     <g id="line2d_61">
      <g>
       <use style="stroke:#000000;stroke-width:0.6;" x="372.212463" xlink:href="#m7b66628621" y="237.4"/>
      </g>
     </g>
    </g>
    <g id="xtick_39">
     <g id="line2d_62">
      <g>
       <use style="stroke:#000000;stroke-width:0.6;" x="374.417448" xlink:href="#m7b66628621" y="237.4"/>
      </g>
     </g>
    </g>
    <g id="xtick_40">
     <g id="line2d_63">
      <g>
       <use style="stroke:#000000;stroke-width:0.6;" x="376.362383" xlink:href="#m7b66628621" y="237.4"/>
      </g>
     </g>
    </g>
    <g id="xtick_41">
     <g id="line2d_64">
      <g>
       <use style="stroke:#000000;stroke-width:0.6;" x="389.54803" xlink:href="#m7b66628621" y="237.4"/>
      </g>
     </g>
    </g>
    <g id="xtick_42">
     <g id="line2d_65">
      <g>
       <use style="stroke:#000000;stroke-width:0.6;" x="396.243419" xlink:href="#m7b66628621" y="237.4"/>
      </g>
     </g>
    </g>
    <g id="xtick_43">
     <g id="line2d_66">
      <g>
       <use style="stroke:#000000;stroke-width:0.6;" x="400.993873" xlink:href="#m7b66628621" y="237.4"/>
      </g>
     </g>
    </g>
    <g id="xtick_44">
     <g id="line2d_67">
      <g>
       <use style="stroke:#000000;stroke-width:0.6;" x="404.678611" xlink:href="#m7b66628621" y="237.4"/>
      </g>
     </g>
    </g>
    <g id="xtick_45">
     <g id="line2d_68">
      <g>
       <use style="stroke:#000000;stroke-width:0.6;" x="407.689262" xlink:href="#m7b66628621" y="237.4"/>
      </g>
     </g>
    </g>
    <g id="xtick_46">
     <g id="line2d_69">
      <g>
       <use style="stroke:#000000;stroke-width:0.6;" x="410.234731" xlink:href="#m7b66628621" y="237.4"/>
      </g>
     </g>
    </g>
    <g id="xtick_47">
     <g id="line2d_70">
      <g>
       <use style="stroke:#000000;stroke-width:0.6;" x="412.439716" xlink:href="#m7b66628621" y="237.4"/>
      </g>
     </g>
    </g>
    <g id="xtick_48">
     <g id="line2d_71">
      <g>
       <use style="stroke:#000000;stroke-width:0.6;" x="414.384651" xlink:href="#m7b66628621" y="237.4"/>
      </g>
     </g>
    </g>
    <g id="xtick_49">
     <g id="line2d_72">
      <g>
       <use style="stroke:#000000;stroke-width:0.6;" x="427.570298" xlink:href="#m7b66628621" y="237.4"/>
      </g>
     </g>
    </g>
    <g id="xtick_50">
     <g id="line2d_73">
      <g>
       <use style="stroke:#000000;stroke-width:0.6;" x="434.265687" xlink:href="#m7b66628621" y="237.4"/>
      </g>
     </g>
    </g>
    <g id="xtick_51">
     <g id="line2d_74">
      <g>
       <use style="stroke:#000000;stroke-width:0.6;" x="439.016141" xlink:href="#m7b66628621" y="237.4"/>
      </g>
     </g>
    </g>
    <g id="xtick_52">
     <g id="line2d_75">
      <g>
       <use style="stroke:#000000;stroke-width:0.6;" x="442.70088" xlink:href="#m7b66628621" y="237.4"/>
      </g>
     </g>
    </g>
    <g id="xtick_53">
     <g id="line2d_76">
      <g>
       <use style="stroke:#000000;stroke-width:0.6;" x="445.71153" xlink:href="#m7b66628621" y="237.4"/>
      </g>
     </g>
    </g>
    <g id="xtick_54">
     <g id="line2d_77">
      <g>
       <use style="stroke:#000000;stroke-width:0.6;" x="448.256999" xlink:href="#m7b66628621" y="237.4"/>
      </g>
     </g>
    </g>
    <g id="xtick_55">
     <g id="line2d_78">
      <g>
       <use style="stroke:#000000;stroke-width:0.6;" x="450.461984" xlink:href="#m7b66628621" y="237.4"/>
      </g>
     </g>
    </g>
    <g id="xtick_56">
     <g id="line2d_79">
      <g>
       <use style="stroke:#000000;stroke-width:0.6;" x="452.406919" xlink:href="#m7b66628621" y="237.4"/>
      </g>
     </g>
    </g>
    <g id="xtick_57">
     <g id="line2d_80">
      <g>
       <use style="stroke:#000000;stroke-width:0.6;" x="465.592566" xlink:href="#m7b66628621" y="237.4"/>
      </g>
     </g>
    </g>
    <g id="xtick_58">
     <g id="line2d_81">
      <g>
       <use style="stroke:#000000;stroke-width:0.6;" x="472.287955" xlink:href="#m7b66628621" y="237.4"/>
      </g>
     </g>
    </g>
    <g id="xtick_59">
     <g id="line2d_82">
      <g>
       <use style="stroke:#000000;stroke-width:0.6;" x="477.038409" xlink:href="#m7b66628621" y="237.4"/>
      </g>
     </g>
    </g>
    <g id="xtick_60">
     <g id="line2d_83">
      <g>
       <use style="stroke:#000000;stroke-width:0.6;" x="480.723148" xlink:href="#m7b66628621" y="237.4"/>
      </g>
     </g>
    </g>
    <g id="xtick_61">
     <g id="line2d_84">
      <g>
       <use style="stroke:#000000;stroke-width:0.6;" x="483.733798" xlink:href="#m7b66628621" y="237.4"/>
      </g>
     </g>
    </g>
    <g id="xtick_62">
     <g id="line2d_85">
      <g>
       <use style="stroke:#000000;stroke-width:0.6;" x="486.279267" xlink:href="#m7b66628621" y="237.4"/>
      </g>
     </g>
    </g>
    <g id="xtick_63">
     <g id="line2d_86">
      <g>
       <use style="stroke:#000000;stroke-width:0.6;" x="488.484252" xlink:href="#m7b66628621" y="237.4"/>
      </g>
     </g>
    </g>
    <g id="xtick_64">
     <g id="line2d_87">
      <g>
       <use style="stroke:#000000;stroke-width:0.6;" x="490.429187" xlink:href="#m7b66628621" y="237.4"/>
      </g>
     </g>
    </g>
    <g id="xtick_65">
     <g id="line2d_88">
      <g>
       <use style="stroke:#000000;stroke-width:0.6;" x="503.614834" xlink:href="#m7b66628621" y="237.4"/>
      </g>
     </g>
    </g>
    <g id="xtick_66">
     <g id="line2d_89">
      <g>
       <use style="stroke:#000000;stroke-width:0.6;" x="510.310223" xlink:href="#m7b66628621" y="237.4"/>
      </g>
     </g>
    </g>
    <g id="xtick_67">
     <g id="line2d_90">
      <g>
       <use style="stroke:#000000;stroke-width:0.6;" x="515.060677" xlink:href="#m7b66628621" y="237.4"/>
      </g>
     </g>
    </g>
    <g id="xtick_68">
     <g id="line2d_91">
      <g>
       <use style="stroke:#000000;stroke-width:0.6;" x="518.745416" xlink:href="#m7b66628621" y="237.4"/>
      </g>
     </g>
    </g>
    <g id="xtick_69">
     <g id="line2d_92">
      <g>
       <use style="stroke:#000000;stroke-width:0.6;" x="521.756066" xlink:href="#m7b66628621" y="237.4"/>
      </g>
     </g>
    </g>
    <g id="xtick_70">
     <g id="line2d_93">
      <g>
       <use style="stroke:#000000;stroke-width:0.6;" x="524.301535" xlink:href="#m7b66628621" y="237.4"/>
      </g>
     </g>
    </g>
    <g id="xtick_71">
     <g id="line2d_94">
      <g>
       <use style="stroke:#000000;stroke-width:0.6;" x="526.50652" xlink:href="#m7b66628621" y="237.4"/>
      </g>
     </g>
    </g>
    <g id="xtick_72">
     <g id="line2d_95">
      <g>
       <use style="stroke:#000000;stroke-width:0.6;" x="528.451455" xlink:href="#m7b66628621" y="237.4"/>
      </g>
     </g>
    </g>
    <g id="xtick_73">
     <g id="line2d_96">
      <g>
       <use style="stroke:#000000;stroke-width:0.6;" x="541.637102" xlink:href="#m7b66628621" y="237.4"/>
      </g>
     </g>
    </g>
    <g id="xtick_74">
     <g id="line2d_97">
      <g>
       <use style="stroke:#000000;stroke-width:0.6;" x="548.332491" xlink:href="#m7b66628621" y="237.4"/>
      </g>
     </g>
    </g>
    <g id="xtick_75">
     <g id="line2d_98">
      <g>
       <use style="stroke:#000000;stroke-width:0.6;" x="553.082945" xlink:href="#m7b66628621" y="237.4"/>
      </g>
     </g>
    </g>
    <g id="xtick_76">
     <g id="line2d_99">
      <g>
       <use style="stroke:#000000;stroke-width:0.6;" x="556.767684" xlink:href="#m7b66628621" y="237.4"/>
      </g>
     </g>
    </g>
    <g id="xtick_77">
     <g id="line2d_100">
      <g>
       <use style="stroke:#000000;stroke-width:0.6;" x="559.778334" xlink:href="#m7b66628621" y="237.4"/>
      </g>
     </g>
    </g>
    <g id="text_15">
     <!-- $t$ (generations ago) -->
     <defs>
      <path d="M 42.28125 54.6875 
L 40.921875 47.703125 
L 23 47.703125 
L 17.1875 18.015625 
Q 16.890625 16.359375 16.75 15.234375 
Q 16.609375 14.109375 16.609375 13.484375 
Q 16.609375 10.359375 18.484375 8.9375 
Q 20.359375 7.515625 24.515625 7.515625 
L 33.59375 7.515625 
L 32.078125 0 
L 23.484375 0 
Q 15.484375 0 11.546875 3.125 
Q 7.625 6.25 7.625 12.59375 
Q 7.625 13.71875 7.765625 15.0625 
Q 7.90625 16.40625 8.203125 18.015625 
L 14.015625 47.703125 
L 6.390625 47.703125 
L 7.8125 54.6875 
L 15.28125 54.6875 
L 18.3125 70.21875 
L 27.296875 70.21875 
L 24.3125 54.6875 
z
" id="DejaVuSans-Oblique-116"/>
      <path d="M 31 75.875 
Q 24.46875 64.65625 21.28125 53.65625 
Q 18.109375 42.671875 18.109375 31.390625 
Q 18.109375 20.125 21.3125 9.0625 
Q 24.515625 -2 31 -13.1875 
L 23.1875 -13.1875 
Q 15.875 -1.703125 12.234375 9.375 
Q 8.59375 20.453125 8.59375 31.390625 
Q 8.59375 42.28125 12.203125 53.3125 
Q 15.828125 64.359375 23.1875 75.875 
z
" id="DejaVuSans-40"/>
      <path d="M 45.40625 27.984375 
Q 45.40625 37.75 41.375 43.109375 
Q 37.359375 48.484375 30.078125 48.484375 
Q 22.859375 48.484375 18.828125 43.109375 
Q 14.796875 37.75 14.796875 27.984375 
Q 14.796875 18.265625 18.828125 12.890625 
Q 22.859375 7.515625 30.078125 7.515625 
Q 37.359375 7.515625 41.375 12.890625 
Q 45.40625 18.265625 45.40625 27.984375 
z
M 54.390625 6.78125 
Q 54.390625 -7.171875 48.1875 -13.984375 
Q 42 -20.796875 29.203125 -20.796875 
Q 24.46875 -20.796875 20.265625 -20.09375 
Q 16.0625 -19.390625 12.109375 -17.921875 
L 12.109375 -9.1875 
Q 16.0625 -11.328125 19.921875 -12.34375 
Q 23.78125 -13.375 27.78125 -13.375 
Q 36.625 -13.375 41.015625 -8.765625 
Q 45.40625 -4.15625 45.40625 5.171875 
L 45.40625 9.625 
Q 42.625 4.78125 38.28125 2.390625 
Q 33.9375 0 27.875 0 
Q 17.828125 0 11.671875 7.65625 
Q 5.515625 15.328125 5.515625 27.984375 
Q 5.515625 40.671875 11.671875 48.328125 
Q 17.828125 56 27.875 56 
Q 33.9375 56 38.28125 53.609375 
Q 42.625 51.21875 45.40625 46.390625 
L 45.40625 54.6875 
L 54.390625 54.6875 
z
" id="DejaVuSans-103"/>
      <path d="M 8.015625 75.875 
L 15.828125 75.875 
Q 23.140625 64.359375 26.78125 53.3125 
Q 30.421875 42.28125 30.421875 31.390625 
Q 30.421875 20.453125 26.78125 9.375 
Q 23.140625 -1.703125 15.828125 -13.1875 
L 8.015625 -13.1875 
Q 14.5 -2 17.703125 9.0625 
Q 20.90625 20.125 20.90625 31.390625 
Q 20.90625 42.671875 17.703125 53.65625 
Q 14.5 64.65625 8.015625 75.875 
z
" id="DejaVuSans-41"/>
     </defs>
     <g transform="translate(397.006446 265.678125)scale(0.1 -0.1)">
      <use transform="translate(0 0.015625)" xlink:href="#DejaVuSans-Oblique-116"/>
      <use transform="translate(39.208984 0.015625)" xlink:href="#DejaVuSans-32"/>
      <use transform="translate(70.996094 0.015625)" xlink:href="#DejaVuSans-40"/>
      <use transform="translate(110.009766 0.015625)" xlink:href="#DejaVuSans-103"/>
      <use transform="translate(173.486328 0.015625)" xlink:href="#DejaVuSans-101"/>
      <use transform="translate(235.009766 0.015625)" xlink:href="#DejaVuSans-110"/>
      <use transform="translate(298.388672 0.015625)" xlink:href="#DejaVuSans-101"/>
      <use transform="translate(359.912109 0.015625)" xlink:href="#DejaVuSans-114"/>
      <use transform="translate(401.025391 0.015625)" xlink:href="#DejaVuSans-97"/>
      <use transform="translate(462.304688 0.015625)" xlink:href="#DejaVuSans-116"/>
      <use transform="translate(501.513672 0.015625)" xlink:href="#DejaVuSans-105"/>
      <use transform="translate(529.296875 0.015625)" xlink:href="#DejaVuSans-111"/>
      <use transform="translate(590.478516 0.015625)" xlink:href="#DejaVuSans-110"/>
      <use transform="translate(653.857422 0.015625)" xlink:href="#DejaVuSans-115"/>
      <use transform="translate(705.957031 0.015625)" xlink:href="#DejaVuSans-32"/>
      <use transform="translate(737.744141 0.015625)" xlink:href="#DejaVuSans-97"/>
      <use transform="translate(799.023438 0.015625)" xlink:href="#DejaVuSans-103"/>
      <use transform="translate(862.5 0.015625)" xlink:href="#DejaVuSans-111"/>
      <use transform="translate(923.681641 0.015625)" xlink:href="#DejaVuSans-41"/>
     </g>
    </g>
   </g>
   <g id="matplotlib.axis_4">
    <g id="ytick_22">
     <g id="line2d_101">
      <g>
       <use style="stroke:#000000;stroke-width:0.8;" x="329.572266" xlink:href="#mb0f2a81784" y="116.299449"/>
      </g>
     </g>
     <g id="text_16">
      <!-- $\mathdefault{10^{4}}$ -->
      <g transform="translate(304.972266 120.098667)scale(0.1 -0.1)">
       <use transform="translate(0 0.684375)" xlink:href="#DejaVuSans-49"/>
       <use transform="translate(63.623047 0.684375)" xlink:href="#DejaVuSans-48"/>
       <use transform="translate(128.203125 38.965625)scale(0.7)" xlink:href="#DejaVuSans-52"/>
      </g>
     </g>
    </g>
    <g id="ytick_23">
     <g id="line2d_102">
      <g>
       <use style="stroke:#000000;stroke-width:0.6;" x="329.572266" xlink:href="#m4af6973e33" y="222.783749"/>
      </g>
     </g>
    </g>
    <g id="ytick_24">
     <g id="line2d_103">
      <g>
       <use style="stroke:#000000;stroke-width:0.6;" x="329.572266" xlink:href="#m4af6973e33" y="197.339965"/>
      </g>
     </g>
    </g>
    <g id="ytick_25">
     <g id="line2d_104">
      <g>
       <use style="stroke:#000000;stroke-width:0.6;" x="329.572266" xlink:href="#m4af6973e33" y="177.604232"/>
      </g>
     </g>
    </g>
    <g id="ytick_26">
     <g id="line2d_105">
      <g>
       <use style="stroke:#000000;stroke-width:0.6;" x="329.572266" xlink:href="#m4af6973e33" y="161.478965"/>
      </g>
     </g>
    </g>
    <g id="ytick_27">
     <g id="line2d_106">
      <g>
       <use style="stroke:#000000;stroke-width:0.6;" x="329.572266" xlink:href="#m4af6973e33" y="147.845246"/>
      </g>
     </g>
    </g>
    <g id="ytick_28">
     <g id="line2d_107">
      <g>
       <use style="stroke:#000000;stroke-width:0.6;" x="329.572266" xlink:href="#m4af6973e33" y="136.035181"/>
      </g>
     </g>
    </g>
    <g id="ytick_29">
     <g id="line2d_108">
      <g>
       <use style="stroke:#000000;stroke-width:0.6;" x="329.572266" xlink:href="#m4af6973e33" y="125.617965"/>
      </g>
     </g>
    </g>
    <g id="ytick_30">
     <g id="line2d_109">
      <g>
       <use style="stroke:#000000;stroke-width:0.6;" x="329.572266" xlink:href="#m4af6973e33" y="54.994665"/>
      </g>
     </g>
    </g>
    <g id="ytick_31">
     <g id="line2d_110">
      <g>
       <use style="stroke:#000000;stroke-width:0.6;" x="329.572266" xlink:href="#m4af6973e33" y="19.133665"/>
      </g>
     </g>
    </g>
    <g id="text_17">
     <!-- $\eta(t)$ -->
     <defs>
      <path d="M 57.859375 33.015625 
L 47.40625 -20.796875 
L 38.421875 -20.796875 
L 48.828125 32.71875 
Q 50.34375 40.484375 48.046875 44.34375 
Q 45.796875 48.1875 39.75 48.1875 
Q 32.46875 48.1875 27.34375 43.5625 
Q 22.265625 38.921875 20.703125 30.90625 
L 14.703125 0 
L 5.671875 0 
L 16.3125 54.6875 
L 25.34375 54.6875 
L 23.6875 46.1875 
Q 27.828125 51.125 32.71875 53.5625 
Q 37.546875 56 43.265625 56 
Q 52.6875 56 56.390625 50.203125 
Q 60.0625 44.34375 57.859375 33.015625 
z
" id="DejaVuSans-Oblique-951"/>
     </defs>
     <g transform="translate(298.872266 131.35)rotate(-90)scale(0.1 -0.1)">
      <use transform="translate(0 0.125)" xlink:href="#DejaVuSans-Oblique-951"/>
      <use transform="translate(63.378906 0.125)" xlink:href="#DejaVuSans-40"/>
      <use transform="translate(102.392578 0.125)" xlink:href="#DejaVuSans-Oblique-116"/>
      <use transform="translate(141.601562 0.125)" xlink:href="#DejaVuSans-41"/>
     </g>
    </g>
   </g>
   <g id="line2d_111">
    <path clip-path="url(#pa94d262dfb)" d="M -1 23.28628 
L 397.399921 23.28628 
L 398.355254 24.833659 
L 400.265921 33.350183 
L 402.176587 42.911409 
L 404.087254 53.64549 
L 405.997921 65.696296 
L 407.908588 79.225348 
L 409.819254 94.413979 
L 411.729921 111.465765 
L 413.640588 130.609256 
L 415.551255 152.101036 
L 417.461921 176.229166 
L 419.372588 203.317039 
L 420.327921 218.082658 
L 421.283255 225.235189 
L 423.193922 216.700287 
L 425.104588 207.118427 
L 427.015255 196.361182 
L 428.925922 184.284369 
L 430.836588 170.72612 
L 432.747255 155.504712 
L 434.657922 138.416127 
L 436.568589 119.231323 
L 438.479255 97.693162 
L 440.389922 73.512963 
L 442.300589 46.366633 
L 443.255922 31.569149 
L 444.211256 25.139491 
L 446.121922 33.693778 
L 448.032589 43.2974 
L 449.943256 54.079078 
L 451.853923 66.18332 
L 453.764589 79.772362 
L 455.675256 95.028342 
L 457.585923 112.155739 
L 459.49659 131.384116 
L 461.407256 152.971195 
L 463.317923 177.206312 
L 465.22859 204.414298 
L 466.183923 219.245391 
L 467.139257 224.929971 
L 469.049923 216.35697 
L 470.96059 206.732338 
L 472.871257 195.927074 
L 474.781923 183.796352 
L 476.69259 170.177581 
L 478.603257 154.888227 
L 480.513924 137.723361 
L 482.42459 118.452919 
L 484.335257 96.818615 
L 486.245924 72.530479 
L 488.156591 45.262972 
L 489.111924 30.399434 
L 490.067257 25.446512 
L 491.977924 34.038607 
L 493.888591 43.684675 
L 495.799258 54.514005 
L 497.709924 66.671745 
L 499.620591 80.320847 
L 501.531258 95.644254 
L 503.441925 112.84735 
L 505.352591 132.160711 
L 507.263258 153.843199 
L 509.173925 178.18543 
L 511.084592 205.513667 
L 512.039925 220.41031 
L 512.995258 226.936364 
L 530.191259 226.936364 
L 530.191259 226.936364 
" style="fill:none;stroke:#000000;stroke-linecap:square;stroke-width:2;"/>
   </g>
   <g id="line2d_112">
    <path clip-path="url(#pa94d262dfb)" d="M -1 46.544053 
L 340.079918 46.536248 
L 342.202677 45.801989 
L 344.325435 45.044442 
L 346.448193 44.100888 
L 348.570951 42.982293 
L 350.693709 41.677522 
L 352.816467 40.178111 
L 354.939225 38.50285 
L 357.061983 36.677059 
L 359.184742 34.714542 
L 361.3075 32.626958 
L 363.430258 30.454066 
L 365.553016 28.266217 
L 367.675774 26.143459 
L 369.798532 24.156093 
L 371.92129 22.324496 
L 374.044048 20.601403 
L 376.166807 18.994909 
L 378.289565 17.692413 
L 380.412323 18.066196 
L 382.535081 18.011866 
L 384.657839 17.979781 
L 386.780597 18.09905 
L 388.903355 18.102083 
L 391.026114 17.976259 
L 393.148872 17.855309 
L 395.27163 17.795545 
L 397.394388 17.769972 
L 399.517146 17.663636 
L 401.639904 31.148915 
L 403.762662 50.68458 
L 405.88542 70.458242 
L 408.008179 90.553855 
L 410.130937 110.985488 
L 412.253695 131.697397 
L 414.376453 152.777246 
L 416.499211 174.081128 
L 418.621969 194.775917 
L 420.744727 214.67115 
L 422.867486 220.011759 
L 424.990244 205.140631 
L 427.113002 188.327833 
L 429.23576 171.046959 
L 431.358518 153.582097 
L 433.481276 136.138503 
L 435.604034 118.885122 
L 437.726792 101.896977 
L 439.849551 85.197957 
L 441.972309 68.842679 
L 444.095067 54.683327 
L 446.217825 54.435981 
L 448.340583 54.23258 
L 450.463341 54.127443 
L 452.586099 60.788005 
L 454.708858 85.60427 
L 456.831616 111.193601 
L 458.954374 137.586418 
L 461.077132 164.294158 
L 463.19989 190.448983 
L 465.322648 215.20652 
L 467.445406 212.408088 
L 469.568164 199.062737 
L 471.690923 184.977141 
L 473.813681 170.677506 
L 475.936439 156.45413 
L 478.059197 142.523862 
L 480.181955 129.02372 
L 482.304713 115.936668 
L 484.427471 103.197716 
L 486.55023 102.520786 
L 488.672988 102.540343 
L 490.795746 102.671756 
L 492.918504 102.839422 
L 495.041262 103.011458 
L 497.16402 103.209815 
L 499.286778 103.45383 
L 501.409536 103.740783 
L 503.532295 104.124585 
L 505.655053 104.606987 
L 507.777811 105.134662 
L 509.900569 105.725898 
L 512.023327 106.297634 
L 514.146085 106.787042 
L 516.268843 107.212574 
L 518.391601 107.592885 
L 520.51436 107.910059 
L 522.637118 108.121519 
L 524.759876 108.183143 
L 526.882634 108.124192 
L 529.005392 108.056686 
L 531.12815 108.014132 
L 533.250908 108.010852 
L 535.373667 108.038403 
L 537.496425 108.103684 
L 539.619183 108.204915 
L 541.741941 108.333907 
L 543.864699 108.468636 
L 545.987457 108.586868 
L 548.110215 108.684094 
L 550.232973 108.766175 
" style="fill:none;stroke:#1f77b4;stroke-linecap:square;stroke-opacity:0.75;stroke-width:3;"/>
   </g>
   <g id="patch_8">
    <path d="M 329.572266 237.4 
L 329.572266 7.2 
" style="fill:none;stroke:#000000;stroke-linecap:square;stroke-linejoin:miter;stroke-width:0.8;"/>
   </g>
   <g id="patch_9">
    <path d="M 560.740626 237.4 
L 560.740626 7.2 
" style="fill:none;stroke:#000000;stroke-linecap:square;stroke-linejoin:miter;stroke-width:0.8;"/>
   </g>
   <g id="patch_10">
    <path d="M 329.572266 237.4 
L 560.740626 237.4 
" style="fill:none;stroke:#000000;stroke-linecap:square;stroke-linejoin:miter;stroke-width:0.8;"/>
   </g>
   <g id="patch_11">
    <path d="M 329.572266 7.2 
L 560.740626 7.2 
" style="fill:none;stroke:#000000;stroke-linecap:square;stroke-linejoin:miter;stroke-width:0.8;"/>
   </g>
   <g id="legend_1">
    <g id="patch_12">
     <path d="M 336.572266 232.4 
L 407.684766 232.4 
Q 409.684766 232.4 409.684766 230.4 
L 409.684766 202.04375 
Q 409.684766 200.04375 407.684766 200.04375 
L 336.572266 200.04375 
Q 334.572266 200.04375 334.572266 202.04375 
L 334.572266 230.4 
Q 334.572266 232.4 336.572266 232.4 
z
" style="fill:#ffffff;opacity:0.8;stroke:#cccccc;stroke-linejoin:miter;"/>
    </g>
    <g id="line2d_113">
     <path d="M 338.572266 208.142188 
L 358.572266 208.142188 
" style="fill:none;stroke:#000000;stroke-linecap:square;stroke-width:2;"/>
    </g>
    <g id="line2d_114"/>
    <g id="text_18">
     <!-- true -->
     <g transform="translate(366.572266 211.642188)scale(0.1 -0.1)">
      <use xlink:href="#DejaVuSans-116"/>
      <use x="39.208984" xlink:href="#DejaVuSans-114"/>
      <use x="80.322266" xlink:href="#DejaVuSans-117"/>
      <use x="143.701172" xlink:href="#DejaVuSans-101"/>
     </g>
    </g>
    <g id="line2d_115">
     <path d="M 338.572266 222.820313 
L 358.572266 222.820313 
" style="fill:none;stroke:#1f77b4;stroke-linecap:square;stroke-opacity:0.75;stroke-width:3;"/>
    </g>
    <g id="line2d_116"/>
    <g id="text_19">
     <!-- inferred -->
     <defs>
      <path d="M 45.40625 46.390625 
L 45.40625 75.984375 
L 54.390625 75.984375 
L 54.390625 0 
L 45.40625 0 
L 45.40625 8.203125 
Q 42.578125 3.328125 38.25 0.953125 
Q 33.9375 -1.421875 27.875 -1.421875 
Q 17.96875 -1.421875 11.734375 6.484375 
Q 5.515625 14.40625 5.515625 27.296875 
Q 5.515625 40.1875 11.734375 48.09375 
Q 17.96875 56 27.875 56 
Q 33.9375 56 38.25 53.625 
Q 42.578125 51.265625 45.40625 46.390625 
z
M 14.796875 27.296875 
Q 14.796875 17.390625 18.875 11.75 
Q 22.953125 6.109375 30.078125 6.109375 
Q 37.203125 6.109375 41.296875 11.75 
Q 45.40625 17.390625 45.40625 27.296875 
Q 45.40625 37.203125 41.296875 42.84375 
Q 37.203125 48.484375 30.078125 48.484375 
Q 22.953125 48.484375 18.875 42.84375 
Q 14.796875 37.203125 14.796875 27.296875 
z
" id="DejaVuSans-100"/>
     </defs>
     <g transform="translate(366.572266 226.320313)scale(0.1 -0.1)">
      <use xlink:href="#DejaVuSans-105"/>
      <use x="27.783203" xlink:href="#DejaVuSans-110"/>
      <use x="91.162109" xlink:href="#DejaVuSans-102"/>
      <use x="126.367188" xlink:href="#DejaVuSans-101"/>
      <use x="187.890625" xlink:href="#DejaVuSans-114"/>
      <use x="227.253906" xlink:href="#DejaVuSans-114"/>
      <use x="266.117188" xlink:href="#DejaVuSans-101"/>
      <use x="327.640625" xlink:href="#DejaVuSans-100"/>
     </g>
    </g>
   </g>
  </g>
 </g>
 <defs>
  <clipPath id="pea3a365962">
   <rect height="230.2" width="231.168361" x="45.478125" y="7.2"/>
  </clipPath>
  <clipPath id="pa94d262dfb">
   <rect height="230.2" width="231.168361" x="329.572266" y="7.2"/>
  </clipPath>
 </defs>
</svg>
