<?xml version="1.0" encoding="utf-8" standalone="no"?>
<!DOCTYPE svg PUBLIC "-//W3C//DTD SVG 1.1//EN"
  "http://www.w3.org/Graphics/SVG/1.1/DTD/svg11.dtd">
<!-- Created with matplotlib (https://matplotlib.org/) -->
<svg height="230.0575pt" version="1.1" viewBox="0 0 392.14375 230.0575" width="392.14375pt" xmlns="http://www.w3.org/2000/svg" xmlns:xlink="http://www.w3.org/1999/xlink">
 <defs>
  <style type="text/css">
*{stroke-linecap:butt;stroke-linejoin:round;}
  </style>
 </defs>
 <g id="figure_1">
  <g id="patch_1">
   <path d="M 0 230.0575 
L 392.14375 230.0575 
L 392.14375 0 
L 0 0 
z
" style="fill:#ffffff;"/>
  </g>
  <g id="axes_1">
   <g id="patch_2">
    <path d="M 50.14375 184.118437 
L 384.94375 184.118437 
L 384.94375 17.798437 
L 50.14375 17.798437 
z
" style="fill:#ffffff;"/>
   </g>
   <g id="patch_3">
    <path clip-path="url(#p37aa7264e3)" d="M 52.759375 184.118437 
L 57.990625 184.118437 
L 57.990625 25.718437 
L 52.759375 25.718437 
z
" style="fill:#1f77b4;"/>
   </g>
   <g id="patch_4">
    <path clip-path="url(#p37aa7264e3)" d="M 63.221875 184.118437 
L 68.453125 184.118437 
L 68.453125 122.544094 
L 63.221875 122.544094 
z
" style="fill:#1f77b4;"/>
   </g>
   <g id="patch_5">
    <path clip-path="url(#p37aa7264e3)" d="M 73.684375 184.118437 
L 78.915625 184.118437 
L 78.915625 97.445585 
L 73.684375 97.445585 
z
" style="fill:#1f77b4;"/>
   </g>
   <g id="patch_6">
    <path clip-path="url(#p37aa7264e3)" d="M 84.146875 184.118437 
L 89.378125 184.118437 
L 89.378125 74.703381 
L 84.146875 74.703381 
z
" style="fill:#1f77b4;"/>
   </g>
   <g id="patch_7">
    <path clip-path="url(#p37aa7264e3)" d="M 94.609375 184.118437 
L 99.840625 184.118437 
L 99.840625 100.295492 
L 94.609375 100.295492 
z
" style="fill:#1f77b4;"/>
   </g>
   <g id="patch_8">
    <path clip-path="url(#p37aa7264e3)" d="M 105.071875 184.118437 
L 110.303125 184.118437 
L 110.303125 138.800497 
L 105.071875 138.800497 
z
" style="fill:#1f77b4;"/>
   </g>
   <g id="patch_9">
    <path clip-path="url(#p37aa7264e3)" d="M 115.534375 184.118437 
L 120.765625 184.118437 
L 120.765625 174.742323 
L 115.534375 174.742323 
z
" style="fill:#1f77b4;"/>
   </g>
   <g id="patch_10">
    <path clip-path="url(#p37aa7264e3)" d="M 125.996875 184.118437 
L 131.228125 184.118437 
L 131.228125 116.847847 
L 125.996875 116.847847 
z
" style="fill:#1f77b4;"/>
   </g>
   <g id="patch_11">
    <path clip-path="url(#p37aa7264e3)" d="M 136.459375 184.118437 
L 141.690625 184.118437 
L 141.690625 105.358205 
L 136.459375 105.358205 
z
" style="fill:#1f77b4;"/>
   </g>
   <g id="patch_12">
    <path clip-path="url(#p37aa7264e3)" d="M 146.921875 184.118437 
L 152.153125 184.118437 
L 152.153125 126.632523 
L 146.921875 126.632523 
z
" style="fill:#1f77b4;"/>
   </g>
   <g id="patch_13">
    <path clip-path="url(#p37aa7264e3)" d="M 157.384375 184.118437 
L 162.615625 184.118437 
L 162.615625 104.052179 
L 157.384375 104.052179 
z
" style="fill:#1f77b4;"/>
   </g>
   <g id="patch_14">
    <path clip-path="url(#p37aa7264e3)" d="M 167.846875 184.118437 
L 173.078125 184.118437 
L 173.078125 105.678803 
L 167.846875 105.678803 
z
" style="fill:#1f77b4;"/>
   </g>
   <g id="patch_15">
    <path clip-path="url(#p37aa7264e3)" d="M 178.309375 184.118437 
L 183.540625 184.118437 
L 183.540625 112.516403 
L 178.309375 112.516403 
z
" style="fill:#1f77b4;"/>
   </g>
   <g id="patch_16">
    <path clip-path="url(#p37aa7264e3)" d="M 188.771875 184.118437 
L 194.003125 184.118437 
L 194.003125 132.290245 
L 188.771875 132.290245 
z
" style="fill:#1f77b4;"/>
   </g>
   <g id="patch_17">
    <path clip-path="url(#p37aa7264e3)" d="M 199.234375 184.118437 
L 204.465625 184.118437 
L 204.465625 175.281117 
L 199.234375 175.281117 
z
" style="fill:#1f77b4;"/>
   </g>
   <g id="patch_18">
    <path clip-path="url(#p37aa7264e3)" d="M 209.696875 184.118437 
L 214.928125 184.118437 
L 214.928125 113.63122 
L 209.696875 113.63122 
z
" style="fill:#1f77b4;"/>
   </g>
   <g id="patch_19">
    <path clip-path="url(#p37aa7264e3)" d="M 220.159375 184.118437 
L 225.390625 184.118437 
L 225.390625 98.426495 
L 220.159375 98.426495 
z
" style="fill:#1f77b4;"/>
   </g>
   <g id="patch_20">
    <path clip-path="url(#p37aa7264e3)" d="M 230.621875 184.118437 
L 235.853125 184.118437 
L 235.853125 145.27144 
L 230.621875 145.27144 
z
" style="fill:#1f77b4;"/>
   </g>
   <g id="patch_21">
    <path clip-path="url(#p37aa7264e3)" d="M 241.084375 184.118437 
L 246.315625 184.118437 
L 246.315625 119.425085 
L 241.084375 119.425085 
z
" style="fill:#1f77b4;"/>
   </g>
   <g id="patch_22">
    <path clip-path="url(#p37aa7264e3)" d="M 251.546875 184.118437 
L 256.778125 184.118437 
L 256.778125 128.921404 
L 251.546875 128.921404 
z
" style="fill:#1f77b4;"/>
   </g>
   <g id="patch_23">
    <path clip-path="url(#p37aa7264e3)" d="M 262.009375 184.118437 
L 267.240625 184.118437 
L 267.240625 126.408306 
L 262.009375 126.408306 
z
" style="fill:#1f77b4;"/>
   </g>
   <g id="patch_24">
    <path clip-path="url(#p37aa7264e3)" d="M 272.471875 184.118437 
L 277.703125 184.118437 
L 277.703125 140.797344 
L 272.471875 140.797344 
z
" style="fill:#1f77b4;"/>
   </g>
   <g id="patch_25">
    <path clip-path="url(#p37aa7264e3)" d="M 282.934375 184.118437 
L 288.165625 184.118437 
L 288.165625 176.991781 
L 282.934375 176.991781 
z
" style="fill:#1f77b4;"/>
   </g>
   <g id="patch_26">
    <path clip-path="url(#p37aa7264e3)" d="M 293.396875 184.118437 
L 298.628125 184.118437 
L 298.628125 128.463952 
L 293.396875 128.463952 
z
" style="fill:#1f77b4;"/>
   </g>
   <g id="patch_27">
    <path clip-path="url(#p37aa7264e3)" d="M 303.859375 184.118437 
L 309.090625 184.118437 
L 309.090625 91.09391 
L 303.859375 91.09391 
z
" style="fill:#1f77b4;"/>
   </g>
   <g id="patch_28">
    <path clip-path="url(#p37aa7264e3)" d="M 314.321875 184.118437 
L 319.553125 184.118437 
L 319.553125 136.267962 
L 314.321875 136.267962 
z
" style="fill:#1f77b4;"/>
   </g>
   <g id="patch_29">
    <path clip-path="url(#p37aa7264e3)" d="M 324.784375 184.118437 
L 330.015625 184.118437 
L 330.015625 129.081305 
L 324.784375 129.081305 
z
" style="fill:#1f77b4;"/>
   </g>
   <g id="patch_30">
    <path clip-path="url(#p37aa7264e3)" d="M 335.246875 184.118437 
L 340.478125 184.118437 
L 340.478125 93.937713 
L 335.246875 93.937713 
z
" style="fill:#1f77b4;"/>
   </g>
   <g id="patch_31">
    <path clip-path="url(#p37aa7264e3)" d="M 345.709375 184.118437 
L 350.940625 184.118437 
L 350.940625 102.544319 
L 345.709375 102.544319 
z
" style="fill:#1f77b4;"/>
   </g>
   <g id="patch_32">
    <path clip-path="url(#p37aa7264e3)" d="M 356.171875 184.118437 
L 361.403125 184.118437 
L 361.403125 121.884812 
L 356.171875 121.884812 
z
" style="fill:#1f77b4;"/>
   </g>
   <g id="patch_33">
    <path clip-path="url(#p37aa7264e3)" d="M 366.634375 184.118437 
L 371.865625 184.118437 
L 371.865625 176.582393 
L 366.634375 176.582393 
z
" style="fill:#1f77b4;"/>
   </g>
   <g id="patch_34">
    <path clip-path="url(#p37aa7264e3)" d="M 377.096875 184.118437 
L 382.328125 184.118437 
L 382.328125 91.060025 
L 377.096875 91.060025 
z
" style="fill:#1f77b4;"/>
   </g>
   <g id="matplotlib.axis_1">
    <g id="xtick_1">
     <g id="line2d_1">
      <defs>
       <path d="M 0 0 
L 0 3.5 
" id="m396493d51e" style="stroke:#000000;stroke-width:0.8;"/>
      </defs>
      <g>
       <use style="stroke:#000000;stroke-width:0.8;" x="55.375" xlink:href="#m396493d51e" y="184.118437"/>
      </g>
     </g>
     <g id="text_1">
      <!-- AAA -->
      <defs>
       <path d="M 30.078125 64.203125 
L 19.671875 26.90625 
L 40.484375 26.90625 
z
M 24.125 72.90625 
L 36.078125 72.90625 
L 58.40625 0 
L 48.1875 0 
L 42.828125 19 
L 17.28125 19 
L 12.015625 0 
L 1.8125 0 
z
" id="DejaVuSansMono-65"/>
      </defs>
      <g transform="translate(58.160938 209.179375)rotate(-90)scale(0.1 -0.1)">
       <use xlink:href="#DejaVuSansMono-65"/>
       <use x="60.205078" xlink:href="#DejaVuSansMono-65"/>
       <use x="120.410156" xlink:href="#DejaVuSansMono-65"/>
      </g>
     </g>
    </g>
    <g id="xtick_2">
     <g id="line2d_2">
      <g>
       <use style="stroke:#000000;stroke-width:0.8;" x="65.8375" xlink:href="#m396493d51e" y="184.118437"/>
      </g>
     </g>
     <g id="text_2">
      <!-- AAC -->
      <defs>
       <path d="M 52.390625 2.59375 
Q 48.640625 0.59375 44.671875 -0.40625 
Q 40.71875 -1.421875 36.28125 -1.421875 
Q 22.265625 -1.421875 14.515625 8.484375 
Q 6.78125 18.40625 6.78125 36.375 
Q 6.78125 54.25 14.5625 64.234375 
Q 22.359375 74.21875 36.28125 74.21875 
Q 40.71875 74.21875 44.671875 73.21875 
Q 48.640625 72.21875 52.390625 70.21875 
L 52.390625 60.109375 
Q 48.78125 63.09375 44.625 64.65625 
Q 40.484375 66.21875 36.28125 66.21875 
Q 26.65625 66.21875 21.875 58.796875 
Q 17.09375 51.375 17.09375 36.375 
Q 17.09375 21.4375 21.875 14.015625 
Q 26.65625 6.59375 36.28125 6.59375 
Q 40.578125 6.59375 44.703125 8.15625 
Q 48.828125 9.71875 52.390625 12.703125 
z
" id="DejaVuSansMono-67"/>
      </defs>
      <g transform="translate(68.623438 209.179375)rotate(-90)scale(0.1 -0.1)">
       <use xlink:href="#DejaVuSansMono-65"/>
       <use x="60.205078" xlink:href="#DejaVuSansMono-65"/>
       <use x="120.410156" xlink:href="#DejaVuSansMono-67"/>
      </g>
     </g>
    </g>
    <g id="xtick_3">
     <g id="line2d_3">
      <g>
       <use style="stroke:#000000;stroke-width:0.8;" x="76.3" xlink:href="#m396493d51e" y="184.118437"/>
      </g>
     </g>
     <g id="text_3">
      <!-- AAG -->
      <defs>
       <path d="M 53.90625 6 
Q 49.953125 2.34375 45 0.453125 
Q 40.046875 -1.421875 34.28125 -1.421875 
Q 20.40625 -1.421875 12.6875 8.515625 
Q 4.984375 18.453125 4.984375 36.375 
Q 4.984375 54.25 12.796875 64.234375 
Q 20.609375 74.21875 34.515625 74.21875 
Q 39.109375 74.21875 43.3125 72.921875 
Q 47.515625 71.625 51.421875 69 
L 51.421875 58.890625 
Q 47.46875 62.640625 43.3125 64.421875 
Q 39.15625 66.21875 34.515625 66.21875 
Q 24.90625 66.21875 20.09375 58.765625 
Q 15.28125 51.3125 15.28125 36.375 
Q 15.28125 21.1875 19.9375 13.890625 
Q 24.609375 6.59375 34.28125 6.59375 
Q 37.546875 6.59375 40.015625 7.34375 
Q 42.484375 8.109375 44.484375 9.71875 
L 44.484375 29.296875 
L 33.890625 29.296875 
L 33.890625 37.40625 
L 53.90625 37.40625 
z
" id="DejaVuSansMono-71"/>
      </defs>
      <g transform="translate(79.085938 209.179375)rotate(-90)scale(0.1 -0.1)">
       <use xlink:href="#DejaVuSansMono-65"/>
       <use x="60.205078" xlink:href="#DejaVuSansMono-65"/>
       <use x="120.410156" xlink:href="#DejaVuSansMono-71"/>
      </g>
     </g>
    </g>
    <g id="xtick_4">
     <g id="line2d_4">
      <g>
       <use style="stroke:#000000;stroke-width:0.8;" x="86.7625" xlink:href="#m396493d51e" y="184.118437"/>
      </g>
     </g>
     <g id="text_4">
      <!-- AAT -->
      <defs>
       <path d="M 2.296875 72.90625 
L 57.90625 72.90625 
L 57.90625 64.59375 
L 35.109375 64.59375 
L 35.109375 0 
L 25.203125 0 
L 25.203125 64.59375 
L 2.296875 64.59375 
z
" id="DejaVuSansMono-84"/>
      </defs>
      <g transform="translate(89.548438 209.179375)rotate(-90)scale(0.1 -0.1)">
       <use xlink:href="#DejaVuSansMono-65"/>
       <use x="60.205078" xlink:href="#DejaVuSansMono-65"/>
       <use x="120.410156" xlink:href="#DejaVuSansMono-84"/>
      </g>
     </g>
    </g>
    <g id="xtick_5">
     <g id="line2d_5">
      <g>
       <use style="stroke:#000000;stroke-width:0.8;" x="97.225" xlink:href="#m396493d51e" y="184.118437"/>
      </g>
     </g>
     <g id="text_5">
      <!-- ACA -->
      <g transform="translate(100.010938 209.179375)rotate(-90)scale(0.1 -0.1)">
       <use xlink:href="#DejaVuSansMono-65"/>
       <use x="60.205078" xlink:href="#DejaVuSansMono-67"/>
       <use x="120.410156" xlink:href="#DejaVuSansMono-65"/>
      </g>
     </g>
    </g>
    <g id="xtick_6">
     <g id="line2d_6">
      <g>
       <use style="stroke:#000000;stroke-width:0.8;" x="107.6875" xlink:href="#m396493d51e" y="184.118437"/>
      </g>
     </g>
     <g id="text_6">
      <!-- ACC -->
      <g transform="translate(110.473438 209.179375)rotate(-90)scale(0.1 -0.1)">
       <use xlink:href="#DejaVuSansMono-65"/>
       <use x="60.205078" xlink:href="#DejaVuSansMono-67"/>
       <use x="120.410156" xlink:href="#DejaVuSansMono-67"/>
      </g>
     </g>
    </g>
    <g id="xtick_7">
     <g id="line2d_7">
      <g>
       <use style="stroke:#000000;stroke-width:0.8;" x="118.15" xlink:href="#m396493d51e" y="184.118437"/>
      </g>
     </g>
     <g id="text_7">
      <!-- ACG -->
      <g transform="translate(120.935938 209.179375)rotate(-90)scale(0.1 -0.1)">
       <use xlink:href="#DejaVuSansMono-65"/>
       <use x="60.205078" xlink:href="#DejaVuSansMono-67"/>
       <use x="120.410156" xlink:href="#DejaVuSansMono-71"/>
      </g>
     </g>
    </g>
    <g id="xtick_8">
     <g id="line2d_8">
      <g>
       <use style="stroke:#000000;stroke-width:0.8;" x="128.6125" xlink:href="#m396493d51e" y="184.118437"/>
      </g>
     </g>
     <g id="text_8">
      <!-- ACT -->
      <g transform="translate(131.398438 209.179375)rotate(-90)scale(0.1 -0.1)">
       <use xlink:href="#DejaVuSansMono-65"/>
       <use x="60.205078" xlink:href="#DejaVuSansMono-67"/>
       <use x="120.410156" xlink:href="#DejaVuSansMono-84"/>
      </g>
     </g>
    </g>
    <g id="xtick_9">
     <g id="line2d_9">
      <g>
       <use style="stroke:#000000;stroke-width:0.8;" x="139.075" xlink:href="#m396493d51e" y="184.118437"/>
      </g>
     </g>
     <g id="text_9">
      <!-- CAA -->
      <g transform="translate(141.860938 209.179375)rotate(-90)scale(0.1 -0.1)">
       <use xlink:href="#DejaVuSansMono-67"/>
       <use x="60.205078" xlink:href="#DejaVuSansMono-65"/>
       <use x="120.410156" xlink:href="#DejaVuSansMono-65"/>
      </g>
     </g>
    </g>
    <g id="xtick_10">
     <g id="line2d_10">
      <g>
       <use style="stroke:#000000;stroke-width:0.8;" x="149.5375" xlink:href="#m396493d51e" y="184.118437"/>
      </g>
     </g>
     <g id="text_10">
      <!-- CAC -->
      <g transform="translate(152.323438 209.179375)rotate(-90)scale(0.1 -0.1)">
       <use xlink:href="#DejaVuSansMono-67"/>
       <use x="60.205078" xlink:href="#DejaVuSansMono-65"/>
       <use x="120.410156" xlink:href="#DejaVuSansMono-67"/>
      </g>
     </g>
    </g>
    <g id="xtick_11">
     <g id="line2d_11">
      <g>
       <use style="stroke:#000000;stroke-width:0.8;" x="160" xlink:href="#m396493d51e" y="184.118437"/>
      </g>
     </g>
     <g id="text_11">
      <!-- CAG -->
      <g transform="translate(162.785937 209.179375)rotate(-90)scale(0.1 -0.1)">
       <use xlink:href="#DejaVuSansMono-67"/>
       <use x="60.205078" xlink:href="#DejaVuSansMono-65"/>
       <use x="120.410156" xlink:href="#DejaVuSansMono-71"/>
      </g>
     </g>
    </g>
    <g id="xtick_12">
     <g id="line2d_12">
      <g>
       <use style="stroke:#000000;stroke-width:0.8;" x="170.4625" xlink:href="#m396493d51e" y="184.118437"/>
      </g>
     </g>
     <g id="text_12">
      <!-- CAT -->
      <g transform="translate(173.248437 209.179375)rotate(-90)scale(0.1 -0.1)">
       <use xlink:href="#DejaVuSansMono-67"/>
       <use x="60.205078" xlink:href="#DejaVuSansMono-65"/>
       <use x="120.410156" xlink:href="#DejaVuSansMono-84"/>
      </g>
     </g>
    </g>
    <g id="xtick_13">
     <g id="line2d_13">
      <g>
       <use style="stroke:#000000;stroke-width:0.8;" x="180.925" xlink:href="#m396493d51e" y="184.118437"/>
      </g>
     </g>
     <g id="text_13">
      <!-- CCA -->
      <g transform="translate(183.710938 209.179375)rotate(-90)scale(0.1 -0.1)">
       <use xlink:href="#DejaVuSansMono-67"/>
       <use x="60.205078" xlink:href="#DejaVuSansMono-67"/>
       <use x="120.410156" xlink:href="#DejaVuSansMono-65"/>
      </g>
     </g>
    </g>
    <g id="xtick_14">
     <g id="line2d_14">
      <g>
       <use style="stroke:#000000;stroke-width:0.8;" x="191.3875" xlink:href="#m396493d51e" y="184.118437"/>
      </g>
     </g>
     <g id="text_14">
      <!-- CCC -->
      <g transform="translate(194.173438 209.179375)rotate(-90)scale(0.1 -0.1)">
       <use xlink:href="#DejaVuSansMono-67"/>
       <use x="60.205078" xlink:href="#DejaVuSansMono-67"/>
       <use x="120.410156" xlink:href="#DejaVuSansMono-67"/>
      </g>
     </g>
    </g>
    <g id="xtick_15">
     <g id="line2d_15">
      <g>
       <use style="stroke:#000000;stroke-width:0.8;" x="201.85" xlink:href="#m396493d51e" y="184.118437"/>
      </g>
     </g>
     <g id="text_15">
      <!-- CCG -->
      <g transform="translate(204.635937 209.179375)rotate(-90)scale(0.1 -0.1)">
       <use xlink:href="#DejaVuSansMono-67"/>
       <use x="60.205078" xlink:href="#DejaVuSansMono-67"/>
       <use x="120.410156" xlink:href="#DejaVuSansMono-71"/>
      </g>
     </g>
    </g>
    <g id="xtick_16">
     <g id="line2d_16">
      <g>
       <use style="stroke:#000000;stroke-width:0.8;" x="212.3125" xlink:href="#m396493d51e" y="184.118437"/>
      </g>
     </g>
     <g id="text_16">
      <!-- CCT -->
      <g transform="translate(215.098437 209.179375)rotate(-90)scale(0.1 -0.1)">
       <use xlink:href="#DejaVuSansMono-67"/>
       <use x="60.205078" xlink:href="#DejaVuSansMono-67"/>
       <use x="120.410156" xlink:href="#DejaVuSansMono-84"/>
      </g>
     </g>
    </g>
    <g id="xtick_17">
     <g id="line2d_17">
      <g>
       <use style="stroke:#000000;stroke-width:0.8;" x="222.775" xlink:href="#m396493d51e" y="184.118437"/>
      </g>
     </g>
     <g id="text_17">
      <!-- GAA -->
      <g transform="translate(225.560937 209.179375)rotate(-90)scale(0.1 -0.1)">
       <use xlink:href="#DejaVuSansMono-71"/>
       <use x="60.205078" xlink:href="#DejaVuSansMono-65"/>
       <use x="120.410156" xlink:href="#DejaVuSansMono-65"/>
      </g>
     </g>
    </g>
    <g id="xtick_18">
     <g id="line2d_18">
      <g>
       <use style="stroke:#000000;stroke-width:0.8;" x="233.2375" xlink:href="#m396493d51e" y="184.118437"/>
      </g>
     </g>
     <g id="text_18">
      <!-- GAC -->
      <g transform="translate(236.023438 209.179375)rotate(-90)scale(0.1 -0.1)">
       <use xlink:href="#DejaVuSansMono-71"/>
       <use x="60.205078" xlink:href="#DejaVuSansMono-65"/>
       <use x="120.410156" xlink:href="#DejaVuSansMono-67"/>
      </g>
     </g>
    </g>
    <g id="xtick_19">
     <g id="line2d_19">
      <g>
       <use style="stroke:#000000;stroke-width:0.8;" x="243.7" xlink:href="#m396493d51e" y="184.118437"/>
      </g>
     </g>
     <g id="text_19">
      <!-- GAG -->
      <g transform="translate(246.485938 209.179375)rotate(-90)scale(0.1 -0.1)">
       <use xlink:href="#DejaVuSansMono-71"/>
       <use x="60.205078" xlink:href="#DejaVuSansMono-65"/>
       <use x="120.410156" xlink:href="#DejaVuSansMono-71"/>
      </g>
     </g>
    </g>
    <g id="xtick_20">
     <g id="line2d_20">
      <g>
       <use style="stroke:#000000;stroke-width:0.8;" x="254.1625" xlink:href="#m396493d51e" y="184.118437"/>
      </g>
     </g>
     <g id="text_20">
      <!-- GAT -->
      <g transform="translate(256.948438 209.179375)rotate(-90)scale(0.1 -0.1)">
       <use xlink:href="#DejaVuSansMono-71"/>
       <use x="60.205078" xlink:href="#DejaVuSansMono-65"/>
       <use x="120.410156" xlink:href="#DejaVuSansMono-84"/>
      </g>
     </g>
    </g>
    <g id="xtick_21">
     <g id="line2d_21">
      <g>
       <use style="stroke:#000000;stroke-width:0.8;" x="264.625" xlink:href="#m396493d51e" y="184.118437"/>
      </g>
     </g>
     <g id="text_21">
      <!-- GCA -->
      <g transform="translate(267.410937 209.179375)rotate(-90)scale(0.1 -0.1)">
       <use xlink:href="#DejaVuSansMono-71"/>
       <use x="60.205078" xlink:href="#DejaVuSansMono-67"/>
       <use x="120.410156" xlink:href="#DejaVuSansMono-65"/>
      </g>
     </g>
    </g>
    <g id="xtick_22">
     <g id="line2d_22">
      <g>
       <use style="stroke:#000000;stroke-width:0.8;" x="275.0875" xlink:href="#m396493d51e" y="184.118437"/>
      </g>
     </g>
     <g id="text_22">
      <!-- GCC -->
      <g transform="translate(277.873438 209.179375)rotate(-90)scale(0.1 -0.1)">
       <use xlink:href="#DejaVuSansMono-71"/>
       <use x="60.205078" xlink:href="#DejaVuSansMono-67"/>
       <use x="120.410156" xlink:href="#DejaVuSansMono-67"/>
      </g>
     </g>
    </g>
    <g id="xtick_23">
     <g id="line2d_23">
      <g>
       <use style="stroke:#000000;stroke-width:0.8;" x="285.55" xlink:href="#m396493d51e" y="184.118437"/>
      </g>
     </g>
     <g id="text_23">
      <!-- GCG -->
      <g transform="translate(288.335938 209.179375)rotate(-90)scale(0.1 -0.1)">
       <use xlink:href="#DejaVuSansMono-71"/>
       <use x="60.205078" xlink:href="#DejaVuSansMono-67"/>
       <use x="120.410156" xlink:href="#DejaVuSansMono-71"/>
      </g>
     </g>
    </g>
    <g id="xtick_24">
     <g id="line2d_24">
      <g>
       <use style="stroke:#000000;stroke-width:0.8;" x="296.0125" xlink:href="#m396493d51e" y="184.118437"/>
      </g>
     </g>
     <g id="text_24">
      <!-- GCT -->
      <g transform="translate(298.798438 209.179375)rotate(-90)scale(0.1 -0.1)">
       <use xlink:href="#DejaVuSansMono-71"/>
       <use x="60.205078" xlink:href="#DejaVuSansMono-67"/>
       <use x="120.410156" xlink:href="#DejaVuSansMono-84"/>
      </g>
     </g>
    </g>
    <g id="xtick_25">
     <g id="line2d_25">
      <g>
       <use style="stroke:#000000;stroke-width:0.8;" x="306.475" xlink:href="#m396493d51e" y="184.118437"/>
      </g>
     </g>
     <g id="text_25">
      <!-- TAA -->
      <g transform="translate(309.260938 209.179375)rotate(-90)scale(0.1 -0.1)">
       <use xlink:href="#DejaVuSansMono-84"/>
       <use x="60.205078" xlink:href="#DejaVuSansMono-65"/>
       <use x="120.410156" xlink:href="#DejaVuSansMono-65"/>
      </g>
     </g>
    </g>
    <g id="xtick_26">
     <g id="line2d_26">
      <g>
       <use style="stroke:#000000;stroke-width:0.8;" x="316.9375" xlink:href="#m396493d51e" y="184.118437"/>
      </g>
     </g>
     <g id="text_26">
      <!-- TAC -->
      <g transform="translate(319.723437 209.179375)rotate(-90)scale(0.1 -0.1)">
       <use xlink:href="#DejaVuSansMono-84"/>
       <use x="60.205078" xlink:href="#DejaVuSansMono-65"/>
       <use x="120.410156" xlink:href="#DejaVuSansMono-67"/>
      </g>
     </g>
    </g>
    <g id="xtick_27">
     <g id="line2d_27">
      <g>
       <use style="stroke:#000000;stroke-width:0.8;" x="327.4" xlink:href="#m396493d51e" y="184.118437"/>
      </g>
     </g>
     <g id="text_27">
      <!-- TAG -->
      <g transform="translate(330.185938 209.179375)rotate(-90)scale(0.1 -0.1)">
       <use xlink:href="#DejaVuSansMono-84"/>
       <use x="60.205078" xlink:href="#DejaVuSansMono-65"/>
       <use x="120.410156" xlink:href="#DejaVuSansMono-71"/>
      </g>
     </g>
    </g>
    <g id="xtick_28">
     <g id="line2d_28">
      <g>
       <use style="stroke:#000000;stroke-width:0.8;" x="337.8625" xlink:href="#m396493d51e" y="184.118437"/>
      </g>
     </g>
     <g id="text_28">
      <!-- TAT -->
      <g transform="translate(340.648438 209.179375)rotate(-90)scale(0.1 -0.1)">
       <use xlink:href="#DejaVuSansMono-84"/>
       <use x="60.205078" xlink:href="#DejaVuSansMono-65"/>
       <use x="120.410156" xlink:href="#DejaVuSansMono-84"/>
      </g>
     </g>
    </g>
    <g id="xtick_29">
     <g id="line2d_29">
      <g>
       <use style="stroke:#000000;stroke-width:0.8;" x="348.325" xlink:href="#m396493d51e" y="184.118437"/>
      </g>
     </g>
     <g id="text_29">
      <!-- TCA -->
      <g transform="translate(351.110937 209.179375)rotate(-90)scale(0.1 -0.1)">
       <use xlink:href="#DejaVuSansMono-84"/>
       <use x="60.205078" xlink:href="#DejaVuSansMono-67"/>
       <use x="120.410156" xlink:href="#DejaVuSansMono-65"/>
      </g>
     </g>
    </g>
    <g id="xtick_30">
     <g id="line2d_30">
      <g>
       <use style="stroke:#000000;stroke-width:0.8;" x="358.7875" xlink:href="#m396493d51e" y="184.118437"/>
      </g>
     </g>
     <g id="text_30">
      <!-- TCC -->
      <g transform="translate(361.573438 209.179375)rotate(-90)scale(0.1 -0.1)">
       <use xlink:href="#DejaVuSansMono-84"/>
       <use x="60.205078" xlink:href="#DejaVuSansMono-67"/>
       <use x="120.410156" xlink:href="#DejaVuSansMono-67"/>
      </g>
     </g>
    </g>
    <g id="xtick_31">
     <g id="line2d_31">
      <g>
       <use style="stroke:#000000;stroke-width:0.8;" x="369.25" xlink:href="#m396493d51e" y="184.118437"/>
      </g>
     </g>
     <g id="text_31">
      <!-- TCG -->
      <g transform="translate(372.035937 209.179375)rotate(-90)scale(0.1 -0.1)">
       <use xlink:href="#DejaVuSansMono-84"/>
       <use x="60.205078" xlink:href="#DejaVuSansMono-67"/>
       <use x="120.410156" xlink:href="#DejaVuSansMono-71"/>
      </g>
     </g>
    </g>
    <g id="xtick_32">
     <g id="line2d_32">
      <g>
       <use style="stroke:#000000;stroke-width:0.8;" x="379.7125" xlink:href="#m396493d51e" y="184.118437"/>
      </g>
     </g>
     <g id="text_32">
      <!-- TCT -->
      <g transform="translate(382.498438 209.179375)rotate(-90)scale(0.1 -0.1)">
       <use xlink:href="#DejaVuSansMono-84"/>
       <use x="60.205078" xlink:href="#DejaVuSansMono-67"/>
       <use x="120.410156" xlink:href="#DejaVuSansMono-84"/>
      </g>
     </g>
    </g>
    <g id="text_33">
     <!-- mutation type -->
     <defs>
      <path d="M 52 44.1875 
Q 55.375 50.25 60.0625 53.125 
Q 64.75 56 71.09375 56 
Q 79.640625 56 84.28125 50.015625 
Q 88.921875 44.046875 88.921875 33.015625 
L 88.921875 0 
L 79.890625 0 
L 79.890625 32.71875 
Q 79.890625 40.578125 77.09375 44.375 
Q 74.3125 48.1875 68.609375 48.1875 
Q 61.625 48.1875 57.5625 43.546875 
Q 53.515625 38.921875 53.515625 30.90625 
L 53.515625 0 
L 44.484375 0 
L 44.484375 32.71875 
Q 44.484375 40.625 41.703125 44.40625 
Q 38.921875 48.1875 33.109375 48.1875 
Q 26.21875 48.1875 22.15625 43.53125 
Q 18.109375 38.875 18.109375 30.90625 
L 18.109375 0 
L 9.078125 0 
L 9.078125 54.6875 
L 18.109375 54.6875 
L 18.109375 46.1875 
Q 21.1875 51.21875 25.484375 53.609375 
Q 29.78125 56 35.6875 56 
Q 41.65625 56 45.828125 52.96875 
Q 50 49.953125 52 44.1875 
z
" id="DejaVuSans-109"/>
      <path d="M 8.5 21.578125 
L 8.5 54.6875 
L 17.484375 54.6875 
L 17.484375 21.921875 
Q 17.484375 14.15625 20.5 10.265625 
Q 23.53125 6.390625 29.59375 6.390625 
Q 36.859375 6.390625 41.078125 11.03125 
Q 45.3125 15.671875 45.3125 23.6875 
L 45.3125 54.6875 
L 54.296875 54.6875 
L 54.296875 0 
L 45.3125 0 
L 45.3125 8.40625 
Q 42.046875 3.421875 37.71875 1 
Q 33.40625 -1.421875 27.6875 -1.421875 
Q 18.265625 -1.421875 13.375 4.4375 
Q 8.5 10.296875 8.5 21.578125 
z
M 31.109375 56 
z
" id="DejaVuSans-117"/>
      <path d="M 18.3125 70.21875 
L 18.3125 54.6875 
L 36.8125 54.6875 
L 36.8125 47.703125 
L 18.3125 47.703125 
L 18.3125 18.015625 
Q 18.3125 11.328125 20.140625 9.421875 
Q 21.96875 7.515625 27.59375 7.515625 
L 36.8125 7.515625 
L 36.8125 0 
L 27.59375 0 
Q 17.1875 0 13.234375 3.875 
Q 9.28125 7.765625 9.28125 18.015625 
L 9.28125 47.703125 
L 2.6875 47.703125 
L 2.6875 54.6875 
L 9.28125 54.6875 
L 9.28125 70.21875 
z
" id="DejaVuSans-116"/>
      <path d="M 34.28125 27.484375 
Q 23.390625 27.484375 19.1875 25 
Q 14.984375 22.515625 14.984375 16.5 
Q 14.984375 11.71875 18.140625 8.90625 
Q 21.296875 6.109375 26.703125 6.109375 
Q 34.1875 6.109375 38.703125 11.40625 
Q 43.21875 16.703125 43.21875 25.484375 
L 43.21875 27.484375 
z
M 52.203125 31.203125 
L 52.203125 0 
L 43.21875 0 
L 43.21875 8.296875 
Q 40.140625 3.328125 35.546875 0.953125 
Q 30.953125 -1.421875 24.3125 -1.421875 
Q 15.921875 -1.421875 10.953125 3.296875 
Q 6 8.015625 6 15.921875 
Q 6 25.140625 12.171875 29.828125 
Q 18.359375 34.515625 30.609375 34.515625 
L 43.21875 34.515625 
L 43.21875 35.40625 
Q 43.21875 41.609375 39.140625 45 
Q 35.0625 48.390625 27.6875 48.390625 
Q 23 48.390625 18.546875 47.265625 
Q 14.109375 46.140625 10.015625 43.890625 
L 10.015625 52.203125 
Q 14.9375 54.109375 19.578125 55.046875 
Q 24.21875 56 28.609375 56 
Q 40.484375 56 46.34375 49.84375 
Q 52.203125 43.703125 52.203125 31.203125 
z
" id="DejaVuSans-97"/>
      <path d="M 9.421875 54.6875 
L 18.40625 54.6875 
L 18.40625 0 
L 9.421875 0 
z
M 9.421875 75.984375 
L 18.40625 75.984375 
L 18.40625 64.59375 
L 9.421875 64.59375 
z
" id="DejaVuSans-105"/>
      <path d="M 30.609375 48.390625 
Q 23.390625 48.390625 19.1875 42.75 
Q 14.984375 37.109375 14.984375 27.296875 
Q 14.984375 17.484375 19.15625 11.84375 
Q 23.34375 6.203125 30.609375 6.203125 
Q 37.796875 6.203125 41.984375 11.859375 
Q 46.1875 17.53125 46.1875 27.296875 
Q 46.1875 37.015625 41.984375 42.703125 
Q 37.796875 48.390625 30.609375 48.390625 
z
M 30.609375 56 
Q 42.328125 56 49.015625 48.375 
Q 55.71875 40.765625 55.71875 27.296875 
Q 55.71875 13.875 49.015625 6.21875 
Q 42.328125 -1.421875 30.609375 -1.421875 
Q 18.84375 -1.421875 12.171875 6.21875 
Q 5.515625 13.875 5.515625 27.296875 
Q 5.515625 40.765625 12.171875 48.375 
Q 18.84375 56 30.609375 56 
z
" id="DejaVuSans-111"/>
      <path d="M 54.890625 33.015625 
L 54.890625 0 
L 45.90625 0 
L 45.90625 32.71875 
Q 45.90625 40.484375 42.875 44.328125 
Q 39.84375 48.1875 33.796875 48.1875 
Q 26.515625 48.1875 22.3125 43.546875 
Q 18.109375 38.921875 18.109375 30.90625 
L 18.109375 0 
L 9.078125 0 
L 9.078125 54.6875 
L 18.109375 54.6875 
L 18.109375 46.1875 
Q 21.34375 51.125 25.703125 53.5625 
Q 30.078125 56 35.796875 56 
Q 45.21875 56 50.046875 50.171875 
Q 54.890625 44.34375 54.890625 33.015625 
z
" id="DejaVuSans-110"/>
      <path id="DejaVuSans-32"/>
      <path d="M 32.171875 -5.078125 
Q 28.375 -14.84375 24.75 -17.8125 
Q 21.140625 -20.796875 15.09375 -20.796875 
L 7.90625 -20.796875 
L 7.90625 -13.28125 
L 13.1875 -13.28125 
Q 16.890625 -13.28125 18.9375 -11.515625 
Q 21 -9.765625 23.484375 -3.21875 
L 25.09375 0.875 
L 2.984375 54.6875 
L 12.5 54.6875 
L 29.59375 11.921875 
L 46.6875 54.6875 
L 56.203125 54.6875 
z
" id="DejaVuSans-121"/>
      <path d="M 18.109375 8.203125 
L 18.109375 -20.796875 
L 9.078125 -20.796875 
L 9.078125 54.6875 
L 18.109375 54.6875 
L 18.109375 46.390625 
Q 20.953125 51.265625 25.265625 53.625 
Q 29.59375 56 35.59375 56 
Q 45.5625 56 51.78125 48.09375 
Q 58.015625 40.1875 58.015625 27.296875 
Q 58.015625 14.40625 51.78125 6.484375 
Q 45.5625 -1.421875 35.59375 -1.421875 
Q 29.59375 -1.421875 25.265625 0.953125 
Q 20.953125 3.328125 18.109375 8.203125 
z
M 48.6875 27.296875 
Q 48.6875 37.203125 44.609375 42.84375 
Q 40.53125 48.484375 33.40625 48.484375 
Q 26.265625 48.484375 22.1875 42.84375 
Q 18.109375 37.203125 18.109375 27.296875 
Q 18.109375 17.390625 22.1875 11.75 
Q 26.265625 6.109375 33.40625 6.109375 
Q 40.53125 6.109375 44.609375 11.75 
Q 48.6875 17.390625 48.6875 27.296875 
z
" id="DejaVuSans-112"/>
      <path d="M 56.203125 29.59375 
L 56.203125 25.203125 
L 14.890625 25.203125 
Q 15.484375 15.921875 20.484375 11.0625 
Q 25.484375 6.203125 34.421875 6.203125 
Q 39.59375 6.203125 44.453125 7.46875 
Q 49.3125 8.734375 54.109375 11.28125 
L 54.109375 2.78125 
Q 49.265625 0.734375 44.1875 -0.34375 
Q 39.109375 -1.421875 33.890625 -1.421875 
Q 20.796875 -1.421875 13.15625 6.1875 
Q 5.515625 13.8125 5.515625 26.8125 
Q 5.515625 40.234375 12.765625 48.109375 
Q 20.015625 56 32.328125 56 
Q 43.359375 56 49.78125 48.890625 
Q 56.203125 41.796875 56.203125 29.59375 
z
M 47.21875 32.234375 
Q 47.125 39.59375 43.09375 43.984375 
Q 39.0625 48.390625 32.421875 48.390625 
Q 24.90625 48.390625 20.390625 44.140625 
Q 15.875 39.890625 15.1875 32.171875 
z
" id="DejaVuSans-101"/>
     </defs>
     <g transform="translate(182.14375 220.777813)scale(0.1 -0.1)">
      <use xlink:href="#DejaVuSans-109"/>
      <use x="97.412109" xlink:href="#DejaVuSans-117"/>
      <use x="160.791016" xlink:href="#DejaVuSans-116"/>
      <use x="200" xlink:href="#DejaVuSans-97"/>
      <use x="261.279297" xlink:href="#DejaVuSans-116"/>
      <use x="300.488281" xlink:href="#DejaVuSans-105"/>
      <use x="328.271484" xlink:href="#DejaVuSans-111"/>
      <use x="389.453125" xlink:href="#DejaVuSans-110"/>
      <use x="452.832031" xlink:href="#DejaVuSans-32"/>
      <use x="484.619141" xlink:href="#DejaVuSans-116"/>
      <use x="523.828125" xlink:href="#DejaVuSans-121"/>
      <use x="583.007812" xlink:href="#DejaVuSans-112"/>
      <use x="646.484375" xlink:href="#DejaVuSans-101"/>
     </g>
    </g>
   </g>
   <g id="matplotlib.axis_2">
    <g id="ytick_1">
     <g id="line2d_33">
      <defs>
       <path d="M 0 0 
L -3.5 0 
" id="m419ac1f16c" style="stroke:#000000;stroke-width:0.8;"/>
      </defs>
      <g>
       <use style="stroke:#000000;stroke-width:0.8;" x="50.14375" xlink:href="#m419ac1f16c" y="184.118437"/>
      </g>
     </g>
     <g id="text_34">
      <!-- 0.00 -->
      <defs>
       <path d="M 31.78125 66.40625 
Q 24.171875 66.40625 20.328125 58.90625 
Q 16.5 51.421875 16.5 36.375 
Q 16.5 21.390625 20.328125 13.890625 
Q 24.171875 6.390625 31.78125 6.390625 
Q 39.453125 6.390625 43.28125 13.890625 
Q 47.125 21.390625 47.125 36.375 
Q 47.125 51.421875 43.28125 58.90625 
Q 39.453125 66.40625 31.78125 66.40625 
z
M 31.78125 74.21875 
Q 44.046875 74.21875 50.515625 64.515625 
Q 56.984375 54.828125 56.984375 36.375 
Q 56.984375 17.96875 50.515625 8.265625 
Q 44.046875 -1.421875 31.78125 -1.421875 
Q 19.53125 -1.421875 13.0625 8.265625 
Q 6.59375 17.96875 6.59375 36.375 
Q 6.59375 54.828125 13.0625 64.515625 
Q 19.53125 74.21875 31.78125 74.21875 
z
" id="DejaVuSans-48"/>
       <path d="M 10.6875 12.40625 
L 21 12.40625 
L 21 0 
L 10.6875 0 
z
" id="DejaVuSans-46"/>
      </defs>
      <g transform="translate(20.878125 187.917656)scale(0.1 -0.1)">
       <use xlink:href="#DejaVuSans-48"/>
       <use x="63.623047" xlink:href="#DejaVuSans-46"/>
       <use x="95.410156" xlink:href="#DejaVuSans-48"/>
       <use x="159.033203" xlink:href="#DejaVuSans-48"/>
      </g>
     </g>
    </g>
    <g id="ytick_2">
     <g id="line2d_34">
      <g>
       <use style="stroke:#000000;stroke-width:0.8;" x="50.14375" xlink:href="#m419ac1f16c" y="158.818359"/>
      </g>
     </g>
     <g id="text_35">
      <!-- 0.25 -->
      <defs>
       <path d="M 19.1875 8.296875 
L 53.609375 8.296875 
L 53.609375 0 
L 7.328125 0 
L 7.328125 8.296875 
Q 12.9375 14.109375 22.625 23.890625 
Q 32.328125 33.6875 34.8125 36.53125 
Q 39.546875 41.84375 41.421875 45.53125 
Q 43.3125 49.21875 43.3125 52.78125 
Q 43.3125 58.59375 39.234375 62.25 
Q 35.15625 65.921875 28.609375 65.921875 
Q 23.96875 65.921875 18.8125 64.3125 
Q 13.671875 62.703125 7.8125 59.421875 
L 7.8125 69.390625 
Q 13.765625 71.78125 18.9375 73 
Q 24.125 74.21875 28.421875 74.21875 
Q 39.75 74.21875 46.484375 68.546875 
Q 53.21875 62.890625 53.21875 53.421875 
Q 53.21875 48.921875 51.53125 44.890625 
Q 49.859375 40.875 45.40625 35.40625 
Q 44.1875 33.984375 37.640625 27.21875 
Q 31.109375 20.453125 19.1875 8.296875 
z
" id="DejaVuSans-50"/>
       <path d="M 10.796875 72.90625 
L 49.515625 72.90625 
L 49.515625 64.59375 
L 19.828125 64.59375 
L 19.828125 46.734375 
Q 21.96875 47.46875 24.109375 47.828125 
Q 26.265625 48.1875 28.421875 48.1875 
Q 40.625 48.1875 47.75 41.5 
Q 54.890625 34.8125 54.890625 23.390625 
Q 54.890625 11.625 47.5625 5.09375 
Q 40.234375 -1.421875 26.90625 -1.421875 
Q 22.3125 -1.421875 17.546875 -0.640625 
Q 12.796875 0.140625 7.71875 1.703125 
L 7.71875 11.625 
Q 12.109375 9.234375 16.796875 8.0625 
Q 21.484375 6.890625 26.703125 6.890625 
Q 35.15625 6.890625 40.078125 11.328125 
Q 45.015625 15.765625 45.015625 23.390625 
Q 45.015625 31 40.078125 35.4375 
Q 35.15625 39.890625 26.703125 39.890625 
Q 22.75 39.890625 18.8125 39.015625 
Q 14.890625 38.140625 10.796875 36.28125 
z
" id="DejaVuSans-53"/>
      </defs>
      <g transform="translate(20.878125 162.617578)scale(0.1 -0.1)">
       <use xlink:href="#DejaVuSans-48"/>
       <use x="63.623047" xlink:href="#DejaVuSans-46"/>
       <use x="95.410156" xlink:href="#DejaVuSans-50"/>
       <use x="159.033203" xlink:href="#DejaVuSans-53"/>
      </g>
     </g>
    </g>
    <g id="ytick_3">
     <g id="line2d_35">
      <g>
       <use style="stroke:#000000;stroke-width:0.8;" x="50.14375" xlink:href="#m419ac1f16c" y="133.518281"/>
      </g>
     </g>
     <g id="text_36">
      <!-- 0.50 -->
      <g transform="translate(20.878125 137.317499)scale(0.1 -0.1)">
       <use xlink:href="#DejaVuSans-48"/>
       <use x="63.623047" xlink:href="#DejaVuSans-46"/>
       <use x="95.410156" xlink:href="#DejaVuSans-53"/>
       <use x="159.033203" xlink:href="#DejaVuSans-48"/>
      </g>
     </g>
    </g>
    <g id="ytick_4">
     <g id="line2d_36">
      <g>
       <use style="stroke:#000000;stroke-width:0.8;" x="50.14375" xlink:href="#m419ac1f16c" y="108.218202"/>
      </g>
     </g>
     <g id="text_37">
      <!-- 0.75 -->
      <defs>
       <path d="M 8.203125 72.90625 
L 55.078125 72.90625 
L 55.078125 68.703125 
L 28.609375 0 
L 18.3125 0 
L 43.21875 64.59375 
L 8.203125 64.59375 
z
" id="DejaVuSans-55"/>
      </defs>
      <g transform="translate(20.878125 112.017421)scale(0.1 -0.1)">
       <use xlink:href="#DejaVuSans-48"/>
       <use x="63.623047" xlink:href="#DejaVuSans-46"/>
       <use x="95.410156" xlink:href="#DejaVuSans-55"/>
       <use x="159.033203" xlink:href="#DejaVuSans-53"/>
      </g>
     </g>
    </g>
    <g id="ytick_5">
     <g id="line2d_37">
      <g>
       <use style="stroke:#000000;stroke-width:0.8;" x="50.14375" xlink:href="#m419ac1f16c" y="82.918124"/>
      </g>
     </g>
     <g id="text_38">
      <!-- 1.00 -->
      <defs>
       <path d="M 12.40625 8.296875 
L 28.515625 8.296875 
L 28.515625 63.921875 
L 10.984375 60.40625 
L 10.984375 69.390625 
L 28.421875 72.90625 
L 38.28125 72.90625 
L 38.28125 8.296875 
L 54.390625 8.296875 
L 54.390625 0 
L 12.40625 0 
z
" id="DejaVuSans-49"/>
      </defs>
      <g transform="translate(20.878125 86.717343)scale(0.1 -0.1)">
       <use xlink:href="#DejaVuSans-49"/>
       <use x="63.623047" xlink:href="#DejaVuSans-46"/>
       <use x="95.410156" xlink:href="#DejaVuSans-48"/>
       <use x="159.033203" xlink:href="#DejaVuSans-48"/>
      </g>
     </g>
    </g>
    <g id="ytick_6">
     <g id="line2d_38">
      <g>
       <use style="stroke:#000000;stroke-width:0.8;" x="50.14375" xlink:href="#m419ac1f16c" y="57.618045"/>
      </g>
     </g>
     <g id="text_39">
      <!-- 1.25 -->
      <g transform="translate(20.878125 61.417264)scale(0.1 -0.1)">
       <use xlink:href="#DejaVuSans-49"/>
       <use x="63.623047" xlink:href="#DejaVuSans-46"/>
       <use x="95.410156" xlink:href="#DejaVuSans-50"/>
       <use x="159.033203" xlink:href="#DejaVuSans-53"/>
      </g>
     </g>
    </g>
    <g id="ytick_7">
     <g id="line2d_39">
      <g>
       <use style="stroke:#000000;stroke-width:0.8;" x="50.14375" xlink:href="#m419ac1f16c" y="32.317967"/>
      </g>
     </g>
     <g id="text_40">
      <!-- 1.50 -->
      <g transform="translate(20.878125 36.117186)scale(0.1 -0.1)">
       <use xlink:href="#DejaVuSans-49"/>
       <use x="63.623047" xlink:href="#DejaVuSans-46"/>
       <use x="95.410156" xlink:href="#DejaVuSans-53"/>
       <use x="159.033203" xlink:href="#DejaVuSans-48"/>
      </g>
     </g>
    </g>
    <g id="text_41">
     <!-- mutational target size (sites) -->
     <defs>
      <path d="M 9.421875 75.984375 
L 18.40625 75.984375 
L 18.40625 0 
L 9.421875 0 
z
" id="DejaVuSans-108"/>
      <path d="M 41.109375 46.296875 
Q 39.59375 47.171875 37.8125 47.578125 
Q 36.03125 48 33.890625 48 
Q 26.265625 48 22.1875 43.046875 
Q 18.109375 38.09375 18.109375 28.8125 
L 18.109375 0 
L 9.078125 0 
L 9.078125 54.6875 
L 18.109375 54.6875 
L 18.109375 46.1875 
Q 20.953125 51.171875 25.484375 53.578125 
Q 30.03125 56 36.53125 56 
Q 37.453125 56 38.578125 55.875 
Q 39.703125 55.765625 41.0625 55.515625 
z
" id="DejaVuSans-114"/>
      <path d="M 45.40625 27.984375 
Q 45.40625 37.75 41.375 43.109375 
Q 37.359375 48.484375 30.078125 48.484375 
Q 22.859375 48.484375 18.828125 43.109375 
Q 14.796875 37.75 14.796875 27.984375 
Q 14.796875 18.265625 18.828125 12.890625 
Q 22.859375 7.515625 30.078125 7.515625 
Q 37.359375 7.515625 41.375 12.890625 
Q 45.40625 18.265625 45.40625 27.984375 
z
M 54.390625 6.78125 
Q 54.390625 -7.171875 48.1875 -13.984375 
Q 42 -20.796875 29.203125 -20.796875 
Q 24.46875 -20.796875 20.265625 -20.09375 
Q 16.0625 -19.390625 12.109375 -17.921875 
L 12.109375 -9.1875 
Q 16.0625 -11.328125 19.921875 -12.34375 
Q 23.78125 -13.375 27.78125 -13.375 
Q 36.625 -13.375 41.015625 -8.765625 
Q 45.40625 -4.15625 45.40625 5.171875 
L 45.40625 9.625 
Q 42.625 4.78125 38.28125 2.390625 
Q 33.9375 0 27.875 0 
Q 17.828125 0 11.671875 7.65625 
Q 5.515625 15.328125 5.515625 27.984375 
Q 5.515625 40.671875 11.671875 48.328125 
Q 17.828125 56 27.875 56 
Q 33.9375 56 38.28125 53.609375 
Q 42.625 51.21875 45.40625 46.390625 
L 45.40625 54.6875 
L 54.390625 54.6875 
z
" id="DejaVuSans-103"/>
      <path d="M 44.28125 53.078125 
L 44.28125 44.578125 
Q 40.484375 46.53125 36.375 47.5 
Q 32.28125 48.484375 27.875 48.484375 
Q 21.1875 48.484375 17.84375 46.4375 
Q 14.5 44.390625 14.5 40.28125 
Q 14.5 37.15625 16.890625 35.375 
Q 19.28125 33.59375 26.515625 31.984375 
L 29.59375 31.296875 
Q 39.15625 29.25 43.1875 25.515625 
Q 47.21875 21.78125 47.21875 15.09375 
Q 47.21875 7.46875 41.1875 3.015625 
Q 35.15625 -1.421875 24.609375 -1.421875 
Q 20.21875 -1.421875 15.453125 -0.5625 
Q 10.6875 0.296875 5.421875 2 
L 5.421875 11.28125 
Q 10.40625 8.6875 15.234375 7.390625 
Q 20.0625 6.109375 24.8125 6.109375 
Q 31.15625 6.109375 34.5625 8.28125 
Q 37.984375 10.453125 37.984375 14.40625 
Q 37.984375 18.0625 35.515625 20.015625 
Q 33.0625 21.96875 24.703125 23.78125 
L 21.578125 24.515625 
Q 13.234375 26.265625 9.515625 29.90625 
Q 5.8125 33.546875 5.8125 39.890625 
Q 5.8125 47.609375 11.28125 51.796875 
Q 16.75 56 26.8125 56 
Q 31.78125 56 36.171875 55.265625 
Q 40.578125 54.546875 44.28125 53.078125 
z
" id="DejaVuSans-115"/>
      <path d="M 5.515625 54.6875 
L 48.1875 54.6875 
L 48.1875 46.484375 
L 14.40625 7.171875 
L 48.1875 7.171875 
L 48.1875 0 
L 4.296875 0 
L 4.296875 8.203125 
L 38.09375 47.515625 
L 5.515625 47.515625 
z
" id="DejaVuSans-122"/>
      <path d="M 31 75.875 
Q 24.46875 64.65625 21.28125 53.65625 
Q 18.109375 42.671875 18.109375 31.390625 
Q 18.109375 20.125 21.3125 9.0625 
Q 24.515625 -2 31 -13.1875 
L 23.1875 -13.1875 
Q 15.875 -1.703125 12.234375 9.375 
Q 8.59375 20.453125 8.59375 31.390625 
Q 8.59375 42.28125 12.203125 53.3125 
Q 15.828125 64.359375 23.1875 75.875 
z
" id="DejaVuSans-40"/>
      <path d="M 8.015625 75.875 
L 15.828125 75.875 
Q 23.140625 64.359375 26.78125 53.3125 
Q 30.421875 42.28125 30.421875 31.390625 
Q 30.421875 20.453125 26.78125 9.375 
Q 23.140625 -1.703125 15.828125 -13.1875 
L 8.015625 -13.1875 
Q 14.5 -2 17.703125 9.0625 
Q 20.90625 20.125 20.90625 31.390625 
Q 20.90625 42.671875 17.703125 53.65625 
Q 14.5 64.65625 8.015625 75.875 
z
" id="DejaVuSans-41"/>
     </defs>
     <g transform="translate(14.798438 173.25375)rotate(-90)scale(0.1 -0.1)">
      <use xlink:href="#DejaVuSans-109"/>
      <use x="97.412109" xlink:href="#DejaVuSans-117"/>
      <use x="160.791016" xlink:href="#DejaVuSans-116"/>
      <use x="200" xlink:href="#DejaVuSans-97"/>
      <use x="261.279297" xlink:href="#DejaVuSans-116"/>
      <use x="300.488281" xlink:href="#DejaVuSans-105"/>
      <use x="328.271484" xlink:href="#DejaVuSans-111"/>
      <use x="389.453125" xlink:href="#DejaVuSans-110"/>
      <use x="452.832031" xlink:href="#DejaVuSans-97"/>
      <use x="514.111328" xlink:href="#DejaVuSans-108"/>
      <use x="541.894531" xlink:href="#DejaVuSans-32"/>
      <use x="573.681641" xlink:href="#DejaVuSans-116"/>
      <use x="612.890625" xlink:href="#DejaVuSans-97"/>
      <use x="674.169922" xlink:href="#DejaVuSans-114"/>
      <use x="713.533203" xlink:href="#DejaVuSans-103"/>
      <use x="777.009766" xlink:href="#DejaVuSans-101"/>
      <use x="838.533203" xlink:href="#DejaVuSans-116"/>
      <use x="877.742188" xlink:href="#DejaVuSans-32"/>
      <use x="909.529297" xlink:href="#DejaVuSans-115"/>
      <use x="961.628906" xlink:href="#DejaVuSans-105"/>
      <use x="989.412109" xlink:href="#DejaVuSans-122"/>
      <use x="1041.902344" xlink:href="#DejaVuSans-101"/>
      <use x="1103.425781" xlink:href="#DejaVuSans-32"/>
      <use x="1135.212891" xlink:href="#DejaVuSans-40"/>
      <use x="1174.226562" xlink:href="#DejaVuSans-115"/>
      <use x="1226.326172" xlink:href="#DejaVuSans-105"/>
      <use x="1254.109375" xlink:href="#DejaVuSans-116"/>
      <use x="1293.318359" xlink:href="#DejaVuSans-101"/>
      <use x="1354.841797" xlink:href="#DejaVuSans-115"/>
      <use x="1406.941406" xlink:href="#DejaVuSans-41"/>
     </g>
    </g>
    <g id="text_42">
     <!-- 1e8 -->
     <defs>
      <path d="M 31.78125 34.625 
Q 24.75 34.625 20.71875 30.859375 
Q 16.703125 27.09375 16.703125 20.515625 
Q 16.703125 13.921875 20.71875 10.15625 
Q 24.75 6.390625 31.78125 6.390625 
Q 38.8125 6.390625 42.859375 10.171875 
Q 46.921875 13.96875 46.921875 20.515625 
Q 46.921875 27.09375 42.890625 30.859375 
Q 38.875 34.625 31.78125 34.625 
z
M 21.921875 38.8125 
Q 15.578125 40.375 12.03125 44.71875 
Q 8.5 49.078125 8.5 55.328125 
Q 8.5 64.0625 14.71875 69.140625 
Q 20.953125 74.21875 31.78125 74.21875 
Q 42.671875 74.21875 48.875 69.140625 
Q 55.078125 64.0625 55.078125 55.328125 
Q 55.078125 49.078125 51.53125 44.71875 
Q 48 40.375 41.703125 38.8125 
Q 48.828125 37.15625 52.796875 32.3125 
Q 56.78125 27.484375 56.78125 20.515625 
Q 56.78125 9.90625 50.3125 4.234375 
Q 43.84375 -1.421875 31.78125 -1.421875 
Q 19.734375 -1.421875 13.25 4.234375 
Q 6.78125 9.90625 6.78125 20.515625 
Q 6.78125 27.484375 10.78125 32.3125 
Q 14.796875 37.15625 21.921875 38.8125 
z
M 18.3125 54.390625 
Q 18.3125 48.734375 21.84375 45.5625 
Q 25.390625 42.390625 31.78125 42.390625 
Q 38.140625 42.390625 41.71875 45.5625 
Q 45.3125 48.734375 45.3125 54.390625 
Q 45.3125 60.0625 41.71875 63.234375 
Q 38.140625 66.40625 31.78125 66.40625 
Q 25.390625 66.40625 21.84375 63.234375 
Q 18.3125 60.0625 18.3125 54.390625 
z
" id="DejaVuSans-56"/>
     </defs>
     <g transform="translate(50.14375 14.798437)scale(0.1 -0.1)">
      <use xlink:href="#DejaVuSans-49"/>
      <use x="63.623047" xlink:href="#DejaVuSans-101"/>
      <use x="125.146484" xlink:href="#DejaVuSans-56"/>
     </g>
    </g>
   </g>
   <g id="patch_35">
    <path d="M 50.14375 184.118437 
L 50.14375 17.798437 
" style="fill:none;stroke:#000000;stroke-linecap:square;stroke-linejoin:miter;stroke-width:0.8;"/>
   </g>
   <g id="patch_36">
    <path d="M 384.94375 184.118437 
L 384.94375 17.798437 
" style="fill:none;stroke:#000000;stroke-linecap:square;stroke-linejoin:miter;stroke-width:0.8;"/>
   </g>
   <g id="patch_37">
    <path d="M 50.14375 184.118437 
L 384.94375 184.118437 
" style="fill:none;stroke:#000000;stroke-linecap:square;stroke-linejoin:miter;stroke-width:0.8;"/>
   </g>
   <g id="patch_38">
    <path d="M 50.14375 17.798437 
L 384.94375 17.798437 
" style="fill:none;stroke:#000000;stroke-linecap:square;stroke-linejoin:miter;stroke-width:0.8;"/>
   </g>
  </g>
 </g>
 <defs>
  <clipPath id="p37aa7264e3">
   <rect height="166.32" width="334.8" x="50.14375" y="17.798437"/>
  </clipPath>
 </defs>
</svg>
