<?xml version="1.0" encoding="utf-8" standalone="no"?>
<!DOCTYPE svg PUBLIC "-//W3C//DTD SVG 1.1//EN"
  "http://www.w3.org/Graphics/SVG/1.1/DTD/svg11.dtd">
<!-- Created with matplotlib (https://matplotlib.org/) -->
<svg height="274.978125pt" version="1.1" viewBox="0 0 280.49 274.978125" width="280.49pt" xmlns="http://www.w3.org/2000/svg" xmlns:xlink="http://www.w3.org/1999/xlink">
 <defs>
  <style type="text/css">
*{stroke-linecap:butt;stroke-linejoin:round;}
  </style>
 </defs>
 <g id="figure_1">
  <g id="patch_1">
   <path d="M 0 274.978125 
L 280.49 274.978125 
L 280.49 0 
L 0 0 
z
" style="fill:#ffffff;"/>
  </g>
  <g id="axes_1">
   <g id="patch_2">
    <path d="M 63.35875 237.4 
L 273.29 237.4 
L 273.29 7.2 
L 63.35875 7.2 
z
" style="fill:#ffffff;"/>
   </g>
   <g id="matplotlib.axis_1">
    <g id="xtick_1">
     <g id="line2d_1">
      <defs>
       <path d="M 0 0 
L 0 3.5 
" id="md15284cb66" style="stroke:#000000;stroke-width:0.8;"/>
      </defs>
      <g>
       <use style="stroke:#000000;stroke-width:0.8;" x="111.070398" xlink:href="#md15284cb66" y="237.4"/>
      </g>
     </g>
     <g id="text_1">
      <!-- $\mathdefault{10^{1}}$ -->
      <defs>
       <path d="M 12.40625 8.296875 
L 28.515625 8.296875 
L 28.515625 63.921875 
L 10.984375 60.40625 
L 10.984375 69.390625 
L 28.421875 72.90625 
L 38.28125 72.90625 
L 38.28125 8.296875 
L 54.390625 8.296875 
L 54.390625 0 
L 12.40625 0 
z
" id="DejaVuSans-49"/>
       <path d="M 31.78125 66.40625 
Q 24.171875 66.40625 20.328125 58.90625 
Q 16.5 51.421875 16.5 36.375 
Q 16.5 21.390625 20.328125 13.890625 
Q 24.171875 6.390625 31.78125 6.390625 
Q 39.453125 6.390625 43.28125 13.890625 
Q 47.125 21.390625 47.125 36.375 
Q 47.125 51.421875 43.28125 58.90625 
Q 39.453125 66.40625 31.78125 66.40625 
z
M 31.78125 74.21875 
Q 44.046875 74.21875 50.515625 64.515625 
Q 56.984375 54.828125 56.984375 36.375 
Q 56.984375 17.96875 50.515625 8.265625 
Q 44.046875 -1.421875 31.78125 -1.421875 
Q 19.53125 -1.421875 13.0625 8.265625 
Q 6.59375 17.96875 6.59375 36.375 
Q 6.59375 54.828125 13.0625 64.515625 
Q 19.53125 74.21875 31.78125 74.21875 
z
" id="DejaVuSans-48"/>
      </defs>
      <g transform="translate(102.270398 251.998437)scale(0.1 -0.1)">
       <use transform="translate(0 0.684375)" xlink:href="#DejaVuSans-49"/>
       <use transform="translate(63.623047 0.684375)" xlink:href="#DejaVuSans-48"/>
       <use transform="translate(128.203125 38.965625)scale(0.7)" xlink:href="#DejaVuSans-49"/>
      </g>
     </g>
    </g>
    <g id="xtick_2">
     <g id="line2d_2">
      <g>
       <use style="stroke:#000000;stroke-width:0.8;" x="187.409034" xlink:href="#md15284cb66" y="237.4"/>
      </g>
     </g>
     <g id="text_2">
      <!-- $\mathdefault{10^{3}}$ -->
      <defs>
       <path d="M 40.578125 39.3125 
Q 47.65625 37.796875 51.625 33 
Q 55.609375 28.21875 55.609375 21.1875 
Q 55.609375 10.40625 48.1875 4.484375 
Q 40.765625 -1.421875 27.09375 -1.421875 
Q 22.515625 -1.421875 17.65625 -0.515625 
Q 12.796875 0.390625 7.625 2.203125 
L 7.625 11.71875 
Q 11.71875 9.328125 16.59375 8.109375 
Q 21.484375 6.890625 26.8125 6.890625 
Q 36.078125 6.890625 40.9375 10.546875 
Q 45.796875 14.203125 45.796875 21.1875 
Q 45.796875 27.640625 41.28125 31.265625 
Q 36.765625 34.90625 28.71875 34.90625 
L 20.21875 34.90625 
L 20.21875 43.015625 
L 29.109375 43.015625 
Q 36.375 43.015625 40.234375 45.921875 
Q 44.09375 48.828125 44.09375 54.296875 
Q 44.09375 59.90625 40.109375 62.90625 
Q 36.140625 65.921875 28.71875 65.921875 
Q 24.65625 65.921875 20.015625 65.03125 
Q 15.375 64.15625 9.8125 62.3125 
L 9.8125 71.09375 
Q 15.4375 72.65625 20.34375 73.4375 
Q 25.25 74.21875 29.59375 74.21875 
Q 40.828125 74.21875 47.359375 69.109375 
Q 53.90625 64.015625 53.90625 55.328125 
Q 53.90625 49.265625 50.4375 45.09375 
Q 46.96875 40.921875 40.578125 39.3125 
z
" id="DejaVuSans-51"/>
      </defs>
      <g transform="translate(178.609034 251.998437)scale(0.1 -0.1)">
       <use transform="translate(0 0.765625)" xlink:href="#DejaVuSans-49"/>
       <use transform="translate(63.623047 0.765625)" xlink:href="#DejaVuSans-48"/>
       <use transform="translate(128.203125 39.046875)scale(0.7)" xlink:href="#DejaVuSans-51"/>
      </g>
     </g>
    </g>
    <g id="xtick_3">
     <g id="line2d_3">
      <g>
       <use style="stroke:#000000;stroke-width:0.8;" x="263.74767" xlink:href="#md15284cb66" y="237.4"/>
      </g>
     </g>
     <g id="text_3">
      <!-- $\mathdefault{10^{5}}$ -->
      <defs>
       <path d="M 10.796875 72.90625 
L 49.515625 72.90625 
L 49.515625 64.59375 
L 19.828125 64.59375 
L 19.828125 46.734375 
Q 21.96875 47.46875 24.109375 47.828125 
Q 26.265625 48.1875 28.421875 48.1875 
Q 40.625 48.1875 47.75 41.5 
Q 54.890625 34.8125 54.890625 23.390625 
Q 54.890625 11.625 47.5625 5.09375 
Q 40.234375 -1.421875 26.90625 -1.421875 
Q 22.3125 -1.421875 17.546875 -0.640625 
Q 12.796875 0.140625 7.71875 1.703125 
L 7.71875 11.625 
Q 12.109375 9.234375 16.796875 8.0625 
Q 21.484375 6.890625 26.703125 6.890625 
Q 35.15625 6.890625 40.078125 11.328125 
Q 45.015625 15.765625 45.015625 23.390625 
Q 45.015625 31 40.078125 35.4375 
Q 35.15625 39.890625 26.703125 39.890625 
Q 22.75 39.890625 18.8125 39.015625 
Q 14.890625 38.140625 10.796875 36.28125 
z
" id="DejaVuSans-53"/>
      </defs>
      <g transform="translate(254.94767 251.998437)scale(0.1 -0.1)">
       <use transform="translate(0 0.684375)" xlink:href="#DejaVuSans-49"/>
       <use transform="translate(63.623047 0.684375)" xlink:href="#DejaVuSans-48"/>
       <use transform="translate(128.203125 38.965625)scale(0.7)" xlink:href="#DejaVuSans-53"/>
      </g>
     </g>
    </g>
    <g id="text_4">
     <!-- $t$ (generations ago) -->
     <defs>
      <path d="M 42.28125 54.6875 
L 40.921875 47.703125 
L 23 47.703125 
L 17.1875 18.015625 
Q 16.890625 16.359375 16.75 15.234375 
Q 16.609375 14.109375 16.609375 13.484375 
Q 16.609375 10.359375 18.484375 8.9375 
Q 20.359375 7.515625 24.515625 7.515625 
L 33.59375 7.515625 
L 32.078125 0 
L 23.484375 0 
Q 15.484375 0 11.546875 3.125 
Q 7.625 6.25 7.625 12.59375 
Q 7.625 13.71875 7.765625 15.0625 
Q 7.90625 16.40625 8.203125 18.015625 
L 14.015625 47.703125 
L 6.390625 47.703125 
L 7.8125 54.6875 
L 15.28125 54.6875 
L 18.3125 70.21875 
L 27.296875 70.21875 
L 24.3125 54.6875 
z
" id="DejaVuSans-Oblique-116"/>
      <path id="DejaVuSans-32"/>
      <path d="M 31 75.875 
Q 24.46875 64.65625 21.28125 53.65625 
Q 18.109375 42.671875 18.109375 31.390625 
Q 18.109375 20.125 21.3125 9.0625 
Q 24.515625 -2 31 -13.1875 
L 23.1875 -13.1875 
Q 15.875 -1.703125 12.234375 9.375 
Q 8.59375 20.453125 8.59375 31.390625 
Q 8.59375 42.28125 12.203125 53.3125 
Q 15.828125 64.359375 23.1875 75.875 
z
" id="DejaVuSans-40"/>
      <path d="M 45.40625 27.984375 
Q 45.40625 37.75 41.375 43.109375 
Q 37.359375 48.484375 30.078125 48.484375 
Q 22.859375 48.484375 18.828125 43.109375 
Q 14.796875 37.75 14.796875 27.984375 
Q 14.796875 18.265625 18.828125 12.890625 
Q 22.859375 7.515625 30.078125 7.515625 
Q 37.359375 7.515625 41.375 12.890625 
Q 45.40625 18.265625 45.40625 27.984375 
z
M 54.390625 6.78125 
Q 54.390625 -7.171875 48.1875 -13.984375 
Q 42 -20.796875 29.203125 -20.796875 
Q 24.46875 -20.796875 20.265625 -20.09375 
Q 16.0625 -19.390625 12.109375 -17.921875 
L 12.109375 -9.1875 
Q 16.0625 -11.328125 19.921875 -12.34375 
Q 23.78125 -13.375 27.78125 -13.375 
Q 36.625 -13.375 41.015625 -8.765625 
Q 45.40625 -4.15625 45.40625 5.171875 
L 45.40625 9.625 
Q 42.625 4.78125 38.28125 2.390625 
Q 33.9375 0 27.875 0 
Q 17.828125 0 11.671875 7.65625 
Q 5.515625 15.328125 5.515625 27.984375 
Q 5.515625 40.671875 11.671875 48.328125 
Q 17.828125 56 27.875 56 
Q 33.9375 56 38.28125 53.609375 
Q 42.625 51.21875 45.40625 46.390625 
L 45.40625 54.6875 
L 54.390625 54.6875 
z
" id="DejaVuSans-103"/>
      <path d="M 56.203125 29.59375 
L 56.203125 25.203125 
L 14.890625 25.203125 
Q 15.484375 15.921875 20.484375 11.0625 
Q 25.484375 6.203125 34.421875 6.203125 
Q 39.59375 6.203125 44.453125 7.46875 
Q 49.3125 8.734375 54.109375 11.28125 
L 54.109375 2.78125 
Q 49.265625 0.734375 44.1875 -0.34375 
Q 39.109375 -1.421875 33.890625 -1.421875 
Q 20.796875 -1.421875 13.15625 6.1875 
Q 5.515625 13.8125 5.515625 26.8125 
Q 5.515625 40.234375 12.765625 48.109375 
Q 20.015625 56 32.328125 56 
Q 43.359375 56 49.78125 48.890625 
Q 56.203125 41.796875 56.203125 29.59375 
z
M 47.21875 32.234375 
Q 47.125 39.59375 43.09375 43.984375 
Q 39.0625 48.390625 32.421875 48.390625 
Q 24.90625 48.390625 20.390625 44.140625 
Q 15.875 39.890625 15.1875 32.171875 
z
" id="DejaVuSans-101"/>
      <path d="M 54.890625 33.015625 
L 54.890625 0 
L 45.90625 0 
L 45.90625 32.71875 
Q 45.90625 40.484375 42.875 44.328125 
Q 39.84375 48.1875 33.796875 48.1875 
Q 26.515625 48.1875 22.3125 43.546875 
Q 18.109375 38.921875 18.109375 30.90625 
L 18.109375 0 
L 9.078125 0 
L 9.078125 54.6875 
L 18.109375 54.6875 
L 18.109375 46.1875 
Q 21.34375 51.125 25.703125 53.5625 
Q 30.078125 56 35.796875 56 
Q 45.21875 56 50.046875 50.171875 
Q 54.890625 44.34375 54.890625 33.015625 
z
" id="DejaVuSans-110"/>
      <path d="M 41.109375 46.296875 
Q 39.59375 47.171875 37.8125 47.578125 
Q 36.03125 48 33.890625 48 
Q 26.265625 48 22.1875 43.046875 
Q 18.109375 38.09375 18.109375 28.8125 
L 18.109375 0 
L 9.078125 0 
L 9.078125 54.6875 
L 18.109375 54.6875 
L 18.109375 46.1875 
Q 20.953125 51.171875 25.484375 53.578125 
Q 30.03125 56 36.53125 56 
Q 37.453125 56 38.578125 55.875 
Q 39.703125 55.765625 41.0625 55.515625 
z
" id="DejaVuSans-114"/>
      <path d="M 34.28125 27.484375 
Q 23.390625 27.484375 19.1875 25 
Q 14.984375 22.515625 14.984375 16.5 
Q 14.984375 11.71875 18.140625 8.90625 
Q 21.296875 6.109375 26.703125 6.109375 
Q 34.1875 6.109375 38.703125 11.40625 
Q 43.21875 16.703125 43.21875 25.484375 
L 43.21875 27.484375 
z
M 52.203125 31.203125 
L 52.203125 0 
L 43.21875 0 
L 43.21875 8.296875 
Q 40.140625 3.328125 35.546875 0.953125 
Q 30.953125 -1.421875 24.3125 -1.421875 
Q 15.921875 -1.421875 10.953125 3.296875 
Q 6 8.015625 6 15.921875 
Q 6 25.140625 12.171875 29.828125 
Q 18.359375 34.515625 30.609375 34.515625 
L 43.21875 34.515625 
L 43.21875 35.40625 
Q 43.21875 41.609375 39.140625 45 
Q 35.0625 48.390625 27.6875 48.390625 
Q 23 48.390625 18.546875 47.265625 
Q 14.109375 46.140625 10.015625 43.890625 
L 10.015625 52.203125 
Q 14.9375 54.109375 19.578125 55.046875 
Q 24.21875 56 28.609375 56 
Q 40.484375 56 46.34375 49.84375 
Q 52.203125 43.703125 52.203125 31.203125 
z
" id="DejaVuSans-97"/>
      <path d="M 18.3125 70.21875 
L 18.3125 54.6875 
L 36.8125 54.6875 
L 36.8125 47.703125 
L 18.3125 47.703125 
L 18.3125 18.015625 
Q 18.3125 11.328125 20.140625 9.421875 
Q 21.96875 7.515625 27.59375 7.515625 
L 36.8125 7.515625 
L 36.8125 0 
L 27.59375 0 
Q 17.1875 0 13.234375 3.875 
Q 9.28125 7.765625 9.28125 18.015625 
L 9.28125 47.703125 
L 2.6875 47.703125 
L 2.6875 54.6875 
L 9.28125 54.6875 
L 9.28125 70.21875 
z
" id="DejaVuSans-116"/>
      <path d="M 9.421875 54.6875 
L 18.40625 54.6875 
L 18.40625 0 
L 9.421875 0 
z
M 9.421875 75.984375 
L 18.40625 75.984375 
L 18.40625 64.59375 
L 9.421875 64.59375 
z
" id="DejaVuSans-105"/>
      <path d="M 30.609375 48.390625 
Q 23.390625 48.390625 19.1875 42.75 
Q 14.984375 37.109375 14.984375 27.296875 
Q 14.984375 17.484375 19.15625 11.84375 
Q 23.34375 6.203125 30.609375 6.203125 
Q 37.796875 6.203125 41.984375 11.859375 
Q 46.1875 17.53125 46.1875 27.296875 
Q 46.1875 37.015625 41.984375 42.703125 
Q 37.796875 48.390625 30.609375 48.390625 
z
M 30.609375 56 
Q 42.328125 56 49.015625 48.375 
Q 55.71875 40.765625 55.71875 27.296875 
Q 55.71875 13.875 49.015625 6.21875 
Q 42.328125 -1.421875 30.609375 -1.421875 
Q 18.84375 -1.421875 12.171875 6.21875 
Q 5.515625 13.875 5.515625 27.296875 
Q 5.515625 40.765625 12.171875 48.375 
Q 18.84375 56 30.609375 56 
z
" id="DejaVuSans-111"/>
      <path d="M 44.28125 53.078125 
L 44.28125 44.578125 
Q 40.484375 46.53125 36.375 47.5 
Q 32.28125 48.484375 27.875 48.484375 
Q 21.1875 48.484375 17.84375 46.4375 
Q 14.5 44.390625 14.5 40.28125 
Q 14.5 37.15625 16.890625 35.375 
Q 19.28125 33.59375 26.515625 31.984375 
L 29.59375 31.296875 
Q 39.15625 29.25 43.1875 25.515625 
Q 47.21875 21.78125 47.21875 15.09375 
Q 47.21875 7.46875 41.1875 3.015625 
Q 35.15625 -1.421875 24.609375 -1.421875 
Q 20.21875 -1.421875 15.453125 -0.5625 
Q 10.6875 0.296875 5.421875 2 
L 5.421875 11.28125 
Q 10.40625 8.6875 15.234375 7.390625 
Q 20.0625 6.109375 24.8125 6.109375 
Q 31.15625 6.109375 34.5625 8.28125 
Q 37.984375 10.453125 37.984375 14.40625 
Q 37.984375 18.0625 35.515625 20.015625 
Q 33.0625 21.96875 24.703125 23.78125 
L 21.578125 24.515625 
Q 13.234375 26.265625 9.515625 29.90625 
Q 5.8125 33.546875 5.8125 39.890625 
Q 5.8125 47.609375 11.28125 51.796875 
Q 16.75 56 26.8125 56 
Q 31.78125 56 36.171875 55.265625 
Q 40.578125 54.546875 44.28125 53.078125 
z
" id="DejaVuSans-115"/>
      <path d="M 8.015625 75.875 
L 15.828125 75.875 
Q 23.140625 64.359375 26.78125 53.3125 
Q 30.421875 42.28125 30.421875 31.390625 
Q 30.421875 20.453125 26.78125 9.375 
Q 23.140625 -1.703125 15.828125 -13.1875 
L 8.015625 -13.1875 
Q 14.5 -2 17.703125 9.0625 
Q 20.90625 20.125 20.90625 31.390625 
Q 20.90625 42.671875 17.703125 53.65625 
Q 14.5 64.65625 8.015625 75.875 
z
" id="DejaVuSans-41"/>
     </defs>
     <g transform="translate(120.174375 265.678125)scale(0.1 -0.1)">
      <use transform="translate(0 0.015625)" xlink:href="#DejaVuSans-Oblique-116"/>
      <use transform="translate(39.208984 0.015625)" xlink:href="#DejaVuSans-32"/>
      <use transform="translate(70.996094 0.015625)" xlink:href="#DejaVuSans-40"/>
      <use transform="translate(110.009766 0.015625)" xlink:href="#DejaVuSans-103"/>
      <use transform="translate(173.486328 0.015625)" xlink:href="#DejaVuSans-101"/>
      <use transform="translate(235.009766 0.015625)" xlink:href="#DejaVuSans-110"/>
      <use transform="translate(298.388672 0.015625)" xlink:href="#DejaVuSans-101"/>
      <use transform="translate(359.912109 0.015625)" xlink:href="#DejaVuSans-114"/>
      <use transform="translate(401.025391 0.015625)" xlink:href="#DejaVuSans-97"/>
      <use transform="translate(462.304688 0.015625)" xlink:href="#DejaVuSans-116"/>
      <use transform="translate(501.513672 0.015625)" xlink:href="#DejaVuSans-105"/>
      <use transform="translate(529.296875 0.015625)" xlink:href="#DejaVuSans-111"/>
      <use transform="translate(590.478516 0.015625)" xlink:href="#DejaVuSans-110"/>
      <use transform="translate(653.857422 0.015625)" xlink:href="#DejaVuSans-115"/>
      <use transform="translate(705.957031 0.015625)" xlink:href="#DejaVuSans-32"/>
      <use transform="translate(737.744141 0.015625)" xlink:href="#DejaVuSans-97"/>
      <use transform="translate(799.023438 0.015625)" xlink:href="#DejaVuSans-103"/>
      <use transform="translate(862.5 0.015625)" xlink:href="#DejaVuSans-111"/>
      <use transform="translate(923.681641 0.015625)" xlink:href="#DejaVuSans-41"/>
     </g>
    </g>
   </g>
   <g id="matplotlib.axis_2">
    <g id="ytick_1">
     <g id="line2d_4">
      <defs>
       <path d="M 0 0 
L -3.5 0 
" id="mce45581062" style="stroke:#000000;stroke-width:0.8;"/>
      </defs>
      <g>
       <use style="stroke:#000000;stroke-width:0.8;" x="63.35875" xlink:href="#mce45581062" y="230.095269"/>
      </g>
     </g>
     <g id="text_5">
      <!-- −0.8 -->
      <defs>
       <path d="M 10.59375 35.5 
L 73.1875 35.5 
L 73.1875 27.203125 
L 10.59375 27.203125 
z
" id="DejaVuSans-8722"/>
       <path d="M 10.6875 12.40625 
L 21 12.40625 
L 21 0 
L 10.6875 0 
z
" id="DejaVuSans-46"/>
       <path d="M 31.78125 34.625 
Q 24.75 34.625 20.71875 30.859375 
Q 16.703125 27.09375 16.703125 20.515625 
Q 16.703125 13.921875 20.71875 10.15625 
Q 24.75 6.390625 31.78125 6.390625 
Q 38.8125 6.390625 42.859375 10.171875 
Q 46.921875 13.96875 46.921875 20.515625 
Q 46.921875 27.09375 42.890625 30.859375 
Q 38.875 34.625 31.78125 34.625 
z
M 21.921875 38.8125 
Q 15.578125 40.375 12.03125 44.71875 
Q 8.5 49.078125 8.5 55.328125 
Q 8.5 64.0625 14.71875 69.140625 
Q 20.953125 74.21875 31.78125 74.21875 
Q 42.671875 74.21875 48.875 69.140625 
Q 55.078125 64.0625 55.078125 55.328125 
Q 55.078125 49.078125 51.53125 44.71875 
Q 48 40.375 41.703125 38.8125 
Q 48.828125 37.15625 52.796875 32.3125 
Q 56.78125 27.484375 56.78125 20.515625 
Q 56.78125 9.90625 50.3125 4.234375 
Q 43.84375 -1.421875 31.78125 -1.421875 
Q 19.734375 -1.421875 13.25 4.234375 
Q 6.78125 9.90625 6.78125 20.515625 
Q 6.78125 27.484375 10.78125 32.3125 
Q 14.796875 37.15625 21.921875 38.8125 
z
M 18.3125 54.390625 
Q 18.3125 48.734375 21.84375 45.5625 
Q 25.390625 42.390625 31.78125 42.390625 
Q 38.140625 42.390625 41.71875 45.5625 
Q 45.3125 48.734375 45.3125 54.390625 
Q 45.3125 60.0625 41.71875 63.234375 
Q 38.140625 66.40625 31.78125 66.40625 
Q 25.390625 66.40625 21.84375 63.234375 
Q 18.3125 60.0625 18.3125 54.390625 
z
" id="DejaVuSans-56"/>
      </defs>
      <g transform="translate(32.075938 233.894488)scale(0.1 -0.1)">
       <use xlink:href="#DejaVuSans-8722"/>
       <use x="83.789062" xlink:href="#DejaVuSans-48"/>
       <use x="147.412109" xlink:href="#DejaVuSans-46"/>
       <use x="179.199219" xlink:href="#DejaVuSans-56"/>
      </g>
     </g>
    </g>
    <g id="ytick_2">
     <g id="line2d_5">
      <g>
       <use style="stroke:#000000;stroke-width:0.8;" x="63.35875" xlink:href="#mce45581062" y="201.308118"/>
      </g>
     </g>
     <g id="text_6">
      <!-- −0.6 -->
      <defs>
       <path d="M 33.015625 40.375 
Q 26.375 40.375 22.484375 35.828125 
Q 18.609375 31.296875 18.609375 23.390625 
Q 18.609375 15.53125 22.484375 10.953125 
Q 26.375 6.390625 33.015625 6.390625 
Q 39.65625 6.390625 43.53125 10.953125 
Q 47.40625 15.53125 47.40625 23.390625 
Q 47.40625 31.296875 43.53125 35.828125 
Q 39.65625 40.375 33.015625 40.375 
z
M 52.59375 71.296875 
L 52.59375 62.3125 
Q 48.875 64.0625 45.09375 64.984375 
Q 41.3125 65.921875 37.59375 65.921875 
Q 27.828125 65.921875 22.671875 59.328125 
Q 17.53125 52.734375 16.796875 39.40625 
Q 19.671875 43.65625 24.015625 45.921875 
Q 28.375 48.1875 33.59375 48.1875 
Q 44.578125 48.1875 50.953125 41.515625 
Q 57.328125 34.859375 57.328125 23.390625 
Q 57.328125 12.15625 50.6875 5.359375 
Q 44.046875 -1.421875 33.015625 -1.421875 
Q 20.359375 -1.421875 13.671875 8.265625 
Q 6.984375 17.96875 6.984375 36.375 
Q 6.984375 53.65625 15.1875 63.9375 
Q 23.390625 74.21875 37.203125 74.21875 
Q 40.921875 74.21875 44.703125 73.484375 
Q 48.484375 72.75 52.59375 71.296875 
z
" id="DejaVuSans-54"/>
      </defs>
      <g transform="translate(32.075938 205.107337)scale(0.1 -0.1)">
       <use xlink:href="#DejaVuSans-8722"/>
       <use x="83.789062" xlink:href="#DejaVuSans-48"/>
       <use x="147.412109" xlink:href="#DejaVuSans-46"/>
       <use x="179.199219" xlink:href="#DejaVuSans-54"/>
      </g>
     </g>
    </g>
    <g id="ytick_3">
     <g id="line2d_6">
      <g>
       <use style="stroke:#000000;stroke-width:0.8;" x="63.35875" xlink:href="#mce45581062" y="172.520968"/>
      </g>
     </g>
     <g id="text_7">
      <!-- −0.4 -->
      <defs>
       <path d="M 37.796875 64.3125 
L 12.890625 25.390625 
L 37.796875 25.390625 
z
M 35.203125 72.90625 
L 47.609375 72.90625 
L 47.609375 25.390625 
L 58.015625 25.390625 
L 58.015625 17.1875 
L 47.609375 17.1875 
L 47.609375 0 
L 37.796875 0 
L 37.796875 17.1875 
L 4.890625 17.1875 
L 4.890625 26.703125 
z
" id="DejaVuSans-52"/>
      </defs>
      <g transform="translate(32.075938 176.320187)scale(0.1 -0.1)">
       <use xlink:href="#DejaVuSans-8722"/>
       <use x="83.789062" xlink:href="#DejaVuSans-48"/>
       <use x="147.412109" xlink:href="#DejaVuSans-46"/>
       <use x="179.199219" xlink:href="#DejaVuSans-52"/>
      </g>
     </g>
    </g>
    <g id="ytick_4">
     <g id="line2d_7">
      <g>
       <use style="stroke:#000000;stroke-width:0.8;" x="63.35875" xlink:href="#mce45581062" y="143.733818"/>
      </g>
     </g>
     <g id="text_8">
      <!-- −0.2 -->
      <defs>
       <path d="M 19.1875 8.296875 
L 53.609375 8.296875 
L 53.609375 0 
L 7.328125 0 
L 7.328125 8.296875 
Q 12.9375 14.109375 22.625 23.890625 
Q 32.328125 33.6875 34.8125 36.53125 
Q 39.546875 41.84375 41.421875 45.53125 
Q 43.3125 49.21875 43.3125 52.78125 
Q 43.3125 58.59375 39.234375 62.25 
Q 35.15625 65.921875 28.609375 65.921875 
Q 23.96875 65.921875 18.8125 64.3125 
Q 13.671875 62.703125 7.8125 59.421875 
L 7.8125 69.390625 
Q 13.765625 71.78125 18.9375 73 
Q 24.125 74.21875 28.421875 74.21875 
Q 39.75 74.21875 46.484375 68.546875 
Q 53.21875 62.890625 53.21875 53.421875 
Q 53.21875 48.921875 51.53125 44.890625 
Q 49.859375 40.875 45.40625 35.40625 
Q 44.1875 33.984375 37.640625 27.21875 
Q 31.109375 20.453125 19.1875 8.296875 
z
" id="DejaVuSans-50"/>
      </defs>
      <g transform="translate(32.075938 147.533037)scale(0.1 -0.1)">
       <use xlink:href="#DejaVuSans-8722"/>
       <use x="83.789062" xlink:href="#DejaVuSans-48"/>
       <use x="147.412109" xlink:href="#DejaVuSans-46"/>
       <use x="179.199219" xlink:href="#DejaVuSans-50"/>
      </g>
     </g>
    </g>
    <g id="ytick_5">
     <g id="line2d_8">
      <g>
       <use style="stroke:#000000;stroke-width:0.8;" x="63.35875" xlink:href="#mce45581062" y="114.946667"/>
      </g>
     </g>
     <g id="text_9">
      <!-- 0.0 -->
      <g transform="translate(40.455625 118.745886)scale(0.1 -0.1)">
       <use xlink:href="#DejaVuSans-48"/>
       <use x="63.623047" xlink:href="#DejaVuSans-46"/>
       <use x="95.410156" xlink:href="#DejaVuSans-48"/>
      </g>
     </g>
    </g>
    <g id="ytick_6">
     <g id="line2d_9">
      <g>
       <use style="stroke:#000000;stroke-width:0.8;" x="63.35875" xlink:href="#mce45581062" y="86.159517"/>
      </g>
     </g>
     <g id="text_10">
      <!-- 0.2 -->
      <g transform="translate(40.455625 89.958736)scale(0.1 -0.1)">
       <use xlink:href="#DejaVuSans-48"/>
       <use x="63.623047" xlink:href="#DejaVuSans-46"/>
       <use x="95.410156" xlink:href="#DejaVuSans-50"/>
      </g>
     </g>
    </g>
    <g id="ytick_7">
     <g id="line2d_10">
      <g>
       <use style="stroke:#000000;stroke-width:0.8;" x="63.35875" xlink:href="#mce45581062" y="57.372367"/>
      </g>
     </g>
     <g id="text_11">
      <!-- 0.4 -->
      <g transform="translate(40.455625 61.171585)scale(0.1 -0.1)">
       <use xlink:href="#DejaVuSans-48"/>
       <use x="63.623047" xlink:href="#DejaVuSans-46"/>
       <use x="95.410156" xlink:href="#DejaVuSans-52"/>
      </g>
     </g>
    </g>
    <g id="ytick_8">
     <g id="line2d_11">
      <g>
       <use style="stroke:#000000;stroke-width:0.8;" x="63.35875" xlink:href="#mce45581062" y="28.585216"/>
      </g>
     </g>
     <g id="text_12">
      <!-- 0.6 -->
      <g transform="translate(40.455625 32.384435)scale(0.1 -0.1)">
       <use xlink:href="#DejaVuSans-48"/>
       <use x="63.623047" xlink:href="#DejaVuSans-46"/>
       <use x="95.410156" xlink:href="#DejaVuSans-54"/>
      </g>
     </g>
    </g>
    <g id="text_13">
     <!-- mutation intensity composition -->
     <defs>
      <path d="M 52 44.1875 
Q 55.375 50.25 60.0625 53.125 
Q 64.75 56 71.09375 56 
Q 79.640625 56 84.28125 50.015625 
Q 88.921875 44.046875 88.921875 33.015625 
L 88.921875 0 
L 79.890625 0 
L 79.890625 32.71875 
Q 79.890625 40.578125 77.09375 44.375 
Q 74.3125 48.1875 68.609375 48.1875 
Q 61.625 48.1875 57.5625 43.546875 
Q 53.515625 38.921875 53.515625 30.90625 
L 53.515625 0 
L 44.484375 0 
L 44.484375 32.71875 
Q 44.484375 40.625 41.703125 44.40625 
Q 38.921875 48.1875 33.109375 48.1875 
Q 26.21875 48.1875 22.15625 43.53125 
Q 18.109375 38.875 18.109375 30.90625 
L 18.109375 0 
L 9.078125 0 
L 9.078125 54.6875 
L 18.109375 54.6875 
L 18.109375 46.1875 
Q 21.1875 51.21875 25.484375 53.609375 
Q 29.78125 56 35.6875 56 
Q 41.65625 56 45.828125 52.96875 
Q 50 49.953125 52 44.1875 
z
" id="DejaVuSans-109"/>
      <path d="M 8.5 21.578125 
L 8.5 54.6875 
L 17.484375 54.6875 
L 17.484375 21.921875 
Q 17.484375 14.15625 20.5 10.265625 
Q 23.53125 6.390625 29.59375 6.390625 
Q 36.859375 6.390625 41.078125 11.03125 
Q 45.3125 15.671875 45.3125 23.6875 
L 45.3125 54.6875 
L 54.296875 54.6875 
L 54.296875 0 
L 45.3125 0 
L 45.3125 8.40625 
Q 42.046875 3.421875 37.71875 1 
Q 33.40625 -1.421875 27.6875 -1.421875 
Q 18.265625 -1.421875 13.375 4.4375 
Q 8.5 10.296875 8.5 21.578125 
z
M 31.109375 56 
z
" id="DejaVuSans-117"/>
      <path d="M 32.171875 -5.078125 
Q 28.375 -14.84375 24.75 -17.8125 
Q 21.140625 -20.796875 15.09375 -20.796875 
L 7.90625 -20.796875 
L 7.90625 -13.28125 
L 13.1875 -13.28125 
Q 16.890625 -13.28125 18.9375 -11.515625 
Q 21 -9.765625 23.484375 -3.21875 
L 25.09375 0.875 
L 2.984375 54.6875 
L 12.5 54.6875 
L 29.59375 11.921875 
L 46.6875 54.6875 
L 56.203125 54.6875 
z
" id="DejaVuSans-121"/>
      <path d="M 48.78125 52.59375 
L 48.78125 44.1875 
Q 44.96875 46.296875 41.140625 47.34375 
Q 37.3125 48.390625 33.40625 48.390625 
Q 24.65625 48.390625 19.8125 42.84375 
Q 14.984375 37.3125 14.984375 27.296875 
Q 14.984375 17.28125 19.8125 11.734375 
Q 24.65625 6.203125 33.40625 6.203125 
Q 37.3125 6.203125 41.140625 7.25 
Q 44.96875 8.296875 48.78125 10.40625 
L 48.78125 2.09375 
Q 45.015625 0.34375 40.984375 -0.53125 
Q 36.96875 -1.421875 32.421875 -1.421875 
Q 20.0625 -1.421875 12.78125 6.34375 
Q 5.515625 14.109375 5.515625 27.296875 
Q 5.515625 40.671875 12.859375 48.328125 
Q 20.21875 56 33.015625 56 
Q 37.15625 56 41.109375 55.140625 
Q 45.0625 54.296875 48.78125 52.59375 
z
" id="DejaVuSans-99"/>
      <path d="M 18.109375 8.203125 
L 18.109375 -20.796875 
L 9.078125 -20.796875 
L 9.078125 54.6875 
L 18.109375 54.6875 
L 18.109375 46.390625 
Q 20.953125 51.265625 25.265625 53.625 
Q 29.59375 56 35.59375 56 
Q 45.5625 56 51.78125 48.09375 
Q 58.015625 40.1875 58.015625 27.296875 
Q 58.015625 14.40625 51.78125 6.484375 
Q 45.5625 -1.421875 35.59375 -1.421875 
Q 29.59375 -1.421875 25.265625 0.953125 
Q 20.953125 3.328125 18.109375 8.203125 
z
M 48.6875 27.296875 
Q 48.6875 37.203125 44.609375 42.84375 
Q 40.53125 48.484375 33.40625 48.484375 
Q 26.265625 48.484375 22.1875 42.84375 
Q 18.109375 37.203125 18.109375 27.296875 
Q 18.109375 17.390625 22.1875 11.75 
Q 26.265625 6.109375 33.40625 6.109375 
Q 40.53125 6.109375 44.609375 11.75 
Q 48.6875 17.390625 48.6875 27.296875 
z
" id="DejaVuSans-112"/>
     </defs>
     <g transform="translate(14.798438 200.278906)rotate(-90)scale(0.1 -0.1)">
      <use xlink:href="#DejaVuSans-109"/>
      <use x="97.412109" xlink:href="#DejaVuSans-117"/>
      <use x="160.791016" xlink:href="#DejaVuSans-116"/>
      <use x="200" xlink:href="#DejaVuSans-97"/>
      <use x="261.279297" xlink:href="#DejaVuSans-116"/>
      <use x="300.488281" xlink:href="#DejaVuSans-105"/>
      <use x="328.271484" xlink:href="#DejaVuSans-111"/>
      <use x="389.453125" xlink:href="#DejaVuSans-110"/>
      <use x="452.832031" xlink:href="#DejaVuSans-32"/>
      <use x="484.619141" xlink:href="#DejaVuSans-105"/>
      <use x="512.402344" xlink:href="#DejaVuSans-110"/>
      <use x="575.78125" xlink:href="#DejaVuSans-116"/>
      <use x="614.990234" xlink:href="#DejaVuSans-101"/>
      <use x="676.513672" xlink:href="#DejaVuSans-110"/>
      <use x="739.892578" xlink:href="#DejaVuSans-115"/>
      <use x="791.992188" xlink:href="#DejaVuSans-105"/>
      <use x="819.775391" xlink:href="#DejaVuSans-116"/>
      <use x="858.984375" xlink:href="#DejaVuSans-121"/>
      <use x="918.164062" xlink:href="#DejaVuSans-32"/>
      <use x="949.951172" xlink:href="#DejaVuSans-99"/>
      <use x="1004.931641" xlink:href="#DejaVuSans-111"/>
      <use x="1066.113281" xlink:href="#DejaVuSans-109"/>
      <use x="1163.525391" xlink:href="#DejaVuSans-112"/>
      <use x="1227.001953" xlink:href="#DejaVuSans-111"/>
      <use x="1288.183594" xlink:href="#DejaVuSans-115"/>
      <use x="1340.283203" xlink:href="#DejaVuSans-105"/>
      <use x="1368.066406" xlink:href="#DejaVuSans-116"/>
      <use x="1407.275391" xlink:href="#DejaVuSans-105"/>
      <use x="1435.058594" xlink:href="#DejaVuSans-111"/>
      <use x="1496.240234" xlink:href="#DejaVuSans-110"/>
     </g>
     <!-- (CLR transformed) -->
     <defs>
      <path d="M 64.40625 67.28125 
L 64.40625 56.890625 
Q 59.421875 61.53125 53.78125 63.8125 
Q 48.140625 66.109375 41.796875 66.109375 
Q 29.296875 66.109375 22.65625 58.46875 
Q 16.015625 50.828125 16.015625 36.375 
Q 16.015625 21.96875 22.65625 14.328125 
Q 29.296875 6.6875 41.796875 6.6875 
Q 48.140625 6.6875 53.78125 8.984375 
Q 59.421875 11.28125 64.40625 15.921875 
L 64.40625 5.609375 
Q 59.234375 2.09375 53.4375 0.328125 
Q 47.65625 -1.421875 41.21875 -1.421875 
Q 24.65625 -1.421875 15.125 8.703125 
Q 5.609375 18.84375 5.609375 36.375 
Q 5.609375 53.953125 15.125 64.078125 
Q 24.65625 74.21875 41.21875 74.21875 
Q 47.75 74.21875 53.53125 72.484375 
Q 59.328125 70.75 64.40625 67.28125 
z
" id="DejaVuSans-67"/>
      <path d="M 9.8125 72.90625 
L 19.671875 72.90625 
L 19.671875 8.296875 
L 55.171875 8.296875 
L 55.171875 0 
L 9.8125 0 
z
" id="DejaVuSans-76"/>
      <path d="M 44.390625 34.1875 
Q 47.5625 33.109375 50.5625 29.59375 
Q 53.5625 26.078125 56.59375 19.921875 
L 66.609375 0 
L 56 0 
L 46.6875 18.703125 
Q 43.0625 26.03125 39.671875 28.421875 
Q 36.28125 30.8125 30.421875 30.8125 
L 19.671875 30.8125 
L 19.671875 0 
L 9.8125 0 
L 9.8125 72.90625 
L 32.078125 72.90625 
Q 44.578125 72.90625 50.734375 67.671875 
Q 56.890625 62.453125 56.890625 51.90625 
Q 56.890625 45.015625 53.6875 40.46875 
Q 50.484375 35.9375 44.390625 34.1875 
z
M 19.671875 64.796875 
L 19.671875 38.921875 
L 32.078125 38.921875 
Q 39.203125 38.921875 42.84375 42.21875 
Q 46.484375 45.515625 46.484375 51.90625 
Q 46.484375 58.296875 42.84375 61.546875 
Q 39.203125 64.796875 32.078125 64.796875 
z
" id="DejaVuSans-82"/>
      <path d="M 37.109375 75.984375 
L 37.109375 68.5 
L 28.515625 68.5 
Q 23.6875 68.5 21.796875 66.546875 
Q 19.921875 64.59375 19.921875 59.515625 
L 19.921875 54.6875 
L 34.71875 54.6875 
L 34.71875 47.703125 
L 19.921875 47.703125 
L 19.921875 0 
L 10.890625 0 
L 10.890625 47.703125 
L 2.296875 47.703125 
L 2.296875 54.6875 
L 10.890625 54.6875 
L 10.890625 58.5 
Q 10.890625 67.625 15.140625 71.796875 
Q 19.390625 75.984375 28.609375 75.984375 
z
" id="DejaVuSans-102"/>
      <path d="M 45.40625 46.390625 
L 45.40625 75.984375 
L 54.390625 75.984375 
L 54.390625 0 
L 45.40625 0 
L 45.40625 8.203125 
Q 42.578125 3.328125 38.25 0.953125 
Q 33.9375 -1.421875 27.875 -1.421875 
Q 17.96875 -1.421875 11.734375 6.484375 
Q 5.515625 14.40625 5.515625 27.296875 
Q 5.515625 40.1875 11.734375 48.09375 
Q 17.96875 56 27.875 56 
Q 33.9375 56 38.25 53.625 
Q 42.578125 51.265625 45.40625 46.390625 
z
M 14.796875 27.296875 
Q 14.796875 17.390625 18.875 11.75 
Q 22.953125 6.109375 30.078125 6.109375 
Q 37.203125 6.109375 41.296875 11.75 
Q 45.40625 17.390625 45.40625 27.296875 
Q 45.40625 37.203125 41.296875 42.84375 
Q 37.203125 48.484375 30.078125 48.484375 
Q 22.953125 48.484375 18.875 42.84375 
Q 14.796875 37.203125 14.796875 27.296875 
z
" id="DejaVuSans-100"/>
     </defs>
     <g transform="translate(25.99625 168.303906)rotate(-90)scale(0.1 -0.1)">
      <use xlink:href="#DejaVuSans-40"/>
      <use x="39.013672" xlink:href="#DejaVuSans-67"/>
      <use x="108.837891" xlink:href="#DejaVuSans-76"/>
      <use x="164.550781" xlink:href="#DejaVuSans-82"/>
      <use x="234.033203" xlink:href="#DejaVuSans-32"/>
      <use x="265.820312" xlink:href="#DejaVuSans-116"/>
      <use x="305.029297" xlink:href="#DejaVuSans-114"/>
      <use x="346.142578" xlink:href="#DejaVuSans-97"/>
      <use x="407.421875" xlink:href="#DejaVuSans-110"/>
      <use x="470.800781" xlink:href="#DejaVuSans-115"/>
      <use x="522.900391" xlink:href="#DejaVuSans-102"/>
      <use x="558.105469" xlink:href="#DejaVuSans-111"/>
      <use x="619.287109" xlink:href="#DejaVuSans-114"/>
      <use x="658.650391" xlink:href="#DejaVuSans-109"/>
      <use x="756.0625" xlink:href="#DejaVuSans-101"/>
      <use x="817.585938" xlink:href="#DejaVuSans-100"/>
      <use x="881.0625" xlink:href="#DejaVuSans-41"/>
     </g>
    </g>
   </g>
   <g id="line2d_12">
    <path clip-path="url(#p91600589c2)" d="M -1 40.189199 
L 148.664299 40.295028 
L 152.500411 40.513597 
L 157.295552 40.475892 
L 179.353198 40.115047 
L 197.574732 40.016895 
L 202.369872 39.507254 
L 222.509462 39.500228 
L 263.74767 39.500228 
L 263.74767 39.500228 
" style="fill:none;stroke:#1f77b4;stroke-linecap:square;stroke-opacity:0.1;stroke-width:2;"/>
   </g>
   <g id="line2d_13">
    <path clip-path="url(#p91600589c2)" d="M -1 99.083181 
L 148.664299 99.18901 
L 152.500411 99.407579 
L 157.295552 99.369873 
L 179.353198 99.009028 
L 197.574732 98.910876 
L 202.369872 98.401236 
L 222.509462 98.394209 
L 263.74767 98.394209 
L 263.74767 98.394209 
" style="fill:none;stroke:#1f77b4;stroke-linecap:square;stroke-opacity:0.1;stroke-width:2;"/>
   </g>
   <g id="line2d_14">
    <path clip-path="url(#p91600589c2)" d="M -1 74.099643 
L 148.664299 74.205472 
L 152.500411 74.424041 
L 157.295552 74.386336 
L 179.353198 74.025491 
L 197.574732 73.927339 
L 202.369872 73.417698 
L 222.509462 73.410672 
L 263.74767 73.410672 
L 263.74767 73.410672 
" style="fill:none;stroke:#1f77b4;stroke-linecap:square;stroke-opacity:0.1;stroke-width:2;"/>
   </g>
   <g id="line2d_15">
    <path clip-path="url(#p91600589c2)" d="M -1 19.598865 
L 148.664299 19.704694 
L 152.500411 19.923263 
L 157.295552 19.885558 
L 179.353198 19.524713 
L 197.574732 19.426561 
L 202.369872 18.91692 
L 222.509462 18.909894 
L 263.74767 18.909894 
L 263.74767 18.909894 
" style="fill:none;stroke:#1f77b4;stroke-linecap:square;stroke-opacity:0.1;stroke-width:2;"/>
   </g>
   <g id="line2d_16">
    <path clip-path="url(#p91600589c2)" d="M -1 35.719751 
L 148.664299 35.825579 
L 152.500411 36.044148 
L 157.295552 36.006443 
L 179.353198 35.645598 
L 197.574732 35.547446 
L 202.369872 35.037806 
L 222.509462 35.030779 
L 263.74767 35.030779 
L 263.74767 35.030779 
" style="fill:none;stroke:#1f77b4;stroke-linecap:square;stroke-opacity:0.1;stroke-width:2;"/>
   </g>
   <g id="line2d_17">
    <path clip-path="url(#p91600589c2)" d="M -1 158.561827 
L 148.664299 158.667656 
L 152.500411 158.886225 
L 157.295552 158.84852 
L 179.353198 158.487675 
L 197.574732 158.389523 
L 202.369872 157.879883 
L 222.509462 157.872856 
L 263.74767 157.872856 
L 263.74767 157.872856 
" style="fill:none;stroke:#1f77b4;stroke-linecap:square;stroke-opacity:0.1;stroke-width:2;"/>
   </g>
   <g id="line2d_18">
    <path clip-path="url(#p91600589c2)" d="M -1 75.336752 
L 148.664299 75.442581 
L 152.500411 75.66115 
L 157.295552 75.623445 
L 179.353198 75.2626 
L 197.574732 75.164448 
L 202.369872 74.654807 
L 222.509462 74.647781 
L 263.74767 74.647781 
L 263.74767 74.647781 
" style="fill:none;stroke:#1f77b4;stroke-linecap:square;stroke-opacity:0.1;stroke-width:2;"/>
   </g>
   <g id="line2d_19">
    <path clip-path="url(#p91600589c2)" d="M -1 122.897974 
L 148.664299 123.003802 
L 152.500411 123.222371 
L 157.295552 123.184666 
L 179.353198 122.823821 
L 197.574732 122.725669 
L 202.369872 122.216029 
L 222.509462 122.209002 
L 263.74767 122.209002 
L 263.74767 122.209002 
" style="fill:none;stroke:#1f77b4;stroke-linecap:square;stroke-opacity:0.1;stroke-width:2;"/>
   </g>
   <g id="line2d_20">
    <path clip-path="url(#p91600589c2)" d="M -1 120.819325 
L 148.664299 120.925153 
L 152.500411 121.143722 
L 157.295552 121.106017 
L 179.353198 120.745172 
L 197.574732 120.64702 
L 202.369872 120.13738 
L 222.509462 120.130353 
L 263.74767 120.130353 
L 263.74767 120.130353 
" style="fill:none;stroke:#1f77b4;stroke-linecap:square;stroke-opacity:0.1;stroke-width:2;"/>
   </g>
   <g id="line2d_21">
    <path clip-path="url(#p91600589c2)" d="M -1 98.632318 
L 148.664299 98.738147 
L 152.500411 98.956716 
L 157.295552 98.919011 
L 179.353198 98.558166 
L 197.574732 98.460014 
L 202.369872 97.950373 
L 222.509462 97.943347 
L 263.74767 97.943347 
L 263.74767 97.943347 
" style="fill:none;stroke:#1f77b4;stroke-linecap:square;stroke-opacity:0.1;stroke-width:2;"/>
   </g>
   <g id="line2d_22">
    <path clip-path="url(#p91600589c2)" d="M -1 110.142354 
L 148.664299 110.248182 
L 152.500411 110.466751 
L 157.295552 110.429046 
L 179.353198 110.068201 
L 197.574732 109.970049 
L 202.369872 109.460409 
L 222.509462 109.453382 
L 263.74767 109.453382 
L 263.74767 109.453382 
" style="fill:none;stroke:#1f77b4;stroke-linecap:square;stroke-opacity:0.1;stroke-width:2;"/>
   </g>
   <g id="line2d_23">
    <path clip-path="url(#p91600589c2)" d="M -1 53.565674 
L 148.664299 53.671503 
L 152.500411 53.890072 
L 157.295552 53.852367 
L 179.353198 53.491522 
L 197.574732 53.39337 
L 202.369872 52.883729 
L 222.509462 52.876703 
L 263.74767 52.876703 
L 263.74767 52.876703 
" style="fill:none;stroke:#1f77b4;stroke-linecap:square;stroke-opacity:0.1;stroke-width:2;"/>
   </g>
   <g id="line2d_24">
    <path clip-path="url(#p91600589c2)" d="M -1 83.500098 
L 148.664299 83.605927 
L 152.500411 83.824496 
L 157.295552 83.786791 
L 179.353198 83.425946 
L 197.574732 83.327794 
L 202.369872 82.818153 
L 222.509462 82.811127 
L 263.74767 82.811127 
L 263.74767 82.811127 
" style="fill:none;stroke:#1f77b4;stroke-linecap:square;stroke-opacity:0.1;stroke-width:2;"/>
   </g>
   <g id="line2d_25">
    <path clip-path="url(#p91600589c2)" d="M -1 111.108244 
L 148.664299 111.214073 
L 152.500411 111.432642 
L 157.295552 111.394936 
L 179.353198 111.034092 
L 197.574732 110.935939 
L 202.369872 110.426299 
L 222.509462 110.419272 
L 263.74767 110.419272 
L 263.74767 110.419272 
" style="fill:none;stroke:#1f77b4;stroke-linecap:square;stroke-opacity:0.1;stroke-width:2;"/>
   </g>
   <g id="line2d_26">
    <path clip-path="url(#p91600589c2)" d="M -1 97.195923 
L 148.664299 97.301752 
L 152.500411 97.520321 
L 157.295552 97.482615 
L 179.353198 97.121771 
L 197.574732 97.023618 
L 202.369872 96.513978 
L 222.509462 96.506951 
L 263.74767 96.506951 
L 263.74767 96.506951 
" style="fill:none;stroke:#1f77b4;stroke-linecap:square;stroke-opacity:0.1;stroke-width:2;"/>
   </g>
   <g id="line2d_27">
    <path clip-path="url(#p91600589c2)" d="M -1 101.95396 
L 148.664299 102.059789 
L 152.500411 102.278358 
L 157.295552 102.240652 
L 179.353198 101.879808 
L 197.574732 101.781655 
L 202.369872 101.272015 
L 222.509462 101.264988 
L 263.74767 101.264988 
L 263.74767 101.264988 
" style="fill:none;stroke:#1f77b4;stroke-linecap:square;stroke-opacity:0.1;stroke-width:2;"/>
   </g>
   <g id="line2d_28">
    <path clip-path="url(#p91600589c2)" d="M -1 51.846841 
L 148.664299 51.95267 
L 152.500411 52.171239 
L 157.295552 52.133534 
L 179.353198 51.772689 
L 197.574732 51.674537 
L 202.369872 51.164896 
L 222.509462 51.157869 
L 263.74767 51.157869 
L 263.74767 51.157869 
" style="fill:none;stroke:#1f77b4;stroke-linecap:square;stroke-opacity:0.1;stroke-width:2;"/>
   </g>
   <g id="line2d_29">
    <path clip-path="url(#p91600589c2)" d="M -1 125.221142 
L 148.664299 125.326971 
L 152.500411 125.54554 
L 157.295552 125.507835 
L 179.353198 125.14699 
L 197.574732 125.048838 
L 202.369872 124.539197 
L 222.509462 124.53217 
L 263.74767 124.53217 
L 263.74767 124.53217 
" style="fill:none;stroke:#1f77b4;stroke-linecap:square;stroke-opacity:0.1;stroke-width:2;"/>
   </g>
   <g id="line2d_30">
    <path clip-path="url(#p91600589c2)" d="M -1 102.843769 
L 148.664299 102.949598 
L 152.500411 103.168167 
L 157.295552 103.130461 
L 179.353198 102.769617 
L 197.574732 102.671464 
L 202.369872 102.161824 
L 222.509462 102.154797 
L 263.74767 102.154797 
L 263.74767 102.154797 
" style="fill:none;stroke:#1f77b4;stroke-linecap:square;stroke-opacity:0.1;stroke-width:2;"/>
   </g>
   <g id="line2d_31">
    <path clip-path="url(#p91600589c2)" d="M -1 153.242733 
L 148.664299 153.348562 
L 152.500411 153.567131 
L 157.295552 153.529426 
L 179.353198 153.168581 
L 197.574732 153.070429 
L 202.369872 152.560788 
L 222.509462 152.553762 
L 263.74767 152.553762 
L 263.74767 152.553762 
" style="fill:none;stroke:#1f77b4;stroke-linecap:square;stroke-opacity:0.1;stroke-width:2;"/>
   </g>
   <g id="line2d_32">
    <path clip-path="url(#p91600589c2)" d="M -1 226.602212 
L 148.664299 226.708041 
L 152.500411 226.92661 
L 157.295552 226.888904 
L 179.353198 226.52806 
L 197.574732 226.429907 
L 202.369872 225.920267 
L 222.509462 225.91324 
L 263.74767 225.91324 
L 263.74767 225.91324 
" style="fill:none;stroke:#1f77b4;stroke-linecap:square;stroke-opacity:0.1;stroke-width:2;"/>
   </g>
   <g id="line2d_33">
    <path clip-path="url(#p91600589c2)" d="M -1 88.138534 
L 148.664299 88.244363 
L 152.500411 88.462932 
L 157.295552 88.425227 
L 179.353198 88.064382 
L 197.574732 87.96623 
L 202.369872 87.456589 
L 222.509462 87.449563 
L 263.74767 87.449563 
L 263.74767 87.449563 
" style="fill:none;stroke:#1f77b4;stroke-linecap:square;stroke-opacity:0.1;stroke-width:2;"/>
   </g>
   <g id="line2d_34">
    <path clip-path="url(#p91600589c2)" d="M -1 79.035277 
L 148.664299 79.141106 
L 152.500411 79.359675 
L 157.295552 79.32197 
L 179.353198 78.961125 
L 197.574732 78.862973 
L 202.369872 78.353332 
L 222.509462 78.346306 
L 263.74767 78.346306 
L 263.74767 78.346306 
" style="fill:none;stroke:#1f77b4;stroke-linecap:square;stroke-opacity:0.1;stroke-width:2;"/>
   </g>
   <g id="line2d_35">
    <path clip-path="url(#p91600589c2)" d="M -1 148.409484 
L 148.664299 148.515312 
L 152.500411 148.733881 
L 157.295552 148.696176 
L 179.353198 148.335331 
L 197.574732 148.237179 
L 202.369872 147.727539 
L 222.509462 147.720512 
L 263.74767 147.720512 
L 263.74767 147.720512 
" style="fill:none;stroke:#1f77b4;stroke-linecap:square;stroke-opacity:0.1;stroke-width:2;"/>
   </g>
   <g id="line2d_36">
    <path clip-path="url(#p91600589c2)" d="M -1 18.352608 
L 148.664299 18.458437 
L 152.500411 18.677006 
L 157.295552 18.6393 
L 179.353198 18.278456 
L 197.574732 18.180303 
L 202.369872 17.670663 
L 222.509462 17.663636 
L 263.74767 17.663636 
L 263.74767 17.663636 
" style="fill:none;stroke:#1f77b4;stroke-linecap:square;stroke-opacity:0.1;stroke-width:2;"/>
   </g>
   <g id="line2d_37">
    <path clip-path="url(#p91600589c2)" d="M -1 179.162825 
L 148.664299 179.268653 
L 152.500411 179.487222 
L 157.295552 179.449517 
L 179.353198 179.088672 
L 197.574732 178.99052 
L 202.369872 178.48088 
L 222.509462 178.473853 
L 263.74767 178.473853 
L 263.74767 178.473853 
" style="fill:none;stroke:#1f77b4;stroke-linecap:square;stroke-opacity:0.1;stroke-width:2;"/>
   </g>
   <g id="line2d_38">
    <path clip-path="url(#p91600589c2)" d="M -1 114.386374 
L 148.664299 114.492202 
L 152.500411 114.710771 
L 157.295552 114.673066 
L 179.353198 114.312221 
L 197.574732 114.214069 
L 202.369872 113.704429 
L 222.509462 113.697402 
L 263.74767 113.697402 
L 263.74767 113.697402 
" style="fill:none;stroke:#1f77b4;stroke-linecap:square;stroke-opacity:0.1;stroke-width:2;"/>
   </g>
   <g id="line2d_39">
    <path clip-path="url(#p91600589c2)" d="M -1 124.444994 
L 148.664299 124.550823 
L 152.500411 124.769392 
L 157.295552 124.731686 
L 179.353198 124.370842 
L 197.574732 124.272689 
L 202.369872 123.763049 
L 222.509462 123.756022 
L 263.74767 123.756022 
L 263.74767 123.756022 
" style="fill:none;stroke:#1f77b4;stroke-linecap:square;stroke-opacity:0.1;stroke-width:2;"/>
   </g>
   <g id="line2d_40">
    <path clip-path="url(#p91600589c2)" d="M -1 50.175741 
L 148.664299 50.28157 
L 152.500411 50.500139 
L 157.295552 50.462433 
L 179.353198 50.101588 
L 197.574732 50.003436 
L 202.369872 49.493796 
L 222.509462 49.486769 
L 263.74767 49.486769 
L 263.74767 49.486769 
" style="fill:none;stroke:#1f77b4;stroke-linecap:square;stroke-opacity:0.1;stroke-width:2;"/>
   </g>
   <g id="line2d_41">
    <path clip-path="url(#p91600589c2)" d="M -1 52.914282 
L 148.664299 53.020111 
L 152.500411 53.238679 
L 157.295552 53.200974 
L 179.353198 52.840129 
L 197.574732 52.741977 
L 202.369872 52.232337 
L 222.509462 52.22531 
L 263.74767 52.22531 
L 263.74767 52.22531 
" style="fill:none;stroke:#1f77b4;stroke-linecap:square;stroke-opacity:0.1;stroke-width:2;"/>
   </g>
   <g id="line2d_42">
    <path clip-path="url(#p91600589c2)" d="M -1 109.671517 
L 148.664299 109.777346 
L 152.500411 109.995915 
L 157.295552 109.95821 
L 179.353198 109.597365 
L 197.574732 109.499213 
L 202.369872 108.989572 
L 222.509462 108.982546 
L 263.74767 108.982546 
L 263.74767 108.982546 
" style="fill:none;stroke:#1f77b4;stroke-linecap:square;stroke-opacity:0.1;stroke-width:2;"/>
   </g>
   <g id="line2d_43">
    <path clip-path="url(#p91600589c2)" d="M -1 100.032928 
L 148.664299 100.138756 
L 152.500411 100.357325 
L 157.295552 100.31962 
L 179.353198 99.958775 
L 197.574732 99.860623 
L 202.369872 99.350983 
L 222.509462 99.343956 
L 263.74767 99.343956 
L 263.74767 99.343956 
" style="fill:none;stroke:#1f77b4;stroke-linecap:square;stroke-opacity:0.1;stroke-width:2;"/>
   </g>
   <g id="line2d_44">
    <path clip-path="url(#p91600589c2)" d="M -1 154.697492 
L 148.664299 154.803321 
L 152.500411 155.02189 
L 157.295552 154.984185 
L 179.353198 154.62334 
L 197.574732 154.525188 
L 202.369872 154.015547 
L 222.509462 154.008521 
L 263.74767 154.008521 
L 263.74767 154.008521 
" style="fill:none;stroke:#1f77b4;stroke-linecap:square;stroke-opacity:0.1;stroke-width:2;"/>
   </g>
   <g id="line2d_45">
    <path clip-path="url(#p91600589c2)" d="M -1 201.894488 
L 148.664299 202.000317 
L 152.500411 202.218886 
L 157.295552 202.181181 
L 179.353198 201.820336 
L 197.574732 201.722184 
L 202.369872 201.212543 
L 222.509462 201.205516 
L 263.74767 201.205516 
L 263.74767 201.205516 
" style="fill:none;stroke:#1f77b4;stroke-linecap:square;stroke-opacity:0.1;stroke-width:2;"/>
   </g>
   <g id="line2d_46">
    <path clip-path="url(#p91600589c2)" d="M -1 131.385359 
L 148.664299 131.491187 
L 152.500411 131.709756 
L 157.295552 131.672051 
L 179.353198 131.311206 
L 197.574732 131.213054 
L 202.369872 130.703414 
L 222.509462 130.696387 
L 263.74767 130.696387 
L 263.74767 130.696387 
" style="fill:none;stroke:#1f77b4;stroke-linecap:square;stroke-opacity:0.1;stroke-width:2;"/>
   </g>
   <g id="line2d_47">
    <path clip-path="url(#p91600589c2)" d="M -1 109.610998 
L 148.664299 109.716826 
L 152.500411 109.935395 
L 157.295552 109.89769 
L 179.353198 109.536845 
L 197.574732 109.438693 
L 202.369872 108.929053 
L 222.509462 108.922026 
L 263.74767 108.922026 
L 263.74767 108.922026 
" style="fill:none;stroke:#1f77b4;stroke-linecap:square;stroke-opacity:0.1;stroke-width:2;"/>
   </g>
   <g id="line2d_48">
    <path clip-path="url(#p91600589c2)" d="M -1 63.237415 
L 148.664299 63.343244 
L 152.500411 63.561813 
L 157.295552 63.524108 
L 179.353198 63.163263 
L 197.574732 63.065111 
L 202.369872 62.55547 
L 222.509462 62.548444 
L 263.74767 62.548444 
L 263.74767 62.548444 
" style="fill:none;stroke:#1f77b4;stroke-linecap:square;stroke-opacity:0.1;stroke-width:2;"/>
   </g>
   <g id="line2d_49">
    <path clip-path="url(#p91600589c2)" d="M -1 64.442625 
L 148.664299 64.548454 
L 152.500411 64.767023 
L 157.295552 64.729318 
L 179.353198 64.368473 
L 197.574732 64.270321 
L 202.369872 63.76068 
L 222.509462 63.753654 
L 263.74767 63.753654 
L 263.74767 63.753654 
" style="fill:none;stroke:#1f77b4;stroke-linecap:square;stroke-opacity:0.1;stroke-width:2;"/>
   </g>
   <g id="line2d_50">
    <path clip-path="url(#p91600589c2)" d="M -1 133.087313 
L 148.664299 133.193141 
L 152.500411 133.41171 
L 157.295552 133.374005 
L 179.353198 133.01316 
L 197.574732 132.915008 
L 202.369872 132.405368 
L 222.509462 132.398341 
L 263.74767 132.398341 
L 263.74767 132.398341 
" style="fill:none;stroke:#1f77b4;stroke-linecap:square;stroke-opacity:0.1;stroke-width:2;"/>
   </g>
   <g id="line2d_51">
    <path clip-path="url(#p91600589c2)" d="M -1 129.415912 
L 148.664299 129.52174 
L 152.500411 129.740309 
L 157.295552 129.702604 
L 179.353198 129.341759 
L 197.574732 129.243607 
L 202.369872 128.733967 
L 222.509462 128.72694 
L 263.74767 128.72694 
L 263.74767 128.72694 
" style="fill:none;stroke:#1f77b4;stroke-linecap:square;stroke-opacity:0.1;stroke-width:2;"/>
   </g>
   <g id="line2d_52">
    <path clip-path="url(#p91600589c2)" d="M -1 161.639537 
L 148.664299 161.745366 
L 152.500411 161.963935 
L 157.295552 161.92623 
L 179.353198 161.565385 
L 197.574732 161.467233 
L 202.369872 160.957592 
L 222.509462 160.950566 
L 263.74767 160.950566 
L 263.74767 160.950566 
" style="fill:none;stroke:#1f77b4;stroke-linecap:square;stroke-opacity:0.1;stroke-width:2;"/>
   </g>
   <g id="line2d_53">
    <path clip-path="url(#p91600589c2)" d="M -1 177.679664 
L 148.664299 177.785493 
L 152.500411 178.004062 
L 157.295552 177.966357 
L 179.353198 177.605512 
L 197.574732 177.50736 
L 202.369872 176.997719 
L 222.509462 176.990693 
L 263.74767 176.990693 
L 263.74767 176.990693 
" style="fill:none;stroke:#1f77b4;stroke-linecap:square;stroke-opacity:0.1;stroke-width:2;"/>
   </g>
   <g id="line2d_54">
    <path clip-path="url(#p91600589c2)" d="M -1 190.040244 
L 148.664299 190.146073 
L 152.500411 190.364642 
L 157.295552 190.326937 
L 179.353198 189.966092 
L 197.574732 189.86794 
L 202.369872 189.358299 
L 222.509462 189.351273 
L 263.74767 189.351273 
L 263.74767 189.351273 
" style="fill:none;stroke:#1f77b4;stroke-linecap:square;stroke-opacity:0.1;stroke-width:2;"/>
   </g>
   <g id="line2d_55">
    <path clip-path="url(#p91600589c2)" d="M -1 32.126363 
L 148.664299 32.232191 
L 152.500411 32.45076 
L 157.295552 32.413055 
L 179.353198 32.05221 
L 197.574732 31.954058 
L 202.369872 31.444418 
L 222.509462 31.437391 
L 263.74767 31.437391 
L 263.74767 31.437391 
" style="fill:none;stroke:#1f77b4;stroke-linecap:square;stroke-opacity:0.1;stroke-width:2;"/>
   </g>
   <g id="line2d_56">
    <path clip-path="url(#p91600589c2)" d="M -1 138.369411 
L 148.664299 138.475239 
L 152.500411 138.693808 
L 157.295552 138.656103 
L 179.353198 138.295258 
L 197.574732 138.197106 
L 202.369872 137.687466 
L 222.509462 137.680439 
L 263.74767 137.680439 
L 263.74767 137.680439 
" style="fill:none;stroke:#1f77b4;stroke-linecap:square;stroke-opacity:0.1;stroke-width:2;"/>
   </g>
   <g id="line2d_57">
    <path clip-path="url(#p91600589c2)" d="M -1 135.278626 
L 148.664299 135.384455 
L 152.500411 135.603023 
L 157.295552 135.565318 
L 179.353198 135.204473 
L 197.574732 135.106321 
L 202.369872 134.596681 
L 222.509462 134.589654 
L 263.74767 134.589654 
L 263.74767 134.589654 
" style="fill:none;stroke:#1f77b4;stroke-linecap:square;stroke-opacity:0.1;stroke-width:2;"/>
   </g>
   <g id="line2d_58">
    <path clip-path="url(#p91600589c2)" d="M -1 170.458872 
L 148.664299 170.564701 
L 152.500411 170.78327 
L 157.295552 170.745565 
L 179.353198 170.38472 
L 197.574732 170.286568 
L 202.369872 169.776927 
L 222.509462 169.7699 
L 263.74767 169.7699 
L 263.74767 169.7699 
" style="fill:none;stroke:#1f77b4;stroke-linecap:square;stroke-opacity:0.1;stroke-width:2;"/>
   </g>
   <g id="line2d_59">
    <path clip-path="url(#p91600589c2)" d="M -1 82.789662 
L 148.664299 82.895491 
L 152.500411 83.114059 
L 157.295552 83.076354 
L 179.353198 82.715509 
L 197.574732 82.617357 
L 202.369872 82.107717 
L 222.509462 82.10069 
L 263.74767 82.10069 
L 263.74767 82.10069 
" style="fill:none;stroke:#1f77b4;stroke-linecap:square;stroke-opacity:0.1;stroke-width:2;"/>
   </g>
   <g id="line2d_60">
    <path clip-path="url(#p91600589c2)" d="M -1 186.05154 
L 148.664299 186.157368 
L 152.500411 186.375937 
L 157.295552 186.338232 
L 179.353198 185.977387 
L 197.574732 185.879235 
L 202.369872 185.369595 
L 222.509462 185.362568 
L 263.74767 185.362568 
L 263.74767 185.362568 
" style="fill:none;stroke:#1f77b4;stroke-linecap:square;stroke-opacity:0.1;stroke-width:2;"/>
   </g>
   <g id="line2d_61">
    <path clip-path="url(#p91600589c2)" d="M -1 125.548539 
L 148.664299 125.654368 
L 152.500411 125.872937 
L 157.295552 125.835232 
L 179.353198 125.474387 
L 197.574732 125.376235 
L 202.369872 124.866594 
L 222.509462 124.859567 
L 263.74767 124.859567 
L 263.74767 124.859567 
" style="fill:none;stroke:#1f77b4;stroke-linecap:square;stroke-opacity:0.1;stroke-width:2;"/>
   </g>
   <g id="line2d_62">
    <path clip-path="url(#p91600589c2)" d="M -1 155.029155 
L 148.664299 155.134984 
L 152.500411 155.353553 
L 157.295552 155.315848 
L 179.353198 154.955003 
L 197.574732 154.856851 
L 202.369872 154.34721 
L 222.509462 154.340184 
L 263.74767 154.340184 
L 263.74767 154.340184 
" style="fill:none;stroke:#1f77b4;stroke-linecap:square;stroke-opacity:0.1;stroke-width:2;"/>
   </g>
   <g id="line2d_63">
    <path clip-path="url(#p91600589c2)" d="M -1 99.655529 
L 148.664299 99.761358 
L 152.500411 99.979927 
L 157.295552 99.942221 
L 179.353198 99.581376 
L 197.574732 99.483224 
L 202.369872 98.973584 
L 222.509462 98.966557 
L 263.74767 98.966557 
L 263.74767 98.966557 
" style="fill:none;stroke:#1f77b4;stroke-linecap:square;stroke-opacity:0.1;stroke-width:2;"/>
   </g>
   <g id="line2d_64">
    <path clip-path="url(#p91600589c2)" d="M -1 138.419196 
L 148.664299 138.525025 
L 152.500411 138.743594 
L 157.295552 138.705888 
L 179.353198 138.345044 
L 197.574732 138.246891 
L 202.369872 137.737251 
L 222.509462 137.730224 
L 263.74767 137.730224 
L 263.74767 137.730224 
" style="fill:none;stroke:#1f77b4;stroke-linecap:square;stroke-opacity:0.1;stroke-width:2;"/>
   </g>
   <g id="line2d_65">
    <path clip-path="url(#p91600589c2)" d="M -1 167.342814 
L 148.664299 167.448643 
L 152.500411 167.667211 
L 157.295552 167.629506 
L 179.353198 167.268661 
L 197.574732 167.170509 
L 202.369872 166.660869 
L 222.509462 166.653842 
L 263.74767 166.653842 
L 263.74767 166.653842 
" style="fill:none;stroke:#1f77b4;stroke-linecap:square;stroke-opacity:0.1;stroke-width:2;"/>
   </g>
   <g id="line2d_66">
    <path clip-path="url(#p91600589c2)" d="M -1 117.579189 
L 148.664299 117.685017 
L 152.500411 117.903586 
L 157.295552 117.865881 
L 179.353198 117.505036 
L 197.574732 117.406884 
L 202.369872 116.897244 
L 222.509462 116.890217 
L 263.74767 116.890217 
L 263.74767 116.890217 
" style="fill:none;stroke:#1f77b4;stroke-linecap:square;stroke-opacity:0.1;stroke-width:2;"/>
   </g>
   <g id="line2d_67">
    <path clip-path="url(#p91600589c2)" d="M -1 97.866579 
L 148.664299 97.972407 
L 152.500411 98.190976 
L 157.295552 98.153271 
L 179.353198 97.792426 
L 197.574732 97.694274 
L 202.369872 97.184634 
L 222.509462 97.177607 
L 263.74767 97.177607 
L 263.74767 97.177607 
" style="fill:none;stroke:#1f77b4;stroke-linecap:square;stroke-opacity:0.1;stroke-width:2;"/>
   </g>
   <g id="line2d_68">
    <path clip-path="url(#p91600589c2)" d="M -1 113.489998 
L 148.664299 113.595826 
L 152.500411 113.814395 
L 157.295552 113.77669 
L 179.353198 113.415845 
L 197.574732 113.317693 
L 202.369872 112.808053 
L 222.509462 112.801026 
L 263.74767 112.801026 
L 263.74767 112.801026 
" style="fill:none;stroke:#1f77b4;stroke-linecap:square;stroke-opacity:0.1;stroke-width:2;"/>
   </g>
   <g id="line2d_69">
    <path clip-path="url(#p91600589c2)" d="M -1 103.301304 
L 148.664299 103.407132 
L 152.500411 103.625701 
L 157.295552 103.587996 
L 179.353198 103.227151 
L 197.574732 103.128999 
L 202.369872 102.619359 
L 222.509462 102.612332 
L 263.74767 102.612332 
L 263.74767 102.612332 
" style="fill:none;stroke:#1f77b4;stroke-linecap:square;stroke-opacity:0.1;stroke-width:2;"/>
   </g>
   <g id="line2d_70">
    <path clip-path="url(#p91600589c2)" d="M -1 143.752748 
L 148.664299 143.858577 
L 152.500411 144.077145 
L 157.295552 144.03944 
L 179.353198 143.678595 
L 197.574732 143.580443 
L 202.369872 143.070803 
L 222.509462 143.063776 
L 263.74767 143.063776 
L 263.74767 143.063776 
" style="fill:none;stroke:#1f77b4;stroke-linecap:square;stroke-opacity:0.1;stroke-width:2;"/>
   </g>
   <g id="line2d_71">
    <path clip-path="url(#p91600589c2)" d="M -1 132.025686 
L 148.664299 132.131515 
L 152.500411 132.350084 
L 157.295552 132.312379 
L 179.353198 131.951534 
L 197.574732 131.853382 
L 202.369872 131.343741 
L 222.509462 131.336715 
L 263.74767 131.336715 
L 263.74767 131.336715 
" style="fill:none;stroke:#1f77b4;stroke-linecap:square;stroke-opacity:0.1;stroke-width:2;"/>
   </g>
   <g id="line2d_72">
    <path clip-path="url(#p91600589c2)" d="M -1 145.39959 
L 148.664299 145.505418 
L 152.500411 145.723987 
L 157.295552 145.686282 
L 179.353198 145.325437 
L 197.574732 145.227285 
L 202.369872 144.717645 
L 222.509462 144.710618 
L 263.74767 144.710618 
L 263.74767 144.710618 
" style="fill:none;stroke:#1f77b4;stroke-linecap:square;stroke-opacity:0.1;stroke-width:2;"/>
   </g>
   <g id="line2d_73">
    <path clip-path="url(#p91600589c2)" d="M -1 131.888026 
L 148.664299 131.993855 
L 152.500411 132.212423 
L 157.295552 132.174718 
L 179.353198 131.813873 
L 197.574732 131.715721 
L 202.369872 131.206081 
L 222.509462 131.199054 
L 263.74767 131.199054 
L 263.74767 131.199054 
" style="fill:none;stroke:#1f77b4;stroke-linecap:square;stroke-opacity:0.1;stroke-width:2;"/>
   </g>
   <g id="line2d_74">
    <path clip-path="url(#p91600589c2)" d="M -1 151.474506 
L 148.664299 151.580335 
L 152.500411 151.798904 
L 157.295552 151.761198 
L 179.353198 151.400353 
L 197.574732 151.302201 
L 202.369872 150.792561 
L 222.509462 150.785534 
L 263.74767 150.785534 
L 263.74767 150.785534 
" style="fill:none;stroke:#1f77b4;stroke-linecap:square;stroke-opacity:0.1;stroke-width:2;"/>
   </g>
   <g id="line2d_75">
    <path clip-path="url(#p91600589c2)" d="M -1 190.904395 
L 148.664299 191.010224 
L 152.500411 191.228792 
L 157.295552 191.191087 
L 179.353198 190.830242 
L 197.574732 190.73209 
L 202.369872 190.22245 
L 222.509462 190.215423 
L 263.74767 190.215423 
L 263.74767 190.215423 
" style="fill:none;stroke:#1f77b4;stroke-linecap:square;stroke-opacity:0.1;stroke-width:2;"/>
   </g>
   <g id="line2d_76">
    <path clip-path="url(#p91600589c2)" d="M -1 108.70087 
L 148.664299 108.806699 
L 152.500411 109.025268 
L 157.295552 108.987562 
L 179.353198 108.626718 
L 197.574732 108.528565 
L 202.369872 108.018925 
L 222.509462 108.011898 
L 263.74767 108.011898 
L 263.74767 108.011898 
" style="fill:none;stroke:#1f77b4;stroke-linecap:square;stroke-opacity:0.1;stroke-width:2;"/>
   </g>
   <g id="line2d_77">
    <path clip-path="url(#p91600589c2)" d="M -1 133.711452 
L 148.664299 133.817281 
L 152.500411 134.035849 
L 157.295552 133.998144 
L 179.353198 133.637299 
L 197.574732 133.539147 
L 202.369872 133.029507 
L 222.509462 133.02248 
L 263.74767 133.02248 
L 263.74767 133.02248 
" style="fill:none;stroke:#1f77b4;stroke-linecap:square;stroke-opacity:0.1;stroke-width:2;"/>
   </g>
   <g id="line2d_78">
    <path clip-path="url(#p91600589c2)" d="M -1 186.755407 
L 148.664299 186.861236 
L 152.500411 187.079804 
L 157.295552 187.042099 
L 179.353198 186.681254 
L 197.574732 186.583102 
L 202.369872 186.073462 
L 222.509462 186.066435 
L 263.74767 186.066435 
L 263.74767 186.066435 
" style="fill:none;stroke:#1f77b4;stroke-linecap:square;stroke-opacity:0.1;stroke-width:2;"/>
   </g>
   <g id="line2d_79">
    <path clip-path="url(#p91600589c2)" d="M -1 96.378986 
L 148.664299 96.484815 
L 152.500411 96.703384 
L 157.295552 96.665678 
L 179.353198 96.304833 
L 197.574732 96.206681 
L 202.369872 95.697041 
L 222.509462 95.690014 
L 263.74767 95.690014 
L 263.74767 95.690014 
" style="fill:none;stroke:#1f77b4;stroke-linecap:square;stroke-opacity:0.1;stroke-width:2;"/>
   </g>
   <g id="line2d_80">
    <path clip-path="url(#p91600589c2)" d="M -1 155.540061 
L 148.664299 155.64589 
L 152.500411 155.864459 
L 157.295552 155.826754 
L 179.353198 155.465909 
L 197.574732 155.367757 
L 202.369872 154.858116 
L 222.509462 154.851089 
L 263.74767 154.851089 
L 263.74767 154.851089 
" style="fill:none;stroke:#1f77b4;stroke-linecap:square;stroke-opacity:0.1;stroke-width:2;"/>
   </g>
   <g id="line2d_81">
    <path clip-path="url(#p91600589c2)" d="M -1 114.11922 
L 148.664299 114.225049 
L 152.500411 114.443617 
L 157.295552 114.405912 
L 179.353198 114.045067 
L 197.574732 113.946915 
L 202.369872 113.437275 
L 222.509462 113.430248 
L 263.74767 113.430248 
L 263.74767 113.430248 
" style="fill:none;stroke:#1f77b4;stroke-linecap:square;stroke-opacity:0.1;stroke-width:2;"/>
   </g>
   <g id="line2d_82">
    <path clip-path="url(#p91600589c2)" d="M -1 84.8796 
L 148.664299 84.985429 
L 152.500411 85.203998 
L 157.295552 85.166292 
L 179.353198 84.805448 
L 197.574732 84.707295 
L 202.369872 84.197655 
L 222.509462 84.190628 
L 263.74767 84.190628 
L 263.74767 84.190628 
" style="fill:none;stroke:#1f77b4;stroke-linecap:square;stroke-opacity:0.1;stroke-width:2;"/>
   </g>
   <g id="line2d_83">
    <path clip-path="url(#p91600589c2)" d="M -1 110.792684 
L 148.664299 110.898513 
L 152.500411 111.117081 
L 157.295552 111.079376 
L 179.353198 110.718531 
L 197.574732 110.620379 
L 202.369872 110.110739 
L 222.509462 110.103712 
L 263.74767 110.103712 
L 263.74767 110.103712 
" style="fill:none;stroke:#1f77b4;stroke-linecap:square;stroke-opacity:0.1;stroke-width:2;"/>
   </g>
   <g id="line2d_84">
    <path clip-path="url(#p91600589c2)" d="M -1 67.162111 
L 148.664299 67.26794 
L 152.500411 67.486509 
L 157.295552 67.448804 
L 179.353198 67.087959 
L 197.574732 66.989807 
L 202.369872 66.480166 
L 222.509462 66.47314 
L 263.74767 66.47314 
L 263.74767 66.47314 
" style="fill:none;stroke:#1f77b4;stroke-linecap:square;stroke-opacity:0.1;stroke-width:2;"/>
   </g>
   <g id="line2d_85">
    <path clip-path="url(#p91600589c2)" d="M -1 169.682934 
L 148.664299 169.788763 
L 152.500411 170.007332 
L 157.295552 169.969627 
L 179.353198 169.608782 
L 197.574732 169.51063 
L 202.369872 169.000989 
L 222.509462 168.993963 
L 263.74767 168.993963 
L 263.74767 168.993963 
" style="fill:none;stroke:#1f77b4;stroke-linecap:square;stroke-opacity:0.1;stroke-width:2;"/>
   </g>
   <g id="line2d_86">
    <path clip-path="url(#p91600589c2)" d="M -1 98.988856 
L 148.664299 99.094684 
L 152.500411 99.313253 
L 157.295552 99.275548 
L 179.353198 98.914703 
L 197.574732 98.816551 
L 202.369872 98.306911 
L 222.509462 98.299884 
L 263.74767 98.299884 
L 263.74767 98.299884 
" style="fill:none;stroke:#1f77b4;stroke-linecap:square;stroke-opacity:0.1;stroke-width:2;"/>
   </g>
   <g id="line2d_87">
    <path clip-path="url(#p91600589c2)" d="M -1 145.932856 
L 148.664299 146.038685 
L 152.500411 146.257254 
L 157.295552 146.219548 
L 179.353198 145.858704 
L 197.574732 145.760551 
L 202.369872 145.250911 
L 222.509462 145.243884 
L 263.74767 145.243884 
L 263.74767 145.243884 
" style="fill:none;stroke:#1f77b4;stroke-linecap:square;stroke-opacity:0.1;stroke-width:2;"/>
   </g>
   <g id="line2d_88">
    <path clip-path="url(#p91600589c2)" d="M -1 153.963912 
L 148.664299 154.069741 
L 152.500411 154.28831 
L 157.295552 154.250605 
L 179.353198 153.88976 
L 197.574732 153.791608 
L 202.369872 153.281967 
L 222.509462 153.274941 
L 263.74767 153.274941 
L 263.74767 153.274941 
" style="fill:none;stroke:#1f77b4;stroke-linecap:square;stroke-opacity:0.1;stroke-width:2;"/>
   </g>
   <g id="line2d_89">
    <path clip-path="url(#p91600589c2)" d="M -1 141.357408 
L 148.664299 141.463237 
L 152.500411 141.681806 
L 157.295552 141.6441 
L 179.353198 141.283256 
L 197.574732 141.185103 
L 202.369872 140.675463 
L 222.509462 140.668436 
L 263.74767 140.668436 
L 263.74767 140.668436 
" style="fill:none;stroke:#1f77b4;stroke-linecap:square;stroke-opacity:0.1;stroke-width:2;"/>
   </g>
   <g id="line2d_90">
    <path clip-path="url(#p91600589c2)" d="M -1 129.815324 
L 148.664299 129.921153 
L 152.500411 130.139721 
L 157.295552 130.102016 
L 179.353198 129.741171 
L 197.574732 129.643019 
L 202.369872 129.133379 
L 222.509462 129.126352 
L 263.74767 129.126352 
L 263.74767 129.126352 
" style="fill:none;stroke:#1f77b4;stroke-linecap:square;stroke-opacity:0.1;stroke-width:2;"/>
   </g>
   <g id="line2d_91">
    <path clip-path="url(#p91600589c2)" d="M -1 113.936999 
L 148.664299 114.042828 
L 152.500411 114.261397 
L 157.295552 114.223692 
L 179.353198 113.862847 
L 197.574732 113.764695 
L 202.369872 113.255054 
L 222.509462 113.248028 
L 263.74767 113.248028 
L 263.74767 113.248028 
" style="fill:none;stroke:#1f77b4;stroke-linecap:square;stroke-opacity:0.1;stroke-width:2;"/>
   </g>
   <g id="line2d_92">
    <path clip-path="url(#p91600589c2)" d="M -1 166.674275 
L 148.664299 166.780104 
L 152.500411 166.998673 
L 157.295552 166.960967 
L 179.353198 166.600123 
L 197.574732 166.50197 
L 202.369872 165.99233 
L 222.509462 165.985303 
L 263.74767 165.985303 
L 263.74767 165.985303 
" style="fill:none;stroke:#1f77b4;stroke-linecap:square;stroke-opacity:0.1;stroke-width:2;"/>
   </g>
   <g id="line2d_93">
    <path clip-path="url(#p91600589c2)" d="M -1 77.463918 
L 148.664299 77.569747 
L 152.500411 77.788316 
L 157.295552 77.750611 
L 179.353198 77.389766 
L 197.574732 77.291614 
L 202.369872 76.781973 
L 222.509462 76.774947 
L 263.74767 76.774947 
L 263.74767 76.774947 
" style="fill:none;stroke:#1f77b4;stroke-linecap:square;stroke-opacity:0.1;stroke-width:2;"/>
   </g>
   <g id="line2d_94">
    <path clip-path="url(#p91600589c2)" d="M -1 96.254618 
L 148.664299 96.360446 
L 152.500411 96.579015 
L 157.295552 96.54131 
L 179.353198 96.180465 
L 197.574732 96.082313 
L 202.369872 95.572673 
L 222.509462 95.565646 
L 263.74767 95.565646 
L 263.74767 95.565646 
" style="fill:none;stroke:#1f77b4;stroke-linecap:square;stroke-opacity:0.1;stroke-width:2;"/>
   </g>
   <g id="line2d_95">
    <path clip-path="url(#p91600589c2)" d="M -1 182.698377 
L 148.664299 182.804205 
L 152.500411 183.022774 
L 157.295552 182.985069 
L 179.353198 182.624224 
L 197.574732 182.526072 
L 202.369872 182.016432 
L 222.509462 182.009405 
L 263.74767 182.009405 
L 263.74767 182.009405 
" style="fill:none;stroke:#1f77b4;stroke-linecap:square;stroke-opacity:0.1;stroke-width:2;"/>
   </g>
   <g id="line2d_96">
    <path clip-path="url(#p91600589c2)" d="M -1 52.09845 
L 148.664299 52.204279 
L 152.500411 52.422848 
L 157.295552 52.385142 
L 179.353198 52.024298 
L 197.574732 51.926145 
L 202.369872 51.416505 
L 222.509462 51.409478 
L 263.74767 51.409478 
L 263.74767 51.409478 
" style="fill:none;stroke:#1f77b4;stroke-linecap:square;stroke-opacity:0.1;stroke-width:2;"/>
   </g>
   <g id="line2d_97">
    <path clip-path="url(#p91600589c2)" d="M -1 34.496389 
L 148.664299 34.602218 
L 152.500411 34.820787 
L 157.295552 34.783082 
L 179.353198 34.422237 
L 197.574732 34.324085 
L 202.369872 33.814444 
L 222.509462 33.807418 
L 263.74767 33.807418 
L 263.74767 33.807418 
" style="fill:none;stroke:#1f77b4;stroke-linecap:square;stroke-opacity:0.1;stroke-width:2;"/>
   </g>
   <g id="line2d_98">
    <path clip-path="url(#p91600589c2)" d="M -1 65.461702 
L 148.664299 65.567531 
L 152.500411 65.7861 
L 157.295552 65.748395 
L 179.353198 65.38755 
L 197.574732 65.289398 
L 202.369872 64.779757 
L 222.509462 64.772731 
L 263.74767 64.772731 
L 263.74767 64.772731 
" style="fill:none;stroke:#1f77b4;stroke-linecap:square;stroke-opacity:0.1;stroke-width:2;"/>
   </g>
   <g id="line2d_99">
    <path clip-path="url(#p91600589c2)" d="M -1 124.131545 
L 148.664299 124.237373 
L 152.500411 124.455942 
L 157.295552 124.418237 
L 179.353198 124.057392 
L 197.574732 123.95924 
L 202.369872 123.4496 
L 222.509462 123.442573 
L 263.74767 123.442573 
L 263.74767 123.442573 
" style="fill:none;stroke:#1f77b4;stroke-linecap:square;stroke-opacity:0.1;stroke-width:2;"/>
   </g>
   <g id="line2d_100">
    <path clip-path="url(#p91600589c2)" d="M -1 162.598135 
L 148.664299 162.703963 
L 152.500411 162.922532 
L 157.295552 162.884827 
L 179.353198 162.523982 
L 197.574732 162.42583 
L 202.369872 161.91619 
L 222.509462 161.909163 
L 263.74767 161.909163 
L 263.74767 161.909163 
" style="fill:none;stroke:#1f77b4;stroke-linecap:square;stroke-opacity:0.1;stroke-width:2;"/>
   </g>
   <g id="line2d_101">
    <path clip-path="url(#p91600589c2)" d="M -1 70.830269 
L 148.664299 70.936098 
L 152.500411 71.154666 
L 157.295552 71.116961 
L 179.353198 70.756116 
L 197.574732 70.657964 
L 202.369872 70.148324 
L 222.509462 70.141297 
L 263.74767 70.141297 
L 263.74767 70.141297 
" style="fill:none;stroke:#1f77b4;stroke-linecap:square;stroke-opacity:0.1;stroke-width:2;"/>
   </g>
   <g id="line2d_102">
    <path clip-path="url(#p91600589c2)" d="M -1 133.771733 
L 148.664299 133.877561 
L 152.500411 134.09613 
L 157.295552 134.058425 
L 179.353198 133.69758 
L 197.574732 133.599428 
L 202.369872 133.089788 
L 222.509462 133.082761 
L 263.74767 133.082761 
L 263.74767 133.082761 
" style="fill:none;stroke:#1f77b4;stroke-linecap:square;stroke-opacity:0.1;stroke-width:2;"/>
   </g>
   <g id="line2d_103">
    <path clip-path="url(#p91600589c2)" d="M -1 63.576195 
L 148.664299 63.682023 
L 152.500411 63.900592 
L 157.295552 63.862887 
L 179.353198 63.502042 
L 197.574732 63.40389 
L 202.369872 62.89425 
L 222.509462 62.887223 
L 263.74767 62.887223 
L 263.74767 62.887223 
" style="fill:none;stroke:#1f77b4;stroke-linecap:square;stroke-opacity:0.1;stroke-width:2;"/>
   </g>
   <g id="line2d_104">
    <path clip-path="url(#p91600589c2)" d="M -1 107.368795 
L 148.664299 107.474624 
L 152.500411 107.693192 
L 157.295552 107.655487 
L 179.353198 107.294642 
L 197.574732 107.19649 
L 202.369872 106.68685 
L 222.509462 106.679823 
L 263.74767 106.679823 
L 263.74767 106.679823 
" style="fill:none;stroke:#1f77b4;stroke-linecap:square;stroke-opacity:0.1;stroke-width:2;"/>
   </g>
   <g id="line2d_105">
    <path clip-path="url(#p91600589c2)" d="M -1 74.190277 
L 148.664299 74.296106 
L 152.500411 74.514675 
L 157.295552 74.47697 
L 179.353198 74.116125 
L 197.574732 74.017973 
L 202.369872 73.508332 
L 222.509462 73.501306 
L 263.74767 73.501306 
L 263.74767 73.501306 
" style="fill:none;stroke:#1f77b4;stroke-linecap:square;stroke-opacity:0.1;stroke-width:2;"/>
   </g>
   <g id="line2d_106">
    <path clip-path="url(#p91600589c2)" d="M -1 87.571499 
L 128.524709 87.473776 
L 135.237906 87.26849 
L 138.11499 86.958502 
L 140.033046 86.491139 
L 140.992074 86.092147 
L 141.951102 85.503858 
L 142.91013 84.624869 
L 143.869159 83.299463 
L 144.828187 81.297002 
L 145.787215 78.301872 
L 146.746243 73.950353 
L 147.705271 67.978244 
L 149.623327 52.320431 
L 150.582355 44.666968 
L 151.541383 38.620688 
L 152.500411 34.523764 
L 153.45944 32.075246 
L 154.418468 30.745606 
L 155.377496 30.07255 
L 156.336524 29.74739 
L 158.25458 29.515908 
L 164.008749 29.347342 
L 176.476114 29.151282 
L 191.820563 29.17858 
L 193.73862 29.357624 
L 194.697648 29.667394 
L 195.656676 30.460872 
L 196.615704 32.537496 
L 197.574732 37.802766 
L 198.53376 49.116037 
L 199.492788 65.416633 
L 200.451816 78.38171 
L 201.410844 84.307068 
L 202.369872 86.218591 
L 203.3289 86.731044 
L 205.246957 86.87983 
L 226.345575 86.886137 
L 263.74767 86.886137 
L 263.74767 86.886137 
" style="fill:none;stroke:#ff7f0e;stroke-linecap:square;stroke-opacity:0.75;stroke-width:3;"/>
   </g>
   <g id="line2d_107">
    <path clip-path="url(#p91600589c2)" d="M -1 121.206088 
L 81.532332 121.303668 
L 94.958726 121.605131 
L 104.549007 122.036523 
L 111.262203 122.53525 
L 117.016372 123.169253 
L 121.811512 123.9113 
L 125.647625 124.699337 
L 129.483737 125.719503 
L 132.360821 126.681419 
L 135.237906 127.857362 
L 138.11499 129.300143 
L 140.992074 131.078021 
L 142.91013 132.493869 
L 144.828187 134.137501 
L 146.746243 136.0615 
L 148.664299 138.319468 
L 150.582355 140.904511 
L 152.500411 143.760458 
L 154.418468 146.901802 
L 156.336524 150.373152 
L 159.213608 156.194905 
L 163.04972 164.744645 
L 165.926805 171.144433 
L 167.844861 175.057211 
L 169.762917 178.478633 
L 171.680973 181.287483 
L 173.59903 183.440972 
L 175.517086 184.976211 
L 177.435142 185.990078 
L 179.353198 186.607848 
L 181.271254 186.953462 
L 184.148339 187.178946 
L 188.943479 187.257333 
L 197.574732 187.171462 
L 202.369872 186.661825 
L 222.509462 186.654798 
L 263.74767 186.654798 
L 263.74767 186.654798 
" style="fill:none;stroke:#2ca02c;stroke-linecap:square;stroke-opacity:0.75;stroke-width:3;"/>
   </g>
   <g id="patch_3">
    <path d="M 63.35875 237.4 
L 63.35875 7.2 
" style="fill:none;stroke:#000000;stroke-linecap:square;stroke-linejoin:miter;stroke-width:0.8;"/>
   </g>
   <g id="patch_4">
    <path d="M 273.29 237.4 
L 273.29 7.2 
" style="fill:none;stroke:#000000;stroke-linecap:square;stroke-linejoin:miter;stroke-width:0.8;"/>
   </g>
   <g id="patch_5">
    <path d="M 63.35875 237.4 
L 273.29 237.4 
" style="fill:none;stroke:#000000;stroke-linecap:square;stroke-linejoin:miter;stroke-width:0.8;"/>
   </g>
   <g id="patch_6">
    <path d="M 63.35875 7.2 
L 273.29 7.2 
" style="fill:none;stroke:#000000;stroke-linecap:square;stroke-linejoin:miter;stroke-width:0.8;"/>
   </g>
  </g>
 </g>
 <defs>
  <clipPath id="p91600589c2">
   <rect height="230.2" width="209.93125" x="63.35875" y="7.2"/>
  </clipPath>
 </defs>
</svg>
