<?xml version="1.0" encoding="utf-8" standalone="no"?>
<!DOCTYPE svg PUBLIC "-//W3C//DTD SVG 1.1//EN"
  "http://www.w3.org/Graphics/SVG/1.1/DTD/svg11.dtd">
<!-- Created with matplotlib (https://matplotlib.org/) -->
<svg height="604.8pt" version="1.1" viewBox="0 0 424.8 604.8" width="424.8pt" xmlns="http://www.w3.org/2000/svg" xmlns:xlink="http://www.w3.org/1999/xlink">
 <defs>
  <style type="text/css">
*{stroke-linecap:butt;stroke-linejoin:round;}
  </style>
 </defs>
 <g id="figure_1">
  <g id="patch_1">
   <path d="M 0 604.8 
L 424.8 604.8 
L 424.8 0 
L 0 0 
z
" style="fill:#ffffff;"/>
  </g>
  <g id="axes_1">
   <g id="patch_2">
    <path d="M 42.096548 567.781683 
L 410.633046 567.781683 
L 410.633046 7.2 
L 42.096548 7.2 
z
" style="fill:#ffffff;"/>
   </g>
   <g id="matplotlib.axis_1">
    <g id="xtick_1">
     <g id="line2d_1">
      <defs>
       <path d="M 0 0 
L 0 3.5 
" id="m6ba420bc9b" style="stroke:#000000;stroke-width:0.8;"/>
      </defs>
      <g>
       <use style="stroke:#000000;stroke-width:0.8;" x="42.096548" xlink:href="#m6ba420bc9b" y="567.781683"/>
      </g>
     </g>
     <g id="text_1">
      <!-- $10^{3}$ -->
      <defs>
       <path d="M 26.59375 63.40625 
C 26.59375 65.5 26.5 65.5 25.09375 65.5 
C 21.203125 61.1875 15.296875 59.796875 9.703125 59.796875 
C 9.40625 59.796875 8.90625 59.796875 8.796875 59.5 
C 8.703125 59.296875 8.703125 59.09375 8.703125 57 
C 11.796875 57 17 57.59375 21 59.984375 
L 21 7.203125 
C 21 3.6875 20.796875 2.5 12.203125 2.5 
L 9.203125 2.5 
L 9.203125 0 
C 14 0 19 0 23.796875 0 
C 28.59375 0 33.59375 0 38.40625 0 
L 38.40625 2.5 
L 35.40625 2.5 
C 26.796875 2.5 26.59375 3.59375 26.59375 7.15625 
z
" id="CMR17-49"/>
       <path d="M 42 31.640625 
C 42 37.75 41.90625 48.125 37.703125 56.109375 
C 34 63.109375 28.09375 65.59375 22.90625 65.59375 
C 18.09375 65.59375 12 63.40625 8.203125 56.203125 
C 4.203125 48.71875 3.796875 39.4375 3.796875 31.640625 
C 3.796875 25.953125 3.90625 17.28125 7 9.671875 
C 11.296875 -0.609375 19 -2 22.90625 -2 
C 27.5 -2 34.5 -0.109375 38.59375 9.375 
C 41.59375 16.28125 42 24.359375 42 31.640625 
z
M 22.90625 -0.40625 
C 16.5 -0.40625 12.703125 5.078125 11.296875 12.6875 
C 10.203125 18.5625 10.203125 27.15625 10.203125 32.75 
C 10.203125 40.4375 10.203125 46.828125 11.5 52.921875 
C 13.40625 61.390625 19 64 22.90625 64 
C 27 64 32.296875 61.296875 34.203125 53.125 
C 35.5 47.4375 35.59375 40.734375 35.59375 32.75 
C 35.59375 26.25 35.59375 18.265625 34.40625 12.375 
C 32.296875 1.484375 26.40625 -0.40625 22.90625 -0.40625 
z
" id="CMR17-48"/>
       <path d="M 22.09375 33.703125 
C 31 33.703125 34.90625 25.96875 34.90625 17.03125 
C 34.90625 5 28.5 0.390625 22.703125 0.390625 
C 17.40625 0.390625 8.796875 3.03125 6.09375 10.828125 
C 6.59375 10.625 7.09375 10.625 7.59375 10.625 
C 10 10.625 11.796875 12.21875 11.796875 14.8125 
C 11.796875 17.703125 9.59375 19 7.59375 19 
C 5.90625 19 3.296875 18.203125 3.296875 14.46875 
C 3.296875 5.234375 12.296875 -2 22.90625 -2 
C 34 -2 42.5 6.71875 42.5 16.953125 
C 42.5 26.671875 34.5 33.703125 25 34.796875 
C 32.59375 36.375 39.90625 43.0625 39.90625 52.015625 
C 39.90625 59.6875 32 65.296875 23 65.296875 
C 13.90625 65.296875 5.90625 59.828125 5.90625 52.015625 
C 5.90625 48.59375 8.5 48 9.796875 48 
C 11.90625 48 13.703125 49.296875 13.703125 51.890625 
C 13.703125 54.46875 11.90625 55.765625 9.796875 55.765625 
C 9.40625 55.765625 8.90625 55.765625 8.5 55.578125 
C 11.40625 61.859375 19.296875 63 22.796875 63 
C 26.296875 63 32.90625 61.328125 32.90625 51.875 
C 32.90625 49.109375 32.5 44.1875 29.09375 39.84375 
C 26.09375 36 22.703125 36 19.40625 35.6875 
C 18.90625 35.6875 16.59375 35.453125 16.203125 35.453125 
C 15.5 35.359375 15.09375 35.265625 15.09375 34.5 
C 15.09375 33.796875 15.203125 33.703125 17.203125 33.703125 
z
" id="CMR17-51"/>
      </defs>
      <g transform="translate(35.129594 581.700182)scale(0.1 -0.1)">
       <use transform="scale(0.996264)" xlink:href="#CMR17-49"/>
       <use transform="translate(45.690477 0)scale(0.996264)" xlink:href="#CMR17-48"/>
       <use transform="translate(91.380954 36.153639)scale(0.697382)" xlink:href="#CMR17-51"/>
      </g>
     </g>
    </g>
    <g id="xtick_2">
     <g id="line2d_2">
      <g>
       <use style="stroke:#000000;stroke-width:0.8;" x="164.942047" xlink:href="#m6ba420bc9b" y="567.781683"/>
      </g>
     </g>
     <g id="text_2">
      <!-- $10^{4}$ -->
      <defs>
       <path d="M 33.59375 64.40625 
C 33.59375 66.5 33.5 66.5 31.703125 66.5 
L 2 19.59375 
L 2 17 
L 27.796875 17 
L 27.796875 7.140625 
C 27.796875 3.5 27.59375 2.5 20.59375 2.5 
L 18.703125 2.5 
L 18.703125 0 
C 21.90625 0 27.296875 0 30.703125 0 
C 34.09375 0 39.5 0 42.703125 0 
L 42.703125 2.5 
L 40.796875 2.5 
C 33.796875 2.5 33.59375 3.5 33.59375 7.140625 
L 33.59375 17 
L 43.796875 17 
L 43.796875 19.59375 
L 33.59375 19.59375 
z
M 28.09375 57.859375 
L 28.09375 19.59375 
L 4 19.59375 
z
" id="CMR17-52"/>
      </defs>
      <g transform="translate(157.975093 581.700182)scale(0.1 -0.1)">
       <use transform="scale(0.996264)" xlink:href="#CMR17-49"/>
       <use transform="translate(45.690477 0)scale(0.996264)" xlink:href="#CMR17-48"/>
       <use transform="translate(91.380954 36.153639)scale(0.697382)" xlink:href="#CMR17-52"/>
      </g>
     </g>
    </g>
    <g id="xtick_3">
     <g id="line2d_3">
      <g>
       <use style="stroke:#000000;stroke-width:0.8;" x="287.787547" xlink:href="#m6ba420bc9b" y="567.781683"/>
      </g>
     </g>
     <g id="text_3">
      <!-- $10^{5}$ -->
      <defs>
       <path d="M 11.40625 57.6875 
C 12.40625 57.28125 16.5 56 20.703125 56 
C 30 56 35.09375 61.109375 38 64.0625 
C 38 64.953125 38 65.5 37.40625 65.5 
C 37.296875 65.5 37.09375 65.5 36.296875 65.046875 
C 32.796875 63.40625 28.703125 62.078125 23.703125 62.078125 
C 20.703125 62.078125 16.203125 62.484375 11.296875 64.671875 
C 10.203125 65.171875 10 65.171875 9.90625 65.171875 
C 9.40625 65.171875 9.296875 65.0625 9.296875 63.078125 
L 9.296875 34.421875 
C 9.296875 32.640625 9.296875 32.140625 10.296875 32.140625 
C 10.796875 32.140625 11 32.34375 11.5 33.03125 
C 14.703125 37.515625 19.09375 39.40625 24.09375 39.40625 
C 27.59375 39.40625 35.09375 37.21875 35.09375 20.140625 
C 35.09375 16.953125 35.09375 11.171875 32.09375 6.578125 
C 29.59375 2.484375 25.703125 0.390625 21.40625 0.390625 
C 14.796875 0.390625 8.09375 5 6.296875 12.71875 
C 6.703125 12.609375 7.5 12.421875 7.90625 12.421875 
C 9.203125 12.421875 11.703125 13.125 11.703125 16.21875 
C 11.703125 18.90625 9.796875 20 7.90625 20 
C 5.59375 20 4.09375 18.59375 4.09375 15.796875 
C 4.09375 7.09375 11 -2 21.59375 -2 
C 31.90625 -2 41.703125 6.875 41.703125 19.75 
C 41.703125 31.71875 33.90625 41 24.203125 41 
C 19.09375 41 14.796875 39.109375 11.40625 35.53125 
z
" id="CMR17-53"/>
      </defs>
      <g transform="translate(280.820593 581.700182)scale(0.1 -0.1)">
       <use transform="scale(0.996264)" xlink:href="#CMR17-49"/>
       <use transform="translate(45.690477 0)scale(0.996264)" xlink:href="#CMR17-48"/>
       <use transform="translate(91.380954 36.153639)scale(0.697382)" xlink:href="#CMR17-53"/>
      </g>
     </g>
    </g>
    <g id="xtick_4">
     <g id="line2d_4">
      <g>
       <use style="stroke:#000000;stroke-width:0.8;" x="410.633046" xlink:href="#m6ba420bc9b" y="567.781683"/>
      </g>
     </g>
     <g id="text_4">
      <!-- $10^{6}$ -->
      <defs>
       <path d="M 10.59375 34 
C 10.59375 57.65625 21.796875 63 28.296875 63 
C 30.40625 63 35.5 62.640625 37.5 59 
C 35.90625 59 32.90625 59 32.90625 55.515625 
C 32.90625 52.828125 35.09375 51.921875 36.5 51.921875 
C 37.40625 51.921875 40.09375 52.3125 40.09375 55.625 
C 40.09375 61.78125 35.09375 65.296875 28.203125 65.296875 
C 16.296875 65.296875 3.796875 52.96875 3.796875 31 
C 3.796875 3.953125 15.09375 -2 23.09375 -2 
C 32.796875 -2 42 6.671875 42 20.046875 
C 42 32.515625 33.90625 41.59375 23.703125 41.59375 
C 17.59375 41.59375 13.09375 37.609375 10.59375 30.625 
z
M 23.09375 0.390625 
C 10.796875 0.390625 10.796875 18.75 10.796875 22.4375 
C 10.796875 29.625 14.203125 40 23.5 40 
C 25.203125 40 30.09375 40 33.40625 33.125 
C 35.203125 29.21875 35.203125 25.140625 35.203125 20.140625 
C 35.203125 14.75 35.203125 10.78125 33.09375 6.78125 
C 30.90625 2.671875 27.703125 0.390625 23.09375 0.390625 
z
" id="CMR17-54"/>
      </defs>
      <g transform="translate(403.666092 581.700182)scale(0.1 -0.1)">
       <use transform="scale(0.996264)" xlink:href="#CMR17-49"/>
       <use transform="translate(45.690477 0)scale(0.996264)" xlink:href="#CMR17-48"/>
       <use transform="translate(91.380954 36.153639)scale(0.697382)" xlink:href="#CMR17-54"/>
      </g>
     </g>
    </g>
    <g id="xtick_5">
     <g id="line2d_5">
      <defs>
       <path d="M 0 0 
L 0 2 
" id="mb39fa5a8db" style="stroke:#000000;stroke-width:0.6;"/>
      </defs>
      <g>
       <use style="stroke:#000000;stroke-width:0.6;" x="79.076728" xlink:href="#mb39fa5a8db" y="567.781683"/>
      </g>
     </g>
    </g>
    <g id="xtick_6">
     <g id="line2d_6">
      <g>
       <use style="stroke:#000000;stroke-width:0.6;" x="100.708747" xlink:href="#mb39fa5a8db" y="567.781683"/>
      </g>
     </g>
    </g>
    <g id="xtick_7">
     <g id="line2d_7">
      <g>
       <use style="stroke:#000000;stroke-width:0.6;" x="116.056908" xlink:href="#mb39fa5a8db" y="567.781683"/>
      </g>
     </g>
    </g>
    <g id="xtick_8">
     <g id="line2d_8">
      <g>
       <use style="stroke:#000000;stroke-width:0.6;" x="127.961867" xlink:href="#mb39fa5a8db" y="567.781683"/>
      </g>
     </g>
    </g>
    <g id="xtick_9">
     <g id="line2d_9">
      <g>
       <use style="stroke:#000000;stroke-width:0.6;" x="137.688927" xlink:href="#mb39fa5a8db" y="567.781683"/>
      </g>
     </g>
    </g>
    <g id="xtick_10">
     <g id="line2d_10">
      <g>
       <use style="stroke:#000000;stroke-width:0.6;" x="145.913039" xlink:href="#mb39fa5a8db" y="567.781683"/>
      </g>
     </g>
    </g>
    <g id="xtick_11">
     <g id="line2d_11">
      <g>
       <use style="stroke:#000000;stroke-width:0.6;" x="153.037089" xlink:href="#mb39fa5a8db" y="567.781683"/>
      </g>
     </g>
    </g>
    <g id="xtick_12">
     <g id="line2d_12">
      <g>
       <use style="stroke:#000000;stroke-width:0.6;" x="159.320946" xlink:href="#mb39fa5a8db" y="567.781683"/>
      </g>
     </g>
    </g>
    <g id="xtick_13">
     <g id="line2d_13">
      <g>
       <use style="stroke:#000000;stroke-width:0.6;" x="201.922228" xlink:href="#mb39fa5a8db" y="567.781683"/>
      </g>
     </g>
    </g>
    <g id="xtick_14">
     <g id="line2d_14">
      <g>
       <use style="stroke:#000000;stroke-width:0.6;" x="223.554246" xlink:href="#mb39fa5a8db" y="567.781683"/>
      </g>
     </g>
    </g>
    <g id="xtick_15">
     <g id="line2d_15">
      <g>
       <use style="stroke:#000000;stroke-width:0.6;" x="238.902408" xlink:href="#mb39fa5a8db" y="567.781683"/>
      </g>
     </g>
    </g>
    <g id="xtick_16">
     <g id="line2d_16">
      <g>
       <use style="stroke:#000000;stroke-width:0.6;" x="250.807367" xlink:href="#mb39fa5a8db" y="567.781683"/>
      </g>
     </g>
    </g>
    <g id="xtick_17">
     <g id="line2d_17">
      <g>
       <use style="stroke:#000000;stroke-width:0.6;" x="260.534426" xlink:href="#mb39fa5a8db" y="567.781683"/>
      </g>
     </g>
    </g>
    <g id="xtick_18">
     <g id="line2d_18">
      <g>
       <use style="stroke:#000000;stroke-width:0.6;" x="268.758538" xlink:href="#mb39fa5a8db" y="567.781683"/>
      </g>
     </g>
    </g>
    <g id="xtick_19">
     <g id="line2d_19">
      <g>
       <use style="stroke:#000000;stroke-width:0.6;" x="275.882588" xlink:href="#mb39fa5a8db" y="567.781683"/>
      </g>
     </g>
    </g>
    <g id="xtick_20">
     <g id="line2d_20">
      <g>
       <use style="stroke:#000000;stroke-width:0.6;" x="282.166445" xlink:href="#mb39fa5a8db" y="567.781683"/>
      </g>
     </g>
    </g>
    <g id="xtick_21">
     <g id="line2d_21">
      <g>
       <use style="stroke:#000000;stroke-width:0.6;" x="324.767727" xlink:href="#mb39fa5a8db" y="567.781683"/>
      </g>
     </g>
    </g>
    <g id="xtick_22">
     <g id="line2d_22">
      <g>
       <use style="stroke:#000000;stroke-width:0.6;" x="346.399745" xlink:href="#mb39fa5a8db" y="567.781683"/>
      </g>
     </g>
    </g>
    <g id="xtick_23">
     <g id="line2d_23">
      <g>
       <use style="stroke:#000000;stroke-width:0.6;" x="361.747907" xlink:href="#mb39fa5a8db" y="567.781683"/>
      </g>
     </g>
    </g>
    <g id="xtick_24">
     <g id="line2d_24">
      <g>
       <use style="stroke:#000000;stroke-width:0.6;" x="373.652866" xlink:href="#mb39fa5a8db" y="567.781683"/>
      </g>
     </g>
    </g>
    <g id="xtick_25">
     <g id="line2d_25">
      <g>
       <use style="stroke:#000000;stroke-width:0.6;" x="383.379926" xlink:href="#mb39fa5a8db" y="567.781683"/>
      </g>
     </g>
    </g>
    <g id="xtick_26">
     <g id="line2d_26">
      <g>
       <use style="stroke:#000000;stroke-width:0.6;" x="391.604037" xlink:href="#mb39fa5a8db" y="567.781683"/>
      </g>
     </g>
    </g>
    <g id="xtick_27">
     <g id="line2d_27">
      <g>
       <use style="stroke:#000000;stroke-width:0.6;" x="398.728087" xlink:href="#mb39fa5a8db" y="567.781683"/>
      </g>
     </g>
    </g>
    <g id="xtick_28">
     <g id="line2d_28">
      <g>
       <use style="stroke:#000000;stroke-width:0.6;" x="405.011944" xlink:href="#mb39fa5a8db" y="567.781683"/>
      </g>
     </g>
    </g>
    <g id="text_5">
     <!-- $t$ (years ago) -->
     <defs>
      <path d="M 20.09375 40.09375 
L 29.296875 40.09375 
C 31.203125 40.09375 32.203125 40.09375 32.203125 41.890625 
C 32.203125 43 31.59375 43 29.59375 43 
L 20.796875 43 
L 24.5 57.6875 
C 24.90625 59.078125 24.90625 59.28125 24.90625 60 
C 24.90625 61.609375 23.59375 62.5 22.296875 62.5 
C 21.5 62.5 19.203125 62.203125 18.40625 58.984375 
L 14.5 43 
L 5.09375 43 
C 3.09375 43 2.203125 43 2.203125 41.09375 
C 2.203125 40.09375 2.90625 40.09375 4.796875 40.09375 
L 13.703125 40.09375 
L 7.09375 13.765625 
C 6.296875 10.28125 6 9.28125 6 7.984375 
C 6 3.296875 9.296875 -1 14.90625 -1 
C 25 -1 30.40625 13.5625 30.40625 14.25 
C 30.40625 14.859375 30 15.15625 29.40625 15.15625 
C 29.203125 15.15625 28.796875 15.15625 28.59375 14.75 
C 28.5 14.65625 28.40625 14.546875 27.703125 12.953125 
C 25.59375 7.984375 21 1 15.203125 1 
C 12.203125 1 12 3.5 12 5.6875 
C 12 5.78125 12 7.6875 12.296875 8.875 
z
" id="CMMI12-116"/>
      <path d="M 25.203125 74.5 
C 19.796875 69.015625 7.40625 56.265625 7.40625 24.8125 
C 7.40625 -6.765625 19.796875 -19.421875 25.203125 -25 
L 31.296875 -25 
C 19 -12.25 15 5.578125 15 24.703125 
C 15 43.71875 18.796875 61.65625 31.296875 74.5 
z
" id="CMSS17-40"/>
      <path d="M 41.796875 43 
L 34 43 
C 25.5 20.21875 22.59375 10.96875 22.40625 5.984375 
L 22.296875 5.984375 
C 22 10.875 17.59375 22.8125 14.09375 31.359375 
L 9.40625 43 
L 1.296875 43 
L 19 0.203125 
C 17.90625 -2.78125 16.296875 -7.265625 15.796875 -8.265625 
C 13.59375 -13.828125 12.09375 -13.828125 10.5 -13.828125 
C 10.09375 -13.828125 6.90625 -13.828125 3.296875 -12.640625 
L 3.90625 -19.203125 
C 6.40625 -19.703125 8.90625 -20 10.703125 -20 
C 13.203125 -20 18.203125 -20 22.796875 -7.765625 
z
" id="CMSS17-121"/>
      <path d="M 39.09375 21.515625 
C 39.09375 24.84375 38.90625 31.296875 35.703125 36.640625 
C 32.203125 42.390625 26.5 44 22.203125 44 
C 11.796875 44 3 34.1875 3 21.484375 
C 3 9.09375 12.09375 -1 23.59375 -1 
C 28.09375 -1 33.59375 0.296875 38.59375 3.875 
C 38.59375 4.28125 38.40625 6.46875 38.296875 6.5625 
C 38.296875 6.765625 38 9.84375 38 10.25 
C 33.203125 6.359375 27.703125 5.078125 23.703125 5.078125 
C 17.296875 5.078125 10.40625 10.421875 10.09375 21.515625 
z
M 10.90625 27 
C 12.203125 32.5625 16.59375 37.828125 22.203125 37.828125 
C 23.703125 37.828125 30.703125 37.828125 32.5 27 
z
" id="CMSS17-101"/>
      <path d="M 37.59375 27.984375 
C 37.59375 37.375 30.90625 43.875 21.90625 43.875 
C 17.5 43.875 12.703125 43.078125 7.203125 39.890625 
L 7.796875 33.359375 
C 10.296875 35.125 14.59375 38 21.796875 38 
C 26.90625 38 30 34.0625 30 27.84375 
L 30 24 
C 14 24 4 19.34375 4 11.34375 
C 4 7.203125 6.5 -1 14.796875 -1 
C 16.296875 -1 24.40625 -1 30.203125 3.390625 
L 30.203125 -0.296875 
L 37.59375 -0.296875 
z
M 30 12.75 
C 30 10.953125 30 8.5625 27 6.78125 
C 24.40625 5.078125 21.09375 5.078125 19.703125 5.078125 
C 14.703125 5.078125 11.296875 7.984375 11.296875 11.625 
C 11.296875 18.921875 26.90625 18.921875 30 18.921875 
z
" id="CMSS17-97"/>
      <path d="M 14.90625 21.296875 
C 14.90625 30.703125 21.796875 37 30.59375 37 
L 30.59375 43.578125 
C 24.203125 43.578125 18.203125 40.390625 14.59375 35.203125 
L 14.59375 43.09375 
L 7.5 43.09375 
L 7.5 0 
L 14.90625 0 
z
" id="CMSS17-114"/>
      <path d="M 32.203125 41.046875 
C 26.296875 43.859375 21.703125 43.859375 18.703125 43.859375 
C 11.59375 43.859375 3.09375 41.375 3.09375 31.296875 
C 3.09375 21.234375 14.09375 19.03125 17.09375 18.421875 
C 21.703125 17.53125 26.796875 16.53125 26.796875 11.5625 
C 26.796875 5.265625 19.59375 5.265625 18.296875 5.265625 
C 14.296875 5.265625 8.796875 6.359375 3.796875 9.96875 
L 2.59375 3.28125 
C 8.296875 0 13.796875 -1 18.40625 -1 
C 30.703125 -1 33.796875 6.5 33.796875 12.203125 
C 33.796875 17.09375 31 20.390625 29.09375 21.890625 
C 25.796875 24.5 24.59375 24.796875 16.40625 26.5 
C 15 26.703125 10.09375 27.796875 10.09375 32.28125 
C 10.09375 38 16.40625 38 17.796875 38 
C 24.296875 38 28.296875 35.984375 31 34.5 
z
" id="CMSS17-115"/>
      <path d="M 44.5 43.875 
C 38.796875 43.875 33.90625 42.78125 29.90625 40.890625 
C 26.59375 43.390625 23.203125 43.875 20.90625 43.875 
C 12.203125 43.875 5.59375 36.703125 5.59375 28.34375 
C 5.59375 22.9375 8.59375 18.859375 8.796875 18.671875 
C 7 16.171875 6 13.484375 6 10.5 
C 6 7 7.40625 4.515625 8.5 3.125 
C 3.296875 -0.046875 2.59375 -4.90625 2.59375 -6.796875 
C 2.59375 -14.03125 11.703125 -20 23.40625 -20 
C 35.203125 -20 44.296875 -14.03125 44.296875 -6.6875 
C 44.296875 7 29 7 24.796875 7 
L 16.703125 7 
C 15.203125 7 11.203125 7 11.203125 12.359375 
C 11.203125 14.390625 12.09375 15.6875 12.203125 15.78125 
C 13.703125 14.6875 16.796875 13 20.90625 13 
C 29.203125 13 36.09375 19.96875 36.09375 28.546875 
C 36.09375 33.3125 33.90625 36.796875 33 38 
L 33.296875 38 
C 33.59375 38 37.796875 38 39.296875 38 
C 42.5 38 42.796875 37.953125 45.59375 37.796875 
z
M 20.90625 18.46875 
C 17.5 18.46875 12.703125 20.546875 12.703125 28.484375 
C 12.703125 37.109375 18.203125 38.5 20.796875 38.5 
C 24.203125 38.5 29 36.421875 29 28.484375 
C 29 19.859375 23.5 18.46875 20.90625 18.46875 
z
M 24.703125 -0.15625 
C 27.09375 -0.15625 37.203125 -0.15625 37.203125 -6.90625 
C 37.203125 -11.15625 31 -14.515625 23.5 -14.515625 
C 15.90625 -14.515625 9.703125 -11.25 9.703125 -6.796875 
C 9.703125 -6.296875 9.703125 -0.15625 16.59375 -0.15625 
z
" id="CMSS17-103"/>
      <path d="M 44.203125 21.1875 
C 44.203125 34 34.703125 44 23.5 44 
C 12 44 2.703125 33.703125 2.703125 21.1875 
C 2.703125 8.5 12.296875 -1 23.40625 -1 
C 34.796875 -1 44.203125 8.796875 44.203125 21.1875 
z
M 23.5 5.265625 
C 16.40625 5.265625 10.296875 11.078125 10.296875 22 
C 10.296875 33.609375 17.40625 37.921875 23.40625 37.921875 
C 29.90625 37.921875 36.59375 33.21875 36.59375 22 
C 36.59375 10.671875 30.09375 5.265625 23.5 5.265625 
z
" id="CMSS17-111"/>
      <path d="M 11.296875 -25 
C 16.703125 -19.515625 29.09375 -6.765625 29.09375 24.703125 
C 29.09375 56.265625 16.703125 68.921875 11.296875 74.5 
L 5.203125 74.5 
C 17.5 61.75 21.5 43.921875 21.5 24.8125 
C 21.5 5.78125 17.703125 -12.15625 5.203125 -25 
z
" id="CMSS17-41"/>
     </defs>
     <g transform="translate(199.756198 595.10934)scale(0.1 -0.1)">
      <use transform="scale(0.996264)" xlink:href="#CMMI12-116"/>
      <use transform="translate(66.455443 0)scale(0.996264)" xlink:href="#CMSS17-40"/>
      <use transform="translate(102.889357 0)scale(0.996264)" xlink:href="#CMSS17-121"/>
      <use transform="translate(143.287045 0)scale(0.996264)" xlink:href="#CMSS17-101"/>
      <use transform="translate(184.925867 0)scale(0.996264)" xlink:href="#CMSS17-97"/>
      <use transform="translate(227.245334 0)scale(0.996264)" xlink:href="#CMSS17-114"/>
      <use transform="translate(259.155106 0)scale(0.996264)" xlink:href="#CMSS17-115"/>
      <use transform="translate(326.297761 0)scale(0.996264)" xlink:href="#CMSS17-97"/>
      <use transform="translate(371.219682 0)scale(0.996264)" xlink:href="#CMSS17-103"/>
      <use transform="translate(418.063305 0)scale(0.996264)" xlink:href="#CMSS17-111"/>
      <use transform="translate(464.906929 0)scale(0.996264)" xlink:href="#CMSS17-41"/>
     </g>
    </g>
   </g>
   <g id="matplotlib.axis_2">
    <g id="ytick_1">
     <g id="line2d_29">
      <defs>
       <path d="M 0 0 
L -3.5 0 
" id="m673e289129" style="stroke:#000000;stroke-width:0.8;"/>
      </defs>
      <g>
       <use style="stroke:#000000;stroke-width:0.8;" x="42.096548" xlink:href="#m673e289129" y="534.394565"/>
      </g>
     </g>
     <g id="text_6">
      <!-- $10^{4}$ -->
      <g transform="translate(21.16264 537.853815)scale(0.1 -0.1)">
       <use transform="scale(0.996264)" xlink:href="#CMR17-49"/>
       <use transform="translate(45.690477 0)scale(0.996264)" xlink:href="#CMR17-48"/>
       <use transform="translate(91.380954 36.153639)scale(0.697382)" xlink:href="#CMR17-52"/>
      </g>
     </g>
    </g>
    <g id="ytick_2">
     <g id="line2d_30">
      <g>
       <use style="stroke:#000000;stroke-width:0.8;" x="42.096548" xlink:href="#m673e289129" y="247.081274"/>
      </g>
     </g>
     <g id="text_7">
      <!-- $10^{5}$ -->
      <g transform="translate(21.16264 250.540523)scale(0.1 -0.1)">
       <use transform="scale(0.996264)" xlink:href="#CMR17-49"/>
       <use transform="translate(45.690477 0)scale(0.996264)" xlink:href="#CMR17-48"/>
       <use transform="translate(91.380954 36.153639)scale(0.697382)" xlink:href="#CMR17-53"/>
      </g>
     </g>
    </g>
    <g id="ytick_3">
     <g id="line2d_31">
      <defs>
       <path d="M 0 0 
L -2 0 
" id="me1a55a2a2b" style="stroke:#000000;stroke-width:0.6;"/>
      </defs>
      <g>
       <use style="stroke:#000000;stroke-width:0.6;" x="42.096548" xlink:href="#me1a55a2a2b" y="562.2381"/>
      </g>
     </g>
    </g>
    <g id="ytick_4">
     <g id="line2d_32">
      <g>
       <use style="stroke:#000000;stroke-width:0.6;" x="42.096548" xlink:href="#me1a55a2a2b" y="547.541301"/>
      </g>
     </g>
    </g>
    <g id="ytick_5">
     <g id="line2d_33">
      <g>
       <use style="stroke:#000000;stroke-width:0.6;" x="42.096548" xlink:href="#me1a55a2a2b" y="447.904646"/>
      </g>
     </g>
    </g>
    <g id="ytick_6">
     <g id="line2d_34">
      <g>
       <use style="stroke:#000000;stroke-width:0.6;" x="42.096548" xlink:href="#me1a55a2a2b" y="397.311287"/>
      </g>
     </g>
    </g>
    <g id="ytick_7">
     <g id="line2d_35">
      <g>
       <use style="stroke:#000000;stroke-width:0.6;" x="42.096548" xlink:href="#me1a55a2a2b" y="361.414728"/>
      </g>
     </g>
    </g>
    <g id="ytick_8">
     <g id="line2d_36">
      <g>
       <use style="stroke:#000000;stroke-width:0.6;" x="42.096548" xlink:href="#me1a55a2a2b" y="333.571193"/>
      </g>
     </g>
    </g>
    <g id="ytick_9">
     <g id="line2d_37">
      <g>
       <use style="stroke:#000000;stroke-width:0.6;" x="42.096548" xlink:href="#me1a55a2a2b" y="310.821368"/>
      </g>
     </g>
    </g>
    <g id="ytick_10">
     <g id="line2d_38">
      <g>
       <use style="stroke:#000000;stroke-width:0.6;" x="42.096548" xlink:href="#me1a55a2a2b" y="291.586666"/>
      </g>
     </g>
    </g>
    <g id="ytick_11">
     <g id="line2d_39">
      <g>
       <use style="stroke:#000000;stroke-width:0.6;" x="42.096548" xlink:href="#me1a55a2a2b" y="274.924809"/>
      </g>
     </g>
    </g>
    <g id="ytick_12">
     <g id="line2d_40">
      <g>
       <use style="stroke:#000000;stroke-width:0.6;" x="42.096548" xlink:href="#me1a55a2a2b" y="260.228009"/>
      </g>
     </g>
    </g>
    <g id="ytick_13">
     <g id="line2d_41">
      <g>
       <use style="stroke:#000000;stroke-width:0.6;" x="42.096548" xlink:href="#me1a55a2a2b" y="160.591355"/>
      </g>
     </g>
    </g>
    <g id="ytick_14">
     <g id="line2d_42">
      <g>
       <use style="stroke:#000000;stroke-width:0.6;" x="42.096548" xlink:href="#me1a55a2a2b" y="109.997996"/>
      </g>
     </g>
    </g>
    <g id="ytick_15">
     <g id="line2d_43">
      <g>
       <use style="stroke:#000000;stroke-width:0.6;" x="42.096548" xlink:href="#me1a55a2a2b" y="74.101436"/>
      </g>
     </g>
    </g>
    <g id="ytick_16">
     <g id="line2d_44">
      <g>
       <use style="stroke:#000000;stroke-width:0.6;" x="42.096548" xlink:href="#me1a55a2a2b" y="46.257901"/>
      </g>
     </g>
    </g>
    <g id="ytick_17">
     <g id="line2d_45">
      <g>
       <use style="stroke:#000000;stroke-width:0.6;" x="42.096548" xlink:href="#me1a55a2a2b" y="23.508077"/>
      </g>
     </g>
    </g>
    <g id="text_8">
     <!-- $\eta(t)$ -->
     <defs>
      <path d="M 47.5 27.625 
C 48 29.609375 48.296875 30.828125 48.296875 33.515625 
C 48.296875 39.5 44.796875 43.984375 37.203125 43.984375 
C 28.296875 43.984375 23.59375 37.703125 21.796875 35.21875 
C 21.5 40.90625 17.40625 43.984375 13 43.984375 
C 10.09375 43.984375 7.796875 42.59375 5.90625 38.796875 
C 4.09375 35.21875 2.703125 29.125 2.703125 28.734375 
C 2.703125 28.328125 3.09375 27.828125 3.796875 27.828125 
C 4.59375 27.828125 4.703125 27.9375 5.296875 30.21875 
C 6.796875 36.109375 8.703125 42 12.703125 42 
C 15 42 15.796875 40.40625 15.796875 37.40625 
C 15.796875 35.21875 14.796875 31.328125 14.09375 28.234375 
L 11.296875 17.46875 
C 10.90625 15.5625 9.796875 11.078125 9.296875 9.265625 
C 8.59375 6.6875 7.5 1.984375 7.5 1.5 
C 7.5 0.09375 8.59375 -1 10.09375 -1 
C 11.296875 -1 12.703125 -0.390625 13.5 1.09375 
C 13.703125 1.59375 14.59375 5.09375 15.09375 7.078125 
L 17.296875 16.0625 
L 20.59375 29.234375 
C 20.796875 29.828125 23.296875 34.8125 27 38 
C 29.59375 40.40625 33 42 36.90625 42 
C 40.90625 42 42.296875 39 42.296875 35.015625 
C 42.296875 32.109375 41.90625 30.515625 41.40625 28.609375 
L 29.796875 -17.296875 
C 29.703125 -17.796875 29.5 -18.390625 29.5 -19 
C 29.5 -20.5 30.703125 -21.5 32.203125 -21.5 
C 33.09375 -21.5 35.203125 -21.09375 36 -18.09375 
z
" id="CMMI12-17"/>
      <path d="M 30.59375 -24.390625 
C 30.59375 -24.296875 30.59375 -24.09375 30.296875 -23.796875 
C 25.703125 -19.125 13.40625 -6.359375 13.40625 24.703125 
C 13.40625 55.765625 25.5 68.421875 30.40625 73.390625 
C 30.40625 73.5 30.59375 73.703125 30.59375 74 
C 30.59375 74.296875 30.296875 74.5 29.90625 74.5 
C 28.796875 74.5 20.296875 67.125 15.40625 56.15625 
C 10.40625 45.109375 9 34.359375 9 24.8125 
C 9 17.625 9.703125 5.484375 15.703125 -7.359375 
C 20.5 -17.734375 28.703125 -25 29.90625 -25 
C 30.40625 -25 30.59375 -24.796875 30.59375 -24.390625 
z
" id="CMR17-40"/>
      <path d="M 26.296875 24.703125 
C 26.296875 31.875 25.59375 44.015625 19.59375 56.859375 
C 14.796875 67.234375 6.59375 74.5 5.40625 74.5 
C 5.09375 74.5 4.703125 74.390625 4.703125 73.890625 
C 4.703125 73.703125 4.796875 73.59375 4.90625 73.390625 
C 9.703125 68.40625 21.90625 55.75 21.90625 24.75 
C 21.90625 -6.359375 9.796875 -19.015625 4.90625 -24.015625 
C 4.796875 -24.203125 4.703125 -24.3125 4.703125 -24.5 
C 4.703125 -25 5.09375 -25 5.40625 -25 
C 6.5 -25 15 -17.625 19.90625 -6.65625 
C 24.90625 4.390625 26.296875 15.140625 26.296875 24.703125 
z
" id="CMR17-41"/>
     </defs>
     <g transform="translate(14.67198 295.816121)rotate(-90)scale(0.1 -0.1)">
      <use transform="scale(0.996264)" xlink:href="#CMMI12-17"/>
      <use transform="translate(51.703816 0)scale(0.996264)" xlink:href="#CMR17-40"/>
      <use transform="translate(86.984584 0)scale(0.996264)" xlink:href="#CMMI12-116"/>
      <use transform="translate(122.210914 0)scale(0.996264)" xlink:href="#CMR17-41"/>
     </g>
    </g>
   </g>
   <g id="line2d_46">
    <path clip-path="url(#p8d9dd2d7e3)" d="M -1 127.235986 
L 20.101482 127.292464 
L 23.373883 127.44166 
L 26.646283 127.750509 
L 29.918683 128.210993 
L 36.463484 129.519452 
L 39.735884 130.589187 
L 43.008285 132.054882 
L 46.280685 133.79204 
L 49.553086 135.718803 
L 52.825486 137.81054 
L 56.097886 140.066148 
L 59.370287 142.490446 
L 62.642687 145.091062 
L 65.915088 147.876011 
L 69.187488 150.855462 
L 72.459888 154.038911 
L 75.732289 157.437408 
L 79.004689 161.061781 
L 82.277089 164.921034 
L 85.54949 169.029444 
L 88.82189 173.397917 
L 92.094291 178.028349 
L 95.366691 182.946144 
L 98.639091 188.231101 
L 101.911492 193.992305 
L 105.183892 200.308617 
L 108.456293 207.194458 
L 111.728693 214.611232 
L 115.001093 222.49936 
L 118.273494 230.801393 
L 121.545894 239.467652 
L 128.090695 257.703218 
L 137.907896 286.375515 
L 144.452697 305.247784 
L 147.725097 314.194794 
L 150.997498 322.579753 
L 154.269898 330.206619 
L 157.542298 336.875166 
L 160.814699 342.39265 
L 164.087099 346.585406 
L 167.359499 349.309825 
L 170.6319 350.464976 
L 190.266302 350.464976 
L 193.538703 349.62392 
L 196.811103 347.757188 
L 200.083503 345.044437 
L 203.355904 341.676067 
L 206.628304 337.846546 
L 219.717906 321.559775 
L 222.990306 318.048901 
L 226.262706 315.035216 
L 229.535107 312.630757 
L 232.807507 310.934675 
L 236.079908 310.037452 
L 265.531511 310.02622 
L 268.803911 310.896658 
L 272.076312 312.514944 
L 275.348712 314.762715 
L 278.621112 317.483963 
L 288.438314 326.388301 
L 291.710714 328.785503 
L 294.983114 330.45209 
L 298.255515 331.124088 
L 317.889917 331.111529 
L 321.162317 329.642684 
L 324.434718 326.927887 
L 327.707118 323.248664 
L 330.979519 318.934967 
L 337.524319 309.856774 
L 340.79672 305.848896 
L 344.06912 302.705031 
L 347.341521 300.806341 
L 350.613921 300.530976 
L 360.431122 300.530976 
L 363.703522 301.844644 
L 366.975923 306.228445 
L 370.248323 313.828364 
L 373.520724 324.736261 
L 376.793124 338.945114 
L 380.065524 356.272517 
L 383.337925 376.244636 
L 389.882726 419.877432 
L 393.155126 439.953312 
L 396.427526 455.797044 
L 399.699927 465.397049 
L 402.972327 467.79401 
L 406.244727 467.79401 
L 409.517128 465.720451 
L 412.789528 459.050557 
L 416.061929 449.152416 
L 419.334329 437.20572 
L 422.606729 424.120098 
L 425.8 410.880418 
L 425.8 410.880418 
" style="fill:none;stroke:#1f77b4;stroke-linecap:square;stroke-opacity:0.3;stroke-width:3;"/>
   </g>
   <g id="line2d_47">
    <path clip-path="url(#p8d9dd2d7e3)" d="M -1 229.341376 
L 69.187488 229.341376 
L 72.459888 229.459414 
L 75.732289 229.800843 
L 79.004689 230.376057 
L 82.277089 231.188692 
L 85.54949 232.250276 
L 88.82189 233.568977 
L 92.094291 235.140586 
L 95.366691 236.956437 
L 98.639091 239.016502 
L 101.911492 241.312266 
L 105.183892 243.821108 
L 108.456293 246.540178 
L 111.728693 249.503826 
L 115.001093 252.753426 
L 118.273494 256.298821 
L 121.545894 260.110086 
L 128.090695 268.330522 
L 134.635496 277.093878 
L 147.725097 295.144538 
L 150.997498 299.421488 
L 154.269898 303.445351 
L 157.542298 307.131997 
L 160.814699 310.40217 
L 164.087099 313.181288 
L 167.359499 315.393614 
L 170.6319 316.955549 
L 173.9043 317.780449 
L 193.538703 317.80208 
L 206.628304 317.80208 
L 209.900704 317.268295 
L 213.173105 316.113295 
L 216.445505 314.446221 
L 219.717906 312.371924 
L 226.262706 307.529712 
L 229.535107 305.063173 
L 232.807507 302.773468 
L 236.079908 300.81739 
L 239.352308 299.354278 
L 242.624708 298.533594 
L 249.169509 298.471131 
L 268.803911 298.471131 
L 272.076312 298.699108 
L 275.348712 299.917172 
L 278.621112 302.00246 
L 281.893513 304.799716 
L 285.165913 308.117672 
L 291.710714 315.365439 
L 294.983114 318.735946 
L 298.255515 321.526462 
L 301.527915 323.424107 
L 304.800316 324.138357 
L 321.162317 324.138357 
L 324.434718 323.21189 
L 327.707118 320.853171 
L 330.979519 317.361268 
L 334.251919 313.108531 
L 340.79672 304.029505 
L 344.06912 300.101256 
L 347.341521 297.179023 
L 350.613921 295.702731 
L 363.703522 295.808668 
L 366.975923 299.152446 
L 370.248323 305.929465 
L 373.520724 316.290416 
L 376.793124 330.302202 
L 380.065524 347.873819 
L 383.337925 368.632211 
L 386.610325 391.739426 
L 389.882726 415.681277 
L 393.155126 438.158049 
L 396.427526 456.331646 
L 399.699927 467.615538 
L 402.972327 470.69966 
L 406.244727 470.69966 
L 409.517128 467.977525 
L 412.789528 460.597328 
L 416.061929 450.141659 
L 419.334329 437.828197 
L 425.8 411.156123 
L 425.8 411.156123 
" style="fill:none;stroke:#1f77b4;stroke-linecap:square;stroke-opacity:0.3;stroke-width:3;"/>
   </g>
   <g id="line2d_48">
    <path clip-path="url(#p8d9dd2d7e3)" d="M -1 244.724559 
L 111.728693 244.724559 
L 115.001093 245.403578 
L 121.545894 247.484912 
L 128.090695 249.958096 
L 134.635496 252.785699 
L 141.180296 255.901143 
L 147.725097 259.405748 
L 154.269898 263.39786 
L 170.6319 273.952273 
L 177.176701 277.875369 
L 183.721501 281.606966 
L 190.266302 285.145154 
L 196.811103 288.410813 
L 203.355904 291.290709 
L 206.628304 292.552575 
L 209.900704 293.678874 
L 213.173105 294.654426 
L 216.445505 295.464565 
L 219.717906 296.095402 
L 222.990306 296.532193 
L 226.262706 296.76136 
L 262.259111 296.815055 
L 265.531511 297.23724 
L 268.803911 298.098635 
L 272.076312 299.443871 
L 275.348712 301.29425 
L 278.621112 303.650663 
L 281.893513 306.48668 
L 285.165913 309.740717 
L 288.438314 313.314938 
L 294.983114 320.817235 
L 298.255515 324.314828 
L 301.527915 327.284408 
L 304.800316 329.426987 
L 308.072716 330.448966 
L 324.434718 330.448966 
L 327.707118 329.802852 
L 330.979519 327.704315 
L 334.251919 324.485223 
L 337.524319 320.554064 
L 340.79672 316.366832 
L 344.06912 312.40404 
L 347.341521 309.158045 
L 350.613921 307.122983 
L 353.886321 306.786115 
L 363.703522 306.786115 
L 366.975923 309.067336 
L 370.248323 314.734646 
L 373.520724 323.907176 
L 376.793124 336.612626 
L 380.065524 352.722615 
L 383.337925 371.843162 
L 386.610325 393.163895 
L 389.882726 415.303058 
L 393.155126 436.246265 
L 396.427526 453.54572 
L 399.699927 464.893581 
L 402.972327 468.893492 
L 406.244727 468.893492 
L 409.517128 467.34164 
L 412.789528 460.699595 
L 416.061929 450.582815 
L 419.334329 438.361722 
L 425.8 411.613791 
L 425.8 411.613791 
" style="fill:none;stroke:#1f77b4;stroke-linecap:square;stroke-opacity:0.3;stroke-width:3;"/>
   </g>
   <g id="line2d_49">
    <path clip-path="url(#p8d9dd2d7e3)" d="M -1 165.688678 
L 79.004689 165.688678 
L 82.277089 165.876143 
L 85.54949 166.328096 
L 88.82189 167.029939 
L 92.094291 167.990195 
L 95.366691 169.233784 
L 98.639091 170.746512 
L 101.911492 172.521696 
L 105.183892 174.636947 
L 108.456293 177.20597 
L 111.728693 180.277559 
L 115.001093 183.81295 
L 118.273494 187.738065 
L 121.545894 191.996923 
L 124.818294 196.567843 
L 128.090695 201.451122 
L 131.363095 206.650438 
L 134.635496 212.161387 
L 137.907896 217.968847 
L 141.180296 224.049234 
L 147.725097 236.909669 
L 154.269898 250.466542 
L 167.359499 278.074766 
L 170.6319 284.682065 
L 173.9043 291.009171 
L 177.176701 296.971684 
L 180.449101 302.487221 
L 183.721501 307.478469 
L 186.993902 311.879061 
L 190.266302 315.641144 
L 193.538703 318.740696 
L 196.811103 321.177163 
L 200.083503 322.967404 
L 203.355904 324.137575 
L 206.628304 324.717169 
L 226.262706 324.737253 
L 258.98671 324.824176 
L 262.259111 325.323174 
L 265.531511 326.202549 
L 268.803911 327.405579 
L 272.076312 328.847419 
L 278.621112 331.965321 
L 281.893513 333.336107 
L 285.165913 334.344731 
L 288.438314 334.799943 
L 311.345116 334.799943 
L 314.617517 334.151805 
L 317.889917 332.237535 
L 321.162317 329.224291 
L 324.434718 325.335238 
L 327.707118 320.836889 
L 334.251919 311.217264 
L 337.524319 306.736675 
L 340.79672 302.91473 
L 344.06912 300.085189 
L 347.341521 298.585186 
L 360.431122 298.585186 
L 363.703522 300.300598 
L 366.975923 305.051715 
L 370.248323 312.992728 
L 373.520724 324.225638 
L 376.793124 338.753091 
L 380.065524 356.400177 
L 383.337925 376.694717 
L 389.882726 420.895215 
L 393.155126 441.092517 
L 396.427526 456.836076 
L 399.699927 466.089917 
L 402.972327 467.979225 
L 406.244727 467.979225 
L 409.517128 465.534537 
L 412.789528 458.683228 
L 416.061929 448.742296 
L 419.334329 436.823736 
L 422.606729 423.789996 
L 425.8 410.602062 
L 425.8 410.602062 
" style="fill:none;stroke:#1f77b4;stroke-linecap:square;stroke-opacity:0.3;stroke-width:3;"/>
   </g>
   <g id="line2d_50">
    <path clip-path="url(#p8d9dd2d7e3)" d="M -1 208.520386 
L 39.735884 208.554969 
L 43.008285 208.712447 
L 46.280685 208.984458 
L 49.553086 209.642885 
L 52.825486 210.599591 
L 56.097886 211.731844 
L 59.370287 212.998357 
L 62.642687 214.391354 
L 69.187488 217.543016 
L 75.732289 221.164936 
L 82.277089 225.253672 
L 88.82189 229.838687 
L 92.094291 232.336061 
L 95.366691 234.978047 
L 98.639091 237.766423 
L 101.911492 240.727136 
L 105.183892 243.922702 
L 108.456293 247.422485 
L 111.728693 251.262902 
L 115.001093 255.437611 
L 118.273494 259.917219 
L 121.545894 264.671996 
L 124.818294 269.679506 
L 131.363095 280.369083 
L 137.907896 291.766085 
L 150.997498 315.063763 
L 154.269898 320.557973 
L 157.542298 325.731552 
L 160.814699 330.474836 
L 164.087099 334.672745 
L 167.359499 338.209008 
L 170.6319 340.97219 
L 173.9043 342.860716 
L 177.176701 343.782701 
L 203.355904 343.782701 
L 206.628304 343.31442 
L 209.900704 342.03021 
L 213.173105 340.062154 
L 216.445505 337.554846 
L 219.717906 334.655348 
L 232.807507 322.17332 
L 236.079908 319.591559 
L 239.352308 317.509682 
L 242.624708 316.047161 
L 245.897109 315.307925 
L 275.348712 315.307925 
L 278.621112 315.900159 
L 281.893513 317.10614 
L 285.165913 318.737694 
L 291.710714 322.413219 
L 294.983114 323.979323 
L 298.255515 325.025318 
L 301.527915 325.302303 
L 321.162317 325.302303 
L 324.434718 324.585283 
L 327.707118 322.680903 
L 330.979519 319.855804 
L 334.251919 316.436032 
L 337.524319 312.791087 
L 340.79672 309.317661 
L 344.06912 306.426013 
L 347.341521 304.530767 
L 350.613921 304.044742 
L 360.431122 304.044742 
L 363.703522 304.670349 
L 366.975923 308.322011 
L 370.248323 315.144658 
L 373.520724 325.230577 
L 376.793124 338.585416 
L 380.065524 355.065477 
L 383.337925 374.273766 
L 393.155126 437.466768 
L 396.427526 454.05367 
L 399.699927 464.708502 
L 402.972327 468.164662 
L 406.244727 468.164662 
L 409.517128 466.512892 
L 412.789528 459.934764 
L 416.061929 449.951058 
L 419.334329 437.864005 
L 425.8 411.300993 
L 425.8 411.300993 
" style="fill:none;stroke:#1f77b4;stroke-linecap:square;stroke-opacity:0.3;stroke-width:3;"/>
   </g>
   <g id="line2d_51">
    <path clip-path="url(#p8d9dd2d7e3)" d="M -1 225.516565 
L 150.997498 225.513123 
L 154.269898 225.693744 
L 157.542298 226.906906 
L 160.814699 228.539268 
L 164.087099 230.415708 
L 167.359499 232.502906 
L 170.6319 234.788456 
L 173.9043 237.263432 
L 177.176701 239.917863 
L 180.449101 242.738798 
L 186.993902 248.810908 
L 193.538703 255.309692 
L 209.900704 271.869985 
L 213.173105 274.930266 
L 216.445505 277.801257 
L 219.717906 280.437269 
L 222.990306 282.797989 
L 226.262706 284.852112 
L 229.535107 286.580169 
L 232.807507 287.976504 
L 236.079908 289.050873 
L 239.352308 289.829773 
L 242.624708 290.357203 
L 245.897109 290.694433 
L 255.71431 291.397463 
L 258.98671 291.856364 
L 262.259111 292.599767 
L 265.531511 293.722697 
L 268.803911 295.30513 
L 272.076312 297.407789 
L 275.348712 300.068819 
L 278.621112 303.297349 
L 281.893513 307.064515 
L 285.165913 311.297424 
L 291.710714 320.630111 
L 294.983114 325.334674 
L 298.255515 329.717784 
L 301.527915 333.47156 
L 304.800316 336.270768 
L 308.072716 337.799902 
L 324.434718 337.800672 
L 327.707118 337.281662 
L 330.979519 335.379216 
L 334.251919 332.450282 
L 337.524319 328.901931 
L 340.79672 325.176075 
L 344.06912 321.731167 
L 347.341521 319.027105 
L 350.613921 317.513117 
L 363.703522 317.513117 
L 366.975923 319.083877 
L 370.248323 323.562641 
L 373.520724 331.0002 
L 376.793124 341.382292 
L 380.065524 354.607872 
L 383.337925 370.442467 
L 386.610325 388.431214 
L 393.155126 427.248967 
L 396.427526 445.099844 
L 399.699927 459.21422 
L 402.972327 467.519834 
L 406.244727 468.868434 
L 409.517128 468.868434 
L 412.789528 464.082595 
L 416.061929 454.436528 
L 419.334329 441.953336 
L 425.8 414.188935 
L 425.8 414.188935 
" style="fill:none;stroke:#1f77b4;stroke-linecap:square;stroke-opacity:0.3;stroke-width:3;"/>
   </g>
   <g id="line2d_52">
    <path clip-path="url(#p8d9dd2d7e3)" d="M -1 129.334401 
L 52.825486 129.353385 
L 56.097886 129.505291 
L 59.370287 129.827042 
L 62.642687 130.293326 
L 65.915088 130.922915 
L 69.187488 131.708052 
L 72.459888 132.661235 
L 75.732289 133.773771 
L 79.004689 135.053272 
L 82.277089 136.515353 
L 85.54949 138.191197 
L 88.82189 140.161586 
L 92.094291 142.513439 
L 95.366691 145.264891 
L 98.639091 148.36119 
L 101.911492 151.723751 
L 105.183892 155.290928 
L 111.728693 162.915456 
L 118.273494 171.123726 
L 124.818294 179.909483 
L 131.363095 189.34382 
L 134.635496 194.346938 
L 137.907896 199.560791 
L 144.452697 210.62809 
L 150.997498 222.509224 
L 157.542298 235.121806 
L 167.359499 254.874439 
L 173.9043 267.927899 
L 177.176701 274.196626 
L 180.449101 280.157855 
L 183.721501 285.690258 
L 186.993902 290.668102 
L 190.266302 294.96448 
L 193.538703 298.457278 
L 196.811103 301.042201 
L 200.083503 302.643317 
L 203.355904 303.210801 
L 275.348712 303.210801 
L 278.621112 304.094841 
L 281.893513 305.875379 
L 285.165913 308.431433 
L 288.438314 311.624879 
L 291.710714 315.262365 
L 298.255515 322.773405 
L 301.527915 325.990025 
L 304.800316 328.372124 
L 308.072716 329.593176 
L 324.434718 329.593176 
L 327.707118 329.118063 
L 330.979519 327.236874 
L 334.251919 324.277563 
L 337.524319 320.647297 
L 340.79672 316.807309 
L 344.06912 313.2427 
L 347.341521 310.438514 
L 350.613921 308.869745 
L 363.703522 308.869745 
L 366.975923 311.357788 
L 370.248323 317.108521 
L 373.520724 326.225442 
L 376.793124 338.721301 
L 380.065524 354.455557 
L 383.337925 373.034531 
L 386.610325 393.676349 
L 389.882726 415.074517 
L 393.155126 435.349771 
L 396.427526 452.227575 
L 399.699927 463.529953 
L 402.972327 467.853531 
L 406.244727 467.853531 
L 409.517128 466.813368 
L 412.789528 460.537093 
L 416.061929 450.628695 
L 419.334329 438.497882 
L 425.8 411.762581 
L 425.8 411.762581 
" style="fill:none;stroke:#1f77b4;stroke-linecap:square;stroke-opacity:0.3;stroke-width:3;"/>
   </g>
   <g id="line2d_53">
    <path clip-path="url(#p8d9dd2d7e3)" d="M -1 204.742096 
L 69.187488 204.742096 
L 72.459888 204.918809 
L 75.732289 205.337399 
L 79.004689 206.003004 
L 82.277089 206.919217 
L 85.54949 208.089938 
L 88.82189 209.521303 
L 92.094291 211.218256 
L 95.366691 213.179896 
L 98.639091 215.408446 
L 101.911492 217.920067 
L 105.183892 220.735687 
L 108.456293 223.862984 
L 111.728693 227.29136 
L 115.001093 230.998967 
L 118.273494 234.957479 
L 124.818294 243.463599 
L 137.907896 261.027823 
L 141.180296 265.029876 
L 144.452697 268.661438 
L 147.725097 271.807143 
L 150.997498 274.357463 
L 154.269898 276.213714 
L 157.542298 277.291837 
L 160.814699 277.525078 
L 190.266302 277.525078 
L 193.538703 276.919897 
L 196.811103 275.786896 
L 200.083503 274.28821 
L 206.628304 270.90647 
L 209.900704 269.40298 
L 213.173105 268.284465 
L 216.445505 267.747397 
L 236.079908 267.747397 
L 239.352308 267.963204 
L 242.624708 269.960542 
L 245.897109 273.801631 
L 249.169509 279.536044 
L 252.441909 287.19617 
L 255.71431 296.791082 
L 258.98671 308.298539 
L 262.259111 321.653928 
L 265.531511 336.735324 
L 268.803911 353.345108 
L 272.076312 371.189611 
L 281.893513 427.362243 
L 285.165913 444.710684 
L 288.438314 459.979738 
L 291.710714 472.310841 
L 294.983114 480.970304 
L 298.255515 485.440837 
L 304.800316 485.4726 
L 308.072716 485.131061 
L 311.345116 480.753715 
L 314.617517 472.8055 
L 317.889917 461.911041 
L 321.162317 448.776963 
L 324.434718 434.118505 
L 337.524319 372.445662 
L 340.79672 358.616052 
L 344.06912 346.114385 
L 347.341521 335.202108 
L 350.613921 326.115665 
L 353.886321 319.079406 
L 357.158722 314.317306 
L 360.431122 312.064077 
L 370.248323 312.064077 
L 373.520724 314.059879 
L 376.793124 319.693727 
L 380.065524 329.1428 
L 383.337925 342.56949 
L 386.610325 360.06056 
L 389.882726 381.496745 
L 393.155126 406.291191 
L 396.427526 432.931503 
L 399.699927 458.428688 
L 402.972327 478.34059 
L 406.244727 488.486425 
L 409.517128 488.486425 
L 412.789528 483.465168 
L 416.061929 470.873825 
L 419.334329 454.817221 
L 425.8 421.71949 
L 425.8 421.71949 
" style="fill:none;stroke:#ff7f0e;stroke-linecap:square;stroke-opacity:0.3;stroke-width:3;"/>
   </g>
   <g id="line2d_54">
    <path clip-path="url(#p8d9dd2d7e3)" d="M -1 71.996872 
L 75.732289 72.020157 
L 79.004689 72.229594 
L 82.277089 72.628427 
L 85.54949 73.214047 
L 88.82189 73.99058 
L 92.094291 74.96294 
L 95.366691 76.134932 
L 98.639091 77.509336 
L 101.911492 79.087541 
L 105.183892 80.872396 
L 108.456293 82.871653 
L 111.728693 85.097676 
L 115.001093 87.563783 
L 118.273494 90.282652 
L 121.545894 93.270896 
L 124.818294 96.552935 
L 128.090695 100.1571 
L 131.363095 104.110698 
L 134.635496 108.440981 
L 137.907896 113.177014 
L 141.180296 118.348269 
L 144.452697 123.983548 
L 147.725097 130.111916 
L 150.997498 136.763043 
L 154.269898 143.966744 
L 157.542298 151.753384 
L 160.814699 160.154429 
L 164.087099 169.201845 
L 167.359499 178.92705 
L 170.6319 189.360201 
L 173.9043 200.528909 
L 177.176701 212.455539 
L 180.449101 225.153659 
L 183.721501 238.624126 
L 186.993902 252.84989 
L 190.266302 267.788443 
L 196.811103 299.449335 
L 206.628304 348.746837 
L 209.900704 364.575163 
L 213.173105 379.548399 
L 216.445505 393.36626 
L 219.717906 405.82556 
L 222.990306 416.872235 
L 226.262706 426.629667 
L 229.535107 435.390677 
L 239.352308 460.053888 
L 242.624708 469.136142 
L 245.897109 479.063454 
L 249.169509 489.791066 
L 255.71431 512.269582 
L 258.98671 522.786782 
L 262.259111 531.767801 
L 265.531511 538.409696 
L 268.803911 542.049452 
L 272.076312 542.262821 
L 278.621112 542.262821 
L 281.893513 540.358998 
L 285.165913 535.451077 
L 288.438314 528.011576 
L 291.710714 518.574669 
L 294.983114 507.67681 
L 298.255515 495.816081 
L 311.345116 446.503716 
L 314.617517 435.099027 
L 317.889917 424.437972 
L 321.162317 414.643797 
L 324.434718 405.820051 
L 327.707118 398.056145 
L 330.979519 391.429605 
L 334.251919 386.007186 
L 337.524319 381.845625 
L 340.79672 378.999121 
L 344.06912 377.526394 
L 353.886321 377.485929 
L 363.703522 377.485929 
L 366.975923 378.196031 
L 370.248323 380.298827 
L 373.520724 383.717885 
L 376.793124 388.363975 
L 380.065524 394.133671 
L 383.337925 400.907605 
L 386.610325 408.547769 
L 389.882726 416.891061 
L 396.427526 434.681355 
L 399.699927 443.054373 
L 402.972327 449.581758 
L 406.244727 452.807181 
L 409.517128 452.807181 
L 412.789528 452.362677 
L 416.061929 446.215546 
L 419.334329 436.216727 
L 422.606729 424.0288 
L 425.8 411.152688 
L 425.8 411.152688 
" style="fill:none;stroke:#ff7f0e;stroke-linecap:square;stroke-opacity:0.3;stroke-width:3;"/>
   </g>
   <g id="line2d_55">
    <path clip-path="url(#p8d9dd2d7e3)" d="M -1 126.243887 
L 7.011881 128.623981 
L 23.373883 133.204613 
L 26.646283 134.076706 
L 29.918683 134.703533 
L 33.191084 134.956504 
L 49.553086 134.981749 
L 108.456293 135.059155 
L 111.728693 135.401391 
L 115.001093 135.953735 
L 118.273494 136.749651 
L 121.545894 137.790445 
L 124.818294 139.085882 
L 128.090695 140.642045 
L 131.363095 142.469218 
L 134.635496 144.573485 
L 137.907896 146.971267 
L 141.180296 149.67252 
L 144.452697 152.698748 
L 147.725097 156.068719 
L 150.997498 159.802943 
L 154.269898 163.926804 
L 157.542298 168.461463 
L 160.814699 173.431956 
L 164.087099 178.876784 
L 167.359499 184.838242 
L 170.6319 191.347181 
L 173.9043 198.419361 
L 177.176701 206.060409 
L 180.449101 214.2703 
L 183.721501 223.046144 
L 186.993902 232.384515 
L 190.266302 242.281809 
L 193.538703 252.731935 
L 196.811103 263.723731 
L 200.083503 275.240292 
L 203.355904 287.259703 
L 206.628304 299.755138 
L 213.173105 326.026373 
L 219.717906 353.593648 
L 229.535107 395.250534 
L 232.807507 408.45177 
L 236.079908 420.938349 
L 239.352308 432.518672 
L 242.624708 443.063069 
L 245.897109 452.518972 
L 249.169509 460.905895 
L 252.441909 468.291366 
L 255.71431 474.75649 
L 258.98671 480.362831 
L 262.259111 485.12862 
L 265.531511 489.014537 
L 268.803911 491.917169 
L 272.076312 493.674874 
L 275.348712 494.089121 
L 288.438314 494.089121 
L 291.710714 493.287401 
L 294.983114 490.293183 
L 298.255515 485.208272 
L 301.527915 478.229038 
L 304.800316 469.625402 
L 308.072716 459.711028 
L 311.345116 448.814656 
L 317.889917 425.361693 
L 324.434718 401.664443 
L 327.707118 390.377446 
L 330.979519 379.76668 
L 334.251919 370.033401 
L 337.524319 361.363303 
L 340.79672 353.930832 
L 344.06912 347.903395 
L 347.341521 343.445534 
L 350.613921 340.723091 
L 353.886321 339.907311 
L 363.703522 339.907311 
L 366.975923 340.03357 
L 370.248323 342.721493 
L 373.520724 348.014109 
L 376.793124 355.9324 
L 380.065524 366.451853 
L 383.337925 379.463423 
L 386.610325 394.71039 
L 389.882726 411.690179 
L 396.427526 446.724259 
L 399.699927 461.221603 
L 402.972327 470.547068 
L 406.244727 472.94165 
L 409.517128 472.94165 
L 412.789528 468.149795 
L 416.061929 458.040778 
L 419.334329 444.935553 
L 425.8 416.117558 
L 425.8 416.117558 
" style="fill:none;stroke:#ff7f0e;stroke-linecap:square;stroke-opacity:0.3;stroke-width:3;"/>
   </g>
   <g id="line2d_56">
    <path clip-path="url(#p8d9dd2d7e3)" d="M -1 195.685867 
L 85.54949 195.735766 
L 88.82189 195.969126 
L 92.094291 196.385835 
L 95.366691 196.98172 
L 98.639091 197.727216 
L 101.911492 198.617116 
L 105.183892 199.742062 
L 108.456293 201.203835 
L 111.728693 203.011441 
L 115.001093 205.095194 
L 118.273494 207.37694 
L 124.818294 212.369845 
L 131.363095 217.826556 
L 150.997498 234.817542 
L 154.269898 237.341206 
L 157.542298 239.673157 
L 160.814699 241.781168 
L 164.087099 243.639988 
L 167.359499 245.233656 
L 170.6319 246.557122 
L 173.9043 247.616622 
L 177.176701 248.429943 
L 180.449101 249.028484 
L 186.993902 249.796996 
L 193.538703 250.54251 
L 196.811103 251.15862 
L 200.083503 252.078614 
L 203.355904 253.408438 
L 206.628304 255.255785 
L 209.900704 257.732952 
L 213.173105 260.958557 
L 216.445505 265.05719 
L 219.717906 270.156617 
L 222.990306 276.382444 
L 226.262706 283.850383 
L 229.535107 292.656267 
L 232.807507 302.863624 
L 236.079908 314.488341 
L 239.352308 327.480576 
L 242.624708 341.705714 
L 245.897109 356.928589 
L 255.71431 404.745554 
L 258.98671 419.834889 
L 262.259111 433.771235 
L 265.531511 446.269754 
L 268.803911 457.173631 
L 272.076312 466.420081 
L 275.348712 473.985278 
L 278.621112 479.832629 
L 281.893513 483.880724 
L 285.165913 485.996715 
L 298.255515 486.013095 
L 301.527915 484.348894 
L 304.800316 479.998665 
L 308.072716 473.111721 
L 311.345116 463.966725 
L 314.617517 452.940878 
L 317.889917 440.470329 
L 321.162317 427.011527 
L 330.979519 384.994975 
L 334.251919 371.683403 
L 337.524319 359.235742 
L 340.79672 347.908973 
L 344.06912 337.934089 
L 347.341521 329.523456 
L 350.613921 322.878725 
L 353.886321 318.19973 
L 357.158722 315.694485 
L 363.703522 315.589851 
L 366.975923 315.589851 
L 370.248323 315.813425 
L 373.520724 319.284179 
L 376.793124 326.168201 
L 380.065524 336.628433 
L 383.337925 350.79055 
L 386.610325 368.674064 
L 389.882726 390.055149 
L 393.155126 414.20738 
L 396.427526 439.478558 
L 399.699927 462.845184 
L 402.972327 480.104124 
L 406.244727 487.630884 
L 409.517128 487.630884 
L 412.789528 481.633097 
L 416.061929 468.91331 
L 419.334329 453.131504 
L 425.8 420.688949 
L 425.8 420.688949 
" style="fill:none;stroke:#ff7f0e;stroke-linecap:square;stroke-opacity:0.3;stroke-width:3;"/>
   </g>
   <g id="line2d_57">
    <path clip-path="url(#p8d9dd2d7e3)" d="M -1 78.843011 
L 46.280685 78.843011 
L 49.553086 79.186847 
L 52.825486 80.27466 
L 56.097886 81.74821 
L 59.370287 83.483228 
L 62.642687 85.461829 
L 65.915088 87.691924 
L 69.187488 90.184222 
L 72.459888 92.950047 
L 75.732289 95.999619 
L 79.004689 99.342738 
L 82.277089 102.988246 
L 85.54949 106.944462 
L 88.82189 111.219129 
L 92.094291 115.819439 
L 95.366691 120.752295 
L 98.639091 126.023981 
L 101.911492 131.640541 
L 105.183892 137.60749 
L 108.456293 143.930229 
L 111.728693 150.614419 
L 115.001093 157.666234 
L 118.273494 165.092991 
L 121.545894 172.902955 
L 124.818294 181.104856 
L 128.090695 189.706949 
L 131.363095 198.714983 
L 134.635496 208.129821 
L 137.907896 217.944661 
L 144.452697 238.688976 
L 150.997498 260.621501 
L 164.087099 305.340049 
L 167.359499 316.028235 
L 170.6319 326.293509 
L 173.9043 336.062888 
L 177.176701 345.308154 
L 180.449101 354.05473 
L 186.993902 370.427783 
L 193.538703 386.357261 
L 196.811103 394.621691 
L 200.083503 403.317217 
L 203.355904 412.571427 
L 206.628304 422.454445 
L 209.900704 432.967098 
L 213.173105 444.035721 
L 226.262706 490.071076 
L 229.535107 500.672673 
L 232.807507 510.314439 
L 236.079908 518.723543 
L 239.352308 525.670064 
L 242.624708 530.977714 
L 245.897109 534.526974 
L 249.169509 536.251208 
L 265.531511 536.251208 
L 268.803911 535.362732 
L 272.076312 532.719409 
L 275.348712 528.405381 
L 278.621112 522.548033 
L 281.893513 515.312869 
L 285.165913 506.893854 
L 288.438314 497.501722 
L 291.710714 487.352795 
L 298.255515 465.625376 
L 308.072716 432.281347 
L 311.345116 421.611667 
L 314.617517 411.392346 
L 317.889917 401.743462 
L 321.162317 392.776927 
L 324.434718 384.598285 
L 327.707118 377.308289 
L 330.979519 371.004301 
L 334.251919 365.781569 
L 337.524319 361.734585 
L 340.79672 358.958805 
L 344.06912 357.552877 
L 360.431122 357.552877 
L 363.703522 358.035087 
L 366.975923 360.38792 
L 370.248323 364.608545 
L 373.520724 370.671241 
L 376.793124 378.512625 
L 380.065524 388.011678 
L 383.337925 398.96377 
L 386.610325 411.048461 
L 393.155126 436.517578 
L 396.427526 448.290836 
L 399.699927 457.846529 
L 402.972327 463.665941 
L 406.244727 464.51573 
L 409.517128 464.51573 
L 412.789528 460.9627 
L 416.061929 452.402281 
L 419.334329 440.681038 
L 422.606729 427.316739 
L 425.8 413.663026 
L 425.8 413.663026 
" style="fill:none;stroke:#2ca02c;stroke-linecap:square;stroke-opacity:0.3;stroke-width:3;"/>
   </g>
   <g id="line2d_58">
    <path clip-path="url(#p8d9dd2d7e3)" d="M -1 107.385196 
L 20.101482 107.486352 
L 23.373883 107.763556 
L 26.646283 108.204495 
L 29.918683 108.818678 
L 33.191084 109.6233 
L 36.463484 110.619361 
L 39.735884 111.828173 
L 43.008285 113.247379 
L 46.280685 114.899113 
L 49.553086 116.781649 
L 52.825486 118.876569 
L 56.097886 121.338581 
L 59.370287 124.387847 
L 62.642687 128.083657 
L 65.915088 132.329233 
L 69.187488 137.002764 
L 72.459888 142.03191 
L 75.732289 147.394607 
L 79.004689 153.097535 
L 82.277089 159.159931 
L 85.54949 165.605506 
L 88.82189 172.458872 
L 92.094291 179.743607 
L 95.366691 187.481286 
L 98.639091 195.691085 
L 101.911492 204.390017 
L 105.183892 213.593576 
L 108.456293 223.316089 
L 111.728693 233.570187 
L 115.001093 244.365059 
L 118.273494 255.703859 
L 121.545894 267.580769 
L 124.818294 279.977143 
L 131.363095 306.153534 
L 147.725097 374.125049 
L 150.997498 386.517335 
L 154.269898 397.906276 
L 157.542298 408.063967 
L 160.814699 416.826095 
L 164.087099 424.112007 
L 167.359499 429.932341 
L 170.6319 434.382889 
L 173.9043 437.627653 
L 177.176701 439.876656 
L 180.449101 441.363854 
L 183.721501 442.328792 
L 193.538703 444.316617 
L 196.811103 445.318383 
L 200.083503 446.753273 
L 203.355904 448.745087 
L 206.628304 451.394579 
L 209.900704 454.779592 
L 213.173105 458.95574 
L 216.445505 463.95597 
L 219.717906 469.786312 
L 222.990306 476.416722 
L 226.262706 483.768629 
L 229.535107 491.70275 
L 239.352308 516.572505 
L 242.624708 524.093704 
L 245.897109 530.564918 
L 249.169509 535.579788 
L 252.441909 538.773715 
L 255.71431 539.857318 
L 265.531511 539.857318 
L 268.803911 539.701677 
L 272.076312 537.218398 
L 275.348712 532.584808 
L 278.621112 526.046219 
L 281.893513 517.891116 
L 285.165913 508.426352 
L 288.438314 497.956279 
L 291.710714 486.768167 
L 298.255515 463.257291 
L 304.800316 439.654939 
L 308.072716 428.260066 
L 311.345116 417.331918 
L 314.617517 406.998757 
L 317.889917 397.376282 
L 321.162317 388.568535 
L 324.434718 380.669006 
L 327.707118 373.762869 
L 330.979519 367.930289 
L 334.251919 363.24984 
L 337.524319 359.801305 
L 340.79672 357.668075 
L 344.06912 356.939497 
L 360.431122 356.939497 
L 363.703522 357.980051 
L 366.975923 360.815774 
L 370.248323 365.43919 
L 373.520724 371.818424 
L 376.793124 379.88178 
L 380.065524 389.497837 
L 383.337925 400.450804 
L 386.610325 412.411522 
L 393.155126 437.27219 
L 396.427526 448.618709 
L 399.699927 457.750983 
L 402.972327 463.233741 
L 406.244727 463.888654 
L 409.517128 463.888654 
L 412.789528 460.383609 
L 416.061929 451.920401 
L 419.334329 440.300866 
L 422.606729 427.021775 
L 425.8 413.431238 
L 425.8 413.431238 
" style="fill:none;stroke:#2ca02c;stroke-linecap:square;stroke-opacity:0.3;stroke-width:3;"/>
   </g>
   <g id="line2d_59">
    <path clip-path="url(#p8d9dd2d7e3)" d="M -1 89.242 
L 43.008285 89.242 
L 46.280685 89.386543 
L 49.553086 89.704984 
L 52.825486 90.188748 
L 56.097886 90.843635 
L 59.370287 91.684875 
L 62.642687 92.715855 
L 65.915088 93.931741 
L 69.187488 95.338654 
L 72.459888 96.957504 
L 75.732289 98.810312 
L 79.004689 100.911901 
L 82.277089 103.276991 
L 85.54949 105.928769 
L 88.82189 108.897292 
L 92.094291 112.212818 
L 95.366691 115.902761 
L 98.639091 119.994231 
L 101.911492 124.51818 
L 105.183892 129.510556 
L 108.456293 135.010196 
L 111.728693 141.056378 
L 115.001093 147.687988 
L 118.273494 154.944252 
L 121.545894 162.866221 
L 124.818294 171.49796 
L 128.090695 180.886498 
L 131.363095 191.080374 
L 134.635496 202.127431 
L 137.907896 214.072764 
L 141.180296 226.956901 
L 144.452697 240.812976 
L 147.725097 255.660967 
L 150.997498 271.497526 
L 154.269898 288.281246 
L 157.542298 305.914249 
L 164.087099 342.930809 
L 170.6319 379.904045 
L 173.9043 397.092423 
L 177.176701 412.629937 
L 180.449101 426.015054 
L 183.721501 436.948349 
L 186.993902 445.406843 
L 190.266302 451.647966 
L 193.538703 456.143957 
L 196.811103 459.478954 
L 203.355904 464.980445 
L 206.628304 468.098022 
L 209.900704 471.89304 
L 213.173105 476.52624 
L 216.445505 482.032274 
L 219.717906 488.330629 
L 222.990306 495.240445 
L 232.807507 516.757798 
L 236.079908 523.060487 
L 239.352308 528.377513 
L 242.624708 532.439449 
L 245.897109 535.036736 
L 249.169509 536.02087 
L 265.531511 536.02087 
L 268.803911 534.674331 
L 272.076312 531.591281 
L 275.348712 526.873565 
L 278.621112 520.665145 
L 281.893513 513.143751 
L 285.165913 504.510184 
L 288.438314 494.977141 
L 291.710714 484.759153 
L 298.255515 463.090418 
L 308.072716 430.231471 
L 311.345116 419.803443 
L 314.617517 409.855481 
L 317.889917 400.501564 
L 321.162317 391.847521 
L 324.434718 383.99297 
L 327.707118 377.033057 
L 330.979519 371.060039 
L 334.251919 366.164811 
L 337.524319 362.438506 
L 340.79672 359.974265 
L 344.06912 358.869175 
L 360.431122 358.869175 
L 363.703522 359.488255 
L 366.975923 361.928937 
L 370.248323 366.181057 
L 373.520724 372.211481 
L 376.793124 379.950524 
L 380.065524 389.273541 
L 383.337925 399.976971 
L 386.610325 411.748677 
L 393.155126 436.48726 
L 396.427526 447.922878 
L 399.699927 457.231369 
L 402.972327 462.938101 
L 406.244727 463.815195 
L 409.517128 463.815195 
L 412.789528 460.419741 
L 416.061929 452.000729 
L 419.334329 440.388209 
L 422.606729 427.100754 
L 425.8 413.498431 
L 425.8 413.498431 
" style="fill:none;stroke:#2ca02c;stroke-linecap:square;stroke-opacity:0.3;stroke-width:3;"/>
   </g>
   <g id="line2d_60">
    <path clip-path="url(#p8d9dd2d7e3)" d="M -1 32.680986 
L 72.459888 32.680986 
L 75.732289 32.950668 
L 79.004689 33.557376 
L 82.277089 34.523362 
L 85.54949 35.872499 
L 88.82189 37.631593 
L 92.094291 39.827107 
L 95.366691 42.492015 
L 98.639091 45.65863 
L 101.911492 49.35317 
L 105.183892 53.629216 
L 108.456293 58.585666 
L 111.728693 64.327619 
L 115.001093 70.920265 
L 118.273494 78.384838 
L 121.545894 86.725409 
L 124.818294 95.953968 
L 128.090695 106.100006 
L 131.363095 117.208848 
L 134.635496 129.336329 
L 137.907896 142.543559 
L 141.180296 156.892248 
L 144.452697 172.439669 
L 147.725097 189.232247 
L 150.997498 207.296719 
L 154.269898 226.627803 
L 157.542298 247.17132 
L 160.814699 268.802108 
L 167.359499 314.310384 
L 173.9043 359.78413 
L 177.176701 380.885701 
L 180.449101 399.92482 
L 183.721501 416.305821 
L 186.993902 429.700907 
L 190.266302 440.126039 
L 193.538703 447.924445 
L 196.811103 453.669941 
L 200.083503 458.036209 
L 203.355904 461.678737 
L 206.628304 465.154181 
L 209.900704 468.879425 
L 213.173105 473.120628 
L 216.445505 478.000634 
L 219.717906 483.516126 
L 222.990306 489.559643 
L 232.807507 508.746461 
L 236.079908 514.622503 
L 239.352308 519.798144 
L 242.624708 524.040285 
L 245.897109 527.148139 
L 249.169509 528.954705 
L 252.441909 529.326174 
L 268.803911 529.326174 
L 272.076312 527.944603 
L 275.348712 524.839631 
L 278.621112 520.105011 
L 281.893513 513.882913 
L 285.165913 506.354028 
L 288.438314 497.725212 
L 291.710714 488.216871 
L 294.983114 478.0518 
L 301.527915 456.605237 
L 308.072716 434.952698 
L 311.345116 424.468365 
L 314.617517 414.403521 
L 317.889917 404.884632 
L 321.162317 396.027186 
L 324.434718 387.938197 
L 327.707118 380.718685 
L 330.979519 374.466016 
L 334.251919 369.27605 
L 337.524319 365.245045 
L 340.79672 362.471343 
L 344.06912 361.056834 
L 360.431122 361.056834 
L 363.703522 361.434935 
L 366.975923 363.645623 
L 370.248323 367.671681 
L 373.520724 373.472993 
L 376.793124 380.974004 
L 380.065524 390.046473 
L 383.337925 400.486844 
L 386.610325 411.988162 
L 393.155126 436.220907 
L 396.427526 447.469555 
L 399.699927 456.673066 
L 402.972327 462.372289 
L 406.244727 463.329704 
L 409.517128 463.329704 
L 412.789528 460.065037 
L 416.061929 451.749672 
L 419.334329 440.210757 
L 422.606729 426.97262 
L 425.8 413.402113 
L 425.8 413.402113 
" style="fill:none;stroke:#2ca02c;stroke-linecap:square;stroke-opacity:0.3;stroke-width:3;"/>
   </g>
   <g id="line2d_61">
    <path clip-path="url(#p8d9dd2d7e3)" d="M -1 235.642458 
L 49.553086 235.642458 
L 52.825486 235.787036 
L 56.097886 236.081363 
L 59.370287 236.511183 
L 62.642687 237.075997 
L 65.915088 237.790925 
L 69.187488 238.653332 
L 72.459888 239.650252 
L 75.732289 240.788895 
L 79.004689 242.084668 
L 82.277089 243.539859 
L 85.54949 245.157003 
L 88.82189 246.95035 
L 92.094291 248.933125 
L 95.366691 251.111828 
L 98.639091 253.495749 
L 101.911492 256.098379 
L 105.183892 258.929442 
L 108.456293 261.994099 
L 111.728693 265.298228 
L 115.001093 268.847937 
L 118.273494 272.644592 
L 121.545894 276.684197 
L 124.818294 280.960548 
L 128.090695 285.465596 
L 131.363095 290.186863 
L 137.907896 300.207141 
L 144.452697 310.871875 
L 150.997498 322.036992 
L 157.542298 333.597734 
L 164.087099 345.527404 
L 170.6319 357.886623 
L 177.176701 370.853627 
L 180.449101 377.653356 
L 183.721501 384.720697 
L 186.993902 392.09967 
L 190.266302 399.831167 
L 193.538703 407.948466 
L 196.811103 416.4722 
L 200.083503 425.405271 
L 203.355904 434.728401 
L 209.900704 454.339955 
L 222.990306 494.597369 
L 226.262706 504.051264 
L 229.535107 512.913223 
L 232.807507 520.984414 
L 236.079908 528.055561 
L 239.352308 533.914518 
L 242.624708 538.357648 
L 245.897109 541.202731 
L 249.169509 542.300698 
L 262.259111 542.300698 
L 265.531511 541.988217 
L 268.803911 539.723315 
L 272.076312 535.603434 
L 275.348712 529.781748 
L 278.621112 522.456084 
L 281.893513 513.854247 
L 285.165913 504.218381 
L 288.438314 493.790904 
L 294.983114 471.472176 
L 304.800316 437.264475 
L 308.072716 426.31728 
L 311.345116 415.822178 
L 314.617517 405.895044 
L 317.889917 396.641805 
L 321.162317 388.160071 
L 324.434718 380.540794 
L 327.707118 373.870052 
L 330.979519 368.230996 
L 334.251919 363.70592 
L 337.524319 360.378382 
L 340.79672 358.335297 
L 344.06912 357.668923 
L 360.431122 357.668923 
L 363.703522 358.672539 
L 366.975923 361.463072 
L 370.248323 366.028171 
L 373.520724 372.331548 
L 376.793124 380.299096 
L 380.065524 389.800398 
L 383.337925 400.625039 
L 386.610325 412.453867 
L 393.155126 437.098469 
L 396.427526 448.391838 
L 399.699927 457.519799 
L 402.972327 463.041934 
L 406.244727 463.76487 
L 409.517128 463.76487 
L 412.789528 460.315475 
L 416.061929 451.88638 
L 419.334329 440.285407 
L 422.606729 427.01564 
L 425.8 413.429494 
L 425.8 413.429494 
" style="fill:none;stroke:#2ca02c;stroke-linecap:square;stroke-opacity:0.3;stroke-width:3;"/>
   </g>
   <g id="line2d_62">
    <path clip-path="url(#p8d9dd2d7e3)" d="M -1 104.186773 
L 65.915088 104.186773 
L 69.187488 104.413364 
L 72.459888 104.885627 
L 75.732289 105.613425 
L 79.004689 106.61193 
L 82.277089 107.910481 
L 85.54949 109.530086 
L 88.82189 111.479678 
L 92.094291 113.763505 
L 95.366691 116.393404 
L 98.639091 119.394692 
L 101.911492 122.79573 
L 105.183892 126.61516 
L 108.456293 130.864541 
L 111.728693 135.562179 
L 115.001093 140.738228 
L 118.273494 146.425236 
L 121.545894 152.64958 
L 124.818294 159.434673 
L 128.090695 166.808125 
L 131.363095 174.801444 
L 134.635496 183.442868 
L 137.907896 192.752062 
L 141.180296 202.740629 
L 144.452697 213.414078 
L 147.725097 224.770118 
L 150.997498 236.793422 
L 154.269898 249.45002 
L 157.542298 262.682991 
L 164.087099 290.516482 
L 177.176701 347.448537 
L 180.449101 360.756043 
L 183.721501 373.23759 
L 186.993902 384.695294 
L 190.266302 394.98069 
L 193.538703 404.009508 
L 196.811103 411.767263 
L 200.083503 418.304788 
L 203.355904 423.726014 
L 206.628304 428.172091 
L 209.900704 431.805805 
L 213.173105 434.798742 
L 216.445505 437.321945 
L 219.717906 439.539628 
L 229.535107 445.822146 
L 232.807507 448.203833 
L 236.079908 450.889083 
L 239.352308 453.941051 
L 242.624708 457.397052 
L 245.897109 461.265859 
L 249.169509 465.525105 
L 252.441909 470.118132 
L 262.259111 484.717687 
L 265.531511 489.220141 
L 268.803911 493.091435 
L 272.076312 495.995682 
L 275.348712 497.577307 
L 288.438314 497.577307 
L 291.710714 496.695399 
L 294.983114 493.243492 
L 298.255515 487.324363 
L 301.527915 479.165126 
L 304.800316 469.088055 
L 308.072716 457.473964 
L 311.345116 444.726649 
L 317.889917 417.400236 
L 324.434718 389.943058 
L 327.707118 376.894564 
L 330.979519 364.619704 
L 334.251919 353.324405 
L 337.524319 343.194503 
L 340.79672 334.401993 
L 344.06912 327.111255 
L 347.341521 321.485292 
L 350.613921 317.692025 
L 353.886321 315.910784 
L 366.975923 315.910784 
L 370.248323 318.769919 
L 373.520724 324.668654 
L 376.793124 333.73843 
L 380.065524 346.090652 
L 383.337925 361.772503 
L 386.610325 380.682641 
L 389.882726 402.417814 
L 396.427526 449.583193 
L 399.699927 470.042622 
L 402.972327 483.560679 
L 406.244727 487.330808 
L 409.517128 487.330808 
L 412.789528 479.778786 
L 416.061929 466.682973 
L 419.334329 451.116536 
L 425.8 419.392548 
L 425.8 419.392548 
" style="fill:none;stroke:#d62728;stroke-linecap:square;stroke-opacity:0.3;stroke-width:3;"/>
   </g>
   <g id="line2d_63">
    <path clip-path="url(#p8d9dd2d7e3)" d="M -1 77.464409 
L 75.732289 77.480823 
L 79.004689 77.839425 
L 82.277089 78.535419 
L 85.54949 79.578299 
L 88.82189 80.987122 
L 92.094291 82.78709 
L 95.366691 85.002041 
L 98.639091 87.653167 
L 101.911492 90.786354 
L 105.183892 94.478957 
L 108.456293 98.805537 
L 111.728693 103.807278 
L 115.001093 109.493613 
L 118.273494 115.861543 
L 121.545894 122.911224 
L 124.818294 130.651436 
L 128.090695 139.098477 
L 131.363095 148.272677 
L 134.635496 158.19463 
L 137.907896 168.881633 
L 141.180296 180.344153 
L 144.452697 192.58192 
L 147.725097 205.579326 
L 150.997498 219.300082 
L 154.269898 233.681158 
L 160.814699 263.997743 
L 170.6319 310.600395 
L 173.9043 325.387152 
L 177.176701 339.282536 
L 180.449101 351.994479 
L 183.721501 363.294533 
L 186.993902 373.052209 
L 190.266302 381.254537 
L 193.538703 388.004344 
L 196.811103 393.498445 
L 200.083503 397.993665 
L 203.355904 401.770773 
L 206.628304 405.104038 
L 213.173105 411.38433 
L 216.445505 414.697723 
L 219.717906 418.293584 
L 222.990306 422.240404 
L 226.262706 426.564736 
L 229.535107 431.255377 
L 232.807507 436.268904 
L 239.352308 446.975317 
L 249.169509 463.430205 
L 252.441909 468.700372 
L 255.71431 473.750235 
L 258.98671 478.50847 
L 262.259111 482.884418 
L 265.531511 486.755252 
L 268.803911 489.95701 
L 272.076312 492.282706 
L 275.348712 493.489671 
L 291.710714 493.489671 
L 294.983114 491.358214 
L 298.255515 486.855842 
L 301.527915 480.113637 
L 304.800316 471.370341 
L 308.072716 460.944591 
L 311.345116 449.202093 
L 314.617517 436.524855 
L 327.707118 383.558933 
L 330.979519 371.266344 
L 334.251919 359.851213 
L 337.524319 349.519111 
L 340.79672 340.459301 
L 344.06912 332.850435 
L 347.341521 326.866388 
L 350.613921 322.682373 
L 353.886321 320.481479 
L 366.975923 320.461715 
L 370.248323 322.821101 
L 373.520724 328.212403 
L 376.793124 336.758425 
L 380.065524 348.56014 
L 383.337925 363.653225 
L 386.610325 381.926229 
L 389.882726 402.973361 
L 396.427526 448.719698 
L 399.699927 468.615763 
L 402.972327 481.843332 
L 406.244727 485.674649 
L 409.517128 485.674649 
L 412.789528 478.567428 
L 416.061929 465.863586 
L 419.334329 450.578053 
L 425.8 419.139397 
L 425.8 419.139397 
" style="fill:none;stroke:#d62728;stroke-linecap:square;stroke-opacity:0.3;stroke-width:3;"/>
   </g>
   <g id="line2d_64">
    <path clip-path="url(#p8d9dd2d7e3)" d="M -1 123.752757 
L 20.101482 123.759988 
L 23.373883 123.868447 
L 26.646283 124.153834 
L 29.918683 124.597126 
L 33.191084 125.217301 
L 36.463484 126.021305 
L 39.735884 127.018059 
L 43.008285 128.218616 
L 46.280685 129.630101 
L 49.553086 131.263738 
L 52.825486 133.128675 
L 56.097886 135.221896 
L 59.370287 137.659128 
L 62.642687 140.639281 
L 65.915088 144.257946 
L 69.187488 148.461319 
L 72.459888 153.141225 
L 75.732289 158.217012 
L 79.004689 163.652921 
L 82.277089 169.443165 
L 85.54949 175.59598 
L 88.82189 182.124791 
L 92.094291 189.044479 
L 95.366691 196.369791 
L 98.639091 204.114448 
L 101.911492 212.290667 
L 105.183892 220.908953 
L 108.456293 229.977887 
L 111.728693 239.503396 
L 115.001093 249.486979 
L 118.273494 259.922821 
L 121.545894 270.794077 
L 128.090695 293.697406 
L 134.635496 317.709028 
L 144.452697 353.824218 
L 147.725097 365.232531 
L 150.997498 376.004206 
L 154.269898 385.952342 
L 157.542298 394.912914 
L 160.814699 402.757143 
L 164.087099 409.403887 
L 167.359499 414.82985 
L 170.6319 419.074067 
L 173.9043 422.229546 
L 177.176701 424.424406 
L 180.449101 425.810895 
L 183.721501 426.561257 
L 186.993902 426.853243 
L 200.083503 426.856285 
L 203.355904 427.059207 
L 206.628304 427.557812 
L 209.900704 428.411823 
L 213.173105 429.668953 
L 216.445505 431.361901 
L 219.717906 433.511353 
L 222.990306 436.128015 
L 226.262706 439.211704 
L 229.535107 442.750813 
L 232.807507 446.722657 
L 236.079908 451.091478 
L 239.352308 455.805585 
L 245.897109 465.984301 
L 252.441909 476.529702 
L 255.71431 481.621306 
L 258.98671 486.367821 
L 262.259111 490.56793 
L 265.531511 493.996654 
L 268.803911 496.408409 
L 272.076312 497.545811 
L 285.165913 497.545811 
L 288.438314 497.366683 
L 291.710714 494.87092 
L 294.983114 490.108652 
L 298.255515 483.235982 
L 301.527915 474.498382 
L 304.800316 464.204181 
L 308.072716 452.695132 
L 311.345116 440.320667 
L 324.434718 388.56885 
L 327.707118 376.429857 
L 330.979519 365.057203 
L 334.251919 354.634539 
L 337.524319 345.332013 
L 340.79672 337.31252 
L 344.06912 330.73735 
L 347.341521 325.771339 
L 350.613921 322.587824 
L 353.886321 321.373606 
L 363.703522 321.373606 
L 366.975923 321.653761 
L 370.248323 324.755621 
L 373.520724 330.802245 
L 376.793124 339.90931 
L 380.065524 352.160262 
L 383.337925 367.559775 
L 386.610325 385.949126 
L 389.882726 406.858785 
L 396.427526 451.311515 
L 399.699927 470.054586 
L 402.972327 482.011862 
L 406.244727 484.759142 
L 409.517128 484.759142 
L 412.789528 477.418829 
L 416.061929 464.801017 
L 419.334329 449.718463 
L 425.8 418.632426 
L 425.8 418.632426 
" style="fill:none;stroke:#d62728;stroke-linecap:square;stroke-opacity:0.3;stroke-width:3;"/>
   </g>
   <g id="line2d_65">
    <path clip-path="url(#p8d9dd2d7e3)" d="M -1 255.986083 
L 20.101482 255.986083 
L 23.373883 256.103214 
L 26.646283 256.488093 
L 29.918683 257.156796 
L 33.191084 258.125669 
L 36.463484 259.410946 
L 39.735884 261.039133 
L 43.008285 263.041238 
L 46.280685 265.440439 
L 49.553086 268.249437 
L 52.825486 271.474878 
L 56.097886 275.123035 
L 59.370287 279.20328 
L 62.642687 283.72842 
L 65.915088 288.713157 
L 69.187488 294.172161 
L 72.459888 300.11844 
L 75.732289 306.562045 
L 79.004689 313.50896 
L 82.277089 320.960063 
L 85.54949 328.909887 
L 88.82189 337.344955 
L 92.094291 346.241724 
L 95.366691 355.564429 
L 101.911492 375.270003 
L 115.001093 416.253539 
L 118.273494 425.96027 
L 121.545894 435.038064 
L 124.818294 443.242114 
L 128.090695 450.323682 
L 131.363095 456.046805 
L 134.635496 460.206254 
L 137.907896 462.644147 
L 141.180296 463.262523 
L 157.542298 463.262523 
L 160.814699 462.007713 
L 164.087099 459.511539 
L 167.359499 455.990495 
L 170.6319 451.676217 
L 173.9043 446.804672 
L 186.993902 426.213689 
L 190.266302 421.79291 
L 193.538703 418.014393 
L 196.811103 415.031946 
L 200.083503 412.98963 
L 203.355904 412.023317 
L 222.990306 412.023317 
L 226.262706 412.777149 
L 229.535107 415.026768 
L 232.807507 418.718499 
L 236.079908 423.775915 
L 239.352308 430.093742 
L 242.624708 437.530775 
L 245.897109 445.902277 
L 249.169509 454.97278 
L 258.98671 483.17907 
L 262.259111 491.58437 
L 265.531511 498.741092 
L 268.803911 504.198415 
L 272.076312 507.551445 
L 275.348712 508.476392 
L 285.165913 508.476392 
L 288.438314 506.694518 
L 291.710714 502.235674 
L 294.983114 495.339981 
L 298.255515 486.334451 
L 301.527915 475.599281 
L 304.800316 463.535206 
L 308.072716 450.536804 
L 321.162317 396.053572 
L 324.434718 383.201353 
L 327.707118 371.095526 
L 330.979519 359.911431 
L 334.251919 349.808824 
L 337.524319 340.937526 
L 340.79672 333.442609 
L 344.06912 327.469239 
L 347.341521 323.167336 
L 350.613921 320.696259 
L 353.886321 320.229674 
L 363.703522 320.229674 
L 366.975923 321.226644 
L 370.248323 324.992314 
L 373.520724 331.634403 
L 376.793124 341.251504 
L 380.065524 353.907242 
L 383.337925 369.582442 
L 386.610325 388.089784 
L 389.882726 408.92823 
L 396.427526 452.593968 
L 399.699927 470.682639 
L 402.972327 481.969145 
L 406.244727 484.189442 
L 409.517128 484.189442 
L 412.789528 476.782813 
L 416.061929 464.240529 
L 419.334329 449.274998 
L 425.8 418.373037 
L 425.8 418.373037 
" style="fill:none;stroke:#d62728;stroke-linecap:square;stroke-opacity:0.3;stroke-width:3;"/>
   </g>
   <g id="line2d_66">
    <path clip-path="url(#p8d9dd2d7e3)" d="M -1 60.437985 
L 46.280685 60.505507 
L 49.553086 60.825614 
L 52.825486 61.417195 
L 56.097886 62.299 
L 59.370287 63.489949 
L 62.642687 65.010847 
L 65.915088 66.882808 
L 69.187488 69.125676 
L 72.459888 71.758882 
L 75.732289 74.802763 
L 79.004689 78.27888 
L 82.277089 82.210226 
L 85.54949 86.621272 
L 88.82189 91.537448 
L 92.094291 96.985609 
L 95.366691 102.995769 
L 98.639091 109.601655 
L 101.911492 116.839022 
L 105.183892 124.743639 
L 108.456293 133.350841 
L 111.728693 142.696332 
L 115.001093 152.816763 
L 118.273494 163.74929 
L 121.545894 175.530143 
L 124.818294 188.192178 
L 128.090695 201.760929 
L 131.363095 216.248817 
L 134.635496 231.647542 
L 137.907896 247.918802 
L 141.180296 264.983359 
L 147.725097 300.894829 
L 154.269898 337.454314 
L 157.542298 355.023171 
L 160.814699 371.474614 
L 164.087099 386.304969 
L 167.359499 399.069298 
L 170.6319 409.451186 
L 173.9043 417.31404 
L 177.176701 422.716168 
L 180.449101 425.886406 
L 183.721501 427.172569 
L 216.445505 427.238627 
L 219.717906 428.030201 
L 222.990306 429.559935 
L 226.262706 431.821118 
L 229.535107 434.790676 
L 232.807507 438.430785 
L 236.079908 442.68966 
L 239.352308 447.501689 
L 242.624708 452.785374 
L 245.897109 458.441897 
L 258.98671 482.131712 
L 262.259111 487.424157 
L 265.531511 492.001697 
L 268.803911 495.588449 
L 272.076312 497.897544 
L 275.348712 498.647974 
L 288.438314 498.647974 
L 291.710714 496.865742 
L 294.983114 492.673184 
L 298.255515 486.209292 
L 301.527915 477.713233 
L 304.800316 467.498454 
L 308.072716 455.922298 
L 311.345116 443.357425 
L 317.889917 416.700165 
L 324.434718 390.135703 
L 327.707118 377.566643 
L 330.979519 365.774985 
L 334.251919 354.957386 
L 337.524319 345.293273 
L 340.79672 336.950596 
L 344.06912 330.09159 
L 347.341521 324.878526 
L 350.613921 321.479535 
L 353.886321 320.07463 
L 363.703522 320.07463 
L 366.975923 320.272076 
L 370.248323 323.323783 
L 373.520724 329.351298 
L 376.793124 338.472602 
L 380.065524 350.777914 
L 383.337925 366.283221 
L 386.610325 384.844824 
L 389.882726 406.009098 
L 396.427526 451.233879 
L 399.699927 470.42697 
L 402.972327 482.756999 
L 406.244727 485.699059 
L 409.517128 485.699059 
L 412.789528 478.218134 
L 416.061929 465.411742 
L 419.334329 450.160855 
L 425.8 418.867425 
L 425.8 418.867425 
" style="fill:none;stroke:#d62728;stroke-linecap:square;stroke-opacity:0.3;stroke-width:3;"/>
   </g>
   <g id="line2d_67">
    <path clip-path="url(#p8d9dd2d7e3)" d="M -1 168.453476 
L 69.187488 168.453476 
L 72.459888 168.625265 
L 75.732289 169.042164 
L 79.004689 169.702071 
L 82.277089 170.615322 
L 85.54949 171.798766 
L 88.82189 173.271104 
L 92.094291 175.043028 
L 95.366691 177.109862 
L 98.639091 179.484098 
L 101.911492 182.223926 
L 105.183892 185.404858 
L 108.456293 189.067938 
L 111.728693 193.201518 
L 115.001093 197.7615 
L 118.273494 202.700396 
L 121.545894 207.984608 
L 124.818294 213.598001 
L 128.090695 219.536903 
L 131.363095 225.801321 
L 134.635496 232.38616 
L 137.907896 239.27529 
L 144.452697 253.836987 
L 150.997498 269.114801 
L 160.814699 292.212357 
L 167.359499 306.802215 
L 170.6319 313.60997 
L 173.9043 320.00081 
L 177.176701 325.92657 
L 180.449101 331.363204 
L 183.721501 336.315327 
L 186.993902 340.818693 
L 190.266302 344.941045 
L 196.811103 352.470911 
L 200.083503 356.162546 
L 203.355904 360.026736 
L 206.628304 364.235202 
L 209.900704 368.946577 
L 213.173105 374.293208 
L 216.445505 380.371545 
L 219.717906 387.236195 
L 222.990306 394.896563 
L 226.262706 403.314919 
L 229.535107 412.405378 
L 232.807507 422.034205 
L 245.897109 461.839518 
L 249.169509 470.879877 
L 252.441909 479.058717 
L 255.71431 486.161911 
L 258.98671 492.00392 
L 262.259111 496.424213 
L 265.531511 499.281054 
L 268.803911 500.446997 
L 281.893513 500.446997 
L 285.165913 500.011725 
L 288.438314 497.408436 
L 291.710714 492.690354 
L 294.983114 485.993745 
L 298.255515 477.528725 
L 301.527915 467.561569 
L 304.800316 456.393146 
L 308.072716 444.338033 
L 314.617517 418.796807 
L 321.162317 393.200433 
L 324.434718 380.981153 
L 327.707118 369.416858 
L 330.979519 358.682896 
L 334.251919 348.939407 
L 337.524319 340.336932 
L 340.79672 333.021829 
L 344.06912 327.141206 
L 347.341521 322.847371 
L 350.613921 320.302018 
L 353.886321 319.680468 
L 363.703522 319.680468 
L 366.975923 320.254702 
L 370.248323 323.547636 
L 373.520724 329.670621 
L 376.793124 338.731213 
L 380.065524 350.810378 
L 383.337925 365.918016 
L 386.610325 383.912265 
L 389.882726 404.360694 
L 396.427526 448.028619 
L 399.699927 466.723853 
L 402.972327 479.03316 
L 406.244727 482.512452 
L 409.517128 482.512452 
L 412.789528 475.997344 
L 416.061929 463.956168 
L 419.334329 449.221231 
L 425.8 418.429411 
L 425.8 418.429411 
" style="fill:none;stroke:#9467bd;stroke-linecap:square;stroke-opacity:0.3;stroke-width:3;"/>
   </g>
   <g id="line2d_68">
    <path clip-path="url(#p8d9dd2d7e3)" d="M -1 99.368972 
L 20.101482 99.37467 
L 23.373883 99.487098 
L 26.646283 99.916101 
L 29.918683 100.678166 
L 33.191084 101.627036 
L 36.463484 102.711594 
L 39.735884 103.923342 
L 43.008285 105.261016 
L 49.553086 108.305028 
L 56.097886 111.820122 
L 62.642687 115.783106 
L 69.187488 120.193014 
L 75.732289 125.0925 
L 79.004689 127.753607 
L 82.277089 130.574367 
L 85.54949 133.572355 
L 88.82189 136.766551 
L 92.094291 140.166147 
L 95.366691 143.78554 
L 98.639091 147.680559 
L 101.911492 151.949515 
L 105.183892 156.68577 
L 108.456293 161.931456 
L 111.728693 167.672177 
L 115.001093 173.863912 
L 118.273494 180.462045 
L 121.545894 187.435311 
L 124.818294 194.765647 
L 128.090695 202.441805 
L 131.363095 210.452682 
L 137.907896 227.407451 
L 144.452697 245.398273 
L 160.814699 291.758601 
L 164.087099 300.55362 
L 167.359499 308.939468 
L 170.6319 316.810998 
L 173.9043 324.077108 
L 177.176701 330.669157 
L 180.449101 336.54855 
L 183.721501 341.712426 
L 186.993902 346.196644 
L 190.266302 350.075655 
L 193.538703 353.459349 
L 196.811103 356.487426 
L 206.628304 365.123388 
L 209.900704 368.452549 
L 213.173105 372.297777 
L 216.445505 376.812502 
L 219.717906 382.126237 
L 222.990306 388.337358 
L 226.262706 395.505486 
L 229.535107 403.643199 
L 232.807507 412.706836 
L 236.079908 422.586911 
L 242.624708 443.985756 
L 249.169509 465.491152 
L 252.441909 475.315831 
L 255.71431 483.994035 
L 258.98671 491.187389 
L 262.259111 496.632927 
L 265.531511 500.147803 
L 268.803911 501.620174 
L 281.893513 501.620174 
L 285.165913 500.719158 
L 288.438314 497.677255 
L 291.710714 492.585414 
L 294.983114 485.597009 
L 298.255515 476.921251 
L 301.527915 466.810831 
L 304.800316 455.546115 
L 308.072716 443.419214 
L 314.617517 417.726382 
L 321.162317 391.857586 
L 324.434718 379.426066 
L 327.707118 367.589978 
L 330.979519 356.523482 
L 334.251919 346.389522 
L 337.524319 337.344654 
L 340.79672 329.543542 
L 344.06912 323.142998 
L 347.341521 318.305711 
L 350.613921 315.203933 
L 353.886321 314.023441 
L 363.703522 314.023441 
L 366.975923 314.190182 
L 370.248323 317.165068 
L 373.520724 323.082075 
L 376.793124 332.079413 
L 380.065524 344.280776 
L 383.337925 359.754868 
L 386.610325 378.435407 
L 389.882726 399.972381 
L 396.427526 447.146012 
L 399.699927 467.969773 
L 402.972327 482.108121 
L 406.244727 486.637598 
L 409.517128 486.637598 
L 412.789528 479.581072 
L 416.061929 466.735053 
L 419.334329 451.257881 
L 425.8 419.530807 
L 425.8 419.530807 
" style="fill:none;stroke:#9467bd;stroke-linecap:square;stroke-opacity:0.3;stroke-width:3;"/>
   </g>
   <g id="line2d_69">
    <path clip-path="url(#p8d9dd2d7e3)" d="M -1 96.89142 
L 36.463484 97.002951 
L 39.735884 97.277915 
L 43.008285 97.718818 
L 46.280685 98.32269 
L 49.553086 99.100835 
L 52.825486 100.047905 
L 56.097886 101.174943 
L 59.370287 102.475544 
L 62.642687 103.961663 
L 65.915088 105.626269 
L 69.187488 107.47068 
L 72.459888 109.63016 
L 75.732289 112.269913 
L 79.004689 115.418915 
L 82.277089 118.984438 
L 85.54949 122.856787 
L 88.82189 126.966874 
L 92.094291 131.287033 
L 95.366691 135.814511 
L 98.639091 140.559392 
L 101.911492 145.538905 
L 105.183892 150.774828 
L 108.456293 156.291738 
L 111.728693 162.115267 
L 115.001093 168.270461 
L 118.273494 174.780284 
L 121.545894 181.664563 
L 124.818294 188.939333 
L 128.090695 196.616465 
L 131.363095 204.703437 
L 134.635496 213.202846 
L 137.907896 222.111523 
L 141.180296 231.419037 
L 147.725097 251.138847 
L 154.269898 272.038637 
L 167.359499 314.569849 
L 170.6319 324.566252 
L 173.9043 333.9801 
L 177.176701 342.651767 
L 180.449101 350.44748 
L 183.721501 357.274957 
L 186.993902 363.095994 
L 190.266302 367.934138 
L 193.538703 371.876396 
L 196.811103 375.068538 
L 200.083503 377.704345 
L 209.900704 384.597661 
L 213.173105 387.341614 
L 216.445505 390.653314 
L 219.717906 394.687196 
L 222.990306 399.551819 
L 226.262706 405.3047 
L 229.535107 411.948449 
L 232.807507 419.428249 
L 236.079908 427.631424 
L 239.352308 436.390361 
L 249.169509 463.692118 
L 252.441909 472.251463 
L 255.71431 480.092986 
L 258.98671 486.966809 
L 262.259111 492.641821 
L 265.531511 496.905724 
L 268.803911 499.565642 
L 272.076312 500.452044 
L 285.165913 500.452044 
L 288.438314 498.947687 
L 291.710714 495.15616 
L 294.983114 489.192319 
L 298.255515 481.252058 
L 301.527915 471.597332 
L 304.800316 460.535408 
L 308.072716 448.397107 
L 314.617517 422.224165 
L 321.162317 395.585811 
L 324.434718 382.769037 
L 327.707118 370.590799 
L 330.979519 359.245851 
L 334.251919 348.907746 
L 337.524319 339.7345 
L 340.79672 331.874739 
L 344.06912 325.473833 
L 347.341521 320.679858 
L 350.613921 317.649392 
L 353.886321 316.553218 
L 363.703522 316.553218 
L 366.975923 316.757419 
L 370.248323 319.739133 
L 373.520724 325.626755 
L 376.793124 334.549105 
L 380.065524 346.613277 
L 383.337925 361.8618 
L 386.610325 380.192985 
L 389.882726 401.218334 
L 396.427526 446.835164 
L 399.699927 466.758985 
L 402.972327 480.176326 
L 406.244727 484.377513 
L 409.517128 484.377513 
L 412.789528 477.710205 
L 416.061929 465.329163 
L 419.334329 450.24898 
L 425.8 418.997004 
L 425.8 418.997004 
" style="fill:none;stroke:#9467bd;stroke-linecap:square;stroke-opacity:0.3;stroke-width:3;"/>
   </g>
   <g id="line2d_70">
    <path clip-path="url(#p8d9dd2d7e3)" d="M -1 221.165142 
L 62.642687 221.256757 
L 65.915088 221.553686 
L 69.187488 222.050374 
L 72.459888 222.744494 
L 75.732289 223.658369 
L 79.004689 224.760802 
L 82.277089 226.083075 
L 85.54949 227.781383 
L 88.82189 229.977063 
L 92.094291 232.662554 
L 95.366691 235.761593 
L 98.639091 239.20582 
L 101.911492 242.959032 
L 105.183892 247.01167 
L 108.456293 251.370699 
L 111.728693 256.049639 
L 115.001093 261.058852 
L 118.273494 266.398919 
L 121.545894 272.059069 
L 124.818294 278.019319 
L 128.090695 284.253351 
L 134.635496 297.412846 
L 141.180296 311.218533 
L 150.997498 332.135986 
L 154.269898 338.869008 
L 157.542298 345.341374 
L 160.814699 351.465135 
L 164.087099 357.158256 
L 167.359499 362.353999 
L 170.6319 367.00883 
L 173.9043 371.105201 
L 177.176701 374.649232 
L 180.449101 377.666591 
L 183.721501 380.20011 
L 186.993902 382.310242 
L 190.266302 384.076912 
L 193.538703 385.600312 
L 200.083503 388.404954 
L 203.355904 389.956462 
L 206.628304 391.789878 
L 209.900704 394.031611 
L 213.173105 396.791111 
L 216.445505 400.155273 
L 219.717906 404.184246 
L 222.990306 408.908439 
L 226.262706 414.326675 
L 229.535107 420.405487 
L 232.807507 427.079579 
L 236.079908 434.253469 
L 242.624708 449.5862 
L 249.169509 465.166256 
L 252.441909 472.591151 
L 255.71431 479.504636 
L 258.98671 485.692338 
L 262.259111 490.928931 
L 265.531511 494.979464 
L 268.803911 497.604749 
L 272.076312 498.572494 
L 285.165913 498.572494 
L 288.438314 497.098764 
L 291.710714 493.278536 
L 294.983114 487.234648 
L 298.255515 479.183923 
L 301.527915 469.415082 
L 304.800316 458.260927 
L 308.072716 446.07091 
L 314.617517 419.9376 
L 321.162317 393.475266 
L 324.434718 380.761796 
L 327.707118 368.679698 
L 330.979519 357.416243 
L 334.251919 347.143161 
L 337.524319 338.022108 
L 340.79672 330.209895 
L 344.06912 323.863234 
L 347.341521 319.143002 
L 350.613921 316.218389 
L 353.886321 315.271315 
L 363.703522 315.271315 
L 366.975923 315.811608 
L 370.248323 319.162988 
L 373.520724 325.443576 
L 376.793124 334.769703 
L 380.065524 347.234977 
L 383.337925 362.867148 
L 386.610325 381.545725 
L 389.882726 402.854719 
L 396.427526 448.672949 
L 399.699927 468.415588 
L 402.972327 481.448086 
L 406.244727 485.134454 
L 409.517128 485.134454 
L 412.789528 478.077233 
L 416.061929 465.470928 
L 419.334329 450.283727 
L 425.8 418.976618 
L 425.8 418.976618 
" style="fill:none;stroke:#9467bd;stroke-linecap:square;stroke-opacity:0.3;stroke-width:3;"/>
   </g>
   <g id="line2d_71">
    <path clip-path="url(#p8d9dd2d7e3)" d="M -1 81.964731 
L 0.46708 82.086649 
L 7.011881 82.189189 
L 56.097886 82.24548 
L 59.370287 82.484406 
L 62.642687 82.901877 
L 65.915088 83.491247 
L 69.187488 84.2832 
L 72.459888 85.275828 
L 75.732289 86.490898 
L 79.004689 87.936531 
L 82.277089 89.629134 
L 85.54949 91.580526 
L 88.82189 93.803788 
L 92.094291 96.311902 
L 95.366691 99.117702 
L 98.639091 102.231203 
L 101.911492 105.660613 
L 105.183892 109.412382 
L 108.456293 113.493069 
L 111.728693 117.908133 
L 115.001093 122.663346 
L 118.273494 127.763894 
L 121.545894 133.215672 
L 124.818294 139.024697 
L 128.090695 145.197337 
L 131.363095 151.739765 
L 134.635496 158.656515 
L 137.907896 165.94996 
L 141.180296 173.618619 
L 144.452697 181.656398 
L 147.725097 190.052432 
L 150.997498 198.789925 
L 157.542298 217.192953 
L 164.087099 236.603415 
L 177.176701 276.812597 
L 183.721501 296.583422 
L 190.266302 315.361124 
L 193.538703 324.236421 
L 196.811103 332.735518 
L 200.083503 340.867775 
L 206.628304 356.221193 
L 216.445505 378.399085 
L 219.717906 386.078272 
L 222.990306 394.131882 
L 226.262706 402.676934 
L 229.535107 411.791038 
L 232.807507 421.492148 
L 236.079908 431.719975 
L 245.897109 463.58123 
L 249.169509 473.517679 
L 252.441909 482.458924 
L 255.71431 490.033037 
L 258.98671 495.941189 
L 262.259111 499.979774 
L 265.531511 502.039219 
L 275.348712 502.085648 
L 281.893513 502.085648 
L 285.165913 500.51929 
L 288.438314 497.004402 
L 291.710714 491.624724 
L 294.983114 484.517955 
L 298.255515 475.873503 
L 301.527915 465.923249 
L 304.800316 454.92765 
L 308.072716 443.160002 
L 314.617517 418.380374 
L 321.162317 393.559337 
L 324.434718 381.660743 
L 327.707118 370.346762 
L 330.979519 359.783389 
L 334.251919 350.128786 
L 337.524319 341.53689 
L 340.79672 334.160674 
L 344.06912 328.155644 
L 347.341521 323.683684 
L 350.613921 320.917086 
L 353.886321 320.042691 
L 363.703522 320.042691 
L 366.975923 320.340304 
L 370.248323 323.379059 
L 373.520724 329.278832 
L 376.793124 338.149286 
L 380.065524 350.069066 
L 383.337925 365.04754 
L 386.610325 382.951754 
L 389.882726 403.371795 
L 396.427526 447.289675 
L 399.699927 466.283635 
L 402.972327 478.949465 
L 406.244727 482.75601 
L 409.517128 482.75601 
L 412.789528 476.332696 
L 416.061929 464.283923 
L 419.334329 449.499238 
L 425.8 418.606763 
L 425.8 418.606763 
" style="fill:none;stroke:#9467bd;stroke-linecap:square;stroke-opacity:0.3;stroke-width:3;"/>
   </g>
   <g id="patch_3">
    <path d="M 42.096548 567.781683 
L 42.096548 7.2 
" style="fill:none;stroke:#000000;stroke-linecap:square;stroke-linejoin:miter;stroke-width:0.8;"/>
   </g>
   <g id="patch_4">
    <path d="M 410.633046 567.781683 
L 410.633046 7.2 
" style="fill:none;stroke:#000000;stroke-linecap:square;stroke-linejoin:miter;stroke-width:0.8;"/>
   </g>
   <g id="patch_5">
    <path d="M 42.096548 567.781683 
L 410.633046 567.781683 
" style="fill:none;stroke:#000000;stroke-linecap:square;stroke-linejoin:miter;stroke-width:0.8;"/>
   </g>
   <g id="patch_6">
    <path d="M 42.096548 7.2 
L 410.633046 7.2 
" style="fill:none;stroke:#000000;stroke-linecap:square;stroke-linejoin:miter;stroke-width:0.8;"/>
   </g>
   <g id="legend_1">
    <g id="patch_7">
     <path d="M 349.83968 84.885892 
L 403.633046 84.885892 
Q 405.633046 84.885892 405.633046 82.885892 
L 405.633046 14.2 
Q 405.633046 12.2 403.633046 12.2 
L 349.83968 12.2 
Q 347.83968 12.2 347.83968 14.2 
L 347.83968 82.885892 
Q 347.83968 84.885892 349.83968 84.885892 
z
" style="fill:#ffffff;opacity:0.8;stroke:#cccccc;stroke-linejoin:miter;"/>
    </g>
    <g id="line2d_72">
     <path d="M 351.83968 19.7 
L 371.83968 19.7 
" style="fill:none;stroke:#1f77b4;stroke-linecap:square;stroke-opacity:0.3;stroke-width:3;"/>
    </g>
    <g id="line2d_73"/>
    <g id="text_9">
     <!-- AFR -->
     <defs>
      <path d="M 35.5 69 
L 26.90625 69 
L 2.59375 0 
L 10.203125 0 
L 17.203125 20 
L 44 20 
L 51.09375 0 
L 59.796875 0 
z
M 42.09375 25.578125 
L 19.09375 25.578125 
C 23.90625 39.5 29.90625 56.84375 30.59375 61.328125 
L 30.703125 61.328125 
C 31.40625 57.234375 33.40625 51.265625 35.09375 46.1875 
z
" id="CMSS17-65"/>
      <path d="M 45.59375 31 
L 45.59375 37.078125 
L 17.203125 37.078125 
L 17.203125 62 
L 29.40625 62 
C 30.59375 62 31.796875 62 33 62 
L 49.5 62 
L 49.5 68.359375 
L 8.796875 68.359375 
L 8.796875 -0.5 
L 17.203125 -0.5 
L 17.203125 31 
z
" id="CMSS17-70"/>
      <path d="M 39.40625 32.953125 
L 39.59375 33.046875 
C 55.203125 38.421875 55.296875 49.171875 55.296875 51.0625 
C 55.296875 60.515625 45.703125 69.578125 31.296875 69.578125 
L 8.90625 69.578125 
L 8.90625 0.5 
L 17.09375 0.5 
L 17.09375 32 
L 31.796875 32 
L 49.5 0.5 
L 57.90625 0.5 
z
M 17.09375 38.078125 
L 17.09375 64 
L 30.203125 64 
C 42.90625 64 47.40625 56.828125 47.40625 51.046875 
C 47.40625 45.65625 43.40625 38.078125 30.203125 38.078125 
z
" id="CMSS17-82"/>
     </defs>
     <g transform="translate(379.83968 23.2)scale(0.1 -0.1)">
      <use transform="scale(0.996264)" xlink:href="#CMSS17-65"/>
      <use transform="translate(62.217855 0)scale(0.996264)" xlink:href="#CMSS17-70"/>
      <use transform="translate(115.507414 0)scale(0.996264)" xlink:href="#CMSS17-82"/>
     </g>
    </g>
    <g id="line2d_74">
     <path d="M 351.83968 33.637178 
L 371.83968 33.637178 
" style="fill:none;stroke:#ff7f0e;stroke-linecap:square;stroke-opacity:0.3;stroke-width:3;"/>
    </g>
    <g id="line2d_75"/>
    <g id="text_10">
     <!-- AMR -->
     <defs>
      <path d="M 49.90625 37.046875 
L 45.09375 23.015625 
C 44.296875 20.421875 41.59375 12.359375 41 9.171875 
L 40.90625 9.171875 
C 40.59375 11.171875 40 13.265625 38.40625 18.34375 
C 37.5 21.328125 36.5 24.40625 35.5 27.203125 
L 20.703125 69 
L 9 69 
L 9 0 
L 16.796875 0 
L 16.796875 60.9375 
L 16.90625 60.9375 
C 16.90625 60.84375 17.796875 56.453125 23.90625 39.046875 
L 37.09375 1.5 
L 44.5 1.5 
L 56.40625 34.859375 
C 57.203125 37.15625 59.703125 44.421875 60.796875 47.90625 
C 61.796875 50.890625 64.296875 58.25 64.90625 61.140625 
L 65 61.140625 
L 65 0 
L 72.90625 0 
L 72.90625 69 
L 61.296875 69 
z
" id="CMSS17-77"/>
     </defs>
     <g transform="translate(379.83968 37.137178)scale(0.1 -0.1)">
      <use transform="scale(0.996264)" xlink:href="#CMSS17-65"/>
      <use transform="translate(62.217855 0)scale(0.996264)" xlink:href="#CMSS17-77"/>
      <use transform="translate(143.893885 0)scale(0.996264)" xlink:href="#CMSS17-82"/>
     </g>
    </g>
    <g id="line2d_76">
     <path d="M 351.83968 47.574357 
L 371.83968 47.574357 
" style="fill:none;stroke:#2ca02c;stroke-linecap:square;stroke-opacity:0.3;stroke-width:3;"/>
    </g>
    <g id="line2d_77"/>
    <g id="text_11">
     <!-- EAS -->
     <defs>
      <path d="M 30.59375 6.765625 
C 22.59375 6.765625 19 6.765625 17.203125 6.765625 
L 17.203125 32.921875 
L 48.203125 32.921875 
L 48.203125 39 
L 17.203125 39 
L 17.203125 62.640625 
L 30.09375 62.640625 
C 31.296875 62.640625 32.5 62.640625 33.703125 62.640625 
L 50.796875 62.640625 
L 50.796875 69 
L 8.796875 69 
L 8.796875 0 
L 52.09375 0 
L 52.09375 6.765625 
z
" id="CMSS17-69"/>
      <path d="M 43.703125 65.140625 
C 39.296875 67.71875 34.5 70 26.40625 70 
C 13.5 70 5.203125 60.609375 5.203125 51.03125 
C 5.203125 47.265625 6.296875 43.015625 10.203125 38.671875 
C 14.09375 34.3125 18.5 33.140625 24.09375 31.765625 
C 26.40625 31.15625 30.296875 30.0625 31 29.78125 
C 36.59375 27.609375 39.296875 22.5625 39.296875 17.8125 
C 39.296875 11.59375 34.40625 4.96875 25.703125 4.96875 
C 22.703125 4.96875 13.90625 4.96875 5.59375 12.796875 
L 4.203125 4.96875 
C 12.40625 -1 21.296875 -2 25.796875 -2 
C 38.09375 -2 46.90625 7.625 46.90625 18.53125 
C 46.90625 22.5 45.703125 27.546875 41.5 32.203125 
C 37.40625 36.671875 33.796875 37.65625 25.59375 39.828125 
C 20.90625 41.03125 17.90625 41.828125 15.40625 44.890625 
C 13.703125 47.078125 12.796875 49.15625 12.796875 51.828125 
C 12.796875 57.390625 17.59375 63.4375 26.40625 63.4375 
C 30.796875 63.4375 36.5 62.53125 42.296875 57.1875 
z
" id="CMSS17-83"/>
     </defs>
     <g transform="translate(379.83968 51.074357)scale(0.1 -0.1)">
      <use transform="scale(0.996264)" xlink:href="#CMSS17-69"/>
      <use transform="translate(55.892013 0)scale(0.996264)" xlink:href="#CMSS17-65"/>
      <use transform="translate(118.109868 0)scale(0.996264)" xlink:href="#CMSS17-83"/>
     </g>
    </g>
    <g id="line2d_78">
     <path d="M 351.83968 61.511535 
L 371.83968 61.511535 
" style="fill:none;stroke:#d62728;stroke-linecap:square;stroke-opacity:0.3;stroke-width:3;"/>
    </g>
    <g id="line2d_79"/>
    <g id="text_12">
     <!-- EUR -->
     <defs>
      <path d="M 55.5 68.5 
L 47.90625 68.5 
L 47.90625 22.640625 
C 47.90625 9.4375 39.796875 3.578125 32.40625 3.578125 
C 24.796875 3.578125 17.203125 9.734375 17.203125 22.546875 
L 17.203125 68.5 
L 8.796875 68.5 
L 8.796875 22.71875 
C 8.796875 8.421875 19.90625 -2 32.296875 -2 
C 44.703125 -2 55.5 8.421875 55.5 22.71875 
z
" id="CMSS17-85"/>
     </defs>
     <g transform="translate(379.83968 65.011535)scale(0.1 -0.1)">
      <use transform="scale(0.996264)" xlink:href="#CMSS17-69"/>
      <use transform="translate(55.892013 0)scale(0.996264)" xlink:href="#CMSS17-85"/>
      <use transform="translate(120.031753 0)scale(0.996264)" xlink:href="#CMSS17-82"/>
     </g>
    </g>
    <g id="line2d_80">
     <path d="M 351.83968 75.448713 
L 371.83968 75.448713 
" style="fill:none;stroke:#9467bd;stroke-linecap:square;stroke-opacity:0.3;stroke-width:3;"/>
    </g>
    <g id="line2d_81"/>
    <g id="text_13">
     <!-- SAS -->
     <g transform="translate(379.83968 78.948713)scale(0.1 -0.1)">
      <use transform="scale(0.996264)" xlink:href="#CMSS17-83"/>
      <use transform="translate(52.048516 0)scale(0.996264)" xlink:href="#CMSS17-65"/>
      <use transform="translate(114.266371 0)scale(0.996264)" xlink:href="#CMSS17-83"/>
     </g>
    </g>
   </g>
  </g>
 </g>
 <defs>
  <clipPath id="p8d9dd2d7e3">
   <rect height="560.581683" width="368.536498" x="42.096548" y="7.2"/>
  </clipPath>
 </defs>
</svg>
