<?xml version="1.0" encoding="utf-8" standalone="no"?>
<!DOCTYPE svg PUBLIC "-//W3C//DTD SVG 1.1//EN"
  "http://www.w3.org/Graphics/SVG/1.1/DTD/svg11.dtd">
<!-- Created with matplotlib (https://matplotlib.org/) -->
<svg height="332.578125pt" version="1.1" viewBox="0 0 452.752345 332.578125" width="452.752345pt" xmlns="http://www.w3.org/2000/svg" xmlns:xlink="http://www.w3.org/1999/xlink">
 <defs>
  <style type="text/css">
*{stroke-linecap:butt;stroke-linejoin:round;}
  </style>
 </defs>
 <g id="figure_1">
  <g id="patch_1">
   <path d="M 0 332.578125 
L 452.752345 332.578125 
L 452.752345 0 
L 0 0 
z
" style="fill:#ffffff;"/>
  </g>
  <g id="axes_1">
   <g id="patch_2">
    <path d="M 45.478125 295 
L 210.586407 295 
L 210.586407 7.2 
L 45.478125 7.2 
z
" style="fill:#ffffff;"/>
   </g>
   <g id="PolyCollection_1">
    <path clip-path="url(#pad371ef442)" d="M 52.983047 20.281818 
L 52.983047 20.602295 
L 72.638123 71.273372 
L 84.135606 92.505521 
L 92.293199 104.194668 
L 98.62072 112.253841 
L 103.790682 118.580935 
L 108.161822 123.908352 
L 111.948275 128.580089 
L 115.288164 132.783043 
L 118.275797 136.63521 
L 120.978439 140.211735 
L 123.445758 143.564739 
L 125.715471 146.732432 
L 127.816898 149.743521 
L 129.773279 152.617934 
L 131.603351 155.372556 
L 133.32244 158.02144 
L 134.94324 160.572868 
L 136.476386 163.037461 
L 137.930873 165.42021 
L 139.31438 167.728445 
L 140.633515 169.967709 
L 141.894002 172.141089 
L 143.100834 174.25313 
L 144.258394 176.308332 
L 145.370547 178.306036 
L 146.440723 180.252982 
L 147.471974 182.150439 
L 148.467033 183.998584 
L 149.428355 185.801861 
L 150.358153 187.559973 
L 151.258428 189.278946 
L 152.130997 190.955721 
L 152.977516 192.593511 
L 153.799495 194.194073 
L 154.598316 195.757446 
L 155.375249 197.288484 
L 156.131462 198.785825 
L 156.86803 200.24819 
L 157.585949 201.681718 
L 158.286139 203.085857 
L 158.969456 204.457607 
L 159.636694 205.804342 
L 160.288591 207.123564 
L 160.925838 208.415422 
L 161.549078 209.683015 
L 162.158914 210.924124 
L 162.75591 212.142291 
L 163.340596 213.338493 
L 163.91347 214.510846 
L 164.474999 215.663601 
L 165.025624 216.791968 
L 165.56576 217.903728 
L 166.095799 218.994235 
L 166.616112 220.06523 
L 167.12705 221.11526 
L 167.628944 222.149745 
L 168.122109 223.167519 
L 168.606844 224.167386 
L 169.083431 225.151752 
L 169.552141 226.119541 
L 170.013229 227.073408 
L 170.466939 228.008589 
L 170.913504 228.931687 
L 171.353145 229.84189 
L 171.786074 230.734369 
L 172.212492 231.616205 
L 172.632593 232.482594 
L 173.04656 233.336824 
L 173.454571 234.182411 
L 173.856795 235.010204 
L 174.253393 235.827984 
L 174.64452 236.635166 
L 175.030326 237.431153 
L 175.410953 238.215334 
L 175.786538 238.991685 
L 176.157213 239.755096 
L 176.523106 240.504926 
L 176.884337 241.250076 
L 177.241025 241.985406 
L 177.593281 242.710427 
L 177.941216 243.424641 
L 178.284932 244.127542 
L 178.624533 244.82369 
L 178.960114 245.512744 
L 179.29177 246.194355 
L 179.619592 246.862915 
L 179.943667 247.528511 
L 180.264081 248.18021 
L 180.580914 248.828323 
L 180.894246 249.467161 
L 181.204154 250.101891 
L 181.510711 250.726695 
L 181.81399 251.341181 
L 182.114059 251.95068 
L 182.410986 252.554969 
L 182.704836 253.153822 
L 182.995673 253.741104 
L 183.283556 254.322367 
L 183.568546 254.897373 
L 183.850701 255.471958 
L 184.130075 256.033783 
L 184.406724 256.588618 
L 184.6807 257.142466 
L 184.952054 257.688939 
L 185.220836 258.227781 
L 185.487094 258.758736 
L 185.750875 259.288026 
L 186.012225 259.809023 
L 186.271188 260.328061 
L 186.527808 260.838389 
L 186.782126 261.339742 
L 187.034184 261.838619 
L 187.28402 262.334922 
L 187.531675 262.821665 
L 187.777186 263.305515 
L 188.020589 263.786367 
L 188.26192 264.25706 
L 188.501215 264.724428 
L 188.738507 265.188361 
L 188.973831 265.648748 
L 189.207217 266.098198 
L 189.438698 266.551098 
L 189.668305 266.992723 
L 189.896067 267.430234 
L 190.122015 267.863515 
L 190.346177 268.292447 
L 190.56858 268.716911 
L 190.789252 269.136789 
L 191.008221 269.544245 
L 191.225512 269.954534 
L 191.44115 270.359873 
L 191.65516 270.760139 
L 191.867568 271.15521 
L 192.078396 271.544963 
L 192.287669 271.929274 
L 192.495408 272.308019 
L 192.701636 272.681074 
L 192.906376 273.048315 
L 193.109647 273.409619 
L 193.311472 273.773149 
L 193.511871 274.130593 
L 193.710863 274.47344 
L 193.908469 274.81829 
L 194.104707 275.156683 
L 194.299596 275.488494 
L 194.493155 275.813602 
L 194.685402 276.140511 
L 194.876354 276.451894 
L 195.066029 276.764928 
L 195.254443 277.070867 
L 195.441614 277.360784 
L 195.627558 277.652132 
L 195.81229 277.936032 
L 195.995826 278.221304 
L 196.178182 278.490004 
L 196.359373 278.750916 
L 196.539414 279.003931 
L 196.718318 279.258035 
L 196.896101 279.494972 
L 197.072776 279.732864 
L 197.248358 279.953311 
L 197.422858 280.165349 
L 197.596292 280.378151 
L 197.768671 280.573121 
L 197.940008 280.750079 
L 198.110317 280.92757 
L 198.279609 281.086831 
L 198.447896 281.246522 
L 198.61519 281.378359 
L 198.781503 281.501042 
L 198.946846 281.614516 
L 199.111231 281.709244 
L 199.274668 281.785136 
L 199.437169 281.851621 
L 199.598743 281.889647 
L 199.759403 281.918182 
L 199.919157 281.918182 
L 200.078016 281.899157 
L 200.23599 281.851621 
L 200.393089 281.775644 
L 200.549322 281.661861 
L 200.704699 281.52939 
L 200.85923 281.350083 
L 201.012923 281.133754 
L 201.165787 280.862116 
L 201.317832 280.545229 
L 201.469066 280.156114 
L 201.619498 279.696203 
L 201.769135 279.148999 
L 201.917987 278.481028 
L 202.066062 277.669836 
L 202.213368 276.669103 
L 202.359912 275.394717 
L 202.505703 273.690331 
L 202.650749 271.234543 
L 202.795056 267.103648 
L 202.938632 257.973595 
L 203.081485 228.234183 
L 203.081485 226.386262 
L 203.081485 226.386262 
L 202.938632 255.599731 
L 202.795056 264.539871 
L 202.650749 268.580143 
L 202.505703 270.981053 
L 202.359912 272.64854 
L 202.213368 273.897593 
L 202.066062 274.868926 
L 201.917987 275.659381 
L 201.769135 276.313299 
L 201.619498 276.852178 
L 201.469066 277.299167 
L 201.317832 277.669836 
L 201.165787 277.989415 
L 201.012923 278.248119 
L 200.85923 278.463079 
L 200.704699 278.633813 
L 200.549322 278.768953 
L 200.393089 278.877288 
L 200.23599 278.949622 
L 200.078016 278.994876 
L 199.919157 279.012987 
L 199.759403 279.012987 
L 199.598743 278.994876 
L 199.437169 278.949622 
L 199.274668 278.886325 
L 199.111231 278.814068 
L 198.946846 278.723872 
L 198.781503 278.615818 
L 198.61519 278.490004 
L 198.447896 278.355501 
L 198.279609 278.212368 
L 198.110317 278.051757 
L 197.940008 277.882696 
L 197.768671 277.696401 
L 197.596292 277.510693 
L 197.422858 277.307966 
L 197.248358 277.097165 
L 197.072776 276.878378 
L 196.896101 276.651696 
L 196.718318 276.417215 
L 196.539414 276.175028 
L 196.359373 275.925236 
L 196.178182 275.667938 
L 195.995826 275.403236 
L 195.81229 275.131236 
L 195.627558 274.852042 
L 195.441614 274.574163 
L 195.254443 274.280866 
L 195.066029 273.980701 
L 194.876354 273.682056 
L 194.685402 273.376682 
L 194.493155 273.056502 
L 194.299596 272.73805 
L 194.104707 272.413208 
L 193.908469 272.082091 
L 193.710863 271.75282 
L 193.511871 271.409451 
L 193.311472 271.060151 
L 193.109647 270.712908 
L 192.906376 270.352051 
L 192.701636 269.993388 
L 192.495408 269.629165 
L 192.287669 269.259499 
L 192.078396 268.884504 
L 191.867568 268.504297 
L 191.65516 268.118993 
L 191.44115 267.728708 
L 191.225512 267.333555 
L 191.008221 266.933649 
L 190.789252 266.529104 
L 190.56858 266.120033 
L 190.346177 265.699321 
L 190.122015 265.281587 
L 189.896067 264.859662 
L 189.668305 264.433658 
L 189.438698 263.996661 
L 189.207217 263.562876 
L 188.973831 263.118417 
L 188.738507 262.670414 
L 188.501215 262.212158 
L 188.26192 261.757433 
L 188.020589 261.292768 
L 187.777186 260.825078 
L 187.531675 260.347861 
L 187.28402 259.874472 
L 187.034184 259.385363 
L 186.782126 258.900275 
L 186.527808 258.406365 
L 186.271188 257.903886 
L 186.012225 257.399369 
L 185.750875 256.886676 
L 185.487094 256.372228 
L 185.220836 255.849991 
L 184.952054 255.320208 
L 184.6807 254.783124 
L 184.406724 254.24493 
L 184.130075 253.699803 
L 183.850701 253.147978 
L 183.568546 252.5839 
L 183.283556 252.019429 
L 182.995673 251.448951 
L 182.704836 250.872689 
L 182.410986 250.285298 
L 182.114059 249.692674 
L 181.81399 249.095029 
L 181.510711 248.492576 
L 181.204154 247.880175 
L 180.894246 247.258198 
L 180.580914 246.632242 
L 180.264081 245.997325 
L 179.943667 245.353803 
L 179.619592 244.702029 
L 179.29177 244.04235 
L 178.960114 243.375107 
L 178.624533 242.700636 
L 178.284932 242.01443 
L 177.941216 241.321763 
L 177.593281 240.618227 
L 177.241025 239.908971 
L 176.884337 239.185073 
L 176.523106 238.456279 
L 176.157213 237.718377 
L 175.786538 236.967374 
L 175.410953 236.20388 
L 175.030326 235.432823 
L 174.64452 234.650352 
L 174.253393 233.857047 
L 173.856795 233.053476 
L 173.454571 232.236096 
L 173.04656 231.409666 
L 172.632593 230.566745 
L 172.212492 229.712121 
L 171.786074 228.846466 
L 171.353145 227.966625 
L 170.913504 227.073408 
L 170.466939 226.163911 
L 170.013229 225.242721 
L 169.552141 224.303424 
L 169.083431 223.350623 
L 168.606844 222.381729 
L 168.122109 221.39777 
L 167.628944 220.393039 
L 167.12705 219.375448 
L 166.616112 218.33622 
L 166.095799 217.283146 
L 165.56576 216.207899 
L 165.025624 215.112007 
L 164.474999 213.996955 
L 163.91347 212.864184 
L 163.340596 211.706407 
L 162.75591 210.528322 
L 162.158914 209.326003 
L 161.549078 208.098648 
L 160.925838 206.85095 
L 160.288591 205.574262 
L 159.636694 204.273535 
L 158.969456 202.945926 
L 158.286139 201.588961 
L 157.585949 200.202906 
L 156.86803 198.788151 
L 156.131462 197.340663 
L 155.375249 195.863601 
L 154.598316 194.351365 
L 153.799495 192.805409 
L 152.977516 191.223162 
L 152.130997 189.604538 
L 151.258428 187.945835 
L 150.358153 186.247787 
L 149.428355 184.507687 
L 148.467033 182.723453 
L 147.471974 180.895315 
L 146.440723 179.018858 
L 145.370547 177.092231 
L 144.258394 175.112722 
L 143.100834 173.079984 
L 141.894002 170.988457 
L 140.633515 168.835356 
L 139.31438 166.617634 
L 137.930873 164.330863 
L 136.476386 161.968402 
L 134.94324 159.526823 
L 133.32244 156.997509 
L 131.603351 154.371276 
L 129.773279 151.639972 
L 127.816898 148.788752 
L 125.715471 145.802042 
L 123.445758 142.658343 
L 120.978439 139.330405 
L 118.275797 135.780546 
L 115.288164 131.955779 
L 111.948275 127.781383 
L 108.161822 123.140998 
L 103.790682 117.846958 
L 98.62072 111.557982 
L 92.293199 103.545016 
L 84.135606 91.916905 
L 72.638123 70.781394 
L 52.983047 20.281818 
z
" style="fill:#1f77b4;"/>
   </g>
   <g id="matplotlib.axis_1">
    <g id="xtick_1">
     <g id="line2d_1">
      <defs>
       <path d="M 0 0 
L 0 3.5 
" id="m6c714e572c" style="stroke:#000000;stroke-width:0.8;"/>
      </defs>
      <g>
       <use style="stroke:#000000;stroke-width:0.8;" x="52.983047" xlink:href="#m6c714e572c" y="295"/>
      </g>
     </g>
     <g id="text_1">
      <!-- $\mathdefault{10^{0}}$ -->
      <defs>
       <path d="M 12.40625 8.296875 
L 28.515625 8.296875 
L 28.515625 63.921875 
L 10.984375 60.40625 
L 10.984375 69.390625 
L 28.421875 72.90625 
L 38.28125 72.90625 
L 38.28125 8.296875 
L 54.390625 8.296875 
L 54.390625 0 
L 12.40625 0 
z
" id="DejaVuSans-49"/>
       <path d="M 31.78125 66.40625 
Q 24.171875 66.40625 20.328125 58.90625 
Q 16.5 51.421875 16.5 36.375 
Q 16.5 21.390625 20.328125 13.890625 
Q 24.171875 6.390625 31.78125 6.390625 
Q 39.453125 6.390625 43.28125 13.890625 
Q 47.125 21.390625 47.125 36.375 
Q 47.125 51.421875 43.28125 58.90625 
Q 39.453125 66.40625 31.78125 66.40625 
z
M 31.78125 74.21875 
Q 44.046875 74.21875 50.515625 64.515625 
Q 56.984375 54.828125 56.984375 36.375 
Q 56.984375 17.96875 50.515625 8.265625 
Q 44.046875 -1.421875 31.78125 -1.421875 
Q 19.53125 -1.421875 13.0625 8.265625 
Q 6.59375 17.96875 6.59375 36.375 
Q 6.59375 54.828125 13.0625 64.515625 
Q 19.53125 74.21875 31.78125 74.21875 
z
" id="DejaVuSans-48"/>
      </defs>
      <g transform="translate(44.183047 309.598437)scale(0.1 -0.1)">
       <use transform="translate(0 0.765625)" xlink:href="#DejaVuSans-49"/>
       <use transform="translate(63.623047 0.765625)" xlink:href="#DejaVuSans-48"/>
       <use transform="translate(128.203125 39.046875)scale(0.7)" xlink:href="#DejaVuSans-48"/>
      </g>
     </g>
    </g>
    <g id="xtick_2">
     <g id="line2d_2">
      <g>
       <use style="stroke:#000000;stroke-width:0.8;" x="118.275797" xlink:href="#m6c714e572c" y="295"/>
      </g>
     </g>
     <g id="text_2">
      <!-- $\mathdefault{10^{1}}$ -->
      <g transform="translate(109.475797 309.598437)scale(0.1 -0.1)">
       <use transform="translate(0 0.684375)" xlink:href="#DejaVuSans-49"/>
       <use transform="translate(63.623047 0.684375)" xlink:href="#DejaVuSans-48"/>
       <use transform="translate(128.203125 38.965625)scale(0.7)" xlink:href="#DejaVuSans-49"/>
      </g>
     </g>
    </g>
    <g id="xtick_3">
     <g id="line2d_3">
      <g>
       <use style="stroke:#000000;stroke-width:0.8;" x="183.568546" xlink:href="#m6c714e572c" y="295"/>
      </g>
     </g>
     <g id="text_3">
      <!-- $\mathdefault{10^{2}}$ -->
      <defs>
       <path d="M 19.1875 8.296875 
L 53.609375 8.296875 
L 53.609375 0 
L 7.328125 0 
L 7.328125 8.296875 
Q 12.9375 14.109375 22.625 23.890625 
Q 32.328125 33.6875 34.8125 36.53125 
Q 39.546875 41.84375 41.421875 45.53125 
Q 43.3125 49.21875 43.3125 52.78125 
Q 43.3125 58.59375 39.234375 62.25 
Q 35.15625 65.921875 28.609375 65.921875 
Q 23.96875 65.921875 18.8125 64.3125 
Q 13.671875 62.703125 7.8125 59.421875 
L 7.8125 69.390625 
Q 13.765625 71.78125 18.9375 73 
Q 24.125 74.21875 28.421875 74.21875 
Q 39.75 74.21875 46.484375 68.546875 
Q 53.21875 62.890625 53.21875 53.421875 
Q 53.21875 48.921875 51.53125 44.890625 
Q 49.859375 40.875 45.40625 35.40625 
Q 44.1875 33.984375 37.640625 27.21875 
Q 31.109375 20.453125 19.1875 8.296875 
z
" id="DejaVuSans-50"/>
      </defs>
      <g transform="translate(174.768546 309.598437)scale(0.1 -0.1)">
       <use transform="translate(0 0.765625)" xlink:href="#DejaVuSans-49"/>
       <use transform="translate(63.623047 0.765625)" xlink:href="#DejaVuSans-48"/>
       <use transform="translate(128.203125 39.046875)scale(0.7)" xlink:href="#DejaVuSans-50"/>
      </g>
     </g>
    </g>
    <g id="xtick_4">
     <g id="line2d_4">
      <defs>
       <path d="M 0 0 
L 0 2 
" id="m6e4e1991df" style="stroke:#000000;stroke-width:0.6;"/>
      </defs>
      <g>
       <use style="stroke:#000000;stroke-width:0.6;" x="46.655526" xlink:href="#m6e4e1991df" y="295"/>
      </g>
     </g>
    </g>
    <g id="xtick_5">
     <g id="line2d_5">
      <g>
       <use style="stroke:#000000;stroke-width:0.6;" x="49.995415" xlink:href="#m6e4e1991df" y="295"/>
      </g>
     </g>
    </g>
    <g id="xtick_6">
     <g id="line2d_6">
      <g>
       <use style="stroke:#000000;stroke-width:0.6;" x="72.638123" xlink:href="#m6e4e1991df" y="295"/>
      </g>
     </g>
    </g>
    <g id="xtick_7">
     <g id="line2d_7">
      <g>
       <use style="stroke:#000000;stroke-width:0.6;" x="84.135606" xlink:href="#m6e4e1991df" y="295"/>
      </g>
     </g>
    </g>
    <g id="xtick_8">
     <g id="line2d_8">
      <g>
       <use style="stroke:#000000;stroke-width:0.6;" x="92.293199" xlink:href="#m6e4e1991df" y="295"/>
      </g>
     </g>
    </g>
    <g id="xtick_9">
     <g id="line2d_9">
      <g>
       <use style="stroke:#000000;stroke-width:0.6;" x="98.62072" xlink:href="#m6e4e1991df" y="295"/>
      </g>
     </g>
    </g>
    <g id="xtick_10">
     <g id="line2d_10">
      <g>
       <use style="stroke:#000000;stroke-width:0.6;" x="103.790682" xlink:href="#m6e4e1991df" y="295"/>
      </g>
     </g>
    </g>
    <g id="xtick_11">
     <g id="line2d_11">
      <g>
       <use style="stroke:#000000;stroke-width:0.6;" x="108.161822" xlink:href="#m6e4e1991df" y="295"/>
      </g>
     </g>
    </g>
    <g id="xtick_12">
     <g id="line2d_12">
      <g>
       <use style="stroke:#000000;stroke-width:0.6;" x="111.948275" xlink:href="#m6e4e1991df" y="295"/>
      </g>
     </g>
    </g>
    <g id="xtick_13">
     <g id="line2d_13">
      <g>
       <use style="stroke:#000000;stroke-width:0.6;" x="115.288164" xlink:href="#m6e4e1991df" y="295"/>
      </g>
     </g>
    </g>
    <g id="xtick_14">
     <g id="line2d_14">
      <g>
       <use style="stroke:#000000;stroke-width:0.6;" x="137.930873" xlink:href="#m6e4e1991df" y="295"/>
      </g>
     </g>
    </g>
    <g id="xtick_15">
     <g id="line2d_15">
      <g>
       <use style="stroke:#000000;stroke-width:0.6;" x="149.428355" xlink:href="#m6e4e1991df" y="295"/>
      </g>
     </g>
    </g>
    <g id="xtick_16">
     <g id="line2d_16">
      <g>
       <use style="stroke:#000000;stroke-width:0.6;" x="157.585949" xlink:href="#m6e4e1991df" y="295"/>
      </g>
     </g>
    </g>
    <g id="xtick_17">
     <g id="line2d_17">
      <g>
       <use style="stroke:#000000;stroke-width:0.6;" x="163.91347" xlink:href="#m6e4e1991df" y="295"/>
      </g>
     </g>
    </g>
    <g id="xtick_18">
     <g id="line2d_18">
      <g>
       <use style="stroke:#000000;stroke-width:0.6;" x="169.083431" xlink:href="#m6e4e1991df" y="295"/>
      </g>
     </g>
    </g>
    <g id="xtick_19">
     <g id="line2d_19">
      <g>
       <use style="stroke:#000000;stroke-width:0.6;" x="173.454571" xlink:href="#m6e4e1991df" y="295"/>
      </g>
     </g>
    </g>
    <g id="xtick_20">
     <g id="line2d_20">
      <g>
       <use style="stroke:#000000;stroke-width:0.6;" x="177.241025" xlink:href="#m6e4e1991df" y="295"/>
      </g>
     </g>
    </g>
    <g id="xtick_21">
     <g id="line2d_21">
      <g>
       <use style="stroke:#000000;stroke-width:0.6;" x="180.580914" xlink:href="#m6e4e1991df" y="295"/>
      </g>
     </g>
    </g>
    <g id="xtick_22">
     <g id="line2d_22">
      <g>
       <use style="stroke:#000000;stroke-width:0.6;" x="203.223622" xlink:href="#m6e4e1991df" y="295"/>
      </g>
     </g>
    </g>
    <g id="text_4">
     <!-- sample frequency -->
     <defs>
      <path d="M 44.28125 53.078125 
L 44.28125 44.578125 
Q 40.484375 46.53125 36.375 47.5 
Q 32.28125 48.484375 27.875 48.484375 
Q 21.1875 48.484375 17.84375 46.4375 
Q 14.5 44.390625 14.5 40.28125 
Q 14.5 37.15625 16.890625 35.375 
Q 19.28125 33.59375 26.515625 31.984375 
L 29.59375 31.296875 
Q 39.15625 29.25 43.1875 25.515625 
Q 47.21875 21.78125 47.21875 15.09375 
Q 47.21875 7.46875 41.1875 3.015625 
Q 35.15625 -1.421875 24.609375 -1.421875 
Q 20.21875 -1.421875 15.453125 -0.5625 
Q 10.6875 0.296875 5.421875 2 
L 5.421875 11.28125 
Q 10.40625 8.6875 15.234375 7.390625 
Q 20.0625 6.109375 24.8125 6.109375 
Q 31.15625 6.109375 34.5625 8.28125 
Q 37.984375 10.453125 37.984375 14.40625 
Q 37.984375 18.0625 35.515625 20.015625 
Q 33.0625 21.96875 24.703125 23.78125 
L 21.578125 24.515625 
Q 13.234375 26.265625 9.515625 29.90625 
Q 5.8125 33.546875 5.8125 39.890625 
Q 5.8125 47.609375 11.28125 51.796875 
Q 16.75 56 26.8125 56 
Q 31.78125 56 36.171875 55.265625 
Q 40.578125 54.546875 44.28125 53.078125 
z
" id="DejaVuSans-115"/>
      <path d="M 34.28125 27.484375 
Q 23.390625 27.484375 19.1875 25 
Q 14.984375 22.515625 14.984375 16.5 
Q 14.984375 11.71875 18.140625 8.90625 
Q 21.296875 6.109375 26.703125 6.109375 
Q 34.1875 6.109375 38.703125 11.40625 
Q 43.21875 16.703125 43.21875 25.484375 
L 43.21875 27.484375 
z
M 52.203125 31.203125 
L 52.203125 0 
L 43.21875 0 
L 43.21875 8.296875 
Q 40.140625 3.328125 35.546875 0.953125 
Q 30.953125 -1.421875 24.3125 -1.421875 
Q 15.921875 -1.421875 10.953125 3.296875 
Q 6 8.015625 6 15.921875 
Q 6 25.140625 12.171875 29.828125 
Q 18.359375 34.515625 30.609375 34.515625 
L 43.21875 34.515625 
L 43.21875 35.40625 
Q 43.21875 41.609375 39.140625 45 
Q 35.0625 48.390625 27.6875 48.390625 
Q 23 48.390625 18.546875 47.265625 
Q 14.109375 46.140625 10.015625 43.890625 
L 10.015625 52.203125 
Q 14.9375 54.109375 19.578125 55.046875 
Q 24.21875 56 28.609375 56 
Q 40.484375 56 46.34375 49.84375 
Q 52.203125 43.703125 52.203125 31.203125 
z
" id="DejaVuSans-97"/>
      <path d="M 52 44.1875 
Q 55.375 50.25 60.0625 53.125 
Q 64.75 56 71.09375 56 
Q 79.640625 56 84.28125 50.015625 
Q 88.921875 44.046875 88.921875 33.015625 
L 88.921875 0 
L 79.890625 0 
L 79.890625 32.71875 
Q 79.890625 40.578125 77.09375 44.375 
Q 74.3125 48.1875 68.609375 48.1875 
Q 61.625 48.1875 57.5625 43.546875 
Q 53.515625 38.921875 53.515625 30.90625 
L 53.515625 0 
L 44.484375 0 
L 44.484375 32.71875 
Q 44.484375 40.625 41.703125 44.40625 
Q 38.921875 48.1875 33.109375 48.1875 
Q 26.21875 48.1875 22.15625 43.53125 
Q 18.109375 38.875 18.109375 30.90625 
L 18.109375 0 
L 9.078125 0 
L 9.078125 54.6875 
L 18.109375 54.6875 
L 18.109375 46.1875 
Q 21.1875 51.21875 25.484375 53.609375 
Q 29.78125 56 35.6875 56 
Q 41.65625 56 45.828125 52.96875 
Q 50 49.953125 52 44.1875 
z
" id="DejaVuSans-109"/>
      <path d="M 18.109375 8.203125 
L 18.109375 -20.796875 
L 9.078125 -20.796875 
L 9.078125 54.6875 
L 18.109375 54.6875 
L 18.109375 46.390625 
Q 20.953125 51.265625 25.265625 53.625 
Q 29.59375 56 35.59375 56 
Q 45.5625 56 51.78125 48.09375 
Q 58.015625 40.1875 58.015625 27.296875 
Q 58.015625 14.40625 51.78125 6.484375 
Q 45.5625 -1.421875 35.59375 -1.421875 
Q 29.59375 -1.421875 25.265625 0.953125 
Q 20.953125 3.328125 18.109375 8.203125 
z
M 48.6875 27.296875 
Q 48.6875 37.203125 44.609375 42.84375 
Q 40.53125 48.484375 33.40625 48.484375 
Q 26.265625 48.484375 22.1875 42.84375 
Q 18.109375 37.203125 18.109375 27.296875 
Q 18.109375 17.390625 22.1875 11.75 
Q 26.265625 6.109375 33.40625 6.109375 
Q 40.53125 6.109375 44.609375 11.75 
Q 48.6875 17.390625 48.6875 27.296875 
z
" id="DejaVuSans-112"/>
      <path d="M 9.421875 75.984375 
L 18.40625 75.984375 
L 18.40625 0 
L 9.421875 0 
z
" id="DejaVuSans-108"/>
      <path d="M 56.203125 29.59375 
L 56.203125 25.203125 
L 14.890625 25.203125 
Q 15.484375 15.921875 20.484375 11.0625 
Q 25.484375 6.203125 34.421875 6.203125 
Q 39.59375 6.203125 44.453125 7.46875 
Q 49.3125 8.734375 54.109375 11.28125 
L 54.109375 2.78125 
Q 49.265625 0.734375 44.1875 -0.34375 
Q 39.109375 -1.421875 33.890625 -1.421875 
Q 20.796875 -1.421875 13.15625 6.1875 
Q 5.515625 13.8125 5.515625 26.8125 
Q 5.515625 40.234375 12.765625 48.109375 
Q 20.015625 56 32.328125 56 
Q 43.359375 56 49.78125 48.890625 
Q 56.203125 41.796875 56.203125 29.59375 
z
M 47.21875 32.234375 
Q 47.125 39.59375 43.09375 43.984375 
Q 39.0625 48.390625 32.421875 48.390625 
Q 24.90625 48.390625 20.390625 44.140625 
Q 15.875 39.890625 15.1875 32.171875 
z
" id="DejaVuSans-101"/>
      <path id="DejaVuSans-32"/>
      <path d="M 37.109375 75.984375 
L 37.109375 68.5 
L 28.515625 68.5 
Q 23.6875 68.5 21.796875 66.546875 
Q 19.921875 64.59375 19.921875 59.515625 
L 19.921875 54.6875 
L 34.71875 54.6875 
L 34.71875 47.703125 
L 19.921875 47.703125 
L 19.921875 0 
L 10.890625 0 
L 10.890625 47.703125 
L 2.296875 47.703125 
L 2.296875 54.6875 
L 10.890625 54.6875 
L 10.890625 58.5 
Q 10.890625 67.625 15.140625 71.796875 
Q 19.390625 75.984375 28.609375 75.984375 
z
" id="DejaVuSans-102"/>
      <path d="M 41.109375 46.296875 
Q 39.59375 47.171875 37.8125 47.578125 
Q 36.03125 48 33.890625 48 
Q 26.265625 48 22.1875 43.046875 
Q 18.109375 38.09375 18.109375 28.8125 
L 18.109375 0 
L 9.078125 0 
L 9.078125 54.6875 
L 18.109375 54.6875 
L 18.109375 46.1875 
Q 20.953125 51.171875 25.484375 53.578125 
Q 30.03125 56 36.53125 56 
Q 37.453125 56 38.578125 55.875 
Q 39.703125 55.765625 41.0625 55.515625 
z
" id="DejaVuSans-114"/>
      <path d="M 14.796875 27.296875 
Q 14.796875 17.390625 18.875 11.75 
Q 22.953125 6.109375 30.078125 6.109375 
Q 37.203125 6.109375 41.296875 11.75 
Q 45.40625 17.390625 45.40625 27.296875 
Q 45.40625 37.203125 41.296875 42.84375 
Q 37.203125 48.484375 30.078125 48.484375 
Q 22.953125 48.484375 18.875 42.84375 
Q 14.796875 37.203125 14.796875 27.296875 
z
M 45.40625 8.203125 
Q 42.578125 3.328125 38.25 0.953125 
Q 33.9375 -1.421875 27.875 -1.421875 
Q 17.96875 -1.421875 11.734375 6.484375 
Q 5.515625 14.40625 5.515625 27.296875 
Q 5.515625 40.1875 11.734375 48.09375 
Q 17.96875 56 27.875 56 
Q 33.9375 56 38.25 53.625 
Q 42.578125 51.265625 45.40625 46.390625 
L 45.40625 54.6875 
L 54.390625 54.6875 
L 54.390625 -20.796875 
L 45.40625 -20.796875 
z
" id="DejaVuSans-113"/>
      <path d="M 8.5 21.578125 
L 8.5 54.6875 
L 17.484375 54.6875 
L 17.484375 21.921875 
Q 17.484375 14.15625 20.5 10.265625 
Q 23.53125 6.390625 29.59375 6.390625 
Q 36.859375 6.390625 41.078125 11.03125 
Q 45.3125 15.671875 45.3125 23.6875 
L 45.3125 54.6875 
L 54.296875 54.6875 
L 54.296875 0 
L 45.3125 0 
L 45.3125 8.40625 
Q 42.046875 3.421875 37.71875 1 
Q 33.40625 -1.421875 27.6875 -1.421875 
Q 18.265625 -1.421875 13.375 4.4375 
Q 8.5 10.296875 8.5 21.578125 
z
M 31.109375 56 
z
" id="DejaVuSans-117"/>
      <path d="M 54.890625 33.015625 
L 54.890625 0 
L 45.90625 0 
L 45.90625 32.71875 
Q 45.90625 40.484375 42.875 44.328125 
Q 39.84375 48.1875 33.796875 48.1875 
Q 26.515625 48.1875 22.3125 43.546875 
Q 18.109375 38.921875 18.109375 30.90625 
L 18.109375 0 
L 9.078125 0 
L 9.078125 54.6875 
L 18.109375 54.6875 
L 18.109375 46.1875 
Q 21.34375 51.125 25.703125 53.5625 
Q 30.078125 56 35.796875 56 
Q 45.21875 56 50.046875 50.171875 
Q 54.890625 44.34375 54.890625 33.015625 
z
" id="DejaVuSans-110"/>
      <path d="M 48.78125 52.59375 
L 48.78125 44.1875 
Q 44.96875 46.296875 41.140625 47.34375 
Q 37.3125 48.390625 33.40625 48.390625 
Q 24.65625 48.390625 19.8125 42.84375 
Q 14.984375 37.3125 14.984375 27.296875 
Q 14.984375 17.28125 19.8125 11.734375 
Q 24.65625 6.203125 33.40625 6.203125 
Q 37.3125 6.203125 41.140625 7.25 
Q 44.96875 8.296875 48.78125 10.40625 
L 48.78125 2.09375 
Q 45.015625 0.34375 40.984375 -0.53125 
Q 36.96875 -1.421875 32.421875 -1.421875 
Q 20.0625 -1.421875 12.78125 6.34375 
Q 5.515625 14.109375 5.515625 27.296875 
Q 5.515625 40.671875 12.859375 48.328125 
Q 20.21875 56 33.015625 56 
Q 37.15625 56 41.109375 55.140625 
Q 45.0625 54.296875 48.78125 52.59375 
z
" id="DejaVuSans-99"/>
      <path d="M 32.171875 -5.078125 
Q 28.375 -14.84375 24.75 -17.8125 
Q 21.140625 -20.796875 15.09375 -20.796875 
L 7.90625 -20.796875 
L 7.90625 -13.28125 
L 13.1875 -13.28125 
Q 16.890625 -13.28125 18.9375 -11.515625 
Q 21 -9.765625 23.484375 -3.21875 
L 25.09375 0.875 
L 2.984375 54.6875 
L 12.5 54.6875 
L 29.59375 11.921875 
L 46.6875 54.6875 
L 56.203125 54.6875 
z
" id="DejaVuSans-121"/>
     </defs>
     <g transform="translate(83.187735 323.276562)scale(0.1 -0.1)">
      <use xlink:href="#DejaVuSans-115"/>
      <use x="52.099609" xlink:href="#DejaVuSans-97"/>
      <use x="113.378906" xlink:href="#DejaVuSans-109"/>
      <use x="210.791016" xlink:href="#DejaVuSans-112"/>
      <use x="274.267578" xlink:href="#DejaVuSans-108"/>
      <use x="302.050781" xlink:href="#DejaVuSans-101"/>
      <use x="363.574219" xlink:href="#DejaVuSans-32"/>
      <use x="395.361328" xlink:href="#DejaVuSans-102"/>
      <use x="430.566406" xlink:href="#DejaVuSans-114"/>
      <use x="469.429688" xlink:href="#DejaVuSans-101"/>
      <use x="530.953125" xlink:href="#DejaVuSans-113"/>
      <use x="594.429688" xlink:href="#DejaVuSans-117"/>
      <use x="657.808594" xlink:href="#DejaVuSans-101"/>
      <use x="719.332031" xlink:href="#DejaVuSans-110"/>
      <use x="782.710938" xlink:href="#DejaVuSans-99"/>
      <use x="837.691406" xlink:href="#DejaVuSans-121"/>
     </g>
    </g>
   </g>
   <g id="matplotlib.axis_2">
    <g id="ytick_1">
     <g id="line2d_23">
      <defs>
       <path d="M 0 0 
L -3.5 0 
" id="m6f27cb5382" style="stroke:#000000;stroke-width:0.8;"/>
      </defs>
      <g>
       <use style="stroke:#000000;stroke-width:0.8;" x="45.478125" xlink:href="#m6f27cb5382" y="253.735202"/>
      </g>
     </g>
     <g id="text_5">
      <!-- $\mathdefault{10^{4}}$ -->
      <defs>
       <path d="M 37.796875 64.3125 
L 12.890625 25.390625 
L 37.796875 25.390625 
z
M 35.203125 72.90625 
L 47.609375 72.90625 
L 47.609375 25.390625 
L 58.015625 25.390625 
L 58.015625 17.1875 
L 47.609375 17.1875 
L 47.609375 0 
L 37.796875 0 
L 37.796875 17.1875 
L 4.890625 17.1875 
L 4.890625 26.703125 
z
" id="DejaVuSans-52"/>
      </defs>
      <g transform="translate(20.878125 257.534421)scale(0.1 -0.1)">
       <use transform="translate(0 0.684375)" xlink:href="#DejaVuSans-49"/>
       <use transform="translate(63.623047 0.684375)" xlink:href="#DejaVuSans-48"/>
       <use transform="translate(128.203125 38.965625)scale(0.7)" xlink:href="#DejaVuSans-52"/>
      </g>
     </g>
    </g>
    <g id="ytick_2">
     <g id="line2d_24">
      <g>
       <use style="stroke:#000000;stroke-width:0.8;" x="45.478125" xlink:href="#m6f27cb5382" y="117.846958"/>
      </g>
     </g>
     <g id="text_6">
      <!-- $\mathdefault{10^{5}}$ -->
      <defs>
       <path d="M 10.796875 72.90625 
L 49.515625 72.90625 
L 49.515625 64.59375 
L 19.828125 64.59375 
L 19.828125 46.734375 
Q 21.96875 47.46875 24.109375 47.828125 
Q 26.265625 48.1875 28.421875 48.1875 
Q 40.625 48.1875 47.75 41.5 
Q 54.890625 34.8125 54.890625 23.390625 
Q 54.890625 11.625 47.5625 5.09375 
Q 40.234375 -1.421875 26.90625 -1.421875 
Q 22.3125 -1.421875 17.546875 -0.640625 
Q 12.796875 0.140625 7.71875 1.703125 
L 7.71875 11.625 
Q 12.109375 9.234375 16.796875 8.0625 
Q 21.484375 6.890625 26.703125 6.890625 
Q 35.15625 6.890625 40.078125 11.328125 
Q 45.015625 15.765625 45.015625 23.390625 
Q 45.015625 31 40.078125 35.4375 
Q 35.15625 39.890625 26.703125 39.890625 
Q 22.75 39.890625 18.8125 39.015625 
Q 14.890625 38.140625 10.796875 36.28125 
z
" id="DejaVuSans-53"/>
      </defs>
      <g transform="translate(20.878125 121.646177)scale(0.1 -0.1)">
       <use transform="translate(0 0.684375)" xlink:href="#DejaVuSans-49"/>
       <use transform="translate(63.623047 0.684375)" xlink:href="#DejaVuSans-48"/>
       <use transform="translate(128.203125 38.965625)scale(0.7)" xlink:href="#DejaVuSans-53"/>
      </g>
     </g>
    </g>
    <g id="ytick_3">
     <g id="line2d_25">
      <defs>
       <path d="M 0 0 
L -2 0 
" id="m30ef63e68c" style="stroke:#000000;stroke-width:0.6;"/>
      </defs>
      <g>
       <use style="stroke:#000000;stroke-width:0.6;" x="45.478125" xlink:href="#m30ef63e68c" y="294.64164"/>
      </g>
     </g>
    </g>
    <g id="ytick_4">
     <g id="line2d_26">
      <g>
       <use style="stroke:#000000;stroke-width:0.6;" x="45.478125" xlink:href="#m30ef63e68c" y="283.881839"/>
      </g>
     </g>
    </g>
    <g id="ytick_5">
     <g id="line2d_27">
      <g>
       <use style="stroke:#000000;stroke-width:0.6;" x="45.478125" xlink:href="#m30ef63e68c" y="274.784557"/>
      </g>
     </g>
    </g>
    <g id="ytick_6">
     <g id="line2d_28">
      <g>
       <use style="stroke:#000000;stroke-width:0.6;" x="45.478125" xlink:href="#m30ef63e68c" y="266.904134"/>
      </g>
     </g>
    </g>
    <g id="ytick_7">
     <g id="line2d_29">
      <g>
       <use style="stroke:#000000;stroke-width:0.6;" x="45.478125" xlink:href="#m30ef63e68c" y="259.953107"/>
      </g>
     </g>
    </g>
    <g id="ytick_8">
     <g id="line2d_30">
      <g>
       <use style="stroke:#000000;stroke-width:0.6;" x="45.478125" xlink:href="#m30ef63e68c" y="212.828764"/>
      </g>
     </g>
    </g>
    <g id="ytick_9">
     <g id="line2d_31">
      <g>
       <use style="stroke:#000000;stroke-width:0.6;" x="45.478125" xlink:href="#m30ef63e68c" y="188.900032"/>
      </g>
     </g>
    </g>
    <g id="ytick_10">
     <g id="line2d_32">
      <g>
       <use style="stroke:#000000;stroke-width:0.6;" x="45.478125" xlink:href="#m30ef63e68c" y="171.922327"/>
      </g>
     </g>
    </g>
    <g id="ytick_11">
     <g id="line2d_33">
      <g>
       <use style="stroke:#000000;stroke-width:0.6;" x="45.478125" xlink:href="#m30ef63e68c" y="158.753395"/>
      </g>
     </g>
    </g>
    <g id="ytick_12">
     <g id="line2d_34">
      <g>
       <use style="stroke:#000000;stroke-width:0.6;" x="45.478125" xlink:href="#m30ef63e68c" y="147.993595"/>
      </g>
     </g>
    </g>
    <g id="ytick_13">
     <g id="line2d_35">
      <g>
       <use style="stroke:#000000;stroke-width:0.6;" x="45.478125" xlink:href="#m30ef63e68c" y="138.896313"/>
      </g>
     </g>
    </g>
    <g id="ytick_14">
     <g id="line2d_36">
      <g>
       <use style="stroke:#000000;stroke-width:0.6;" x="45.478125" xlink:href="#m30ef63e68c" y="131.015889"/>
      </g>
     </g>
    </g>
    <g id="ytick_15">
     <g id="line2d_37">
      <g>
       <use style="stroke:#000000;stroke-width:0.6;" x="45.478125" xlink:href="#m30ef63e68c" y="124.064863"/>
      </g>
     </g>
    </g>
    <g id="ytick_16">
     <g id="line2d_38">
      <g>
       <use style="stroke:#000000;stroke-width:0.6;" x="45.478125" xlink:href="#m30ef63e68c" y="76.94052"/>
      </g>
     </g>
    </g>
    <g id="ytick_17">
     <g id="line2d_39">
      <g>
       <use style="stroke:#000000;stroke-width:0.6;" x="45.478125" xlink:href="#m30ef63e68c" y="53.011788"/>
      </g>
     </g>
    </g>
    <g id="ytick_18">
     <g id="line2d_40">
      <g>
       <use style="stroke:#000000;stroke-width:0.6;" x="45.478125" xlink:href="#m30ef63e68c" y="36.034083"/>
      </g>
     </g>
    </g>
    <g id="ytick_19">
     <g id="line2d_41">
      <g>
       <use style="stroke:#000000;stroke-width:0.6;" x="45.478125" xlink:href="#m30ef63e68c" y="22.865151"/>
      </g>
     </g>
    </g>
    <g id="ytick_20">
     <g id="line2d_42">
      <g>
       <use style="stroke:#000000;stroke-width:0.6;" x="45.478125" xlink:href="#m30ef63e68c" y="12.105351"/>
      </g>
     </g>
    </g>
    <g id="text_7">
     <!-- variant count -->
     <defs>
      <path d="M 2.984375 54.6875 
L 12.5 54.6875 
L 29.59375 8.796875 
L 46.6875 54.6875 
L 56.203125 54.6875 
L 35.6875 0 
L 23.484375 0 
z
" id="DejaVuSans-118"/>
      <path d="M 9.421875 54.6875 
L 18.40625 54.6875 
L 18.40625 0 
L 9.421875 0 
z
M 9.421875 75.984375 
L 18.40625 75.984375 
L 18.40625 64.59375 
L 9.421875 64.59375 
z
" id="DejaVuSans-105"/>
      <path d="M 18.3125 70.21875 
L 18.3125 54.6875 
L 36.8125 54.6875 
L 36.8125 47.703125 
L 18.3125 47.703125 
L 18.3125 18.015625 
Q 18.3125 11.328125 20.140625 9.421875 
Q 21.96875 7.515625 27.59375 7.515625 
L 36.8125 7.515625 
L 36.8125 0 
L 27.59375 0 
Q 17.1875 0 13.234375 3.875 
Q 9.28125 7.765625 9.28125 18.015625 
L 9.28125 47.703125 
L 2.6875 47.703125 
L 2.6875 54.6875 
L 9.28125 54.6875 
L 9.28125 70.21875 
z
" id="DejaVuSans-116"/>
      <path d="M 30.609375 48.390625 
Q 23.390625 48.390625 19.1875 42.75 
Q 14.984375 37.109375 14.984375 27.296875 
Q 14.984375 17.484375 19.15625 11.84375 
Q 23.34375 6.203125 30.609375 6.203125 
Q 37.796875 6.203125 41.984375 11.859375 
Q 46.1875 17.53125 46.1875 27.296875 
Q 46.1875 37.015625 41.984375 42.703125 
Q 37.796875 48.390625 30.609375 48.390625 
z
M 30.609375 56 
Q 42.328125 56 49.015625 48.375 
Q 55.71875 40.765625 55.71875 27.296875 
Q 55.71875 13.875 49.015625 6.21875 
Q 42.328125 -1.421875 30.609375 -1.421875 
Q 18.84375 -1.421875 12.171875 6.21875 
Q 5.515625 13.875 5.515625 27.296875 
Q 5.515625 40.765625 12.171875 48.375 
Q 18.84375 56 30.609375 56 
z
" id="DejaVuSans-111"/>
     </defs>
     <g transform="translate(14.798438 184.45625)rotate(-90)scale(0.1 -0.1)">
      <use xlink:href="#DejaVuSans-118"/>
      <use x="59.179688" xlink:href="#DejaVuSans-97"/>
      <use x="120.458984" xlink:href="#DejaVuSans-114"/>
      <use x="161.572266" xlink:href="#DejaVuSans-105"/>
      <use x="189.355469" xlink:href="#DejaVuSans-97"/>
      <use x="250.634766" xlink:href="#DejaVuSans-110"/>
      <use x="314.013672" xlink:href="#DejaVuSans-116"/>
      <use x="353.222656" xlink:href="#DejaVuSans-32"/>
      <use x="385.009766" xlink:href="#DejaVuSans-99"/>
      <use x="439.990234" xlink:href="#DejaVuSans-111"/>
      <use x="501.171875" xlink:href="#DejaVuSans-117"/>
      <use x="564.550781" xlink:href="#DejaVuSans-110"/>
      <use x="627.929688" xlink:href="#DejaVuSans-116"/>
     </g>
    </g>
   </g>
   <g id="line2d_43">
    <defs>
     <path d="M 0 1.5 
C 0.397805 1.5 0.77937 1.341951 1.06066 1.06066 
C 1.341951 0.77937 1.5 0.397805 1.5 0 
C 1.5 -0.397805 1.341951 -0.77937 1.06066 -1.06066 
C 0.77937 -1.341951 0.397805 -1.5 0 -1.5 
C -0.397805 -1.5 -0.77937 -1.341951 -1.06066 -1.06066 
C -1.341951 -0.77937 -1.5 -0.397805 -1.5 0 
C -1.5 0.397805 -1.341951 0.77937 -1.06066 1.06066 
C -0.77937 1.341951 -0.397805 1.5 0 1.5 
z
" id="m4696f4ce1b" style="stroke:#1f77b4;"/>
    </defs>
    <g clip-path="url(#pad371ef442)">
     <use style="fill:#1f77b4;stroke:#1f77b4;" x="52.983047" xlink:href="#m4696f4ce1b" y="20.425246"/>
     <use style="fill:#1f77b4;stroke:#1f77b4;" x="72.638123" xlink:href="#m4696f4ce1b" y="71.131471"/>
     <use style="fill:#1f77b4;stroke:#1f77b4;" x="84.135606" xlink:href="#m4696f4ce1b" y="92.341342"/>
     <use style="fill:#1f77b4;stroke:#1f77b4;" x="92.293199" xlink:href="#m4696f4ce1b" y="103.873372"/>
     <use style="fill:#1f77b4;stroke:#1f77b4;" x="98.62072" xlink:href="#m4696f4ce1b" y="111.870743"/>
     <use style="fill:#1f77b4;stroke:#1f77b4;" x="103.790682" xlink:href="#m4696f4ce1b" y="118.291242"/>
     <use style="fill:#1f77b4;stroke:#1f77b4;" x="108.161822" xlink:href="#m4696f4ce1b" y="123.460112"/>
     <use style="fill:#1f77b4;stroke:#1f77b4;" x="111.948275" xlink:href="#m4696f4ce1b" y="128.313121"/>
     <use style="fill:#1f77b4;stroke:#1f77b4;" x="115.288164" xlink:href="#m4696f4ce1b" y="132.363433"/>
     <use style="fill:#1f77b4;stroke:#1f77b4;" x="118.275797" xlink:href="#m4696f4ce1b" y="135.794942"/>
     <use style="fill:#1f77b4;stroke:#1f77b4;" x="120.978439" xlink:href="#m4696f4ce1b" y="140.02496"/>
     <use style="fill:#1f77b4;stroke:#1f77b4;" x="123.445758" xlink:href="#m4696f4ce1b" y="143.244417"/>
     <use style="fill:#1f77b4;stroke:#1f77b4;" x="125.715471" xlink:href="#m4696f4ce1b" y="146.519077"/>
     <use style="fill:#1f77b4;stroke:#1f77b4;" x="127.816898" xlink:href="#m4696f4ce1b" y="148.548979"/>
     <use style="fill:#1f77b4;stroke:#1f77b4;" x="129.773279" xlink:href="#m4696f4ce1b" y="151.888463"/>
     <use style="fill:#1f77b4;stroke:#1f77b4;" x="131.603351" xlink:href="#m4696f4ce1b" y="154.640371"/>
     <use style="fill:#1f77b4;stroke:#1f77b4;" x="133.32244" xlink:href="#m4696f4ce1b" y="157.596306"/>
     <use style="fill:#1f77b4;stroke:#1f77b4;" x="134.94324" xlink:href="#m4696f4ce1b" y="160.371147"/>
     <use style="fill:#1f77b4;stroke:#1f77b4;" x="136.476386" xlink:href="#m4696f4ce1b" y="162.002064"/>
     <use style="fill:#1f77b4;stroke:#1f77b4;" x="137.930873" xlink:href="#m4696f4ce1b" y="164.990976"/>
     <use style="fill:#1f77b4;stroke:#1f77b4;" x="139.31438" xlink:href="#m4696f4ce1b" y="167.377699"/>
     <use style="fill:#1f77b4;stroke:#1f77b4;" x="140.633515" xlink:href="#m4696f4ce1b" y="169.365606"/>
     <use style="fill:#1f77b4;stroke:#1f77b4;" x="141.894002" xlink:href="#m4696f4ce1b" y="171.468184"/>
     <use style="fill:#1f77b4;stroke:#1f77b4;" x="143.100834" xlink:href="#m4696f4ce1b" y="173.563435"/>
     <use style="fill:#1f77b4;stroke:#1f77b4;" x="144.258394" xlink:href="#m4696f4ce1b" y="176.148039"/>
     <use style="fill:#1f77b4;stroke:#1f77b4;" x="145.370547" xlink:href="#m4696f4ce1b" y="177.510823"/>
     <use style="fill:#1f77b4;stroke:#1f77b4;" x="146.440723" xlink:href="#m4696f4ce1b" y="180.349908"/>
     <use style="fill:#1f77b4;stroke:#1f77b4;" x="147.471974" xlink:href="#m4696f4ce1b" y="181.371305"/>
     <use style="fill:#1f77b4;stroke:#1f77b4;" x="148.467033" xlink:href="#m4696f4ce1b" y="182.679177"/>
     <use style="fill:#1f77b4;stroke:#1f77b4;" x="149.428355" xlink:href="#m4696f4ce1b" y="184.659447"/>
     <use style="fill:#1f77b4;stroke:#1f77b4;" x="150.358153" xlink:href="#m4696f4ce1b" y="187.339239"/>
     <use style="fill:#1f77b4;stroke:#1f77b4;" x="151.258428" xlink:href="#m4696f4ce1b" y="188.73502"/>
     <use style="fill:#1f77b4;stroke:#1f77b4;" x="152.130997" xlink:href="#m4696f4ce1b" y="189.682231"/>
     <use style="fill:#1f77b4;stroke:#1f77b4;" x="152.977516" xlink:href="#m4696f4ce1b" y="191.675044"/>
     <use style="fill:#1f77b4;stroke:#1f77b4;" x="153.799495" xlink:href="#m4696f4ce1b" y="193.047608"/>
     <use style="fill:#1f77b4;stroke:#1f77b4;" x="154.598316" xlink:href="#m4696f4ce1b" y="194.82142"/>
     <use style="fill:#1f77b4;stroke:#1f77b4;" x="155.375249" xlink:href="#m4696f4ce1b" y="196.870453"/>
     <use style="fill:#1f77b4;stroke:#1f77b4;" x="156.131462" xlink:href="#m4696f4ce1b" y="198.184164"/>
     <use style="fill:#1f77b4;stroke:#1f77b4;" x="156.86803" xlink:href="#m4696f4ce1b" y="199.391334"/>
     <use style="fill:#1f77b4;stroke:#1f77b4;" x="157.585949" xlink:href="#m4696f4ce1b" y="201.523143"/>
     <use style="fill:#1f77b4;stroke:#1f77b4;" x="158.286139" xlink:href="#m4696f4ce1b" y="202.443917"/>
     <use style="fill:#1f77b4;stroke:#1f77b4;" x="158.969456" xlink:href="#m4696f4ce1b" y="203.85639"/>
     <use style="fill:#1f77b4;stroke:#1f77b4;" x="159.636694" xlink:href="#m4696f4ce1b" y="204.493466"/>
     <use style="fill:#1f77b4;stroke:#1f77b4;" x="160.288591" xlink:href="#m4696f4ce1b" y="206.606138"/>
     <use style="fill:#1f77b4;stroke:#1f77b4;" x="160.925838" xlink:href="#m4696f4ce1b" y="207.131601"/>
     <use style="fill:#1f77b4;stroke:#1f77b4;" x="161.549078" xlink:href="#m4696f4ce1b" y="208.308731"/>
     <use style="fill:#1f77b4;stroke:#1f77b4;" x="162.158914" xlink:href="#m4696f4ce1b" y="210.622049"/>
     <use style="fill:#1f77b4;stroke:#1f77b4;" x="162.75591" xlink:href="#m4696f4ce1b" y="210.616365"/>
     <use style="fill:#1f77b4;stroke:#1f77b4;" x="163.340596" xlink:href="#m4696f4ce1b" y="213.386134"/>
     <use style="fill:#1f77b4;stroke:#1f77b4;" x="163.91347" xlink:href="#m4696f4ce1b" y="213.42189"/>
     <use style="fill:#1f77b4;stroke:#1f77b4;" x="164.474999" xlink:href="#m4696f4ce1b" y="214.623288"/>
     <use style="fill:#1f77b4;stroke:#1f77b4;" x="165.025624" xlink:href="#m4696f4ce1b" y="215.484307"/>
     <use style="fill:#1f77b4;stroke:#1f77b4;" x="165.56576" xlink:href="#m4696f4ce1b" y="217.048138"/>
     <use style="fill:#1f77b4;stroke:#1f77b4;" x="166.095799" xlink:href="#m4696f4ce1b" y="218.778432"/>
     <use style="fill:#1f77b4;stroke:#1f77b4;" x="166.616112" xlink:href="#m4696f4ce1b" y="219.148395"/>
     <use style="fill:#1f77b4;stroke:#1f77b4;" x="167.12705" xlink:href="#m4696f4ce1b" y="220.222217"/>
     <use style="fill:#1f77b4;stroke:#1f77b4;" x="167.628944" xlink:href="#m4696f4ce1b" y="220.901724"/>
     <use style="fill:#1f77b4;stroke:#1f77b4;" x="168.122109" xlink:href="#m4696f4ce1b" y="221.89458"/>
     <use style="fill:#1f77b4;stroke:#1f77b4;" x="168.606844" xlink:href="#m4696f4ce1b" y="222.754111"/>
     <use style="fill:#1f77b4;stroke:#1f77b4;" x="169.083431" xlink:href="#m4696f4ce1b" y="224.228206"/>
     <use style="fill:#1f77b4;stroke:#1f77b4;" x="169.552141" xlink:href="#m4696f4ce1b" y="226.212016"/>
     <use style="fill:#1f77b4;stroke:#1f77b4;" x="170.013229" xlink:href="#m4696f4ce1b" y="227.352032"/>
     <use style="fill:#1f77b4;stroke:#1f77b4;" x="170.466939" xlink:href="#m4696f4ce1b" y="227.533468"/>
     <use style="fill:#1f77b4;stroke:#1f77b4;" x="170.913504" xlink:href="#m4696f4ce1b" y="227.966625"/>
     <use style="fill:#1f77b4;stroke:#1f77b4;" x="171.353145" xlink:href="#m4696f4ce1b" y="229.826145"/>
     <use style="fill:#1f77b4;stroke:#1f77b4;" x="171.786074" xlink:href="#m4696f4ce1b" y="229.735694"/>
     <use style="fill:#1f77b4;stroke:#1f77b4;" x="172.212492" xlink:href="#m4696f4ce1b" y="231.067032"/>
     <use style="fill:#1f77b4;stroke:#1f77b4;" x="172.632593" xlink:href="#m4696f4ce1b" y="232.035551"/>
     <use style="fill:#1f77b4;stroke:#1f77b4;" x="173.04656" xlink:href="#m4696f4ce1b" y="232.800448"/>
     <use style="fill:#1f77b4;stroke:#1f77b4;" x="173.454571" xlink:href="#m4696f4ce1b" y="233.070106"/>
     <use style="fill:#1f77b4;stroke:#1f77b4;" x="173.856795" xlink:href="#m4696f4ce1b" y="234.637541"/>
     <use style="fill:#1f77b4;stroke:#1f77b4;" x="174.253393" xlink:href="#m4696f4ce1b" y="235.814914"/>
     <use style="fill:#1f77b4;stroke:#1f77b4;" x="174.64452" xlink:href="#m4696f4ce1b" y="235.519445"/>
     <use style="fill:#1f77b4;stroke:#1f77b4;" x="175.030326" xlink:href="#m4696f4ce1b" y="236.344362"/>
     <use style="fill:#1f77b4;stroke:#1f77b4;" x="175.410953" xlink:href="#m4696f4ce1b" y="237.163144"/>
     <use style="fill:#1f77b4;stroke:#1f77b4;" x="175.786538" xlink:href="#m4696f4ce1b" y="237.745376"/>
     <use style="fill:#1f77b4;stroke:#1f77b4;" x="176.157213" xlink:href="#m4696f4ce1b" y="239.764411"/>
     <use style="fill:#1f77b4;stroke:#1f77b4;" x="176.523106" xlink:href="#m4696f4ce1b" y="239.309729"/>
     <use style="fill:#1f77b4;stroke:#1f77b4;" x="176.884337" xlink:href="#m4696f4ce1b" y="239.834315"/>
     <use style="fill:#1f77b4;stroke:#1f77b4;" x="177.241025" xlink:href="#m4696f4ce1b" y="241.345678"/>
     <use style="fill:#1f77b4;stroke:#1f77b4;" x="177.593281" xlink:href="#m4696f4ce1b" y="242.203435"/>
     <use style="fill:#1f77b4;stroke:#1f77b4;" x="177.941216" xlink:href="#m4696f4ce1b" y="242.349236"/>
     <use style="fill:#1f77b4;stroke:#1f77b4;" x="178.284932" xlink:href="#m4696f4ce1b" y="243.469258"/>
     <use style="fill:#1f77b4;stroke:#1f77b4;" x="178.624533" xlink:href="#m4696f4ce1b" y="243.389963"/>
     <use style="fill:#1f77b4;stroke:#1f77b4;" x="178.960114" xlink:href="#m4696f4ce1b" y="243.593371"/>
     <use style="fill:#1f77b4;stroke:#1f77b4;" x="179.29177" xlink:href="#m4696f4ce1b" y="244.940517"/>
     <use style="fill:#1f77b4;stroke:#1f77b4;" x="179.619592" xlink:href="#m4696f4ce1b" y="244.550305"/>
     <use style="fill:#1f77b4;stroke:#1f77b4;" x="179.943667" xlink:href="#m4696f4ce1b" y="245.528148"/>
     <use style="fill:#1f77b4;stroke:#1f77b4;" x="180.264081" xlink:href="#m4696f4ce1b" y="247.268775"/>
     <use style="fill:#1f77b4;stroke:#1f77b4;" x="180.580914" xlink:href="#m4696f4ce1b" y="247.56571"/>
     <use style="fill:#1f77b4;stroke:#1f77b4;" x="180.894246" xlink:href="#m4696f4ce1b" y="247.358758"/>
     <use style="fill:#1f77b4;stroke:#1f77b4;" x="181.204154" xlink:href="#m4696f4ce1b" y="249.160529"/>
     <use style="fill:#1f77b4;stroke:#1f77b4;" x="181.510711" xlink:href="#m4696f4ce1b" y="250.218539"/>
     <use style="fill:#1f77b4;stroke:#1f77b4;" x="181.81399" xlink:href="#m4696f4ce1b" y="250.945822"/>
     <use style="fill:#1f77b4;stroke:#1f77b4;" x="182.114059" xlink:href="#m4696f4ce1b" y="250.20742"/>
     <use style="fill:#1f77b4;stroke:#1f77b4;" x="182.410986" xlink:href="#m4696f4ce1b" y="252.030895"/>
     <use style="fill:#1f77b4;stroke:#1f77b4;" x="182.704836" xlink:href="#m4696f4ce1b" y="252.763587"/>
     <use style="fill:#1f77b4;stroke:#1f77b4;" x="182.995673" xlink:href="#m4696f4ce1b" y="252.856543"/>
     <use style="fill:#1f77b4;stroke:#1f77b4;" x="183.283556" xlink:href="#m4696f4ce1b" y="253.031231"/>
     <use style="fill:#1f77b4;stroke:#1f77b4;" x="183.568546" xlink:href="#m4696f4ce1b" y="253.060396"/>
     <use style="fill:#1f77b4;stroke:#1f77b4;" x="183.850701" xlink:href="#m4696f4ce1b" y="254.364106"/>
     <use style="fill:#1f77b4;stroke:#1f77b4;" x="184.130075" xlink:href="#m4696f4ce1b" y="254.298529"/>
     <use style="fill:#1f77b4;stroke:#1f77b4;" x="184.406724" xlink:href="#m4696f4ce1b" y="255.423356"/>
     <use style="fill:#1f77b4;stroke:#1f77b4;" x="184.6807" xlink:href="#m4696f4ce1b" y="256.06447"/>
     <use style="fill:#1f77b4;stroke:#1f77b4;" x="184.952054" xlink:href="#m4696f4ce1b" y="256.818238"/>
     <use style="fill:#1f77b4;stroke:#1f77b4;" x="185.220836" xlink:href="#m4696f4ce1b" y="256.892902"/>
     <use style="fill:#1f77b4;stroke:#1f77b4;" x="185.487094" xlink:href="#m4696f4ce1b" y="257.005075"/>
     <use style="fill:#1f77b4;stroke:#1f77b4;" x="185.750875" xlink:href="#m4696f4ce1b" y="259.411347"/>
     <use style="fill:#1f77b4;stroke:#1f77b4;" x="186.012225" xlink:href="#m4696f4ce1b" y="258.266004"/>
     <use style="fill:#1f77b4;stroke:#1f77b4;" x="186.271188" xlink:href="#m4696f4ce1b" y="259.320454"/>
     <use style="fill:#1f77b4;stroke:#1f77b4;" x="186.527808" xlink:href="#m4696f4ce1b" y="259.417845"/>
     <use style="fill:#1f77b4;stroke:#1f77b4;" x="186.782126" xlink:href="#m4696f4ce1b" y="259.972782"/>
     <use style="fill:#1f77b4;stroke:#1f77b4;" x="187.034184" xlink:href="#m4696f4ce1b" y="260.998359"/>
     <use style="fill:#1f77b4;stroke:#1f77b4;" x="187.28402" xlink:href="#m4696f4ce1b" y="260.612505"/>
     <use style="fill:#1f77b4;stroke:#1f77b4;" x="187.531675" xlink:href="#m4696f4ce1b" y="261.078507"/>
     <use style="fill:#1f77b4;stroke:#1f77b4;" x="187.777186" xlink:href="#m4696f4ce1b" y="261.252535"/>
     <use style="fill:#1f77b4;stroke:#1f77b4;" x="188.020589" xlink:href="#m4696f4ce1b" y="262.205345"/>
     <use style="fill:#1f77b4;stroke:#1f77b4;" x="188.26192" xlink:href="#m4696f4ce1b" y="263.201498"/>
     <use style="fill:#1f77b4;stroke:#1f77b4;" x="188.501215" xlink:href="#m4696f4ce1b" y="263.632626"/>
     <use style="fill:#1f77b4;stroke:#1f77b4;" x="188.738507" xlink:href="#m4696f4ce1b" y="263.6815"/>
     <use style="fill:#1f77b4;stroke:#1f77b4;" x="188.973831" xlink:href="#m4696f4ce1b" y="264.980925"/>
     <use style="fill:#1f77b4;stroke:#1f77b4;" x="189.207217" xlink:href="#m4696f4ce1b" y="265.102437"/>
     <use style="fill:#1f77b4;stroke:#1f77b4;" x="189.438698" xlink:href="#m4696f4ce1b" y="264.370022"/>
     <use style="fill:#1f77b4;stroke:#1f77b4;" x="189.668305" xlink:href="#m4696f4ce1b" y="265.382149"/>
     <use style="fill:#1f77b4;stroke:#1f77b4;" x="189.896067" xlink:href="#m4696f4ce1b" y="266.617132"/>
     <use style="fill:#1f77b4;stroke:#1f77b4;" x="190.122015" xlink:href="#m4696f4ce1b" y="266.49979"/>
     <use style="fill:#1f77b4;stroke:#1f77b4;" x="190.346177" xlink:href="#m4696f4ce1b" y="266.837778"/>
     <use style="fill:#1f77b4;stroke:#1f77b4;" x="190.56858" xlink:href="#m4696f4ce1b" y="267.355851"/>
     <use style="fill:#1f77b4;stroke:#1f77b4;" x="190.789252" xlink:href="#m4696f4ce1b" y="267.676366"/>
     <use style="fill:#1f77b4;stroke:#1f77b4;" x="191.008221" xlink:href="#m4696f4ce1b" y="268.519459"/>
     <use style="fill:#1f77b4;stroke:#1f77b4;" x="191.225512" xlink:href="#m4696f4ce1b" y="268.853998"/>
     <use style="fill:#1f77b4;stroke:#1f77b4;" x="191.44115" xlink:href="#m4696f4ce1b" y="268.352898"/>
     <use style="fill:#1f77b4;stroke:#1f77b4;" x="191.65516" xlink:href="#m4696f4ce1b" y="269.044925"/>
     <use style="fill:#1f77b4;stroke:#1f77b4;" x="191.867568" xlink:href="#m4696f4ce1b" y="270.57144"/>
     <use style="fill:#1f77b4;stroke:#1f77b4;" x="192.078396" xlink:href="#m4696f4ce1b" y="270.492993"/>
     <use style="fill:#1f77b4;stroke:#1f77b4;" x="192.287669" xlink:href="#m4696f4ce1b" y="270.391168"/>
     <use style="fill:#1f77b4;stroke:#1f77b4;" x="192.495408" xlink:href="#m4696f4ce1b" y="269.807121"/>
     <use style="fill:#1f77b4;stroke:#1f77b4;" x="192.701636" xlink:href="#m4696f4ce1b" y="271.824942"/>
     <use style="fill:#1f77b4;stroke:#1f77b4;" x="192.906376" xlink:href="#m4696f4ce1b" y="272.356544"/>
     <use style="fill:#1f77b4;stroke:#1f77b4;" x="193.109647" xlink:href="#m4696f4ce1b" y="271.568909"/>
     <use style="fill:#1f77b4;stroke:#1f77b4;" x="193.311472" xlink:href="#m4696f4ce1b" y="272.925647"/>
     <use style="fill:#1f77b4;stroke:#1f77b4;" x="193.511871" xlink:href="#m4696f4ce1b" y="272.909311"/>
     <use style="fill:#1f77b4;stroke:#1f77b4;" x="193.710863" xlink:href="#m4696f4ce1b" y="273.665509"/>
     <use style="fill:#1f77b4;stroke:#1f77b4;" x="193.908469" xlink:href="#m4696f4ce1b" y="273.401383"/>
     <use style="fill:#1f77b4;stroke:#1f77b4;" x="194.104707" xlink:href="#m4696f4ce1b" y="274.590967"/>
     <use style="fill:#1f77b4;stroke:#1f77b4;" x="194.299596" xlink:href="#m4696f4ce1b" y="274.005657"/>
     <use style="fill:#1f77b4;stroke:#1f77b4;" x="194.493155" xlink:href="#m4696f4ce1b" y="275.27558"/>
     <use style="fill:#1f77b4;stroke:#1f77b4;" x="194.685402" xlink:href="#m4696f4ce1b" y="275.352141"/>
     <use style="fill:#1f77b4;stroke:#1f77b4;" x="194.876354" xlink:href="#m4696f4ce1b" y="274.423142"/>
     <use style="fill:#1f77b4;stroke:#1f77b4;" x="195.066029" xlink:href="#m4696f4ce1b" y="275.719308"/>
     <use style="fill:#1f77b4;stroke:#1f77b4;" x="195.254443" xlink:href="#m4696f4ce1b" y="274.843602"/>
     <use style="fill:#1f77b4;stroke:#1f77b4;" x="195.441614" xlink:href="#m4696f4ce1b" y="275.054961"/>
     <use style="fill:#1f77b4;stroke:#1f77b4;" x="195.627558" xlink:href="#m4696f4ce1b" y="275.488494"/>
     <use style="fill:#1f77b4;stroke:#1f77b4;" x="195.81229" xlink:href="#m4696f4ce1b" y="277.625586"/>
     <use style="fill:#1f77b4;stroke:#1f77b4;" x="195.995826" xlink:href="#m4696f4ce1b" y="276.365234"/>
     <use style="fill:#1f77b4;stroke:#1f77b4;" x="196.178182" xlink:href="#m4696f4ce1b" y="276.391219"/>
     <use style="fill:#1f77b4;stroke:#1f77b4;" x="196.359373" xlink:href="#m4696f4ce1b" y="276.730065"/>
     <use style="fill:#1f77b4;stroke:#1f77b4;" x="196.539414" xlink:href="#m4696f4ce1b" y="278.105246"/>
     <use style="fill:#1f77b4;stroke:#1f77b4;" x="196.718318" xlink:href="#m4696f4ce1b" y="277.554856"/>
     <use style="fill:#1f77b4;stroke:#1f77b4;" x="196.896101" xlink:href="#m4696f4ce1b" y="277.396022"/>
     <use style="fill:#1f77b4;stroke:#1f77b4;" x="197.072776" xlink:href="#m4696f4ce1b" y="278.732885"/>
     <use style="fill:#1f77b4;stroke:#1f77b4;" x="197.248358" xlink:href="#m4696f4ce1b" y="277.422465"/>
     <use style="fill:#1f77b4;stroke:#1f77b4;" x="197.422858" xlink:href="#m4696f4ce1b" y="278.678825"/>
     <use style="fill:#1f77b4;stroke:#1f77b4;" x="197.596292" xlink:href="#m4696f4ce1b" y="279.239848"/>
     <use style="fill:#1f77b4;stroke:#1f77b4;" x="197.768671" xlink:href="#m4696f4ce1b" y="279.962515"/>
     <use style="fill:#1f77b4;stroke:#1f77b4;" x="197.940008" xlink:href="#m4696f4ce1b" y="278.409266"/>
     <use style="fill:#1f77b4;stroke:#1f77b4;" x="198.110317" xlink:href="#m4696f4ce1b" y="279.07642"/>
     <use style="fill:#1f77b4;stroke:#1f77b4;" x="198.279609" xlink:href="#m4696f4ce1b" y="279.769548"/>
     <use style="fill:#1f77b4;stroke:#1f77b4;" x="198.447896" xlink:href="#m4696f4ce1b" y="280.368883"/>
     <use style="fill:#1f77b4;stroke:#1f77b4;" x="198.61519" xlink:href="#m4696f4ce1b" y="279.385498"/>
     <use style="fill:#1f77b4;stroke:#1f77b4;" x="198.781503" xlink:href="#m4696f4ce1b" y="281.633449"/>
     <use style="fill:#1f77b4;stroke:#1f77b4;" x="198.946846" xlink:href="#m4696f4ce1b" y="280.843429"/>
     <use style="fill:#1f77b4;stroke:#1f77b4;" x="199.111231" xlink:href="#m4696f4ce1b" y="280.712781"/>
     <use style="fill:#1f77b4;stroke:#1f77b4;" x="199.274668" xlink:href="#m4696f4ce1b" y="280.156114"/>
     <use style="fill:#1f77b4;stroke:#1f77b4;" x="199.437169" xlink:href="#m4696f4ce1b" y="280.666191"/>
     <use style="fill:#1f77b4;stroke:#1f77b4;" x="199.598743" xlink:href="#m4696f4ce1b" y="280.433791"/>
     <use style="fill:#1f77b4;stroke:#1f77b4;" x="199.759403" xlink:href="#m4696f4ce1b" y="280.554525"/>
     <use style="fill:#1f77b4;stroke:#1f77b4;" x="199.919157" xlink:href="#m4696f4ce1b" y="281.124366"/>
     <use style="fill:#1f77b4;stroke:#1f77b4;" x="200.078016" xlink:href="#m4696f4ce1b" y="281.737692"/>
     <use style="fill:#1f77b4;stroke:#1f77b4;" x="200.23599" xlink:href="#m4696f4ce1b" y="281.491596"/>
     <use style="fill:#1f77b4;stroke:#1f77b4;" x="200.393089" xlink:href="#m4696f4ce1b" y="279.6321"/>
     <use style="fill:#1f77b4;stroke:#1f77b4;" x="200.549322" xlink:href="#m4696f4ce1b" y="279.641253"/>
     <use style="fill:#1f77b4;stroke:#1f77b4;" x="200.704699" xlink:href="#m4696f4ce1b" y="279.258035"/>
     <use style="fill:#1f77b4;stroke:#1f77b4;" x="200.85923" xlink:href="#m4696f4ce1b" y="279.158077"/>
     <use style="fill:#1f77b4;stroke:#1f77b4;" x="201.012923" xlink:href="#m4696f4ce1b" y="280.619638"/>
     <use style="fill:#1f77b4;stroke:#1f77b4;" x="201.165787" xlink:href="#m4696f4ce1b" y="279.540646"/>
     <use style="fill:#1f77b4;stroke:#1f77b4;" x="201.317832" xlink:href="#m4696f4ce1b" y="279.367272"/>
     <use style="fill:#1f77b4;stroke:#1f77b4;" x="201.469066" xlink:href="#m4696f4ce1b" y="278.868252"/>
     <use style="fill:#1f77b4;stroke:#1f77b4;" x="201.619498" xlink:href="#m4696f4ce1b" y="278.364458"/>
     <use style="fill:#1f77b4;stroke:#1f77b4;" x="201.769135" xlink:href="#m4696f4ce1b" y="277.088398"/>
     <use style="fill:#1f77b4;stroke:#1f77b4;" x="201.917987" xlink:href="#m4696f4ce1b" y="276.01986"/>
     <use style="fill:#1f77b4;stroke:#1f77b4;" x="202.066062" xlink:href="#m4696f4ce1b" y="275.736441"/>
     <use style="fill:#1f77b4;stroke:#1f77b4;" x="202.213368" xlink:href="#m4696f4ce1b" y="275.114277"/>
     <use style="fill:#1f77b4;stroke:#1f77b4;" x="202.359912" xlink:href="#m4696f4ce1b" y="274.030623"/>
     <use style="fill:#1f77b4;stroke:#1f77b4;" x="202.505703" xlink:href="#m4696f4ce1b" y="271.800892"/>
     <use style="fill:#1f77b4;stroke:#1f77b4;" x="202.650749" xlink:href="#m4696f4ce1b" y="270.862603"/>
     <use style="fill:#1f77b4;stroke:#1f77b4;" x="202.795056" xlink:href="#m4696f4ce1b" y="266.653849"/>
     <use style="fill:#1f77b4;stroke:#1f77b4;" x="202.938632" xlink:href="#m4696f4ce1b" y="256.052193"/>
     <use style="fill:#1f77b4;stroke:#1f77b4;" x="203.081485" xlink:href="#m4696f4ce1b" y="227.344485"/>
    </g>
   </g>
   <g id="line2d_44">
    <path clip-path="url(#pad371ef442)" d="M 52.983047 20.441913 
L 72.638123 71.027057 
L 84.135606 92.21068 
L 92.293199 103.869192 
L 98.62072 111.905001 
L 115.288164 132.368656 
L 120.978439 139.769753 
L 125.715471 146.265826 
L 129.773279 152.127273 
L 134.94324 160.048085 
L 139.31438 167.171456 
L 144.258394 175.708214 
L 149.428355 185.151838 
L 155.375249 196.57243 
L 162.75591 211.330855 
L 189.438698 265.262893 
L 193.109647 272.050717 
L 195.441614 275.955104 
L 197.072776 278.292628 
L 198.279609 279.637554 
L 199.111231 280.248589 
L 199.759403 280.451676 
L 200.23599 280.383744 
L 200.704699 280.066733 
L 201.165787 279.411907 
L 201.619498 278.259606 
L 202.066062 276.260456 
L 202.359912 274.008539 
L 202.650749 269.896931 
L 202.795056 265.813587 
L 202.938632 256.777723 
L 203.081485 227.304196 
L 203.081485 227.304196 
" style="fill:none;stroke:#ff7f0e;stroke-linecap:square;stroke-width:1.5;"/>
   </g>
   <g id="patch_3">
    <path d="M 45.478125 295 
L 45.478125 7.2 
" style="fill:none;stroke:#000000;stroke-linecap:square;stroke-linejoin:miter;stroke-width:0.8;"/>
   </g>
   <g id="patch_4">
    <path d="M 210.586407 295 
L 210.586407 7.2 
" style="fill:none;stroke:#000000;stroke-linecap:square;stroke-linejoin:miter;stroke-width:0.8;"/>
   </g>
   <g id="patch_5">
    <path d="M 45.478125 295 
L 210.586407 295 
" style="fill:none;stroke:#000000;stroke-linecap:square;stroke-linejoin:miter;stroke-width:0.8;"/>
   </g>
   <g id="patch_6">
    <path d="M 45.478125 7.2 
L 210.586407 7.2 
" style="fill:none;stroke:#000000;stroke-linecap:square;stroke-linejoin:miter;stroke-width:0.8;"/>
   </g>
  </g>
  <g id="axes_2">
   <g id="patch_7">
    <path d="M 280.444063 295 
L 445.552345 295 
L 445.552345 7.2 
L 280.444063 7.2 
z
" style="fill:#ffffff;"/>
   </g>
   <g id="matplotlib.axis_3">
    <g id="xtick_23">
     <g id="line2d_45">
      <g>
       <use style="stroke:#000000;stroke-width:0.8;" x="315.360801" xlink:href="#m6c714e572c" y="295"/>
      </g>
     </g>
     <g id="text_8">
      <!-- $\mathdefault{10^{1}}$ -->
      <g transform="translate(306.560801 309.598437)scale(0.1 -0.1)">
       <use transform="translate(0 0.684375)" xlink:href="#DejaVuSans-49"/>
       <use transform="translate(63.623047 0.684375)" xlink:href="#DejaVuSans-48"/>
       <use transform="translate(128.203125 38.965625)scale(0.7)" xlink:href="#DejaVuSans-49"/>
      </g>
     </g>
    </g>
    <g id="xtick_24">
     <g id="line2d_46">
      <g>
       <use style="stroke:#000000;stroke-width:0.8;" x="370.184434" xlink:href="#m6c714e572c" y="295"/>
      </g>
     </g>
     <g id="text_9">
      <!-- $\mathdefault{10^{3}}$ -->
      <defs>
       <path d="M 40.578125 39.3125 
Q 47.65625 37.796875 51.625 33 
Q 55.609375 28.21875 55.609375 21.1875 
Q 55.609375 10.40625 48.1875 4.484375 
Q 40.765625 -1.421875 27.09375 -1.421875 
Q 22.515625 -1.421875 17.65625 -0.515625 
Q 12.796875 0.390625 7.625 2.203125 
L 7.625 11.71875 
Q 11.71875 9.328125 16.59375 8.109375 
Q 21.484375 6.890625 26.8125 6.890625 
Q 36.078125 6.890625 40.9375 10.546875 
Q 45.796875 14.203125 45.796875 21.1875 
Q 45.796875 27.640625 41.28125 31.265625 
Q 36.765625 34.90625 28.71875 34.90625 
L 20.21875 34.90625 
L 20.21875 43.015625 
L 29.109375 43.015625 
Q 36.375 43.015625 40.234375 45.921875 
Q 44.09375 48.828125 44.09375 54.296875 
Q 44.09375 59.90625 40.109375 62.90625 
Q 36.140625 65.921875 28.71875 65.921875 
Q 24.65625 65.921875 20.015625 65.03125 
Q 15.375 64.15625 9.8125 62.3125 
L 9.8125 71.09375 
Q 15.4375 72.65625 20.34375 73.4375 
Q 25.25 74.21875 29.59375 74.21875 
Q 40.828125 74.21875 47.359375 69.109375 
Q 53.90625 64.015625 53.90625 55.328125 
Q 53.90625 49.265625 50.4375 45.09375 
Q 46.96875 40.921875 40.578125 39.3125 
z
" id="DejaVuSans-51"/>
      </defs>
      <g transform="translate(361.384434 309.598437)scale(0.1 -0.1)">
       <use transform="translate(0 0.765625)" xlink:href="#DejaVuSans-49"/>
       <use transform="translate(63.623047 0.765625)" xlink:href="#DejaVuSans-48"/>
       <use transform="translate(128.203125 39.046875)scale(0.7)" xlink:href="#DejaVuSans-51"/>
      </g>
     </g>
    </g>
    <g id="xtick_25">
     <g id="line2d_47">
      <g>
       <use style="stroke:#000000;stroke-width:0.8;" x="425.008067" xlink:href="#m6c714e572c" y="295"/>
      </g>
     </g>
     <g id="text_10">
      <!-- $\mathdefault{10^{5}}$ -->
      <g transform="translate(416.208067 309.598437)scale(0.1 -0.1)">
       <use transform="translate(0 0.684375)" xlink:href="#DejaVuSans-49"/>
       <use transform="translate(63.623047 0.684375)" xlink:href="#DejaVuSans-48"/>
       <use transform="translate(128.203125 38.965625)scale(0.7)" xlink:href="#DejaVuSans-53"/>
      </g>
     </g>
    </g>
    <g id="text_11">
     <!-- $t$ (generations ago) -->
     <defs>
      <path d="M 42.28125 54.6875 
L 40.921875 47.703125 
L 23 47.703125 
L 17.1875 18.015625 
Q 16.890625 16.359375 16.75 15.234375 
Q 16.609375 14.109375 16.609375 13.484375 
Q 16.609375 10.359375 18.484375 8.9375 
Q 20.359375 7.515625 24.515625 7.515625 
L 33.59375 7.515625 
L 32.078125 0 
L 23.484375 0 
Q 15.484375 0 11.546875 3.125 
Q 7.625 6.25 7.625 12.59375 
Q 7.625 13.71875 7.765625 15.0625 
Q 7.90625 16.40625 8.203125 18.015625 
L 14.015625 47.703125 
L 6.390625 47.703125 
L 7.8125 54.6875 
L 15.28125 54.6875 
L 18.3125 70.21875 
L 27.296875 70.21875 
L 24.3125 54.6875 
z
" id="DejaVuSans-Oblique-116"/>
      <path d="M 31 75.875 
Q 24.46875 64.65625 21.28125 53.65625 
Q 18.109375 42.671875 18.109375 31.390625 
Q 18.109375 20.125 21.3125 9.0625 
Q 24.515625 -2 31 -13.1875 
L 23.1875 -13.1875 
Q 15.875 -1.703125 12.234375 9.375 
Q 8.59375 20.453125 8.59375 31.390625 
Q 8.59375 42.28125 12.203125 53.3125 
Q 15.828125 64.359375 23.1875 75.875 
z
" id="DejaVuSans-40"/>
      <path d="M 45.40625 27.984375 
Q 45.40625 37.75 41.375 43.109375 
Q 37.359375 48.484375 30.078125 48.484375 
Q 22.859375 48.484375 18.828125 43.109375 
Q 14.796875 37.75 14.796875 27.984375 
Q 14.796875 18.265625 18.828125 12.890625 
Q 22.859375 7.515625 30.078125 7.515625 
Q 37.359375 7.515625 41.375 12.890625 
Q 45.40625 18.265625 45.40625 27.984375 
z
M 54.390625 6.78125 
Q 54.390625 -7.171875 48.1875 -13.984375 
Q 42 -20.796875 29.203125 -20.796875 
Q 24.46875 -20.796875 20.265625 -20.09375 
Q 16.0625 -19.390625 12.109375 -17.921875 
L 12.109375 -9.1875 
Q 16.0625 -11.328125 19.921875 -12.34375 
Q 23.78125 -13.375 27.78125 -13.375 
Q 36.625 -13.375 41.015625 -8.765625 
Q 45.40625 -4.15625 45.40625 5.171875 
L 45.40625 9.625 
Q 42.625 4.78125 38.28125 2.390625 
Q 33.9375 0 27.875 0 
Q 17.828125 0 11.671875 7.65625 
Q 5.515625 15.328125 5.515625 27.984375 
Q 5.515625 40.671875 11.671875 48.328125 
Q 17.828125 56 27.875 56 
Q 33.9375 56 38.28125 53.609375 
Q 42.625 51.21875 45.40625 46.390625 
L 45.40625 54.6875 
L 54.390625 54.6875 
z
" id="DejaVuSans-103"/>
      <path d="M 8.015625 75.875 
L 15.828125 75.875 
Q 23.140625 64.359375 26.78125 53.3125 
Q 30.421875 42.28125 30.421875 31.390625 
Q 30.421875 20.453125 26.78125 9.375 
Q 23.140625 -1.703125 15.828125 -13.1875 
L 8.015625 -13.1875 
Q 14.5 -2 17.703125 9.0625 
Q 20.90625 20.125 20.90625 31.390625 
Q 20.90625 42.671875 17.703125 53.65625 
Q 14.5 64.65625 8.015625 75.875 
z
" id="DejaVuSans-41"/>
     </defs>
     <g transform="translate(314.848204 323.278125)scale(0.1 -0.1)">
      <use transform="translate(0 0.015625)" xlink:href="#DejaVuSans-Oblique-116"/>
      <use transform="translate(39.208984 0.015625)" xlink:href="#DejaVuSans-32"/>
      <use transform="translate(70.996094 0.015625)" xlink:href="#DejaVuSans-40"/>
      <use transform="translate(110.009766 0.015625)" xlink:href="#DejaVuSans-103"/>
      <use transform="translate(173.486328 0.015625)" xlink:href="#DejaVuSans-101"/>
      <use transform="translate(235.009766 0.015625)" xlink:href="#DejaVuSans-110"/>
      <use transform="translate(298.388672 0.015625)" xlink:href="#DejaVuSans-101"/>
      <use transform="translate(359.912109 0.015625)" xlink:href="#DejaVuSans-114"/>
      <use transform="translate(401.025391 0.015625)" xlink:href="#DejaVuSans-97"/>
      <use transform="translate(462.304688 0.015625)" xlink:href="#DejaVuSans-116"/>
      <use transform="translate(501.513672 0.015625)" xlink:href="#DejaVuSans-105"/>
      <use transform="translate(529.296875 0.015625)" xlink:href="#DejaVuSans-111"/>
      <use transform="translate(590.478516 0.015625)" xlink:href="#DejaVuSans-110"/>
      <use transform="translate(653.857422 0.015625)" xlink:href="#DejaVuSans-115"/>
      <use transform="translate(705.957031 0.015625)" xlink:href="#DejaVuSans-32"/>
      <use transform="translate(737.744141 0.015625)" xlink:href="#DejaVuSans-97"/>
      <use transform="translate(799.023438 0.015625)" xlink:href="#DejaVuSans-103"/>
      <use transform="translate(862.5 0.015625)" xlink:href="#DejaVuSans-111"/>
      <use transform="translate(923.681641 0.015625)" xlink:href="#DejaVuSans-41"/>
     </g>
    </g>
   </g>
   <g id="matplotlib.axis_4">
    <g id="ytick_21">
     <g id="line2d_48">
      <g>
       <use style="stroke:#000000;stroke-width:0.8;" x="280.444063" xlink:href="#m6f27cb5382" y="22.754314"/>
      </g>
     </g>
     <g id="text_12">
      <!-- $\mathdefault{10^{4}}$ -->
      <g transform="translate(255.844063 26.553533)scale(0.1 -0.1)">
       <use transform="translate(0 0.684375)" xlink:href="#DejaVuSans-49"/>
       <use transform="translate(63.623047 0.684375)" xlink:href="#DejaVuSans-48"/>
       <use transform="translate(128.203125 38.965625)scale(0.7)" xlink:href="#DejaVuSans-52"/>
      </g>
     </g>
    </g>
    <g id="ytick_22">
     <g id="line2d_49">
      <g>
       <use style="stroke:#000000;stroke-width:0.6;" x="280.444063" xlink:href="#m30ef63e68c" y="247.833675"/>
      </g>
     </g>
     <g id="text_13">
      <!-- $\mathdefault{3\times10^{3}}$ -->
      <defs>
       <path d="M 70.125 53.71875 
L 47.796875 31.296875 
L 70.125 8.984375 
L 64.3125 3.078125 
L 41.890625 25.484375 
L 19.484375 3.078125 
L 13.71875 8.984375 
L 35.984375 31.296875 
L 13.71875 53.71875 
L 19.484375 59.625 
L 41.890625 37.203125 
L 64.3125 59.625 
z
" id="DejaVuSans-215"/>
      </defs>
      <g transform="translate(238.844063 251.632894)scale(0.1 -0.1)">
       <use transform="translate(0 0.765625)" xlink:href="#DejaVuSans-51"/>
       <use transform="translate(83.105469 0.765625)" xlink:href="#DejaVuSans-215"/>
       <use transform="translate(186.376953 0.765625)" xlink:href="#DejaVuSans-49"/>
       <use transform="translate(250 0.765625)" xlink:href="#DejaVuSans-48"/>
       <use transform="translate(314.580078 39.046875)scale(0.7)" xlink:href="#DejaVuSans-51"/>
      </g>
     </g>
    </g>
    <g id="ytick_23">
     <g id="line2d_50">
      <g>
       <use style="stroke:#000000;stroke-width:0.6;" x="280.444063" xlink:href="#m30ef63e68c" y="194.052313"/>
      </g>
     </g>
     <g id="text_14">
      <!-- $\mathdefault{4\times10^{3}}$ -->
      <g transform="translate(238.844063 197.851532)scale(0.1 -0.1)">
       <use transform="translate(0 0.765625)" xlink:href="#DejaVuSans-52"/>
       <use transform="translate(83.105469 0.765625)" xlink:href="#DejaVuSans-215"/>
       <use transform="translate(186.376953 0.765625)" xlink:href="#DejaVuSans-49"/>
       <use transform="translate(250 0.765625)" xlink:href="#DejaVuSans-48"/>
       <use transform="translate(314.580078 39.046875)scale(0.7)" xlink:href="#DejaVuSans-51"/>
      </g>
     </g>
    </g>
    <g id="ytick_24">
     <g id="line2d_51">
      <g>
       <use style="stroke:#000000;stroke-width:0.6;" x="280.444063" xlink:href="#m30ef63e68c" y="152.336248"/>
      </g>
     </g>
    </g>
    <g id="ytick_25">
     <g id="line2d_52">
      <g>
       <use style="stroke:#000000;stroke-width:0.6;" x="280.444063" xlink:href="#m30ef63e68c" y="118.251741"/>
      </g>
     </g>
     <g id="text_15">
      <!-- $\mathdefault{6\times10^{3}}$ -->
      <defs>
       <path d="M 33.015625 40.375 
Q 26.375 40.375 22.484375 35.828125 
Q 18.609375 31.296875 18.609375 23.390625 
Q 18.609375 15.53125 22.484375 10.953125 
Q 26.375 6.390625 33.015625 6.390625 
Q 39.65625 6.390625 43.53125 10.953125 
Q 47.40625 15.53125 47.40625 23.390625 
Q 47.40625 31.296875 43.53125 35.828125 
Q 39.65625 40.375 33.015625 40.375 
z
M 52.59375 71.296875 
L 52.59375 62.3125 
Q 48.875 64.0625 45.09375 64.984375 
Q 41.3125 65.921875 37.59375 65.921875 
Q 27.828125 65.921875 22.671875 59.328125 
Q 17.53125 52.734375 16.796875 39.40625 
Q 19.671875 43.65625 24.015625 45.921875 
Q 28.375 48.1875 33.59375 48.1875 
Q 44.578125 48.1875 50.953125 41.515625 
Q 57.328125 34.859375 57.328125 23.390625 
Q 57.328125 12.15625 50.6875 5.359375 
Q 44.046875 -1.421875 33.015625 -1.421875 
Q 20.359375 -1.421875 13.671875 8.265625 
Q 6.984375 17.96875 6.984375 36.375 
Q 6.984375 53.65625 15.1875 63.9375 
Q 23.390625 74.21875 37.203125 74.21875 
Q 40.921875 74.21875 44.703125 73.484375 
Q 48.484375 72.75 52.59375 71.296875 
z
" id="DejaVuSans-54"/>
      </defs>
      <g transform="translate(238.844063 122.05096)scale(0.1 -0.1)">
       <use transform="translate(0 0.765625)" xlink:href="#DejaVuSans-54"/>
       <use transform="translate(83.105469 0.765625)" xlink:href="#DejaVuSans-215"/>
       <use transform="translate(186.376953 0.765625)" xlink:href="#DejaVuSans-49"/>
       <use transform="translate(250 0.765625)" xlink:href="#DejaVuSans-48"/>
       <use transform="translate(314.580078 39.046875)scale(0.7)" xlink:href="#DejaVuSans-51"/>
      </g>
     </g>
    </g>
    <g id="ytick_26">
     <g id="line2d_53">
      <g>
       <use style="stroke:#000000;stroke-width:0.6;" x="280.444063" xlink:href="#m30ef63e68c" y="89.433701"/>
      </g>
     </g>
    </g>
    <g id="ytick_27">
     <g id="line2d_54">
      <g>
       <use style="stroke:#000000;stroke-width:0.6;" x="280.444063" xlink:href="#m30ef63e68c" y="64.470379"/>
      </g>
     </g>
    </g>
    <g id="ytick_28">
     <g id="line2d_55">
      <g>
       <use style="stroke:#000000;stroke-width:0.6;" x="280.444063" xlink:href="#m30ef63e68c" y="42.451169"/>
      </g>
     </g>
    </g>
    <g id="text_16">
     <!-- $\eta(t)$ -->
     <defs>
      <path d="M 57.859375 33.015625 
L 47.40625 -20.796875 
L 38.421875 -20.796875 
L 48.828125 32.71875 
Q 50.34375 40.484375 48.046875 44.34375 
Q 45.796875 48.1875 39.75 48.1875 
Q 32.46875 48.1875 27.34375 43.5625 
Q 22.265625 38.921875 20.703125 30.90625 
L 14.703125 0 
L 5.671875 0 
L 16.3125 54.6875 
L 25.34375 54.6875 
L 23.6875 46.1875 
Q 27.828125 51.125 32.71875 53.5625 
Q 37.546875 56 43.265625 56 
Q 52.6875 56 56.390625 50.203125 
Q 60.0625 44.34375 57.859375 33.015625 
z
" id="DejaVuSans-Oblique-951"/>
     </defs>
     <g transform="translate(232.744063 160.15)rotate(-90)scale(0.1 -0.1)">
      <use transform="translate(0 0.125)" xlink:href="#DejaVuSans-Oblique-951"/>
      <use transform="translate(63.378906 0.125)" xlink:href="#DejaVuSans-40"/>
      <use transform="translate(102.392578 0.125)" xlink:href="#DejaVuSans-Oblique-116"/>
      <use transform="translate(141.601562 0.125)" xlink:href="#DejaVuSans-41"/>
     </g>
    </g>
   </g>
   <g id="line2d_56">
    <path clip-path="url(#p8294057f34)" d="M -1 22.754314 
L 287.948985 22.754314 
L 289.056533 22.754314 
L 290.164081 22.754314 
L 291.271629 22.754314 
L 292.379177 22.754314 
L 293.486725 22.754314 
L 294.594274 22.754314 
L 295.701822 22.754314 
L 296.80937 22.754314 
L 297.916918 22.754314 
L 299.024466 22.754314 
L 300.132014 22.754314 
L 301.239562 22.754314 
L 302.347111 22.754314 
L 303.454659 22.754314 
L 304.562207 22.754314 
L 305.669755 22.754314 
L 306.777303 22.754314 
L 307.884851 22.754314 
L 308.992399 22.754314 
L 310.099947 22.754314 
L 311.207496 22.754314 
L 312.315044 22.754314 
L 313.422592 22.754314 
L 314.53014 22.754314 
L 315.637688 22.754314 
L 316.745236 22.754314 
L 317.852784 22.754314 
L 318.960333 22.754314 
L 320.067881 22.754314 
L 321.175429 22.754314 
L 322.282977 22.754314 
L 323.390525 22.754314 
L 324.498073 22.754314 
L 325.605621 22.754314 
L 326.71317 22.754314 
L 327.820718 22.754314 
L 328.928266 22.754314 
L 330.035814 22.754314 
L 331.143362 281.918182 
L 332.25091 281.918182 
L 333.358458 281.918182 
L 334.466006 281.918182 
L 335.573555 281.918182 
L 336.681103 281.918182 
L 337.788651 281.918182 
L 338.896199 281.918182 
L 340.003747 281.918182 
L 341.111295 281.918182 
L 342.218843 281.918182 
L 343.326392 281.918182 
L 344.43394 281.918182 
L 345.541488 281.918182 
L 346.649036 281.918182 
L 347.756584 281.918182 
L 348.864132 281.918182 
L 349.97168 281.918182 
L 351.079229 281.918182 
L 352.186777 281.918182 
L 353.294325 22.754314 
L 354.401873 22.754314 
L 355.509421 22.754314 
L 356.616969 22.754314 
L 357.724517 22.754314 
L 358.832066 22.754314 
L 359.939614 22.754314 
L 361.047162 22.754314 
L 362.15471 22.754314 
L 363.262258 22.754314 
L 364.369806 22.754314 
L 365.477354 22.754314 
L 366.584902 22.754314 
L 367.692451 22.754314 
L 368.799999 22.754314 
L 369.907547 22.754314 
L 371.015095 22.754314 
L 372.122643 22.754314 
L 373.230191 22.754314 
L 374.337739 22.754314 
L 375.445288 22.754314 
L 376.552836 22.754314 
L 377.660384 22.754314 
L 378.767932 22.754314 
L 379.87548 22.754314 
L 380.983028 22.754314 
L 382.090576 22.754314 
L 383.198125 22.754314 
L 384.305673 22.754314 
L 385.413221 22.754314 
L 386.520769 22.754314 
L 387.628317 22.754314 
L 388.735865 22.754314 
L 389.843413 22.754314 
L 390.950962 22.754314 
L 392.05851 22.754314 
L 393.166058 22.754314 
L 394.273606 22.754314 
L 395.381154 22.754314 
L 396.488702 22.754314 
L 397.59625 22.754314 
" style="fill:none;stroke:#1f77b4;stroke-linecap:square;stroke-width:1.5;"/>
   </g>
   <g id="line2d_57">
    <path clip-path="url(#p8294057f34)" d="M -1 20.340992 
L 287.948985 20.341623 
L 289.465131 20.34046 
L 290.981276 20.33916 
L 292.497422 20.337711 
L 294.013568 20.3361 
L 295.529714 20.334314 
L 297.04586 20.332343 
L 298.562006 20.330175 
L 300.078151 20.327805 
L 301.594297 20.325228 
L 303.110443 20.322448 
L 304.626589 20.319482 
L 306.142735 20.316348 
L 307.658881 20.313053 
L 309.175027 20.309721 
L 310.691172 20.306356 
L 312.207318 20.303125 
L 313.723464 20.300167 
L 315.23961 20.297657 
L 316.755756 20.295836 
L 318.271902 20.294996 
L 319.788047 20.295526 
L 321.304193 20.29789 
L 322.820339 20.302338 
L 324.336485 20.309466 
L 325.852631 20.31981 
L 327.368777 23.059123 
L 328.884922 73.074058 
L 330.401068 190.447077 
L 331.917214 280.815821 
L 333.43336 280.863727 
L 334.949506 280.902242 
L 336.465652 280.921345 
L 337.981797 280.924224 
L 339.497943 280.91348 
L 341.014089 280.89144 
L 342.530235 280.860401 
L 344.046381 280.822797 
L 345.562527 280.780941 
L 347.078673 280.736922 
L 348.594818 280.669951 
L 350.110964 277.268288 
L 351.62711 220.924917 
L 353.143256 154.207005 
L 354.659402 97.637735 
L 356.175548 48.098555 
L 357.691693 25.618359 
L 359.207839 21.842259 
L 360.723985 21.790216 
L 362.240131 21.763397 
L 363.756277 21.737225 
L 365.272423 21.710529 
L 366.788568 21.684834 
L 368.304714 21.661974 
L 369.82086 21.644054 
L 371.337006 21.633277 
L 372.853152 21.631708 
L 374.369298 21.640967 
L 375.885444 21.661942 
L 377.401589 21.694558 
L 378.917735 21.737686 
L 380.433881 21.789248 
L 381.950027 21.846325 
L 383.466173 21.910033 
L 384.982319 21.681564 
L 386.498464 21.852555 
L 388.01461 22.810755 
L 389.530756 22.968678 
L 391.046902 22.99078 
L 392.563048 22.989768 
L 394.079194 22.995006 
L 395.595339 23.006318 
L 397.111485 23.024214 
L 398.627631 23.033272 
L 400.143777 23.032071 
L 401.659923 23.019968 
L 403.176069 22.997125 
L 404.692215 22.964602 
L 406.20836 22.924351 
L 407.724506 22.879052 
L 409.240652 22.831809 
L 410.756798 22.785818 
L 412.272944 22.740219 
L 413.78909 21.314054 
L 415.305235 21.2858 
L 416.821381 21.264972 
L 418.337527 21.250865 
L 419.853673 21.242171 
L 421.369819 21.237349 
L 422.885965 21.234973 
L 424.40211 21.233947 
L 425.918256 21.233565 
L 427.434402 21.233446 
L 428.950548 21.233414 
L 430.466694 21.233408 
L 431.98284 21.233407 
L 433.498986 21.233407 
L 435.015131 21.233407 
L 436.531277 21.233407 
L 438.047423 21.233407 
" style="fill:none;stroke:#ff7f0e;stroke-linecap:square;stroke-width:1.5;"/>
   </g>
   <g id="patch_8">
    <path d="M 280.444063 295 
L 280.444063 7.2 
" style="fill:none;stroke:#000000;stroke-linecap:square;stroke-linejoin:miter;stroke-width:0.8;"/>
   </g>
   <g id="patch_9">
    <path d="M 445.552345 295 
L 445.552345 7.2 
" style="fill:none;stroke:#000000;stroke-linecap:square;stroke-linejoin:miter;stroke-width:0.8;"/>
   </g>
   <g id="patch_10">
    <path d="M 280.444063 295 
L 445.552345 295 
" style="fill:none;stroke:#000000;stroke-linecap:square;stroke-linejoin:miter;stroke-width:0.8;"/>
   </g>
   <g id="patch_11">
    <path d="M 280.444063 7.2 
L 445.552345 7.2 
" style="fill:none;stroke:#000000;stroke-linecap:square;stroke-linejoin:miter;stroke-width:0.8;"/>
   </g>
   <g id="legend_1">
    <g id="patch_12">
     <path d="M 367.439845 290 
L 438.552345 290 
Q 440.552345 290 440.552345 288 
L 440.552345 259.64375 
Q 440.552345 257.64375 438.552345 257.64375 
L 367.439845 257.64375 
Q 365.439845 257.64375 365.439845 259.64375 
L 365.439845 288 
Q 365.439845 290 367.439845 290 
z
" style="fill:#ffffff;opacity:0.8;stroke:#cccccc;stroke-linejoin:miter;"/>
    </g>
    <g id="line2d_58">
     <path d="M 369.439845 265.742187 
L 389.439845 265.742187 
" style="fill:none;stroke:#1f77b4;stroke-linecap:square;stroke-width:1.5;"/>
    </g>
    <g id="line2d_59"/>
    <g id="text_17">
     <!-- true -->
     <g transform="translate(397.439845 269.242187)scale(0.1 -0.1)">
      <use xlink:href="#DejaVuSans-116"/>
      <use x="39.208984" xlink:href="#DejaVuSans-114"/>
      <use x="80.322266" xlink:href="#DejaVuSans-117"/>
      <use x="143.701172" xlink:href="#DejaVuSans-101"/>
     </g>
    </g>
    <g id="line2d_60">
     <path d="M 369.439845 280.420312 
L 389.439845 280.420312 
" style="fill:none;stroke:#ff7f0e;stroke-linecap:square;stroke-width:1.5;"/>
    </g>
    <g id="line2d_61"/>
    <g id="text_18">
     <!-- inferred -->
     <defs>
      <path d="M 45.40625 46.390625 
L 45.40625 75.984375 
L 54.390625 75.984375 
L 54.390625 0 
L 45.40625 0 
L 45.40625 8.203125 
Q 42.578125 3.328125 38.25 0.953125 
Q 33.9375 -1.421875 27.875 -1.421875 
Q 17.96875 -1.421875 11.734375 6.484375 
Q 5.515625 14.40625 5.515625 27.296875 
Q 5.515625 40.1875 11.734375 48.09375 
Q 17.96875 56 27.875 56 
Q 33.9375 56 38.25 53.625 
Q 42.578125 51.265625 45.40625 46.390625 
z
M 14.796875 27.296875 
Q 14.796875 17.390625 18.875 11.75 
Q 22.953125 6.109375 30.078125 6.109375 
Q 37.203125 6.109375 41.296875 11.75 
Q 45.40625 17.390625 45.40625 27.296875 
Q 45.40625 37.203125 41.296875 42.84375 
Q 37.203125 48.484375 30.078125 48.484375 
Q 22.953125 48.484375 18.875 42.84375 
Q 14.796875 37.203125 14.796875 27.296875 
z
" id="DejaVuSans-100"/>
     </defs>
     <g transform="translate(397.439845 283.920312)scale(0.1 -0.1)">
      <use xlink:href="#DejaVuSans-105"/>
      <use x="27.783203" xlink:href="#DejaVuSans-110"/>
      <use x="91.162109" xlink:href="#DejaVuSans-102"/>
      <use x="126.367188" xlink:href="#DejaVuSans-101"/>
      <use x="187.890625" xlink:href="#DejaVuSans-114"/>
      <use x="227.253906" xlink:href="#DejaVuSans-114"/>
      <use x="266.117188" xlink:href="#DejaVuSans-101"/>
      <use x="327.640625" xlink:href="#DejaVuSans-100"/>
     </g>
    </g>
   </g>
  </g>
 </g>
 <defs>
  <clipPath id="pad371ef442">
   <rect height="287.8" width="165.108282" x="45.478125" y="7.2"/>
  </clipPath>
  <clipPath id="p8294057f34">
   <rect height="287.8" width="165.108282" x="280.444063" y="7.2"/>
  </clipPath>
 </defs>
</svg>
