<?xml version="1.0" encoding="utf-8" standalone="no"?>
<!DOCTYPE svg PUBLIC "-//W3C//DTD SVG 1.1//EN"
  "http://www.w3.org/Graphics/SVG/1.1/DTD/svg11.dtd">
<!-- Created with matplotlib (https://matplotlib.org/) -->
<svg height="198.15625pt" version="1.1" viewBox="0 0 281.808161 198.15625" width="281.808161pt" xmlns="http://www.w3.org/2000/svg" xmlns:xlink="http://www.w3.org/1999/xlink">
 <defs>
  <style type="text/css">
*{stroke-linecap:butt;stroke-linejoin:round;}
  </style>
 </defs>
 <g id="figure_1">
  <g id="patch_1">
   <path d="M 0 198.15625 
L 281.808161 198.15625 
L 281.808161 0 
L 0 0 
z
" style="fill:#ffffff;"/>
  </g>
  <g id="axes_1">
   <g id="patch_2">
    <path d="M 45.478125 160.6 
L 274.608161 160.6 
L 274.608161 7.2 
L 45.478125 7.2 
z
" style="fill:#ffffff;"/>
   </g>
   <g id="matplotlib.axis_1">
    <g id="xtick_1">
     <g id="line2d_1">
      <defs>
       <path d="M 0 0 
L 0 3.5 
" id="m0898850ead" style="stroke:#000000;stroke-width:0.8;"/>
      </defs>
      <g>
       <use style="stroke:#000000;stroke-width:0.8;" x="55.893127" xlink:href="#m0898850ead" y="160.6"/>
      </g>
     </g>
     <g id="text_1">
      <!-- $\mathdefault{10^{0}}$ -->
      <defs>
       <path d="M 12.40625 8.296875 
L 28.515625 8.296875 
L 28.515625 63.921875 
L 10.984375 60.40625 
L 10.984375 69.390625 
L 28.421875 72.90625 
L 38.28125 72.90625 
L 38.28125 8.296875 
L 54.390625 8.296875 
L 54.390625 0 
L 12.40625 0 
z
" id="DejaVuSans-49"/>
       <path d="M 31.78125 66.40625 
Q 24.171875 66.40625 20.328125 58.90625 
Q 16.5 51.421875 16.5 36.375 
Q 16.5 21.390625 20.328125 13.890625 
Q 24.171875 6.390625 31.78125 6.390625 
Q 39.453125 6.390625 43.28125 13.890625 
Q 47.125 21.390625 47.125 36.375 
Q 47.125 51.421875 43.28125 58.90625 
Q 39.453125 66.40625 31.78125 66.40625 
z
M 31.78125 74.21875 
Q 44.046875 74.21875 50.515625 64.515625 
Q 56.984375 54.828125 56.984375 36.375 
Q 56.984375 17.96875 50.515625 8.265625 
Q 44.046875 -1.421875 31.78125 -1.421875 
Q 19.53125 -1.421875 13.0625 8.265625 
Q 6.59375 17.96875 6.59375 36.375 
Q 6.59375 54.828125 13.0625 64.515625 
Q 19.53125 74.21875 31.78125 74.21875 
z
" id="DejaVuSans-48"/>
      </defs>
      <g transform="translate(47.093127 175.198438)scale(0.1 -0.1)">
       <use transform="translate(0 0.765625)" xlink:href="#DejaVuSans-49"/>
       <use transform="translate(63.623047 0.765625)" xlink:href="#DejaVuSans-48"/>
       <use transform="translate(128.203125 39.046875)scale(0.7)" xlink:href="#DejaVuSans-48"/>
      </g>
     </g>
    </g>
    <g id="xtick_2">
     <g id="line2d_2">
      <g>
       <use style="stroke:#000000;stroke-width:0.8;" x="146.503542" xlink:href="#m0898850ead" y="160.6"/>
      </g>
     </g>
     <g id="text_2">
      <!-- $\mathdefault{10^{1}}$ -->
      <g transform="translate(137.703542 175.198438)scale(0.1 -0.1)">
       <use transform="translate(0 0.684375)" xlink:href="#DejaVuSans-49"/>
       <use transform="translate(63.623047 0.684375)" xlink:href="#DejaVuSans-48"/>
       <use transform="translate(128.203125 38.965625)scale(0.7)" xlink:href="#DejaVuSans-49"/>
      </g>
     </g>
    </g>
    <g id="xtick_3">
     <g id="line2d_3">
      <g>
       <use style="stroke:#000000;stroke-width:0.8;" x="237.113958" xlink:href="#m0898850ead" y="160.6"/>
      </g>
     </g>
     <g id="text_3">
      <!-- $\mathdefault{10^{2}}$ -->
      <defs>
       <path d="M 19.1875 8.296875 
L 53.609375 8.296875 
L 53.609375 0 
L 7.328125 0 
L 7.328125 8.296875 
Q 12.9375 14.109375 22.625 23.890625 
Q 32.328125 33.6875 34.8125 36.53125 
Q 39.546875 41.84375 41.421875 45.53125 
Q 43.3125 49.21875 43.3125 52.78125 
Q 43.3125 58.59375 39.234375 62.25 
Q 35.15625 65.921875 28.609375 65.921875 
Q 23.96875 65.921875 18.8125 64.3125 
Q 13.671875 62.703125 7.8125 59.421875 
L 7.8125 69.390625 
Q 13.765625 71.78125 18.9375 73 
Q 24.125 74.21875 28.421875 74.21875 
Q 39.75 74.21875 46.484375 68.546875 
Q 53.21875 62.890625 53.21875 53.421875 
Q 53.21875 48.921875 51.53125 44.890625 
Q 49.859375 40.875 45.40625 35.40625 
Q 44.1875 33.984375 37.640625 27.21875 
Q 31.109375 20.453125 19.1875 8.296875 
z
" id="DejaVuSans-50"/>
      </defs>
      <g transform="translate(228.313958 175.198438)scale(0.1 -0.1)">
       <use transform="translate(0 0.765625)" xlink:href="#DejaVuSans-49"/>
       <use transform="translate(63.623047 0.765625)" xlink:href="#DejaVuSans-48"/>
       <use transform="translate(128.203125 39.046875)scale(0.7)" xlink:href="#DejaVuSans-50"/>
      </g>
     </g>
    </g>
    <g id="xtick_4">
     <g id="line2d_4">
      <defs>
       <path d="M 0 0 
L 0 2 
" id="me8eb50af49" style="stroke:#000000;stroke-width:0.6;"/>
      </defs>
      <g>
       <use style="stroke:#000000;stroke-width:0.6;" x="47.11207" xlink:href="#me8eb50af49" y="160.6"/>
      </g>
     </g>
    </g>
    <g id="xtick_5">
     <g id="line2d_5">
      <g>
       <use style="stroke:#000000;stroke-width:0.6;" x="51.747021" xlink:href="#me8eb50af49" y="160.6"/>
      </g>
     </g>
    </g>
    <g id="xtick_6">
     <g id="line2d_6">
      <g>
       <use style="stroke:#000000;stroke-width:0.6;" x="83.16958" xlink:href="#me8eb50af49" y="160.6"/>
      </g>
     </g>
    </g>
    <g id="xtick_7">
     <g id="line2d_7">
      <g>
       <use style="stroke:#000000;stroke-width:0.6;" x="99.125282" xlink:href="#me8eb50af49" y="160.6"/>
      </g>
     </g>
    </g>
    <g id="xtick_8">
     <g id="line2d_8">
      <g>
       <use style="stroke:#000000;stroke-width:0.6;" x="110.446033" xlink:href="#me8eb50af49" y="160.6"/>
      </g>
     </g>
    </g>
    <g id="xtick_9">
     <g id="line2d_9">
      <g>
       <use style="stroke:#000000;stroke-width:0.6;" x="119.227089" xlink:href="#me8eb50af49" y="160.6"/>
      </g>
     </g>
    </g>
    <g id="xtick_10">
     <g id="line2d_10">
      <g>
       <use style="stroke:#000000;stroke-width:0.6;" x="126.401735" xlink:href="#me8eb50af49" y="160.6"/>
      </g>
     </g>
    </g>
    <g id="xtick_11">
     <g id="line2d_11">
      <g>
       <use style="stroke:#000000;stroke-width:0.6;" x="132.467811" xlink:href="#me8eb50af49" y="160.6"/>
      </g>
     </g>
    </g>
    <g id="xtick_12">
     <g id="line2d_12">
      <g>
       <use style="stroke:#000000;stroke-width:0.6;" x="137.722486" xlink:href="#me8eb50af49" y="160.6"/>
      </g>
     </g>
    </g>
    <g id="xtick_13">
     <g id="line2d_13">
      <g>
       <use style="stroke:#000000;stroke-width:0.6;" x="142.357437" xlink:href="#me8eb50af49" y="160.6"/>
      </g>
     </g>
    </g>
    <g id="xtick_14">
     <g id="line2d_14">
      <g>
       <use style="stroke:#000000;stroke-width:0.6;" x="173.779995" xlink:href="#me8eb50af49" y="160.6"/>
      </g>
     </g>
    </g>
    <g id="xtick_15">
     <g id="line2d_15">
      <g>
       <use style="stroke:#000000;stroke-width:0.6;" x="189.735698" xlink:href="#me8eb50af49" y="160.6"/>
      </g>
     </g>
    </g>
    <g id="xtick_16">
     <g id="line2d_16">
      <g>
       <use style="stroke:#000000;stroke-width:0.6;" x="201.056448" xlink:href="#me8eb50af49" y="160.6"/>
      </g>
     </g>
    </g>
    <g id="xtick_17">
     <g id="line2d_17">
      <g>
       <use style="stroke:#000000;stroke-width:0.6;" x="209.837505" xlink:href="#me8eb50af49" y="160.6"/>
      </g>
     </g>
    </g>
    <g id="xtick_18">
     <g id="line2d_18">
      <g>
       <use style="stroke:#000000;stroke-width:0.6;" x="217.012151" xlink:href="#me8eb50af49" y="160.6"/>
      </g>
     </g>
    </g>
    <g id="xtick_19">
     <g id="line2d_19">
      <g>
       <use style="stroke:#000000;stroke-width:0.6;" x="223.078227" xlink:href="#me8eb50af49" y="160.6"/>
      </g>
     </g>
    </g>
    <g id="xtick_20">
     <g id="line2d_20">
      <g>
       <use style="stroke:#000000;stroke-width:0.6;" x="228.332901" xlink:href="#me8eb50af49" y="160.6"/>
      </g>
     </g>
    </g>
    <g id="xtick_21">
     <g id="line2d_21">
      <g>
       <use style="stroke:#000000;stroke-width:0.6;" x="232.967853" xlink:href="#me8eb50af49" y="160.6"/>
      </g>
     </g>
    </g>
    <g id="xtick_22">
     <g id="line2d_22">
      <g>
       <use style="stroke:#000000;stroke-width:0.6;" x="264.390411" xlink:href="#me8eb50af49" y="160.6"/>
      </g>
     </g>
    </g>
    <g id="text_4">
     <!-- sample frequency -->
     <defs>
      <path d="M 44.28125 53.078125 
L 44.28125 44.578125 
Q 40.484375 46.53125 36.375 47.5 
Q 32.28125 48.484375 27.875 48.484375 
Q 21.1875 48.484375 17.84375 46.4375 
Q 14.5 44.390625 14.5 40.28125 
Q 14.5 37.15625 16.890625 35.375 
Q 19.28125 33.59375 26.515625 31.984375 
L 29.59375 31.296875 
Q 39.15625 29.25 43.1875 25.515625 
Q 47.21875 21.78125 47.21875 15.09375 
Q 47.21875 7.46875 41.1875 3.015625 
Q 35.15625 -1.421875 24.609375 -1.421875 
Q 20.21875 -1.421875 15.453125 -0.5625 
Q 10.6875 0.296875 5.421875 2 
L 5.421875 11.28125 
Q 10.40625 8.6875 15.234375 7.390625 
Q 20.0625 6.109375 24.8125 6.109375 
Q 31.15625 6.109375 34.5625 8.28125 
Q 37.984375 10.453125 37.984375 14.40625 
Q 37.984375 18.0625 35.515625 20.015625 
Q 33.0625 21.96875 24.703125 23.78125 
L 21.578125 24.515625 
Q 13.234375 26.265625 9.515625 29.90625 
Q 5.8125 33.546875 5.8125 39.890625 
Q 5.8125 47.609375 11.28125 51.796875 
Q 16.75 56 26.8125 56 
Q 31.78125 56 36.171875 55.265625 
Q 40.578125 54.546875 44.28125 53.078125 
z
" id="DejaVuSans-115"/>
      <path d="M 34.28125 27.484375 
Q 23.390625 27.484375 19.1875 25 
Q 14.984375 22.515625 14.984375 16.5 
Q 14.984375 11.71875 18.140625 8.90625 
Q 21.296875 6.109375 26.703125 6.109375 
Q 34.1875 6.109375 38.703125 11.40625 
Q 43.21875 16.703125 43.21875 25.484375 
L 43.21875 27.484375 
z
M 52.203125 31.203125 
L 52.203125 0 
L 43.21875 0 
L 43.21875 8.296875 
Q 40.140625 3.328125 35.546875 0.953125 
Q 30.953125 -1.421875 24.3125 -1.421875 
Q 15.921875 -1.421875 10.953125 3.296875 
Q 6 8.015625 6 15.921875 
Q 6 25.140625 12.171875 29.828125 
Q 18.359375 34.515625 30.609375 34.515625 
L 43.21875 34.515625 
L 43.21875 35.40625 
Q 43.21875 41.609375 39.140625 45 
Q 35.0625 48.390625 27.6875 48.390625 
Q 23 48.390625 18.546875 47.265625 
Q 14.109375 46.140625 10.015625 43.890625 
L 10.015625 52.203125 
Q 14.9375 54.109375 19.578125 55.046875 
Q 24.21875 56 28.609375 56 
Q 40.484375 56 46.34375 49.84375 
Q 52.203125 43.703125 52.203125 31.203125 
z
" id="DejaVuSans-97"/>
      <path d="M 52 44.1875 
Q 55.375 50.25 60.0625 53.125 
Q 64.75 56 71.09375 56 
Q 79.640625 56 84.28125 50.015625 
Q 88.921875 44.046875 88.921875 33.015625 
L 88.921875 0 
L 79.890625 0 
L 79.890625 32.71875 
Q 79.890625 40.578125 77.09375 44.375 
Q 74.3125 48.1875 68.609375 48.1875 
Q 61.625 48.1875 57.5625 43.546875 
Q 53.515625 38.921875 53.515625 30.90625 
L 53.515625 0 
L 44.484375 0 
L 44.484375 32.71875 
Q 44.484375 40.625 41.703125 44.40625 
Q 38.921875 48.1875 33.109375 48.1875 
Q 26.21875 48.1875 22.15625 43.53125 
Q 18.109375 38.875 18.109375 30.90625 
L 18.109375 0 
L 9.078125 0 
L 9.078125 54.6875 
L 18.109375 54.6875 
L 18.109375 46.1875 
Q 21.1875 51.21875 25.484375 53.609375 
Q 29.78125 56 35.6875 56 
Q 41.65625 56 45.828125 52.96875 
Q 50 49.953125 52 44.1875 
z
" id="DejaVuSans-109"/>
      <path d="M 18.109375 8.203125 
L 18.109375 -20.796875 
L 9.078125 -20.796875 
L 9.078125 54.6875 
L 18.109375 54.6875 
L 18.109375 46.390625 
Q 20.953125 51.265625 25.265625 53.625 
Q 29.59375 56 35.59375 56 
Q 45.5625 56 51.78125 48.09375 
Q 58.015625 40.1875 58.015625 27.296875 
Q 58.015625 14.40625 51.78125 6.484375 
Q 45.5625 -1.421875 35.59375 -1.421875 
Q 29.59375 -1.421875 25.265625 0.953125 
Q 20.953125 3.328125 18.109375 8.203125 
z
M 48.6875 27.296875 
Q 48.6875 37.203125 44.609375 42.84375 
Q 40.53125 48.484375 33.40625 48.484375 
Q 26.265625 48.484375 22.1875 42.84375 
Q 18.109375 37.203125 18.109375 27.296875 
Q 18.109375 17.390625 22.1875 11.75 
Q 26.265625 6.109375 33.40625 6.109375 
Q 40.53125 6.109375 44.609375 11.75 
Q 48.6875 17.390625 48.6875 27.296875 
z
" id="DejaVuSans-112"/>
      <path d="M 9.421875 75.984375 
L 18.40625 75.984375 
L 18.40625 0 
L 9.421875 0 
z
" id="DejaVuSans-108"/>
      <path d="M 56.203125 29.59375 
L 56.203125 25.203125 
L 14.890625 25.203125 
Q 15.484375 15.921875 20.484375 11.0625 
Q 25.484375 6.203125 34.421875 6.203125 
Q 39.59375 6.203125 44.453125 7.46875 
Q 49.3125 8.734375 54.109375 11.28125 
L 54.109375 2.78125 
Q 49.265625 0.734375 44.1875 -0.34375 
Q 39.109375 -1.421875 33.890625 -1.421875 
Q 20.796875 -1.421875 13.15625 6.1875 
Q 5.515625 13.8125 5.515625 26.8125 
Q 5.515625 40.234375 12.765625 48.109375 
Q 20.015625 56 32.328125 56 
Q 43.359375 56 49.78125 48.890625 
Q 56.203125 41.796875 56.203125 29.59375 
z
M 47.21875 32.234375 
Q 47.125 39.59375 43.09375 43.984375 
Q 39.0625 48.390625 32.421875 48.390625 
Q 24.90625 48.390625 20.390625 44.140625 
Q 15.875 39.890625 15.1875 32.171875 
z
" id="DejaVuSans-101"/>
      <path id="DejaVuSans-32"/>
      <path d="M 37.109375 75.984375 
L 37.109375 68.5 
L 28.515625 68.5 
Q 23.6875 68.5 21.796875 66.546875 
Q 19.921875 64.59375 19.921875 59.515625 
L 19.921875 54.6875 
L 34.71875 54.6875 
L 34.71875 47.703125 
L 19.921875 47.703125 
L 19.921875 0 
L 10.890625 0 
L 10.890625 47.703125 
L 2.296875 47.703125 
L 2.296875 54.6875 
L 10.890625 54.6875 
L 10.890625 58.5 
Q 10.890625 67.625 15.140625 71.796875 
Q 19.390625 75.984375 28.609375 75.984375 
z
" id="DejaVuSans-102"/>
      <path d="M 41.109375 46.296875 
Q 39.59375 47.171875 37.8125 47.578125 
Q 36.03125 48 33.890625 48 
Q 26.265625 48 22.1875 43.046875 
Q 18.109375 38.09375 18.109375 28.8125 
L 18.109375 0 
L 9.078125 0 
L 9.078125 54.6875 
L 18.109375 54.6875 
L 18.109375 46.1875 
Q 20.953125 51.171875 25.484375 53.578125 
Q 30.03125 56 36.53125 56 
Q 37.453125 56 38.578125 55.875 
Q 39.703125 55.765625 41.0625 55.515625 
z
" id="DejaVuSans-114"/>
      <path d="M 14.796875 27.296875 
Q 14.796875 17.390625 18.875 11.75 
Q 22.953125 6.109375 30.078125 6.109375 
Q 37.203125 6.109375 41.296875 11.75 
Q 45.40625 17.390625 45.40625 27.296875 
Q 45.40625 37.203125 41.296875 42.84375 
Q 37.203125 48.484375 30.078125 48.484375 
Q 22.953125 48.484375 18.875 42.84375 
Q 14.796875 37.203125 14.796875 27.296875 
z
M 45.40625 8.203125 
Q 42.578125 3.328125 38.25 0.953125 
Q 33.9375 -1.421875 27.875 -1.421875 
Q 17.96875 -1.421875 11.734375 6.484375 
Q 5.515625 14.40625 5.515625 27.296875 
Q 5.515625 40.1875 11.734375 48.09375 
Q 17.96875 56 27.875 56 
Q 33.9375 56 38.25 53.625 
Q 42.578125 51.265625 45.40625 46.390625 
L 45.40625 54.6875 
L 54.390625 54.6875 
L 54.390625 -20.796875 
L 45.40625 -20.796875 
z
" id="DejaVuSans-113"/>
      <path d="M 8.5 21.578125 
L 8.5 54.6875 
L 17.484375 54.6875 
L 17.484375 21.921875 
Q 17.484375 14.15625 20.5 10.265625 
Q 23.53125 6.390625 29.59375 6.390625 
Q 36.859375 6.390625 41.078125 11.03125 
Q 45.3125 15.671875 45.3125 23.6875 
L 45.3125 54.6875 
L 54.296875 54.6875 
L 54.296875 0 
L 45.3125 0 
L 45.3125 8.40625 
Q 42.046875 3.421875 37.71875 1 
Q 33.40625 -1.421875 27.6875 -1.421875 
Q 18.265625 -1.421875 13.375 4.4375 
Q 8.5 10.296875 8.5 21.578125 
z
M 31.109375 56 
z
" id="DejaVuSans-117"/>
      <path d="M 54.890625 33.015625 
L 54.890625 0 
L 45.90625 0 
L 45.90625 32.71875 
Q 45.90625 40.484375 42.875 44.328125 
Q 39.84375 48.1875 33.796875 48.1875 
Q 26.515625 48.1875 22.3125 43.546875 
Q 18.109375 38.921875 18.109375 30.90625 
L 18.109375 0 
L 9.078125 0 
L 9.078125 54.6875 
L 18.109375 54.6875 
L 18.109375 46.1875 
Q 21.34375 51.125 25.703125 53.5625 
Q 30.078125 56 35.796875 56 
Q 45.21875 56 50.046875 50.171875 
Q 54.890625 44.34375 54.890625 33.015625 
z
" id="DejaVuSans-110"/>
      <path d="M 48.78125 52.59375 
L 48.78125 44.1875 
Q 44.96875 46.296875 41.140625 47.34375 
Q 37.3125 48.390625 33.40625 48.390625 
Q 24.65625 48.390625 19.8125 42.84375 
Q 14.984375 37.3125 14.984375 27.296875 
Q 14.984375 17.28125 19.8125 11.734375 
Q 24.65625 6.203125 33.40625 6.203125 
Q 37.3125 6.203125 41.140625 7.25 
Q 44.96875 8.296875 48.78125 10.40625 
L 48.78125 2.09375 
Q 45.015625 0.34375 40.984375 -0.53125 
Q 36.96875 -1.421875 32.421875 -1.421875 
Q 20.0625 -1.421875 12.78125 6.34375 
Q 5.515625 14.109375 5.515625 27.296875 
Q 5.515625 40.671875 12.859375 48.328125 
Q 20.21875 56 33.015625 56 
Q 37.15625 56 41.109375 55.140625 
Q 45.0625 54.296875 48.78125 52.59375 
z
" id="DejaVuSans-99"/>
      <path d="M 32.171875 -5.078125 
Q 28.375 -14.84375 24.75 -17.8125 
Q 21.140625 -20.796875 15.09375 -20.796875 
L 7.90625 -20.796875 
L 7.90625 -13.28125 
L 13.1875 -13.28125 
Q 16.890625 -13.28125 18.9375 -11.515625 
Q 21 -9.765625 23.484375 -3.21875 
L 25.09375 0.875 
L 2.984375 54.6875 
L 12.5 54.6875 
L 29.59375 11.921875 
L 46.6875 54.6875 
L 56.203125 54.6875 
z
" id="DejaVuSans-121"/>
     </defs>
     <g transform="translate(115.198612 188.876563)scale(0.1 -0.1)">
      <use xlink:href="#DejaVuSans-115"/>
      <use x="52.099609" xlink:href="#DejaVuSans-97"/>
      <use x="113.378906" xlink:href="#DejaVuSans-109"/>
      <use x="210.791016" xlink:href="#DejaVuSans-112"/>
      <use x="274.267578" xlink:href="#DejaVuSans-108"/>
      <use x="302.050781" xlink:href="#DejaVuSans-101"/>
      <use x="363.574219" xlink:href="#DejaVuSans-32"/>
      <use x="395.361328" xlink:href="#DejaVuSans-102"/>
      <use x="430.566406" xlink:href="#DejaVuSans-114"/>
      <use x="469.429688" xlink:href="#DejaVuSans-101"/>
      <use x="530.953125" xlink:href="#DejaVuSans-113"/>
      <use x="594.429688" xlink:href="#DejaVuSans-117"/>
      <use x="657.808594" xlink:href="#DejaVuSans-101"/>
      <use x="719.332031" xlink:href="#DejaVuSans-110"/>
      <use x="782.710938" xlink:href="#DejaVuSans-99"/>
      <use x="837.691406" xlink:href="#DejaVuSans-121"/>
     </g>
    </g>
   </g>
   <g id="matplotlib.axis_2">
    <g id="ytick_1">
     <g id="line2d_23">
      <defs>
       <path d="M 0 0 
L -3.5 0 
" id="m43e942a342" style="stroke:#000000;stroke-width:0.8;"/>
      </defs>
      <g>
       <use style="stroke:#000000;stroke-width:0.8;" x="45.478125" xlink:href="#m43e942a342" y="159.49844"/>
      </g>
     </g>
     <g id="text_5">
      <!-- $\mathdefault{10^{4}}$ -->
      <defs>
       <path d="M 37.796875 64.3125 
L 12.890625 25.390625 
L 37.796875 25.390625 
z
M 35.203125 72.90625 
L 47.609375 72.90625 
L 47.609375 25.390625 
L 58.015625 25.390625 
L 58.015625 17.1875 
L 47.609375 17.1875 
L 47.609375 0 
L 37.796875 0 
L 37.796875 17.1875 
L 4.890625 17.1875 
L 4.890625 26.703125 
z
" id="DejaVuSans-52"/>
      </defs>
      <g transform="translate(20.878125 163.297659)scale(0.1 -0.1)">
       <use transform="translate(0 0.684375)" xlink:href="#DejaVuSans-49"/>
       <use transform="translate(63.623047 0.684375)" xlink:href="#DejaVuSans-48"/>
       <use transform="translate(128.203125 38.965625)scale(0.7)" xlink:href="#DejaVuSans-52"/>
      </g>
     </g>
    </g>
    <g id="ytick_2">
     <g id="line2d_24">
      <g>
       <use style="stroke:#000000;stroke-width:0.8;" x="45.478125" xlink:href="#m43e942a342" y="96.225281"/>
      </g>
     </g>
     <g id="text_6">
      <!-- $\mathdefault{10^{5}}$ -->
      <defs>
       <path d="M 10.796875 72.90625 
L 49.515625 72.90625 
L 49.515625 64.59375 
L 19.828125 64.59375 
L 19.828125 46.734375 
Q 21.96875 47.46875 24.109375 47.828125 
Q 26.265625 48.1875 28.421875 48.1875 
Q 40.625 48.1875 47.75 41.5 
Q 54.890625 34.8125 54.890625 23.390625 
Q 54.890625 11.625 47.5625 5.09375 
Q 40.234375 -1.421875 26.90625 -1.421875 
Q 22.3125 -1.421875 17.546875 -0.640625 
Q 12.796875 0.140625 7.71875 1.703125 
L 7.71875 11.625 
Q 12.109375 9.234375 16.796875 8.0625 
Q 21.484375 6.890625 26.703125 6.890625 
Q 35.15625 6.890625 40.078125 11.328125 
Q 45.015625 15.765625 45.015625 23.390625 
Q 45.015625 31 40.078125 35.4375 
Q 35.15625 39.890625 26.703125 39.890625 
Q 22.75 39.890625 18.8125 39.015625 
Q 14.890625 38.140625 10.796875 36.28125 
z
" id="DejaVuSans-53"/>
      </defs>
      <g transform="translate(20.878125 100.024499)scale(0.1 -0.1)">
       <use transform="translate(0 0.684375)" xlink:href="#DejaVuSans-49"/>
       <use transform="translate(63.623047 0.684375)" xlink:href="#DejaVuSans-48"/>
       <use transform="translate(128.203125 38.965625)scale(0.7)" xlink:href="#DejaVuSans-53"/>
      </g>
     </g>
    </g>
    <g id="ytick_3">
     <g id="line2d_25">
      <g>
       <use style="stroke:#000000;stroke-width:0.8;" x="45.478125" xlink:href="#m43e942a342" y="32.952122"/>
      </g>
     </g>
     <g id="text_7">
      <!-- $\mathdefault{10^{6}}$ -->
      <defs>
       <path d="M 33.015625 40.375 
Q 26.375 40.375 22.484375 35.828125 
Q 18.609375 31.296875 18.609375 23.390625 
Q 18.609375 15.53125 22.484375 10.953125 
Q 26.375 6.390625 33.015625 6.390625 
Q 39.65625 6.390625 43.53125 10.953125 
Q 47.40625 15.53125 47.40625 23.390625 
Q 47.40625 31.296875 43.53125 35.828125 
Q 39.65625 40.375 33.015625 40.375 
z
M 52.59375 71.296875 
L 52.59375 62.3125 
Q 48.875 64.0625 45.09375 64.984375 
Q 41.3125 65.921875 37.59375 65.921875 
Q 27.828125 65.921875 22.671875 59.328125 
Q 17.53125 52.734375 16.796875 39.40625 
Q 19.671875 43.65625 24.015625 45.921875 
Q 28.375 48.1875 33.59375 48.1875 
Q 44.578125 48.1875 50.953125 41.515625 
Q 57.328125 34.859375 57.328125 23.390625 
Q 57.328125 12.15625 50.6875 5.359375 
Q 44.046875 -1.421875 33.015625 -1.421875 
Q 20.359375 -1.421875 13.671875 8.265625 
Q 6.984375 17.96875 6.984375 36.375 
Q 6.984375 53.65625 15.1875 63.9375 
Q 23.390625 74.21875 37.203125 74.21875 
Q 40.921875 74.21875 44.703125 73.484375 
Q 48.484375 72.75 52.59375 71.296875 
z
" id="DejaVuSans-54"/>
      </defs>
      <g transform="translate(20.878125 36.75134)scale(0.1 -0.1)">
       <use transform="translate(0 0.765625)" xlink:href="#DejaVuSans-49"/>
       <use transform="translate(63.623047 0.765625)" xlink:href="#DejaVuSans-48"/>
       <use transform="translate(128.203125 39.046875)scale(0.7)" xlink:href="#DejaVuSans-54"/>
      </g>
     </g>
    </g>
    <g id="ytick_4">
     <g id="line2d_26">
      <defs>
       <path d="M 0 0 
L -2 0 
" id="m1dda89d004" style="stroke:#000000;stroke-width:0.6;"/>
      </defs>
      <g>
       <use style="stroke:#000000;stroke-width:0.6;" x="45.478125" xlink:href="#m1dda89d004" y="140.451321"/>
      </g>
     </g>
    </g>
    <g id="ytick_5">
     <g id="line2d_27">
      <g>
       <use style="stroke:#000000;stroke-width:0.6;" x="45.478125" xlink:href="#m1dda89d004" y="129.309471"/>
      </g>
     </g>
    </g>
    <g id="ytick_6">
     <g id="line2d_28">
      <g>
       <use style="stroke:#000000;stroke-width:0.6;" x="45.478125" xlink:href="#m1dda89d004" y="121.404202"/>
      </g>
     </g>
    </g>
    <g id="ytick_7">
     <g id="line2d_29">
      <g>
       <use style="stroke:#000000;stroke-width:0.6;" x="45.478125" xlink:href="#m1dda89d004" y="115.2724"/>
      </g>
     </g>
    </g>
    <g id="ytick_8">
     <g id="line2d_30">
      <g>
       <use style="stroke:#000000;stroke-width:0.6;" x="45.478125" xlink:href="#m1dda89d004" y="110.262352"/>
      </g>
     </g>
    </g>
    <g id="ytick_9">
     <g id="line2d_31">
      <g>
       <use style="stroke:#000000;stroke-width:0.6;" x="45.478125" xlink:href="#m1dda89d004" y="106.026417"/>
      </g>
     </g>
    </g>
    <g id="ytick_10">
     <g id="line2d_32">
      <g>
       <use style="stroke:#000000;stroke-width:0.6;" x="45.478125" xlink:href="#m1dda89d004" y="102.357083"/>
      </g>
     </g>
    </g>
    <g id="ytick_11">
     <g id="line2d_33">
      <g>
       <use style="stroke:#000000;stroke-width:0.6;" x="45.478125" xlink:href="#m1dda89d004" y="99.120502"/>
      </g>
     </g>
    </g>
    <g id="ytick_12">
     <g id="line2d_34">
      <g>
       <use style="stroke:#000000;stroke-width:0.6;" x="45.478125" xlink:href="#m1dda89d004" y="77.178162"/>
      </g>
     </g>
    </g>
    <g id="ytick_13">
     <g id="line2d_35">
      <g>
       <use style="stroke:#000000;stroke-width:0.6;" x="45.478125" xlink:href="#m1dda89d004" y="66.036312"/>
      </g>
     </g>
    </g>
    <g id="ytick_14">
     <g id="line2d_36">
      <g>
       <use style="stroke:#000000;stroke-width:0.6;" x="45.478125" xlink:href="#m1dda89d004" y="58.131043"/>
      </g>
     </g>
    </g>
    <g id="ytick_15">
     <g id="line2d_37">
      <g>
       <use style="stroke:#000000;stroke-width:0.6;" x="45.478125" xlink:href="#m1dda89d004" y="51.99924"/>
      </g>
     </g>
    </g>
    <g id="ytick_16">
     <g id="line2d_38">
      <g>
       <use style="stroke:#000000;stroke-width:0.6;" x="45.478125" xlink:href="#m1dda89d004" y="46.989193"/>
      </g>
     </g>
    </g>
    <g id="ytick_17">
     <g id="line2d_39">
      <g>
       <use style="stroke:#000000;stroke-width:0.6;" x="45.478125" xlink:href="#m1dda89d004" y="42.753258"/>
      </g>
     </g>
    </g>
    <g id="ytick_18">
     <g id="line2d_40">
      <g>
       <use style="stroke:#000000;stroke-width:0.6;" x="45.478125" xlink:href="#m1dda89d004" y="39.083924"/>
      </g>
     </g>
    </g>
    <g id="ytick_19">
     <g id="line2d_41">
      <g>
       <use style="stroke:#000000;stroke-width:0.6;" x="45.478125" xlink:href="#m1dda89d004" y="35.847343"/>
      </g>
     </g>
    </g>
    <g id="ytick_20">
     <g id="line2d_42">
      <g>
       <use style="stroke:#000000;stroke-width:0.6;" x="45.478125" xlink:href="#m1dda89d004" y="13.905003"/>
      </g>
     </g>
    </g>
    <g id="text_8">
     <!-- variant count -->
     <defs>
      <path d="M 2.984375 54.6875 
L 12.5 54.6875 
L 29.59375 8.796875 
L 46.6875 54.6875 
L 56.203125 54.6875 
L 35.6875 0 
L 23.484375 0 
z
" id="DejaVuSans-118"/>
      <path d="M 9.421875 54.6875 
L 18.40625 54.6875 
L 18.40625 0 
L 9.421875 0 
z
M 9.421875 75.984375 
L 18.40625 75.984375 
L 18.40625 64.59375 
L 9.421875 64.59375 
z
" id="DejaVuSans-105"/>
      <path d="M 18.3125 70.21875 
L 18.3125 54.6875 
L 36.8125 54.6875 
L 36.8125 47.703125 
L 18.3125 47.703125 
L 18.3125 18.015625 
Q 18.3125 11.328125 20.140625 9.421875 
Q 21.96875 7.515625 27.59375 7.515625 
L 36.8125 7.515625 
L 36.8125 0 
L 27.59375 0 
Q 17.1875 0 13.234375 3.875 
Q 9.28125 7.765625 9.28125 18.015625 
L 9.28125 47.703125 
L 2.6875 47.703125 
L 2.6875 54.6875 
L 9.28125 54.6875 
L 9.28125 70.21875 
z
" id="DejaVuSans-116"/>
      <path d="M 30.609375 48.390625 
Q 23.390625 48.390625 19.1875 42.75 
Q 14.984375 37.109375 14.984375 27.296875 
Q 14.984375 17.484375 19.15625 11.84375 
Q 23.34375 6.203125 30.609375 6.203125 
Q 37.796875 6.203125 41.984375 11.859375 
Q 46.1875 17.53125 46.1875 27.296875 
Q 46.1875 37.015625 41.984375 42.703125 
Q 37.796875 48.390625 30.609375 48.390625 
z
M 30.609375 56 
Q 42.328125 56 49.015625 48.375 
Q 55.71875 40.765625 55.71875 27.296875 
Q 55.71875 13.875 49.015625 6.21875 
Q 42.328125 -1.421875 30.609375 -1.421875 
Q 18.84375 -1.421875 12.171875 6.21875 
Q 5.515625 13.875 5.515625 27.296875 
Q 5.515625 40.765625 12.171875 48.375 
Q 18.84375 56 30.609375 56 
z
" id="DejaVuSans-111"/>
     </defs>
     <g transform="translate(14.798438 117.25625)rotate(-90)scale(0.1 -0.1)">
      <use xlink:href="#DejaVuSans-118"/>
      <use x="59.179688" xlink:href="#DejaVuSans-97"/>
      <use x="120.458984" xlink:href="#DejaVuSans-114"/>
      <use x="161.572266" xlink:href="#DejaVuSans-105"/>
      <use x="189.355469" xlink:href="#DejaVuSans-97"/>
      <use x="250.634766" xlink:href="#DejaVuSans-110"/>
      <use x="314.013672" xlink:href="#DejaVuSans-116"/>
      <use x="353.222656" xlink:href="#DejaVuSans-32"/>
      <use x="385.009766" xlink:href="#DejaVuSans-99"/>
      <use x="439.990234" xlink:href="#DejaVuSans-111"/>
      <use x="501.171875" xlink:href="#DejaVuSans-117"/>
      <use x="564.550781" xlink:href="#DejaVuSans-110"/>
      <use x="627.929688" xlink:href="#DejaVuSans-116"/>
     </g>
    </g>
   </g>
   <g id="line2d_43">
    <defs>
     <path d="M 0 1.5 
C 0.397805 1.5 0.77937 1.341951 1.06066 1.06066 
C 1.341951 0.77937 1.5 0.397805 1.5 0 
C 1.5 -0.397805 1.341951 -0.77937 1.06066 -1.06066 
C 0.77937 -1.341951 0.397805 -1.5 0 -1.5 
C -0.397805 -1.5 -0.77937 -1.341951 -1.06066 -1.06066 
C -1.341951 -0.77937 -1.5 -0.397805 -1.5 0 
C -1.5 0.397805 -1.341951 0.77937 -1.06066 1.06066 
C -0.77937 1.341951 -0.397805 1.5 0 1.5 
z
" id="mc50771d534" style="stroke:#1f77b4;"/>
    </defs>
    <g clip-path="url(#pc67bd4341b)">
     <use style="fill:#1f77b4;stroke:#1f77b4;" x="55.893127" xlink:href="#mc50771d534" y="14.172727"/>
     <use style="fill:#1f77b4;stroke:#1f77b4;" x="83.16958" xlink:href="#mc50771d534" y="43.051806"/>
     <use style="fill:#1f77b4;stroke:#1f77b4;" x="99.125282" xlink:href="#mc50771d534" y="55.407588"/>
     <use style="fill:#1f77b4;stroke:#1f77b4;" x="110.446033" xlink:href="#mc50771d534" y="62.368753"/>
     <use style="fill:#1f77b4;stroke:#1f77b4;" x="119.227089" xlink:href="#mc50771d534" y="67.223216"/>
     <use style="fill:#1f77b4;stroke:#1f77b4;" x="126.401735" xlink:href="#mc50771d534" y="71.34786"/>
     <use style="fill:#1f77b4;stroke:#1f77b4;" x="132.467811" xlink:href="#mc50771d534" y="74.82129"/>
     <use style="fill:#1f77b4;stroke:#1f77b4;" x="137.722486" xlink:href="#mc50771d534" y="77.945979"/>
     <use style="fill:#1f77b4;stroke:#1f77b4;" x="142.357437" xlink:href="#mc50771d534" y="81.070904"/>
     <use style="fill:#1f77b4;stroke:#1f77b4;" x="146.503542" xlink:href="#mc50771d534" y="83.561343"/>
     <use style="fill:#1f77b4;stroke:#1f77b4;" x="150.254151" xlink:href="#mc50771d534" y="86.179055"/>
     <use style="fill:#1f77b4;stroke:#1f77b4;" x="153.678188" xlink:href="#mc50771d534" y="88.70946"/>
     <use style="fill:#1f77b4;stroke:#1f77b4;" x="156.827997" xlink:href="#mc50771d534" y="91.116486"/>
     <use style="fill:#1f77b4;stroke:#1f77b4;" x="159.744264" xlink:href="#mc50771d534" y="93.438128"/>
     <use style="fill:#1f77b4;stroke:#1f77b4;" x="162.459245" xlink:href="#mc50771d534" y="95.425838"/>
     <use style="fill:#1f77b4;stroke:#1f77b4;" x="164.998939" xlink:href="#mc50771d534" y="97.439648"/>
     <use style="fill:#1f77b4;stroke:#1f77b4;" x="167.384615" xlink:href="#mc50771d534" y="99.488427"/>
     <use style="fill:#1f77b4;stroke:#1f77b4;" x="169.63389" xlink:href="#mc50771d534" y="101.450285"/>
     <use style="fill:#1f77b4;stroke:#1f77b4;" x="171.761522" xlink:href="#mc50771d534" y="103.159396"/>
     <use style="fill:#1f77b4;stroke:#1f77b4;" x="173.779995" xlink:href="#mc50771d534" y="105.171512"/>
     <use style="fill:#1f77b4;stroke:#1f77b4;" x="175.699967" xlink:href="#mc50771d534" y="106.640117"/>
     <use style="fill:#1f77b4;stroke:#1f77b4;" x="177.530604" xlink:href="#mc50771d534" y="108.294644"/>
     <use style="fill:#1f77b4;stroke:#1f77b4;" x="179.279852" xlink:href="#mc50771d534" y="109.814898"/>
     <use style="fill:#1f77b4;stroke:#1f77b4;" x="180.954641" xlink:href="#mc50771d534" y="111.102651"/>
     <use style="fill:#1f77b4;stroke:#1f77b4;" x="182.561052" xlink:href="#mc50771d534" y="112.682347"/>
     <use style="fill:#1f77b4;stroke:#1f77b4;" x="184.10445" xlink:href="#mc50771d534" y="113.833981"/>
     <use style="fill:#1f77b4;stroke:#1f77b4;" x="185.589592" xlink:href="#mc50771d534" y="115.093271"/>
     <use style="fill:#1f77b4;stroke:#1f77b4;" x="187.020717" xlink:href="#mc50771d534" y="116.103728"/>
     <use style="fill:#1f77b4;stroke:#1f77b4;" x="188.401617" xlink:href="#mc50771d534" y="117.280769"/>
     <use style="fill:#1f77b4;stroke:#1f77b4;" x="189.735698" xlink:href="#mc50771d534" y="118.490714"/>
     <use style="fill:#1f77b4;stroke:#1f77b4;" x="191.02603" xlink:href="#mc50771d534" y="119.516121"/>
     <use style="fill:#1f77b4;stroke:#1f77b4;" x="192.275392" xlink:href="#mc50771d534" y="120.329091"/>
     <use style="fill:#1f77b4;stroke:#1f77b4;" x="193.486306" xlink:href="#mc50771d534" y="121.252798"/>
     <use style="fill:#1f77b4;stroke:#1f77b4;" x="194.661068" xlink:href="#mc50771d534" y="122.1126"/>
     <use style="fill:#1f77b4;stroke:#1f77b4;" x="195.801774" xlink:href="#mc50771d534" y="122.905692"/>
     <use style="fill:#1f77b4;stroke:#1f77b4;" x="196.910343" xlink:href="#mc50771d534" y="123.739552"/>
     <use style="fill:#1f77b4;stroke:#1f77b4;" x="197.988537" xlink:href="#mc50771d534" y="124.416459"/>
     <use style="fill:#1f77b4;stroke:#1f77b4;" x="199.037975" xlink:href="#mc50771d534" y="125.276056"/>
     <use style="fill:#1f77b4;stroke:#1f77b4;" x="200.060152" xlink:href="#mc50771d534" y="126.086734"/>
     <use style="fill:#1f77b4;stroke:#1f77b4;" x="201.056448" xlink:href="#mc50771d534" y="126.720418"/>
     <use style="fill:#1f77b4;stroke:#1f77b4;" x="202.028142" xlink:href="#mc50771d534" y="127.226043"/>
     <use style="fill:#1f77b4;stroke:#1f77b4;" x="202.97642" xlink:href="#mc50771d534" y="127.898187"/>
     <use style="fill:#1f77b4;stroke:#1f77b4;" x="203.902382" xlink:href="#mc50771d534" y="128.572021"/>
     <use style="fill:#1f77b4;stroke:#1f77b4;" x="204.807057" xlink:href="#mc50771d534" y="128.71955"/>
     <use style="fill:#1f77b4;stroke:#1f77b4;" x="205.6914" xlink:href="#mc50771d534" y="129.424207"/>
     <use style="fill:#1f77b4;stroke:#1f77b4;" x="206.556305" xlink:href="#mc50771d534" y="130.165357"/>
     <use style="fill:#1f77b4;stroke:#1f77b4;" x="207.402609" xlink:href="#mc50771d534" y="130.50288"/>
     <use style="fill:#1f77b4;stroke:#1f77b4;" x="208.231094" xlink:href="#mc50771d534" y="130.868825"/>
     <use style="fill:#1f77b4;stroke:#1f77b4;" x="209.042496" xlink:href="#mc50771d534" y="131.222027"/>
     <use style="fill:#1f77b4;stroke:#1f77b4;" x="209.837505" xlink:href="#mc50771d534" y="131.772512"/>
     <use style="fill:#1f77b4;stroke:#1f77b4;" x="210.61677" xlink:href="#mc50771d534" y="132.387475"/>
     <use style="fill:#1f77b4;stroke:#1f77b4;" x="211.380903" xlink:href="#mc50771d534" y="132.781663"/>
     <use style="fill:#1f77b4;stroke:#1f77b4;" x="212.13048" xlink:href="#mc50771d534" y="133.136279"/>
     <use style="fill:#1f77b4;stroke:#1f77b4;" x="212.866045" xlink:href="#mc50771d534" y="133.384817"/>
     <use style="fill:#1f77b4;stroke:#1f77b4;" x="213.588113" xlink:href="#mc50771d534" y="133.726908"/>
     <use style="fill:#1f77b4;stroke:#1f77b4;" x="214.29717" xlink:href="#mc50771d534" y="134.352513"/>
     <use style="fill:#1f77b4;stroke:#1f77b4;" x="214.993677" xlink:href="#mc50771d534" y="134.539128"/>
     <use style="fill:#1f77b4;stroke:#1f77b4;" x="215.67807" xlink:href="#mc50771d534" y="135.191663"/>
     <use style="fill:#1f77b4;stroke:#1f77b4;" x="216.350764" xlink:href="#mc50771d534" y="135.077305"/>
     <use style="fill:#1f77b4;stroke:#1f77b4;" x="217.012151" xlink:href="#mc50771d534" y="135.702418"/>
     <use style="fill:#1f77b4;stroke:#1f77b4;" x="217.662605" xlink:href="#mc50771d534" y="135.862396"/>
     <use style="fill:#1f77b4;stroke:#1f77b4;" x="218.302483" xlink:href="#mc50771d534" y="135.8438"/>
     <use style="fill:#1f77b4;stroke:#1f77b4;" x="218.932122" xlink:href="#mc50771d534" y="136.385892"/>
     <use style="fill:#1f77b4;stroke:#1f77b4;" x="219.551845" xlink:href="#mc50771d534" y="136.465403"/>
     <use style="fill:#1f77b4;stroke:#1f77b4;" x="220.16196" xlink:href="#mc50771d534" y="137.09288"/>
     <use style="fill:#1f77b4;stroke:#1f77b4;" x="220.762759" xlink:href="#mc50771d534" y="137.117209"/>
     <use style="fill:#1f77b4;stroke:#1f77b4;" x="221.354524" xlink:href="#mc50771d534" y="137.537832"/>
     <use style="fill:#1f77b4;stroke:#1f77b4;" x="221.937521" xlink:href="#mc50771d534" y="137.834773"/>
     <use style="fill:#1f77b4;stroke:#1f77b4;" x="222.512007" xlink:href="#mc50771d534" y="138.157699"/>
     <use style="fill:#1f77b4;stroke:#1f77b4;" x="223.078227" xlink:href="#mc50771d534" y="138.327591"/>
     <use style="fill:#1f77b4;stroke:#1f77b4;" x="223.636415" xlink:href="#mc50771d534" y="138.199441"/>
     <use style="fill:#1f77b4;stroke:#1f77b4;" x="224.186796" xlink:href="#mc50771d534" y="138.760847"/>
     <use style="fill:#1f77b4;stroke:#1f77b4;" x="224.729586" xlink:href="#mc50771d534" y="138.947525"/>
     <use style="fill:#1f77b4;stroke:#1f77b4;" x="225.26499" xlink:href="#mc50771d534" y="139.269397"/>
     <use style="fill:#1f77b4;stroke:#1f77b4;" x="225.793207" xlink:href="#mc50771d534" y="139.748671"/>
     <use style="fill:#1f77b4;stroke:#1f77b4;" x="226.314428" xlink:href="#mc50771d534" y="139.591089"/>
     <use style="fill:#1f77b4;stroke:#1f77b4;" x="226.828835" xlink:href="#mc50771d534" y="140.158856"/>
     <use style="fill:#1f77b4;stroke:#1f77b4;" x="227.336605" xlink:href="#mc50771d534" y="139.975945"/>
     <use style="fill:#1f77b4;stroke:#1f77b4;" x="227.837906" xlink:href="#mc50771d534" y="140.213286"/>
     <use style="fill:#1f77b4;stroke:#1f77b4;" x="228.332901" xlink:href="#mc50771d534" y="140.55732"/>
     <use style="fill:#1f77b4;stroke:#1f77b4;" x="228.821748" xlink:href="#mc50771d534" y="140.546288"/>
     <use style="fill:#1f77b4;stroke:#1f77b4;" x="229.304595" xlink:href="#mc50771d534" y="140.870816"/>
     <use style="fill:#1f77b4;stroke:#1f77b4;" x="229.78159" xlink:href="#mc50771d534" y="140.968647"/>
     <use style="fill:#1f77b4;stroke:#1f77b4;" x="230.252873" xlink:href="#mc50771d534" y="141.470222"/>
     <use style="fill:#1f77b4;stroke:#1f77b4;" x="230.718578" xlink:href="#mc50771d534" y="141.801586"/>
     <use style="fill:#1f77b4;stroke:#1f77b4;" x="231.178835" xlink:href="#mc50771d534" y="141.953537"/>
     <use style="fill:#1f77b4;stroke:#1f77b4;" x="231.633772" xlink:href="#mc50771d534" y="141.97967"/>
     <use style="fill:#1f77b4;stroke:#1f77b4;" x="232.08351" xlink:href="#mc50771d534" y="142.179392"/>
     <use style="fill:#1f77b4;stroke:#1f77b4;" x="232.528165" xlink:href="#mc50771d534" y="142.210135"/>
     <use style="fill:#1f77b4;stroke:#1f77b4;" x="232.967853" xlink:href="#mc50771d534" y="142.61593"/>
     <use style="fill:#1f77b4;stroke:#1f77b4;" x="233.402682" xlink:href="#mc50771d534" y="142.413021"/>
     <use style="fill:#1f77b4;stroke:#1f77b4;" x="233.832758" xlink:href="#mc50771d534" y="142.976548"/>
     <use style="fill:#1f77b4;stroke:#1f77b4;" x="234.258185" xlink:href="#mc50771d534" y="143.058004"/>
     <use style="fill:#1f77b4;stroke:#1f77b4;" x="234.679062" xlink:href="#mc50771d534" y="143.179125"/>
     <use style="fill:#1f77b4;stroke:#1f77b4;" x="235.095485" xlink:href="#mc50771d534" y="143.619633"/>
     <use style="fill:#1f77b4;stroke:#1f77b4;" x="235.507547" xlink:href="#mc50771d534" y="143.328229"/>
     <use style="fill:#1f77b4;stroke:#1f77b4;" x="235.915339" xlink:href="#mc50771d534" y="143.858113"/>
     <use style="fill:#1f77b4;stroke:#1f77b4;" x="236.318949" xlink:href="#mc50771d534" y="143.738614"/>
     <use style="fill:#1f77b4;stroke:#1f77b4;" x="236.718461" xlink:href="#mc50771d534" y="144.137933"/>
     <use style="fill:#1f77b4;stroke:#1f77b4;" x="237.113958" xlink:href="#mc50771d534" y="144.360374"/>
     <use style="fill:#1f77b4;stroke:#1f77b4;" x="237.50552" xlink:href="#mc50771d534" y="144.365126"/>
     <use style="fill:#1f77b4;stroke:#1f77b4;" x="237.893223" xlink:href="#mc50771d534" y="144.65979"/>
     <use style="fill:#1f77b4;stroke:#1f77b4;" x="238.277144" xlink:href="#mc50771d534" y="144.492161"/>
     <use style="fill:#1f77b4;stroke:#1f77b4;" x="238.657356" xlink:href="#mc50771d534" y="144.917208"/>
     <use style="fill:#1f77b4;stroke:#1f77b4;" x="239.033929" xlink:href="#mc50771d534" y="144.820394"/>
     <use style="fill:#1f77b4;stroke:#1f77b4;" x="239.406933" xlink:href="#mc50771d534" y="144.975461"/>
     <use style="fill:#1f77b4;stroke:#1f77b4;" x="239.776434" xlink:href="#mc50771d534" y="145.100474"/>
     <use style="fill:#1f77b4;stroke:#1f77b4;" x="240.142498" xlink:href="#mc50771d534" y="145.685964"/>
     <use style="fill:#1f77b4;stroke:#1f77b4;" x="240.505189" xlink:href="#mc50771d534" y="145.744206"/>
     <use style="fill:#1f77b4;stroke:#1f77b4;" x="240.864566" xlink:href="#mc50771d534" y="146.121593"/>
     <use style="fill:#1f77b4;stroke:#1f77b4;" x="241.220692" xlink:href="#mc50771d534" y="145.777542"/>
     <use style="fill:#1f77b4;stroke:#1f77b4;" x="241.573624" xlink:href="#mc50771d534" y="146.238371"/>
     <use style="fill:#1f77b4;stroke:#1f77b4;" x="241.923418" xlink:href="#mc50771d534" y="146.229892"/>
     <use style="fill:#1f77b4;stroke:#1f77b4;" x="242.27013" xlink:href="#mc50771d534" y="146.480269"/>
     <use style="fill:#1f77b4;stroke:#1f77b4;" x="242.613815" xlink:href="#mc50771d534" y="146.755407"/>
     <use style="fill:#1f77b4;stroke:#1f77b4;" x="242.954523" xlink:href="#mc50771d534" y="146.676023"/>
     <use style="fill:#1f77b4;stroke:#1f77b4;" x="243.292307" xlink:href="#mc50771d534" y="146.793455"/>
     <use style="fill:#1f77b4;stroke:#1f77b4;" x="243.627217" xlink:href="#mc50771d534" y="147.084004"/>
     <use style="fill:#1f77b4;stroke:#1f77b4;" x="243.9593" xlink:href="#mc50771d534" y="147.042059"/>
     <use style="fill:#1f77b4;stroke:#1f77b4;" x="244.288604" xlink:href="#mc50771d534" y="147.261227"/>
     <use style="fill:#1f77b4;stroke:#1f77b4;" x="244.615175" xlink:href="#mc50771d534" y="147.476834"/>
     <use style="fill:#1f77b4;stroke:#1f77b4;" x="244.939058" xlink:href="#mc50771d534" y="147.891568"/>
     <use style="fill:#1f77b4;stroke:#1f77b4;" x="245.260298" xlink:href="#mc50771d534" y="147.692359"/>
     <use style="fill:#1f77b4;stroke:#1f77b4;" x="245.578936" xlink:href="#mc50771d534" y="147.794475"/>
     <use style="fill:#1f77b4;stroke:#1f77b4;" x="245.895015" xlink:href="#mc50771d534" y="147.967323"/>
     <use style="fill:#1f77b4;stroke:#1f77b4;" x="246.208575" xlink:href="#mc50771d534" y="148.114015"/>
     <use style="fill:#1f77b4;stroke:#1f77b4;" x="246.519656" xlink:href="#mc50771d534" y="148.288891"/>
     <use style="fill:#1f77b4;stroke:#1f77b4;" x="246.828298" xlink:href="#mc50771d534" y="148.534865"/>
     <use style="fill:#1f77b4;stroke:#1f77b4;" x="247.134538" xlink:href="#mc50771d534" y="148.538553"/>
     <use style="fill:#1f77b4;stroke:#1f77b4;" x="247.438413" xlink:href="#mc50771d534" y="148.803535"/>
     <use style="fill:#1f77b4;stroke:#1f77b4;" x="247.739959" xlink:href="#mc50771d534" y="148.988493"/>
     <use style="fill:#1f77b4;stroke:#1f77b4;" x="248.039212" xlink:href="#mc50771d534" y="148.941669"/>
     <use style="fill:#1f77b4;stroke:#1f77b4;" x="248.336207" xlink:href="#mc50771d534" y="149.088025"/>
     <use style="fill:#1f77b4;stroke:#1f77b4;" x="248.630977" xlink:href="#mc50771d534" y="149.320412"/>
     <use style="fill:#1f77b4;stroke:#1f77b4;" x="248.923555" xlink:href="#mc50771d534" y="149.77766"/>
     <use style="fill:#1f77b4;stroke:#1f77b4;" x="249.213974" xlink:href="#mc50771d534" y="149.543303"/>
     <use style="fill:#1f77b4;stroke:#1f77b4;" x="249.502265" xlink:href="#mc50771d534" y="149.905282"/>
     <use style="fill:#1f77b4;stroke:#1f77b4;" x="249.78846" xlink:href="#mc50771d534" y="150.22107"/>
     <use style="fill:#1f77b4;stroke:#1f77b4;" x="250.072589" xlink:href="#mc50771d534" y="149.768016"/>
     <use style="fill:#1f77b4;stroke:#1f77b4;" x="250.35468" xlink:href="#mc50771d534" y="149.639109"/>
     <use style="fill:#1f77b4;stroke:#1f77b4;" x="250.634764" xlink:href="#mc50771d534" y="150.327145"/>
     <use style="fill:#1f77b4;stroke:#1f77b4;" x="250.912868" xlink:href="#mc50771d534" y="150.590163"/>
     <use style="fill:#1f77b4;stroke:#1f77b4;" x="251.189021" xlink:href="#mc50771d534" y="150.360624"/>
     <use style="fill:#1f77b4;stroke:#1f77b4;" x="251.463249" xlink:href="#mc50771d534" y="150.465261"/>
     <use style="fill:#1f77b4;stroke:#1f77b4;" x="251.73558" xlink:href="#mc50771d534" y="150.78759"/>
     <use style="fill:#1f77b4;stroke:#1f77b4;" x="252.006039" xlink:href="#mc50771d534" y="151.349688"/>
     <use style="fill:#1f77b4;stroke:#1f77b4;" x="252.274651" xlink:href="#mc50771d534" y="151.47458"/>
     <use style="fill:#1f77b4;stroke:#1f77b4;" x="252.541443" xlink:href="#mc50771d534" y="151.057094"/>
     <use style="fill:#1f77b4;stroke:#1f77b4;" x="252.806438" xlink:href="#mc50771d534" y="150.821635"/>
     <use style="fill:#1f77b4;stroke:#1f77b4;" x="253.06966" xlink:href="#mc50771d534" y="151.030832"/>
     <use style="fill:#1f77b4;stroke:#1f77b4;" x="253.331134" xlink:href="#mc50771d534" y="151.925611"/>
     <use style="fill:#1f77b4;stroke:#1f77b4;" x="253.590881" xlink:href="#mc50771d534" y="151.259954"/>
     <use style="fill:#1f77b4;stroke:#1f77b4;" x="253.848925" xlink:href="#mc50771d534" y="151.711586"/>
     <use style="fill:#1f77b4;stroke:#1f77b4;" x="254.105288" xlink:href="#mc50771d534" y="151.600042"/>
     <use style="fill:#1f77b4;stroke:#1f77b4;" x="254.359992" xlink:href="#mc50771d534" y="152.250862"/>
     <use style="fill:#1f77b4;stroke:#1f77b4;" x="254.613058" xlink:href="#mc50771d534" y="151.823586"/>
     <use style="fill:#1f77b4;stroke:#1f77b4;" x="254.864507" xlink:href="#mc50771d534" y="151.954831"/>
     <use style="fill:#1f77b4;stroke:#1f77b4;" x="255.114359" xlink:href="#mc50771d534" y="152.401143"/>
     <use style="fill:#1f77b4;stroke:#1f77b4;" x="255.362635" xlink:href="#mc50771d534" y="152.695612"/>
     <use style="fill:#1f77b4;stroke:#1f77b4;" x="255.609355" xlink:href="#mc50771d534" y="151.854778"/>
     <use style="fill:#1f77b4;stroke:#1f77b4;" x="255.854537" xlink:href="#mc50771d534" y="152.20657"/>
     <use style="fill:#1f77b4;stroke:#1f77b4;" x="256.098201" xlink:href="#mc50771d534" y="152.339662"/>
     <use style="fill:#1f77b4;stroke:#1f77b4;" x="256.340365" xlink:href="#mc50771d534" y="152.582145"/>
     <use style="fill:#1f77b4;stroke:#1f77b4;" x="256.581048" xlink:href="#mc50771d534" y="152.837568"/>
     <use style="fill:#1f77b4;stroke:#1f77b4;" x="256.820269" xlink:href="#mc50771d534" y="153.106273"/>
     <use style="fill:#1f77b4;stroke:#1f77b4;" x="257.058043" xlink:href="#mc50771d534" y="152.674167"/>
     <use style="fill:#1f77b4;stroke:#1f77b4;" x="257.29439" xlink:href="#mc50771d534" y="152.469145"/>
     <use style="fill:#1f77b4;stroke:#1f77b4;" x="257.529326" xlink:href="#mc50771d534" y="152.88721"/>
     <use style="fill:#1f77b4;stroke:#1f77b4;" x="257.762867" xlink:href="#mc50771d534" y="153.25475"/>
     <use style="fill:#1f77b4;stroke:#1f77b4;" x="257.995031" xlink:href="#mc50771d534" y="153.230677"/>
     <use style="fill:#1f77b4;stroke:#1f77b4;" x="258.225832" xlink:href="#mc50771d534" y="153.213183"/>
     <use style="fill:#1f77b4;stroke:#1f77b4;" x="258.455289" xlink:href="#mc50771d534" y="153.344663"/>
     <use style="fill:#1f77b4;stroke:#1f77b4;" x="258.683414" xlink:href="#mc50771d534" y="152.755746"/>
     <use style="fill:#1f77b4;stroke:#1f77b4;" x="258.910225" xlink:href="#mc50771d534" y="153.219742"/>
     <use style="fill:#1f77b4;stroke:#1f77b4;" x="259.135737" xlink:href="#mc50771d534" y="152.547983"/>
     <use style="fill:#1f77b4;stroke:#1f77b4;" x="259.359963" xlink:href="#mc50771d534" y="153.627273"/>
     <use style="fill:#1f77b4;stroke:#1f77b4;" x="259.582919" xlink:href="#mc50771d534" y="153.215369"/>
     <use style="fill:#1f77b4;stroke:#1f77b4;" x="259.804619" xlink:href="#mc50771d534" y="153.283227"/>
     <use style="fill:#1f77b4;stroke:#1f77b4;" x="260.025076" xlink:href="#mc50771d534" y="153.417245"/>
     <use style="fill:#1f77b4;stroke:#1f77b4;" x="260.244306" xlink:href="#mc50771d534" y="153.169496"/>
     <use style="fill:#1f77b4;stroke:#1f77b4;" x="260.462321" xlink:href="#mc50771d534" y="152.867774"/>
     <use style="fill:#1f77b4;stroke:#1f77b4;" x="260.679135" xlink:href="#mc50771d534" y="152.982429"/>
     <use style="fill:#1f77b4;stroke:#1f77b4;" x="260.89476" xlink:href="#mc50771d534" y="152.960759"/>
     <use style="fill:#1f77b4;stroke:#1f77b4;" x="261.109211" xlink:href="#mc50771d534" y="152.360847"/>
     <use style="fill:#1f77b4;stroke:#1f77b4;" x="261.322499" xlink:href="#mc50771d534" y="152.316377"/>
     <use style="fill:#1f77b4;stroke:#1f77b4;" x="261.534638" xlink:href="#mc50771d534" y="151.892255"/>
     <use style="fill:#1f77b4;stroke:#1f77b4;" x="261.745639" xlink:href="#mc50771d534" y="151.877675"/>
     <use style="fill:#1f77b4;stroke:#1f77b4;" x="261.955515" xlink:href="#mc50771d534" y="151.357861"/>
     <use style="fill:#1f77b4;stroke:#1f77b4;" x="262.164277" xlink:href="#mc50771d534" y="150.903917"/>
     <use style="fill:#1f77b4;stroke:#1f77b4;" x="262.371938" xlink:href="#mc50771d534" y="150.250495"/>
     <use style="fill:#1f77b4;stroke:#1f77b4;" x="262.578508" xlink:href="#mc50771d534" y="149.932429"/>
     <use style="fill:#1f77b4;stroke:#1f77b4;" x="262.784" xlink:href="#mc50771d534" y="149.050423"/>
     <use style="fill:#1f77b4;stroke:#1f77b4;" x="262.988425" xlink:href="#mc50771d534" y="148.279755"/>
     <use style="fill:#1f77b4;stroke:#1f77b4;" x="263.191792" xlink:href="#mc50771d534" y="147.416577"/>
     <use style="fill:#1f77b4;stroke:#1f77b4;" x="263.394115" xlink:href="#mc50771d534" y="145.991858"/>
     <use style="fill:#1f77b4;stroke:#1f77b4;" x="263.595402" xlink:href="#mc50771d534" y="144.232368"/>
     <use style="fill:#1f77b4;stroke:#1f77b4;" x="263.795665" xlink:href="#mc50771d534" y="141.490191"/>
     <use style="fill:#1f77b4;stroke:#1f77b4;" x="263.994914" xlink:href="#mc50771d534" y="134.86458"/>
     <use style="fill:#1f77b4;stroke:#1f77b4;" x="264.19316" xlink:href="#mc50771d534" y="114.861648"/>
    </g>
   </g>
   <g id="patch_3">
    <path d="M 45.478125 160.6 
L 45.478125 7.2 
" style="fill:none;stroke:#000000;stroke-linecap:square;stroke-linejoin:miter;stroke-width:0.8;"/>
   </g>
   <g id="patch_4">
    <path d="M 274.608161 160.6 
L 274.608161 7.2 
" style="fill:none;stroke:#000000;stroke-linecap:square;stroke-linejoin:miter;stroke-width:0.8;"/>
   </g>
   <g id="patch_5">
    <path d="M 45.478125 160.6 
L 274.608161 160.6 
" style="fill:none;stroke:#000000;stroke-linecap:square;stroke-linejoin:miter;stroke-width:0.8;"/>
   </g>
   <g id="patch_6">
    <path d="M 45.478125 7.2 
L 274.608161 7.2 
" style="fill:none;stroke:#000000;stroke-linecap:square;stroke-linejoin:miter;stroke-width:0.8;"/>
   </g>
  </g>
 </g>
 <defs>
  <clipPath id="pc67bd4341b">
   <rect height="153.4" width="229.130036" x="45.478125" y="7.2"/>
  </clipPath>
 </defs>
</svg>
