<?xml version="1.0" encoding="utf-8" standalone="no"?>
<!DOCTYPE svg PUBLIC "-//W3C//DTD SVG 1.1//EN"
  "http://www.w3.org/Graphics/SVG/1.1/DTD/svg11.dtd">
<!-- Created with matplotlib (https://matplotlib.org/) -->
<svg height="332.578125pt" version="1.1" viewBox="0 0 452.740626 332.578125" width="452.740626pt" xmlns="http://www.w3.org/2000/svg" xmlns:xlink="http://www.w3.org/1999/xlink">
 <defs>
  <style type="text/css">
*{stroke-linecap:butt;stroke-linejoin:round;}
  </style>
 </defs>
 <g id="figure_1">
  <g id="patch_1">
   <path d="M 0 332.578125 
L 452.740626 332.578125 
L 452.740626 0 
L 0 0 
z
" style="fill:#ffffff;"/>
  </g>
  <g id="axes_1">
   <g id="patch_2">
    <path d="M 45.478125 295 
L 210.580548 295 
L 210.580548 7.2 
L 45.478125 7.2 
z
" style="fill:#ffffff;"/>
   </g>
   <g id="PolyCollection_1">
    <path clip-path="url(#pcd3fd4b1ef)" d="M 52.982781 20.281818 
L 52.982781 20.509705 
L 72.637159 70.965863 
L 84.134234 92.185723 
L 92.291538 103.949097 
L 98.618834 112.089867 
L 103.788612 118.488853 
L 108.159597 123.876572 
L 111.945916 128.599014 
L 115.285687 132.846479 
L 118.273213 136.735547 
L 120.975759 140.344195 
L 123.442991 143.725475 
L 125.712624 146.917527 
L 127.813976 149.948794 
L 129.770288 152.841439 
L 131.600295 155.611577 
L 133.319323 158.272258 
L 134.940065 160.834814 
L 136.473156 163.308332 
L 137.927592 165.698549 
L 139.31105 168.013019 
L 140.630138 170.256025 
L 141.89058 172.432924 
L 143.09737 174.547765 
L 144.254888 176.602828 
L 145.367002 178.602359 
L 146.43714 180.54843 
L 147.468354 182.444029 
L 148.463378 184.291256 
L 149.424666 186.092046 
L 150.354431 187.849047 
L 151.254674 189.563626 
L 152.127212 191.237703 
L 152.973701 192.871628 
L 153.795651 194.469428 
L 154.594444 196.030212 
L 155.371349 197.556751 
L 156.127535 199.048785 
L 156.864077 200.508704 
L 157.58197 201.938107 
L 158.282136 203.336378 
L 158.965429 204.705653 
L 159.632643 206.047096 
L 160.284517 207.362137 
L 160.921741 208.649674 
L 161.544959 209.912938 
L 162.154773 211.15118 
L 162.751748 212.365196 
L 163.336414 213.555957 
L 163.909267 214.724618 
L 164.470776 215.872521 
L 165.021381 216.999585 
L 165.561498 218.1058 
L 166.091518 219.191235 
L 166.611813 220.259455 
L 167.122733 221.309135 
L 167.624609 222.338916 
L 168.117757 223.352805 
L 168.602474 224.34965 
L 169.079045 225.330134 
L 169.547738 226.295032 
L 170.008809 227.243294 
L 170.462503 228.177754 
L 170.909052 229.097498 
L 171.348678 230.003607 
L 171.781591 230.89317 
L 172.207994 231.771444 
L 172.62808 232.635606 
L 173.042033 233.489107 
L 173.45003 234.32912 
L 173.852239 235.154883 
L 174.248823 235.972309 
L 174.639936 236.776359 
L 175.025728 237.568614 
L 175.406341 238.350764 
L 175.781913 239.122258 
L 176.152576 239.882535 
L 176.518456 240.633435 
L 176.879674 241.374469 
L 177.236349 242.105139 
L 177.588593 242.827443 
L 177.936515 243.538419 
L 178.280219 244.24268 
L 178.619807 244.937278 
L 178.955377 245.621769 
L 179.287021 246.301016 
L 179.614831 246.969364 
L 179.938895 247.629068 
L 180.259297 248.282497 
L 180.576119 248.926578 
L 180.88944 249.563731 
L 181.199337 250.19365 
L 181.505884 250.816027 
L 181.809152 251.433449 
L 182.10921 252.039827 
L 182.406127 252.640671 
L 182.699966 253.235744 
L 182.990792 253.821788 
L 183.278666 254.40457 
L 183.563646 254.977773 
L 183.84579 255.547278 
L 184.125155 256.106642 
L 184.401794 256.661861 
L 184.67576 257.212764 
L 184.947104 257.755952 
L 185.215876 258.29442 
L 185.482125 258.824701 
L 185.745897 259.349847 
L 186.007238 259.869676 
L 186.266192 260.384004 
L 186.522802 260.892645 
L 186.777112 261.395412 
L 187.02916 261.895579 
L 187.278988 262.386056 
L 187.526634 262.873607 
L 187.772136 263.354574 
L 188.01553 263.832341 
L 188.256853 264.303188 
L 188.496139 264.770554 
L 188.733423 265.23066 
L 188.968738 265.690693 
L 189.202116 266.139455 
L 189.433589 266.587911 
L 189.663188 267.028467 
L 189.890942 267.464729 
L 190.116882 267.896574 
L 190.341035 268.323881 
L 190.563431 268.746527 
L 190.784096 269.160471 
L 191.003056 269.573397 
L 191.220339 269.981291 
L 191.43597 270.384027 
L 191.649973 270.781479 
L 191.862373 271.17352 
L 192.073194 271.564106 
L 192.282459 271.944972 
L 192.490191 272.324183 
L 192.696412 272.697527 
L 192.901144 273.064877 
L 193.104408 273.426105 
L 193.306226 273.785324 
L 193.506617 274.138218 
L 193.705603 274.484658 
L 193.903201 274.828834 
L 194.099432 275.166353 
L 194.294315 275.497088 
L 194.487867 275.820915 
L 194.680107 276.14212 
L 194.871052 276.456213 
L 195.06072 276.767532 
L 195.249128 277.07154 
L 195.436292 277.368114 
L 195.622229 277.657135 
L 195.806955 277.938483 
L 195.990484 278.216611 
L 196.172834 278.486875 
L 196.354019 278.749161 
L 196.534053 279.007988 
L 196.712951 279.254001 
L 196.890728 279.496376 
L 197.067396 279.725683 
L 197.242972 279.95118 
L 197.417466 280.16337 
L 197.590893 280.371587 
L 197.763266 280.566272 
L 197.934598 280.752059 
L 198.1049 280.924077 
L 198.274186 281.087001 
L 198.442467 281.240754 
L 198.609755 281.375617 
L 198.776062 281.501125 
L 198.9414 281.612375 
L 199.105779 281.709284 
L 199.26921 281.786927 
L 199.431705 281.850087 
L 199.593274 281.893853 
L 199.753927 281.913315 
L 199.913676 281.918182 
L 200.072529 281.893853 
L 200.230498 281.845226 
L 200.387591 281.772361 
L 200.543819 281.665655 
L 200.699191 281.525292 
L 200.853716 281.346692 
L 201.007403 281.125401 
L 201.160262 280.857122 
L 201.312302 280.532988 
L 201.46353 280.144478 
L 201.613956 279.678813 
L 201.763589 279.123904 
L 201.912436 278.450156 
L 202.060505 277.634504 
L 202.207806 276.616115 
L 202.354345 275.322786 
L 202.500131 273.594877 
L 202.645171 271.108674 
L 202.789473 266.937828 
L 202.933044 257.78502 
L 203.075892 228.126968 
L 203.075892 226.804471 
L 203.075892 226.804471 
L 202.933044 256.087806 
L 202.789473 265.102492 
L 202.645171 269.207516 
L 202.500131 271.65807 
L 202.354345 273.354524 
L 202.207806 274.626387 
L 202.060505 275.628155 
L 201.912436 276.429605 
L 201.763589 277.093955 
L 201.613956 277.63903 
L 201.46353 278.097904 
L 201.312302 278.477693 
L 201.160262 278.795297 
L 201.007403 279.058963 
L 200.853716 279.277263 
L 200.699191 279.449688 
L 200.543819 279.589863 
L 200.387591 279.69287 
L 200.230498 279.767898 
L 200.072529 279.814839 
L 199.913676 279.838324 
L 199.753927 279.833626 
L 199.593274 279.810143 
L 199.431705 279.767898 
L 199.26921 279.711618 
L 199.105779 279.63198 
L 198.9414 279.538427 
L 198.776062 279.431023 
L 198.609755 279.30519 
L 198.442467 279.170334 
L 198.274186 279.021886 
L 198.1049 278.864568 
L 197.934598 278.689239 
L 197.763266 278.509836 
L 197.590893 278.317242 
L 197.417466 278.116151 
L 197.242972 277.906651 
L 197.067396 277.684304 
L 196.890728 277.458281 
L 196.712951 277.21964 
L 196.534053 276.977487 
L 196.354019 276.727413 
L 196.172834 276.465085 
L 195.990484 276.199505 
L 195.806955 275.930719 
L 195.622229 275.650028 
L 195.436292 275.366313 
L 195.249128 275.070959 
L 195.06072 274.777079 
L 194.871052 274.471791 
L 194.680107 274.16381 
L 194.487867 273.848944 
L 194.294315 273.52731 
L 194.099432 273.199029 
L 193.903201 272.868393 
L 193.705603 272.531304 
L 193.506617 272.192006 
L 193.306226 271.842347 
L 193.104408 271.490674 
L 192.901144 271.132983 
L 192.696412 270.773423 
L 192.490191 270.404036 
L 192.282459 270.032975 
L 192.073194 269.656331 
L 191.862373 269.274228 
L 191.649973 268.886786 
L 191.43597 268.498 
L 191.220339 268.100216 
L 191.003056 267.701278 
L 190.784096 267.293633 
L 190.563431 266.885019 
L 190.341035 266.467988 
L 190.116882 266.046455 
L 189.890942 265.624227 
L 189.663188 265.194012 
L 189.433589 264.759643 
L 189.202116 264.317624 
L 188.968738 263.875315 
L 188.733423 263.425637 
L 188.496139 262.968781 
L 188.256853 262.511942 
L 188.01553 262.048198 
L 187.772136 261.57774 
L 187.526634 261.100756 
L 187.278988 260.620824 
L 187.02916 260.138046 
L 186.777112 259.645854 
L 186.522802 259.151129 
L 186.266192 258.650688 
L 186.007238 258.141462 
L 185.745897 257.630156 
L 185.482125 257.110474 
L 185.215876 256.589006 
L 184.947104 256.059564 
L 184.67576 255.522402 
L 184.401794 254.980853 
L 184.125155 254.435082 
L 183.84579 253.879203 
L 183.563646 253.319537 
L 183.278666 252.753273 
L 182.990792 252.180652 
L 182.699966 251.601909 
L 182.406127 251.014396 
L 182.10921 250.424133 
L 181.809152 249.822792 
L 181.505884 249.216355 
L 181.199337 248.602275 
L 180.88944 247.980855 
L 180.576119 247.352391 
L 180.259297 246.714497 
L 179.938895 246.070198 
L 179.614831 245.419775 
L 179.287021 244.758327 
L 178.955377 244.091422 
L 178.619807 243.414263 
L 178.280219 242.727287 
L 177.936515 242.033394 
L 177.588593 241.330476 
L 177.236349 240.61895 
L 176.879674 239.896839 
L 176.518456 239.164632 
L 176.152576 238.422809 
L 175.781913 237.671843 
L 175.406341 236.90993 
L 175.025728 236.137612 
L 174.639936 235.353212 
L 174.248823 234.559518 
L 173.852239 233.752743 
L 173.45003 232.93568 
L 173.042033 232.104726 
L 172.62808 231.262675 
L 172.207994 230.408134 
L 171.781591 229.54181 
L 171.348678 228.660454 
L 170.909052 227.764919 
L 170.462503 226.85604 
L 170.008809 225.932751 
L 169.547738 224.994083 
L 169.079045 224.039166 
L 168.602474 223.069016 
L 168.117757 222.082862 
L 167.624609 221.080025 
L 167.122733 220.059917 
L 166.611813 219.022037 
L 166.091518 217.965971 
L 165.561498 216.891388 
L 165.021381 215.796456 
L 164.470776 214.681091 
L 163.909267 213.545286 
L 163.336414 212.387611 
L 162.751748 211.208287 
L 162.154773 210.006164 
L 161.544959 208.778865 
L 160.921741 207.52843 
L 160.284517 206.252792 
L 159.632643 204.950164 
L 158.965429 203.621606 
L 158.282136 202.264434 
L 157.58197 200.878795 
L 156.864077 199.462568 
L 156.127535 198.015158 
L 155.371349 196.535056 
L 154.594444 195.022195 
L 153.795651 193.474543 
L 152.973701 191.890487 
L 152.127212 190.269842 
L 151.254674 188.608698 
L 150.354431 186.908694 
L 149.424666 185.164995 
L 148.463378 183.378208 
L 147.468354 181.544795 
L 146.43714 179.663747 
L 145.367002 177.732113 
L 144.254888 175.747783 
L 143.09737 173.707108 
L 141.89058 171.607503 
L 140.630138 169.445934 
L 139.31105 167.217726 
L 137.927592 164.919015 
L 136.473156 162.543574 
L 134.940065 160.086551 
L 133.319323 157.540345 
L 131.600295 154.895469 
L 129.770288 152.141918 
L 127.813976 149.266743 
L 125.712624 146.252483 
L 123.442991 143.077817 
L 120.975759 139.715076 
L 118.273213 136.125611 
L 115.285687 132.255773 
L 111.945916 128.02923 
L 108.159597 123.329404 
L 103.788612 117.965848 
L 98.618834 111.594302 
L 92.291538 103.486682 
L 84.134234 91.767222 
L 72.637159 70.616275 
L 52.982781 20.281818 
z
" style="fill:#1f77b4;"/>
   </g>
   <g id="matplotlib.axis_1">
    <g id="xtick_1">
     <g id="line2d_1">
      <defs>
       <path d="M 0 0 
L 0 3.5 
" id="m0790ad13e0" style="stroke:#000000;stroke-width:0.8;"/>
      </defs>
      <g>
       <use style="stroke:#000000;stroke-width:0.8;" x="52.982781" xlink:href="#m0790ad13e0" y="295"/>
      </g>
     </g>
     <g id="text_1">
      <!-- $\mathdefault{10^{0}}$ -->
      <defs>
       <path d="M 12.40625 8.296875 
L 28.515625 8.296875 
L 28.515625 63.921875 
L 10.984375 60.40625 
L 10.984375 69.390625 
L 28.421875 72.90625 
L 38.28125 72.90625 
L 38.28125 8.296875 
L 54.390625 8.296875 
L 54.390625 0 
L 12.40625 0 
z
" id="DejaVuSans-49"/>
       <path d="M 31.78125 66.40625 
Q 24.171875 66.40625 20.328125 58.90625 
Q 16.5 51.421875 16.5 36.375 
Q 16.5 21.390625 20.328125 13.890625 
Q 24.171875 6.390625 31.78125 6.390625 
Q 39.453125 6.390625 43.28125 13.890625 
Q 47.125 21.390625 47.125 36.375 
Q 47.125 51.421875 43.28125 58.90625 
Q 39.453125 66.40625 31.78125 66.40625 
z
M 31.78125 74.21875 
Q 44.046875 74.21875 50.515625 64.515625 
Q 56.984375 54.828125 56.984375 36.375 
Q 56.984375 17.96875 50.515625 8.265625 
Q 44.046875 -1.421875 31.78125 -1.421875 
Q 19.53125 -1.421875 13.0625 8.265625 
Q 6.59375 17.96875 6.59375 36.375 
Q 6.59375 54.828125 13.0625 64.515625 
Q 19.53125 74.21875 31.78125 74.21875 
z
" id="DejaVuSans-48"/>
      </defs>
      <g transform="translate(44.182781 309.598437)scale(0.1 -0.1)">
       <use transform="translate(0 0.765625)" xlink:href="#DejaVuSans-49"/>
       <use transform="translate(63.623047 0.765625)" xlink:href="#DejaVuSans-48"/>
       <use transform="translate(128.203125 39.046875)scale(0.7)" xlink:href="#DejaVuSans-48"/>
      </g>
     </g>
    </g>
    <g id="xtick_2">
     <g id="line2d_2">
      <g>
       <use style="stroke:#000000;stroke-width:0.8;" x="118.273213" xlink:href="#m0790ad13e0" y="295"/>
      </g>
     </g>
     <g id="text_2">
      <!-- $\mathdefault{10^{1}}$ -->
      <g transform="translate(109.473213 309.598437)scale(0.1 -0.1)">
       <use transform="translate(0 0.684375)" xlink:href="#DejaVuSans-49"/>
       <use transform="translate(63.623047 0.684375)" xlink:href="#DejaVuSans-48"/>
       <use transform="translate(128.203125 38.965625)scale(0.7)" xlink:href="#DejaVuSans-49"/>
      </g>
     </g>
    </g>
    <g id="xtick_3">
     <g id="line2d_3">
      <g>
       <use style="stroke:#000000;stroke-width:0.8;" x="183.563646" xlink:href="#m0790ad13e0" y="295"/>
      </g>
     </g>
     <g id="text_3">
      <!-- $\mathdefault{10^{2}}$ -->
      <defs>
       <path d="M 19.1875 8.296875 
L 53.609375 8.296875 
L 53.609375 0 
L 7.328125 0 
L 7.328125 8.296875 
Q 12.9375 14.109375 22.625 23.890625 
Q 32.328125 33.6875 34.8125 36.53125 
Q 39.546875 41.84375 41.421875 45.53125 
Q 43.3125 49.21875 43.3125 52.78125 
Q 43.3125 58.59375 39.234375 62.25 
Q 35.15625 65.921875 28.609375 65.921875 
Q 23.96875 65.921875 18.8125 64.3125 
Q 13.671875 62.703125 7.8125 59.421875 
L 7.8125 69.390625 
Q 13.765625 71.78125 18.9375 73 
Q 24.125 74.21875 28.421875 74.21875 
Q 39.75 74.21875 46.484375 68.546875 
Q 53.21875 62.890625 53.21875 53.421875 
Q 53.21875 48.921875 51.53125 44.890625 
Q 49.859375 40.875 45.40625 35.40625 
Q 44.1875 33.984375 37.640625 27.21875 
Q 31.109375 20.453125 19.1875 8.296875 
z
" id="DejaVuSans-50"/>
      </defs>
      <g transform="translate(174.763646 309.598437)scale(0.1 -0.1)">
       <use transform="translate(0 0.765625)" xlink:href="#DejaVuSans-49"/>
       <use transform="translate(63.623047 0.765625)" xlink:href="#DejaVuSans-48"/>
       <use transform="translate(128.203125 39.046875)scale(0.7)" xlink:href="#DejaVuSans-50"/>
      </g>
     </g>
    </g>
    <g id="xtick_4">
     <g id="line2d_4">
      <defs>
       <path d="M 0 0 
L 0 2 
" id="m9ceea2893c" style="stroke:#000000;stroke-width:0.6;"/>
      </defs>
      <g>
       <use style="stroke:#000000;stroke-width:0.6;" x="46.655484" xlink:href="#m9ceea2893c" y="295"/>
      </g>
     </g>
    </g>
    <g id="xtick_5">
     <g id="line2d_5">
      <g>
       <use style="stroke:#000000;stroke-width:0.6;" x="49.995254" xlink:href="#m9ceea2893c" y="295"/>
      </g>
     </g>
    </g>
    <g id="xtick_6">
     <g id="line2d_6">
      <g>
       <use style="stroke:#000000;stroke-width:0.6;" x="72.637159" xlink:href="#m9ceea2893c" y="295"/>
      </g>
     </g>
    </g>
    <g id="xtick_7">
     <g id="line2d_7">
      <g>
       <use style="stroke:#000000;stroke-width:0.6;" x="84.134234" xlink:href="#m9ceea2893c" y="295"/>
      </g>
     </g>
    </g>
    <g id="xtick_8">
     <g id="line2d_8">
      <g>
       <use style="stroke:#000000;stroke-width:0.6;" x="92.291538" xlink:href="#m9ceea2893c" y="295"/>
      </g>
     </g>
    </g>
    <g id="xtick_9">
     <g id="line2d_9">
      <g>
       <use style="stroke:#000000;stroke-width:0.6;" x="98.618834" xlink:href="#m9ceea2893c" y="295"/>
      </g>
     </g>
    </g>
    <g id="xtick_10">
     <g id="line2d_10">
      <g>
       <use style="stroke:#000000;stroke-width:0.6;" x="103.788612" xlink:href="#m9ceea2893c" y="295"/>
      </g>
     </g>
    </g>
    <g id="xtick_11">
     <g id="line2d_11">
      <g>
       <use style="stroke:#000000;stroke-width:0.6;" x="108.159597" xlink:href="#m9ceea2893c" y="295"/>
      </g>
     </g>
    </g>
    <g id="xtick_12">
     <g id="line2d_12">
      <g>
       <use style="stroke:#000000;stroke-width:0.6;" x="111.945916" xlink:href="#m9ceea2893c" y="295"/>
      </g>
     </g>
    </g>
    <g id="xtick_13">
     <g id="line2d_13">
      <g>
       <use style="stroke:#000000;stroke-width:0.6;" x="115.285687" xlink:href="#m9ceea2893c" y="295"/>
      </g>
     </g>
    </g>
    <g id="xtick_14">
     <g id="line2d_14">
      <g>
       <use style="stroke:#000000;stroke-width:0.6;" x="137.927592" xlink:href="#m9ceea2893c" y="295"/>
      </g>
     </g>
    </g>
    <g id="xtick_15">
     <g id="line2d_15">
      <g>
       <use style="stroke:#000000;stroke-width:0.6;" x="149.424666" xlink:href="#m9ceea2893c" y="295"/>
      </g>
     </g>
    </g>
    <g id="xtick_16">
     <g id="line2d_16">
      <g>
       <use style="stroke:#000000;stroke-width:0.6;" x="157.58197" xlink:href="#m9ceea2893c" y="295"/>
      </g>
     </g>
    </g>
    <g id="xtick_17">
     <g id="line2d_17">
      <g>
       <use style="stroke:#000000;stroke-width:0.6;" x="163.909267" xlink:href="#m9ceea2893c" y="295"/>
      </g>
     </g>
    </g>
    <g id="xtick_18">
     <g id="line2d_18">
      <g>
       <use style="stroke:#000000;stroke-width:0.6;" x="169.079045" xlink:href="#m9ceea2893c" y="295"/>
      </g>
     </g>
    </g>
    <g id="xtick_19">
     <g id="line2d_19">
      <g>
       <use style="stroke:#000000;stroke-width:0.6;" x="173.45003" xlink:href="#m9ceea2893c" y="295"/>
      </g>
     </g>
    </g>
    <g id="xtick_20">
     <g id="line2d_20">
      <g>
       <use style="stroke:#000000;stroke-width:0.6;" x="177.236349" xlink:href="#m9ceea2893c" y="295"/>
      </g>
     </g>
    </g>
    <g id="xtick_21">
     <g id="line2d_21">
      <g>
       <use style="stroke:#000000;stroke-width:0.6;" x="180.576119" xlink:href="#m9ceea2893c" y="295"/>
      </g>
     </g>
    </g>
    <g id="xtick_22">
     <g id="line2d_22">
      <g>
       <use style="stroke:#000000;stroke-width:0.6;" x="203.218024" xlink:href="#m9ceea2893c" y="295"/>
      </g>
     </g>
    </g>
    <g id="text_4">
     <!-- sample frequency -->
     <defs>
      <path d="M 44.28125 53.078125 
L 44.28125 44.578125 
Q 40.484375 46.53125 36.375 47.5 
Q 32.28125 48.484375 27.875 48.484375 
Q 21.1875 48.484375 17.84375 46.4375 
Q 14.5 44.390625 14.5 40.28125 
Q 14.5 37.15625 16.890625 35.375 
Q 19.28125 33.59375 26.515625 31.984375 
L 29.59375 31.296875 
Q 39.15625 29.25 43.1875 25.515625 
Q 47.21875 21.78125 47.21875 15.09375 
Q 47.21875 7.46875 41.1875 3.015625 
Q 35.15625 -1.421875 24.609375 -1.421875 
Q 20.21875 -1.421875 15.453125 -0.5625 
Q 10.6875 0.296875 5.421875 2 
L 5.421875 11.28125 
Q 10.40625 8.6875 15.234375 7.390625 
Q 20.0625 6.109375 24.8125 6.109375 
Q 31.15625 6.109375 34.5625 8.28125 
Q 37.984375 10.453125 37.984375 14.40625 
Q 37.984375 18.0625 35.515625 20.015625 
Q 33.0625 21.96875 24.703125 23.78125 
L 21.578125 24.515625 
Q 13.234375 26.265625 9.515625 29.90625 
Q 5.8125 33.546875 5.8125 39.890625 
Q 5.8125 47.609375 11.28125 51.796875 
Q 16.75 56 26.8125 56 
Q 31.78125 56 36.171875 55.265625 
Q 40.578125 54.546875 44.28125 53.078125 
z
" id="DejaVuSans-115"/>
      <path d="M 34.28125 27.484375 
Q 23.390625 27.484375 19.1875 25 
Q 14.984375 22.515625 14.984375 16.5 
Q 14.984375 11.71875 18.140625 8.90625 
Q 21.296875 6.109375 26.703125 6.109375 
Q 34.1875 6.109375 38.703125 11.40625 
Q 43.21875 16.703125 43.21875 25.484375 
L 43.21875 27.484375 
z
M 52.203125 31.203125 
L 52.203125 0 
L 43.21875 0 
L 43.21875 8.296875 
Q 40.140625 3.328125 35.546875 0.953125 
Q 30.953125 -1.421875 24.3125 -1.421875 
Q 15.921875 -1.421875 10.953125 3.296875 
Q 6 8.015625 6 15.921875 
Q 6 25.140625 12.171875 29.828125 
Q 18.359375 34.515625 30.609375 34.515625 
L 43.21875 34.515625 
L 43.21875 35.40625 
Q 43.21875 41.609375 39.140625 45 
Q 35.0625 48.390625 27.6875 48.390625 
Q 23 48.390625 18.546875 47.265625 
Q 14.109375 46.140625 10.015625 43.890625 
L 10.015625 52.203125 
Q 14.9375 54.109375 19.578125 55.046875 
Q 24.21875 56 28.609375 56 
Q 40.484375 56 46.34375 49.84375 
Q 52.203125 43.703125 52.203125 31.203125 
z
" id="DejaVuSans-97"/>
      <path d="M 52 44.1875 
Q 55.375 50.25 60.0625 53.125 
Q 64.75 56 71.09375 56 
Q 79.640625 56 84.28125 50.015625 
Q 88.921875 44.046875 88.921875 33.015625 
L 88.921875 0 
L 79.890625 0 
L 79.890625 32.71875 
Q 79.890625 40.578125 77.09375 44.375 
Q 74.3125 48.1875 68.609375 48.1875 
Q 61.625 48.1875 57.5625 43.546875 
Q 53.515625 38.921875 53.515625 30.90625 
L 53.515625 0 
L 44.484375 0 
L 44.484375 32.71875 
Q 44.484375 40.625 41.703125 44.40625 
Q 38.921875 48.1875 33.109375 48.1875 
Q 26.21875 48.1875 22.15625 43.53125 
Q 18.109375 38.875 18.109375 30.90625 
L 18.109375 0 
L 9.078125 0 
L 9.078125 54.6875 
L 18.109375 54.6875 
L 18.109375 46.1875 
Q 21.1875 51.21875 25.484375 53.609375 
Q 29.78125 56 35.6875 56 
Q 41.65625 56 45.828125 52.96875 
Q 50 49.953125 52 44.1875 
z
" id="DejaVuSans-109"/>
      <path d="M 18.109375 8.203125 
L 18.109375 -20.796875 
L 9.078125 -20.796875 
L 9.078125 54.6875 
L 18.109375 54.6875 
L 18.109375 46.390625 
Q 20.953125 51.265625 25.265625 53.625 
Q 29.59375 56 35.59375 56 
Q 45.5625 56 51.78125 48.09375 
Q 58.015625 40.1875 58.015625 27.296875 
Q 58.015625 14.40625 51.78125 6.484375 
Q 45.5625 -1.421875 35.59375 -1.421875 
Q 29.59375 -1.421875 25.265625 0.953125 
Q 20.953125 3.328125 18.109375 8.203125 
z
M 48.6875 27.296875 
Q 48.6875 37.203125 44.609375 42.84375 
Q 40.53125 48.484375 33.40625 48.484375 
Q 26.265625 48.484375 22.1875 42.84375 
Q 18.109375 37.203125 18.109375 27.296875 
Q 18.109375 17.390625 22.1875 11.75 
Q 26.265625 6.109375 33.40625 6.109375 
Q 40.53125 6.109375 44.609375 11.75 
Q 48.6875 17.390625 48.6875 27.296875 
z
" id="DejaVuSans-112"/>
      <path d="M 9.421875 75.984375 
L 18.40625 75.984375 
L 18.40625 0 
L 9.421875 0 
z
" id="DejaVuSans-108"/>
      <path d="M 56.203125 29.59375 
L 56.203125 25.203125 
L 14.890625 25.203125 
Q 15.484375 15.921875 20.484375 11.0625 
Q 25.484375 6.203125 34.421875 6.203125 
Q 39.59375 6.203125 44.453125 7.46875 
Q 49.3125 8.734375 54.109375 11.28125 
L 54.109375 2.78125 
Q 49.265625 0.734375 44.1875 -0.34375 
Q 39.109375 -1.421875 33.890625 -1.421875 
Q 20.796875 -1.421875 13.15625 6.1875 
Q 5.515625 13.8125 5.515625 26.8125 
Q 5.515625 40.234375 12.765625 48.109375 
Q 20.015625 56 32.328125 56 
Q 43.359375 56 49.78125 48.890625 
Q 56.203125 41.796875 56.203125 29.59375 
z
M 47.21875 32.234375 
Q 47.125 39.59375 43.09375 43.984375 
Q 39.0625 48.390625 32.421875 48.390625 
Q 24.90625 48.390625 20.390625 44.140625 
Q 15.875 39.890625 15.1875 32.171875 
z
" id="DejaVuSans-101"/>
      <path id="DejaVuSans-32"/>
      <path d="M 37.109375 75.984375 
L 37.109375 68.5 
L 28.515625 68.5 
Q 23.6875 68.5 21.796875 66.546875 
Q 19.921875 64.59375 19.921875 59.515625 
L 19.921875 54.6875 
L 34.71875 54.6875 
L 34.71875 47.703125 
L 19.921875 47.703125 
L 19.921875 0 
L 10.890625 0 
L 10.890625 47.703125 
L 2.296875 47.703125 
L 2.296875 54.6875 
L 10.890625 54.6875 
L 10.890625 58.5 
Q 10.890625 67.625 15.140625 71.796875 
Q 19.390625 75.984375 28.609375 75.984375 
z
" id="DejaVuSans-102"/>
      <path d="M 41.109375 46.296875 
Q 39.59375 47.171875 37.8125 47.578125 
Q 36.03125 48 33.890625 48 
Q 26.265625 48 22.1875 43.046875 
Q 18.109375 38.09375 18.109375 28.8125 
L 18.109375 0 
L 9.078125 0 
L 9.078125 54.6875 
L 18.109375 54.6875 
L 18.109375 46.1875 
Q 20.953125 51.171875 25.484375 53.578125 
Q 30.03125 56 36.53125 56 
Q 37.453125 56 38.578125 55.875 
Q 39.703125 55.765625 41.0625 55.515625 
z
" id="DejaVuSans-114"/>
      <path d="M 14.796875 27.296875 
Q 14.796875 17.390625 18.875 11.75 
Q 22.953125 6.109375 30.078125 6.109375 
Q 37.203125 6.109375 41.296875 11.75 
Q 45.40625 17.390625 45.40625 27.296875 
Q 45.40625 37.203125 41.296875 42.84375 
Q 37.203125 48.484375 30.078125 48.484375 
Q 22.953125 48.484375 18.875 42.84375 
Q 14.796875 37.203125 14.796875 27.296875 
z
M 45.40625 8.203125 
Q 42.578125 3.328125 38.25 0.953125 
Q 33.9375 -1.421875 27.875 -1.421875 
Q 17.96875 -1.421875 11.734375 6.484375 
Q 5.515625 14.40625 5.515625 27.296875 
Q 5.515625 40.1875 11.734375 48.09375 
Q 17.96875 56 27.875 56 
Q 33.9375 56 38.25 53.625 
Q 42.578125 51.265625 45.40625 46.390625 
L 45.40625 54.6875 
L 54.390625 54.6875 
L 54.390625 -20.796875 
L 45.40625 -20.796875 
z
" id="DejaVuSans-113"/>
      <path d="M 8.5 21.578125 
L 8.5 54.6875 
L 17.484375 54.6875 
L 17.484375 21.921875 
Q 17.484375 14.15625 20.5 10.265625 
Q 23.53125 6.390625 29.59375 6.390625 
Q 36.859375 6.390625 41.078125 11.03125 
Q 45.3125 15.671875 45.3125 23.6875 
L 45.3125 54.6875 
L 54.296875 54.6875 
L 54.296875 0 
L 45.3125 0 
L 45.3125 8.40625 
Q 42.046875 3.421875 37.71875 1 
Q 33.40625 -1.421875 27.6875 -1.421875 
Q 18.265625 -1.421875 13.375 4.4375 
Q 8.5 10.296875 8.5 21.578125 
z
M 31.109375 56 
z
" id="DejaVuSans-117"/>
      <path d="M 54.890625 33.015625 
L 54.890625 0 
L 45.90625 0 
L 45.90625 32.71875 
Q 45.90625 40.484375 42.875 44.328125 
Q 39.84375 48.1875 33.796875 48.1875 
Q 26.515625 48.1875 22.3125 43.546875 
Q 18.109375 38.921875 18.109375 30.90625 
L 18.109375 0 
L 9.078125 0 
L 9.078125 54.6875 
L 18.109375 54.6875 
L 18.109375 46.1875 
Q 21.34375 51.125 25.703125 53.5625 
Q 30.078125 56 35.796875 56 
Q 45.21875 56 50.046875 50.171875 
Q 54.890625 44.34375 54.890625 33.015625 
z
" id="DejaVuSans-110"/>
      <path d="M 48.78125 52.59375 
L 48.78125 44.1875 
Q 44.96875 46.296875 41.140625 47.34375 
Q 37.3125 48.390625 33.40625 48.390625 
Q 24.65625 48.390625 19.8125 42.84375 
Q 14.984375 37.3125 14.984375 27.296875 
Q 14.984375 17.28125 19.8125 11.734375 
Q 24.65625 6.203125 33.40625 6.203125 
Q 37.3125 6.203125 41.140625 7.25 
Q 44.96875 8.296875 48.78125 10.40625 
L 48.78125 2.09375 
Q 45.015625 0.34375 40.984375 -0.53125 
Q 36.96875 -1.421875 32.421875 -1.421875 
Q 20.0625 -1.421875 12.78125 6.34375 
Q 5.515625 14.109375 5.515625 27.296875 
Q 5.515625 40.671875 12.859375 48.328125 
Q 20.21875 56 33.015625 56 
Q 37.15625 56 41.109375 55.140625 
Q 45.0625 54.296875 48.78125 52.59375 
z
" id="DejaVuSans-99"/>
      <path d="M 32.171875 -5.078125 
Q 28.375 -14.84375 24.75 -17.8125 
Q 21.140625 -20.796875 15.09375 -20.796875 
L 7.90625 -20.796875 
L 7.90625 -13.28125 
L 13.1875 -13.28125 
Q 16.890625 -13.28125 18.9375 -11.515625 
Q 21 -9.765625 23.484375 -3.21875 
L 25.09375 0.875 
L 2.984375 54.6875 
L 12.5 54.6875 
L 29.59375 11.921875 
L 46.6875 54.6875 
L 56.203125 54.6875 
z
" id="DejaVuSans-121"/>
     </defs>
     <g transform="translate(83.184805 323.276563)scale(0.1 -0.1)">
      <use xlink:href="#DejaVuSans-115"/>
      <use x="52.099609" xlink:href="#DejaVuSans-97"/>
      <use x="113.378906" xlink:href="#DejaVuSans-109"/>
      <use x="210.791016" xlink:href="#DejaVuSans-112"/>
      <use x="274.267578" xlink:href="#DejaVuSans-108"/>
      <use x="302.050781" xlink:href="#DejaVuSans-101"/>
      <use x="363.574219" xlink:href="#DejaVuSans-32"/>
      <use x="395.361328" xlink:href="#DejaVuSans-102"/>
      <use x="430.566406" xlink:href="#DejaVuSans-114"/>
      <use x="469.429688" xlink:href="#DejaVuSans-101"/>
      <use x="530.953125" xlink:href="#DejaVuSans-113"/>
      <use x="594.429688" xlink:href="#DejaVuSans-117"/>
      <use x="657.808594" xlink:href="#DejaVuSans-101"/>
      <use x="719.332031" xlink:href="#DejaVuSans-110"/>
      <use x="782.710938" xlink:href="#DejaVuSans-99"/>
      <use x="837.691406" xlink:href="#DejaVuSans-121"/>
     </g>
    </g>
   </g>
   <g id="matplotlib.axis_2">
    <g id="ytick_1">
     <g id="line2d_23">
      <defs>
       <path d="M 0 0 
L -3.5 0 
" id="mfb90e8940d" style="stroke:#000000;stroke-width:0.8;"/>
      </defs>
      <g>
       <use style="stroke:#000000;stroke-width:0.8;" x="45.478125" xlink:href="#mfb90e8940d" y="293.154863"/>
      </g>
     </g>
     <g id="text_5">
      <!-- $\mathdefault{10^{4}}$ -->
      <defs>
       <path d="M 37.796875 64.3125 
L 12.890625 25.390625 
L 37.796875 25.390625 
z
M 35.203125 72.90625 
L 47.609375 72.90625 
L 47.609375 25.390625 
L 58.015625 25.390625 
L 58.015625 17.1875 
L 47.609375 17.1875 
L 47.609375 0 
L 37.796875 0 
L 37.796875 17.1875 
L 4.890625 17.1875 
L 4.890625 26.703125 
z
" id="DejaVuSans-52"/>
      </defs>
      <g transform="translate(20.878125 296.954082)scale(0.1 -0.1)">
       <use transform="translate(0 0.684375)" xlink:href="#DejaVuSans-49"/>
       <use transform="translate(63.623047 0.684375)" xlink:href="#DejaVuSans-48"/>
       <use transform="translate(128.203125 38.965625)scale(0.7)" xlink:href="#DejaVuSans-52"/>
      </g>
     </g>
    </g>
    <g id="ytick_2">
     <g id="line2d_24">
      <g>
       <use style="stroke:#000000;stroke-width:0.8;" x="45.478125" xlink:href="#mfb90e8940d" y="157.539756"/>
      </g>
     </g>
     <g id="text_6">
      <!-- $\mathdefault{10^{5}}$ -->
      <defs>
       <path d="M 10.796875 72.90625 
L 49.515625 72.90625 
L 49.515625 64.59375 
L 19.828125 64.59375 
L 19.828125 46.734375 
Q 21.96875 47.46875 24.109375 47.828125 
Q 26.265625 48.1875 28.421875 48.1875 
Q 40.625 48.1875 47.75 41.5 
Q 54.890625 34.8125 54.890625 23.390625 
Q 54.890625 11.625 47.5625 5.09375 
Q 40.234375 -1.421875 26.90625 -1.421875 
Q 22.3125 -1.421875 17.546875 -0.640625 
Q 12.796875 0.140625 7.71875 1.703125 
L 7.71875 11.625 
Q 12.109375 9.234375 16.796875 8.0625 
Q 21.484375 6.890625 26.703125 6.890625 
Q 35.15625 6.890625 40.078125 11.328125 
Q 45.015625 15.765625 45.015625 23.390625 
Q 45.015625 31 40.078125 35.4375 
Q 35.15625 39.890625 26.703125 39.890625 
Q 22.75 39.890625 18.8125 39.015625 
Q 14.890625 38.140625 10.796875 36.28125 
z
" id="DejaVuSans-53"/>
      </defs>
      <g transform="translate(20.878125 161.338975)scale(0.1 -0.1)">
       <use transform="translate(0 0.684375)" xlink:href="#DejaVuSans-49"/>
       <use transform="translate(63.623047 0.684375)" xlink:href="#DejaVuSans-48"/>
       <use transform="translate(128.203125 38.965625)scale(0.7)" xlink:href="#DejaVuSans-53"/>
      </g>
     </g>
    </g>
    <g id="ytick_3">
     <g id="line2d_25">
      <g>
       <use style="stroke:#000000;stroke-width:0.8;" x="45.478125" xlink:href="#mfb90e8940d" y="21.924649"/>
      </g>
     </g>
     <g id="text_7">
      <!-- $\mathdefault{10^{6}}$ -->
      <defs>
       <path d="M 33.015625 40.375 
Q 26.375 40.375 22.484375 35.828125 
Q 18.609375 31.296875 18.609375 23.390625 
Q 18.609375 15.53125 22.484375 10.953125 
Q 26.375 6.390625 33.015625 6.390625 
Q 39.65625 6.390625 43.53125 10.953125 
Q 47.40625 15.53125 47.40625 23.390625 
Q 47.40625 31.296875 43.53125 35.828125 
Q 39.65625 40.375 33.015625 40.375 
z
M 52.59375 71.296875 
L 52.59375 62.3125 
Q 48.875 64.0625 45.09375 64.984375 
Q 41.3125 65.921875 37.59375 65.921875 
Q 27.828125 65.921875 22.671875 59.328125 
Q 17.53125 52.734375 16.796875 39.40625 
Q 19.671875 43.65625 24.015625 45.921875 
Q 28.375 48.1875 33.59375 48.1875 
Q 44.578125 48.1875 50.953125 41.515625 
Q 57.328125 34.859375 57.328125 23.390625 
Q 57.328125 12.15625 50.6875 5.359375 
Q 44.046875 -1.421875 33.015625 -1.421875 
Q 20.359375 -1.421875 13.671875 8.265625 
Q 6.984375 17.96875 6.984375 36.375 
Q 6.984375 53.65625 15.1875 63.9375 
Q 23.390625 74.21875 37.203125 74.21875 
Q 40.921875 74.21875 44.703125 73.484375 
Q 48.484375 72.75 52.59375 71.296875 
z
" id="DejaVuSans-54"/>
      </defs>
      <g transform="translate(20.878125 25.723868)scale(0.1 -0.1)">
       <use transform="translate(0 0.765625)" xlink:href="#DejaVuSans-49"/>
       <use transform="translate(63.623047 0.765625)" xlink:href="#DejaVuSans-48"/>
       <use transform="translate(128.203125 39.046875)scale(0.7)" xlink:href="#DejaVuSans-54"/>
      </g>
     </g>
    </g>
    <g id="ytick_4">
     <g id="line2d_26">
      <defs>
       <path d="M 0 0 
L -2 0 
" id="m384b742c1f" style="stroke:#000000;stroke-width:0.6;"/>
      </defs>
      <g>
       <use style="stroke:#000000;stroke-width:0.6;" x="45.478125" xlink:href="#m384b742c1f" y="252.330648"/>
      </g>
     </g>
    </g>
    <g id="ytick_5">
     <g id="line2d_27">
      <g>
       <use style="stroke:#000000;stroke-width:0.6;" x="45.478125" xlink:href="#m384b742c1f" y="228.450013"/>
      </g>
     </g>
    </g>
    <g id="ytick_6">
     <g id="line2d_28">
      <g>
       <use style="stroke:#000000;stroke-width:0.6;" x="45.478125" xlink:href="#m384b742c1f" y="211.506433"/>
      </g>
     </g>
    </g>
    <g id="ytick_7">
     <g id="line2d_29">
      <g>
       <use style="stroke:#000000;stroke-width:0.6;" x="45.478125" xlink:href="#m384b742c1f" y="198.363971"/>
      </g>
     </g>
    </g>
    <g id="ytick_8">
     <g id="line2d_30">
      <g>
       <use style="stroke:#000000;stroke-width:0.6;" x="45.478125" xlink:href="#m384b742c1f" y="187.625798"/>
      </g>
     </g>
    </g>
    <g id="ytick_9">
     <g id="line2d_31">
      <g>
       <use style="stroke:#000000;stroke-width:0.6;" x="45.478125" xlink:href="#m384b742c1f" y="178.546802"/>
      </g>
     </g>
    </g>
    <g id="ytick_10">
     <g id="line2d_32">
      <g>
       <use style="stroke:#000000;stroke-width:0.6;" x="45.478125" xlink:href="#m384b742c1f" y="170.682218"/>
      </g>
     </g>
    </g>
    <g id="ytick_11">
     <g id="line2d_33">
      <g>
       <use style="stroke:#000000;stroke-width:0.6;" x="45.478125" xlink:href="#m384b742c1f" y="163.745163"/>
      </g>
     </g>
    </g>
    <g id="ytick_12">
     <g id="line2d_34">
      <g>
       <use style="stroke:#000000;stroke-width:0.6;" x="45.478125" xlink:href="#m384b742c1f" y="116.715541"/>
      </g>
     </g>
    </g>
    <g id="ytick_13">
     <g id="line2d_35">
      <g>
       <use style="stroke:#000000;stroke-width:0.6;" x="45.478125" xlink:href="#m384b742c1f" y="92.834906"/>
      </g>
     </g>
    </g>
    <g id="ytick_14">
     <g id="line2d_36">
      <g>
       <use style="stroke:#000000;stroke-width:0.6;" x="45.478125" xlink:href="#m384b742c1f" y="75.891326"/>
      </g>
     </g>
    </g>
    <g id="ytick_15">
     <g id="line2d_37">
      <g>
       <use style="stroke:#000000;stroke-width:0.6;" x="45.478125" xlink:href="#m384b742c1f" y="62.748864"/>
      </g>
     </g>
    </g>
    <g id="ytick_16">
     <g id="line2d_38">
      <g>
       <use style="stroke:#000000;stroke-width:0.6;" x="45.478125" xlink:href="#m384b742c1f" y="52.010691"/>
      </g>
     </g>
    </g>
    <g id="ytick_17">
     <g id="line2d_39">
      <g>
       <use style="stroke:#000000;stroke-width:0.6;" x="45.478125" xlink:href="#m384b742c1f" y="42.931695"/>
      </g>
     </g>
    </g>
    <g id="ytick_18">
     <g id="line2d_40">
      <g>
       <use style="stroke:#000000;stroke-width:0.6;" x="45.478125" xlink:href="#m384b742c1f" y="35.067111"/>
      </g>
     </g>
    </g>
    <g id="ytick_19">
     <g id="line2d_41">
      <g>
       <use style="stroke:#000000;stroke-width:0.6;" x="45.478125" xlink:href="#m384b742c1f" y="28.130056"/>
      </g>
     </g>
    </g>
    <g id="text_8">
     <!-- variant count -->
     <defs>
      <path d="M 2.984375 54.6875 
L 12.5 54.6875 
L 29.59375 8.796875 
L 46.6875 54.6875 
L 56.203125 54.6875 
L 35.6875 0 
L 23.484375 0 
z
" id="DejaVuSans-118"/>
      <path d="M 9.421875 54.6875 
L 18.40625 54.6875 
L 18.40625 0 
L 9.421875 0 
z
M 9.421875 75.984375 
L 18.40625 75.984375 
L 18.40625 64.59375 
L 9.421875 64.59375 
z
" id="DejaVuSans-105"/>
      <path d="M 18.3125 70.21875 
L 18.3125 54.6875 
L 36.8125 54.6875 
L 36.8125 47.703125 
L 18.3125 47.703125 
L 18.3125 18.015625 
Q 18.3125 11.328125 20.140625 9.421875 
Q 21.96875 7.515625 27.59375 7.515625 
L 36.8125 7.515625 
L 36.8125 0 
L 27.59375 0 
Q 17.1875 0 13.234375 3.875 
Q 9.28125 7.765625 9.28125 18.015625 
L 9.28125 47.703125 
L 2.6875 47.703125 
L 2.6875 54.6875 
L 9.28125 54.6875 
L 9.28125 70.21875 
z
" id="DejaVuSans-116"/>
      <path d="M 30.609375 48.390625 
Q 23.390625 48.390625 19.1875 42.75 
Q 14.984375 37.109375 14.984375 27.296875 
Q 14.984375 17.484375 19.15625 11.84375 
Q 23.34375 6.203125 30.609375 6.203125 
Q 37.796875 6.203125 41.984375 11.859375 
Q 46.1875 17.53125 46.1875 27.296875 
Q 46.1875 37.015625 41.984375 42.703125 
Q 37.796875 48.390625 30.609375 48.390625 
z
M 30.609375 56 
Q 42.328125 56 49.015625 48.375 
Q 55.71875 40.765625 55.71875 27.296875 
Q 55.71875 13.875 49.015625 6.21875 
Q 42.328125 -1.421875 30.609375 -1.421875 
Q 18.84375 -1.421875 12.171875 6.21875 
Q 5.515625 13.875 5.515625 27.296875 
Q 5.515625 40.765625 12.171875 48.375 
Q 18.84375 56 30.609375 56 
z
" id="DejaVuSans-111"/>
     </defs>
     <g transform="translate(14.798438 184.45625)rotate(-90)scale(0.1 -0.1)">
      <use xlink:href="#DejaVuSans-118"/>
      <use x="59.179688" xlink:href="#DejaVuSans-97"/>
      <use x="120.458984" xlink:href="#DejaVuSans-114"/>
      <use x="161.572266" xlink:href="#DejaVuSans-105"/>
      <use x="189.355469" xlink:href="#DejaVuSans-97"/>
      <use x="250.634766" xlink:href="#DejaVuSans-110"/>
      <use x="314.013672" xlink:href="#DejaVuSans-116"/>
      <use x="353.222656" xlink:href="#DejaVuSans-32"/>
      <use x="385.009766" xlink:href="#DejaVuSans-99"/>
      <use x="439.990234" xlink:href="#DejaVuSans-111"/>
      <use x="501.171875" xlink:href="#DejaVuSans-117"/>
      <use x="564.550781" xlink:href="#DejaVuSans-110"/>
      <use x="627.929688" xlink:href="#DejaVuSans-116"/>
     </g>
    </g>
   </g>
   <g id="line2d_42">
    <defs>
     <path d="M 0 1.5 
C 0.397805 1.5 0.77937 1.341951 1.06066 1.06066 
C 1.341951 0.77937 1.5 0.397805 1.5 0 
C 1.5 -0.397805 1.341951 -0.77937 1.06066 -1.06066 
C 0.77937 -1.341951 0.397805 -1.5 0 -1.5 
C -0.397805 -1.5 -0.77937 -1.341951 -1.06066 -1.06066 
C -1.341951 -0.77937 -1.5 -0.397805 -1.5 0 
C -1.5 0.397805 -1.341951 0.77937 -1.06066 1.06066 
C -0.77937 1.341951 -0.397805 1.5 0 1.5 
z
" id="m6de39d30e1" style="stroke:#1f77b4;"/>
    </defs>
    <g clip-path="url(#pcd3fd4b1ef)">
     <use style="fill:#1f77b4;stroke:#1f77b4;" x="52.982781" xlink:href="#m6de39d30e1" y="20.37032"/>
     <use style="fill:#1f77b4;stroke:#1f77b4;" x="72.637159" xlink:href="#m6de39d30e1" y="70.845589"/>
     <use style="fill:#1f77b4;stroke:#1f77b4;" x="84.134234" xlink:href="#m6de39d30e1" y="92.032334"/>
     <use style="fill:#1f77b4;stroke:#1f77b4;" x="92.291538" xlink:href="#m6de39d30e1" y="103.604185"/>
     <use style="fill:#1f77b4;stroke:#1f77b4;" x="98.618834" xlink:href="#m6de39d30e1" y="112.121183"/>
     <use style="fill:#1f77b4;stroke:#1f77b4;" x="103.788612" xlink:href="#m6de39d30e1" y="118.379093"/>
     <use style="fill:#1f77b4;stroke:#1f77b4;" x="108.159597" xlink:href="#m6de39d30e1" y="123.604173"/>
     <use style="fill:#1f77b4;stroke:#1f77b4;" x="111.945916" xlink:href="#m6de39d30e1" y="128.392194"/>
     <use style="fill:#1f77b4;stroke:#1f77b4;" x="115.285687" xlink:href="#m6de39d30e1" y="132.253473"/>
     <use style="fill:#1f77b4;stroke:#1f77b4;" x="118.273213" xlink:href="#m6de39d30e1" y="136.506801"/>
     <use style="fill:#1f77b4;stroke:#1f77b4;" x="120.975759" xlink:href="#m6de39d30e1" y="139.756432"/>
     <use style="fill:#1f77b4;stroke:#1f77b4;" x="123.442991" xlink:href="#m6de39d30e1" y="143.584033"/>
     <use style="fill:#1f77b4;stroke:#1f77b4;" x="125.712624" xlink:href="#m6de39d30e1" y="146.346405"/>
     <use style="fill:#1f77b4;stroke:#1f77b4;" x="127.813976" xlink:href="#m6de39d30e1" y="149.453328"/>
     <use style="fill:#1f77b4;stroke:#1f77b4;" x="129.770288" xlink:href="#m6de39d30e1" y="152.383162"/>
     <use style="fill:#1f77b4;stroke:#1f77b4;" x="131.600295" xlink:href="#m6de39d30e1" y="155.344285"/>
     <use style="fill:#1f77b4;stroke:#1f77b4;" x="133.319323" xlink:href="#m6de39d30e1" y="157.902498"/>
     <use style="fill:#1f77b4;stroke:#1f77b4;" x="134.940065" xlink:href="#m6de39d30e1" y="160.149314"/>
     <use style="fill:#1f77b4;stroke:#1f77b4;" x="136.473156" xlink:href="#m6de39d30e1" y="162.854087"/>
     <use style="fill:#1f77b4;stroke:#1f77b4;" x="137.927592" xlink:href="#m6de39d30e1" y="165.347154"/>
     <use style="fill:#1f77b4;stroke:#1f77b4;" x="139.31105" xlink:href="#m6de39d30e1" y="167.879488"/>
     <use style="fill:#1f77b4;stroke:#1f77b4;" x="140.630138" xlink:href="#m6de39d30e1" y="169.700246"/>
     <use style="fill:#1f77b4;stroke:#1f77b4;" x="141.89058" xlink:href="#m6de39d30e1" y="172.490593"/>
     <use style="fill:#1f77b4;stroke:#1f77b4;" x="143.09737" xlink:href="#m6de39d30e1" y="173.611085"/>
     <use style="fill:#1f77b4;stroke:#1f77b4;" x="144.254888" xlink:href="#m6de39d30e1" y="175.860217"/>
     <use style="fill:#1f77b4;stroke:#1f77b4;" x="145.367002" xlink:href="#m6de39d30e1" y="177.597834"/>
     <use style="fill:#1f77b4;stroke:#1f77b4;" x="146.43714" xlink:href="#m6de39d30e1" y="179.804544"/>
     <use style="fill:#1f77b4;stroke:#1f77b4;" x="147.468354" xlink:href="#m6de39d30e1" y="181.759433"/>
     <use style="fill:#1f77b4;stroke:#1f77b4;" x="148.463378" xlink:href="#m6de39d30e1" y="184.160612"/>
     <use style="fill:#1f77b4;stroke:#1f77b4;" x="149.424666" xlink:href="#m6de39d30e1" y="185.83534"/>
     <use style="fill:#1f77b4;stroke:#1f77b4;" x="150.354431" xlink:href="#m6de39d30e1" y="187.739775"/>
     <use style="fill:#1f77b4;stroke:#1f77b4;" x="151.254674" xlink:href="#m6de39d30e1" y="189.381308"/>
     <use style="fill:#1f77b4;stroke:#1f77b4;" x="152.127212" xlink:href="#m6de39d30e1" y="190.85487"/>
     <use style="fill:#1f77b4;stroke:#1f77b4;" x="152.973701" xlink:href="#m6de39d30e1" y="192.627478"/>
     <use style="fill:#1f77b4;stroke:#1f77b4;" x="153.795651" xlink:href="#m6de39d30e1" y="194.229558"/>
     <use style="fill:#1f77b4;stroke:#1f77b4;" x="154.594444" xlink:href="#m6de39d30e1" y="195.61279"/>
     <use style="fill:#1f77b4;stroke:#1f77b4;" x="155.371349" xlink:href="#m6de39d30e1" y="197.219604"/>
     <use style="fill:#1f77b4;stroke:#1f77b4;" x="156.127535" xlink:href="#m6de39d30e1" y="198.667482"/>
     <use style="fill:#1f77b4;stroke:#1f77b4;" x="156.864077" xlink:href="#m6de39d30e1" y="200.168854"/>
     <use style="fill:#1f77b4;stroke:#1f77b4;" x="157.58197" xlink:href="#m6de39d30e1" y="201.626027"/>
     <use style="fill:#1f77b4;stroke:#1f77b4;" x="158.282136" xlink:href="#m6de39d30e1" y="203.205789"/>
     <use style="fill:#1f77b4;stroke:#1f77b4;" x="158.965429" xlink:href="#m6de39d30e1" y="204.355122"/>
     <use style="fill:#1f77b4;stroke:#1f77b4;" x="159.632643" xlink:href="#m6de39d30e1" y="205.898314"/>
     <use style="fill:#1f77b4;stroke:#1f77b4;" x="160.284517" xlink:href="#m6de39d30e1" y="206.707054"/>
     <use style="fill:#1f77b4;stroke:#1f77b4;" x="160.921741" xlink:href="#m6de39d30e1" y="207.992677"/>
     <use style="fill:#1f77b4;stroke:#1f77b4;" x="161.544959" xlink:href="#m6de39d30e1" y="208.936524"/>
     <use style="fill:#1f77b4;stroke:#1f77b4;" x="162.154773" xlink:href="#m6de39d30e1" y="210.636794"/>
     <use style="fill:#1f77b4;stroke:#1f77b4;" x="162.751748" xlink:href="#m6de39d30e1" y="211.847548"/>
     <use style="fill:#1f77b4;stroke:#1f77b4;" x="163.336414" xlink:href="#m6de39d30e1" y="212.549251"/>
     <use style="fill:#1f77b4;stroke:#1f77b4;" x="163.909267" xlink:href="#m6de39d30e1" y="214.125842"/>
     <use style="fill:#1f77b4;stroke:#1f77b4;" x="164.470776" xlink:href="#m6de39d30e1" y="215.335828"/>
     <use style="fill:#1f77b4;stroke:#1f77b4;" x="165.021381" xlink:href="#m6de39d30e1" y="216.247946"/>
     <use style="fill:#1f77b4;stroke:#1f77b4;" x="165.561498" xlink:href="#m6de39d30e1" y="217.146858"/>
     <use style="fill:#1f77b4;stroke:#1f77b4;" x="166.091518" xlink:href="#m6de39d30e1" y="218.823306"/>
     <use style="fill:#1f77b4;stroke:#1f77b4;" x="166.611813" xlink:href="#m6de39d30e1" y="219.381114"/>
     <use style="fill:#1f77b4;stroke:#1f77b4;" x="167.122733" xlink:href="#m6de39d30e1" y="220.492249"/>
     <use style="fill:#1f77b4;stroke:#1f77b4;" x="167.624609" xlink:href="#m6de39d30e1" y="221.661478"/>
     <use style="fill:#1f77b4;stroke:#1f77b4;" x="168.117757" xlink:href="#m6de39d30e1" y="223.058266"/>
     <use style="fill:#1f77b4;stroke:#1f77b4;" x="168.602474" xlink:href="#m6de39d30e1" y="223.101277"/>
     <use style="fill:#1f77b4;stroke:#1f77b4;" x="169.079045" xlink:href="#m6de39d30e1" y="224.39728"/>
     <use style="fill:#1f77b4;stroke:#1f77b4;" x="169.547738" xlink:href="#m6de39d30e1" y="225.380427"/>
     <use style="fill:#1f77b4;stroke:#1f77b4;" x="170.008809" xlink:href="#m6de39d30e1" y="226.617672"/>
     <use style="fill:#1f77b4;stroke:#1f77b4;" x="170.462503" xlink:href="#m6de39d30e1" y="227.799859"/>
     <use style="fill:#1f77b4;stroke:#1f77b4;" x="170.909052" xlink:href="#m6de39d30e1" y="227.904803"/>
     <use style="fill:#1f77b4;stroke:#1f77b4;" x="171.348678" xlink:href="#m6de39d30e1" y="228.97258"/>
     <use style="fill:#1f77b4;stroke:#1f77b4;" x="171.781591" xlink:href="#m6de39d30e1" y="230.75418"/>
     <use style="fill:#1f77b4;stroke:#1f77b4;" x="172.207994" xlink:href="#m6de39d30e1" y="230.613481"/>
     <use style="fill:#1f77b4;stroke:#1f77b4;" x="172.62808" xlink:href="#m6de39d30e1" y="232.389505"/>
     <use style="fill:#1f77b4;stroke:#1f77b4;" x="173.042033" xlink:href="#m6de39d30e1" y="232.785452"/>
     <use style="fill:#1f77b4;stroke:#1f77b4;" x="173.45003" xlink:href="#m6de39d30e1" y="233.647576"/>
     <use style="fill:#1f77b4;stroke:#1f77b4;" x="173.852239" xlink:href="#m6de39d30e1" y="234.268411"/>
     <use style="fill:#1f77b4;stroke:#1f77b4;" x="174.248823" xlink:href="#m6de39d30e1" y="235.198899"/>
     <use style="fill:#1f77b4;stroke:#1f77b4;" x="174.639936" xlink:href="#m6de39d30e1" y="236.213717"/>
     <use style="fill:#1f77b4;stroke:#1f77b4;" x="175.025728" xlink:href="#m6de39d30e1" y="237.168878"/>
     <use style="fill:#1f77b4;stroke:#1f77b4;" x="175.406341" xlink:href="#m6de39d30e1" y="237.911112"/>
     <use style="fill:#1f77b4;stroke:#1f77b4;" x="175.781913" xlink:href="#m6de39d30e1" y="239.030554"/>
     <use style="fill:#1f77b4;stroke:#1f77b4;" x="176.152576" xlink:href="#m6de39d30e1" y="238.700191"/>
     <use style="fill:#1f77b4;stroke:#1f77b4;" x="176.518456" xlink:href="#m6de39d30e1" y="239.43844"/>
     <use style="fill:#1f77b4;stroke:#1f77b4;" x="176.879674" xlink:href="#m6de39d30e1" y="240.387679"/>
     <use style="fill:#1f77b4;stroke:#1f77b4;" x="177.236349" xlink:href="#m6de39d30e1" y="241.747282"/>
     <use style="fill:#1f77b4;stroke:#1f77b4;" x="177.588593" xlink:href="#m6de39d30e1" y="242.447752"/>
     <use style="fill:#1f77b4;stroke:#1f77b4;" x="177.936515" xlink:href="#m6de39d30e1" y="242.276196"/>
     <use style="fill:#1f77b4;stroke:#1f77b4;" x="178.280219" xlink:href="#m6de39d30e1" y="243.825741"/>
     <use style="fill:#1f77b4;stroke:#1f77b4;" x="178.619807" xlink:href="#m6de39d30e1" y="244.706559"/>
     <use style="fill:#1f77b4;stroke:#1f77b4;" x="178.955377" xlink:href="#m6de39d30e1" y="244.569592"/>
     <use style="fill:#1f77b4;stroke:#1f77b4;" x="179.287021" xlink:href="#m6de39d30e1" y="245.325574"/>
     <use style="fill:#1f77b4;stroke:#1f77b4;" x="179.614831" xlink:href="#m6de39d30e1" y="245.877219"/>
     <use style="fill:#1f77b4;stroke:#1f77b4;" x="179.938895" xlink:href="#m6de39d30e1" y="246.165599"/>
     <use style="fill:#1f77b4;stroke:#1f77b4;" x="180.259297" xlink:href="#m6de39d30e1" y="247.656263"/>
     <use style="fill:#1f77b4;stroke:#1f77b4;" x="180.576119" xlink:href="#m6de39d30e1" y="247.825155"/>
     <use style="fill:#1f77b4;stroke:#1f77b4;" x="180.88944" xlink:href="#m6de39d30e1" y="248.776678"/>
     <use style="fill:#1f77b4;stroke:#1f77b4;" x="181.199337" xlink:href="#m6de39d30e1" y="250.19365"/>
     <use style="fill:#1f77b4;stroke:#1f77b4;" x="181.505884" xlink:href="#m6de39d30e1" y="249.865138"/>
     <use style="fill:#1f77b4;stroke:#1f77b4;" x="181.809152" xlink:href="#m6de39d30e1" y="250.604023"/>
     <use style="fill:#1f77b4;stroke:#1f77b4;" x="182.10921" xlink:href="#m6de39d30e1" y="251.060491"/>
     <use style="fill:#1f77b4;stroke:#1f77b4;" x="182.406127" xlink:href="#m6de39d30e1" y="251.674669"/>
     <use style="fill:#1f77b4;stroke:#1f77b4;" x="182.699966" xlink:href="#m6de39d30e1" y="251.552483"/>
     <use style="fill:#1f77b4;stroke:#1f77b4;" x="182.990792" xlink:href="#m6de39d30e1" y="253.352488"/>
     <use style="fill:#1f77b4;stroke:#1f77b4;" x="183.278666" xlink:href="#m6de39d30e1" y="254.106388"/>
     <use style="fill:#1f77b4;stroke:#1f77b4;" x="183.563646" xlink:href="#m6de39d30e1" y="254.085147"/>
     <use style="fill:#1f77b4;stroke:#1f77b4;" x="183.84579" xlink:href="#m6de39d30e1" y="253.51151"/>
     <use style="fill:#1f77b4;stroke:#1f77b4;" x="184.125155" xlink:href="#m6de39d30e1" y="255.218521"/>
     <use style="fill:#1f77b4;stroke:#1f77b4;" x="184.401794" xlink:href="#m6de39d30e1" y="256.576345"/>
     <use style="fill:#1f77b4;stroke:#1f77b4;" x="184.67576" xlink:href="#m6de39d30e1" y="256.336297"/>
     <use style="fill:#1f77b4;stroke:#1f77b4;" x="184.947104" xlink:href="#m6de39d30e1" y="256.522565"/>
     <use style="fill:#1f77b4;stroke:#1f77b4;" x="185.215876" xlink:href="#m6de39d30e1" y="257.998626"/>
     <use style="fill:#1f77b4;stroke:#1f77b4;" x="185.482125" xlink:href="#m6de39d30e1" y="258.167469"/>
     <use style="fill:#1f77b4;stroke:#1f77b4;" x="185.745897" xlink:href="#m6de39d30e1" y="259.260341"/>
     <use style="fill:#1f77b4;stroke:#1f77b4;" x="186.007238" xlink:href="#m6de39d30e1" y="258.598257"/>
     <use style="fill:#1f77b4;stroke:#1f77b4;" x="186.266192" xlink:href="#m6de39d30e1" y="259.54591"/>
     <use style="fill:#1f77b4;stroke:#1f77b4;" x="186.522802" xlink:href="#m6de39d30e1" y="260.286172"/>
     <use style="fill:#1f77b4;stroke:#1f77b4;" x="186.777112" xlink:href="#m6de39d30e1" y="261.354209"/>
     <use style="fill:#1f77b4;stroke:#1f77b4;" x="187.02916" xlink:href="#m6de39d30e1" y="260.303028"/>
     <use style="fill:#1f77b4;stroke:#1f77b4;" x="187.278988" xlink:href="#m6de39d30e1" y="261.59497"/>
     <use style="fill:#1f77b4;stroke:#1f77b4;" x="187.526634" xlink:href="#m6de39d30e1" y="262.522444"/>
     <use style="fill:#1f77b4;stroke:#1f77b4;" x="187.772136" xlink:href="#m6de39d30e1" y="262.08989"/>
     <use style="fill:#1f77b4;stroke:#1f77b4;" x="188.01553" xlink:href="#m6de39d30e1" y="262.947618"/>
     <use style="fill:#1f77b4;stroke:#1f77b4;" x="188.256853" xlink:href="#m6de39d30e1" y="263.283597"/>
     <use style="fill:#1f77b4;stroke:#1f77b4;" x="188.496139" xlink:href="#m6de39d30e1" y="264.748733"/>
     <use style="fill:#1f77b4;stroke:#1f77b4;" x="188.733423" xlink:href="#m6de39d30e1" y="263.886064"/>
     <use style="fill:#1f77b4;stroke:#1f77b4;" x="188.968738" xlink:href="#m6de39d30e1" y="265.058612"/>
     <use style="fill:#1f77b4;stroke:#1f77b4;" x="189.202116" xlink:href="#m6de39d30e1" y="265.432632"/>
     <use style="fill:#1f77b4;stroke:#1f77b4;" x="189.433589" xlink:href="#m6de39d30e1" y="266.020441"/>
     <use style="fill:#1f77b4;stroke:#1f77b4;" x="189.663188" xlink:href="#m6de39d30e1" y="265.942469"/>
     <use style="fill:#1f77b4;stroke:#1f77b4;" x="189.890942" xlink:href="#m6de39d30e1" y="266.96425"/>
     <use style="fill:#1f77b4;stroke:#1f77b4;" x="190.116882" xlink:href="#m6de39d30e1" y="267.119247"/>
     <use style="fill:#1f77b4;stroke:#1f77b4;" x="190.341035" xlink:href="#m6de39d30e1" y="267.320215"/>
     <use style="fill:#1f77b4;stroke:#1f77b4;" x="190.563431" xlink:href="#m6de39d30e1" y="267.548557"/>
     <use style="fill:#1f77b4;stroke:#1f77b4;" x="190.784096" xlink:href="#m6de39d30e1" y="267.697455"/>
     <use style="fill:#1f77b4;stroke:#1f77b4;" x="191.003056" xlink:href="#m6de39d30e1" y="269.337085"/>
     <use style="fill:#1f77b4;stroke:#1f77b4;" x="191.220339" xlink:href="#m6de39d30e1" y="267.938781"/>
     <use style="fill:#1f77b4;stroke:#1f77b4;" x="191.43597" xlink:href="#m6de39d30e1" y="269.19183"/>
     <use style="fill:#1f77b4;stroke:#1f77b4;" x="191.649973" xlink:href="#m6de39d30e1" y="270.272102"/>
     <use style="fill:#1f77b4;stroke:#1f77b4;" x="191.862373" xlink:href="#m6de39d30e1" y="269.723554"/>
     <use style="fill:#1f77b4;stroke:#1f77b4;" x="192.073194" xlink:href="#m6de39d30e1" y="271.437696"/>
     <use style="fill:#1f77b4;stroke:#1f77b4;" x="192.282459" xlink:href="#m6de39d30e1" y="271.421405"/>
     <use style="fill:#1f77b4;stroke:#1f77b4;" x="192.490191" xlink:href="#m6de39d30e1" y="271.560024"/>
     <use style="fill:#1f77b4;stroke:#1f77b4;" x="192.696412" xlink:href="#m6de39d30e1" y="271.633543"/>
     <use style="fill:#1f77b4;stroke:#1f77b4;" x="192.901144" xlink:href="#m6de39d30e1" y="272.060126"/>
     <use style="fill:#1f77b4;stroke:#1f77b4;" x="193.104408" xlink:href="#m6de39d30e1" y="272.394522"/>
     <use style="fill:#1f77b4;stroke:#1f77b4;" x="193.306226" xlink:href="#m6de39d30e1" y="273.224216"/>
     <use style="fill:#1f77b4;stroke:#1f77b4;" x="193.506617" xlink:href="#m6de39d30e1" y="273.666751"/>
     <use style="fill:#1f77b4;stroke:#1f77b4;" x="193.705603" xlink:href="#m6de39d30e1" y="272.568663"/>
     <use style="fill:#1f77b4;stroke:#1f77b4;" x="193.903201" xlink:href="#m6de39d30e1" y="273.967884"/>
     <use style="fill:#1f77b4;stroke:#1f77b4;" x="194.099432" xlink:href="#m6de39d30e1" y="274.394644"/>
     <use style="fill:#1f77b4;stroke:#1f77b4;" x="194.294315" xlink:href="#m6de39d30e1" y="274.54045"/>
     <use style="fill:#1f77b4;stroke:#1f77b4;" x="194.487867" xlink:href="#m6de39d30e1" y="274.437491"/>
     <use style="fill:#1f77b4;stroke:#1f77b4;" x="194.680107" xlink:href="#m6de39d30e1" y="275.628155"/>
     <use style="fill:#1f77b4;stroke:#1f77b4;" x="194.871052" xlink:href="#m6de39d30e1" y="274.377515"/>
     <use style="fill:#1f77b4;stroke:#1f77b4;" x="195.06072" xlink:href="#m6de39d30e1" y="276.274631"/>
     <use style="fill:#1f77b4;stroke:#1f77b4;" x="195.249128" xlink:href="#m6de39d30e1" y="276.584989"/>
     <use style="fill:#1f77b4;stroke:#1f77b4;" x="195.436292" xlink:href="#m6de39d30e1" y="276.190672"/>
     <use style="fill:#1f77b4;stroke:#1f77b4;" x="195.622229" xlink:href="#m6de39d30e1" y="276.90146"/>
     <use style="fill:#1f77b4;stroke:#1f77b4;" x="195.806955" xlink:href="#m6de39d30e1" y="277.354601"/>
     <use style="fill:#1f77b4;stroke:#1f77b4;" x="195.990484" xlink:href="#m6de39d30e1" y="277.278085"/>
     <use style="fill:#1f77b4;stroke:#1f77b4;" x="196.172834" xlink:href="#m6de39d30e1" y="277.323083"/>
     <use style="fill:#1f77b4;stroke:#1f77b4;" x="196.354019" xlink:href="#m6de39d30e1" y="277.332086"/>
     <use style="fill:#1f77b4;stroke:#1f77b4;" x="196.534053" xlink:href="#m6de39d30e1" y="277.693363"/>
     <use style="fill:#1f77b4;stroke:#1f77b4;" x="196.712951" xlink:href="#m6de39d30e1" y="278.020417"/>
     <use style="fill:#1f77b4;stroke:#1f77b4;" x="196.890728" xlink:href="#m6de39d30e1" y="278.61097"/>
     <use style="fill:#1f77b4;stroke:#1f77b4;" x="197.067396" xlink:href="#m6de39d30e1" y="278.30351"/>
     <use style="fill:#1f77b4;stroke:#1f77b4;" x="197.242972" xlink:href="#m6de39d30e1" y="279.417028"/>
     <use style="fill:#1f77b4;stroke:#1f77b4;" x="197.417466" xlink:href="#m6de39d30e1" y="279.46369"/>
     <use style="fill:#1f77b4;stroke:#1f77b4;" x="197.590893" xlink:href="#m6de39d30e1" y="278.601769"/>
     <use style="fill:#1f77b4;stroke:#1f77b4;" x="197.763266" xlink:href="#m6de39d30e1" y="279.730372"/>
     <use style="fill:#1f77b4;stroke:#1f77b4;" x="197.934598" xlink:href="#m6de39d30e1" y="279.286571"/>
     <use style="fill:#1f77b4;stroke:#1f77b4;" x="198.1049" xlink:href="#m6de39d30e1" y="280.976738"/>
     <use style="fill:#1f77b4;stroke:#1f77b4;" x="198.274186" xlink:href="#m6de39d30e1" y="280.172819"/>
     <use style="fill:#1f77b4;stroke:#1f77b4;" x="198.442467" xlink:href="#m6de39d30e1" y="280.590058"/>
     <use style="fill:#1f77b4;stroke:#1f77b4;" x="198.609755" xlink:href="#m6de39d30e1" y="279.501046"/>
     <use style="fill:#1f77b4;stroke:#1f77b4;" x="198.776062" xlink:href="#m6de39d30e1" y="280.704366"/>
     <use style="fill:#1f77b4;stroke:#1f77b4;" x="198.9414" xlink:href="#m6de39d30e1" y="281.163827"/>
     <use style="fill:#1f77b4;stroke:#1f77b4;" x="199.105779" xlink:href="#m6de39d30e1" y="281.168632"/>
     <use style="fill:#1f77b4;stroke:#1f77b4;" x="199.26921" xlink:href="#m6de39d30e1" y="281.187856"/>
     <use style="fill:#1f77b4;stroke:#1f77b4;" x="199.431705" xlink:href="#m6de39d30e1" y="280.414268"/>
     <use style="fill:#1f77b4;stroke:#1f77b4;" x="199.593274" xlink:href="#m6de39d30e1" y="281.000691"/>
     <use style="fill:#1f77b4;stroke:#1f77b4;" x="199.753927" xlink:href="#m6de39d30e1" y="280.790242"/>
     <use style="fill:#1f77b4;stroke:#1f77b4;" x="199.913676" xlink:href="#m6de39d30e1" y="280.785468"/>
     <use style="fill:#1f77b4;stroke:#1f77b4;" x="200.072529" xlink:href="#m6de39d30e1" y="279.894725"/>
     <use style="fill:#1f77b4;stroke:#1f77b4;" x="200.230498" xlink:href="#m6de39d30e1" y="280.780694"/>
     <use style="fill:#1f77b4;stroke:#1f77b4;" x="200.387591" xlink:href="#m6de39d30e1" y="280.766375"/>
     <use style="fill:#1f77b4;stroke:#1f77b4;" x="200.543819" xlink:href="#m6de39d30e1" y="280.404781"/>
     <use style="fill:#1f77b4;stroke:#1f77b4;" x="200.699191" xlink:href="#m6de39d30e1" y="280.092555"/>
     <use style="fill:#1f77b4;stroke:#1f77b4;" x="200.853716" xlink:href="#m6de39d30e1" y="280.172819"/>
     <use style="fill:#1f77b4;stroke:#1f77b4;" x="201.007403" xlink:href="#m6de39d30e1" y="280.002978"/>
     <use style="fill:#1f77b4;stroke:#1f77b4;" x="201.160262" xlink:href="#m6de39d30e1" y="280.182269"/>
     <use style="fill:#1f77b4;stroke:#1f77b4;" x="201.312302" xlink:href="#m6de39d30e1" y="279.998268"/>
     <use style="fill:#1f77b4;stroke:#1f77b4;" x="201.46353" xlink:href="#m6de39d30e1" y="279.188917"/>
     <use style="fill:#1f77b4;stroke:#1f77b4;" x="201.613956" xlink:href="#m6de39d30e1" y="278.730717"/>
     <use style="fill:#1f77b4;stroke:#1f77b4;" x="201.763589" xlink:href="#m6de39d30e1" y="277.906651"/>
     <use style="fill:#1f77b4;stroke:#1f77b4;" x="201.912436" xlink:href="#m6de39d30e1" y="276.937225"/>
     <use style="fill:#1f77b4;stroke:#1f77b4;" x="202.060505" xlink:href="#m6de39d30e1" y="276.789832"/>
     <use style="fill:#1f77b4;stroke:#1f77b4;" x="202.207806" xlink:href="#m6de39d30e1" y="275.794592"/>
     <use style="fill:#1f77b4;stroke:#1f77b4;" x="202.354345" xlink:href="#m6de39d30e1" y="274.463214"/>
     <use style="fill:#1f77b4;stroke:#1f77b4;" x="202.500131" xlink:href="#m6de39d30e1" y="271.92854"/>
     <use style="fill:#1f77b4;stroke:#1f77b4;" x="202.645171" xlink:href="#m6de39d30e1" y="269.652379"/>
     <use style="fill:#1f77b4;stroke:#1f77b4;" x="202.789473" xlink:href="#m6de39d30e1" y="265.705474"/>
     <use style="fill:#1f77b4;stroke:#1f77b4;" x="202.933044" xlink:href="#m6de39d30e1" y="257.639823"/>
     <use style="fill:#1f77b4;stroke:#1f77b4;" x="203.075892" xlink:href="#m6de39d30e1" y="227.45332"/>
    </g>
   </g>
   <g id="line2d_43">
    <path clip-path="url(#pcd3fd4b1ef)" d="M 52.982781 20.395666 
L 72.637159 70.790827 
L 84.134234 91.976228 
L 92.291538 103.717583 
L 98.618834 111.841696 
L 115.285687 132.550517 
L 120.975759 140.029069 
L 125.712624 146.584254 
L 129.770288 152.490932 
L 134.940065 160.460011 
L 139.31105 167.614333 
L 144.254888 176.173868 
L 149.424666 185.627295 
L 155.371349 197.044039 
L 162.751748 211.784424 
L 189.663188 266.105188 
L 193.306226 272.808345 
L 195.622229 276.646833 
L 197.242972 278.921221 
L 198.274186 280.048696 
L 199.105779 280.663046 
L 199.753927 280.868179 
L 200.230498 280.80053 
L 200.699191 280.481476 
L 201.160262 279.820229 
L 201.613956 278.653341 
L 202.060505 276.623535 
L 202.354345 274.332993 
L 202.645171 270.151305 
L 202.789473 266.015505 
L 202.933044 256.930996 
L 203.075892 227.463488 
L 203.075892 227.463488 
" style="fill:none;stroke:#ff7f0e;stroke-linecap:square;stroke-width:1.5;"/>
   </g>
   <g id="patch_3">
    <path d="M 45.478125 295 
L 45.478125 7.2 
" style="fill:none;stroke:#000000;stroke-linecap:square;stroke-linejoin:miter;stroke-width:0.8;"/>
   </g>
   <g id="patch_4">
    <path d="M 210.580548 295 
L 210.580548 7.2 
" style="fill:none;stroke:#000000;stroke-linecap:square;stroke-linejoin:miter;stroke-width:0.8;"/>
   </g>
   <g id="patch_5">
    <path d="M 45.478125 295 
L 210.580548 295 
" style="fill:none;stroke:#000000;stroke-linecap:square;stroke-linejoin:miter;stroke-width:0.8;"/>
   </g>
   <g id="patch_6">
    <path d="M 45.478125 7.2 
L 210.580548 7.2 
" style="fill:none;stroke:#000000;stroke-linecap:square;stroke-linejoin:miter;stroke-width:0.8;"/>
   </g>
  </g>
  <g id="axes_2">
   <g id="patch_7">
    <path d="M 280.438203 295 
L 445.540626 295 
L 445.540626 7.2 
L 280.438203 7.2 
z
" style="fill:#ffffff;"/>
   </g>
   <g id="matplotlib.axis_3">
    <g id="xtick_23">
     <g id="line2d_44">
      <g>
       <use style="stroke:#000000;stroke-width:0.8;" x="315.372975" xlink:href="#m0790ad13e0" y="295"/>
      </g>
     </g>
     <g id="text_9">
      <!-- $\mathdefault{10^{1}}$ -->
      <g transform="translate(306.572975 309.598437)scale(0.1 -0.1)">
       <use transform="translate(0 0.684375)" xlink:href="#DejaVuSans-49"/>
       <use transform="translate(63.623047 0.684375)" xlink:href="#DejaVuSans-48"/>
       <use transform="translate(128.203125 38.965625)scale(0.7)" xlink:href="#DejaVuSans-49"/>
      </g>
     </g>
    </g>
    <g id="xtick_24">
     <g id="line2d_45">
      <g>
       <use style="stroke:#000000;stroke-width:0.8;" x="370.233207" xlink:href="#m0790ad13e0" y="295"/>
      </g>
     </g>
     <g id="text_10">
      <!-- $\mathdefault{10^{3}}$ -->
      <defs>
       <path d="M 40.578125 39.3125 
Q 47.65625 37.796875 51.625 33 
Q 55.609375 28.21875 55.609375 21.1875 
Q 55.609375 10.40625 48.1875 4.484375 
Q 40.765625 -1.421875 27.09375 -1.421875 
Q 22.515625 -1.421875 17.65625 -0.515625 
Q 12.796875 0.390625 7.625 2.203125 
L 7.625 11.71875 
Q 11.71875 9.328125 16.59375 8.109375 
Q 21.484375 6.890625 26.8125 6.890625 
Q 36.078125 6.890625 40.9375 10.546875 
Q 45.796875 14.203125 45.796875 21.1875 
Q 45.796875 27.640625 41.28125 31.265625 
Q 36.765625 34.90625 28.71875 34.90625 
L 20.21875 34.90625 
L 20.21875 43.015625 
L 29.109375 43.015625 
Q 36.375 43.015625 40.234375 45.921875 
Q 44.09375 48.828125 44.09375 54.296875 
Q 44.09375 59.90625 40.109375 62.90625 
Q 36.140625 65.921875 28.71875 65.921875 
Q 24.65625 65.921875 20.015625 65.03125 
Q 15.375 64.15625 9.8125 62.3125 
L 9.8125 71.09375 
Q 15.4375 72.65625 20.34375 73.4375 
Q 25.25 74.21875 29.59375 74.21875 
Q 40.828125 74.21875 47.359375 69.109375 
Q 53.90625 64.015625 53.90625 55.328125 
Q 53.90625 49.265625 50.4375 45.09375 
Q 46.96875 40.921875 40.578125 39.3125 
z
" id="DejaVuSans-51"/>
      </defs>
      <g transform="translate(361.433207 309.598437)scale(0.1 -0.1)">
       <use transform="translate(0 0.765625)" xlink:href="#DejaVuSans-49"/>
       <use transform="translate(63.623047 0.765625)" xlink:href="#DejaVuSans-48"/>
       <use transform="translate(128.203125 39.046875)scale(0.7)" xlink:href="#DejaVuSans-51"/>
      </g>
     </g>
    </g>
    <g id="xtick_25">
     <g id="line2d_46">
      <g>
       <use style="stroke:#000000;stroke-width:0.8;" x="425.093439" xlink:href="#m0790ad13e0" y="295"/>
      </g>
     </g>
     <g id="text_11">
      <!-- $\mathdefault{10^{5}}$ -->
      <g transform="translate(416.293439 309.598437)scale(0.1 -0.1)">
       <use transform="translate(0 0.684375)" xlink:href="#DejaVuSans-49"/>
       <use transform="translate(63.623047 0.684375)" xlink:href="#DejaVuSans-48"/>
       <use transform="translate(128.203125 38.965625)scale(0.7)" xlink:href="#DejaVuSans-53"/>
      </g>
     </g>
    </g>
    <g id="text_12">
     <!-- $t$ (generations ago) -->
     <defs>
      <path d="M 42.28125 54.6875 
L 40.921875 47.703125 
L 23 47.703125 
L 17.1875 18.015625 
Q 16.890625 16.359375 16.75 15.234375 
Q 16.609375 14.109375 16.609375 13.484375 
Q 16.609375 10.359375 18.484375 8.9375 
Q 20.359375 7.515625 24.515625 7.515625 
L 33.59375 7.515625 
L 32.078125 0 
L 23.484375 0 
Q 15.484375 0 11.546875 3.125 
Q 7.625 6.25 7.625 12.59375 
Q 7.625 13.71875 7.765625 15.0625 
Q 7.90625 16.40625 8.203125 18.015625 
L 14.015625 47.703125 
L 6.390625 47.703125 
L 7.8125 54.6875 
L 15.28125 54.6875 
L 18.3125 70.21875 
L 27.296875 70.21875 
L 24.3125 54.6875 
z
" id="DejaVuSans-Oblique-116"/>
      <path d="M 31 75.875 
Q 24.46875 64.65625 21.28125 53.65625 
Q 18.109375 42.671875 18.109375 31.390625 
Q 18.109375 20.125 21.3125 9.0625 
Q 24.515625 -2 31 -13.1875 
L 23.1875 -13.1875 
Q 15.875 -1.703125 12.234375 9.375 
Q 8.59375 20.453125 8.59375 31.390625 
Q 8.59375 42.28125 12.203125 53.3125 
Q 15.828125 64.359375 23.1875 75.875 
z
" id="DejaVuSans-40"/>
      <path d="M 45.40625 27.984375 
Q 45.40625 37.75 41.375 43.109375 
Q 37.359375 48.484375 30.078125 48.484375 
Q 22.859375 48.484375 18.828125 43.109375 
Q 14.796875 37.75 14.796875 27.984375 
Q 14.796875 18.265625 18.828125 12.890625 
Q 22.859375 7.515625 30.078125 7.515625 
Q 37.359375 7.515625 41.375 12.890625 
Q 45.40625 18.265625 45.40625 27.984375 
z
M 54.390625 6.78125 
Q 54.390625 -7.171875 48.1875 -13.984375 
Q 42 -20.796875 29.203125 -20.796875 
Q 24.46875 -20.796875 20.265625 -20.09375 
Q 16.0625 -19.390625 12.109375 -17.921875 
L 12.109375 -9.1875 
Q 16.0625 -11.328125 19.921875 -12.34375 
Q 23.78125 -13.375 27.78125 -13.375 
Q 36.625 -13.375 41.015625 -8.765625 
Q 45.40625 -4.15625 45.40625 5.171875 
L 45.40625 9.625 
Q 42.625 4.78125 38.28125 2.390625 
Q 33.9375 0 27.875 0 
Q 17.828125 0 11.671875 7.65625 
Q 5.515625 15.328125 5.515625 27.984375 
Q 5.515625 40.671875 11.671875 48.328125 
Q 17.828125 56 27.875 56 
Q 33.9375 56 38.28125 53.609375 
Q 42.625 51.21875 45.40625 46.390625 
L 45.40625 54.6875 
L 54.390625 54.6875 
z
" id="DejaVuSans-103"/>
      <path d="M 8.015625 75.875 
L 15.828125 75.875 
Q 23.140625 64.359375 26.78125 53.3125 
Q 30.421875 42.28125 30.421875 31.390625 
Q 30.421875 20.453125 26.78125 9.375 
Q 23.140625 -1.703125 15.828125 -13.1875 
L 8.015625 -13.1875 
Q 14.5 -2 17.703125 9.0625 
Q 20.90625 20.125 20.90625 31.390625 
Q 20.90625 42.671875 17.703125 53.65625 
Q 14.5 64.65625 8.015625 75.875 
z
" id="DejaVuSans-41"/>
     </defs>
     <g transform="translate(314.839415 323.278125)scale(0.1 -0.1)">
      <use transform="translate(0 0.015625)" xlink:href="#DejaVuSans-Oblique-116"/>
      <use transform="translate(39.208984 0.015625)" xlink:href="#DejaVuSans-32"/>
      <use transform="translate(70.996094 0.015625)" xlink:href="#DejaVuSans-40"/>
      <use transform="translate(110.009766 0.015625)" xlink:href="#DejaVuSans-103"/>
      <use transform="translate(173.486328 0.015625)" xlink:href="#DejaVuSans-101"/>
      <use transform="translate(235.009766 0.015625)" xlink:href="#DejaVuSans-110"/>
      <use transform="translate(298.388672 0.015625)" xlink:href="#DejaVuSans-101"/>
      <use transform="translate(359.912109 0.015625)" xlink:href="#DejaVuSans-114"/>
      <use transform="translate(401.025391 0.015625)" xlink:href="#DejaVuSans-97"/>
      <use transform="translate(462.304688 0.015625)" xlink:href="#DejaVuSans-116"/>
      <use transform="translate(501.513672 0.015625)" xlink:href="#DejaVuSans-105"/>
      <use transform="translate(529.296875 0.015625)" xlink:href="#DejaVuSans-111"/>
      <use transform="translate(590.478516 0.015625)" xlink:href="#DejaVuSans-110"/>
      <use transform="translate(653.857422 0.015625)" xlink:href="#DejaVuSans-115"/>
      <use transform="translate(705.957031 0.015625)" xlink:href="#DejaVuSans-32"/>
      <use transform="translate(737.744141 0.015625)" xlink:href="#DejaVuSans-97"/>
      <use transform="translate(799.023438 0.015625)" xlink:href="#DejaVuSans-103"/>
      <use transform="translate(862.5 0.015625)" xlink:href="#DejaVuSans-111"/>
      <use transform="translate(923.681641 0.015625)" xlink:href="#DejaVuSans-41"/>
     </g>
    </g>
   </g>
   <g id="matplotlib.axis_4">
    <g id="ytick_20">
     <g id="line2d_47">
      <g>
       <use style="stroke:#000000;stroke-width:0.8;" x="280.438203" xlink:href="#mfb90e8940d" y="24.14739"/>
      </g>
     </g>
     <g id="text_13">
      <!-- $\mathdefault{10^{4}}$ -->
      <g transform="translate(255.838203 27.946609)scale(0.1 -0.1)">
       <use transform="translate(0 0.684375)" xlink:href="#DejaVuSans-49"/>
       <use transform="translate(63.623047 0.684375)" xlink:href="#DejaVuSans-48"/>
       <use transform="translate(128.203125 38.965625)scale(0.7)" xlink:href="#DejaVuSans-52"/>
      </g>
     </g>
    </g>
    <g id="ytick_21">
     <g id="line2d_48">
      <g>
       <use style="stroke:#000000;stroke-width:0.6;" x="280.438203" xlink:href="#m384b742c1f" y="248.016888"/>
      </g>
     </g>
     <g id="text_14">
      <!-- $\mathdefault{3\times10^{3}}$ -->
      <defs>
       <path d="M 70.125 53.71875 
L 47.796875 31.296875 
L 70.125 8.984375 
L 64.3125 3.078125 
L 41.890625 25.484375 
L 19.484375 3.078125 
L 13.71875 8.984375 
L 35.984375 31.296875 
L 13.71875 53.71875 
L 19.484375 59.625 
L 41.890625 37.203125 
L 64.3125 59.625 
z
" id="DejaVuSans-215"/>
      </defs>
      <g transform="translate(238.838203 251.816107)scale(0.1 -0.1)">
       <use transform="translate(0 0.765625)" xlink:href="#DejaVuSans-51"/>
       <use transform="translate(83.105469 0.765625)" xlink:href="#DejaVuSans-215"/>
       <use transform="translate(186.376953 0.765625)" xlink:href="#DejaVuSans-49"/>
       <use transform="translate(250 0.765625)" xlink:href="#DejaVuSans-48"/>
       <use transform="translate(314.580078 39.046875)scale(0.7)" xlink:href="#DejaVuSans-51"/>
      </g>
     </g>
    </g>
    <g id="ytick_22">
     <g id="line2d_49">
      <g>
       <use style="stroke:#000000;stroke-width:0.6;" x="280.438203" xlink:href="#m384b742c1f" y="194.524616"/>
      </g>
     </g>
     <g id="text_15">
      <!-- $\mathdefault{4\times10^{3}}$ -->
      <g transform="translate(238.838203 198.323835)scale(0.1 -0.1)">
       <use transform="translate(0 0.765625)" xlink:href="#DejaVuSans-52"/>
       <use transform="translate(83.105469 0.765625)" xlink:href="#DejaVuSans-215"/>
       <use transform="translate(186.376953 0.765625)" xlink:href="#DejaVuSans-49"/>
       <use transform="translate(250 0.765625)" xlink:href="#DejaVuSans-48"/>
       <use transform="translate(314.580078 39.046875)scale(0.7)" xlink:href="#DejaVuSans-51"/>
      </g>
     </g>
    </g>
    <g id="ytick_23">
     <g id="line2d_50">
      <g>
       <use style="stroke:#000000;stroke-width:0.6;" x="280.438203" xlink:href="#m384b742c1f" y="153.032786"/>
      </g>
     </g>
    </g>
    <g id="ytick_24">
     <g id="line2d_51">
      <g>
       <use style="stroke:#000000;stroke-width:0.6;" x="280.438203" xlink:href="#m384b742c1f" y="119.131492"/>
      </g>
     </g>
     <g id="text_16">
      <!-- $\mathdefault{6\times10^{3}}$ -->
      <g transform="translate(238.838203 122.930711)scale(0.1 -0.1)">
       <use transform="translate(0 0.765625)" xlink:href="#DejaVuSans-54"/>
       <use transform="translate(83.105469 0.765625)" xlink:href="#DejaVuSans-215"/>
       <use transform="translate(186.376953 0.765625)" xlink:href="#DejaVuSans-49"/>
       <use transform="translate(250 0.765625)" xlink:href="#DejaVuSans-48"/>
       <use transform="translate(314.580078 39.046875)scale(0.7)" xlink:href="#DejaVuSans-51"/>
      </g>
     </g>
    </g>
    <g id="ytick_25">
     <g id="line2d_52">
      <g>
       <use style="stroke:#000000;stroke-width:0.6;" x="280.438203" xlink:href="#m384b742c1f" y="90.468357"/>
      </g>
     </g>
    </g>
    <g id="ytick_26">
     <g id="line2d_53">
      <g>
       <use style="stroke:#000000;stroke-width:0.6;" x="280.438203" xlink:href="#m384b742c1f" y="65.63922"/>
      </g>
     </g>
    </g>
    <g id="ytick_27">
     <g id="line2d_54">
      <g>
       <use style="stroke:#000000;stroke-width:0.6;" x="280.438203" xlink:href="#m384b742c1f" y="43.738369"/>
      </g>
     </g>
    </g>
    <g id="text_17">
     <!-- $\eta(t)$ -->
     <defs>
      <path d="M 57.859375 33.015625 
L 47.40625 -20.796875 
L 38.421875 -20.796875 
L 48.828125 32.71875 
Q 50.34375 40.484375 48.046875 44.34375 
Q 45.796875 48.1875 39.75 48.1875 
Q 32.46875 48.1875 27.34375 43.5625 
Q 22.265625 38.921875 20.703125 30.90625 
L 14.703125 0 
L 5.671875 0 
L 16.3125 54.6875 
L 25.34375 54.6875 
L 23.6875 46.1875 
Q 27.828125 51.125 32.71875 53.5625 
Q 37.546875 56 43.265625 56 
Q 52.6875 56 56.390625 50.203125 
Q 60.0625 44.34375 57.859375 33.015625 
z
" id="DejaVuSans-Oblique-951"/>
     </defs>
     <g transform="translate(232.738203 160.15)rotate(-90)scale(0.1 -0.1)">
      <use transform="translate(0 0.125)" xlink:href="#DejaVuSans-Oblique-951"/>
      <use transform="translate(63.378906 0.125)" xlink:href="#DejaVuSans-40"/>
      <use transform="translate(102.392578 0.125)" xlink:href="#DejaVuSans-Oblique-116"/>
      <use transform="translate(141.601562 0.125)" xlink:href="#DejaVuSans-41"/>
     </g>
    </g>
   </g>
   <g id="line2d_55">
    <path clip-path="url(#pa733168bf4)" d="M -1 24.14739 
L 287.942859 24.14739 
L 289.051147 24.14739 
L 290.159434 24.14739 
L 291.267722 24.14739 
L 292.376009 24.14739 
L 293.484297 24.14739 
L 294.592584 24.14739 
L 295.700872 24.14739 
L 296.809159 24.14739 
L 297.917447 24.14739 
L 299.025734 24.14739 
L 300.134022 24.14739 
L 301.242309 24.14739 
L 302.350597 24.14739 
L 303.458884 24.14739 
L 304.567172 24.14739 
L 305.675459 24.14739 
L 306.783747 24.14739 
L 307.892034 24.14739 
L 309.000322 24.14739 
L 310.108609 24.14739 
L 311.216897 24.14739 
L 312.325184 24.14739 
L 313.433472 24.14739 
L 314.541759 24.14739 
L 315.650047 24.14739 
L 316.758334 24.14739 
L 317.866622 24.14739 
L 318.974909 24.14739 
L 320.083197 24.14739 
L 321.191485 24.14739 
L 322.299772 24.14739 
L 323.40806 24.14739 
L 324.516347 24.14739 
L 325.624635 24.14739 
L 326.732922 24.14739 
L 327.84121 24.14739 
L 328.949497 24.14739 
L 330.057785 24.14739 
L 331.166072 281.918182 
L 332.27436 281.918182 
L 333.382647 281.918182 
L 334.490935 281.918182 
L 335.599222 281.918182 
L 336.70751 281.918182 
L 337.815797 281.918182 
L 338.924085 281.918182 
L 340.032372 281.918182 
L 341.14066 281.918182 
L 342.248947 281.918182 
L 343.357235 281.918182 
L 344.465522 281.918182 
L 345.57381 281.918182 
L 346.682097 281.918182 
L 347.790385 281.918182 
L 348.898672 281.918182 
L 350.00696 281.918182 
L 351.115247 281.918182 
L 352.223535 281.918182 
L 353.331823 24.14739 
L 354.44011 24.14739 
L 355.548398 24.14739 
L 356.656685 24.14739 
L 357.764973 24.14739 
L 358.87326 24.14739 
L 359.981548 24.14739 
L 361.089835 24.14739 
L 362.198123 24.14739 
L 363.30641 24.14739 
L 364.414698 24.14739 
L 365.522985 24.14739 
L 366.631273 24.14739 
L 367.73956 24.14739 
L 368.847848 24.14739 
L 369.956135 24.14739 
L 371.064423 24.14739 
L 372.17271 24.14739 
L 373.280998 24.14739 
L 374.389285 24.14739 
L 375.497573 24.14739 
L 376.60586 24.14739 
L 377.714148 24.14739 
L 378.822435 24.14739 
L 379.930723 24.14739 
L 381.03901 24.14739 
L 382.147298 24.14739 
L 383.255585 24.14739 
L 384.363873 24.14739 
L 385.472161 24.14739 
L 386.580448 24.14739 
L 387.688736 24.14739 
L 388.797023 24.14739 
L 389.905311 24.14739 
L 391.013598 24.14739 
L 392.121886 24.14739 
L 393.230173 24.14739 
L 394.338461 24.14739 
L 395.446748 24.14739 
L 396.555036 24.14739 
L 397.663323 24.14739 
" style="fill:none;stroke:#1f77b4;stroke-linecap:square;stroke-width:1.5;"/>
   </g>
   <g id="line2d_56">
    <path clip-path="url(#pa733168bf4)" d="M -1 20.839906 
L 287.942859 20.840973 
L 289.458951 20.83908 
L 290.975043 20.836968 
L 292.491135 20.834619 
L 294.007227 20.832015 
L 295.523319 20.82914 
L 297.039411 20.825948 
L 298.555503 20.822598 
L 300.071595 20.818812 
L 301.587687 20.81512 
L 303.103779 20.809778 
L 304.619871 20.813417 
L 306.135963 20.80846 
L 307.652055 20.77968 
L 309.168148 20.77483 
L 310.68424 20.769686 
L 312.200332 20.765236 
L 313.716424 20.760656 
L 315.232516 20.757118 
L 316.748608 20.754471 
L 318.2647 20.753317 
L 319.780792 20.752806 
L 321.296884 20.753419 
L 322.812976 20.634756 
L 324.329068 20.681616 
L 325.84516 24.059519 
L 327.361252 47.775331 
L 328.877344 101.635831 
L 330.393436 176.214106 
L 331.909528 278.360613 
L 333.42562 277.487349 
L 334.941712 277.891852 
L 336.457804 277.941984 
L 337.973896 277.982101 
L 339.489988 277.99511 
L 341.00608 277.981624 
L 342.522172 277.947281 
L 344.038264 277.879726 
L 345.554356 277.866765 
L 347.070448 277.75133 
L 348.58654 276.323837 
L 350.102633 261.526838 
L 351.618725 206.47305 
L 353.134817 159.393325 
L 354.650909 118.013288 
L 356.167001 81.183967 
L 357.683093 48.098076 
L 359.199185 25.91212 
L 360.715277 26.19337 
L 362.231369 25.899349 
L 363.747461 25.613827 
L 365.263553 25.572461 
L 366.779645 25.551507 
L 368.295737 25.541497 
L 369.811829 25.53082 
L 371.327921 25.523276 
L 372.844013 25.521341 
L 374.360105 25.523937 
L 375.876197 25.52973 
L 377.392289 25.54211 
L 378.908381 25.542549 
L 380.424473 25.559975 
L 381.940565 25.586304 
L 383.456657 25.620299 
L 384.972749 25.661854 
L 386.488841 25.680163 
L 388.004933 25.82482 
L 389.521025 26.149081 
L 391.037118 27.272059 
L 392.55321 27.373329 
L 394.069302 27.446119 
L 395.585394 27.508992 
L 397.101486 27.535464 
L 398.617578 27.551153 
L 400.13367 27.552474 
L 401.649762 27.540365 
L 403.165854 27.524104 
L 404.681946 27.501867 
L 406.198038 27.473784 
L 407.71413 27.473794 
L 409.230222 27.436741 
L 410.746314 27.285129 
L 412.262406 27.333386 
L 413.778498 20.331905 
L 415.29459 20.315295 
L 416.810682 20.302226 
L 418.326774 20.293325 
L 419.842866 20.287748 
L 421.358958 20.284557 
L 422.87505 20.28294 
L 424.391142 20.282219 
L 425.907234 20.281941 
L 427.423326 20.28185 
L 428.939418 20.281825 
L 430.45551 20.281819 
L 431.971602 20.281818 
L 433.487695 20.281818 
L 435.003787 20.281818 
L 436.519879 20.281818 
L 438.035971 20.281818 
" style="fill:none;stroke:#ff7f0e;stroke-linecap:square;stroke-width:1.5;"/>
   </g>
   <g id="patch_8">
    <path d="M 280.438203 295 
L 280.438203 7.2 
" style="fill:none;stroke:#000000;stroke-linecap:square;stroke-linejoin:miter;stroke-width:0.8;"/>
   </g>
   <g id="patch_9">
    <path d="M 445.540626 295 
L 445.540626 7.2 
" style="fill:none;stroke:#000000;stroke-linecap:square;stroke-linejoin:miter;stroke-width:0.8;"/>
   </g>
   <g id="patch_10">
    <path d="M 280.438203 295 
L 445.540626 295 
" style="fill:none;stroke:#000000;stroke-linecap:square;stroke-linejoin:miter;stroke-width:0.8;"/>
   </g>
   <g id="patch_11">
    <path d="M 280.438203 7.2 
L 445.540626 7.2 
" style="fill:none;stroke:#000000;stroke-linecap:square;stroke-linejoin:miter;stroke-width:0.8;"/>
   </g>
   <g id="legend_1">
    <g id="patch_12">
     <path d="M 367.428126 290 
L 438.540626 290 
Q 440.540626 290 440.540626 288 
L 440.540626 259.64375 
Q 440.540626 257.64375 438.540626 257.64375 
L 367.428126 257.64375 
Q 365.428126 257.64375 365.428126 259.64375 
L 365.428126 288 
Q 365.428126 290 367.428126 290 
z
" style="fill:#ffffff;opacity:0.8;stroke:#cccccc;stroke-linejoin:miter;"/>
    </g>
    <g id="line2d_57">
     <path d="M 369.428126 265.742188 
L 389.428126 265.742188 
" style="fill:none;stroke:#1f77b4;stroke-linecap:square;stroke-width:1.5;"/>
    </g>
    <g id="line2d_58"/>
    <g id="text_18">
     <!-- true -->
     <g transform="translate(397.428126 269.242188)scale(0.1 -0.1)">
      <use xlink:href="#DejaVuSans-116"/>
      <use x="39.208984" xlink:href="#DejaVuSans-114"/>
      <use x="80.322266" xlink:href="#DejaVuSans-117"/>
      <use x="143.701172" xlink:href="#DejaVuSans-101"/>
     </g>
    </g>
    <g id="line2d_59">
     <path d="M 369.428126 280.420313 
L 389.428126 280.420313 
" style="fill:none;stroke:#ff7f0e;stroke-linecap:square;stroke-width:1.5;"/>
    </g>
    <g id="line2d_60"/>
    <g id="text_19">
     <!-- inferred -->
     <defs>
      <path d="M 45.40625 46.390625 
L 45.40625 75.984375 
L 54.390625 75.984375 
L 54.390625 0 
L 45.40625 0 
L 45.40625 8.203125 
Q 42.578125 3.328125 38.25 0.953125 
Q 33.9375 -1.421875 27.875 -1.421875 
Q 17.96875 -1.421875 11.734375 6.484375 
Q 5.515625 14.40625 5.515625 27.296875 
Q 5.515625 40.1875 11.734375 48.09375 
Q 17.96875 56 27.875 56 
Q 33.9375 56 38.25 53.625 
Q 42.578125 51.265625 45.40625 46.390625 
z
M 14.796875 27.296875 
Q 14.796875 17.390625 18.875 11.75 
Q 22.953125 6.109375 30.078125 6.109375 
Q 37.203125 6.109375 41.296875 11.75 
Q 45.40625 17.390625 45.40625 27.296875 
Q 45.40625 37.203125 41.296875 42.84375 
Q 37.203125 48.484375 30.078125 48.484375 
Q 22.953125 48.484375 18.875 42.84375 
Q 14.796875 37.203125 14.796875 27.296875 
z
" id="DejaVuSans-100"/>
     </defs>
     <g transform="translate(397.428126 283.920313)scale(0.1 -0.1)">
      <use xlink:href="#DejaVuSans-105"/>
      <use x="27.783203" xlink:href="#DejaVuSans-110"/>
      <use x="91.162109" xlink:href="#DejaVuSans-102"/>
      <use x="126.367188" xlink:href="#DejaVuSans-101"/>
      <use x="187.890625" xlink:href="#DejaVuSans-114"/>
      <use x="227.253906" xlink:href="#DejaVuSans-114"/>
      <use x="266.117188" xlink:href="#DejaVuSans-101"/>
      <use x="327.640625" xlink:href="#DejaVuSans-100"/>
     </g>
    </g>
   </g>
  </g>
 </g>
 <defs>
  <clipPath id="pcd3fd4b1ef">
   <rect height="287.8" width="165.102423" x="45.478125" y="7.2"/>
  </clipPath>
  <clipPath id="pa733168bf4">
   <rect height="287.8" width="165.102423" x="280.438203" y="7.2"/>
  </clipPath>
 </defs>
</svg>
