<svg baseProfile="full" height="200" version="1.1" width="500" xmlns="http://www.w3.org/2000/svg" xmlns:ev="http://www.w3.org/2001/xml-events" xmlns:xlink="http://www.w3.org/1999/xlink"><defs/><g id="tree_0"><g fill="none" id="edges" stroke="black"><path d="M 78.99312033582086 157.2779833101517 V 30.0 H 210.21145493236875" id="edge_0_23560"/><path d="M 38.2276119402985 161.03349430341098 V 157.2779833101517 H 78.99312033582086" id="edge_0_20320"/><path d="M 14.626865671641792 169.21105028550113 V 161.03349430341098 H 38.2276119402985" id="edge_0_7659"/><path d="M 12.388059701492537 170.0 V 169.21105028550113 H 14.626865671641792" id="edge_0_182"/><path d="M 16.865671641791046 169.627691857016 V 169.21105028550113 H 14.626865671641792" id="edge_0_2414"/><path d="M 14.776119402985074 170.0 V 169.627691857016 H 16.865671641791046" id="edge_0_171"/><path d="M 18.955223880597014 169.76831499751646 V 169.627691857016 H 16.865671641791046" id="edge_0_1018"/><path d="M 17.16417910447761 170.0 V 169.76831499751646 H 18.955223880597014" id="edge_0_144"/><path d="M 20.746268656716417 169.8631460667295 V 169.76831499751646 H 18.955223880597014" id="edge_0_491"/><path d="M 19.55223880597015 170.0 V 169.8631460667295 H 20.746268656716417" id="edge_0_75"/><path d="M 21.940298507462686 170.0 V 169.8631460667295 H 20.746268656716417" id="edge_0_79"/><path d="M 61.82835820895522 164.78610777101758 V 161.03349430341098 H 38.2276119402985" id="edge_0_14953"/><path d="M 49.776119402985074 168.38679006468342 V 164.78610777101758 H 61.82835820895522" id="edge_0_10485"/><path d="M 37.16417910447761 168.78533059320105 V 168.38679006468342 H 49.776119402985074" id="edge_0_9579"/><path d="M 28.208955223880594 169.27325317616473 V 168.78533059320105 H 37.16417910447761" id="edge_0_7131"/><path d="M 25.52238805970149 169.7001911704187 V 169.27325317616473 H 28.208955223880594" id="edge_0_1606"/><path d="M 24.328358208955223 170.0 V 169.7001911704187 H 25.52238805970149" id="edge_0_99"/><path d="M 26.71641791044776 170.0 V 169.7001911704187 H 25.52238805970149" id="edge_0_186"/><path d="M 30.8955223880597 169.30010452726373 V 169.27325317616473 H 28.208955223880594" id="edge_0_6808"/><path d="M 29.104477611940297 170.0 V 169.30010452726373 H 30.8955223880597" id="edge_0_120"/><path d="M 32.6865671641791 169.4153895049117 V 169.30010452726373 H 30.8955223880597" id="edge_0_5432"/><path d="M 31.492537313432834 170.0 V 169.4153895049117 H 32.6865671641791" id="edge_0_96"/><path d="M 33.88059701492537 170.0 V 169.4153895049117 H 32.6865671641791" id="edge_0_170"/><path d="M 46.11940298507462 169.02973838434784 V 168.78533059320105 H 37.16417910447761" id="edge_0_8721"/><path d="M 40.14925373134328 169.38398319120165 V 169.02973838434784 H 46.11940298507462" id="edge_0_5812"/><path d="M 37.46268656716418 169.7185773706974 V 169.38398319120165 H 40.14925373134328" id="edge_0_1445"/><path d="M 36.26865671641791 170.0 V 169.7185773706974 H 37.46268656716418" id="edge_0_117"/><path d="M 38.656716417910445 170.0 V 169.7185773706974 H 37.46268656716418" id="edge_0_135"/><path d="M 42.83582089552239 169.53458361322015 V 169.38398319120165 H 40.14925373134328" id="edge_0_3702"/><path d="M 41.04477611940298 170.0 V 169.53458361322015 H 42.83582089552239" id="edge_0_153"/><path d="M 44.62686567164179 169.54439048613895 V 169.53458361322015 H 42.83582089552239" id="edge_0_3572"/><path d="M 43.43283582089552 170.0 V 169.54439048613895 H 44.62686567164179" id="edge_0_86"/><path d="M 45.82089552238806 170.0 V 169.54439048613895 H 44.62686567164179" id="edge_0_108"/><path d="M 52.089552238805965 169.1269073535403 V 169.02973838434784 H 46.11940298507462" id="edge_0_8205"/><path d="M 49.40298507462686 169.45608521726223 V 169.1269073535403 H 52.089552238805965" id="edge_0_4825"/><path d="M 48.208955223880594 170.0 V 169.45608521726223 H 49.40298507462686" id="edge_0_179"/><path d="M 50.59701492537313 170.0 V 169.45608521726223 H 49.40298507462686" id="edge_0_183"/><path d="M 54.776119402985074 169.37366889121589 V 169.1269073535403 H 52.089552238805965" id="edge_0_5978"/><path d="M 52.98507462686567 170.0 V 169.37366889121589 H 54.776119402985074" id="edge_0_29"/><path d="M 56.56716417910447 169.94164988585084 V 169.37366889121589 H 54.776119402985074" id="edge_0_268"/><path d="M 55.373134328358205 170.0 V 169.94164988585084 H 56.56716417910447" id="edge_0_149"/><path d="M 57.76119402985074 170.0 V 169.94164988585084 H 56.56716417910447" id="edge_0_167"/><path d="M 62.38805970149253 168.4659433792433 V 168.38679006468342 H 49.776119402985074" id="edge_0_10335"/><path d="M 60.14925373134328 170.0 V 168.4659433792433 H 62.38805970149253" id="edge_0_54"/><path d="M 64.62686567164178 168.4948609362985 V 168.4659433792433 H 62.38805970149253" id="edge_0_10280"/><path d="M 62.537313432835816 170.0 V 168.4948609362985 H 64.62686567164178" id="edge_0_189"/><path d="M 66.71641791044775 169.02518897359565 V 168.4948609362985 H 64.62686567164178" id="edge_0_8743"/><path d="M 64.92537313432835 170.0 V 169.02518897359565 H 66.71641791044775" id="edge_0_15"/><path d="M 68.50746268656715 169.95226110550692 V 169.02518897359565 H 66.71641791044775" id="edge_0_247"/><path d="M 67.31343283582089 170.0 V 169.95226110550692 H 68.50746268656715" id="edge_0_44"/><path d="M 69.70149253731343 170.0 V 169.95226110550692 H 68.50746268656715" id="edge_0_184"/><path d="M 73.88059701492537 168.06002434406741 V 164.78610777101758 H 61.82835820895522" id="edge_0_11072"/><path d="M 72.08955223880596 170.0 V 168.06002434406741 H 73.88059701492537" id="edge_0_25"/><path d="M 75.67164179104478 169.99470377627128 V 168.06002434406741 H 73.88059701492537" id="edge_0_200"/><path d="M 74.4776119402985 170.0 V 169.99470377627128 H 75.67164179104478" id="edge_0_53"/><path d="M 76.86567164179104 170.0 V 169.99470377627128 H 75.67164179104478" id="edge_0_140"/><path d="M 119.75862873134324 158.2348060179685 V 157.2779833101517 H 78.99312033582086" id="edge_0_22956"/><path d="M 97.01492537313432 168.32221424924722 V 158.2348060179685 H 119.75862873134324" id="edge_0_10605"/><path d="M 88.0597014925373 169.20695480227016 V 168.32221424924722 H 97.01492537313432" id="edge_0_7689"/><path d="M 83.13432835820895 169.51089254751477 V 169.20695480227016 H 88.0597014925373" id="edge_0_4013"/><path d="M 80.44776119402985 169.88114266426948 V 169.51089254751477 H 83.13432835820895" id="edge_0_423"/><path d="M 79.25373134328358 170.0 V 169.88114266426948 H 80.44776119402985" id="edge_0_38"/><path d="M 81.64179104477611 170.0 V 169.88114266426948 H 80.44776119402985" id="edge_0_122"/><path d="M 85.82089552238804 169.75755695059343 V 169.51089254751477 H 83.13432835820895" id="edge_0_1101"/><path d="M 84.02985074626865 170.0 V 169.75755695059343 H 85.82089552238804" id="edge_0_124"/><path d="M 87.61194029850745 169.82325792120992 V 169.75755695059343 H 85.82089552238804" id="edge_0_683"/><path d="M 86.41791044776119 170.0 V 169.82325792120992 H 87.61194029850745" id="edge_0_51"/><path d="M 88.80597014925372 170.0 V 169.82325792120992 H 87.61194029850745" id="edge_0_60"/><path d="M 92.98507462686567 169.39138530224278 V 169.20695480227016 H 88.0597014925373" id="edge_0_5738"/><path d="M 91.19402985074626 170.0 V 169.39138530224278 H 92.98507462686567" id="edge_0_126"/><path d="M 94.77611940298507 169.64313432190818 V 169.39138530224278 H 92.98507462686567" id="edge_0_2234"/><path d="M 93.5820895522388 170.0 V 169.64313432190818 H 94.77611940298507" id="edge_0_3"/><path d="M 95.97014925373134 170.0 V 169.64313432190818 H 94.77611940298507" id="edge_0_155"/><path d="M 105.97014925373134 168.9513484241179 V 168.32221424924722 H 97.01492537313432" id="edge_0_9025"/><path d="M 101.94029850746269 169.14464071773097 V 168.9513484241179 H 105.97014925373134" id="edge_0_8108"/><path d="M 99.55223880597015 169.68246830462923 V 169.14464071773097 H 101.94029850746269" id="edge_0_1787"/><path d="M 98.35820895522387 170.0 V 169.68246830462923 H 99.55223880597015" id="edge_0_52"/><path d="M 100.74626865671641 170.0 V 169.68246830462923 H 99.55223880597015" id="edge_0_131"/><path d="M 104.32835820895522 169.5077887235929 V 169.14464071773097 H 101.94029850746269" id="edge_0_4068"/><path d="M 103.13432835820895 170.0 V 169.5077887235929 H 104.32835820895522" id="edge_0_150"/><path d="M 105.52238805970148 170.0 V 169.5077887235929 H 104.32835820895522" id="edge_0_190"/><path d="M 110.0 169.050959729991 V 168.9513484241179 H 105.97014925373134" id="edge_0_8617"/><path d="M 107.91044776119402 170.0 V 169.050959729991 H 110.0" id="edge_0_33"/><path d="M 112.08955223880596 169.5969842685897 V 169.050959729991 H 110.0" id="edge_0_2797"/><path d="M 110.29850746268656 170.0 V 169.5969842685897 H 112.08955223880596" id="edge_0_104"/><path d="M 113.88059701492537 169.89588329192483 V 169.5969842685897 H 112.08955223880596" id="edge_0_369"/><path d="M 112.6865671641791 170.0 V 169.89588329192483 H 113.88059701492537" id="edge_0_55"/><path d="M 115.07462686567163 170.0 V 169.89588329192483 H 113.88059701492537" id="edge_0_146"/><path d="M 142.50233208955214 159.24063192417765 V 158.2348060179685 H 119.75862873134324" id="edge_0_22206"/><path d="M 127.98507462686564 165.98242703756762 V 159.24063192417765 H 142.50233208955214" id="edge_0_13285"/><path d="M 119.25373134328356 169.04429219674566 V 165.98242703756762 H 127.98507462686564" id="edge_0_8649"/><path d="M 117.46268656716417 170.0 V 169.04429219674566 H 119.25373134328356" id="edge_0_59"/><path d="M 121.04477611940297 169.35886103041244 V 169.04429219674566 H 119.25373134328356" id="edge_0_6159"/><path d="M 119.8507462686567 170.0 V 169.35886103041244 H 121.04477611940297" id="edge_0_61"/><path d="M 122.23880597014924 170.0 V 169.35886103041244 H 121.04477611940297" id="edge_0_101"/><path d="M 136.71641791044772 168.74030302329078 V 165.98242703756762 H 127.98507462686564" id="edge_0_9690"/><path d="M 129.40298507462683 169.19471516174787 V 168.74030302329078 H 136.71641791044772" id="edge_0_7784"/><path d="M 125.82089552238804 169.28218602581904 V 169.19471516174787 H 129.40298507462683" id="edge_0_7037"/><path d="M 124.62686567164178 170.0 V 169.28218602581904 H 125.82089552238804" id="edge_0_12"/><path d="M 127.01492537313432 170.0 V 169.28218602581904 H 125.82089552238804" id="edge_0_49"/><path d="M 132.98507462686564 169.25314322516266 V 169.19471516174787 H 129.40298507462683" id="edge_0_7334"/><path d="M 130.59701492537312 169.5802610791803 V 169.25314322516266 H 132.98507462686564" id="edge_0_3045"/><path d="M 129.40298507462686 170.0 V 169.5802610791803 H 130.59701492537312" id="edge_0_125"/><path d="M 131.7910447761194 170.0 V 169.5802610791803 H 130.59701492537312" id="edge_0_164"/><path d="M 135.3731343283582 169.27046614903645 V 169.25314322516266 H 132.98507462686564" id="edge_0_7175"/><path d="M 134.17910447761193 170.0 V 169.27046614903645 H 135.3731343283582" id="edge_0_18"/><path d="M 136.56716417910445 170.0 V 169.27046614903645 H 135.3731343283582" id="edge_0_173"/><path d="M 144.0298507462686 169.04674741441383 V 168.74030302329078 H 136.71641791044772" id="edge_0_8639"/><path d="M 140.74626865671638 169.74433965507308 V 169.04674741441383 H 144.0298507462686" id="edge_0_1218"/><path d="M 138.95522388059698 170.0 V 169.74433965507308 H 140.74626865671638" id="edge_0_93"/><path d="M 142.53731343283576 169.7766586781505 V 169.74433965507308 H 140.74626865671638" id="edge_0_953"/><path d="M 141.3432835820895 170.0 V 169.7766586781505 H 142.53731343283576" id="edge_0_69"/><path d="M 143.73134328358202 170.0 V 169.7766586781505 H 142.53731343283576" id="edge_0_129"/><path d="M 147.3134328358208 169.47700125875895 V 169.04674741441383 H 144.0298507462686" id="edge_0_4561"/><path d="M 146.11940298507454 170.0 V 169.47700125875895 H 147.3134328358208" id="edge_0_112"/><path d="M 148.50746268656707 170.0 V 169.47700125875895 H 147.3134328358208" id="edge_0_147"/><path d="M 157.01958955223864 161.73272968775868 V 159.24063192417765 H 142.50233208955214" id="edge_0_19440"/><path d="M 150.8955223880596 170.0 V 161.73272968775868 H 157.01958955223864" id="edge_0_57"/><path d="M 163.14365671641772 162.97520509815652 V 161.73272968775868 H 157.01958955223864" id="edge_0_17703"/><path d="M 155.37313432835808 169.18087713734056 V 162.97520509815652 H 163.14365671641772" id="edge_0_7878"/><path d="M 153.2835820895521 170.0 V 169.18087713734056 H 155.37313432835808" id="edge_0_107"/><path d="M 157.46268656716404 169.51162290815228 V 169.18087713734056 H 155.37313432835808" id="edge_0_4001"/><path d="M 155.67164179104464 170.0 V 169.51162290815228 H 157.46268656716404" id="edge_0_152"/><path d="M 159.25373134328342 169.6076045606227 V 169.51162290815228 H 157.46268656716404" id="edge_0_2667"/><path d="M 158.05970149253716 170.0 V 169.6076045606227 H 159.25373134328342" id="edge_0_17"/><path d="M 160.44776119402968 170.0 V 169.6076045606227 H 159.25373134328342" id="edge_0_175"/><path d="M 170.91417910447737 164.44647665801577 V 162.97520509815652 H 163.14365671641772" id="edge_0_15428"/><path d="M 162.8358208955222 170.0 V 164.44647665801577 H 170.91417910447737" id="edge_0_37"/><path d="M 178.99253731343254 167.82818699654933 V 164.44647665801577 H 170.91417910447737" id="edge_0_11389"/><path d="M 169.62686567164155 169.03117386646701 V 167.82818699654933 H 178.99253731343254" id="edge_0_8712"/><path d="M 165.22388059701473 170.0 V 169.03117386646701 H 169.62686567164155" id="edge_0_198"/><path d="M 174.0298507462684 169.29160066378384 V 169.03117386646701 H 169.62686567164155" id="edge_0_6917"/><path d="M 169.70149253731321 169.58836889053785 V 169.29160066378384 H 174.0298507462684" id="edge_0_2921"/><path d="M 167.61194029850725 170.0 V 169.58836889053785 H 169.70149253731321" id="edge_0_80"/><path d="M 171.79104477611918 169.58972908217584 V 169.58836889053785 H 169.70149253731321" id="edge_0_2908"/><path d="M 169.99999999999977 170.0 V 169.58972908217584 H 171.79104477611918" id="edge_0_43"/><path d="M 173.58208955223856 169.8137708281313 V 169.58972908217584 H 171.79104477611918" id="edge_0_733"/><path d="M 172.3880597014923 170.0 V 169.8137708281313 H 173.58208955223856" id="edge_0_157"/><path d="M 174.77611940298482 170.0 V 169.8137708281313 H 173.58208955223856" id="edge_0_188"/><path d="M 178.3582089552236 169.48588023867862 V 169.29160066378384 H 174.0298507462684" id="edge_0_4421"/><path d="M 177.16417910447734 170.0 V 169.48588023867862 H 178.3582089552236" id="edge_0_1"/><path d="M 179.55223880596986 170.0 V 169.48588023867862 H 178.3582089552236" id="edge_0_191"/><path d="M 188.35820895522355 167.89009955935842 V 167.82818699654933 H 178.99253731343254" id="edge_0_11305"/><path d="M 183.7313432835818 169.74809483514088 V 167.89009955935842 H 188.35820895522355" id="edge_0_1183"/><path d="M 181.9402985074624 170.0 V 169.74809483514088 H 183.7313432835818" id="edge_0_145"/><path d="M 185.52238805970117 169.9686104949894 V 169.74809483514088 H 183.7313432835818" id="edge_0_225"/><path d="M 184.3283582089549 170.0 V 169.9686104949894 H 185.52238805970117" id="edge_0_66"/><path d="M 186.71641791044743 170.0 V 169.9686104949894 H 185.52238805970117" id="edge_0_176"/><path d="M 192.9850746268653 169.4927074904563 V 167.89009955935842 H 188.35820895522355" id="edge_0_4319"/><path d="M 190.29850746268622 169.6751351715181 V 169.4927074904563 H 192.9850746268653" id="edge_0_1875"/><path d="M 189.10447761193996 170.0 V 169.6751351715181 H 190.29850746268622" id="edge_0_34"/><path d="M 191.49253731343248 170.0 V 169.6751351715181 H 190.29850746268622" id="edge_0_92"/><path d="M 195.6716417910444 169.5860124426415 V 169.4927074904563 H 192.9850746268653" id="edge_0_2956"/><path d="M 193.880597014925 170.0 V 169.5860124426415 H 195.6716417910444" id="edge_0_90"/><path d="M 197.4626865671638 169.96941587068125 V 169.5860124426415 H 195.6716417910444" id="edge_0_224"/><path d="M 196.26865671641752 170.0 V 169.96941587068125 H 197.4626865671638" id="edge_0_91"/><path d="M 198.65671641791005 170.0 V 169.96941587068125 H 197.4626865671638" id="edge_0_106"/><path d="M 341.4297895289167 147.11591567051778 V 30.0 H 210.21145493236875" id="edge_0_26178"/><path d="M 267.6426947294768 160.4834568575663 V 147.11591567051778 H 341.4297895289167" id="edge_0_20973"/><path d="M 222.74807602611887 168.34923260680912 V 160.4834568575663 H 267.6426947294768" id="edge_0_10546"/><path d="M 208.2835820895518 168.5209056673703 V 168.34923260680912 H 222.74807602611887" id="edge_0_10230"/><path d="M 202.83582089552198 169.67881804263158 V 168.5209056673703 H 208.2835820895518" id="edge_0_1829"/><path d="M 201.04477611940257 170.0 V 169.67881804263158 H 202.83582089552198" id="edge_0_130"/><path d="M 204.62686567164135 169.8050315892089 V 169.67881804263158 H 202.83582089552198" id="edge_0_785"/><path d="M 203.4328358208951 170.0 V 169.8050315892089 H 204.62686567164135" id="edge_0_24"/><path d="M 205.82089552238762 170.0 V 169.8050315892089 H 204.62686567164135" id="edge_0_127"/><path d="M 213.73134328358162 169.42769960230237 V 168.5209056673703 H 208.2835820895518" id="edge_0_5253"/><path d="M 209.99999999999955 169.54189093617535 V 169.42769960230237 H 213.73134328358162" id="edge_0_3601"/><path d="M 208.20895522388014 170.0 V 169.54189093617535 H 209.99999999999955" id="edge_0_36"/><path d="M 211.79104477611892 169.88354223748166 V 169.54189093617535 H 209.99999999999955" id="edge_0_415"/><path d="M 210.59701492537266 170.0 V 169.88354223748166 H 211.79104477611892" id="edge_0_40"/><path d="M 212.98507462686518 170.0 V 169.88354223748166 H 211.79104477611892" id="edge_0_154"/><path d="M 217.46268656716367 169.43692967620754 V 169.42769960230237 H 213.73134328358162" id="edge_0_5126"/><path d="M 215.3731343283577 170.0 V 169.43692967620754 H 217.46268656716367" id="edge_0_118"/><path d="M 219.55223880596964 169.64095255578007 V 169.43692967620754 H 217.46268656716367" id="edge_0_2259"/><path d="M 217.76119402985023 170.0 V 169.64095255578007 H 219.55223880596964" id="edge_0_16"/><path d="M 221.34328358208901 169.8846648123458 V 169.64095255578007 H 219.55223880596964" id="edge_0_409"/><path d="M 220.14925373134275 170.0 V 169.8846648123458 H 221.34328358208901" id="edge_0_20"/><path d="M 222.53731343283528 170.0 V 169.8846648123458 H 221.34328358208901" id="edge_0_76"/><path d="M 237.21256996268593 168.42689555760322 V 168.34923260680912 H 222.74807602611887" id="edge_0_10410"/><path d="M 224.9253731343278 170.0 V 168.42689555760322 H 237.21256996268593" id="edge_0_9"/><path d="M 249.49976679104407 168.8284068656961 V 168.42689555760322 H 237.21256996268593" id="edge_0_9458"/><path d="M 227.31343283582032 170.0 V 168.8284068656961 H 249.49976679104407" id="edge_0_45"/><path d="M 271.6861007462678 169.02325272856027 V 168.8284068656961 H 249.49976679104407" id="edge_0_8758"/><path d="M 256.8050373134321 169.09240439851087 V 169.02325272856027 H 271.6861007462678" id="edge_0_8401"/><path d="M 244.95335820895457 169.12218762488067 V 169.09240439851087 H 256.8050373134321" id="edge_0_8236"/><path d="M 232.74253731343222 169.4320538702551 V 169.12218762488067 H 244.95335820895457" id="edge_0_5198"/><path d="M 229.70149253731284 170.0 V 169.4320538702551 H 232.74253731343222" id="edge_0_10"/><path d="M 235.7835820895516 169.4398336586287 V 169.4320538702551 H 232.74253731343222" id="edge_0_5088"/><path d="M 232.08955223880537 170.0 V 169.4398336586287 H 235.7835820895516" id="edge_0_111"/><path d="M 239.47761194029786 169.52833698136936 V 169.4398336586287 H 235.7835820895516" id="edge_0_3791"/><path d="M 235.67164179104415 169.95859014939333 V 169.52833698136936 H 239.47761194029786" id="edge_0_236"/><path d="M 234.4776119402979 170.0 V 169.95859014939333 H 235.67164179104415" id="edge_0_28"/><path d="M 236.8656716417904 170.0 V 169.95859014939333 H 235.67164179104415" id="edge_0_82"/><path d="M 243.28358208955157 169.56282545216393 V 169.52833698136936 H 239.47761194029786" id="edge_0_3293"/><path d="M 240.4477611940292 169.96384336818662 V 169.56282545216393 H 243.28358208955157" id="edge_0_230"/><path d="M 239.25373134328294 170.0 V 169.96384336818662 H 240.4477611940292" id="edge_0_83"/><path d="M 241.64179104477546 170.0 V 169.96384336818662 H 240.4477611940292" id="edge_0_110"/><path d="M 246.11940298507395 169.6436280327441 V 169.56282545216393 H 243.28358208955157" id="edge_0_2227"/><path d="M 244.02985074626798 170.0 V 169.6436280327441 H 246.11940298507395" id="edge_0_95"/><path d="M 248.2089552238799 169.7073040564776 V 169.6436280327441 H 246.11940298507395" id="edge_0_1533"/><path d="M 246.4179104477605 170.0 V 169.7073040564776 H 248.2089552238799" id="edge_0_151"/><path d="M 249.9999999999993 169.7783819228954 V 169.7073040564776 H 248.2089552238799" id="edge_0_943"/><path d="M 248.80597014925303 170.0 V 169.7783819228954 H 249.9999999999993" id="edge_0_72"/><path d="M 251.19402985074555 170.0 V 169.7783819228954 H 249.9999999999993" id="edge_0_168"/><path d="M 257.1641791044769 169.26738618979005 V 169.12218762488067 H 244.95335820895457" id="edge_0_7209"/><path d="M 254.77611940298434 169.6464363937044 V 169.26738618979005 H 257.1641791044769" id="edge_0_2189"/><path d="M 253.58208955223807 170.0 V 169.6464363937044 H 254.77611940298434" id="edge_0_142"/><path d="M 255.9701492537306 170.0 V 169.6464363937044 H 254.77611940298434" id="edge_0_185"/><path d="M 259.5522388059694 169.55034514875135 V 169.26738618979005 H 257.1641791044769" id="edge_0_3489"/><path d="M 258.3582089552231 170.0 V 169.55034514875135 H 259.5522388059694" id="edge_0_2"/><path d="M 260.74626865671564 170.0 V 169.55034514875135 H 259.5522388059694" id="edge_0_26"/><path d="M 268.6567164179096 169.11044726733172 V 169.09240439851087 H 256.8050373134321" id="edge_0_8306"/><path d="M 264.9253731343275 169.40018837853006 V 169.11044726733172 H 268.6567164179096" id="edge_0_5633"/><path d="M 263.13432835820817 170.0 V 169.40018837853006 H 264.9253731343275" id="edge_0_169"/><path d="M 266.7164179104469 169.5030950664066 V 169.40018837853006 H 264.9253731343275" id="edge_0_4148"/><path d="M 265.5223880597007 170.0 V 169.5030950664066 H 266.7164179104469" id="edge_0_35"/><path d="M 267.9104477611932 170.0 V 169.5030950664066 H 266.7164179104469" id="edge_0_58"/><path d="M 272.38805970149167 169.32685629708294 V 169.11044726733172 H 268.6567164179096" id="edge_0_6504"/><path d="M 270.29850746268573 170.0 V 169.32685629708294 H 272.38805970149167" id="edge_0_7"/><path d="M 274.4776119402976 169.55659916094322 V 169.32685629708294 H 272.38805970149167" id="edge_0_3389"/><path d="M 272.68656716417826 170.0 V 169.55659916094322 H 274.4776119402976" id="edge_0_70"/><path d="M 276.268656716417 169.79865255119262 V 169.55659916094322 H 274.4776119402976" id="edge_0_810"/><path d="M 275.0746268656708 170.0 V 169.79865255119262 H 276.268656716417" id="edge_0_31"/><path d="M 277.4626865671633 170.0 V 169.79865255119262 H 276.268656716417" id="edge_0_50"/><path d="M 286.56716417910354 169.0243913844018 V 169.02325272856027 H 271.6861007462678" id="edge_0_8747"/><path d="M 281.94029850746176 169.60394158551136 V 169.0243913844018 H 286.56716417910354" id="edge_0_2711"/><path d="M 279.8507462686558 170.0 V 169.60394158551136 H 281.94029850746176" id="edge_0_114"/><path d="M 284.0298507462677 169.81517010596156 V 169.60394158551136 H 281.94029850746176" id="edge_0_726"/><path d="M 282.23880597014835 170.0 V 169.81517010596156 H 284.0298507462677" id="edge_0_100"/><path d="M 285.8208955223871 169.9775316087662 V 169.81517010596156 H 284.0298507462677" id="edge_0_210"/><path d="M 284.62686567164087 170.0 V 169.9775316087662 H 285.8208955223871" id="edge_0_62"/><path d="M 287.0149253731334 170.0 V 169.9775316087662 H 285.8208955223871" id="edge_0_172"/><path d="M 291.1940298507453 169.13094006292536 V 169.0243913844018 H 286.56716417910354" id="edge_0_8189"/><path d="M 289.4029850746259 170.0 V 169.13094006292536 H 291.1940298507453" id="edge_0_48"/><path d="M 292.98507462686473 169.4234805347613 V 169.13094006292536 H 291.1940298507453" id="edge_0_5324"/><path d="M 291.79104477611844 170.0 V 169.4234805347613 H 292.98507462686473" id="edge_0_139"/><path d="M 294.17910447761096 170.0 V 169.4234805347613 H 292.98507462686473" id="edge_0_141"/><path d="M 312.5373134328347 161.51578997731528 V 160.4834568575663 H 267.6426947294768" id="edge_0_19711"/><path d="M 296.5671641791035 170.0 V 161.51578997731528 H 312.5373134328347" id="edge_0_102"/><path d="M 328.507462686566 165.18032536109743 V 161.51578997731528 H 312.5373134328347" id="edge_0_14410"/><path d="M 304.02985074626764 168.9030877328317 V 165.18032536109743 H 328.507462686566" id="edge_0_9197"/><path d="M 298.955223880596 170.0 V 168.9030877328317 H 304.02985074626764" id="edge_0_105"/><path d="M 309.1044776119393 168.924977155438 V 168.9030877328317 H 304.02985074626764" id="edge_0_9120"/><path d="M 303.4328358208945 169.56531283525192 V 168.924977155438 H 309.1044776119393" id="edge_0_3250"/><path d="M 301.34328358208853 170.0 V 169.56531283525192 H 303.4328358208945" id="edge_0_71"/><path d="M 305.52238805970046 169.8933372208462 V 169.56531283525192 H 303.4328358208945" id="edge_0_378"/><path d="M 303.73134328358105 170.0 V 169.8933372208462 H 305.52238805970046" id="edge_0_148"/><path d="M 307.31343283581987 169.91055740661324 V 169.8933372208462 H 305.52238805970046" id="edge_0_331"/><path d="M 306.1194029850736 170.0 V 169.91055740661324 H 307.31343283581987" id="edge_0_4"/><path d="M 308.5074626865661 170.0 V 169.91055740661324 H 307.31343283581987" id="edge_0_197"/><path d="M 314.77611940298397 169.25211048357653 V 168.924977155438 H 309.1044776119393" id="edge_0_7344"/><path d="M 312.0895522388049 169.4268614370936 V 169.25211048357653 H 314.77611940298397" id="edge_0_5269"/><path d="M 310.8955223880586 170.0 V 169.4268614370936 H 312.0895522388049" id="edge_0_27"/><path d="M 313.28358208955115 170.0 V 169.4268614370936 H 312.0895522388049" id="edge_0_160"/><path d="M 317.462686567163 169.27879665440548 V 169.25211048357653 H 314.77611940298397" id="edge_0_7073"/><path d="M 315.67164179104367 170.0 V 169.27879665440548 H 317.462686567163" id="edge_0_158"/><path d="M 319.2537313432824 169.65623485248108 V 169.27879665440548 H 317.462686567163" id="edge_0_2069"/><path d="M 318.0597014925362 170.0 V 169.65623485248108 H 319.2537313432824" id="edge_0_68"/><path d="M 320.4477611940287 170.0 V 169.65623485248108 H 319.2537313432824" id="edge_0_178"/><path d="M 352.9850746268644 168.31697692109458 V 165.18032536109743 H 328.507462686566" id="edge_0_10620"/><path d="M 338.35820895522266 168.73448922161393 V 168.31697692109458 H 352.9850746268644" id="edge_0_9708"/><path d="M 329.2537313432824 169.25386627232086 V 168.73448922161393 H 338.35820895522266" id="edge_0_7330"/><path d="M 324.62686567164064 169.54222670150327 V 169.25386627232086 H 329.2537313432824" id="edge_0_3594"/><path d="M 322.83582089552124 170.0 V 169.54222670150327 H 324.62686567164064" id="edge_0_8"/><path d="M 326.41791044776005 169.65691085214297 V 169.54222670150327 H 324.62686567164064" id="edge_0_2058"/><path d="M 325.22388059701376 170.0 V 169.65691085214297 H 326.41791044776005" id="edge_0_14"/><path d="M 327.6119402985063 170.0 V 169.65691085214297 H 326.41791044776005" id="edge_0_41"/><path d="M 333.88059701492415 169.3170512343238 V 169.25386627232086 H 329.2537313432824" id="edge_0_6601"/><path d="M 331.1940298507451 169.4597625289855 V 169.3170512343238 H 333.88059701492415" id="edge_0_4776"/><path d="M 329.9999999999988 170.0 V 169.4597625289855 H 331.1940298507451" id="edge_0_56"/><path d="M 332.38805970149133 170.0 V 169.4597625289855 H 331.1940298507451" id="edge_0_187"/><path d="M 336.5671641791032 169.4365444504394 V 169.3170512343238 H 333.88059701492415" id="edge_0_5131"/><path d="M 334.77611940298385 170.0 V 169.4365444504394 H 336.5671641791032" id="edge_0_84"/><path d="M 338.3582089552226 169.50092780665068 V 169.4365444504394 H 336.5671641791032" id="edge_0_4179"/><path d="M 337.1641791044764 170.0 V 169.50092780665068 H 338.3582089552226" id="edge_0_162"/><path d="M 339.5522388059689 170.0 V 169.50092780665068 H 338.3582089552226" id="edge_0_163"/><path d="M 347.4626865671629 169.18747124842628 V 168.73448922161393 H 338.35820895522266" id="edge_0_7828"/><path d="M 343.7313432835808 169.42519334516444 V 169.18747124842628 H 347.4626865671629" id="edge_0_5299"/><path d="M 341.9402985074614 170.0 V 169.42519334516444 H 343.7313432835808" id="edge_0_113"/><path d="M 345.52238805970023 169.5938163480373 V 169.42519334516444 H 343.7313432835808" id="edge_0_2843"/><path d="M 344.32835820895394 170.0 V 169.5938163480373 H 345.52238805970023" id="edge_0_98"/><path d="M 346.71641791044647 170.0 V 169.5938163480373 H 345.52238805970023" id="edge_0_128"/><path d="M 351.194029850745 169.36617040348636 V 169.18747124842628 H 347.4626865671629" id="edge_0_6071"/><path d="M 349.104477611939 170.0 V 169.36617040348636 H 351.194029850745" id="edge_0_63"/><path d="M 353.2835820895509 169.507947620955 V 169.36617040348636 H 351.194029850745" id="edge_0_4063"/><path d="M 351.4925373134315 170.0 V 169.507947620955 H 353.2835820895509" id="edge_0_22"/><path d="M 355.0746268656703 169.84618600837584 V 169.507947620955 H 353.2835820895509" id="edge_0_564"/><path d="M 353.88059701492404 170.0 V 169.84618600837584 H 355.0746268656703" id="edge_0_30"/><path d="M 356.26865671641656 170.0 V 169.84618600837584 H 355.0746268656703" id="edge_0_73"/><path d="M 367.61194029850606 168.64412572505688 V 168.31697692109458 H 352.9850746268644" id="edge_0_9936"/><path d="M 362.5373134328344 169.1528304626387 V 168.64412572505688 H 367.61194029850606" id="edge_0_8062"/><path d="M 359.85074626865537 169.48459831370914 V 169.1528304626387 H 362.5373134328344" id="edge_0_4437"/><path d="M 358.6567164179091 170.0 V 169.48459831370914 H 359.85074626865537" id="edge_0_74"/><path d="M 361.0447761194016 170.0 V 169.48459831370914 H 359.85074626865537" id="edge_0_97"/><path d="M 365.2238805970135 169.15765027598184 V 169.1528304626387 H 362.5373134328344" id="edge_0_8030"/><path d="M 363.4328358208941 170.0 V 169.15765027598184 H 365.2238805970135" id="edge_0_143"/><path d="M 367.0149253731329 169.6704683768485 V 169.15765027598184 H 365.2238805970135" id="edge_0_1925"/><path d="M 365.82089552238665 170.0 V 169.6704683768485 H 367.0149253731329" id="edge_0_116"/><path d="M 368.2089552238792 170.0 V 169.6704683768485 H 367.0149253731329" id="edge_0_133"/><path d="M 372.68656716417763 169.03947867106345 V 168.64412572505688 H 367.61194029850606" id="edge_0_8677"/><path d="M 370.5970149253717 170.0 V 169.03947867106345 H 372.68656716417763" id="edge_0_39"/><path d="M 374.77611940298357 169.57801600147963 V 169.03947867106345 H 372.68656716417763" id="edge_0_3075"/><path d="M 372.9850746268642 170.0 V 169.57801600147963 H 374.77611940298357" id="edge_0_11"/><path d="M 376.567164179103 169.8238757804302 V 169.57801600147963 H 374.77611940298357" id="edge_0_679"/><path d="M 375.37313432835674 170.0 V 169.8238757804302 H 376.567164179103" id="edge_0_161"/><path d="M 377.76119402984926 170.0 V 169.8238757804302 H 376.567164179103" id="edge_0_195"/><path d="M 415.2168843283565 160.29858816339546 V 147.11591567051778 H 341.4297895289167" id="edge_0_21165"/><path d="M 386.567164179103 167.23990885612784 V 160.29858816339546 H 415.2168843283565" id="edge_0_12043"/><path d="M 381.9402985074612 169.39796752908714 V 167.23990885612784 H 386.567164179103" id="edge_0_5658"/><path d="M 380.1492537313418 170.0 V 169.39796752908714 H 381.9402985074612" id="edge_0_65"/><path d="M 383.7313432835806 169.47546036531605 V 169.39796752908714 H 381.9402985074612" id="edge_0_4581"/><path d="M 382.5373134328343 170.0 V 169.47546036531605 H 383.7313432835806" id="edge_0_121"/><path d="M 384.92537313432683 170.0 V 169.47546036531605 H 383.7313432835806" id="edge_0_192"/><path d="M 391.1940298507447 167.99751694770148 V 167.23990885612784 H 386.567164179103" id="edge_0_11154"/><path d="M 388.50746268656565 169.70463775205016 V 167.99751694770148 H 391.1940298507447" id="edge_0_1550"/><path d="M 387.31343283581936 170.0 V 169.70463775205016 H 388.50746268656565" id="edge_0_13"/><path d="M 389.7014925373119 170.0 V 169.70463775205016 H 388.50746268656565" id="edge_0_166"/><path d="M 393.88059701492375 168.01753903776438 V 167.99751694770148 H 391.1940298507447" id="edge_0_11127"/><path d="M 392.0895522388044 170.0 V 168.01753903776438 H 393.88059701492375" id="edge_0_81"/><path d="M 395.67164179104316 169.97362599822083 V 168.01753903776438 H 393.88059701492375" id="edge_0_214"/><path d="M 394.4776119402969 170.0 V 169.97362599822083 H 395.67164179104316" id="edge_0_85"/><path d="M 396.86567164178945 170.0 V 169.97362599822083 H 395.67164179104316" id="edge_0_136"/><path d="M 443.86660447761005 161.28796495527862 V 160.29858816339546 H 415.2168843283565" id="edge_0_19996"/><path d="M 416.3526119402968 164.19936954896673 V 161.28796495527862 H 443.86660447761005" id="edge_0_15869"/><path d="M 401.3432835820879 169.454770408513 V 164.19936954896673 H 416.3526119402968" id="edge_0_4840"/><path d="M 399.25373134328197 170.0 V 169.454770408513 H 401.3432835820879" id="edge_0_115"/><path d="M 403.43283582089384 169.59046013151934 V 169.454770408513 H 401.3432835820879" id="edge_0_2903"/><path d="M 401.6417910447745 170.0 V 169.59046013151934 H 403.43283582089384" id="edge_0_123"/><path d="M 405.22388059701325 169.63744810445414 V 169.59046013151934 H 403.43283582089384" id="edge_0_2295"/><path d="M 404.029850746267 170.0 V 169.63744810445414 H 405.22388059701325" id="edge_0_119"/><path d="M 406.41791044775954 170.0 V 169.63744810445414 H 405.22388059701325" id="edge_0_181"/><path d="M 431.3619402985057 167.8270330491141 V 164.19936954896673 H 416.3526119402968" id="edge_0_11392"/><path d="M 416.0074626865655 169.27949582385156 V 167.8270330491141 H 431.3619402985057" id="edge_0_7067"/><path d="M 408.80597014925206 170.0 V 169.27949582385156 H 416.0074626865655" id="edge_0_159"/><path d="M 423.2089552238789 169.28654050232618 V 169.27949582385156 H 416.0074626865655" id="edge_0_6977"/><path d="M 415.9701492537297 169.40832907617124 V 169.28654050232618 H 423.2089552238789" id="edge_0_5527"/><path d="M 412.3880597014909 169.98311189402318 V 169.40832907617124 H 415.9701492537297" id="edge_0_207"/><path d="M 411.1940298507446 170.0 V 169.98311189402318 H 412.3880597014909" id="edge_0_32"/><path d="M 413.5820895522371 170.0 V 169.98311189402318 H 412.3880597014909" id="edge_0_180"/><path d="M 419.55223880596844 169.49832039898868 V 169.40832907617124 H 415.9701492537297" id="edge_0_4234"/><path d="M 417.1641791044759 169.92549439931722 V 169.49832039898868 H 419.55223880596844" id="edge_0_292"/><path d="M 415.97014925372963 170.0 V 169.92549439931722 H 417.1641791044759" id="edge_0_138"/><path d="M 418.35820895522215 170.0 V 169.92549439931722 H 417.1641791044759" id="edge_0_193"/><path d="M 421.94029850746097 169.57415019364407 V 169.49832039898868 H 419.55223880596844" id="edge_0_3127"/><path d="M 420.7462686567147 170.0 V 169.57415019364407 H 421.94029850746097" id="edge_0_6"/><path d="M 423.1343283582072 170.0 V 169.57415019364407 H 421.94029850746097" id="edge_0_42"/><path d="M 430.4477611940281 169.39391659191136 V 169.28654050232618 H 423.2089552238789" id="edge_0_5703"/><path d="M 425.5223880596997 170.0 V 169.39391659191136 H 430.4477611940281" id="edge_0_78"/><path d="M 435.3731343283564 169.40037662187086 V 169.39391659191136 H 430.4477611940281" id="edge_0_5631"/><path d="M 431.492537313431 169.63846290880753 V 169.40037662187086 H 435.3731343283564" id="edge_0_2283"/><path d="M 429.1044776119385 169.94893640356707 V 169.63846290880753 H 431.492537313431" id="edge_0_254"/><path d="M 427.91044776119224 170.0 V 169.94893640356707 H 429.1044776119385" id="edge_0_88"/><path d="M 430.29850746268477 170.0 V 169.94893640356707 H 429.1044776119385" id="edge_0_194"/><path d="M 433.8805970149235 169.8672754976188 V 169.63846290880753 H 431.492537313431" id="edge_0_476"/><path d="M 432.6865671641773 170.0 V 169.8672754976188 H 433.8805970149235" id="edge_0_77"/><path d="M 435.0746268656698 170.0 V 169.8672754976188 H 433.8805970149235" id="edge_0_196"/><path d="M 439.25373134328174 169.43956757628615 V 169.40037662187086 H 435.3731343283564" id="edge_0_5094"/><path d="M 437.46268656716234 170.0 V 169.43956757628615 H 439.25373134328174" id="edge_0_94"/><path d="M 441.04477611940115 169.70110594087618 V 169.43956757628615 H 439.25373134328174" id="edge_0_1591"/><path d="M 439.85074626865486 170.0 V 169.70110594087618 H 441.04477611940115" id="edge_0_5"/><path d="M 442.2388059701474 170.0 V 169.70110594087618 H 441.04477611940115" id="edge_0_109"/><path d="M 446.7164179104459 168.163480041728 V 167.8270330491141 H 431.3619402985057" id="edge_0_10911"/><path d="M 444.6268656716399 170.0 V 168.163480041728 H 446.7164179104459" id="edge_0_67"/><path d="M 448.80597014925183 169.2145787752619 V 168.163480041728 H 446.7164179104459" id="edge_0_7628"/><path d="M 447.0149253731324 170.0 V 169.2145787752619 H 448.80597014925183" id="edge_0_21"/><path d="M 450.59701492537124 169.43007085719782 V 169.2145787752619 H 448.80597014925183" id="edge_0_5218"/><path d="M 449.40298507462495 170.0 V 169.43007085719782 H 450.59701492537124" id="edge_0_19"/><path d="M 451.7910447761175 170.0 V 169.43007085719782 H 450.59701492537124" id="edge_0_64"/><path d="M 471.3805970149233 164.18995126558463 V 161.28796495527862 H 443.86660447761005" id="edge_0_15880"/><path d="M 460.2238805970129 168.82093424276536 V 164.18995126558463 H 471.3805970149233" id="edge_0_9474"/><path d="M 455.97014925372935 169.45117522926202 V 168.82093424276536 H 460.2238805970129" id="edge_0_4897"/><path d="M 454.17910447761 170.0 V 169.45117522926202 H 455.97014925372935" id="edge_0_89"/><path d="M 457.76119402984875 169.9848069484636 V 169.45117522926202 H 455.97014925372935" id="edge_0_206"/><path d="M 456.5671641791025 170.0 V 169.9848069484636 H 457.76119402984875" id="edge_0_137"/><path d="M 458.95522388059504 170.0 V 169.9848069484636 H 457.76119402984875" id="edge_0_199"/><path d="M 464.47761194029647 168.99553113286584 V 168.82093424276536 H 460.2238805970129" id="edge_0_8869"/><path d="M 461.34328358208757 170.0 V 168.99553113286584 H 464.47761194029647" id="edge_0_156"/><path d="M 467.61194029850543 169.30331082314856 V 168.99553113286584 H 464.47761194029647" id="edge_0_6758"/><path d="M 463.7313432835801 170.0 V 169.30331082314856 H 467.61194029850543" id="edge_0_0"/><path d="M 471.4925373134308 169.30491799168252 V 169.30331082314856 H 467.61194029850543" id="edge_0_6749"/><path d="M 467.910447761192 169.9241533295056 V 169.30491799168252 H 471.4925373134308" id="edge_0_295"/><path d="M 466.1194029850726 170.0 V 169.9241533295056 H 467.910447761192" id="edge_0_47"/><path d="M 469.7014925373114 169.9942953481892 V 169.9241533295056 H 467.910447761192" id="edge_0_201"/><path d="M 468.50746268656513 170.0 V 169.9942953481892 H 469.7014925373114" id="edge_0_165"/><path d="M 470.89552238805766 170.0 V 169.9942953481892 H 469.7014925373114" id="edge_0_177"/><path d="M 475.07462686566953 169.47188475010907 V 169.30491799168252 H 471.4925373134308" id="edge_0_4623"/><path d="M 473.2835820895502 170.0 V 169.47188475010907 H 475.07462686566953" id="edge_0_132"/><path d="M 476.86567164178894 169.5805268698057 V 169.47188475010907 H 475.07462686566953" id="edge_0_3040"/><path d="M 475.6716417910427 170.0 V 169.5805268698057 H 476.86567164178894" id="edge_0_23"/><path d="M 478.0597014925352 170.0 V 169.5805268698057 H 476.86567164178894" id="edge_0_103"/><path d="M 482.5373134328337 165.3428126803977 V 164.18995126558463 H 471.3805970149233" id="edge_0_14180"/><path d="M 480.44776119402775 170.0 V 165.3428126803977 H 482.5373134328337" id="edge_0_134"/><path d="M 484.6268656716396 169.75170153424176 V 165.3428126803977 H 482.5373134328337" id="edge_0_1153"/><path d="M 482.83582089552027 170.0 V 169.75170153424176 H 484.6268656716396" id="edge_0_87"/><path d="M 486.417910447759 169.80755173015461 V 169.75170153424176 H 484.6268656716396" id="edge_0_769"/><path d="M 485.2238805970128 170.0 V 169.80755173015461 H 486.417910447759" id="edge_0_46"/><path d="M 487.6119402985053 170.0 V 169.80755173015461 H 486.417910447759" id="edge_0_174"/></g><g id="symbols"><g class="nodes"><circle cx="210.21145493236875" cy="30.0" id="node_0_36042" r="3"/><circle cx="78.99312033582086" cy="157.2779833101517" id="node_0_23560" r="3"/><circle cx="38.2276119402985" cy="161.03349430341098" id="node_0_20320" r="3"/><circle cx="14.626865671641792" cy="169.21105028550113" id="node_0_7659" r="3"/><circle cx="12.388059701492537" cy="170.0" id="node_0_182" r="3"/><circle cx="16.865671641791046" cy="169.627691857016" id="node_0_2414" r="3"/><circle cx="14.776119402985074" cy="170.0" id="node_0_171" r="3"/><circle cx="18.955223880597014" cy="169.76831499751646" id="node_0_1018" r="3"/><circle cx="17.16417910447761" cy="170.0" id="node_0_144" r="3"/><circle cx="20.746268656716417" cy="169.8631460667295" id="node_0_491" r="3"/><circle cx="19.55223880597015" cy="170.0" id="node_0_75" r="3"/><circle cx="21.940298507462686" cy="170.0" id="node_0_79" r="3"/><circle cx="61.82835820895522" cy="164.78610777101758" id="node_0_14953" r="3"/><circle cx="49.776119402985074" cy="168.38679006468342" id="node_0_10485" r="3"/><circle cx="37.16417910447761" cy="168.78533059320105" id="node_0_9579" r="3"/><circle cx="28.208955223880594" cy="169.27325317616473" id="node_0_7131" r="3"/><circle cx="25.52238805970149" cy="169.7001911704187" id="node_0_1606" r="3"/><circle cx="24.328358208955223" cy="170.0" id="node_0_99" r="3"/><circle cx="26.71641791044776" cy="170.0" id="node_0_186" r="3"/><circle cx="30.8955223880597" cy="169.30010452726373" id="node_0_6808" r="3"/><circle cx="29.104477611940297" cy="170.0" id="node_0_120" r="3"/><circle cx="32.6865671641791" cy="169.4153895049117" id="node_0_5432" r="3"/><circle cx="31.492537313432834" cy="170.0" id="node_0_96" r="3"/><circle cx="33.88059701492537" cy="170.0" id="node_0_170" r="3"/><circle cx="46.11940298507462" cy="169.02973838434784" id="node_0_8721" r="3"/><circle cx="40.14925373134328" cy="169.38398319120165" id="node_0_5812" r="3"/><circle cx="37.46268656716418" cy="169.7185773706974" id="node_0_1445" r="3"/><circle cx="36.26865671641791" cy="170.0" id="node_0_117" r="3"/><circle cx="38.656716417910445" cy="170.0" id="node_0_135" r="3"/><circle cx="42.83582089552239" cy="169.53458361322015" id="node_0_3702" r="3"/><circle cx="41.04477611940298" cy="170.0" id="node_0_153" r="3"/><circle cx="44.62686567164179" cy="169.54439048613895" id="node_0_3572" r="3"/><circle cx="43.43283582089552" cy="170.0" id="node_0_86" r="3"/><circle cx="45.82089552238806" cy="170.0" id="node_0_108" r="3"/><circle cx="52.089552238805965" cy="169.1269073535403" id="node_0_8205" r="3"/><circle cx="49.40298507462686" cy="169.45608521726223" id="node_0_4825" r="3"/><circle cx="48.208955223880594" cy="170.0" id="node_0_179" r="3"/><circle cx="50.59701492537313" cy="170.0" id="node_0_183" r="3"/><circle cx="54.776119402985074" cy="169.37366889121589" id="node_0_5978" r="3"/><circle cx="52.98507462686567" cy="170.0" id="node_0_29" r="3"/><circle cx="56.56716417910447" cy="169.94164988585084" id="node_0_268" r="3"/><circle cx="55.373134328358205" cy="170.0" id="node_0_149" r="3"/><circle cx="57.76119402985074" cy="170.0" id="node_0_167" r="3"/><circle cx="62.38805970149253" cy="168.4659433792433" id="node_0_10335" r="3"/><circle cx="60.14925373134328" cy="170.0" id="node_0_54" r="3"/><circle cx="64.62686567164178" cy="168.4948609362985" id="node_0_10280" r="3"/><circle cx="62.537313432835816" cy="170.0" id="node_0_189" r="3"/><circle cx="66.71641791044775" cy="169.02518897359565" id="node_0_8743" r="3"/><circle cx="64.92537313432835" cy="170.0" id="node_0_15" r="3"/><circle cx="68.50746268656715" cy="169.95226110550692" id="node_0_247" r="3"/><circle cx="67.31343283582089" cy="170.0" id="node_0_44" r="3"/><circle cx="69.70149253731343" cy="170.0" id="node_0_184" r="3"/><circle cx="73.88059701492537" cy="168.06002434406741" id="node_0_11072" r="3"/><circle cx="72.08955223880596" cy="170.0" id="node_0_25" r="3"/><circle cx="75.67164179104478" cy="169.99470377627128" id="node_0_200" r="3"/><circle cx="74.4776119402985" cy="170.0" id="node_0_53" r="3"/><circle cx="76.86567164179104" cy="170.0" id="node_0_140" r="3"/><circle cx="119.75862873134324" cy="158.2348060179685" id="node_0_22956" r="3"/><circle cx="97.01492537313432" cy="168.32221424924722" id="node_0_10605" r="3"/><circle cx="88.0597014925373" cy="169.20695480227016" id="node_0_7689" r="3"/><circle cx="83.13432835820895" cy="169.51089254751477" id="node_0_4013" r="3"/><circle cx="80.44776119402985" cy="169.88114266426948" id="node_0_423" r="3"/><circle cx="79.25373134328358" cy="170.0" id="node_0_38" r="3"/><circle cx="81.64179104477611" cy="170.0" id="node_0_122" r="3"/><circle cx="85.82089552238804" cy="169.75755695059343" id="node_0_1101" r="3"/><circle cx="84.02985074626865" cy="170.0" id="node_0_124" r="3"/><circle cx="87.61194029850745" cy="169.82325792120992" id="node_0_683" r="3"/><circle cx="86.41791044776119" cy="170.0" id="node_0_51" r="3"/><circle cx="88.80597014925372" cy="170.0" id="node_0_60" r="3"/><circle cx="92.98507462686567" cy="169.39138530224278" id="node_0_5738" r="3"/><circle cx="91.19402985074626" cy="170.0" id="node_0_126" r="3"/><circle cx="94.77611940298507" cy="169.64313432190818" id="node_0_2234" r="3"/><circle cx="93.5820895522388" cy="170.0" id="node_0_3" r="3"/><circle cx="95.97014925373134" cy="170.0" id="node_0_155" r="3"/><circle cx="105.97014925373134" cy="168.9513484241179" id="node_0_9025" r="3"/><circle cx="101.94029850746269" cy="169.14464071773097" id="node_0_8108" r="3"/><circle cx="99.55223880597015" cy="169.68246830462923" id="node_0_1787" r="3"/><circle cx="98.35820895522387" cy="170.0" id="node_0_52" r="3"/><circle cx="100.74626865671641" cy="170.0" id="node_0_131" r="3"/><circle cx="104.32835820895522" cy="169.5077887235929" id="node_0_4068" r="3"/><circle cx="103.13432835820895" cy="170.0" id="node_0_150" r="3"/><circle cx="105.52238805970148" cy="170.0" id="node_0_190" r="3"/><circle cx="110.0" cy="169.050959729991" id="node_0_8617" r="3"/><circle cx="107.91044776119402" cy="170.0" id="node_0_33" r="3"/><circle cx="112.08955223880596" cy="169.5969842685897" id="node_0_2797" r="3"/><circle cx="110.29850746268656" cy="170.0" id="node_0_104" r="3"/><circle cx="113.88059701492537" cy="169.89588329192483" id="node_0_369" r="3"/><circle cx="112.6865671641791" cy="170.0" id="node_0_55" r="3"/><circle cx="115.07462686567163" cy="170.0" id="node_0_146" r="3"/><circle cx="142.50233208955214" cy="159.24063192417765" id="node_0_22206" r="3"/><circle cx="127.98507462686564" cy="165.98242703756762" id="node_0_13285" r="3"/><circle cx="119.25373134328356" cy="169.04429219674566" id="node_0_8649" r="3"/><circle cx="117.46268656716417" cy="170.0" id="node_0_59" r="3"/><circle cx="121.04477611940297" cy="169.35886103041244" id="node_0_6159" r="3"/><circle cx="119.8507462686567" cy="170.0" id="node_0_61" r="3"/><circle cx="122.23880597014924" cy="170.0" id="node_0_101" r="3"/><circle cx="136.71641791044772" cy="168.74030302329078" id="node_0_9690" r="3"/><circle cx="129.40298507462683" cy="169.19471516174787" id="node_0_7784" r="3"/><circle cx="125.82089552238804" cy="169.28218602581904" id="node_0_7037" r="3"/><circle cx="124.62686567164178" cy="170.0" id="node_0_12" r="3"/><circle cx="127.01492537313432" cy="170.0" id="node_0_49" r="3"/><circle cx="132.98507462686564" cy="169.25314322516266" id="node_0_7334" r="3"/><circle cx="130.59701492537312" cy="169.5802610791803" id="node_0_3045" r="3"/><circle cx="129.40298507462686" cy="170.0" id="node_0_125" r="3"/><circle cx="131.7910447761194" cy="170.0" id="node_0_164" r="3"/><circle cx="135.3731343283582" cy="169.27046614903645" id="node_0_7175" r="3"/><circle cx="134.17910447761193" cy="170.0" id="node_0_18" r="3"/><circle cx="136.56716417910445" cy="170.0" id="node_0_173" r="3"/><circle cx="144.0298507462686" cy="169.04674741441383" id="node_0_8639" r="3"/><circle cx="140.74626865671638" cy="169.74433965507308" id="node_0_1218" r="3"/><circle cx="138.95522388059698" cy="170.0" id="node_0_93" r="3"/><circle cx="142.53731343283576" cy="169.7766586781505" id="node_0_953" r="3"/><circle cx="141.3432835820895" cy="170.0" id="node_0_69" r="3"/><circle cx="143.73134328358202" cy="170.0" id="node_0_129" r="3"/><circle cx="147.3134328358208" cy="169.47700125875895" id="node_0_4561" r="3"/><circle cx="146.11940298507454" cy="170.0" id="node_0_112" r="3"/><circle cx="148.50746268656707" cy="170.0" id="node_0_147" r="3"/><circle cx="157.01958955223864" cy="161.73272968775868" id="node_0_19440" r="3"/><circle cx="150.8955223880596" cy="170.0" id="node_0_57" r="3"/><circle cx="163.14365671641772" cy="162.97520509815652" id="node_0_17703" r="3"/><circle cx="155.37313432835808" cy="169.18087713734056" id="node_0_7878" r="3"/><circle cx="153.2835820895521" cy="170.0" id="node_0_107" r="3"/><circle cx="157.46268656716404" cy="169.51162290815228" id="node_0_4001" r="3"/><circle cx="155.67164179104464" cy="170.0" id="node_0_152" r="3"/><circle cx="159.25373134328342" cy="169.6076045606227" id="node_0_2667" r="3"/><circle cx="158.05970149253716" cy="170.0" id="node_0_17" r="3"/><circle cx="160.44776119402968" cy="170.0" id="node_0_175" r="3"/><circle cx="170.91417910447737" cy="164.44647665801577" id="node_0_15428" r="3"/><circle cx="162.8358208955222" cy="170.0" id="node_0_37" r="3"/><circle cx="178.99253731343254" cy="167.82818699654933" id="node_0_11389" r="3"/><circle cx="169.62686567164155" cy="169.03117386646701" id="node_0_8712" r="3"/><circle cx="165.22388059701473" cy="170.0" id="node_0_198" r="3"/><circle cx="174.0298507462684" cy="169.29160066378384" id="node_0_6917" r="3"/><circle cx="169.70149253731321" cy="169.58836889053785" id="node_0_2921" r="3"/><circle cx="167.61194029850725" cy="170.0" id="node_0_80" r="3"/><circle cx="171.79104477611918" cy="169.58972908217584" id="node_0_2908" r="3"/><circle cx="169.99999999999977" cy="170.0" id="node_0_43" r="3"/><circle cx="173.58208955223856" cy="169.8137708281313" id="node_0_733" r="3"/><circle cx="172.3880597014923" cy="170.0" id="node_0_157" r="3"/><circle cx="174.77611940298482" cy="170.0" id="node_0_188" r="3"/><circle cx="178.3582089552236" cy="169.48588023867862" id="node_0_4421" r="3"/><circle cx="177.16417910447734" cy="170.0" id="node_0_1" r="3"/><circle cx="179.55223880596986" cy="170.0" id="node_0_191" r="3"/><circle cx="188.35820895522355" cy="167.89009955935842" id="node_0_11305" r="3"/><circle cx="183.7313432835818" cy="169.74809483514088" id="node_0_1183" r="3"/><circle cx="181.9402985074624" cy="170.0" id="node_0_145" r="3"/><circle cx="185.52238805970117" cy="169.9686104949894" id="node_0_225" r="3"/><circle cx="184.3283582089549" cy="170.0" id="node_0_66" r="3"/><circle cx="186.71641791044743" cy="170.0" id="node_0_176" r="3"/><circle cx="192.9850746268653" cy="169.4927074904563" id="node_0_4319" r="3"/><circle cx="190.29850746268622" cy="169.6751351715181" id="node_0_1875" r="3"/><circle cx="189.10447761193996" cy="170.0" id="node_0_34" r="3"/><circle cx="191.49253731343248" cy="170.0" id="node_0_92" r="3"/><circle cx="195.6716417910444" cy="169.5860124426415" id="node_0_2956" r="3"/><circle cx="193.880597014925" cy="170.0" id="node_0_90" r="3"/><circle cx="197.4626865671638" cy="169.96941587068125" id="node_0_224" r="3"/><circle cx="196.26865671641752" cy="170.0" id="node_0_91" r="3"/><circle cx="198.65671641791005" cy="170.0" id="node_0_106" r="3"/><circle cx="341.4297895289167" cy="147.11591567051778" id="node_0_26178" r="3"/><circle cx="267.6426947294768" cy="160.4834568575663" id="node_0_20973" r="3"/><circle cx="222.74807602611887" cy="168.34923260680912" id="node_0_10546" r="3"/><circle cx="208.2835820895518" cy="168.5209056673703" id="node_0_10230" r="3"/><circle cx="202.83582089552198" cy="169.67881804263158" id="node_0_1829" r="3"/><circle cx="201.04477611940257" cy="170.0" id="node_0_130" r="3"/><circle cx="204.62686567164135" cy="169.8050315892089" id="node_0_785" r="3"/><circle cx="203.4328358208951" cy="170.0" id="node_0_24" r="3"/><circle cx="205.82089552238762" cy="170.0" id="node_0_127" r="3"/><circle cx="213.73134328358162" cy="169.42769960230237" id="node_0_5253" r="3"/><circle cx="209.99999999999955" cy="169.54189093617535" id="node_0_3601" r="3"/><circle cx="208.20895522388014" cy="170.0" id="node_0_36" r="3"/><circle cx="211.79104477611892" cy="169.88354223748166" id="node_0_415" r="3"/><circle cx="210.59701492537266" cy="170.0" id="node_0_40" r="3"/><circle cx="212.98507462686518" cy="170.0" id="node_0_154" r="3"/><circle cx="217.46268656716367" cy="169.43692967620754" id="node_0_5126" r="3"/><circle cx="215.3731343283577" cy="170.0" id="node_0_118" r="3"/><circle cx="219.55223880596964" cy="169.64095255578007" id="node_0_2259" r="3"/><circle cx="217.76119402985023" cy="170.0" id="node_0_16" r="3"/><circle cx="221.34328358208901" cy="169.8846648123458" id="node_0_409" r="3"/><circle cx="220.14925373134275" cy="170.0" id="node_0_20" r="3"/><circle cx="222.53731343283528" cy="170.0" id="node_0_76" r="3"/><circle cx="237.21256996268593" cy="168.42689555760322" id="node_0_10410" r="3"/><circle cx="224.9253731343278" cy="170.0" id="node_0_9" r="3"/><circle cx="249.49976679104407" cy="168.8284068656961" id="node_0_9458" r="3"/><circle cx="227.31343283582032" cy="170.0" id="node_0_45" r="3"/><circle cx="271.6861007462678" cy="169.02325272856027" id="node_0_8758" r="3"/><circle cx="256.8050373134321" cy="169.09240439851087" id="node_0_8401" r="3"/><circle cx="244.95335820895457" cy="169.12218762488067" id="node_0_8236" r="3"/><circle cx="232.74253731343222" cy="169.4320538702551" id="node_0_5198" r="3"/><circle cx="229.70149253731284" cy="170.0" id="node_0_10" r="3"/><circle cx="235.7835820895516" cy="169.4398336586287" id="node_0_5088" r="3"/><circle cx="232.08955223880537" cy="170.0" id="node_0_111" r="3"/><circle cx="239.47761194029786" cy="169.52833698136936" id="node_0_3791" r="3"/><circle cx="235.67164179104415" cy="169.95859014939333" id="node_0_236" r="3"/><circle cx="234.4776119402979" cy="170.0" id="node_0_28" r="3"/><circle cx="236.8656716417904" cy="170.0" id="node_0_82" r="3"/><circle cx="243.28358208955157" cy="169.56282545216393" id="node_0_3293" r="3"/><circle cx="240.4477611940292" cy="169.96384336818662" id="node_0_230" r="3"/><circle cx="239.25373134328294" cy="170.0" id="node_0_83" r="3"/><circle cx="241.64179104477546" cy="170.0" id="node_0_110" r="3"/><circle cx="246.11940298507395" cy="169.6436280327441" id="node_0_2227" r="3"/><circle cx="244.02985074626798" cy="170.0" id="node_0_95" r="3"/><circle cx="248.2089552238799" cy="169.7073040564776" id="node_0_1533" r="3"/><circle cx="246.4179104477605" cy="170.0" id="node_0_151" r="3"/><circle cx="249.9999999999993" cy="169.7783819228954" id="node_0_943" r="3"/><circle cx="248.80597014925303" cy="170.0" id="node_0_72" r="3"/><circle cx="251.19402985074555" cy="170.0" id="node_0_168" r="3"/><circle cx="257.1641791044769" cy="169.26738618979005" id="node_0_7209" r="3"/><circle cx="254.77611940298434" cy="169.6464363937044" id="node_0_2189" r="3"/><circle cx="253.58208955223807" cy="170.0" id="node_0_142" r="3"/><circle cx="255.9701492537306" cy="170.0" id="node_0_185" r="3"/><circle cx="259.5522388059694" cy="169.55034514875135" id="node_0_3489" r="3"/><circle cx="258.3582089552231" cy="170.0" id="node_0_2" r="3"/><circle cx="260.74626865671564" cy="170.0" id="node_0_26" r="3"/><circle cx="268.6567164179096" cy="169.11044726733172" id="node_0_8306" r="3"/><circle cx="264.9253731343275" cy="169.40018837853006" id="node_0_5633" r="3"/><circle cx="263.13432835820817" cy="170.0" id="node_0_169" r="3"/><circle cx="266.7164179104469" cy="169.5030950664066" id="node_0_4148" r="3"/><circle cx="265.5223880597007" cy="170.0" id="node_0_35" r="3"/><circle cx="267.9104477611932" cy="170.0" id="node_0_58" r="3"/><circle cx="272.38805970149167" cy="169.32685629708294" id="node_0_6504" r="3"/><circle cx="270.29850746268573" cy="170.0" id="node_0_7" r="3"/><circle cx="274.4776119402976" cy="169.55659916094322" id="node_0_3389" r="3"/><circle cx="272.68656716417826" cy="170.0" id="node_0_70" r="3"/><circle cx="276.268656716417" cy="169.79865255119262" id="node_0_810" r="3"/><circle cx="275.0746268656708" cy="170.0" id="node_0_31" r="3"/><circle cx="277.4626865671633" cy="170.0" id="node_0_50" r="3"/><circle cx="286.56716417910354" cy="169.0243913844018" id="node_0_8747" r="3"/><circle cx="281.94029850746176" cy="169.60394158551136" id="node_0_2711" r="3"/><circle cx="279.8507462686558" cy="170.0" id="node_0_114" r="3"/><circle cx="284.0298507462677" cy="169.81517010596156" id="node_0_726" r="3"/><circle cx="282.23880597014835" cy="170.0" id="node_0_100" r="3"/><circle cx="285.8208955223871" cy="169.9775316087662" id="node_0_210" r="3"/><circle cx="284.62686567164087" cy="170.0" id="node_0_62" r="3"/><circle cx="287.0149253731334" cy="170.0" id="node_0_172" r="3"/><circle cx="291.1940298507453" cy="169.13094006292536" id="node_0_8189" r="3"/><circle cx="289.4029850746259" cy="170.0" id="node_0_48" r="3"/><circle cx="292.98507462686473" cy="169.4234805347613" id="node_0_5324" r="3"/><circle cx="291.79104477611844" cy="170.0" id="node_0_139" r="3"/><circle cx="294.17910447761096" cy="170.0" id="node_0_141" r="3"/><circle cx="312.5373134328347" cy="161.51578997731528" id="node_0_19711" r="3"/><circle cx="296.5671641791035" cy="170.0" id="node_0_102" r="3"/><circle cx="328.507462686566" cy="165.18032536109743" id="node_0_14410" r="3"/><circle cx="304.02985074626764" cy="168.9030877328317" id="node_0_9197" r="3"/><circle cx="298.955223880596" cy="170.0" id="node_0_105" r="3"/><circle cx="309.1044776119393" cy="168.924977155438" id="node_0_9120" r="3"/><circle cx="303.4328358208945" cy="169.56531283525192" id="node_0_3250" r="3"/><circle cx="301.34328358208853" cy="170.0" id="node_0_71" r="3"/><circle cx="305.52238805970046" cy="169.8933372208462" id="node_0_378" r="3"/><circle cx="303.73134328358105" cy="170.0" id="node_0_148" r="3"/><circle cx="307.31343283581987" cy="169.91055740661324" id="node_0_331" r="3"/><circle cx="306.1194029850736" cy="170.0" id="node_0_4" r="3"/><circle cx="308.5074626865661" cy="170.0" id="node_0_197" r="3"/><circle cx="314.77611940298397" cy="169.25211048357653" id="node_0_7344" r="3"/><circle cx="312.0895522388049" cy="169.4268614370936" id="node_0_5269" r="3"/><circle cx="310.8955223880586" cy="170.0" id="node_0_27" r="3"/><circle cx="313.28358208955115" cy="170.0" id="node_0_160" r="3"/><circle cx="317.462686567163" cy="169.27879665440548" id="node_0_7073" r="3"/><circle cx="315.67164179104367" cy="170.0" id="node_0_158" r="3"/><circle cx="319.2537313432824" cy="169.65623485248108" id="node_0_2069" r="3"/><circle cx="318.0597014925362" cy="170.0" id="node_0_68" r="3"/><circle cx="320.4477611940287" cy="170.0" id="node_0_178" r="3"/><circle cx="352.9850746268644" cy="168.31697692109458" id="node_0_10620" r="3"/><circle cx="338.35820895522266" cy="168.73448922161393" id="node_0_9708" r="3"/><circle cx="329.2537313432824" cy="169.25386627232086" id="node_0_7330" r="3"/><circle cx="324.62686567164064" cy="169.54222670150327" id="node_0_3594" r="3"/><circle cx="322.83582089552124" cy="170.0" id="node_0_8" r="3"/><circle cx="326.41791044776005" cy="169.65691085214297" id="node_0_2058" r="3"/><circle cx="325.22388059701376" cy="170.0" id="node_0_14" r="3"/><circle cx="327.6119402985063" cy="170.0" id="node_0_41" r="3"/><circle cx="333.88059701492415" cy="169.3170512343238" id="node_0_6601" r="3"/><circle cx="331.1940298507451" cy="169.4597625289855" id="node_0_4776" r="3"/><circle cx="329.9999999999988" cy="170.0" id="node_0_56" r="3"/><circle cx="332.38805970149133" cy="170.0" id="node_0_187" r="3"/><circle cx="336.5671641791032" cy="169.4365444504394" id="node_0_5131" r="3"/><circle cx="334.77611940298385" cy="170.0" id="node_0_84" r="3"/><circle cx="338.3582089552226" cy="169.50092780665068" id="node_0_4179" r="3"/><circle cx="337.1641791044764" cy="170.0" id="node_0_162" r="3"/><circle cx="339.5522388059689" cy="170.0" id="node_0_163" r="3"/><circle cx="347.4626865671629" cy="169.18747124842628" id="node_0_7828" r="3"/><circle cx="343.7313432835808" cy="169.42519334516444" id="node_0_5299" r="3"/><circle cx="341.9402985074614" cy="170.0" id="node_0_113" r="3"/><circle cx="345.52238805970023" cy="169.5938163480373" id="node_0_2843" r="3"/><circle cx="344.32835820895394" cy="170.0" id="node_0_98" r="3"/><circle cx="346.71641791044647" cy="170.0" id="node_0_128" r="3"/><circle cx="351.194029850745" cy="169.36617040348636" id="node_0_6071" r="3"/><circle cx="349.104477611939" cy="170.0" id="node_0_63" r="3"/><circle cx="353.2835820895509" cy="169.507947620955" id="node_0_4063" r="3"/><circle cx="351.4925373134315" cy="170.0" id="node_0_22" r="3"/><circle cx="355.0746268656703" cy="169.84618600837584" id="node_0_564" r="3"/><circle cx="353.88059701492404" cy="170.0" id="node_0_30" r="3"/><circle cx="356.26865671641656" cy="170.0" id="node_0_73" r="3"/><circle cx="367.61194029850606" cy="168.64412572505688" id="node_0_9936" r="3"/><circle cx="362.5373134328344" cy="169.1528304626387" id="node_0_8062" r="3"/><circle cx="359.85074626865537" cy="169.48459831370914" id="node_0_4437" r="3"/><circle cx="358.6567164179091" cy="170.0" id="node_0_74" r="3"/><circle cx="361.0447761194016" cy="170.0" id="node_0_97" r="3"/><circle cx="365.2238805970135" cy="169.15765027598184" id="node_0_8030" r="3"/><circle cx="363.4328358208941" cy="170.0" id="node_0_143" r="3"/><circle cx="367.0149253731329" cy="169.6704683768485" id="node_0_1925" r="3"/><circle cx="365.82089552238665" cy="170.0" id="node_0_116" r="3"/><circle cx="368.2089552238792" cy="170.0" id="node_0_133" r="3"/><circle cx="372.68656716417763" cy="169.03947867106345" id="node_0_8677" r="3"/><circle cx="370.5970149253717" cy="170.0" id="node_0_39" r="3"/><circle cx="374.77611940298357" cy="169.57801600147963" id="node_0_3075" r="3"/><circle cx="372.9850746268642" cy="170.0" id="node_0_11" r="3"/><circle cx="376.567164179103" cy="169.8238757804302" id="node_0_679" r="3"/><circle cx="375.37313432835674" cy="170.0" id="node_0_161" r="3"/><circle cx="377.76119402984926" cy="170.0" id="node_0_195" r="3"/><circle cx="415.2168843283565" cy="160.29858816339546" id="node_0_21165" r="3"/><circle cx="386.567164179103" cy="167.23990885612784" id="node_0_12043" r="3"/><circle cx="381.9402985074612" cy="169.39796752908714" id="node_0_5658" r="3"/><circle cx="380.1492537313418" cy="170.0" id="node_0_65" r="3"/><circle cx="383.7313432835806" cy="169.47546036531605" id="node_0_4581" r="3"/><circle cx="382.5373134328343" cy="170.0" id="node_0_121" r="3"/><circle cx="384.92537313432683" cy="170.0" id="node_0_192" r="3"/><circle cx="391.1940298507447" cy="167.99751694770148" id="node_0_11154" r="3"/><circle cx="388.50746268656565" cy="169.70463775205016" id="node_0_1550" r="3"/><circle cx="387.31343283581936" cy="170.0" id="node_0_13" r="3"/><circle cx="389.7014925373119" cy="170.0" id="node_0_166" r="3"/><circle cx="393.88059701492375" cy="168.01753903776438" id="node_0_11127" r="3"/><circle cx="392.0895522388044" cy="170.0" id="node_0_81" r="3"/><circle cx="395.67164179104316" cy="169.97362599822083" id="node_0_214" r="3"/><circle cx="394.4776119402969" cy="170.0" id="node_0_85" r="3"/><circle cx="396.86567164178945" cy="170.0" id="node_0_136" r="3"/><circle cx="443.86660447761005" cy="161.28796495527862" id="node_0_19996" r="3"/><circle cx="416.3526119402968" cy="164.19936954896673" id="node_0_15869" r="3"/><circle cx="401.3432835820879" cy="169.454770408513" id="node_0_4840" r="3"/><circle cx="399.25373134328197" cy="170.0" id="node_0_115" r="3"/><circle cx="403.43283582089384" cy="169.59046013151934" id="node_0_2903" r="3"/><circle cx="401.6417910447745" cy="170.0" id="node_0_123" r="3"/><circle cx="405.22388059701325" cy="169.63744810445414" id="node_0_2295" r="3"/><circle cx="404.029850746267" cy="170.0" id="node_0_119" r="3"/><circle cx="406.41791044775954" cy="170.0" id="node_0_181" r="3"/><circle cx="431.3619402985057" cy="167.8270330491141" id="node_0_11392" r="3"/><circle cx="416.0074626865655" cy="169.27949582385156" id="node_0_7067" r="3"/><circle cx="408.80597014925206" cy="170.0" id="node_0_159" r="3"/><circle cx="423.2089552238789" cy="169.28654050232618" id="node_0_6977" r="3"/><circle cx="415.9701492537297" cy="169.40832907617124" id="node_0_5527" r="3"/><circle cx="412.3880597014909" cy="169.98311189402318" id="node_0_207" r="3"/><circle cx="411.1940298507446" cy="170.0" id="node_0_32" r="3"/><circle cx="413.5820895522371" cy="170.0" id="node_0_180" r="3"/><circle cx="419.55223880596844" cy="169.49832039898868" id="node_0_4234" r="3"/><circle cx="417.1641791044759" cy="169.92549439931722" id="node_0_292" r="3"/><circle cx="415.97014925372963" cy="170.0" id="node_0_138" r="3"/><circle cx="418.35820895522215" cy="170.0" id="node_0_193" r="3"/><circle cx="421.94029850746097" cy="169.57415019364407" id="node_0_3127" r="3"/><circle cx="420.7462686567147" cy="170.0" id="node_0_6" r="3"/><circle cx="423.1343283582072" cy="170.0" id="node_0_42" r="3"/><circle cx="430.4477611940281" cy="169.39391659191136" id="node_0_5703" r="3"/><circle cx="425.5223880596997" cy="170.0" id="node_0_78" r="3"/><circle cx="435.3731343283564" cy="169.40037662187086" id="node_0_5631" r="3"/><circle cx="431.492537313431" cy="169.63846290880753" id="node_0_2283" r="3"/><circle cx="429.1044776119385" cy="169.94893640356707" id="node_0_254" r="3"/><circle cx="427.91044776119224" cy="170.0" id="node_0_88" r="3"/><circle cx="430.29850746268477" cy="170.0" id="node_0_194" r="3"/><circle cx="433.8805970149235" cy="169.8672754976188" id="node_0_476" r="3"/><circle cx="432.6865671641773" cy="170.0" id="node_0_77" r="3"/><circle cx="435.0746268656698" cy="170.0" id="node_0_196" r="3"/><circle cx="439.25373134328174" cy="169.43956757628615" id="node_0_5094" r="3"/><circle cx="437.46268656716234" cy="170.0" id="node_0_94" r="3"/><circle cx="441.04477611940115" cy="169.70110594087618" id="node_0_1591" r="3"/><circle cx="439.85074626865486" cy="170.0" id="node_0_5" r="3"/><circle cx="442.2388059701474" cy="170.0" id="node_0_109" r="3"/><circle cx="446.7164179104459" cy="168.163480041728" id="node_0_10911" r="3"/><circle cx="444.6268656716399" cy="170.0" id="node_0_67" r="3"/><circle cx="448.80597014925183" cy="169.2145787752619" id="node_0_7628" r="3"/><circle cx="447.0149253731324" cy="170.0" id="node_0_21" r="3"/><circle cx="450.59701492537124" cy="169.43007085719782" id="node_0_5218" r="3"/><circle cx="449.40298507462495" cy="170.0" id="node_0_19" r="3"/><circle cx="451.7910447761175" cy="170.0" id="node_0_64" r="3"/><circle cx="471.3805970149233" cy="164.18995126558463" id="node_0_15880" r="3"/><circle cx="460.2238805970129" cy="168.82093424276536" id="node_0_9474" r="3"/><circle cx="455.97014925372935" cy="169.45117522926202" id="node_0_4897" r="3"/><circle cx="454.17910447761" cy="170.0" id="node_0_89" r="3"/><circle cx="457.76119402984875" cy="169.9848069484636" id="node_0_206" r="3"/><circle cx="456.5671641791025" cy="170.0" id="node_0_137" r="3"/><circle cx="458.95522388059504" cy="170.0" id="node_0_199" r="3"/><circle cx="464.47761194029647" cy="168.99553113286584" id="node_0_8869" r="3"/><circle cx="461.34328358208757" cy="170.0" id="node_0_156" r="3"/><circle cx="467.61194029850543" cy="169.30331082314856" id="node_0_6758" r="3"/><circle cx="463.7313432835801" cy="170.0" id="node_0_0" r="3"/><circle cx="471.4925373134308" cy="169.30491799168252" id="node_0_6749" r="3"/><circle cx="467.910447761192" cy="169.9241533295056" id="node_0_295" r="3"/><circle cx="466.1194029850726" cy="170.0" id="node_0_47" r="3"/><circle cx="469.7014925373114" cy="169.9942953481892" id="node_0_201" r="3"/><circle cx="468.50746268656513" cy="170.0" id="node_0_165" r="3"/><circle cx="470.89552238805766" cy="170.0" id="node_0_177" r="3"/><circle cx="475.07462686566953" cy="169.47188475010907" id="node_0_4623" r="3"/><circle cx="473.2835820895502" cy="170.0" id="node_0_132" r="3"/><circle cx="476.86567164178894" cy="169.5805268698057" id="node_0_3040" r="3"/><circle cx="475.6716417910427" cy="170.0" id="node_0_23" r="3"/><circle cx="478.0597014925352" cy="170.0" id="node_0_103" r="3"/><circle cx="482.5373134328337" cy="165.3428126803977" id="node_0_14180" r="3"/><circle cx="480.44776119402775" cy="170.0" id="node_0_134" r="3"/><circle cx="484.6268656716396" cy="169.75170153424176" id="node_0_1153" r="3"/><circle cx="482.83582089552027" cy="170.0" id="node_0_87" r="3"/><circle cx="486.417910447759" cy="169.80755173015461" id="node_0_769" r="3"/><circle cx="485.2238805970128" cy="170.0" id="node_0_46" r="3"/><circle cx="487.6119402985053" cy="170.0" id="node_0_174" r="3"/></g><g class="mutations" fill="red"/></g><g font-size="14" id="labels"><g class="nodes"><g text-anchor="start"><text x="21.865671641791046" y="164.627691857016"/><text x="23.955223880597014" y="164.76831499751646"/><text x="25.746268656716417" y="164.8631460667295"/><text x="66.82835820895522" y="159.78610777101758"/><text x="35.8955223880597" y="164.30010452726373"/><text x="37.6865671641791" y="164.4153895049117"/><text x="51.11940298507462" y="164.02973838434784"/><text x="47.83582089552239" y="164.53458361322015"/><text x="49.62686567164179" y="164.54439048613895"/><text x="57.089552238805965" y="164.1269073535403"/><text x="59.776119402985074" y="164.37366889121589"/><text x="61.56716417910447" y="164.94164988585084"/><text x="67.38805970149252" y="163.4659433792433"/><text x="69.62686567164178" y="163.4948609362985"/><text x="71.71641791044775" y="164.02518897359565"/><text x="73.50746268656715" y="164.95226110550692"/><text x="78.88059701492537" y="163.06002434406741"/><text x="80.67164179104478" y="164.99470377627128"/><text x="124.75862873134324" y="153.2348060179685"/><text x="90.82089552238804" y="164.75755695059343"/><text x="92.61194029850745" y="164.82325792120992"/><text x="97.98507462686567" y="164.39138530224278"/><text x="99.77611940298507" y="164.64313432190818"/><text x="110.97014925373134" y="163.9513484241179"/><text x="109.32835820895522" y="164.5077887235929"/><text x="115.0" y="164.050959729991"/><text x="117.08955223880596" y="164.5969842685897"/><text x="118.88059701492537" y="164.89588329192483"/><text x="147.50233208955214" y="154.24063192417765"/><text x="126.04477611940297" y="164.35886103041244"/><text x="141.71641791044772" y="163.74030302329078"/><text x="137.98507462686564" y="164.25314322516266"/><text x="140.3731343283582" y="164.27046614903645"/><text x="149.0298507462686" y="164.04674741441383"/><text x="147.53731343283576" y="164.7766586781505"/><text x="152.3134328358208" y="164.47700125875895"/><text x="162.01958955223864" y="156.73272968775868"/><text x="168.14365671641772" y="157.97520509815652"/><text x="162.46268656716404" y="164.51162290815228"/><text x="164.25373134328342" y="164.6076045606227"/><text x="175.91417910447737" y="159.44647665801577"/><text x="183.99253731343254" y="162.82818699654933"/><text x="179.0298507462684" y="164.29160066378384"/><text x="176.79104477611918" y="164.58972908217584"/><text x="178.58208955223856" y="164.8137708281313"/><text x="183.3582089552236" y="164.48588023867862"/><text x="193.35820895522355" y="162.89009955935842"/><text x="190.52238805970117" y="164.9686104949894"/><text x="197.9850746268653" y="164.4927074904563"/><text x="200.6716417910444" y="164.5860124426415"/><text x="202.4626865671638" y="164.96941587068125"/><text x="346.4297895289167" y="142.11591567051778"/><text x="209.62686567164135" y="164.8050315892089"/><text x="218.73134328358162" y="164.42769960230237"/><text x="216.79104477611892" y="164.88354223748166"/><text x="222.46268656716367" y="164.43692967620754"/><text x="224.55223880596964" y="164.64095255578007"/><text x="226.34328358208901" y="164.8846648123458"/><text x="242.21256996268593" y="163.42689555760322"/><text x="254.49976679104407" y="163.8284068656961"/><text x="276.6861007462678" y="164.02325272856027"/><text x="240.7835820895516" y="164.4398336586287"/><text x="244.47761194029786" y="164.52833698136936"/><text x="248.28358208955157" y="164.56282545216393"/><text x="251.11940298507395" y="164.6436280327441"/><text x="253.2089552238799" y="164.7073040564776"/><text x="254.9999999999993" y="164.7783819228954"/><text x="262.1641791044769" y="164.26738618979005"/><text x="264.5522388059694" y="164.55034514875135"/><text x="273.6567164179096" y="164.11044726733172"/><text x="271.7164179104469" y="164.5030950664066"/><text x="277.38805970149167" y="164.32685629708294"/><text x="279.4776119402976" y="164.55659916094322"/><text x="281.268656716417" y="164.79865255119262"/><text x="291.56716417910354" y="164.0243913844018"/><text x="289.0298507462677" y="164.81517010596156"/><text x="290.8208955223871" y="164.9775316087662"/><text x="296.1940298507453" y="164.13094006292536"/><text x="297.98507462686473" y="164.4234805347613"/><text x="317.5373134328347" y="156.51578997731528"/><text x="333.507462686566" y="160.18032536109743"/><text x="314.1044776119393" y="163.924977155438"/><text x="310.52238805970046" y="164.8933372208462"/><text x="312.31343283581987" y="164.91055740661324"/><text x="319.77611940298397" y="164.25211048357653"/><text x="322.462686567163" y="164.27879665440548"/><text x="324.2537313432824" y="164.65623485248108"/><text x="357.9850746268644" y="163.31697692109458"/><text x="331.41791044776005" y="164.65691085214297"/><text x="338.88059701492415" y="164.3170512343238"/><text x="341.5671641791032" y="164.4365444504394"/><text x="343.3582089552226" y="164.50092780665068"/><text x="352.4626865671629" y="164.18747124842628"/><text x="350.52238805970023" y="164.5938163480373"/><text x="356.194029850745" y="164.36617040348636"/><text x="358.2835820895509" y="164.507947620955"/><text x="360.0746268656703" y="164.84618600837584"/><text x="372.61194029850606" y="163.64412572505688"/><text x="370.2238805970135" y="164.15765027598184"/><text x="372.0149253731329" y="164.6704683768485"/><text x="377.68656716417763" y="164.03947867106345"/><text x="379.77611940298357" y="164.57801600147963"/><text x="381.567164179103" y="164.8238757804302"/><text x="420.2168843283565" y="155.29858816339546"/><text x="388.7313432835806" y="164.47546036531605"/><text x="396.1940298507447" y="162.99751694770148"/><text x="398.88059701492375" y="163.01753903776438"/><text x="400.67164179104316" y="164.97362599822083"/><text x="448.86660447761005" y="156.28796495527862"/><text x="408.43283582089384" y="164.59046013151934"/><text x="410.22388059701325" y="164.63744810445414"/><text x="436.3619402985057" y="162.8270330491141"/><text x="428.2089552238789" y="164.28654050232618"/><text x="424.55223880596844" y="164.49832039898868"/><text x="426.94029850746097" y="164.57415019364407"/><text x="435.4477611940281" y="164.39391659191136"/><text x="440.3731343283564" y="164.40037662187086"/><text x="438.8805970149235" y="164.8672754976188"/><text x="444.25373134328174" y="164.43956757628615"/><text x="446.04477611940115" y="164.70110594087618"/><text x="451.7164179104459" y="163.163480041728"/><text x="453.80597014925183" y="164.2145787752619"/><text x="455.59701492537124" y="164.43007085719782"/><text x="476.3805970149233" y="159.18995126558463"/><text x="462.76119402984875" y="164.9848069484636"/><text x="469.47761194029647" y="163.99553113286584"/><text x="472.61194029850543" y="164.30331082314856"/><text x="476.4925373134308" y="164.30491799168252"/><text x="474.7014925373114" y="164.9942953481892"/><text x="480.07462686566953" y="164.47188475010907"/><text x="481.86567164178894" y="164.5805268698057"/><text x="487.5373134328337" y="160.3428126803977"/><text x="489.6268656716396" y="164.75170153424176"/><text x="491.417910447759" y="164.80755173015461"/></g><g text-anchor="middle"><text x="210.21145493236875" y="25.0"/><text x="12.388059701492537" y="190.0"/><text x="14.776119402985074" y="190.0"/><text x="17.16417910447761" y="190.0"/><text x="19.55223880597015" y="190.0"/><text x="21.940298507462686" y="190.0"/><text x="24.328358208955223" y="190.0"/><text x="26.71641791044776" y="190.0"/><text x="29.104477611940297" y="190.0"/><text x="31.492537313432834" y="190.0"/><text x="33.88059701492537" y="190.0"/><text x="36.26865671641791" y="190.0"/><text x="38.656716417910445" y="190.0"/><text x="41.04477611940298" y="190.0"/><text x="43.43283582089552" y="190.0"/><text x="45.82089552238806" y="190.0"/><text x="48.208955223880594" y="190.0"/><text x="50.59701492537313" y="190.0"/><text x="52.98507462686567" y="190.0"/><text x="55.373134328358205" y="190.0"/><text x="57.76119402985074" y="190.0"/><text x="60.14925373134328" y="190.0"/><text x="62.537313432835816" y="190.0"/><text x="64.92537313432835" y="190.0"/><text x="67.31343283582089" y="190.0"/><text x="69.70149253731343" y="190.0"/><text x="72.08955223880596" y="190.0"/><text x="74.4776119402985" y="190.0"/><text x="76.86567164179104" y="190.0"/><text x="79.25373134328358" y="190.0"/><text x="81.64179104477611" y="190.0"/><text x="84.02985074626865" y="190.0"/><text x="86.41791044776119" y="190.0"/><text x="88.80597014925372" y="190.0"/><text x="91.19402985074626" y="190.0"/><text x="93.5820895522388" y="190.0"/><text x="95.97014925373134" y="190.0"/><text x="98.35820895522387" y="190.0"/><text x="100.74626865671641" y="190.0"/><text x="103.13432835820895" y="190.0"/><text x="105.52238805970148" y="190.0"/><text x="107.91044776119402" y="190.0"/><text x="110.29850746268656" y="190.0"/><text x="112.6865671641791" y="190.0"/><text x="115.07462686567163" y="190.0"/><text x="117.46268656716417" y="190.0"/><text x="119.8507462686567" y="190.0"/><text x="122.23880597014924" y="190.0"/><text x="124.62686567164178" y="190.0"/><text x="127.01492537313432" y="190.0"/><text x="129.40298507462686" y="190.0"/><text x="131.7910447761194" y="190.0"/><text x="134.17910447761193" y="190.0"/><text x="136.56716417910445" y="190.0"/><text x="138.95522388059698" y="190.0"/><text x="141.3432835820895" y="190.0"/><text x="143.73134328358202" y="190.0"/><text x="146.11940298507454" y="190.0"/><text x="148.50746268656707" y="190.0"/><text x="150.8955223880596" y="190.0"/><text x="153.2835820895521" y="190.0"/><text x="155.67164179104464" y="190.0"/><text x="158.05970149253716" y="190.0"/><text x="160.44776119402968" y="190.0"/><text x="162.8358208955222" y="190.0"/><text x="165.22388059701473" y="190.0"/><text x="167.61194029850725" y="190.0"/><text x="169.99999999999977" y="190.0"/><text x="172.3880597014923" y="190.0"/><text x="174.77611940298482" y="190.0"/><text x="177.16417910447734" y="190.0"/><text x="179.55223880596986" y="190.0"/><text x="181.9402985074624" y="190.0"/><text x="184.3283582089549" y="190.0"/><text x="186.71641791044743" y="190.0"/><text x="189.10447761193996" y="190.0"/><text x="191.49253731343248" y="190.0"/><text x="193.880597014925" y="190.0"/><text x="196.26865671641752" y="190.0"/><text x="198.65671641791005" y="190.0"/><text x="201.04477611940257" y="190.0"/><text x="203.4328358208951" y="190.0"/><text x="205.82089552238762" y="190.0"/><text x="208.20895522388014" y="190.0"/><text x="210.59701492537266" y="190.0"/><text x="212.98507462686518" y="190.0"/><text x="215.3731343283577" y="190.0"/><text x="217.76119402985023" y="190.0"/><text x="220.14925373134275" y="190.0"/><text x="222.53731343283528" y="190.0"/><text x="224.9253731343278" y="190.0"/><text x="227.31343283582032" y="190.0"/><text x="229.70149253731284" y="190.0"/><text x="232.08955223880537" y="190.0"/><text x="234.4776119402979" y="190.0"/><text x="236.8656716417904" y="190.0"/><text x="239.25373134328294" y="190.0"/><text x="241.64179104477546" y="190.0"/><text x="244.02985074626798" y="190.0"/><text x="246.4179104477605" y="190.0"/><text x="248.80597014925303" y="190.0"/><text x="251.19402985074555" y="190.0"/><text x="253.58208955223807" y="190.0"/><text x="255.9701492537306" y="190.0"/><text x="258.3582089552231" y="190.0"/><text x="260.74626865671564" y="190.0"/><text x="263.13432835820817" y="190.0"/><text x="265.5223880597007" y="190.0"/><text x="267.9104477611932" y="190.0"/><text x="270.29850746268573" y="190.0"/><text x="272.68656716417826" y="190.0"/><text x="275.0746268656708" y="190.0"/><text x="277.4626865671633" y="190.0"/><text x="279.8507462686558" y="190.0"/><text x="282.23880597014835" y="190.0"/><text x="284.62686567164087" y="190.0"/><text x="287.0149253731334" y="190.0"/><text x="289.4029850746259" y="190.0"/><text x="291.79104477611844" y="190.0"/><text x="294.17910447761096" y="190.0"/><text x="296.5671641791035" y="190.0"/><text x="298.955223880596" y="190.0"/><text x="301.34328358208853" y="190.0"/><text x="303.73134328358105" y="190.0"/><text x="306.1194029850736" y="190.0"/><text x="308.5074626865661" y="190.0"/><text x="310.8955223880586" y="190.0"/><text x="313.28358208955115" y="190.0"/><text x="315.67164179104367" y="190.0"/><text x="318.0597014925362" y="190.0"/><text x="320.4477611940287" y="190.0"/><text x="322.83582089552124" y="190.0"/><text x="325.22388059701376" y="190.0"/><text x="327.6119402985063" y="190.0"/><text x="329.9999999999988" y="190.0"/><text x="332.38805970149133" y="190.0"/><text x="334.77611940298385" y="190.0"/><text x="337.1641791044764" y="190.0"/><text x="339.5522388059689" y="190.0"/><text x="341.9402985074614" y="190.0"/><text x="344.32835820895394" y="190.0"/><text x="346.71641791044647" y="190.0"/><text x="349.104477611939" y="190.0"/><text x="351.4925373134315" y="190.0"/><text x="353.88059701492404" y="190.0"/><text x="356.26865671641656" y="190.0"/><text x="358.6567164179091" y="190.0"/><text x="361.0447761194016" y="190.0"/><text x="363.4328358208941" y="190.0"/><text x="365.82089552238665" y="190.0"/><text x="368.2089552238792" y="190.0"/><text x="370.5970149253717" y="190.0"/><text x="372.9850746268642" y="190.0"/><text x="375.37313432835674" y="190.0"/><text x="377.76119402984926" y="190.0"/><text x="380.1492537313418" y="190.0"/><text x="382.5373134328343" y="190.0"/><text x="384.92537313432683" y="190.0"/><text x="387.31343283581936" y="190.0"/><text x="389.7014925373119" y="190.0"/><text x="392.0895522388044" y="190.0"/><text x="394.4776119402969" y="190.0"/><text x="396.86567164178945" y="190.0"/><text x="399.25373134328197" y="190.0"/><text x="401.6417910447745" y="190.0"/><text x="404.029850746267" y="190.0"/><text x="406.41791044775954" y="190.0"/><text x="408.80597014925206" y="190.0"/><text x="411.1940298507446" y="190.0"/><text x="413.5820895522371" y="190.0"/><text x="415.97014925372963" y="190.0"/><text x="418.35820895522215" y="190.0"/><text x="420.7462686567147" y="190.0"/><text x="423.1343283582072" y="190.0"/><text x="425.5223880596997" y="190.0"/><text x="427.91044776119224" y="190.0"/><text x="430.29850746268477" y="190.0"/><text x="432.6865671641773" y="190.0"/><text x="435.0746268656698" y="190.0"/><text x="437.46268656716234" y="190.0"/><text x="439.85074626865486" y="190.0"/><text x="442.2388059701474" y="190.0"/><text x="444.6268656716399" y="190.0"/><text x="447.0149253731324" y="190.0"/><text x="449.40298507462495" y="190.0"/><text x="451.7910447761175" y="190.0"/><text x="454.17910447761" y="190.0"/><text x="456.5671641791025" y="190.0"/><text x="458.95522388059504" y="190.0"/><text x="461.34328358208757" y="190.0"/><text x="463.7313432835801" y="190.0"/><text x="466.1194029850726" y="190.0"/><text x="468.50746268656513" y="190.0"/><text x="470.89552238805766" y="190.0"/><text x="473.2835820895502" y="190.0"/><text x="475.6716417910427" y="190.0"/><text x="478.0597014925352" y="190.0"/><text x="480.44776119402775" y="190.0"/><text x="482.83582089552027" y="190.0"/><text x="485.2238805970128" y="190.0"/><text x="487.6119402985053" y="190.0"/></g><g text-anchor="end"><text x="73.99312033582086" y="152.2779833101517"/><text x="33.2276119402985" y="156.03349430341098"/><text x="9.626865671641792" y="164.21105028550113"/><text x="44.776119402985074" y="163.38679006468342"/><text x="32.16417910447761" y="163.78533059320105"/><text x="23.208955223880594" y="164.27325317616473"/><text x="20.52238805970149" y="164.7001911704187"/><text x="35.14925373134328" y="164.38398319120165"/><text x="32.46268656716418" y="164.7185773706974"/><text x="44.40298507462686" y="164.45608521726223"/><text x="92.01492537313432" y="163.32221424924722"/><text x="83.0597014925373" y="164.20695480227016"/><text x="78.13432835820895" y="164.51089254751477"/><text x="75.44776119402985" y="164.88114266426948"/><text x="96.94029850746269" y="164.14464071773097"/><text x="94.55223880597015" y="164.68246830462923"/><text x="122.98507462686564" y="160.98242703756762"/><text x="114.25373134328356" y="164.04429219674566"/><text x="124.40298507462683" y="164.19471516174787"/><text x="120.82089552238804" y="164.28218602581904"/><text x="125.59701492537312" y="164.5802610791803"/><text x="135.74626865671638" y="164.74433965507308"/><text x="150.37313432835808" y="164.18087713734056"/><text x="164.62686567164155" y="164.03117386646701"/><text x="164.70149253731321" y="164.58836889053785"/><text x="178.7313432835818" y="164.74809483514088"/><text x="185.29850746268622" y="164.6751351715181"/><text x="262.6426947294768" y="155.4834568575663"/><text x="217.74807602611887" y="163.34923260680912"/><text x="203.2835820895518" y="163.5209056673703"/><text x="197.83582089552198" y="164.67881804263158"/><text x="204.99999999999955" y="164.54189093617535"/><text x="251.80503731343208" y="164.09240439851087"/><text x="239.95335820895457" y="164.12218762488067"/><text x="227.74253731343222" y="164.4320538702551"/><text x="230.67164179104415" y="164.95859014939333"/><text x="235.4477611940292" y="164.96384336818662"/><text x="249.77611940298434" y="164.6464363937044"/><text x="259.9253731343275" y="164.40018837853006"/><text x="276.94029850746176" y="164.60394158551136"/><text x="299.02985074626764" y="163.9030877328317"/><text x="298.4328358208945" y="164.56531283525192"/><text x="307.0895522388049" y="164.4268614370936"/><text x="333.35820895522266" y="163.73448922161393"/><text x="324.2537313432824" y="164.25386627232086"/><text x="319.62686567164064" y="164.54222670150327"/><text x="326.1940298507451" y="164.4597625289855"/><text x="338.7313432835808" y="164.42519334516444"/><text x="357.5373134328344" y="164.1528304626387"/><text x="354.85074626865537" y="164.48459831370914"/><text x="381.567164179103" y="162.23990885612784"/><text x="376.9402985074612" y="164.39796752908714"/><text x="383.50746268656565" y="164.70463775205016"/><text x="411.3526119402968" y="159.19936954896673"/><text x="396.3432835820879" y="164.454770408513"/><text x="411.0074626865655" y="164.27949582385156"/><text x="410.9701492537297" y="164.40832907617124"/><text x="407.3880597014909" y="164.98311189402318"/><text x="412.1641791044759" y="164.92549439931722"/><text x="426.492537313431" y="164.63846290880753"/><text x="424.1044776119385" y="164.94893640356707"/><text x="455.2238805970129" y="163.82093424276536"/><text x="450.97014925372935" y="164.45117522926202"/><text x="462.910447761192" y="164.9241533295056"/></g></g><g class="mutations" font-style="italic"><g text-anchor="start"/><g text-anchor="end"/></g></g></g></svg>