<?xml version="1.0" encoding="utf-8" standalone="no"?>
<!DOCTYPE svg PUBLIC "-//W3C//DTD SVG 1.1//EN"
  "http://www.w3.org/Graphics/SVG/1.1/DTD/svg11.dtd">
<!-- Created with matplotlib (https://matplotlib.org/) -->
<svg height="274.978125pt" version="1.1" viewBox="0 0 567.940626 274.978125" width="567.940626pt" xmlns="http://www.w3.org/2000/svg" xmlns:xlink="http://www.w3.org/1999/xlink">
 <defs>
  <style type="text/css">
*{stroke-linecap:butt;stroke-linejoin:round;}
  </style>
 </defs>
 <g id="figure_1">
  <g id="patch_1">
   <path d="M 0 274.978125 
L 567.940626 274.978125 
L 567.940626 0 
L 0 0 
z
" style="fill:#ffffff;"/>
  </g>
  <g id="axes_1">
   <g id="patch_2">
    <path d="M 45.478125 237.4 
L 276.646486 237.4 
L 276.646486 7.2 
L 45.478125 7.2 
z
" style="fill:#ffffff;"/>
   </g>
   <g id="PolyCollection_1">
    <defs>
     <path d="M 55.985778 -257.302041 
L 55.985778 -257.178678 
L 83.50488 -214.213405 
L 99.602523 -195.647248 
L 111.023983 -185.172497 
L 119.883155 -177.620682 
L 127.121626 -171.414924 
L 133.241665 -165.980862 
L 138.543085 -161.062567 
L 143.219269 -156.527135 
L 147.402257 -152.296769 
L 151.186231 -148.322136 
L 154.640728 -144.569567 
L 157.818557 -141.014917 
L 160.760768 -137.641172 
L 163.4999 -134.43384 
L 166.062187 -131.381551 
L 168.469086 -128.475414 
L 170.738371 -125.706864 
L 172.88493 -123.068696 
L 174.92136 -120.554702 
L 176.858411 -118.158645 
L 178.705333 -115.875479 
L 180.470143 -113.698817 
L 182.15983 -111.623908 
L 183.780532 -109.646269 
L 185.33766 -107.76057 
L 186.836014 -105.962871 
L 188.27987 -104.249464 
L 189.673054 -102.614243 
L 191.019003 -101.053889 
L 192.320813 -99.564359 
L 193.58129 -98.143278 
L 194.802976 -96.784578 
L 195.988189 -95.486568 
L 197.139042 -94.246591 
L 198.257473 -93.059706 
L 199.345258 -91.923781 
L 200.404032 -90.834585 
L 201.435303 -89.791185 
L 202.440462 -88.792172 
L 203.4208 -87.831263 
L 204.377513 -86.908768 
L 205.311713 -86.023246 
L 206.224436 -85.169782 
L 207.116646 -84.349215 
L 207.989245 -83.559038 
L 208.843077 -82.796391 
L 209.678933 -82.059751 
L 210.497553 -81.349078 
L 211.299634 -80.662488 
L 212.085832 -79.997874 
L 212.856762 -79.354705 
L 213.613007 -78.732347 
L 214.355116 -78.126357 
L 215.083608 -77.54136 
L 215.798973 -76.972683 
L 216.501675 -76.419197 
L 217.192157 -75.881627 
L 217.870834 -75.356745 
L 218.538105 -74.847135 
L 219.194346 -74.351425 
L 219.839916 -73.866096 
L 220.475156 -73.393665 
L 221.100392 -72.932548 
L 221.715934 -72.483189 
L 222.322079 -72.041744 
L 222.919107 -71.610692 
L 223.507291 -71.19041 
L 224.086888 -70.776855 
L 224.658145 -70.372509 
L 225.221299 -69.975431 
L 225.776576 -69.588147 
L 226.324194 -69.206379 
L 226.864361 -68.832632 
L 227.397277 -68.464821 
L 227.923135 -68.103137 
L 228.442118 -67.75015 
L 228.954405 -67.401313 
L 229.460166 -67.05676 
L 229.959564 -66.721502 
L 230.452759 -66.388414 
L 230.939903 -66.062529 
L 231.421141 -65.739044 
L 231.896616 -65.423073 
L 232.366463 -65.109734 
L 232.830816 -64.801664 
L 233.2898 -64.496424 
L 233.743538 -64.196689 
L 234.192149 -63.902595 
L 234.635748 -63.609019 
L 235.074445 -63.321286 
L 235.508347 -63.036866 
L 235.937559 -62.755842 
L 236.36218 -62.478297 
L 236.782307 -62.204315 
L 237.198035 -61.93398 
L 237.609455 -61.664619 
L 238.016655 -61.399038 
L 238.419722 -61.137322 
L 238.818737 -60.879555 
L 239.213781 -60.622995 
L 239.604934 -60.37052 
L 239.992271 -60.119353 
L 240.375865 -59.869527 
L 240.755788 -59.623973 
L 241.13211 -59.382778 
L 241.504898 -59.140164 
L 241.874219 -58.902011 
L 242.240135 -58.66544 
L 242.60271 -58.43347 
L 242.962004 -58.200187 
L 243.318075 -57.97161 
L 243.670981 -57.74479 
L 244.020778 -57.519766 
L 244.36752 -57.296573 
L 244.711259 -57.075247 
L 245.052048 -56.855826 
L 245.389937 -56.638346 
L 245.724974 -56.422844 
L 246.057207 -56.209358 
L 246.386684 -55.997925 
L 246.713448 -55.788582 
L 247.037545 -55.581367 
L 247.359018 -55.376317 
L 247.677909 -55.173471 
L 247.994259 -54.969621 
L 248.308107 -54.768019 
L 248.619495 -54.571977 
L 248.928459 -54.374998 
L 249.235037 -54.180381 
L 249.539266 -53.98484 
L 249.841181 -53.795043 
L 250.140818 -53.604369 
L 250.43821 -53.416177 
L 250.733391 -53.230506 
L 251.026394 -53.043995 
L 251.31725 -52.863465 
L 251.60599 -52.68214 
L 251.892646 -52.503459 
L 252.177247 -52.324 
L 252.459823 -52.150703 
L 252.740401 -51.976675 
L 253.01901 -51.805412 
L 253.295678 -51.636952 
L 253.570431 -51.467801 
L 253.843296 -51.301498 
L 254.114298 -51.138082 
L 254.383463 -50.977589 
L 254.650816 -50.820057 
L 254.91638 -50.665521 
L 255.180179 -50.510403 
L 255.442237 -50.358328 
L 255.702577 -50.20933 
L 255.961221 -50.0671 
L 256.21819 -49.924377 
L 256.473508 -49.784836 
L 256.727193 -49.648513 
L 256.979268 -49.51544 
L 257.229753 -49.38565 
L 257.478667 -49.262902 
L 257.72603 -49.143523 
L 257.971862 -49.027545 
L 258.21618 -48.918752 
L 258.459005 -48.813439 
L 258.700353 -48.715406 
L 258.940243 -48.624707 
L 259.178692 -48.54139 
L 259.415718 -48.461703 
L 259.651337 -48.393277 
L 259.885566 -48.336169 
L 260.118421 -48.286611 
L 260.349918 -48.248449 
L 260.580073 -48.225535 
L 260.808902 -48.214073 
L 261.03642 -48.221715 
L 261.26264 -48.244631 
L 261.48758 -48.282797 
L 261.711252 -48.347597 
L 261.933671 -48.435107 
L 262.15485 -48.548971 
L 262.374805 -48.696527 
L 262.593547 -48.877411 
L 262.811091 -49.098667 
L 263.02745 -49.36336 
L 263.242636 -49.678026 
L 263.456661 -50.052484 
L 263.669539 -50.499559 
L 263.881282 -51.020448 
L 264.091902 -51.636952 
L 264.30141 -52.365483 
L 264.509818 -53.227122 
L 264.717138 -54.256358 
L 264.923381 -55.501391 
L 265.128558 -57.038244 
L 265.33268 -59.008026 
L 265.535758 -61.730748 
L 265.737802 -66.117022 
L 265.938824 -75.619038 
L 266.138833 -105.209173 
L 266.138833 -105.985468 
L 266.138833 -105.985468 
L 265.938824 -76.728456 
L 265.737802 -67.360503 
L 265.535758 -63.0422 
L 265.33268 -60.361983 
L 265.128558 -58.424522 
L 264.923381 -56.911564 
L 264.717138 -55.689886 
L 264.509818 -54.679915 
L 264.30141 -53.831739 
L 264.091902 -53.118701 
L 263.881282 -52.510345 
L 263.669539 -51.997597 
L 263.456661 -51.563034 
L 263.242636 -51.191441 
L 263.02745 -50.880993 
L 262.811091 -50.622291 
L 262.593547 -50.405459 
L 262.374805 -50.22753 
L 262.15485 -50.085362 
L 261.933671 -49.972006 
L 261.711252 -49.887701 
L 261.48758 -49.825278 
L 261.26264 -49.784836 
L 261.03642 -49.76276 
L 260.808902 -49.755399 
L 260.580073 -49.766441 
L 260.349918 -49.792192 
L 260.118421 -49.828953 
L 259.885566 -49.876692 
L 259.651337 -49.931708 
L 259.415718 -50.001289 
L 259.178692 -50.074405 
L 258.940243 -50.15833 
L 258.700353 -50.249358 
L 258.459005 -50.343815 
L 258.21618 -50.448917 
L 257.971862 -50.553751 
L 257.72603 -50.669121 
L 257.478667 -50.78417 
L 257.229753 -50.906058 
L 256.979268 -51.034725 
L 256.727193 -51.162992 
L 256.473508 -51.297953 
L 256.21819 -51.432473 
L 255.961221 -51.573602 
L 255.702577 -51.714248 
L 255.442237 -51.861413 
L 255.180179 -52.008055 
L 254.91638 -52.161122 
L 254.650816 -52.313622 
L 254.383463 -52.469008 
L 254.114298 -52.627244 
L 253.843296 -52.788295 
L 253.570431 -52.952125 
L 253.295678 -53.115308 
L 253.01901 -53.281226 
L 252.740401 -53.449846 
L 252.459823 -53.62113 
L 252.177247 -53.791706 
L 251.892646 -53.968226 
L 251.60599 -54.143994 
L 251.31725 -54.319016 
L 251.026394 -54.499861 
L 250.733391 -54.679915 
L 250.43821 -54.865692 
L 250.140818 -55.050635 
L 249.841181 -55.234752 
L 249.539266 -55.424467 
L 249.235037 -55.613314 
L 248.928459 -55.804478 
L 248.619495 -55.997925 
L 248.308107 -56.193617 
L 247.994259 -56.391518 
L 247.677909 -56.588474 
L 247.359018 -56.790702 
L 247.037545 -56.991943 
L 246.713448 -57.198352 
L 246.386684 -57.403734 
L 246.057207 -57.61114 
L 245.724974 -57.820536 
L 245.389937 -58.031885 
L 245.052048 -58.245152 
L 244.711259 -58.460303 
L 244.36752 -58.677301 
L 244.020778 -58.896113 
L 243.670981 -59.119637 
L 243.318075 -59.341955 
L 242.962004 -59.568884 
L 242.60271 -59.794572 
L 242.240135 -60.02477 
L 241.874219 -60.256543 
L 241.504898 -60.492696 
L 241.13211 -60.730324 
L 240.755788 -60.969396 
L 240.375865 -61.209878 
L 239.992271 -61.454509 
L 239.604934 -61.700452 
L 239.213781 -61.950415 
L 238.818737 -62.201594 
L 238.419722 -62.456662 
L 238.016655 -62.715539 
L 237.609455 -62.975472 
L 237.198035 -63.239086 
L 236.782307 -63.5063 
L 236.36218 -63.777033 
L 235.937559 -64.051206 
L 235.508347 -64.326152 
L 235.074445 -64.606982 
L 234.635748 -64.891012 
L 234.192149 -65.178164 
L 233.743538 -65.46836 
L 233.2898 -65.764018 
L 232.830816 -66.065007 
L 232.366463 -66.368736 
L 231.896616 -66.675129 
L 231.421141 -66.988957 
L 230.939903 -67.305225 
L 230.452759 -67.626245 
L 229.959564 -67.954256 
L 229.460166 -68.286724 
L 228.954405 -68.625851 
L 228.442118 -68.969142 
L 227.923135 -69.318761 
L 227.397277 -69.674525 
L 226.864361 -70.03625 
L 226.324194 -70.403754 
L 225.776576 -70.779066 
L 225.221299 -71.161946 
L 224.658145 -71.554323 
L 224.086888 -71.951596 
L 223.507291 -72.359975 
L 222.919107 -72.774881 
L 222.322079 -73.200248 
L 221.715934 -73.633652 
L 221.100392 -74.078876 
L 220.475156 -74.533474 
L 219.839916 -74.999084 
L 219.194346 -75.477252 
L 218.538105 -75.967487 
L 217.870834 -76.469297 
L 217.192157 -76.985997 
L 216.501675 -77.516961 
L 215.798973 -78.06156 
L 215.083608 -78.624655 
L 214.355116 -79.203599 
L 213.613007 -79.799403 
L 212.856762 -80.41473 
L 212.085832 -81.048593 
L 211.299634 -81.705097 
L 210.497553 -82.383026 
L 209.678933 -83.086089 
L 208.843077 -83.812837 
L 207.989245 -84.564993 
L 207.116646 -85.347174 
L 206.224436 -86.157445 
L 205.311713 -87.001355 
L 204.377513 -87.876559 
L 203.4208 -88.787887 
L 202.440462 -89.73678 
L 201.435303 -90.725702 
L 200.404032 -91.757971 
L 199.345258 -92.833716 
L 198.257473 -93.957783 
L 197.139042 -95.131703 
L 195.988189 -96.359998 
L 194.802976 -97.643895 
L 193.58129 -98.987292 
L 192.320813 -100.395156 
L 191.019003 -101.869018 
L 189.673054 -103.414419 
L 188.27987 -105.034232 
L 186.836014 -106.732631 
L 185.33766 -108.513721 
L 183.780532 -110.382124 
L 182.15983 -112.342541 
L 180.470143 -114.399363 
L 178.705333 -116.557779 
L 176.858411 -118.822409 
L 174.92136 -121.199505 
L 172.88493 -123.694024 
L 170.738371 -126.312688 
L 168.469086 -129.060997 
L 166.062187 -131.947109 
L 163.4999 -134.978877 
L 160.760768 -138.165515 
L 157.818557 -141.518591 
L 154.640728 -145.051585 
L 151.186231 -148.78279 
L 147.402257 -152.736213 
L 143.219269 -156.944729 
L 138.543085 -161.457706 
L 133.241665 -166.353104 
L 127.121626 -171.763542 
L 119.883155 -177.94395 
L 111.023983 -185.467597 
L 99.602523 -195.907177 
L 83.50488 -214.421046 
L 55.985778 -257.302041 
z
" id="m30b6e7c405" style="stroke:#1f77b4;stroke-opacity:0.1;"/>
    </defs>
    <g clip-path="url(#pe6b07a70de)">
     <use style="fill:#1f77b4;fill-opacity:0.1;stroke:#1f77b4;stroke-opacity:0.1;" x="0" xlink:href="#m30b6e7c405" y="274.978125"/>
    </g>
   </g>
   <g id="matplotlib.axis_1">
    <g id="xtick_1">
     <g id="line2d_1">
      <defs>
       <path d="M 0 0 
L 0 3.5 
" id="mfb76764af2" style="stroke:#000000;stroke-width:0.8;"/>
      </defs>
      <g>
       <use style="stroke:#000000;stroke-width:0.8;" x="55.985778" xlink:href="#mfb76764af2" y="237.4"/>
      </g>
     </g>
     <g id="text_1">
      <!-- $\mathdefault{10^{0}}$ -->
      <defs>
       <path d="M 12.40625 8.296875 
L 28.515625 8.296875 
L 28.515625 63.921875 
L 10.984375 60.40625 
L 10.984375 69.390625 
L 28.421875 72.90625 
L 38.28125 72.90625 
L 38.28125 8.296875 
L 54.390625 8.296875 
L 54.390625 0 
L 12.40625 0 
z
" id="DejaVuSans-49"/>
       <path d="M 31.78125 66.40625 
Q 24.171875 66.40625 20.328125 58.90625 
Q 16.5 51.421875 16.5 36.375 
Q 16.5 21.390625 20.328125 13.890625 
Q 24.171875 6.390625 31.78125 6.390625 
Q 39.453125 6.390625 43.28125 13.890625 
Q 47.125 21.390625 47.125 36.375 
Q 47.125 51.421875 43.28125 58.90625 
Q 39.453125 66.40625 31.78125 66.40625 
z
M 31.78125 74.21875 
Q 44.046875 74.21875 50.515625 64.515625 
Q 56.984375 54.828125 56.984375 36.375 
Q 56.984375 17.96875 50.515625 8.265625 
Q 44.046875 -1.421875 31.78125 -1.421875 
Q 19.53125 -1.421875 13.0625 8.265625 
Q 6.59375 17.96875 6.59375 36.375 
Q 6.59375 54.828125 13.0625 64.515625 
Q 19.53125 74.21875 31.78125 74.21875 
z
" id="DejaVuSans-48"/>
      </defs>
      <g transform="translate(47.185778 251.998437)scale(0.1 -0.1)">
       <use transform="translate(0 0.765625)" xlink:href="#DejaVuSans-49"/>
       <use transform="translate(63.623047 0.765625)" xlink:href="#DejaVuSans-48"/>
       <use transform="translate(128.203125 39.046875)scale(0.7)" xlink:href="#DejaVuSans-48"/>
      </g>
     </g>
    </g>
    <g id="xtick_2">
     <g id="line2d_2">
      <g>
       <use style="stroke:#000000;stroke-width:0.8;" x="147.402257" xlink:href="#mfb76764af2" y="237.4"/>
      </g>
     </g>
     <g id="text_2">
      <!-- $\mathdefault{10^{1}}$ -->
      <g transform="translate(138.602257 251.998437)scale(0.1 -0.1)">
       <use transform="translate(0 0.684375)" xlink:href="#DejaVuSans-49"/>
       <use transform="translate(63.623047 0.684375)" xlink:href="#DejaVuSans-48"/>
       <use transform="translate(128.203125 38.965625)scale(0.7)" xlink:href="#DejaVuSans-49"/>
      </g>
     </g>
    </g>
    <g id="xtick_3">
     <g id="line2d_3">
      <g>
       <use style="stroke:#000000;stroke-width:0.8;" x="238.818737" xlink:href="#mfb76764af2" y="237.4"/>
      </g>
     </g>
     <g id="text_3">
      <!-- $\mathdefault{10^{2}}$ -->
      <defs>
       <path d="M 19.1875 8.296875 
L 53.609375 8.296875 
L 53.609375 0 
L 7.328125 0 
L 7.328125 8.296875 
Q 12.9375 14.109375 22.625 23.890625 
Q 32.328125 33.6875 34.8125 36.53125 
Q 39.546875 41.84375 41.421875 45.53125 
Q 43.3125 49.21875 43.3125 52.78125 
Q 43.3125 58.59375 39.234375 62.25 
Q 35.15625 65.921875 28.609375 65.921875 
Q 23.96875 65.921875 18.8125 64.3125 
Q 13.671875 62.703125 7.8125 59.421875 
L 7.8125 69.390625 
Q 13.765625 71.78125 18.9375 73 
Q 24.125 74.21875 28.421875 74.21875 
Q 39.75 74.21875 46.484375 68.546875 
Q 53.21875 62.890625 53.21875 53.421875 
Q 53.21875 48.921875 51.53125 44.890625 
Q 49.859375 40.875 45.40625 35.40625 
Q 44.1875 33.984375 37.640625 27.21875 
Q 31.109375 20.453125 19.1875 8.296875 
z
" id="DejaVuSans-50"/>
      </defs>
      <g transform="translate(230.018737 251.998437)scale(0.1 -0.1)">
       <use transform="translate(0 0.765625)" xlink:href="#DejaVuSans-49"/>
       <use transform="translate(63.623047 0.765625)" xlink:href="#DejaVuSans-48"/>
       <use transform="translate(128.203125 39.046875)scale(0.7)" xlink:href="#DejaVuSans-50"/>
      </g>
     </g>
    </g>
    <g id="xtick_4">
     <g id="line2d_4">
      <defs>
       <path d="M 0 0 
L 0 2 
" id="m4f68a360ba" style="stroke:#000000;stroke-width:0.6;"/>
      </defs>
      <g>
       <use style="stroke:#000000;stroke-width:0.6;" x="47.126606" xlink:href="#m4f68a360ba" y="237.4"/>
      </g>
     </g>
    </g>
    <g id="xtick_5">
     <g id="line2d_5">
      <g>
       <use style="stroke:#000000;stroke-width:0.6;" x="51.802789" xlink:href="#m4f68a360ba" y="237.4"/>
      </g>
     </g>
    </g>
    <g id="xtick_6">
     <g id="line2d_6">
      <g>
       <use style="stroke:#000000;stroke-width:0.6;" x="83.50488" xlink:href="#m4f68a360ba" y="237.4"/>
      </g>
     </g>
    </g>
    <g id="xtick_7">
     <g id="line2d_7">
      <g>
       <use style="stroke:#000000;stroke-width:0.6;" x="99.602523" xlink:href="#m4f68a360ba" y="237.4"/>
      </g>
     </g>
    </g>
    <g id="xtick_8">
     <g id="line2d_8">
      <g>
       <use style="stroke:#000000;stroke-width:0.6;" x="111.023983" xlink:href="#m4f68a360ba" y="237.4"/>
      </g>
     </g>
    </g>
    <g id="xtick_9">
     <g id="line2d_9">
      <g>
       <use style="stroke:#000000;stroke-width:0.6;" x="119.883155" xlink:href="#m4f68a360ba" y="237.4"/>
      </g>
     </g>
    </g>
    <g id="xtick_10">
     <g id="line2d_10">
      <g>
       <use style="stroke:#000000;stroke-width:0.6;" x="127.121626" xlink:href="#m4f68a360ba" y="237.4"/>
      </g>
     </g>
    </g>
    <g id="xtick_11">
     <g id="line2d_11">
      <g>
       <use style="stroke:#000000;stroke-width:0.6;" x="133.241665" xlink:href="#m4f68a360ba" y="237.4"/>
      </g>
     </g>
    </g>
    <g id="xtick_12">
     <g id="line2d_12">
      <g>
       <use style="stroke:#000000;stroke-width:0.6;" x="138.543085" xlink:href="#m4f68a360ba" y="237.4"/>
      </g>
     </g>
    </g>
    <g id="xtick_13">
     <g id="line2d_13">
      <g>
       <use style="stroke:#000000;stroke-width:0.6;" x="143.219269" xlink:href="#m4f68a360ba" y="237.4"/>
      </g>
     </g>
    </g>
    <g id="xtick_14">
     <g id="line2d_14">
      <g>
       <use style="stroke:#000000;stroke-width:0.6;" x="174.92136" xlink:href="#m4f68a360ba" y="237.4"/>
      </g>
     </g>
    </g>
    <g id="xtick_15">
     <g id="line2d_15">
      <g>
       <use style="stroke:#000000;stroke-width:0.6;" x="191.019003" xlink:href="#m4f68a360ba" y="237.4"/>
      </g>
     </g>
    </g>
    <g id="xtick_16">
     <g id="line2d_16">
      <g>
       <use style="stroke:#000000;stroke-width:0.6;" x="202.440462" xlink:href="#m4f68a360ba" y="237.4"/>
      </g>
     </g>
    </g>
    <g id="xtick_17">
     <g id="line2d_17">
      <g>
       <use style="stroke:#000000;stroke-width:0.6;" x="211.299634" xlink:href="#m4f68a360ba" y="237.4"/>
      </g>
     </g>
    </g>
    <g id="xtick_18">
     <g id="line2d_18">
      <g>
       <use style="stroke:#000000;stroke-width:0.6;" x="218.538105" xlink:href="#m4f68a360ba" y="237.4"/>
      </g>
     </g>
    </g>
    <g id="xtick_19">
     <g id="line2d_19">
      <g>
       <use style="stroke:#000000;stroke-width:0.6;" x="224.658145" xlink:href="#m4f68a360ba" y="237.4"/>
      </g>
     </g>
    </g>
    <g id="xtick_20">
     <g id="line2d_20">
      <g>
       <use style="stroke:#000000;stroke-width:0.6;" x="229.959564" xlink:href="#m4f68a360ba" y="237.4"/>
      </g>
     </g>
    </g>
    <g id="xtick_21">
     <g id="line2d_21">
      <g>
       <use style="stroke:#000000;stroke-width:0.6;" x="234.635748" xlink:href="#m4f68a360ba" y="237.4"/>
      </g>
     </g>
    </g>
    <g id="xtick_22">
     <g id="line2d_22">
      <g>
       <use style="stroke:#000000;stroke-width:0.6;" x="266.337839" xlink:href="#m4f68a360ba" y="237.4"/>
      </g>
     </g>
    </g>
    <g id="text_4">
     <!-- sample frequency -->
     <defs>
      <path d="M 44.28125 53.078125 
L 44.28125 44.578125 
Q 40.484375 46.53125 36.375 47.5 
Q 32.28125 48.484375 27.875 48.484375 
Q 21.1875 48.484375 17.84375 46.4375 
Q 14.5 44.390625 14.5 40.28125 
Q 14.5 37.15625 16.890625 35.375 
Q 19.28125 33.59375 26.515625 31.984375 
L 29.59375 31.296875 
Q 39.15625 29.25 43.1875 25.515625 
Q 47.21875 21.78125 47.21875 15.09375 
Q 47.21875 7.46875 41.1875 3.015625 
Q 35.15625 -1.421875 24.609375 -1.421875 
Q 20.21875 -1.421875 15.453125 -0.5625 
Q 10.6875 0.296875 5.421875 2 
L 5.421875 11.28125 
Q 10.40625 8.6875 15.234375 7.390625 
Q 20.0625 6.109375 24.8125 6.109375 
Q 31.15625 6.109375 34.5625 8.28125 
Q 37.984375 10.453125 37.984375 14.40625 
Q 37.984375 18.0625 35.515625 20.015625 
Q 33.0625 21.96875 24.703125 23.78125 
L 21.578125 24.515625 
Q 13.234375 26.265625 9.515625 29.90625 
Q 5.8125 33.546875 5.8125 39.890625 
Q 5.8125 47.609375 11.28125 51.796875 
Q 16.75 56 26.8125 56 
Q 31.78125 56 36.171875 55.265625 
Q 40.578125 54.546875 44.28125 53.078125 
z
" id="DejaVuSans-115"/>
      <path d="M 34.28125 27.484375 
Q 23.390625 27.484375 19.1875 25 
Q 14.984375 22.515625 14.984375 16.5 
Q 14.984375 11.71875 18.140625 8.90625 
Q 21.296875 6.109375 26.703125 6.109375 
Q 34.1875 6.109375 38.703125 11.40625 
Q 43.21875 16.703125 43.21875 25.484375 
L 43.21875 27.484375 
z
M 52.203125 31.203125 
L 52.203125 0 
L 43.21875 0 
L 43.21875 8.296875 
Q 40.140625 3.328125 35.546875 0.953125 
Q 30.953125 -1.421875 24.3125 -1.421875 
Q 15.921875 -1.421875 10.953125 3.296875 
Q 6 8.015625 6 15.921875 
Q 6 25.140625 12.171875 29.828125 
Q 18.359375 34.515625 30.609375 34.515625 
L 43.21875 34.515625 
L 43.21875 35.40625 
Q 43.21875 41.609375 39.140625 45 
Q 35.0625 48.390625 27.6875 48.390625 
Q 23 48.390625 18.546875 47.265625 
Q 14.109375 46.140625 10.015625 43.890625 
L 10.015625 52.203125 
Q 14.9375 54.109375 19.578125 55.046875 
Q 24.21875 56 28.609375 56 
Q 40.484375 56 46.34375 49.84375 
Q 52.203125 43.703125 52.203125 31.203125 
z
" id="DejaVuSans-97"/>
      <path d="M 52 44.1875 
Q 55.375 50.25 60.0625 53.125 
Q 64.75 56 71.09375 56 
Q 79.640625 56 84.28125 50.015625 
Q 88.921875 44.046875 88.921875 33.015625 
L 88.921875 0 
L 79.890625 0 
L 79.890625 32.71875 
Q 79.890625 40.578125 77.09375 44.375 
Q 74.3125 48.1875 68.609375 48.1875 
Q 61.625 48.1875 57.5625 43.546875 
Q 53.515625 38.921875 53.515625 30.90625 
L 53.515625 0 
L 44.484375 0 
L 44.484375 32.71875 
Q 44.484375 40.625 41.703125 44.40625 
Q 38.921875 48.1875 33.109375 48.1875 
Q 26.21875 48.1875 22.15625 43.53125 
Q 18.109375 38.875 18.109375 30.90625 
L 18.109375 0 
L 9.078125 0 
L 9.078125 54.6875 
L 18.109375 54.6875 
L 18.109375 46.1875 
Q 21.1875 51.21875 25.484375 53.609375 
Q 29.78125 56 35.6875 56 
Q 41.65625 56 45.828125 52.96875 
Q 50 49.953125 52 44.1875 
z
" id="DejaVuSans-109"/>
      <path d="M 18.109375 8.203125 
L 18.109375 -20.796875 
L 9.078125 -20.796875 
L 9.078125 54.6875 
L 18.109375 54.6875 
L 18.109375 46.390625 
Q 20.953125 51.265625 25.265625 53.625 
Q 29.59375 56 35.59375 56 
Q 45.5625 56 51.78125 48.09375 
Q 58.015625 40.1875 58.015625 27.296875 
Q 58.015625 14.40625 51.78125 6.484375 
Q 45.5625 -1.421875 35.59375 -1.421875 
Q 29.59375 -1.421875 25.265625 0.953125 
Q 20.953125 3.328125 18.109375 8.203125 
z
M 48.6875 27.296875 
Q 48.6875 37.203125 44.609375 42.84375 
Q 40.53125 48.484375 33.40625 48.484375 
Q 26.265625 48.484375 22.1875 42.84375 
Q 18.109375 37.203125 18.109375 27.296875 
Q 18.109375 17.390625 22.1875 11.75 
Q 26.265625 6.109375 33.40625 6.109375 
Q 40.53125 6.109375 44.609375 11.75 
Q 48.6875 17.390625 48.6875 27.296875 
z
" id="DejaVuSans-112"/>
      <path d="M 9.421875 75.984375 
L 18.40625 75.984375 
L 18.40625 0 
L 9.421875 0 
z
" id="DejaVuSans-108"/>
      <path d="M 56.203125 29.59375 
L 56.203125 25.203125 
L 14.890625 25.203125 
Q 15.484375 15.921875 20.484375 11.0625 
Q 25.484375 6.203125 34.421875 6.203125 
Q 39.59375 6.203125 44.453125 7.46875 
Q 49.3125 8.734375 54.109375 11.28125 
L 54.109375 2.78125 
Q 49.265625 0.734375 44.1875 -0.34375 
Q 39.109375 -1.421875 33.890625 -1.421875 
Q 20.796875 -1.421875 13.15625 6.1875 
Q 5.515625 13.8125 5.515625 26.8125 
Q 5.515625 40.234375 12.765625 48.109375 
Q 20.015625 56 32.328125 56 
Q 43.359375 56 49.78125 48.890625 
Q 56.203125 41.796875 56.203125 29.59375 
z
M 47.21875 32.234375 
Q 47.125 39.59375 43.09375 43.984375 
Q 39.0625 48.390625 32.421875 48.390625 
Q 24.90625 48.390625 20.390625 44.140625 
Q 15.875 39.890625 15.1875 32.171875 
z
" id="DejaVuSans-101"/>
      <path id="DejaVuSans-32"/>
      <path d="M 37.109375 75.984375 
L 37.109375 68.5 
L 28.515625 68.5 
Q 23.6875 68.5 21.796875 66.546875 
Q 19.921875 64.59375 19.921875 59.515625 
L 19.921875 54.6875 
L 34.71875 54.6875 
L 34.71875 47.703125 
L 19.921875 47.703125 
L 19.921875 0 
L 10.890625 0 
L 10.890625 47.703125 
L 2.296875 47.703125 
L 2.296875 54.6875 
L 10.890625 54.6875 
L 10.890625 58.5 
Q 10.890625 67.625 15.140625 71.796875 
Q 19.390625 75.984375 28.609375 75.984375 
z
" id="DejaVuSans-102"/>
      <path d="M 41.109375 46.296875 
Q 39.59375 47.171875 37.8125 47.578125 
Q 36.03125 48 33.890625 48 
Q 26.265625 48 22.1875 43.046875 
Q 18.109375 38.09375 18.109375 28.8125 
L 18.109375 0 
L 9.078125 0 
L 9.078125 54.6875 
L 18.109375 54.6875 
L 18.109375 46.1875 
Q 20.953125 51.171875 25.484375 53.578125 
Q 30.03125 56 36.53125 56 
Q 37.453125 56 38.578125 55.875 
Q 39.703125 55.765625 41.0625 55.515625 
z
" id="DejaVuSans-114"/>
      <path d="M 14.796875 27.296875 
Q 14.796875 17.390625 18.875 11.75 
Q 22.953125 6.109375 30.078125 6.109375 
Q 37.203125 6.109375 41.296875 11.75 
Q 45.40625 17.390625 45.40625 27.296875 
Q 45.40625 37.203125 41.296875 42.84375 
Q 37.203125 48.484375 30.078125 48.484375 
Q 22.953125 48.484375 18.875 42.84375 
Q 14.796875 37.203125 14.796875 27.296875 
z
M 45.40625 8.203125 
Q 42.578125 3.328125 38.25 0.953125 
Q 33.9375 -1.421875 27.875 -1.421875 
Q 17.96875 -1.421875 11.734375 6.484375 
Q 5.515625 14.40625 5.515625 27.296875 
Q 5.515625 40.1875 11.734375 48.09375 
Q 17.96875 56 27.875 56 
Q 33.9375 56 38.25 53.625 
Q 42.578125 51.265625 45.40625 46.390625 
L 45.40625 54.6875 
L 54.390625 54.6875 
L 54.390625 -20.796875 
L 45.40625 -20.796875 
z
" id="DejaVuSans-113"/>
      <path d="M 8.5 21.578125 
L 8.5 54.6875 
L 17.484375 54.6875 
L 17.484375 21.921875 
Q 17.484375 14.15625 20.5 10.265625 
Q 23.53125 6.390625 29.59375 6.390625 
Q 36.859375 6.390625 41.078125 11.03125 
Q 45.3125 15.671875 45.3125 23.6875 
L 45.3125 54.6875 
L 54.296875 54.6875 
L 54.296875 0 
L 45.3125 0 
L 45.3125 8.40625 
Q 42.046875 3.421875 37.71875 1 
Q 33.40625 -1.421875 27.6875 -1.421875 
Q 18.265625 -1.421875 13.375 4.4375 
Q 8.5 10.296875 8.5 21.578125 
z
M 31.109375 56 
z
" id="DejaVuSans-117"/>
      <path d="M 54.890625 33.015625 
L 54.890625 0 
L 45.90625 0 
L 45.90625 32.71875 
Q 45.90625 40.484375 42.875 44.328125 
Q 39.84375 48.1875 33.796875 48.1875 
Q 26.515625 48.1875 22.3125 43.546875 
Q 18.109375 38.921875 18.109375 30.90625 
L 18.109375 0 
L 9.078125 0 
L 9.078125 54.6875 
L 18.109375 54.6875 
L 18.109375 46.1875 
Q 21.34375 51.125 25.703125 53.5625 
Q 30.078125 56 35.796875 56 
Q 45.21875 56 50.046875 50.171875 
Q 54.890625 44.34375 54.890625 33.015625 
z
" id="DejaVuSans-110"/>
      <path d="M 48.78125 52.59375 
L 48.78125 44.1875 
Q 44.96875 46.296875 41.140625 47.34375 
Q 37.3125 48.390625 33.40625 48.390625 
Q 24.65625 48.390625 19.8125 42.84375 
Q 14.984375 37.3125 14.984375 27.296875 
Q 14.984375 17.28125 19.8125 11.734375 
Q 24.65625 6.203125 33.40625 6.203125 
Q 37.3125 6.203125 41.140625 7.25 
Q 44.96875 8.296875 48.78125 10.40625 
L 48.78125 2.09375 
Q 45.015625 0.34375 40.984375 -0.53125 
Q 36.96875 -1.421875 32.421875 -1.421875 
Q 20.0625 -1.421875 12.78125 6.34375 
Q 5.515625 14.109375 5.515625 27.296875 
Q 5.515625 40.671875 12.859375 48.328125 
Q 20.21875 56 33.015625 56 
Q 37.15625 56 41.109375 55.140625 
Q 45.0625 54.296875 48.78125 52.59375 
z
" id="DejaVuSans-99"/>
      <path d="M 32.171875 -5.078125 
Q 28.375 -14.84375 24.75 -17.8125 
Q 21.140625 -20.796875 15.09375 -20.796875 
L 7.90625 -20.796875 
L 7.90625 -13.28125 
L 13.1875 -13.28125 
Q 16.890625 -13.28125 18.9375 -11.515625 
Q 21 -9.765625 23.484375 -3.21875 
L 25.09375 0.875 
L 2.984375 54.6875 
L 12.5 54.6875 
L 29.59375 11.921875 
L 46.6875 54.6875 
L 56.203125 54.6875 
z
" id="DejaVuSans-121"/>
     </defs>
     <g transform="translate(116.217774 265.676562)scale(0.1 -0.1)">
      <use xlink:href="#DejaVuSans-115"/>
      <use x="52.099609" xlink:href="#DejaVuSans-97"/>
      <use x="113.378906" xlink:href="#DejaVuSans-109"/>
      <use x="210.791016" xlink:href="#DejaVuSans-112"/>
      <use x="274.267578" xlink:href="#DejaVuSans-108"/>
      <use x="302.050781" xlink:href="#DejaVuSans-101"/>
      <use x="363.574219" xlink:href="#DejaVuSans-32"/>
      <use x="395.361328" xlink:href="#DejaVuSans-102"/>
      <use x="430.566406" xlink:href="#DejaVuSans-114"/>
      <use x="469.429688" xlink:href="#DejaVuSans-101"/>
      <use x="530.953125" xlink:href="#DejaVuSans-113"/>
      <use x="594.429688" xlink:href="#DejaVuSans-117"/>
      <use x="657.808594" xlink:href="#DejaVuSans-101"/>
      <use x="719.332031" xlink:href="#DejaVuSans-110"/>
      <use x="782.710938" xlink:href="#DejaVuSans-99"/>
      <use x="837.691406" xlink:href="#DejaVuSans-121"/>
     </g>
    </g>
   </g>
   <g id="matplotlib.axis_2">
    <g id="ytick_1">
     <g id="line2d_23">
      <defs>
       <path d="M 0 0 
L -3.5 0 
" id="me378a0e6be" style="stroke:#000000;stroke-width:0.8;"/>
      </defs>
      <g>
       <use style="stroke:#000000;stroke-width:0.8;" x="45.478125" xlink:href="#me378a0e6be" y="229.903096"/>
      </g>
     </g>
     <g id="text_5">
      <!-- $\mathdefault{10^{4}}$ -->
      <defs>
       <path d="M 37.796875 64.3125 
L 12.890625 25.390625 
L 37.796875 25.390625 
z
M 35.203125 72.90625 
L 47.609375 72.90625 
L 47.609375 25.390625 
L 58.015625 25.390625 
L 58.015625 17.1875 
L 47.609375 17.1875 
L 47.609375 0 
L 37.796875 0 
L 37.796875 17.1875 
L 4.890625 17.1875 
L 4.890625 26.703125 
z
" id="DejaVuSans-52"/>
      </defs>
      <g transform="translate(20.878125 233.702315)scale(0.1 -0.1)">
       <use transform="translate(0 0.684375)" xlink:href="#DejaVuSans-49"/>
       <use transform="translate(63.623047 0.684375)" xlink:href="#DejaVuSans-48"/>
       <use transform="translate(128.203125 38.965625)scale(0.7)" xlink:href="#DejaVuSans-52"/>
      </g>
     </g>
    </g>
    <g id="ytick_2">
     <g id="line2d_24">
      <g>
       <use style="stroke:#000000;stroke-width:0.8;" x="45.478125" xlink:href="#me378a0e6be" y="134.958046"/>
      </g>
     </g>
     <g id="text_6">
      <!-- $\mathdefault{10^{5}}$ -->
      <defs>
       <path d="M 10.796875 72.90625 
L 49.515625 72.90625 
L 49.515625 64.59375 
L 19.828125 64.59375 
L 19.828125 46.734375 
Q 21.96875 47.46875 24.109375 47.828125 
Q 26.265625 48.1875 28.421875 48.1875 
Q 40.625 48.1875 47.75 41.5 
Q 54.890625 34.8125 54.890625 23.390625 
Q 54.890625 11.625 47.5625 5.09375 
Q 40.234375 -1.421875 26.90625 -1.421875 
Q 22.3125 -1.421875 17.546875 -0.640625 
Q 12.796875 0.140625 7.71875 1.703125 
L 7.71875 11.625 
Q 12.109375 9.234375 16.796875 8.0625 
Q 21.484375 6.890625 26.703125 6.890625 
Q 35.15625 6.890625 40.078125 11.328125 
Q 45.015625 15.765625 45.015625 23.390625 
Q 45.015625 31 40.078125 35.4375 
Q 35.15625 39.890625 26.703125 39.890625 
Q 22.75 39.890625 18.8125 39.015625 
Q 14.890625 38.140625 10.796875 36.28125 
z
" id="DejaVuSans-53"/>
      </defs>
      <g transform="translate(20.878125 138.757265)scale(0.1 -0.1)">
       <use transform="translate(0 0.684375)" xlink:href="#DejaVuSans-49"/>
       <use transform="translate(63.623047 0.684375)" xlink:href="#DejaVuSans-48"/>
       <use transform="translate(128.203125 38.965625)scale(0.7)" xlink:href="#DejaVuSans-53"/>
      </g>
     </g>
    </g>
    <g id="ytick_3">
     <g id="line2d_25">
      <g>
       <use style="stroke:#000000;stroke-width:0.8;" x="45.478125" xlink:href="#me378a0e6be" y="40.012997"/>
      </g>
     </g>
     <g id="text_7">
      <!-- $\mathdefault{10^{6}}$ -->
      <defs>
       <path d="M 33.015625 40.375 
Q 26.375 40.375 22.484375 35.828125 
Q 18.609375 31.296875 18.609375 23.390625 
Q 18.609375 15.53125 22.484375 10.953125 
Q 26.375 6.390625 33.015625 6.390625 
Q 39.65625 6.390625 43.53125 10.953125 
Q 47.40625 15.53125 47.40625 23.390625 
Q 47.40625 31.296875 43.53125 35.828125 
Q 39.65625 40.375 33.015625 40.375 
z
M 52.59375 71.296875 
L 52.59375 62.3125 
Q 48.875 64.0625 45.09375 64.984375 
Q 41.3125 65.921875 37.59375 65.921875 
Q 27.828125 65.921875 22.671875 59.328125 
Q 17.53125 52.734375 16.796875 39.40625 
Q 19.671875 43.65625 24.015625 45.921875 
Q 28.375 48.1875 33.59375 48.1875 
Q 44.578125 48.1875 50.953125 41.515625 
Q 57.328125 34.859375 57.328125 23.390625 
Q 57.328125 12.15625 50.6875 5.359375 
Q 44.046875 -1.421875 33.015625 -1.421875 
Q 20.359375 -1.421875 13.671875 8.265625 
Q 6.984375 17.96875 6.984375 36.375 
Q 6.984375 53.65625 15.1875 63.9375 
Q 23.390625 74.21875 37.203125 74.21875 
Q 40.921875 74.21875 44.703125 73.484375 
Q 48.484375 72.75 52.59375 71.296875 
z
" id="DejaVuSans-54"/>
      </defs>
      <g transform="translate(20.878125 43.812216)scale(0.1 -0.1)">
       <use transform="translate(0 0.765625)" xlink:href="#DejaVuSans-49"/>
       <use transform="translate(63.623047 0.765625)" xlink:href="#DejaVuSans-48"/>
       <use transform="translate(128.203125 39.046875)scale(0.7)" xlink:href="#DejaVuSans-54"/>
      </g>
     </g>
    </g>
    <g id="ytick_4">
     <g id="line2d_26">
      <defs>
       <path d="M 0 0 
L -2 0 
" id="m9e215c19e2" style="stroke:#000000;stroke-width:0.6;"/>
      </defs>
      <g>
       <use style="stroke:#000000;stroke-width:0.6;" x="45.478125" xlink:href="#m9e215c19e2" y="234.247543"/>
      </g>
     </g>
    </g>
    <g id="ytick_5">
     <g id="line2d_27">
      <g>
       <use style="stroke:#000000;stroke-width:0.6;" x="45.478125" xlink:href="#m9e215c19e2" y="201.321788"/>
      </g>
     </g>
    </g>
    <g id="ytick_6">
     <g id="line2d_28">
      <g>
       <use style="stroke:#000000;stroke-width:0.6;" x="45.478125" xlink:href="#m9e215c19e2" y="184.602795"/>
      </g>
     </g>
    </g>
    <g id="ytick_7">
     <g id="line2d_29">
      <g>
       <use style="stroke:#000000;stroke-width:0.6;" x="45.478125" xlink:href="#m9e215c19e2" y="172.74048"/>
      </g>
     </g>
    </g>
    <g id="ytick_8">
     <g id="line2d_30">
      <g>
       <use style="stroke:#000000;stroke-width:0.6;" x="45.478125" xlink:href="#m9e215c19e2" y="163.539354"/>
      </g>
     </g>
    </g>
    <g id="ytick_9">
     <g id="line2d_31">
      <g>
       <use style="stroke:#000000;stroke-width:0.6;" x="45.478125" xlink:href="#m9e215c19e2" y="156.021487"/>
      </g>
     </g>
    </g>
    <g id="ytick_10">
     <g id="line2d_32">
      <g>
       <use style="stroke:#000000;stroke-width:0.6;" x="45.478125" xlink:href="#m9e215c19e2" y="149.665221"/>
      </g>
     </g>
    </g>
    <g id="ytick_11">
     <g id="line2d_33">
      <g>
       <use style="stroke:#000000;stroke-width:0.6;" x="45.478125" xlink:href="#m9e215c19e2" y="144.159172"/>
      </g>
     </g>
    </g>
    <g id="ytick_12">
     <g id="line2d_34">
      <g>
       <use style="stroke:#000000;stroke-width:0.6;" x="45.478125" xlink:href="#m9e215c19e2" y="139.302494"/>
      </g>
     </g>
    </g>
    <g id="ytick_13">
     <g id="line2d_35">
      <g>
       <use style="stroke:#000000;stroke-width:0.6;" x="45.478125" xlink:href="#m9e215c19e2" y="106.376739"/>
      </g>
     </g>
    </g>
    <g id="ytick_14">
     <g id="line2d_36">
      <g>
       <use style="stroke:#000000;stroke-width:0.6;" x="45.478125" xlink:href="#m9e215c19e2" y="89.657745"/>
      </g>
     </g>
    </g>
    <g id="ytick_15">
     <g id="line2d_37">
      <g>
       <use style="stroke:#000000;stroke-width:0.6;" x="45.478125" xlink:href="#m9e215c19e2" y="77.795431"/>
      </g>
     </g>
    </g>
    <g id="ytick_16">
     <g id="line2d_38">
      <g>
       <use style="stroke:#000000;stroke-width:0.6;" x="45.478125" xlink:href="#m9e215c19e2" y="68.594305"/>
      </g>
     </g>
    </g>
    <g id="ytick_17">
     <g id="line2d_39">
      <g>
       <use style="stroke:#000000;stroke-width:0.6;" x="45.478125" xlink:href="#m9e215c19e2" y="61.076437"/>
      </g>
     </g>
    </g>
    <g id="ytick_18">
     <g id="line2d_40">
      <g>
       <use style="stroke:#000000;stroke-width:0.6;" x="45.478125" xlink:href="#m9e215c19e2" y="54.720171"/>
      </g>
     </g>
    </g>
    <g id="ytick_19">
     <g id="line2d_41">
      <g>
       <use style="stroke:#000000;stroke-width:0.6;" x="45.478125" xlink:href="#m9e215c19e2" y="49.214123"/>
      </g>
     </g>
    </g>
    <g id="ytick_20">
     <g id="line2d_42">
      <g>
       <use style="stroke:#000000;stroke-width:0.6;" x="45.478125" xlink:href="#m9e215c19e2" y="44.357444"/>
      </g>
     </g>
    </g>
    <g id="ytick_21">
     <g id="line2d_43">
      <g>
       <use style="stroke:#000000;stroke-width:0.6;" x="45.478125" xlink:href="#m9e215c19e2" y="11.431689"/>
      </g>
     </g>
    </g>
    <g id="text_8">
     <!-- variant count -->
     <defs>
      <path d="M 2.984375 54.6875 
L 12.5 54.6875 
L 29.59375 8.796875 
L 46.6875 54.6875 
L 56.203125 54.6875 
L 35.6875 0 
L 23.484375 0 
z
" id="DejaVuSans-118"/>
      <path d="M 9.421875 54.6875 
L 18.40625 54.6875 
L 18.40625 0 
L 9.421875 0 
z
M 9.421875 75.984375 
L 18.40625 75.984375 
L 18.40625 64.59375 
L 9.421875 64.59375 
z
" id="DejaVuSans-105"/>
      <path d="M 18.3125 70.21875 
L 18.3125 54.6875 
L 36.8125 54.6875 
L 36.8125 47.703125 
L 18.3125 47.703125 
L 18.3125 18.015625 
Q 18.3125 11.328125 20.140625 9.421875 
Q 21.96875 7.515625 27.59375 7.515625 
L 36.8125 7.515625 
L 36.8125 0 
L 27.59375 0 
Q 17.1875 0 13.234375 3.875 
Q 9.28125 7.765625 9.28125 18.015625 
L 9.28125 47.703125 
L 2.6875 47.703125 
L 2.6875 54.6875 
L 9.28125 54.6875 
L 9.28125 70.21875 
z
" id="DejaVuSans-116"/>
      <path d="M 30.609375 48.390625 
Q 23.390625 48.390625 19.1875 42.75 
Q 14.984375 37.109375 14.984375 27.296875 
Q 14.984375 17.484375 19.15625 11.84375 
Q 23.34375 6.203125 30.609375 6.203125 
Q 37.796875 6.203125 41.984375 11.859375 
Q 46.1875 17.53125 46.1875 27.296875 
Q 46.1875 37.015625 41.984375 42.703125 
Q 37.796875 48.390625 30.609375 48.390625 
z
M 30.609375 56 
Q 42.328125 56 49.015625 48.375 
Q 55.71875 40.765625 55.71875 27.296875 
Q 55.71875 13.875 49.015625 6.21875 
Q 42.328125 -1.421875 30.609375 -1.421875 
Q 18.84375 -1.421875 12.171875 6.21875 
Q 5.515625 13.875 5.515625 27.296875 
Q 5.515625 40.765625 12.171875 48.375 
Q 18.84375 56 30.609375 56 
z
" id="DejaVuSans-111"/>
     </defs>
     <g transform="translate(14.798438 155.65625)rotate(-90)scale(0.1 -0.1)">
      <use xlink:href="#DejaVuSans-118"/>
      <use x="59.179688" xlink:href="#DejaVuSans-97"/>
      <use x="120.458984" xlink:href="#DejaVuSans-114"/>
      <use x="161.572266" xlink:href="#DejaVuSans-105"/>
      <use x="189.355469" xlink:href="#DejaVuSans-97"/>
      <use x="250.634766" xlink:href="#DejaVuSans-110"/>
      <use x="314.013672" xlink:href="#DejaVuSans-116"/>
      <use x="353.222656" xlink:href="#DejaVuSans-32"/>
      <use x="385.009766" xlink:href="#DejaVuSans-99"/>
      <use x="439.990234" xlink:href="#DejaVuSans-111"/>
      <use x="501.171875" xlink:href="#DejaVuSans-117"/>
      <use x="564.550781" xlink:href="#DejaVuSans-110"/>
      <use x="627.929688" xlink:href="#DejaVuSans-116"/>
     </g>
    </g>
   </g>
   <g id="line2d_44">
    <defs>
     <path d="M 0 2.5 
C 0.663008 2.5 1.29895 2.236584 1.767767 1.767767 
C 2.236584 1.29895 2.5 0.663008 2.5 0 
C 2.5 -0.663008 2.236584 -1.29895 1.767767 -1.767767 
C 1.29895 -2.236584 0.663008 -2.5 0 -2.5 
C -0.663008 -2.5 -1.29895 -2.236584 -1.767767 -1.767767 
C -2.236584 -1.29895 -2.5 -0.663008 -2.5 0 
C -2.5 0.663008 -2.236584 1.29895 -1.767767 1.767767 
C -1.29895 2.236584 -0.663008 2.5 0 2.5 
z
" id="m7d4a0cefea" style="stroke:#000000;stroke-opacity:0.75;"/>
    </defs>
    <g clip-path="url(#pe6b07a70de)">
     <use style="fill-opacity:0.75;stroke:#000000;stroke-opacity:0.75;" x="55.985778" xlink:href="#m7d4a0cefea" y="17.663636"/>
     <use style="fill-opacity:0.75;stroke:#000000;stroke-opacity:0.75;" x="83.50488" xlink:href="#m7d4a0cefea" y="60.949289"/>
     <use style="fill-opacity:0.75;stroke:#000000;stroke-opacity:0.75;" x="99.602523" xlink:href="#m7d4a0cefea" y="79.48567"/>
     <use style="fill-opacity:0.75;stroke:#000000;stroke-opacity:0.75;" x="111.023983" xlink:href="#m7d4a0cefea" y="89.768401"/>
     <use style="fill-opacity:0.75;stroke:#000000;stroke-opacity:0.75;" x="119.883155" xlink:href="#m7d4a0cefea" y="97.435877"/>
     <use style="fill-opacity:0.75;stroke:#000000;stroke-opacity:0.75;" x="127.121626" xlink:href="#m7d4a0cefea" y="103.456078"/>
     <use style="fill-opacity:0.75;stroke:#000000;stroke-opacity:0.75;" x="133.241665" xlink:href="#m7d4a0cefea" y="108.638958"/>
     <use style="fill-opacity:0.75;stroke:#000000;stroke-opacity:0.75;" x="138.543085" xlink:href="#m7d4a0cefea" y="113.490764"/>
     <use style="fill-opacity:0.75;stroke:#000000;stroke-opacity:0.75;" x="143.219269" xlink:href="#m7d4a0cefea" y="117.717592"/>
     <use style="fill-opacity:0.75;stroke:#000000;stroke-opacity:0.75;" x="147.402257" xlink:href="#m7d4a0cefea" y="122.093447"/>
     <use style="fill-opacity:0.75;stroke:#000000;stroke-opacity:0.75;" x="151.186231" xlink:href="#m7d4a0cefea" y="125.795203"/>
     <use style="fill-opacity:0.75;stroke:#000000;stroke-opacity:0.75;" x="154.640728" xlink:href="#m7d4a0cefea" y="129.836489"/>
     <use style="fill-opacity:0.75;stroke:#000000;stroke-opacity:0.75;" x="157.818557" xlink:href="#m7d4a0cefea" y="133.065783"/>
     <use style="fill-opacity:0.75;stroke:#000000;stroke-opacity:0.75;" x="160.760768" xlink:href="#m7d4a0cefea" y="136.603954"/>
     <use style="fill-opacity:0.75;stroke:#000000;stroke-opacity:0.75;" x="163.4999" xlink:href="#m7d4a0cefea" y="139.770628"/>
     <use style="fill-opacity:0.75;stroke:#000000;stroke-opacity:0.75;" x="166.062187" xlink:href="#m7d4a0cefea" y="143.037536"/>
     <use style="fill-opacity:0.75;stroke:#000000;stroke-opacity:0.75;" x="168.469086" xlink:href="#m7d4a0cefea" y="145.958027"/>
     <use style="fill-opacity:0.75;stroke:#000000;stroke-opacity:0.75;" x="170.738371" xlink:href="#m7d4a0cefea" y="148.599945"/>
     <use style="fill-opacity:0.75;stroke:#000000;stroke-opacity:0.75;" x="172.88493" xlink:href="#m7d4a0cefea" y="151.451694"/>
     <use style="fill-opacity:0.75;stroke:#000000;stroke-opacity:0.75;" x="174.92136" xlink:href="#m7d4a0cefea" y="154.12371"/>
     <use style="fill-opacity:0.75;stroke:#000000;stroke-opacity:0.75;" x="176.858411" xlink:href="#m7d4a0cefea" y="156.678886"/>
     <use style="fill-opacity:0.75;stroke:#000000;stroke-opacity:0.75;" x="178.705333" xlink:href="#m7d4a0cefea" y="158.781756"/>
     <use style="fill-opacity:0.75;stroke:#000000;stroke-opacity:0.75;" x="180.470143" xlink:href="#m7d4a0cefea" y="161.462398"/>
     <use style="fill-opacity:0.75;stroke:#000000;stroke-opacity:0.75;" x="182.15983" xlink:href="#m7d4a0cefea" y="162.726045"/>
     <use style="fill-opacity:0.75;stroke:#000000;stroke-opacity:0.75;" x="183.780532" xlink:href="#m7d4a0cefea" y="165.007555"/>
     <use style="fill-opacity:0.75;stroke:#000000;stroke-opacity:0.75;" x="185.33766" xlink:href="#m7d4a0cefea" y="166.699681"/>
     <use style="fill-opacity:0.75;stroke:#000000;stroke-opacity:0.75;" x="186.836014" xlink:href="#m7d4a0cefea" y="168.750516"/>
     <use style="fill-opacity:0.75;stroke:#000000;stroke-opacity:0.75;" x="188.27987" xlink:href="#m7d4a0cefea" y="170.643336"/>
     <use style="fill-opacity:0.75;stroke:#000000;stroke-opacity:0.75;" x="189.673054" xlink:href="#m7d4a0cefea" y="172.887122"/>
     <use style="fill-opacity:0.75;stroke:#000000;stroke-opacity:0.75;" x="191.019003" xlink:href="#m7d4a0cefea" y="174.183905"/>
     <use style="fill-opacity:0.75;stroke:#000000;stroke-opacity:0.75;" x="192.320813" xlink:href="#m7d4a0cefea" y="175.999757"/>
     <use style="fill-opacity:0.75;stroke:#000000;stroke-opacity:0.75;" x="193.58129" xlink:href="#m7d4a0cefea" y="177.227201"/>
     <use style="fill-opacity:0.75;stroke:#000000;stroke-opacity:0.75;" x="194.802976" xlink:href="#m7d4a0cefea" y="178.47335"/>
     <use style="fill-opacity:0.75;stroke:#000000;stroke-opacity:0.75;" x="195.988189" xlink:href="#m7d4a0cefea" y="179.915063"/>
     <use style="fill-opacity:0.75;stroke:#000000;stroke-opacity:0.75;" x="197.139042" xlink:href="#m7d4a0cefea" y="181.122536"/>
     <use style="fill-opacity:0.75;stroke:#000000;stroke-opacity:0.75;" x="198.257473" xlink:href="#m7d4a0cefea" y="182.307893"/>
     <use style="fill-opacity:0.75;stroke:#000000;stroke-opacity:0.75;" x="199.345258" xlink:href="#m7d4a0cefea" y="183.334619"/>
     <use style="fill-opacity:0.75;stroke:#000000;stroke-opacity:0.75;" x="200.404032" xlink:href="#m7d4a0cefea" y="184.523153"/>
     <use style="fill-opacity:0.75;stroke:#000000;stroke-opacity:0.75;" x="201.435303" xlink:href="#m7d4a0cefea" y="185.531317"/>
     <use style="fill-opacity:0.75;stroke:#000000;stroke-opacity:0.75;" x="202.440462" xlink:href="#m7d4a0cefea" y="186.478354"/>
     <use style="fill-opacity:0.75;stroke:#000000;stroke-opacity:0.75;" x="203.4208" xlink:href="#m7d4a0cefea" y="187.741758"/>
     <use style="fill-opacity:0.75;stroke:#000000;stroke-opacity:0.75;" x="204.377513" xlink:href="#m7d4a0cefea" y="188.387525"/>
     <use style="fill-opacity:0.75;stroke:#000000;stroke-opacity:0.75;" x="205.311713" xlink:href="#m7d4a0cefea" y="189.378631"/>
     <use style="fill-opacity:0.75;stroke:#000000;stroke-opacity:0.75;" x="206.224436" xlink:href="#m7d4a0cefea" y="189.941107"/>
     <use style="fill-opacity:0.75;stroke:#000000;stroke-opacity:0.75;" x="207.116646" xlink:href="#m7d4a0cefea" y="190.673475"/>
     <use style="fill-opacity:0.75;stroke:#000000;stroke-opacity:0.75;" x="207.989245" xlink:href="#m7d4a0cefea" y="191.141122"/>
     <use style="fill-opacity:0.75;stroke:#000000;stroke-opacity:0.75;" x="208.843077" xlink:href="#m7d4a0cefea" y="192.256132"/>
     <use style="fill-opacity:0.75;stroke:#000000;stroke-opacity:0.75;" x="209.678933" xlink:href="#m7d4a0cefea" y="193.043"/>
     <use style="fill-opacity:0.75;stroke:#000000;stroke-opacity:0.75;" x="210.497553" xlink:href="#m7d4a0cefea" y="193.190002"/>
     <use style="fill-opacity:0.75;stroke:#000000;stroke-opacity:0.75;" x="211.299634" xlink:href="#m7d4a0cefea" y="194.353925"/>
     <use style="fill-opacity:0.75;stroke:#000000;stroke-opacity:0.75;" x="212.085832" xlink:href="#m7d4a0cefea" y="194.833783"/>
     <use style="fill-opacity:0.75;stroke:#000000;stroke-opacity:0.75;" x="212.856762" xlink:href="#m7d4a0cefea" y="195.433524"/>
     <use style="fill-opacity:0.75;stroke:#000000;stroke-opacity:0.75;" x="213.613007" xlink:href="#m7d4a0cefea" y="195.866541"/>
     <use style="fill-opacity:0.75;stroke:#000000;stroke-opacity:0.75;" x="214.355116" xlink:href="#m7d4a0cefea" y="196.774146"/>
     <use style="fill-opacity:0.75;stroke:#000000;stroke-opacity:0.75;" x="215.083608" xlink:href="#m7d4a0cefea" y="197.027884"/>
     <use style="fill-opacity:0.75;stroke:#000000;stroke-opacity:0.75;" x="215.798973" xlink:href="#m7d4a0cefea" y="197.766436"/>
     <use style="fill-opacity:0.75;stroke:#000000;stroke-opacity:0.75;" x="216.501675" xlink:href="#m7d4a0cefea" y="198.234362"/>
     <use style="fill-opacity:0.75;stroke:#000000;stroke-opacity:0.75;" x="217.192157" xlink:href="#m7d4a0cefea" y="199.022336"/>
     <use style="fill-opacity:0.75;stroke:#000000;stroke-opacity:0.75;" x="217.870834" xlink:href="#m7d4a0cefea" y="198.557"/>
     <use style="fill-opacity:0.75;stroke:#000000;stroke-opacity:0.75;" x="218.538105" xlink:href="#m7d4a0cefea" y="199.760102"/>
     <use style="fill-opacity:0.75;stroke:#000000;stroke-opacity:0.75;" x="219.194346" xlink:href="#m7d4a0cefea" y="200.114969"/>
     <use style="fill-opacity:0.75;stroke:#000000;stroke-opacity:0.75;" x="219.839916" xlink:href="#m7d4a0cefea" y="200.756648"/>
     <use style="fill-opacity:0.75;stroke:#000000;stroke-opacity:0.75;" x="220.475156" xlink:href="#m7d4a0cefea" y="201.237345"/>
     <use style="fill-opacity:0.75;stroke:#000000;stroke-opacity:0.75;" x="221.100392" xlink:href="#m7d4a0cefea" y="201.210606"/>
     <use style="fill-opacity:0.75;stroke:#000000;stroke-opacity:0.75;" x="221.715934" xlink:href="#m7d4a0cefea" y="201.838375"/>
     <use style="fill-opacity:0.75;stroke:#000000;stroke-opacity:0.75;" x="222.322079" xlink:href="#m7d4a0cefea" y="202.446178"/>
     <use style="fill-opacity:0.75;stroke:#000000;stroke-opacity:0.75;" x="222.919107" xlink:href="#m7d4a0cefea" y="202.342492"/>
     <use style="fill-opacity:0.75;stroke:#000000;stroke-opacity:0.75;" x="223.507291" xlink:href="#m7d4a0cefea" y="203.71118"/>
     <use style="fill-opacity:0.75;stroke:#000000;stroke-opacity:0.75;" x="224.086888" xlink:href="#m7d4a0cefea" y="203.373933"/>
     <use style="fill-opacity:0.75;stroke:#000000;stroke-opacity:0.75;" x="224.658145" xlink:href="#m7d4a0cefea" y="203.960991"/>
     <use style="fill-opacity:0.75;stroke:#000000;stroke-opacity:0.75;" x="225.221299" xlink:href="#m7d4a0cefea" y="204.181377"/>
     <use style="fill-opacity:0.75;stroke:#000000;stroke-opacity:0.75;" x="225.776576" xlink:href="#m7d4a0cefea" y="204.30531"/>
     <use style="fill-opacity:0.75;stroke:#000000;stroke-opacity:0.75;" x="226.324194" xlink:href="#m7d4a0cefea" y="205.415016"/>
     <use style="fill-opacity:0.75;stroke:#000000;stroke-opacity:0.75;" x="226.864361" xlink:href="#m7d4a0cefea" y="205.494784"/>
     <use style="fill-opacity:0.75;stroke:#000000;stroke-opacity:0.75;" x="227.397277" xlink:href="#m7d4a0cefea" y="206.136224"/>
     <use style="fill-opacity:0.75;stroke:#000000;stroke-opacity:0.75;" x="227.923135" xlink:href="#m7d4a0cefea" y="206.126957"/>
     <use style="fill-opacity:0.75;stroke:#000000;stroke-opacity:0.75;" x="228.442118" xlink:href="#m7d4a0cefea" y="206.092223"/>
     <use style="fill-opacity:0.75;stroke:#000000;stroke-opacity:0.75;" x="228.954405" xlink:href="#m7d4a0cefea" y="206.548394"/>
     <use style="fill-opacity:0.75;stroke:#000000;stroke-opacity:0.75;" x="229.460166" xlink:href="#m7d4a0cefea" y="207.092583"/>
     <use style="fill-opacity:0.75;stroke:#000000;stroke-opacity:0.75;" x="229.959564" xlink:href="#m7d4a0cefea" y="207.430706"/>
     <use style="fill-opacity:0.75;stroke:#000000;stroke-opacity:0.75;" x="230.452759" xlink:href="#m7d4a0cefea" y="207.899595"/>
     <use style="fill-opacity:0.75;stroke:#000000;stroke-opacity:0.75;" x="230.939903" xlink:href="#m7d4a0cefea" y="207.564816"/>
     <use style="fill-opacity:0.75;stroke:#000000;stroke-opacity:0.75;" x="231.421141" xlink:href="#m7d4a0cefea" y="208.846253"/>
     <use style="fill-opacity:0.75;stroke:#000000;stroke-opacity:0.75;" x="231.896616" xlink:href="#m7d4a0cefea" y="208.454682"/>
     <use style="fill-opacity:0.75;stroke:#000000;stroke-opacity:0.75;" x="232.366463" xlink:href="#m7d4a0cefea" y="208.764678"/>
     <use style="fill-opacity:0.75;stroke:#000000;stroke-opacity:0.75;" x="232.830816" xlink:href="#m7d4a0cefea" y="208.744926"/>
     <use style="fill-opacity:0.75;stroke:#000000;stroke-opacity:0.75;" x="233.2898" xlink:href="#m7d4a0cefea" y="209.314093"/>
     <use style="fill-opacity:0.75;stroke:#000000;stroke-opacity:0.75;" x="233.743538" xlink:href="#m7d4a0cefea" y="209.269069"/>
     <use style="fill-opacity:0.75;stroke:#000000;stroke-opacity:0.75;" x="234.192149" xlink:href="#m7d4a0cefea" y="209.858246"/>
     <use style="fill-opacity:0.75;stroke:#000000;stroke-opacity:0.75;" x="234.635748" xlink:href="#m7d4a0cefea" y="210.299311"/>
     <use style="fill-opacity:0.75;stroke:#000000;stroke-opacity:0.75;" x="235.074445" xlink:href="#m7d4a0cefea" y="210.693357"/>
     <use style="fill-opacity:0.75;stroke:#000000;stroke-opacity:0.75;" x="235.508347" xlink:href="#m7d4a0cefea" y="211.34018"/>
     <use style="fill-opacity:0.75;stroke:#000000;stroke-opacity:0.75;" x="235.937559" xlink:href="#m7d4a0cefea" y="211.044199"/>
     <use style="fill-opacity:0.75;stroke:#000000;stroke-opacity:0.75;" x="236.36218" xlink:href="#m7d4a0cefea" y="211.187995"/>
     <use style="fill-opacity:0.75;stroke:#000000;stroke-opacity:0.75;" x="236.782307" xlink:href="#m7d4a0cefea" y="211.342808"/>
     <use style="fill-opacity:0.75;stroke:#000000;stroke-opacity:0.75;" x="237.198035" xlink:href="#m7d4a0cefea" y="211.500844"/>
     <use style="fill-opacity:0.75;stroke:#000000;stroke-opacity:0.75;" x="237.609455" xlink:href="#m7d4a0cefea" y="212.19812"/>
     <use style="fill-opacity:0.75;stroke:#000000;stroke-opacity:0.75;" x="238.016655" xlink:href="#m7d4a0cefea" y="212.678659"/>
     <use style="fill-opacity:0.75;stroke:#000000;stroke-opacity:0.75;" x="238.419722" xlink:href="#m7d4a0cefea" y="212.942903"/>
     <use style="fill-opacity:0.75;stroke:#000000;stroke-opacity:0.75;" x="238.818737" xlink:href="#m7d4a0cefea" y="211.805449"/>
     <use style="fill-opacity:0.75;stroke:#000000;stroke-opacity:0.75;" x="239.213781" xlink:href="#m7d4a0cefea" y="213.140143"/>
     <use style="fill-opacity:0.75;stroke:#000000;stroke-opacity:0.75;" x="239.604934" xlink:href="#m7d4a0cefea" y="213.835218"/>
     <use style="fill-opacity:0.75;stroke:#000000;stroke-opacity:0.75;" x="239.992271" xlink:href="#m7d4a0cefea" y="213.986299"/>
     <use style="fill-opacity:0.75;stroke:#000000;stroke-opacity:0.75;" x="240.375865" xlink:href="#m7d4a0cefea" y="213.623517"/>
     <use style="fill-opacity:0.75;stroke:#000000;stroke-opacity:0.75;" x="240.755788" xlink:href="#m7d4a0cefea" y="214.202693"/>
     <use style="fill-opacity:0.75;stroke:#000000;stroke-opacity:0.75;" x="241.13211" xlink:href="#m7d4a0cefea" y="215.016532"/>
     <use style="fill-opacity:0.75;stroke:#000000;stroke-opacity:0.75;" x="241.504898" xlink:href="#m7d4a0cefea" y="214.69591"/>
     <use style="fill-opacity:0.75;stroke:#000000;stroke-opacity:0.75;" x="241.874219" xlink:href="#m7d4a0cefea" y="215.062539"/>
     <use style="fill-opacity:0.75;stroke:#000000;stroke-opacity:0.75;" x="242.240135" xlink:href="#m7d4a0cefea" y="214.927538"/>
     <use style="fill-opacity:0.75;stroke:#000000;stroke-opacity:0.75;" x="242.60271" xlink:href="#m7d4a0cefea" y="215.368642"/>
     <use style="fill-opacity:0.75;stroke:#000000;stroke-opacity:0.75;" x="242.962004" xlink:href="#m7d4a0cefea" y="216.303789"/>
     <use style="fill-opacity:0.75;stroke:#000000;stroke-opacity:0.75;" x="243.318075" xlink:href="#m7d4a0cefea" y="215.478932"/>
     <use style="fill-opacity:0.75;stroke:#000000;stroke-opacity:0.75;" x="243.670981" xlink:href="#m7d4a0cefea" y="215.452784"/>
     <use style="fill-opacity:0.75;stroke:#000000;stroke-opacity:0.75;" x="244.020778" xlink:href="#m7d4a0cefea" y="216.858998"/>
     <use style="fill-opacity:0.75;stroke:#000000;stroke-opacity:0.75;" x="244.36752" xlink:href="#m7d4a0cefea" y="216.586429"/>
     <use style="fill-opacity:0.75;stroke:#000000;stroke-opacity:0.75;" x="244.711259" xlink:href="#m7d4a0cefea" y="216.491007"/>
     <use style="fill-opacity:0.75;stroke:#000000;stroke-opacity:0.75;" x="245.052048" xlink:href="#m7d4a0cefea" y="217.057818"/>
     <use style="fill-opacity:0.75;stroke:#000000;stroke-opacity:0.75;" x="245.389937" xlink:href="#m7d4a0cefea" y="217.342653"/>
     <use style="fill-opacity:0.75;stroke:#000000;stroke-opacity:0.75;" x="245.724974" xlink:href="#m7d4a0cefea" y="217.245467"/>
     <use style="fill-opacity:0.75;stroke:#000000;stroke-opacity:0.75;" x="246.057207" xlink:href="#m7d4a0cefea" y="217.433973"/>
     <use style="fill-opacity:0.75;stroke:#000000;stroke-opacity:0.75;" x="246.386684" xlink:href="#m7d4a0cefea" y="217.510228"/>
     <use style="fill-opacity:0.75;stroke:#000000;stroke-opacity:0.75;" x="246.713448" xlink:href="#m7d4a0cefea" y="218.76562"/>
     <use style="fill-opacity:0.75;stroke:#000000;stroke-opacity:0.75;" x="247.037545" xlink:href="#m7d4a0cefea" y="218.249541"/>
     <use style="fill-opacity:0.75;stroke:#000000;stroke-opacity:0.75;" x="247.359018" xlink:href="#m7d4a0cefea" y="218.605414"/>
     <use style="fill-opacity:0.75;stroke:#000000;stroke-opacity:0.75;" x="247.677909" xlink:href="#m7d4a0cefea" y="218.92961"/>
     <use style="fill-opacity:0.75;stroke:#000000;stroke-opacity:0.75;" x="247.994259" xlink:href="#m7d4a0cefea" y="218.567808"/>
     <use style="fill-opacity:0.75;stroke:#000000;stroke-opacity:0.75;" x="248.308107" xlink:href="#m7d4a0cefea" y="218.617956"/>
     <use style="fill-opacity:0.75;stroke:#000000;stroke-opacity:0.75;" x="248.619495" xlink:href="#m7d4a0cefea" y="218.737303"/>
     <use style="fill-opacity:0.75;stroke:#000000;stroke-opacity:0.75;" x="248.928459" xlink:href="#m7d4a0cefea" y="219.736928"/>
     <use style="fill-opacity:0.75;stroke:#000000;stroke-opacity:0.75;" x="249.235037" xlink:href="#m7d4a0cefea" y="219.390367"/>
     <use style="fill-opacity:0.75;stroke:#000000;stroke-opacity:0.75;" x="249.539266" xlink:href="#m7d4a0cefea" y="219.569701"/>
     <use style="fill-opacity:0.75;stroke:#000000;stroke-opacity:0.75;" x="249.841181" xlink:href="#m7d4a0cefea" y="220.540648"/>
     <use style="fill-opacity:0.75;stroke:#000000;stroke-opacity:0.75;" x="250.140818" xlink:href="#m7d4a0cefea" y="220.112433"/>
     <use style="fill-opacity:0.75;stroke:#000000;stroke-opacity:0.75;" x="250.43821" xlink:href="#m7d4a0cefea" y="220.379955"/>
     <use style="fill-opacity:0.75;stroke:#000000;stroke-opacity:0.75;" x="250.733391" xlink:href="#m7d4a0cefea" y="221.116387"/>
     <use style="fill-opacity:0.75;stroke:#000000;stroke-opacity:0.75;" x="251.026394" xlink:href="#m7d4a0cefea" y="220.860614"/>
     <use style="fill-opacity:0.75;stroke:#000000;stroke-opacity:0.75;" x="251.31725" xlink:href="#m7d4a0cefea" y="221.119719"/>
     <use style="fill-opacity:0.75;stroke:#000000;stroke-opacity:0.75;" x="251.60599" xlink:href="#m7d4a0cefea" y="221.226491"/>
     <use style="fill-opacity:0.75;stroke:#000000;stroke-opacity:0.75;" x="251.892646" xlink:href="#m7d4a0cefea" y="221.286672"/>
     <use style="fill-opacity:0.75;stroke:#000000;stroke-opacity:0.75;" x="252.177247" xlink:href="#m7d4a0cefea" y="221.900156"/>
     <use style="fill-opacity:0.75;stroke:#000000;stroke-opacity:0.75;" x="252.459823" xlink:href="#m7d4a0cefea" y="222.319993"/>
     <use style="fill-opacity:0.75;stroke:#000000;stroke-opacity:0.75;" x="252.740401" xlink:href="#m7d4a0cefea" y="221.541743"/>
     <use style="fill-opacity:0.75;stroke:#000000;stroke-opacity:0.75;" x="253.01901" xlink:href="#m7d4a0cefea" y="221.978338"/>
     <use style="fill-opacity:0.75;stroke:#000000;stroke-opacity:0.75;" x="253.295678" xlink:href="#m7d4a0cefea" y="222.716428"/>
     <use style="fill-opacity:0.75;stroke:#000000;stroke-opacity:0.75;" x="253.570431" xlink:href="#m7d4a0cefea" y="222.498779"/>
     <use style="fill-opacity:0.75;stroke:#000000;stroke-opacity:0.75;" x="253.843296" xlink:href="#m7d4a0cefea" y="222.436804"/>
     <use style="fill-opacity:0.75;stroke:#000000;stroke-opacity:0.75;" x="254.114298" xlink:href="#m7d4a0cefea" y="223.588085"/>
     <use style="fill-opacity:0.75;stroke:#000000;stroke-opacity:0.75;" x="254.383463" xlink:href="#m7d4a0cefea" y="221.889969"/>
     <use style="fill-opacity:0.75;stroke:#000000;stroke-opacity:0.75;" x="254.650816" xlink:href="#m7d4a0cefea" y="223.818691"/>
     <use style="fill-opacity:0.75;stroke:#000000;stroke-opacity:0.75;" x="254.91638" xlink:href="#m7d4a0cefea" y="223.793794"/>
     <use style="fill-opacity:0.75;stroke:#000000;stroke-opacity:0.75;" x="255.180179" xlink:href="#m7d4a0cefea" y="223.506793"/>
     <use style="fill-opacity:0.75;stroke:#000000;stroke-opacity:0.75;" x="255.442237" xlink:href="#m7d4a0cefea" y="224.179597"/>
     <use style="fill-opacity:0.75;stroke:#000000;stroke-opacity:0.75;" x="255.702577" xlink:href="#m7d4a0cefea" y="224.018407"/>
     <use style="fill-opacity:0.75;stroke:#000000;stroke-opacity:0.75;" x="255.961221" xlink:href="#m7d4a0cefea" y="224.082807"/>
     <use style="fill-opacity:0.75;stroke:#000000;stroke-opacity:0.75;" x="256.21819" xlink:href="#m7d4a0cefea" y="224.247844"/>
     <use style="fill-opacity:0.75;stroke:#000000;stroke-opacity:0.75;" x="256.473508" xlink:href="#m7d4a0cefea" y="224.140137"/>
     <use style="fill-opacity:0.75;stroke:#000000;stroke-opacity:0.75;" x="256.727193" xlink:href="#m7d4a0cefea" y="224.107879"/>
     <use style="fill-opacity:0.75;stroke:#000000;stroke-opacity:0.75;" x="256.979268" xlink:href="#m7d4a0cefea" y="224.659719"/>
     <use style="fill-opacity:0.75;stroke:#000000;stroke-opacity:0.75;" x="257.229753" xlink:href="#m7d4a0cefea" y="224.96586"/>
     <use style="fill-opacity:0.75;stroke:#000000;stroke-opacity:0.75;" x="257.478667" xlink:href="#m7d4a0cefea" y="224.914679"/>
     <use style="fill-opacity:0.75;stroke:#000000;stroke-opacity:0.75;" x="257.72603" xlink:href="#m7d4a0cefea" y="225.455281"/>
     <use style="fill-opacity:0.75;stroke:#000000;stroke-opacity:0.75;" x="257.971862" xlink:href="#m7d4a0cefea" y="225.116116"/>
     <use style="fill-opacity:0.75;stroke:#000000;stroke-opacity:0.75;" x="258.21618" xlink:href="#m7d4a0cefea" y="224.947574"/>
     <use style="fill-opacity:0.75;stroke:#000000;stroke-opacity:0.75;" x="258.459005" xlink:href="#m7d4a0cefea" y="225.507138"/>
     <use style="fill-opacity:0.75;stroke:#000000;stroke-opacity:0.75;" x="258.700353" xlink:href="#m7d4a0cefea" y="225.270606"/>
     <use style="fill-opacity:0.75;stroke:#000000;stroke-opacity:0.75;" x="258.940243" xlink:href="#m7d4a0cefea" y="226.588652"/>
     <use style="fill-opacity:0.75;stroke:#000000;stroke-opacity:0.75;" x="259.178692" xlink:href="#m7d4a0cefea" y="225.82713"/>
     <use style="fill-opacity:0.75;stroke:#000000;stroke-opacity:0.75;" x="259.415718" xlink:href="#m7d4a0cefea" y="226.160921"/>
     <use style="fill-opacity:0.75;stroke:#000000;stroke-opacity:0.75;" x="259.651337" xlink:href="#m7d4a0cefea" y="225.741308"/>
     <use style="fill-opacity:0.75;stroke:#000000;stroke-opacity:0.75;" x="259.885566" xlink:href="#m7d4a0cefea" y="226.202364"/>
     <use style="fill-opacity:0.75;stroke:#000000;stroke-opacity:0.75;" x="260.118421" xlink:href="#m7d4a0cefea" y="226.52022"/>
     <use style="fill-opacity:0.75;stroke:#000000;stroke-opacity:0.75;" x="260.349918" xlink:href="#m7d4a0cefea" y="226.6877"/>
     <use style="fill-opacity:0.75;stroke:#000000;stroke-opacity:0.75;" x="260.580073" xlink:href="#m7d4a0cefea" y="226.936364"/>
     <use style="fill-opacity:0.75;stroke:#000000;stroke-opacity:0.75;" x="260.808902" xlink:href="#m7d4a0cefea" y="226.157155"/>
     <use style="fill-opacity:0.75;stroke:#000000;stroke-opacity:0.75;" x="261.03642" xlink:href="#m7d4a0cefea" y="226.258944"/>
     <use style="fill-opacity:0.75;stroke:#000000;stroke-opacity:0.75;" x="261.26264" xlink:href="#m7d4a0cefea" y="226.657198"/>
     <use style="fill-opacity:0.75;stroke:#000000;stroke-opacity:0.75;" x="261.48758" xlink:href="#m7d4a0cefea" y="226.164686"/>
     <use style="fill-opacity:0.75;stroke:#000000;stroke-opacity:0.75;" x="261.711252" xlink:href="#m7d4a0cefea" y="225.521967"/>
     <use style="fill-opacity:0.75;stroke:#000000;stroke-opacity:0.75;" x="261.933671" xlink:href="#m7d4a0cefea" y="226.119519"/>
     <use style="fill-opacity:0.75;stroke:#000000;stroke-opacity:0.75;" x="262.15485" xlink:href="#m7d4a0cefea" y="226.281598"/>
     <use style="fill-opacity:0.75;stroke:#000000;stroke-opacity:0.75;" x="262.374805" xlink:href="#m7d4a0cefea" y="225.984313"/>
     <use style="fill-opacity:0.75;stroke:#000000;stroke-opacity:0.75;" x="262.593547" xlink:href="#m7d4a0cefea" y="225.127132"/>
     <use style="fill-opacity:0.75;stroke:#000000;stroke-opacity:0.75;" x="262.811091" xlink:href="#m7d4a0cefea" y="225.496021"/>
     <use style="fill-opacity:0.75;stroke:#000000;stroke-opacity:0.75;" x="263.02745" xlink:href="#m7d4a0cefea" y="225.322232"/>
     <use style="fill-opacity:0.75;stroke:#000000;stroke-opacity:0.75;" x="263.242636" xlink:href="#m7d4a0cefea" y="224.947574"/>
     <use style="fill-opacity:0.75;stroke:#000000;stroke-opacity:0.75;" x="263.456661" xlink:href="#m7d4a0cefea" y="225.006119"/>
     <use style="fill-opacity:0.75;stroke:#000000;stroke-opacity:0.75;" x="263.669539" xlink:href="#m7d4a0cefea" y="224.334214"/>
     <use style="fill-opacity:0.75;stroke:#000000;stroke-opacity:0.75;" x="263.881282" xlink:href="#m7d4a0cefea" y="223.921995"/>
     <use style="fill-opacity:0.75;stroke:#000000;stroke-opacity:0.75;" x="264.091902" xlink:href="#m7d4a0cefea" y="222.550496"/>
     <use style="fill-opacity:0.75;stroke:#000000;stroke-opacity:0.75;" x="264.30141" xlink:href="#m7d4a0cefea" y="221.988547"/>
     <use style="fill-opacity:0.75;stroke:#000000;stroke-opacity:0.75;" x="264.509818" xlink:href="#m7d4a0cefea" y="221.343591"/>
     <use style="fill-opacity:0.75;stroke:#000000;stroke-opacity:0.75;" x="264.717138" xlink:href="#m7d4a0cefea" y="220.511086"/>
     <use style="fill-opacity:0.75;stroke:#000000;stroke-opacity:0.75;" x="264.923381" xlink:href="#m7d4a0cefea" y="219.451125"/>
     <use style="fill-opacity:0.75;stroke:#000000;stroke-opacity:0.75;" x="265.128558" xlink:href="#m7d4a0cefea" y="216.940218"/>
     <use style="fill-opacity:0.75;stroke:#000000;stroke-opacity:0.75;" x="265.33268" xlink:href="#m7d4a0cefea" y="215.374439"/>
     <use style="fill-opacity:0.75;stroke:#000000;stroke-opacity:0.75;" x="265.535758" xlink:href="#m7d4a0cefea" y="212.945636"/>
     <use style="fill-opacity:0.75;stroke:#000000;stroke-opacity:0.75;" x="265.737802" xlink:href="#m7d4a0cefea" y="208.735054"/>
     <use style="fill-opacity:0.75;stroke:#000000;stroke-opacity:0.75;" x="265.938824" xlink:href="#m7d4a0cefea" y="199.145362"/>
     <use style="fill-opacity:0.75;stroke:#000000;stroke-opacity:0.75;" x="266.138833" xlink:href="#m7d4a0cefea" y="168.792648"/>
    </g>
   </g>
   <g id="line2d_45">
    <path clip-path="url(#pe6b07a70de)" d="M 55.985778 17.737735 
L 83.50488 60.660806 
L 99.602523 79.200783 
L 111.023983 89.65791 
L 127.121626 103.388683 
L 133.241665 108.810907 
L 138.543085 113.717593 
L 143.219269 118.241783 
L 151.186231 126.425132 
L 157.818557 133.710797 
L 163.4999 140.271228 
L 170.738371 148.967642 
L 188.27987 170.335265 
L 193.58129 176.411222 
L 198.257473 181.467769 
L 202.440462 185.711641 
L 207.116646 190.127692 
L 211.299634 193.791779 
L 215.798973 197.458254 
L 221.100392 201.469527 
L 226.864361 205.540872 
L 234.192149 210.434452 
L 246.713448 218.480427 
L 254.91638 223.560686 
L 257.72603 225.067103 
L 259.415718 225.741286 
L 260.580073 225.976249 
L 261.48758 225.918145 
L 262.15485 225.654693 
L 262.811091 225.113382 
L 263.456661 224.16507 
L 263.881282 223.206797 
L 264.30141 221.874585 
L 264.717138 219.999999 
L 265.128558 217.243787 
L 265.535758 212.587148 
L 265.737802 208.23561 
L 265.938824 198.802009 
L 266.138833 169.379511 
L 266.138833 169.379511 
" style="fill:none;stroke:#1f77b4;stroke-linecap:square;stroke-opacity:0.75;stroke-width:3;"/>
   </g>
   <g id="patch_3">
    <path d="M 45.478125 237.4 
L 45.478125 7.2 
" style="fill:none;stroke:#000000;stroke-linecap:square;stroke-linejoin:miter;stroke-width:0.8;"/>
   </g>
   <g id="patch_4">
    <path d="M 276.646486 237.4 
L 276.646486 7.2 
" style="fill:none;stroke:#000000;stroke-linecap:square;stroke-linejoin:miter;stroke-width:0.8;"/>
   </g>
   <g id="patch_5">
    <path d="M 45.478125 237.4 
L 276.646486 237.4 
" style="fill:none;stroke:#000000;stroke-linecap:square;stroke-linejoin:miter;stroke-width:0.8;"/>
   </g>
   <g id="patch_6">
    <path d="M 45.478125 7.2 
L 276.646486 7.2 
" style="fill:none;stroke:#000000;stroke-linecap:square;stroke-linejoin:miter;stroke-width:0.8;"/>
   </g>
  </g>
  <g id="axes_2">
   <g id="patch_7">
    <path d="M 329.572266 237.4 
L 560.740626 237.4 
L 560.740626 7.2 
L 329.572266 7.2 
z
" style="fill:#ffffff;"/>
   </g>
   <g id="matplotlib.axis_3">
    <g id="xtick_23">
     <g id="line2d_46">
      <g>
       <use style="stroke:#000000;stroke-width:0.8;" x="340.079918" xlink:href="#mfb76764af2" y="237.4"/>
      </g>
     </g>
     <g id="text_9">
      <!-- $\mathdefault{10^{0}}$ -->
      <g transform="translate(331.279918 251.998437)scale(0.1 -0.1)">
       <use transform="translate(0 0.765625)" xlink:href="#DejaVuSans-49"/>
       <use transform="translate(63.623047 0.765625)" xlink:href="#DejaVuSans-48"/>
       <use transform="translate(128.203125 39.046875)scale(0.7)" xlink:href="#DejaVuSans-48"/>
      </g>
     </g>
    </g>
    <g id="xtick_24">
     <g id="line2d_47">
      <g>
       <use style="stroke:#000000;stroke-width:0.8;" x="378.102186" xlink:href="#mfb76764af2" y="237.4"/>
      </g>
     </g>
     <g id="text_10">
      <!-- $\mathdefault{10^{1}}$ -->
      <g transform="translate(369.302186 251.998437)scale(0.1 -0.1)">
       <use transform="translate(0 0.684375)" xlink:href="#DejaVuSans-49"/>
       <use transform="translate(63.623047 0.684375)" xlink:href="#DejaVuSans-48"/>
       <use transform="translate(128.203125 38.965625)scale(0.7)" xlink:href="#DejaVuSans-49"/>
      </g>
     </g>
    </g>
    <g id="xtick_25">
     <g id="line2d_48">
      <g>
       <use style="stroke:#000000;stroke-width:0.8;" x="416.124455" xlink:href="#mfb76764af2" y="237.4"/>
      </g>
     </g>
     <g id="text_11">
      <!-- $\mathdefault{10^{2}}$ -->
      <g transform="translate(407.324455 251.998437)scale(0.1 -0.1)">
       <use transform="translate(0 0.765625)" xlink:href="#DejaVuSans-49"/>
       <use transform="translate(63.623047 0.765625)" xlink:href="#DejaVuSans-48"/>
       <use transform="translate(128.203125 39.046875)scale(0.7)" xlink:href="#DejaVuSans-50"/>
      </g>
     </g>
    </g>
    <g id="xtick_26">
     <g id="line2d_49">
      <g>
       <use style="stroke:#000000;stroke-width:0.8;" x="454.146723" xlink:href="#mfb76764af2" y="237.4"/>
      </g>
     </g>
     <g id="text_12">
      <!-- $\mathdefault{10^{3}}$ -->
      <defs>
       <path d="M 40.578125 39.3125 
Q 47.65625 37.796875 51.625 33 
Q 55.609375 28.21875 55.609375 21.1875 
Q 55.609375 10.40625 48.1875 4.484375 
Q 40.765625 -1.421875 27.09375 -1.421875 
Q 22.515625 -1.421875 17.65625 -0.515625 
Q 12.796875 0.390625 7.625 2.203125 
L 7.625 11.71875 
Q 11.71875 9.328125 16.59375 8.109375 
Q 21.484375 6.890625 26.8125 6.890625 
Q 36.078125 6.890625 40.9375 10.546875 
Q 45.796875 14.203125 45.796875 21.1875 
Q 45.796875 27.640625 41.28125 31.265625 
Q 36.765625 34.90625 28.71875 34.90625 
L 20.21875 34.90625 
L 20.21875 43.015625 
L 29.109375 43.015625 
Q 36.375 43.015625 40.234375 45.921875 
Q 44.09375 48.828125 44.09375 54.296875 
Q 44.09375 59.90625 40.109375 62.90625 
Q 36.140625 65.921875 28.71875 65.921875 
Q 24.65625 65.921875 20.015625 65.03125 
Q 15.375 64.15625 9.8125 62.3125 
L 9.8125 71.09375 
Q 15.4375 72.65625 20.34375 73.4375 
Q 25.25 74.21875 29.59375 74.21875 
Q 40.828125 74.21875 47.359375 69.109375 
Q 53.90625 64.015625 53.90625 55.328125 
Q 53.90625 49.265625 50.4375 45.09375 
Q 46.96875 40.921875 40.578125 39.3125 
z
" id="DejaVuSans-51"/>
      </defs>
      <g transform="translate(445.346723 251.998437)scale(0.1 -0.1)">
       <use transform="translate(0 0.765625)" xlink:href="#DejaVuSans-49"/>
       <use transform="translate(63.623047 0.765625)" xlink:href="#DejaVuSans-48"/>
       <use transform="translate(128.203125 39.046875)scale(0.7)" xlink:href="#DejaVuSans-51"/>
      </g>
     </g>
    </g>
    <g id="xtick_27">
     <g id="line2d_50">
      <g>
       <use style="stroke:#000000;stroke-width:0.8;" x="492.168991" xlink:href="#mfb76764af2" y="237.4"/>
      </g>
     </g>
     <g id="text_13">
      <!-- $\mathdefault{10^{4}}$ -->
      <g transform="translate(483.368991 251.998437)scale(0.1 -0.1)">
       <use transform="translate(0 0.684375)" xlink:href="#DejaVuSans-49"/>
       <use transform="translate(63.623047 0.684375)" xlink:href="#DejaVuSans-48"/>
       <use transform="translate(128.203125 38.965625)scale(0.7)" xlink:href="#DejaVuSans-52"/>
      </g>
     </g>
    </g>
    <g id="xtick_28">
     <g id="line2d_51">
      <g>
       <use style="stroke:#000000;stroke-width:0.8;" x="530.191259" xlink:href="#mfb76764af2" y="237.4"/>
      </g>
     </g>
     <g id="text_14">
      <!-- $\mathdefault{10^{5}}$ -->
      <g transform="translate(521.391259 251.998437)scale(0.1 -0.1)">
       <use transform="translate(0 0.684375)" xlink:href="#DejaVuSans-49"/>
       <use transform="translate(63.623047 0.684375)" xlink:href="#DejaVuSans-48"/>
       <use transform="translate(128.203125 38.965625)scale(0.7)" xlink:href="#DejaVuSans-53"/>
      </g>
     </g>
    </g>
    <g id="xtick_29">
     <g id="line2d_52">
      <g>
       <use style="stroke:#000000;stroke-width:0.6;" x="331.644726" xlink:href="#m4f68a360ba" y="237.4"/>
      </g>
     </g>
    </g>
    <g id="xtick_30">
     <g id="line2d_53">
      <g>
       <use style="stroke:#000000;stroke-width:0.6;" x="334.190195" xlink:href="#m4f68a360ba" y="237.4"/>
      </g>
     </g>
    </g>
    <g id="xtick_31">
     <g id="line2d_54">
      <g>
       <use style="stroke:#000000;stroke-width:0.6;" x="336.39518" xlink:href="#m4f68a360ba" y="237.4"/>
      </g>
     </g>
    </g>
    <g id="xtick_32">
     <g id="line2d_55">
      <g>
       <use style="stroke:#000000;stroke-width:0.6;" x="338.340115" xlink:href="#m4f68a360ba" y="237.4"/>
      </g>
     </g>
    </g>
    <g id="xtick_33">
     <g id="line2d_56">
      <g>
       <use style="stroke:#000000;stroke-width:0.6;" x="351.525762" xlink:href="#m4f68a360ba" y="237.4"/>
      </g>
     </g>
    </g>
    <g id="xtick_34">
     <g id="line2d_57">
      <g>
       <use style="stroke:#000000;stroke-width:0.6;" x="358.221151" xlink:href="#m4f68a360ba" y="237.4"/>
      </g>
     </g>
    </g>
    <g id="xtick_35">
     <g id="line2d_58">
      <g>
       <use style="stroke:#000000;stroke-width:0.6;" x="362.971605" xlink:href="#m4f68a360ba" y="237.4"/>
      </g>
     </g>
    </g>
    <g id="xtick_36">
     <g id="line2d_59">
      <g>
       <use style="stroke:#000000;stroke-width:0.6;" x="366.656343" xlink:href="#m4f68a360ba" y="237.4"/>
      </g>
     </g>
    </g>
    <g id="xtick_37">
     <g id="line2d_60">
      <g>
       <use style="stroke:#000000;stroke-width:0.6;" x="369.666994" xlink:href="#m4f68a360ba" y="237.4"/>
      </g>
     </g>
    </g>
    <g id="xtick_38">
     <g id="line2d_61">
      <g>
       <use style="stroke:#000000;stroke-width:0.6;" x="372.212463" xlink:href="#m4f68a360ba" y="237.4"/>
      </g>
     </g>
    </g>
    <g id="xtick_39">
     <g id="line2d_62">
      <g>
       <use style="stroke:#000000;stroke-width:0.6;" x="374.417448" xlink:href="#m4f68a360ba" y="237.4"/>
      </g>
     </g>
    </g>
    <g id="xtick_40">
     <g id="line2d_63">
      <g>
       <use style="stroke:#000000;stroke-width:0.6;" x="376.362383" xlink:href="#m4f68a360ba" y="237.4"/>
      </g>
     </g>
    </g>
    <g id="xtick_41">
     <g id="line2d_64">
      <g>
       <use style="stroke:#000000;stroke-width:0.6;" x="389.54803" xlink:href="#m4f68a360ba" y="237.4"/>
      </g>
     </g>
    </g>
    <g id="xtick_42">
     <g id="line2d_65">
      <g>
       <use style="stroke:#000000;stroke-width:0.6;" x="396.243419" xlink:href="#m4f68a360ba" y="237.4"/>
      </g>
     </g>
    </g>
    <g id="xtick_43">
     <g id="line2d_66">
      <g>
       <use style="stroke:#000000;stroke-width:0.6;" x="400.993873" xlink:href="#m4f68a360ba" y="237.4"/>
      </g>
     </g>
    </g>
    <g id="xtick_44">
     <g id="line2d_67">
      <g>
       <use style="stroke:#000000;stroke-width:0.6;" x="404.678611" xlink:href="#m4f68a360ba" y="237.4"/>
      </g>
     </g>
    </g>
    <g id="xtick_45">
     <g id="line2d_68">
      <g>
       <use style="stroke:#000000;stroke-width:0.6;" x="407.689262" xlink:href="#m4f68a360ba" y="237.4"/>
      </g>
     </g>
    </g>
    <g id="xtick_46">
     <g id="line2d_69">
      <g>
       <use style="stroke:#000000;stroke-width:0.6;" x="410.234731" xlink:href="#m4f68a360ba" y="237.4"/>
      </g>
     </g>
    </g>
    <g id="xtick_47">
     <g id="line2d_70">
      <g>
       <use style="stroke:#000000;stroke-width:0.6;" x="412.439716" xlink:href="#m4f68a360ba" y="237.4"/>
      </g>
     </g>
    </g>
    <g id="xtick_48">
     <g id="line2d_71">
      <g>
       <use style="stroke:#000000;stroke-width:0.6;" x="414.384651" xlink:href="#m4f68a360ba" y="237.4"/>
      </g>
     </g>
    </g>
    <g id="xtick_49">
     <g id="line2d_72">
      <g>
       <use style="stroke:#000000;stroke-width:0.6;" x="427.570298" xlink:href="#m4f68a360ba" y="237.4"/>
      </g>
     </g>
    </g>
    <g id="xtick_50">
     <g id="line2d_73">
      <g>
       <use style="stroke:#000000;stroke-width:0.6;" x="434.265687" xlink:href="#m4f68a360ba" y="237.4"/>
      </g>
     </g>
    </g>
    <g id="xtick_51">
     <g id="line2d_74">
      <g>
       <use style="stroke:#000000;stroke-width:0.6;" x="439.016141" xlink:href="#m4f68a360ba" y="237.4"/>
      </g>
     </g>
    </g>
    <g id="xtick_52">
     <g id="line2d_75">
      <g>
       <use style="stroke:#000000;stroke-width:0.6;" x="442.70088" xlink:href="#m4f68a360ba" y="237.4"/>
      </g>
     </g>
    </g>
    <g id="xtick_53">
     <g id="line2d_76">
      <g>
       <use style="stroke:#000000;stroke-width:0.6;" x="445.71153" xlink:href="#m4f68a360ba" y="237.4"/>
      </g>
     </g>
    </g>
    <g id="xtick_54">
     <g id="line2d_77">
      <g>
       <use style="stroke:#000000;stroke-width:0.6;" x="448.256999" xlink:href="#m4f68a360ba" y="237.4"/>
      </g>
     </g>
    </g>
    <g id="xtick_55">
     <g id="line2d_78">
      <g>
       <use style="stroke:#000000;stroke-width:0.6;" x="450.461984" xlink:href="#m4f68a360ba" y="237.4"/>
      </g>
     </g>
    </g>
    <g id="xtick_56">
     <g id="line2d_79">
      <g>
       <use style="stroke:#000000;stroke-width:0.6;" x="452.406919" xlink:href="#m4f68a360ba" y="237.4"/>
      </g>
     </g>
    </g>
    <g id="xtick_57">
     <g id="line2d_80">
      <g>
       <use style="stroke:#000000;stroke-width:0.6;" x="465.592566" xlink:href="#m4f68a360ba" y="237.4"/>
      </g>
     </g>
    </g>
    <g id="xtick_58">
     <g id="line2d_81">
      <g>
       <use style="stroke:#000000;stroke-width:0.6;" x="472.287955" xlink:href="#m4f68a360ba" y="237.4"/>
      </g>
     </g>
    </g>
    <g id="xtick_59">
     <g id="line2d_82">
      <g>
       <use style="stroke:#000000;stroke-width:0.6;" x="477.038409" xlink:href="#m4f68a360ba" y="237.4"/>
      </g>
     </g>
    </g>
    <g id="xtick_60">
     <g id="line2d_83">
      <g>
       <use style="stroke:#000000;stroke-width:0.6;" x="480.723148" xlink:href="#m4f68a360ba" y="237.4"/>
      </g>
     </g>
    </g>
    <g id="xtick_61">
     <g id="line2d_84">
      <g>
       <use style="stroke:#000000;stroke-width:0.6;" x="483.733798" xlink:href="#m4f68a360ba" y="237.4"/>
      </g>
     </g>
    </g>
    <g id="xtick_62">
     <g id="line2d_85">
      <g>
       <use style="stroke:#000000;stroke-width:0.6;" x="486.279267" xlink:href="#m4f68a360ba" y="237.4"/>
      </g>
     </g>
    </g>
    <g id="xtick_63">
     <g id="line2d_86">
      <g>
       <use style="stroke:#000000;stroke-width:0.6;" x="488.484252" xlink:href="#m4f68a360ba" y="237.4"/>
      </g>
     </g>
    </g>
    <g id="xtick_64">
     <g id="line2d_87">
      <g>
       <use style="stroke:#000000;stroke-width:0.6;" x="490.429187" xlink:href="#m4f68a360ba" y="237.4"/>
      </g>
     </g>
    </g>
    <g id="xtick_65">
     <g id="line2d_88">
      <g>
       <use style="stroke:#000000;stroke-width:0.6;" x="503.614834" xlink:href="#m4f68a360ba" y="237.4"/>
      </g>
     </g>
    </g>
    <g id="xtick_66">
     <g id="line2d_89">
      <g>
       <use style="stroke:#000000;stroke-width:0.6;" x="510.310223" xlink:href="#m4f68a360ba" y="237.4"/>
      </g>
     </g>
    </g>
    <g id="xtick_67">
     <g id="line2d_90">
      <g>
       <use style="stroke:#000000;stroke-width:0.6;" x="515.060677" xlink:href="#m4f68a360ba" y="237.4"/>
      </g>
     </g>
    </g>
    <g id="xtick_68">
     <g id="line2d_91">
      <g>
       <use style="stroke:#000000;stroke-width:0.6;" x="518.745416" xlink:href="#m4f68a360ba" y="237.4"/>
      </g>
     </g>
    </g>
    <g id="xtick_69">
     <g id="line2d_92">
      <g>
       <use style="stroke:#000000;stroke-width:0.6;" x="521.756066" xlink:href="#m4f68a360ba" y="237.4"/>
      </g>
     </g>
    </g>
    <g id="xtick_70">
     <g id="line2d_93">
      <g>
       <use style="stroke:#000000;stroke-width:0.6;" x="524.301535" xlink:href="#m4f68a360ba" y="237.4"/>
      </g>
     </g>
    </g>
    <g id="xtick_71">
     <g id="line2d_94">
      <g>
       <use style="stroke:#000000;stroke-width:0.6;" x="526.50652" xlink:href="#m4f68a360ba" y="237.4"/>
      </g>
     </g>
    </g>
    <g id="xtick_72">
     <g id="line2d_95">
      <g>
       <use style="stroke:#000000;stroke-width:0.6;" x="528.451455" xlink:href="#m4f68a360ba" y="237.4"/>
      </g>
     </g>
    </g>
    <g id="xtick_73">
     <g id="line2d_96">
      <g>
       <use style="stroke:#000000;stroke-width:0.6;" x="541.637102" xlink:href="#m4f68a360ba" y="237.4"/>
      </g>
     </g>
    </g>
    <g id="xtick_74">
     <g id="line2d_97">
      <g>
       <use style="stroke:#000000;stroke-width:0.6;" x="548.332491" xlink:href="#m4f68a360ba" y="237.4"/>
      </g>
     </g>
    </g>
    <g id="xtick_75">
     <g id="line2d_98">
      <g>
       <use style="stroke:#000000;stroke-width:0.6;" x="553.082945" xlink:href="#m4f68a360ba" y="237.4"/>
      </g>
     </g>
    </g>
    <g id="xtick_76">
     <g id="line2d_99">
      <g>
       <use style="stroke:#000000;stroke-width:0.6;" x="556.767684" xlink:href="#m4f68a360ba" y="237.4"/>
      </g>
     </g>
    </g>
    <g id="xtick_77">
     <g id="line2d_100">
      <g>
       <use style="stroke:#000000;stroke-width:0.6;" x="559.778334" xlink:href="#m4f68a360ba" y="237.4"/>
      </g>
     </g>
    </g>
    <g id="text_15">
     <!-- $t$ (generations ago) -->
     <defs>
      <path d="M 42.28125 54.6875 
L 40.921875 47.703125 
L 23 47.703125 
L 17.1875 18.015625 
Q 16.890625 16.359375 16.75 15.234375 
Q 16.609375 14.109375 16.609375 13.484375 
Q 16.609375 10.359375 18.484375 8.9375 
Q 20.359375 7.515625 24.515625 7.515625 
L 33.59375 7.515625 
L 32.078125 0 
L 23.484375 0 
Q 15.484375 0 11.546875 3.125 
Q 7.625 6.25 7.625 12.59375 
Q 7.625 13.71875 7.765625 15.0625 
Q 7.90625 16.40625 8.203125 18.015625 
L 14.015625 47.703125 
L 6.390625 47.703125 
L 7.8125 54.6875 
L 15.28125 54.6875 
L 18.3125 70.21875 
L 27.296875 70.21875 
L 24.3125 54.6875 
z
" id="DejaVuSans-Oblique-116"/>
      <path d="M 31 75.875 
Q 24.46875 64.65625 21.28125 53.65625 
Q 18.109375 42.671875 18.109375 31.390625 
Q 18.109375 20.125 21.3125 9.0625 
Q 24.515625 -2 31 -13.1875 
L 23.1875 -13.1875 
Q 15.875 -1.703125 12.234375 9.375 
Q 8.59375 20.453125 8.59375 31.390625 
Q 8.59375 42.28125 12.203125 53.3125 
Q 15.828125 64.359375 23.1875 75.875 
z
" id="DejaVuSans-40"/>
      <path d="M 45.40625 27.984375 
Q 45.40625 37.75 41.375 43.109375 
Q 37.359375 48.484375 30.078125 48.484375 
Q 22.859375 48.484375 18.828125 43.109375 
Q 14.796875 37.75 14.796875 27.984375 
Q 14.796875 18.265625 18.828125 12.890625 
Q 22.859375 7.515625 30.078125 7.515625 
Q 37.359375 7.515625 41.375 12.890625 
Q 45.40625 18.265625 45.40625 27.984375 
z
M 54.390625 6.78125 
Q 54.390625 -7.171875 48.1875 -13.984375 
Q 42 -20.796875 29.203125 -20.796875 
Q 24.46875 -20.796875 20.265625 -20.09375 
Q 16.0625 -19.390625 12.109375 -17.921875 
L 12.109375 -9.1875 
Q 16.0625 -11.328125 19.921875 -12.34375 
Q 23.78125 -13.375 27.78125 -13.375 
Q 36.625 -13.375 41.015625 -8.765625 
Q 45.40625 -4.15625 45.40625 5.171875 
L 45.40625 9.625 
Q 42.625 4.78125 38.28125 2.390625 
Q 33.9375 0 27.875 0 
Q 17.828125 0 11.671875 7.65625 
Q 5.515625 15.328125 5.515625 27.984375 
Q 5.515625 40.671875 11.671875 48.328125 
Q 17.828125 56 27.875 56 
Q 33.9375 56 38.28125 53.609375 
Q 42.625 51.21875 45.40625 46.390625 
L 45.40625 54.6875 
L 54.390625 54.6875 
z
" id="DejaVuSans-103"/>
      <path d="M 8.015625 75.875 
L 15.828125 75.875 
Q 23.140625 64.359375 26.78125 53.3125 
Q 30.421875 42.28125 30.421875 31.390625 
Q 30.421875 20.453125 26.78125 9.375 
Q 23.140625 -1.703125 15.828125 -13.1875 
L 8.015625 -13.1875 
Q 14.5 -2 17.703125 9.0625 
Q 20.90625 20.125 20.90625 31.390625 
Q 20.90625 42.671875 17.703125 53.65625 
Q 14.5 64.65625 8.015625 75.875 
z
" id="DejaVuSans-41"/>
     </defs>
     <g transform="translate(397.006446 265.678125)scale(0.1 -0.1)">
      <use transform="translate(0 0.015625)" xlink:href="#DejaVuSans-Oblique-116"/>
      <use transform="translate(39.208984 0.015625)" xlink:href="#DejaVuSans-32"/>
      <use transform="translate(70.996094 0.015625)" xlink:href="#DejaVuSans-40"/>
      <use transform="translate(110.009766 0.015625)" xlink:href="#DejaVuSans-103"/>
      <use transform="translate(173.486328 0.015625)" xlink:href="#DejaVuSans-101"/>
      <use transform="translate(235.009766 0.015625)" xlink:href="#DejaVuSans-110"/>
      <use transform="translate(298.388672 0.015625)" xlink:href="#DejaVuSans-101"/>
      <use transform="translate(359.912109 0.015625)" xlink:href="#DejaVuSans-114"/>
      <use transform="translate(401.025391 0.015625)" xlink:href="#DejaVuSans-97"/>
      <use transform="translate(462.304688 0.015625)" xlink:href="#DejaVuSans-116"/>
      <use transform="translate(501.513672 0.015625)" xlink:href="#DejaVuSans-105"/>
      <use transform="translate(529.296875 0.015625)" xlink:href="#DejaVuSans-111"/>
      <use transform="translate(590.478516 0.015625)" xlink:href="#DejaVuSans-110"/>
      <use transform="translate(653.857422 0.015625)" xlink:href="#DejaVuSans-115"/>
      <use transform="translate(705.957031 0.015625)" xlink:href="#DejaVuSans-32"/>
      <use transform="translate(737.744141 0.015625)" xlink:href="#DejaVuSans-97"/>
      <use transform="translate(799.023438 0.015625)" xlink:href="#DejaVuSans-103"/>
      <use transform="translate(862.5 0.015625)" xlink:href="#DejaVuSans-111"/>
      <use transform="translate(923.681641 0.015625)" xlink:href="#DejaVuSans-41"/>
     </g>
    </g>
   </g>
   <g id="matplotlib.axis_4">
    <g id="ytick_22">
     <g id="line2d_101">
      <g>
       <use style="stroke:#000000;stroke-width:0.8;" x="329.572266" xlink:href="#me378a0e6be" y="116.69783"/>
      </g>
     </g>
     <g id="text_16">
      <!-- $\mathdefault{10^{4}}$ -->
      <g transform="translate(304.972266 120.497049)scale(0.1 -0.1)">
       <use transform="translate(0 0.684375)" xlink:href="#DejaVuSans-49"/>
       <use transform="translate(63.623047 0.684375)" xlink:href="#DejaVuSans-48"/>
       <use transform="translate(128.203125 38.965625)scale(0.7)" xlink:href="#DejaVuSans-52"/>
      </g>
     </g>
    </g>
    <g id="ytick_23">
     <g id="line2d_102">
      <g>
       <use style="stroke:#000000;stroke-width:0.6;" x="329.572266" xlink:href="#m9e215c19e2" y="222.798701"/>
      </g>
     </g>
    </g>
    <g id="ytick_24">
     <g id="line2d_103">
      <g>
       <use style="stroke:#000000;stroke-width:0.6;" x="329.572266" xlink:href="#m9e215c19e2" y="197.446535"/>
      </g>
     </g>
    </g>
    <g id="ytick_25">
     <g id="line2d_104">
      <g>
       <use style="stroke:#000000;stroke-width:0.6;" x="329.572266" xlink:href="#m9e215c19e2" y="177.781868"/>
      </g>
     </g>
    </g>
    <g id="ytick_26">
     <g id="line2d_105">
      <g>
       <use style="stroke:#000000;stroke-width:0.6;" x="329.572266" xlink:href="#m9e215c19e2" y="161.714664"/>
      </g>
     </g>
    </g>
    <g id="ytick_27">
     <g id="line2d_106">
      <g>
       <use style="stroke:#000000;stroke-width:0.6;" x="329.572266" xlink:href="#m9e215c19e2" y="148.130037"/>
      </g>
     </g>
    </g>
    <g id="ytick_28">
     <g id="line2d_107">
      <g>
       <use style="stroke:#000000;stroke-width:0.6;" x="329.572266" xlink:href="#m9e215c19e2" y="136.362498"/>
      </g>
     </g>
    </g>
    <g id="ytick_29">
     <g id="line2d_108">
      <g>
       <use style="stroke:#000000;stroke-width:0.6;" x="329.572266" xlink:href="#m9e215c19e2" y="125.982793"/>
      </g>
     </g>
    </g>
    <g id="ytick_30">
     <g id="line2d_109">
      <g>
       <use style="stroke:#000000;stroke-width:0.6;" x="329.572266" xlink:href="#m9e215c19e2" y="55.613793"/>
      </g>
     </g>
    </g>
    <g id="ytick_31">
     <g id="line2d_110">
      <g>
       <use style="stroke:#000000;stroke-width:0.6;" x="329.572266" xlink:href="#m9e215c19e2" y="19.881922"/>
      </g>
     </g>
    </g>
    <g id="text_17">
     <!-- $\eta(t)$ -->
     <defs>
      <path d="M 57.859375 33.015625 
L 47.40625 -20.796875 
L 38.421875 -20.796875 
L 48.828125 32.71875 
Q 50.34375 40.484375 48.046875 44.34375 
Q 45.796875 48.1875 39.75 48.1875 
Q 32.46875 48.1875 27.34375 43.5625 
Q 22.265625 38.921875 20.703125 30.90625 
L 14.703125 0 
L 5.671875 0 
L 16.3125 54.6875 
L 25.34375 54.6875 
L 23.6875 46.1875 
Q 27.828125 51.125 32.71875 53.5625 
Q 37.546875 56 43.265625 56 
Q 52.6875 56 56.390625 50.203125 
Q 60.0625 44.34375 57.859375 33.015625 
z
" id="DejaVuSans-Oblique-951"/>
     </defs>
     <g transform="translate(298.872266 131.35)rotate(-90)scale(0.1 -0.1)">
      <use transform="translate(0 0.125)" xlink:href="#DejaVuSans-Oblique-951"/>
      <use transform="translate(63.378906 0.125)" xlink:href="#DejaVuSans-40"/>
      <use transform="translate(102.392578 0.125)" xlink:href="#DejaVuSans-Oblique-116"/>
      <use transform="translate(141.601562 0.125)" xlink:href="#DejaVuSans-41"/>
     </g>
    </g>
   </g>
   <g id="line2d_111">
    <path clip-path="url(#p7305c85451)" d="M -1 24.019584 
L 397.399921 24.019584 
L 398.355254 25.561392 
L 400.265921 34.047249 
L 402.176587 43.574047 
L 404.087254 54.269476 
L 405.997921 66.27689 
L 407.908588 79.757227 
L 409.819254 94.891166 
L 411.729921 111.881552 
L 413.640588 130.956111 
L 415.551255 152.370504 
L 417.461921 176.411752 
L 419.372588 203.402087 
L 420.327921 218.114539 
L 421.283255 225.241315 
L 423.193922 216.737145 
L 425.104588 207.189787 
L 427.015255 196.471277 
L 428.925922 184.43795 
L 430.836588 170.928522 
L 432.747255 155.761923 
L 434.657922 138.734871 
L 436.568589 119.619148 
L 438.479255 98.158542 
L 440.389922 74.065411 
L 442.300589 47.01683 
L 443.255922 32.272628 
L 444.211256 25.866122 
L 446.121922 34.389607 
L 448.032589 43.958648 
L 449.943256 54.701503 
L 451.853923 66.76216 
L 453.764589 80.302271 
L 455.675256 95.503317 
L 457.585923 112.569042 
L 459.49659 131.728181 
L 461.407256 153.237529 
L 463.317923 177.385381 
L 465.22859 204.495396 
L 466.183923 219.273085 
L 467.139257 224.937196 
L 469.049923 216.395064 
L 470.96059 206.805089 
L 472.871257 196.038732 
L 474.781923 183.951691 
L 476.69259 170.381959 
L 478.603257 155.147658 
L 480.513924 138.044599 
L 482.42459 118.843547 
L 484.335257 97.287144 
L 486.245924 73.086465 
L 488.156591 45.917143 
L 489.111924 31.107125 
L 490.067257 26.172038 
L 491.977924 34.733195 
L 493.888591 44.344529 
L 495.799258 55.134864 
L 497.709924 67.248826 
L 499.620591 80.848781 
L 501.531258 96.117012 
L 503.441925 113.258162 
L 505.352591 132.50198 
L 507.263258 154.106393 
L 509.173925 178.360972 
L 511.084592 205.590806 
L 512.039925 220.433809 
L 512.995258 226.936364 
L 530.191259 226.936364 
L 530.191259 226.936364 
" style="fill:none;stroke:#000000;stroke-linecap:square;stroke-width:2;"/>
   </g>
   <g id="line2d_112">
    <path clip-path="url(#p7305c85451)" d="M -1 56.899499 
L 340.079918 56.900461 
L 342.202677 56.998831 
L 344.325435 57.069176 
L 346.448193 57.122291 
L 348.570951 57.176646 
L 350.693709 57.244115 
L 352.816467 57.33566 
L 354.939225 57.453532 
L 357.061983 57.531828 
L 359.184742 57.323217 
L 361.3075 56.320254 
L 363.430258 53.876541 
L 365.553016 49.784936 
L 367.675774 44.24003 
L 369.798532 37.792941 
L 371.92129 31.174962 
L 374.044048 25.60746 
L 376.166807 21.672807 
L 378.289565 19.549403 
L 380.412323 18.796608 
L 382.535081 18.733189 
L 384.657839 18.888093 
L 386.780597 19.040721 
L 388.903355 19.075201 
L 391.026114 18.876879 
L 393.148872 18.422722 
L 395.27163 17.904788 
L 397.394388 17.663636 
L 399.517146 20.24782 
L 401.639904 27.052252 
L 403.762662 38.924202 
L 405.88542 56.214753 
L 408.008179 78.998403 
L 410.130937 106.820266 
L 412.253695 138.483502 
L 414.376453 165.28963 
L 416.499211 185.800978 
L 418.621969 198.900297 
L 420.744727 204.665101 
L 422.867486 204.752117 
L 424.990244 199.600916 
L 427.113002 188.153926 
L 429.23576 170.196162 
L 431.358518 146.380748 
L 433.481276 124.838549 
L 435.604034 106.897333 
L 437.726792 93.674093 
L 439.849551 85.43998 
L 441.972309 81.453743 
L 444.095067 79.930349 
L 446.217825 79.414976 
L 448.340583 79.6517 
L 450.463341 81.649195 
L 452.586099 87.391152 
L 454.708858 98.624946 
L 456.831616 115.662344 
L 458.954374 137.289803 
L 461.077132 161.480059 
L 463.19989 180.362918 
L 465.322648 192.29468 
L 467.445406 197.17398 
L 469.568164 196.770461 
L 471.690923 192.136499 
L 473.813681 183.116404 
L 475.936439 169.960689 
L 478.059197 153.289456 
L 480.181955 137.479694 
L 482.304713 123.592524 
L 484.427471 112.72206 
L 486.55023 105.46266 
L 488.672988 101.676848 
L 490.795746 100.398975 
L 492.918504 100.390377 
L 495.041262 100.814509 
L 497.16402 101.252125 
L 499.286778 101.552087 
L 501.409536 101.699364 
L 503.532295 101.741185 
L 505.655053 101.749775 
L 507.777811 101.807676 
L 509.900569 102.021286 
L 512.023327 102.544506 
L 514.146085 103.558432 
L 516.268843 105.088341 
L 518.391601 106.935064 
L 520.51436 108.78667 
L 522.637118 110.328893 
L 524.759876 111.356642 
L 526.882634 111.857932 
L 529.005392 112.024679 
L 531.12815 112.0304 
L 533.250908 111.981473 
L 535.373667 111.928568 
L 537.496425 111.888865 
L 539.619183 111.861818 
L 541.741941 111.839793 
L 543.864699 111.818928 
L 545.987457 111.81273 
L 548.110215 111.863496 
L 550.232973 112.066514 
" style="fill:none;stroke:#1f77b4;stroke-linecap:square;stroke-opacity:0.75;stroke-width:3;"/>
   </g>
   <g id="patch_8">
    <path d="M 329.572266 237.4 
L 329.572266 7.2 
" style="fill:none;stroke:#000000;stroke-linecap:square;stroke-linejoin:miter;stroke-width:0.8;"/>
   </g>
   <g id="patch_9">
    <path d="M 560.740626 237.4 
L 560.740626 7.2 
" style="fill:none;stroke:#000000;stroke-linecap:square;stroke-linejoin:miter;stroke-width:0.8;"/>
   </g>
   <g id="patch_10">
    <path d="M 329.572266 237.4 
L 560.740626 237.4 
" style="fill:none;stroke:#000000;stroke-linecap:square;stroke-linejoin:miter;stroke-width:0.8;"/>
   </g>
   <g id="patch_11">
    <path d="M 329.572266 7.2 
L 560.740626 7.2 
" style="fill:none;stroke:#000000;stroke-linecap:square;stroke-linejoin:miter;stroke-width:0.8;"/>
   </g>
   <g id="legend_1">
    <g id="patch_12">
     <path d="M 336.572266 232.4 
L 407.684766 232.4 
Q 409.684766 232.4 409.684766 230.4 
L 409.684766 202.04375 
Q 409.684766 200.04375 407.684766 200.04375 
L 336.572266 200.04375 
Q 334.572266 200.04375 334.572266 202.04375 
L 334.572266 230.4 
Q 334.572266 232.4 336.572266 232.4 
z
" style="fill:#ffffff;opacity:0.8;stroke:#cccccc;stroke-linejoin:miter;"/>
    </g>
    <g id="line2d_113">
     <path d="M 338.572266 208.142187 
L 358.572266 208.142187 
" style="fill:none;stroke:#000000;stroke-linecap:square;stroke-width:2;"/>
    </g>
    <g id="line2d_114"/>
    <g id="text_18">
     <!-- true -->
     <g transform="translate(366.572266 211.642187)scale(0.1 -0.1)">
      <use xlink:href="#DejaVuSans-116"/>
      <use x="39.208984" xlink:href="#DejaVuSans-114"/>
      <use x="80.322266" xlink:href="#DejaVuSans-117"/>
      <use x="143.701172" xlink:href="#DejaVuSans-101"/>
     </g>
    </g>
    <g id="line2d_115">
     <path d="M 338.572266 222.820312 
L 358.572266 222.820312 
" style="fill:none;stroke:#1f77b4;stroke-linecap:square;stroke-opacity:0.75;stroke-width:3;"/>
    </g>
    <g id="line2d_116"/>
    <g id="text_19">
     <!-- inferred -->
     <defs>
      <path d="M 45.40625 46.390625 
L 45.40625 75.984375 
L 54.390625 75.984375 
L 54.390625 0 
L 45.40625 0 
L 45.40625 8.203125 
Q 42.578125 3.328125 38.25 0.953125 
Q 33.9375 -1.421875 27.875 -1.421875 
Q 17.96875 -1.421875 11.734375 6.484375 
Q 5.515625 14.40625 5.515625 27.296875 
Q 5.515625 40.1875 11.734375 48.09375 
Q 17.96875 56 27.875 56 
Q 33.9375 56 38.25 53.625 
Q 42.578125 51.265625 45.40625 46.390625 
z
M 14.796875 27.296875 
Q 14.796875 17.390625 18.875 11.75 
Q 22.953125 6.109375 30.078125 6.109375 
Q 37.203125 6.109375 41.296875 11.75 
Q 45.40625 17.390625 45.40625 27.296875 
Q 45.40625 37.203125 41.296875 42.84375 
Q 37.203125 48.484375 30.078125 48.484375 
Q 22.953125 48.484375 18.875 42.84375 
Q 14.796875 37.203125 14.796875 27.296875 
z
" id="DejaVuSans-100"/>
     </defs>
     <g transform="translate(366.572266 226.320312)scale(0.1 -0.1)">
      <use xlink:href="#DejaVuSans-105"/>
      <use x="27.783203" xlink:href="#DejaVuSans-110"/>
      <use x="91.162109" xlink:href="#DejaVuSans-102"/>
      <use x="126.367188" xlink:href="#DejaVuSans-101"/>
      <use x="187.890625" xlink:href="#DejaVuSans-114"/>
      <use x="227.253906" xlink:href="#DejaVuSans-114"/>
      <use x="266.117188" xlink:href="#DejaVuSans-101"/>
      <use x="327.640625" xlink:href="#DejaVuSans-100"/>
     </g>
    </g>
   </g>
  </g>
 </g>
 <defs>
  <clipPath id="pe6b07a70de">
   <rect height="230.2" width="231.168361" x="45.478125" y="7.2"/>
  </clipPath>
  <clipPath id="p7305c85451">
   <rect height="230.2" width="231.168361" x="329.572266" y="7.2"/>
  </clipPath>
 </defs>
</svg>
