<?xml version="1.0" encoding="utf-8" standalone="no"?>
<!DOCTYPE svg PUBLIC "-//W3C//DTD SVG 1.1//EN"
  "http://www.w3.org/Graphics/SVG/1.1/DTD/svg11.dtd">
<!-- Created with matplotlib (https://matplotlib.org/) -->
<svg height="332.578125pt" version="1.1" viewBox="0 0 452.752345 332.578125" width="452.752345pt" xmlns="http://www.w3.org/2000/svg" xmlns:xlink="http://www.w3.org/1999/xlink">
 <defs>
  <style type="text/css">
*{stroke-linecap:butt;stroke-linejoin:round;}
  </style>
 </defs>
 <g id="figure_1">
  <g id="patch_1">
   <path d="M 0 332.578125 
L 452.752345 332.578125 
L 452.752345 0 
L 0 0 
z
" style="fill:#ffffff;"/>
  </g>
  <g id="axes_1">
   <g id="patch_2">
    <path d="M 45.478125 295 
L 209.809412 295 
L 209.809412 7.2 
L 45.478125 7.2 
z
" style="fill:#ffffff;"/>
   </g>
   <g id="PolyCollection_1">
    <path clip-path="url(#p7764577e35)" d="M 52.947729 20.281818 
L 52.947729 20.631309 
L 75.433477 75.890492 
L 88.586797 98.782378 
L 97.919226 111.271515 
L 105.15802 119.818879 
L 111.072545 126.487227 
L 116.073206 132.06963 
L 120.404974 136.937722 
L 124.225865 141.295272 
L 127.643768 145.267943 
L 130.735638 148.936811 
L 133.558294 152.358352 
L 136.154886 155.573844 
L 138.558954 158.613816 
L 140.797088 161.500855 
L 142.890723 164.252391 
L 144.85739 166.881647 
L 146.711614 169.401757 
L 148.465558 171.820077 
L 150.129517 174.145481 
L 151.712274 176.38427 
L 153.221387 178.542106 
L 154.663405 180.623638 
L 156.044042 182.633579 
L 157.368311 184.575034 
L 158.640634 186.450645 
L 159.864933 188.264002 
L 161.044702 190.019672 
L 162.183068 191.718196 
L 163.282837 193.360618 
L 164.346541 194.95203 
L 165.376471 196.494794 
L 166.374706 197.986296 
L 167.343139 199.433408 
L 168.283497 200.834275 
L 169.197362 202.193027 
L 170.086187 203.508353 
L 170.951307 204.783141 
L 171.793954 206.020702 
L 172.615265 207.218405 
L 173.416296 208.380069 
L 174.198022 209.507742 
L 174.961353 210.599273 
L 175.707135 211.657039 
L 176.436156 212.683695 
L 177.149154 213.67748 
L 177.846817 214.643763 
L 178.529791 215.578666 
L 179.198682 216.483065 
L 179.85406 217.360453 
L 180.496458 218.212069 
L 181.126382 219.03674 
L 181.744307 219.835867 
L 182.350682 220.608376 
L 182.945929 221.358469 
L 183.530451 222.082593 
L 184.104627 222.785172 
L 184.668816 223.465416 
L 185.223361 224.122542 
L 185.768585 224.758553 
L 186.304797 225.372763 
L 186.832289 225.967321 
L 187.351342 226.541636 
L 187.86222 227.09512 
L 188.365177 227.630101 
L 188.860455 228.146083 
L 189.348285 228.645526 
L 189.828887 229.122075 
L 190.302473 229.584173 
L 190.769245 230.028475 
L 191.229396 230.454592 
L 191.68311 230.865198 
L 192.130567 231.256912 
L 192.571935 231.635551 
L 193.007379 231.994665 
L 193.437055 232.340157 
L 193.861115 232.668665 
L 194.279702 232.979922 
L 194.692957 233.280004 
L 195.101014 233.562389 
L 195.504001 233.830035 
L 195.902044 234.082755 
L 196.295262 234.323586 
L 196.683771 234.545938 
L 197.067681 234.756095 
L 197.447102 234.953936 
L 197.822136 235.13609 
L 198.192883 235.302423 
L 198.559442 235.45936 
L 198.921905 235.60027 
L 199.280362 235.725048 
L 199.634902 235.840188 
L 199.985609 235.93904 
L 200.332565 236.024833 
L 200.675849 236.097516 
L 201.015539 236.157043 
L 201.351709 236.20338 
L 201.684431 236.236498 
L 202.013774 236.256377 
L 202.339808 281.918182 
L 202.339808 279.36212 
L 202.339808 279.36212 
L 202.013774 234.445947 
L 201.684431 234.426612 
L 201.351709 234.394399 
L 201.015539 234.349327 
L 200.675849 234.288209 
L 200.332565 234.217511 
L 199.985609 234.13085 
L 199.634902 234.034695 
L 199.280362 233.922692 
L 198.921905 233.798115 
L 198.559442 233.657851 
L 198.192883 233.505179 
L 197.822136 233.340186 
L 197.447102 233.159805 
L 197.067681 232.967317 
L 196.683771 232.759688 
L 196.295262 232.537064 
L 195.902044 232.302718 
L 195.504001 232.053673 
L 195.101014 231.787005 
L 194.692957 231.509094 
L 194.279702 231.213954 
L 193.861115 230.904875 
L 193.437055 230.58206 
L 193.007379 230.242697 
L 192.571935 229.887051 
L 192.130567 229.515397 
L 191.68311 229.125046 
L 191.229396 228.722249 
L 190.769245 228.301382 
L 190.302473 227.862809 
L 189.828887 227.406901 
L 189.348285 226.93404 
L 188.860455 226.444615 
L 188.365177 225.933362 
L 187.86222 225.406432 
L 187.351342 224.858666 
L 186.832289 224.29338 
L 186.304797 223.705595 
L 185.768585 223.098667 
L 185.223361 222.47049 
L 184.668816 221.821726 
L 184.104627 221.150413 
L 183.530451 220.457304 
L 182.945929 219.740587 
L 182.350682 219.00111 
L 181.744307 218.237212 
L 181.126382 217.447352 
L 180.496458 216.63257 
L 179.85406 215.793904 
L 179.198682 214.925222 
L 178.529791 214.030204 
L 177.846817 213.105428 
L 177.149154 212.15231 
L 176.436156 211.170008 
L 175.707135 210.15558 
L 174.961353 209.108542 
L 174.198022 208.028535 
L 173.416296 206.915328 
L 172.615265 205.766736 
L 171.793954 204.580841 
L 170.951307 203.357999 
L 170.086187 202.096714 
L 169.197362 200.795756 
L 168.283497 199.450381 
L 167.343139 198.063803 
L 166.374706 196.633749 
L 165.376471 195.15658 
L 164.346541 193.629214 
L 163.282837 192.054171 
L 162.183068 190.427448 
L 161.044702 188.745728 
L 159.864933 187.007934 
L 158.640634 185.210448 
L 157.368311 183.351931 
L 156.044042 181.428795 
L 154.663405 179.438377 
L 153.221387 177.374862 
L 151.712274 175.236404 
L 150.129517 173.017088 
L 148.465558 170.711385 
L 146.711614 168.313128 
L 144.85739 165.813604 
L 142.890723 163.205581 
L 140.797088 160.476124 
L 138.558954 157.611192 
L 136.154886 154.59465 
L 133.558294 151.402358 
L 130.735638 148.005241 
L 127.643768 144.361757 
L 124.225865 140.416998 
L 120.404974 136.087887 
L 116.073206 131.250584 
L 111.072545 125.702562 
L 105.15802 119.073034 
L 97.919226 110.572665 
L 88.586797 98.147407 
L 75.433477 75.357351 
L 52.947729 20.281818 
z
" style="fill:#1f77b4;"/>
   </g>
   <g id="matplotlib.axis_1">
    <g id="xtick_1">
     <g id="line2d_1">
      <defs>
       <path d="M 0 0 
L 0 3.5 
" id="mfe3dc29104" style="stroke:#000000;stroke-width:0.8;"/>
      </defs>
      <g>
       <use style="stroke:#000000;stroke-width:0.8;" x="52.947729" xlink:href="#mfe3dc29104" y="295"/>
      </g>
     </g>
     <g id="text_1">
      <!-- $\mathdefault{10^{0}}$ -->
      <defs>
       <path d="M 12.40625 8.296875 
L 28.515625 8.296875 
L 28.515625 63.921875 
L 10.984375 60.40625 
L 10.984375 69.390625 
L 28.421875 72.90625 
L 38.28125 72.90625 
L 38.28125 8.296875 
L 54.390625 8.296875 
L 54.390625 0 
L 12.40625 0 
z
" id="DejaVuSans-49"/>
       <path d="M 31.78125 66.40625 
Q 24.171875 66.40625 20.328125 58.90625 
Q 16.5 51.421875 16.5 36.375 
Q 16.5 21.390625 20.328125 13.890625 
Q 24.171875 6.390625 31.78125 6.390625 
Q 39.453125 6.390625 43.28125 13.890625 
Q 47.125 21.390625 47.125 36.375 
Q 47.125 51.421875 43.28125 58.90625 
Q 39.453125 66.40625 31.78125 66.40625 
z
M 31.78125 74.21875 
Q 44.046875 74.21875 50.515625 64.515625 
Q 56.984375 54.828125 56.984375 36.375 
Q 56.984375 17.96875 50.515625 8.265625 
Q 44.046875 -1.421875 31.78125 -1.421875 
Q 19.53125 -1.421875 13.0625 8.265625 
Q 6.59375 17.96875 6.59375 36.375 
Q 6.59375 54.828125 13.0625 64.515625 
Q 19.53125 74.21875 31.78125 74.21875 
z
" id="DejaVuSans-48"/>
      </defs>
      <g transform="translate(44.147729 309.598437)scale(0.1 -0.1)">
       <use transform="translate(0 0.765625)" xlink:href="#DejaVuSans-49"/>
       <use transform="translate(63.623047 0.765625)" xlink:href="#DejaVuSans-48"/>
       <use transform="translate(128.203125 39.046875)scale(0.7)" xlink:href="#DejaVuSans-48"/>
      </g>
     </g>
    </g>
    <g id="xtick_2">
     <g id="line2d_2">
      <g>
       <use style="stroke:#000000;stroke-width:0.8;" x="127.643768" xlink:href="#mfe3dc29104" y="295"/>
      </g>
     </g>
     <g id="text_2">
      <!-- $\mathdefault{10^{1}}$ -->
      <g transform="translate(118.843768 309.598437)scale(0.1 -0.1)">
       <use transform="translate(0 0.684375)" xlink:href="#DejaVuSans-49"/>
       <use transform="translate(63.623047 0.684375)" xlink:href="#DejaVuSans-48"/>
       <use transform="translate(128.203125 38.965625)scale(0.7)" xlink:href="#DejaVuSans-49"/>
      </g>
     </g>
    </g>
    <g id="xtick_3">
     <g id="line2d_3">
      <g>
       <use style="stroke:#000000;stroke-width:0.8;" x="202.339808" xlink:href="#mfe3dc29104" y="295"/>
      </g>
     </g>
     <g id="text_3">
      <!-- $\mathdefault{10^{2}}$ -->
      <defs>
       <path d="M 19.1875 8.296875 
L 53.609375 8.296875 
L 53.609375 0 
L 7.328125 0 
L 7.328125 8.296875 
Q 12.9375 14.109375 22.625 23.890625 
Q 32.328125 33.6875 34.8125 36.53125 
Q 39.546875 41.84375 41.421875 45.53125 
Q 43.3125 49.21875 43.3125 52.78125 
Q 43.3125 58.59375 39.234375 62.25 
Q 35.15625 65.921875 28.609375 65.921875 
Q 23.96875 65.921875 18.8125 64.3125 
Q 13.671875 62.703125 7.8125 59.421875 
L 7.8125 69.390625 
Q 13.765625 71.78125 18.9375 73 
Q 24.125 74.21875 28.421875 74.21875 
Q 39.75 74.21875 46.484375 68.546875 
Q 53.21875 62.890625 53.21875 53.421875 
Q 53.21875 48.921875 51.53125 44.890625 
Q 49.859375 40.875 45.40625 35.40625 
Q 44.1875 33.984375 37.640625 27.21875 
Q 31.109375 20.453125 19.1875 8.296875 
z
" id="DejaVuSans-50"/>
      </defs>
      <g transform="translate(193.539808 309.598437)scale(0.1 -0.1)">
       <use transform="translate(0 0.765625)" xlink:href="#DejaVuSans-49"/>
       <use transform="translate(63.623047 0.765625)" xlink:href="#DejaVuSans-48"/>
       <use transform="translate(128.203125 39.046875)scale(0.7)" xlink:href="#DejaVuSans-50"/>
      </g>
     </g>
    </g>
    <g id="xtick_4">
     <g id="line2d_4">
      <defs>
       <path d="M 0 0 
L 0 2 
" id="m3be3c3d023" style="stroke:#000000;stroke-width:0.6;"/>
      </defs>
      <g>
       <use style="stroke:#000000;stroke-width:0.6;" x="45.708935" xlink:href="#m3be3c3d023" y="295"/>
      </g>
     </g>
    </g>
    <g id="xtick_5">
     <g id="line2d_5">
      <g>
       <use style="stroke:#000000;stroke-width:0.6;" x="49.529826" xlink:href="#m3be3c3d023" y="295"/>
      </g>
     </g>
    </g>
    <g id="xtick_6">
     <g id="line2d_6">
      <g>
       <use style="stroke:#000000;stroke-width:0.6;" x="75.433477" xlink:href="#m3be3c3d023" y="295"/>
      </g>
     </g>
    </g>
    <g id="xtick_7">
     <g id="line2d_7">
      <g>
       <use style="stroke:#000000;stroke-width:0.6;" x="88.586797" xlink:href="#m3be3c3d023" y="295"/>
      </g>
     </g>
    </g>
    <g id="xtick_8">
     <g id="line2d_8">
      <g>
       <use style="stroke:#000000;stroke-width:0.6;" x="97.919226" xlink:href="#m3be3c3d023" y="295"/>
      </g>
     </g>
    </g>
    <g id="xtick_9">
     <g id="line2d_9">
      <g>
       <use style="stroke:#000000;stroke-width:0.6;" x="105.15802" xlink:href="#m3be3c3d023" y="295"/>
      </g>
     </g>
    </g>
    <g id="xtick_10">
     <g id="line2d_10">
      <g>
       <use style="stroke:#000000;stroke-width:0.6;" x="111.072545" xlink:href="#m3be3c3d023" y="295"/>
      </g>
     </g>
    </g>
    <g id="xtick_11">
     <g id="line2d_11">
      <g>
       <use style="stroke:#000000;stroke-width:0.6;" x="116.073206" xlink:href="#m3be3c3d023" y="295"/>
      </g>
     </g>
    </g>
    <g id="xtick_12">
     <g id="line2d_12">
      <g>
       <use style="stroke:#000000;stroke-width:0.6;" x="120.404974" xlink:href="#m3be3c3d023" y="295"/>
      </g>
     </g>
    </g>
    <g id="xtick_13">
     <g id="line2d_13">
      <g>
       <use style="stroke:#000000;stroke-width:0.6;" x="124.225865" xlink:href="#m3be3c3d023" y="295"/>
      </g>
     </g>
    </g>
    <g id="xtick_14">
     <g id="line2d_14">
      <g>
       <use style="stroke:#000000;stroke-width:0.6;" x="150.129517" xlink:href="#m3be3c3d023" y="295"/>
      </g>
     </g>
    </g>
    <g id="xtick_15">
     <g id="line2d_15">
      <g>
       <use style="stroke:#000000;stroke-width:0.6;" x="163.282837" xlink:href="#m3be3c3d023" y="295"/>
      </g>
     </g>
    </g>
    <g id="xtick_16">
     <g id="line2d_16">
      <g>
       <use style="stroke:#000000;stroke-width:0.6;" x="172.615265" xlink:href="#m3be3c3d023" y="295"/>
      </g>
     </g>
    </g>
    <g id="xtick_17">
     <g id="line2d_17">
      <g>
       <use style="stroke:#000000;stroke-width:0.6;" x="179.85406" xlink:href="#m3be3c3d023" y="295"/>
      </g>
     </g>
    </g>
    <g id="xtick_18">
     <g id="line2d_18">
      <g>
       <use style="stroke:#000000;stroke-width:0.6;" x="185.768585" xlink:href="#m3be3c3d023" y="295"/>
      </g>
     </g>
    </g>
    <g id="xtick_19">
     <g id="line2d_19">
      <g>
       <use style="stroke:#000000;stroke-width:0.6;" x="190.769245" xlink:href="#m3be3c3d023" y="295"/>
      </g>
     </g>
    </g>
    <g id="xtick_20">
     <g id="line2d_20">
      <g>
       <use style="stroke:#000000;stroke-width:0.6;" x="195.101014" xlink:href="#m3be3c3d023" y="295"/>
      </g>
     </g>
    </g>
    <g id="xtick_21">
     <g id="line2d_21">
      <g>
       <use style="stroke:#000000;stroke-width:0.6;" x="198.921905" xlink:href="#m3be3c3d023" y="295"/>
      </g>
     </g>
    </g>
    <g id="text_4">
     <!-- sample frequency -->
     <defs>
      <path d="M 44.28125 53.078125 
L 44.28125 44.578125 
Q 40.484375 46.53125 36.375 47.5 
Q 32.28125 48.484375 27.875 48.484375 
Q 21.1875 48.484375 17.84375 46.4375 
Q 14.5 44.390625 14.5 40.28125 
Q 14.5 37.15625 16.890625 35.375 
Q 19.28125 33.59375 26.515625 31.984375 
L 29.59375 31.296875 
Q 39.15625 29.25 43.1875 25.515625 
Q 47.21875 21.78125 47.21875 15.09375 
Q 47.21875 7.46875 41.1875 3.015625 
Q 35.15625 -1.421875 24.609375 -1.421875 
Q 20.21875 -1.421875 15.453125 -0.5625 
Q 10.6875 0.296875 5.421875 2 
L 5.421875 11.28125 
Q 10.40625 8.6875 15.234375 7.390625 
Q 20.0625 6.109375 24.8125 6.109375 
Q 31.15625 6.109375 34.5625 8.28125 
Q 37.984375 10.453125 37.984375 14.40625 
Q 37.984375 18.0625 35.515625 20.015625 
Q 33.0625 21.96875 24.703125 23.78125 
L 21.578125 24.515625 
Q 13.234375 26.265625 9.515625 29.90625 
Q 5.8125 33.546875 5.8125 39.890625 
Q 5.8125 47.609375 11.28125 51.796875 
Q 16.75 56 26.8125 56 
Q 31.78125 56 36.171875 55.265625 
Q 40.578125 54.546875 44.28125 53.078125 
z
" id="DejaVuSans-115"/>
      <path d="M 34.28125 27.484375 
Q 23.390625 27.484375 19.1875 25 
Q 14.984375 22.515625 14.984375 16.5 
Q 14.984375 11.71875 18.140625 8.90625 
Q 21.296875 6.109375 26.703125 6.109375 
Q 34.1875 6.109375 38.703125 11.40625 
Q 43.21875 16.703125 43.21875 25.484375 
L 43.21875 27.484375 
z
M 52.203125 31.203125 
L 52.203125 0 
L 43.21875 0 
L 43.21875 8.296875 
Q 40.140625 3.328125 35.546875 0.953125 
Q 30.953125 -1.421875 24.3125 -1.421875 
Q 15.921875 -1.421875 10.953125 3.296875 
Q 6 8.015625 6 15.921875 
Q 6 25.140625 12.171875 29.828125 
Q 18.359375 34.515625 30.609375 34.515625 
L 43.21875 34.515625 
L 43.21875 35.40625 
Q 43.21875 41.609375 39.140625 45 
Q 35.0625 48.390625 27.6875 48.390625 
Q 23 48.390625 18.546875 47.265625 
Q 14.109375 46.140625 10.015625 43.890625 
L 10.015625 52.203125 
Q 14.9375 54.109375 19.578125 55.046875 
Q 24.21875 56 28.609375 56 
Q 40.484375 56 46.34375 49.84375 
Q 52.203125 43.703125 52.203125 31.203125 
z
" id="DejaVuSans-97"/>
      <path d="M 52 44.1875 
Q 55.375 50.25 60.0625 53.125 
Q 64.75 56 71.09375 56 
Q 79.640625 56 84.28125 50.015625 
Q 88.921875 44.046875 88.921875 33.015625 
L 88.921875 0 
L 79.890625 0 
L 79.890625 32.71875 
Q 79.890625 40.578125 77.09375 44.375 
Q 74.3125 48.1875 68.609375 48.1875 
Q 61.625 48.1875 57.5625 43.546875 
Q 53.515625 38.921875 53.515625 30.90625 
L 53.515625 0 
L 44.484375 0 
L 44.484375 32.71875 
Q 44.484375 40.625 41.703125 44.40625 
Q 38.921875 48.1875 33.109375 48.1875 
Q 26.21875 48.1875 22.15625 43.53125 
Q 18.109375 38.875 18.109375 30.90625 
L 18.109375 0 
L 9.078125 0 
L 9.078125 54.6875 
L 18.109375 54.6875 
L 18.109375 46.1875 
Q 21.1875 51.21875 25.484375 53.609375 
Q 29.78125 56 35.6875 56 
Q 41.65625 56 45.828125 52.96875 
Q 50 49.953125 52 44.1875 
z
" id="DejaVuSans-109"/>
      <path d="M 18.109375 8.203125 
L 18.109375 -20.796875 
L 9.078125 -20.796875 
L 9.078125 54.6875 
L 18.109375 54.6875 
L 18.109375 46.390625 
Q 20.953125 51.265625 25.265625 53.625 
Q 29.59375 56 35.59375 56 
Q 45.5625 56 51.78125 48.09375 
Q 58.015625 40.1875 58.015625 27.296875 
Q 58.015625 14.40625 51.78125 6.484375 
Q 45.5625 -1.421875 35.59375 -1.421875 
Q 29.59375 -1.421875 25.265625 0.953125 
Q 20.953125 3.328125 18.109375 8.203125 
z
M 48.6875 27.296875 
Q 48.6875 37.203125 44.609375 42.84375 
Q 40.53125 48.484375 33.40625 48.484375 
Q 26.265625 48.484375 22.1875 42.84375 
Q 18.109375 37.203125 18.109375 27.296875 
Q 18.109375 17.390625 22.1875 11.75 
Q 26.265625 6.109375 33.40625 6.109375 
Q 40.53125 6.109375 44.609375 11.75 
Q 48.6875 17.390625 48.6875 27.296875 
z
" id="DejaVuSans-112"/>
      <path d="M 9.421875 75.984375 
L 18.40625 75.984375 
L 18.40625 0 
L 9.421875 0 
z
" id="DejaVuSans-108"/>
      <path d="M 56.203125 29.59375 
L 56.203125 25.203125 
L 14.890625 25.203125 
Q 15.484375 15.921875 20.484375 11.0625 
Q 25.484375 6.203125 34.421875 6.203125 
Q 39.59375 6.203125 44.453125 7.46875 
Q 49.3125 8.734375 54.109375 11.28125 
L 54.109375 2.78125 
Q 49.265625 0.734375 44.1875 -0.34375 
Q 39.109375 -1.421875 33.890625 -1.421875 
Q 20.796875 -1.421875 13.15625 6.1875 
Q 5.515625 13.8125 5.515625 26.8125 
Q 5.515625 40.234375 12.765625 48.109375 
Q 20.015625 56 32.328125 56 
Q 43.359375 56 49.78125 48.890625 
Q 56.203125 41.796875 56.203125 29.59375 
z
M 47.21875 32.234375 
Q 47.125 39.59375 43.09375 43.984375 
Q 39.0625 48.390625 32.421875 48.390625 
Q 24.90625 48.390625 20.390625 44.140625 
Q 15.875 39.890625 15.1875 32.171875 
z
" id="DejaVuSans-101"/>
      <path id="DejaVuSans-32"/>
      <path d="M 37.109375 75.984375 
L 37.109375 68.5 
L 28.515625 68.5 
Q 23.6875 68.5 21.796875 66.546875 
Q 19.921875 64.59375 19.921875 59.515625 
L 19.921875 54.6875 
L 34.71875 54.6875 
L 34.71875 47.703125 
L 19.921875 47.703125 
L 19.921875 0 
L 10.890625 0 
L 10.890625 47.703125 
L 2.296875 47.703125 
L 2.296875 54.6875 
L 10.890625 54.6875 
L 10.890625 58.5 
Q 10.890625 67.625 15.140625 71.796875 
Q 19.390625 75.984375 28.609375 75.984375 
z
" id="DejaVuSans-102"/>
      <path d="M 41.109375 46.296875 
Q 39.59375 47.171875 37.8125 47.578125 
Q 36.03125 48 33.890625 48 
Q 26.265625 48 22.1875 43.046875 
Q 18.109375 38.09375 18.109375 28.8125 
L 18.109375 0 
L 9.078125 0 
L 9.078125 54.6875 
L 18.109375 54.6875 
L 18.109375 46.1875 
Q 20.953125 51.171875 25.484375 53.578125 
Q 30.03125 56 36.53125 56 
Q 37.453125 56 38.578125 55.875 
Q 39.703125 55.765625 41.0625 55.515625 
z
" id="DejaVuSans-114"/>
      <path d="M 14.796875 27.296875 
Q 14.796875 17.390625 18.875 11.75 
Q 22.953125 6.109375 30.078125 6.109375 
Q 37.203125 6.109375 41.296875 11.75 
Q 45.40625 17.390625 45.40625 27.296875 
Q 45.40625 37.203125 41.296875 42.84375 
Q 37.203125 48.484375 30.078125 48.484375 
Q 22.953125 48.484375 18.875 42.84375 
Q 14.796875 37.203125 14.796875 27.296875 
z
M 45.40625 8.203125 
Q 42.578125 3.328125 38.25 0.953125 
Q 33.9375 -1.421875 27.875 -1.421875 
Q 17.96875 -1.421875 11.734375 6.484375 
Q 5.515625 14.40625 5.515625 27.296875 
Q 5.515625 40.1875 11.734375 48.09375 
Q 17.96875 56 27.875 56 
Q 33.9375 56 38.25 53.625 
Q 42.578125 51.265625 45.40625 46.390625 
L 45.40625 54.6875 
L 54.390625 54.6875 
L 54.390625 -20.796875 
L 45.40625 -20.796875 
z
" id="DejaVuSans-113"/>
      <path d="M 8.5 21.578125 
L 8.5 54.6875 
L 17.484375 54.6875 
L 17.484375 21.921875 
Q 17.484375 14.15625 20.5 10.265625 
Q 23.53125 6.390625 29.59375 6.390625 
Q 36.859375 6.390625 41.078125 11.03125 
Q 45.3125 15.671875 45.3125 23.6875 
L 45.3125 54.6875 
L 54.296875 54.6875 
L 54.296875 0 
L 45.3125 0 
L 45.3125 8.40625 
Q 42.046875 3.421875 37.71875 1 
Q 33.40625 -1.421875 27.6875 -1.421875 
Q 18.265625 -1.421875 13.375 4.4375 
Q 8.5 10.296875 8.5 21.578125 
z
M 31.109375 56 
z
" id="DejaVuSans-117"/>
      <path d="M 54.890625 33.015625 
L 54.890625 0 
L 45.90625 0 
L 45.90625 32.71875 
Q 45.90625 40.484375 42.875 44.328125 
Q 39.84375 48.1875 33.796875 48.1875 
Q 26.515625 48.1875 22.3125 43.546875 
Q 18.109375 38.921875 18.109375 30.90625 
L 18.109375 0 
L 9.078125 0 
L 9.078125 54.6875 
L 18.109375 54.6875 
L 18.109375 46.1875 
Q 21.34375 51.125 25.703125 53.5625 
Q 30.078125 56 35.796875 56 
Q 45.21875 56 50.046875 50.171875 
Q 54.890625 44.34375 54.890625 33.015625 
z
" id="DejaVuSans-110"/>
      <path d="M 48.78125 52.59375 
L 48.78125 44.1875 
Q 44.96875 46.296875 41.140625 47.34375 
Q 37.3125 48.390625 33.40625 48.390625 
Q 24.65625 48.390625 19.8125 42.84375 
Q 14.984375 37.3125 14.984375 27.296875 
Q 14.984375 17.28125 19.8125 11.734375 
Q 24.65625 6.203125 33.40625 6.203125 
Q 37.3125 6.203125 41.140625 7.25 
Q 44.96875 8.296875 48.78125 10.40625 
L 48.78125 2.09375 
Q 45.015625 0.34375 40.984375 -0.53125 
Q 36.96875 -1.421875 32.421875 -1.421875 
Q 20.0625 -1.421875 12.78125 6.34375 
Q 5.515625 14.109375 5.515625 27.296875 
Q 5.515625 40.671875 12.859375 48.328125 
Q 20.21875 56 33.015625 56 
Q 37.15625 56 41.109375 55.140625 
Q 45.0625 54.296875 48.78125 52.59375 
z
" id="DejaVuSans-99"/>
      <path d="M 32.171875 -5.078125 
Q 28.375 -14.84375 24.75 -17.8125 
Q 21.140625 -20.796875 15.09375 -20.796875 
L 7.90625 -20.796875 
L 7.90625 -13.28125 
L 13.1875 -13.28125 
Q 16.890625 -13.28125 18.9375 -11.515625 
Q 21 -9.765625 23.484375 -3.21875 
L 25.09375 0.875 
L 2.984375 54.6875 
L 12.5 54.6875 
L 29.59375 11.921875 
L 46.6875 54.6875 
L 56.203125 54.6875 
z
" id="DejaVuSans-121"/>
     </defs>
     <g transform="translate(82.799237 323.276562)scale(0.1 -0.1)">
      <use xlink:href="#DejaVuSans-115"/>
      <use x="52.099609" xlink:href="#DejaVuSans-97"/>
      <use x="113.378906" xlink:href="#DejaVuSans-109"/>
      <use x="210.791016" xlink:href="#DejaVuSans-112"/>
      <use x="274.267578" xlink:href="#DejaVuSans-108"/>
      <use x="302.050781" xlink:href="#DejaVuSans-101"/>
      <use x="363.574219" xlink:href="#DejaVuSans-32"/>
      <use x="395.361328" xlink:href="#DejaVuSans-102"/>
      <use x="430.566406" xlink:href="#DejaVuSans-114"/>
      <use x="469.429688" xlink:href="#DejaVuSans-101"/>
      <use x="530.953125" xlink:href="#DejaVuSans-113"/>
      <use x="594.429688" xlink:href="#DejaVuSans-117"/>
      <use x="657.808594" xlink:href="#DejaVuSans-101"/>
      <use x="719.332031" xlink:href="#DejaVuSans-110"/>
      <use x="782.710938" xlink:href="#DejaVuSans-99"/>
      <use x="837.691406" xlink:href="#DejaVuSans-121"/>
     </g>
    </g>
   </g>
   <g id="matplotlib.axis_2">
    <g id="ytick_1">
     <g id="line2d_22">
      <defs>
       <path d="M 0 0 
L -3.5 0 
" id="m365eb04ba2" style="stroke:#000000;stroke-width:0.8;"/>
      </defs>
      <g>
       <use style="stroke:#000000;stroke-width:0.8;" x="45.478125" xlink:href="#m365eb04ba2" y="280.578643"/>
      </g>
     </g>
     <g id="text_5">
      <!-- $\mathdefault{10^{4}}$ -->
      <defs>
       <path d="M 37.796875 64.3125 
L 12.890625 25.390625 
L 37.796875 25.390625 
z
M 35.203125 72.90625 
L 47.609375 72.90625 
L 47.609375 25.390625 
L 58.015625 25.390625 
L 58.015625 17.1875 
L 47.609375 17.1875 
L 47.609375 0 
L 37.796875 0 
L 37.796875 17.1875 
L 4.890625 17.1875 
L 4.890625 26.703125 
z
" id="DejaVuSans-52"/>
      </defs>
      <g transform="translate(20.878125 284.377862)scale(0.1 -0.1)">
       <use transform="translate(0 0.684375)" xlink:href="#DejaVuSans-49"/>
       <use transform="translate(63.623047 0.684375)" xlink:href="#DejaVuSans-48"/>
       <use transform="translate(128.203125 38.965625)scale(0.7)" xlink:href="#DejaVuSans-52"/>
      </g>
     </g>
    </g>
    <g id="ytick_2">
     <g id="line2d_23">
      <g>
       <use style="stroke:#000000;stroke-width:0.8;" x="45.478125" xlink:href="#m365eb04ba2" y="130.185144"/>
      </g>
     </g>
     <g id="text_6">
      <!-- $\mathdefault{10^{5}}$ -->
      <defs>
       <path d="M 10.796875 72.90625 
L 49.515625 72.90625 
L 49.515625 64.59375 
L 19.828125 64.59375 
L 19.828125 46.734375 
Q 21.96875 47.46875 24.109375 47.828125 
Q 26.265625 48.1875 28.421875 48.1875 
Q 40.625 48.1875 47.75 41.5 
Q 54.890625 34.8125 54.890625 23.390625 
Q 54.890625 11.625 47.5625 5.09375 
Q 40.234375 -1.421875 26.90625 -1.421875 
Q 22.3125 -1.421875 17.546875 -0.640625 
Q 12.796875 0.140625 7.71875 1.703125 
L 7.71875 11.625 
Q 12.109375 9.234375 16.796875 8.0625 
Q 21.484375 6.890625 26.703125 6.890625 
Q 35.15625 6.890625 40.078125 11.328125 
Q 45.015625 15.765625 45.015625 23.390625 
Q 45.015625 31 40.078125 35.4375 
Q 35.15625 39.890625 26.703125 39.890625 
Q 22.75 39.890625 18.8125 39.015625 
Q 14.890625 38.140625 10.796875 36.28125 
z
" id="DejaVuSans-53"/>
      </defs>
      <g transform="translate(20.878125 133.984362)scale(0.1 -0.1)">
       <use transform="translate(0 0.684375)" xlink:href="#DejaVuSans-49"/>
       <use transform="translate(63.623047 0.684375)" xlink:href="#DejaVuSans-48"/>
       <use transform="translate(128.203125 38.965625)scale(0.7)" xlink:href="#DejaVuSans-53"/>
      </g>
     </g>
    </g>
    <g id="ytick_3">
     <g id="line2d_24">
      <defs>
       <path d="M 0 0 
L -2 0 
" id="m234e8263d5" style="stroke:#000000;stroke-width:0.6;"/>
      </defs>
      <g>
       <use style="stroke:#000000;stroke-width:0.6;" x="45.478125" xlink:href="#m234e8263d5" y="287.460272"/>
      </g>
     </g>
    </g>
    <g id="ytick_4">
     <g id="line2d_25">
      <g>
       <use style="stroke:#000000;stroke-width:0.6;" x="45.478125" xlink:href="#m234e8263d5" y="235.305689"/>
      </g>
     </g>
    </g>
    <g id="ytick_5">
     <g id="line2d_26">
      <g>
       <use style="stroke:#000000;stroke-width:0.6;" x="45.478125" xlink:href="#m234e8263d5" y="208.822708"/>
      </g>
     </g>
    </g>
    <g id="ytick_6">
     <g id="line2d_27">
      <g>
       <use style="stroke:#000000;stroke-width:0.6;" x="45.478125" xlink:href="#m234e8263d5" y="190.032734"/>
      </g>
     </g>
    </g>
    <g id="ytick_7">
     <g id="line2d_28">
      <g>
       <use style="stroke:#000000;stroke-width:0.6;" x="45.478125" xlink:href="#m234e8263d5" y="175.458098"/>
      </g>
     </g>
    </g>
    <g id="ytick_8">
     <g id="line2d_29">
      <g>
       <use style="stroke:#000000;stroke-width:0.6;" x="45.478125" xlink:href="#m234e8263d5" y="163.549754"/>
      </g>
     </g>
    </g>
    <g id="ytick_9">
     <g id="line2d_30">
      <g>
       <use style="stroke:#000000;stroke-width:0.6;" x="45.478125" xlink:href="#m234e8263d5" y="153.481392"/>
      </g>
     </g>
    </g>
    <g id="ytick_10">
     <g id="line2d_31">
      <g>
       <use style="stroke:#000000;stroke-width:0.6;" x="45.478125" xlink:href="#m234e8263d5" y="144.75978"/>
      </g>
     </g>
    </g>
    <g id="ytick_11">
     <g id="line2d_32">
      <g>
       <use style="stroke:#000000;stroke-width:0.6;" x="45.478125" xlink:href="#m234e8263d5" y="137.066773"/>
      </g>
     </g>
    </g>
    <g id="ytick_12">
     <g id="line2d_33">
      <g>
       <use style="stroke:#000000;stroke-width:0.6;" x="45.478125" xlink:href="#m234e8263d5" y="84.912189"/>
      </g>
     </g>
    </g>
    <g id="ytick_13">
     <g id="line2d_34">
      <g>
       <use style="stroke:#000000;stroke-width:0.6;" x="45.478125" xlink:href="#m234e8263d5" y="58.429209"/>
      </g>
     </g>
    </g>
    <g id="ytick_14">
     <g id="line2d_35">
      <g>
       <use style="stroke:#000000;stroke-width:0.6;" x="45.478125" xlink:href="#m234e8263d5" y="39.639235"/>
      </g>
     </g>
    </g>
    <g id="ytick_15">
     <g id="line2d_36">
      <g>
       <use style="stroke:#000000;stroke-width:0.6;" x="45.478125" xlink:href="#m234e8263d5" y="25.064599"/>
      </g>
     </g>
    </g>
    <g id="ytick_16">
     <g id="line2d_37">
      <g>
       <use style="stroke:#000000;stroke-width:0.6;" x="45.478125" xlink:href="#m234e8263d5" y="13.156254"/>
      </g>
     </g>
    </g>
    <g id="text_7">
     <!-- variant count -->
     <defs>
      <path d="M 2.984375 54.6875 
L 12.5 54.6875 
L 29.59375 8.796875 
L 46.6875 54.6875 
L 56.203125 54.6875 
L 35.6875 0 
L 23.484375 0 
z
" id="DejaVuSans-118"/>
      <path d="M 9.421875 54.6875 
L 18.40625 54.6875 
L 18.40625 0 
L 9.421875 0 
z
M 9.421875 75.984375 
L 18.40625 75.984375 
L 18.40625 64.59375 
L 9.421875 64.59375 
z
" id="DejaVuSans-105"/>
      <path d="M 18.3125 70.21875 
L 18.3125 54.6875 
L 36.8125 54.6875 
L 36.8125 47.703125 
L 18.3125 47.703125 
L 18.3125 18.015625 
Q 18.3125 11.328125 20.140625 9.421875 
Q 21.96875 7.515625 27.59375 7.515625 
L 36.8125 7.515625 
L 36.8125 0 
L 27.59375 0 
Q 17.1875 0 13.234375 3.875 
Q 9.28125 7.765625 9.28125 18.015625 
L 9.28125 47.703125 
L 2.6875 47.703125 
L 2.6875 54.6875 
L 9.28125 54.6875 
L 9.28125 70.21875 
z
" id="DejaVuSans-116"/>
      <path d="M 30.609375 48.390625 
Q 23.390625 48.390625 19.1875 42.75 
Q 14.984375 37.109375 14.984375 27.296875 
Q 14.984375 17.484375 19.15625 11.84375 
Q 23.34375 6.203125 30.609375 6.203125 
Q 37.796875 6.203125 41.984375 11.859375 
Q 46.1875 17.53125 46.1875 27.296875 
Q 46.1875 37.015625 41.984375 42.703125 
Q 37.796875 48.390625 30.609375 48.390625 
z
M 30.609375 56 
Q 42.328125 56 49.015625 48.375 
Q 55.71875 40.765625 55.71875 27.296875 
Q 55.71875 13.875 49.015625 6.21875 
Q 42.328125 -1.421875 30.609375 -1.421875 
Q 18.84375 -1.421875 12.171875 6.21875 
Q 5.515625 13.875 5.515625 27.296875 
Q 5.515625 40.765625 12.171875 48.375 
Q 18.84375 56 30.609375 56 
z
" id="DejaVuSans-111"/>
     </defs>
     <g transform="translate(14.798438 184.45625)rotate(-90)scale(0.1 -0.1)">
      <use xlink:href="#DejaVuSans-118"/>
      <use x="59.179688" xlink:href="#DejaVuSans-97"/>
      <use x="120.458984" xlink:href="#DejaVuSans-114"/>
      <use x="161.572266" xlink:href="#DejaVuSans-105"/>
      <use x="189.355469" xlink:href="#DejaVuSans-97"/>
      <use x="250.634766" xlink:href="#DejaVuSans-110"/>
      <use x="314.013672" xlink:href="#DejaVuSans-116"/>
      <use x="353.222656" xlink:href="#DejaVuSans-32"/>
      <use x="385.009766" xlink:href="#DejaVuSans-99"/>
      <use x="439.990234" xlink:href="#DejaVuSans-111"/>
      <use x="501.171875" xlink:href="#DejaVuSans-117"/>
      <use x="564.550781" xlink:href="#DejaVuSans-110"/>
      <use x="627.929688" xlink:href="#DejaVuSans-116"/>
     </g>
    </g>
   </g>
   <g id="line2d_38">
    <defs>
     <path d="M 0 1.5 
C 0.397805 1.5 0.77937 1.341951 1.06066 1.06066 
C 1.341951 0.77937 1.5 0.397805 1.5 0 
C 1.5 -0.397805 1.341951 -0.77937 1.06066 -1.06066 
C 0.77937 -1.341951 0.397805 -1.5 0 -1.5 
C -0.397805 -1.5 -0.77937 -1.341951 -1.06066 -1.06066 
C -1.341951 -0.77937 -1.5 -0.397805 -1.5 0 
C -1.5 0.397805 -1.341951 0.77937 -1.06066 1.06066 
C -0.77937 1.341951 -0.397805 1.5 0 1.5 
z
" id="mb08579e596" style="stroke:#1f77b4;"/>
    </defs>
    <g clip-path="url(#p7764577e35)">
     <use style="fill:#1f77b4;stroke:#1f77b4;" x="52.947729" xlink:href="#mb08579e596" y="20.432901"/>
     <use style="fill:#1f77b4;stroke:#1f77b4;" x="75.433477" xlink:href="#mb08579e596" y="75.69764"/>
     <use style="fill:#1f77b4;stroke:#1f77b4;" x="88.586797" xlink:href="#mb08579e596" y="98.636754"/>
     <use style="fill:#1f77b4;stroke:#1f77b4;" x="97.919226" xlink:href="#mb08579e596" y="110.973456"/>
     <use style="fill:#1f77b4;stroke:#1f77b4;" x="105.15802" xlink:href="#mb08579e596" y="119.363488"/>
     <use style="fill:#1f77b4;stroke:#1f77b4;" x="111.072545" xlink:href="#mb08579e596" y="126.17014"/>
     <use style="fill:#1f77b4;stroke:#1f77b4;" x="116.073206" xlink:href="#mb08579e596" y="131.579373"/>
     <use style="fill:#1f77b4;stroke:#1f77b4;" x="120.404974" xlink:href="#mb08579e596" y="136.606116"/>
     <use style="fill:#1f77b4;stroke:#1f77b4;" x="124.225865" xlink:href="#mb08579e596" y="140.762437"/>
     <use style="fill:#1f77b4;stroke:#1f77b4;" x="127.643768" xlink:href="#mb08579e596" y="144.345529"/>
     <use style="fill:#1f77b4;stroke:#1f77b4;" x="130.735638" xlink:href="#mb08579e596" y="148.747348"/>
     <use style="fill:#1f77b4;stroke:#1f77b4;" x="133.558294" xlink:href="#mb08579e596" y="152.041781"/>
     <use style="fill:#1f77b4;stroke:#1f77b4;" x="136.154886" xlink:href="#mb08579e596" y="155.379517"/>
     <use style="fill:#1f77b4;stroke:#1f77b4;" x="138.558954" xlink:href="#mb08579e596" y="157.427565"/>
     <use style="fill:#1f77b4;stroke:#1f77b4;" x="140.797088" xlink:href="#mb08579e596" y="160.874058"/>
     <use style="fill:#1f77b4;stroke:#1f77b4;" x="142.890723" xlink:href="#mb08579e596" y="163.431205"/>
     <use style="fill:#1f77b4;stroke:#1f77b4;" x="144.85739" xlink:href="#mb08579e596" y="166.353396"/>
     <use style="fill:#1f77b4;stroke:#1f77b4;" x="146.711614" xlink:href="#mb08579e596" y="169.120188"/>
     <use style="fill:#1f77b4;stroke:#1f77b4;" x="148.465558" xlink:href="#mb08579e596" y="170.710171"/>
     <use style="fill:#1f77b4;stroke:#1f77b4;" x="150.129517" xlink:href="#mb08579e596" y="173.866968"/>
     <use style="fill:#1f77b4;stroke:#1f77b4;" x="151.712274" xlink:href="#mb08579e596" y="176.214895"/>
     <use style="fill:#1f77b4;stroke:#1f77b4;" x="153.221387" xlink:href="#mb08579e596" y="178.045515"/>
     <use style="fill:#1f77b4;stroke:#1f77b4;" x="154.663405" xlink:href="#mb08579e596" y="179.977903"/>
     <use style="fill:#1f77b4;stroke:#1f77b4;" x="156.044042" xlink:href="#mb08579e596" y="181.957665"/>
     <use style="fill:#1f77b4;stroke:#1f77b4;" x="157.368311" xlink:href="#mb08579e596" y="184.445991"/>
     <use style="fill:#1f77b4;stroke:#1f77b4;" x="158.640634" xlink:href="#mb08579e596" y="185.648714"/>
     <use style="fill:#1f77b4;stroke:#1f77b4;" x="159.864933" xlink:href="#mb08579e596" y="188.407191"/>
     <use style="fill:#1f77b4;stroke:#1f77b4;" x="161.044702" xlink:href="#mb08579e596" y="189.384444"/>
     <use style="fill:#1f77b4;stroke:#1f77b4;" x="162.183068" xlink:href="#mb08579e596" y="190.741974"/>
     <use style="fill:#1f77b4;stroke:#1f77b4;" x="163.282837" xlink:href="#mb08579e596" y="192.173859"/>
     <use style="fill:#1f77b4;stroke:#1f77b4;" x="164.346541" xlink:href="#mb08579e596" y="194.821874"/>
     <use style="fill:#1f77b4;stroke:#1f77b4;" x="165.376471" xlink:href="#mb08579e596" y="195.983038"/>
     <use style="fill:#1f77b4;stroke:#1f77b4;" x="166.374706" xlink:href="#mb08579e596" y="196.707859"/>
     <use style="fill:#1f77b4;stroke:#1f77b4;" x="167.343139" xlink:href="#mb08579e596" y="198.372902"/>
     <use style="fill:#1f77b4;stroke:#1f77b4;" x="168.283497" xlink:href="#mb08579e596" y="199.929326"/>
     <use style="fill:#1f77b4;stroke:#1f77b4;" x="169.197362" xlink:href="#mb08579e596" y="201.368173"/>
     <use style="fill:#1f77b4;stroke:#1f77b4;" x="170.086187" xlink:href="#mb08579e596" y="203.068291"/>
     <use style="fill:#1f77b4;stroke:#1f77b4;" x="170.951307" xlink:href="#mb08579e596" y="203.943319"/>
     <use style="fill:#1f77b4;stroke:#1f77b4;" x="171.793954" xlink:href="#mb08579e596" y="205.302993"/>
     <use style="fill:#1f77b4;stroke:#1f77b4;" x="172.615265" xlink:href="#mb08579e596" y="206.849811"/>
     <use style="fill:#1f77b4;stroke:#1f77b4;" x="173.416296" xlink:href="#mb08579e596" y="207.685301"/>
     <use style="fill:#1f77b4;stroke:#1f77b4;" x="174.198022" xlink:href="#mb08579e596" y="209.038604"/>
     <use style="fill:#1f77b4;stroke:#1f77b4;" x="174.961353" xlink:href="#mb08579e596" y="209.244259"/>
     <use style="fill:#1f77b4;stroke:#1f77b4;" x="175.707135" xlink:href="#mb08579e596" y="210.95596"/>
     <use style="fill:#1f77b4;stroke:#1f77b4;" x="176.436156" xlink:href="#mb08579e596" y="211.393818"/>
     <use style="fill:#1f77b4;stroke:#1f77b4;" x="177.149154" xlink:href="#mb08579e596" y="212.71835"/>
     <use style="fill:#1f77b4;stroke:#1f77b4;" x="177.846817" xlink:href="#mb08579e596" y="214.082098"/>
     <use style="fill:#1f77b4;stroke:#1f77b4;" x="178.529791" xlink:href="#mb08579e596" y="213.957152"/>
     <use style="fill:#1f77b4;stroke:#1f77b4;" x="179.198682" xlink:href="#mb08579e596" y="216.177769"/>
     <use style="fill:#1f77b4;stroke:#1f77b4;" x="179.85406" xlink:href="#mb08579e596" y="216.458589"/>
     <use style="fill:#1f77b4;stroke:#1f77b4;" x="180.496458" xlink:href="#mb08579e596" y="217.063385"/>
     <use style="fill:#1f77b4;stroke:#1f77b4;" x="181.126382" xlink:href="#mb08579e596" y="218.036342"/>
     <use style="fill:#1f77b4;stroke:#1f77b4;" x="181.744307" xlink:href="#mb08579e596" y="219.27903"/>
     <use style="fill:#1f77b4;stroke:#1f77b4;" x="182.350682" xlink:href="#mb08579e596" y="220.27544"/>
     <use style="fill:#1f77b4;stroke:#1f77b4;" x="182.945929" xlink:href="#mb08579e596" y="220.751957"/>
     <use style="fill:#1f77b4;stroke:#1f77b4;" x="183.530451" xlink:href="#mb08579e596" y="221.226711"/>
     <use style="fill:#1f77b4;stroke:#1f77b4;" x="184.104627" xlink:href="#mb08579e596" y="221.84564"/>
     <use style="fill:#1f77b4;stroke:#1f77b4;" x="184.668816" xlink:href="#mb08579e596" y="222.376649"/>
     <use style="fill:#1f77b4;stroke:#1f77b4;" x="185.223361" xlink:href="#mb08579e596" y="223.049923"/>
     <use style="fill:#1f77b4;stroke:#1f77b4;" x="185.768585" xlink:href="#mb08579e596" y="223.727474"/>
     <use style="fill:#1f77b4;stroke:#1f77b4;" x="186.304797" xlink:href="#mb08579e596" y="225.510354"/>
     <use style="fill:#1f77b4;stroke:#1f77b4;" x="186.832289" xlink:href="#mb08579e596" y="226.185648"/>
     <use style="fill:#1f77b4;stroke:#1f77b4;" x="187.351342" xlink:href="#mb08579e596" y="225.597551"/>
     <use style="fill:#1f77b4;stroke:#1f77b4;" x="187.86222" xlink:href="#mb08579e596" y="226.131707"/>
     <use style="fill:#1f77b4;stroke:#1f77b4;" x="188.365177" xlink:href="#mb08579e596" y="227.545949"/>
     <use style="fill:#1f77b4;stroke:#1f77b4;" x="188.860455" xlink:href="#mb08579e596" y="227.508261"/>
     <use style="fill:#1f77b4;stroke:#1f77b4;" x="189.348285" xlink:href="#mb08579e596" y="227.90945"/>
     <use style="fill:#1f77b4;stroke:#1f77b4;" x="189.828887" xlink:href="#mb08579e596" y="228.342467"/>
     <use style="fill:#1f77b4;stroke:#1f77b4;" x="190.302473" xlink:href="#mb08579e596" y="229.086436"/>
     <use style="fill:#1f77b4;stroke:#1f77b4;" x="190.769245" xlink:href="#mb08579e596" y="229.148818"/>
     <use style="fill:#1f77b4;stroke:#1f77b4;" x="191.229396" xlink:href="#mb08579e596" y="229.926138"/>
     <use style="fill:#1f77b4;stroke:#1f77b4;" x="191.68311" xlink:href="#mb08579e596" y="230.621565"/>
     <use style="fill:#1f77b4;stroke:#1f77b4;" x="192.130567" xlink:href="#mb08579e596" y="230.203421"/>
     <use style="fill:#1f77b4;stroke:#1f77b4;" x="192.571935" xlink:href="#mb08579e596" y="230.636765"/>
     <use style="fill:#1f77b4;stroke:#1f77b4;" x="193.007379" xlink:href="#mb08579e596" y="231.250774"/>
     <use style="fill:#1f77b4;stroke:#1f77b4;" x="193.437055" xlink:href="#mb08579e596" y="231.128122"/>
     <use style="fill:#1f77b4;stroke:#1f77b4;" x="193.861115" xlink:href="#mb08579e596" y="232.050566"/>
     <use style="fill:#1f77b4;stroke:#1f77b4;" x="194.279702" xlink:href="#mb08579e596" y="232.066103"/>
     <use style="fill:#1f77b4;stroke:#1f77b4;" x="194.692957" xlink:href="#mb08579e596" y="232.365128"/>
     <use style="fill:#1f77b4;stroke:#1f77b4;" x="195.101014" xlink:href="#mb08579e596" y="232.791104"/>
     <use style="fill:#1f77b4;stroke:#1f77b4;" x="195.504001" xlink:href="#mb08579e596" y="233.33068"/>
     <use style="fill:#1f77b4;stroke:#1f77b4;" x="195.902044" xlink:href="#mb08579e596" y="233.229367"/>
     <use style="fill:#1f77b4;stroke:#1f77b4;" x="196.295262" xlink:href="#mb08579e596" y="233.492472"/>
     <use style="fill:#1f77b4;stroke:#1f77b4;" x="196.683771" xlink:href="#mb08579e596" y="232.995681"/>
     <use style="fill:#1f77b4;stroke:#1f77b4;" x="197.067681" xlink:href="#mb08579e596" y="233.042983"/>
     <use style="fill:#1f77b4;stroke:#1f77b4;" x="197.447102" xlink:href="#mb08579e596" y="233.67059"/>
     <use style="fill:#1f77b4;stroke:#1f77b4;" x="197.822136" xlink:href="#mb08579e596" y="233.610103"/>
     <use style="fill:#1f77b4;stroke:#1f77b4;" x="198.192883" xlink:href="#mb08579e596" y="233.727946"/>
     <use style="fill:#1f77b4;stroke:#1f77b4;" x="198.559442" xlink:href="#mb08579e596" y="234.526573"/>
     <use style="fill:#1f77b4;stroke:#1f77b4;" x="198.921905" xlink:href="#mb08579e596" y="234.659016"/>
     <use style="fill:#1f77b4;stroke:#1f77b4;" x="199.280362" xlink:href="#mb08579e596" y="234.005876"/>
     <use style="fill:#1f77b4;stroke:#1f77b4;" x="199.634902" xlink:href="#mb08579e596" y="235.669197"/>
     <use style="fill:#1f77b4;stroke:#1f77b4;" x="199.985609" xlink:href="#mb08579e596" y="235.061215"/>
     <use style="fill:#1f77b4;stroke:#1f77b4;" x="200.332565" xlink:href="#mb08579e596" y="235.426633"/>
     <use style="fill:#1f77b4;stroke:#1f77b4;" x="200.675849" xlink:href="#mb08579e596" y="234.957184"/>
     <use style="fill:#1f77b4;stroke:#1f77b4;" x="201.015539" xlink:href="#mb08579e596" y="235.613393"/>
     <use style="fill:#1f77b4;stroke:#1f77b4;" x="201.351709" xlink:href="#mb08579e596" y="235.685619"/>
     <use style="fill:#1f77b4;stroke:#1f77b4;" x="201.684431" xlink:href="#mb08579e596" y="235.126319"/>
     <use style="fill:#1f77b4;stroke:#1f77b4;" x="202.013774" xlink:href="#mb08579e596" y="235.259984"/>
     <use style="fill:#1f77b4;stroke:#1f77b4;" x="202.339808" xlink:href="#mb08579e596" y="279.831806"/>
    </g>
   </g>
   <g id="line2d_39">
    <path clip-path="url(#p7764577e35)" d="M 52.947729 20.456417 
L 75.433477 75.623613 
L 88.586797 98.464234 
L 97.919226 110.921481 
L 105.15802 119.445025 
L 111.072545 126.094011 
L 116.073206 131.659354 
L 120.404974 136.51186 
L 124.225865 140.855134 
L 127.643768 144.813734 
L 130.735638 148.469536 
L 133.558294 151.879119 
L 136.154886 155.083076 
L 138.558954 158.111425 
L 140.797088 160.986942 
L 142.890723 163.727291 
L 144.85739 166.346456 
L 146.711614 168.855707 
L 148.465558 171.264281 
L 150.129517 173.579867 
L 151.712274 175.808959 
L 153.221387 177.957114 
L 154.663405 180.029147 
L 156.044042 182.02928 
L 157.368311 183.961253 
L 158.640634 185.828408 
L 159.864933 187.633765 
L 161.044702 189.380067 
L 162.183068 191.069829 
L 163.282837 192.705367 
L 164.346541 194.28883 
L 165.376471 195.822217 
L 166.374706 197.307401 
L 167.343139 198.746138 
L 168.283497 200.140084 
L 169.197362 201.490802 
L 170.086187 202.799772 
L 170.951307 204.068398 
L 171.793954 205.298015 
L 172.615265 206.489891 
L 173.416296 207.645238 
L 174.198022 208.765208 
L 174.961353 209.850903 
L 175.707135 210.903373 
L 176.436156 211.923624 
L 177.149154 212.912615 
L 177.846817 213.871266 
L 178.529791 214.800454 
L 179.198682 215.701019 
L 179.85406 216.573766 
L 180.496458 217.419464 
L 181.126382 218.238848 
L 181.744307 219.032623 
L 182.350682 219.801461 
L 182.945929 220.546008 
L 183.530451 221.26688 
L 184.104627 221.964666 
L 184.668816 222.63993 
L 185.223361 223.293211 
L 185.768585 223.925024 
L 186.304797 224.535862 
L 186.832289 225.126194 
L 187.351342 225.696471 
L 187.86222 226.247122 
L 188.365177 226.778555 
L 188.860455 227.291163 
L 189.348285 227.785318 
L 189.828887 228.261376 
L 190.302473 228.719675 
L 190.769245 229.160539 
L 191.229396 229.584275 
L 191.68311 229.991176 
L 192.130567 230.38152 
L 192.571935 230.75557 
L 193.007379 231.113578 
L 193.437055 231.455782 
L 193.861115 231.782408 
L 194.279702 232.093668 
L 194.692957 232.389765 
L 195.101014 232.670888 
L 195.504001 232.937217 
L 195.902044 233.188921 
L 196.295262 233.426158 
L 196.683771 233.649077 
L 197.067681 233.857814 
L 197.447102 234.052501 
L 197.822136 234.233255 
L 198.192883 234.400188 
L 198.559442 234.5534 
L 198.921905 234.692985 
L 199.280362 234.819026 
L 199.634902 234.931599 
L 199.985609 235.030771 
L 200.332565 235.116602 
L 200.675849 235.189142 
L 201.015539 235.248434 
L 201.351709 235.294515 
L 201.684431 235.32741 
L 202.013774 235.347139 
L 202.339808 280.630916 
" style="fill:none;stroke:#ff7f0e;stroke-linecap:square;stroke-width:1.5;"/>
   </g>
   <g id="patch_3">
    <path d="M 45.478125 295 
L 45.478125 7.2 
" style="fill:none;stroke:#000000;stroke-linecap:square;stroke-linejoin:miter;stroke-width:0.8;"/>
   </g>
   <g id="patch_4">
    <path d="M 209.809412 295 
L 209.809412 7.2 
" style="fill:none;stroke:#000000;stroke-linecap:square;stroke-linejoin:miter;stroke-width:0.8;"/>
   </g>
   <g id="patch_5">
    <path d="M 45.478125 295 
L 209.809412 295 
" style="fill:none;stroke:#000000;stroke-linecap:square;stroke-linejoin:miter;stroke-width:0.8;"/>
   </g>
   <g id="patch_6">
    <path d="M 45.478125 7.2 
L 209.809412 7.2 
" style="fill:none;stroke:#000000;stroke-linecap:square;stroke-linejoin:miter;stroke-width:0.8;"/>
   </g>
  </g>
  <g id="axes_2">
   <g id="patch_7">
    <path d="M 281.221058 295 
L 445.552345 295 
L 445.552345 7.2 
L 281.221058 7.2 
z
" style="fill:#ffffff;"/>
   </g>
   <g id="matplotlib.axis_3">
    <g id="xtick_22">
     <g id="line2d_40">
      <g>
       <use style="stroke:#000000;stroke-width:0.8;" x="315.973479" xlink:href="#mfe3dc29104" y="295"/>
      </g>
     </g>
     <g id="text_8">
      <!-- $\mathdefault{10^{1}}$ -->
      <g transform="translate(307.173479 309.598437)scale(0.1 -0.1)">
       <use transform="translate(0 0.684375)" xlink:href="#DejaVuSans-49"/>
       <use transform="translate(63.623047 0.684375)" xlink:href="#DejaVuSans-48"/>
       <use transform="translate(128.203125 38.965625)scale(0.7)" xlink:href="#DejaVuSans-49"/>
      </g>
     </g>
    </g>
    <g id="xtick_23">
     <g id="line2d_41">
      <g>
       <use style="stroke:#000000;stroke-width:0.8;" x="370.539113" xlink:href="#mfe3dc29104" y="295"/>
      </g>
     </g>
     <g id="text_9">
      <!-- $\mathdefault{10^{3}}$ -->
      <defs>
       <path d="M 40.578125 39.3125 
Q 47.65625 37.796875 51.625 33 
Q 55.609375 28.21875 55.609375 21.1875 
Q 55.609375 10.40625 48.1875 4.484375 
Q 40.765625 -1.421875 27.09375 -1.421875 
Q 22.515625 -1.421875 17.65625 -0.515625 
Q 12.796875 0.390625 7.625 2.203125 
L 7.625 11.71875 
Q 11.71875 9.328125 16.59375 8.109375 
Q 21.484375 6.890625 26.8125 6.890625 
Q 36.078125 6.890625 40.9375 10.546875 
Q 45.796875 14.203125 45.796875 21.1875 
Q 45.796875 27.640625 41.28125 31.265625 
Q 36.765625 34.90625 28.71875 34.90625 
L 20.21875 34.90625 
L 20.21875 43.015625 
L 29.109375 43.015625 
Q 36.375 43.015625 40.234375 45.921875 
Q 44.09375 48.828125 44.09375 54.296875 
Q 44.09375 59.90625 40.109375 62.90625 
Q 36.140625 65.921875 28.71875 65.921875 
Q 24.65625 65.921875 20.015625 65.03125 
Q 15.375 64.15625 9.8125 62.3125 
L 9.8125 71.09375 
Q 15.4375 72.65625 20.34375 73.4375 
Q 25.25 74.21875 29.59375 74.21875 
Q 40.828125 74.21875 47.359375 69.109375 
Q 53.90625 64.015625 53.90625 55.328125 
Q 53.90625 49.265625 50.4375 45.09375 
Q 46.96875 40.921875 40.578125 39.3125 
z
" id="DejaVuSans-51"/>
      </defs>
      <g transform="translate(361.739113 309.598437)scale(0.1 -0.1)">
       <use transform="translate(0 0.765625)" xlink:href="#DejaVuSans-49"/>
       <use transform="translate(63.623047 0.765625)" xlink:href="#DejaVuSans-48"/>
       <use transform="translate(128.203125 39.046875)scale(0.7)" xlink:href="#DejaVuSans-51"/>
      </g>
     </g>
    </g>
    <g id="xtick_24">
     <g id="line2d_42">
      <g>
       <use style="stroke:#000000;stroke-width:0.8;" x="425.104748" xlink:href="#mfe3dc29104" y="295"/>
      </g>
     </g>
     <g id="text_10">
      <!-- $\mathdefault{10^{5}}$ -->
      <g transform="translate(416.304748 309.598437)scale(0.1 -0.1)">
       <use transform="translate(0 0.684375)" xlink:href="#DejaVuSans-49"/>
       <use transform="translate(63.623047 0.684375)" xlink:href="#DejaVuSans-48"/>
       <use transform="translate(128.203125 38.965625)scale(0.7)" xlink:href="#DejaVuSans-53"/>
      </g>
     </g>
    </g>
    <g id="text_11">
     <!-- $t$ (generations ago) -->
     <defs>
      <path d="M 42.28125 54.6875 
L 40.921875 47.703125 
L 23 47.703125 
L 17.1875 18.015625 
Q 16.890625 16.359375 16.75 15.234375 
Q 16.609375 14.109375 16.609375 13.484375 
Q 16.609375 10.359375 18.484375 8.9375 
Q 20.359375 7.515625 24.515625 7.515625 
L 33.59375 7.515625 
L 32.078125 0 
L 23.484375 0 
Q 15.484375 0 11.546875 3.125 
Q 7.625 6.25 7.625 12.59375 
Q 7.625 13.71875 7.765625 15.0625 
Q 7.90625 16.40625 8.203125 18.015625 
L 14.015625 47.703125 
L 6.390625 47.703125 
L 7.8125 54.6875 
L 15.28125 54.6875 
L 18.3125 70.21875 
L 27.296875 70.21875 
L 24.3125 54.6875 
z
" id="DejaVuSans-Oblique-116"/>
      <path d="M 31 75.875 
Q 24.46875 64.65625 21.28125 53.65625 
Q 18.109375 42.671875 18.109375 31.390625 
Q 18.109375 20.125 21.3125 9.0625 
Q 24.515625 -2 31 -13.1875 
L 23.1875 -13.1875 
Q 15.875 -1.703125 12.234375 9.375 
Q 8.59375 20.453125 8.59375 31.390625 
Q 8.59375 42.28125 12.203125 53.3125 
Q 15.828125 64.359375 23.1875 75.875 
z
" id="DejaVuSans-40"/>
      <path d="M 45.40625 27.984375 
Q 45.40625 37.75 41.375 43.109375 
Q 37.359375 48.484375 30.078125 48.484375 
Q 22.859375 48.484375 18.828125 43.109375 
Q 14.796875 37.75 14.796875 27.984375 
Q 14.796875 18.265625 18.828125 12.890625 
Q 22.859375 7.515625 30.078125 7.515625 
Q 37.359375 7.515625 41.375 12.890625 
Q 45.40625 18.265625 45.40625 27.984375 
z
M 54.390625 6.78125 
Q 54.390625 -7.171875 48.1875 -13.984375 
Q 42 -20.796875 29.203125 -20.796875 
Q 24.46875 -20.796875 20.265625 -20.09375 
Q 16.0625 -19.390625 12.109375 -17.921875 
L 12.109375 -9.1875 
Q 16.0625 -11.328125 19.921875 -12.34375 
Q 23.78125 -13.375 27.78125 -13.375 
Q 36.625 -13.375 41.015625 -8.765625 
Q 45.40625 -4.15625 45.40625 5.171875 
L 45.40625 9.625 
Q 42.625 4.78125 38.28125 2.390625 
Q 33.9375 0 27.875 0 
Q 17.828125 0 11.671875 7.65625 
Q 5.515625 15.328125 5.515625 27.984375 
Q 5.515625 40.671875 11.671875 48.328125 
Q 17.828125 56 27.875 56 
Q 33.9375 56 38.28125 53.609375 
Q 42.625 51.21875 45.40625 46.390625 
L 45.40625 54.6875 
L 54.390625 54.6875 
z
" id="DejaVuSans-103"/>
      <path d="M 8.015625 75.875 
L 15.828125 75.875 
Q 23.140625 64.359375 26.78125 53.3125 
Q 30.421875 42.28125 30.421875 31.390625 
Q 30.421875 20.453125 26.78125 9.375 
Q 23.140625 -1.703125 15.828125 -13.1875 
L 8.015625 -13.1875 
Q 14.5 -2 17.703125 9.0625 
Q 20.90625 20.125 20.90625 31.390625 
Q 20.90625 42.671875 17.703125 53.65625 
Q 14.5 64.65625 8.015625 75.875 
z
" id="DejaVuSans-41"/>
     </defs>
     <g transform="translate(315.236702 323.278125)scale(0.1 -0.1)">
      <use transform="translate(0 0.015625)" xlink:href="#DejaVuSans-Oblique-116"/>
      <use transform="translate(39.208984 0.015625)" xlink:href="#DejaVuSans-32"/>
      <use transform="translate(70.996094 0.015625)" xlink:href="#DejaVuSans-40"/>
      <use transform="translate(110.009766 0.015625)" xlink:href="#DejaVuSans-103"/>
      <use transform="translate(173.486328 0.015625)" xlink:href="#DejaVuSans-101"/>
      <use transform="translate(235.009766 0.015625)" xlink:href="#DejaVuSans-110"/>
      <use transform="translate(298.388672 0.015625)" xlink:href="#DejaVuSans-101"/>
      <use transform="translate(359.912109 0.015625)" xlink:href="#DejaVuSans-114"/>
      <use transform="translate(401.025391 0.015625)" xlink:href="#DejaVuSans-97"/>
      <use transform="translate(462.304688 0.015625)" xlink:href="#DejaVuSans-116"/>
      <use transform="translate(501.513672 0.015625)" xlink:href="#DejaVuSans-105"/>
      <use transform="translate(529.296875 0.015625)" xlink:href="#DejaVuSans-111"/>
      <use transform="translate(590.478516 0.015625)" xlink:href="#DejaVuSans-110"/>
      <use transform="translate(653.857422 0.015625)" xlink:href="#DejaVuSans-115"/>
      <use transform="translate(705.957031 0.015625)" xlink:href="#DejaVuSans-32"/>
      <use transform="translate(737.744141 0.015625)" xlink:href="#DejaVuSans-97"/>
      <use transform="translate(799.023438 0.015625)" xlink:href="#DejaVuSans-103"/>
      <use transform="translate(862.5 0.015625)" xlink:href="#DejaVuSans-111"/>
      <use transform="translate(923.681641 0.015625)" xlink:href="#DejaVuSans-41"/>
     </g>
    </g>
   </g>
   <g id="matplotlib.axis_4">
    <g id="ytick_17">
     <g id="line2d_43">
      <g>
       <use style="stroke:#000000;stroke-width:0.8;" x="281.221058" xlink:href="#m365eb04ba2" y="22.822348"/>
      </g>
     </g>
     <g id="text_12">
      <!-- $\mathdefault{10^{4}}$ -->
      <g transform="translate(256.621058 26.621567)scale(0.1 -0.1)">
       <use transform="translate(0 0.684375)" xlink:href="#DejaVuSans-49"/>
       <use transform="translate(63.623047 0.684375)" xlink:href="#DejaVuSans-48"/>
       <use transform="translate(128.203125 38.965625)scale(0.7)" xlink:href="#DejaVuSans-52"/>
      </g>
     </g>
    </g>
    <g id="ytick_18">
     <g id="line2d_44">
      <g>
       <use style="stroke:#000000;stroke-width:0.6;" x="281.221058" xlink:href="#m234e8263d5" y="247.842623"/>
      </g>
     </g>
     <g id="text_13">
      <!-- $\mathdefault{3\times10^{3}}$ -->
      <defs>
       <path d="M 70.125 53.71875 
L 47.796875 31.296875 
L 70.125 8.984375 
L 64.3125 3.078125 
L 41.890625 25.484375 
L 19.484375 3.078125 
L 13.71875 8.984375 
L 35.984375 31.296875 
L 13.71875 53.71875 
L 19.484375 59.625 
L 41.890625 37.203125 
L 64.3125 59.625 
z
" id="DejaVuSans-215"/>
      </defs>
      <g transform="translate(239.621058 251.641841)scale(0.1 -0.1)">
       <use transform="translate(0 0.765625)" xlink:href="#DejaVuSans-51"/>
       <use transform="translate(83.105469 0.765625)" xlink:href="#DejaVuSans-215"/>
       <use transform="translate(186.376953 0.765625)" xlink:href="#DejaVuSans-49"/>
       <use transform="translate(250 0.765625)" xlink:href="#DejaVuSans-48"/>
       <use transform="translate(314.580078 39.046875)scale(0.7)" xlink:href="#DejaVuSans-51"/>
      </g>
     </g>
    </g>
    <g id="ytick_19">
     <g id="line2d_45">
      <g>
       <use style="stroke:#000000;stroke-width:0.6;" x="281.221058" xlink:href="#m234e8263d5" y="194.075379"/>
      </g>
     </g>
     <g id="text_14">
      <!-- $\mathdefault{4\times10^{3}}$ -->
      <g transform="translate(239.621058 197.874598)scale(0.1 -0.1)">
       <use transform="translate(0 0.765625)" xlink:href="#DejaVuSans-52"/>
       <use transform="translate(83.105469 0.765625)" xlink:href="#DejaVuSans-215"/>
       <use transform="translate(186.376953 0.765625)" xlink:href="#DejaVuSans-49"/>
       <use transform="translate(250 0.765625)" xlink:href="#DejaVuSans-48"/>
       <use transform="translate(314.580078 39.046875)scale(0.7)" xlink:href="#DejaVuSans-51"/>
      </g>
     </g>
    </g>
    <g id="ytick_20">
     <g id="line2d_46">
      <g>
       <use style="stroke:#000000;stroke-width:0.6;" x="281.221058" xlink:href="#m234e8263d5" y="152.370265"/>
      </g>
     </g>
    </g>
    <g id="ytick_21">
     <g id="line2d_47">
      <g>
       <use style="stroke:#000000;stroke-width:0.6;" x="281.221058" xlink:href="#m234e8263d5" y="118.294706"/>
      </g>
     </g>
     <g id="text_15">
      <!-- $\mathdefault{6\times10^{3}}$ -->
      <defs>
       <path d="M 33.015625 40.375 
Q 26.375 40.375 22.484375 35.828125 
Q 18.609375 31.296875 18.609375 23.390625 
Q 18.609375 15.53125 22.484375 10.953125 
Q 26.375 6.390625 33.015625 6.390625 
Q 39.65625 6.390625 43.53125 10.953125 
Q 47.40625 15.53125 47.40625 23.390625 
Q 47.40625 31.296875 43.53125 35.828125 
Q 39.65625 40.375 33.015625 40.375 
z
M 52.59375 71.296875 
L 52.59375 62.3125 
Q 48.875 64.0625 45.09375 64.984375 
Q 41.3125 65.921875 37.59375 65.921875 
Q 27.828125 65.921875 22.671875 59.328125 
Q 17.53125 52.734375 16.796875 39.40625 
Q 19.671875 43.65625 24.015625 45.921875 
Q 28.375 48.1875 33.59375 48.1875 
Q 44.578125 48.1875 50.953125 41.515625 
Q 57.328125 34.859375 57.328125 23.390625 
Q 57.328125 12.15625 50.6875 5.359375 
Q 44.046875 -1.421875 33.015625 -1.421875 
Q 20.359375 -1.421875 13.671875 8.265625 
Q 6.984375 17.96875 6.984375 36.375 
Q 6.984375 53.65625 15.1875 63.9375 
Q 23.390625 74.21875 37.203125 74.21875 
Q 40.921875 74.21875 44.703125 73.484375 
Q 48.484375 72.75 52.59375 71.296875 
z
" id="DejaVuSans-54"/>
      </defs>
      <g transform="translate(239.621058 122.093925)scale(0.1 -0.1)">
       <use transform="translate(0 0.765625)" xlink:href="#DejaVuSans-54"/>
       <use transform="translate(83.105469 0.765625)" xlink:href="#DejaVuSans-215"/>
       <use transform="translate(186.376953 0.765625)" xlink:href="#DejaVuSans-49"/>
       <use transform="translate(250 0.765625)" xlink:href="#DejaVuSans-48"/>
       <use transform="translate(314.580078 39.046875)scale(0.7)" xlink:href="#DejaVuSans-51"/>
      </g>
     </g>
    </g>
    <g id="ytick_22">
     <g id="line2d_48">
      <g>
       <use style="stroke:#000000;stroke-width:0.6;" x="281.221058" xlink:href="#m234e8263d5" y="89.484231"/>
      </g>
     </g>
    </g>
    <g id="ytick_23">
     <g id="line2d_49">
      <g>
       <use style="stroke:#000000;stroke-width:0.6;" x="281.221058" xlink:href="#m234e8263d5" y="64.527462"/>
      </g>
     </g>
    </g>
    <g id="ytick_24">
     <g id="line2d_50">
      <g>
       <use style="stroke:#000000;stroke-width:0.6;" x="281.221058" xlink:href="#m234e8263d5" y="42.514032"/>
      </g>
     </g>
    </g>
    <g id="text_16">
     <!-- $\eta(t)$ -->
     <defs>
      <path d="M 57.859375 33.015625 
L 47.40625 -20.796875 
L 38.421875 -20.796875 
L 48.828125 32.71875 
Q 50.34375 40.484375 48.046875 44.34375 
Q 45.796875 48.1875 39.75 48.1875 
Q 32.46875 48.1875 27.34375 43.5625 
Q 22.265625 38.921875 20.703125 30.90625 
L 14.703125 0 
L 5.671875 0 
L 16.3125 54.6875 
L 25.34375 54.6875 
L 23.6875 46.1875 
Q 27.828125 51.125 32.71875 53.5625 
Q 37.546875 56 43.265625 56 
Q 52.6875 56 56.390625 50.203125 
Q 60.0625 44.34375 57.859375 33.015625 
z
" id="DejaVuSans-Oblique-951"/>
     </defs>
     <g transform="translate(233.521058 160.15)rotate(-90)scale(0.1 -0.1)">
      <use transform="translate(0 0.125)" xlink:href="#DejaVuSans-Oblique-951"/>
      <use transform="translate(63.378906 0.125)" xlink:href="#DejaVuSans-40"/>
      <use transform="translate(102.392578 0.125)" xlink:href="#DejaVuSans-Oblique-116"/>
      <use transform="translate(141.601562 0.125)" xlink:href="#DejaVuSans-41"/>
     </g>
    </g>
   </g>
   <g id="line2d_51">
    <path clip-path="url(#pe8dd797383)" d="M -1 22.822348 
L 288.690662 22.822348 
L 289.792998 22.822348 
L 290.895334 22.822348 
L 291.99767 22.822348 
L 293.100006 22.822348 
L 294.202342 22.822348 
L 295.304678 22.822348 
L 296.407014 22.822348 
L 297.50935 22.822348 
L 298.611686 22.822348 
L 299.714022 22.822348 
L 300.816359 22.822348 
L 301.918695 22.822348 
L 303.021031 22.822348 
L 304.123367 22.822348 
L 305.225703 22.822348 
L 306.328039 22.822348 
L 307.430375 22.822348 
L 308.532711 22.822348 
L 309.635047 22.822348 
L 310.737383 22.822348 
L 311.839719 22.822348 
L 312.942055 22.822348 
L 314.044391 22.822348 
L 315.146727 22.822348 
L 316.249063 22.822348 
L 317.351399 22.822348 
L 318.453735 22.822348 
L 319.556071 22.822348 
L 320.658407 22.822348 
L 321.760743 22.822348 
L 322.863079 22.822348 
L 323.965415 22.822348 
L 325.067752 22.822348 
L 326.170088 22.822348 
L 327.272424 22.822348 
L 328.37476 22.822348 
L 329.477096 22.822348 
L 330.579432 22.822348 
L 331.681768 281.918182 
L 332.784104 281.918182 
L 333.88644 281.918182 
L 334.988776 281.918182 
L 336.091112 281.918182 
L 337.193448 281.918182 
L 338.295784 281.918182 
L 339.39812 281.918182 
L 340.500456 281.918182 
L 341.602792 281.918182 
L 342.705128 281.918182 
L 343.807464 281.918182 
L 344.9098 281.918182 
L 346.012136 281.918182 
L 347.114472 281.918182 
L 348.216808 281.918182 
L 349.319144 281.918182 
L 350.421481 281.918182 
L 351.523817 281.918182 
L 352.626153 281.918182 
L 353.728489 22.822348 
L 354.830825 22.822348 
L 355.933161 22.822348 
L 357.035497 22.822348 
L 358.137833 22.822348 
L 359.240169 22.822348 
L 360.342505 22.822348 
L 361.444841 22.822348 
L 362.547177 22.822348 
L 363.649513 22.822348 
L 364.751849 22.822348 
L 365.854185 22.822348 
L 366.956521 22.822348 
L 368.058857 22.822348 
L 369.161193 22.822348 
L 370.263529 22.822348 
L 371.365865 22.822348 
L 372.468201 22.822348 
L 373.570537 22.822348 
L 374.672874 22.822348 
L 375.77521 22.822348 
L 376.877546 22.822348 
L 377.979882 22.822348 
L 379.082218 22.822348 
L 380.184554 22.822348 
L 381.28689 22.822348 
L 382.389226 22.822348 
L 383.491562 22.822348 
L 384.593898 22.822348 
L 385.696234 22.822348 
L 386.79857 22.822348 
L 387.900906 22.822348 
L 389.003242 22.822348 
L 390.105578 22.822348 
L 391.207914 22.822348 
L 392.31025 22.822348 
L 393.412586 22.822348 
L 394.514922 22.822348 
L 395.617258 22.822348 
L 396.719594 22.822348 
L 397.82193 22.822348 
" style="fill:none;stroke:#1f77b4;stroke-linecap:square;stroke-width:1.5;"/>
   </g>
   <g id="line2d_52">
    <path clip-path="url(#pe8dd797383)" d="M -1 21.058783 
L 288.690662 21.067122 
L 290.199673 21.051661 
L 291.708684 21.034347 
L 293.217695 21.015 
L 294.726706 20.993432 
L 296.235717 20.969457 
L 297.744727 20.942894 
L 299.253738 20.913577 
L 300.762749 20.88137 
L 302.27176 20.846179 
L 303.780771 20.807977 
L 305.289782 20.766839 
L 306.798793 20.72296 
L 308.307804 20.676698 
L 309.816815 20.62871 
L 311.325826 20.579853 
L 312.834836 20.53146 
L 314.343847 20.485296 
L 315.852858 20.443704 
L 317.361869 20.409729 
L 318.87088 20.387226 
L 320.379891 20.380986 
L 321.888902 20.396803 
L 323.397913 20.441314 
L 324.906924 20.522338 
L 326.415934 20.648464 
L 327.924945 22.677083 
L 329.433956 72.964409 
L 330.942967 190.942122 
L 332.451978 279.436613 
L 333.960989 280.346939 
L 335.47 280.981279 
L 336.979011 281.360381 
L 338.488022 281.521779 
L 339.997033 281.504764 
L 341.506043 281.349192 
L 343.015054 281.095722 
L 344.524065 280.785053 
L 346.033076 280.455052 
L 347.542087 280.13715 
L 349.051098 279.838107 
L 350.560109 277.286195 
L 352.06912 222.494934 
L 353.578131 155.235576 
L 355.087142 98.344139 
L 356.596152 48.59083 
L 358.105163 25.983302 
L 359.614174 22.517063 
L 361.123185 22.371494 
L 362.632196 22.223604 
L 364.141207 22.05884 
L 365.650218 21.880359 
L 367.159229 21.695076 
L 368.66824 21.511952 
L 370.177251 21.341547 
L 371.686261 21.195114 
L 373.195272 21.083333 
L 374.704283 21.014899 
L 376.213294 20.99527 
L 377.722305 21.025936 
L 379.231316 21.104396 
L 380.740327 21.224832 
L 382.249338 21.379082 
L 383.758349 21.560767 
L 385.26736 21.560184 
L 386.77637 21.837387 
L 388.285381 22.648244 
L 389.794392 22.908663 
L 391.303403 23.061098 
L 392.812414 23.176249 
L 394.321425 23.270677 
L 395.830436 23.343545 
L 397.339447 23.396933 
L 398.848458 23.423771 
L 400.357469 23.427235 
L 401.866479 23.410846 
L 403.37549 23.378001 
L 404.884501 23.331976 
L 406.393512 23.276183 
L 407.902523 23.214349 
L 409.411534 23.150485 
L 410.920545 23.088643 
L 412.429556 23.029936 
L 413.938567 22.036468 
L 415.447578 21.998662 
L 416.956588 21.970785 
L 418.465599 21.951895 
L 419.97461 21.940244 
L 421.483621 21.933777 
L 422.992632 21.930586 
L 424.501643 21.929207 
L 426.010654 21.928694 
L 427.519665 21.928533 
L 429.028676 21.928491 
L 430.537687 21.928482 
L 432.046697 21.92848 
L 433.555708 21.92848 
L 435.064719 21.92848 
L 436.57373 21.92848 
L 438.082741 21.92848 
" style="fill:none;stroke:#ff7f0e;stroke-linecap:square;stroke-width:1.5;"/>
   </g>
   <g id="patch_8">
    <path d="M 281.221058 295 
L 281.221058 7.2 
" style="fill:none;stroke:#000000;stroke-linecap:square;stroke-linejoin:miter;stroke-width:0.8;"/>
   </g>
   <g id="patch_9">
    <path d="M 445.552345 295 
L 445.552345 7.2 
" style="fill:none;stroke:#000000;stroke-linecap:square;stroke-linejoin:miter;stroke-width:0.8;"/>
   </g>
   <g id="patch_10">
    <path d="M 281.221058 295 
L 445.552345 295 
" style="fill:none;stroke:#000000;stroke-linecap:square;stroke-linejoin:miter;stroke-width:0.8;"/>
   </g>
   <g id="patch_11">
    <path d="M 281.221058 7.2 
L 445.552345 7.2 
" style="fill:none;stroke:#000000;stroke-linecap:square;stroke-linejoin:miter;stroke-width:0.8;"/>
   </g>
   <g id="legend_1">
    <g id="patch_12">
     <path d="M 367.439845 290 
L 438.552345 290 
Q 440.552345 290 440.552345 288 
L 440.552345 259.64375 
Q 440.552345 257.64375 438.552345 257.64375 
L 367.439845 257.64375 
Q 365.439845 257.64375 365.439845 259.64375 
L 365.439845 288 
Q 365.439845 290 367.439845 290 
z
" style="fill:#ffffff;opacity:0.8;stroke:#cccccc;stroke-linejoin:miter;"/>
    </g>
    <g id="line2d_53">
     <path d="M 369.439845 265.742187 
L 389.439845 265.742187 
" style="fill:none;stroke:#1f77b4;stroke-linecap:square;stroke-width:1.5;"/>
    </g>
    <g id="line2d_54"/>
    <g id="text_17">
     <!-- true -->
     <g transform="translate(397.439845 269.242187)scale(0.1 -0.1)">
      <use xlink:href="#DejaVuSans-116"/>
      <use x="39.208984" xlink:href="#DejaVuSans-114"/>
      <use x="80.322266" xlink:href="#DejaVuSans-117"/>
      <use x="143.701172" xlink:href="#DejaVuSans-101"/>
     </g>
    </g>
    <g id="line2d_55">
     <path d="M 369.439845 280.420312 
L 389.439845 280.420312 
" style="fill:none;stroke:#ff7f0e;stroke-linecap:square;stroke-width:1.5;"/>
    </g>
    <g id="line2d_56"/>
    <g id="text_18">
     <!-- inferred -->
     <defs>
      <path d="M 45.40625 46.390625 
L 45.40625 75.984375 
L 54.390625 75.984375 
L 54.390625 0 
L 45.40625 0 
L 45.40625 8.203125 
Q 42.578125 3.328125 38.25 0.953125 
Q 33.9375 -1.421875 27.875 -1.421875 
Q 17.96875 -1.421875 11.734375 6.484375 
Q 5.515625 14.40625 5.515625 27.296875 
Q 5.515625 40.1875 11.734375 48.09375 
Q 17.96875 56 27.875 56 
Q 33.9375 56 38.25 53.625 
Q 42.578125 51.265625 45.40625 46.390625 
z
M 14.796875 27.296875 
Q 14.796875 17.390625 18.875 11.75 
Q 22.953125 6.109375 30.078125 6.109375 
Q 37.203125 6.109375 41.296875 11.75 
Q 45.40625 17.390625 45.40625 27.296875 
Q 45.40625 37.203125 41.296875 42.84375 
Q 37.203125 48.484375 30.078125 48.484375 
Q 22.953125 48.484375 18.875 42.84375 
Q 14.796875 37.203125 14.796875 27.296875 
z
" id="DejaVuSans-100"/>
     </defs>
     <g transform="translate(397.439845 283.920312)scale(0.1 -0.1)">
      <use xlink:href="#DejaVuSans-105"/>
      <use x="27.783203" xlink:href="#DejaVuSans-110"/>
      <use x="91.162109" xlink:href="#DejaVuSans-102"/>
      <use x="126.367188" xlink:href="#DejaVuSans-101"/>
      <use x="187.890625" xlink:href="#DejaVuSans-114"/>
      <use x="227.253906" xlink:href="#DejaVuSans-114"/>
      <use x="266.117188" xlink:href="#DejaVuSans-101"/>
      <use x="327.640625" xlink:href="#DejaVuSans-100"/>
     </g>
    </g>
   </g>
  </g>
 </g>
 <defs>
  <clipPath id="p7764577e35">
   <rect height="287.8" width="164.331287" x="45.478125" y="7.2"/>
  </clipPath>
  <clipPath id="pe8dd797383">
   <rect height="287.8" width="164.331287" x="281.221058" y="7.2"/>
  </clipPath>
 </defs>
</svg>
