<?xml version="1.0" encoding="utf-8" standalone="no"?>
<!DOCTYPE svg PUBLIC "-//W3C//DTD SVG 1.1//EN"
  "http://www.w3.org/Graphics/SVG/1.1/DTD/svg11.dtd">
<!-- Created with matplotlib (https://matplotlib.org/) -->
<svg height="279.011353pt" version="1.1" viewBox="0 0 270.197551 279.011353" width="270.197551pt" xmlns="http://www.w3.org/2000/svg" xmlns:xlink="http://www.w3.org/1999/xlink">
 <defs>
  <style type="text/css">
*{stroke-linecap:butt;stroke-linejoin:round;}
  </style>
 </defs>
 <g id="figure_1">
  <g id="patch_1">
   <path d="M 0 279.011353 
L 270.197551 279.011353 
L 270.197551 0 
L 0 0 
z
" style="fill:#ffffff;"/>
  </g>
  <g id="axes_1">
   <g id="patch_2">
    <path d="M 43.106631 243.1 
L 244.527085 243.1 
L 244.527085 7.2 
L 43.106631 7.2 
z
" style="fill:#ffffff;"/>
   </g>
   <g id="PathCollection_1">
    <defs>
     <path d="M 0 3 
C 0.795609 3 1.55874 2.683901 2.12132 2.12132 
C 2.683901 1.55874 3 0.795609 3 0 
C 3 -0.795609 2.683901 -1.55874 2.12132 -2.12132 
C 1.55874 -2.683901 0.795609 -3 0 -3 
C -0.795609 -3 -1.55874 -2.683901 -2.12132 -2.12132 
C -2.683901 -1.55874 -3 -0.795609 -3 0 
C -3 0.795609 -2.683901 1.55874 -2.12132 2.12132 
C -1.55874 2.683901 -0.795609 3 0 3 
z
" id="C0_0_5c949fd38d"/>
    </defs>
    <g clip-path="url(#p580d98cf88)">
     <use style="fill:#f77189;stroke:#ffffff;stroke-width:0.75;" x="54.533828" xlink:href="#C0_0_5c949fd38d" y="149.758585"/>
    </g>
    <g clip-path="url(#p580d98cf88)">
     <use style="fill:#f77189;stroke:#ffffff;stroke-width:0.75;" x="58.477536" xlink:href="#C0_0_5c949fd38d" y="177.672632"/>
    </g>
    <g clip-path="url(#p580d98cf88)">
     <use style="fill:#f77189;stroke:#ffffff;stroke-width:0.75;" x="58.590717" xlink:href="#C0_0_5c949fd38d" y="157.254479"/>
    </g>
    <g clip-path="url(#p580d98cf88)">
     <use style="fill:#f77189;stroke:#ffffff;stroke-width:0.75;" x="55.129128" xlink:href="#C0_0_5c949fd38d" y="150.025521"/>
    </g>
    <g clip-path="url(#p580d98cf88)">
     <use style="fill:#f77189;stroke:#ffffff;stroke-width:0.75;" x="55.335629" xlink:href="#C0_0_5c949fd38d" y="150.552927"/>
    </g>
    <g clip-path="url(#p580d98cf88)">
     <use style="fill:#f77189;stroke:#ffffff;stroke-width:0.75;" x="68.799129" xlink:href="#C0_0_5c949fd38d" y="186.302841"/>
    </g>
    <g clip-path="url(#p580d98cf88)">
     <use style="fill:#f77189;stroke:#ffffff;stroke-width:0.75;" x="54.628995" xlink:href="#C0_0_5c949fd38d" y="150.903309"/>
    </g>
    <g clip-path="url(#p580d98cf88)">
     <use style="fill:#f77189;stroke:#ffffff;stroke-width:0.75;" x="55.580159" xlink:href="#C0_0_5c949fd38d" y="147.646524"/>
    </g>
    <g clip-path="url(#p580d98cf88)">
     <use style="fill:#f77189;stroke:#ffffff;stroke-width:0.75;" x="52.434766" xlink:href="#C0_0_5c949fd38d" y="146.899834"/>
    </g>
    <g clip-path="url(#p580d98cf88)">
     <use style="fill:#f77189;stroke:#ffffff;stroke-width:0.75;" x="55.849776" xlink:href="#C0_0_5c949fd38d" y="159.677788"/>
    </g>
    <g clip-path="url(#p580d98cf88)">
     <use style="fill:#f77189;stroke:#ffffff;stroke-width:0.75;" x="55.256138" xlink:href="#C0_0_5c949fd38d" y="148.405786"/>
    </g>
    <g clip-path="url(#p580d98cf88)">
     <use style="fill:#f77189;stroke:#ffffff;stroke-width:0.75;" x="53.348804" xlink:href="#C0_0_5c949fd38d" y="146.79334"/>
    </g>
    <g clip-path="url(#p580d98cf88)">
     <use style="fill:#f77189;stroke:#ffffff;stroke-width:0.75;" x="55.509993" xlink:href="#C0_0_5c949fd38d" y="152.388941"/>
    </g>
    <g clip-path="url(#p580d98cf88)">
     <use style="fill:#f77189;stroke:#ffffff;stroke-width:0.75;" x="56.577646" xlink:href="#C0_0_5c949fd38d" y="161.443909"/>
    </g>
    <g clip-path="url(#p580d98cf88)">
     <use style="fill:#f77189;stroke:#ffffff;stroke-width:0.75;" x="54.242609" xlink:href="#C0_0_5c949fd38d" y="149.6194"/>
    </g>
    <g clip-path="url(#p580d98cf88)">
     <use style="fill:#f77189;stroke:#ffffff;stroke-width:0.75;" x="53.969369" xlink:href="#C0_0_5c949fd38d" y="147.849054"/>
    </g>
    <g clip-path="url(#p580d98cf88)">
     <use style="fill:#bb9832;stroke:#ffffff;stroke-width:0.75;" x="57.677702" xlink:href="#C0_0_5c949fd38d" y="149.879734"/>
    </g>
    <g clip-path="url(#p580d98cf88)">
     <use style="fill:#bb9832;stroke:#ffffff;stroke-width:0.75;" x="62.234038" xlink:href="#C0_0_5c949fd38d" y="151.542525"/>
    </g>
    <g clip-path="url(#p580d98cf88)">
     <use style="fill:#bb9832;stroke:#ffffff;stroke-width:0.75;" x="59.915202" xlink:href="#C0_0_5c949fd38d" y="154.290046"/>
    </g>
    <g clip-path="url(#p580d98cf88)">
     <use style="fill:#bb9832;stroke:#ffffff;stroke-width:0.75;" x="78.633602" xlink:href="#C0_0_5c949fd38d" y="165.10093"/>
    </g>
    <g clip-path="url(#p580d98cf88)">
     <use style="fill:#bb9832;stroke:#ffffff;stroke-width:0.75;" x="63.61452" xlink:href="#C0_0_5c949fd38d" y="164.223829"/>
    </g>
    <g clip-path="url(#p580d98cf88)">
     <use style="fill:#bb9832;stroke:#ffffff;stroke-width:0.75;" x="73.426" xlink:href="#C0_0_5c949fd38d" y="187.830546"/>
    </g>
    <g clip-path="url(#p580d98cf88)">
     <use style="fill:#bb9832;stroke:#ffffff;stroke-width:0.75;" x="79.292301" xlink:href="#C0_0_5c949fd38d" y="191.188615"/>
    </g>
    <g clip-path="url(#p580d98cf88)">
     <use style="fill:#bb9832;stroke:#ffffff;stroke-width:0.75;" x="100.242307" xlink:href="#C0_0_5c949fd38d" y="227.931146"/>
    </g>
    <g clip-path="url(#p580d98cf88)">
     <use style="fill:#bb9832;stroke:#ffffff;stroke-width:0.75;" x="55.054279" xlink:href="#C0_0_5c949fd38d" y="150.433098"/>
    </g>
    <g clip-path="url(#p580d98cf88)">
     <use style="fill:#bb9832;stroke:#ffffff;stroke-width:0.75;" x="61.686242" xlink:href="#C0_0_5c949fd38d" y="157.975134"/>
    </g>
    <g clip-path="url(#p580d98cf88)">
     <use style="fill:#bb9832;stroke:#ffffff;stroke-width:0.75;" x="61.064967" xlink:href="#C0_0_5c949fd38d" y="161.189259"/>
    </g>
    <g clip-path="url(#p580d98cf88)">
     <use style="fill:#bb9832;stroke:#ffffff;stroke-width:0.75;" x="61.921726" xlink:href="#C0_0_5c949fd38d" y="155.783476"/>
    </g>
    <g clip-path="url(#p580d98cf88)">
     <use style="fill:#bb9832;stroke:#ffffff;stroke-width:0.75;" x="58.47194" xlink:href="#C0_0_5c949fd38d" y="158.807328"/>
    </g>
    <g clip-path="url(#p580d98cf88)">
     <use style="fill:#bb9832;stroke:#ffffff;stroke-width:0.75;" x="65.443769" xlink:href="#C0_0_5c949fd38d" y="158.20035"/>
    </g>
    <g clip-path="url(#p580d98cf88)">
     <use style="fill:#bb9832;stroke:#ffffff;stroke-width:0.75;" x="59.582975" xlink:href="#C0_0_5c949fd38d" y="159.025956"/>
    </g>
    <g clip-path="url(#p580d98cf88)">
     <use style="fill:#bb9832;stroke:#ffffff;stroke-width:0.75;" x="67.034941" xlink:href="#C0_0_5c949fd38d" y="173.875408"/>
    </g>
    <g clip-path="url(#p580d98cf88)">
     <use style="fill:#50b131;stroke:#ffffff;stroke-width:0.75;" x="53.41344" xlink:href="#C0_0_5c949fd38d" y="146.737932"/>
    </g>
    <g clip-path="url(#p580d98cf88)">
     <use style="fill:#50b131;stroke:#ffffff;stroke-width:0.75;" x="55.399743" xlink:href="#C0_0_5c949fd38d" y="147.974915"/>
    </g>
    <g clip-path="url(#p580d98cf88)">
     <use style="fill:#50b131;stroke:#ffffff;stroke-width:0.75;" x="52.311542" xlink:href="#C0_0_5c949fd38d" y="146.361303"/>
    </g>
    <g clip-path="url(#p580d98cf88)">
     <use style="fill:#50b131;stroke:#ffffff;stroke-width:0.75;" x="54.382391" xlink:href="#C0_0_5c949fd38d" y="150.013368"/>
    </g>
    <g clip-path="url(#p580d98cf88)">
     <use style="fill:#50b131;stroke:#ffffff;stroke-width:0.75;" x="52.262106" xlink:href="#C0_0_5c949fd38d" y="147.018162"/>
    </g>
    <g clip-path="url(#p580d98cf88)">
     <use style="fill:#50b131;stroke:#ffffff;stroke-width:0.75;" x="54.939674" xlink:href="#C0_0_5c949fd38d" y="149.785856"/>
    </g>
    <g clip-path="url(#p580d98cf88)">
     <use style="fill:#50b131;stroke:#ffffff;stroke-width:0.75;" x="53.481145" xlink:href="#C0_0_5c949fd38d" y="147.638249"/>
    </g>
    <g clip-path="url(#p580d98cf88)">
     <use style="fill:#50b131;stroke:#ffffff;stroke-width:0.75;" x="55.449811" xlink:href="#C0_0_5c949fd38d" y="147.656206"/>
    </g>
    <g clip-path="url(#p580d98cf88)">
     <use style="fill:#50b131;stroke:#ffffff;stroke-width:0.75;" x="52.350782" xlink:href="#C0_0_5c949fd38d" y="146.1206"/>
    </g>
    <g clip-path="url(#p580d98cf88)">
     <use style="fill:#50b131;stroke:#ffffff;stroke-width:0.75;" x="56.159959" xlink:href="#C0_0_5c949fd38d" y="149.150636"/>
    </g>
    <g clip-path="url(#p580d98cf88)">
     <use style="fill:#50b131;stroke:#ffffff;stroke-width:0.75;" x="52.610776" xlink:href="#C0_0_5c949fd38d" y="147.14624"/>
    </g>
    <g clip-path="url(#p580d98cf88)">
     <use style="fill:#50b131;stroke:#ffffff;stroke-width:0.75;" x="60.722698" xlink:href="#C0_0_5c949fd38d" y="153.702243"/>
    </g>
    <g clip-path="url(#p580d98cf88)">
     <use style="fill:#50b131;stroke:#ffffff;stroke-width:0.75;" x="56.506434" xlink:href="#C0_0_5c949fd38d" y="155.151642"/>
    </g>
    <g clip-path="url(#p580d98cf88)">
     <use style="fill:#50b131;stroke:#ffffff;stroke-width:0.75;" x="53.402068" xlink:href="#C0_0_5c949fd38d" y="150.175924"/>
    </g>
    <g clip-path="url(#p580d98cf88)">
     <use style="fill:#50b131;stroke:#ffffff;stroke-width:0.75;" x="54.934602" xlink:href="#C0_0_5c949fd38d" y="150.827315"/>
    </g>
    <g clip-path="url(#p580d98cf88)">
     <use style="fill:#50b131;stroke:#ffffff;stroke-width:0.75;" x="62.35113" xlink:href="#C0_0_5c949fd38d" y="178.116146"/>
    </g>
    <g clip-path="url(#p580d98cf88)">
     <use style="fill:#36ada4;stroke:#ffffff;stroke-width:0.75;" x="64.31744" xlink:href="#C0_0_5c949fd38d" y="182.0952"/>
    </g>
    <g clip-path="url(#p580d98cf88)">
     <use style="fill:#36ada4;stroke:#ffffff;stroke-width:0.75;" x="64.939132" xlink:href="#C0_0_5c949fd38d" y="160.442311"/>
    </g>
    <g clip-path="url(#p580d98cf88)">
     <use style="fill:#36ada4;stroke:#ffffff;stroke-width:0.75;" x="66.497197" xlink:href="#C0_0_5c949fd38d" y="175.828434"/>
    </g>
    <g clip-path="url(#p580d98cf88)">
     <use style="fill:#36ada4;stroke:#ffffff;stroke-width:0.75;" x="56.831976" xlink:href="#C0_0_5c949fd38d" y="155.716009"/>
    </g>
    <g clip-path="url(#p580d98cf88)">
     <use style="fill:#36ada4;stroke:#ffffff;stroke-width:0.75;" x="58.363144" xlink:href="#C0_0_5c949fd38d" y="156.097858"/>
    </g>
    <g clip-path="url(#p580d98cf88)">
     <use style="fill:#36ada4;stroke:#ffffff;stroke-width:0.75;" x="57.551516" xlink:href="#C0_0_5c949fd38d" y="148.905191"/>
    </g>
    <g clip-path="url(#p580d98cf88)">
     <use style="fill:#36ada4;stroke:#ffffff;stroke-width:0.75;" x="61.588771" xlink:href="#C0_0_5c949fd38d" y="155.081397"/>
    </g>
    <g clip-path="url(#p580d98cf88)">
     <use style="fill:#36ada4;stroke:#ffffff;stroke-width:0.75;" x="55.876895" xlink:href="#C0_0_5c949fd38d" y="149.522749"/>
    </g>
    <g clip-path="url(#p580d98cf88)">
     <use style="fill:#36ada4;stroke:#ffffff;stroke-width:0.75;" x="65.56582" xlink:href="#C0_0_5c949fd38d" y="159.148479"/>
    </g>
    <g clip-path="url(#p580d98cf88)">
     <use style="fill:#36ada4;stroke:#ffffff;stroke-width:0.75;" x="59.730941" xlink:href="#C0_0_5c949fd38d" y="153.328001"/>
    </g>
    <g clip-path="url(#p580d98cf88)">
     <use style="fill:#36ada4;stroke:#ffffff;stroke-width:0.75;" x="66.489776" xlink:href="#C0_0_5c949fd38d" y="184.139119"/>
    </g>
    <g clip-path="url(#p580d98cf88)">
     <use style="fill:#36ada4;stroke:#ffffff;stroke-width:0.75;" x="58.813978" xlink:href="#C0_0_5c949fd38d" y="150.437167"/>
    </g>
    <g clip-path="url(#p580d98cf88)">
     <use style="fill:#36ada4;stroke:#ffffff;stroke-width:0.75;" x="58.537855" xlink:href="#C0_0_5c949fd38d" y="152.951079"/>
    </g>
    <g clip-path="url(#p580d98cf88)">
     <use style="fill:#36ada4;stroke:#ffffff;stroke-width:0.75;" x="56.031191" xlink:href="#C0_0_5c949fd38d" y="149.872568"/>
    </g>
    <g clip-path="url(#p580d98cf88)">
     <use style="fill:#36ada4;stroke:#ffffff;stroke-width:0.75;" x="63.910479" xlink:href="#C0_0_5c949fd38d" y="157.379263"/>
    </g>
    <g clip-path="url(#p580d98cf88)">
     <use style="fill:#36ada4;stroke:#ffffff;stroke-width:0.75;" x="61.353199" xlink:href="#C0_0_5c949fd38d" y="158.739307"/>
    </g>
    <g clip-path="url(#p580d98cf88)">
     <use style="fill:#3ba3ec;stroke:#ffffff;stroke-width:0.75;" x="58.197527" xlink:href="#C0_0_5c949fd38d" y="151.565564"/>
    </g>
    <g clip-path="url(#p580d98cf88)">
     <use style="fill:#3ba3ec;stroke:#ffffff;stroke-width:0.75;" x="58.680113" xlink:href="#C0_0_5c949fd38d" y="152.485953"/>
    </g>
    <g clip-path="url(#p580d98cf88)">
     <use style="fill:#3ba3ec;stroke:#ffffff;stroke-width:0.75;" x="59.326152" xlink:href="#C0_0_5c949fd38d" y="169.547444"/>
    </g>
    <g clip-path="url(#p580d98cf88)">
     <use style="fill:#3ba3ec;stroke:#ffffff;stroke-width:0.75;" x="63.623036" xlink:href="#C0_0_5c949fd38d" y="157.207614"/>
    </g>
    <g clip-path="url(#p580d98cf88)">
     <use style="fill:#3ba3ec;stroke:#ffffff;stroke-width:0.75;" x="57.857624" xlink:href="#C0_0_5c949fd38d" y="151.203023"/>
    </g>
    <g clip-path="url(#p580d98cf88)">
     <use style="fill:#3ba3ec;stroke:#ffffff;stroke-width:0.75;" x="59.77894" xlink:href="#C0_0_5c949fd38d" y="151.523943"/>
    </g>
    <g clip-path="url(#p580d98cf88)">
     <use style="fill:#3ba3ec;stroke:#ffffff;stroke-width:0.75;" x="63.083742" xlink:href="#C0_0_5c949fd38d" y="174.274361"/>
    </g>
    <g clip-path="url(#p580d98cf88)">
     <use style="fill:#3ba3ec;stroke:#ffffff;stroke-width:0.75;" x="63.387655" xlink:href="#C0_0_5c949fd38d" y="154.83513"/>
    </g>
    <g clip-path="url(#p580d98cf88)">
     <use style="fill:#3ba3ec;stroke:#ffffff;stroke-width:0.75;" x="60.942659" xlink:href="#C0_0_5c949fd38d" y="153.45094"/>
    </g>
    <g clip-path="url(#p580d98cf88)">
     <use style="fill:#3ba3ec;stroke:#ffffff;stroke-width:0.75;" x="60.192729" xlink:href="#C0_0_5c949fd38d" y="152.730306"/>
    </g>
    <g clip-path="url(#p580d98cf88)">
     <use style="fill:#3ba3ec;stroke:#ffffff;stroke-width:0.75;" x="57.647184" xlink:href="#C0_0_5c949fd38d" y="156.775617"/>
    </g>
    <g clip-path="url(#p580d98cf88)">
     <use style="fill:#3ba3ec;stroke:#ffffff;stroke-width:0.75;" x="63.185719" xlink:href="#C0_0_5c949fd38d" y="159.400674"/>
    </g>
    <g clip-path="url(#p580d98cf88)">
     <use style="fill:#3ba3ec;stroke:#ffffff;stroke-width:0.75;" x="57.512323" xlink:href="#C0_0_5c949fd38d" y="148.42792"/>
    </g>
    <g clip-path="url(#p580d98cf88)">
     <use style="fill:#3ba3ec;stroke:#ffffff;stroke-width:0.75;" x="57.727266" xlink:href="#C0_0_5c949fd38d" y="149.231499"/>
    </g>
    <g clip-path="url(#p580d98cf88)">
     <use style="fill:#3ba3ec;stroke:#ffffff;stroke-width:0.75;" x="62.020041" xlink:href="#C0_0_5c949fd38d" y="166.224943"/>
    </g>
    <g clip-path="url(#p580d98cf88)">
     <use style="fill:#3ba3ec;stroke:#ffffff;stroke-width:0.75;" x="63.510848" xlink:href="#C0_0_5c949fd38d" y="154.622493"/>
    </g>
    <g clip-path="url(#p580d98cf88)">
     <use style="fill:#e866f4;stroke:#ffffff;stroke-width:0.75;" x="94.703174" xlink:href="#C0_0_5c949fd38d" y="161.120372"/>
    </g>
    <g clip-path="url(#p580d98cf88)">
     <use style="fill:#e866f4;stroke:#ffffff;stroke-width:0.75;" x="103.269589" xlink:href="#C0_0_5c949fd38d" y="86.627917"/>
    </g>
    <g clip-path="url(#p580d98cf88)">
     <use style="fill:#e866f4;stroke:#ffffff;stroke-width:0.75;" x="235.37161" xlink:href="#C0_0_5c949fd38d" y="133.712475"/>
    </g>
    <g clip-path="url(#p580d98cf88)">
     <use style="fill:#e866f4;stroke:#ffffff;stroke-width:0.75;" x="69.990986" xlink:href="#C0_0_5c949fd38d" y="144.404004"/>
    </g>
    <g clip-path="url(#p580d98cf88)">
     <use style="fill:#e866f4;stroke:#ffffff;stroke-width:0.75;" x="94.083169" xlink:href="#C0_0_5c949fd38d" y="170.438542"/>
    </g>
    <g clip-path="url(#p580d98cf88)">
     <use style="fill:#e866f4;stroke:#ffffff;stroke-width:0.75;" x="99.765418" xlink:href="#C0_0_5c949fd38d" y="154.242097"/>
    </g>
    <g clip-path="url(#p580d98cf88)">
     <use style="fill:#e866f4;stroke:#ffffff;stroke-width:0.75;" x="186.45406" xlink:href="#C0_0_5c949fd38d" y="232.377273"/>
    </g>
    <g clip-path="url(#p580d98cf88)">
     <use style="fill:#e866f4;stroke:#ffffff;stroke-width:0.75;" x="86.476973" xlink:href="#C0_0_5c949fd38d" y="195.480008"/>
    </g>
    <g clip-path="url(#p580d98cf88)">
     <use style="fill:#e866f4;stroke:#ffffff;stroke-width:0.75;" x="76.039356" xlink:href="#C0_0_5c949fd38d" y="161.66906"/>
    </g>
    <g clip-path="url(#p580d98cf88)">
     <use style="fill:#e866f4;stroke:#ffffff;stroke-width:0.75;" x="75.095538" xlink:href="#C0_0_5c949fd38d" y="154.478791"/>
    </g>
    <g clip-path="url(#p580d98cf88)">
     <use style="fill:#e866f4;stroke:#ffffff;stroke-width:0.75;" x="205.989143" xlink:href="#C0_0_5c949fd38d" y="226.722216"/>
    </g>
    <g clip-path="url(#p580d98cf88)">
     <use style="fill:#e866f4;stroke:#ffffff;stroke-width:0.75;" x="74.149768" xlink:href="#C0_0_5c949fd38d" y="177.892712"/>
    </g>
    <g clip-path="url(#p580d98cf88)">
     <use style="fill:#e866f4;stroke:#ffffff;stroke-width:0.75;" x="70.474868" xlink:href="#C0_0_5c949fd38d" y="125.898957"/>
    </g>
    <g clip-path="url(#p580d98cf88)">
     <use style="fill:#e866f4;stroke:#ffffff;stroke-width:0.75;" x="129.236246" xlink:href="#C0_0_5c949fd38d" y="17.922727"/>
    </g>
    <g clip-path="url(#p580d98cf88)">
     <use style="fill:#e866f4;stroke:#ffffff;stroke-width:0.75;" x="199.755197" xlink:href="#C0_0_5c949fd38d" y="75.088795"/>
    </g>
    <g clip-path="url(#p580d98cf88)">
     <use style="fill:#e866f4;stroke:#ffffff;stroke-width:0.75;" x="75.597293" xlink:href="#C0_0_5c949fd38d" y="154.649848"/>
    </g>
   </g>
   <g id="PathCollection_2"/>
   <g id="PathCollection_3"/>
   <g id="PathCollection_4"/>
   <g id="PathCollection_5"/>
   <g id="PathCollection_6"/>
   <g id="PathCollection_7"/>
   <g id="matplotlib.axis_1">
    <g id="xtick_1">
     <g id="line2d_1">
      <defs>
       <path d="M 0 0 
L 0 3.5 
" id="m078130f0cf" style="stroke:#000000;stroke-width:0.8;"/>
      </defs>
      <g>
       <use style="stroke:#000000;stroke-width:0.8;" x="69.414211" xlink:href="#m078130f0cf" y="243.1"/>
      </g>
     </g>
     <g id="text_1">
      <!-- 0.00 -->
      <defs>
       <path d="M 31.78125 66.40625 
Q 24.171875 66.40625 20.328125 58.90625 
Q 16.5 51.421875 16.5 36.375 
Q 16.5 21.390625 20.328125 13.890625 
Q 24.171875 6.390625 31.78125 6.390625 
Q 39.453125 6.390625 43.28125 13.890625 
Q 47.125 21.390625 47.125 36.375 
Q 47.125 51.421875 43.28125 58.90625 
Q 39.453125 66.40625 31.78125 66.40625 
z
M 31.78125 74.21875 
Q 44.046875 74.21875 50.515625 64.515625 
Q 56.984375 54.828125 56.984375 36.375 
Q 56.984375 17.96875 50.515625 8.265625 
Q 44.046875 -1.421875 31.78125 -1.421875 
Q 19.53125 -1.421875 13.0625 8.265625 
Q 6.59375 17.96875 6.59375 36.375 
Q 6.59375 54.828125 13.0625 64.515625 
Q 19.53125 74.21875 31.78125 74.21875 
z
" id="DejaVuSans-48"/>
       <path d="M 10.6875 12.40625 
L 21 12.40625 
L 21 0 
L 10.6875 0 
z
" id="DejaVuSans-46"/>
      </defs>
      <g transform="translate(60.558504 257.018498)scale(0.1 -0.1)">
       <use xlink:href="#DejaVuSans-48"/>
       <use x="63.623047" xlink:href="#DejaVuSans-46"/>
       <use x="95.410156" xlink:href="#DejaVuSans-48"/>
       <use x="159.033203" xlink:href="#DejaVuSans-48"/>
      </g>
     </g>
    </g>
    <g id="xtick_2">
     <g id="line2d_2">
      <g>
       <use style="stroke:#000000;stroke-width:0.8;" x="106.265252" xlink:href="#m078130f0cf" y="243.1"/>
      </g>
     </g>
     <g id="text_2">
      <!-- 0.25 -->
      <defs>
       <path d="M 19.1875 8.296875 
L 53.609375 8.296875 
L 53.609375 0 
L 7.328125 0 
L 7.328125 8.296875 
Q 12.9375 14.109375 22.625 23.890625 
Q 32.328125 33.6875 34.8125 36.53125 
Q 39.546875 41.84375 41.421875 45.53125 
Q 43.3125 49.21875 43.3125 52.78125 
Q 43.3125 58.59375 39.234375 62.25 
Q 35.15625 65.921875 28.609375 65.921875 
Q 23.96875 65.921875 18.8125 64.3125 
Q 13.671875 62.703125 7.8125 59.421875 
L 7.8125 69.390625 
Q 13.765625 71.78125 18.9375 73 
Q 24.125 74.21875 28.421875 74.21875 
Q 39.75 74.21875 46.484375 68.546875 
Q 53.21875 62.890625 53.21875 53.421875 
Q 53.21875 48.921875 51.53125 44.890625 
Q 49.859375 40.875 45.40625 35.40625 
Q 44.1875 33.984375 37.640625 27.21875 
Q 31.109375 20.453125 19.1875 8.296875 
z
" id="DejaVuSans-50"/>
       <path d="M 10.796875 72.90625 
L 49.515625 72.90625 
L 49.515625 64.59375 
L 19.828125 64.59375 
L 19.828125 46.734375 
Q 21.96875 47.46875 24.109375 47.828125 
Q 26.265625 48.1875 28.421875 48.1875 
Q 40.625 48.1875 47.75 41.5 
Q 54.890625 34.8125 54.890625 23.390625 
Q 54.890625 11.625 47.5625 5.09375 
Q 40.234375 -1.421875 26.90625 -1.421875 
Q 22.3125 -1.421875 17.546875 -0.640625 
Q 12.796875 0.140625 7.71875 1.703125 
L 7.71875 11.625 
Q 12.109375 9.234375 16.796875 8.0625 
Q 21.484375 6.890625 26.703125 6.890625 
Q 35.15625 6.890625 40.078125 11.328125 
Q 45.015625 15.765625 45.015625 23.390625 
Q 45.015625 31 40.078125 35.4375 
Q 35.15625 39.890625 26.703125 39.890625 
Q 22.75 39.890625 18.8125 39.015625 
Q 14.890625 38.140625 10.796875 36.28125 
z
" id="DejaVuSans-53"/>
      </defs>
      <g transform="translate(97.409545 257.018498)scale(0.1 -0.1)">
       <use xlink:href="#DejaVuSans-48"/>
       <use x="63.623047" xlink:href="#DejaVuSans-46"/>
       <use x="95.410156" xlink:href="#DejaVuSans-50"/>
       <use x="159.033203" xlink:href="#DejaVuSans-53"/>
      </g>
     </g>
    </g>
    <g id="xtick_3">
     <g id="line2d_3">
      <g>
       <use style="stroke:#000000;stroke-width:0.8;" x="143.116293" xlink:href="#m078130f0cf" y="243.1"/>
      </g>
     </g>
     <g id="text_3">
      <!-- 0.50 -->
      <g transform="translate(134.260586 257.018498)scale(0.1 -0.1)">
       <use xlink:href="#DejaVuSans-48"/>
       <use x="63.623047" xlink:href="#DejaVuSans-46"/>
       <use x="95.410156" xlink:href="#DejaVuSans-53"/>
       <use x="159.033203" xlink:href="#DejaVuSans-48"/>
      </g>
     </g>
    </g>
    <g id="xtick_4">
     <g id="line2d_4">
      <g>
       <use style="stroke:#000000;stroke-width:0.8;" x="179.967335" xlink:href="#m078130f0cf" y="243.1"/>
      </g>
     </g>
     <g id="text_4">
      <!-- 0.75 -->
      <defs>
       <path d="M 8.203125 72.90625 
L 55.078125 72.90625 
L 55.078125 68.703125 
L 28.609375 0 
L 18.3125 0 
L 43.21875 64.59375 
L 8.203125 64.59375 
z
" id="DejaVuSans-55"/>
      </defs>
      <g transform="translate(171.111627 257.018498)scale(0.1 -0.1)">
       <use xlink:href="#DejaVuSans-48"/>
       <use x="63.623047" xlink:href="#DejaVuSans-46"/>
       <use x="95.410156" xlink:href="#DejaVuSans-55"/>
       <use x="159.033203" xlink:href="#DejaVuSans-53"/>
      </g>
     </g>
    </g>
    <g id="xtick_5">
     <g id="line2d_5">
      <g>
       <use style="stroke:#000000;stroke-width:0.8;" x="216.818376" xlink:href="#m078130f0cf" y="243.1"/>
      </g>
     </g>
     <g id="text_5">
      <!-- 1.00 -->
      <defs>
       <path d="M 12.40625 8.296875 
L 28.515625 8.296875 
L 28.515625 63.921875 
L 10.984375 60.40625 
L 10.984375 69.390625 
L 28.421875 72.90625 
L 38.28125 72.90625 
L 38.28125 8.296875 
L 54.390625 8.296875 
L 54.390625 0 
L 12.40625 0 
z
" id="DejaVuSans-49"/>
      </defs>
      <g transform="translate(207.962668 257.018498)scale(0.1 -0.1)">
       <use xlink:href="#DejaVuSans-49"/>
       <use x="63.623047" xlink:href="#DejaVuSans-46"/>
       <use x="95.410156" xlink:href="#DejaVuSans-48"/>
       <use x="159.033203" xlink:href="#DejaVuSans-48"/>
      </g>
     </g>
    </g>
    <g id="text_6">
     <!-- PC 1 -->
     <defs>
      <path d="M 19.671875 64.796875 
L 19.671875 37.40625 
L 32.078125 37.40625 
Q 38.96875 37.40625 42.71875 40.96875 
Q 46.484375 44.53125 46.484375 51.125 
Q 46.484375 57.671875 42.71875 61.234375 
Q 38.96875 64.796875 32.078125 64.796875 
z
M 9.8125 72.90625 
L 32.078125 72.90625 
Q 44.34375 72.90625 50.609375 67.359375 
Q 56.890625 61.8125 56.890625 51.125 
Q 56.890625 40.328125 50.609375 34.8125 
Q 44.34375 29.296875 32.078125 29.296875 
L 19.671875 29.296875 
L 19.671875 0 
L 9.8125 0 
z
" id="DejaVuSans-80"/>
      <path d="M 64.40625 67.28125 
L 64.40625 56.890625 
Q 59.421875 61.53125 53.78125 63.8125 
Q 48.140625 66.109375 41.796875 66.109375 
Q 29.296875 66.109375 22.65625 58.46875 
Q 16.015625 50.828125 16.015625 36.375 
Q 16.015625 21.96875 22.65625 14.328125 
Q 29.296875 6.6875 41.796875 6.6875 
Q 48.140625 6.6875 53.78125 8.984375 
Q 59.421875 11.28125 64.40625 15.921875 
L 64.40625 5.609375 
Q 59.234375 2.09375 53.4375 0.328125 
Q 47.65625 -1.421875 41.21875 -1.421875 
Q 24.65625 -1.421875 15.125 8.703125 
Q 5.609375 18.84375 5.609375 36.375 
Q 5.609375 53.953125 15.125 64.078125 
Q 24.65625 74.21875 41.21875 74.21875 
Q 47.75 74.21875 53.53125 72.484375 
Q 59.328125 70.75 64.40625 67.28125 
z
" id="DejaVuSans-67"/>
      <path id="DejaVuSans-32"/>
     </defs>
     <g transform="translate(133.300721 269.874175)scale(0.1 -0.1)">
      <use xlink:href="#DejaVuSans-80"/>
      <use x="60.302734" xlink:href="#DejaVuSans-67"/>
      <use x="130.126953" xlink:href="#DejaVuSans-32"/>
      <use x="161.914062" xlink:href="#DejaVuSans-49"/>
     </g>
    </g>
   </g>
   <g id="matplotlib.axis_2">
    <g id="ytick_1">
     <g id="line2d_6">
      <defs>
       <path d="M 0 0 
L -3.5 0 
" id="m31d36f046c" style="stroke:#000000;stroke-width:0.8;"/>
      </defs>
      <g>
       <use style="stroke:#000000;stroke-width:0.8;" x="43.106631" xlink:href="#m31d36f046c" y="239.99934"/>
      </g>
     </g>
     <g id="text_7">
      <!-- -0.3 -->
      <defs>
       <path d="M 4.890625 31.390625 
L 31.203125 31.390625 
L 31.203125 23.390625 
L 4.890625 23.390625 
z
" id="DejaVuSans-45"/>
       <path d="M 40.578125 39.3125 
Q 47.65625 37.796875 51.625 33 
Q 55.609375 28.21875 55.609375 21.1875 
Q 55.609375 10.40625 48.1875 4.484375 
Q 40.765625 -1.421875 27.09375 -1.421875 
Q 22.515625 -1.421875 17.65625 -0.515625 
Q 12.796875 0.390625 7.625 2.203125 
L 7.625 11.71875 
Q 11.71875 9.328125 16.59375 8.109375 
Q 21.484375 6.890625 26.8125 6.890625 
Q 36.078125 6.890625 40.9375 10.546875 
Q 45.796875 14.203125 45.796875 21.1875 
Q 45.796875 27.640625 41.28125 31.265625 
Q 36.765625 34.90625 28.71875 34.90625 
L 20.21875 34.90625 
L 20.21875 43.015625 
L 29.109375 43.015625 
Q 36.375 43.015625 40.234375 45.921875 
Q 44.09375 48.828125 44.09375 54.296875 
Q 44.09375 59.90625 40.109375 62.90625 
Q 36.140625 65.921875 28.71875 65.921875 
Q 24.65625 65.921875 20.015625 65.03125 
Q 15.375 64.15625 9.8125 62.3125 
L 9.8125 71.09375 
Q 15.4375 72.65625 20.34375 73.4375 
Q 25.25 74.21875 29.59375 74.21875 
Q 40.828125 74.21875 47.359375 69.109375 
Q 53.90625 64.015625 53.90625 55.328125 
Q 53.90625 49.265625 50.4375 45.09375 
Q 46.96875 40.921875 40.578125 39.3125 
z
" id="DejaVuSans-51"/>
      </defs>
      <g transform="translate(20.055677 243.458589)scale(0.1 -0.1)">
       <use xlink:href="#DejaVuSans-45"/>
       <use x="36.083984" xlink:href="#DejaVuSans-48"/>
       <use x="99.707031" xlink:href="#DejaVuSans-46"/>
       <use x="131.494141" xlink:href="#DejaVuSans-51"/>
      </g>
     </g>
    </g>
    <g id="ytick_2">
     <g id="line2d_7">
      <g>
       <use style="stroke:#000000;stroke-width:0.8;" x="43.106631" xlink:href="#m31d36f046c" y="212.048054"/>
      </g>
     </g>
     <g id="text_8">
      <!-- -0.2 -->
      <g transform="translate(20.055677 215.507303)scale(0.1 -0.1)">
       <use xlink:href="#DejaVuSans-45"/>
       <use x="36.083984" xlink:href="#DejaVuSans-48"/>
       <use x="99.707031" xlink:href="#DejaVuSans-46"/>
       <use x="131.494141" xlink:href="#DejaVuSans-50"/>
      </g>
     </g>
    </g>
    <g id="ytick_3">
     <g id="line2d_8">
      <g>
       <use style="stroke:#000000;stroke-width:0.8;" x="43.106631" xlink:href="#m31d36f046c" y="184.096768"/>
      </g>
     </g>
     <g id="text_9">
      <!-- -0.1 -->
      <g transform="translate(20.055677 187.556018)scale(0.1 -0.1)">
       <use xlink:href="#DejaVuSans-45"/>
       <use x="36.083984" xlink:href="#DejaVuSans-48"/>
       <use x="99.707031" xlink:href="#DejaVuSans-46"/>
       <use x="131.494141" xlink:href="#DejaVuSans-49"/>
      </g>
     </g>
    </g>
    <g id="ytick_4">
     <g id="line2d_9">
      <g>
       <use style="stroke:#000000;stroke-width:0.8;" x="43.106631" xlink:href="#m31d36f046c" y="156.145483"/>
      </g>
     </g>
     <g id="text_10">
      <!-- 0.0 -->
      <g transform="translate(23.376552 159.604732)scale(0.1 -0.1)">
       <use xlink:href="#DejaVuSans-48"/>
       <use x="63.623047" xlink:href="#DejaVuSans-46"/>
       <use x="95.410156" xlink:href="#DejaVuSans-48"/>
      </g>
     </g>
    </g>
    <g id="ytick_5">
     <g id="line2d_10">
      <g>
       <use style="stroke:#000000;stroke-width:0.8;" x="43.106631" xlink:href="#m31d36f046c" y="128.194197"/>
      </g>
     </g>
     <g id="text_11">
      <!-- 0.1 -->
      <g transform="translate(23.376552 131.653446)scale(0.1 -0.1)">
       <use xlink:href="#DejaVuSans-48"/>
       <use x="63.623047" xlink:href="#DejaVuSans-46"/>
       <use x="95.410156" xlink:href="#DejaVuSans-49"/>
      </g>
     </g>
    </g>
    <g id="ytick_6">
     <g id="line2d_11">
      <g>
       <use style="stroke:#000000;stroke-width:0.8;" x="43.106631" xlink:href="#m31d36f046c" y="100.242911"/>
      </g>
     </g>
     <g id="text_12">
      <!-- 0.2 -->
      <g transform="translate(23.376552 103.70216)scale(0.1 -0.1)">
       <use xlink:href="#DejaVuSans-48"/>
       <use x="63.623047" xlink:href="#DejaVuSans-46"/>
       <use x="95.410156" xlink:href="#DejaVuSans-50"/>
      </g>
     </g>
    </g>
    <g id="ytick_7">
     <g id="line2d_12">
      <g>
       <use style="stroke:#000000;stroke-width:0.8;" x="43.106631" xlink:href="#m31d36f046c" y="72.291626"/>
      </g>
     </g>
     <g id="text_13">
      <!-- 0.3 -->
      <g transform="translate(23.376552 75.750875)scale(0.1 -0.1)">
       <use xlink:href="#DejaVuSans-48"/>
       <use x="63.623047" xlink:href="#DejaVuSans-46"/>
       <use x="95.410156" xlink:href="#DejaVuSans-51"/>
      </g>
     </g>
    </g>
    <g id="ytick_8">
     <g id="line2d_13">
      <g>
       <use style="stroke:#000000;stroke-width:0.8;" x="43.106631" xlink:href="#m31d36f046c" y="44.34034"/>
      </g>
     </g>
     <g id="text_14">
      <!-- 0.4 -->
      <defs>
       <path d="M 37.796875 64.3125 
L 12.890625 25.390625 
L 37.796875 25.390625 
z
M 35.203125 72.90625 
L 47.609375 72.90625 
L 47.609375 25.390625 
L 58.015625 25.390625 
L 58.015625 17.1875 
L 47.609375 17.1875 
L 47.609375 0 
L 37.796875 0 
L 37.796875 17.1875 
L 4.890625 17.1875 
L 4.890625 26.703125 
z
" id="DejaVuSans-52"/>
      </defs>
      <g transform="translate(23.376552 47.799589)scale(0.1 -0.1)">
       <use xlink:href="#DejaVuSans-48"/>
       <use x="63.623047" xlink:href="#DejaVuSans-46"/>
       <use x="95.410156" xlink:href="#DejaVuSans-52"/>
      </g>
     </g>
    </g>
    <g id="ytick_9">
     <g id="line2d_14">
      <g>
       <use style="stroke:#000000;stroke-width:0.8;" x="43.106631" xlink:href="#m31d36f046c" y="16.389054"/>
      </g>
     </g>
     <g id="text_15">
      <!-- 0.5 -->
      <g transform="translate(23.376552 19.848303)scale(0.1 -0.1)">
       <use xlink:href="#DejaVuSans-48"/>
       <use x="63.623047" xlink:href="#DejaVuSans-46"/>
       <use x="95.410156" xlink:href="#DejaVuSans-53"/>
      </g>
     </g>
    </g>
    <g id="text_16">
     <!-- PC 2 -->
     <g transform="translate(14.118498 135.666137)rotate(-90)scale(0.1 -0.1)">
      <use xlink:href="#DejaVuSans-80"/>
      <use x="60.302734" xlink:href="#DejaVuSans-67"/>
      <use x="130.126953" xlink:href="#DejaVuSans-32"/>
      <use x="161.914062" xlink:href="#DejaVuSans-50"/>
     </g>
    </g>
   </g>
   <g id="patch_3">
    <path d="M 43.106631 243.1 
L 43.106631 7.2 
" style="fill:none;stroke:#000000;stroke-linecap:square;stroke-linejoin:miter;stroke-width:0.8;"/>
   </g>
   <g id="patch_4">
    <path d="M 244.527085 243.1 
L 244.527085 7.2 
" style="fill:none;stroke:#000000;stroke-linecap:square;stroke-linejoin:miter;stroke-width:0.8;"/>
   </g>
   <g id="patch_5">
    <path d="M 43.106631 243.1 
L 244.527085 243.1 
" style="fill:none;stroke:#000000;stroke-linecap:square;stroke-linejoin:miter;stroke-width:0.8;"/>
   </g>
   <g id="patch_6">
    <path d="M 43.106631 7.2 
L 244.527085 7.2 
" style="fill:none;stroke:#000000;stroke-linecap:square;stroke-linejoin:miter;stroke-width:0.8;"/>
   </g>
   <g id="text_17">
    <!-- CAT&gt;CGT -->
    <defs>
     <path d="M 34.1875 63.1875 
L 20.796875 26.90625 
L 47.609375 26.90625 
z
M 28.609375 72.90625 
L 39.796875 72.90625 
L 67.578125 0 
L 57.328125 0 
L 50.6875 18.703125 
L 17.828125 18.703125 
L 11.1875 0 
L 0.78125 0 
z
" id="DejaVuSans-65"/>
     <path d="M -0.296875 72.90625 
L 61.375 72.90625 
L 61.375 64.59375 
L 35.5 64.59375 
L 35.5 0 
L 25.59375 0 
L 25.59375 64.59375 
L -0.296875 64.59375 
z
" id="DejaVuSans-84"/>
     <path d="M 10.59375 49.21875 
L 10.59375 58.109375 
L 73.1875 35.40625 
L 73.1875 27.296875 
L 10.59375 4.59375 
L 10.59375 13.484375 
L 60.890625 31.296875 
z
" id="DejaVuSans-62"/>
     <path d="M 59.515625 10.40625 
L 59.515625 29.984375 
L 43.40625 29.984375 
L 43.40625 38.09375 
L 69.28125 38.09375 
L 69.28125 6.78125 
Q 63.578125 2.734375 56.6875 0.65625 
Q 49.8125 -1.421875 42 -1.421875 
Q 24.90625 -1.421875 15.25 8.5625 
Q 5.609375 18.5625 5.609375 36.375 
Q 5.609375 54.25 15.25 64.234375 
Q 24.90625 74.21875 42 74.21875 
Q 49.125 74.21875 55.546875 72.453125 
Q 61.96875 70.703125 67.390625 67.28125 
L 67.390625 56.78125 
Q 61.921875 61.421875 55.765625 63.765625 
Q 49.609375 66.109375 42.828125 66.109375 
Q 29.4375 66.109375 22.71875 58.640625 
Q 16.015625 51.171875 16.015625 36.375 
Q 16.015625 21.625 22.71875 14.15625 
Q 29.4375 6.6875 42.828125 6.6875 
Q 48.046875 6.6875 52.140625 7.59375 
Q 56.25 8.5 59.515625 10.40625 
z
" id="DejaVuSans-71"/>
    </defs>
    <g transform="translate(100.242307 227.931146)scale(0.06 -0.06)">
     <use xlink:href="#DejaVuSans-67"/>
     <use x="69.824219" xlink:href="#DejaVuSans-65"/>
     <use x="130.482422" xlink:href="#DejaVuSans-84"/>
     <use x="191.566406" xlink:href="#DejaVuSans-62"/>
     <use x="275.355469" xlink:href="#DejaVuSans-67"/>
     <use x="345.179688" xlink:href="#DejaVuSans-71"/>
     <use x="419.044922" xlink:href="#DejaVuSans-84"/>
    </g>
   </g>
   <g id="text_18">
    <!-- ACA&gt;ATA -->
    <g transform="translate(94.703174 161.120372)scale(0.06 -0.06)">
     <use xlink:href="#DejaVuSans-65"/>
     <use x="66.658203" xlink:href="#DejaVuSans-67"/>
     <use x="136.482422" xlink:href="#DejaVuSans-65"/>
     <use x="204.890625" xlink:href="#DejaVuSans-62"/>
     <use x="288.679688" xlink:href="#DejaVuSans-65"/>
     <use x="349.337891" xlink:href="#DejaVuSans-84"/>
     <use x="402.671875" xlink:href="#DejaVuSans-65"/>
    </g>
   </g>
   <g id="text_19">
    <!-- ACC&gt;ATC -->
    <g transform="translate(103.269589 86.627917)scale(0.06 -0.06)">
     <use xlink:href="#DejaVuSans-65"/>
     <use x="66.658203" xlink:href="#DejaVuSans-67"/>
     <use x="136.482422" xlink:href="#DejaVuSans-67"/>
     <use x="206.306641" xlink:href="#DejaVuSans-62"/>
     <use x="290.095703" xlink:href="#DejaVuSans-65"/>
     <use x="350.753906" xlink:href="#DejaVuSans-84"/>
     <use x="405.962891" xlink:href="#DejaVuSans-67"/>
    </g>
   </g>
   <g id="text_20">
    <!-- ACG&gt;ATG -->
    <g transform="translate(235.37161 133.712475)scale(0.06 -0.06)">
     <use xlink:href="#DejaVuSans-65"/>
     <use x="66.658203" xlink:href="#DejaVuSans-67"/>
     <use x="136.482422" xlink:href="#DejaVuSans-71"/>
     <use x="213.972656" xlink:href="#DejaVuSans-62"/>
     <use x="297.761719" xlink:href="#DejaVuSans-65"/>
     <use x="358.419922" xlink:href="#DejaVuSans-84"/>
     <use x="419.503906" xlink:href="#DejaVuSans-71"/>
    </g>
   </g>
   <g id="text_21">
    <!-- CCA&gt;CTA -->
    <g transform="translate(94.083169 170.438542)scale(0.06 -0.06)">
     <use xlink:href="#DejaVuSans-67"/>
     <use x="69.824219" xlink:href="#DejaVuSans-67"/>
     <use x="139.648438" xlink:href="#DejaVuSans-65"/>
     <use x="208.056641" xlink:href="#DejaVuSans-62"/>
     <use x="291.845703" xlink:href="#DejaVuSans-67"/>
     <use x="361.669922" xlink:href="#DejaVuSans-84"/>
     <use x="415.003906" xlink:href="#DejaVuSans-65"/>
    </g>
   </g>
   <g id="text_22">
    <!-- CCC&gt;CTC -->
    <g transform="translate(99.765418 154.242097)scale(0.06 -0.06)">
     <use xlink:href="#DejaVuSans-67"/>
     <use x="69.824219" xlink:href="#DejaVuSans-67"/>
     <use x="139.648438" xlink:href="#DejaVuSans-67"/>
     <use x="209.472656" xlink:href="#DejaVuSans-62"/>
     <use x="293.261719" xlink:href="#DejaVuSans-67"/>
     <use x="363.085938" xlink:href="#DejaVuSans-84"/>
     <use x="418.294922" xlink:href="#DejaVuSans-67"/>
    </g>
   </g>
   <g id="text_23">
    <!-- CCG&gt;CTG -->
    <g transform="translate(186.45406 232.377273)scale(0.06 -0.06)">
     <use xlink:href="#DejaVuSans-67"/>
     <use x="69.824219" xlink:href="#DejaVuSans-67"/>
     <use x="139.648438" xlink:href="#DejaVuSans-71"/>
     <use x="217.138672" xlink:href="#DejaVuSans-62"/>
     <use x="300.927734" xlink:href="#DejaVuSans-67"/>
     <use x="370.751953" xlink:href="#DejaVuSans-84"/>
     <use x="431.835938" xlink:href="#DejaVuSans-71"/>
    </g>
   </g>
   <g id="text_24">
    <!-- GCG&gt;GTG -->
    <g transform="translate(205.989143 226.722216)scale(0.06 -0.06)">
     <use xlink:href="#DejaVuSans-71"/>
     <use x="77.490234" xlink:href="#DejaVuSans-67"/>
     <use x="147.314453" xlink:href="#DejaVuSans-71"/>
     <use x="224.804688" xlink:href="#DejaVuSans-62"/>
     <use x="308.59375" xlink:href="#DejaVuSans-71"/>
     <use x="382.458984" xlink:href="#DejaVuSans-84"/>
     <use x="443.542969" xlink:href="#DejaVuSans-71"/>
    </g>
   </g>
   <g id="text_25">
    <!-- TCC&gt;TTC -->
    <g transform="translate(129.236246 17.922727)scale(0.06 -0.06)">
     <use xlink:href="#DejaVuSans-84"/>
     <use x="55.208984" xlink:href="#DejaVuSans-67"/>
     <use x="125.033203" xlink:href="#DejaVuSans-67"/>
     <use x="194.857422" xlink:href="#DejaVuSans-62"/>
     <use x="278.646484" xlink:href="#DejaVuSans-84"/>
     <use x="337.980469" xlink:href="#DejaVuSans-84"/>
     <use x="393.189453" xlink:href="#DejaVuSans-67"/>
    </g>
   </g>
   <g id="text_26">
    <!-- TCG&gt;TTG -->
    <g transform="translate(199.755197 75.088795)scale(0.06 -0.06)">
     <use xlink:href="#DejaVuSans-84"/>
     <use x="55.208984" xlink:href="#DejaVuSans-67"/>
     <use x="125.033203" xlink:href="#DejaVuSans-71"/>
     <use x="202.523438" xlink:href="#DejaVuSans-62"/>
     <use x="286.3125" xlink:href="#DejaVuSans-84"/>
     <use x="345.646484" xlink:href="#DejaVuSans-84"/>
     <use x="406.730469" xlink:href="#DejaVuSans-71"/>
    </g>
   </g>
   <g id="legend_1">
    <g id="patch_7">
     <path d="M 50.106631 98.82307 
L 100.233145 98.82307 
Q 102.233145 98.82307 102.233145 96.82307 
L 102.233145 14.2 
Q 102.233145 12.2 100.233145 12.2 
L 50.106631 12.2 
Q 48.106631 12.2 48.106631 14.2 
L 48.106631 96.82307 
Q 48.106631 98.82307 50.106631 98.82307 
z
" style="fill:#ffffff;opacity:0.8;stroke:#cccccc;stroke-linejoin:miter;"/>
    </g>
    <g id="PathCollection_8">
     <defs>
      <path d="M 0 3 
C 0.795609 3 1.55874 2.683901 2.12132 2.12132 
C 2.683901 1.55874 3 0.795609 3 0 
C 3 -0.795609 2.683901 -1.55874 2.12132 -2.12132 
C 1.55874 -2.683901 0.795609 -3 0 -3 
C -0.795609 -3 -1.55874 -2.683901 -2.12132 -2.12132 
C -2.683901 -1.55874 -3 -0.795609 -3 0 
C -3 0.795609 -2.683901 1.55874 -2.12132 2.12132 
C -1.55874 2.683901 -0.795609 3 0 3 
z
" id="m50647d0fb5" style="stroke:#f77189;"/>
     </defs>
     <g>
      <use style="fill:#f77189;stroke:#f77189;" x="62.106631" xlink:href="#m50647d0fb5" y="20.575"/>
     </g>
    </g>
    <g id="text_27">
     <!-- A&gt;C -->
     <g transform="translate(80.106631 23.2)scale(0.1 -0.1)">
      <use xlink:href="#DejaVuSans-65"/>
      <use x="68.408203" xlink:href="#DejaVuSans-62"/>
      <use x="152.197266" xlink:href="#DejaVuSans-67"/>
     </g>
    </g>
    <g id="PathCollection_9">
     <defs>
      <path d="M 0 3 
C 0.795609 3 1.55874 2.683901 2.12132 2.12132 
C 2.683901 1.55874 3 0.795609 3 0 
C 3 -0.795609 2.683901 -1.55874 2.12132 -2.12132 
C 1.55874 -2.683901 0.795609 -3 0 -3 
C -0.795609 -3 -1.55874 -2.683901 -2.12132 -2.12132 
C -2.683901 -1.55874 -3 -0.795609 -3 0 
C -3 0.795609 -2.683901 1.55874 -2.12132 2.12132 
C -1.55874 2.683901 -0.795609 3 0 3 
z
" id="m24b412d743" style="stroke:#bb9832;"/>
     </defs>
     <g>
      <use style="fill:#bb9832;stroke:#bb9832;" x="62.106631" xlink:href="#m24b412d743" y="34.512178"/>
     </g>
    </g>
    <g id="text_28">
     <!-- A&gt;G -->
     <g transform="translate(80.106631 37.137178)scale(0.1 -0.1)">
      <use xlink:href="#DejaVuSans-65"/>
      <use x="68.408203" xlink:href="#DejaVuSans-62"/>
      <use x="152.197266" xlink:href="#DejaVuSans-71"/>
     </g>
    </g>
    <g id="PathCollection_10">
     <defs>
      <path d="M 0 3 
C 0.795609 3 1.55874 2.683901 2.12132 2.12132 
C 2.683901 1.55874 3 0.795609 3 0 
C 3 -0.795609 2.683901 -1.55874 2.12132 -2.12132 
C 1.55874 -2.683901 0.795609 -3 0 -3 
C -0.795609 -3 -1.55874 -2.683901 -2.12132 -2.12132 
C -2.683901 -1.55874 -3 -0.795609 -3 0 
C -3 0.795609 -2.683901 1.55874 -2.12132 2.12132 
C -1.55874 2.683901 -0.795609 3 0 3 
z
" id="m4a36d17011" style="stroke:#50b131;"/>
     </defs>
     <g>
      <use style="fill:#50b131;stroke:#50b131;" x="62.106631" xlink:href="#m4a36d17011" y="48.449357"/>
     </g>
    </g>
    <g id="text_29">
     <!-- A&gt;T -->
     <g transform="translate(80.106631 51.074357)scale(0.1 -0.1)">
      <use xlink:href="#DejaVuSans-65"/>
      <use x="68.408203" xlink:href="#DejaVuSans-62"/>
      <use x="152.197266" xlink:href="#DejaVuSans-84"/>
     </g>
    </g>
    <g id="PathCollection_11">
     <defs>
      <path d="M 0 3 
C 0.795609 3 1.55874 2.683901 2.12132 2.12132 
C 2.683901 1.55874 3 0.795609 3 0 
C 3 -0.795609 2.683901 -1.55874 2.12132 -2.12132 
C 1.55874 -2.683901 0.795609 -3 0 -3 
C -0.795609 -3 -1.55874 -2.683901 -2.12132 -2.12132 
C -2.683901 -1.55874 -3 -0.795609 -3 0 
C -3 0.795609 -2.683901 1.55874 -2.12132 2.12132 
C -1.55874 2.683901 -0.795609 3 0 3 
z
" id="md22b75e1e4" style="stroke:#36ada4;"/>
     </defs>
     <g>
      <use style="fill:#36ada4;stroke:#36ada4;" x="62.106631" xlink:href="#md22b75e1e4" y="62.386535"/>
     </g>
    </g>
    <g id="text_30">
     <!-- C&gt;A -->
     <g transform="translate(80.106631 65.011535)scale(0.1 -0.1)">
      <use xlink:href="#DejaVuSans-67"/>
      <use x="69.824219" xlink:href="#DejaVuSans-62"/>
      <use x="153.613281" xlink:href="#DejaVuSans-65"/>
     </g>
    </g>
    <g id="PathCollection_12">
     <defs>
      <path d="M 0 3 
C 0.795609 3 1.55874 2.683901 2.12132 2.12132 
C 2.683901 1.55874 3 0.795609 3 0 
C 3 -0.795609 2.683901 -1.55874 2.12132 -2.12132 
C 1.55874 -2.683901 0.795609 -3 0 -3 
C -0.795609 -3 -1.55874 -2.683901 -2.12132 -2.12132 
C -2.683901 -1.55874 -3 -0.795609 -3 0 
C -3 0.795609 -2.683901 1.55874 -2.12132 2.12132 
C -1.55874 2.683901 -0.795609 3 0 3 
z
" id="ma7198cb2c0" style="stroke:#3ba3ec;"/>
     </defs>
     <g>
      <use style="fill:#3ba3ec;stroke:#3ba3ec;" x="62.106631" xlink:href="#ma7198cb2c0" y="76.323713"/>
     </g>
    </g>
    <g id="text_31">
     <!-- C&gt;G -->
     <g transform="translate(80.106631 78.948713)scale(0.1 -0.1)">
      <use xlink:href="#DejaVuSans-67"/>
      <use x="69.824219" xlink:href="#DejaVuSans-62"/>
      <use x="153.613281" xlink:href="#DejaVuSans-71"/>
     </g>
    </g>
    <g id="PathCollection_13">
     <defs>
      <path d="M 0 3 
C 0.795609 3 1.55874 2.683901 2.12132 2.12132 
C 2.683901 1.55874 3 0.795609 3 0 
C 3 -0.795609 2.683901 -1.55874 2.12132 -2.12132 
C 1.55874 -2.683901 0.795609 -3 0 -3 
C -0.795609 -3 -1.55874 -2.683901 -2.12132 -2.12132 
C -2.683901 -1.55874 -3 -0.795609 -3 0 
C -3 0.795609 -2.683901 1.55874 -2.12132 2.12132 
C -1.55874 2.683901 -0.795609 3 0 3 
z
" id="m63dbe0e65a" style="stroke:#e866f4;"/>
     </defs>
     <g>
      <use style="fill:#e866f4;stroke:#e866f4;" x="62.106631" xlink:href="#m63dbe0e65a" y="90.260892"/>
     </g>
    </g>
    <g id="text_32">
     <!-- C&gt;T -->
     <g transform="translate(80.106631 92.885892)scale(0.1 -0.1)">
      <use xlink:href="#DejaVuSans-67"/>
      <use x="69.824219" xlink:href="#DejaVuSans-62"/>
      <use x="153.613281" xlink:href="#DejaVuSans-84"/>
     </g>
    </g>
   </g>
  </g>
 </g>
 <defs>
  <clipPath id="p580d98cf88">
   <rect height="235.9" width="201.420455" x="43.106631" y="7.2"/>
  </clipPath>
 </defs>
</svg>
