<?xml version="1.0" encoding="utf-8" standalone="no"?>
<!DOCTYPE svg PUBLIC "-//W3C//DTD SVG 1.1//EN"
  "http://www.w3.org/Graphics/SVG/1.1/DTD/svg11.dtd">
<!-- Created with matplotlib (https://matplotlib.org/) -->
<svg height="129.6pt" version="1.1" viewBox="0 0 208.8 129.6" width="208.8pt" xmlns="http://www.w3.org/2000/svg" xmlns:xlink="http://www.w3.org/1999/xlink">
 <defs>
  <style type="text/css">
*{stroke-linecap:butt;stroke-linejoin:round;}
  </style>
 </defs>
 <g id="figure_1">
  <g id="patch_1">
   <path d="M 0 129.6 
L 208.8 129.6 
L 208.8 0 
L 0 0 
z
" style="fill:#ffffff;"/>
  </g>
  <g id="axes_1">
   <g id="patch_2">
    <path d="M 51.187488 93.688647 
L 201.6 93.688647 
L 201.6 7.2 
L 51.187488 7.2 
z
" style="fill:#ffffff;"/>
   </g>
   <g id="PathCollection_1">
    <defs>
     <path d="M 0 2.236068 
C 0.593012 2.236068 1.161816 2.000462 1.581139 1.581139 
C 2.000462 1.161816 2.236068 0.593012 2.236068 0 
C 2.236068 -0.593012 2.000462 -1.161816 1.581139 -1.581139 
C 1.161816 -2.000462 0.593012 -2.236068 0 -2.236068 
C -0.593012 -2.236068 -1.161816 -2.000462 -1.581139 -1.581139 
C -2.000462 -1.161816 -2.236068 -0.593012 -2.236068 0 
C -2.236068 0.593012 -2.000462 1.161816 -1.581139 1.581139 
C -1.161816 2.000462 -0.593012 2.236068 0 2.236068 
z
" id="C0_0_5f45d01c45"/>
    </defs>
    <g clip-path="url(#pe070b2f18d)">
     <use style="fill:#4961d2;stroke:#000000;stroke-width:0.5;" x="58.02442" xlink:href="#C0_0_5f45d01c45" y="11.131302"/>
    </g>
    <g clip-path="url(#pe070b2f18d)">
     <use style="fill:#5875e1;stroke:#000000;stroke-width:0.5;" x="75.93006" xlink:href="#C0_0_5f45d01c45" y="13.318806"/>
    </g>
    <g clip-path="url(#pe070b2f18d)">
     <use style="fill:#6788ee;stroke:#000000;stroke-width:0.5;" x="86.404187" xlink:href="#C0_0_5f45d01c45" y="15.370566"/>
    </g>
    <g clip-path="url(#pe070b2f18d)">
     <use style="fill:#779af7;stroke:#000000;stroke-width:0.5;" x="93.835699" xlink:href="#C0_0_5f45d01c45" y="17.131686"/>
    </g>
    <g clip-path="url(#pe070b2f18d)">
     <use style="fill:#88abfd;stroke:#000000;stroke-width:0.5;" x="99.600028" xlink:href="#C0_0_5f45d01c45" y="17.943587"/>
    </g>
    <g clip-path="url(#pe070b2f18d)">
     <use style="fill:#9abbff;stroke:#000000;stroke-width:0.5;" x="104.309827" xlink:href="#C0_0_5f45d01c45" y="19.164744"/>
    </g>
    <g clip-path="url(#pe070b2f18d)">
     <use style="fill:#aac7fd;stroke:#000000;stroke-width:0.5;" x="108.291905" xlink:href="#C0_0_5f45d01c45" y="20.433028"/>
    </g>
    <g clip-path="url(#pe070b2f18d)">
     <use style="fill:#bad0f8;stroke:#000000;stroke-width:0.5;" x="111.741339" xlink:href="#C0_0_5f45d01c45" y="21.965244"/>
    </g>
    <g clip-path="url(#pe070b2f18d)">
     <use style="fill:#c9d7f0;stroke:#000000;stroke-width:0.5;" x="114.783954" xlink:href="#C0_0_5f45d01c45" y="23.333148"/>
    </g>
    <g clip-path="url(#pe070b2f18d)">
     <use style="fill:#d6dce4;stroke:#000000;stroke-width:0.5;" x="117.505667" xlink:href="#C0_0_5f45d01c45" y="24.906246"/>
    </g>
    <g clip-path="url(#pe070b2f18d)">
     <use style="fill:#e3d9d3;stroke:#000000;stroke-width:0.5;" x="119.967756" xlink:href="#C0_0_5f45d01c45" y="26.402621"/>
    </g>
    <g clip-path="url(#pe070b2f18d)">
     <use style="fill:#edd1c2;stroke:#000000;stroke-width:0.5;" x="122.215466" xlink:href="#C0_0_5f45d01c45" y="27.974552"/>
    </g>
    <g clip-path="url(#pe070b2f18d)">
     <use style="fill:#f4c6af;stroke:#000000;stroke-width:0.5;" x="124.28316" xlink:href="#C0_0_5f45d01c45" y="29.615552"/>
    </g>
    <g clip-path="url(#pe070b2f18d)">
     <use style="fill:#f7b89c;stroke:#000000;stroke-width:0.5;" x="126.197545" xlink:href="#C0_0_5f45d01c45" y="31.193715"/>
    </g>
    <g clip-path="url(#pe070b2f18d)">
     <use style="fill:#f7a889;stroke:#000000;stroke-width:0.5;" x="127.979795" xlink:href="#C0_0_5f45d01c45" y="32.906297"/>
    </g>
    <g clip-path="url(#pe070b2f18d)">
     <use style="fill:#f39475;stroke:#000000;stroke-width:0.5;" x="129.646978" xlink:href="#C0_0_5f45d01c45" y="34.583833"/>
    </g>
    <g clip-path="url(#pe070b2f18d)">
     <use style="fill:#ec7f63;stroke:#000000;stroke-width:0.5;" x="131.213056" xlink:href="#C0_0_5f45d01c45" y="36.276259"/>
    </g>
    <g clip-path="url(#pe070b2f18d)">
     <use style="fill:#e26952;stroke:#000000;stroke-width:0.5;" x="132.689594" xlink:href="#C0_0_5f45d01c45" y="38.06255"/>
    </g>
    <g clip-path="url(#pe070b2f18d)">
     <use style="fill:#d55042;stroke:#000000;stroke-width:0.5;" x="134.086279" xlink:href="#C0_0_5f45d01c45" y="39.805468"/>
    </g>
    <g clip-path="url(#pe070b2f18d)">
     <use style="fill:#c53334;stroke:#000000;stroke-width:0.5;" x="135.411307" xlink:href="#C0_0_5f45d01c45" y="41.581527"/>
    </g>
   </g>
   <g id="matplotlib.axis_1">
    <g id="xtick_1">
     <g id="line2d_1">
      <defs>
       <path d="M 0 0 
L 0 3.5 
" id="m215991ec9e" style="stroke:#000000;stroke-width:0.8;"/>
      </defs>
      <g>
       <use style="stroke:#000000;stroke-width:0.8;" x="58.02442" xlink:href="#m215991ec9e" y="93.688647"/>
      </g>
     </g>
     <g id="text_1">
      <!-- $10^{0}$ -->
      <defs>
       <path d="M 26.59375 63.40625 
C 26.59375 65.5 26.5 65.5 25.09375 65.5 
C 21.203125 61.1875 15.296875 59.796875 9.703125 59.796875 
C 9.40625 59.796875 8.90625 59.796875 8.796875 59.5 
C 8.703125 59.296875 8.703125 59.09375 8.703125 57 
C 11.796875 57 17 57.59375 21 59.984375 
L 21 7.203125 
C 21 3.6875 20.796875 2.5 12.203125 2.5 
L 9.203125 2.5 
L 9.203125 0 
C 14 0 19 0 23.796875 0 
C 28.59375 0 33.59375 0 38.40625 0 
L 38.40625 2.5 
L 35.40625 2.5 
C 26.796875 2.5 26.59375 3.59375 26.59375 7.15625 
z
" id="CMR17-49"/>
       <path d="M 42 31.640625 
C 42 37.75 41.90625 48.125 37.703125 56.109375 
C 34 63.109375 28.09375 65.59375 22.90625 65.59375 
C 18.09375 65.59375 12 63.40625 8.203125 56.203125 
C 4.203125 48.71875 3.796875 39.4375 3.796875 31.640625 
C 3.796875 25.953125 3.90625 17.28125 7 9.671875 
C 11.296875 -0.609375 19 -2 22.90625 -2 
C 27.5 -2 34.5 -0.109375 38.59375 9.375 
C 41.59375 16.28125 42 24.359375 42 31.640625 
z
M 22.90625 -0.40625 
C 16.5 -0.40625 12.703125 5.078125 11.296875 12.6875 
C 10.203125 18.5625 10.203125 27.15625 10.203125 32.75 
C 10.203125 40.4375 10.203125 46.828125 11.5 52.921875 
C 13.40625 61.390625 19 64 22.90625 64 
C 27 64 32.296875 61.296875 34.203125 53.125 
C 35.5 47.4375 35.59375 40.734375 35.59375 32.75 
C 35.59375 26.25 35.59375 18.265625 34.40625 12.375 
C 32.296875 1.484375 26.40625 -0.40625 22.90625 -0.40625 
z
" id="CMR17-48"/>
      </defs>
      <g transform="translate(51.057466 107.607145)scale(0.1 -0.1)">
       <use transform="scale(0.996264)" xlink:href="#CMR17-49"/>
       <use transform="translate(45.690477 0)scale(0.996264)" xlink:href="#CMR17-48"/>
       <use transform="translate(91.380954 36.153639)scale(0.697382)" xlink:href="#CMR17-48"/>
      </g>
     </g>
    </g>
    <g id="xtick_2">
     <g id="line2d_2">
      <g>
       <use style="stroke:#000000;stroke-width:0.8;" x="117.505667" xlink:href="#m215991ec9e" y="93.688647"/>
      </g>
     </g>
     <g id="text_2">
      <!-- $10^{1}$ -->
      <g transform="translate(110.538713 107.607145)scale(0.1 -0.1)">
       <use transform="scale(0.996264)" xlink:href="#CMR17-49"/>
       <use transform="translate(45.690477 0)scale(0.996264)" xlink:href="#CMR17-48"/>
       <use transform="translate(91.380954 36.153639)scale(0.697382)" xlink:href="#CMR17-49"/>
      </g>
     </g>
    </g>
    <g id="xtick_3">
     <g id="line2d_3">
      <g>
       <use style="stroke:#000000;stroke-width:0.8;" x="176.986914" xlink:href="#m215991ec9e" y="93.688647"/>
      </g>
     </g>
     <g id="text_3">
      <!-- $10^{2}$ -->
      <defs>
       <path d="M 41.703125 15.453125 
L 39.90625 15.453125 
C 38.90625 8.375 38.09375 7.171875 37.703125 6.5625 
C 37.203125 5.765625 30 5.765625 28.59375 5.765625 
L 9.40625 5.765625 
C 13 9.671875 20 16.75 28.5 24.953125 
C 34.59375 30.734375 41.703125 37.53125 41.703125 47.421875 
C 41.703125 59.21875 32.296875 66 21.796875 66 
C 10.796875 66 4.09375 56.3125 4.09375 47.34375 
C 4.09375 43.4375 7 42.9375 8.203125 42.9375 
C 9.203125 42.9375 12.203125 43.546875 12.203125 47.03125 
C 12.203125 50.109375 9.59375 51 8.203125 51 
C 7.59375 51 7 50.90625 6.59375 50.703125 
C 8.5 59.21875 14.296875 63.40625 20.40625 63.40625 
C 29.09375 63.40625 34.796875 56.515625 34.796875 47.421875 
C 34.796875 38.734375 29.703125 31.25 24 24.75 
L 4.09375 2.28125 
L 4.09375 0 
L 39.296875 0 
z
" id="CMR17-50"/>
      </defs>
      <g transform="translate(170.01996 107.607145)scale(0.1 -0.1)">
       <use transform="scale(0.996264)" xlink:href="#CMR17-49"/>
       <use transform="translate(45.690477 0)scale(0.996264)" xlink:href="#CMR17-48"/>
       <use transform="translate(91.380954 36.153639)scale(0.697382)" xlink:href="#CMR17-50"/>
      </g>
     </g>
    </g>
    <g id="xtick_4">
     <g id="line2d_4">
      <defs>
       <path d="M 0 0 
L 0 2 
" id="mc7b72e449c" style="stroke:#000000;stroke-width:0.6;"/>
      </defs>
      <g>
       <use style="stroke:#000000;stroke-width:0.6;" x="52.260092" xlink:href="#mc7b72e449c" y="93.688647"/>
      </g>
     </g>
    </g>
    <g id="xtick_5">
     <g id="line2d_5">
      <g>
       <use style="stroke:#000000;stroke-width:0.6;" x="55.302707" xlink:href="#mc7b72e449c" y="93.688647"/>
      </g>
     </g>
    </g>
    <g id="xtick_6">
     <g id="line2d_6">
      <g>
       <use style="stroke:#000000;stroke-width:0.6;" x="75.93006" xlink:href="#mc7b72e449c" y="93.688647"/>
      </g>
     </g>
    </g>
    <g id="xtick_7">
     <g id="line2d_7">
      <g>
       <use style="stroke:#000000;stroke-width:0.6;" x="86.404187" xlink:href="#mc7b72e449c" y="93.688647"/>
      </g>
     </g>
    </g>
    <g id="xtick_8">
     <g id="line2d_8">
      <g>
       <use style="stroke:#000000;stroke-width:0.6;" x="93.835699" xlink:href="#mc7b72e449c" y="93.688647"/>
      </g>
     </g>
    </g>
    <g id="xtick_9">
     <g id="line2d_9">
      <g>
       <use style="stroke:#000000;stroke-width:0.6;" x="99.600028" xlink:href="#mc7b72e449c" y="93.688647"/>
      </g>
     </g>
    </g>
    <g id="xtick_10">
     <g id="line2d_10">
      <g>
       <use style="stroke:#000000;stroke-width:0.6;" x="104.309827" xlink:href="#mc7b72e449c" y="93.688647"/>
      </g>
     </g>
    </g>
    <g id="xtick_11">
     <g id="line2d_11">
      <g>
       <use style="stroke:#000000;stroke-width:0.6;" x="108.291905" xlink:href="#mc7b72e449c" y="93.688647"/>
      </g>
     </g>
    </g>
    <g id="xtick_12">
     <g id="line2d_12">
      <g>
       <use style="stroke:#000000;stroke-width:0.6;" x="111.741339" xlink:href="#mc7b72e449c" y="93.688647"/>
      </g>
     </g>
    </g>
    <g id="xtick_13">
     <g id="line2d_13">
      <g>
       <use style="stroke:#000000;stroke-width:0.6;" x="114.783954" xlink:href="#mc7b72e449c" y="93.688647"/>
      </g>
     </g>
    </g>
    <g id="xtick_14">
     <g id="line2d_14">
      <g>
       <use style="stroke:#000000;stroke-width:0.6;" x="135.411307" xlink:href="#mc7b72e449c" y="93.688647"/>
      </g>
     </g>
    </g>
    <g id="xtick_15">
     <g id="line2d_15">
      <g>
       <use style="stroke:#000000;stroke-width:0.6;" x="145.885434" xlink:href="#mc7b72e449c" y="93.688647"/>
      </g>
     </g>
    </g>
    <g id="xtick_16">
     <g id="line2d_16">
      <g>
       <use style="stroke:#000000;stroke-width:0.6;" x="153.316946" xlink:href="#mc7b72e449c" y="93.688647"/>
      </g>
     </g>
    </g>
    <g id="xtick_17">
     <g id="line2d_17">
      <g>
       <use style="stroke:#000000;stroke-width:0.6;" x="159.081274" xlink:href="#mc7b72e449c" y="93.688647"/>
      </g>
     </g>
    </g>
    <g id="xtick_18">
     <g id="line2d_18">
      <g>
       <use style="stroke:#000000;stroke-width:0.6;" x="163.791074" xlink:href="#mc7b72e449c" y="93.688647"/>
      </g>
     </g>
    </g>
    <g id="xtick_19">
     <g id="line2d_19">
      <g>
       <use style="stroke:#000000;stroke-width:0.6;" x="167.773152" xlink:href="#mc7b72e449c" y="93.688647"/>
      </g>
     </g>
    </g>
    <g id="xtick_20">
     <g id="line2d_20">
      <g>
       <use style="stroke:#000000;stroke-width:0.6;" x="171.222586" xlink:href="#mc7b72e449c" y="93.688647"/>
      </g>
     </g>
    </g>
    <g id="xtick_21">
     <g id="line2d_21">
      <g>
       <use style="stroke:#000000;stroke-width:0.6;" x="174.265201" xlink:href="#mc7b72e449c" y="93.688647"/>
      </g>
     </g>
    </g>
    <g id="xtick_22">
     <g id="line2d_22">
      <g>
       <use style="stroke:#000000;stroke-width:0.6;" x="194.892553" xlink:href="#mc7b72e449c" y="93.688647"/>
      </g>
     </g>
    </g>
    <g id="text_4">
     <!-- singular value rank -->
     <defs>
      <path d="M 32.203125 41.046875 
C 26.296875 43.859375 21.703125 43.859375 18.703125 43.859375 
C 11.59375 43.859375 3.09375 41.375 3.09375 31.296875 
C 3.09375 21.234375 14.09375 19.03125 17.09375 18.421875 
C 21.703125 17.53125 26.796875 16.53125 26.796875 11.5625 
C 26.796875 5.265625 19.59375 5.265625 18.296875 5.265625 
C 14.296875 5.265625 8.796875 6.359375 3.796875 9.96875 
L 2.59375 3.28125 
C 8.296875 0 13.796875 -1 18.40625 -1 
C 30.703125 -1 33.796875 6.5 33.796875 12.203125 
C 33.796875 17.09375 31 20.390625 29.09375 21.890625 
C 25.796875 24.5 24.59375 24.796875 16.40625 26.5 
C 15 26.703125 10.09375 27.796875 10.09375 32.28125 
C 10.09375 38 16.40625 38 17.796875 38 
C 24.296875 38 28.296875 35.984375 31 34.5 
z
" id="CMSS17-115"/>
      <path d="M 15.296875 65.359375 
L 6.90625 65.359375 
L 6.90625 57 
L 15.296875 57 
z
M 14.796875 42.796875 
L 7.40625 42.796875 
L 7.40625 0 
L 14.796875 0 
z
" id="CMSS17-105"/>
      <path d="M 40.90625 29.328125 
C 40.90625 35.671875 39.40625 44 28.09375 44 
C 21.703125 44 17.5 40.71875 14.703125 37.328125 
L 14.703125 43.09375 
L 7.40625 43.09375 
L 7.40625 0 
L 15 0 
L 15 24.359375 
C 15 30.6875 17.40625 37.9375 24.203125 37.9375 
C 33 37.9375 33.296875 32 33.296875 28.578125 
L 33.296875 0 
L 40.90625 0 
z
" id="CMSS17-110"/>
      <path d="M 44.5 43.875 
C 38.796875 43.875 33.90625 42.78125 29.90625 40.890625 
C 26.59375 43.390625 23.203125 43.875 20.90625 43.875 
C 12.203125 43.875 5.59375 36.703125 5.59375 28.34375 
C 5.59375 22.9375 8.59375 18.859375 8.796875 18.671875 
C 7 16.171875 6 13.484375 6 10.5 
C 6 7 7.40625 4.515625 8.5 3.125 
C 3.296875 -0.046875 2.59375 -4.90625 2.59375 -6.796875 
C 2.59375 -14.03125 11.703125 -20 23.40625 -20 
C 35.203125 -20 44.296875 -14.03125 44.296875 -6.6875 
C 44.296875 7 29 7 24.796875 7 
L 16.703125 7 
C 15.203125 7 11.203125 7 11.203125 12.359375 
C 11.203125 14.390625 12.09375 15.6875 12.203125 15.78125 
C 13.703125 14.6875 16.796875 13 20.90625 13 
C 29.203125 13 36.09375 19.96875 36.09375 28.546875 
C 36.09375 33.3125 33.90625 36.796875 33 38 
L 33.296875 38 
C 33.59375 38 37.796875 38 39.296875 38 
C 42.5 38 42.796875 37.953125 45.59375 37.796875 
z
M 20.90625 18.46875 
C 17.5 18.46875 12.703125 20.546875 12.703125 28.484375 
C 12.703125 37.109375 18.203125 38.5 20.796875 38.5 
C 24.203125 38.5 29 36.421875 29 28.484375 
C 29 19.859375 23.5 18.46875 20.90625 18.46875 
z
M 24.703125 -0.15625 
C 27.09375 -0.15625 37.203125 -0.15625 37.203125 -6.90625 
C 37.203125 -11.15625 31 -14.515625 23.5 -14.515625 
C 15.90625 -14.515625 9.703125 -11.25 9.703125 -6.796875 
C 9.703125 -6.296875 9.703125 -0.15625 16.59375 -0.15625 
z
" id="CMSS17-103"/>
      <path d="M 40.90625 42.796875 
L 33.296875 42.796875 
L 33.296875 15.1875 
C 33.296875 7.78125 27.90625 4.78125 22.203125 4.78125 
C 15.59375 4.78125 15 6.984375 15 11.078125 
L 15 42.796875 
L 7.40625 42.796875 
L 7.40625 10.59375 
C 7.40625 2.796875 10.09375 -1 17 -1 
C 20.40625 -1 28.09375 -0.203125 33.5 4.78125 
L 33.5 0 
L 40.90625 0 
z
" id="CMSS17-117"/>
      <path d="M 14.796875 69 
L 7.40625 69 
L 7.40625 0 
L 14.796875 0 
z
" id="CMSS17-108"/>
      <path d="M 37.59375 27.984375 
C 37.59375 37.375 30.90625 43.875 21.90625 43.875 
C 17.5 43.875 12.703125 43.078125 7.203125 39.890625 
L 7.796875 33.359375 
C 10.296875 35.125 14.59375 38 21.796875 38 
C 26.90625 38 30 34.0625 30 27.84375 
L 30 24 
C 14 24 4 19.34375 4 11.34375 
C 4 7.203125 6.5 -1 14.796875 -1 
C 16.296875 -1 24.40625 -1 30.203125 3.390625 
L 30.203125 -0.296875 
L 37.59375 -0.296875 
z
M 30 12.75 
C 30 10.953125 30 8.5625 27 6.78125 
C 24.40625 5.078125 21.09375 5.078125 19.703125 5.078125 
C 14.703125 5.078125 11.296875 7.984375 11.296875 11.625 
C 11.296875 18.921875 26.90625 18.921875 30 18.921875 
z
" id="CMSS17-97"/>
      <path d="M 14.90625 21.296875 
C 14.90625 30.703125 21.796875 37 30.59375 37 
L 30.59375 43.578125 
C 24.203125 43.578125 18.203125 40.390625 14.59375 35.203125 
L 14.59375 43.09375 
L 7.5 43.09375 
L 7.5 0 
L 14.90625 0 
z
" id="CMSS17-114"/>
      <path d="M 41.796875 43 
L 34 43 
L 27.296875 24.3125 
C 25.203125 18.203125 22.203125 9.796875 21.703125 5.5 
L 21.59375 5.5 
C 21.40625 7.3125 20.59375 9.90625 20.09375 11.703125 
C 19.5 13.90625 18.703125 16.5 18.09375 18.3125 
L 9.296875 43 
L 1.296875 43 
L 17.09375 0 
L 26 0 
z
" id="CMSS17-118"/>
      <path d="M 39.09375 21.515625 
C 39.09375 24.84375 38.90625 31.296875 35.703125 36.640625 
C 32.203125 42.390625 26.5 44 22.203125 44 
C 11.796875 44 3 34.1875 3 21.484375 
C 3 9.09375 12.09375 -1 23.59375 -1 
C 28.09375 -1 33.59375 0.296875 38.59375 3.875 
C 38.59375 4.28125 38.40625 6.46875 38.296875 6.5625 
C 38.296875 6.765625 38 9.84375 38 10.25 
C 33.203125 6.359375 27.703125 5.078125 23.703125 5.078125 
C 17.296875 5.078125 10.40625 10.421875 10.09375 21.515625 
z
M 10.90625 27 
C 12.203125 32.5625 16.59375 37.828125 22.203125 37.828125 
C 23.703125 37.828125 30.703125 37.828125 32.5 27 
z
" id="CMSS17-101"/>
      <path d="M 26.5 26.375 
L 42 42.796875 
L 32.40625 42.796875 
L 14.90625 24.28125 
L 14.90625 69 
L 7.5 69 
L 7.5 0 
L 14.796875 0 
L 14.796875 13.9375 
L 21.5 21 
L 35.59375 0 
L 44.09375 0 
z
" id="CMSS17-107"/>
     </defs>
     <g transform="translate(87.414846 120.462822)scale(0.1 -0.1)">
      <use transform="scale(0.996264)" xlink:href="#CMSS17-115"/>
      <use transform="translate(35.913542 0)scale(0.996264)" xlink:href="#CMSS17-105"/>
      <use transform="translate(58.094265 0)scale(0.996264)" xlink:href="#CMSS17-110"/>
      <use transform="translate(106.299208 0)scale(0.996264)" xlink:href="#CMSS17-103"/>
      <use transform="translate(153.142832 0)scale(0.996264)" xlink:href="#CMSS17-117"/>
      <use transform="translate(201.347775 0)scale(0.996264)" xlink:href="#CMSS17-108"/>
      <use transform="translate(223.528498 0)scale(0.996264)" xlink:href="#CMSS17-97"/>
      <use transform="translate(265.847965 0)scale(0.996264)" xlink:href="#CMSS17-114"/>
      <use transform="translate(328.98685 0)scale(0.996264)" xlink:href="#CMSS17-118"/>
      <use transform="translate(371.986992 0)scale(0.996264)" xlink:href="#CMSS17-97"/>
      <use transform="translate(416.908912 0)scale(0.996264)" xlink:href="#CMSS17-108"/>
      <use transform="translate(439.089635 0)scale(0.996264)" xlink:href="#CMSS17-117"/>
      <use transform="translate(487.294578 0)scale(0.996264)" xlink:href="#CMSS17-101"/>
      <use transform="translate(560.162513 0)scale(0.996264)" xlink:href="#CMSS17-114"/>
      <use transform="translate(592.072286 0)scale(0.996264)" xlink:href="#CMSS17-97"/>
      <use transform="translate(636.994206 0)scale(0.996264)" xlink:href="#CMSS17-110"/>
      <use transform="translate(685.199149 0)scale(0.996264)" xlink:href="#CMSS17-107"/>
     </g>
    </g>
   </g>
   <g id="matplotlib.axis_2">
    <g id="ytick_1">
     <g id="line2d_23">
      <defs>
       <path d="M 0 0 
L -3.5 0 
" id="m080239288e" style="stroke:#000000;stroke-width:0.8;"/>
      </defs>
      <g>
       <use style="stroke:#000000;stroke-width:0.8;" x="51.187488" xlink:href="#m080239288e" y="71.988308"/>
      </g>
     </g>
     <g id="text_5">
      <!-- $10^{-10}$ -->
      <defs>
       <path d="M 65.90625 23 
C 67.59375 23 69.40625 23 69.40625 25 
C 69.40625 27 67.59375 27 65.90625 27 
L 11.796875 27 
C 10.09375 27 8.296875 27 8.296875 25 
C 8.296875 23 10.09375 23 11.796875 23 
z
" id="CMSY10-0"/>
      </defs>
      <g transform="translate(20.055677 75.447557)scale(0.1 -0.1)">
       <use transform="scale(0.996264)" xlink:href="#CMR17-49"/>
       <use transform="translate(45.690477 0)scale(0.996264)" xlink:href="#CMR17-48"/>
       <use transform="translate(91.380954 36.153639)scale(0.697382)" xlink:href="#CMSY10-0"/>
       <use transform="translate(145.621947 36.153639)scale(0.697382)" xlink:href="#CMR17-49"/>
       <use transform="translate(177.605129 36.153639)scale(0.697382)" xlink:href="#CMR17-48"/>
      </g>
     </g>
    </g>
    <g id="ytick_2">
     <g id="line2d_24">
      <g>
       <use style="stroke:#000000;stroke-width:0.8;" x="51.187488" xlink:href="#m080239288e" y="48.627893"/>
      </g>
     </g>
     <g id="text_6">
      <!-- $10^{-5}$ -->
      <defs>
       <path d="M 11.40625 57.6875 
C 12.40625 57.28125 16.5 56 20.703125 56 
C 30 56 35.09375 61.109375 38 64.0625 
C 38 64.953125 38 65.5 37.40625 65.5 
C 37.296875 65.5 37.09375 65.5 36.296875 65.046875 
C 32.796875 63.40625 28.703125 62.078125 23.703125 62.078125 
C 20.703125 62.078125 16.203125 62.484375 11.296875 64.671875 
C 10.203125 65.171875 10 65.171875 9.90625 65.171875 
C 9.40625 65.171875 9.296875 65.0625 9.296875 63.078125 
L 9.296875 34.421875 
C 9.296875 32.640625 9.296875 32.140625 10.296875 32.140625 
C 10.796875 32.140625 11 32.34375 11.5 33.03125 
C 14.703125 37.515625 19.09375 39.40625 24.09375 39.40625 
C 27.59375 39.40625 35.09375 37.21875 35.09375 20.140625 
C 35.09375 16.953125 35.09375 11.171875 32.09375 6.578125 
C 29.59375 2.484375 25.703125 0.390625 21.40625 0.390625 
C 14.796875 0.390625 8.09375 5 6.296875 12.71875 
C 6.703125 12.609375 7.5 12.421875 7.90625 12.421875 
C 9.203125 12.421875 11.703125 13.125 11.703125 16.21875 
C 11.703125 18.90625 9.796875 20 7.90625 20 
C 5.59375 20 4.09375 18.59375 4.09375 15.796875 
C 4.09375 7.09375 11 -2 21.59375 -2 
C 31.90625 -2 41.703125 6.875 41.703125 19.75 
C 41.703125 31.71875 33.90625 41 24.203125 41 
C 19.09375 41 14.796875 39.109375 11.40625 35.53125 
z
" id="CMR17-53"/>
      </defs>
      <g transform="translate(24.026914 52.087142)scale(0.1 -0.1)">
       <use transform="scale(0.996264)" xlink:href="#CMR17-49"/>
       <use transform="translate(45.690477 0)scale(0.996264)" xlink:href="#CMR17-48"/>
       <use transform="translate(91.380954 36.153639)scale(0.697382)" xlink:href="#CMSY10-0"/>
       <use transform="translate(145.621947 36.153639)scale(0.697382)" xlink:href="#CMR17-53"/>
      </g>
     </g>
    </g>
    <g id="ytick_3">
     <g id="line2d_25">
      <g>
       <use style="stroke:#000000;stroke-width:0.8;" x="51.187488" xlink:href="#m080239288e" y="25.267478"/>
      </g>
     </g>
     <g id="text_7">
      <!-- $10^{0}$ -->
      <g transform="translate(30.25358 28.726728)scale(0.1 -0.1)">
       <use transform="scale(0.996264)" xlink:href="#CMR17-49"/>
       <use transform="translate(45.690477 0)scale(0.996264)" xlink:href="#CMR17-48"/>
       <use transform="translate(91.380954 36.153639)scale(0.697382)" xlink:href="#CMR17-48"/>
      </g>
     </g>
    </g>
    <g id="text_8">
     <!-- singular value -->
     <g transform="translate(14.118498 78.658003)rotate(-90)scale(0.1 -0.1)">
      <use transform="scale(0.996264)" xlink:href="#CMSS17-115"/>
      <use transform="translate(35.913542 0)scale(0.996264)" xlink:href="#CMSS17-105"/>
      <use transform="translate(58.094265 0)scale(0.996264)" xlink:href="#CMSS17-110"/>
      <use transform="translate(106.299208 0)scale(0.996264)" xlink:href="#CMSS17-103"/>
      <use transform="translate(153.142832 0)scale(0.996264)" xlink:href="#CMSS17-117"/>
      <use transform="translate(201.347775 0)scale(0.996264)" xlink:href="#CMSS17-108"/>
      <use transform="translate(223.528498 0)scale(0.996264)" xlink:href="#CMSS17-97"/>
      <use transform="translate(265.847965 0)scale(0.996264)" xlink:href="#CMSS17-114"/>
      <use transform="translate(328.98685 0)scale(0.996264)" xlink:href="#CMSS17-118"/>
      <use transform="translate(371.986992 0)scale(0.996264)" xlink:href="#CMSS17-97"/>
      <use transform="translate(416.908912 0)scale(0.996264)" xlink:href="#CMSS17-108"/>
      <use transform="translate(439.089635 0)scale(0.996264)" xlink:href="#CMSS17-117"/>
      <use transform="translate(487.294578 0)scale(0.996264)" xlink:href="#CMSS17-101"/>
     </g>
    </g>
   </g>
   <g id="line2d_26">
    <defs>
     <path d="M 0 2.5 
C 0.663008 2.5 1.29895 2.236584 1.767767 1.767767 
C 2.236584 1.29895 2.5 0.663008 2.5 0 
C 2.5 -0.663008 2.236584 -1.29895 1.767767 -1.767767 
C 1.29895 -2.236584 0.663008 -2.5 0 -2.5 
C -0.663008 -2.5 -1.29895 -2.236584 -1.767767 -1.767767 
C -2.236584 -1.29895 -2.5 -0.663008 -2.5 0 
C -2.5 0.663008 -2.236584 1.29895 -1.767767 1.767767 
C -1.29895 2.236584 -0.663008 2.5 0 2.5 
z
" id="m9918034a19" style="stroke:#000000;stroke-width:0.1;"/>
    </defs>
    <g clip-path="url(#pe070b2f18d)">
     <use style="fill-opacity:0;stroke:#000000;stroke-width:0.1;" x="136.671672" xlink:href="#m9918034a19" y="43.429891"/>
     <use style="fill-opacity:0;stroke:#000000;stroke-width:0.1;" x="137.873395" xlink:href="#m9918034a19" y="45.248485"/>
     <use style="fill-opacity:0;stroke:#000000;stroke-width:0.1;" x="139.02169" xlink:href="#m9918034a19" y="47.085081"/>
     <use style="fill-opacity:0;stroke:#000000;stroke-width:0.1;" x="140.121106" xlink:href="#m9918034a19" y="48.98994"/>
     <use style="fill-opacity:0;stroke:#000000;stroke-width:0.1;" x="141.175635" xlink:href="#m9918034a19" y="50.888632"/>
     <use style="fill-opacity:0;stroke:#000000;stroke-width:0.1;" x="142.188799" xlink:href="#m9918034a19" y="52.779556"/>
     <use style="fill-opacity:0;stroke:#000000;stroke-width:0.1;" x="143.163722" xlink:href="#m9918034a19" y="54.72623"/>
     <use style="fill-opacity:0;stroke:#000000;stroke-width:0.1;" x="144.103184" xlink:href="#m9918034a19" y="56.701537"/>
     <use style="fill-opacity:0;stroke:#000000;stroke-width:0.1;" x="145.009677" xlink:href="#m9918034a19" y="58.661154"/>
     <use style="fill-opacity:0;stroke:#000000;stroke-width:0.1;" x="145.885434" xlink:href="#m9918034a19" y="60.638928"/>
     <use style="fill-opacity:0;stroke:#000000;stroke-width:0.1;" x="146.732473" xlink:href="#m9918034a19" y="62.665"/>
     <use style="fill-opacity:0;stroke:#000000;stroke-width:0.1;" x="147.552618" xlink:href="#m9918034a19" y="64.706029"/>
     <use style="fill-opacity:0;stroke:#000000;stroke-width:0.1;" x="148.347523" xlink:href="#m9918034a19" y="66.738379"/>
     <use style="fill-opacity:0;stroke:#000000;stroke-width:0.1;" x="149.118696" xlink:href="#m9918034a19" y="68.789844"/>
     <use style="fill-opacity:0;stroke:#000000;stroke-width:0.1;" x="149.867513" xlink:href="#m9918034a19" y="70.881397"/>
     <use style="fill-opacity:0;stroke:#000000;stroke-width:0.1;" x="150.595233" xlink:href="#m9918034a19" y="72.98877"/>
     <use style="fill-opacity:0;stroke:#000000;stroke-width:0.1;" x="151.303014" xlink:href="#m9918034a19" y="75.073991"/>
     <use style="fill-opacity:0;stroke:#000000;stroke-width:0.1;" x="151.991918" xlink:href="#m9918034a19" y="77.02268"/>
     <use style="fill-opacity:0;stroke:#000000;stroke-width:0.1;" x="152.662927" xlink:href="#m9918034a19" y="78.078233"/>
     <use style="fill-opacity:0;stroke:#000000;stroke-width:0.1;" x="153.316946" xlink:href="#m9918034a19" y="79.063974"/>
     <use style="fill-opacity:0;stroke:#000000;stroke-width:0.1;" x="153.954815" xlink:href="#m9918034a19" y="79.974055"/>
     <use style="fill-opacity:0;stroke:#000000;stroke-width:0.1;" x="154.577312" xlink:href="#m9918034a19" y="80.714155"/>
     <use style="fill-opacity:0;stroke:#000000;stroke-width:0.1;" x="155.185161" xlink:href="#m9918034a19" y="81.364993"/>
     <use style="fill-opacity:0;stroke:#000000;stroke-width:0.1;" x="155.779035" xlink:href="#m9918034a19" y="82.00976"/>
     <use style="fill-opacity:0;stroke:#000000;stroke-width:0.1;" x="156.359562" xlink:href="#m9918034a19" y="82.829602"/>
     <use style="fill-opacity:0;stroke:#000000;stroke-width:0.1;" x="156.927329" xlink:href="#m9918034a19" y="83.363894"/>
     <use style="fill-opacity:0;stroke:#000000;stroke-width:0.1;" x="157.482886" xlink:href="#m9918034a19" y="84.063605"/>
     <use style="fill-opacity:0;stroke:#000000;stroke-width:0.1;" x="158.026745" xlink:href="#m9918034a19" y="84.582142"/>
     <use style="fill-opacity:0;stroke:#000000;stroke-width:0.1;" x="158.559391" xlink:href="#m9918034a19" y="85.179186"/>
     <use style="fill-opacity:0;stroke:#000000;stroke-width:0.1;" x="159.081274" xlink:href="#m9918034a19" y="85.924624"/>
     <use style="fill-opacity:0;stroke:#000000;stroke-width:0.1;" x="159.592823" xlink:href="#m9918034a19" y="85.924624"/>
     <use style="fill-opacity:0;stroke:#000000;stroke-width:0.1;" x="160.094439" xlink:href="#m9918034a19" y="85.924624"/>
     <use style="fill-opacity:0;stroke:#000000;stroke-width:0.1;" x="160.586499" xlink:href="#m9918034a19" y="85.924624"/>
     <use style="fill-opacity:0;stroke:#000000;stroke-width:0.1;" x="161.069361" xlink:href="#m9918034a19" y="85.924624"/>
     <use style="fill-opacity:0;stroke:#000000;stroke-width:0.1;" x="161.543363" xlink:href="#m9918034a19" y="85.924624"/>
     <use style="fill-opacity:0;stroke:#000000;stroke-width:0.1;" x="162.008824" xlink:href="#m9918034a19" y="85.924624"/>
     <use style="fill-opacity:0;stroke:#000000;stroke-width:0.1;" x="162.466046" xlink:href="#m9918034a19" y="85.924624"/>
     <use style="fill-opacity:0;stroke:#000000;stroke-width:0.1;" x="162.915316" xlink:href="#m9918034a19" y="85.924624"/>
     <use style="fill-opacity:0;stroke:#000000;stroke-width:0.1;" x="163.356906" xlink:href="#m9918034a19" y="85.924624"/>
     <use style="fill-opacity:0;stroke:#000000;stroke-width:0.1;" x="163.791074" xlink:href="#m9918034a19" y="85.924624"/>
     <use style="fill-opacity:0;stroke:#000000;stroke-width:0.1;" x="164.218065" xlink:href="#m9918034a19" y="85.924624"/>
     <use style="fill-opacity:0;stroke:#000000;stroke-width:0.1;" x="164.638113" xlink:href="#m9918034a19" y="85.924624"/>
     <use style="fill-opacity:0;stroke:#000000;stroke-width:0.1;" x="165.05144" xlink:href="#m9918034a19" y="85.924624"/>
     <use style="fill-opacity:0;stroke:#000000;stroke-width:0.1;" x="165.458257" xlink:href="#m9918034a19" y="85.924624"/>
     <use style="fill-opacity:0;stroke:#000000;stroke-width:0.1;" x="165.858767" xlink:href="#m9918034a19" y="85.924624"/>
     <use style="fill-opacity:0;stroke:#000000;stroke-width:0.1;" x="166.253162" xlink:href="#m9918034a19" y="85.924624"/>
     <use style="fill-opacity:0;stroke:#000000;stroke-width:0.1;" x="166.641626" xlink:href="#m9918034a19" y="85.924624"/>
     <use style="fill-opacity:0;stroke:#000000;stroke-width:0.1;" x="167.024335" xlink:href="#m9918034a19" y="85.924624"/>
     <use style="fill-opacity:0;stroke:#000000;stroke-width:0.1;" x="167.401457" xlink:href="#m9918034a19" y="85.924624"/>
     <use style="fill-opacity:0;stroke:#000000;stroke-width:0.1;" x="167.773152" xlink:href="#m9918034a19" y="85.924624"/>
     <use style="fill-opacity:0;stroke:#000000;stroke-width:0.1;" x="168.139575" xlink:href="#m9918034a19" y="85.924624"/>
     <use style="fill-opacity:0;stroke:#000000;stroke-width:0.1;" x="168.500873" xlink:href="#m9918034a19" y="85.924624"/>
     <use style="fill-opacity:0;stroke:#000000;stroke-width:0.1;" x="168.857187" xlink:href="#m9918034a19" y="85.924624"/>
     <use style="fill-opacity:0;stroke:#000000;stroke-width:0.1;" x="169.208654" xlink:href="#m9918034a19" y="85.924624"/>
     <use style="fill-opacity:0;stroke:#000000;stroke-width:0.1;" x="169.555402" xlink:href="#m9918034a19" y="85.924624"/>
     <use style="fill-opacity:0;stroke:#000000;stroke-width:0.1;" x="169.897558" xlink:href="#m9918034a19" y="85.924624"/>
     <use style="fill-opacity:0;stroke:#000000;stroke-width:0.1;" x="170.235241" xlink:href="#m9918034a19" y="85.924624"/>
     <use style="fill-opacity:0;stroke:#000000;stroke-width:0.1;" x="170.568566" xlink:href="#m9918034a19" y="85.924624"/>
     <use style="fill-opacity:0;stroke:#000000;stroke-width:0.1;" x="170.897646" xlink:href="#m9918034a19" y="85.924624"/>
     <use style="fill-opacity:0;stroke:#000000;stroke-width:0.1;" x="171.222586" xlink:href="#m9918034a19" y="85.924624"/>
     <use style="fill-opacity:0;stroke:#000000;stroke-width:0.1;" x="171.543489" xlink:href="#m9918034a19" y="85.924624"/>
     <use style="fill-opacity:0;stroke:#000000;stroke-width:0.1;" x="171.860454" xlink:href="#m9918034a19" y="85.924624"/>
     <use style="fill-opacity:0;stroke:#000000;stroke-width:0.1;" x="172.173578" xlink:href="#m9918034a19" y="85.924624"/>
     <use style="fill-opacity:0;stroke:#000000;stroke-width:0.1;" x="172.482952" xlink:href="#m9918034a19" y="85.924624"/>
     <use style="fill-opacity:0;stroke:#000000;stroke-width:0.1;" x="172.788664" xlink:href="#m9918034a19" y="85.924624"/>
     <use style="fill-opacity:0;stroke:#000000;stroke-width:0.1;" x="173.0908" xlink:href="#m9918034a19" y="85.924624"/>
     <use style="fill-opacity:0;stroke:#000000;stroke-width:0.1;" x="173.389444" xlink:href="#m9918034a19" y="85.924624"/>
     <use style="fill-opacity:0;stroke:#000000;stroke-width:0.1;" x="173.684674" xlink:href="#m9918034a19" y="85.924624"/>
     <use style="fill-opacity:0;stroke:#000000;stroke-width:0.1;" x="173.976568" xlink:href="#m9918034a19" y="85.924624"/>
     <use style="fill-opacity:0;stroke:#000000;stroke-width:0.1;" x="174.265201" xlink:href="#m9918034a19" y="85.924624"/>
     <use style="fill-opacity:0;stroke:#000000;stroke-width:0.1;" x="174.550645" xlink:href="#m9918034a19" y="85.924624"/>
     <use style="fill-opacity:0;stroke:#000000;stroke-width:0.1;" x="174.832969" xlink:href="#m9918034a19" y="85.924624"/>
     <use style="fill-opacity:0;stroke:#000000;stroke-width:0.1;" x="175.11224" xlink:href="#m9918034a19" y="85.924624"/>
     <use style="fill-opacity:0;stroke:#000000;stroke-width:0.1;" x="175.388525" xlink:href="#m9918034a19" y="85.924624"/>
     <use style="fill-opacity:0;stroke:#000000;stroke-width:0.1;" x="175.661886" xlink:href="#m9918034a19" y="85.924624"/>
     <use style="fill-opacity:0;stroke:#000000;stroke-width:0.1;" x="175.932385" xlink:href="#m9918034a19" y="85.924624"/>
     <use style="fill-opacity:0;stroke:#000000;stroke-width:0.1;" x="176.20008" xlink:href="#m9918034a19" y="85.924624"/>
     <use style="fill-opacity:0;stroke:#000000;stroke-width:0.1;" x="176.46503" xlink:href="#m9918034a19" y="85.924624"/>
     <use style="fill-opacity:0;stroke:#000000;stroke-width:0.1;" x="176.72729" xlink:href="#m9918034a19" y="85.924624"/>
     <use style="fill-opacity:0;stroke:#000000;stroke-width:0.1;" x="176.986914" xlink:href="#m9918034a19" y="85.924624"/>
     <use style="fill-opacity:0;stroke:#000000;stroke-width:0.1;" x="177.243955" xlink:href="#m9918034a19" y="85.924624"/>
     <use style="fill-opacity:0;stroke:#000000;stroke-width:0.1;" x="177.498463" xlink:href="#m9918034a19" y="85.924624"/>
     <use style="fill-opacity:0;stroke:#000000;stroke-width:0.1;" x="177.750488" xlink:href="#m9918034a19" y="85.924624"/>
     <use style="fill-opacity:0;stroke:#000000;stroke-width:0.1;" x="178.000078" xlink:href="#m9918034a19" y="85.924624"/>
     <use style="fill-opacity:0;stroke:#000000;stroke-width:0.1;" x="178.24728" xlink:href="#m9918034a19" y="85.924624"/>
     <use style="fill-opacity:0;stroke:#000000;stroke-width:0.1;" x="178.492138" xlink:href="#m9918034a19" y="85.924624"/>
     <use style="fill-opacity:0;stroke:#000000;stroke-width:0.1;" x="178.734698" xlink:href="#m9918034a19" y="85.924624"/>
     <use style="fill-opacity:0;stroke:#000000;stroke-width:0.1;" x="178.975001" xlink:href="#m9918034a19" y="85.924624"/>
     <use style="fill-opacity:0;stroke:#000000;stroke-width:0.1;" x="179.213089" xlink:href="#m9918034a19" y="85.924624"/>
     <use style="fill-opacity:0;stroke:#000000;stroke-width:0.1;" x="179.449003" xlink:href="#m9918034a19" y="85.924624"/>
     <use style="fill-opacity:0;stroke:#000000;stroke-width:0.1;" x="179.682781" xlink:href="#m9918034a19" y="85.924624"/>
     <use style="fill-opacity:0;stroke:#000000;stroke-width:0.1;" x="179.914463" xlink:href="#m9918034a19" y="85.924624"/>
     <use style="fill-opacity:0;stroke:#000000;stroke-width:0.1;" x="180.144086" xlink:href="#m9918034a19" y="85.924624"/>
     <use style="fill-opacity:0;stroke:#000000;stroke-width:0.1;" x="180.371685" xlink:href="#m9918034a19" y="85.924624"/>
     <use style="fill-opacity:0;stroke:#000000;stroke-width:0.1;" x="180.597297" xlink:href="#m9918034a19" y="85.924624"/>
     <use style="fill-opacity:0;stroke:#000000;stroke-width:0.1;" x="180.820956" xlink:href="#m9918034a19" y="85.924624"/>
     <use style="fill-opacity:0;stroke:#000000;stroke-width:0.1;" x="181.042694" xlink:href="#m9918034a19" y="85.924624"/>
     <use style="fill-opacity:0;stroke:#000000;stroke-width:0.1;" x="181.262545" xlink:href="#m9918034a19" y="85.924624"/>
     <use style="fill-opacity:0;stroke:#000000;stroke-width:0.1;" x="181.480541" xlink:href="#m9918034a19" y="85.924624"/>
     <use style="fill-opacity:0;stroke:#000000;stroke-width:0.1;" x="181.696713" xlink:href="#m9918034a19" y="85.924624"/>
     <use style="fill-opacity:0;stroke:#000000;stroke-width:0.1;" x="181.911091" xlink:href="#m9918034a19" y="85.924624"/>
     <use style="fill-opacity:0;stroke:#000000;stroke-width:0.1;" x="182.123704" xlink:href="#m9918034a19" y="85.924624"/>
     <use style="fill-opacity:0;stroke:#000000;stroke-width:0.1;" x="182.334582" xlink:href="#m9918034a19" y="85.924624"/>
     <use style="fill-opacity:0;stroke:#000000;stroke-width:0.1;" x="182.543752" xlink:href="#m9918034a19" y="85.924624"/>
     <use style="fill-opacity:0;stroke:#000000;stroke-width:0.1;" x="182.751242" xlink:href="#m9918034a19" y="85.924624"/>
     <use style="fill-opacity:0;stroke:#000000;stroke-width:0.1;" x="182.957079" xlink:href="#m9918034a19" y="85.924624"/>
     <use style="fill-opacity:0;stroke:#000000;stroke-width:0.1;" x="183.161289" xlink:href="#m9918034a19" y="85.924624"/>
     <use style="fill-opacity:0;stroke:#000000;stroke-width:0.1;" x="183.363897" xlink:href="#m9918034a19" y="85.924624"/>
     <use style="fill-opacity:0;stroke:#000000;stroke-width:0.1;" x="183.564928" xlink:href="#m9918034a19" y="85.924624"/>
     <use style="fill-opacity:0;stroke:#000000;stroke-width:0.1;" x="183.764407" xlink:href="#m9918034a19" y="85.924624"/>
     <use style="fill-opacity:0;stroke:#000000;stroke-width:0.1;" x="183.962357" xlink:href="#m9918034a19" y="85.924624"/>
     <use style="fill-opacity:0;stroke:#000000;stroke-width:0.1;" x="184.158802" xlink:href="#m9918034a19" y="85.924624"/>
     <use style="fill-opacity:0;stroke:#000000;stroke-width:0.1;" x="184.353764" xlink:href="#m9918034a19" y="85.924624"/>
     <use style="fill-opacity:0;stroke:#000000;stroke-width:0.1;" x="184.547266" xlink:href="#m9918034a19" y="85.924624"/>
     <use style="fill-opacity:0;stroke:#000000;stroke-width:0.1;" x="184.739329" xlink:href="#m9918034a19" y="85.924624"/>
     <use style="fill-opacity:0;stroke:#000000;stroke-width:0.1;" x="184.929975" xlink:href="#m9918034a19" y="85.924624"/>
     <use style="fill-opacity:0;stroke:#000000;stroke-width:0.1;" x="185.119224" xlink:href="#m9918034a19" y="85.924624"/>
     <use style="fill-opacity:0;stroke:#000000;stroke-width:0.1;" x="185.307096" xlink:href="#m9918034a19" y="85.924624"/>
     <use style="fill-opacity:0;stroke:#000000;stroke-width:0.1;" x="185.493613" xlink:href="#m9918034a19" y="85.924624"/>
     <use style="fill-opacity:0;stroke:#000000;stroke-width:0.1;" x="185.678792" xlink:href="#m9918034a19" y="85.924624"/>
     <use style="fill-opacity:0;stroke:#000000;stroke-width:0.1;" x="185.862653" xlink:href="#m9918034a19" y="85.924624"/>
     <use style="fill-opacity:0;stroke:#000000;stroke-width:0.1;" x="186.045215" xlink:href="#m9918034a19" y="85.924624"/>
     <use style="fill-opacity:0;stroke:#000000;stroke-width:0.1;" x="186.226495" xlink:href="#m9918034a19" y="85.924624"/>
     <use style="fill-opacity:0;stroke:#000000;stroke-width:0.1;" x="186.406512" xlink:href="#m9918034a19" y="85.924624"/>
     <use style="fill-opacity:0;stroke:#000000;stroke-width:0.1;" x="186.585284" xlink:href="#m9918034a19" y="85.924624"/>
     <use style="fill-opacity:0;stroke:#000000;stroke-width:0.1;" x="186.762827" xlink:href="#m9918034a19" y="85.924624"/>
     <use style="fill-opacity:0;stroke:#000000;stroke-width:0.1;" x="186.939158" xlink:href="#m9918034a19" y="85.924624"/>
     <use style="fill-opacity:0;stroke:#000000;stroke-width:0.1;" x="187.114293" xlink:href="#m9918034a19" y="85.924624"/>
     <use style="fill-opacity:0;stroke:#000000;stroke-width:0.1;" x="187.288249" xlink:href="#m9918034a19" y="85.924624"/>
     <use style="fill-opacity:0;stroke:#000000;stroke-width:0.1;" x="187.461042" xlink:href="#m9918034a19" y="85.924624"/>
     <use style="fill-opacity:0;stroke:#000000;stroke-width:0.1;" x="187.632686" xlink:href="#m9918034a19" y="85.924624"/>
     <use style="fill-opacity:0;stroke:#000000;stroke-width:0.1;" x="187.803197" xlink:href="#m9918034a19" y="85.924624"/>
     <use style="fill-opacity:0;stroke:#000000;stroke-width:0.1;" x="187.972591" xlink:href="#m9918034a19" y="85.924624"/>
     <use style="fill-opacity:0;stroke:#000000;stroke-width:0.1;" x="188.14088" xlink:href="#m9918034a19" y="85.924624"/>
     <use style="fill-opacity:0;stroke:#000000;stroke-width:0.1;" x="188.308081" xlink:href="#m9918034a19" y="85.924624"/>
     <use style="fill-opacity:0;stroke:#000000;stroke-width:0.1;" x="188.474206" xlink:href="#m9918034a19" y="85.924624"/>
     <use style="fill-opacity:0;stroke:#000000;stroke-width:0.1;" x="188.63927" xlink:href="#m9918034a19" y="85.924624"/>
     <use style="fill-opacity:0;stroke:#000000;stroke-width:0.1;" x="188.803285" xlink:href="#m9918034a19" y="85.924624"/>
     <use style="fill-opacity:0;stroke:#000000;stroke-width:0.1;" x="188.966266" xlink:href="#m9918034a19" y="85.924624"/>
     <use style="fill-opacity:0;stroke:#000000;stroke-width:0.1;" x="189.128225" xlink:href="#m9918034a19" y="85.924624"/>
     <use style="fill-opacity:0;stroke:#000000;stroke-width:0.1;" x="189.289175" xlink:href="#m9918034a19" y="85.924624"/>
     <use style="fill-opacity:0;stroke:#000000;stroke-width:0.1;" x="189.449128" xlink:href="#m9918034a19" y="85.924624"/>
     <use style="fill-opacity:0;stroke:#000000;stroke-width:0.1;" x="189.608097" xlink:href="#m9918034a19" y="85.924624"/>
     <use style="fill-opacity:0;stroke:#000000;stroke-width:0.1;" x="189.766094" xlink:href="#m9918034a19" y="85.924624"/>
     <use style="fill-opacity:0;stroke:#000000;stroke-width:0.1;" x="189.92313" xlink:href="#m9918034a19" y="85.924624"/>
     <use style="fill-opacity:0;stroke:#000000;stroke-width:0.1;" x="190.079218" xlink:href="#m9918034a19" y="85.924624"/>
     <use style="fill-opacity:0;stroke:#000000;stroke-width:0.1;" x="190.234367" xlink:href="#m9918034a19" y="85.924624"/>
     <use style="fill-opacity:0;stroke:#000000;stroke-width:0.1;" x="190.388591" xlink:href="#m9918034a19" y="85.924624"/>
     <use style="fill-opacity:0;stroke:#000000;stroke-width:0.1;" x="190.541899" xlink:href="#m9918034a19" y="85.924624"/>
     <use style="fill-opacity:0;stroke:#000000;stroke-width:0.1;" x="190.694303" xlink:href="#m9918034a19" y="85.924624"/>
     <use style="fill-opacity:0;stroke:#000000;stroke-width:0.1;" x="190.845813" xlink:href="#m9918034a19" y="85.924624"/>
     <use style="fill-opacity:0;stroke:#000000;stroke-width:0.1;" x="190.99644" xlink:href="#m9918034a19" y="85.924624"/>
     <use style="fill-opacity:0;stroke:#000000;stroke-width:0.1;" x="191.146193" xlink:href="#m9918034a19" y="85.924624"/>
     <use style="fill-opacity:0;stroke:#000000;stroke-width:0.1;" x="191.295083" xlink:href="#m9918034a19" y="85.924624"/>
     <use style="fill-opacity:0;stroke:#000000;stroke-width:0.1;" x="191.44312" xlink:href="#m9918034a19" y="85.924624"/>
     <use style="fill-opacity:0;stroke:#000000;stroke-width:0.1;" x="191.590314" xlink:href="#m9918034a19" y="85.924624"/>
     <use style="fill-opacity:0;stroke:#000000;stroke-width:0.1;" x="191.736673" xlink:href="#m9918034a19" y="85.924624"/>
     <use style="fill-opacity:0;stroke:#000000;stroke-width:0.1;" x="191.882208" xlink:href="#m9918034a19" y="85.924624"/>
     <use style="fill-opacity:0;stroke:#000000;stroke-width:0.1;" x="192.026928" xlink:href="#m9918034a19" y="85.924624"/>
     <use style="fill-opacity:0;stroke:#000000;stroke-width:0.1;" x="192.170841" xlink:href="#m9918034a19" y="85.924624"/>
     <use style="fill-opacity:0;stroke:#000000;stroke-width:0.1;" x="192.313957" xlink:href="#m9918034a19" y="85.924624"/>
     <use style="fill-opacity:0;stroke:#000000;stroke-width:0.1;" x="192.456284" xlink:href="#m9918034a19" y="85.924624"/>
     <use style="fill-opacity:0;stroke:#000000;stroke-width:0.1;" x="192.597832" xlink:href="#m9918034a19" y="85.924624"/>
     <use style="fill-opacity:0;stroke:#000000;stroke-width:0.1;" x="192.738608" xlink:href="#m9918034a19" y="85.924624"/>
     <use style="fill-opacity:0;stroke:#000000;stroke-width:0.1;" x="192.878622" xlink:href="#m9918034a19" y="85.924624"/>
     <use style="fill-opacity:0;stroke:#000000;stroke-width:0.1;" x="193.01788" xlink:href="#m9918034a19" y="85.924624"/>
     <use style="fill-opacity:0;stroke:#000000;stroke-width:0.1;" x="193.156392" xlink:href="#m9918034a19" y="85.924624"/>
     <use style="fill-opacity:0;stroke:#000000;stroke-width:0.1;" x="193.294165" xlink:href="#m9918034a19" y="85.924624"/>
     <use style="fill-opacity:0;stroke:#000000;stroke-width:0.1;" x="193.431207" xlink:href="#m9918034a19" y="85.924624"/>
     <use style="fill-opacity:0;stroke:#000000;stroke-width:0.1;" x="193.567526" xlink:href="#m9918034a19" y="85.924624"/>
     <use style="fill-opacity:0;stroke:#000000;stroke-width:0.1;" x="193.703129" xlink:href="#m9918034a19" y="85.924624"/>
     <use style="fill-opacity:0;stroke:#000000;stroke-width:0.1;" x="193.838024" xlink:href="#m9918034a19" y="85.924624"/>
     <use style="fill-opacity:0;stroke:#000000;stroke-width:0.1;" x="193.972219" xlink:href="#m9918034a19" y="85.924624"/>
     <use style="fill-opacity:0;stroke:#000000;stroke-width:0.1;" x="194.10572" xlink:href="#m9918034a19" y="85.924624"/>
     <use style="fill-opacity:0;stroke:#000000;stroke-width:0.1;" x="194.238534" xlink:href="#m9918034a19" y="85.924624"/>
     <use style="fill-opacity:0;stroke:#000000;stroke-width:0.1;" x="194.37067" xlink:href="#m9918034a19" y="85.924624"/>
     <use style="fill-opacity:0;stroke:#000000;stroke-width:0.1;" x="194.502132" xlink:href="#m9918034a19" y="85.924624"/>
     <use style="fill-opacity:0;stroke:#000000;stroke-width:0.1;" x="194.632929" xlink:href="#m9918034a19" y="86.474082"/>
     <use style="fill-opacity:0;stroke:#000000;stroke-width:0.1;" x="194.763068" xlink:href="#m9918034a19" y="89.757344"/>
    </g>
   </g>
   <g id="patch_3">
    <path d="M 51.187488 93.688647 
L 51.187488 7.2 
" style="fill:none;stroke:#000000;stroke-linecap:square;stroke-linejoin:miter;stroke-width:0.8;"/>
   </g>
   <g id="patch_4">
    <path d="M 201.6 93.688647 
L 201.6 7.2 
" style="fill:none;stroke:#000000;stroke-linecap:square;stroke-linejoin:miter;stroke-width:0.8;"/>
   </g>
   <g id="patch_5">
    <path d="M 51.187488 93.688647 
L 201.6 93.688647 
" style="fill:none;stroke:#000000;stroke-linecap:square;stroke-linejoin:miter;stroke-width:0.8;"/>
   </g>
   <g id="patch_6">
    <path d="M 51.187488 7.2 
L 201.6 7.2 
" style="fill:none;stroke:#000000;stroke-linecap:square;stroke-linejoin:miter;stroke-width:0.8;"/>
   </g>
  </g>
 </g>
 <defs>
  <clipPath id="pe070b2f18d">
   <rect height="86.488647" width="150.412512" x="51.187488" y="7.2"/>
  </clipPath>
 </defs>
</svg>
