<?xml version="1.0" encoding="utf-8" standalone="no"?>
<!DOCTYPE svg PUBLIC "-//W3C//DTD SVG 1.1//EN"
  "http://www.w3.org/Graphics/SVG/1.1/DTD/svg11.dtd">
<!-- Created with matplotlib (https://matplotlib.org/) -->
<svg height="332.578125pt" version="1.1" viewBox="0 0 452.752345 332.578125" width="452.752345pt" xmlns="http://www.w3.org/2000/svg" xmlns:xlink="http://www.w3.org/1999/xlink">
 <defs>
  <style type="text/css">
*{stroke-linecap:butt;stroke-linejoin:round;}
  </style>
 </defs>
 <g id="figure_1">
  <g id="patch_1">
   <path d="M 0 332.578125 
L 452.752345 332.578125 
L 452.752345 0 
L 0 0 
z
" style="fill:#ffffff;"/>
  </g>
  <g id="axes_1">
   <g id="patch_2">
    <path d="M 45.478125 295 
L 210.586407 295 
L 210.586407 7.2 
L 45.478125 7.2 
z
" style="fill:#ffffff;"/>
   </g>
   <g id="PolyCollection_1">
    <path clip-path="url(#pd1f9138716)" d="M 52.983047 20.281818 
L 52.983047 20.602326 
L 72.638123 71.269107 
L 84.135606 92.494485 
L 92.293199 104.184497 
L 98.62072 112.246006 
L 103.790682 118.57625 
L 108.161822 123.906208 
L 111.948275 128.57879 
L 115.288164 132.783443 
L 118.275797 136.635883 
L 120.978439 140.212675 
L 123.445758 143.565939 
L 125.715471 146.73389 
L 127.816898 149.745234 
L 129.773279 152.618836 
L 131.603351 155.37366 
L 133.32244 158.021578 
L 134.94324 160.573154 
L 136.476386 163.037895 
L 137.930873 165.42079 
L 139.31438 167.729172 
L 140.633515 169.967154 
L 141.894002 172.140627 
L 143.100834 174.252759 
L 144.258394 176.306463 
L 145.370547 178.305845 
L 146.440723 180.252881 
L 147.471974 182.148673 
L 148.467033 183.99685 
L 149.428355 185.80016 
L 150.358153 187.558302 
L 151.258428 189.277305 
L 152.130997 190.954111 
L 152.977516 192.59193 
L 153.799495 194.19252 
L 154.598316 195.755921 
L 155.375249 197.286986 
L 156.131462 198.782028 
L 156.86803 200.246744 
L 157.585949 201.680298 
L 158.286139 203.081959 
L 158.969456 204.456236 
L 159.636694 205.802995 
L 160.288591 207.12224 
L 160.925838 208.414121 
L 161.549078 209.678938 
L 162.158914 210.922867 
L 162.75591 212.141056 
L 163.340596 213.337279 
L 163.91347 214.509652 
L 164.474999 215.659332 
L 165.025624 216.790815 
L 165.56576 217.899379 
L 166.095799 218.989845 
L 166.616112 220.060799 
L 167.12705 221.114183 
L 167.628944 222.148687 
L 168.122109 223.166479 
L 168.606844 224.166363 
L 169.083431 225.150746 
L 169.552141 226.118553 
L 170.013229 227.072437 
L 170.466939 228.007635 
L 170.913504 228.930749 
L 171.353145 229.837031 
L 171.786074 230.733462 
L 172.212492 231.615315 
L 172.632593 232.481718 
L 173.04656 233.335964 
L 173.454571 234.177329 
L 173.856795 235.009373 
L 174.253393 235.827168 
L 174.64452 236.634364 
L 175.030326 237.430365 
L 175.410953 238.21456 
L 175.786538 238.990925 
L 176.157213 239.75435 
L 176.523106 240.504193 
L 176.884337 241.249356 
L 177.241025 241.984699 
L 177.593281 242.704837 
L 177.941216 243.419004 
L 178.284932 244.126873 
L 178.624533 244.823033 
L 178.960114 245.512099 
L 179.29177 246.188529 
L 179.619592 246.862295 
L 179.943667 247.52259 
L 180.264081 248.179612 
L 180.580914 248.827737 
L 180.894246 249.466586 
L 181.204154 250.101328 
L 181.510711 250.720534 
L 181.81399 251.34064 
L 182.114059 251.950149 
L 182.410986 252.554449 
L 182.704836 253.147469 
L 182.995673 253.740605 
L 183.283556 254.321878 
L 183.568546 254.896894 
L 183.850701 255.465413 
L 184.130075 256.033324 
L 184.406724 256.588169 
L 184.6807 257.142027 
L 184.952054 257.682199 
L 185.220836 258.227362 
L 185.487094 258.758326 
L 185.750875 259.287626 
L 186.012225 259.808632 
L 186.271188 260.32108 
L 186.527808 260.83136 
L 186.782126 261.339378 
L 187.034184 261.838264 
L 187.28402 262.334576 
L 187.531675 262.821327 
L 187.777186 263.305185 
L 188.020589 263.786046 
L 188.26192 264.256747 
L 188.501215 264.724124 
L 188.738507 265.188065 
L 188.973831 265.648459 
L 189.207217 266.097918 
L 189.438698 266.543494 
L 189.668305 266.992459 
L 189.896067 267.429978 
L 190.122015 267.863266 
L 190.346177 268.292205 
L 190.56858 268.709071 
L 190.789252 269.128902 
L 191.008221 269.544026 
L 191.225512 269.954322 
L 191.44115 270.359668 
L 191.65516 270.759941 
L 191.867568 271.147092 
L 192.078396 271.536799 
L 192.287669 271.921065 
L 192.495408 272.299765 
L 192.701636 272.68091 
L 192.906376 273.048158 
L 193.109647 273.409468 
L 193.311472 273.773004 
L 193.511871 274.122117 
L 193.710863 274.473308 
L 193.908469 274.818164 
L 194.104707 275.156563 
L 194.299596 275.488381 
L 194.493155 275.813494 
L 194.685402 276.131783 
L 194.876354 276.451797 
L 195.066029 276.764837 
L 195.254443 277.062018 
L 195.441614 277.360703 
L 195.627558 277.652057 
L 195.81229 277.935961 
L 195.995826 278.212302 
L 196.178182 278.489944 
L 196.359373 278.75086 
L 196.539414 279.003879 
L 196.718318 279.257987 
L 196.896101 279.494929 
L 197.072776 279.732825 
L 197.248358 279.953277 
L 197.422858 280.165318 
L 197.596292 280.368855 
L 197.768671 280.563798 
L 197.940008 280.750059 
L 198.110317 280.927552 
L 198.279609 281.086816 
L 198.447896 281.237105 
L 198.61519 281.378349 
L 198.781503 281.501035 
L 198.946846 281.61451 
L 199.111231 281.70924 
L 199.274668 281.785133 
L 199.437169 281.85162 
L 199.598743 281.889646 
L 199.759403 281.918182 
L 199.919157 281.918182 
L 200.078016 281.899156 
L 200.23599 281.85162 
L 200.393089 281.775641 
L 200.549322 281.661856 
L 200.704699 281.529383 
L 200.85923 281.350073 
L 201.012923 281.13374 
L 201.165787 280.862098 
L 201.317832 280.545204 
L 201.469066 280.156083 
L 201.619498 279.696163 
L 201.769135 279.14895 
L 201.917987 278.480967 
L 202.066062 277.678615 
L 202.213368 276.66901 
L 202.359912 275.394602 
L 202.505703 273.690186 
L 202.650749 271.234354 
L 202.795056 267.103385 
L 202.938632 257.979513 
L 203.081485 228.244726 
L 203.081485 226.396418 
L 203.081485 226.396418 
L 202.938632 255.605356 
L 202.795056 264.546651 
L 202.650749 268.579907 
L 202.505703 270.988764 
L 202.359912 272.648376 
L 202.213368 273.897451 
L 202.066062 274.877244 
L 201.917987 275.667827 
L 201.769135 276.3132 
L 201.619498 276.852088 
L 201.469066 277.299086 
L 201.317832 277.678615 
L 201.165787 277.989346 
L 201.012923 278.248054 
L 200.85923 278.463018 
L 200.704699 278.633755 
L 200.549322 278.768897 
L 200.393089 278.877234 
L 200.23599 278.949569 
L 200.078016 278.994824 
L 199.919157 279.012936 
L 199.759403 279.012936 
L 199.598743 278.994824 
L 199.437169 278.949569 
L 199.274668 278.886271 
L 199.111231 278.814013 
L 198.946846 278.723815 
L 198.781503 278.615759 
L 198.61519 278.489944 
L 198.447896 278.355438 
L 198.279609 278.212302 
L 198.110317 278.051689 
L 197.940008 277.882625 
L 197.768671 277.696327 
L 197.596292 277.510615 
L 197.422858 277.307884 
L 197.248358 277.097079 
L 197.072776 276.878288 
L 196.896101 276.651603 
L 196.718318 276.417117 
L 196.539414 276.174927 
L 196.359373 275.92513 
L 196.178182 275.667827 
L 195.995826 275.403121 
L 195.81229 275.131116 
L 195.627558 274.851917 
L 195.441614 274.565633 
L 195.254443 274.28073 
L 195.066029 273.980561 
L 194.876354 273.68191 
L 194.685402 273.368299 
L 194.493155 273.056345 
L 194.299596 272.737888 
L 194.104707 272.41304 
L 193.908469 272.081917 
L 193.710863 271.744632 
L 193.511871 271.409265 
L 193.311472 271.059959 
L 193.109647 270.712709 
L 192.906376 270.351846 
L 192.701636 269.993177 
L 192.495408 269.628948 
L 192.287669 269.259275 
L 192.078396 268.876645 
L 191.867568 268.496481 
L 191.65516 268.111219 
L 191.44115 267.720976 
L 191.225512 267.325866 
L 191.008221 266.926003 
L 190.789252 266.521501 
L 190.56858 266.112474 
L 190.346177 265.699034 
L 190.122015 265.281292 
L 189.896067 264.85936 
L 189.668305 264.426274 
L 189.438698 263.996344 
L 189.207217 263.55558 
L 188.973831 263.111166 
L 188.738507 262.663207 
L 188.501215 262.211809 
L 188.26192 261.757076 
L 188.020589 261.292403 
L 187.777186 260.824705 
L 187.531675 260.347479 
L 187.28402 259.867534 
L 187.034184 259.384965 
L 186.782126 258.899868 
L 186.527808 258.399561 
L 186.271188 257.90346 
L 186.012225 257.398935 
L 185.750875 256.886233 
L 185.487094 256.365605 
L 185.220836 255.843412 
L 184.952054 255.319738 
L 184.6807 254.782644 
L 184.406724 254.24444 
L 184.130075 253.693406 
L 183.850701 253.141626 
L 183.568546 252.58338 
L 183.283556 252.0189 
L 182.995673 251.448412 
L 182.704836 250.87214 
L 182.410986 250.284738 
L 182.114059 249.692103 
L 181.81399 249.094448 
L 181.510711 248.486584 
L 181.204154 247.874229 
L 180.894246 247.257585 
L 180.580914 246.626385 
L 180.264081 245.991513 
L 179.943667 245.348036 
L 179.619592 244.70137 
L 179.29177 244.041679 
L 178.960114 243.374424 
L 178.624533 242.699942 
L 178.284932 242.013724 
L 177.941216 241.321044 
L 177.593281 240.617496 
L 177.241025 239.908227 
L 176.884337 239.184316 
L 176.523106 238.455509 
L 176.157213 237.713096 
L 175.786538 236.966578 
L 175.410953 236.203071 
L 175.030326 235.432 
L 174.64452 234.649515 
L 174.253393 233.856196 
L 173.856795 233.052611 
L 173.454571 232.235216 
L 173.04656 231.404729 
L 172.632593 230.565836 
L 172.212492 229.711196 
L 171.786074 228.845527 
L 171.353145 227.96567 
L 170.913504 227.068681 
L 170.466939 226.162924 
L 170.013229 225.238076 
L 169.552141 224.302404 
L 169.083431 223.349586 
L 168.606844 222.380674 
L 168.122109 221.393286 
L 167.628944 220.39195 
L 167.12705 219.37434 
L 166.616112 218.335094 
L 166.095799 217.278819 
L 165.56576 216.203611 
L 165.025624 215.110824 
L 164.474999 213.995752 
L 163.91347 212.860009 
L 163.340596 211.705164 
L 162.75591 210.52422 
L 162.158914 209.324718 
L 161.549078 208.097341 
L 160.925838 206.846955 
L 160.288591 205.57291 
L 159.636694 204.27216 
L 158.969456 202.942032 
L 158.286139 201.5851 
L 157.585949 200.201459 
L 156.86803 198.78668 
L 156.131462 197.339165 
L 155.375249 195.862077 
L 154.598316 194.349814 
L 153.799495 192.803831 
L 152.977516 191.221556 
L 152.130997 189.600913 
L 151.258428 187.944172 
L 150.358153 186.246093 
L 149.428355 184.505962 
L 148.467033 182.723468 
L 147.471974 180.893527 
L 146.440723 179.017036 
L 145.370547 177.090375 
L 144.258394 175.112388 
L 143.100834 173.079561 
L 141.894002 170.987946 
L 140.633515 168.836155 
L 139.31438 166.61829 
L 137.930873 164.331376 
L 136.476386 161.970017 
L 134.94324 159.527048 
L 133.32244 156.998735 
L 131.603351 154.372306 
L 129.773279 151.640804 
L 127.816898 148.790383 
L 125.715471 145.803423 
L 123.445758 142.659472 
L 120.978439 139.332127 
L 118.275797 135.781157 
L 115.288164 131.956122 
L 111.948275 127.78005 
L 108.161822 123.138187 
L 103.790682 117.842282 
L 98.62072 111.550191 
L 92.293199 103.534447 
L 84.135606 91.905935 
L 72.638123 70.777125 
L 52.983047 20.281818 
z
" style="fill:#1f77b4;"/>
   </g>
   <g id="matplotlib.axis_1">
    <g id="xtick_1">
     <g id="line2d_1">
      <defs>
       <path d="M 0 0 
L 0 3.5 
" id="m8ed32245a8" style="stroke:#000000;stroke-width:0.8;"/>
      </defs>
      <g>
       <use style="stroke:#000000;stroke-width:0.8;" x="52.983047" xlink:href="#m8ed32245a8" y="295"/>
      </g>
     </g>
     <g id="text_1">
      <!-- $\mathdefault{10^{0}}$ -->
      <defs>
       <path d="M 12.40625 8.296875 
L 28.515625 8.296875 
L 28.515625 63.921875 
L 10.984375 60.40625 
L 10.984375 69.390625 
L 28.421875 72.90625 
L 38.28125 72.90625 
L 38.28125 8.296875 
L 54.390625 8.296875 
L 54.390625 0 
L 12.40625 0 
z
" id="DejaVuSans-49"/>
       <path d="M 31.78125 66.40625 
Q 24.171875 66.40625 20.328125 58.90625 
Q 16.5 51.421875 16.5 36.375 
Q 16.5 21.390625 20.328125 13.890625 
Q 24.171875 6.390625 31.78125 6.390625 
Q 39.453125 6.390625 43.28125 13.890625 
Q 47.125 21.390625 47.125 36.375 
Q 47.125 51.421875 43.28125 58.90625 
Q 39.453125 66.40625 31.78125 66.40625 
z
M 31.78125 74.21875 
Q 44.046875 74.21875 50.515625 64.515625 
Q 56.984375 54.828125 56.984375 36.375 
Q 56.984375 17.96875 50.515625 8.265625 
Q 44.046875 -1.421875 31.78125 -1.421875 
Q 19.53125 -1.421875 13.0625 8.265625 
Q 6.59375 17.96875 6.59375 36.375 
Q 6.59375 54.828125 13.0625 64.515625 
Q 19.53125 74.21875 31.78125 74.21875 
z
" id="DejaVuSans-48"/>
      </defs>
      <g transform="translate(44.183047 309.598438)scale(0.1 -0.1)">
       <use transform="translate(0 0.765625)" xlink:href="#DejaVuSans-49"/>
       <use transform="translate(63.623047 0.765625)" xlink:href="#DejaVuSans-48"/>
       <use transform="translate(128.203125 39.046875)scale(0.7)" xlink:href="#DejaVuSans-48"/>
      </g>
     </g>
    </g>
    <g id="xtick_2">
     <g id="line2d_2">
      <g>
       <use style="stroke:#000000;stroke-width:0.8;" x="118.275797" xlink:href="#m8ed32245a8" y="295"/>
      </g>
     </g>
     <g id="text_2">
      <!-- $\mathdefault{10^{1}}$ -->
      <g transform="translate(109.475797 309.598438)scale(0.1 -0.1)">
       <use transform="translate(0 0.684375)" xlink:href="#DejaVuSans-49"/>
       <use transform="translate(63.623047 0.684375)" xlink:href="#DejaVuSans-48"/>
       <use transform="translate(128.203125 38.965625)scale(0.7)" xlink:href="#DejaVuSans-49"/>
      </g>
     </g>
    </g>
    <g id="xtick_3">
     <g id="line2d_3">
      <g>
       <use style="stroke:#000000;stroke-width:0.8;" x="183.568546" xlink:href="#m8ed32245a8" y="295"/>
      </g>
     </g>
     <g id="text_3">
      <!-- $\mathdefault{10^{2}}$ -->
      <defs>
       <path d="M 19.1875 8.296875 
L 53.609375 8.296875 
L 53.609375 0 
L 7.328125 0 
L 7.328125 8.296875 
Q 12.9375 14.109375 22.625 23.890625 
Q 32.328125 33.6875 34.8125 36.53125 
Q 39.546875 41.84375 41.421875 45.53125 
Q 43.3125 49.21875 43.3125 52.78125 
Q 43.3125 58.59375 39.234375 62.25 
Q 35.15625 65.921875 28.609375 65.921875 
Q 23.96875 65.921875 18.8125 64.3125 
Q 13.671875 62.703125 7.8125 59.421875 
L 7.8125 69.390625 
Q 13.765625 71.78125 18.9375 73 
Q 24.125 74.21875 28.421875 74.21875 
Q 39.75 74.21875 46.484375 68.546875 
Q 53.21875 62.890625 53.21875 53.421875 
Q 53.21875 48.921875 51.53125 44.890625 
Q 49.859375 40.875 45.40625 35.40625 
Q 44.1875 33.984375 37.640625 27.21875 
Q 31.109375 20.453125 19.1875 8.296875 
z
" id="DejaVuSans-50"/>
      </defs>
      <g transform="translate(174.768546 309.598438)scale(0.1 -0.1)">
       <use transform="translate(0 0.765625)" xlink:href="#DejaVuSans-49"/>
       <use transform="translate(63.623047 0.765625)" xlink:href="#DejaVuSans-48"/>
       <use transform="translate(128.203125 39.046875)scale(0.7)" xlink:href="#DejaVuSans-50"/>
      </g>
     </g>
    </g>
    <g id="xtick_4">
     <g id="line2d_4">
      <defs>
       <path d="M 0 0 
L 0 2 
" id="m10bf6ab4be" style="stroke:#000000;stroke-width:0.6;"/>
      </defs>
      <g>
       <use style="stroke:#000000;stroke-width:0.6;" x="46.655526" xlink:href="#m10bf6ab4be" y="295"/>
      </g>
     </g>
    </g>
    <g id="xtick_5">
     <g id="line2d_5">
      <g>
       <use style="stroke:#000000;stroke-width:0.6;" x="49.995415" xlink:href="#m10bf6ab4be" y="295"/>
      </g>
     </g>
    </g>
    <g id="xtick_6">
     <g id="line2d_6">
      <g>
       <use style="stroke:#000000;stroke-width:0.6;" x="72.638123" xlink:href="#m10bf6ab4be" y="295"/>
      </g>
     </g>
    </g>
    <g id="xtick_7">
     <g id="line2d_7">
      <g>
       <use style="stroke:#000000;stroke-width:0.6;" x="84.135606" xlink:href="#m10bf6ab4be" y="295"/>
      </g>
     </g>
    </g>
    <g id="xtick_8">
     <g id="line2d_8">
      <g>
       <use style="stroke:#000000;stroke-width:0.6;" x="92.293199" xlink:href="#m10bf6ab4be" y="295"/>
      </g>
     </g>
    </g>
    <g id="xtick_9">
     <g id="line2d_9">
      <g>
       <use style="stroke:#000000;stroke-width:0.6;" x="98.62072" xlink:href="#m10bf6ab4be" y="295"/>
      </g>
     </g>
    </g>
    <g id="xtick_10">
     <g id="line2d_10">
      <g>
       <use style="stroke:#000000;stroke-width:0.6;" x="103.790682" xlink:href="#m10bf6ab4be" y="295"/>
      </g>
     </g>
    </g>
    <g id="xtick_11">
     <g id="line2d_11">
      <g>
       <use style="stroke:#000000;stroke-width:0.6;" x="108.161822" xlink:href="#m10bf6ab4be" y="295"/>
      </g>
     </g>
    </g>
    <g id="xtick_12">
     <g id="line2d_12">
      <g>
       <use style="stroke:#000000;stroke-width:0.6;" x="111.948275" xlink:href="#m10bf6ab4be" y="295"/>
      </g>
     </g>
    </g>
    <g id="xtick_13">
     <g id="line2d_13">
      <g>
       <use style="stroke:#000000;stroke-width:0.6;" x="115.288164" xlink:href="#m10bf6ab4be" y="295"/>
      </g>
     </g>
    </g>
    <g id="xtick_14">
     <g id="line2d_14">
      <g>
       <use style="stroke:#000000;stroke-width:0.6;" x="137.930873" xlink:href="#m10bf6ab4be" y="295"/>
      </g>
     </g>
    </g>
    <g id="xtick_15">
     <g id="line2d_15">
      <g>
       <use style="stroke:#000000;stroke-width:0.6;" x="149.428355" xlink:href="#m10bf6ab4be" y="295"/>
      </g>
     </g>
    </g>
    <g id="xtick_16">
     <g id="line2d_16">
      <g>
       <use style="stroke:#000000;stroke-width:0.6;" x="157.585949" xlink:href="#m10bf6ab4be" y="295"/>
      </g>
     </g>
    </g>
    <g id="xtick_17">
     <g id="line2d_17">
      <g>
       <use style="stroke:#000000;stroke-width:0.6;" x="163.91347" xlink:href="#m10bf6ab4be" y="295"/>
      </g>
     </g>
    </g>
    <g id="xtick_18">
     <g id="line2d_18">
      <g>
       <use style="stroke:#000000;stroke-width:0.6;" x="169.083431" xlink:href="#m10bf6ab4be" y="295"/>
      </g>
     </g>
    </g>
    <g id="xtick_19">
     <g id="line2d_19">
      <g>
       <use style="stroke:#000000;stroke-width:0.6;" x="173.454571" xlink:href="#m10bf6ab4be" y="295"/>
      </g>
     </g>
    </g>
    <g id="xtick_20">
     <g id="line2d_20">
      <g>
       <use style="stroke:#000000;stroke-width:0.6;" x="177.241025" xlink:href="#m10bf6ab4be" y="295"/>
      </g>
     </g>
    </g>
    <g id="xtick_21">
     <g id="line2d_21">
      <g>
       <use style="stroke:#000000;stroke-width:0.6;" x="180.580914" xlink:href="#m10bf6ab4be" y="295"/>
      </g>
     </g>
    </g>
    <g id="xtick_22">
     <g id="line2d_22">
      <g>
       <use style="stroke:#000000;stroke-width:0.6;" x="203.223622" xlink:href="#m10bf6ab4be" y="295"/>
      </g>
     </g>
    </g>
    <g id="text_4">
     <!-- sample frequency -->
     <defs>
      <path d="M 44.28125 53.078125 
L 44.28125 44.578125 
Q 40.484375 46.53125 36.375 47.5 
Q 32.28125 48.484375 27.875 48.484375 
Q 21.1875 48.484375 17.84375 46.4375 
Q 14.5 44.390625 14.5 40.28125 
Q 14.5 37.15625 16.890625 35.375 
Q 19.28125 33.59375 26.515625 31.984375 
L 29.59375 31.296875 
Q 39.15625 29.25 43.1875 25.515625 
Q 47.21875 21.78125 47.21875 15.09375 
Q 47.21875 7.46875 41.1875 3.015625 
Q 35.15625 -1.421875 24.609375 -1.421875 
Q 20.21875 -1.421875 15.453125 -0.5625 
Q 10.6875 0.296875 5.421875 2 
L 5.421875 11.28125 
Q 10.40625 8.6875 15.234375 7.390625 
Q 20.0625 6.109375 24.8125 6.109375 
Q 31.15625 6.109375 34.5625 8.28125 
Q 37.984375 10.453125 37.984375 14.40625 
Q 37.984375 18.0625 35.515625 20.015625 
Q 33.0625 21.96875 24.703125 23.78125 
L 21.578125 24.515625 
Q 13.234375 26.265625 9.515625 29.90625 
Q 5.8125 33.546875 5.8125 39.890625 
Q 5.8125 47.609375 11.28125 51.796875 
Q 16.75 56 26.8125 56 
Q 31.78125 56 36.171875 55.265625 
Q 40.578125 54.546875 44.28125 53.078125 
z
" id="DejaVuSans-115"/>
      <path d="M 34.28125 27.484375 
Q 23.390625 27.484375 19.1875 25 
Q 14.984375 22.515625 14.984375 16.5 
Q 14.984375 11.71875 18.140625 8.90625 
Q 21.296875 6.109375 26.703125 6.109375 
Q 34.1875 6.109375 38.703125 11.40625 
Q 43.21875 16.703125 43.21875 25.484375 
L 43.21875 27.484375 
z
M 52.203125 31.203125 
L 52.203125 0 
L 43.21875 0 
L 43.21875 8.296875 
Q 40.140625 3.328125 35.546875 0.953125 
Q 30.953125 -1.421875 24.3125 -1.421875 
Q 15.921875 -1.421875 10.953125 3.296875 
Q 6 8.015625 6 15.921875 
Q 6 25.140625 12.171875 29.828125 
Q 18.359375 34.515625 30.609375 34.515625 
L 43.21875 34.515625 
L 43.21875 35.40625 
Q 43.21875 41.609375 39.140625 45 
Q 35.0625 48.390625 27.6875 48.390625 
Q 23 48.390625 18.546875 47.265625 
Q 14.109375 46.140625 10.015625 43.890625 
L 10.015625 52.203125 
Q 14.9375 54.109375 19.578125 55.046875 
Q 24.21875 56 28.609375 56 
Q 40.484375 56 46.34375 49.84375 
Q 52.203125 43.703125 52.203125 31.203125 
z
" id="DejaVuSans-97"/>
      <path d="M 52 44.1875 
Q 55.375 50.25 60.0625 53.125 
Q 64.75 56 71.09375 56 
Q 79.640625 56 84.28125 50.015625 
Q 88.921875 44.046875 88.921875 33.015625 
L 88.921875 0 
L 79.890625 0 
L 79.890625 32.71875 
Q 79.890625 40.578125 77.09375 44.375 
Q 74.3125 48.1875 68.609375 48.1875 
Q 61.625 48.1875 57.5625 43.546875 
Q 53.515625 38.921875 53.515625 30.90625 
L 53.515625 0 
L 44.484375 0 
L 44.484375 32.71875 
Q 44.484375 40.625 41.703125 44.40625 
Q 38.921875 48.1875 33.109375 48.1875 
Q 26.21875 48.1875 22.15625 43.53125 
Q 18.109375 38.875 18.109375 30.90625 
L 18.109375 0 
L 9.078125 0 
L 9.078125 54.6875 
L 18.109375 54.6875 
L 18.109375 46.1875 
Q 21.1875 51.21875 25.484375 53.609375 
Q 29.78125 56 35.6875 56 
Q 41.65625 56 45.828125 52.96875 
Q 50 49.953125 52 44.1875 
z
" id="DejaVuSans-109"/>
      <path d="M 18.109375 8.203125 
L 18.109375 -20.796875 
L 9.078125 -20.796875 
L 9.078125 54.6875 
L 18.109375 54.6875 
L 18.109375 46.390625 
Q 20.953125 51.265625 25.265625 53.625 
Q 29.59375 56 35.59375 56 
Q 45.5625 56 51.78125 48.09375 
Q 58.015625 40.1875 58.015625 27.296875 
Q 58.015625 14.40625 51.78125 6.484375 
Q 45.5625 -1.421875 35.59375 -1.421875 
Q 29.59375 -1.421875 25.265625 0.953125 
Q 20.953125 3.328125 18.109375 8.203125 
z
M 48.6875 27.296875 
Q 48.6875 37.203125 44.609375 42.84375 
Q 40.53125 48.484375 33.40625 48.484375 
Q 26.265625 48.484375 22.1875 42.84375 
Q 18.109375 37.203125 18.109375 27.296875 
Q 18.109375 17.390625 22.1875 11.75 
Q 26.265625 6.109375 33.40625 6.109375 
Q 40.53125 6.109375 44.609375 11.75 
Q 48.6875 17.390625 48.6875 27.296875 
z
" id="DejaVuSans-112"/>
      <path d="M 9.421875 75.984375 
L 18.40625 75.984375 
L 18.40625 0 
L 9.421875 0 
z
" id="DejaVuSans-108"/>
      <path d="M 56.203125 29.59375 
L 56.203125 25.203125 
L 14.890625 25.203125 
Q 15.484375 15.921875 20.484375 11.0625 
Q 25.484375 6.203125 34.421875 6.203125 
Q 39.59375 6.203125 44.453125 7.46875 
Q 49.3125 8.734375 54.109375 11.28125 
L 54.109375 2.78125 
Q 49.265625 0.734375 44.1875 -0.34375 
Q 39.109375 -1.421875 33.890625 -1.421875 
Q 20.796875 -1.421875 13.15625 6.1875 
Q 5.515625 13.8125 5.515625 26.8125 
Q 5.515625 40.234375 12.765625 48.109375 
Q 20.015625 56 32.328125 56 
Q 43.359375 56 49.78125 48.890625 
Q 56.203125 41.796875 56.203125 29.59375 
z
M 47.21875 32.234375 
Q 47.125 39.59375 43.09375 43.984375 
Q 39.0625 48.390625 32.421875 48.390625 
Q 24.90625 48.390625 20.390625 44.140625 
Q 15.875 39.890625 15.1875 32.171875 
z
" id="DejaVuSans-101"/>
      <path id="DejaVuSans-32"/>
      <path d="M 37.109375 75.984375 
L 37.109375 68.5 
L 28.515625 68.5 
Q 23.6875 68.5 21.796875 66.546875 
Q 19.921875 64.59375 19.921875 59.515625 
L 19.921875 54.6875 
L 34.71875 54.6875 
L 34.71875 47.703125 
L 19.921875 47.703125 
L 19.921875 0 
L 10.890625 0 
L 10.890625 47.703125 
L 2.296875 47.703125 
L 2.296875 54.6875 
L 10.890625 54.6875 
L 10.890625 58.5 
Q 10.890625 67.625 15.140625 71.796875 
Q 19.390625 75.984375 28.609375 75.984375 
z
" id="DejaVuSans-102"/>
      <path d="M 41.109375 46.296875 
Q 39.59375 47.171875 37.8125 47.578125 
Q 36.03125 48 33.890625 48 
Q 26.265625 48 22.1875 43.046875 
Q 18.109375 38.09375 18.109375 28.8125 
L 18.109375 0 
L 9.078125 0 
L 9.078125 54.6875 
L 18.109375 54.6875 
L 18.109375 46.1875 
Q 20.953125 51.171875 25.484375 53.578125 
Q 30.03125 56 36.53125 56 
Q 37.453125 56 38.578125 55.875 
Q 39.703125 55.765625 41.0625 55.515625 
z
" id="DejaVuSans-114"/>
      <path d="M 14.796875 27.296875 
Q 14.796875 17.390625 18.875 11.75 
Q 22.953125 6.109375 30.078125 6.109375 
Q 37.203125 6.109375 41.296875 11.75 
Q 45.40625 17.390625 45.40625 27.296875 
Q 45.40625 37.203125 41.296875 42.84375 
Q 37.203125 48.484375 30.078125 48.484375 
Q 22.953125 48.484375 18.875 42.84375 
Q 14.796875 37.203125 14.796875 27.296875 
z
M 45.40625 8.203125 
Q 42.578125 3.328125 38.25 0.953125 
Q 33.9375 -1.421875 27.875 -1.421875 
Q 17.96875 -1.421875 11.734375 6.484375 
Q 5.515625 14.40625 5.515625 27.296875 
Q 5.515625 40.1875 11.734375 48.09375 
Q 17.96875 56 27.875 56 
Q 33.9375 56 38.25 53.625 
Q 42.578125 51.265625 45.40625 46.390625 
L 45.40625 54.6875 
L 54.390625 54.6875 
L 54.390625 -20.796875 
L 45.40625 -20.796875 
z
" id="DejaVuSans-113"/>
      <path d="M 8.5 21.578125 
L 8.5 54.6875 
L 17.484375 54.6875 
L 17.484375 21.921875 
Q 17.484375 14.15625 20.5 10.265625 
Q 23.53125 6.390625 29.59375 6.390625 
Q 36.859375 6.390625 41.078125 11.03125 
Q 45.3125 15.671875 45.3125 23.6875 
L 45.3125 54.6875 
L 54.296875 54.6875 
L 54.296875 0 
L 45.3125 0 
L 45.3125 8.40625 
Q 42.046875 3.421875 37.71875 1 
Q 33.40625 -1.421875 27.6875 -1.421875 
Q 18.265625 -1.421875 13.375 4.4375 
Q 8.5 10.296875 8.5 21.578125 
z
M 31.109375 56 
z
" id="DejaVuSans-117"/>
      <path d="M 54.890625 33.015625 
L 54.890625 0 
L 45.90625 0 
L 45.90625 32.71875 
Q 45.90625 40.484375 42.875 44.328125 
Q 39.84375 48.1875 33.796875 48.1875 
Q 26.515625 48.1875 22.3125 43.546875 
Q 18.109375 38.921875 18.109375 30.90625 
L 18.109375 0 
L 9.078125 0 
L 9.078125 54.6875 
L 18.109375 54.6875 
L 18.109375 46.1875 
Q 21.34375 51.125 25.703125 53.5625 
Q 30.078125 56 35.796875 56 
Q 45.21875 56 50.046875 50.171875 
Q 54.890625 44.34375 54.890625 33.015625 
z
" id="DejaVuSans-110"/>
      <path d="M 48.78125 52.59375 
L 48.78125 44.1875 
Q 44.96875 46.296875 41.140625 47.34375 
Q 37.3125 48.390625 33.40625 48.390625 
Q 24.65625 48.390625 19.8125 42.84375 
Q 14.984375 37.3125 14.984375 27.296875 
Q 14.984375 17.28125 19.8125 11.734375 
Q 24.65625 6.203125 33.40625 6.203125 
Q 37.3125 6.203125 41.140625 7.25 
Q 44.96875 8.296875 48.78125 10.40625 
L 48.78125 2.09375 
Q 45.015625 0.34375 40.984375 -0.53125 
Q 36.96875 -1.421875 32.421875 -1.421875 
Q 20.0625 -1.421875 12.78125 6.34375 
Q 5.515625 14.109375 5.515625 27.296875 
Q 5.515625 40.671875 12.859375 48.328125 
Q 20.21875 56 33.015625 56 
Q 37.15625 56 41.109375 55.140625 
Q 45.0625 54.296875 48.78125 52.59375 
z
" id="DejaVuSans-99"/>
      <path d="M 32.171875 -5.078125 
Q 28.375 -14.84375 24.75 -17.8125 
Q 21.140625 -20.796875 15.09375 -20.796875 
L 7.90625 -20.796875 
L 7.90625 -13.28125 
L 13.1875 -13.28125 
Q 16.890625 -13.28125 18.9375 -11.515625 
Q 21 -9.765625 23.484375 -3.21875 
L 25.09375 0.875 
L 2.984375 54.6875 
L 12.5 54.6875 
L 29.59375 11.921875 
L 46.6875 54.6875 
L 56.203125 54.6875 
z
" id="DejaVuSans-121"/>
     </defs>
     <g transform="translate(83.187735 323.276563)scale(0.1 -0.1)">
      <use xlink:href="#DejaVuSans-115"/>
      <use x="52.099609" xlink:href="#DejaVuSans-97"/>
      <use x="113.378906" xlink:href="#DejaVuSans-109"/>
      <use x="210.791016" xlink:href="#DejaVuSans-112"/>
      <use x="274.267578" xlink:href="#DejaVuSans-108"/>
      <use x="302.050781" xlink:href="#DejaVuSans-101"/>
      <use x="363.574219" xlink:href="#DejaVuSans-32"/>
      <use x="395.361328" xlink:href="#DejaVuSans-102"/>
      <use x="430.566406" xlink:href="#DejaVuSans-114"/>
      <use x="469.429688" xlink:href="#DejaVuSans-101"/>
      <use x="530.953125" xlink:href="#DejaVuSans-113"/>
      <use x="594.429688" xlink:href="#DejaVuSans-117"/>
      <use x="657.808594" xlink:href="#DejaVuSans-101"/>
      <use x="719.332031" xlink:href="#DejaVuSans-110"/>
      <use x="782.710938" xlink:href="#DejaVuSans-99"/>
      <use x="837.691406" xlink:href="#DejaVuSans-121"/>
     </g>
    </g>
   </g>
   <g id="matplotlib.axis_2">
    <g id="ytick_1">
     <g id="line2d_23">
      <defs>
       <path d="M 0 0 
L -3.5 0 
" id="mc90cb17f5a" style="stroke:#000000;stroke-width:0.8;"/>
      </defs>
      <g>
       <use style="stroke:#000000;stroke-width:0.8;" x="45.478125" xlink:href="#mc90cb17f5a" y="253.734703"/>
      </g>
     </g>
     <g id="text_5">
      <!-- $\mathdefault{10^{4}}$ -->
      <defs>
       <path d="M 37.796875 64.3125 
L 12.890625 25.390625 
L 37.796875 25.390625 
z
M 35.203125 72.90625 
L 47.609375 72.90625 
L 47.609375 25.390625 
L 58.015625 25.390625 
L 58.015625 17.1875 
L 47.609375 17.1875 
L 47.609375 0 
L 37.796875 0 
L 37.796875 17.1875 
L 4.890625 17.1875 
L 4.890625 26.703125 
z
" id="DejaVuSans-52"/>
      </defs>
      <g transform="translate(20.878125 257.533922)scale(0.1 -0.1)">
       <use transform="translate(0 0.684375)" xlink:href="#DejaVuSans-49"/>
       <use transform="translate(63.623047 0.684375)" xlink:href="#DejaVuSans-48"/>
       <use transform="translate(128.203125 38.965625)scale(0.7)" xlink:href="#DejaVuSans-52"/>
      </g>
     </g>
    </g>
    <g id="ytick_2">
     <g id="line2d_24">
      <g>
       <use style="stroke:#000000;stroke-width:0.8;" x="45.478125" xlink:href="#mc90cb17f5a" y="117.844053"/>
      </g>
     </g>
     <g id="text_6">
      <!-- $\mathdefault{10^{5}}$ -->
      <defs>
       <path d="M 10.796875 72.90625 
L 49.515625 72.90625 
L 49.515625 64.59375 
L 19.828125 64.59375 
L 19.828125 46.734375 
Q 21.96875 47.46875 24.109375 47.828125 
Q 26.265625 48.1875 28.421875 48.1875 
Q 40.625 48.1875 47.75 41.5 
Q 54.890625 34.8125 54.890625 23.390625 
Q 54.890625 11.625 47.5625 5.09375 
Q 40.234375 -1.421875 26.90625 -1.421875 
Q 22.3125 -1.421875 17.546875 -0.640625 
Q 12.796875 0.140625 7.71875 1.703125 
L 7.71875 11.625 
Q 12.109375 9.234375 16.796875 8.0625 
Q 21.484375 6.890625 26.703125 6.890625 
Q 35.15625 6.890625 40.078125 11.328125 
Q 45.015625 15.765625 45.015625 23.390625 
Q 45.015625 31 40.078125 35.4375 
Q 35.15625 39.890625 26.703125 39.890625 
Q 22.75 39.890625 18.8125 39.015625 
Q 14.890625 38.140625 10.796875 36.28125 
z
" id="DejaVuSans-53"/>
      </defs>
      <g transform="translate(20.878125 121.643272)scale(0.1 -0.1)">
       <use transform="translate(0 0.684375)" xlink:href="#DejaVuSans-49"/>
       <use transform="translate(63.623047 0.684375)" xlink:href="#DejaVuSans-48"/>
       <use transform="translate(128.203125 38.965625)scale(0.7)" xlink:href="#DejaVuSans-53"/>
      </g>
     </g>
    </g>
    <g id="ytick_3">
     <g id="line2d_25">
      <defs>
       <path d="M 0 0 
L -2 0 
" id="mea4ddd5833" style="stroke:#000000;stroke-width:0.6;"/>
      </defs>
      <g>
       <use style="stroke:#000000;stroke-width:0.6;" x="45.478125" xlink:href="#mea4ddd5833" y="294.641865"/>
      </g>
     </g>
    </g>
    <g id="ytick_4">
     <g id="line2d_26">
      <g>
       <use style="stroke:#000000;stroke-width:0.6;" x="45.478125" xlink:href="#mea4ddd5833" y="283.881874"/>
      </g>
     </g>
    </g>
    <g id="ytick_5">
     <g id="line2d_27">
      <g>
       <use style="stroke:#000000;stroke-width:0.6;" x="45.478125" xlink:href="#mea4ddd5833" y="274.784431"/>
      </g>
     </g>
    </g>
    <g id="ytick_6">
     <g id="line2d_28">
      <g>
       <use style="stroke:#000000;stroke-width:0.6;" x="45.478125" xlink:href="#mea4ddd5833" y="266.903868"/>
      </g>
     </g>
    </g>
    <g id="ytick_7">
     <g id="line2d_29">
      <g>
       <use style="stroke:#000000;stroke-width:0.6;" x="45.478125" xlink:href="#mea4ddd5833" y="259.952718"/>
      </g>
     </g>
    </g>
    <g id="ytick_8">
     <g id="line2d_30">
      <g>
       <use style="stroke:#000000;stroke-width:0.6;" x="45.478125" xlink:href="#mea4ddd5833" y="212.827541"/>
      </g>
     </g>
    </g>
    <g id="ytick_9">
     <g id="line2d_31">
      <g>
       <use style="stroke:#000000;stroke-width:0.6;" x="45.478125" xlink:href="#mea4ddd5833" y="188.898386"/>
      </g>
     </g>
    </g>
    <g id="ytick_10">
     <g id="line2d_32">
      <g>
       <use style="stroke:#000000;stroke-width:0.6;" x="45.478125" xlink:href="#mea4ddd5833" y="171.920379"/>
      </g>
     </g>
    </g>
    <g id="ytick_11">
     <g id="line2d_33">
      <g>
       <use style="stroke:#000000;stroke-width:0.6;" x="45.478125" xlink:href="#mea4ddd5833" y="158.751215"/>
      </g>
     </g>
    </g>
    <g id="ytick_12">
     <g id="line2d_34">
      <g>
       <use style="stroke:#000000;stroke-width:0.6;" x="45.478125" xlink:href="#mea4ddd5833" y="147.991224"/>
      </g>
     </g>
    </g>
    <g id="ytick_13">
     <g id="line2d_35">
      <g>
       <use style="stroke:#000000;stroke-width:0.6;" x="45.478125" xlink:href="#mea4ddd5833" y="138.893781"/>
      </g>
     </g>
    </g>
    <g id="ytick_14">
     <g id="line2d_36">
      <g>
       <use style="stroke:#000000;stroke-width:0.6;" x="45.478125" xlink:href="#mea4ddd5833" y="131.013218"/>
      </g>
     </g>
    </g>
    <g id="ytick_15">
     <g id="line2d_37">
      <g>
       <use style="stroke:#000000;stroke-width:0.6;" x="45.478125" xlink:href="#mea4ddd5833" y="124.062068"/>
      </g>
     </g>
    </g>
    <g id="ytick_16">
     <g id="line2d_38">
      <g>
       <use style="stroke:#000000;stroke-width:0.6;" x="45.478125" xlink:href="#mea4ddd5833" y="76.936891"/>
      </g>
     </g>
    </g>
    <g id="ytick_17">
     <g id="line2d_39">
      <g>
       <use style="stroke:#000000;stroke-width:0.6;" x="45.478125" xlink:href="#mea4ddd5833" y="53.007735"/>
      </g>
     </g>
    </g>
    <g id="ytick_18">
     <g id="line2d_40">
      <g>
       <use style="stroke:#000000;stroke-width:0.6;" x="45.478125" xlink:href="#mea4ddd5833" y="36.029729"/>
      </g>
     </g>
    </g>
    <g id="ytick_19">
     <g id="line2d_41">
      <g>
       <use style="stroke:#000000;stroke-width:0.6;" x="45.478125" xlink:href="#mea4ddd5833" y="22.860565"/>
      </g>
     </g>
    </g>
    <g id="ytick_20">
     <g id="line2d_42">
      <g>
       <use style="stroke:#000000;stroke-width:0.6;" x="45.478125" xlink:href="#mea4ddd5833" y="12.100574"/>
      </g>
     </g>
    </g>
    <g id="text_7">
     <!-- variant count -->
     <defs>
      <path d="M 2.984375 54.6875 
L 12.5 54.6875 
L 29.59375 8.796875 
L 46.6875 54.6875 
L 56.203125 54.6875 
L 35.6875 0 
L 23.484375 0 
z
" id="DejaVuSans-118"/>
      <path d="M 9.421875 54.6875 
L 18.40625 54.6875 
L 18.40625 0 
L 9.421875 0 
z
M 9.421875 75.984375 
L 18.40625 75.984375 
L 18.40625 64.59375 
L 9.421875 64.59375 
z
" id="DejaVuSans-105"/>
      <path d="M 18.3125 70.21875 
L 18.3125 54.6875 
L 36.8125 54.6875 
L 36.8125 47.703125 
L 18.3125 47.703125 
L 18.3125 18.015625 
Q 18.3125 11.328125 20.140625 9.421875 
Q 21.96875 7.515625 27.59375 7.515625 
L 36.8125 7.515625 
L 36.8125 0 
L 27.59375 0 
Q 17.1875 0 13.234375 3.875 
Q 9.28125 7.765625 9.28125 18.015625 
L 9.28125 47.703125 
L 2.6875 47.703125 
L 2.6875 54.6875 
L 9.28125 54.6875 
L 9.28125 70.21875 
z
" id="DejaVuSans-116"/>
      <path d="M 30.609375 48.390625 
Q 23.390625 48.390625 19.1875 42.75 
Q 14.984375 37.109375 14.984375 27.296875 
Q 14.984375 17.484375 19.15625 11.84375 
Q 23.34375 6.203125 30.609375 6.203125 
Q 37.796875 6.203125 41.984375 11.859375 
Q 46.1875 17.53125 46.1875 27.296875 
Q 46.1875 37.015625 41.984375 42.703125 
Q 37.796875 48.390625 30.609375 48.390625 
z
M 30.609375 56 
Q 42.328125 56 49.015625 48.375 
Q 55.71875 40.765625 55.71875 27.296875 
Q 55.71875 13.875 49.015625 6.21875 
Q 42.328125 -1.421875 30.609375 -1.421875 
Q 18.84375 -1.421875 12.171875 6.21875 
Q 5.515625 13.875 5.515625 27.296875 
Q 5.515625 40.765625 12.171875 48.375 
Q 18.84375 56 30.609375 56 
z
" id="DejaVuSans-111"/>
     </defs>
     <g transform="translate(14.798438 184.45625)rotate(-90)scale(0.1 -0.1)">
      <use xlink:href="#DejaVuSans-118"/>
      <use x="59.179688" xlink:href="#DejaVuSans-97"/>
      <use x="120.458984" xlink:href="#DejaVuSans-114"/>
      <use x="161.572266" xlink:href="#DejaVuSans-105"/>
      <use x="189.355469" xlink:href="#DejaVuSans-97"/>
      <use x="250.634766" xlink:href="#DejaVuSans-110"/>
      <use x="314.013672" xlink:href="#DejaVuSans-116"/>
      <use x="353.222656" xlink:href="#DejaVuSans-32"/>
      <use x="385.009766" xlink:href="#DejaVuSans-99"/>
      <use x="439.990234" xlink:href="#DejaVuSans-111"/>
      <use x="501.171875" xlink:href="#DejaVuSans-117"/>
      <use x="564.550781" xlink:href="#DejaVuSans-110"/>
      <use x="627.929688" xlink:href="#DejaVuSans-116"/>
     </g>
    </g>
   </g>
   <g id="line2d_43">
    <defs>
     <path d="M 0 1.5 
C 0.397805 1.5 0.77937 1.341951 1.06066 1.06066 
C 1.341951 0.77937 1.5 0.397805 1.5 0 
C 1.5 -0.397805 1.341951 -0.77937 1.06066 -1.06066 
C 0.77937 -1.341951 0.397805 -1.5 0 -1.5 
C -0.397805 -1.5 -0.77937 -1.341951 -1.06066 -1.06066 
C -1.341951 -0.77937 -1.5 -0.397805 -1.5 0 
C -1.5 0.397805 -1.341951 0.77937 -1.06066 1.06066 
C -0.77937 1.341951 -0.397805 1.5 0 1.5 
z
" id="m840b82f8bc" style="stroke:#1f77b4;"/>
    </defs>
    <g clip-path="url(#pd1f9138716)">
     <use style="fill:#1f77b4;stroke:#1f77b4;" x="52.983047" xlink:href="#m840b82f8bc" y="20.420616"/>
     <use style="fill:#1f77b4;stroke:#1f77b4;" x="72.638123" xlink:href="#m840b82f8bc" y="71.127739"/>
     <use style="fill:#1f77b4;stroke:#1f77b4;" x="84.135606" xlink:href="#m840b82f8bc" y="92.337985"/>
     <use style="fill:#1f77b4;stroke:#1f77b4;" x="92.293199" xlink:href="#m840b82f8bc" y="103.87022"/>
     <use style="fill:#1f77b4;stroke:#1f77b4;" x="98.62072" xlink:href="#m840b82f8bc" y="111.867733"/>
     <use style="fill:#1f77b4;stroke:#1f77b4;" x="103.790682" xlink:href="#m840b82f8bc" y="118.288345"/>
     <use style="fill:#1f77b4;stroke:#1f77b4;" x="108.161822" xlink:href="#m840b82f8bc" y="123.457307"/>
     <use style="fill:#1f77b4;stroke:#1f77b4;" x="111.948275" xlink:href="#m840b82f8bc" y="128.310401"/>
     <use style="fill:#1f77b4;stroke:#1f77b4;" x="115.288164" xlink:href="#m840b82f8bc" y="132.360785"/>
     <use style="fill:#1f77b4;stroke:#1f77b4;" x="118.275797" xlink:href="#m840b82f8bc" y="135.792355"/>
     <use style="fill:#1f77b4;stroke:#1f77b4;" x="120.978439" xlink:href="#m840b82f8bc" y="140.022447"/>
     <use style="fill:#1f77b4;stroke:#1f77b4;" x="123.445758" xlink:href="#m840b82f8bc" y="143.241961"/>
     <use style="fill:#1f77b4;stroke:#1f77b4;" x="125.715471" xlink:href="#m840b82f8bc" y="146.51668"/>
     <use style="fill:#1f77b4;stroke:#1f77b4;" x="127.816898" xlink:href="#m840b82f8bc" y="148.546617"/>
     <use style="fill:#1f77b4;stroke:#1f77b4;" x="129.773279" xlink:href="#m840b82f8bc" y="151.886161"/>
     <use style="fill:#1f77b4;stroke:#1f77b4;" x="131.603351" xlink:href="#m840b82f8bc" y="154.638117"/>
     <use style="fill:#1f77b4;stroke:#1f77b4;" x="133.32244" xlink:href="#m840b82f8bc" y="157.594105"/>
     <use style="fill:#1f77b4;stroke:#1f77b4;" x="134.94324" xlink:href="#m840b82f8bc" y="160.368995"/>
     <use style="fill:#1f77b4;stroke:#1f77b4;" x="136.476386" xlink:href="#m840b82f8bc" y="161.999941"/>
     <use style="fill:#1f77b4;stroke:#1f77b4;" x="137.930873" xlink:href="#m840b82f8bc" y="164.988905"/>
     <use style="fill:#1f77b4;stroke:#1f77b4;" x="139.31438" xlink:href="#m840b82f8bc" y="167.375671"/>
     <use style="fill:#1f77b4;stroke:#1f77b4;" x="140.633515" xlink:href="#m840b82f8bc" y="169.363613"/>
     <use style="fill:#1f77b4;stroke:#1f77b4;" x="141.894002" xlink:href="#m840b82f8bc" y="171.466228"/>
     <use style="fill:#1f77b4;stroke:#1f77b4;" x="143.100834" xlink:href="#m840b82f8bc" y="173.561517"/>
     <use style="fill:#1f77b4;stroke:#1f77b4;" x="144.258394" xlink:href="#m840b82f8bc" y="176.146167"/>
     <use style="fill:#1f77b4;stroke:#1f77b4;" x="145.370547" xlink:href="#m840b82f8bc" y="177.508974"/>
     <use style="fill:#1f77b4;stroke:#1f77b4;" x="146.440723" xlink:href="#m840b82f8bc" y="180.34811"/>
     <use style="fill:#1f77b4;stroke:#1f77b4;" x="147.471974" xlink:href="#m840b82f8bc" y="181.369525"/>
     <use style="fill:#1f77b4;stroke:#1f77b4;" x="148.467033" xlink:href="#m840b82f8bc" y="182.67742"/>
     <use style="fill:#1f77b4;stroke:#1f77b4;" x="149.428355" xlink:href="#m840b82f8bc" y="184.657725"/>
     <use style="fill:#1f77b4;stroke:#1f77b4;" x="150.358153" xlink:href="#m840b82f8bc" y="187.337565"/>
     <use style="fill:#1f77b4;stroke:#1f77b4;" x="151.258428" xlink:href="#m840b82f8bc" y="188.73337"/>
     <use style="fill:#1f77b4;stroke:#1f77b4;" x="152.130997" xlink:href="#m840b82f8bc" y="189.680598"/>
     <use style="fill:#1f77b4;stroke:#1f77b4;" x="152.977516" xlink:href="#m840b82f8bc" y="191.673446"/>
     <use style="fill:#1f77b4;stroke:#1f77b4;" x="153.799495" xlink:href="#m840b82f8bc" y="193.046035"/>
     <use style="fill:#1f77b4;stroke:#1f77b4;" x="154.598316" xlink:href="#m840b82f8bc" y="194.819878"/>
     <use style="fill:#1f77b4;stroke:#1f77b4;" x="155.375249" xlink:href="#m840b82f8bc" y="196.868947"/>
     <use style="fill:#1f77b4;stroke:#1f77b4;" x="156.131462" xlink:href="#m840b82f8bc" y="198.182682"/>
     <use style="fill:#1f77b4;stroke:#1f77b4;" x="156.86803" xlink:href="#m840b82f8bc" y="199.389873"/>
     <use style="fill:#1f77b4;stroke:#1f77b4;" x="157.585949" xlink:href="#m840b82f8bc" y="201.52172"/>
     <use style="fill:#1f77b4;stroke:#1f77b4;" x="158.286139" xlink:href="#m840b82f8bc" y="202.44251"/>
     <use style="fill:#1f77b4;stroke:#1f77b4;" x="158.969456" xlink:href="#m840b82f8bc" y="203.855008"/>
     <use style="fill:#1f77b4;stroke:#1f77b4;" x="159.636694" xlink:href="#m840b82f8bc" y="204.492095"/>
     <use style="fill:#1f77b4;stroke:#1f77b4;" x="160.288591" xlink:href="#m840b82f8bc" y="206.604805"/>
     <use style="fill:#1f77b4;stroke:#1f77b4;" x="160.925838" xlink:href="#m840b82f8bc" y="207.130277"/>
     <use style="fill:#1f77b4;stroke:#1f77b4;" x="161.549078" xlink:href="#m840b82f8bc" y="208.307427"/>
     <use style="fill:#1f77b4;stroke:#1f77b4;" x="162.158914" xlink:href="#m840b82f8bc" y="210.620787"/>
     <use style="fill:#1f77b4;stroke:#1f77b4;" x="162.75591" xlink:href="#m840b82f8bc" y="210.615102"/>
     <use style="fill:#1f77b4;stroke:#1f77b4;" x="163.340596" xlink:href="#m840b82f8bc" y="213.384921"/>
     <use style="fill:#1f77b4;stroke:#1f77b4;" x="163.91347" xlink:href="#m840b82f8bc" y="213.420677"/>
     <use style="fill:#1f77b4;stroke:#1f77b4;" x="164.474999" xlink:href="#m840b82f8bc" y="214.622097"/>
     <use style="fill:#1f77b4;stroke:#1f77b4;" x="165.025624" xlink:href="#m840b82f8bc" y="215.483131"/>
     <use style="fill:#1f77b4;stroke:#1f77b4;" x="165.56576" xlink:href="#m840b82f8bc" y="217.046989"/>
     <use style="fill:#1f77b4;stroke:#1f77b4;" x="166.095799" xlink:href="#m840b82f8bc" y="218.777314"/>
     <use style="fill:#1f77b4;stroke:#1f77b4;" x="166.616112" xlink:href="#m840b82f8bc" y="219.147284"/>
     <use style="fill:#1f77b4;stroke:#1f77b4;" x="167.12705" xlink:href="#m840b82f8bc" y="220.221125"/>
     <use style="fill:#1f77b4;stroke:#1f77b4;" x="167.628944" xlink:href="#m840b82f8bc" y="220.900644"/>
     <use style="fill:#1f77b4;stroke:#1f77b4;" x="168.122109" xlink:href="#m840b82f8bc" y="221.893517"/>
     <use style="fill:#1f77b4;stroke:#1f77b4;" x="168.606844" xlink:href="#m840b82f8bc" y="222.753064"/>
     <use style="fill:#1f77b4;stroke:#1f77b4;" x="169.083431" xlink:href="#m840b82f8bc" y="224.227185"/>
     <use style="fill:#1f77b4;stroke:#1f77b4;" x="169.552141" xlink:href="#m840b82f8bc" y="226.21103"/>
     <use style="fill:#1f77b4;stroke:#1f77b4;" x="170.013229" xlink:href="#m840b82f8bc" y="227.351066"/>
     <use style="fill:#1f77b4;stroke:#1f77b4;" x="170.466939" xlink:href="#m840b82f8bc" y="227.532505"/>
     <use style="fill:#1f77b4;stroke:#1f77b4;" x="170.913504" xlink:href="#m840b82f8bc" y="227.96567"/>
     <use style="fill:#1f77b4;stroke:#1f77b4;" x="171.353145" xlink:href="#m840b82f8bc" y="229.825223"/>
     <use style="fill:#1f77b4;stroke:#1f77b4;" x="171.786074" xlink:href="#m840b82f8bc" y="229.73477"/>
     <use style="fill:#1f77b4;stroke:#1f77b4;" x="172.212492" xlink:href="#m840b82f8bc" y="231.066132"/>
     <use style="fill:#1f77b4;stroke:#1f77b4;" x="172.632593" xlink:href="#m840b82f8bc" y="232.034668"/>
     <use style="fill:#1f77b4;stroke:#1f77b4;" x="173.04656" xlink:href="#m840b82f8bc" y="232.799578"/>
     <use style="fill:#1f77b4;stroke:#1f77b4;" x="173.454571" xlink:href="#m840b82f8bc" y="233.069241"/>
     <use style="fill:#1f77b4;stroke:#1f77b4;" x="173.856795" xlink:href="#m840b82f8bc" y="234.636703"/>
     <use style="fill:#1f77b4;stroke:#1f77b4;" x="174.253393" xlink:href="#m840b82f8bc" y="235.814098"/>
     <use style="fill:#1f77b4;stroke:#1f77b4;" x="174.64452" xlink:href="#m840b82f8bc" y="235.518624"/>
     <use style="fill:#1f77b4;stroke:#1f77b4;" x="175.030326" xlink:href="#m840b82f8bc" y="236.343555"/>
     <use style="fill:#1f77b4;stroke:#1f77b4;" x="175.410953" xlink:href="#m840b82f8bc" y="237.162351"/>
     <use style="fill:#1f77b4;stroke:#1f77b4;" x="175.786538" xlink:href="#m840b82f8bc" y="237.744594"/>
     <use style="fill:#1f77b4;stroke:#1f77b4;" x="176.157213" xlink:href="#m840b82f8bc" y="239.763664"/>
     <use style="fill:#1f77b4;stroke:#1f77b4;" x="176.523106" xlink:href="#m840b82f8bc" y="239.308975"/>
     <use style="fill:#1f77b4;stroke:#1f77b4;" x="176.884337" xlink:href="#m840b82f8bc" y="239.83357"/>
     <use style="fill:#1f77b4;stroke:#1f77b4;" x="177.241025" xlink:href="#m840b82f8bc" y="241.34496"/>
     <use style="fill:#1f77b4;stroke:#1f77b4;" x="177.593281" xlink:href="#m840b82f8bc" y="242.202732"/>
     <use style="fill:#1f77b4;stroke:#1f77b4;" x="177.941216" xlink:href="#m840b82f8bc" y="242.348536"/>
     <use style="fill:#1f77b4;stroke:#1f77b4;" x="178.284932" xlink:href="#m840b82f8bc" y="243.468577"/>
     <use style="fill:#1f77b4;stroke:#1f77b4;" x="178.624533" xlink:href="#m840b82f8bc" y="243.389281"/>
     <use style="fill:#1f77b4;stroke:#1f77b4;" x="178.960114" xlink:href="#m840b82f8bc" y="243.592692"/>
     <use style="fill:#1f77b4;stroke:#1f77b4;" x="179.29177" xlink:href="#m840b82f8bc" y="244.939862"/>
     <use style="fill:#1f77b4;stroke:#1f77b4;" x="179.619592" xlink:href="#m840b82f8bc" y="244.549644"/>
     <use style="fill:#1f77b4;stroke:#1f77b4;" x="179.943667" xlink:href="#m840b82f8bc" y="245.527503"/>
     <use style="fill:#1f77b4;stroke:#1f77b4;" x="180.264081" xlink:href="#m840b82f8bc" y="247.268162"/>
     <use style="fill:#1f77b4;stroke:#1f77b4;" x="180.580914" xlink:href="#m840b82f8bc" y="247.565101"/>
     <use style="fill:#1f77b4;stroke:#1f77b4;" x="180.894246" xlink:href="#m840b82f8bc" y="247.358146"/>
     <use style="fill:#1f77b4;stroke:#1f77b4;" x="181.204154" xlink:href="#m840b82f8bc" y="249.159949"/>
     <use style="fill:#1f77b4;stroke:#1f77b4;" x="181.510711" xlink:href="#m840b82f8bc" y="250.217978"/>
     <use style="fill:#1f77b4;stroke:#1f77b4;" x="181.81399" xlink:href="#m840b82f8bc" y="250.945274"/>
     <use style="fill:#1f77b4;stroke:#1f77b4;" x="182.114059" xlink:href="#m840b82f8bc" y="250.206858"/>
     <use style="fill:#1f77b4;stroke:#1f77b4;" x="182.410986" xlink:href="#m840b82f8bc" y="252.030366"/>
     <use style="fill:#1f77b4;stroke:#1f77b4;" x="182.704836" xlink:href="#m840b82f8bc" y="252.763071"/>
     <use style="fill:#1f77b4;stroke:#1f77b4;" x="182.995673" xlink:href="#m840b82f8bc" y="252.856028"/>
     <use style="fill:#1f77b4;stroke:#1f77b4;" x="183.283556" xlink:href="#m840b82f8bc" y="253.03072"/>
     <use style="fill:#1f77b4;stroke:#1f77b4;" x="183.568546" xlink:href="#m840b82f8bc" y="253.059885"/>
     <use style="fill:#1f77b4;stroke:#1f77b4;" x="183.850701" xlink:href="#m840b82f8bc" y="254.363618"/>
     <use style="fill:#1f77b4;stroke:#1f77b4;" x="184.130075" xlink:href="#m840b82f8bc" y="254.29804"/>
     <use style="fill:#1f77b4;stroke:#1f77b4;" x="184.406724" xlink:href="#m840b82f8bc" y="255.422887"/>
     <use style="fill:#1f77b4;stroke:#1f77b4;" x="184.6807" xlink:href="#m840b82f8bc" y="256.064013"/>
     <use style="fill:#1f77b4;stroke:#1f77b4;" x="184.952054" xlink:href="#m840b82f8bc" y="256.817794"/>
     <use style="fill:#1f77b4;stroke:#1f77b4;" x="185.220836" xlink:href="#m840b82f8bc" y="256.892459"/>
     <use style="fill:#1f77b4;stroke:#1f77b4;" x="185.487094" xlink:href="#m840b82f8bc" y="257.004634"/>
     <use style="fill:#1f77b4;stroke:#1f77b4;" x="185.750875" xlink:href="#m840b82f8bc" y="259.410949"/>
     <use style="fill:#1f77b4;stroke:#1f77b4;" x="186.012225" xlink:href="#m840b82f8bc" y="258.265585"/>
     <use style="fill:#1f77b4;stroke:#1f77b4;" x="186.271188" xlink:href="#m840b82f8bc" y="259.320054"/>
     <use style="fill:#1f77b4;stroke:#1f77b4;" x="186.527808" xlink:href="#m840b82f8bc" y="259.417447"/>
     <use style="fill:#1f77b4;stroke:#1f77b4;" x="186.782126" xlink:href="#m840b82f8bc" y="259.972394"/>
     <use style="fill:#1f77b4;stroke:#1f77b4;" x="187.034184" xlink:href="#m840b82f8bc" y="260.997989"/>
     <use style="fill:#1f77b4;stroke:#1f77b4;" x="187.28402" xlink:href="#m840b82f8bc" y="260.612128"/>
     <use style="fill:#1f77b4;stroke:#1f77b4;" x="187.531675" xlink:href="#m840b82f8bc" y="261.078138"/>
     <use style="fill:#1f77b4;stroke:#1f77b4;" x="187.777186" xlink:href="#m840b82f8bc" y="261.252169"/>
     <use style="fill:#1f77b4;stroke:#1f77b4;" x="188.020589" xlink:href="#m840b82f8bc" y="262.204996"/>
     <use style="fill:#1f77b4;stroke:#1f77b4;" x="188.26192" xlink:href="#m840b82f8bc" y="263.201167"/>
     <use style="fill:#1f77b4;stroke:#1f77b4;" x="188.501215" xlink:href="#m840b82f8bc" y="263.632302"/>
     <use style="fill:#1f77b4;stroke:#1f77b4;" x="188.738507" xlink:href="#m840b82f8bc" y="263.681177"/>
     <use style="fill:#1f77b4;stroke:#1f77b4;" x="188.973831" xlink:href="#m840b82f8bc" y="264.980625"/>
     <use style="fill:#1f77b4;stroke:#1f77b4;" x="189.207217" xlink:href="#m840b82f8bc" y="265.102139"/>
     <use style="fill:#1f77b4;stroke:#1f77b4;" x="189.438698" xlink:href="#m840b82f8bc" y="264.369711"/>
     <use style="fill:#1f77b4;stroke:#1f77b4;" x="189.668305" xlink:href="#m840b82f8bc" y="265.381856"/>
     <use style="fill:#1f77b4;stroke:#1f77b4;" x="189.896067" xlink:href="#m840b82f8bc" y="266.616861"/>
     <use style="fill:#1f77b4;stroke:#1f77b4;" x="190.122015" xlink:href="#m840b82f8bc" y="266.499517"/>
     <use style="fill:#1f77b4;stroke:#1f77b4;" x="190.346177" xlink:href="#m840b82f8bc" y="266.837511"/>
     <use style="fill:#1f77b4;stroke:#1f77b4;" x="190.56858" xlink:href="#m840b82f8bc" y="267.355593"/>
     <use style="fill:#1f77b4;stroke:#1f77b4;" x="190.789252" xlink:href="#m840b82f8bc" y="267.676114"/>
     <use style="fill:#1f77b4;stroke:#1f77b4;" x="191.008221" xlink:href="#m840b82f8bc" y="268.519222"/>
     <use style="fill:#1f77b4;stroke:#1f77b4;" x="191.225512" xlink:href="#m840b82f8bc" y="268.853766"/>
     <use style="fill:#1f77b4;stroke:#1f77b4;" x="191.44115" xlink:href="#m840b82f8bc" y="268.352658"/>
     <use style="fill:#1f77b4;stroke:#1f77b4;" x="191.65516" xlink:href="#m840b82f8bc" y="269.044697"/>
     <use style="fill:#1f77b4;stroke:#1f77b4;" x="191.867568" xlink:href="#m840b82f8bc" y="270.571239"/>
     <use style="fill:#1f77b4;stroke:#1f77b4;" x="192.078396" xlink:href="#m840b82f8bc" y="270.492791"/>
     <use style="fill:#1f77b4;stroke:#1f77b4;" x="192.287669" xlink:href="#m840b82f8bc" y="270.390964"/>
     <use style="fill:#1f77b4;stroke:#1f77b4;" x="192.495408" xlink:href="#m840b82f8bc" y="269.806907"/>
     <use style="fill:#1f77b4;stroke:#1f77b4;" x="192.701636" xlink:href="#m840b82f8bc" y="271.824763"/>
     <use style="fill:#1f77b4;stroke:#1f77b4;" x="192.906376" xlink:href="#m840b82f8bc" y="272.356375"/>
     <use style="fill:#1f77b4;stroke:#1f77b4;" x="193.109647" xlink:href="#m840b82f8bc" y="271.568726"/>
     <use style="fill:#1f77b4;stroke:#1f77b4;" x="193.311472" xlink:href="#m840b82f8bc" y="272.925488"/>
     <use style="fill:#1f77b4;stroke:#1f77b4;" x="193.511871" xlink:href="#m840b82f8bc" y="272.909151"/>
     <use style="fill:#1f77b4;stroke:#1f77b4;" x="193.710863" xlink:href="#m840b82f8bc" y="273.665363"/>
     <use style="fill:#1f77b4;stroke:#1f77b4;" x="193.908469" xlink:href="#m840b82f8bc" y="273.401232"/>
     <use style="fill:#1f77b4;stroke:#1f77b4;" x="194.104707" xlink:href="#m840b82f8bc" y="274.590837"/>
     <use style="fill:#1f77b4;stroke:#1f77b4;" x="194.299596" xlink:href="#m840b82f8bc" y="274.005517"/>
     <use style="fill:#1f77b4;stroke:#1f77b4;" x="194.493155" xlink:href="#m840b82f8bc" y="275.275463"/>
     <use style="fill:#1f77b4;stroke:#1f77b4;" x="194.685402" xlink:href="#m840b82f8bc" y="275.352025"/>
     <use style="fill:#1f77b4;stroke:#1f77b4;" x="194.876354" xlink:href="#m840b82f8bc" y="274.42301"/>
     <use style="fill:#1f77b4;stroke:#1f77b4;" x="195.066029" xlink:href="#m840b82f8bc" y="275.719198"/>
     <use style="fill:#1f77b4;stroke:#1f77b4;" x="195.254443" xlink:href="#m840b82f8bc" y="274.843477"/>
     <use style="fill:#1f77b4;stroke:#1f77b4;" x="195.441614" xlink:href="#m840b82f8bc" y="275.05484"/>
     <use style="fill:#1f77b4;stroke:#1f77b4;" x="195.627558" xlink:href="#m840b82f8bc" y="275.488381"/>
     <use style="fill:#1f77b4;stroke:#1f77b4;" x="195.81229" xlink:href="#m840b82f8bc" y="277.62551"/>
     <use style="fill:#1f77b4;stroke:#1f77b4;" x="195.995826" xlink:href="#m840b82f8bc" y="276.365136"/>
     <use style="fill:#1f77b4;stroke:#1f77b4;" x="196.178182" xlink:href="#m840b82f8bc" y="276.391121"/>
     <use style="fill:#1f77b4;stroke:#1f77b4;" x="196.359373" xlink:href="#m840b82f8bc" y="276.729973"/>
     <use style="fill:#1f77b4;stroke:#1f77b4;" x="196.539414" xlink:href="#m840b82f8bc" y="278.105178"/>
     <use style="fill:#1f77b4;stroke:#1f77b4;" x="196.718318" xlink:href="#m840b82f8bc" y="277.554779"/>
     <use style="fill:#1f77b4;stroke:#1f77b4;" x="196.896101" xlink:href="#m840b82f8bc" y="277.395942"/>
     <use style="fill:#1f77b4;stroke:#1f77b4;" x="197.072776" xlink:href="#m840b82f8bc" y="278.732829"/>
     <use style="fill:#1f77b4;stroke:#1f77b4;" x="197.248358" xlink:href="#m840b82f8bc" y="277.422385"/>
     <use style="fill:#1f77b4;stroke:#1f77b4;" x="197.422858" xlink:href="#m840b82f8bc" y="278.678768"/>
     <use style="fill:#1f77b4;stroke:#1f77b4;" x="197.596292" xlink:href="#m840b82f8bc" y="279.2398"/>
     <use style="fill:#1f77b4;stroke:#1f77b4;" x="197.768671" xlink:href="#m840b82f8bc" y="279.96248"/>
     <use style="fill:#1f77b4;stroke:#1f77b4;" x="197.940008" xlink:href="#m840b82f8bc" y="278.409203"/>
     <use style="fill:#1f77b4;stroke:#1f77b4;" x="198.110317" xlink:href="#m840b82f8bc" y="279.07637"/>
     <use style="fill:#1f77b4;stroke:#1f77b4;" x="198.279609" xlink:href="#m840b82f8bc" y="279.76951"/>
     <use style="fill:#1f77b4;stroke:#1f77b4;" x="198.447896" xlink:href="#m840b82f8bc" y="280.368855"/>
     <use style="fill:#1f77b4;stroke:#1f77b4;" x="198.61519" xlink:href="#m840b82f8bc" y="279.385453"/>
     <use style="fill:#1f77b4;stroke:#1f77b4;" x="198.781503" xlink:href="#m840b82f8bc" y="281.633444"/>
     <use style="fill:#1f77b4;stroke:#1f77b4;" x="198.946846" xlink:href="#m840b82f8bc" y="280.84341"/>
     <use style="fill:#1f77b4;stroke:#1f77b4;" x="199.111231" xlink:href="#m840b82f8bc" y="280.712759"/>
     <use style="fill:#1f77b4;stroke:#1f77b4;" x="199.274668" xlink:href="#m840b82f8bc" y="280.156083"/>
     <use style="fill:#1f77b4;stroke:#1f77b4;" x="199.437169" xlink:href="#m840b82f8bc" y="280.666169"/>
     <use style="fill:#1f77b4;stroke:#1f77b4;" x="199.598743" xlink:href="#m840b82f8bc" y="280.433765"/>
     <use style="fill:#1f77b4;stroke:#1f77b4;" x="199.759403" xlink:href="#m840b82f8bc" y="280.554501"/>
     <use style="fill:#1f77b4;stroke:#1f77b4;" x="199.919157" xlink:href="#m840b82f8bc" y="281.124352"/>
     <use style="fill:#1f77b4;stroke:#1f77b4;" x="200.078016" xlink:href="#m840b82f8bc" y="281.737688"/>
     <use style="fill:#1f77b4;stroke:#1f77b4;" x="200.23599" xlink:href="#m840b82f8bc" y="281.491588"/>
     <use style="fill:#1f77b4;stroke:#1f77b4;" x="200.393089" xlink:href="#m840b82f8bc" y="279.63206"/>
     <use style="fill:#1f77b4;stroke:#1f77b4;" x="200.549322" xlink:href="#m840b82f8bc" y="279.641213"/>
     <use style="fill:#1f77b4;stroke:#1f77b4;" x="200.704699" xlink:href="#m840b82f8bc" y="279.257987"/>
     <use style="fill:#1f77b4;stroke:#1f77b4;" x="200.85923" xlink:href="#m840b82f8bc" y="279.158029"/>
     <use style="fill:#1f77b4;stroke:#1f77b4;" x="201.012923" xlink:href="#m840b82f8bc" y="280.619615"/>
     <use style="fill:#1f77b4;stroke:#1f77b4;" x="201.165787" xlink:href="#m840b82f8bc" y="279.540604"/>
     <use style="fill:#1f77b4;stroke:#1f77b4;" x="201.317832" xlink:href="#m840b82f8bc" y="279.367227"/>
     <use style="fill:#1f77b4;stroke:#1f77b4;" x="201.469066" xlink:href="#m840b82f8bc" y="278.868198"/>
     <use style="fill:#1f77b4;stroke:#1f77b4;" x="201.619498" xlink:href="#m840b82f8bc" y="278.364395"/>
     <use style="fill:#1f77b4;stroke:#1f77b4;" x="201.769135" xlink:href="#m840b82f8bc" y="277.088312"/>
     <use style="fill:#1f77b4;stroke:#1f77b4;" x="201.917987" xlink:href="#m840b82f8bc" y="276.019756"/>
     <use style="fill:#1f77b4;stroke:#1f77b4;" x="202.066062" xlink:href="#m840b82f8bc" y="275.736332"/>
     <use style="fill:#1f77b4;stroke:#1f77b4;" x="202.213368" xlink:href="#m840b82f8bc" y="275.114157"/>
     <use style="fill:#1f77b4;stroke:#1f77b4;" x="202.359912" xlink:href="#m840b82f8bc" y="274.030483"/>
     <use style="fill:#1f77b4;stroke:#1f77b4;" x="202.505703" xlink:href="#m840b82f8bc" y="271.800713"/>
     <use style="fill:#1f77b4;stroke:#1f77b4;" x="202.650749" xlink:href="#m840b82f8bc" y="270.862407"/>
     <use style="fill:#1f77b4;stroke:#1f77b4;" x="202.795056" xlink:href="#m840b82f8bc" y="266.653579"/>
     <use style="fill:#1f77b4;stroke:#1f77b4;" x="202.938632" xlink:href="#m840b82f8bc" y="256.051735"/>
     <use style="fill:#1f77b4;stroke:#1f77b4;" x="203.081485" xlink:href="#m840b82f8bc" y="227.343519"/>
    </g>
   </g>
   <g id="line2d_44">
    <path clip-path="url(#pd1f9138716)" d="M 52.983047 20.441882 
L 72.638123 71.022623 
L 84.135606 92.199588 
L 92.293199 103.858702 
L 98.62072 111.897417 
L 115.288164 132.368732 
L 120.978439 139.770946 
L 125.715471 146.267318 
L 129.773279 152.128633 
L 134.94324 160.048886 
L 139.31438 167.171577 
L 144.258394 175.707512 
L 149.428355 185.150394 
L 155.375249 196.570465 
L 162.75591 211.328791 
L 189.438698 265.26105 
L 193.109647 272.048908 
L 195.441614 275.953458 
L 197.072776 278.291236 
L 198.279609 279.6365 
L 199.111231 280.247906 
L 199.759403 280.451406 
L 200.23599 280.383872 
L 200.704699 280.067345 
L 201.165787 279.413074 
L 201.619498 278.261322 
L 202.066062 276.262422 
L 202.359912 274.010089 
L 202.650749 269.897343 
L 202.795056 265.814214 
L 202.938632 256.78236 
L 203.081485 227.315233 
L 203.081485 227.315233 
" style="fill:none;stroke:#ff7f0e;stroke-linecap:square;stroke-width:1.5;"/>
   </g>
   <g id="patch_3">
    <path d="M 45.478125 295 
L 45.478125 7.2 
" style="fill:none;stroke:#000000;stroke-linecap:square;stroke-linejoin:miter;stroke-width:0.8;"/>
   </g>
   <g id="patch_4">
    <path d="M 210.586407 295 
L 210.586407 7.2 
" style="fill:none;stroke:#000000;stroke-linecap:square;stroke-linejoin:miter;stroke-width:0.8;"/>
   </g>
   <g id="patch_5">
    <path d="M 45.478125 295 
L 210.586407 295 
" style="fill:none;stroke:#000000;stroke-linecap:square;stroke-linejoin:miter;stroke-width:0.8;"/>
   </g>
   <g id="patch_6">
    <path d="M 45.478125 7.2 
L 210.586407 7.2 
" style="fill:none;stroke:#000000;stroke-linecap:square;stroke-linejoin:miter;stroke-width:0.8;"/>
   </g>
  </g>
  <g id="axes_2">
   <g id="patch_7">
    <path d="M 280.444063 295 
L 445.552345 295 
L 445.552345 7.2 
L 280.444063 7.2 
z
" style="fill:#ffffff;"/>
   </g>
   <g id="matplotlib.axis_3">
    <g id="xtick_23">
     <g id="line2d_45">
      <g>
       <use style="stroke:#000000;stroke-width:0.8;" x="315.360801" xlink:href="#m8ed32245a8" y="295"/>
      </g>
     </g>
     <g id="text_8">
      <!-- $\mathdefault{10^{1}}$ -->
      <g transform="translate(306.560801 309.598438)scale(0.1 -0.1)">
       <use transform="translate(0 0.684375)" xlink:href="#DejaVuSans-49"/>
       <use transform="translate(63.623047 0.684375)" xlink:href="#DejaVuSans-48"/>
       <use transform="translate(128.203125 38.965625)scale(0.7)" xlink:href="#DejaVuSans-49"/>
      </g>
     </g>
    </g>
    <g id="xtick_24">
     <g id="line2d_46">
      <g>
       <use style="stroke:#000000;stroke-width:0.8;" x="370.184434" xlink:href="#m8ed32245a8" y="295"/>
      </g>
     </g>
     <g id="text_9">
      <!-- $\mathdefault{10^{3}}$ -->
      <defs>
       <path d="M 40.578125 39.3125 
Q 47.65625 37.796875 51.625 33 
Q 55.609375 28.21875 55.609375 21.1875 
Q 55.609375 10.40625 48.1875 4.484375 
Q 40.765625 -1.421875 27.09375 -1.421875 
Q 22.515625 -1.421875 17.65625 -0.515625 
Q 12.796875 0.390625 7.625 2.203125 
L 7.625 11.71875 
Q 11.71875 9.328125 16.59375 8.109375 
Q 21.484375 6.890625 26.8125 6.890625 
Q 36.078125 6.890625 40.9375 10.546875 
Q 45.796875 14.203125 45.796875 21.1875 
Q 45.796875 27.640625 41.28125 31.265625 
Q 36.765625 34.90625 28.71875 34.90625 
L 20.21875 34.90625 
L 20.21875 43.015625 
L 29.109375 43.015625 
Q 36.375 43.015625 40.234375 45.921875 
Q 44.09375 48.828125 44.09375 54.296875 
Q 44.09375 59.90625 40.109375 62.90625 
Q 36.140625 65.921875 28.71875 65.921875 
Q 24.65625 65.921875 20.015625 65.03125 
Q 15.375 64.15625 9.8125 62.3125 
L 9.8125 71.09375 
Q 15.4375 72.65625 20.34375 73.4375 
Q 25.25 74.21875 29.59375 74.21875 
Q 40.828125 74.21875 47.359375 69.109375 
Q 53.90625 64.015625 53.90625 55.328125 
Q 53.90625 49.265625 50.4375 45.09375 
Q 46.96875 40.921875 40.578125 39.3125 
z
" id="DejaVuSans-51"/>
      </defs>
      <g transform="translate(361.384434 309.598438)scale(0.1 -0.1)">
       <use transform="translate(0 0.765625)" xlink:href="#DejaVuSans-49"/>
       <use transform="translate(63.623047 0.765625)" xlink:href="#DejaVuSans-48"/>
       <use transform="translate(128.203125 39.046875)scale(0.7)" xlink:href="#DejaVuSans-51"/>
      </g>
     </g>
    </g>
    <g id="xtick_25">
     <g id="line2d_47">
      <g>
       <use style="stroke:#000000;stroke-width:0.8;" x="425.008067" xlink:href="#m8ed32245a8" y="295"/>
      </g>
     </g>
     <g id="text_10">
      <!-- $\mathdefault{10^{5}}$ -->
      <g transform="translate(416.208067 309.598438)scale(0.1 -0.1)">
       <use transform="translate(0 0.684375)" xlink:href="#DejaVuSans-49"/>
       <use transform="translate(63.623047 0.684375)" xlink:href="#DejaVuSans-48"/>
       <use transform="translate(128.203125 38.965625)scale(0.7)" xlink:href="#DejaVuSans-53"/>
      </g>
     </g>
    </g>
    <g id="text_11">
     <!-- $t$ (generations ago) -->
     <defs>
      <path d="M 42.28125 54.6875 
L 40.921875 47.703125 
L 23 47.703125 
L 17.1875 18.015625 
Q 16.890625 16.359375 16.75 15.234375 
Q 16.609375 14.109375 16.609375 13.484375 
Q 16.609375 10.359375 18.484375 8.9375 
Q 20.359375 7.515625 24.515625 7.515625 
L 33.59375 7.515625 
L 32.078125 0 
L 23.484375 0 
Q 15.484375 0 11.546875 3.125 
Q 7.625 6.25 7.625 12.59375 
Q 7.625 13.71875 7.765625 15.0625 
Q 7.90625 16.40625 8.203125 18.015625 
L 14.015625 47.703125 
L 6.390625 47.703125 
L 7.8125 54.6875 
L 15.28125 54.6875 
L 18.3125 70.21875 
L 27.296875 70.21875 
L 24.3125 54.6875 
z
" id="DejaVuSans-Oblique-116"/>
      <path d="M 31 75.875 
Q 24.46875 64.65625 21.28125 53.65625 
Q 18.109375 42.671875 18.109375 31.390625 
Q 18.109375 20.125 21.3125 9.0625 
Q 24.515625 -2 31 -13.1875 
L 23.1875 -13.1875 
Q 15.875 -1.703125 12.234375 9.375 
Q 8.59375 20.453125 8.59375 31.390625 
Q 8.59375 42.28125 12.203125 53.3125 
Q 15.828125 64.359375 23.1875 75.875 
z
" id="DejaVuSans-40"/>
      <path d="M 45.40625 27.984375 
Q 45.40625 37.75 41.375 43.109375 
Q 37.359375 48.484375 30.078125 48.484375 
Q 22.859375 48.484375 18.828125 43.109375 
Q 14.796875 37.75 14.796875 27.984375 
Q 14.796875 18.265625 18.828125 12.890625 
Q 22.859375 7.515625 30.078125 7.515625 
Q 37.359375 7.515625 41.375 12.890625 
Q 45.40625 18.265625 45.40625 27.984375 
z
M 54.390625 6.78125 
Q 54.390625 -7.171875 48.1875 -13.984375 
Q 42 -20.796875 29.203125 -20.796875 
Q 24.46875 -20.796875 20.265625 -20.09375 
Q 16.0625 -19.390625 12.109375 -17.921875 
L 12.109375 -9.1875 
Q 16.0625 -11.328125 19.921875 -12.34375 
Q 23.78125 -13.375 27.78125 -13.375 
Q 36.625 -13.375 41.015625 -8.765625 
Q 45.40625 -4.15625 45.40625 5.171875 
L 45.40625 9.625 
Q 42.625 4.78125 38.28125 2.390625 
Q 33.9375 0 27.875 0 
Q 17.828125 0 11.671875 7.65625 
Q 5.515625 15.328125 5.515625 27.984375 
Q 5.515625 40.671875 11.671875 48.328125 
Q 17.828125 56 27.875 56 
Q 33.9375 56 38.28125 53.609375 
Q 42.625 51.21875 45.40625 46.390625 
L 45.40625 54.6875 
L 54.390625 54.6875 
z
" id="DejaVuSans-103"/>
      <path d="M 8.015625 75.875 
L 15.828125 75.875 
Q 23.140625 64.359375 26.78125 53.3125 
Q 30.421875 42.28125 30.421875 31.390625 
Q 30.421875 20.453125 26.78125 9.375 
Q 23.140625 -1.703125 15.828125 -13.1875 
L 8.015625 -13.1875 
Q 14.5 -2 17.703125 9.0625 
Q 20.90625 20.125 20.90625 31.390625 
Q 20.90625 42.671875 17.703125 53.65625 
Q 14.5 64.65625 8.015625 75.875 
z
" id="DejaVuSans-41"/>
     </defs>
     <g transform="translate(314.848204 323.278125)scale(0.1 -0.1)">
      <use transform="translate(0 0.015625)" xlink:href="#DejaVuSans-Oblique-116"/>
      <use transform="translate(39.208984 0.015625)" xlink:href="#DejaVuSans-32"/>
      <use transform="translate(70.996094 0.015625)" xlink:href="#DejaVuSans-40"/>
      <use transform="translate(110.009766 0.015625)" xlink:href="#DejaVuSans-103"/>
      <use transform="translate(173.486328 0.015625)" xlink:href="#DejaVuSans-101"/>
      <use transform="translate(235.009766 0.015625)" xlink:href="#DejaVuSans-110"/>
      <use transform="translate(298.388672 0.015625)" xlink:href="#DejaVuSans-101"/>
      <use transform="translate(359.912109 0.015625)" xlink:href="#DejaVuSans-114"/>
      <use transform="translate(401.025391 0.015625)" xlink:href="#DejaVuSans-97"/>
      <use transform="translate(462.304688 0.015625)" xlink:href="#DejaVuSans-116"/>
      <use transform="translate(501.513672 0.015625)" xlink:href="#DejaVuSans-105"/>
      <use transform="translate(529.296875 0.015625)" xlink:href="#DejaVuSans-111"/>
      <use transform="translate(590.478516 0.015625)" xlink:href="#DejaVuSans-110"/>
      <use transform="translate(653.857422 0.015625)" xlink:href="#DejaVuSans-115"/>
      <use transform="translate(705.957031 0.015625)" xlink:href="#DejaVuSans-32"/>
      <use transform="translate(737.744141 0.015625)" xlink:href="#DejaVuSans-97"/>
      <use transform="translate(799.023438 0.015625)" xlink:href="#DejaVuSans-103"/>
      <use transform="translate(862.5 0.015625)" xlink:href="#DejaVuSans-111"/>
      <use transform="translate(923.681641 0.015625)" xlink:href="#DejaVuSans-41"/>
     </g>
    </g>
   </g>
   <g id="matplotlib.axis_4">
    <g id="ytick_21">
     <g id="line2d_48">
      <g>
       <use style="stroke:#000000;stroke-width:0.8;" x="280.444063" xlink:href="#mc90cb17f5a" y="22.928521"/>
      </g>
     </g>
     <g id="text_12">
      <!-- $\mathdefault{10^{4}}$ -->
      <g transform="translate(255.844063 26.727739)scale(0.1 -0.1)">
       <use transform="translate(0 0.684375)" xlink:href="#DejaVuSans-49"/>
       <use transform="translate(63.623047 0.684375)" xlink:href="#DejaVuSans-48"/>
       <use transform="translate(128.203125 38.965625)scale(0.7)" xlink:href="#DejaVuSans-52"/>
      </g>
     </g>
    </g>
    <g id="ytick_22">
     <g id="line2d_49">
      <g>
       <use style="stroke:#000000;stroke-width:0.6;" x="280.444063" xlink:href="#mea4ddd5833" y="247.856586"/>
      </g>
     </g>
     <g id="text_13">
      <!-- $\mathdefault{3\times10^{3}}$ -->
      <defs>
       <path d="M 70.125 53.71875 
L 47.796875 31.296875 
L 70.125 8.984375 
L 64.3125 3.078125 
L 41.890625 25.484375 
L 19.484375 3.078125 
L 13.71875 8.984375 
L 35.984375 31.296875 
L 13.71875 53.71875 
L 19.484375 59.625 
L 41.890625 37.203125 
L 64.3125 59.625 
z
" id="DejaVuSans-215"/>
      </defs>
      <g transform="translate(238.844063 251.655805)scale(0.1 -0.1)">
       <use transform="translate(0 0.765625)" xlink:href="#DejaVuSans-51"/>
       <use transform="translate(83.105469 0.765625)" xlink:href="#DejaVuSans-215"/>
       <use transform="translate(186.376953 0.765625)" xlink:href="#DejaVuSans-49"/>
       <use transform="translate(250 0.765625)" xlink:href="#DejaVuSans-48"/>
       <use transform="translate(314.580078 39.046875)scale(0.7)" xlink:href="#DejaVuSans-51"/>
      </g>
     </g>
    </g>
    <g id="ytick_23">
     <g id="line2d_50">
      <g>
       <use style="stroke:#000000;stroke-width:0.6;" x="280.444063" xlink:href="#mea4ddd5833" y="194.111375"/>
      </g>
     </g>
     <g id="text_14">
      <!-- $\mathdefault{4\times10^{3}}$ -->
      <g transform="translate(238.844063 197.910594)scale(0.1 -0.1)">
       <use transform="translate(0 0.765625)" xlink:href="#DejaVuSans-52"/>
       <use transform="translate(83.105469 0.765625)" xlink:href="#DejaVuSans-215"/>
       <use transform="translate(186.376953 0.765625)" xlink:href="#DejaVuSans-49"/>
       <use transform="translate(250 0.765625)" xlink:href="#DejaVuSans-48"/>
       <use transform="translate(314.580078 39.046875)scale(0.7)" xlink:href="#DejaVuSans-51"/>
      </g>
     </g>
    </g>
    <g id="ytick_24">
     <g id="line2d_51">
      <g>
       <use style="stroke:#000000;stroke-width:0.6;" x="280.444063" xlink:href="#mea4ddd5833" y="152.423351"/>
      </g>
     </g>
    </g>
    <g id="ytick_25">
     <g id="line2d_52">
      <g>
       <use style="stroke:#000000;stroke-width:0.6;" x="280.444063" xlink:href="#mea4ddd5833" y="118.361755"/>
      </g>
     </g>
     <g id="text_15">
      <!-- $\mathdefault{6\times10^{3}}$ -->
      <defs>
       <path d="M 33.015625 40.375 
Q 26.375 40.375 22.484375 35.828125 
Q 18.609375 31.296875 18.609375 23.390625 
Q 18.609375 15.53125 22.484375 10.953125 
Q 26.375 6.390625 33.015625 6.390625 
Q 39.65625 6.390625 43.53125 10.953125 
Q 47.40625 15.53125 47.40625 23.390625 
Q 47.40625 31.296875 43.53125 35.828125 
Q 39.65625 40.375 33.015625 40.375 
z
M 52.59375 71.296875 
L 52.59375 62.3125 
Q 48.875 64.0625 45.09375 64.984375 
Q 41.3125 65.921875 37.59375 65.921875 
Q 27.828125 65.921875 22.671875 59.328125 
Q 17.53125 52.734375 16.796875 39.40625 
Q 19.671875 43.65625 24.015625 45.921875 
Q 28.375 48.1875 33.59375 48.1875 
Q 44.578125 48.1875 50.953125 41.515625 
Q 57.328125 34.859375 57.328125 23.390625 
Q 57.328125 12.15625 50.6875 5.359375 
Q 44.046875 -1.421875 33.015625 -1.421875 
Q 20.359375 -1.421875 13.671875 8.265625 
Q 6.984375 17.96875 6.984375 36.375 
Q 6.984375 53.65625 15.1875 63.9375 
Q 23.390625 74.21875 37.203125 74.21875 
Q 40.921875 74.21875 44.703125 73.484375 
Q 48.484375 72.75 52.59375 71.296875 
z
" id="DejaVuSans-54"/>
      </defs>
      <g transform="translate(238.844063 122.160974)scale(0.1 -0.1)">
       <use transform="translate(0 0.765625)" xlink:href="#DejaVuSans-54"/>
       <use transform="translate(83.105469 0.765625)" xlink:href="#DejaVuSans-215"/>
       <use transform="translate(186.376953 0.765625)" xlink:href="#DejaVuSans-49"/>
       <use transform="translate(250 0.765625)" xlink:href="#DejaVuSans-48"/>
       <use transform="translate(314.580078 39.046875)scale(0.7)" xlink:href="#DejaVuSans-51"/>
      </g>
     </g>
    </g>
    <g id="ytick_26">
     <g id="line2d_53">
      <g>
       <use style="stroke:#000000;stroke-width:0.6;" x="280.444063" xlink:href="#mea4ddd5833" y="89.563086"/>
      </g>
     </g>
    </g>
    <g id="ytick_27">
     <g id="line2d_54">
      <g>
       <use style="stroke:#000000;stroke-width:0.6;" x="280.444063" xlink:href="#mea4ddd5833" y="64.616545"/>
      </g>
     </g>
    </g>
    <g id="ytick_28">
     <g id="line2d_55">
      <g>
       <use style="stroke:#000000;stroke-width:0.6;" x="280.444063" xlink:href="#mea4ddd5833" y="42.612135"/>
      </g>
     </g>
    </g>
    <g id="text_16">
     <!-- $\eta(t)$ -->
     <defs>
      <path d="M 57.859375 33.015625 
L 47.40625 -20.796875 
L 38.421875 -20.796875 
L 48.828125 32.71875 
Q 50.34375 40.484375 48.046875 44.34375 
Q 45.796875 48.1875 39.75 48.1875 
Q 32.46875 48.1875 27.34375 43.5625 
Q 22.265625 38.921875 20.703125 30.90625 
L 14.703125 0 
L 5.671875 0 
L 16.3125 54.6875 
L 25.34375 54.6875 
L 23.6875 46.1875 
Q 27.828125 51.125 32.71875 53.5625 
Q 37.546875 56 43.265625 56 
Q 52.6875 56 56.390625 50.203125 
Q 60.0625 44.34375 57.859375 33.015625 
z
" id="DejaVuSans-Oblique-951"/>
     </defs>
     <g transform="translate(232.744063 160.15)rotate(-90)scale(0.1 -0.1)">
      <use transform="translate(0 0.125)" xlink:href="#DejaVuSans-Oblique-951"/>
      <use transform="translate(63.378906 0.125)" xlink:href="#DejaVuSans-40"/>
      <use transform="translate(102.392578 0.125)" xlink:href="#DejaVuSans-Oblique-116"/>
      <use transform="translate(141.601562 0.125)" xlink:href="#DejaVuSans-41"/>
     </g>
    </g>
   </g>
   <g id="line2d_56">
    <path clip-path="url(#pf945ad8726)" d="M -1 22.928521 
L 287.948985 22.928521 
L 289.056533 22.928521 
L 290.164081 22.928521 
L 291.271629 22.928521 
L 292.379177 22.928521 
L 293.486725 22.928521 
L 294.594274 22.928521 
L 295.701822 22.928521 
L 296.80937 22.928521 
L 297.916918 22.928521 
L 299.024466 22.928521 
L 300.132014 22.928521 
L 301.239562 22.928521 
L 302.347111 22.928521 
L 303.454659 22.928521 
L 304.562207 22.928521 
L 305.669755 22.928521 
L 306.777303 22.928521 
L 307.884851 22.928521 
L 308.992399 22.928521 
L 310.099947 22.928521 
L 311.207496 22.928521 
L 312.315044 22.928521 
L 313.422592 22.928521 
L 314.53014 22.928521 
L 315.637688 22.928521 
L 316.745236 22.928521 
L 317.852784 22.928521 
L 318.960333 22.928521 
L 320.067881 22.928521 
L 321.175429 22.928521 
L 322.282977 22.928521 
L 323.390525 22.928521 
L 324.498073 22.928521 
L 325.605621 22.928521 
L 326.71317 22.928521 
L 327.820718 22.928521 
L 328.928266 22.928521 
L 330.035814 22.928521 
L 331.143362 281.918182 
L 332.25091 281.918182 
L 333.358458 281.918182 
L 334.466006 281.918182 
L 335.573555 281.918182 
L 336.681103 281.918182 
L 337.788651 281.918182 
L 338.896199 281.918182 
L 340.003747 281.918182 
L 341.111295 281.918182 
L 342.218843 281.918182 
L 343.326392 281.918182 
L 344.43394 281.918182 
L 345.541488 281.918182 
L 346.649036 281.918182 
L 347.756584 281.918182 
L 348.864132 281.918182 
L 349.97168 281.918182 
L 351.079229 281.918182 
L 352.186777 281.918182 
L 353.294325 22.928521 
L 354.401873 22.928521 
L 355.509421 22.928521 
L 356.616969 22.928521 
L 357.724517 22.928521 
L 358.832066 22.928521 
L 359.939614 22.928521 
L 361.047162 22.928521 
L 362.15471 22.928521 
L 363.262258 22.928521 
L 364.369806 22.928521 
L 365.477354 22.928521 
L 366.584902 22.928521 
L 367.692451 22.928521 
L 368.799999 22.928521 
L 369.907547 22.928521 
L 371.015095 22.928521 
L 372.122643 22.928521 
L 373.230191 22.928521 
L 374.337739 22.928521 
L 375.445288 22.928521 
L 376.552836 22.928521 
L 377.660384 22.928521 
L 378.767932 22.928521 
L 379.87548 22.928521 
L 380.983028 22.928521 
L 382.090576 22.928521 
L 383.198125 22.928521 
L 384.305673 22.928521 
L 385.413221 22.928521 
L 386.520769 22.928521 
L 387.628317 22.928521 
L 388.735865 22.928521 
L 389.843413 22.928521 
L 390.950962 22.928521 
L 392.05851 22.928521 
L 393.166058 22.928521 
L 394.273606 22.928521 
L 395.381154 22.928521 
L 396.488702 22.928521 
L 397.59625 22.928521 
" style="fill:none;stroke:#1f77b4;stroke-linecap:square;stroke-width:1.5;"/>
   </g>
   <g id="line2d_57">
    <path clip-path="url(#pf945ad8726)" d="M -1 20.345609 
L 287.948985 20.346289 
L 289.465131 20.345035 
L 290.981276 20.343634 
L 292.497422 20.342071 
L 294.013568 20.340334 
L 295.529714 20.338407 
L 297.04586 20.33628 
L 298.562006 20.333941 
L 300.078151 20.331384 
L 301.594297 20.328604 
L 303.110443 20.325605 
L 304.626589 20.322398 
L 306.142735 20.319009 
L 307.658881 20.315478 
L 309.175027 20.311867 
L 310.691172 20.30826 
L 312.207318 20.304777 
L 313.723464 20.301578 
L 315.23961 20.298867 
L 316.755756 20.296906 
L 318.271902 20.296018 
L 319.788047 20.296595 
L 321.304193 20.299089 
L 322.820339 20.304052 
L 324.336485 20.312161 
L 325.852631 20.341956 
L 327.368777 23.919806 
L 328.884922 74.835713 
L 330.401068 192.801956 
L 331.917214 280.528325 
L 333.43336 280.583074 
L 334.949506 280.628076 
L 336.465652 280.65193 
L 337.981797 280.657836 
L 339.497943 280.648511 
L 341.014089 280.626464 
L 342.530235 280.594229 
L 344.046381 280.554445 
L 345.562527 280.509729 
L 347.078673 280.462486 
L 348.594818 280.410552 
L 350.110964 277.652726 
L 351.62711 222.783534 
L 353.143256 154.306275 
L 354.659402 97.245136 
L 356.175548 47.886035 
L 357.691693 26.013875 
L 359.207839 21.991256 
L 360.723985 21.967369 
L 362.240131 21.940125 
L 363.756277 21.910605 
L 365.272423 21.880272 
L 366.788568 21.850603 
L 368.304714 21.8235 
L 369.82086 21.801183 
L 371.337006 21.786 
L 372.853152 21.780178 
L 374.369298 21.785532 
L 375.885444 21.803151 
L 377.401589 21.833178 
L 378.917735 21.874702 
L 380.433881 21.925847 
L 381.950027 21.984043 
L 383.466173 22.046534 
L 384.982319 22.119477 
L 386.498464 22.061774 
L 388.01461 23.065151 
L 389.530756 23.114233 
L 391.046902 23.08644 
L 392.563048 23.100032 
L 394.079194 23.138166 
L 395.595339 23.171947 
L 397.111485 23.196645 
L 398.627631 23.21065 
L 400.143777 23.212643 
L 401.659923 23.201937 
L 403.176069 23.178747 
L 404.692215 23.144331 
L 406.20836 23.100955 
L 407.724506 23.051533 
L 409.240652 22.996868 
L 410.756798 22.959053 
L 412.272944 22.943746 
L 413.78909 21.379273 
L 415.305235 21.348255 
L 416.821381 21.325387 
L 418.337527 21.309899 
L 419.853673 21.300353 
L 421.369819 21.295057 
L 422.885965 21.292447 
L 424.40211 21.291321 
L 425.918256 21.290902 
L 427.434402 21.29077 
L 428.950548 21.290736 
L 430.466694 21.290728 
L 431.98284 21.290727 
L 433.498986 21.290727 
L 435.015131 21.290727 
L 436.531277 21.290727 
L 438.047423 21.290727 
" style="fill:none;stroke:#ff7f0e;stroke-linecap:square;stroke-width:1.5;"/>
   </g>
   <g id="patch_8">
    <path d="M 280.444063 295 
L 280.444063 7.2 
" style="fill:none;stroke:#000000;stroke-linecap:square;stroke-linejoin:miter;stroke-width:0.8;"/>
   </g>
   <g id="patch_9">
    <path d="M 445.552345 295 
L 445.552345 7.2 
" style="fill:none;stroke:#000000;stroke-linecap:square;stroke-linejoin:miter;stroke-width:0.8;"/>
   </g>
   <g id="patch_10">
    <path d="M 280.444063 295 
L 445.552345 295 
" style="fill:none;stroke:#000000;stroke-linecap:square;stroke-linejoin:miter;stroke-width:0.8;"/>
   </g>
   <g id="patch_11">
    <path d="M 280.444063 7.2 
L 445.552345 7.2 
" style="fill:none;stroke:#000000;stroke-linecap:square;stroke-linejoin:miter;stroke-width:0.8;"/>
   </g>
   <g id="legend_1">
    <g id="patch_12">
     <path d="M 367.439845 290 
L 438.552345 290 
Q 440.552345 290 440.552345 288 
L 440.552345 259.64375 
Q 440.552345 257.64375 438.552345 257.64375 
L 367.439845 257.64375 
Q 365.439845 257.64375 365.439845 259.64375 
L 365.439845 288 
Q 365.439845 290 367.439845 290 
z
" style="fill:#ffffff;opacity:0.8;stroke:#cccccc;stroke-linejoin:miter;"/>
    </g>
    <g id="line2d_58">
     <path d="M 369.439845 265.742188 
L 389.439845 265.742188 
" style="fill:none;stroke:#1f77b4;stroke-linecap:square;stroke-width:1.5;"/>
    </g>
    <g id="line2d_59"/>
    <g id="text_17">
     <!-- true -->
     <g transform="translate(397.439845 269.242188)scale(0.1 -0.1)">
      <use xlink:href="#DejaVuSans-116"/>
      <use x="39.208984" xlink:href="#DejaVuSans-114"/>
      <use x="80.322266" xlink:href="#DejaVuSans-117"/>
      <use x="143.701172" xlink:href="#DejaVuSans-101"/>
     </g>
    </g>
    <g id="line2d_60">
     <path d="M 369.439845 280.420313 
L 389.439845 280.420313 
" style="fill:none;stroke:#ff7f0e;stroke-linecap:square;stroke-width:1.5;"/>
    </g>
    <g id="line2d_61"/>
    <g id="text_18">
     <!-- inferred -->
     <defs>
      <path d="M 45.40625 46.390625 
L 45.40625 75.984375 
L 54.390625 75.984375 
L 54.390625 0 
L 45.40625 0 
L 45.40625 8.203125 
Q 42.578125 3.328125 38.25 0.953125 
Q 33.9375 -1.421875 27.875 -1.421875 
Q 17.96875 -1.421875 11.734375 6.484375 
Q 5.515625 14.40625 5.515625 27.296875 
Q 5.515625 40.1875 11.734375 48.09375 
Q 17.96875 56 27.875 56 
Q 33.9375 56 38.25 53.625 
Q 42.578125 51.265625 45.40625 46.390625 
z
M 14.796875 27.296875 
Q 14.796875 17.390625 18.875 11.75 
Q 22.953125 6.109375 30.078125 6.109375 
Q 37.203125 6.109375 41.296875 11.75 
Q 45.40625 17.390625 45.40625 27.296875 
Q 45.40625 37.203125 41.296875 42.84375 
Q 37.203125 48.484375 30.078125 48.484375 
Q 22.953125 48.484375 18.875 42.84375 
Q 14.796875 37.203125 14.796875 27.296875 
z
" id="DejaVuSans-100"/>
     </defs>
     <g transform="translate(397.439845 283.920313)scale(0.1 -0.1)">
      <use xlink:href="#DejaVuSans-105"/>
      <use x="27.783203" xlink:href="#DejaVuSans-110"/>
      <use x="91.162109" xlink:href="#DejaVuSans-102"/>
      <use x="126.367188" xlink:href="#DejaVuSans-101"/>
      <use x="187.890625" xlink:href="#DejaVuSans-114"/>
      <use x="227.253906" xlink:href="#DejaVuSans-114"/>
      <use x="266.117188" xlink:href="#DejaVuSans-101"/>
      <use x="327.640625" xlink:href="#DejaVuSans-100"/>
     </g>
    </g>
   </g>
  </g>
 </g>
 <defs>
  <clipPath id="pd1f9138716">
   <rect height="287.8" width="165.108282" x="45.478125" y="7.2"/>
  </clipPath>
  <clipPath id="pf945ad8726">
   <rect height="287.8" width="165.108282" x="280.444063" y="7.2"/>
  </clipPath>
 </defs>
</svg>
