<?xml version="1.0" encoding="utf-8" standalone="no"?>
<!DOCTYPE svg PUBLIC "-//W3C//DTD SVG 1.1//EN"
  "http://www.w3.org/Graphics/SVG/1.1/DTD/svg11.dtd">
<!-- Created with matplotlib (https://matplotlib.org/) -->
<svg height="198.15625pt" version="1.1" viewBox="0 0 275.433161 198.15625" width="275.433161pt" xmlns="http://www.w3.org/2000/svg" xmlns:xlink="http://www.w3.org/1999/xlink">
 <defs>
  <style type="text/css">
*{stroke-linecap:butt;stroke-linejoin:round;}
  </style>
 </defs>
 <g id="figure_1">
  <g id="patch_1">
   <path d="M 0 198.15625 
L 275.433161 198.15625 
L 275.433161 0 
L 0 0 
z
" style="fill:#ffffff;"/>
  </g>
  <g id="axes_1">
   <g id="patch_2">
    <path d="M 45.478125 160.6 
L 268.233161 160.6 
L 268.233161 7.2 
L 45.478125 7.2 
z
" style="fill:#ffffff;"/>
   </g>
   <g id="matplotlib.axis_1">
    <g id="xtick_1">
     <g id="line2d_1">
      <defs>
       <path d="M 0 0 
L 0 3.5 
" id="m63d0c8a85a" style="stroke:#000000;stroke-width:0.8;"/>
      </defs>
      <g>
       <use style="stroke:#000000;stroke-width:0.8;" x="55.603354" xlink:href="#m63d0c8a85a" y="160.6"/>
      </g>
     </g>
     <g id="text_1">
      <!-- $\mathdefault{10^{0}}$ -->
      <defs>
       <path d="M 12.40625 8.296875 
L 28.515625 8.296875 
L 28.515625 63.921875 
L 10.984375 60.40625 
L 10.984375 69.390625 
L 28.421875 72.90625 
L 38.28125 72.90625 
L 38.28125 8.296875 
L 54.390625 8.296875 
L 54.390625 0 
L 12.40625 0 
z
" id="DejaVuSans-49"/>
       <path d="M 31.78125 66.40625 
Q 24.171875 66.40625 20.328125 58.90625 
Q 16.5 51.421875 16.5 36.375 
Q 16.5 21.390625 20.328125 13.890625 
Q 24.171875 6.390625 31.78125 6.390625 
Q 39.453125 6.390625 43.28125 13.890625 
Q 47.125 21.390625 47.125 36.375 
Q 47.125 51.421875 43.28125 58.90625 
Q 39.453125 66.40625 31.78125 66.40625 
z
M 31.78125 74.21875 
Q 44.046875 74.21875 50.515625 64.515625 
Q 56.984375 54.828125 56.984375 36.375 
Q 56.984375 17.96875 50.515625 8.265625 
Q 44.046875 -1.421875 31.78125 -1.421875 
Q 19.53125 -1.421875 13.0625 8.265625 
Q 6.59375 17.96875 6.59375 36.375 
Q 6.59375 54.828125 13.0625 64.515625 
Q 19.53125 74.21875 31.78125 74.21875 
z
" id="DejaVuSans-48"/>
      </defs>
      <g transform="translate(46.803354 175.198438)scale(0.1 -0.1)">
       <use transform="translate(0 0.765625)" xlink:href="#DejaVuSans-49"/>
       <use transform="translate(63.623047 0.765625)" xlink:href="#DejaVuSans-48"/>
       <use transform="translate(128.203125 39.046875)scale(0.7)" xlink:href="#DejaVuSans-48"/>
      </g>
     </g>
    </g>
    <g id="xtick_2">
     <g id="line2d_2">
      <g>
       <use style="stroke:#000000;stroke-width:0.8;" x="143.69275" xlink:href="#m63d0c8a85a" y="160.6"/>
      </g>
     </g>
     <g id="text_2">
      <!-- $\mathdefault{10^{1}}$ -->
      <g transform="translate(134.89275 175.198438)scale(0.1 -0.1)">
       <use transform="translate(0 0.684375)" xlink:href="#DejaVuSans-49"/>
       <use transform="translate(63.623047 0.684375)" xlink:href="#DejaVuSans-48"/>
       <use transform="translate(128.203125 38.965625)scale(0.7)" xlink:href="#DejaVuSans-49"/>
      </g>
     </g>
    </g>
    <g id="xtick_3">
     <g id="line2d_3">
      <g>
       <use style="stroke:#000000;stroke-width:0.8;" x="231.782145" xlink:href="#m63d0c8a85a" y="160.6"/>
      </g>
     </g>
     <g id="text_3">
      <!-- $\mathdefault{10^{2}}$ -->
      <defs>
       <path d="M 19.1875 8.296875 
L 53.609375 8.296875 
L 53.609375 0 
L 7.328125 0 
L 7.328125 8.296875 
Q 12.9375 14.109375 22.625 23.890625 
Q 32.328125 33.6875 34.8125 36.53125 
Q 39.546875 41.84375 41.421875 45.53125 
Q 43.3125 49.21875 43.3125 52.78125 
Q 43.3125 58.59375 39.234375 62.25 
Q 35.15625 65.921875 28.609375 65.921875 
Q 23.96875 65.921875 18.8125 64.3125 
Q 13.671875 62.703125 7.8125 59.421875 
L 7.8125 69.390625 
Q 13.765625 71.78125 18.9375 73 
Q 24.125 74.21875 28.421875 74.21875 
Q 39.75 74.21875 46.484375 68.546875 
Q 53.21875 62.890625 53.21875 53.421875 
Q 53.21875 48.921875 51.53125 44.890625 
Q 49.859375 40.875 45.40625 35.40625 
Q 44.1875 33.984375 37.640625 27.21875 
Q 31.109375 20.453125 19.1875 8.296875 
z
" id="DejaVuSans-50"/>
      </defs>
      <g transform="translate(222.982145 175.198438)scale(0.1 -0.1)">
       <use transform="translate(0 0.765625)" xlink:href="#DejaVuSans-49"/>
       <use transform="translate(63.623047 0.765625)" xlink:href="#DejaVuSans-48"/>
       <use transform="translate(128.203125 39.046875)scale(0.7)" xlink:href="#DejaVuSans-50"/>
      </g>
     </g>
    </g>
    <g id="xtick_4">
     <g id="line2d_4">
      <defs>
       <path d="M 0 0 
L 0 2 
" id="m4237448f5a" style="stroke:#000000;stroke-width:0.6;"/>
      </defs>
      <g>
       <use style="stroke:#000000;stroke-width:0.6;" x="47.066609" xlink:href="#m4237448f5a" y="160.6"/>
      </g>
     </g>
    </g>
    <g id="xtick_5">
     <g id="line2d_5">
      <g>
       <use style="stroke:#000000;stroke-width:0.6;" x="51.572604" xlink:href="#m4237448f5a" y="160.6"/>
      </g>
     </g>
    </g>
    <g id="xtick_6">
     <g id="line2d_6">
      <g>
       <use style="stroke:#000000;stroke-width:0.6;" x="82.120904" xlink:href="#m4237448f5a" y="160.6"/>
      </g>
     </g>
    </g>
    <g id="xtick_7">
     <g id="line2d_7">
      <g>
       <use style="stroke:#000000;stroke-width:0.6;" x="97.632677" xlink:href="#m4237448f5a" y="160.6"/>
      </g>
     </g>
    </g>
    <g id="xtick_8">
     <g id="line2d_8">
      <g>
       <use style="stroke:#000000;stroke-width:0.6;" x="108.638455" xlink:href="#m4237448f5a" y="160.6"/>
      </g>
     </g>
    </g>
    <g id="xtick_9">
     <g id="line2d_9">
      <g>
       <use style="stroke:#000000;stroke-width:0.6;" x="117.175199" xlink:href="#m4237448f5a" y="160.6"/>
      </g>
     </g>
    </g>
    <g id="xtick_10">
     <g id="line2d_10">
      <g>
       <use style="stroke:#000000;stroke-width:0.6;" x="124.150227" xlink:href="#m4237448f5a" y="160.6"/>
      </g>
     </g>
    </g>
    <g id="xtick_11">
     <g id="line2d_11">
      <g>
       <use style="stroke:#000000;stroke-width:0.6;" x="130.04753" xlink:href="#m4237448f5a" y="160.6"/>
      </g>
     </g>
    </g>
    <g id="xtick_12">
     <g id="line2d_12">
      <g>
       <use style="stroke:#000000;stroke-width:0.6;" x="135.156005" xlink:href="#m4237448f5a" y="160.6"/>
      </g>
     </g>
    </g>
    <g id="xtick_13">
     <g id="line2d_13">
      <g>
       <use style="stroke:#000000;stroke-width:0.6;" x="139.662" xlink:href="#m4237448f5a" y="160.6"/>
      </g>
     </g>
    </g>
    <g id="xtick_14">
     <g id="line2d_14">
      <g>
       <use style="stroke:#000000;stroke-width:0.6;" x="170.2103" xlink:href="#m4237448f5a" y="160.6"/>
      </g>
     </g>
    </g>
    <g id="xtick_15">
     <g id="line2d_15">
      <g>
       <use style="stroke:#000000;stroke-width:0.6;" x="185.722073" xlink:href="#m4237448f5a" y="160.6"/>
      </g>
     </g>
    </g>
    <g id="xtick_16">
     <g id="line2d_16">
      <g>
       <use style="stroke:#000000;stroke-width:0.6;" x="196.72785" xlink:href="#m4237448f5a" y="160.6"/>
      </g>
     </g>
    </g>
    <g id="xtick_17">
     <g id="line2d_17">
      <g>
       <use style="stroke:#000000;stroke-width:0.6;" x="205.264595" xlink:href="#m4237448f5a" y="160.6"/>
      </g>
     </g>
    </g>
    <g id="xtick_18">
     <g id="line2d_18">
      <g>
       <use style="stroke:#000000;stroke-width:0.6;" x="212.239623" xlink:href="#m4237448f5a" y="160.6"/>
      </g>
     </g>
    </g>
    <g id="xtick_19">
     <g id="line2d_19">
      <g>
       <use style="stroke:#000000;stroke-width:0.6;" x="218.136925" xlink:href="#m4237448f5a" y="160.6"/>
      </g>
     </g>
    </g>
    <g id="xtick_20">
     <g id="line2d_20">
      <g>
       <use style="stroke:#000000;stroke-width:0.6;" x="223.245401" xlink:href="#m4237448f5a" y="160.6"/>
      </g>
     </g>
    </g>
    <g id="xtick_21">
     <g id="line2d_21">
      <g>
       <use style="stroke:#000000;stroke-width:0.6;" x="227.751396" xlink:href="#m4237448f5a" y="160.6"/>
      </g>
     </g>
    </g>
    <g id="xtick_22">
     <g id="line2d_22">
      <g>
       <use style="stroke:#000000;stroke-width:0.6;" x="258.299696" xlink:href="#m4237448f5a" y="160.6"/>
      </g>
     </g>
    </g>
    <g id="text_4">
     <!-- sample frequency -->
     <defs>
      <path d="M 44.28125 53.078125 
L 44.28125 44.578125 
Q 40.484375 46.53125 36.375 47.5 
Q 32.28125 48.484375 27.875 48.484375 
Q 21.1875 48.484375 17.84375 46.4375 
Q 14.5 44.390625 14.5 40.28125 
Q 14.5 37.15625 16.890625 35.375 
Q 19.28125 33.59375 26.515625 31.984375 
L 29.59375 31.296875 
Q 39.15625 29.25 43.1875 25.515625 
Q 47.21875 21.78125 47.21875 15.09375 
Q 47.21875 7.46875 41.1875 3.015625 
Q 35.15625 -1.421875 24.609375 -1.421875 
Q 20.21875 -1.421875 15.453125 -0.5625 
Q 10.6875 0.296875 5.421875 2 
L 5.421875 11.28125 
Q 10.40625 8.6875 15.234375 7.390625 
Q 20.0625 6.109375 24.8125 6.109375 
Q 31.15625 6.109375 34.5625 8.28125 
Q 37.984375 10.453125 37.984375 14.40625 
Q 37.984375 18.0625 35.515625 20.015625 
Q 33.0625 21.96875 24.703125 23.78125 
L 21.578125 24.515625 
Q 13.234375 26.265625 9.515625 29.90625 
Q 5.8125 33.546875 5.8125 39.890625 
Q 5.8125 47.609375 11.28125 51.796875 
Q 16.75 56 26.8125 56 
Q 31.78125 56 36.171875 55.265625 
Q 40.578125 54.546875 44.28125 53.078125 
z
" id="DejaVuSans-115"/>
      <path d="M 34.28125 27.484375 
Q 23.390625 27.484375 19.1875 25 
Q 14.984375 22.515625 14.984375 16.5 
Q 14.984375 11.71875 18.140625 8.90625 
Q 21.296875 6.109375 26.703125 6.109375 
Q 34.1875 6.109375 38.703125 11.40625 
Q 43.21875 16.703125 43.21875 25.484375 
L 43.21875 27.484375 
z
M 52.203125 31.203125 
L 52.203125 0 
L 43.21875 0 
L 43.21875 8.296875 
Q 40.140625 3.328125 35.546875 0.953125 
Q 30.953125 -1.421875 24.3125 -1.421875 
Q 15.921875 -1.421875 10.953125 3.296875 
Q 6 8.015625 6 15.921875 
Q 6 25.140625 12.171875 29.828125 
Q 18.359375 34.515625 30.609375 34.515625 
L 43.21875 34.515625 
L 43.21875 35.40625 
Q 43.21875 41.609375 39.140625 45 
Q 35.0625 48.390625 27.6875 48.390625 
Q 23 48.390625 18.546875 47.265625 
Q 14.109375 46.140625 10.015625 43.890625 
L 10.015625 52.203125 
Q 14.9375 54.109375 19.578125 55.046875 
Q 24.21875 56 28.609375 56 
Q 40.484375 56 46.34375 49.84375 
Q 52.203125 43.703125 52.203125 31.203125 
z
" id="DejaVuSans-97"/>
      <path d="M 52 44.1875 
Q 55.375 50.25 60.0625 53.125 
Q 64.75 56 71.09375 56 
Q 79.640625 56 84.28125 50.015625 
Q 88.921875 44.046875 88.921875 33.015625 
L 88.921875 0 
L 79.890625 0 
L 79.890625 32.71875 
Q 79.890625 40.578125 77.09375 44.375 
Q 74.3125 48.1875 68.609375 48.1875 
Q 61.625 48.1875 57.5625 43.546875 
Q 53.515625 38.921875 53.515625 30.90625 
L 53.515625 0 
L 44.484375 0 
L 44.484375 32.71875 
Q 44.484375 40.625 41.703125 44.40625 
Q 38.921875 48.1875 33.109375 48.1875 
Q 26.21875 48.1875 22.15625 43.53125 
Q 18.109375 38.875 18.109375 30.90625 
L 18.109375 0 
L 9.078125 0 
L 9.078125 54.6875 
L 18.109375 54.6875 
L 18.109375 46.1875 
Q 21.1875 51.21875 25.484375 53.609375 
Q 29.78125 56 35.6875 56 
Q 41.65625 56 45.828125 52.96875 
Q 50 49.953125 52 44.1875 
z
" id="DejaVuSans-109"/>
      <path d="M 18.109375 8.203125 
L 18.109375 -20.796875 
L 9.078125 -20.796875 
L 9.078125 54.6875 
L 18.109375 54.6875 
L 18.109375 46.390625 
Q 20.953125 51.265625 25.265625 53.625 
Q 29.59375 56 35.59375 56 
Q 45.5625 56 51.78125 48.09375 
Q 58.015625 40.1875 58.015625 27.296875 
Q 58.015625 14.40625 51.78125 6.484375 
Q 45.5625 -1.421875 35.59375 -1.421875 
Q 29.59375 -1.421875 25.265625 0.953125 
Q 20.953125 3.328125 18.109375 8.203125 
z
M 48.6875 27.296875 
Q 48.6875 37.203125 44.609375 42.84375 
Q 40.53125 48.484375 33.40625 48.484375 
Q 26.265625 48.484375 22.1875 42.84375 
Q 18.109375 37.203125 18.109375 27.296875 
Q 18.109375 17.390625 22.1875 11.75 
Q 26.265625 6.109375 33.40625 6.109375 
Q 40.53125 6.109375 44.609375 11.75 
Q 48.6875 17.390625 48.6875 27.296875 
z
" id="DejaVuSans-112"/>
      <path d="M 9.421875 75.984375 
L 18.40625 75.984375 
L 18.40625 0 
L 9.421875 0 
z
" id="DejaVuSans-108"/>
      <path d="M 56.203125 29.59375 
L 56.203125 25.203125 
L 14.890625 25.203125 
Q 15.484375 15.921875 20.484375 11.0625 
Q 25.484375 6.203125 34.421875 6.203125 
Q 39.59375 6.203125 44.453125 7.46875 
Q 49.3125 8.734375 54.109375 11.28125 
L 54.109375 2.78125 
Q 49.265625 0.734375 44.1875 -0.34375 
Q 39.109375 -1.421875 33.890625 -1.421875 
Q 20.796875 -1.421875 13.15625 6.1875 
Q 5.515625 13.8125 5.515625 26.8125 
Q 5.515625 40.234375 12.765625 48.109375 
Q 20.015625 56 32.328125 56 
Q 43.359375 56 49.78125 48.890625 
Q 56.203125 41.796875 56.203125 29.59375 
z
M 47.21875 32.234375 
Q 47.125 39.59375 43.09375 43.984375 
Q 39.0625 48.390625 32.421875 48.390625 
Q 24.90625 48.390625 20.390625 44.140625 
Q 15.875 39.890625 15.1875 32.171875 
z
" id="DejaVuSans-101"/>
      <path id="DejaVuSans-32"/>
      <path d="M 37.109375 75.984375 
L 37.109375 68.5 
L 28.515625 68.5 
Q 23.6875 68.5 21.796875 66.546875 
Q 19.921875 64.59375 19.921875 59.515625 
L 19.921875 54.6875 
L 34.71875 54.6875 
L 34.71875 47.703125 
L 19.921875 47.703125 
L 19.921875 0 
L 10.890625 0 
L 10.890625 47.703125 
L 2.296875 47.703125 
L 2.296875 54.6875 
L 10.890625 54.6875 
L 10.890625 58.5 
Q 10.890625 67.625 15.140625 71.796875 
Q 19.390625 75.984375 28.609375 75.984375 
z
" id="DejaVuSans-102"/>
      <path d="M 41.109375 46.296875 
Q 39.59375 47.171875 37.8125 47.578125 
Q 36.03125 48 33.890625 48 
Q 26.265625 48 22.1875 43.046875 
Q 18.109375 38.09375 18.109375 28.8125 
L 18.109375 0 
L 9.078125 0 
L 9.078125 54.6875 
L 18.109375 54.6875 
L 18.109375 46.1875 
Q 20.953125 51.171875 25.484375 53.578125 
Q 30.03125 56 36.53125 56 
Q 37.453125 56 38.578125 55.875 
Q 39.703125 55.765625 41.0625 55.515625 
z
" id="DejaVuSans-114"/>
      <path d="M 14.796875 27.296875 
Q 14.796875 17.390625 18.875 11.75 
Q 22.953125 6.109375 30.078125 6.109375 
Q 37.203125 6.109375 41.296875 11.75 
Q 45.40625 17.390625 45.40625 27.296875 
Q 45.40625 37.203125 41.296875 42.84375 
Q 37.203125 48.484375 30.078125 48.484375 
Q 22.953125 48.484375 18.875 42.84375 
Q 14.796875 37.203125 14.796875 27.296875 
z
M 45.40625 8.203125 
Q 42.578125 3.328125 38.25 0.953125 
Q 33.9375 -1.421875 27.875 -1.421875 
Q 17.96875 -1.421875 11.734375 6.484375 
Q 5.515625 14.40625 5.515625 27.296875 
Q 5.515625 40.1875 11.734375 48.09375 
Q 17.96875 56 27.875 56 
Q 33.9375 56 38.25 53.625 
Q 42.578125 51.265625 45.40625 46.390625 
L 45.40625 54.6875 
L 54.390625 54.6875 
L 54.390625 -20.796875 
L 45.40625 -20.796875 
z
" id="DejaVuSans-113"/>
      <path d="M 8.5 21.578125 
L 8.5 54.6875 
L 17.484375 54.6875 
L 17.484375 21.921875 
Q 17.484375 14.15625 20.5 10.265625 
Q 23.53125 6.390625 29.59375 6.390625 
Q 36.859375 6.390625 41.078125 11.03125 
Q 45.3125 15.671875 45.3125 23.6875 
L 45.3125 54.6875 
L 54.296875 54.6875 
L 54.296875 0 
L 45.3125 0 
L 45.3125 8.40625 
Q 42.046875 3.421875 37.71875 1 
Q 33.40625 -1.421875 27.6875 -1.421875 
Q 18.265625 -1.421875 13.375 4.4375 
Q 8.5 10.296875 8.5 21.578125 
z
M 31.109375 56 
z
" id="DejaVuSans-117"/>
      <path d="M 54.890625 33.015625 
L 54.890625 0 
L 45.90625 0 
L 45.90625 32.71875 
Q 45.90625 40.484375 42.875 44.328125 
Q 39.84375 48.1875 33.796875 48.1875 
Q 26.515625 48.1875 22.3125 43.546875 
Q 18.109375 38.921875 18.109375 30.90625 
L 18.109375 0 
L 9.078125 0 
L 9.078125 54.6875 
L 18.109375 54.6875 
L 18.109375 46.1875 
Q 21.34375 51.125 25.703125 53.5625 
Q 30.078125 56 35.796875 56 
Q 45.21875 56 50.046875 50.171875 
Q 54.890625 44.34375 54.890625 33.015625 
z
" id="DejaVuSans-110"/>
      <path d="M 48.78125 52.59375 
L 48.78125 44.1875 
Q 44.96875 46.296875 41.140625 47.34375 
Q 37.3125 48.390625 33.40625 48.390625 
Q 24.65625 48.390625 19.8125 42.84375 
Q 14.984375 37.3125 14.984375 27.296875 
Q 14.984375 17.28125 19.8125 11.734375 
Q 24.65625 6.203125 33.40625 6.203125 
Q 37.3125 6.203125 41.140625 7.25 
Q 44.96875 8.296875 48.78125 10.40625 
L 48.78125 2.09375 
Q 45.015625 0.34375 40.984375 -0.53125 
Q 36.96875 -1.421875 32.421875 -1.421875 
Q 20.0625 -1.421875 12.78125 6.34375 
Q 5.515625 14.109375 5.515625 27.296875 
Q 5.515625 40.671875 12.859375 48.328125 
Q 20.21875 56 33.015625 56 
Q 37.15625 56 41.109375 55.140625 
Q 45.0625 54.296875 48.78125 52.59375 
z
" id="DejaVuSans-99"/>
      <path d="M 32.171875 -5.078125 
Q 28.375 -14.84375 24.75 -17.8125 
Q 21.140625 -20.796875 15.09375 -20.796875 
L 7.90625 -20.796875 
L 7.90625 -13.28125 
L 13.1875 -13.28125 
Q 16.890625 -13.28125 18.9375 -11.515625 
Q 21 -9.765625 23.484375 -3.21875 
L 25.09375 0.875 
L 2.984375 54.6875 
L 12.5 54.6875 
L 29.59375 11.921875 
L 46.6875 54.6875 
L 56.203125 54.6875 
z
" id="DejaVuSans-121"/>
     </defs>
     <g transform="translate(112.011112 188.876563)scale(0.1 -0.1)">
      <use xlink:href="#DejaVuSans-115"/>
      <use x="52.099609" xlink:href="#DejaVuSans-97"/>
      <use x="113.378906" xlink:href="#DejaVuSans-109"/>
      <use x="210.791016" xlink:href="#DejaVuSans-112"/>
      <use x="274.267578" xlink:href="#DejaVuSans-108"/>
      <use x="302.050781" xlink:href="#DejaVuSans-101"/>
      <use x="363.574219" xlink:href="#DejaVuSans-32"/>
      <use x="395.361328" xlink:href="#DejaVuSans-102"/>
      <use x="430.566406" xlink:href="#DejaVuSans-114"/>
      <use x="469.429688" xlink:href="#DejaVuSans-101"/>
      <use x="530.953125" xlink:href="#DejaVuSans-113"/>
      <use x="594.429688" xlink:href="#DejaVuSans-117"/>
      <use x="657.808594" xlink:href="#DejaVuSans-101"/>
      <use x="719.332031" xlink:href="#DejaVuSans-110"/>
      <use x="782.710938" xlink:href="#DejaVuSans-99"/>
      <use x="837.691406" xlink:href="#DejaVuSans-121"/>
     </g>
    </g>
   </g>
   <g id="matplotlib.axis_2">
    <g id="ytick_1">
     <g id="line2d_23">
      <defs>
       <path d="M 0 0 
L -3.5 0 
" id="m01c13f5f7a" style="stroke:#000000;stroke-width:0.8;"/>
      </defs>
      <g>
       <use style="stroke:#000000;stroke-width:0.8;" x="45.478125" xlink:href="#m01c13f5f7a" y="155.604235"/>
      </g>
     </g>
     <g id="text_5">
      <!-- $\mathdefault{10^{4}}$ -->
      <defs>
       <path d="M 37.796875 64.3125 
L 12.890625 25.390625 
L 37.796875 25.390625 
z
M 35.203125 72.90625 
L 47.609375 72.90625 
L 47.609375 25.390625 
L 58.015625 25.390625 
L 58.015625 17.1875 
L 47.609375 17.1875 
L 47.609375 0 
L 37.796875 0 
L 37.796875 17.1875 
L 4.890625 17.1875 
L 4.890625 26.703125 
z
" id="DejaVuSans-52"/>
      </defs>
      <g transform="translate(20.878125 159.403454)scale(0.1 -0.1)">
       <use transform="translate(0 0.684375)" xlink:href="#DejaVuSans-49"/>
       <use transform="translate(63.623047 0.684375)" xlink:href="#DejaVuSans-48"/>
       <use transform="translate(128.203125 38.965625)scale(0.7)" xlink:href="#DejaVuSans-52"/>
      </g>
     </g>
    </g>
    <g id="ytick_2">
     <g id="line2d_24">
      <g>
       <use style="stroke:#000000;stroke-width:0.8;" x="45.478125" xlink:href="#m01c13f5f7a" y="92.335032"/>
      </g>
     </g>
     <g id="text_6">
      <!-- $\mathdefault{10^{5}}$ -->
      <defs>
       <path d="M 10.796875 72.90625 
L 49.515625 72.90625 
L 49.515625 64.59375 
L 19.828125 64.59375 
L 19.828125 46.734375 
Q 21.96875 47.46875 24.109375 47.828125 
Q 26.265625 48.1875 28.421875 48.1875 
Q 40.625 48.1875 47.75 41.5 
Q 54.890625 34.8125 54.890625 23.390625 
Q 54.890625 11.625 47.5625 5.09375 
Q 40.234375 -1.421875 26.90625 -1.421875 
Q 22.3125 -1.421875 17.546875 -0.640625 
Q 12.796875 0.140625 7.71875 1.703125 
L 7.71875 11.625 
Q 12.109375 9.234375 16.796875 8.0625 
Q 21.484375 6.890625 26.703125 6.890625 
Q 35.15625 6.890625 40.078125 11.328125 
Q 45.015625 15.765625 45.015625 23.390625 
Q 45.015625 31 40.078125 35.4375 
Q 35.15625 39.890625 26.703125 39.890625 
Q 22.75 39.890625 18.8125 39.015625 
Q 14.890625 38.140625 10.796875 36.28125 
z
" id="DejaVuSans-53"/>
      </defs>
      <g transform="translate(20.878125 96.134251)scale(0.1 -0.1)">
       <use transform="translate(0 0.684375)" xlink:href="#DejaVuSans-49"/>
       <use transform="translate(63.623047 0.684375)" xlink:href="#DejaVuSans-48"/>
       <use transform="translate(128.203125 38.965625)scale(0.7)" xlink:href="#DejaVuSans-53"/>
      </g>
     </g>
    </g>
    <g id="ytick_3">
     <g id="line2d_25">
      <g>
       <use style="stroke:#000000;stroke-width:0.8;" x="45.478125" xlink:href="#m01c13f5f7a" y="29.065828"/>
      </g>
     </g>
     <g id="text_7">
      <!-- $\mathdefault{10^{6}}$ -->
      <defs>
       <path d="M 33.015625 40.375 
Q 26.375 40.375 22.484375 35.828125 
Q 18.609375 31.296875 18.609375 23.390625 
Q 18.609375 15.53125 22.484375 10.953125 
Q 26.375 6.390625 33.015625 6.390625 
Q 39.65625 6.390625 43.53125 10.953125 
Q 47.40625 15.53125 47.40625 23.390625 
Q 47.40625 31.296875 43.53125 35.828125 
Q 39.65625 40.375 33.015625 40.375 
z
M 52.59375 71.296875 
L 52.59375 62.3125 
Q 48.875 64.0625 45.09375 64.984375 
Q 41.3125 65.921875 37.59375 65.921875 
Q 27.828125 65.921875 22.671875 59.328125 
Q 17.53125 52.734375 16.796875 39.40625 
Q 19.671875 43.65625 24.015625 45.921875 
Q 28.375 48.1875 33.59375 48.1875 
Q 44.578125 48.1875 50.953125 41.515625 
Q 57.328125 34.859375 57.328125 23.390625 
Q 57.328125 12.15625 50.6875 5.359375 
Q 44.046875 -1.421875 33.015625 -1.421875 
Q 20.359375 -1.421875 13.671875 8.265625 
Q 6.984375 17.96875 6.984375 36.375 
Q 6.984375 53.65625 15.1875 63.9375 
Q 23.390625 74.21875 37.203125 74.21875 
Q 40.921875 74.21875 44.703125 73.484375 
Q 48.484375 72.75 52.59375 71.296875 
z
" id="DejaVuSans-54"/>
      </defs>
      <g transform="translate(20.878125 32.865047)scale(0.1 -0.1)">
       <use transform="translate(0 0.765625)" xlink:href="#DejaVuSans-49"/>
       <use transform="translate(63.623047 0.765625)" xlink:href="#DejaVuSans-48"/>
       <use transform="translate(128.203125 39.046875)scale(0.7)" xlink:href="#DejaVuSans-54"/>
      </g>
     </g>
    </g>
    <g id="ytick_4">
     <g id="line2d_26">
      <defs>
       <path d="M 0 0 
L -2 0 
" id="mc054d3bce1" style="stroke:#000000;stroke-width:0.6;"/>
      </defs>
      <g>
       <use style="stroke:#000000;stroke-width:0.6;" x="45.478125" xlink:href="#mc054d3bce1" y="158.499275"/>
      </g>
     </g>
    </g>
    <g id="ytick_5">
     <g id="line2d_27">
      <g>
       <use style="stroke:#000000;stroke-width:0.6;" x="45.478125" xlink:href="#mc054d3bce1" y="136.558307"/>
      </g>
     </g>
    </g>
    <g id="ytick_6">
     <g id="line2d_28">
      <g>
       <use style="stroke:#000000;stroke-width:0.6;" x="45.478125" xlink:href="#mc054d3bce1" y="125.417153"/>
      </g>
     </g>
    </g>
    <g id="ytick_7">
     <g id="line2d_29">
      <g>
       <use style="stroke:#000000;stroke-width:0.6;" x="45.478125" xlink:href="#mc054d3bce1" y="117.512379"/>
      </g>
     </g>
    </g>
    <g id="ytick_8">
     <g id="line2d_30">
      <g>
       <use style="stroke:#000000;stroke-width:0.6;" x="45.478125" xlink:href="#mc054d3bce1" y="111.38096"/>
      </g>
     </g>
    </g>
    <g id="ytick_9">
     <g id="line2d_31">
      <g>
       <use style="stroke:#000000;stroke-width:0.6;" x="45.478125" xlink:href="#mc054d3bce1" y="106.371225"/>
      </g>
     </g>
    </g>
    <g id="ytick_10">
     <g id="line2d_32">
      <g>
       <use style="stroke:#000000;stroke-width:0.6;" x="45.478125" xlink:href="#mc054d3bce1" y="102.135555"/>
      </g>
     </g>
    </g>
    <g id="ytick_11">
     <g id="line2d_33">
      <g>
       <use style="stroke:#000000;stroke-width:0.6;" x="45.478125" xlink:href="#mc054d3bce1" y="98.466451"/>
      </g>
     </g>
    </g>
    <g id="ytick_12">
     <g id="line2d_34">
      <g>
       <use style="stroke:#000000;stroke-width:0.6;" x="45.478125" xlink:href="#mc054d3bce1" y="95.230072"/>
      </g>
     </g>
    </g>
    <g id="ytick_13">
     <g id="line2d_35">
      <g>
       <use style="stroke:#000000;stroke-width:0.6;" x="45.478125" xlink:href="#mc054d3bce1" y="73.289104"/>
      </g>
     </g>
    </g>
    <g id="ytick_14">
     <g id="line2d_36">
      <g>
       <use style="stroke:#000000;stroke-width:0.6;" x="45.478125" xlink:href="#mc054d3bce1" y="62.14795"/>
      </g>
     </g>
    </g>
    <g id="ytick_15">
     <g id="line2d_37">
      <g>
       <use style="stroke:#000000;stroke-width:0.6;" x="45.478125" xlink:href="#mc054d3bce1" y="54.243176"/>
      </g>
     </g>
    </g>
    <g id="ytick_16">
     <g id="line2d_38">
      <g>
       <use style="stroke:#000000;stroke-width:0.6;" x="45.478125" xlink:href="#mc054d3bce1" y="48.111756"/>
      </g>
     </g>
    </g>
    <g id="ytick_17">
     <g id="line2d_39">
      <g>
       <use style="stroke:#000000;stroke-width:0.6;" x="45.478125" xlink:href="#mc054d3bce1" y="43.102022"/>
      </g>
     </g>
    </g>
    <g id="ytick_18">
     <g id="line2d_40">
      <g>
       <use style="stroke:#000000;stroke-width:0.6;" x="45.478125" xlink:href="#mc054d3bce1" y="38.866352"/>
      </g>
     </g>
    </g>
    <g id="ytick_19">
     <g id="line2d_41">
      <g>
       <use style="stroke:#000000;stroke-width:0.6;" x="45.478125" xlink:href="#mc054d3bce1" y="35.197248"/>
      </g>
     </g>
    </g>
    <g id="ytick_20">
     <g id="line2d_42">
      <g>
       <use style="stroke:#000000;stroke-width:0.6;" x="45.478125" xlink:href="#mc054d3bce1" y="31.960868"/>
      </g>
     </g>
    </g>
    <g id="ytick_21">
     <g id="line2d_43">
      <g>
       <use style="stroke:#000000;stroke-width:0.6;" x="45.478125" xlink:href="#mc054d3bce1" y="10.0199"/>
      </g>
     </g>
    </g>
    <g id="text_8">
     <!-- variant count -->
     <defs>
      <path d="M 2.984375 54.6875 
L 12.5 54.6875 
L 29.59375 8.796875 
L 46.6875 54.6875 
L 56.203125 54.6875 
L 35.6875 0 
L 23.484375 0 
z
" id="DejaVuSans-118"/>
      <path d="M 9.421875 54.6875 
L 18.40625 54.6875 
L 18.40625 0 
L 9.421875 0 
z
M 9.421875 75.984375 
L 18.40625 75.984375 
L 18.40625 64.59375 
L 9.421875 64.59375 
z
" id="DejaVuSans-105"/>
      <path d="M 18.3125 70.21875 
L 18.3125 54.6875 
L 36.8125 54.6875 
L 36.8125 47.703125 
L 18.3125 47.703125 
L 18.3125 18.015625 
Q 18.3125 11.328125 20.140625 9.421875 
Q 21.96875 7.515625 27.59375 7.515625 
L 36.8125 7.515625 
L 36.8125 0 
L 27.59375 0 
Q 17.1875 0 13.234375 3.875 
Q 9.28125 7.765625 9.28125 18.015625 
L 9.28125 47.703125 
L 2.6875 47.703125 
L 2.6875 54.6875 
L 9.28125 54.6875 
L 9.28125 70.21875 
z
" id="DejaVuSans-116"/>
      <path d="M 30.609375 48.390625 
Q 23.390625 48.390625 19.1875 42.75 
Q 14.984375 37.109375 14.984375 27.296875 
Q 14.984375 17.484375 19.15625 11.84375 
Q 23.34375 6.203125 30.609375 6.203125 
Q 37.796875 6.203125 41.984375 11.859375 
Q 46.1875 17.53125 46.1875 27.296875 
Q 46.1875 37.015625 41.984375 42.703125 
Q 37.796875 48.390625 30.609375 48.390625 
z
M 30.609375 56 
Q 42.328125 56 49.015625 48.375 
Q 55.71875 40.765625 55.71875 27.296875 
Q 55.71875 13.875 49.015625 6.21875 
Q 42.328125 -1.421875 30.609375 -1.421875 
Q 18.84375 -1.421875 12.171875 6.21875 
Q 5.515625 13.875 5.515625 27.296875 
Q 5.515625 40.765625 12.171875 48.375 
Q 18.84375 56 30.609375 56 
z
" id="DejaVuSans-111"/>
     </defs>
     <g transform="translate(14.798438 117.25625)rotate(-90)scale(0.1 -0.1)">
      <use xlink:href="#DejaVuSans-118"/>
      <use x="59.179688" xlink:href="#DejaVuSans-97"/>
      <use x="120.458984" xlink:href="#DejaVuSans-114"/>
      <use x="161.572266" xlink:href="#DejaVuSans-105"/>
      <use x="189.355469" xlink:href="#DejaVuSans-97"/>
      <use x="250.634766" xlink:href="#DejaVuSans-110"/>
      <use x="314.013672" xlink:href="#DejaVuSans-116"/>
      <use x="353.222656" xlink:href="#DejaVuSans-32"/>
      <use x="385.009766" xlink:href="#DejaVuSans-99"/>
      <use x="439.990234" xlink:href="#DejaVuSans-111"/>
      <use x="501.171875" xlink:href="#DejaVuSans-117"/>
      <use x="564.550781" xlink:href="#DejaVuSans-110"/>
      <use x="627.929688" xlink:href="#DejaVuSans-116"/>
     </g>
    </g>
   </g>
   <g id="line2d_44">
    <defs>
     <path d="M 0 1.5 
C 0.397805 1.5 0.77937 1.341951 1.06066 1.06066 
C 1.341951 0.77937 1.5 0.397805 1.5 0 
C 1.5 -0.397805 1.341951 -0.77937 1.06066 -1.06066 
C 0.77937 -1.341951 0.397805 -1.5 0 -1.5 
C -0.397805 -1.5 -0.77937 -1.341951 -1.06066 -1.06066 
C -1.341951 -0.77937 -1.5 -0.397805 -1.5 0 
C -1.5 0.397805 -1.341951 0.77937 -1.06066 1.06066 
C -0.77937 1.341951 -0.397805 1.5 0 1.5 
z
" id="mada22c4280" style="stroke:#1f77b4;"/>
    </defs>
    <g clip-path="url(#p96388c4ea3)">
     <use style="fill:#1f77b4;stroke:#1f77b4;" x="55.603354" xlink:href="#mada22c4280" y="14.172727"/>
     <use style="fill:#1f77b4;stroke:#1f77b4;" x="82.120904" xlink:href="#mada22c4280" y="43.017293"/>
     <use style="fill:#1f77b4;stroke:#1f77b4;" x="97.632677" xlink:href="#mada22c4280" y="55.369512"/>
     <use style="fill:#1f77b4;stroke:#1f77b4;" x="108.638455" xlink:href="#mada22c4280" y="62.221689"/>
     <use style="fill:#1f77b4;stroke:#1f77b4;" x="117.175199" xlink:href="#mada22c4280" y="67.331119"/>
     <use style="fill:#1f77b4;stroke:#1f77b4;" x="124.150227" xlink:href="#mada22c4280" y="71.342842"/>
     <use style="fill:#1f77b4;stroke:#1f77b4;" x="130.04753" xlink:href="#mada22c4280" y="74.796595"/>
     <use style="fill:#1f77b4;stroke:#1f77b4;" x="135.156005" xlink:href="#mada22c4280" y="78.029727"/>
     <use style="fill:#1f77b4;stroke:#1f77b4;" x="139.662" xlink:href="#mada22c4280" y="80.846388"/>
     <use style="fill:#1f77b4;stroke:#1f77b4;" x="143.69275" xlink:href="#mada22c4280" y="83.762358"/>
     <use style="fill:#1f77b4;stroke:#1f77b4;" x="147.339006" xlink:href="#mada22c4280" y="86.229123"/>
     <use style="fill:#1f77b4;stroke:#1f77b4;" x="150.667778" xlink:href="#mada22c4280" y="88.922144"/>
     <use style="fill:#1f77b4;stroke:#1f77b4;" x="153.729951" xlink:href="#mada22c4280" y="91.074071"/>
     <use style="fill:#1f77b4;stroke:#1f77b4;" x="156.56508" xlink:href="#mada22c4280" y="93.431827"/>
     <use style="fill:#1f77b4;stroke:#1f77b4;" x="159.204522" xlink:href="#mada22c4280" y="95.542026"/>
     <use style="fill:#1f77b4;stroke:#1f77b4;" x="161.673556" xlink:href="#mada22c4280" y="97.719019"/>
     <use style="fill:#1f77b4;stroke:#1f77b4;" x="163.992856" xlink:href="#mada22c4280" y="99.665167"/>
     <use style="fill:#1f77b4;stroke:#1f77b4;" x="166.17955" xlink:href="#mada22c4280" y="101.42568"/>
     <use style="fill:#1f77b4;stroke:#1f77b4;" x="168.247986" xlink:href="#mada22c4280" y="103.32602"/>
     <use style="fill:#1f77b4;stroke:#1f77b4;" x="170.2103" xlink:href="#mada22c4280" y="105.106591"/>
     <use style="fill:#1f77b4;stroke:#1f77b4;" x="172.076853" xlink:href="#mada22c4280" y="106.809301"/>
     <use style="fill:#1f77b4;stroke:#1f77b4;" x="173.856557" xlink:href="#mada22c4280" y="108.210606"/>
     <use style="fill:#1f77b4;stroke:#1f77b4;" x="175.557136" xlink:href="#mada22c4280" y="109.996923"/>
     <use style="fill:#1f77b4;stroke:#1f77b4;" x="177.185328" xlink:href="#mada22c4280" y="110.838989"/>
     <use style="fill:#1f77b4;stroke:#1f77b4;" x="178.747045" xlink:href="#mada22c4280" y="112.359335"/>
     <use style="fill:#1f77b4;stroke:#1f77b4;" x="180.247501" xlink:href="#mada22c4280" y="113.486929"/>
     <use style="fill:#1f77b4;stroke:#1f77b4;" x="181.691323" xlink:href="#mada22c4280" y="114.853559"/>
     <use style="fill:#1f77b4;stroke:#1f77b4;" x="183.08263" xlink:href="#mada22c4280" y="116.11489"/>
     <use style="fill:#1f77b4;stroke:#1f77b4;" x="184.42511" xlink:href="#mada22c4280" y="117.610098"/>
     <use style="fill:#1f77b4;stroke:#1f77b4;" x="185.722073" xlink:href="#mada22c4280" y="118.474245"/>
     <use style="fill:#1f77b4;stroke:#1f77b4;" x="186.976504" xlink:href="#mada22c4280" y="119.684286"/>
     <use style="fill:#1f77b4;stroke:#1f77b4;" x="188.191106" xlink:href="#mada22c4280" y="120.502227"/>
     <use style="fill:#1f77b4;stroke:#1f77b4;" x="189.368329" xlink:href="#mada22c4280" y="121.332632"/>
     <use style="fill:#1f77b4;stroke:#1f77b4;" x="190.510406" xlink:href="#mada22c4280" y="122.293357"/>
     <use style="fill:#1f77b4;stroke:#1f77b4;" x="191.619375" xlink:href="#mada22c4280" y="123.097989"/>
     <use style="fill:#1f77b4;stroke:#1f77b4;" x="192.697101" xlink:href="#mada22c4280" y="123.887883"/>
     <use style="fill:#1f77b4;stroke:#1f77b4;" x="193.745296" xlink:href="#mada22c4280" y="124.57207"/>
     <use style="fill:#1f77b4;stroke:#1f77b4;" x="194.765536" xlink:href="#mada22c4280" y="125.364082"/>
     <use style="fill:#1f77b4;stroke:#1f77b4;" x="195.759274" xlink:href="#mada22c4280" y="126.0359"/>
     <use style="fill:#1f77b4;stroke:#1f77b4;" x="196.72785" xlink:href="#mada22c4280" y="126.666983"/>
     <use style="fill:#1f77b4;stroke:#1f77b4;" x="197.672509" xlink:href="#mada22c4280" y="127.508886"/>
     <use style="fill:#1f77b4;stroke:#1f77b4;" x="198.594403" xlink:href="#mada22c4280" y="127.939211"/>
     <use style="fill:#1f77b4;stroke:#1f77b4;" x="199.494603" xlink:href="#mada22c4280" y="128.599661"/>
     <use style="fill:#1f77b4;stroke:#1f77b4;" x="200.374107" xlink:href="#mada22c4280" y="128.974482"/>
     <use style="fill:#1f77b4;stroke:#1f77b4;" x="201.233845" xlink:href="#mada22c4280" y="129.462516"/>
     <use style="fill:#1f77b4;stroke:#1f77b4;" x="202.074687" xlink:href="#mada22c4280" y="129.774144"/>
     <use style="fill:#1f77b4;stroke:#1f77b4;" x="202.897444" xlink:href="#mada22c4280" y="130.517162"/>
     <use style="fill:#1f77b4;stroke:#1f77b4;" x="203.702879" xlink:href="#mada22c4280" y="131.041512"/>
     <use style="fill:#1f77b4;stroke:#1f77b4;" x="204.491705" xlink:href="#mada22c4280" y="131.139471"/>
     <use style="fill:#1f77b4;stroke:#1f77b4;" x="205.264595" xlink:href="#mada22c4280" y="131.915083"/>
     <use style="fill:#1f77b4;stroke:#1f77b4;" x="206.022179" xlink:href="#mada22c4280" y="132.23485"/>
     <use style="fill:#1f77b4;stroke:#1f77b4;" x="206.765051" xlink:href="#mada22c4280" y="132.634503"/>
     <use style="fill:#1f77b4;stroke:#1f77b4;" x="207.493773" xlink:href="#mada22c4280" y="132.923055"/>
     <use style="fill:#1f77b4;stroke:#1f77b4;" x="208.208873" xlink:href="#mada22c4280" y="133.527863"/>
     <use style="fill:#1f77b4;stroke:#1f77b4;" x="208.910852" xlink:href="#mada22c4280" y="133.696948"/>
     <use style="fill:#1f77b4;stroke:#1f77b4;" x="209.600181" xlink:href="#mada22c4280" y="134.189102"/>
     <use style="fill:#1f77b4;stroke:#1f77b4;" x="210.277309" xlink:href="#mada22c4280" y="134.500917"/>
     <use style="fill:#1f77b4;stroke:#1f77b4;" x="210.94266" xlink:href="#mada22c4280" y="135.026005"/>
     <use style="fill:#1f77b4;stroke:#1f77b4;" x="211.596638" xlink:href="#mada22c4280" y="134.715916"/>
     <use style="fill:#1f77b4;stroke:#1f77b4;" x="212.239623" xlink:href="#mada22c4280" y="135.517635"/>
     <use style="fill:#1f77b4;stroke:#1f77b4;" x="212.87198" xlink:href="#mada22c4280" y="135.75411"/>
     <use style="fill:#1f77b4;stroke:#1f77b4;" x="213.494055" xlink:href="#mada22c4280" y="136.181711"/>
     <use style="fill:#1f77b4;stroke:#1f77b4;" x="214.106176" xlink:href="#mada22c4280" y="136.502036"/>
     <use style="fill:#1f77b4;stroke:#1f77b4;" x="214.708656" xlink:href="#mada22c4280" y="136.484218"/>
     <use style="fill:#1f77b4;stroke:#1f77b4;" x="215.301796" xlink:href="#mada22c4280" y="136.902549"/>
     <use style="fill:#1f77b4;stroke:#1f77b4;" x="215.88588" xlink:href="#mada22c4280" y="137.307574"/>
     <use style="fill:#1f77b4;stroke:#1f77b4;" x="216.46118" xlink:href="#mada22c4280" y="137.238481"/>
     <use style="fill:#1f77b4;stroke:#1f77b4;" x="217.027957" xlink:href="#mada22c4280" y="138.150543"/>
     <use style="fill:#1f77b4;stroke:#1f77b4;" x="217.586459" xlink:href="#mada22c4280" y="137.92581"/>
     <use style="fill:#1f77b4;stroke:#1f77b4;" x="218.136925" xlink:href="#mada22c4280" y="138.317011"/>
     <use style="fill:#1f77b4;stroke:#1f77b4;" x="218.679583" xlink:href="#mada22c4280" y="138.463872"/>
     <use style="fill:#1f77b4;stroke:#1f77b4;" x="219.214651" xlink:href="#mada22c4280" y="138.546457"/>
     <use style="fill:#1f77b4;stroke:#1f77b4;" x="219.742339" xlink:href="#mada22c4280" y="139.28594"/>
     <use style="fill:#1f77b4;stroke:#1f77b4;" x="220.262847" xlink:href="#mada22c4280" y="139.339096"/>
     <use style="fill:#1f77b4;stroke:#1f77b4;" x="220.776368" xlink:href="#mada22c4280" y="139.766537"/>
     <use style="fill:#1f77b4;stroke:#1f77b4;" x="221.283087" xlink:href="#mada22c4280" y="139.760361"/>
     <use style="fill:#1f77b4;stroke:#1f77b4;" x="221.783182" xlink:href="#mada22c4280" y="139.737216"/>
     <use style="fill:#1f77b4;stroke:#1f77b4;" x="222.276824" xlink:href="#mada22c4280" y="140.041197"/>
     <use style="fill:#1f77b4;stroke:#1f77b4;" x="222.764178" xlink:href="#mada22c4280" y="140.403832"/>
     <use style="fill:#1f77b4;stroke:#1f77b4;" x="223.245401" xlink:href="#mada22c4280" y="140.62915"/>
     <use style="fill:#1f77b4;stroke:#1f77b4;" x="223.720646" xlink:href="#mada22c4280" y="140.941606"/>
     <use style="fill:#1f77b4;stroke:#1f77b4;" x="224.19006" xlink:href="#mada22c4280" y="140.718518"/>
     <use style="fill:#1f77b4;stroke:#1f77b4;" x="224.653783" xlink:href="#mada22c4280" y="141.572438"/>
     <use style="fill:#1f77b4;stroke:#1f77b4;" x="225.111953" xlink:href="#mada22c4280" y="141.311504"/>
     <use style="fill:#1f77b4;stroke:#1f77b4;" x="225.564701" xlink:href="#mada22c4280" y="141.518078"/>
     <use style="fill:#1f77b4;stroke:#1f77b4;" x="226.012153" xlink:href="#mada22c4280" y="141.504916"/>
     <use style="fill:#1f77b4;stroke:#1f77b4;" x="226.454433" xlink:href="#mada22c4280" y="141.884196"/>
     <use style="fill:#1f77b4;stroke:#1f77b4;" x="226.891657" xlink:href="#mada22c4280" y="141.854193"/>
     <use style="fill:#1f77b4;stroke:#1f77b4;" x="227.323942" xlink:href="#mada22c4280" y="142.246807"/>
     <use style="fill:#1f77b4;stroke:#1f77b4;" x="227.751396" xlink:href="#mada22c4280" y="142.540722"/>
     <use style="fill:#1f77b4;stroke:#1f77b4;" x="228.174126" xlink:href="#mada22c4280" y="142.803305"/>
     <use style="fill:#1f77b4;stroke:#1f77b4;" x="228.592237" xlink:href="#mada22c4280" y="143.234333"/>
     <use style="fill:#1f77b4;stroke:#1f77b4;" x="229.005827" xlink:href="#mada22c4280" y="143.037099"/>
     <use style="fill:#1f77b4;stroke:#1f77b4;" x="229.414994" xlink:href="#mada22c4280" y="143.132921"/>
     <use style="fill:#1f77b4;stroke:#1f77b4;" x="229.819831" xlink:href="#mada22c4280" y="143.236085"/>
     <use style="fill:#1f77b4;stroke:#1f77b4;" x="230.220429" xlink:href="#mada22c4280" y="143.341397"/>
     <use style="fill:#1f77b4;stroke:#1f77b4;" x="230.616875" xlink:href="#mada22c4280" y="143.806045"/>
     <use style="fill:#1f77b4;stroke:#1f77b4;" x="231.009256" xlink:href="#mada22c4280" y="144.126266"/>
     <use style="fill:#1f77b4;stroke:#1f77b4;" x="231.397652" xlink:href="#mada22c4280" y="144.302351"/>
     <use style="fill:#1f77b4;stroke:#1f77b4;" x="231.782145" xlink:href="#mada22c4280" y="143.544379"/>
     <use style="fill:#1f77b4;stroke:#1f77b4;" x="232.162813" xlink:href="#mada22c4280" y="144.433788"/>
     <use style="fill:#1f77b4;stroke:#1f77b4;" x="232.539729" xlink:href="#mada22c4280" y="144.89697"/>
     <use style="fill:#1f77b4;stroke:#1f77b4;" x="232.912969" xlink:href="#mada22c4280" y="144.997647"/>
     <use style="fill:#1f77b4;stroke:#1f77b4;" x="233.282602" xlink:href="#mada22c4280" y="144.755897"/>
     <use style="fill:#1f77b4;stroke:#1f77b4;" x="233.648698" xlink:href="#mada22c4280" y="145.141847"/>
     <use style="fill:#1f77b4;stroke:#1f77b4;" x="234.011324" xlink:href="#mada22c4280" y="145.68417"/>
     <use style="fill:#1f77b4;stroke:#1f77b4;" x="234.370545" xlink:href="#mada22c4280" y="145.470515"/>
     <use style="fill:#1f77b4;stroke:#1f77b4;" x="234.726424" xlink:href="#mada22c4280" y="145.714828"/>
     <use style="fill:#1f77b4;stroke:#1f77b4;" x="235.079023" xlink:href="#mada22c4280" y="145.624867"/>
     <use style="fill:#1f77b4;stroke:#1f77b4;" x="235.428402" xlink:href="#mada22c4280" y="145.918808"/>
     <use style="fill:#1f77b4;stroke:#1f77b4;" x="235.774619" xlink:href="#mada22c4280" y="146.541969"/>
     <use style="fill:#1f77b4;stroke:#1f77b4;" x="236.117731" xlink:href="#mada22c4280" y="145.992303"/>
     <use style="fill:#1f77b4;stroke:#1f77b4;" x="236.457793" xlink:href="#mada22c4280" y="145.974879"/>
     <use style="fill:#1f77b4;stroke:#1f77b4;" x="236.794859" xlink:href="#mada22c4280" y="146.911947"/>
     <use style="fill:#1f77b4;stroke:#1f77b4;" x="237.128981" xlink:href="#mada22c4280" y="146.730314"/>
     <use style="fill:#1f77b4;stroke:#1f77b4;" x="237.460211" xlink:href="#mada22c4280" y="146.666727"/>
     <use style="fill:#1f77b4;stroke:#1f77b4;" x="237.788597" xlink:href="#mada22c4280" y="147.044437"/>
     <use style="fill:#1f77b4;stroke:#1f77b4;" x="238.114188" xlink:href="#mada22c4280" y="147.234244"/>
     <use style="fill:#1f77b4;stroke:#1f77b4;" x="238.437032" xlink:href="#mada22c4280" y="147.169481"/>
     <use style="fill:#1f77b4;stroke:#1f77b4;" x="238.757173" xlink:href="#mada22c4280" y="147.295097"/>
     <use style="fill:#1f77b4;stroke:#1f77b4;" x="239.074659" xlink:href="#mada22c4280" y="147.345912"/>
     <use style="fill:#1f77b4;stroke:#1f77b4;" x="239.389531" xlink:href="#mada22c4280" y="148.182476"/>
     <use style="fill:#1f77b4;stroke:#1f77b4;" x="239.701832" xlink:href="#mada22c4280" y="147.838574"/>
     <use style="fill:#1f77b4;stroke:#1f77b4;" x="240.011605" xlink:href="#mada22c4280" y="148.075719"/>
     <use style="fill:#1f77b4;stroke:#1f77b4;" x="240.31889" xlink:href="#mada22c4280" y="148.291756"/>
     <use style="fill:#1f77b4;stroke:#1f77b4;" x="240.623726" xlink:href="#mada22c4280" y="148.05066"/>
     <use style="fill:#1f77b4;stroke:#1f77b4;" x="240.926152" xlink:href="#mada22c4280" y="148.084077"/>
     <use style="fill:#1f77b4;stroke:#1f77b4;" x="241.226207" xlink:href="#mada22c4280" y="148.163607"/>
     <use style="fill:#1f77b4;stroke:#1f77b4;" x="241.523926" xlink:href="#mada22c4280" y="148.829734"/>
     <use style="fill:#1f77b4;stroke:#1f77b4;" x="241.819346" xlink:href="#mada22c4280" y="148.598793"/>
     <use style="fill:#1f77b4;stroke:#1f77b4;" x="242.112503" xlink:href="#mada22c4280" y="148.718298"/>
     <use style="fill:#1f77b4;stroke:#1f77b4;" x="242.40343" xlink:href="#mada22c4280" y="149.365315"/>
     <use style="fill:#1f77b4;stroke:#1f77b4;" x="242.692162" xlink:href="#mada22c4280" y="149.079962"/>
     <use style="fill:#1f77b4;stroke:#1f77b4;" x="242.97873" xlink:href="#mada22c4280" y="149.258233"/>
     <use style="fill:#1f77b4;stroke:#1f77b4;" x="243.263168" xlink:href="#mada22c4280" y="149.748974"/>
     <use style="fill:#1f77b4;stroke:#1f77b4;" x="243.545507" xlink:href="#mada22c4280" y="149.578532"/>
     <use style="fill:#1f77b4;stroke:#1f77b4;" x="243.825777" xlink:href="#mada22c4280" y="149.751194"/>
     <use style="fill:#1f77b4;stroke:#1f77b4;" x="244.10401" xlink:href="#mada22c4280" y="149.822345"/>
     <use style="fill:#1f77b4;stroke:#1f77b4;" x="244.380233" xlink:href="#mada22c4280" y="149.862448"/>
     <use style="fill:#1f77b4;stroke:#1f77b4;" x="244.654476" xlink:href="#mada22c4280" y="150.27126"/>
     <use style="fill:#1f77b4;stroke:#1f77b4;" x="244.926767" xlink:href="#mada22c4280" y="150.551029"/>
     <use style="fill:#1f77b4;stroke:#1f77b4;" x="245.197134" xlink:href="#mada22c4280" y="150.032422"/>
     <use style="fill:#1f77b4;stroke:#1f77b4;" x="245.465603" xlink:href="#mada22c4280" y="150.323358"/>
     <use style="fill:#1f77b4;stroke:#1f77b4;" x="245.732202" xlink:href="#mada22c4280" y="150.815205"/>
     <use style="fill:#1f77b4;stroke:#1f77b4;" x="245.996955" xlink:href="#mada22c4280" y="150.670168"/>
     <use style="fill:#1f77b4;stroke:#1f77b4;" x="246.259889" xlink:href="#mada22c4280" y="150.628869"/>
     <use style="fill:#1f77b4;stroke:#1f77b4;" x="246.521028" xlink:href="#mada22c4280" y="151.396056"/>
     <use style="fill:#1f77b4;stroke:#1f77b4;" x="246.780397" xlink:href="#mada22c4280" y="150.264471"/>
     <use style="fill:#1f77b4;stroke:#1f77b4;" x="247.038019" xlink:href="#mada22c4280" y="151.549727"/>
     <use style="fill:#1f77b4;stroke:#1f77b4;" x="247.293918" xlink:href="#mada22c4280" y="151.533137"/>
     <use style="fill:#1f77b4;stroke:#1f77b4;" x="247.548116" xlink:href="#mada22c4280" y="151.341886"/>
     <use style="fill:#1f77b4;stroke:#1f77b4;" x="247.800637" xlink:href="#mada22c4280" y="151.790227"/>
     <use style="fill:#1f77b4;stroke:#1f77b4;" x="248.051502" xlink:href="#mada22c4280" y="151.682813"/>
     <use style="fill:#1f77b4;stroke:#1f77b4;" x="248.300732" xlink:href="#mada22c4280" y="151.725728"/>
     <use style="fill:#1f77b4;stroke:#1f77b4;" x="248.54835" xlink:href="#mada22c4280" y="151.835705"/>
     <use style="fill:#1f77b4;stroke:#1f77b4;" x="248.794374" xlink:href="#mada22c4280" y="151.763931"/>
     <use style="fill:#1f77b4;stroke:#1f77b4;" x="249.038827" xlink:href="#mada22c4280" y="151.742435"/>
     <use style="fill:#1f77b4;stroke:#1f77b4;" x="249.281728" xlink:href="#mada22c4280" y="152.110169"/>
     <use style="fill:#1f77b4;stroke:#1f77b4;" x="249.523096" xlink:href="#mada22c4280" y="152.314175"/>
     <use style="fill:#1f77b4;stroke:#1f77b4;" x="249.762951" xlink:href="#mada22c4280" y="152.280068"/>
     <use style="fill:#1f77b4;stroke:#1f77b4;" x="250.001312" xlink:href="#mada22c4280" y="152.640313"/>
     <use style="fill:#1f77b4;stroke:#1f77b4;" x="250.238196" xlink:href="#mada22c4280" y="152.414301"/>
     <use style="fill:#1f77b4;stroke:#1f77b4;" x="250.473623" xlink:href="#mada22c4280" y="152.301989"/>
     <use style="fill:#1f77b4;stroke:#1f77b4;" x="250.70761" xlink:href="#mada22c4280" y="152.67487"/>
     <use style="fill:#1f77b4;stroke:#1f77b4;" x="250.940175" xlink:href="#mada22c4280" y="152.51725"/>
     <use style="fill:#1f77b4;stroke:#1f77b4;" x="251.171334" xlink:href="#mada22c4280" y="153.395566"/>
     <use style="fill:#1f77b4;stroke:#1f77b4;" x="251.401105" xlink:href="#mada22c4280" y="152.888105"/>
     <use style="fill:#1f77b4;stroke:#1f77b4;" x="251.629504" xlink:href="#mada22c4280" y="153.110535"/>
     <use style="fill:#1f77b4;stroke:#1f77b4;" x="251.856547" xlink:href="#mada22c4280" y="152.830915"/>
     <use style="fill:#1f77b4;stroke:#1f77b4;" x="252.082252" xlink:href="#mada22c4280" y="153.138152"/>
     <use style="fill:#1f77b4;stroke:#1f77b4;" x="252.306632" xlink:href="#mada22c4280" y="153.349964"/>
     <use style="fill:#1f77b4;stroke:#1f77b4;" x="252.529704" xlink:href="#mada22c4280" y="153.461569"/>
     <use style="fill:#1f77b4;stroke:#1f77b4;" x="252.751483" xlink:href="#mada22c4280" y="153.627273"/>
     <use style="fill:#1f77b4;stroke:#1f77b4;" x="252.971983" xlink:href="#mada22c4280" y="153.108026"/>
     <use style="fill:#1f77b4;stroke:#1f77b4;" x="253.19122" xlink:href="#mada22c4280" y="153.175856"/>
     <use style="fill:#1f77b4;stroke:#1f77b4;" x="253.409208" xlink:href="#mada22c4280" y="153.441243"/>
     <use style="fill:#1f77b4;stroke:#1f77b4;" x="253.625961" xlink:href="#mada22c4280" y="153.113045"/>
     <use style="fill:#1f77b4;stroke:#1f77b4;" x="253.841492" xlink:href="#mada22c4280" y="152.684751"/>
     <use style="fill:#1f77b4;stroke:#1f77b4;" x="254.055816" xlink:href="#mada22c4280" y="153.082946"/>
     <use style="fill:#1f77b4;stroke:#1f77b4;" x="254.268946" xlink:href="#mada22c4280" y="153.190952"/>
     <use style="fill:#1f77b4;stroke:#1f77b4;" x="254.480895" xlink:href="#mada22c4280" y="152.992848"/>
     <use style="fill:#1f77b4;stroke:#1f77b4;" x="254.691677" xlink:href="#mada22c4280" y="152.421642"/>
     <use style="fill:#1f77b4;stroke:#1f77b4;" x="254.901303" xlink:href="#mada22c4280" y="152.667461"/>
     <use style="fill:#1f77b4;stroke:#1f77b4;" x="255.109787" xlink:href="#mada22c4280" y="152.551652"/>
     <use style="fill:#1f77b4;stroke:#1f77b4;" x="255.317141" xlink:href="#mada22c4280" y="152.301989"/>
     <use style="fill:#1f77b4;stroke:#1f77b4;" x="255.523378" xlink:href="#mada22c4280" y="152.341002"/>
     <use style="fill:#1f77b4;stroke:#1f77b4;" x="255.728508" xlink:href="#mada22c4280" y="151.89326"/>
     <use style="fill:#1f77b4;stroke:#1f77b4;" x="255.932545" xlink:href="#mada22c4280" y="151.618566"/>
     <use style="fill:#1f77b4;stroke:#1f77b4;" x="256.135499" xlink:href="#mada22c4280" y="150.704631"/>
     <use style="fill:#1f77b4;stroke:#1f77b4;" x="256.337382" xlink:href="#mada22c4280" y="150.330161"/>
     <use style="fill:#1f77b4;stroke:#1f77b4;" x="256.538205" xlink:href="#mada22c4280" y="149.900377"/>
     <use style="fill:#1f77b4;stroke:#1f77b4;" x="256.737979" xlink:href="#mada22c4280" y="149.345615"/>
     <use style="fill:#1f77b4;stroke:#1f77b4;" x="256.936716" xlink:href="#mada22c4280" y="148.639281"/>
     <use style="fill:#1f77b4;stroke:#1f77b4;" x="257.134426" xlink:href="#mada22c4280" y="146.96607"/>
     <use style="fill:#1f77b4;stroke:#1f77b4;" x="257.331119" xlink:href="#mada22c4280" y="145.922671"/>
     <use style="fill:#1f77b4;stroke:#1f77b4;" x="257.526806" xlink:href="#mada22c4280" y="144.304173"/>
     <use style="fill:#1f77b4;stroke:#1f77b4;" x="257.721497" xlink:href="#mada22c4280" y="141.498337"/>
     <use style="fill:#1f77b4;stroke:#1f77b4;" x="257.915203" xlink:href="#mada22c4280" y="135.107986"/>
     <use style="fill:#1f77b4;stroke:#1f77b4;" x="258.107932" xlink:href="#mada22c4280" y="114.881634"/>
    </g>
   </g>
   <g id="patch_3">
    <path d="M 45.478125 160.6 
L 45.478125 7.2 
" style="fill:none;stroke:#000000;stroke-linecap:square;stroke-linejoin:miter;stroke-width:0.8;"/>
   </g>
   <g id="patch_4">
    <path d="M 268.233161 160.6 
L 268.233161 7.2 
" style="fill:none;stroke:#000000;stroke-linecap:square;stroke-linejoin:miter;stroke-width:0.8;"/>
   </g>
   <g id="patch_5">
    <path d="M 45.478125 160.6 
L 268.233161 160.6 
" style="fill:none;stroke:#000000;stroke-linecap:square;stroke-linejoin:miter;stroke-width:0.8;"/>
   </g>
   <g id="patch_6">
    <path d="M 45.478125 7.2 
L 268.233161 7.2 
" style="fill:none;stroke:#000000;stroke-linecap:square;stroke-linejoin:miter;stroke-width:0.8;"/>
   </g>
  </g>
 </g>
 <defs>
  <clipPath id="p96388c4ea3">
   <rect height="153.4" width="222.755036" x="45.478125" y="7.2"/>
  </clipPath>
 </defs>
</svg>
