<?xml version="1.0" encoding="utf-8" standalone="no"?>
<!DOCTYPE svg PUBLIC "-//W3C//DTD SVG 1.1//EN"
  "http://www.w3.org/Graphics/SVG/1.1/DTD/svg11.dtd">
<!-- Created with matplotlib (https://matplotlib.org/) -->
<svg height="274.978125pt" version="1.1" viewBox="0 0 567.940626 274.978125" width="567.940626pt" xmlns="http://www.w3.org/2000/svg" xmlns:xlink="http://www.w3.org/1999/xlink">
 <defs>
  <style type="text/css">
*{stroke-linecap:butt;stroke-linejoin:round;}
  </style>
 </defs>
 <g id="figure_1">
  <g id="patch_1">
   <path d="M 0 274.978125 
L 567.940626 274.978125 
L 567.940626 0 
L 0 0 
z
" style="fill:#ffffff;"/>
  </g>
  <g id="axes_1">
   <g id="patch_2">
    <path d="M 45.478125 237.4 
L 276.646486 237.4 
L 276.646486 7.2 
L 45.478125 7.2 
z
" style="fill:#ffffff;"/>
   </g>
   <g id="PolyCollection_1">
    <defs>
     <path d="M 55.985778 -257.314489 
L 55.985778 -257.199661 
L 83.50488 -214.042625 
L 99.602523 -195.000956 
L 111.023983 -184.681909 
L 119.883155 -177.42638 
L 127.121626 -171.487735 
L 133.241665 -166.259657 
L 138.543085 -161.488765 
L 143.219269 -157.050823 
L 147.402257 -152.876848 
L 151.186231 -148.925228 
L 154.640728 -145.169314 
L 157.818557 -141.59011 
L 160.760768 -138.174239 
L 163.4999 -134.911608 
L 166.062187 -131.794556 
L 168.469086 -128.816168 
L 170.738371 -125.970913 
L 172.88493 -123.252799 
L 174.92136 -120.658562 
L 176.858411 -118.182647 
L 178.705333 -115.820824 
L 180.470143 -113.569603 
L 182.15983 -111.423712 
L 183.780532 -109.37938 
L 185.33766 -107.433056 
L 186.836014 -105.579544 
L 188.27987 -103.816437 
L 189.673054 -102.137121 
L 191.019003 -100.539593 
L 192.320813 -99.019061 
L 193.58129 -97.571687 
L 194.802976 -96.194008 
L 195.988189 -94.881086 
L 197.139042 -93.63199 
L 198.257473 -92.440378 
L 199.345258 -91.304331 
L 200.404032 -90.219958 
L 201.435303 -89.184915 
L 202.440462 -88.196193 
L 203.4208 -87.250117 
L 204.377513 -86.344981 
L 205.311713 -85.478651 
L 206.224436 -84.647194 
L 207.116646 -83.85034 
L 207.989245 -83.084767 
L 208.843077 -82.348193 
L 209.678933 -81.639507 
L 210.497553 -80.957403 
L 211.299634 -80.300379 
L 212.085832 -79.665196 
L 212.856762 -79.051472 
L 213.613007 -78.458733 
L 214.355116 -77.884801 
L 215.083608 -77.328955 
L 215.798973 -76.788729 
L 216.501675 -76.264844 
L 217.192157 -75.75632 
L 217.870834 -75.260374 
L 218.538105 -74.779284 
L 219.194346 -74.310122 
L 219.839916 -73.853366 
L 220.475156 -73.405892 
L 221.100392 -72.969881 
L 221.715934 -72.543912 
L 222.322079 -72.12835 
L 222.919107 -71.719806 
L 223.507291 -71.320426 
L 224.086888 -70.930518 
L 224.658145 -70.546533 
L 225.221299 -70.170619 
L 225.776576 -69.801067 
L 226.324194 -69.438082 
L 226.864361 -69.081866 
L 227.397277 -68.730609 
L 227.923135 -68.386499 
L 228.442118 -68.04769 
L 228.954405 -67.714339 
L 229.460166 -67.384519 
L 229.959564 -67.060436 
L 230.452759 -66.740133 
L 230.939903 -66.425849 
L 231.421141 -66.115594 
L 231.896616 -65.807314 
L 232.366463 -65.505433 
L 232.830816 -65.205715 
L 233.2898 -64.910438 
L 233.743538 -64.617486 
L 234.192149 -64.329166 
L 234.635748 -64.045591 
L 235.074445 -63.762326 
L 235.508347 -63.483969 
L 235.937559 -63.20833 
L 236.36218 -62.933156 
L 236.782307 -62.66314 
L 237.198035 -62.396045 
L 237.609455 -62.131939 
L 238.016655 -61.868512 
L 238.419722 -61.608182 
L 238.818737 -61.351021 
L 239.213781 -61.097097 
L 239.604934 -60.84404 
L 239.992271 -60.591876 
L 240.375865 -60.345572 
L 240.755788 -60.097788 
L 241.13211 -59.853505 
L 241.504898 -59.612797 
L 241.874219 -59.373204 
L 242.240135 -59.134755 
L 242.60271 -58.897477 
L 242.962004 -58.663973 
L 243.318075 -58.431726 
L 243.670981 -58.200766 
L 244.020778 -57.971122 
L 244.36752 -57.745454 
L 244.711259 -57.518544 
L 245.052048 -57.295699 
L 245.389937 -57.074318 
L 245.724974 -56.85443 
L 246.057207 -56.633362 
L 246.386684 -56.416539 
L 246.713448 -56.2013 
L 247.037545 -55.987678 
L 247.359018 -55.775703 
L 247.677909 -55.565407 
L 247.994259 -55.356821 
L 248.308107 -55.149977 
L 248.619495 -54.942089 
L 248.928459 -54.738809 
L 249.235037 -54.534522 
L 249.539266 -54.334934 
L 249.841181 -54.134375 
L 250.140818 -53.935722 
L 250.43821 -53.739006 
L 250.733391 -53.544262 
L 251.026394 -53.35152 
L 251.31725 -53.157872 
L 251.60599 -52.969221 
L 251.892646 -52.779702 
L 252.177247 -52.592289 
L 252.459823 -52.407016 
L 252.740401 -52.223914 
L 253.01901 -52.043018 
L 253.295678 -51.861324 
L 253.570431 -51.684922 
L 253.843296 -51.507763 
L 254.114298 -51.335986 
L 254.383463 -51.163491 
L 254.650816 -50.993371 
L 254.91638 -50.825658 
L 255.180179 -50.660385 
L 255.442237 -50.497584 
L 255.702577 -50.337287 
L 255.961221 -50.182686 
L 256.21819 -50.027503 
L 256.473508 -49.878104 
L 256.727193 -49.731357 
L 256.979268 -49.587293 
L 257.229753 -49.445942 
L 257.478667 -49.310563 
L 257.72603 -49.177977 
L 257.971862 -49.051461 
L 258.21618 -48.931073 
L 258.459005 -48.816869 
L 258.700353 -48.708899 
L 258.940243 -48.607215 
L 259.178692 -48.511864 
L 259.415718 -48.42289 
L 259.651337 -48.346946 
L 259.885566 -48.280793 
L 260.118421 -48.22448 
L 260.349918 -48.178047 
L 260.580073 -48.148169 
L 260.808902 -48.131561 
L 261.03642 -48.134883 
L 261.26264 -48.15149 
L 261.48758 -48.191319 
L 261.711252 -48.254302 
L 261.933671 -48.343641 
L 262.15485 -48.462458 
L 262.374805 -48.613783 
L 262.593547 -48.800528 
L 262.811091 -49.028712 
L 263.02745 -49.304105 
L 263.242636 -49.632167 
L 263.456661 -50.021157 
L 263.669539 -50.478758 
L 263.881282 -51.015062 
L 264.091902 -51.64528 
L 264.30141 -52.383049 
L 264.509818 -53.248941 
L 264.717138 -54.272006 
L 264.923381 -55.493217 
L 265.128558 -56.988647 
L 265.33268 -58.8898 
L 265.535758 -61.517038 
L 265.737802 -65.850569 
L 265.938824 -75.65079 
L 266.138833 -105.554798 
L 266.138833 -106.274582 
L 266.138833 -106.274582 
L 265.938824 -76.682489 
L 265.737802 -67.012129 
L 265.535758 -62.742466 
L 265.33268 -60.152428 
L 265.128558 -58.28136 
L 264.923381 -56.811387 
L 264.717138 -55.606998 
L 264.509818 -54.59989 
L 264.30141 -53.747705 
L 264.091902 -53.022366 
L 263.881282 -52.404021 
L 263.669539 -51.876496 
L 263.456661 -51.428098 
L 263.242636 -51.046029 
L 263.02745 -50.72283 
L 262.811091 -50.450502 
L 262.593547 -50.226917 
L 262.374805 -50.043365 
L 262.15485 -49.894023 
L 261.933671 -49.779267 
L 261.711252 -49.692989 
L 261.48758 -49.628964 
L 261.26264 -49.5905 
L 261.03642 -49.571255 
L 260.808902 -49.571255 
L 260.580073 -49.587293 
L 260.349918 -49.616146 
L 260.118421 -49.660989 
L 259.885566 -49.715375 
L 259.651337 -49.782459 
L 259.415718 -49.858993 
L 259.178692 -49.941744 
L 258.940243 -50.037021 
L 258.700353 -50.135243 
L 258.459005 -50.242702 
L 258.21618 -50.356177 
L 257.971862 -50.475619 
L 257.72603 -50.597845 
L 257.478667 -50.72907 
L 257.229753 -50.862987 
L 256.979268 -50.99957 
L 256.727193 -51.141879 
L 256.473508 -51.286776 
L 256.21819 -51.434232 
L 255.961221 -51.584218 
L 255.702577 -51.739749 
L 255.442237 -51.897727 
L 255.180179 -52.055102 
L 254.91638 -52.217897 
L 254.650816 -52.383049 
L 254.383463 -52.550526 
L 254.114298 -52.717325 
L 253.843296 -52.889374 
L 253.570431 -53.063654 
L 253.295678 -53.237202 
L 253.01901 -53.415867 
L 252.740401 -53.593762 
L 252.459823 -53.773789 
L 252.177247 -53.955919 
L 251.892646 -54.140119 
L 251.60599 -54.326359 
L 251.31725 -54.511761 
L 251.026394 -54.701999 
L 250.733391 -54.891363 
L 250.43821 -55.082669 
L 250.140818 -55.275884 
L 249.841181 -55.470979 
L 249.539266 -55.667922 
L 249.235037 -55.866683 
L 248.928459 -56.067231 
L 248.619495 -56.266808 
L 248.308107 -56.470851 
L 247.994259 -56.67389 
L 247.677909 -56.881308 
L 247.359018 -57.087688 
L 247.037545 -57.295699 
L 246.713448 -57.50796 
L 246.386684 -57.719133 
L 246.057207 -57.93185 
L 245.724974 -58.148687 
L 245.389937 -58.364388 
L 245.052048 -58.584124 
L 244.711259 -58.802695 
L 244.36752 -59.025215 
L 244.020778 -59.249078 
L 243.670981 -59.474255 
L 243.318075 -59.700718 
L 242.962004 -59.930935 
L 242.60271 -60.162355 
L 242.240135 -60.394951 
L 241.874219 -60.628695 
L 241.504898 -60.866001 
L 241.13211 -61.104374 
L 240.755788 -61.343788 
L 240.375865 -61.586614 
L 239.992271 -61.830401 
L 239.604934 -62.077493 
L 239.213781 -62.327822 
L 238.818737 -62.578981 
L 238.419722 -62.830944 
L 238.016655 -63.088312 
L 237.609455 -63.34638 
L 237.198035 -63.607408 
L 236.782307 -63.87133 
L 236.36218 -64.138079 
L 235.937559 -64.407592 
L 235.508347 -64.679801 
L 235.074445 -64.954644 
L 234.635748 -65.232055 
L 234.192149 -65.514151 
L 233.743538 -65.798658 
L 233.2898 -66.085514 
L 232.830816 -66.376791 
L 232.366463 -66.672382 
L 231.896616 -66.970076 
L 231.421141 -67.271902 
L 230.939903 -67.579826 
L 230.452759 -67.889581 
L 229.959564 -68.205194 
L 229.460166 -68.524488 
L 228.954405 -68.849368 
L 228.442118 -69.179684 
L 227.923135 -69.513308 
L 227.397277 -69.854064 
L 226.864361 -70.199807 
L 226.324194 -70.550391 
L 225.776576 -70.909491 
L 225.221299 -71.273073 
L 224.658145 -71.644746 
L 224.086888 -72.022405 
L 223.507291 -72.409544 
L 222.919107 -72.802213 
L 222.322079 -73.205646 
L 221.715934 -73.615915 
L 221.100392 -74.036322 
L 220.475156 -74.466519 
L 219.839916 -74.907893 
L 219.194346 -75.360042 
L 218.538105 -75.822563 
L 217.870834 -76.298411 
L 217.192157 -76.787071 
L 216.501675 -77.289666 
L 215.798973 -77.807239 
L 215.083608 -78.340753 
L 214.355116 -78.889513 
L 213.613007 -79.457491 
L 212.856762 -80.04227 
L 212.085832 -80.649075 
L 211.299634 -81.276826 
L 210.497553 -81.925909 
L 209.678933 -82.600943 
L 208.843077 -83.300508 
L 207.989245 -84.028755 
L 207.116646 -84.785347 
L 206.224436 -85.573879 
L 205.311713 -86.394916 
L 204.377513 -87.25269 
L 203.4208 -88.148394 
L 202.440462 -89.08292 
L 201.435303 -90.061663 
L 200.404032 -91.085742 
L 199.345258 -92.159288 
L 198.257473 -93.283443 
L 197.139042 -94.463153 
L 195.988189 -95.700262 
L 194.802976 -96.999938 
L 193.58129 -98.364152 
L 192.320813 -99.797723 
L 191.019003 -101.304038 
L 189.673054 -102.887736 
L 188.27987 -104.55088 
L 186.836014 -106.29971 
L 185.33766 -108.136552 
L 183.780532 -110.066972 
L 182.15983 -112.094499 
L 180.470143 -114.22268 
L 178.705333 -116.45656 
L 176.858411 -118.800598 
L 174.92136 -121.258227 
L 172.88493 -123.834151 
L 170.738371 -126.533277 
L 168.469086 -129.359798 
L 166.062187 -132.319069 
L 163.4999 -135.416549 
L 160.760768 -138.659462 
L 157.818557 -142.055685 
L 154.640728 -145.615113 
L 151.186231 -149.351511 
L 147.402257 -153.283021 
L 143.219269 -157.437051 
L 138.543085 -161.854698 
L 133.241665 -166.605093 
L 127.121626 -171.812033 
L 119.883155 -177.728245 
L 111.023983 -184.958422 
L 99.602523 -195.244984 
L 83.50488 -214.23635 
L 55.985778 -257.314489 
z
" id="m68de8c4770" style="stroke:#1f77b4;stroke-opacity:0.1;"/>
    </defs>
    <g clip-path="url(#p516a058ab4)">
     <use style="fill:#1f77b4;fill-opacity:0.1;stroke:#1f77b4;stroke-opacity:0.1;" x="0" xlink:href="#m68de8c4770" y="274.978125"/>
    </g>
   </g>
   <g id="matplotlib.axis_1">
    <g id="xtick_1">
     <g id="line2d_1">
      <defs>
       <path d="M 0 0 
L 0 3.5 
" id="m541f40a32a" style="stroke:#000000;stroke-width:0.8;"/>
      </defs>
      <g>
       <use style="stroke:#000000;stroke-width:0.8;" x="55.985778" xlink:href="#m541f40a32a" y="237.4"/>
      </g>
     </g>
     <g id="text_1">
      <!-- $\mathdefault{10^{0}}$ -->
      <defs>
       <path d="M 12.40625 8.296875 
L 28.515625 8.296875 
L 28.515625 63.921875 
L 10.984375 60.40625 
L 10.984375 69.390625 
L 28.421875 72.90625 
L 38.28125 72.90625 
L 38.28125 8.296875 
L 54.390625 8.296875 
L 54.390625 0 
L 12.40625 0 
z
" id="DejaVuSans-49"/>
       <path d="M 31.78125 66.40625 
Q 24.171875 66.40625 20.328125 58.90625 
Q 16.5 51.421875 16.5 36.375 
Q 16.5 21.390625 20.328125 13.890625 
Q 24.171875 6.390625 31.78125 6.390625 
Q 39.453125 6.390625 43.28125 13.890625 
Q 47.125 21.390625 47.125 36.375 
Q 47.125 51.421875 43.28125 58.90625 
Q 39.453125 66.40625 31.78125 66.40625 
z
M 31.78125 74.21875 
Q 44.046875 74.21875 50.515625 64.515625 
Q 56.984375 54.828125 56.984375 36.375 
Q 56.984375 17.96875 50.515625 8.265625 
Q 44.046875 -1.421875 31.78125 -1.421875 
Q 19.53125 -1.421875 13.0625 8.265625 
Q 6.59375 17.96875 6.59375 36.375 
Q 6.59375 54.828125 13.0625 64.515625 
Q 19.53125 74.21875 31.78125 74.21875 
z
" id="DejaVuSans-48"/>
      </defs>
      <g transform="translate(47.185778 251.998437)scale(0.1 -0.1)">
       <use transform="translate(0 0.765625)" xlink:href="#DejaVuSans-49"/>
       <use transform="translate(63.623047 0.765625)" xlink:href="#DejaVuSans-48"/>
       <use transform="translate(128.203125 39.046875)scale(0.7)" xlink:href="#DejaVuSans-48"/>
      </g>
     </g>
    </g>
    <g id="xtick_2">
     <g id="line2d_2">
      <g>
       <use style="stroke:#000000;stroke-width:0.8;" x="147.402257" xlink:href="#m541f40a32a" y="237.4"/>
      </g>
     </g>
     <g id="text_2">
      <!-- $\mathdefault{10^{1}}$ -->
      <g transform="translate(138.602257 251.998437)scale(0.1 -0.1)">
       <use transform="translate(0 0.684375)" xlink:href="#DejaVuSans-49"/>
       <use transform="translate(63.623047 0.684375)" xlink:href="#DejaVuSans-48"/>
       <use transform="translate(128.203125 38.965625)scale(0.7)" xlink:href="#DejaVuSans-49"/>
      </g>
     </g>
    </g>
    <g id="xtick_3">
     <g id="line2d_3">
      <g>
       <use style="stroke:#000000;stroke-width:0.8;" x="238.818737" xlink:href="#m541f40a32a" y="237.4"/>
      </g>
     </g>
     <g id="text_3">
      <!-- $\mathdefault{10^{2}}$ -->
      <defs>
       <path d="M 19.1875 8.296875 
L 53.609375 8.296875 
L 53.609375 0 
L 7.328125 0 
L 7.328125 8.296875 
Q 12.9375 14.109375 22.625 23.890625 
Q 32.328125 33.6875 34.8125 36.53125 
Q 39.546875 41.84375 41.421875 45.53125 
Q 43.3125 49.21875 43.3125 52.78125 
Q 43.3125 58.59375 39.234375 62.25 
Q 35.15625 65.921875 28.609375 65.921875 
Q 23.96875 65.921875 18.8125 64.3125 
Q 13.671875 62.703125 7.8125 59.421875 
L 7.8125 69.390625 
Q 13.765625 71.78125 18.9375 73 
Q 24.125 74.21875 28.421875 74.21875 
Q 39.75 74.21875 46.484375 68.546875 
Q 53.21875 62.890625 53.21875 53.421875 
Q 53.21875 48.921875 51.53125 44.890625 
Q 49.859375 40.875 45.40625 35.40625 
Q 44.1875 33.984375 37.640625 27.21875 
Q 31.109375 20.453125 19.1875 8.296875 
z
" id="DejaVuSans-50"/>
      </defs>
      <g transform="translate(230.018737 251.998437)scale(0.1 -0.1)">
       <use transform="translate(0 0.765625)" xlink:href="#DejaVuSans-49"/>
       <use transform="translate(63.623047 0.765625)" xlink:href="#DejaVuSans-48"/>
       <use transform="translate(128.203125 39.046875)scale(0.7)" xlink:href="#DejaVuSans-50"/>
      </g>
     </g>
    </g>
    <g id="xtick_4">
     <g id="line2d_4">
      <defs>
       <path d="M 0 0 
L 0 2 
" id="m5feae807f5" style="stroke:#000000;stroke-width:0.6;"/>
      </defs>
      <g>
       <use style="stroke:#000000;stroke-width:0.6;" x="47.126606" xlink:href="#m5feae807f5" y="237.4"/>
      </g>
     </g>
    </g>
    <g id="xtick_5">
     <g id="line2d_5">
      <g>
       <use style="stroke:#000000;stroke-width:0.6;" x="51.802789" xlink:href="#m5feae807f5" y="237.4"/>
      </g>
     </g>
    </g>
    <g id="xtick_6">
     <g id="line2d_6">
      <g>
       <use style="stroke:#000000;stroke-width:0.6;" x="83.50488" xlink:href="#m5feae807f5" y="237.4"/>
      </g>
     </g>
    </g>
    <g id="xtick_7">
     <g id="line2d_7">
      <g>
       <use style="stroke:#000000;stroke-width:0.6;" x="99.602523" xlink:href="#m5feae807f5" y="237.4"/>
      </g>
     </g>
    </g>
    <g id="xtick_8">
     <g id="line2d_8">
      <g>
       <use style="stroke:#000000;stroke-width:0.6;" x="111.023983" xlink:href="#m5feae807f5" y="237.4"/>
      </g>
     </g>
    </g>
    <g id="xtick_9">
     <g id="line2d_9">
      <g>
       <use style="stroke:#000000;stroke-width:0.6;" x="119.883155" xlink:href="#m5feae807f5" y="237.4"/>
      </g>
     </g>
    </g>
    <g id="xtick_10">
     <g id="line2d_10">
      <g>
       <use style="stroke:#000000;stroke-width:0.6;" x="127.121626" xlink:href="#m5feae807f5" y="237.4"/>
      </g>
     </g>
    </g>
    <g id="xtick_11">
     <g id="line2d_11">
      <g>
       <use style="stroke:#000000;stroke-width:0.6;" x="133.241665" xlink:href="#m5feae807f5" y="237.4"/>
      </g>
     </g>
    </g>
    <g id="xtick_12">
     <g id="line2d_12">
      <g>
       <use style="stroke:#000000;stroke-width:0.6;" x="138.543085" xlink:href="#m5feae807f5" y="237.4"/>
      </g>
     </g>
    </g>
    <g id="xtick_13">
     <g id="line2d_13">
      <g>
       <use style="stroke:#000000;stroke-width:0.6;" x="143.219269" xlink:href="#m5feae807f5" y="237.4"/>
      </g>
     </g>
    </g>
    <g id="xtick_14">
     <g id="line2d_14">
      <g>
       <use style="stroke:#000000;stroke-width:0.6;" x="174.92136" xlink:href="#m5feae807f5" y="237.4"/>
      </g>
     </g>
    </g>
    <g id="xtick_15">
     <g id="line2d_15">
      <g>
       <use style="stroke:#000000;stroke-width:0.6;" x="191.019003" xlink:href="#m5feae807f5" y="237.4"/>
      </g>
     </g>
    </g>
    <g id="xtick_16">
     <g id="line2d_16">
      <g>
       <use style="stroke:#000000;stroke-width:0.6;" x="202.440462" xlink:href="#m5feae807f5" y="237.4"/>
      </g>
     </g>
    </g>
    <g id="xtick_17">
     <g id="line2d_17">
      <g>
       <use style="stroke:#000000;stroke-width:0.6;" x="211.299634" xlink:href="#m5feae807f5" y="237.4"/>
      </g>
     </g>
    </g>
    <g id="xtick_18">
     <g id="line2d_18">
      <g>
       <use style="stroke:#000000;stroke-width:0.6;" x="218.538105" xlink:href="#m5feae807f5" y="237.4"/>
      </g>
     </g>
    </g>
    <g id="xtick_19">
     <g id="line2d_19">
      <g>
       <use style="stroke:#000000;stroke-width:0.6;" x="224.658145" xlink:href="#m5feae807f5" y="237.4"/>
      </g>
     </g>
    </g>
    <g id="xtick_20">
     <g id="line2d_20">
      <g>
       <use style="stroke:#000000;stroke-width:0.6;" x="229.959564" xlink:href="#m5feae807f5" y="237.4"/>
      </g>
     </g>
    </g>
    <g id="xtick_21">
     <g id="line2d_21">
      <g>
       <use style="stroke:#000000;stroke-width:0.6;" x="234.635748" xlink:href="#m5feae807f5" y="237.4"/>
      </g>
     </g>
    </g>
    <g id="xtick_22">
     <g id="line2d_22">
      <g>
       <use style="stroke:#000000;stroke-width:0.6;" x="266.337839" xlink:href="#m5feae807f5" y="237.4"/>
      </g>
     </g>
    </g>
    <g id="text_4">
     <!-- sample frequency -->
     <defs>
      <path d="M 44.28125 53.078125 
L 44.28125 44.578125 
Q 40.484375 46.53125 36.375 47.5 
Q 32.28125 48.484375 27.875 48.484375 
Q 21.1875 48.484375 17.84375 46.4375 
Q 14.5 44.390625 14.5 40.28125 
Q 14.5 37.15625 16.890625 35.375 
Q 19.28125 33.59375 26.515625 31.984375 
L 29.59375 31.296875 
Q 39.15625 29.25 43.1875 25.515625 
Q 47.21875 21.78125 47.21875 15.09375 
Q 47.21875 7.46875 41.1875 3.015625 
Q 35.15625 -1.421875 24.609375 -1.421875 
Q 20.21875 -1.421875 15.453125 -0.5625 
Q 10.6875 0.296875 5.421875 2 
L 5.421875 11.28125 
Q 10.40625 8.6875 15.234375 7.390625 
Q 20.0625 6.109375 24.8125 6.109375 
Q 31.15625 6.109375 34.5625 8.28125 
Q 37.984375 10.453125 37.984375 14.40625 
Q 37.984375 18.0625 35.515625 20.015625 
Q 33.0625 21.96875 24.703125 23.78125 
L 21.578125 24.515625 
Q 13.234375 26.265625 9.515625 29.90625 
Q 5.8125 33.546875 5.8125 39.890625 
Q 5.8125 47.609375 11.28125 51.796875 
Q 16.75 56 26.8125 56 
Q 31.78125 56 36.171875 55.265625 
Q 40.578125 54.546875 44.28125 53.078125 
z
" id="DejaVuSans-115"/>
      <path d="M 34.28125 27.484375 
Q 23.390625 27.484375 19.1875 25 
Q 14.984375 22.515625 14.984375 16.5 
Q 14.984375 11.71875 18.140625 8.90625 
Q 21.296875 6.109375 26.703125 6.109375 
Q 34.1875 6.109375 38.703125 11.40625 
Q 43.21875 16.703125 43.21875 25.484375 
L 43.21875 27.484375 
z
M 52.203125 31.203125 
L 52.203125 0 
L 43.21875 0 
L 43.21875 8.296875 
Q 40.140625 3.328125 35.546875 0.953125 
Q 30.953125 -1.421875 24.3125 -1.421875 
Q 15.921875 -1.421875 10.953125 3.296875 
Q 6 8.015625 6 15.921875 
Q 6 25.140625 12.171875 29.828125 
Q 18.359375 34.515625 30.609375 34.515625 
L 43.21875 34.515625 
L 43.21875 35.40625 
Q 43.21875 41.609375 39.140625 45 
Q 35.0625 48.390625 27.6875 48.390625 
Q 23 48.390625 18.546875 47.265625 
Q 14.109375 46.140625 10.015625 43.890625 
L 10.015625 52.203125 
Q 14.9375 54.109375 19.578125 55.046875 
Q 24.21875 56 28.609375 56 
Q 40.484375 56 46.34375 49.84375 
Q 52.203125 43.703125 52.203125 31.203125 
z
" id="DejaVuSans-97"/>
      <path d="M 52 44.1875 
Q 55.375 50.25 60.0625 53.125 
Q 64.75 56 71.09375 56 
Q 79.640625 56 84.28125 50.015625 
Q 88.921875 44.046875 88.921875 33.015625 
L 88.921875 0 
L 79.890625 0 
L 79.890625 32.71875 
Q 79.890625 40.578125 77.09375 44.375 
Q 74.3125 48.1875 68.609375 48.1875 
Q 61.625 48.1875 57.5625 43.546875 
Q 53.515625 38.921875 53.515625 30.90625 
L 53.515625 0 
L 44.484375 0 
L 44.484375 32.71875 
Q 44.484375 40.625 41.703125 44.40625 
Q 38.921875 48.1875 33.109375 48.1875 
Q 26.21875 48.1875 22.15625 43.53125 
Q 18.109375 38.875 18.109375 30.90625 
L 18.109375 0 
L 9.078125 0 
L 9.078125 54.6875 
L 18.109375 54.6875 
L 18.109375 46.1875 
Q 21.1875 51.21875 25.484375 53.609375 
Q 29.78125 56 35.6875 56 
Q 41.65625 56 45.828125 52.96875 
Q 50 49.953125 52 44.1875 
z
" id="DejaVuSans-109"/>
      <path d="M 18.109375 8.203125 
L 18.109375 -20.796875 
L 9.078125 -20.796875 
L 9.078125 54.6875 
L 18.109375 54.6875 
L 18.109375 46.390625 
Q 20.953125 51.265625 25.265625 53.625 
Q 29.59375 56 35.59375 56 
Q 45.5625 56 51.78125 48.09375 
Q 58.015625 40.1875 58.015625 27.296875 
Q 58.015625 14.40625 51.78125 6.484375 
Q 45.5625 -1.421875 35.59375 -1.421875 
Q 29.59375 -1.421875 25.265625 0.953125 
Q 20.953125 3.328125 18.109375 8.203125 
z
M 48.6875 27.296875 
Q 48.6875 37.203125 44.609375 42.84375 
Q 40.53125 48.484375 33.40625 48.484375 
Q 26.265625 48.484375 22.1875 42.84375 
Q 18.109375 37.203125 18.109375 27.296875 
Q 18.109375 17.390625 22.1875 11.75 
Q 26.265625 6.109375 33.40625 6.109375 
Q 40.53125 6.109375 44.609375 11.75 
Q 48.6875 17.390625 48.6875 27.296875 
z
" id="DejaVuSans-112"/>
      <path d="M 9.421875 75.984375 
L 18.40625 75.984375 
L 18.40625 0 
L 9.421875 0 
z
" id="DejaVuSans-108"/>
      <path d="M 56.203125 29.59375 
L 56.203125 25.203125 
L 14.890625 25.203125 
Q 15.484375 15.921875 20.484375 11.0625 
Q 25.484375 6.203125 34.421875 6.203125 
Q 39.59375 6.203125 44.453125 7.46875 
Q 49.3125 8.734375 54.109375 11.28125 
L 54.109375 2.78125 
Q 49.265625 0.734375 44.1875 -0.34375 
Q 39.109375 -1.421875 33.890625 -1.421875 
Q 20.796875 -1.421875 13.15625 6.1875 
Q 5.515625 13.8125 5.515625 26.8125 
Q 5.515625 40.234375 12.765625 48.109375 
Q 20.015625 56 32.328125 56 
Q 43.359375 56 49.78125 48.890625 
Q 56.203125 41.796875 56.203125 29.59375 
z
M 47.21875 32.234375 
Q 47.125 39.59375 43.09375 43.984375 
Q 39.0625 48.390625 32.421875 48.390625 
Q 24.90625 48.390625 20.390625 44.140625 
Q 15.875 39.890625 15.1875 32.171875 
z
" id="DejaVuSans-101"/>
      <path id="DejaVuSans-32"/>
      <path d="M 37.109375 75.984375 
L 37.109375 68.5 
L 28.515625 68.5 
Q 23.6875 68.5 21.796875 66.546875 
Q 19.921875 64.59375 19.921875 59.515625 
L 19.921875 54.6875 
L 34.71875 54.6875 
L 34.71875 47.703125 
L 19.921875 47.703125 
L 19.921875 0 
L 10.890625 0 
L 10.890625 47.703125 
L 2.296875 47.703125 
L 2.296875 54.6875 
L 10.890625 54.6875 
L 10.890625 58.5 
Q 10.890625 67.625 15.140625 71.796875 
Q 19.390625 75.984375 28.609375 75.984375 
z
" id="DejaVuSans-102"/>
      <path d="M 41.109375 46.296875 
Q 39.59375 47.171875 37.8125 47.578125 
Q 36.03125 48 33.890625 48 
Q 26.265625 48 22.1875 43.046875 
Q 18.109375 38.09375 18.109375 28.8125 
L 18.109375 0 
L 9.078125 0 
L 9.078125 54.6875 
L 18.109375 54.6875 
L 18.109375 46.1875 
Q 20.953125 51.171875 25.484375 53.578125 
Q 30.03125 56 36.53125 56 
Q 37.453125 56 38.578125 55.875 
Q 39.703125 55.765625 41.0625 55.515625 
z
" id="DejaVuSans-114"/>
      <path d="M 14.796875 27.296875 
Q 14.796875 17.390625 18.875 11.75 
Q 22.953125 6.109375 30.078125 6.109375 
Q 37.203125 6.109375 41.296875 11.75 
Q 45.40625 17.390625 45.40625 27.296875 
Q 45.40625 37.203125 41.296875 42.84375 
Q 37.203125 48.484375 30.078125 48.484375 
Q 22.953125 48.484375 18.875 42.84375 
Q 14.796875 37.203125 14.796875 27.296875 
z
M 45.40625 8.203125 
Q 42.578125 3.328125 38.25 0.953125 
Q 33.9375 -1.421875 27.875 -1.421875 
Q 17.96875 -1.421875 11.734375 6.484375 
Q 5.515625 14.40625 5.515625 27.296875 
Q 5.515625 40.1875 11.734375 48.09375 
Q 17.96875 56 27.875 56 
Q 33.9375 56 38.25 53.625 
Q 42.578125 51.265625 45.40625 46.390625 
L 45.40625 54.6875 
L 54.390625 54.6875 
L 54.390625 -20.796875 
L 45.40625 -20.796875 
z
" id="DejaVuSans-113"/>
      <path d="M 8.5 21.578125 
L 8.5 54.6875 
L 17.484375 54.6875 
L 17.484375 21.921875 
Q 17.484375 14.15625 20.5 10.265625 
Q 23.53125 6.390625 29.59375 6.390625 
Q 36.859375 6.390625 41.078125 11.03125 
Q 45.3125 15.671875 45.3125 23.6875 
L 45.3125 54.6875 
L 54.296875 54.6875 
L 54.296875 0 
L 45.3125 0 
L 45.3125 8.40625 
Q 42.046875 3.421875 37.71875 1 
Q 33.40625 -1.421875 27.6875 -1.421875 
Q 18.265625 -1.421875 13.375 4.4375 
Q 8.5 10.296875 8.5 21.578125 
z
M 31.109375 56 
z
" id="DejaVuSans-117"/>
      <path d="M 54.890625 33.015625 
L 54.890625 0 
L 45.90625 0 
L 45.90625 32.71875 
Q 45.90625 40.484375 42.875 44.328125 
Q 39.84375 48.1875 33.796875 48.1875 
Q 26.515625 48.1875 22.3125 43.546875 
Q 18.109375 38.921875 18.109375 30.90625 
L 18.109375 0 
L 9.078125 0 
L 9.078125 54.6875 
L 18.109375 54.6875 
L 18.109375 46.1875 
Q 21.34375 51.125 25.703125 53.5625 
Q 30.078125 56 35.796875 56 
Q 45.21875 56 50.046875 50.171875 
Q 54.890625 44.34375 54.890625 33.015625 
z
" id="DejaVuSans-110"/>
      <path d="M 48.78125 52.59375 
L 48.78125 44.1875 
Q 44.96875 46.296875 41.140625 47.34375 
Q 37.3125 48.390625 33.40625 48.390625 
Q 24.65625 48.390625 19.8125 42.84375 
Q 14.984375 37.3125 14.984375 27.296875 
Q 14.984375 17.28125 19.8125 11.734375 
Q 24.65625 6.203125 33.40625 6.203125 
Q 37.3125 6.203125 41.140625 7.25 
Q 44.96875 8.296875 48.78125 10.40625 
L 48.78125 2.09375 
Q 45.015625 0.34375 40.984375 -0.53125 
Q 36.96875 -1.421875 32.421875 -1.421875 
Q 20.0625 -1.421875 12.78125 6.34375 
Q 5.515625 14.109375 5.515625 27.296875 
Q 5.515625 40.671875 12.859375 48.328125 
Q 20.21875 56 33.015625 56 
Q 37.15625 56 41.109375 55.140625 
Q 45.0625 54.296875 48.78125 52.59375 
z
" id="DejaVuSans-99"/>
      <path d="M 32.171875 -5.078125 
Q 28.375 -14.84375 24.75 -17.8125 
Q 21.140625 -20.796875 15.09375 -20.796875 
L 7.90625 -20.796875 
L 7.90625 -13.28125 
L 13.1875 -13.28125 
Q 16.890625 -13.28125 18.9375 -11.515625 
Q 21 -9.765625 23.484375 -3.21875 
L 25.09375 0.875 
L 2.984375 54.6875 
L 12.5 54.6875 
L 29.59375 11.921875 
L 46.6875 54.6875 
L 56.203125 54.6875 
z
" id="DejaVuSans-121"/>
     </defs>
     <g transform="translate(116.217774 265.676562)scale(0.1 -0.1)">
      <use xlink:href="#DejaVuSans-115"/>
      <use x="52.099609" xlink:href="#DejaVuSans-97"/>
      <use x="113.378906" xlink:href="#DejaVuSans-109"/>
      <use x="210.791016" xlink:href="#DejaVuSans-112"/>
      <use x="274.267578" xlink:href="#DejaVuSans-108"/>
      <use x="302.050781" xlink:href="#DejaVuSans-101"/>
      <use x="363.574219" xlink:href="#DejaVuSans-32"/>
      <use x="395.361328" xlink:href="#DejaVuSans-102"/>
      <use x="430.566406" xlink:href="#DejaVuSans-114"/>
      <use x="469.429688" xlink:href="#DejaVuSans-101"/>
      <use x="530.953125" xlink:href="#DejaVuSans-113"/>
      <use x="594.429688" xlink:href="#DejaVuSans-117"/>
      <use x="657.808594" xlink:href="#DejaVuSans-101"/>
      <use x="719.332031" xlink:href="#DejaVuSans-110"/>
      <use x="782.710938" xlink:href="#DejaVuSans-99"/>
      <use x="837.691406" xlink:href="#DejaVuSans-121"/>
     </g>
    </g>
   </g>
   <g id="matplotlib.axis_2">
    <g id="ytick_1">
     <g id="line2d_23">
      <defs>
       <path d="M 0 0 
L -3.5 0 
" id="m875a1a943e" style="stroke:#000000;stroke-width:0.8;"/>
      </defs>
      <g>
       <use style="stroke:#000000;stroke-width:0.8;" x="45.478125" xlink:href="#m875a1a943e" y="235.744709"/>
      </g>
     </g>
     <g id="text_5">
      <!-- $\mathdefault{10^{4}}$ -->
      <defs>
       <path d="M 37.796875 64.3125 
L 12.890625 25.390625 
L 37.796875 25.390625 
z
M 35.203125 72.90625 
L 47.609375 72.90625 
L 47.609375 25.390625 
L 58.015625 25.390625 
L 58.015625 17.1875 
L 47.609375 17.1875 
L 47.609375 0 
L 37.796875 0 
L 37.796875 17.1875 
L 4.890625 17.1875 
L 4.890625 26.703125 
z
" id="DejaVuSans-52"/>
      </defs>
      <g transform="translate(20.878125 239.543928)scale(0.1 -0.1)">
       <use transform="translate(0 0.684375)" xlink:href="#DejaVuSans-49"/>
       <use transform="translate(63.623047 0.684375)" xlink:href="#DejaVuSans-48"/>
       <use transform="translate(128.203125 38.965625)scale(0.7)" xlink:href="#DejaVuSans-52"/>
      </g>
     </g>
    </g>
    <g id="ytick_2">
     <g id="line2d_24">
      <g>
       <use style="stroke:#000000;stroke-width:0.8;" x="45.478125" xlink:href="#m875a1a943e" y="140.817781"/>
      </g>
     </g>
     <g id="text_6">
      <!-- $\mathdefault{10^{5}}$ -->
      <defs>
       <path d="M 10.796875 72.90625 
L 49.515625 72.90625 
L 49.515625 64.59375 
L 19.828125 64.59375 
L 19.828125 46.734375 
Q 21.96875 47.46875 24.109375 47.828125 
Q 26.265625 48.1875 28.421875 48.1875 
Q 40.625 48.1875 47.75 41.5 
Q 54.890625 34.8125 54.890625 23.390625 
Q 54.890625 11.625 47.5625 5.09375 
Q 40.234375 -1.421875 26.90625 -1.421875 
Q 22.3125 -1.421875 17.546875 -0.640625 
Q 12.796875 0.140625 7.71875 1.703125 
L 7.71875 11.625 
Q 12.109375 9.234375 16.796875 8.0625 
Q 21.484375 6.890625 26.703125 6.890625 
Q 35.15625 6.890625 40.078125 11.328125 
Q 45.015625 15.765625 45.015625 23.390625 
Q 45.015625 31 40.078125 35.4375 
Q 35.15625 39.890625 26.703125 39.890625 
Q 22.75 39.890625 18.8125 39.015625 
Q 14.890625 38.140625 10.796875 36.28125 
z
" id="DejaVuSans-53"/>
      </defs>
      <g transform="translate(20.878125 144.617)scale(0.1 -0.1)">
       <use transform="translate(0 0.684375)" xlink:href="#DejaVuSans-49"/>
       <use transform="translate(63.623047 0.684375)" xlink:href="#DejaVuSans-48"/>
       <use transform="translate(128.203125 38.965625)scale(0.7)" xlink:href="#DejaVuSans-53"/>
      </g>
     </g>
    </g>
    <g id="ytick_3">
     <g id="line2d_25">
      <g>
       <use style="stroke:#000000;stroke-width:0.8;" x="45.478125" xlink:href="#m875a1a943e" y="45.890853"/>
      </g>
     </g>
     <g id="text_7">
      <!-- $\mathdefault{10^{6}}$ -->
      <defs>
       <path d="M 33.015625 40.375 
Q 26.375 40.375 22.484375 35.828125 
Q 18.609375 31.296875 18.609375 23.390625 
Q 18.609375 15.53125 22.484375 10.953125 
Q 26.375 6.390625 33.015625 6.390625 
Q 39.65625 6.390625 43.53125 10.953125 
Q 47.40625 15.53125 47.40625 23.390625 
Q 47.40625 31.296875 43.53125 35.828125 
Q 39.65625 40.375 33.015625 40.375 
z
M 52.59375 71.296875 
L 52.59375 62.3125 
Q 48.875 64.0625 45.09375 64.984375 
Q 41.3125 65.921875 37.59375 65.921875 
Q 27.828125 65.921875 22.671875 59.328125 
Q 17.53125 52.734375 16.796875 39.40625 
Q 19.671875 43.65625 24.015625 45.921875 
Q 28.375 48.1875 33.59375 48.1875 
Q 44.578125 48.1875 50.953125 41.515625 
Q 57.328125 34.859375 57.328125 23.390625 
Q 57.328125 12.15625 50.6875 5.359375 
Q 44.046875 -1.421875 33.015625 -1.421875 
Q 20.359375 -1.421875 13.671875 8.265625 
Q 6.984375 17.96875 6.984375 36.375 
Q 6.984375 53.65625 15.1875 63.9375 
Q 23.390625 74.21875 37.203125 74.21875 
Q 40.921875 74.21875 44.703125 73.484375 
Q 48.484375 72.75 52.59375 71.296875 
z
" id="DejaVuSans-54"/>
      </defs>
      <g transform="translate(20.878125 49.690072)scale(0.1 -0.1)">
       <use transform="translate(0 0.765625)" xlink:href="#DejaVuSans-49"/>
       <use transform="translate(63.623047 0.765625)" xlink:href="#DejaVuSans-48"/>
       <use transform="translate(128.203125 39.046875)scale(0.7)" xlink:href="#DejaVuSans-54"/>
      </g>
     </g>
    </g>
    <g id="ytick_4">
     <g id="line2d_26">
      <defs>
       <path d="M 0 0 
L -2 0 
" id="m93d6d6d450" style="stroke:#000000;stroke-width:0.6;"/>
      </defs>
      <g>
       <use style="stroke:#000000;stroke-width:0.6;" x="45.478125" xlink:href="#m93d6d6d450" y="207.168856"/>
      </g>
     </g>
    </g>
    <g id="ytick_5">
     <g id="line2d_27">
      <g>
       <use style="stroke:#000000;stroke-width:0.6;" x="45.478125" xlink:href="#m93d6d6d450" y="190.453054"/>
      </g>
     </g>
    </g>
    <g id="ytick_6">
     <g id="line2d_28">
      <g>
       <use style="stroke:#000000;stroke-width:0.6;" x="45.478125" xlink:href="#m93d6d6d450" y="178.593004"/>
      </g>
     </g>
    </g>
    <g id="ytick_7">
     <g id="line2d_29">
      <g>
       <use style="stroke:#000000;stroke-width:0.6;" x="45.478125" xlink:href="#m93d6d6d450" y="169.393634"/>
      </g>
     </g>
    </g>
    <g id="ytick_8">
     <g id="line2d_30">
      <g>
       <use style="stroke:#000000;stroke-width:0.6;" x="45.478125" xlink:href="#m93d6d6d450" y="161.877201"/>
      </g>
     </g>
    </g>
    <g id="ytick_9">
     <g id="line2d_31">
      <g>
       <use style="stroke:#000000;stroke-width:0.6;" x="45.478125" xlink:href="#m93d6d6d450" y="155.522148"/>
      </g>
     </g>
    </g>
    <g id="ytick_10">
     <g id="line2d_32">
      <g>
       <use style="stroke:#000000;stroke-width:0.6;" x="45.478125" xlink:href="#m93d6d6d450" y="150.017151"/>
      </g>
     </g>
    </g>
    <g id="ytick_11">
     <g id="line2d_33">
      <g>
       <use style="stroke:#000000;stroke-width:0.6;" x="45.478125" xlink:href="#m93d6d6d450" y="145.161399"/>
      </g>
     </g>
    </g>
    <g id="ytick_12">
     <g id="line2d_34">
      <g>
       <use style="stroke:#000000;stroke-width:0.6;" x="45.478125" xlink:href="#m93d6d6d450" y="112.241928"/>
      </g>
     </g>
    </g>
    <g id="ytick_13">
     <g id="line2d_35">
      <g>
       <use style="stroke:#000000;stroke-width:0.6;" x="45.478125" xlink:href="#m93d6d6d450" y="95.526126"/>
      </g>
     </g>
    </g>
    <g id="ytick_14">
     <g id="line2d_36">
      <g>
       <use style="stroke:#000000;stroke-width:0.6;" x="45.478125" xlink:href="#m93d6d6d450" y="83.666076"/>
      </g>
     </g>
    </g>
    <g id="ytick_15">
     <g id="line2d_37">
      <g>
       <use style="stroke:#000000;stroke-width:0.6;" x="45.478125" xlink:href="#m93d6d6d450" y="74.466706"/>
      </g>
     </g>
    </g>
    <g id="ytick_16">
     <g id="line2d_38">
      <g>
       <use style="stroke:#000000;stroke-width:0.6;" x="45.478125" xlink:href="#m93d6d6d450" y="66.950273"/>
      </g>
     </g>
    </g>
    <g id="ytick_17">
     <g id="line2d_39">
      <g>
       <use style="stroke:#000000;stroke-width:0.6;" x="45.478125" xlink:href="#m93d6d6d450" y="60.59522"/>
      </g>
     </g>
    </g>
    <g id="ytick_18">
     <g id="line2d_40">
      <g>
       <use style="stroke:#000000;stroke-width:0.6;" x="45.478125" xlink:href="#m93d6d6d450" y="55.090223"/>
      </g>
     </g>
    </g>
    <g id="ytick_19">
     <g id="line2d_41">
      <g>
       <use style="stroke:#000000;stroke-width:0.6;" x="45.478125" xlink:href="#m93d6d6d450" y="50.234471"/>
      </g>
     </g>
    </g>
    <g id="ytick_20">
     <g id="line2d_42">
      <g>
       <use style="stroke:#000000;stroke-width:0.6;" x="45.478125" xlink:href="#m93d6d6d450" y="17.315"/>
      </g>
     </g>
    </g>
    <g id="text_8">
     <!-- variant count -->
     <defs>
      <path d="M 2.984375 54.6875 
L 12.5 54.6875 
L 29.59375 8.796875 
L 46.6875 54.6875 
L 56.203125 54.6875 
L 35.6875 0 
L 23.484375 0 
z
" id="DejaVuSans-118"/>
      <path d="M 9.421875 54.6875 
L 18.40625 54.6875 
L 18.40625 0 
L 9.421875 0 
z
M 9.421875 75.984375 
L 18.40625 75.984375 
L 18.40625 64.59375 
L 9.421875 64.59375 
z
" id="DejaVuSans-105"/>
      <path d="M 18.3125 70.21875 
L 18.3125 54.6875 
L 36.8125 54.6875 
L 36.8125 47.703125 
L 18.3125 47.703125 
L 18.3125 18.015625 
Q 18.3125 11.328125 20.140625 9.421875 
Q 21.96875 7.515625 27.59375 7.515625 
L 36.8125 7.515625 
L 36.8125 0 
L 27.59375 0 
Q 17.1875 0 13.234375 3.875 
Q 9.28125 7.765625 9.28125 18.015625 
L 9.28125 47.703125 
L 2.6875 47.703125 
L 2.6875 54.6875 
L 9.28125 54.6875 
L 9.28125 70.21875 
z
" id="DejaVuSans-116"/>
      <path d="M 30.609375 48.390625 
Q 23.390625 48.390625 19.1875 42.75 
Q 14.984375 37.109375 14.984375 27.296875 
Q 14.984375 17.484375 19.15625 11.84375 
Q 23.34375 6.203125 30.609375 6.203125 
Q 37.796875 6.203125 41.984375 11.859375 
Q 46.1875 17.53125 46.1875 27.296875 
Q 46.1875 37.015625 41.984375 42.703125 
Q 37.796875 48.390625 30.609375 48.390625 
z
M 30.609375 56 
Q 42.328125 56 49.015625 48.375 
Q 55.71875 40.765625 55.71875 27.296875 
Q 55.71875 13.875 49.015625 6.21875 
Q 42.328125 -1.421875 30.609375 -1.421875 
Q 18.84375 -1.421875 12.171875 6.21875 
Q 5.515625 13.875 5.515625 27.296875 
Q 5.515625 40.765625 12.171875 48.375 
Q 18.84375 56 30.609375 56 
z
" id="DejaVuSans-111"/>
     </defs>
     <g transform="translate(14.798438 155.65625)rotate(-90)scale(0.1 -0.1)">
      <use xlink:href="#DejaVuSans-118"/>
      <use x="59.179688" xlink:href="#DejaVuSans-97"/>
      <use x="120.458984" xlink:href="#DejaVuSans-114"/>
      <use x="161.572266" xlink:href="#DejaVuSans-105"/>
      <use x="189.355469" xlink:href="#DejaVuSans-97"/>
      <use x="250.634766" xlink:href="#DejaVuSans-110"/>
      <use x="314.013672" xlink:href="#DejaVuSans-116"/>
      <use x="353.222656" xlink:href="#DejaVuSans-32"/>
      <use x="385.009766" xlink:href="#DejaVuSans-99"/>
      <use x="439.990234" xlink:href="#DejaVuSans-111"/>
      <use x="501.171875" xlink:href="#DejaVuSans-117"/>
      <use x="564.550781" xlink:href="#DejaVuSans-110"/>
      <use x="627.929688" xlink:href="#DejaVuSans-116"/>
     </g>
    </g>
   </g>
   <g id="line2d_43">
    <defs>
     <path d="M 0 2.5 
C 0.663008 2.5 1.29895 2.236584 1.767767 1.767767 
C 2.236584 1.29895 2.5 0.663008 2.5 0 
C 2.5 -0.663008 2.236584 -1.29895 1.767767 -1.767767 
C 1.29895 -2.236584 0.663008 -2.5 0 -2.5 
C -0.663008 -2.5 -1.29895 -2.236584 -1.767767 -1.767767 
C -2.236584 -1.29895 -2.5 -0.663008 -2.5 0 
C -2.5 0.663008 -2.236584 1.29895 -1.767767 1.767767 
C -1.29895 2.236584 -0.663008 2.5 0 2.5 
z
" id="m1b777ff6dd" style="stroke:#000000;stroke-opacity:0.75;"/>
    </defs>
    <g clip-path="url(#p516a058ab4)">
     <use style="fill-opacity:0.75;stroke:#000000;stroke-opacity:0.75;" x="55.985778" xlink:href="#m1b777ff6dd" y="17.71666"/>
     <use style="fill-opacity:0.75;stroke:#000000;stroke-opacity:0.75;" x="83.50488" xlink:href="#m1b777ff6dd" y="61.043123"/>
     <use style="fill-opacity:0.75;stroke:#000000;stroke-opacity:0.75;" x="99.602523" xlink:href="#m1b777ff6dd" y="79.580152"/>
     <use style="fill-opacity:0.75;stroke:#000000;stroke-opacity:0.75;" x="111.023983" xlink:href="#m1b777ff6dd" y="90.023791"/>
     <use style="fill-opacity:0.75;stroke:#000000;stroke-opacity:0.75;" x="119.883155" xlink:href="#m1b777ff6dd" y="97.306805"/>
     <use style="fill-opacity:0.75;stroke:#000000;stroke-opacity:0.75;" x="127.121626" xlink:href="#m1b777ff6dd" y="103.494892"/>
     <use style="fill-opacity:0.75;stroke:#000000;stroke-opacity:0.75;" x="133.241665" xlink:href="#m1b777ff6dd" y="108.70598"/>
     <use style="fill-opacity:0.75;stroke:#000000;stroke-opacity:0.75;" x="138.543085" xlink:href="#m1b777ff6dd" y="113.393862"/>
     <use style="fill-opacity:0.75;stroke:#000000;stroke-opacity:0.75;" x="143.219269" xlink:href="#m1b777ff6dd" y="118.082099"/>
     <use style="fill-opacity:0.75;stroke:#000000;stroke-opacity:0.75;" x="147.402257" xlink:href="#m1b777ff6dd" y="121.818434"/>
     <use style="fill-opacity:0.75;stroke:#000000;stroke-opacity:0.75;" x="151.186231" xlink:href="#m1b777ff6dd" y="125.745713"/>
     <use style="fill-opacity:0.75;stroke:#000000;stroke-opacity:0.75;" x="154.640728" xlink:href="#m1b777ff6dd" y="129.542008"/>
     <use style="fill-opacity:0.75;stroke:#000000;stroke-opacity:0.75;" x="157.818557" xlink:href="#m1b777ff6dd" y="133.153201"/>
     <use style="fill-opacity:0.75;stroke:#000000;stroke-opacity:0.75;" x="160.760768" xlink:href="#m1b777ff6dd" y="136.636294"/>
     <use style="fill-opacity:0.75;stroke:#000000;stroke-opacity:0.75;" x="163.4999" xlink:href="#m1b777ff6dd" y="139.618399"/>
     <use style="fill-opacity:0.75;stroke:#000000;stroke-opacity:0.75;" x="166.062187" xlink:href="#m1b777ff6dd" y="142.639661"/>
     <use style="fill-opacity:0.75;stroke:#000000;stroke-opacity:0.75;" x="168.469086" xlink:href="#m1b777ff6dd" y="145.713387"/>
     <use style="fill-opacity:0.75;stroke:#000000;stroke-opacity:0.75;" x="170.738371" xlink:href="#m1b777ff6dd" y="148.656706"/>
     <use style="fill-opacity:0.75;stroke:#000000;stroke-opacity:0.75;" x="172.88493" xlink:href="#m1b777ff6dd" y="151.220838"/>
     <use style="fill-opacity:0.75;stroke:#000000;stroke-opacity:0.75;" x="174.92136" xlink:href="#m1b777ff6dd" y="154.239559"/>
     <use style="fill-opacity:0.75;stroke:#000000;stroke-opacity:0.75;" x="176.858411" xlink:href="#m1b777ff6dd" y="156.442864"/>
     <use style="fill-opacity:0.75;stroke:#000000;stroke-opacity:0.75;" x="178.705333" xlink:href="#m1b777ff6dd" y="158.925105"/>
     <use style="fill-opacity:0.75;stroke:#000000;stroke-opacity:0.75;" x="180.470143" xlink:href="#m1b777ff6dd" y="161.205899"/>
     <use style="fill-opacity:0.75;stroke:#000000;stroke-opacity:0.75;" x="182.15983" xlink:href="#m1b777ff6dd" y="163.137879"/>
     <use style="fill-opacity:0.75;stroke:#000000;stroke-opacity:0.75;" x="183.780532" xlink:href="#m1b777ff6dd" y="165.507851"/>
     <use style="fill-opacity:0.75;stroke:#000000;stroke-opacity:0.75;" x="185.33766" xlink:href="#m1b777ff6dd" y="167.235616"/>
     <use style="fill-opacity:0.75;stroke:#000000;stroke-opacity:0.75;" x="186.836014" xlink:href="#m1b777ff6dd" y="169.124892"/>
     <use style="fill-opacity:0.75;stroke:#000000;stroke-opacity:0.75;" x="188.27987" xlink:href="#m1b777ff6dd" y="170.640853"/>
     <use style="fill-opacity:0.75;stroke:#000000;stroke-opacity:0.75;" x="189.673054" xlink:href="#m1b777ff6dd" y="172.406734"/>
     <use style="fill-opacity:0.75;stroke:#000000;stroke-opacity:0.75;" x="191.019003" xlink:href="#m1b777ff6dd" y="174.221979"/>
     <use style="fill-opacity:0.75;stroke:#000000;stroke-opacity:0.75;" x="192.320813" xlink:href="#m1b777ff6dd" y="175.760369"/>
     <use style="fill-opacity:0.75;stroke:#000000;stroke-opacity:0.75;" x="193.58129" xlink:href="#m1b777ff6dd" y="176.980045"/>
     <use style="fill-opacity:0.75;stroke:#000000;stroke-opacity:0.75;" x="194.802976" xlink:href="#m1b777ff6dd" y="178.365856"/>
     <use style="fill-opacity:0.75;stroke:#000000;stroke-opacity:0.75;" x="195.988189" xlink:href="#m1b777ff6dd" y="179.655794"/>
     <use style="fill-opacity:0.75;stroke:#000000;stroke-opacity:0.75;" x="197.139042" xlink:href="#m1b777ff6dd" y="180.845647"/>
     <use style="fill-opacity:0.75;stroke:#000000;stroke-opacity:0.75;" x="198.257473" xlink:href="#m1b777ff6dd" y="182.096663"/>
     <use style="fill-opacity:0.75;stroke:#000000;stroke-opacity:0.75;" x="199.345258" xlink:href="#m1b777ff6dd" y="183.112207"/>
     <use style="fill-opacity:0.75;stroke:#000000;stroke-opacity:0.75;" x="200.404032" xlink:href="#m1b777ff6dd" y="184.401836"/>
     <use style="fill-opacity:0.75;stroke:#000000;stroke-opacity:0.75;" x="201.435303" xlink:href="#m1b777ff6dd" y="185.618073"/>
     <use style="fill-opacity:0.75;stroke:#000000;stroke-opacity:0.75;" x="202.440462" xlink:href="#m1b777ff6dd" y="186.568772"/>
     <use style="fill-opacity:0.75;stroke:#000000;stroke-opacity:0.75;" x="203.4208" xlink:href="#m1b777ff6dd" y="187.327346"/>
     <use style="fill-opacity:0.75;stroke:#000000;stroke-opacity:0.75;" x="204.377513" xlink:href="#m1b777ff6dd" y="188.335745"/>
     <use style="fill-opacity:0.75;stroke:#000000;stroke-opacity:0.75;" x="205.311713" xlink:href="#m1b777ff6dd" y="189.34668"/>
     <use style="fill-opacity:0.75;stroke:#000000;stroke-opacity:0.75;" x="206.224436" xlink:href="#m1b777ff6dd" y="189.568013"/>
     <use style="fill-opacity:0.75;stroke:#000000;stroke-opacity:0.75;" x="207.116646" xlink:href="#m1b777ff6dd" y="190.625189"/>
     <use style="fill-opacity:0.75;stroke:#000000;stroke-opacity:0.75;" x="207.989245" xlink:href="#m1b777ff6dd" y="191.737117"/>
     <use style="fill-opacity:0.75;stroke:#000000;stroke-opacity:0.75;" x="208.843077" xlink:href="#m1b777ff6dd" y="192.243492"/>
     <use style="fill-opacity:0.75;stroke:#000000;stroke-opacity:0.75;" x="209.678933" xlink:href="#m1b777ff6dd" y="192.792509"/>
     <use style="fill-opacity:0.75;stroke:#000000;stroke-opacity:0.75;" x="210.497553" xlink:href="#m1b777ff6dd" y="193.322409"/>
     <use style="fill-opacity:0.75;stroke:#000000;stroke-opacity:0.75;" x="211.299634" xlink:href="#m1b777ff6dd" y="194.148285"/>
     <use style="fill-opacity:0.75;stroke:#000000;stroke-opacity:0.75;" x="212.085832" xlink:href="#m1b777ff6dd" y="195.070897"/>
     <use style="fill-opacity:0.75;stroke:#000000;stroke-opacity:0.75;" x="212.856762" xlink:href="#m1b777ff6dd" y="195.662286"/>
     <use style="fill-opacity:0.75;stroke:#000000;stroke-opacity:0.75;" x="213.613007" xlink:href="#m1b777ff6dd" y="196.194306"/>
     <use style="fill-opacity:0.75;stroke:#000000;stroke-opacity:0.75;" x="214.355116" xlink:href="#m1b777ff6dd" y="196.567181"/>
     <use style="fill-opacity:0.75;stroke:#000000;stroke-opacity:0.75;" x="215.083608" xlink:href="#m1b777ff6dd" y="197.080411"/>
     <use style="fill-opacity:0.75;stroke:#000000;stroke-opacity:0.75;" x="215.798973" xlink:href="#m1b777ff6dd" y="198.018988"/>
     <use style="fill-opacity:0.75;stroke:#000000;stroke-opacity:0.75;" x="216.501675" xlink:href="#m1b777ff6dd" y="198.298961"/>
     <use style="fill-opacity:0.75;stroke:#000000;stroke-opacity:0.75;" x="217.192157" xlink:href="#m1b777ff6dd" y="199.277941"/>
     <use style="fill-opacity:0.75;stroke:#000000;stroke-opacity:0.75;" x="217.870834" xlink:href="#m1b777ff6dd" y="199.106373"/>
     <use style="fill-opacity:0.75;stroke:#000000;stroke-opacity:0.75;" x="218.538105" xlink:href="#m1b777ff6dd" y="200.044211"/>
     <use style="fill-opacity:0.75;stroke:#000000;stroke-opacity:0.75;" x="219.194346" xlink:href="#m1b777ff6dd" y="200.284223"/>
     <use style="fill-opacity:0.75;stroke:#000000;stroke-opacity:0.75;" x="219.839916" xlink:href="#m1b777ff6dd" y="200.256324"/>
     <use style="fill-opacity:0.75;stroke:#000000;stroke-opacity:0.75;" x="220.475156" xlink:href="#m1b777ff6dd" y="201.069609"/>
     <use style="fill-opacity:0.75;stroke:#000000;stroke-opacity:0.75;" x="221.100392" xlink:href="#m1b777ff6dd" y="201.188897"/>
     <use style="fill-opacity:0.75;stroke:#000000;stroke-opacity:0.75;" x="221.715934" xlink:href="#m1b777ff6dd" y="202.130283"/>
     <use style="fill-opacity:0.75;stroke:#000000;stroke-opacity:0.75;" x="222.322079" xlink:href="#m1b777ff6dd" y="202.166782"/>
     <use style="fill-opacity:0.75;stroke:#000000;stroke-opacity:0.75;" x="222.919107" xlink:href="#m1b777ff6dd" y="202.797832"/>
     <use style="fill-opacity:0.75;stroke:#000000;stroke-opacity:0.75;" x="223.507291" xlink:href="#m1b777ff6dd" y="203.243324"/>
     <use style="fill-opacity:0.75;stroke:#000000;stroke-opacity:0.75;" x="224.086888" xlink:href="#m1b777ff6dd" y="203.727801"/>
     <use style="fill-opacity:0.75;stroke:#000000;stroke-opacity:0.75;" x="224.658145" xlink:href="#m1b777ff6dd" y="203.982684"/>
     <use style="fill-opacity:0.75;stroke:#000000;stroke-opacity:0.75;" x="225.221299" xlink:href="#m1b777ff6dd" y="203.790424"/>
     <use style="fill-opacity:0.75;stroke:#000000;stroke-opacity:0.75;" x="225.776576" xlink:href="#m1b777ff6dd" y="204.632687"/>
     <use style="fill-opacity:0.75;stroke:#000000;stroke-opacity:0.75;" x="226.324194" xlink:href="#m1b777ff6dd" y="204.912755"/>
     <use style="fill-opacity:0.75;stroke:#000000;stroke-opacity:0.75;" x="226.864361" xlink:href="#m1b777ff6dd" y="205.39565"/>
     <use style="fill-opacity:0.75;stroke:#000000;stroke-opacity:0.75;" x="227.397277" xlink:href="#m1b777ff6dd" y="206.11469"/>
     <use style="fill-opacity:0.75;stroke:#000000;stroke-opacity:0.75;" x="227.923135" xlink:href="#m1b777ff6dd" y="205.878275"/>
     <use style="fill-opacity:0.75;stroke:#000000;stroke-opacity:0.75;" x="228.442118" xlink:href="#m1b777ff6dd" y="206.730079"/>
     <use style="fill-opacity:0.75;stroke:#000000;stroke-opacity:0.75;" x="228.954405" xlink:href="#m1b777ff6dd" y="206.455663"/>
     <use style="fill-opacity:0.75;stroke:#000000;stroke-opacity:0.75;" x="229.460166" xlink:href="#m1b777ff6dd" y="206.811739"/>
     <use style="fill-opacity:0.75;stroke:#000000;stroke-opacity:0.75;" x="229.959564" xlink:href="#m1b777ff6dd" y="207.327884"/>
     <use style="fill-opacity:0.75;stroke:#000000;stroke-opacity:0.75;" x="230.452759" xlink:href="#m1b777ff6dd" y="207.311333"/>
     <use style="fill-opacity:0.75;stroke:#000000;stroke-opacity:0.75;" x="230.939903" xlink:href="#m1b777ff6dd" y="207.798214"/>
     <use style="fill-opacity:0.75;stroke:#000000;stroke-opacity:0.75;" x="231.421141" xlink:href="#m1b777ff6dd" y="207.944986"/>
     <use style="fill-opacity:0.75;stroke:#000000;stroke-opacity:0.75;" x="231.896616" xlink:href="#m1b777ff6dd" y="208.697485"/>
     <use style="fill-opacity:0.75;stroke:#000000;stroke-opacity:0.75;" x="232.366463" xlink:href="#m1b777ff6dd" y="209.19462"/>
     <use style="fill-opacity:0.75;stroke:#000000;stroke-opacity:0.75;" x="232.830816" xlink:href="#m1b777ff6dd" y="209.422588"/>
     <use style="fill-opacity:0.75;stroke:#000000;stroke-opacity:0.75;" x="233.2898" xlink:href="#m1b777ff6dd" y="209.461795"/>
     <use style="fill-opacity:0.75;stroke:#000000;stroke-opacity:0.75;" x="233.743538" xlink:href="#m1b777ff6dd" y="209.761433"/>
     <use style="fill-opacity:0.75;stroke:#000000;stroke-opacity:0.75;" x="234.192149" xlink:href="#m1b777ff6dd" y="209.807556"/>
     <use style="fill-opacity:0.75;stroke:#000000;stroke-opacity:0.75;" x="234.635748" xlink:href="#m1b777ff6dd" y="210.416358"/>
     <use style="fill-opacity:0.75;stroke:#000000;stroke-opacity:0.75;" x="235.074445" xlink:href="#m1b777ff6dd" y="210.11194"/>
     <use style="fill-opacity:0.75;stroke:#000000;stroke-opacity:0.75;" x="235.508347" xlink:href="#m1b777ff6dd" y="210.957384"/>
     <use style="fill-opacity:0.75;stroke:#000000;stroke-opacity:0.75;" x="235.937559" xlink:href="#m1b777ff6dd" y="211.079589"/>
     <use style="fill-opacity:0.75;stroke:#000000;stroke-opacity:0.75;" x="236.36218" xlink:href="#m1b777ff6dd" y="211.261303"/>
     <use style="fill-opacity:0.75;stroke:#000000;stroke-opacity:0.75;" x="236.782307" xlink:href="#m1b777ff6dd" y="211.922185"/>
     <use style="fill-opacity:0.75;stroke:#000000;stroke-opacity:0.75;" x="237.198035" xlink:href="#m1b777ff6dd" y="211.484999"/>
     <use style="fill-opacity:0.75;stroke:#000000;stroke-opacity:0.75;" x="237.609455" xlink:href="#m1b777ff6dd" y="212.27997"/>
     <use style="fill-opacity:0.75;stroke:#000000;stroke-opacity:0.75;" x="238.016655" xlink:href="#m1b777ff6dd" y="212.100689"/>
     <use style="fill-opacity:0.75;stroke:#000000;stroke-opacity:0.75;" x="238.419722" xlink:href="#m1b777ff6dd" y="212.699776"/>
     <use style="fill-opacity:0.75;stroke:#000000;stroke-opacity:0.75;" x="238.818737" xlink:href="#m1b777ff6dd" y="213.033497"/>
     <use style="fill-opacity:0.75;stroke:#000000;stroke-opacity:0.75;" x="239.213781" xlink:href="#m1b777ff6dd" y="213.040627"/>
     <use style="fill-opacity:0.75;stroke:#000000;stroke-opacity:0.75;" x="239.604934" xlink:href="#m1b777ff6dd" y="213.482704"/>
     <use style="fill-opacity:0.75;stroke:#000000;stroke-opacity:0.75;" x="239.992271" xlink:href="#m1b777ff6dd" y="213.231214"/>
     <use style="fill-opacity:0.75;stroke:#000000;stroke-opacity:0.75;" x="240.375865" xlink:href="#m1b777ff6dd" y="213.868901"/>
     <use style="fill-opacity:0.75;stroke:#000000;stroke-opacity:0.75;" x="240.755788" xlink:href="#m1b777ff6dd" y="213.723653"/>
     <use style="fill-opacity:0.75;stroke:#000000;stroke-opacity:0.75;" x="241.13211" xlink:href="#m1b777ff6dd" y="213.956296"/>
     <use style="fill-opacity:0.75;stroke:#000000;stroke-opacity:0.75;" x="241.504898" xlink:href="#m1b777ff6dd" y="214.143849"/>
     <use style="fill-opacity:0.75;stroke:#000000;stroke-opacity:0.75;" x="241.874219" xlink:href="#m1b777ff6dd" y="215.022244"/>
     <use style="fill-opacity:0.75;stroke:#000000;stroke-opacity:0.75;" x="242.240135" xlink:href="#m1b777ff6dd" y="215.109622"/>
     <use style="fill-opacity:0.75;stroke:#000000;stroke-opacity:0.75;" x="242.60271" xlink:href="#m1b777ff6dd" y="215.675804"/>
     <use style="fill-opacity:0.75;stroke:#000000;stroke-opacity:0.75;" x="242.962004" xlink:href="#m1b777ff6dd" y="215.159636"/>
     <use style="fill-opacity:0.75;stroke:#000000;stroke-opacity:0.75;" x="243.318075" xlink:href="#m1b777ff6dd" y="215.851003"/>
     <use style="fill-opacity:0.75;stroke:#000000;stroke-opacity:0.75;" x="243.670981" xlink:href="#m1b777ff6dd" y="215.838283"/>
     <use style="fill-opacity:0.75;stroke:#000000;stroke-opacity:0.75;" x="244.020778" xlink:href="#m1b777ff6dd" y="216.213917"/>
     <use style="fill-opacity:0.75;stroke:#000000;stroke-opacity:0.75;" x="244.36752" xlink:href="#m1b777ff6dd" y="216.626699"/>
     <use style="fill-opacity:0.75;stroke:#000000;stroke-opacity:0.75;" x="244.711259" xlink:href="#m1b777ff6dd" y="216.5076"/>
     <use style="fill-opacity:0.75;stroke:#000000;stroke-opacity:0.75;" x="245.052048" xlink:href="#m1b777ff6dd" y="216.683781"/>
     <use style="fill-opacity:0.75;stroke:#000000;stroke-opacity:0.75;" x="245.389937" xlink:href="#m1b777ff6dd" y="217.119682"/>
     <use style="fill-opacity:0.75;stroke:#000000;stroke-opacity:0.75;" x="245.724974" xlink:href="#m1b777ff6dd" y="217.056754"/>
     <use style="fill-opacity:0.75;stroke:#000000;stroke-opacity:0.75;" x="246.057207" xlink:href="#m1b777ff6dd" y="217.385566"/>
     <use style="fill-opacity:0.75;stroke:#000000;stroke-opacity:0.75;" x="246.386684" xlink:href="#m1b777ff6dd" y="217.709035"/>
     <use style="fill-opacity:0.75;stroke:#000000;stroke-opacity:0.75;" x="246.713448" xlink:href="#m1b777ff6dd" y="218.331249"/>
     <use style="fill-opacity:0.75;stroke:#000000;stroke-opacity:0.75;" x="247.037545" xlink:href="#m1b777ff6dd" y="218.03238"/>
     <use style="fill-opacity:0.75;stroke:#000000;stroke-opacity:0.75;" x="247.359018" xlink:href="#m1b777ff6dd" y="218.185583"/>
     <use style="fill-opacity:0.75;stroke:#000000;stroke-opacity:0.75;" x="247.677909" xlink:href="#m1b777ff6dd" y="218.444902"/>
     <use style="fill-opacity:0.75;stroke:#000000;stroke-opacity:0.75;" x="247.994259" xlink:href="#m1b777ff6dd" y="218.664979"/>
     <use style="fill-opacity:0.75;stroke:#000000;stroke-opacity:0.75;" x="248.308107" xlink:href="#m1b777ff6dd" y="218.927341"/>
     <use style="fill-opacity:0.75;stroke:#000000;stroke-opacity:0.75;" x="248.619495" xlink:href="#m1b777ff6dd" y="219.296369"/>
     <use style="fill-opacity:0.75;stroke:#000000;stroke-opacity:0.75;" x="248.928459" xlink:href="#m1b777ff6dd" y="219.301902"/>
     <use style="fill-opacity:0.75;stroke:#000000;stroke-opacity:0.75;" x="249.235037" xlink:href="#m1b777ff6dd" y="219.699447"/>
     <use style="fill-opacity:0.75;stroke:#000000;stroke-opacity:0.75;" x="249.539266" xlink:href="#m1b777ff6dd" y="219.976934"/>
     <use style="fill-opacity:0.75;stroke:#000000;stroke-opacity:0.75;" x="249.841181" xlink:href="#m1b777ff6dd" y="219.906685"/>
     <use style="fill-opacity:0.75;stroke:#000000;stroke-opacity:0.75;" x="250.140818" xlink:href="#m1b777ff6dd" y="220.126259"/>
     <use style="fill-opacity:0.75;stroke:#000000;stroke-opacity:0.75;" x="250.43821" xlink:href="#m1b777ff6dd" y="220.474903"/>
     <use style="fill-opacity:0.75;stroke:#000000;stroke-opacity:0.75;" x="250.733391" xlink:href="#m1b777ff6dd" y="221.160899"/>
     <use style="fill-opacity:0.75;stroke:#000000;stroke-opacity:0.75;" x="251.026394" xlink:href="#m1b777ff6dd" y="220.809299"/>
     <use style="fill-opacity:0.75;stroke:#000000;stroke-opacity:0.75;" x="251.31725" xlink:href="#m1b777ff6dd" y="221.352366"/>
     <use style="fill-opacity:0.75;stroke:#000000;stroke-opacity:0.75;" x="251.60599" xlink:href="#m1b777ff6dd" y="221.826135"/>
     <use style="fill-opacity:0.75;stroke:#000000;stroke-opacity:0.75;" x="251.892646" xlink:href="#m1b777ff6dd" y="221.14643"/>
     <use style="fill-opacity:0.75;stroke:#000000;stroke-opacity:0.75;" x="252.177247" xlink:href="#m1b777ff6dd" y="220.953035"/>
     <use style="fill-opacity:0.75;stroke:#000000;stroke-opacity:0.75;" x="252.459823" xlink:href="#m1b777ff6dd" y="221.985276"/>
     <use style="fill-opacity:0.75;stroke:#000000;stroke-opacity:0.75;" x="252.740401" xlink:href="#m1b777ff6dd" y="222.379873"/>
     <use style="fill-opacity:0.75;stroke:#000000;stroke-opacity:0.75;" x="253.01901" xlink:href="#m1b777ff6dd" y="222.035503"/>
     <use style="fill-opacity:0.75;stroke:#000000;stroke-opacity:0.75;" x="253.295678" xlink:href="#m1b777ff6dd" y="222.192488"/>
     <use style="fill-opacity:0.75;stroke:#000000;stroke-opacity:0.75;" x="253.570431" xlink:href="#m1b777ff6dd" y="222.676068"/>
     <use style="fill-opacity:0.75;stroke:#000000;stroke-opacity:0.75;" x="253.843296" xlink:href="#m1b777ff6dd" y="223.519368"/>
     <use style="fill-opacity:0.75;stroke:#000000;stroke-opacity:0.75;" x="254.114298" xlink:href="#m1b777ff6dd" y="223.70674"/>
     <use style="fill-opacity:0.75;stroke:#000000;stroke-opacity:0.75;" x="254.383463" xlink:href="#m1b777ff6dd" y="223.080398"/>
     <use style="fill-opacity:0.75;stroke:#000000;stroke-opacity:0.75;" x="254.650816" xlink:href="#m1b777ff6dd" y="222.727145"/>
     <use style="fill-opacity:0.75;stroke:#000000;stroke-opacity:0.75;" x="254.91638" xlink:href="#m1b777ff6dd" y="223.040998"/>
     <use style="fill-opacity:0.75;stroke:#000000;stroke-opacity:0.75;" x="255.180179" xlink:href="#m1b777ff6dd" y="224.383409"/>
     <use style="fill-opacity:0.75;stroke:#000000;stroke-opacity:0.75;" x="255.442237" xlink:href="#m1b777ff6dd" y="223.384742"/>
     <use style="fill-opacity:0.75;stroke:#000000;stroke-opacity:0.75;" x="255.702577" xlink:href="#m1b777ff6dd" y="224.062314"/>
     <use style="fill-opacity:0.75;stroke:#000000;stroke-opacity:0.75;" x="255.961221" xlink:href="#m1b777ff6dd" y="223.894967"/>
     <use style="fill-opacity:0.75;stroke:#000000;stroke-opacity:0.75;" x="256.21819" xlink:href="#m1b777ff6dd" y="224.871374"/>
     <use style="fill-opacity:0.75;stroke:#000000;stroke-opacity:0.75;" x="256.473508" xlink:href="#m1b777ff6dd" y="224.230343"/>
     <use style="fill-opacity:0.75;stroke:#000000;stroke-opacity:0.75;" x="256.727193" xlink:href="#m1b777ff6dd" y="224.427247"/>
     <use style="fill-opacity:0.75;stroke:#000000;stroke-opacity:0.75;" x="256.979268" xlink:href="#m1b777ff6dd" y="225.096837"/>
     <use style="fill-opacity:0.75;stroke:#000000;stroke-opacity:0.75;" x="257.229753" xlink:href="#m1b777ff6dd" y="225.538619"/>
     <use style="fill-opacity:0.75;stroke:#000000;stroke-opacity:0.75;" x="257.478667" xlink:href="#m1b777ff6dd" y="224.27714"/>
     <use style="fill-opacity:0.75;stroke:#000000;stroke-opacity:0.75;" x="257.72603" xlink:href="#m1b777ff6dd" y="224.804923"/>
     <use style="fill-opacity:0.75;stroke:#000000;stroke-opacity:0.75;" x="257.971862" xlink:href="#m1b777ff6dd" y="225.004597"/>
     <use style="fill-opacity:0.75;stroke:#000000;stroke-opacity:0.75;" x="258.21618" xlink:href="#m1b777ff6dd" y="225.368389"/>
     <use style="fill-opacity:0.75;stroke:#000000;stroke-opacity:0.75;" x="258.459005" xlink:href="#m1b777ff6dd" y="225.751592"/>
     <use style="fill-opacity:0.75;stroke:#000000;stroke-opacity:0.75;" x="258.700353" xlink:href="#m1b777ff6dd" y="226.154722"/>
     <use style="fill-opacity:0.75;stroke:#000000;stroke-opacity:0.75;" x="258.940243" xlink:href="#m1b777ff6dd" y="225.506446"/>
     <use style="fill-opacity:0.75;stroke:#000000;stroke-opacity:0.75;" x="259.178692" xlink:href="#m1b777ff6dd" y="225.198858"/>
     <use style="fill-opacity:0.75;stroke:#000000;stroke-opacity:0.75;" x="259.415718" xlink:href="#m1b777ff6dd" y="225.826069"/>
     <use style="fill-opacity:0.75;stroke:#000000;stroke-opacity:0.75;" x="259.651337" xlink:href="#m1b777ff6dd" y="226.377479"/>
     <use style="fill-opacity:0.75;stroke:#000000;stroke-opacity:0.75;" x="259.885566" xlink:href="#m1b777ff6dd" y="226.341363"/>
     <use style="fill-opacity:0.75;stroke:#000000;stroke-opacity:0.75;" x="260.118421" xlink:href="#m1b777ff6dd" y="226.315116"/>
     <use style="fill-opacity:0.75;stroke:#000000;stroke-opacity:0.75;" x="260.349918" xlink:href="#m1b777ff6dd" y="226.512372"/>
     <use style="fill-opacity:0.75;stroke:#000000;stroke-opacity:0.75;" x="260.580073" xlink:href="#m1b777ff6dd" y="225.628837"/>
     <use style="fill-opacity:0.75;stroke:#000000;stroke-opacity:0.75;" x="260.808902" xlink:href="#m1b777ff6dd" y="226.324957"/>
     <use style="fill-opacity:0.75;stroke:#000000;stroke-opacity:0.75;" x="261.03642" xlink:href="#m1b777ff6dd" y="225.317136"/>
     <use style="fill-opacity:0.75;stroke:#000000;stroke-opacity:0.75;" x="261.26264" xlink:href="#m1b777ff6dd" y="226.936364"/>
     <use style="fill-opacity:0.75;stroke:#000000;stroke-opacity:0.75;" x="261.48758" xlink:href="#m1b777ff6dd" y="226.318396"/>
     <use style="fill-opacity:0.75;stroke:#000000;stroke-opacity:0.75;" x="261.711252" xlink:href="#m1b777ff6dd" y="226.420202"/>
     <use style="fill-opacity:0.75;stroke:#000000;stroke-opacity:0.75;" x="261.933671" xlink:href="#m1b777ff6dd" y="226.621266"/>
     <use style="fill-opacity:0.75;stroke:#000000;stroke-opacity:0.75;" x="262.15485" xlink:href="#m1b777ff6dd" y="226.249574"/>
     <use style="fill-opacity:0.75;stroke:#000000;stroke-opacity:0.75;" x="262.374805" xlink:href="#m1b777ff6dd" y="225.79691"/>
     <use style="fill-opacity:0.75;stroke:#000000;stroke-opacity:0.75;" x="262.593547" xlink:href="#m1b777ff6dd" y="225.968922"/>
     <use style="fill-opacity:0.75;stroke:#000000;stroke-opacity:0.75;" x="262.811091" xlink:href="#m1b777ff6dd" y="225.936412"/>
     <use style="fill-opacity:0.75;stroke:#000000;stroke-opacity:0.75;" x="263.02745" xlink:href="#m1b777ff6dd" y="225.036381"/>
     <use style="fill-opacity:0.75;stroke:#000000;stroke-opacity:0.75;" x="263.242636" xlink:href="#m1b777ff6dd" y="224.969664"/>
     <use style="fill-opacity:0.75;stroke:#000000;stroke-opacity:0.75;" x="263.456661" xlink:href="#m1b777ff6dd" y="224.333366"/>
     <use style="fill-opacity:0.75;stroke:#000000;stroke-opacity:0.75;" x="263.669539" xlink:href="#m1b777ff6dd" y="224.311491"/>
     <use style="fill-opacity:0.75;stroke:#000000;stroke-opacity:0.75;" x="263.881282" xlink:href="#m1b777ff6dd" y="223.531629"/>
     <use style="fill-opacity:0.75;stroke:#000000;stroke-opacity:0.75;" x="264.091902" xlink:href="#m1b777ff6dd" y="222.85059"/>
     <use style="fill-opacity:0.75;stroke:#000000;stroke-opacity:0.75;" x="264.30141" xlink:href="#m1b777ff6dd" y="221.870279"/>
     <use style="fill-opacity:0.75;stroke:#000000;stroke-opacity:0.75;" x="264.509818" xlink:href="#m1b777ff6dd" y="221.393094"/>
     <use style="fill-opacity:0.75;stroke:#000000;stroke-opacity:0.75;" x="264.717138" xlink:href="#m1b777ff6dd" y="220.069846"/>
     <use style="fill-opacity:0.75;stroke:#000000;stroke-opacity:0.75;" x="264.923381" xlink:href="#m1b777ff6dd" y="218.913635"/>
     <use style="fill-opacity:0.75;stroke:#000000;stroke-opacity:0.75;" x="265.128558" xlink:href="#m1b777ff6dd" y="217.618633"/>
     <use style="fill-opacity:0.75;stroke:#000000;stroke-opacity:0.75;" x="265.33268" xlink:href="#m1b777ff6dd" y="215.481168"/>
     <use style="fill-opacity:0.75;stroke:#000000;stroke-opacity:0.75;" x="265.535758" xlink:href="#m1b777ff6dd" y="212.841455"/>
     <use style="fill-opacity:0.75;stroke:#000000;stroke-opacity:0.75;" x="265.737802" xlink:href="#m1b777ff6dd" y="208.727444"/>
     <use style="fill-opacity:0.75;stroke:#000000;stroke-opacity:0.75;" x="265.938824" xlink:href="#m1b777ff6dd" y="198.787227"/>
     <use style="fill-opacity:0.75;stroke:#000000;stroke-opacity:0.75;" x="266.138833" xlink:href="#m1b777ff6dd" y="168.777395"/>
    </g>
   </g>
   <g id="line2d_44">
    <path clip-path="url(#p516a058ab4)" d="M 55.985778 17.721023 
L 83.50488 60.838569 
L 99.602523 79.855035 
L 111.023983 90.157811 
L 127.121626 103.327989 
L 133.241665 108.545465 
L 138.543085 113.306044 
L 143.219269 117.733903 
L 147.402257 121.897787 
L 154.640728 129.585461 
L 160.760768 136.560705 
L 166.062187 142.920735 
L 174.92136 154.018959 
L 186.836014 169.037199 
L 192.320813 175.568232 
L 197.139042 180.929406 
L 201.435303 185.353154 
L 205.311713 189.039245 
L 209.678933 192.855534 
L 214.355116 196.588785 
L 219.194346 200.140743 
L 225.221299 204.253327 
L 234.192149 210.053427 
L 249.841181 220.170706 
L 256.473508 224.392294 
L 258.700353 225.551632 
L 260.118421 226.0318 
L 261.03642 226.121035 
L 261.711252 225.999675 
L 262.374805 225.645446 
L 263.02745 224.960598 
L 263.669539 223.796154 
L 264.30141 221.90893 
L 264.717138 220.035282 
L 265.128558 217.339552 
L 265.535758 212.84503 
L 265.737802 208.543631 
L 265.938824 198.809328 
L 266.138833 169.061893 
L 266.138833 169.061893 
" style="fill:none;stroke:#1f77b4;stroke-linecap:square;stroke-opacity:0.75;stroke-width:3;"/>
   </g>
   <g id="patch_3">
    <path d="M 45.478125 237.4 
L 45.478125 7.2 
" style="fill:none;stroke:#000000;stroke-linecap:square;stroke-linejoin:miter;stroke-width:0.8;"/>
   </g>
   <g id="patch_4">
    <path d="M 276.646486 237.4 
L 276.646486 7.2 
" style="fill:none;stroke:#000000;stroke-linecap:square;stroke-linejoin:miter;stroke-width:0.8;"/>
   </g>
   <g id="patch_5">
    <path d="M 45.478125 237.4 
L 276.646486 237.4 
" style="fill:none;stroke:#000000;stroke-linecap:square;stroke-linejoin:miter;stroke-width:0.8;"/>
   </g>
   <g id="patch_6">
    <path d="M 45.478125 7.2 
L 276.646486 7.2 
" style="fill:none;stroke:#000000;stroke-linecap:square;stroke-linejoin:miter;stroke-width:0.8;"/>
   </g>
  </g>
  <g id="axes_2">
   <g id="patch_7">
    <path d="M 329.572266 237.4 
L 560.740626 237.4 
L 560.740626 7.2 
L 329.572266 7.2 
z
" style="fill:#ffffff;"/>
   </g>
   <g id="matplotlib.axis_3">
    <g id="xtick_23">
     <g id="line2d_45">
      <g>
       <use style="stroke:#000000;stroke-width:0.8;" x="340.079918" xlink:href="#m541f40a32a" y="237.4"/>
      </g>
     </g>
     <g id="text_9">
      <!-- $\mathdefault{10^{0}}$ -->
      <g transform="translate(331.279918 251.998437)scale(0.1 -0.1)">
       <use transform="translate(0 0.765625)" xlink:href="#DejaVuSans-49"/>
       <use transform="translate(63.623047 0.765625)" xlink:href="#DejaVuSans-48"/>
       <use transform="translate(128.203125 39.046875)scale(0.7)" xlink:href="#DejaVuSans-48"/>
      </g>
     </g>
    </g>
    <g id="xtick_24">
     <g id="line2d_46">
      <g>
       <use style="stroke:#000000;stroke-width:0.8;" x="378.102237" xlink:href="#m541f40a32a" y="237.4"/>
      </g>
     </g>
     <g id="text_10">
      <!-- $\mathdefault{10^{1}}$ -->
      <g transform="translate(369.302237 251.998437)scale(0.1 -0.1)">
       <use transform="translate(0 0.684375)" xlink:href="#DejaVuSans-49"/>
       <use transform="translate(63.623047 0.684375)" xlink:href="#DejaVuSans-48"/>
       <use transform="translate(128.203125 38.965625)scale(0.7)" xlink:href="#DejaVuSans-49"/>
      </g>
     </g>
    </g>
    <g id="xtick_25">
     <g id="line2d_47">
      <g>
       <use style="stroke:#000000;stroke-width:0.8;" x="416.124555" xlink:href="#m541f40a32a" y="237.4"/>
      </g>
     </g>
     <g id="text_11">
      <!-- $\mathdefault{10^{2}}$ -->
      <g transform="translate(407.324555 251.998437)scale(0.1 -0.1)">
       <use transform="translate(0 0.765625)" xlink:href="#DejaVuSans-49"/>
       <use transform="translate(63.623047 0.765625)" xlink:href="#DejaVuSans-48"/>
       <use transform="translate(128.203125 39.046875)scale(0.7)" xlink:href="#DejaVuSans-50"/>
      </g>
     </g>
    </g>
    <g id="xtick_26">
     <g id="line2d_48">
      <g>
       <use style="stroke:#000000;stroke-width:0.8;" x="454.146873" xlink:href="#m541f40a32a" y="237.4"/>
      </g>
     </g>
     <g id="text_12">
      <!-- $\mathdefault{10^{3}}$ -->
      <defs>
       <path d="M 40.578125 39.3125 
Q 47.65625 37.796875 51.625 33 
Q 55.609375 28.21875 55.609375 21.1875 
Q 55.609375 10.40625 48.1875 4.484375 
Q 40.765625 -1.421875 27.09375 -1.421875 
Q 22.515625 -1.421875 17.65625 -0.515625 
Q 12.796875 0.390625 7.625 2.203125 
L 7.625 11.71875 
Q 11.71875 9.328125 16.59375 8.109375 
Q 21.484375 6.890625 26.8125 6.890625 
Q 36.078125 6.890625 40.9375 10.546875 
Q 45.796875 14.203125 45.796875 21.1875 
Q 45.796875 27.640625 41.28125 31.265625 
Q 36.765625 34.90625 28.71875 34.90625 
L 20.21875 34.90625 
L 20.21875 43.015625 
L 29.109375 43.015625 
Q 36.375 43.015625 40.234375 45.921875 
Q 44.09375 48.828125 44.09375 54.296875 
Q 44.09375 59.90625 40.109375 62.90625 
Q 36.140625 65.921875 28.71875 65.921875 
Q 24.65625 65.921875 20.015625 65.03125 
Q 15.375 64.15625 9.8125 62.3125 
L 9.8125 71.09375 
Q 15.4375 72.65625 20.34375 73.4375 
Q 25.25 74.21875 29.59375 74.21875 
Q 40.828125 74.21875 47.359375 69.109375 
Q 53.90625 64.015625 53.90625 55.328125 
Q 53.90625 49.265625 50.4375 45.09375 
Q 46.96875 40.921875 40.578125 39.3125 
z
" id="DejaVuSans-51"/>
      </defs>
      <g transform="translate(445.346873 251.998437)scale(0.1 -0.1)">
       <use transform="translate(0 0.765625)" xlink:href="#DejaVuSans-49"/>
       <use transform="translate(63.623047 0.765625)" xlink:href="#DejaVuSans-48"/>
       <use transform="translate(128.203125 39.046875)scale(0.7)" xlink:href="#DejaVuSans-51"/>
      </g>
     </g>
    </g>
    <g id="xtick_27">
     <g id="line2d_49">
      <g>
       <use style="stroke:#000000;stroke-width:0.8;" x="492.169191" xlink:href="#m541f40a32a" y="237.4"/>
      </g>
     </g>
     <g id="text_13">
      <!-- $\mathdefault{10^{4}}$ -->
      <g transform="translate(483.369191 251.998437)scale(0.1 -0.1)">
       <use transform="translate(0 0.684375)" xlink:href="#DejaVuSans-49"/>
       <use transform="translate(63.623047 0.684375)" xlink:href="#DejaVuSans-48"/>
       <use transform="translate(128.203125 38.965625)scale(0.7)" xlink:href="#DejaVuSans-52"/>
      </g>
     </g>
    </g>
    <g id="xtick_28">
     <g id="line2d_50">
      <g>
       <use style="stroke:#000000;stroke-width:0.8;" x="530.191509" xlink:href="#m541f40a32a" y="237.4"/>
      </g>
     </g>
     <g id="text_14">
      <!-- $\mathdefault{10^{5}}$ -->
      <g transform="translate(521.391509 251.998437)scale(0.1 -0.1)">
       <use transform="translate(0 0.684375)" xlink:href="#DejaVuSans-49"/>
       <use transform="translate(63.623047 0.684375)" xlink:href="#DejaVuSans-48"/>
       <use transform="translate(128.203125 38.965625)scale(0.7)" xlink:href="#DejaVuSans-53"/>
      </g>
     </g>
    </g>
    <g id="xtick_29">
     <g id="line2d_51">
      <g>
       <use style="stroke:#000000;stroke-width:0.6;" x="331.644715" xlink:href="#m5feae807f5" y="237.4"/>
      </g>
     </g>
    </g>
    <g id="xtick_30">
     <g id="line2d_52">
      <g>
       <use style="stroke:#000000;stroke-width:0.6;" x="334.190187" xlink:href="#m5feae807f5" y="237.4"/>
      </g>
     </g>
    </g>
    <g id="xtick_31">
     <g id="line2d_53">
      <g>
       <use style="stroke:#000000;stroke-width:0.6;" x="336.395175" xlink:href="#m5feae807f5" y="237.4"/>
      </g>
     </g>
    </g>
    <g id="xtick_32">
     <g id="line2d_54">
      <g>
       <use style="stroke:#000000;stroke-width:0.6;" x="338.340113" xlink:href="#m5feae807f5" y="237.4"/>
      </g>
     </g>
    </g>
    <g id="xtick_33">
     <g id="line2d_55">
      <g>
       <use style="stroke:#000000;stroke-width:0.6;" x="351.525777" xlink:href="#m5feae807f5" y="237.4"/>
      </g>
     </g>
    </g>
    <g id="xtick_34">
     <g id="line2d_56">
      <g>
       <use style="stroke:#000000;stroke-width:0.6;" x="358.221175" xlink:href="#m5feae807f5" y="237.4"/>
      </g>
     </g>
    </g>
    <g id="xtick_35">
     <g id="line2d_57">
      <g>
       <use style="stroke:#000000;stroke-width:0.6;" x="362.971635" xlink:href="#m5feae807f5" y="237.4"/>
      </g>
     </g>
    </g>
    <g id="xtick_36">
     <g id="line2d_58">
      <g>
       <use style="stroke:#000000;stroke-width:0.6;" x="366.656378" xlink:href="#m5feae807f5" y="237.4"/>
      </g>
     </g>
    </g>
    <g id="xtick_37">
     <g id="line2d_59">
      <g>
       <use style="stroke:#000000;stroke-width:0.6;" x="369.667033" xlink:href="#m5feae807f5" y="237.4"/>
      </g>
     </g>
    </g>
    <g id="xtick_38">
     <g id="line2d_60">
      <g>
       <use style="stroke:#000000;stroke-width:0.6;" x="372.212505" xlink:href="#m5feae807f5" y="237.4"/>
      </g>
     </g>
    </g>
    <g id="xtick_39">
     <g id="line2d_61">
      <g>
       <use style="stroke:#000000;stroke-width:0.6;" x="374.417493" xlink:href="#m5feae807f5" y="237.4"/>
      </g>
     </g>
    </g>
    <g id="xtick_40">
     <g id="line2d_62">
      <g>
       <use style="stroke:#000000;stroke-width:0.6;" x="376.362431" xlink:href="#m5feae807f5" y="237.4"/>
      </g>
     </g>
    </g>
    <g id="xtick_41">
     <g id="line2d_63">
      <g>
       <use style="stroke:#000000;stroke-width:0.6;" x="389.548095" xlink:href="#m5feae807f5" y="237.4"/>
      </g>
     </g>
    </g>
    <g id="xtick_42">
     <g id="line2d_64">
      <g>
       <use style="stroke:#000000;stroke-width:0.6;" x="396.243493" xlink:href="#m5feae807f5" y="237.4"/>
      </g>
     </g>
    </g>
    <g id="xtick_43">
     <g id="line2d_65">
      <g>
       <use style="stroke:#000000;stroke-width:0.6;" x="400.993953" xlink:href="#m5feae807f5" y="237.4"/>
      </g>
     </g>
    </g>
    <g id="xtick_44">
     <g id="line2d_66">
      <g>
       <use style="stroke:#000000;stroke-width:0.6;" x="404.678696" xlink:href="#m5feae807f5" y="237.4"/>
      </g>
     </g>
    </g>
    <g id="xtick_45">
     <g id="line2d_67">
      <g>
       <use style="stroke:#000000;stroke-width:0.6;" x="407.689351" xlink:href="#m5feae807f5" y="237.4"/>
      </g>
     </g>
    </g>
    <g id="xtick_46">
     <g id="line2d_68">
      <g>
       <use style="stroke:#000000;stroke-width:0.6;" x="410.234823" xlink:href="#m5feae807f5" y="237.4"/>
      </g>
     </g>
    </g>
    <g id="xtick_47">
     <g id="line2d_69">
      <g>
       <use style="stroke:#000000;stroke-width:0.6;" x="412.439811" xlink:href="#m5feae807f5" y="237.4"/>
      </g>
     </g>
    </g>
    <g id="xtick_48">
     <g id="line2d_70">
      <g>
       <use style="stroke:#000000;stroke-width:0.6;" x="414.384749" xlink:href="#m5feae807f5" y="237.4"/>
      </g>
     </g>
    </g>
    <g id="xtick_49">
     <g id="line2d_71">
      <g>
       <use style="stroke:#000000;stroke-width:0.6;" x="427.570413" xlink:href="#m5feae807f5" y="237.4"/>
      </g>
     </g>
    </g>
    <g id="xtick_50">
     <g id="line2d_72">
      <g>
       <use style="stroke:#000000;stroke-width:0.6;" x="434.265811" xlink:href="#m5feae807f5" y="237.4"/>
      </g>
     </g>
    </g>
    <g id="xtick_51">
     <g id="line2d_73">
      <g>
       <use style="stroke:#000000;stroke-width:0.6;" x="439.016271" xlink:href="#m5feae807f5" y="237.4"/>
      </g>
     </g>
    </g>
    <g id="xtick_52">
     <g id="line2d_74">
      <g>
       <use style="stroke:#000000;stroke-width:0.6;" x="442.701015" xlink:href="#m5feae807f5" y="237.4"/>
      </g>
     </g>
    </g>
    <g id="xtick_53">
     <g id="line2d_75">
      <g>
       <use style="stroke:#000000;stroke-width:0.6;" x="445.711669" xlink:href="#m5feae807f5" y="237.4"/>
      </g>
     </g>
    </g>
    <g id="xtick_54">
     <g id="line2d_76">
      <g>
       <use style="stroke:#000000;stroke-width:0.6;" x="448.257141" xlink:href="#m5feae807f5" y="237.4"/>
      </g>
     </g>
    </g>
    <g id="xtick_55">
     <g id="line2d_77">
      <g>
       <use style="stroke:#000000;stroke-width:0.6;" x="450.462129" xlink:href="#m5feae807f5" y="237.4"/>
      </g>
     </g>
    </g>
    <g id="xtick_56">
     <g id="line2d_78">
      <g>
       <use style="stroke:#000000;stroke-width:0.6;" x="452.407067" xlink:href="#m5feae807f5" y="237.4"/>
      </g>
     </g>
    </g>
    <g id="xtick_57">
     <g id="line2d_79">
      <g>
       <use style="stroke:#000000;stroke-width:0.6;" x="465.592731" xlink:href="#m5feae807f5" y="237.4"/>
      </g>
     </g>
    </g>
    <g id="xtick_58">
     <g id="line2d_80">
      <g>
       <use style="stroke:#000000;stroke-width:0.6;" x="472.288129" xlink:href="#m5feae807f5" y="237.4"/>
      </g>
     </g>
    </g>
    <g id="xtick_59">
     <g id="line2d_81">
      <g>
       <use style="stroke:#000000;stroke-width:0.6;" x="477.038589" xlink:href="#m5feae807f5" y="237.4"/>
      </g>
     </g>
    </g>
    <g id="xtick_60">
     <g id="line2d_82">
      <g>
       <use style="stroke:#000000;stroke-width:0.6;" x="480.723333" xlink:href="#m5feae807f5" y="237.4"/>
      </g>
     </g>
    </g>
    <g id="xtick_61">
     <g id="line2d_83">
      <g>
       <use style="stroke:#000000;stroke-width:0.6;" x="483.733987" xlink:href="#m5feae807f5" y="237.4"/>
      </g>
     </g>
    </g>
    <g id="xtick_62">
     <g id="line2d_84">
      <g>
       <use style="stroke:#000000;stroke-width:0.6;" x="486.279459" xlink:href="#m5feae807f5" y="237.4"/>
      </g>
     </g>
    </g>
    <g id="xtick_63">
     <g id="line2d_85">
      <g>
       <use style="stroke:#000000;stroke-width:0.6;" x="488.484448" xlink:href="#m5feae807f5" y="237.4"/>
      </g>
     </g>
    </g>
    <g id="xtick_64">
     <g id="line2d_86">
      <g>
       <use style="stroke:#000000;stroke-width:0.6;" x="490.429385" xlink:href="#m5feae807f5" y="237.4"/>
      </g>
     </g>
    </g>
    <g id="xtick_65">
     <g id="line2d_87">
      <g>
       <use style="stroke:#000000;stroke-width:0.6;" x="503.615049" xlink:href="#m5feae807f5" y="237.4"/>
      </g>
     </g>
    </g>
    <g id="xtick_66">
     <g id="line2d_88">
      <g>
       <use style="stroke:#000000;stroke-width:0.6;" x="510.310447" xlink:href="#m5feae807f5" y="237.4"/>
      </g>
     </g>
    </g>
    <g id="xtick_67">
     <g id="line2d_89">
      <g>
       <use style="stroke:#000000;stroke-width:0.6;" x="515.060907" xlink:href="#m5feae807f5" y="237.4"/>
      </g>
     </g>
    </g>
    <g id="xtick_68">
     <g id="line2d_90">
      <g>
       <use style="stroke:#000000;stroke-width:0.6;" x="518.745651" xlink:href="#m5feae807f5" y="237.4"/>
      </g>
     </g>
    </g>
    <g id="xtick_69">
     <g id="line2d_91">
      <g>
       <use style="stroke:#000000;stroke-width:0.6;" x="521.756305" xlink:href="#m5feae807f5" y="237.4"/>
      </g>
     </g>
    </g>
    <g id="xtick_70">
     <g id="line2d_92">
      <g>
       <use style="stroke:#000000;stroke-width:0.6;" x="524.301777" xlink:href="#m5feae807f5" y="237.4"/>
      </g>
     </g>
    </g>
    <g id="xtick_71">
     <g id="line2d_93">
      <g>
       <use style="stroke:#000000;stroke-width:0.6;" x="526.506766" xlink:href="#m5feae807f5" y="237.4"/>
      </g>
     </g>
    </g>
    <g id="xtick_72">
     <g id="line2d_94">
      <g>
       <use style="stroke:#000000;stroke-width:0.6;" x="528.451703" xlink:href="#m5feae807f5" y="237.4"/>
      </g>
     </g>
    </g>
    <g id="xtick_73">
     <g id="line2d_95">
      <g>
       <use style="stroke:#000000;stroke-width:0.6;" x="541.637367" xlink:href="#m5feae807f5" y="237.4"/>
      </g>
     </g>
    </g>
    <g id="xtick_74">
     <g id="line2d_96">
      <g>
       <use style="stroke:#000000;stroke-width:0.6;" x="548.332765" xlink:href="#m5feae807f5" y="237.4"/>
      </g>
     </g>
    </g>
    <g id="xtick_75">
     <g id="line2d_97">
      <g>
       <use style="stroke:#000000;stroke-width:0.6;" x="553.083226" xlink:href="#m5feae807f5" y="237.4"/>
      </g>
     </g>
    </g>
    <g id="xtick_76">
     <g id="line2d_98">
      <g>
       <use style="stroke:#000000;stroke-width:0.6;" x="556.767969" xlink:href="#m5feae807f5" y="237.4"/>
      </g>
     </g>
    </g>
    <g id="xtick_77">
     <g id="line2d_99">
      <g>
       <use style="stroke:#000000;stroke-width:0.6;" x="559.778623" xlink:href="#m5feae807f5" y="237.4"/>
      </g>
     </g>
    </g>
    <g id="text_15">
     <!-- $t$ (generations ago) -->
     <defs>
      <path d="M 42.28125 54.6875 
L 40.921875 47.703125 
L 23 47.703125 
L 17.1875 18.015625 
Q 16.890625 16.359375 16.75 15.234375 
Q 16.609375 14.109375 16.609375 13.484375 
Q 16.609375 10.359375 18.484375 8.9375 
Q 20.359375 7.515625 24.515625 7.515625 
L 33.59375 7.515625 
L 32.078125 0 
L 23.484375 0 
Q 15.484375 0 11.546875 3.125 
Q 7.625 6.25 7.625 12.59375 
Q 7.625 13.71875 7.765625 15.0625 
Q 7.90625 16.40625 8.203125 18.015625 
L 14.015625 47.703125 
L 6.390625 47.703125 
L 7.8125 54.6875 
L 15.28125 54.6875 
L 18.3125 70.21875 
L 27.296875 70.21875 
L 24.3125 54.6875 
z
" id="DejaVuSans-Oblique-116"/>
      <path d="M 31 75.875 
Q 24.46875 64.65625 21.28125 53.65625 
Q 18.109375 42.671875 18.109375 31.390625 
Q 18.109375 20.125 21.3125 9.0625 
Q 24.515625 -2 31 -13.1875 
L 23.1875 -13.1875 
Q 15.875 -1.703125 12.234375 9.375 
Q 8.59375 20.453125 8.59375 31.390625 
Q 8.59375 42.28125 12.203125 53.3125 
Q 15.828125 64.359375 23.1875 75.875 
z
" id="DejaVuSans-40"/>
      <path d="M 45.40625 27.984375 
Q 45.40625 37.75 41.375 43.109375 
Q 37.359375 48.484375 30.078125 48.484375 
Q 22.859375 48.484375 18.828125 43.109375 
Q 14.796875 37.75 14.796875 27.984375 
Q 14.796875 18.265625 18.828125 12.890625 
Q 22.859375 7.515625 30.078125 7.515625 
Q 37.359375 7.515625 41.375 12.890625 
Q 45.40625 18.265625 45.40625 27.984375 
z
M 54.390625 6.78125 
Q 54.390625 -7.171875 48.1875 -13.984375 
Q 42 -20.796875 29.203125 -20.796875 
Q 24.46875 -20.796875 20.265625 -20.09375 
Q 16.0625 -19.390625 12.109375 -17.921875 
L 12.109375 -9.1875 
Q 16.0625 -11.328125 19.921875 -12.34375 
Q 23.78125 -13.375 27.78125 -13.375 
Q 36.625 -13.375 41.015625 -8.765625 
Q 45.40625 -4.15625 45.40625 5.171875 
L 45.40625 9.625 
Q 42.625 4.78125 38.28125 2.390625 
Q 33.9375 0 27.875 0 
Q 17.828125 0 11.671875 7.65625 
Q 5.515625 15.328125 5.515625 27.984375 
Q 5.515625 40.671875 11.671875 48.328125 
Q 17.828125 56 27.875 56 
Q 33.9375 56 38.28125 53.609375 
Q 42.625 51.21875 45.40625 46.390625 
L 45.40625 54.6875 
L 54.390625 54.6875 
z
" id="DejaVuSans-103"/>
      <path d="M 8.015625 75.875 
L 15.828125 75.875 
Q 23.140625 64.359375 26.78125 53.3125 
Q 30.421875 42.28125 30.421875 31.390625 
Q 30.421875 20.453125 26.78125 9.375 
Q 23.140625 -1.703125 15.828125 -13.1875 
L 8.015625 -13.1875 
Q 14.5 -2 17.703125 9.0625 
Q 20.90625 20.125 20.90625 31.390625 
Q 20.90625 42.671875 17.703125 53.65625 
Q 14.5 64.65625 8.015625 75.875 
z
" id="DejaVuSans-41"/>
     </defs>
     <g transform="translate(397.006446 265.678125)scale(0.1 -0.1)">
      <use transform="translate(0 0.015625)" xlink:href="#DejaVuSans-Oblique-116"/>
      <use transform="translate(39.208984 0.015625)" xlink:href="#DejaVuSans-32"/>
      <use transform="translate(70.996094 0.015625)" xlink:href="#DejaVuSans-40"/>
      <use transform="translate(110.009766 0.015625)" xlink:href="#DejaVuSans-103"/>
      <use transform="translate(173.486328 0.015625)" xlink:href="#DejaVuSans-101"/>
      <use transform="translate(235.009766 0.015625)" xlink:href="#DejaVuSans-110"/>
      <use transform="translate(298.388672 0.015625)" xlink:href="#DejaVuSans-101"/>
      <use transform="translate(359.912109 0.015625)" xlink:href="#DejaVuSans-114"/>
      <use transform="translate(401.025391 0.015625)" xlink:href="#DejaVuSans-97"/>
      <use transform="translate(462.304688 0.015625)" xlink:href="#DejaVuSans-116"/>
      <use transform="translate(501.513672 0.015625)" xlink:href="#DejaVuSans-105"/>
      <use transform="translate(529.296875 0.015625)" xlink:href="#DejaVuSans-111"/>
      <use transform="translate(590.478516 0.015625)" xlink:href="#DejaVuSans-110"/>
      <use transform="translate(653.857422 0.015625)" xlink:href="#DejaVuSans-115"/>
      <use transform="translate(705.957031 0.015625)" xlink:href="#DejaVuSans-32"/>
      <use transform="translate(737.744141 0.015625)" xlink:href="#DejaVuSans-97"/>
      <use transform="translate(799.023438 0.015625)" xlink:href="#DejaVuSans-103"/>
      <use transform="translate(862.5 0.015625)" xlink:href="#DejaVuSans-111"/>
      <use transform="translate(923.681641 0.015625)" xlink:href="#DejaVuSans-41"/>
     </g>
    </g>
   </g>
   <g id="matplotlib.axis_4">
    <g id="ytick_21">
     <g id="line2d_100">
      <g>
       <use style="stroke:#000000;stroke-width:0.8;" x="329.572266" xlink:href="#m875a1a943e" y="120.989465"/>
      </g>
     </g>
     <g id="text_16">
      <!-- $\mathdefault{10^{4}}$ -->
      <g transform="translate(304.972266 124.788683)scale(0.1 -0.1)">
       <use transform="translate(0 0.684375)" xlink:href="#DejaVuSans-49"/>
       <use transform="translate(63.623047 0.684375)" xlink:href="#DejaVuSans-48"/>
       <use transform="translate(128.203125 38.965625)scale(0.7)" xlink:href="#DejaVuSans-52"/>
      </g>
     </g>
    </g>
    <g id="ytick_22">
     <g id="line2d_101">
      <g>
       <use style="stroke:#000000;stroke-width:0.6;" x="329.572266" xlink:href="#m93d6d6d450" y="219.993923"/>
      </g>
     </g>
    </g>
    <g id="ytick_23">
     <g id="line2d_102">
      <g>
       <use style="stroke:#000000;stroke-width:0.6;" x="329.572266" xlink:href="#m93d6d6d450" y="196.337402"/>
      </g>
     </g>
    </g>
    <g id="ytick_24">
     <g id="line2d_103">
      <g>
       <use style="stroke:#000000;stroke-width:0.6;" x="329.572266" xlink:href="#m93d6d6d450" y="177.987979"/>
      </g>
     </g>
    </g>
    <g id="ytick_25">
     <g id="line2d_104">
      <g>
       <use style="stroke:#000000;stroke-width:0.6;" x="329.572266" xlink:href="#m93d6d6d450" y="162.995409"/>
      </g>
     </g>
    </g>
    <g id="ytick_26">
     <g id="line2d_105">
      <g>
       <use style="stroke:#000000;stroke-width:0.6;" x="329.572266" xlink:href="#m93d6d6d450" y="150.319371"/>
      </g>
     </g>
    </g>
    <g id="ytick_27">
     <g id="line2d_106">
      <g>
       <use style="stroke:#000000;stroke-width:0.6;" x="329.572266" xlink:href="#m93d6d6d450" y="139.338888"/>
      </g>
     </g>
    </g>
    <g id="ytick_28">
     <g id="line2d_107">
      <g>
       <use style="stroke:#000000;stroke-width:0.6;" x="329.572266" xlink:href="#m93d6d6d450" y="129.653415"/>
      </g>
     </g>
    </g>
    <g id="ytick_29">
     <g id="line2d_108">
      <g>
       <use style="stroke:#000000;stroke-width:0.6;" x="329.572266" xlink:href="#m93d6d6d450" y="63.99095"/>
      </g>
     </g>
    </g>
    <g id="ytick_30">
     <g id="line2d_109">
      <g>
       <use style="stroke:#000000;stroke-width:0.6;" x="329.572266" xlink:href="#m93d6d6d450" y="30.648956"/>
      </g>
     </g>
    </g>
    <g id="text_17">
     <!-- $\eta(t)$ -->
     <defs>
      <path d="M 57.859375 33.015625 
L 47.40625 -20.796875 
L 38.421875 -20.796875 
L 48.828125 32.71875 
Q 50.34375 40.484375 48.046875 44.34375 
Q 45.796875 48.1875 39.75 48.1875 
Q 32.46875 48.1875 27.34375 43.5625 
Q 22.265625 38.921875 20.703125 30.90625 
L 14.703125 0 
L 5.671875 0 
L 16.3125 54.6875 
L 25.34375 54.6875 
L 23.6875 46.1875 
Q 27.828125 51.125 32.71875 53.5625 
Q 37.546875 56 43.265625 56 
Q 52.6875 56 56.390625 50.203125 
Q 60.0625 44.34375 57.859375 33.015625 
z
" id="DejaVuSans-Oblique-951"/>
     </defs>
     <g transform="translate(298.872266 131.35)rotate(-90)scale(0.1 -0.1)">
      <use transform="translate(0 0.125)" xlink:href="#DejaVuSans-Oblique-951"/>
      <use transform="translate(63.378906 0.125)" xlink:href="#DejaVuSans-40"/>
      <use transform="translate(102.392578 0.125)" xlink:href="#DejaVuSans-Oblique-116"/>
      <use transform="translate(141.601562 0.125)" xlink:href="#DejaVuSans-41"/>
     </g>
    </g>
   </g>
   <g id="line2d_110">
    <path clip-path="url(#p24b2a5008b)" d="M -1 34.509876 
L 397.399996 34.509876 
L 398.355331 35.948562 
L 400.266 43.866854 
L 402.176669 52.756466 
L 404.087338 62.736546 
L 405.998008 73.94086 
L 407.908677 86.519583 
L 409.819346 100.641309 
L 411.730015 116.495317 
L 413.640685 134.2941 
L 415.551354 154.27622 
L 417.462023 176.709502 
L 419.372692 201.894625 
L 420.328027 215.623054 
L 421.283362 222.273166 
L 423.194031 214.337786 
L 425.1047 205.42899 
L 427.015369 195.427373 
L 428.926039 184.198879 
L 430.836708 171.593011 
L 432.747377 157.440809 
L 434.658046 141.552588 
L 436.568716 123.715394 
L 438.479385 103.690151 
L 440.390054 81.208456 
L 442.300723 55.968982 
L 443.256058 42.210927 
L 444.211393 36.232911 
L 446.122062 44.186314 
L 448.032731 53.115344 
L 449.9434 63.139677 
L 451.85407 74.393674 
L 453.764739 87.028173 
L 455.675408 101.212517 
L 457.586077 117.136824 
L 459.496747 135.01453 
L 461.407416 155.085255 
L 463.318085 177.618011 
L 465.228754 202.914809 
L 466.184089 216.704113 
L 467.139424 221.989387 
L 469.050093 214.018585 
L 470.960762 205.070022 
L 472.871431 195.023758 
L 474.782101 183.745142 
L 476.69277 171.083003 
L 478.603439 156.867628 
L 480.514109 140.908484 
L 482.424778 122.991668 
L 484.335447 102.877035 
L 486.246116 80.294986 
L 488.156786 54.942847 
L 489.11212 41.123377 
L 490.067455 36.518366 
L 491.978124 44.506922 
L 493.888793 53.475415 
L 495.799463 63.544054 
L 497.710132 74.84779 
L 499.620801 87.53813 
L 501.53147 101.785166 
L 503.44214 117.779854 
L 505.352809 135.736575 
L 507.263478 155.896007 
L 509.174147 178.528351 
L 511.084817 203.936955 
L 512.040151 217.787204 
L 512.995486 223.854844 
L 530.191509 223.854844 
L 530.191509 223.854844 
" style="fill:none;stroke:#000000;stroke-linecap:square;stroke-width:2;"/>
   </g>
   <g id="line2d_111">
    <path clip-path="url(#p24b2a5008b)" d="M -1 92.643225 
L 340.079918 92.70425 
L 342.202677 98.297914 
L 344.325435 108.454375 
L 346.448193 108.588215 
L 348.570951 107.276721 
L 350.693709 104.440692 
L 352.816467 101.112883 
L 354.939225 97.186873 
L 357.061983 92.694031 
L 359.184742 88.093984 
L 361.3075 83.466653 
L 363.430258 78.702338 
L 365.553016 73.852068 
L 367.675774 68.96173 
L 369.798532 64.042342 
L 371.92129 59.122599 
L 374.044048 54.234559 
L 376.166807 49.392645 
L 378.289565 44.59535 
L 380.412323 39.844711 
L 382.535081 35.159346 
L 384.657839 30.562436 
L 386.780597 26.075155 
L 388.903355 21.71967 
L 391.026114 18.04436 
L 393.148872 17.663636 
L 395.27163 17.757372 
L 397.394388 18.261347 
L 399.517146 19.27913 
L 401.639904 23.095455 
L 403.762662 31.218683 
L 405.88542 43.421691 
L 408.008179 68.189699 
L 410.130937 96.466064 
L 412.253695 126.81215 
L 414.376453 155.104526 
L 416.499211 181.567336 
L 418.621969 207.456826 
L 420.744727 226.936364 
L 422.867486 220.332848 
L 424.990244 207.231462 
L 427.113002 189.822085 
L 429.23576 171.213185 
L 431.358518 151.627481 
L 433.481276 132.212411 
L 435.604034 112.914134 
L 437.726792 93.157056 
L 439.849551 79.377668 
L 441.972309 69.310234 
L 444.095067 63.128767 
L 446.217825 61.858875 
L 448.340583 61.788723 
L 450.463341 62.546974 
L 452.586099 69.115309 
L 454.708858 91.254134 
L 456.831616 115.420686 
L 458.954374 141.045375 
L 461.077132 166.180281 
L 463.19989 191.257867 
L 465.322648 219.407882 
L 467.445406 211.511304 
L 469.568164 196.899478 
L 471.690923 182.078733 
L 473.813681 167.403299 
L 475.936439 151.304136 
L 478.059197 142.075609 
L 480.181955 134.949932 
L 482.304713 127.869449 
L 484.427471 120.796442 
L 486.55023 113.69309 
L 488.672988 106.668398 
L 490.795746 101.064296 
L 492.918504 99.020313 
L 495.041262 98.489737 
L 497.16402 101.156096 
L 499.286778 103.643313 
L 501.409536 106.23439 
L 503.532295 109.219555 
L 505.655053 112.582106 
L 507.777811 116.293714 
L 509.900569 120.131799 
L 512.023327 124.042975 
L 514.146085 127.775847 
L 516.268843 131.208759 
L 518.391601 133.04058 
L 520.51436 133.479573 
L 522.637118 133.810036 
L 524.759876 134.052871 
L 526.882634 134.238465 
L 529.005392 134.325911 
L 531.12815 134.359037 
L 533.250908 134.375549 
L 535.373667 134.401162 
L 537.496425 134.454431 
L 539.619183 134.537032 
L 541.741941 134.640622 
L 543.864699 134.762972 
L 545.987457 134.917853 
L 548.110215 135.134214 
L 550.232973 135.443974 
" style="fill:none;stroke:#1f77b4;stroke-linecap:square;stroke-opacity:0.75;stroke-width:3;"/>
   </g>
   <g id="patch_8">
    <path d="M 329.572266 237.4 
L 329.572266 7.2 
" style="fill:none;stroke:#000000;stroke-linecap:square;stroke-linejoin:miter;stroke-width:0.8;"/>
   </g>
   <g id="patch_9">
    <path d="M 560.740626 237.4 
L 560.740626 7.2 
" style="fill:none;stroke:#000000;stroke-linecap:square;stroke-linejoin:miter;stroke-width:0.8;"/>
   </g>
   <g id="patch_10">
    <path d="M 329.572266 237.4 
L 560.740626 237.4 
" style="fill:none;stroke:#000000;stroke-linecap:square;stroke-linejoin:miter;stroke-width:0.8;"/>
   </g>
   <g id="patch_11">
    <path d="M 329.572266 7.2 
L 560.740626 7.2 
" style="fill:none;stroke:#000000;stroke-linecap:square;stroke-linejoin:miter;stroke-width:0.8;"/>
   </g>
   <g id="legend_1">
    <g id="patch_12">
     <path d="M 336.572266 232.4 
L 407.684766 232.4 
Q 409.684766 232.4 409.684766 230.4 
L 409.684766 202.04375 
Q 409.684766 200.04375 407.684766 200.04375 
L 336.572266 200.04375 
Q 334.572266 200.04375 334.572266 202.04375 
L 334.572266 230.4 
Q 334.572266 232.4 336.572266 232.4 
z
" style="fill:#ffffff;opacity:0.8;stroke:#cccccc;stroke-linejoin:miter;"/>
    </g>
    <g id="line2d_112">
     <path d="M 338.572266 208.142187 
L 358.572266 208.142187 
" style="fill:none;stroke:#000000;stroke-linecap:square;stroke-width:2;"/>
    </g>
    <g id="line2d_113"/>
    <g id="text_18">
     <!-- true -->
     <g transform="translate(366.572266 211.642187)scale(0.1 -0.1)">
      <use xlink:href="#DejaVuSans-116"/>
      <use x="39.208984" xlink:href="#DejaVuSans-114"/>
      <use x="80.322266" xlink:href="#DejaVuSans-117"/>
      <use x="143.701172" xlink:href="#DejaVuSans-101"/>
     </g>
    </g>
    <g id="line2d_114">
     <path d="M 338.572266 222.820312 
L 358.572266 222.820312 
" style="fill:none;stroke:#1f77b4;stroke-linecap:square;stroke-opacity:0.75;stroke-width:3;"/>
    </g>
    <g id="line2d_115"/>
    <g id="text_19">
     <!-- inferred -->
     <defs>
      <path d="M 45.40625 46.390625 
L 45.40625 75.984375 
L 54.390625 75.984375 
L 54.390625 0 
L 45.40625 0 
L 45.40625 8.203125 
Q 42.578125 3.328125 38.25 0.953125 
Q 33.9375 -1.421875 27.875 -1.421875 
Q 17.96875 -1.421875 11.734375 6.484375 
Q 5.515625 14.40625 5.515625 27.296875 
Q 5.515625 40.1875 11.734375 48.09375 
Q 17.96875 56 27.875 56 
Q 33.9375 56 38.25 53.625 
Q 42.578125 51.265625 45.40625 46.390625 
z
M 14.796875 27.296875 
Q 14.796875 17.390625 18.875 11.75 
Q 22.953125 6.109375 30.078125 6.109375 
Q 37.203125 6.109375 41.296875 11.75 
Q 45.40625 17.390625 45.40625 27.296875 
Q 45.40625 37.203125 41.296875 42.84375 
Q 37.203125 48.484375 30.078125 48.484375 
Q 22.953125 48.484375 18.875 42.84375 
Q 14.796875 37.203125 14.796875 27.296875 
z
" id="DejaVuSans-100"/>
     </defs>
     <g transform="translate(366.572266 226.320312)scale(0.1 -0.1)">
      <use xlink:href="#DejaVuSans-105"/>
      <use x="27.783203" xlink:href="#DejaVuSans-110"/>
      <use x="91.162109" xlink:href="#DejaVuSans-102"/>
      <use x="126.367188" xlink:href="#DejaVuSans-101"/>
      <use x="187.890625" xlink:href="#DejaVuSans-114"/>
      <use x="227.253906" xlink:href="#DejaVuSans-114"/>
      <use x="266.117188" xlink:href="#DejaVuSans-101"/>
      <use x="327.640625" xlink:href="#DejaVuSans-100"/>
     </g>
    </g>
   </g>
  </g>
 </g>
 <defs>
  <clipPath id="p516a058ab4">
   <rect height="230.2" width="231.168361" x="45.478125" y="7.2"/>
  </clipPath>
  <clipPath id="p24b2a5008b">
   <rect height="230.2" width="231.168361" x="329.572266" y="7.2"/>
  </clipPath>
 </defs>
</svg>
