<?xml version="1.0" encoding="utf-8" standalone="no"?>
<!DOCTYPE svg PUBLIC "-//W3C//DTD SVG 1.1//EN"
  "http://www.w3.org/Graphics/SVG/1.1/DTD/svg11.dtd">
<!-- Created with matplotlib (https://matplotlib.org/) -->
<svg height="217.647996pt" version="1.1" viewBox="0 0 373.911414 217.647996" width="373.911414pt" xmlns="http://www.w3.org/2000/svg" xmlns:xlink="http://www.w3.org/1999/xlink">
 <defs>
  <style type="text/css">
*{stroke-linecap:butt;stroke-linejoin:round;}
  </style>
 </defs>
 <g id="figure_1">
  <g id="patch_1">
   <path d="M 0 217.647996 
L 373.911414 217.647996 
L 373.911414 0 
L 0 0 
z
" style="fill:#ffffff;"/>
  </g>
  <g id="axes_1">
   <g id="patch_2">
    <path d="M 31.911414 183.522655 
L 366.711414 183.522655 
L 366.711414 17.202655 
L 31.911414 17.202655 
z
" style="fill:#ffffff;"/>
   </g>
   <g id="patch_3">
    <path clip-path="url(#p3dcba95d5a)" d="M 32.957664 183.522655 
L 41.327664 183.522655 
L 41.327664 25.122655 
L 32.957664 25.122655 
z
" style="fill:#ea96a3;"/>
   </g>
   <g id="patch_4">
    <path clip-path="url(#p3dcba95d5a)" d="M 43.420164 183.522655 
L 51.790164 183.522655 
L 51.790164 121.948312 
L 43.420164 121.948312 
z
" style="fill:#e99792;"/>
   </g>
   <g id="patch_5">
    <path clip-path="url(#p3dcba95d5a)" d="M 53.882664 183.522655 
L 62.252664 183.522655 
L 62.252664 96.849803 
L 53.882664 96.849803 
z
" style="fill:#e69576;"/>
   </g>
   <g id="patch_6">
    <path clip-path="url(#p3dcba95d5a)" d="M 64.345164 183.522655 
L 72.715164 183.522655 
L 72.715164 74.107599 
L 64.345164 74.107599 
z
" style="fill:#db934e;"/>
   </g>
   <g id="patch_7">
    <path clip-path="url(#p3dcba95d5a)" d="M 74.807664 183.522655 
L 83.177664 183.522655 
L 83.177664 99.69971 
L 74.807664 99.69971 
z
" style="fill:#ca984c;"/>
   </g>
   <g id="patch_8">
    <path clip-path="url(#p3dcba95d5a)" d="M 85.270164 183.522655 
L 93.640164 183.522655 
L 93.640164 138.204715 
L 85.270164 138.204715 
z
" style="fill:#bd9b4a;"/>
   </g>
   <g id="patch_9">
    <path clip-path="url(#p3dcba95d5a)" d="M 95.732664 183.522655 
L 104.102664 183.522655 
L 104.102664 174.146541 
L 95.732664 174.146541 
z
" style="fill:#b09d48;"/>
   </g>
   <g id="patch_10">
    <path clip-path="url(#p3dcba95d5a)" d="M 106.195164 183.522655 
L 114.565164 183.522655 
L 114.565164 116.252065 
L 106.195164 116.252065 
z
" style="fill:#a49f46;"/>
   </g>
   <g id="patch_11">
    <path clip-path="url(#p3dcba95d5a)" d="M 116.657664 183.522655 
L 125.027664 183.522655 
L 125.027664 104.762423 
L 116.657664 104.762423 
z
" style="fill:#98a246;"/>
   </g>
   <g id="patch_12">
    <path clip-path="url(#p3dcba95d5a)" d="M 127.120164 183.522655 
L 135.490164 183.522655 
L 135.490164 126.036741 
L 127.120164 126.036741 
z
" style="fill:#8aa646;"/>
   </g>
   <g id="patch_13">
    <path clip-path="url(#p3dcba95d5a)" d="M 137.582664 183.522655 
L 145.952664 183.522655 
L 145.952664 103.456397 
L 137.582664 103.456397 
z
" style="fill:#76ab47;"/>
   </g>
   <g id="patch_14">
    <path clip-path="url(#p3dcba95d5a)" d="M 148.045164 183.522655 
L 156.415164 183.522655 
L 156.415164 105.083021 
L 148.045164 105.083021 
z
" style="fill:#4db047;"/>
   </g>
   <g id="patch_15">
    <path clip-path="url(#p3dcba95d5a)" d="M 158.507664 183.522655 
L 166.877664 183.522655 
L 166.877664 111.920621 
L 158.507664 111.920621 
z
" style="fill:#49af72;"/>
   </g>
   <g id="patch_16">
    <path clip-path="url(#p3dcba95d5a)" d="M 168.970164 183.522655 
L 177.340164 183.522655 
L 177.340164 131.694463 
L 168.970164 131.694463 
z
" style="fill:#49ae86;"/>
   </g>
   <g id="patch_17">
    <path clip-path="url(#p3dcba95d5a)" d="M 179.432664 183.522655 
L 187.802664 183.522655 
L 187.802664 174.685335 
L 179.432664 174.685335 
z
" style="fill:#4aad92;"/>
   </g>
   <g id="patch_18">
    <path clip-path="url(#p3dcba95d5a)" d="M 189.895164 183.522655 
L 198.265164 183.522655 
L 198.265164 113.035438 
L 189.895164 113.035438 
z
" style="fill:#4aac9c;"/>
   </g>
   <g id="patch_19">
    <path clip-path="url(#p3dcba95d5a)" d="M 200.357664 183.522655 
L 208.727664 183.522655 
L 208.727664 97.830713 
L 200.357664 97.830713 
z
" style="fill:#4baba4;"/>
   </g>
   <g id="patch_20">
    <path clip-path="url(#p3dcba95d5a)" d="M 210.820164 183.522655 
L 219.190164 183.522655 
L 219.190164 144.675658 
L 210.820164 144.675658 
z
" style="fill:#4cabac;"/>
   </g>
   <g id="patch_21">
    <path clip-path="url(#p3dcba95d5a)" d="M 221.282664 183.522655 
L 229.652664 183.522655 
L 229.652664 118.829302 
L 221.282664 118.829302 
z
" style="fill:#4eabb6;"/>
   </g>
   <g id="patch_22">
    <path clip-path="url(#p3dcba95d5a)" d="M 231.745164 183.522655 
L 240.115164 183.522655 
L 240.115164 128.325622 
L 231.745164 128.325622 
z
" style="fill:#50acc0;"/>
   </g>
   <g id="patch_23">
    <path clip-path="url(#p3dcba95d5a)" d="M 242.207664 183.522655 
L 250.577664 183.522655 
L 250.577664 125.812524 
L 242.207664 125.812524 
z
" style="fill:#53accd;"/>
   </g>
   <g id="patch_24">
    <path clip-path="url(#p3dcba95d5a)" d="M 252.670164 183.522655 
L 261.040164 183.522655 
L 261.040164 140.201562 
L 252.670164 140.201562 
z
" style="fill:#58addf;"/>
   </g>
   <g id="patch_25">
    <path clip-path="url(#p3dcba95d5a)" d="M 263.132664 183.522655 
L 271.502664 183.522655 
L 271.502664 176.395999 
L 263.132664 176.395999 
z
" style="fill:#88aee6;"/>
   </g>
   <g id="patch_26">
    <path clip-path="url(#p3dcba95d5a)" d="M 273.595164 183.522655 
L 281.965164 183.522655 
L 281.965164 127.86817 
L 273.595164 127.86817 
z
" style="fill:#a3adea;"/>
   </g>
   <g id="patch_27">
    <path clip-path="url(#p3dcba95d5a)" d="M 284.057664 183.522655 
L 292.427664 183.522655 
L 292.427664 90.498128 
L 284.057664 90.498128 
z
" style="fill:#b6a8eb;"/>
   </g>
   <g id="patch_28">
    <path clip-path="url(#p3dcba95d5a)" d="M 294.520164 183.522655 
L 302.890164 183.522655 
L 302.890164 135.67218 
L 294.520164 135.67218 
z
" style="fill:#c5a0ea;"/>
   </g>
   <g id="patch_29">
    <path clip-path="url(#p3dcba95d5a)" d="M 304.982664 183.522655 
L 313.352664 183.522655 
L 313.352664 128.485523 
L 304.982664 128.485523 
z
" style="fill:#d497e8;"/>
   </g>
   <g id="patch_30">
    <path clip-path="url(#p3dcba95d5a)" d="M 315.445164 183.522655 
L 323.815164 183.522655 
L 323.815164 93.341931 
L 315.445164 93.341931 
z
" style="fill:#e48ae6;"/>
   </g>
   <g id="patch_31">
    <path clip-path="url(#p3dcba95d5a)" d="M 325.907664 183.522655 
L 334.277664 183.522655 
L 334.277664 101.948537 
L 325.907664 101.948537 
z
" style="fill:#e78cd7;"/>
   </g>
   <g id="patch_32">
    <path clip-path="url(#p3dcba95d5a)" d="M 336.370164 183.522655 
L 344.740164 183.522655 
L 344.740164 121.28903 
L 336.370164 121.28903 
z
" style="fill:#e88fca;"/>
   </g>
   <g id="patch_33">
    <path clip-path="url(#p3dcba95d5a)" d="M 346.832664 183.522655 
L 355.202664 183.522655 
L 355.202664 175.986611 
L 346.832664 175.986611 
z
" style="fill:#e992be;"/>
   </g>
   <g id="patch_34">
    <path clip-path="url(#p3dcba95d5a)" d="M 357.295164 183.522655 
L 365.665164 183.522655 
L 365.665164 90.464243 
L 357.295164 90.464243 
z
" style="fill:#e994b2;"/>
   </g>
   <g id="matplotlib.axis_1">
    <g id="xtick_1">
     <g id="line2d_1">
      <defs>
       <path d="M 0 0 
L 0 3.5 
" id="m062725dbd2" style="stroke:#000000;stroke-width:0.8;"/>
      </defs>
      <g>
       <use style="stroke:#000000;stroke-width:0.8;" x="37.142664" xlink:href="#m062725dbd2" y="183.522655"/>
      </g>
     </g>
     <g id="text_1">
      <!-- AAA -->
      <defs>
       <path d="M 35.5 69 
L 26.90625 69 
L 2.59375 0 
L 10.203125 0 
L 17.203125 20 
L 44 20 
L 51.09375 0 
L 59.796875 0 
z
M 42.09375 25.578125 
L 19.09375 25.578125 
C 23.90625 39.5 29.90625 56.84375 30.59375 61.328125 
L 30.703125 61.328125 
C 31.40625 57.234375 33.40625 51.265625 35.09375 46.1875 
z
" id="CMSS17-65"/>
      </defs>
      <g transform="translate(39.633324 210.447996)rotate(-90)scale(0.1 -0.1)">
       <use transform="scale(0.996264)" xlink:href="#CMSS17-65"/>
       <use transform="translate(62.217855 0)scale(0.996264)" xlink:href="#CMSS17-65"/>
       <use transform="translate(124.43571 0)scale(0.996264)" xlink:href="#CMSS17-65"/>
      </g>
     </g>
    </g>
    <g id="xtick_2">
     <g id="line2d_2">
      <g>
       <use style="stroke:#000000;stroke-width:0.8;" x="47.605164" xlink:href="#m062725dbd2" y="183.522655"/>
      </g>
     </g>
     <g id="text_2">
      <!-- AAC -->
      <defs>
       <path d="M 54.703125 11.15625 
C 48 6.671875 44.90625 5.375 36.796875 5.375 
C 22.796875 5.375 14.59375 20.359375 14.59375 34.046875 
C 14.59375 48.625 23 63 37.203125 63 
C 43.59375 63 47.796875 61.21875 52.90625 58.046875 
L 54.296875 65.890625 
C 49.5 68.28125 43.40625 69.375 37.296875 69.375 
C 18.09375 69.375 6.203125 51.8125 6.203125 34.046875 
C 6.203125 14.484375 20.296875 -1 36.296875 -1 
C 44.90625 -1 47.90625 -0.296875 55.296875 4.375 
z
" id="CMSS17-67"/>
      </defs>
      <g transform="translate(50.095824 209.8945)rotate(-90)scale(0.1 -0.1)">
       <use transform="scale(0.996264)" xlink:href="#CMSS17-65"/>
       <use transform="translate(62.217855 0)scale(0.996264)" xlink:href="#CMSS17-65"/>
       <use transform="translate(121.833256 0)scale(0.996264)" xlink:href="#CMSS17-67"/>
      </g>
     </g>
    </g>
    <g id="xtick_3">
     <g id="line2d_3">
      <g>
       <use style="stroke:#000000;stroke-width:0.8;" x="58.067664" xlink:href="#m062725dbd2" y="183.522655"/>
      </g>
     </g>
     <g id="text_3">
      <!-- AAG -->
      <defs>
       <path d="M 56.40625 29 
L 36.5 29 
L 36.5 22.828125 
L 48.796875 22.828125 
L 48.796875 7.359375 
C 44.90625 6.265625 40.90625 5.46875 36.90625 5.46875 
C 22.90625 5.46875 14.59375 20.328125 14.59375 34.375 
C 14.59375 48.359375 23.296875 63 36.90625 63 
C 44.59375 63 48.90625 60.640625 54.203125 56.671875 
L 55.5 64.59375 
C 48.90625 67.984375 44.796875 69.375 37.296875 69.375 
C 17.90625 69.375 6.203125 51.9375 6.203125 34.09375 
C 6.203125 17.03125 18 -1 36.703125 -1 
C 43.703125 -1 50.203125 0.796875 56.40625 3.875 
z
" id="CMSS17-71"/>
      </defs>
      <g transform="translate(60.558324 210.171248)rotate(-90)scale(0.1 -0.1)">
       <use transform="scale(0.996264)" xlink:href="#CMSS17-65"/>
       <use transform="translate(62.217855 0)scale(0.996264)" xlink:href="#CMSS17-65"/>
       <use transform="translate(121.833256 0)scale(0.996264)" xlink:href="#CMSS17-71"/>
      </g>
     </g>
    </g>
    <g id="xtick_4">
     <g id="line2d_4">
      <g>
       <use style="stroke:#000000;stroke-width:0.8;" x="68.530164" xlink:href="#m062725dbd2" y="183.522655"/>
      </g>
     </g>
     <g id="text_4">
      <!-- AAT -->
      <defs>
       <path d="M 36.203125 62 
L 44.5 62 
C 45.703125 62 46.90625 62 48.09375 62 
L 60.59375 62 
L 60.59375 68.375 
L 3.40625 68.375 
L 3.40625 62 
L 15.90625 62 
C 17.09375 62 18.296875 62 19.5 62 
L 27.796875 62 
L 27.796875 -0.5 
L 36.203125 -0.5 
z
" id="CMSS17-84"/>
      </defs>
      <g transform="translate(71.020824 209.756133)rotate(-90)scale(0.1 -0.1)">
       <use transform="scale(0.996264)" xlink:href="#CMSS17-65"/>
       <use transform="translate(62.217855 0)scale(0.996264)" xlink:href="#CMSS17-65"/>
       <use transform="translate(116.628454 0)scale(0.996264)" xlink:href="#CMSS17-84"/>
      </g>
     </g>
    </g>
    <g id="xtick_5">
     <g id="line2d_5">
      <g>
       <use style="stroke:#000000;stroke-width:0.8;" x="78.992664" xlink:href="#m062725dbd2" y="183.522655"/>
      </g>
     </g>
     <g id="text_5">
      <!-- ACA -->
      <g transform="translate(81.483324 209.8945)rotate(-90)scale(0.1 -0.1)">
       <use transform="scale(0.996264)" xlink:href="#CMSS17-65"/>
       <use transform="translate(59.615401 0)scale(0.996264)" xlink:href="#CMSS17-67"/>
       <use transform="translate(119.471173 0)scale(0.996264)" xlink:href="#CMSS17-65"/>
      </g>
     </g>
    </g>
    <g id="xtick_6">
     <g id="line2d_6">
      <g>
       <use style="stroke:#000000;stroke-width:0.8;" x="89.455164" xlink:href="#m062725dbd2" y="183.522655"/>
      </g>
     </g>
     <g id="text_6">
      <!-- ACC -->
      <g transform="translate(91.945824 209.617751)rotate(-90)scale(0.1 -0.1)">
       <use transform="scale(0.996264)" xlink:href="#CMSS17-65"/>
       <use transform="translate(59.615401 0)scale(0.996264)" xlink:href="#CMSS17-67"/>
       <use transform="translate(119.471173 0)scale(0.996264)" xlink:href="#CMSS17-67"/>
      </g>
     </g>
    </g>
    <g id="xtick_7">
     <g id="line2d_7">
      <g>
       <use style="stroke:#000000;stroke-width:0.8;" x="99.917664" xlink:href="#m062725dbd2" y="183.522655"/>
      </g>
     </g>
     <g id="text_7">
      <!-- ACG -->
      <g transform="translate(102.408324 209.8945)rotate(-90)scale(0.1 -0.1)">
       <use transform="scale(0.996264)" xlink:href="#CMSS17-65"/>
       <use transform="translate(59.615401 0)scale(0.996264)" xlink:href="#CMSS17-67"/>
       <use transform="translate(119.471173 0)scale(0.996264)" xlink:href="#CMSS17-71"/>
      </g>
     </g>
    </g>
    <g id="xtick_8">
     <g id="line2d_8">
      <g>
       <use style="stroke:#000000;stroke-width:0.8;" x="110.380164" xlink:href="#m062725dbd2" y="183.522655"/>
      </g>
     </g>
     <g id="text_8">
      <!-- ACT -->
      <g transform="translate(112.870824 210.032866)rotate(-90)scale(0.1 -0.1)">
       <use transform="scale(0.996264)" xlink:href="#CMSS17-65"/>
       <use transform="translate(59.615401 0)scale(0.996264)" xlink:href="#CMSS17-67"/>
       <use transform="translate(119.471173 0)scale(0.996264)" xlink:href="#CMSS17-84"/>
      </g>
     </g>
    </g>
    <g id="xtick_9">
     <g id="line2d_9">
      <g>
       <use style="stroke:#000000;stroke-width:0.8;" x="120.842664" xlink:href="#m062725dbd2" y="183.522655"/>
      </g>
     </g>
     <g id="text_9">
      <!-- CAA -->
      <g transform="translate(123.333324 210.171248)rotate(-90)scale(0.1 -0.1)">
       <use transform="scale(0.996264)" xlink:href="#CMSS17-67"/>
       <use transform="translate(59.855772 0)scale(0.996264)" xlink:href="#CMSS17-65"/>
       <use transform="translate(122.073626 0)scale(0.996264)" xlink:href="#CMSS17-65"/>
      </g>
     </g>
    </g>
    <g id="xtick_10">
     <g id="line2d_10">
      <g>
       <use style="stroke:#000000;stroke-width:0.8;" x="131.305164" xlink:href="#m062725dbd2" y="183.522655"/>
      </g>
     </g>
     <g id="text_10">
      <!-- CAC -->
      <g transform="translate(133.795824 209.617751)rotate(-90)scale(0.1 -0.1)">
       <use transform="scale(0.996264)" xlink:href="#CMSS17-67"/>
       <use transform="translate(59.855772 0)scale(0.996264)" xlink:href="#CMSS17-65"/>
       <use transform="translate(119.471173 0)scale(0.996264)" xlink:href="#CMSS17-67"/>
      </g>
     </g>
    </g>
    <g id="xtick_11">
     <g id="line2d_11">
      <g>
       <use style="stroke:#000000;stroke-width:0.8;" x="141.767664" xlink:href="#m062725dbd2" y="183.522655"/>
      </g>
     </g>
     <g id="text_11">
      <!-- CAG -->
      <g transform="translate(144.258324 209.8945)rotate(-90)scale(0.1 -0.1)">
       <use transform="scale(0.996264)" xlink:href="#CMSS17-67"/>
       <use transform="translate(59.855772 0)scale(0.996264)" xlink:href="#CMSS17-65"/>
       <use transform="translate(119.471173 0)scale(0.996264)" xlink:href="#CMSS17-71"/>
      </g>
     </g>
    </g>
    <g id="xtick_12">
     <g id="line2d_12">
      <g>
       <use style="stroke:#000000;stroke-width:0.8;" x="152.230164" xlink:href="#m062725dbd2" y="183.522655"/>
      </g>
     </g>
     <g id="text_12">
      <!-- CAT -->
      <g transform="translate(154.720824 209.479384)rotate(-90)scale(0.1 -0.1)">
       <use transform="scale(0.996264)" xlink:href="#CMSS17-67"/>
       <use transform="translate(59.855772 0)scale(0.996264)" xlink:href="#CMSS17-65"/>
       <use transform="translate(114.266371 0)scale(0.996264)" xlink:href="#CMSS17-84"/>
      </g>
     </g>
    </g>
    <g id="xtick_13">
     <g id="line2d_13">
      <g>
       <use style="stroke:#000000;stroke-width:0.8;" x="162.692664" xlink:href="#m062725dbd2" y="183.522655"/>
      </g>
     </g>
     <g id="text_13">
      <!-- CCA -->
      <g transform="translate(165.183324 209.8945)rotate(-90)scale(0.1 -0.1)">
       <use transform="scale(0.996264)" xlink:href="#CMSS17-67"/>
       <use transform="translate(59.855772 0)scale(0.996264)" xlink:href="#CMSS17-67"/>
       <use transform="translate(119.711543 0)scale(0.996264)" xlink:href="#CMSS17-65"/>
      </g>
     </g>
    </g>
    <g id="xtick_14">
     <g id="line2d_14">
      <g>
       <use style="stroke:#000000;stroke-width:0.8;" x="173.155164" xlink:href="#m062725dbd2" y="183.522655"/>
      </g>
     </g>
     <g id="text_14">
      <!-- CCC -->
      <g transform="translate(175.645824 209.617751)rotate(-90)scale(0.1 -0.1)">
       <use transform="scale(0.996264)" xlink:href="#CMSS17-67"/>
       <use transform="translate(59.855772 0)scale(0.996264)" xlink:href="#CMSS17-67"/>
       <use transform="translate(119.711543 0)scale(0.996264)" xlink:href="#CMSS17-67"/>
      </g>
     </g>
    </g>
    <g id="xtick_15">
     <g id="line2d_15">
      <g>
       <use style="stroke:#000000;stroke-width:0.8;" x="183.617664" xlink:href="#m062725dbd2" y="183.522655"/>
      </g>
     </g>
     <g id="text_15">
      <!-- CCG -->
      <g transform="translate(186.108324 209.8945)rotate(-90)scale(0.1 -0.1)">
       <use transform="scale(0.996264)" xlink:href="#CMSS17-67"/>
       <use transform="translate(59.855772 0)scale(0.996264)" xlink:href="#CMSS17-67"/>
       <use transform="translate(119.711543 0)scale(0.996264)" xlink:href="#CMSS17-71"/>
      </g>
     </g>
    </g>
    <g id="xtick_16">
     <g id="line2d_16">
      <g>
       <use style="stroke:#000000;stroke-width:0.8;" x="194.080164" xlink:href="#m062725dbd2" y="183.522655"/>
      </g>
     </g>
     <g id="text_16">
      <!-- CCT -->
      <g transform="translate(196.570824 210.032866)rotate(-90)scale(0.1 -0.1)">
       <use transform="scale(0.996264)" xlink:href="#CMSS17-67"/>
       <use transform="translate(59.855772 0)scale(0.996264)" xlink:href="#CMSS17-67"/>
       <use transform="translate(119.711543 0)scale(0.996264)" xlink:href="#CMSS17-84"/>
      </g>
     </g>
    </g>
    <g id="xtick_17">
     <g id="line2d_17">
      <g>
       <use style="stroke:#000000;stroke-width:0.8;" x="204.542664" xlink:href="#m062725dbd2" y="183.522655"/>
      </g>
     </g>
     <g id="text_17">
      <!-- GAA -->
      <g transform="translate(207.033324 210.447996)rotate(-90)scale(0.1 -0.1)">
       <use transform="scale(0.996264)" xlink:href="#CMSS17-71"/>
       <use transform="translate(62.458226 0)scale(0.996264)" xlink:href="#CMSS17-65"/>
       <use transform="translate(124.67608 0)scale(0.996264)" xlink:href="#CMSS17-65"/>
      </g>
     </g>
    </g>
    <g id="xtick_18">
     <g id="line2d_18">
      <g>
       <use style="stroke:#000000;stroke-width:0.8;" x="215.005164" xlink:href="#m062725dbd2" y="183.522655"/>
      </g>
     </g>
     <g id="text_18">
      <!-- GAC -->
      <g transform="translate(217.495824 209.8945)rotate(-90)scale(0.1 -0.1)">
       <use transform="scale(0.996264)" xlink:href="#CMSS17-71"/>
       <use transform="translate(62.458226 0)scale(0.996264)" xlink:href="#CMSS17-65"/>
       <use transform="translate(122.073626 0)scale(0.996264)" xlink:href="#CMSS17-67"/>
      </g>
     </g>
    </g>
    <g id="xtick_19">
     <g id="line2d_19">
      <g>
       <use style="stroke:#000000;stroke-width:0.8;" x="225.467664" xlink:href="#m062725dbd2" y="183.522655"/>
      </g>
     </g>
     <g id="text_19">
      <!-- GAG -->
      <g transform="translate(227.958324 210.171248)rotate(-90)scale(0.1 -0.1)">
       <use transform="scale(0.996264)" xlink:href="#CMSS17-71"/>
       <use transform="translate(62.458226 0)scale(0.996264)" xlink:href="#CMSS17-65"/>
       <use transform="translate(122.073626 0)scale(0.996264)" xlink:href="#CMSS17-71"/>
      </g>
     </g>
    </g>
    <g id="xtick_20">
     <g id="line2d_20">
      <g>
       <use style="stroke:#000000;stroke-width:0.8;" x="235.930164" xlink:href="#m062725dbd2" y="183.522655"/>
      </g>
     </g>
     <g id="text_20">
      <!-- GAT -->
      <g transform="translate(238.420824 209.756133)rotate(-90)scale(0.1 -0.1)">
       <use transform="scale(0.996264)" xlink:href="#CMSS17-71"/>
       <use transform="translate(62.458226 0)scale(0.996264)" xlink:href="#CMSS17-65"/>
       <use transform="translate(116.868825 0)scale(0.996264)" xlink:href="#CMSS17-84"/>
      </g>
     </g>
    </g>
    <g id="xtick_21">
     <g id="line2d_21">
      <g>
       <use style="stroke:#000000;stroke-width:0.8;" x="246.392664" xlink:href="#m062725dbd2" y="183.522655"/>
      </g>
     </g>
     <g id="text_21">
      <!-- GCA -->
      <g transform="translate(248.883324 210.171248)rotate(-90)scale(0.1 -0.1)">
       <use transform="scale(0.996264)" xlink:href="#CMSS17-71"/>
       <use transform="translate(62.458226 0)scale(0.996264)" xlink:href="#CMSS17-67"/>
       <use transform="translate(122.313997 0)scale(0.996264)" xlink:href="#CMSS17-65"/>
      </g>
     </g>
    </g>
    <g id="xtick_22">
     <g id="line2d_22">
      <g>
       <use style="stroke:#000000;stroke-width:0.8;" x="256.855164" xlink:href="#m062725dbd2" y="183.522655"/>
      </g>
     </g>
     <g id="text_22">
      <!-- GCC -->
      <g transform="translate(259.345824 209.8945)rotate(-90)scale(0.1 -0.1)">
       <use transform="scale(0.996264)" xlink:href="#CMSS17-71"/>
       <use transform="translate(62.458226 0)scale(0.996264)" xlink:href="#CMSS17-67"/>
       <use transform="translate(122.313997 0)scale(0.996264)" xlink:href="#CMSS17-67"/>
      </g>
     </g>
    </g>
    <g id="xtick_23">
     <g id="line2d_23">
      <g>
       <use style="stroke:#000000;stroke-width:0.8;" x="267.317664" xlink:href="#m062725dbd2" y="183.522655"/>
      </g>
     </g>
     <g id="text_23">
      <!-- GCG -->
      <g transform="translate(269.808324 210.171248)rotate(-90)scale(0.1 -0.1)">
       <use transform="scale(0.996264)" xlink:href="#CMSS17-71"/>
       <use transform="translate(62.458226 0)scale(0.996264)" xlink:href="#CMSS17-67"/>
       <use transform="translate(122.313997 0)scale(0.996264)" xlink:href="#CMSS17-71"/>
      </g>
     </g>
    </g>
    <g id="xtick_24">
     <g id="line2d_24">
      <g>
       <use style="stroke:#000000;stroke-width:0.8;" x="277.780164" xlink:href="#m062725dbd2" y="183.522655"/>
      </g>
     </g>
     <g id="text_24">
      <!-- GCT -->
      <g transform="translate(280.270824 210.309615)rotate(-90)scale(0.1 -0.1)">
       <use transform="scale(0.996264)" xlink:href="#CMSS17-71"/>
       <use transform="translate(62.458226 0)scale(0.996264)" xlink:href="#CMSS17-67"/>
       <use transform="translate(122.313997 0)scale(0.996264)" xlink:href="#CMSS17-84"/>
      </g>
     </g>
    </g>
    <g id="xtick_25">
     <g id="line2d_25">
      <g>
       <use style="stroke:#000000;stroke-width:0.8;" x="288.242664" xlink:href="#m062725dbd2" y="183.522655"/>
      </g>
     </g>
     <g id="text_25">
      <!-- TAA -->
      <g transform="translate(290.733324 209.756133)rotate(-90)scale(0.1 -0.1)">
       <use transform="scale(0.996264)" xlink:href="#CMSS17-84"/>
       <use transform="translate(56.012199 0)scale(0.996264)" xlink:href="#CMSS17-65"/>
       <use transform="translate(118.230053 0)scale(0.996264)" xlink:href="#CMSS17-65"/>
      </g>
     </g>
    </g>
    <g id="xtick_26">
     <g id="line2d_26">
      <g>
       <use style="stroke:#000000;stroke-width:0.8;" x="298.705164" xlink:href="#m062725dbd2" y="183.522655"/>
      </g>
     </g>
     <g id="text_26">
      <!-- TAC -->
      <g transform="translate(301.195824 209.202636)rotate(-90)scale(0.1 -0.1)">
       <use transform="scale(0.996264)" xlink:href="#CMSS17-84"/>
       <use transform="translate(56.012199 0)scale(0.996264)" xlink:href="#CMSS17-65"/>
       <use transform="translate(115.6276 0)scale(0.996264)" xlink:href="#CMSS17-67"/>
      </g>
     </g>
    </g>
    <g id="xtick_27">
     <g id="line2d_27">
      <g>
       <use style="stroke:#000000;stroke-width:0.8;" x="309.167664" xlink:href="#m062725dbd2" y="183.522655"/>
      </g>
     </g>
     <g id="text_27">
      <!-- TAG -->
      <g transform="translate(311.658324 209.479384)rotate(-90)scale(0.1 -0.1)">
       <use transform="scale(0.996264)" xlink:href="#CMSS17-84"/>
       <use transform="translate(56.012199 0)scale(0.996264)" xlink:href="#CMSS17-65"/>
       <use transform="translate(115.6276 0)scale(0.996264)" xlink:href="#CMSS17-71"/>
      </g>
     </g>
    </g>
    <g id="xtick_28">
     <g id="line2d_28">
      <g>
       <use style="stroke:#000000;stroke-width:0.8;" x="319.630164" xlink:href="#m062725dbd2" y="183.522655"/>
      </g>
     </g>
     <g id="text_28">
      <!-- TAT -->
      <g transform="translate(322.120824 209.064269)rotate(-90)scale(0.1 -0.1)">
       <use transform="scale(0.996264)" xlink:href="#CMSS17-84"/>
       <use transform="translate(56.012199 0)scale(0.996264)" xlink:href="#CMSS17-65"/>
       <use transform="translate(110.422798 0)scale(0.996264)" xlink:href="#CMSS17-84"/>
      </g>
     </g>
    </g>
    <g id="xtick_29">
     <g id="line2d_29">
      <g>
       <use style="stroke:#000000;stroke-width:0.8;" x="330.092664" xlink:href="#m062725dbd2" y="183.522655"/>
      </g>
     </g>
     <g id="text_29">
      <!-- TCA -->
      <g transform="translate(332.583324 210.309615)rotate(-90)scale(0.1 -0.1)">
       <use transform="scale(0.996264)" xlink:href="#CMSS17-84"/>
       <use transform="translate(63.819454 0)scale(0.996264)" xlink:href="#CMSS17-67"/>
       <use transform="translate(123.675225 0)scale(0.996264)" xlink:href="#CMSS17-65"/>
      </g>
     </g>
    </g>
    <g id="xtick_30">
     <g id="line2d_30">
      <g>
       <use style="stroke:#000000;stroke-width:0.8;" x="340.555164" xlink:href="#m062725dbd2" y="183.522655"/>
      </g>
     </g>
     <g id="text_30">
      <!-- TCC -->
      <g transform="translate(343.045824 210.032866)rotate(-90)scale(0.1 -0.1)">
       <use transform="scale(0.996264)" xlink:href="#CMSS17-84"/>
       <use transform="translate(63.819454 0)scale(0.996264)" xlink:href="#CMSS17-67"/>
       <use transform="translate(123.675225 0)scale(0.996264)" xlink:href="#CMSS17-67"/>
      </g>
     </g>
    </g>
    <g id="xtick_31">
     <g id="line2d_31">
      <g>
       <use style="stroke:#000000;stroke-width:0.8;" x="351.017664" xlink:href="#m062725dbd2" y="183.522655"/>
      </g>
     </g>
     <g id="text_31">
      <!-- TCG -->
      <g transform="translate(353.508324 210.309615)rotate(-90)scale(0.1 -0.1)">
       <use transform="scale(0.996264)" xlink:href="#CMSS17-84"/>
       <use transform="translate(63.819454 0)scale(0.996264)" xlink:href="#CMSS17-67"/>
       <use transform="translate(123.675225 0)scale(0.996264)" xlink:href="#CMSS17-71"/>
      </g>
     </g>
    </g>
    <g id="xtick_32">
     <g id="line2d_32">
      <g>
       <use style="stroke:#000000;stroke-width:0.8;" x="361.480164" xlink:href="#m062725dbd2" y="183.522655"/>
      </g>
     </g>
     <g id="text_32">
      <!-- TCT -->
      <g transform="translate(363.970824 210.447981)rotate(-90)scale(0.1 -0.1)">
       <use transform="scale(0.996264)" xlink:href="#CMSS17-84"/>
       <use transform="translate(63.819454 0)scale(0.996264)" xlink:href="#CMSS17-67"/>
       <use transform="translate(123.675225 0)scale(0.996264)" xlink:href="#CMSS17-84"/>
      </g>
     </g>
    </g>
   </g>
   <g id="matplotlib.axis_2">
    <g id="ytick_1">
     <g id="line2d_33">
      <defs>
       <path d="M 0 0 
L -3.5 0 
" id="m9387430ba2" style="stroke:#000000;stroke-width:0.8;"/>
      </defs>
      <g>
       <use style="stroke:#000000;stroke-width:0.8;" x="31.911414" xlink:href="#m9387430ba2" y="183.522655"/>
      </g>
     </g>
     <g id="text_33">
      <!-- $0.00$ -->
      <defs>
       <path d="M 42 31.640625 
C 42 37.75 41.90625 48.125 37.703125 56.109375 
C 34 63.109375 28.09375 65.59375 22.90625 65.59375 
C 18.09375 65.59375 12 63.40625 8.203125 56.203125 
C 4.203125 48.71875 3.796875 39.4375 3.796875 31.640625 
C 3.796875 25.953125 3.90625 17.28125 7 9.671875 
C 11.296875 -0.609375 19 -2 22.90625 -2 
C 27.5 -2 34.5 -0.109375 38.59375 9.375 
C 41.59375 16.28125 42 24.359375 42 31.640625 
z
M 22.90625 -0.40625 
C 16.5 -0.40625 12.703125 5.078125 11.296875 12.6875 
C 10.203125 18.5625 10.203125 27.15625 10.203125 32.75 
C 10.203125 40.4375 10.203125 46.828125 11.5 52.921875 
C 13.40625 61.390625 19 64 22.90625 64 
C 27 64 32.296875 61.296875 34.203125 53.125 
C 35.5 47.4375 35.59375 40.734375 35.59375 32.75 
C 35.59375 26.25 35.59375 18.265625 34.40625 12.375 
C 32.296875 1.484375 26.40625 -0.40625 22.90625 -0.40625 
z
" id="CMR17-48"/>
       <path d="M 18.40625 4.796875 
C 18.40625 7.6875 16 9.671875 13.59375 9.671875 
C 10.703125 9.671875 8.703125 7.28125 8.703125 4.890625 
C 8.703125 2 11.09375 0 13.5 0 
C 16.40625 0 18.40625 2.390625 18.40625 4.796875 
z
" id="CMMI12-58"/>
      </defs>
      <g transform="translate(7.2 186.981905)scale(0.1 -0.1)">
       <use transform="scale(0.996264)" xlink:href="#CMR17-48"/>
       <use transform="translate(45.690477 0)scale(0.996264)" xlink:href="#CMMI12-58"/>
       <use transform="translate(72.787654 0)scale(0.996264)" xlink:href="#CMR17-48"/>
       <use transform="translate(118.478131 0)scale(0.996264)" xlink:href="#CMR17-48"/>
      </g>
     </g>
    </g>
    <g id="ytick_2">
     <g id="line2d_34">
      <g>
       <use style="stroke:#000000;stroke-width:0.8;" x="31.911414" xlink:href="#m9387430ba2" y="158.222577"/>
      </g>
     </g>
     <g id="text_34">
      <!-- $0.25$ -->
      <defs>
       <path d="M 41.703125 15.453125 
L 39.90625 15.453125 
C 38.90625 8.375 38.09375 7.171875 37.703125 6.5625 
C 37.203125 5.765625 30 5.765625 28.59375 5.765625 
L 9.40625 5.765625 
C 13 9.671875 20 16.75 28.5 24.953125 
C 34.59375 30.734375 41.703125 37.53125 41.703125 47.421875 
C 41.703125 59.21875 32.296875 66 21.796875 66 
C 10.796875 66 4.09375 56.3125 4.09375 47.34375 
C 4.09375 43.4375 7 42.9375 8.203125 42.9375 
C 9.203125 42.9375 12.203125 43.546875 12.203125 47.03125 
C 12.203125 50.109375 9.59375 51 8.203125 51 
C 7.59375 51 7 50.90625 6.59375 50.703125 
C 8.5 59.21875 14.296875 63.40625 20.40625 63.40625 
C 29.09375 63.40625 34.796875 56.515625 34.796875 47.421875 
C 34.796875 38.734375 29.703125 31.25 24 24.75 
L 4.09375 2.28125 
L 4.09375 0 
L 39.296875 0 
z
" id="CMR17-50"/>
       <path d="M 11.40625 57.6875 
C 12.40625 57.28125 16.5 56 20.703125 56 
C 30 56 35.09375 61.109375 38 64.0625 
C 38 64.953125 38 65.5 37.40625 65.5 
C 37.296875 65.5 37.09375 65.5 36.296875 65.046875 
C 32.796875 63.40625 28.703125 62.078125 23.703125 62.078125 
C 20.703125 62.078125 16.203125 62.484375 11.296875 64.671875 
C 10.203125 65.171875 10 65.171875 9.90625 65.171875 
C 9.40625 65.171875 9.296875 65.0625 9.296875 63.078125 
L 9.296875 34.421875 
C 9.296875 32.640625 9.296875 32.140625 10.296875 32.140625 
C 10.796875 32.140625 11 32.34375 11.5 33.03125 
C 14.703125 37.515625 19.09375 39.40625 24.09375 39.40625 
C 27.59375 39.40625 35.09375 37.21875 35.09375 20.140625 
C 35.09375 16.953125 35.09375 11.171875 32.09375 6.578125 
C 29.59375 2.484375 25.703125 0.390625 21.40625 0.390625 
C 14.796875 0.390625 8.09375 5 6.296875 12.71875 
C 6.703125 12.609375 7.5 12.421875 7.90625 12.421875 
C 9.203125 12.421875 11.703125 13.125 11.703125 16.21875 
C 11.703125 18.90625 9.796875 20 7.90625 20 
C 5.59375 20 4.09375 18.59375 4.09375 15.796875 
C 4.09375 7.09375 11 -2 21.59375 -2 
C 31.90625 -2 41.703125 6.875 41.703125 19.75 
C 41.703125 31.71875 33.90625 41 24.203125 41 
C 19.09375 41 14.796875 39.109375 11.40625 35.53125 
z
" id="CMR17-53"/>
      </defs>
      <g transform="translate(7.2 161.681826)scale(0.1 -0.1)">
       <use transform="scale(0.996264)" xlink:href="#CMR17-48"/>
       <use transform="translate(45.690477 0)scale(0.996264)" xlink:href="#CMMI12-58"/>
       <use transform="translate(72.787654 0)scale(0.996264)" xlink:href="#CMR17-50"/>
       <use transform="translate(118.478131 0)scale(0.996264)" xlink:href="#CMR17-53"/>
      </g>
     </g>
    </g>
    <g id="ytick_3">
     <g id="line2d_35">
      <g>
       <use style="stroke:#000000;stroke-width:0.8;" x="31.911414" xlink:href="#m9387430ba2" y="132.922499"/>
      </g>
     </g>
     <g id="text_35">
      <!-- $0.50$ -->
      <g transform="translate(7.2 136.381748)scale(0.1 -0.1)">
       <use transform="scale(0.996264)" xlink:href="#CMR17-48"/>
       <use transform="translate(45.690477 0)scale(0.996264)" xlink:href="#CMMI12-58"/>
       <use transform="translate(72.787654 0)scale(0.996264)" xlink:href="#CMR17-53"/>
       <use transform="translate(118.478131 0)scale(0.996264)" xlink:href="#CMR17-48"/>
      </g>
     </g>
    </g>
    <g id="ytick_4">
     <g id="line2d_36">
      <g>
       <use style="stroke:#000000;stroke-width:0.8;" x="31.911414" xlink:href="#m9387430ba2" y="107.62242"/>
      </g>
     </g>
     <g id="text_36">
      <!-- $0.75$ -->
      <defs>
       <path d="M 45.09375 61.578125 
L 45.09375 63.765625 
L 21.59375 63.765625 
C 9.90625 63.765625 9.703125 65.078125 9.296875 67 
L 7.5 67 
L 4.59375 48.34375 
L 6.40625 48.34375 
C 6.703125 50.234375 7.40625 55.3125 8.59375 57.203125 
C 9.203125 58 16.59375 58 18.296875 58 
L 40.296875 58 
L 29.203125 41.578125 
C 21.796875 30.53125 16.703125 15.609375 16.703125 2.578125 
C 16.703125 1.390625 16.703125 -2 20.296875 -2 
C 23.90625 -2 23.90625 1.390625 23.90625 2.671875 
L 23.90625 7.265625 
C 23.90625 23.5625 26.703125 34.3125 31.296875 41.1875 
z
" id="CMR17-55"/>
      </defs>
      <g transform="translate(7.2 111.081669)scale(0.1 -0.1)">
       <use transform="scale(0.996264)" xlink:href="#CMR17-48"/>
       <use transform="translate(45.690477 0)scale(0.996264)" xlink:href="#CMMI12-58"/>
       <use transform="translate(72.787654 0)scale(0.996264)" xlink:href="#CMR17-55"/>
       <use transform="translate(118.478131 0)scale(0.996264)" xlink:href="#CMR17-53"/>
      </g>
     </g>
    </g>
    <g id="ytick_5">
     <g id="line2d_37">
      <g>
       <use style="stroke:#000000;stroke-width:0.8;" x="31.911414" xlink:href="#m9387430ba2" y="82.322342"/>
      </g>
     </g>
     <g id="text_37">
      <!-- $1.00$ -->
      <defs>
       <path d="M 26.59375 63.40625 
C 26.59375 65.5 26.5 65.5 25.09375 65.5 
C 21.203125 61.1875 15.296875 59.796875 9.703125 59.796875 
C 9.40625 59.796875 8.90625 59.796875 8.796875 59.5 
C 8.703125 59.296875 8.703125 59.09375 8.703125 57 
C 11.796875 57 17 57.59375 21 59.984375 
L 21 7.203125 
C 21 3.6875 20.796875 2.5 12.203125 2.5 
L 9.203125 2.5 
L 9.203125 0 
C 14 0 19 0 23.796875 0 
C 28.59375 0 33.59375 0 38.40625 0 
L 38.40625 2.5 
L 35.40625 2.5 
C 26.796875 2.5 26.59375 3.59375 26.59375 7.15625 
z
" id="CMR17-49"/>
      </defs>
      <g transform="translate(7.2 85.781591)scale(0.1 -0.1)">
       <use transform="scale(0.996264)" xlink:href="#CMR17-49"/>
       <use transform="translate(45.690477 0)scale(0.996264)" xlink:href="#CMMI12-58"/>
       <use transform="translate(72.787654 0)scale(0.996264)" xlink:href="#CMR17-48"/>
       <use transform="translate(118.478131 0)scale(0.996264)" xlink:href="#CMR17-48"/>
      </g>
     </g>
    </g>
    <g id="ytick_6">
     <g id="line2d_38">
      <g>
       <use style="stroke:#000000;stroke-width:0.8;" x="31.911414" xlink:href="#m9387430ba2" y="57.022263"/>
      </g>
     </g>
     <g id="text_38">
      <!-- $1.25$ -->
      <g transform="translate(7.2 60.481513)scale(0.1 -0.1)">
       <use transform="scale(0.996264)" xlink:href="#CMR17-49"/>
       <use transform="translate(45.690477 0)scale(0.996264)" xlink:href="#CMMI12-58"/>
       <use transform="translate(72.787654 0)scale(0.996264)" xlink:href="#CMR17-50"/>
       <use transform="translate(118.478131 0)scale(0.996264)" xlink:href="#CMR17-53"/>
      </g>
     </g>
    </g>
    <g id="ytick_7">
     <g id="line2d_39">
      <g>
       <use style="stroke:#000000;stroke-width:0.8;" x="31.911414" xlink:href="#m9387430ba2" y="31.722185"/>
      </g>
     </g>
     <g id="text_39">
      <!-- $1.50$ -->
      <g transform="translate(7.2 35.181434)scale(0.1 -0.1)">
       <use transform="scale(0.996264)" xlink:href="#CMR17-49"/>
       <use transform="translate(45.690477 0)scale(0.996264)" xlink:href="#CMMI12-58"/>
       <use transform="translate(72.787654 0)scale(0.996264)" xlink:href="#CMR17-53"/>
       <use transform="translate(118.478131 0)scale(0.996264)" xlink:href="#CMR17-48"/>
      </g>
     </g>
    </g>
    <g id="text_40">
     <!-- $\times10^{8}$ -->
     <defs>
      <path d="M 38.90625 27.890625 
L 18.90625 47.796875 
C 17.703125 49 17.5 49.1875 16.703125 49.1875 
C 15.703125 49.1875 14.703125 48.296875 14.703125 47.1875 
C 14.703125 46.5 14.90625 46.296875 16 45.1875 
L 36 25.09375 
L 16 5 
C 14.90625 3.890625 14.703125 3.6875 14.703125 3 
C 14.703125 1.890625 15.703125 1 16.703125 1 
C 17.5 1 17.703125 1.1875 18.90625 2.390625 
L 38.796875 22.296875 
L 59.5 1.59375 
C 59.703125 1.5 60.40625 1 61 1 
C 62.203125 1 63 1.890625 63 3 
C 63 3.1875 63 3.59375 62.703125 4.09375 
C 62.59375 4.296875 46.703125 20 41.703125 25.09375 
L 60 43.390625 
C 60.5 44 62 45.296875 62.5 45.890625 
C 62.59375 46.09375 63 46.5 63 47.1875 
C 63 48.296875 62.203125 49.1875 61 49.1875 
C 60.203125 49.1875 59.796875 48.796875 58.703125 47.6875 
z
" id="CMSY10-2"/>
      <path d="M 27.203125 35.375 
C 33.5 38.546875 39.90625 43.328125 39.90625 50.984375 
C 39.90625 60.015625 31.09375 65.296875 23 65.296875 
C 13.90625 65.296875 5.90625 58.734375 5.90625 49.6875 
C 5.90625 47.203125 6.5 42.921875 10.40625 39.140625 
C 11.40625 38.15625 15.59375 35.171875 18.296875 33.28125 
C 13.796875 30.984375 3.296875 25.53125 3.296875 14.59375 
C 3.296875 4.359375 13.09375 -2 22.796875 -2 
C 33.5 -2 42.5 5.65625 42.5 15.78125 
C 42.5 24.84375 36.40625 29.015625 32.40625 31.703125 
z
M 14.09375 44.09375 
C 13.296875 44.59375 9.296875 47.671875 9.296875 52.359375 
C 9.296875 58.421875 15.59375 63 22.796875 63 
C 30.703125 63 36.5 57.4375 36.5 50.96875 
C 36.5 41.703125 26.09375 36.421875 25.59375 36.421875 
C 25.5 36.421875 25.40625 36.421875 24.59375 37.03125 
z
M 32.5 23.734375 
C 34 22.640625 38.796875 19.375 38.796875 13.296875 
C 38.796875 5.953125 31.40625 0.390625 23 0.390625 
C 13.90625 0.390625 7 6.84375 7 14.6875 
C 7 22.546875 13.09375 29.09375 20 32.1875 
z
" id="CMR17-56"/>
     </defs>
     <g transform="translate(31.911414 14.202655)scale(0.1 -0.1)">
      <use transform="scale(0.996264)" xlink:href="#CMSY10-2"/>
      <use transform="translate(77.487468 0)scale(0.996264)" xlink:href="#CMR17-49"/>
      <use transform="translate(123.177945 0)scale(0.996264)" xlink:href="#CMR17-48"/>
      <use transform="translate(168.868422 36.153639)scale(0.697382)" xlink:href="#CMR17-56"/>
     </g>
    </g>
   </g>
   <g id="line2d_40">
    <path clip-path="url(#p3dcba95d5a)" d="M 0 0 
" style="fill:none;stroke:#424242;stroke-linecap:square;stroke-width:2.7;"/>
   </g>
   <g id="line2d_41">
    <path clip-path="url(#p3dcba95d5a)" d="M 0 0 
" style="fill:none;stroke:#424242;stroke-linecap:square;stroke-width:2.7;"/>
   </g>
   <g id="line2d_42">
    <path clip-path="url(#p3dcba95d5a)" d="M 0 0 
" style="fill:none;stroke:#424242;stroke-linecap:square;stroke-width:2.7;"/>
   </g>
   <g id="line2d_43">
    <path clip-path="url(#p3dcba95d5a)" d="M 0 0 
" style="fill:none;stroke:#424242;stroke-linecap:square;stroke-width:2.7;"/>
   </g>
   <g id="line2d_44">
    <path clip-path="url(#p3dcba95d5a)" d="M 0 0 
" style="fill:none;stroke:#424242;stroke-linecap:square;stroke-width:2.7;"/>
   </g>
   <g id="line2d_45">
    <path clip-path="url(#p3dcba95d5a)" d="M 0 0 
" style="fill:none;stroke:#424242;stroke-linecap:square;stroke-width:2.7;"/>
   </g>
   <g id="line2d_46">
    <path clip-path="url(#p3dcba95d5a)" d="M 0 0 
" style="fill:none;stroke:#424242;stroke-linecap:square;stroke-width:2.7;"/>
   </g>
   <g id="line2d_47">
    <path clip-path="url(#p3dcba95d5a)" d="M 0 0 
" style="fill:none;stroke:#424242;stroke-linecap:square;stroke-width:2.7;"/>
   </g>
   <g id="line2d_48">
    <path clip-path="url(#p3dcba95d5a)" d="M 0 0 
" style="fill:none;stroke:#424242;stroke-linecap:square;stroke-width:2.7;"/>
   </g>
   <g id="line2d_49">
    <path clip-path="url(#p3dcba95d5a)" d="M 0 0 
" style="fill:none;stroke:#424242;stroke-linecap:square;stroke-width:2.7;"/>
   </g>
   <g id="line2d_50">
    <path clip-path="url(#p3dcba95d5a)" d="M 0 0 
" style="fill:none;stroke:#424242;stroke-linecap:square;stroke-width:2.7;"/>
   </g>
   <g id="line2d_51">
    <path clip-path="url(#p3dcba95d5a)" d="M 0 0 
" style="fill:none;stroke:#424242;stroke-linecap:square;stroke-width:2.7;"/>
   </g>
   <g id="line2d_52">
    <path clip-path="url(#p3dcba95d5a)" d="M 0 0 
" style="fill:none;stroke:#424242;stroke-linecap:square;stroke-width:2.7;"/>
   </g>
   <g id="line2d_53">
    <path clip-path="url(#p3dcba95d5a)" d="M 0 0 
" style="fill:none;stroke:#424242;stroke-linecap:square;stroke-width:2.7;"/>
   </g>
   <g id="line2d_54">
    <path clip-path="url(#p3dcba95d5a)" d="M 0 0 
" style="fill:none;stroke:#424242;stroke-linecap:square;stroke-width:2.7;"/>
   </g>
   <g id="line2d_55">
    <path clip-path="url(#p3dcba95d5a)" d="M 0 0 
" style="fill:none;stroke:#424242;stroke-linecap:square;stroke-width:2.7;"/>
   </g>
   <g id="line2d_56">
    <path clip-path="url(#p3dcba95d5a)" d="M 0 0 
" style="fill:none;stroke:#424242;stroke-linecap:square;stroke-width:2.7;"/>
   </g>
   <g id="line2d_57">
    <path clip-path="url(#p3dcba95d5a)" d="M 0 0 
" style="fill:none;stroke:#424242;stroke-linecap:square;stroke-width:2.7;"/>
   </g>
   <g id="line2d_58">
    <path clip-path="url(#p3dcba95d5a)" d="M 0 0 
" style="fill:none;stroke:#424242;stroke-linecap:square;stroke-width:2.7;"/>
   </g>
   <g id="line2d_59">
    <path clip-path="url(#p3dcba95d5a)" d="M 0 0 
" style="fill:none;stroke:#424242;stroke-linecap:square;stroke-width:2.7;"/>
   </g>
   <g id="line2d_60">
    <path clip-path="url(#p3dcba95d5a)" d="M 0 0 
" style="fill:none;stroke:#424242;stroke-linecap:square;stroke-width:2.7;"/>
   </g>
   <g id="line2d_61">
    <path clip-path="url(#p3dcba95d5a)" d="M 0 0 
" style="fill:none;stroke:#424242;stroke-linecap:square;stroke-width:2.7;"/>
   </g>
   <g id="line2d_62">
    <path clip-path="url(#p3dcba95d5a)" d="M 0 0 
" style="fill:none;stroke:#424242;stroke-linecap:square;stroke-width:2.7;"/>
   </g>
   <g id="line2d_63">
    <path clip-path="url(#p3dcba95d5a)" d="M 0 0 
" style="fill:none;stroke:#424242;stroke-linecap:square;stroke-width:2.7;"/>
   </g>
   <g id="line2d_64">
    <path clip-path="url(#p3dcba95d5a)" d="M 0 0 
" style="fill:none;stroke:#424242;stroke-linecap:square;stroke-width:2.7;"/>
   </g>
   <g id="line2d_65">
    <path clip-path="url(#p3dcba95d5a)" d="M 0 0 
" style="fill:none;stroke:#424242;stroke-linecap:square;stroke-width:2.7;"/>
   </g>
   <g id="line2d_66">
    <path clip-path="url(#p3dcba95d5a)" d="M 0 0 
" style="fill:none;stroke:#424242;stroke-linecap:square;stroke-width:2.7;"/>
   </g>
   <g id="line2d_67">
    <path clip-path="url(#p3dcba95d5a)" d="M 0 0 
" style="fill:none;stroke:#424242;stroke-linecap:square;stroke-width:2.7;"/>
   </g>
   <g id="line2d_68">
    <path clip-path="url(#p3dcba95d5a)" d="M 0 0 
" style="fill:none;stroke:#424242;stroke-linecap:square;stroke-width:2.7;"/>
   </g>
   <g id="line2d_69">
    <path clip-path="url(#p3dcba95d5a)" d="M 0 0 
" style="fill:none;stroke:#424242;stroke-linecap:square;stroke-width:2.7;"/>
   </g>
   <g id="line2d_70">
    <path clip-path="url(#p3dcba95d5a)" d="M 0 0 
" style="fill:none;stroke:#424242;stroke-linecap:square;stroke-width:2.7;"/>
   </g>
   <g id="line2d_71">
    <path clip-path="url(#p3dcba95d5a)" d="M 0 0 
" style="fill:none;stroke:#424242;stroke-linecap:square;stroke-width:2.7;"/>
   </g>
   <g id="patch_35">
    <path d="M 31.911414 183.522655 
L 31.911414 17.202655 
" style="fill:none;stroke:#000000;stroke-linecap:square;stroke-linejoin:miter;stroke-width:0.8;"/>
   </g>
   <g id="patch_36">
    <path d="M 366.711414 183.522655 
L 366.711414 17.202655 
" style="fill:none;stroke:#000000;stroke-linecap:square;stroke-linejoin:miter;stroke-width:0.8;"/>
   </g>
   <g id="patch_37">
    <path d="M 31.911414 183.522655 
L 366.711414 183.522655 
" style="fill:none;stroke:#000000;stroke-linecap:square;stroke-linejoin:miter;stroke-width:0.8;"/>
   </g>
   <g id="patch_38">
    <path d="M 31.911414 17.202655 
L 366.711414 17.202655 
" style="fill:none;stroke:#000000;stroke-linecap:square;stroke-linejoin:miter;stroke-width:0.8;"/>
   </g>
  </g>
 </g>
 <defs>
  <clipPath id="p3dcba95d5a">
   <rect height="166.32" width="334.8" x="31.911414" y="17.202655"/>
  </clipPath>
 </defs>
</svg>
