<?xml version="1.0" encoding="utf-8" standalone="no"?>
<!DOCTYPE svg PUBLIC "-//W3C//DTD SVG 1.1//EN"
  "http://www.w3.org/Graphics/SVG/1.1/DTD/svg11.dtd">
<!-- Created with matplotlib (https://matplotlib.org/) -->
<svg height="346.978125pt" version="1.1" viewBox="0 0 713.095333 346.978125" width="713.095333pt" xmlns="http://www.w3.org/2000/svg" xmlns:xlink="http://www.w3.org/1999/xlink">
 <defs>
  <style type="text/css">
*{stroke-linecap:butt;stroke-linejoin:round;}
  </style>
 </defs>
 <g id="figure_1">
  <g id="patch_1">
   <path d="M 0 346.978125 
L 713.095333 346.978125 
L 713.095333 0 
L 0 0 
z
" style="fill:#ffffff;"/>
  </g>
  <g id="axes_1">
   <g id="patch_2">
    <path d="M 45.478125 309.4 
L 336.27587 309.4 
L 336.27587 7.2 
L 45.478125 7.2 
z
" style="fill:#ffffff;"/>
   </g>
   <g id="PolyCollection_1">
    <path clip-path="url(#p35c24e98d2)" d="M 58.696204 20.936364 
L 58.696204 21.109378 
L 93.379987 70.162033 
L 113.668699 92.466122 
L 128.063769 107.38796 
L 139.229453 118.925936 
L 148.352481 128.40398 
L 156.065891 136.437439 
L 162.747551 143.377413 
L 168.641193 149.451779 
L 173.913235 154.822407 
L 178.682378 159.608807 
L 183.036263 163.904756 
L 187.04145 167.784293 
L 190.749674 171.309217 
L 194.201947 174.52816 
L 197.431334 177.48317 
L 200.464876 180.208769 
L 203.324976 182.73436 
L 206.030398 185.085175 
L 208.597018 187.281292 
L 211.038386 189.34102 
L 213.36616 191.281052 
L 215.590443 193.113116 
L 217.720046 194.849411 
L 219.762702 196.500008 
L 221.725233 198.07312 
L 223.613688 199.577797 
L 225.433456 201.018055 
L 227.18936 202.402512 
L 228.88573 203.734012 
L 230.526471 205.01736 
L 232.115116 206.258212 
L 233.654872 207.459199 
L 235.148658 208.623451 
L 236.59914 209.753258 
L 238.008758 210.851301 
L 239.379751 211.920664 
L 240.71418 212.963392 
L 242.013945 213.978891 
L 243.2808 214.972608 
L 244.516372 215.942902 
L 245.722168 216.892745 
L 246.89959 217.823827 
L 248.049942 218.736428 
L 249.174442 219.630905 
L 250.274225 220.50936 
L 251.350355 221.370716 
L 252.403828 222.219013 
L 253.435579 223.053377 
L 254.446484 223.872912 
L 255.43737 224.680292 
L 256.409015 225.476574 
L 257.362151 226.261052 
L 258.29747 227.033008 
L 259.215626 227.795515 
L 260.117239 228.547991 
L 261.002892 229.289835 
L 261.873142 230.022425 
L 262.728516 230.747236 
L 263.569512 231.461753 
L 264.396607 232.169555 
L 265.210253 232.868135 
L 266.01088 233.559118 
L 266.798898 234.242076 
L 267.574699 234.918754 
L 268.338654 235.586579 
L 269.091122 236.249574 
L 269.832441 236.902912 
L 270.562937 237.553006 
L 271.282923 238.194985 
L 271.992695 238.833152 
L 272.69254 239.462509 
L 273.382732 240.087458 
L 274.063533 240.70531 
L 274.735196 241.320657 
L 275.397962 241.928332 
L 276.052065 242.530505 
L 276.697727 243.129456 
L 277.335164 243.72241 
L 277.964582 244.311695 
L 278.586182 244.89447 
L 279.200154 245.473111 
L 279.806684 246.047407 
L 280.405951 246.617143 
L 280.998125 247.1821 
L 281.583372 247.742054 
L 282.161854 248.299596 
L 282.733725 248.851736 
L 283.299133 249.401115 
L 283.858224 249.947585 
L 284.411137 250.488056 
L 284.958007 251.025248 
L 285.498965 251.559003 
L 286.034138 252.089157 
L 286.563646 252.612487 
L 287.087611 253.13491 
L 287.606145 253.656346 
L 288.119361 254.170412 
L 288.627367 254.6832 
L 289.130266 255.19141 
L 289.628162 255.698102 
L 290.121153 256.199909 
L 290.609333 256.696643 
L 291.092797 257.194786 
L 291.571635 257.687595 
L 292.045933 258.174875 
L 292.515778 258.663289 
L 292.981252 259.145899 
L 293.442436 259.625998 
L 293.899409 260.103473 
L 294.352245 260.578213 
L 294.801021 261.050104 
L 295.245807 261.519027 
L 295.686674 261.988522 
L 296.123691 262.451188 
L 296.556925 262.910526 
L 296.986439 263.370165 
L 297.412298 263.826292 
L 297.834563 264.278779 
L 298.253295 264.727497 
L 298.668551 265.176198 
L 299.08039 265.620932 
L 299.488866 266.065514 
L 299.894036 266.505925 
L 300.29595 266.942026 
L 300.694663 267.377729 
L 301.090223 267.812994 
L 301.482681 268.243661 
L 301.872085 268.669585 
L 302.258481 269.094808 
L 302.641917 269.519283 
L 303.022437 269.942965 
L 303.400085 270.361517 
L 303.774904 270.779111 
L 304.146936 271.19134 
L 304.516223 271.602441 
L 304.882804 272.012362 
L 305.246719 272.42105 
L 305.608007 272.828449 
L 305.966705 273.229977 
L 306.32285 273.6346 
L 306.676477 274.033168 
L 307.027623 274.430151 
L 307.376323 274.82549 
L 307.722609 275.219126 
L 308.066515 275.610996 
L 308.408073 276.00104 
L 308.747316 276.389193 
L 309.084274 276.770547 
L 309.418979 277.154691 
L 309.751459 277.536751 
L 310.081745 277.916661 
L 310.409865 278.294352 
L 310.735847 278.669757 
L 311.05972 279.042806 
L 311.381509 279.41343 
L 311.701243 279.786689 
L 312.018946 280.152286 
L 312.334645 280.520448 
L 312.648365 280.885969 
L 312.96013 281.248777 
L 313.269964 281.608796 
L 313.577892 281.965953 
L 313.883937 282.325557 
L 314.188121 282.682218 
L 314.490467 283.03586 
L 314.790997 283.386405 
L 315.089733 283.733774 
L 315.386696 284.083457 
L 315.681907 284.429878 
L 315.975387 284.778601 
L 316.267155 285.118295 
L 316.557232 285.460202 
L 316.845637 285.80435 
L 317.132389 286.139185 
L 317.417507 286.481998 
L 317.70101 286.815331 
L 317.982916 287.150794 
L 318.263242 287.482472 
L 318.542007 287.81028 
L 318.819227 288.140149 
L 319.09492 288.466049 
L 319.369102 288.793985 
L 319.64179 289.117852 
L 319.913 289.44373 
L 320.182748 289.765438 
L 320.451049 290.082885 
L 320.71792 290.402265 
L 320.983375 290.717279 
L 321.247429 291.034195 
L 321.510097 291.346641 
L 321.771393 291.660957 
L 322.031332 291.970694 
L 322.289927 292.28227 
L 322.547193 292.589157 
L 322.803143 292.897849 
L 323.057791 293.201741 
L 323.057791 290.913542 
L 323.057791 290.913542 
L 322.803143 290.616269 
L 322.547193 290.314398 
L 322.289927 290.014254 
L 322.031332 289.709616 
L 321.771393 289.406737 
L 321.510097 289.099466 
L 321.247429 288.793985 
L 320.983375 288.484214 
L 320.71792 288.17626 
L 320.451049 287.864117 
L 320.182748 287.54787 
L 319.913 287.233517 
L 319.64179 286.921035 
L 319.369102 286.598716 
L 319.09492 286.284171 
L 318.819227 285.959956 
L 318.542007 285.63773 
L 318.263242 285.311769 
L 317.982916 284.987819 
L 317.70101 284.660226 
L 317.417507 284.334664 
L 317.132389 283.999987 
L 316.845637 283.672956 
L 316.557232 283.336968 
L 316.267155 283.003116 
L 315.975387 282.665954 
L 315.681907 282.325557 
L 315.386696 281.987353 
L 315.089733 281.645998 
L 314.790997 281.301566 
L 314.490467 280.954133 
L 314.188121 280.608983 
L 313.883937 280.260911 
L 313.577892 279.909987 
L 313.269964 279.556284 
L 312.96013 279.204949 
L 312.648365 278.845868 
L 312.334645 278.489227 
L 312.018946 278.13002 
L 311.701243 277.768317 
L 311.381509 277.409089 
L 311.05972 277.042561 
L 310.735847 276.673739 
L 310.409865 276.30749 
L 310.081745 275.934241 
L 309.751459 275.563628 
L 309.418979 275.190911 
L 309.084274 274.811487 
L 308.747316 274.434785 
L 308.408073 274.056166 
L 308.066515 273.671124 
L 307.722609 273.288885 
L 307.376323 272.904909 
L 307.027623 272.514785 
L 306.676477 272.123104 
L 306.32285 271.729923 
L 305.966705 271.339665 
L 305.608007 270.939279 
L 305.246719 270.541923 
L 304.882804 270.143282 
L 304.516223 269.739171 
L 304.146936 269.333941 
L 303.774904 268.927643 
L 303.400085 268.516185 
L 303.022437 268.103819 
L 302.641917 267.690593 
L 302.258481 267.27655 
L 301.872085 266.857724 
L 301.482681 266.434255 
L 301.090223 266.010228 
L 300.694663 265.585684 
L 300.29595 265.156778 
L 299.894036 264.727497 
L 299.488866 264.294057 
L 299.08039 263.860378 
L 298.668551 263.422738 
L 298.253295 262.981265 
L 297.834563 262.536084 
L 297.412298 262.090985 
L 296.986439 261.642363 
L 296.556925 261.193942 
L 296.123691 260.738609 
L 295.686674 260.283652 
L 295.245807 259.825588 
L 294.801021 259.36453 
L 294.352245 258.897145 
L 293.899409 258.430469 
L 293.442436 257.961133 
L 292.981252 257.489245 
L 292.515778 257.011584 
L 292.045933 256.531641 
L 291.571635 256.049516 
L 291.092797 255.565309 
L 290.609333 255.079117 
L 290.121153 254.58786 
L 289.628162 254.091722 
L 289.130266 253.593998 
L 288.627367 253.09169 
L 288.119361 252.58803 
L 287.606145 252.080075 
L 287.087611 251.570992 
L 286.563646 251.054924 
L 286.034138 250.538001 
L 285.498965 250.014476 
L 284.958007 249.490359 
L 284.411137 248.960012 
L 283.858224 248.426498 
L 283.299133 247.889968 
L 282.733725 247.3478 
L 282.161854 246.802962 
L 281.583372 246.255593 
L 280.998125 245.700468 
L 280.405951 245.143194 
L 279.806684 244.581278 
L 279.200154 244.014928 
L 278.586182 243.444351 
L 277.964582 242.869748 
L 277.335164 242.288807 
L 276.697727 241.704286 
L 276.052065 241.11392 
L 275.397962 240.520404 
L 274.735196 239.919115 
L 274.063533 239.312768 
L 273.382732 238.701612 
L 272.69254 238.085896 
L 271.992695 237.463569 
L 271.282923 236.834947 
L 270.562937 236.200341 
L 269.832441 235.560055 
L 269.091122 234.914388 
L 268.338654 234.259318 
L 267.574699 233.599548 
L 266.798898 232.93115 
L 266.01088 232.25663 
L 265.210253 231.57428 
L 264.396607 230.884512 
L 263.569512 230.185734 
L 262.728516 229.48039 
L 261.873142 228.76498 
L 261.002892 228.040038 
L 260.117239 227.306085 
L 259.215626 226.563633 
L 258.29747 225.809509 
L 257.362151 225.046167 
L 256.409015 224.270594 
L 255.43737 223.483485 
L 254.446484 222.685522 
L 253.435579 221.873961 
L 252.403828 221.04961 
L 251.350355 220.211606 
L 250.274225 219.35755 
L 249.174442 218.490022 
L 248.049942 217.605198 
L 246.89959 216.702631 
L 245.722168 215.781957 
L 244.516372 214.841403 
L 243.2808 213.880839 
L 242.013945 212.897342 
L 240.71418 211.891094 
L 239.379751 210.859583 
L 238.008758 209.801936 
L 236.59914 208.714801 
L 235.148658 207.595218 
L 233.654872 206.443153 
L 232.115116 205.253766 
L 230.526471 204.024041 
L 228.88573 202.752634 
L 227.18936 201.432801 
L 225.433456 200.06212 
L 223.613688 198.634382 
L 221.725233 197.143374 
L 219.762702 195.584062 
L 217.720046 193.947575 
L 215.590443 192.225858 
L 213.36616 190.409017 
L 211.038386 188.485049 
L 208.597018 186.441526 
L 206.030398 184.262918 
L 203.324976 181.930341 
L 200.464876 179.424038 
L 197.431334 176.718411 
L 194.201947 173.784537 
L 190.749674 170.587734 
L 187.04145 167.086577 
L 183.036263 163.231921 
L 178.682378 158.962845 
L 173.913235 154.205208 
L 168.641193 148.865464 
L 162.747551 142.82387 
L 156.065891 135.91934 
L 148.352481 127.924103 
L 139.229453 118.487245 
L 128.063769 106.994874 
L 113.668699 92.125148 
L 93.379987 69.886107 
L 58.696204 20.936364 
z
" style="fill:#1f77b4;"/>
   </g>
   <g id="matplotlib.axis_1">
    <g id="xtick_1">
     <g id="line2d_1">
      <defs>
       <path d="M 0 0 
L 0 3.5 
" id="md01cd9a430" style="stroke:#000000;stroke-width:0.8;"/>
      </defs>
      <g>
       <use style="stroke:#000000;stroke-width:0.8;" x="58.696204" xlink:href="#md01cd9a430" y="309.4"/>
      </g>
     </g>
     <g id="text_1">
      <!-- $\mathdefault{10^{0}}$ -->
      <defs>
       <path d="M 12.40625 8.296875 
L 28.515625 8.296875 
L 28.515625 63.921875 
L 10.984375 60.40625 
L 10.984375 69.390625 
L 28.421875 72.90625 
L 38.28125 72.90625 
L 38.28125 8.296875 
L 54.390625 8.296875 
L 54.390625 0 
L 12.40625 0 
z
" id="DejaVuSans-49"/>
       <path d="M 31.78125 66.40625 
Q 24.171875 66.40625 20.328125 58.90625 
Q 16.5 51.421875 16.5 36.375 
Q 16.5 21.390625 20.328125 13.890625 
Q 24.171875 6.390625 31.78125 6.390625 
Q 39.453125 6.390625 43.28125 13.890625 
Q 47.125 21.390625 47.125 36.375 
Q 47.125 51.421875 43.28125 58.90625 
Q 39.453125 66.40625 31.78125 66.40625 
z
M 31.78125 74.21875 
Q 44.046875 74.21875 50.515625 64.515625 
Q 56.984375 54.828125 56.984375 36.375 
Q 56.984375 17.96875 50.515625 8.265625 
Q 44.046875 -1.421875 31.78125 -1.421875 
Q 19.53125 -1.421875 13.0625 8.265625 
Q 6.59375 17.96875 6.59375 36.375 
Q 6.59375 54.828125 13.0625 64.515625 
Q 19.53125 74.21875 31.78125 74.21875 
z
" id="DejaVuSans-48"/>
      </defs>
      <g transform="translate(49.896204 323.998437)scale(0.1 -0.1)">
       <use transform="translate(0 0.765625)" xlink:href="#DejaVuSans-49"/>
       <use transform="translate(63.623047 0.765625)" xlink:href="#DejaVuSans-48"/>
       <use transform="translate(128.203125 39.046875)scale(0.7)" xlink:href="#DejaVuSans-48"/>
      </g>
     </g>
    </g>
    <g id="xtick_2">
     <g id="line2d_2">
      <g>
       <use style="stroke:#000000;stroke-width:0.8;" x="173.913235" xlink:href="#md01cd9a430" y="309.4"/>
      </g>
     </g>
     <g id="text_2">
      <!-- $\mathdefault{10^{1}}$ -->
      <g transform="translate(165.113235 323.998437)scale(0.1 -0.1)">
       <use transform="translate(0 0.684375)" xlink:href="#DejaVuSans-49"/>
       <use transform="translate(63.623047 0.684375)" xlink:href="#DejaVuSans-48"/>
       <use transform="translate(128.203125 38.965625)scale(0.7)" xlink:href="#DejaVuSans-49"/>
      </g>
     </g>
    </g>
    <g id="xtick_3">
     <g id="line2d_3">
      <g>
       <use style="stroke:#000000;stroke-width:0.8;" x="289.130266" xlink:href="#md01cd9a430" y="309.4"/>
      </g>
     </g>
     <g id="text_3">
      <!-- $\mathdefault{10^{2}}$ -->
      <defs>
       <path d="M 19.1875 8.296875 
L 53.609375 8.296875 
L 53.609375 0 
L 7.328125 0 
L 7.328125 8.296875 
Q 12.9375 14.109375 22.625 23.890625 
Q 32.328125 33.6875 34.8125 36.53125 
Q 39.546875 41.84375 41.421875 45.53125 
Q 43.3125 49.21875 43.3125 52.78125 
Q 43.3125 58.59375 39.234375 62.25 
Q 35.15625 65.921875 28.609375 65.921875 
Q 23.96875 65.921875 18.8125 64.3125 
Q 13.671875 62.703125 7.8125 59.421875 
L 7.8125 69.390625 
Q 13.765625 71.78125 18.9375 73 
Q 24.125 74.21875 28.421875 74.21875 
Q 39.75 74.21875 46.484375 68.546875 
Q 53.21875 62.890625 53.21875 53.421875 
Q 53.21875 48.921875 51.53125 44.890625 
Q 49.859375 40.875 45.40625 35.40625 
Q 44.1875 33.984375 37.640625 27.21875 
Q 31.109375 20.453125 19.1875 8.296875 
z
" id="DejaVuSans-50"/>
      </defs>
      <g transform="translate(280.330266 323.998437)scale(0.1 -0.1)">
       <use transform="translate(0 0.765625)" xlink:href="#DejaVuSans-49"/>
       <use transform="translate(63.623047 0.765625)" xlink:href="#DejaVuSans-48"/>
       <use transform="translate(128.203125 39.046875)scale(0.7)" xlink:href="#DejaVuSans-50"/>
      </g>
     </g>
    </g>
    <g id="xtick_4">
     <g id="line2d_4">
      <defs>
       <path d="M 0 0 
L 0 2 
" id="mf407211da3" style="stroke:#000000;stroke-width:0.6;"/>
      </defs>
      <g>
       <use style="stroke:#000000;stroke-width:0.6;" x="47.53052" xlink:href="#mf407211da3" y="309.4"/>
      </g>
     </g>
    </g>
    <g id="xtick_5">
     <g id="line2d_5">
      <g>
       <use style="stroke:#000000;stroke-width:0.6;" x="53.424162" xlink:href="#mf407211da3" y="309.4"/>
      </g>
     </g>
    </g>
    <g id="xtick_6">
     <g id="line2d_6">
      <g>
       <use style="stroke:#000000;stroke-width:0.6;" x="93.379987" xlink:href="#mf407211da3" y="309.4"/>
      </g>
     </g>
    </g>
    <g id="xtick_7">
     <g id="line2d_7">
      <g>
       <use style="stroke:#000000;stroke-width:0.6;" x="113.668699" xlink:href="#mf407211da3" y="309.4"/>
      </g>
     </g>
    </g>
    <g id="xtick_8">
     <g id="line2d_8">
      <g>
       <use style="stroke:#000000;stroke-width:0.6;" x="128.063769" xlink:href="#mf407211da3" y="309.4"/>
      </g>
     </g>
    </g>
    <g id="xtick_9">
     <g id="line2d_9">
      <g>
       <use style="stroke:#000000;stroke-width:0.6;" x="139.229453" xlink:href="#mf407211da3" y="309.4"/>
      </g>
     </g>
    </g>
    <g id="xtick_10">
     <g id="line2d_10">
      <g>
       <use style="stroke:#000000;stroke-width:0.6;" x="148.352481" xlink:href="#mf407211da3" y="309.4"/>
      </g>
     </g>
    </g>
    <g id="xtick_11">
     <g id="line2d_11">
      <g>
       <use style="stroke:#000000;stroke-width:0.6;" x="156.065891" xlink:href="#mf407211da3" y="309.4"/>
      </g>
     </g>
    </g>
    <g id="xtick_12">
     <g id="line2d_12">
      <g>
       <use style="stroke:#000000;stroke-width:0.6;" x="162.747551" xlink:href="#mf407211da3" y="309.4"/>
      </g>
     </g>
    </g>
    <g id="xtick_13">
     <g id="line2d_13">
      <g>
       <use style="stroke:#000000;stroke-width:0.6;" x="168.641193" xlink:href="#mf407211da3" y="309.4"/>
      </g>
     </g>
    </g>
    <g id="xtick_14">
     <g id="line2d_14">
      <g>
       <use style="stroke:#000000;stroke-width:0.6;" x="208.597018" xlink:href="#mf407211da3" y="309.4"/>
      </g>
     </g>
    </g>
    <g id="xtick_15">
     <g id="line2d_15">
      <g>
       <use style="stroke:#000000;stroke-width:0.6;" x="228.88573" xlink:href="#mf407211da3" y="309.4"/>
      </g>
     </g>
    </g>
    <g id="xtick_16">
     <g id="line2d_16">
      <g>
       <use style="stroke:#000000;stroke-width:0.6;" x="243.2808" xlink:href="#mf407211da3" y="309.4"/>
      </g>
     </g>
    </g>
    <g id="xtick_17">
     <g id="line2d_17">
      <g>
       <use style="stroke:#000000;stroke-width:0.6;" x="254.446484" xlink:href="#mf407211da3" y="309.4"/>
      </g>
     </g>
    </g>
    <g id="xtick_18">
     <g id="line2d_18">
      <g>
       <use style="stroke:#000000;stroke-width:0.6;" x="263.569512" xlink:href="#mf407211da3" y="309.4"/>
      </g>
     </g>
    </g>
    <g id="xtick_19">
     <g id="line2d_19">
      <g>
       <use style="stroke:#000000;stroke-width:0.6;" x="271.282923" xlink:href="#mf407211da3" y="309.4"/>
      </g>
     </g>
    </g>
    <g id="xtick_20">
     <g id="line2d_20">
      <g>
       <use style="stroke:#000000;stroke-width:0.6;" x="277.964582" xlink:href="#mf407211da3" y="309.4"/>
      </g>
     </g>
    </g>
    <g id="xtick_21">
     <g id="line2d_21">
      <g>
       <use style="stroke:#000000;stroke-width:0.6;" x="283.858224" xlink:href="#mf407211da3" y="309.4"/>
      </g>
     </g>
    </g>
    <g id="xtick_22">
     <g id="line2d_22">
      <g>
       <use style="stroke:#000000;stroke-width:0.6;" x="323.814049" xlink:href="#mf407211da3" y="309.4"/>
      </g>
     </g>
    </g>
    <g id="text_4">
     <!-- sample frequency -->
     <defs>
      <path d="M 44.28125 53.078125 
L 44.28125 44.578125 
Q 40.484375 46.53125 36.375 47.5 
Q 32.28125 48.484375 27.875 48.484375 
Q 21.1875 48.484375 17.84375 46.4375 
Q 14.5 44.390625 14.5 40.28125 
Q 14.5 37.15625 16.890625 35.375 
Q 19.28125 33.59375 26.515625 31.984375 
L 29.59375 31.296875 
Q 39.15625 29.25 43.1875 25.515625 
Q 47.21875 21.78125 47.21875 15.09375 
Q 47.21875 7.46875 41.1875 3.015625 
Q 35.15625 -1.421875 24.609375 -1.421875 
Q 20.21875 -1.421875 15.453125 -0.5625 
Q 10.6875 0.296875 5.421875 2 
L 5.421875 11.28125 
Q 10.40625 8.6875 15.234375 7.390625 
Q 20.0625 6.109375 24.8125 6.109375 
Q 31.15625 6.109375 34.5625 8.28125 
Q 37.984375 10.453125 37.984375 14.40625 
Q 37.984375 18.0625 35.515625 20.015625 
Q 33.0625 21.96875 24.703125 23.78125 
L 21.578125 24.515625 
Q 13.234375 26.265625 9.515625 29.90625 
Q 5.8125 33.546875 5.8125 39.890625 
Q 5.8125 47.609375 11.28125 51.796875 
Q 16.75 56 26.8125 56 
Q 31.78125 56 36.171875 55.265625 
Q 40.578125 54.546875 44.28125 53.078125 
z
" id="DejaVuSans-115"/>
      <path d="M 34.28125 27.484375 
Q 23.390625 27.484375 19.1875 25 
Q 14.984375 22.515625 14.984375 16.5 
Q 14.984375 11.71875 18.140625 8.90625 
Q 21.296875 6.109375 26.703125 6.109375 
Q 34.1875 6.109375 38.703125 11.40625 
Q 43.21875 16.703125 43.21875 25.484375 
L 43.21875 27.484375 
z
M 52.203125 31.203125 
L 52.203125 0 
L 43.21875 0 
L 43.21875 8.296875 
Q 40.140625 3.328125 35.546875 0.953125 
Q 30.953125 -1.421875 24.3125 -1.421875 
Q 15.921875 -1.421875 10.953125 3.296875 
Q 6 8.015625 6 15.921875 
Q 6 25.140625 12.171875 29.828125 
Q 18.359375 34.515625 30.609375 34.515625 
L 43.21875 34.515625 
L 43.21875 35.40625 
Q 43.21875 41.609375 39.140625 45 
Q 35.0625 48.390625 27.6875 48.390625 
Q 23 48.390625 18.546875 47.265625 
Q 14.109375 46.140625 10.015625 43.890625 
L 10.015625 52.203125 
Q 14.9375 54.109375 19.578125 55.046875 
Q 24.21875 56 28.609375 56 
Q 40.484375 56 46.34375 49.84375 
Q 52.203125 43.703125 52.203125 31.203125 
z
" id="DejaVuSans-97"/>
      <path d="M 52 44.1875 
Q 55.375 50.25 60.0625 53.125 
Q 64.75 56 71.09375 56 
Q 79.640625 56 84.28125 50.015625 
Q 88.921875 44.046875 88.921875 33.015625 
L 88.921875 0 
L 79.890625 0 
L 79.890625 32.71875 
Q 79.890625 40.578125 77.09375 44.375 
Q 74.3125 48.1875 68.609375 48.1875 
Q 61.625 48.1875 57.5625 43.546875 
Q 53.515625 38.921875 53.515625 30.90625 
L 53.515625 0 
L 44.484375 0 
L 44.484375 32.71875 
Q 44.484375 40.625 41.703125 44.40625 
Q 38.921875 48.1875 33.109375 48.1875 
Q 26.21875 48.1875 22.15625 43.53125 
Q 18.109375 38.875 18.109375 30.90625 
L 18.109375 0 
L 9.078125 0 
L 9.078125 54.6875 
L 18.109375 54.6875 
L 18.109375 46.1875 
Q 21.1875 51.21875 25.484375 53.609375 
Q 29.78125 56 35.6875 56 
Q 41.65625 56 45.828125 52.96875 
Q 50 49.953125 52 44.1875 
z
" id="DejaVuSans-109"/>
      <path d="M 18.109375 8.203125 
L 18.109375 -20.796875 
L 9.078125 -20.796875 
L 9.078125 54.6875 
L 18.109375 54.6875 
L 18.109375 46.390625 
Q 20.953125 51.265625 25.265625 53.625 
Q 29.59375 56 35.59375 56 
Q 45.5625 56 51.78125 48.09375 
Q 58.015625 40.1875 58.015625 27.296875 
Q 58.015625 14.40625 51.78125 6.484375 
Q 45.5625 -1.421875 35.59375 -1.421875 
Q 29.59375 -1.421875 25.265625 0.953125 
Q 20.953125 3.328125 18.109375 8.203125 
z
M 48.6875 27.296875 
Q 48.6875 37.203125 44.609375 42.84375 
Q 40.53125 48.484375 33.40625 48.484375 
Q 26.265625 48.484375 22.1875 42.84375 
Q 18.109375 37.203125 18.109375 27.296875 
Q 18.109375 17.390625 22.1875 11.75 
Q 26.265625 6.109375 33.40625 6.109375 
Q 40.53125 6.109375 44.609375 11.75 
Q 48.6875 17.390625 48.6875 27.296875 
z
" id="DejaVuSans-112"/>
      <path d="M 9.421875 75.984375 
L 18.40625 75.984375 
L 18.40625 0 
L 9.421875 0 
z
" id="DejaVuSans-108"/>
      <path d="M 56.203125 29.59375 
L 56.203125 25.203125 
L 14.890625 25.203125 
Q 15.484375 15.921875 20.484375 11.0625 
Q 25.484375 6.203125 34.421875 6.203125 
Q 39.59375 6.203125 44.453125 7.46875 
Q 49.3125 8.734375 54.109375 11.28125 
L 54.109375 2.78125 
Q 49.265625 0.734375 44.1875 -0.34375 
Q 39.109375 -1.421875 33.890625 -1.421875 
Q 20.796875 -1.421875 13.15625 6.1875 
Q 5.515625 13.8125 5.515625 26.8125 
Q 5.515625 40.234375 12.765625 48.109375 
Q 20.015625 56 32.328125 56 
Q 43.359375 56 49.78125 48.890625 
Q 56.203125 41.796875 56.203125 29.59375 
z
M 47.21875 32.234375 
Q 47.125 39.59375 43.09375 43.984375 
Q 39.0625 48.390625 32.421875 48.390625 
Q 24.90625 48.390625 20.390625 44.140625 
Q 15.875 39.890625 15.1875 32.171875 
z
" id="DejaVuSans-101"/>
      <path id="DejaVuSans-32"/>
      <path d="M 37.109375 75.984375 
L 37.109375 68.5 
L 28.515625 68.5 
Q 23.6875 68.5 21.796875 66.546875 
Q 19.921875 64.59375 19.921875 59.515625 
L 19.921875 54.6875 
L 34.71875 54.6875 
L 34.71875 47.703125 
L 19.921875 47.703125 
L 19.921875 0 
L 10.890625 0 
L 10.890625 47.703125 
L 2.296875 47.703125 
L 2.296875 54.6875 
L 10.890625 54.6875 
L 10.890625 58.5 
Q 10.890625 67.625 15.140625 71.796875 
Q 19.390625 75.984375 28.609375 75.984375 
z
" id="DejaVuSans-102"/>
      <path d="M 41.109375 46.296875 
Q 39.59375 47.171875 37.8125 47.578125 
Q 36.03125 48 33.890625 48 
Q 26.265625 48 22.1875 43.046875 
Q 18.109375 38.09375 18.109375 28.8125 
L 18.109375 0 
L 9.078125 0 
L 9.078125 54.6875 
L 18.109375 54.6875 
L 18.109375 46.1875 
Q 20.953125 51.171875 25.484375 53.578125 
Q 30.03125 56 36.53125 56 
Q 37.453125 56 38.578125 55.875 
Q 39.703125 55.765625 41.0625 55.515625 
z
" id="DejaVuSans-114"/>
      <path d="M 14.796875 27.296875 
Q 14.796875 17.390625 18.875 11.75 
Q 22.953125 6.109375 30.078125 6.109375 
Q 37.203125 6.109375 41.296875 11.75 
Q 45.40625 17.390625 45.40625 27.296875 
Q 45.40625 37.203125 41.296875 42.84375 
Q 37.203125 48.484375 30.078125 48.484375 
Q 22.953125 48.484375 18.875 42.84375 
Q 14.796875 37.203125 14.796875 27.296875 
z
M 45.40625 8.203125 
Q 42.578125 3.328125 38.25 0.953125 
Q 33.9375 -1.421875 27.875 -1.421875 
Q 17.96875 -1.421875 11.734375 6.484375 
Q 5.515625 14.40625 5.515625 27.296875 
Q 5.515625 40.1875 11.734375 48.09375 
Q 17.96875 56 27.875 56 
Q 33.9375 56 38.25 53.625 
Q 42.578125 51.265625 45.40625 46.390625 
L 45.40625 54.6875 
L 54.390625 54.6875 
L 54.390625 -20.796875 
L 45.40625 -20.796875 
z
" id="DejaVuSans-113"/>
      <path d="M 8.5 21.578125 
L 8.5 54.6875 
L 17.484375 54.6875 
L 17.484375 21.921875 
Q 17.484375 14.15625 20.5 10.265625 
Q 23.53125 6.390625 29.59375 6.390625 
Q 36.859375 6.390625 41.078125 11.03125 
Q 45.3125 15.671875 45.3125 23.6875 
L 45.3125 54.6875 
L 54.296875 54.6875 
L 54.296875 0 
L 45.3125 0 
L 45.3125 8.40625 
Q 42.046875 3.421875 37.71875 1 
Q 33.40625 -1.421875 27.6875 -1.421875 
Q 18.265625 -1.421875 13.375 4.4375 
Q 8.5 10.296875 8.5 21.578125 
z
M 31.109375 56 
z
" id="DejaVuSans-117"/>
      <path d="M 54.890625 33.015625 
L 54.890625 0 
L 45.90625 0 
L 45.90625 32.71875 
Q 45.90625 40.484375 42.875 44.328125 
Q 39.84375 48.1875 33.796875 48.1875 
Q 26.515625 48.1875 22.3125 43.546875 
Q 18.109375 38.921875 18.109375 30.90625 
L 18.109375 0 
L 9.078125 0 
L 9.078125 54.6875 
L 18.109375 54.6875 
L 18.109375 46.1875 
Q 21.34375 51.125 25.703125 53.5625 
Q 30.078125 56 35.796875 56 
Q 45.21875 56 50.046875 50.171875 
Q 54.890625 44.34375 54.890625 33.015625 
z
" id="DejaVuSans-110"/>
      <path d="M 48.78125 52.59375 
L 48.78125 44.1875 
Q 44.96875 46.296875 41.140625 47.34375 
Q 37.3125 48.390625 33.40625 48.390625 
Q 24.65625 48.390625 19.8125 42.84375 
Q 14.984375 37.3125 14.984375 27.296875 
Q 14.984375 17.28125 19.8125 11.734375 
Q 24.65625 6.203125 33.40625 6.203125 
Q 37.3125 6.203125 41.140625 7.25 
Q 44.96875 8.296875 48.78125 10.40625 
L 48.78125 2.09375 
Q 45.015625 0.34375 40.984375 -0.53125 
Q 36.96875 -1.421875 32.421875 -1.421875 
Q 20.0625 -1.421875 12.78125 6.34375 
Q 5.515625 14.109375 5.515625 27.296875 
Q 5.515625 40.671875 12.859375 48.328125 
Q 20.21875 56 33.015625 56 
Q 37.15625 56 41.109375 55.140625 
Q 45.0625 54.296875 48.78125 52.59375 
z
" id="DejaVuSans-99"/>
      <path d="M 32.171875 -5.078125 
Q 28.375 -14.84375 24.75 -17.8125 
Q 21.140625 -20.796875 15.09375 -20.796875 
L 7.90625 -20.796875 
L 7.90625 -13.28125 
L 13.1875 -13.28125 
Q 16.890625 -13.28125 18.9375 -11.515625 
Q 21 -9.765625 23.484375 -3.21875 
L 25.09375 0.875 
L 2.984375 54.6875 
L 12.5 54.6875 
L 29.59375 11.921875 
L 46.6875 54.6875 
L 56.203125 54.6875 
z
" id="DejaVuSans-121"/>
     </defs>
     <g transform="translate(146.032466 337.676562)scale(0.1 -0.1)">
      <use xlink:href="#DejaVuSans-115"/>
      <use x="52.099609" xlink:href="#DejaVuSans-97"/>
      <use x="113.378906" xlink:href="#DejaVuSans-109"/>
      <use x="210.791016" xlink:href="#DejaVuSans-112"/>
      <use x="274.267578" xlink:href="#DejaVuSans-108"/>
      <use x="302.050781" xlink:href="#DejaVuSans-101"/>
      <use x="363.574219" xlink:href="#DejaVuSans-32"/>
      <use x="395.361328" xlink:href="#DejaVuSans-102"/>
      <use x="430.566406" xlink:href="#DejaVuSans-114"/>
      <use x="469.429688" xlink:href="#DejaVuSans-101"/>
      <use x="530.953125" xlink:href="#DejaVuSans-113"/>
      <use x="594.429688" xlink:href="#DejaVuSans-117"/>
      <use x="657.808594" xlink:href="#DejaVuSans-101"/>
      <use x="719.332031" xlink:href="#DejaVuSans-110"/>
      <use x="782.710938" xlink:href="#DejaVuSans-99"/>
      <use x="837.691406" xlink:href="#DejaVuSans-121"/>
     </g>
    </g>
   </g>
   <g id="matplotlib.axis_2">
    <g id="ytick_1">
     <g id="line2d_23">
      <defs>
       <path d="M 0 0 
L -3.5 0 
" id="me297839b79" style="stroke:#000000;stroke-width:0.8;"/>
      </defs>
      <g>
       <use style="stroke:#000000;stroke-width:0.8;" x="45.478125" xlink:href="#me297839b79" y="280.980373"/>
      </g>
     </g>
     <g id="text_5">
      <!-- $\mathdefault{10^{4}}$ -->
      <defs>
       <path d="M 37.796875 64.3125 
L 12.890625 25.390625 
L 37.796875 25.390625 
z
M 35.203125 72.90625 
L 47.609375 72.90625 
L 47.609375 25.390625 
L 58.015625 25.390625 
L 58.015625 17.1875 
L 47.609375 17.1875 
L 47.609375 0 
L 37.796875 0 
L 37.796875 17.1875 
L 4.890625 17.1875 
L 4.890625 26.703125 
z
" id="DejaVuSans-52"/>
      </defs>
      <g transform="translate(20.878125 284.779592)scale(0.1 -0.1)">
       <use transform="translate(0 0.684375)" xlink:href="#DejaVuSans-49"/>
       <use transform="translate(63.623047 0.684375)" xlink:href="#DejaVuSans-48"/>
       <use transform="translate(128.203125 38.965625)scale(0.7)" xlink:href="#DejaVuSans-52"/>
      </g>
     </g>
    </g>
    <g id="ytick_2">
     <g id="line2d_24">
      <g>
       <use style="stroke:#000000;stroke-width:0.8;" x="45.478125" xlink:href="#me297839b79" y="160.108785"/>
      </g>
     </g>
     <g id="text_6">
      <!-- $\mathdefault{10^{5}}$ -->
      <defs>
       <path d="M 10.796875 72.90625 
L 49.515625 72.90625 
L 49.515625 64.59375 
L 19.828125 64.59375 
L 19.828125 46.734375 
Q 21.96875 47.46875 24.109375 47.828125 
Q 26.265625 48.1875 28.421875 48.1875 
Q 40.625 48.1875 47.75 41.5 
Q 54.890625 34.8125 54.890625 23.390625 
Q 54.890625 11.625 47.5625 5.09375 
Q 40.234375 -1.421875 26.90625 -1.421875 
Q 22.3125 -1.421875 17.546875 -0.640625 
Q 12.796875 0.140625 7.71875 1.703125 
L 7.71875 11.625 
Q 12.109375 9.234375 16.796875 8.0625 
Q 21.484375 6.890625 26.703125 6.890625 
Q 35.15625 6.890625 40.078125 11.328125 
Q 45.015625 15.765625 45.015625 23.390625 
Q 45.015625 31 40.078125 35.4375 
Q 35.15625 39.890625 26.703125 39.890625 
Q 22.75 39.890625 18.8125 39.015625 
Q 14.890625 38.140625 10.796875 36.28125 
z
" id="DejaVuSans-53"/>
      </defs>
      <g transform="translate(20.878125 163.908004)scale(0.1 -0.1)">
       <use transform="translate(0 0.684375)" xlink:href="#DejaVuSans-49"/>
       <use transform="translate(63.623047 0.684375)" xlink:href="#DejaVuSans-48"/>
       <use transform="translate(128.203125 38.965625)scale(0.7)" xlink:href="#DejaVuSans-53"/>
      </g>
     </g>
    </g>
    <g id="ytick_3">
     <g id="line2d_25">
      <g>
       <use style="stroke:#000000;stroke-width:0.8;" x="45.478125" xlink:href="#me297839b79" y="39.237197"/>
      </g>
     </g>
     <g id="text_7">
      <!-- $\mathdefault{10^{6}}$ -->
      <defs>
       <path d="M 33.015625 40.375 
Q 26.375 40.375 22.484375 35.828125 
Q 18.609375 31.296875 18.609375 23.390625 
Q 18.609375 15.53125 22.484375 10.953125 
Q 26.375 6.390625 33.015625 6.390625 
Q 39.65625 6.390625 43.53125 10.953125 
Q 47.40625 15.53125 47.40625 23.390625 
Q 47.40625 31.296875 43.53125 35.828125 
Q 39.65625 40.375 33.015625 40.375 
z
M 52.59375 71.296875 
L 52.59375 62.3125 
Q 48.875 64.0625 45.09375 64.984375 
Q 41.3125 65.921875 37.59375 65.921875 
Q 27.828125 65.921875 22.671875 59.328125 
Q 17.53125 52.734375 16.796875 39.40625 
Q 19.671875 43.65625 24.015625 45.921875 
Q 28.375 48.1875 33.59375 48.1875 
Q 44.578125 48.1875 50.953125 41.515625 
Q 57.328125 34.859375 57.328125 23.390625 
Q 57.328125 12.15625 50.6875 5.359375 
Q 44.046875 -1.421875 33.015625 -1.421875 
Q 20.359375 -1.421875 13.671875 8.265625 
Q 6.984375 17.96875 6.984375 36.375 
Q 6.984375 53.65625 15.1875 63.9375 
Q 23.390625 74.21875 37.203125 74.21875 
Q 40.921875 74.21875 44.703125 73.484375 
Q 48.484375 72.75 52.59375 71.296875 
z
" id="DejaVuSans-54"/>
      </defs>
      <g transform="translate(20.878125 43.036416)scale(0.1 -0.1)">
       <use transform="translate(0 0.765625)" xlink:href="#DejaVuSans-49"/>
       <use transform="translate(63.623047 0.765625)" xlink:href="#DejaVuSans-48"/>
       <use transform="translate(128.203125 39.046875)scale(0.7)" xlink:href="#DejaVuSans-54"/>
      </g>
     </g>
    </g>
    <g id="ytick_4">
     <g id="line2d_26">
      <defs>
       <path d="M 0 0 
L -2 0 
" id="md9f08be75a" style="stroke:#000000;stroke-width:0.6;"/>
      </defs>
      <g>
       <use style="stroke:#000000;stroke-width:0.6;" x="45.478125" xlink:href="#md9f08be75a" y="307.795584"/>
      </g>
     </g>
    </g>
    <g id="ytick_5">
     <g id="line2d_27">
      <g>
       <use style="stroke:#000000;stroke-width:0.6;" x="45.478125" xlink:href="#md9f08be75a" y="299.703619"/>
      </g>
     </g>
    </g>
    <g id="ytick_6">
     <g id="line2d_28">
      <g>
       <use style="stroke:#000000;stroke-width:0.6;" x="45.478125" xlink:href="#md9f08be75a" y="292.69404"/>
      </g>
     </g>
    </g>
    <g id="ytick_7">
     <g id="line2d_29">
      <g>
       <use style="stroke:#000000;stroke-width:0.6;" x="45.478125" xlink:href="#md9f08be75a" y="286.511153"/>
      </g>
     </g>
    </g>
    <g id="ytick_8">
     <g id="line2d_30">
      <g>
       <use style="stroke:#000000;stroke-width:0.6;" x="45.478125" xlink:href="#md9f08be75a" y="244.594399"/>
      </g>
     </g>
    </g>
    <g id="ytick_9">
     <g id="line2d_31">
      <g>
       <use style="stroke:#000000;stroke-width:0.6;" x="45.478125" xlink:href="#md9f08be75a" y="223.309969"/>
      </g>
     </g>
    </g>
    <g id="ytick_10">
     <g id="line2d_32">
      <g>
       <use style="stroke:#000000;stroke-width:0.6;" x="45.478125" xlink:href="#md9f08be75a" y="208.208426"/>
      </g>
     </g>
    </g>
    <g id="ytick_11">
     <g id="line2d_33">
      <g>
       <use style="stroke:#000000;stroke-width:0.6;" x="45.478125" xlink:href="#md9f08be75a" y="196.494759"/>
      </g>
     </g>
    </g>
    <g id="ytick_12">
     <g id="line2d_34">
      <g>
       <use style="stroke:#000000;stroke-width:0.6;" x="45.478125" xlink:href="#md9f08be75a" y="186.923996"/>
      </g>
     </g>
    </g>
    <g id="ytick_13">
     <g id="line2d_35">
      <g>
       <use style="stroke:#000000;stroke-width:0.6;" x="45.478125" xlink:href="#md9f08be75a" y="178.832031"/>
      </g>
     </g>
    </g>
    <g id="ytick_14">
     <g id="line2d_36">
      <g>
       <use style="stroke:#000000;stroke-width:0.6;" x="45.478125" xlink:href="#md9f08be75a" y="171.822452"/>
      </g>
     </g>
    </g>
    <g id="ytick_15">
     <g id="line2d_37">
      <g>
       <use style="stroke:#000000;stroke-width:0.6;" x="45.478125" xlink:href="#md9f08be75a" y="165.639566"/>
      </g>
     </g>
    </g>
    <g id="ytick_16">
     <g id="line2d_38">
      <g>
       <use style="stroke:#000000;stroke-width:0.6;" x="45.478125" xlink:href="#md9f08be75a" y="123.722811"/>
      </g>
     </g>
    </g>
    <g id="ytick_17">
     <g id="line2d_39">
      <g>
       <use style="stroke:#000000;stroke-width:0.6;" x="45.478125" xlink:href="#md9f08be75a" y="102.438381"/>
      </g>
     </g>
    </g>
    <g id="ytick_18">
     <g id="line2d_40">
      <g>
       <use style="stroke:#000000;stroke-width:0.6;" x="45.478125" xlink:href="#md9f08be75a" y="87.336838"/>
      </g>
     </g>
    </g>
    <g id="ytick_19">
     <g id="line2d_41">
      <g>
       <use style="stroke:#000000;stroke-width:0.6;" x="45.478125" xlink:href="#md9f08be75a" y="75.623171"/>
      </g>
     </g>
    </g>
    <g id="ytick_20">
     <g id="line2d_42">
      <g>
       <use style="stroke:#000000;stroke-width:0.6;" x="45.478125" xlink:href="#md9f08be75a" y="66.052408"/>
      </g>
     </g>
    </g>
    <g id="ytick_21">
     <g id="line2d_43">
      <g>
       <use style="stroke:#000000;stroke-width:0.6;" x="45.478125" xlink:href="#md9f08be75a" y="57.960443"/>
      </g>
     </g>
    </g>
    <g id="ytick_22">
     <g id="line2d_44">
      <g>
       <use style="stroke:#000000;stroke-width:0.6;" x="45.478125" xlink:href="#md9f08be75a" y="50.950864"/>
      </g>
     </g>
    </g>
    <g id="ytick_23">
     <g id="line2d_45">
      <g>
       <use style="stroke:#000000;stroke-width:0.6;" x="45.478125" xlink:href="#md9f08be75a" y="44.767978"/>
      </g>
     </g>
    </g>
    <g id="text_8">
     <!-- variant count -->
     <defs>
      <path d="M 2.984375 54.6875 
L 12.5 54.6875 
L 29.59375 8.796875 
L 46.6875 54.6875 
L 56.203125 54.6875 
L 35.6875 0 
L 23.484375 0 
z
" id="DejaVuSans-118"/>
      <path d="M 9.421875 54.6875 
L 18.40625 54.6875 
L 18.40625 0 
L 9.421875 0 
z
M 9.421875 75.984375 
L 18.40625 75.984375 
L 18.40625 64.59375 
L 9.421875 64.59375 
z
" id="DejaVuSans-105"/>
      <path d="M 18.3125 70.21875 
L 18.3125 54.6875 
L 36.8125 54.6875 
L 36.8125 47.703125 
L 18.3125 47.703125 
L 18.3125 18.015625 
Q 18.3125 11.328125 20.140625 9.421875 
Q 21.96875 7.515625 27.59375 7.515625 
L 36.8125 7.515625 
L 36.8125 0 
L 27.59375 0 
Q 17.1875 0 13.234375 3.875 
Q 9.28125 7.765625 9.28125 18.015625 
L 9.28125 47.703125 
L 2.6875 47.703125 
L 2.6875 54.6875 
L 9.28125 54.6875 
L 9.28125 70.21875 
z
" id="DejaVuSans-116"/>
      <path d="M 30.609375 48.390625 
Q 23.390625 48.390625 19.1875 42.75 
Q 14.984375 37.109375 14.984375 27.296875 
Q 14.984375 17.484375 19.15625 11.84375 
Q 23.34375 6.203125 30.609375 6.203125 
Q 37.796875 6.203125 41.984375 11.859375 
Q 46.1875 17.53125 46.1875 27.296875 
Q 46.1875 37.015625 41.984375 42.703125 
Q 37.796875 48.390625 30.609375 48.390625 
z
M 30.609375 56 
Q 42.328125 56 49.015625 48.375 
Q 55.71875 40.765625 55.71875 27.296875 
Q 55.71875 13.875 49.015625 6.21875 
Q 42.328125 -1.421875 30.609375 -1.421875 
Q 18.84375 -1.421875 12.171875 6.21875 
Q 5.515625 13.875 5.515625 27.296875 
Q 5.515625 40.765625 12.171875 48.375 
Q 18.84375 56 30.609375 56 
z
" id="DejaVuSans-111"/>
     </defs>
     <g transform="translate(14.798438 191.65625)rotate(-90)scale(0.1 -0.1)">
      <use xlink:href="#DejaVuSans-118"/>
      <use x="59.179688" xlink:href="#DejaVuSans-97"/>
      <use x="120.458984" xlink:href="#DejaVuSans-114"/>
      <use x="161.572266" xlink:href="#DejaVuSans-105"/>
      <use x="189.355469" xlink:href="#DejaVuSans-97"/>
      <use x="250.634766" xlink:href="#DejaVuSans-110"/>
      <use x="314.013672" xlink:href="#DejaVuSans-116"/>
      <use x="353.222656" xlink:href="#DejaVuSans-32"/>
      <use x="385.009766" xlink:href="#DejaVuSans-99"/>
      <use x="439.990234" xlink:href="#DejaVuSans-111"/>
      <use x="501.171875" xlink:href="#DejaVuSans-117"/>
      <use x="564.550781" xlink:href="#DejaVuSans-110"/>
      <use x="627.929688" xlink:href="#DejaVuSans-116"/>
     </g>
    </g>
   </g>
   <g id="line2d_46">
    <defs>
     <path d="M 0 1.5 
C 0.397805 1.5 0.77937 1.341951 1.06066 1.06066 
C 1.341951 0.77937 1.5 0.397805 1.5 0 
C 1.5 -0.397805 1.341951 -0.77937 1.06066 -1.06066 
C 0.77937 -1.341951 0.397805 -1.5 0 -1.5 
C -0.397805 -1.5 -0.77937 -1.341951 -1.06066 -1.06066 
C -1.341951 -0.77937 -1.5 -0.397805 -1.5 0 
C -1.5 0.397805 -1.341951 0.77937 -1.06066 1.06066 
C -0.77937 1.341951 -0.397805 1.5 0 1.5 
z
" id="mf522b49ce5" style="stroke:#1f77b4;"/>
    </defs>
    <g clip-path="url(#p35c24e98d2)">
     <use style="fill:#1f77b4;stroke:#1f77b4;" x="58.696204" xlink:href="#mf522b49ce5" y="20.955926"/>
     <use style="fill:#1f77b4;stroke:#1f77b4;" x="93.379987" xlink:href="#mf522b49ce5" y="70.60976"/>
     <use style="fill:#1f77b4;stroke:#1f77b4;" x="113.668699" xlink:href="#mf522b49ce5" y="91.881023"/>
     <use style="fill:#1f77b4;stroke:#1f77b4;" x="128.063769" xlink:href="#mf522b49ce5" y="107.164429"/>
     <use style="fill:#1f77b4;stroke:#1f77b4;" x="139.229453" xlink:href="#mf522b49ce5" y="118.478219"/>
     <use style="fill:#1f77b4;stroke:#1f77b4;" x="148.352481" xlink:href="#mf522b49ce5" y="128.259556"/>
     <use style="fill:#1f77b4;stroke:#1f77b4;" x="156.065891" xlink:href="#mf522b49ce5" y="135.236726"/>
     <use style="fill:#1f77b4;stroke:#1f77b4;" x="162.747551" xlink:href="#mf522b49ce5" y="141.908507"/>
     <use style="fill:#1f77b4;stroke:#1f77b4;" x="168.641193" xlink:href="#mf522b49ce5" y="149.760771"/>
     <use style="fill:#1f77b4;stroke:#1f77b4;" x="173.913235" xlink:href="#mf522b49ce5" y="154.366827"/>
     <use style="fill:#1f77b4;stroke:#1f77b4;" x="178.682378" xlink:href="#mf522b49ce5" y="159.543333"/>
     <use style="fill:#1f77b4;stroke:#1f77b4;" x="183.036263" xlink:href="#mf522b49ce5" y="164.720271"/>
     <use style="fill:#1f77b4;stroke:#1f77b4;" x="187.04145" xlink:href="#mf522b49ce5" y="167.938847"/>
     <use style="fill:#1f77b4;stroke:#1f77b4;" x="190.749674" xlink:href="#mf522b49ce5" y="169.656456"/>
     <use style="fill:#1f77b4;stroke:#1f77b4;" x="194.201947" xlink:href="#mf522b49ce5" y="174.577236"/>
     <use style="fill:#1f77b4;stroke:#1f77b4;" x="197.431334" xlink:href="#mf522b49ce5" y="178.260718"/>
     <use style="fill:#1f77b4;stroke:#1f77b4;" x="200.464876" xlink:href="#mf522b49ce5" y="180.345208"/>
     <use style="fill:#1f77b4;stroke:#1f77b4;" x="203.324976" xlink:href="#mf522b49ce5" y="182.490974"/>
     <use style="fill:#1f77b4;stroke:#1f77b4;" x="206.030398" xlink:href="#mf522b49ce5" y="185.006669"/>
     <use style="fill:#1f77b4;stroke:#1f77b4;" x="208.597018" xlink:href="#mf522b49ce5" y="189.281506"/>
     <use style="fill:#1f77b4;stroke:#1f77b4;" x="211.038386" xlink:href="#mf522b49ce5" y="188.650247"/>
     <use style="fill:#1f77b4;stroke:#1f77b4;" x="213.36616" xlink:href="#mf522b49ce5" y="192.379977"/>
     <use style="fill:#1f77b4;stroke:#1f77b4;" x="215.590443" xlink:href="#mf522b49ce5" y="192.552077"/>
     <use style="fill:#1f77b4;stroke:#1f77b4;" x="217.720046" xlink:href="#mf522b49ce5" y="195.362688"/>
     <use style="fill:#1f77b4;stroke:#1f77b4;" x="219.762702" xlink:href="#mf522b49ce5" y="195.833321"/>
     <use style="fill:#1f77b4;stroke:#1f77b4;" x="221.725233" xlink:href="#mf522b49ce5" y="196.787439"/>
     <use style="fill:#1f77b4;stroke:#1f77b4;" x="223.613688" xlink:href="#mf522b49ce5" y="199.547745"/>
     <use style="fill:#1f77b4;stroke:#1f77b4;" x="225.433456" xlink:href="#mf522b49ce5" y="201.15441"/>
     <use style="fill:#1f77b4;stroke:#1f77b4;" x="227.18936" xlink:href="#mf522b49ce5" y="200.878629"/>
     <use style="fill:#1f77b4;stroke:#1f77b4;" x="228.88573" xlink:href="#mf522b49ce5" y="203.542747"/>
     <use style="fill:#1f77b4;stroke:#1f77b4;" x="230.526471" xlink:href="#mf522b49ce5" y="202.543694"/>
     <use style="fill:#1f77b4;stroke:#1f77b4;" x="232.115116" xlink:href="#mf522b49ce5" y="204.393726"/>
     <use style="fill:#1f77b4;stroke:#1f77b4;" x="233.654872" xlink:href="#mf522b49ce5" y="207.073786"/>
     <use style="fill:#1f77b4;stroke:#1f77b4;" x="235.148658" xlink:href="#mf522b49ce5" y="207.274518"/>
     <use style="fill:#1f77b4;stroke:#1f77b4;" x="236.59914" xlink:href="#mf522b49ce5" y="208.549429"/>
     <use style="fill:#1f77b4;stroke:#1f77b4;" x="238.008758" xlink:href="#mf522b49ce5" y="211.126664"/>
     <use style="fill:#1f77b4;stroke:#1f77b4;" x="239.379751" xlink:href="#mf522b49ce5" y="213.19811"/>
     <use style="fill:#1f77b4;stroke:#1f77b4;" x="240.71418" xlink:href="#mf522b49ce5" y="211.787026"/>
     <use style="fill:#1f77b4;stroke:#1f77b4;" x="242.013945" xlink:href="#mf522b49ce5" y="214.197607"/>
     <use style="fill:#1f77b4;stroke:#1f77b4;" x="243.2808" xlink:href="#mf522b49ce5" y="212.608277"/>
     <use style="fill:#1f77b4;stroke:#1f77b4;" x="244.516372" xlink:href="#mf522b49ce5" y="215.520338"/>
     <use style="fill:#1f77b4;stroke:#1f77b4;" x="245.722168" xlink:href="#mf522b49ce5" y="215.7471"/>
     <use style="fill:#1f77b4;stroke:#1f77b4;" x="246.89959" xlink:href="#mf522b49ce5" y="216.169974"/>
     <use style="fill:#1f77b4;stroke:#1f77b4;" x="248.049942" xlink:href="#mf522b49ce5" y="218.04812"/>
     <use style="fill:#1f77b4;stroke:#1f77b4;" x="249.174442" xlink:href="#mf522b49ce5" y="218.174905"/>
     <use style="fill:#1f77b4;stroke:#1f77b4;" x="250.274225" xlink:href="#mf522b49ce5" y="220.309017"/>
     <use style="fill:#1f77b4;stroke:#1f77b4;" x="251.350355" xlink:href="#mf522b49ce5" y="220.975916"/>
     <use style="fill:#1f77b4;stroke:#1f77b4;" x="252.403828" xlink:href="#mf522b49ce5" y="223.311719"/>
     <use style="fill:#1f77b4;stroke:#1f77b4;" x="253.435579" xlink:href="#mf522b49ce5" y="222.279031"/>
     <use style="fill:#1f77b4;stroke:#1f77b4;" x="254.446484" xlink:href="#mf522b49ce5" y="224.391918"/>
     <use style="fill:#1f77b4;stroke:#1f77b4;" x="255.43737" xlink:href="#mf522b49ce5" y="223.401038"/>
     <use style="fill:#1f77b4;stroke:#1f77b4;" x="256.409015" xlink:href="#mf522b49ce5" y="225.646436"/>
     <use style="fill:#1f77b4;stroke:#1f77b4;" x="257.362151" xlink:href="#mf522b49ce5" y="226.085503"/>
     <use style="fill:#1f77b4;stroke:#1f77b4;" x="258.29747" xlink:href="#mf522b49ce5" y="225.756318"/>
     <use style="fill:#1f77b4;stroke:#1f77b4;" x="259.215626" xlink:href="#mf522b49ce5" y="227.164661"/>
     <use style="fill:#1f77b4;stroke:#1f77b4;" x="260.117239" xlink:href="#mf522b49ce5" y="228.455269"/>
     <use style="fill:#1f77b4;stroke:#1f77b4;" x="261.002892" xlink:href="#mf522b49ce5" y="229.090201"/>
     <use style="fill:#1f77b4;stroke:#1f77b4;" x="261.873142" xlink:href="#mf522b49ce5" y="229.123421"/>
     <use style="fill:#1f77b4;stroke:#1f77b4;" x="262.728516" xlink:href="#mf522b49ce5" y="229.944932"/>
     <use style="fill:#1f77b4;stroke:#1f77b4;" x="263.569512" xlink:href="#mf522b49ce5" y="230.369566"/>
     <use style="fill:#1f77b4;stroke:#1f77b4;" x="264.396607" xlink:href="#mf522b49ce5" y="229.618335"/>
     <use style="fill:#1f77b4;stroke:#1f77b4;" x="265.210253" xlink:href="#mf522b49ce5" y="229.219289"/>
     <use style="fill:#1f77b4;stroke:#1f77b4;" x="266.01088" xlink:href="#mf522b49ce5" y="231.641912"/>
     <use style="fill:#1f77b4;stroke:#1f77b4;" x="266.798898" xlink:href="#mf522b49ce5" y="233.627228"/>
     <use style="fill:#1f77b4;stroke:#1f77b4;" x="267.574699" xlink:href="#mf522b49ce5" y="234.529465"/>
     <use style="fill:#1f77b4;stroke:#1f77b4;" x="268.338654" xlink:href="#mf522b49ce5" y="233.844921"/>
     <use style="fill:#1f77b4;stroke:#1f77b4;" x="269.091122" xlink:href="#mf522b49ce5" y="236.437982"/>
     <use style="fill:#1f77b4;stroke:#1f77b4;" x="269.832441" xlink:href="#mf522b49ce5" y="237.413184"/>
     <use style="fill:#1f77b4;stroke:#1f77b4;" x="270.562937" xlink:href="#mf522b49ce5" y="238.118367"/>
     <use style="fill:#1f77b4;stroke:#1f77b4;" x="271.282923" xlink:href="#mf522b49ce5" y="237.750766"/>
     <use style="fill:#1f77b4;stroke:#1f77b4;" x="271.992695" xlink:href="#mf522b49ce5" y="237.796864"/>
     <use style="fill:#1f77b4;stroke:#1f77b4;" x="272.69254" xlink:href="#mf522b49ce5" y="239.177654"/>
     <use style="fill:#1f77b4;stroke:#1f77b4;" x="273.382732" xlink:href="#mf522b49ce5" y="238.250778"/>
     <use style="fill:#1f77b4;stroke:#1f77b4;" x="274.063533" xlink:href="#mf522b49ce5" y="242.765717"/>
     <use style="fill:#1f77b4;stroke:#1f77b4;" x="274.735196" xlink:href="#mf522b49ce5" y="241.734104"/>
     <use style="fill:#1f77b4;stroke:#1f77b4;" x="275.397962" xlink:href="#mf522b49ce5" y="239.739346"/>
     <use style="fill:#1f77b4;stroke:#1f77b4;" x="276.052065" xlink:href="#mf522b49ce5" y="241.975753"/>
     <use style="fill:#1f77b4;stroke:#1f77b4;" x="276.697727" xlink:href="#mf522b49ce5" y="242.023217"/>
     <use style="fill:#1f77b4;stroke:#1f77b4;" x="277.335164" xlink:href="#mf522b49ce5" y="242.145823"/>
     <use style="fill:#1f77b4;stroke:#1f77b4;" x="277.964582" xlink:href="#mf522b49ce5" y="242.958719"/>
     <use style="fill:#1f77b4;stroke:#1f77b4;" x="278.586182" xlink:href="#mf522b49ce5" y="245.185648"/>
     <use style="fill:#1f77b4;stroke:#1f77b4;" x="279.200154" xlink:href="#mf522b49ce5" y="244.812702"/>
     <use style="fill:#1f77b4;stroke:#1f77b4;" x="279.806684" xlink:href="#mf522b49ce5" y="245.05839"/>
     <use style="fill:#1f77b4;stroke:#1f77b4;" x="280.405951" xlink:href="#mf522b49ce5" y="244.883912"/>
     <use style="fill:#1f77b4;stroke:#1f77b4;" x="280.998125" xlink:href="#mf522b49ce5" y="246.236633"/>
     <use style="fill:#1f77b4;stroke:#1f77b4;" x="281.583372" xlink:href="#mf522b49ce5" y="245.039857"/>
     <use style="fill:#1f77b4;stroke:#1f77b4;" x="282.161854" xlink:href="#mf522b49ce5" y="247.400381"/>
     <use style="fill:#1f77b4;stroke:#1f77b4;" x="282.733725" xlink:href="#mf522b49ce5" y="247.394844"/>
     <use style="fill:#1f77b4;stroke:#1f77b4;" x="283.299133" xlink:href="#mf522b49ce5" y="248.071942"/>
     <use style="fill:#1f77b4;stroke:#1f77b4;" x="283.858224" xlink:href="#mf522b49ce5" y="251.034149"/>
     <use style="fill:#1f77b4;stroke:#1f77b4;" x="284.411137" xlink:href="#mf522b49ce5" y="250.075626"/>
     <use style="fill:#1f77b4;stroke:#1f77b4;" x="284.958007" xlink:href="#mf522b49ce5" y="248.83466"/>
     <use style="fill:#1f77b4;stroke:#1f77b4;" x="285.498965" xlink:href="#mf522b49ce5" y="250.514491"/>
     <use style="fill:#1f77b4;stroke:#1f77b4;" x="286.034138" xlink:href="#mf522b49ce5" y="254.28709"/>
     <use style="fill:#1f77b4;stroke:#1f77b4;" x="286.563646" xlink:href="#mf522b49ce5" y="253.323643"/>
     <use style="fill:#1f77b4;stroke:#1f77b4;" x="287.087611" xlink:href="#mf522b49ce5" y="252.55442"/>
     <use style="fill:#1f77b4;stroke:#1f77b4;" x="287.606145" xlink:href="#mf522b49ce5" y="256.37701"/>
     <use style="fill:#1f77b4;stroke:#1f77b4;" x="288.119361" xlink:href="#mf522b49ce5" y="252.411057"/>
     <use style="fill:#1f77b4;stroke:#1f77b4;" x="288.627367" xlink:href="#mf522b49ce5" y="252.070995"/>
     <use style="fill:#1f77b4;stroke:#1f77b4;" x="289.130266" xlink:href="#mf522b49ce5" y="254.246065"/>
     <use style="fill:#1f77b4;stroke:#1f77b4;" x="289.628162" xlink:href="#mf522b49ce5" y="254.581511"/>
     <use style="fill:#1f77b4;stroke:#1f77b4;" x="290.121153" xlink:href="#mf522b49ce5" y="254.8744"/>
     <use style="fill:#1f77b4;stroke:#1f77b4;" x="290.609333" xlink:href="#mf522b49ce5" y="252.734943"/>
     <use style="fill:#1f77b4;stroke:#1f77b4;" x="291.092797" xlink:href="#mf522b49ce5" y="254.740487"/>
     <use style="fill:#1f77b4;stroke:#1f77b4;" x="291.571635" xlink:href="#mf522b49ce5" y="256.31791"/>
     <use style="fill:#1f77b4;stroke:#1f77b4;" x="292.045933" xlink:href="#mf522b49ce5" y="254.915918"/>
     <use style="fill:#1f77b4;stroke:#1f77b4;" x="292.515778" xlink:href="#mf522b49ce5" y="258.242912"/>
     <use style="fill:#1f77b4;stroke:#1f77b4;" x="292.981252" xlink:href="#mf522b49ce5" y="257.47247"/>
     <use style="fill:#1f77b4;stroke:#1f77b4;" x="293.442436" xlink:href="#mf522b49ce5" y="258.498838"/>
     <use style="fill:#1f77b4;stroke:#1f77b4;" x="293.899409" xlink:href="#mf522b49ce5" y="259.319341"/>
     <use style="fill:#1f77b4;stroke:#1f77b4;" x="294.352245" xlink:href="#mf522b49ce5" y="260.308431"/>
     <use style="fill:#1f77b4;stroke:#1f77b4;" x="294.801021" xlink:href="#mf522b49ce5" y="261.566151"/>
     <use style="fill:#1f77b4;stroke:#1f77b4;" x="295.245807" xlink:href="#mf522b49ce5" y="261.374297"/>
     <use style="fill:#1f77b4;stroke:#1f77b4;" x="295.686674" xlink:href="#mf522b49ce5" y="263.220247"/>
     <use style="fill:#1f77b4;stroke:#1f77b4;" x="296.123691" xlink:href="#mf522b49ce5" y="260.468003"/>
     <use style="fill:#1f77b4;stroke:#1f77b4;" x="296.556925" xlink:href="#mf522b49ce5" y="264.485403"/>
     <use style="fill:#1f77b4;stroke:#1f77b4;" x="296.986439" xlink:href="#mf522b49ce5" y="264.500741"/>
     <use style="fill:#1f77b4;stroke:#1f77b4;" x="297.412298" xlink:href="#mf522b49ce5" y="259.88175"/>
     <use style="fill:#1f77b4;stroke:#1f77b4;" x="297.834563" xlink:href="#mf522b49ce5" y="263.641102"/>
     <use style="fill:#1f77b4;stroke:#1f77b4;" x="298.253295" xlink:href="#mf522b49ce5" y="264.420267"/>
     <use style="fill:#1f77b4;stroke:#1f77b4;" x="298.668551" xlink:href="#mf522b49ce5" y="264.901107"/>
     <use style="fill:#1f77b4;stroke:#1f77b4;" x="299.08039" xlink:href="#mf522b49ce5" y="266.235686"/>
     <use style="fill:#1f77b4;stroke:#1f77b4;" x="299.488866" xlink:href="#mf522b49ce5" y="264.712092"/>
     <use style="fill:#1f77b4;stroke:#1f77b4;" x="299.894036" xlink:href="#mf522b49ce5" y="263.385181"/>
     <use style="fill:#1f77b4;stroke:#1f77b4;" x="300.29595" xlink:href="#mf522b49ce5" y="265.872268"/>
     <use style="fill:#1f77b4;stroke:#1f77b4;" x="300.694663" xlink:href="#mf522b49ce5" y="263.501696"/>
     <use style="fill:#1f77b4;stroke:#1f77b4;" x="301.090223" xlink:href="#mf522b49ce5" y="266.482024"/>
     <use style="fill:#1f77b4;stroke:#1f77b4;" x="301.482681" xlink:href="#mf522b49ce5" y="265.652283"/>
     <use style="fill:#1f77b4;stroke:#1f77b4;" x="301.872085" xlink:href="#mf522b49ce5" y="265.62485"/>
     <use style="fill:#1f77b4;stroke:#1f77b4;" x="302.258481" xlink:href="#mf522b49ce5" y="268.823435"/>
     <use style="fill:#1f77b4;stroke:#1f77b4;" x="302.641917" xlink:href="#mf522b49ce5" y="269.036239"/>
     <use style="fill:#1f77b4;stroke:#1f77b4;" x="303.022437" xlink:href="#mf522b49ce5" y="266.458134"/>
     <use style="fill:#1f77b4;stroke:#1f77b4;" x="303.400085" xlink:href="#mf522b49ce5" y="268.915127"/>
     <use style="fill:#1f77b4;stroke:#1f77b4;" x="303.774904" xlink:href="#mf522b49ce5" y="267.70282"/>
     <use style="fill:#1f77b4;stroke:#1f77b4;" x="304.146936" xlink:href="#mf522b49ce5" y="267.560345"/>
     <use style="fill:#1f77b4;stroke:#1f77b4;" x="304.516223" xlink:href="#mf522b49ce5" y="267.062692"/>
     <use style="fill:#1f77b4;stroke:#1f77b4;" x="304.882804" xlink:href="#mf522b49ce5" y="270.486017"/>
     <use style="fill:#1f77b4;stroke:#1f77b4;" x="305.246719" xlink:href="#mf522b49ce5" y="271.80039"/>
     <use style="fill:#1f77b4;stroke:#1f77b4;" x="305.608007" xlink:href="#mf522b49ce5" y="270.190276"/>
     <use style="fill:#1f77b4;stroke:#1f77b4;" x="305.966705" xlink:href="#mf522b49ce5" y="272.149717"/>
     <use style="fill:#1f77b4;stroke:#1f77b4;" x="306.32285" xlink:href="#mf522b49ce5" y="274.166699"/>
     <use style="fill:#1f77b4;stroke:#1f77b4;" x="306.676477" xlink:href="#mf522b49ce5" y="272.180782"/>
     <use style="fill:#1f77b4;stroke:#1f77b4;" x="307.027623" xlink:href="#mf522b49ce5" y="274.434785"/>
     <use style="fill:#1f77b4;stroke:#1f77b4;" x="307.376323" xlink:href="#mf522b49ce5" y="272.922915"/>
     <use style="fill:#1f77b4;stroke:#1f77b4;" x="307.722609" xlink:href="#mf522b49ce5" y="272.345291"/>
     <use style="fill:#1f77b4;stroke:#1f77b4;" x="308.066515" xlink:href="#mf522b49ce5" y="274.203595"/>
     <use style="fill:#1f77b4;stroke:#1f77b4;" x="308.408073" xlink:href="#mf522b49ce5" y="277.096159"/>
     <use style="fill:#1f77b4;stroke:#1f77b4;" x="308.747316" xlink:href="#mf522b49ce5" y="274.504341"/>
     <use style="fill:#1f77b4;stroke:#1f77b4;" x="309.084274" xlink:href="#mf522b49ce5" y="277.817718"/>
     <use style="fill:#1f77b4;stroke:#1f77b4;" x="309.418979" xlink:href="#mf522b49ce5" y="277.679512"/>
     <use style="fill:#1f77b4;stroke:#1f77b4;" x="309.751459" xlink:href="#mf522b49ce5" y="277.047432"/>
     <use style="fill:#1f77b4;stroke:#1f77b4;" x="310.081745" xlink:href="#mf522b49ce5" y="277.941426"/>
     <use style="fill:#1f77b4;stroke:#1f77b4;" x="310.409865" xlink:href="#mf522b49ce5" y="275.026626"/>
     <use style="fill:#1f77b4;stroke:#1f77b4;" x="310.735847" xlink:href="#mf522b49ce5" y="277.149811"/>
     <use style="fill:#1f77b4;stroke:#1f77b4;" x="311.05972" xlink:href="#mf522b49ce5" y="277.986032"/>
     <use style="fill:#1f77b4;stroke:#1f77b4;" x="311.381509" xlink:href="#mf522b49ce5" y="280.83883"/>
     <use style="fill:#1f77b4;stroke:#1f77b4;" x="311.701243" xlink:href="#mf522b49ce5" y="276.466205"/>
     <use style="fill:#1f77b4;stroke:#1f77b4;" x="312.018946" xlink:href="#mf522b49ce5" y="279.863716"/>
     <use style="fill:#1f77b4;stroke:#1f77b4;" x="312.334645" xlink:href="#mf522b49ce5" y="279.352325"/>
     <use style="fill:#1f77b4;stroke:#1f77b4;" x="312.648365" xlink:href="#mf522b49ce5" y="278.49924"/>
     <use style="fill:#1f77b4;stroke:#1f77b4;" x="312.96013" xlink:href="#mf522b49ce5" y="282.536018"/>
     <use style="fill:#1f77b4;stroke:#1f77b4;" x="313.269964" xlink:href="#mf522b49ce5" y="283.468903"/>
     <use style="fill:#1f77b4;stroke:#1f77b4;" x="313.577892" xlink:href="#mf522b49ce5" y="286.412092"/>
     <use style="fill:#1f77b4;stroke:#1f77b4;" x="313.883937" xlink:href="#mf522b49ce5" y="285.420198"/>
     <use style="fill:#1f77b4;stroke:#1f77b4;" x="314.188121" xlink:href="#mf522b49ce5" y="284.396253"/>
     <use style="fill:#1f77b4;stroke:#1f77b4;" x="314.490467" xlink:href="#mf522b49ce5" y="282.207206"/>
     <use style="fill:#1f77b4;stroke:#1f77b4;" x="314.790997" xlink:href="#mf522b49ce5" y="286.284171"/>
     <use style="fill:#1f77b4;stroke:#1f77b4;" x="315.089733" xlink:href="#mf522b49ce5" y="283.320499"/>
     <use style="fill:#1f77b4;stroke:#1f77b4;" x="315.386696" xlink:href="#mf522b49ce5" y="282.341716"/>
     <use style="fill:#1f77b4;stroke:#1f77b4;" x="315.681907" xlink:href="#mf522b49ce5" y="287.446835"/>
     <use style="fill:#1f77b4;stroke:#1f77b4;" x="315.975387" xlink:href="#mf522b49ce5" y="283.03586"/>
     <use style="fill:#1f77b4;stroke:#1f77b4;" x="316.267155" xlink:href="#mf522b49ce5" y="288.188303"/>
     <use style="fill:#1f77b4;stroke:#1f77b4;" x="316.557232" xlink:href="#mf522b49ce5" y="287.328218"/>
     <use style="fill:#1f77b4;stroke:#1f77b4;" x="316.845637" xlink:href="#mf522b49ce5" y="285.448769"/>
     <use style="fill:#1f77b4;stroke:#1f77b4;" x="317.132389" xlink:href="#mf522b49ce5" y="290.026726"/>
     <use style="fill:#1f77b4;stroke:#1f77b4;" x="317.417507" xlink:href="#mf522b49ce5" y="286.622091"/>
     <use style="fill:#1f77b4;stroke:#1f77b4;" x="317.70101" xlink:href="#mf522b49ce5" y="289.895919"/>
     <use style="fill:#1f77b4;stroke:#1f77b4;" x="317.982916" xlink:href="#mf522b49ce5" y="288.068"/>
     <use style="fill:#1f77b4;stroke:#1f77b4;" x="318.263242" xlink:href="#mf522b49ce5" y="295.663636"/>
     <use style="fill:#1f77b4;stroke:#1f77b4;" x="318.542007" xlink:href="#mf522b49ce5" y="288.733101"/>
     <use style="fill:#1f77b4;stroke:#1f77b4;" x="318.819227" xlink:href="#mf522b49ce5" y="292.308318"/>
     <use style="fill:#1f77b4;stroke:#1f77b4;" x="319.09492" xlink:href="#mf522b49ce5" y="291.1615"/>
     <use style="fill:#1f77b4;stroke:#1f77b4;" x="319.369102" xlink:href="#mf522b49ce5" y="292.838597"/>
     <use style="fill:#1f77b4;stroke:#1f77b4;" x="319.64179" xlink:href="#mf522b49ce5" y="289.123982"/>
     <use style="fill:#1f77b4;stroke:#1f77b4;" x="319.913" xlink:href="#mf522b49ce5" y="292.46488"/>
     <use style="fill:#1f77b4;stroke:#1f77b4;" x="320.182748" xlink:href="#mf522b49ce5" y="292.262742"/>
     <use style="fill:#1f77b4;stroke:#1f77b4;" x="320.451049" xlink:href="#mf522b49ce5" y="292.759698"/>
     <use style="fill:#1f77b4;stroke:#1f77b4;" x="320.71792" xlink:href="#mf522b49ce5" y="289.808896"/>
     <use style="fill:#1f77b4;stroke:#1f77b4;" x="320.983375" xlink:href="#mf522b49ce5" y="291.308282"/>
     <use style="fill:#1f77b4;stroke:#1f77b4;" x="321.247429" xlink:href="#mf522b49ce5" y="290.515452"/>
     <use style="fill:#1f77b4;stroke:#1f77b4;" x="321.510097" xlink:href="#mf522b49ce5" y="290.647814"/>
     <use style="fill:#1f77b4;stroke:#1f77b4;" x="321.771393" xlink:href="#mf522b49ce5" y="294.761812"/>
     <use style="fill:#1f77b4;stroke:#1f77b4;" x="322.031332" xlink:href="#mf522b49ce5" y="288.575133"/>
     <use style="fill:#1f77b4;stroke:#1f77b4;" x="322.289927" xlink:href="#mf522b49ce5" y="288.248557"/>
     <use style="fill:#1f77b4;stroke:#1f77b4;" x="322.547193" xlink:href="#mf522b49ce5" y="286.915157"/>
     <use style="fill:#1f77b4;stroke:#1f77b4;" x="322.803143" xlink:href="#mf522b49ce5" y="277.237724"/>
     <use style="fill:#1f77b4;stroke:#1f77b4;" x="323.057791" xlink:href="#mf522b49ce5" y="266.02207"/>
    </g>
   </g>
   <g id="line2d_47">
    <path clip-path="url(#p35c24e98d2)" d="M 58.696204 21.022824 
L 93.379987 70.023961 
L 113.668699 92.295428 
L 173.913235 154.513071 
L 183.036263 163.567476 
L 190.749674 170.947504 
L 197.431334 177.099745 
L 206.030398 184.672608 
L 213.36616 190.843359 
L 221.725233 197.60679 
L 235.148658 208.107402 
L 251.350355 220.788813 
L 260.117239 227.924431 
L 267.574699 234.255379 
L 274.735196 240.616162 
L 281.583372 246.995075 
L 288.119361 253.375126 
L 294.801021 260.202149 
L 301.872085 267.75736 
L 309.418979 276.165735 
L 317.982916 286.060215 
L 323.057791 292.049412 
L 323.057791 292.049412 
" style="fill:none;stroke:#ff7f0e;stroke-linecap:square;stroke-width:1.5;"/>
   </g>
   <g id="patch_3">
    <path d="M 45.478125 309.4 
L 45.478125 7.2 
" style="fill:none;stroke:#000000;stroke-linecap:square;stroke-linejoin:miter;stroke-width:0.8;"/>
   </g>
   <g id="patch_4">
    <path d="M 336.27587 309.4 
L 336.27587 7.2 
" style="fill:none;stroke:#000000;stroke-linecap:square;stroke-linejoin:miter;stroke-width:0.8;"/>
   </g>
   <g id="patch_5">
    <path d="M 45.478125 309.4 
L 336.27587 309.4 
" style="fill:none;stroke:#000000;stroke-linecap:square;stroke-linejoin:miter;stroke-width:0.8;"/>
   </g>
   <g id="patch_6">
    <path d="M 45.478125 7.2 
L 336.27587 7.2 
" style="fill:none;stroke:#000000;stroke-linecap:square;stroke-linejoin:miter;stroke-width:0.8;"/>
   </g>
  </g>
  <g id="axes_2">
   <g id="patch_7">
    <path d="M 406.297588 309.4 
L 697.095333 309.4 
L 697.095333 7.2 
L 406.297588 7.2 
z
" style="fill:#ffffff;"/>
   </g>
   <g id="matplotlib.axis_3">
    <g id="xtick_23">
     <g id="line2d_48">
      <g>
       <use style="stroke:#000000;stroke-width:0.8;" x="406.297588" xlink:href="#md01cd9a430" y="309.4"/>
      </g>
     </g>
     <g id="text_9">
      <!-- $\mathdefault{10^{3}}$ -->
      <defs>
       <path d="M 40.578125 39.3125 
Q 47.65625 37.796875 51.625 33 
Q 55.609375 28.21875 55.609375 21.1875 
Q 55.609375 10.40625 48.1875 4.484375 
Q 40.765625 -1.421875 27.09375 -1.421875 
Q 22.515625 -1.421875 17.65625 -0.515625 
Q 12.796875 0.390625 7.625 2.203125 
L 7.625 11.71875 
Q 11.71875 9.328125 16.59375 8.109375 
Q 21.484375 6.890625 26.8125 6.890625 
Q 36.078125 6.890625 40.9375 10.546875 
Q 45.796875 14.203125 45.796875 21.1875 
Q 45.796875 27.640625 41.28125 31.265625 
Q 36.765625 34.90625 28.71875 34.90625 
L 20.21875 34.90625 
L 20.21875 43.015625 
L 29.109375 43.015625 
Q 36.375 43.015625 40.234375 45.921875 
Q 44.09375 48.828125 44.09375 54.296875 
Q 44.09375 59.90625 40.109375 62.90625 
Q 36.140625 65.921875 28.71875 65.921875 
Q 24.65625 65.921875 20.015625 65.03125 
Q 15.375 64.15625 9.8125 62.3125 
L 9.8125 71.09375 
Q 15.4375 72.65625 20.34375 73.4375 
Q 25.25 74.21875 29.59375 74.21875 
Q 40.828125 74.21875 47.359375 69.109375 
Q 53.90625 64.015625 53.90625 55.328125 
Q 53.90625 49.265625 50.4375 45.09375 
Q 46.96875 40.921875 40.578125 39.3125 
z
" id="DejaVuSans-51"/>
      </defs>
      <g transform="translate(397.497588 323.998437)scale(0.1 -0.1)">
       <use transform="translate(0 0.765625)" xlink:href="#DejaVuSans-49"/>
       <use transform="translate(63.623047 0.765625)" xlink:href="#DejaVuSans-48"/>
       <use transform="translate(128.203125 39.046875)scale(0.7)" xlink:href="#DejaVuSans-51"/>
      </g>
     </g>
    </g>
    <g id="xtick_24">
     <g id="line2d_49">
      <g>
       <use style="stroke:#000000;stroke-width:0.8;" x="503.23017" xlink:href="#md01cd9a430" y="309.4"/>
      </g>
     </g>
     <g id="text_10">
      <!-- $\mathdefault{10^{4}}$ -->
      <g transform="translate(494.43017 323.998437)scale(0.1 -0.1)">
       <use transform="translate(0 0.684375)" xlink:href="#DejaVuSans-49"/>
       <use transform="translate(63.623047 0.684375)" xlink:href="#DejaVuSans-48"/>
       <use transform="translate(128.203125 38.965625)scale(0.7)" xlink:href="#DejaVuSans-52"/>
      </g>
     </g>
    </g>
    <g id="xtick_25">
     <g id="line2d_50">
      <g>
       <use style="stroke:#000000;stroke-width:0.8;" x="600.162752" xlink:href="#md01cd9a430" y="309.4"/>
      </g>
     </g>
     <g id="text_11">
      <!-- $\mathdefault{10^{5}}$ -->
      <g transform="translate(591.362752 323.998437)scale(0.1 -0.1)">
       <use transform="translate(0 0.684375)" xlink:href="#DejaVuSans-49"/>
       <use transform="translate(63.623047 0.684375)" xlink:href="#DejaVuSans-48"/>
       <use transform="translate(128.203125 38.965625)scale(0.7)" xlink:href="#DejaVuSans-53"/>
      </g>
     </g>
    </g>
    <g id="xtick_26">
     <g id="line2d_51">
      <g>
       <use style="stroke:#000000;stroke-width:0.8;" x="697.095333" xlink:href="#md01cd9a430" y="309.4"/>
      </g>
     </g>
     <g id="text_12">
      <!-- $\mathdefault{10^{6}}$ -->
      <g transform="translate(688.295333 323.998437)scale(0.1 -0.1)">
       <use transform="translate(0 0.765625)" xlink:href="#DejaVuSans-49"/>
       <use transform="translate(63.623047 0.765625)" xlink:href="#DejaVuSans-48"/>
       <use transform="translate(128.203125 39.046875)scale(0.7)" xlink:href="#DejaVuSans-54"/>
      </g>
     </g>
    </g>
    <g id="xtick_27">
     <g id="line2d_52">
      <g>
       <use style="stroke:#000000;stroke-width:0.6;" x="435.477203" xlink:href="#mf407211da3" y="309.4"/>
      </g>
     </g>
    </g>
    <g id="xtick_28">
     <g id="line2d_53">
      <g>
       <use style="stroke:#000000;stroke-width:0.6;" x="452.546183" xlink:href="#mf407211da3" y="309.4"/>
      </g>
     </g>
    </g>
    <g id="xtick_29">
     <g id="line2d_54">
      <g>
       <use style="stroke:#000000;stroke-width:0.6;" x="464.656818" xlink:href="#mf407211da3" y="309.4"/>
      </g>
     </g>
    </g>
    <g id="xtick_30">
     <g id="line2d_55">
      <g>
       <use style="stroke:#000000;stroke-width:0.6;" x="474.050555" xlink:href="#mf407211da3" y="309.4"/>
      </g>
     </g>
    </g>
    <g id="xtick_31">
     <g id="line2d_56">
      <g>
       <use style="stroke:#000000;stroke-width:0.6;" x="481.725798" xlink:href="#mf407211da3" y="309.4"/>
      </g>
     </g>
    </g>
    <g id="xtick_32">
     <g id="line2d_57">
      <g>
       <use style="stroke:#000000;stroke-width:0.6;" x="488.215123" xlink:href="#mf407211da3" y="309.4"/>
      </g>
     </g>
    </g>
    <g id="xtick_33">
     <g id="line2d_58">
      <g>
       <use style="stroke:#000000;stroke-width:0.6;" x="493.836432" xlink:href="#mf407211da3" y="309.4"/>
      </g>
     </g>
    </g>
    <g id="xtick_34">
     <g id="line2d_59">
      <g>
       <use style="stroke:#000000;stroke-width:0.6;" x="498.794778" xlink:href="#mf407211da3" y="309.4"/>
      </g>
     </g>
    </g>
    <g id="xtick_35">
     <g id="line2d_60">
      <g>
       <use style="stroke:#000000;stroke-width:0.6;" x="532.409785" xlink:href="#mf407211da3" y="309.4"/>
      </g>
     </g>
    </g>
    <g id="xtick_36">
     <g id="line2d_61">
      <g>
       <use style="stroke:#000000;stroke-width:0.6;" x="549.478765" xlink:href="#mf407211da3" y="309.4"/>
      </g>
     </g>
    </g>
    <g id="xtick_37">
     <g id="line2d_62">
      <g>
       <use style="stroke:#000000;stroke-width:0.6;" x="561.589399" xlink:href="#mf407211da3" y="309.4"/>
      </g>
     </g>
    </g>
    <g id="xtick_38">
     <g id="line2d_63">
      <g>
       <use style="stroke:#000000;stroke-width:0.6;" x="570.983137" xlink:href="#mf407211da3" y="309.4"/>
      </g>
     </g>
    </g>
    <g id="xtick_39">
     <g id="line2d_64">
      <g>
       <use style="stroke:#000000;stroke-width:0.6;" x="578.65838" xlink:href="#mf407211da3" y="309.4"/>
      </g>
     </g>
    </g>
    <g id="xtick_40">
     <g id="line2d_65">
      <g>
       <use style="stroke:#000000;stroke-width:0.6;" x="585.147705" xlink:href="#mf407211da3" y="309.4"/>
      </g>
     </g>
    </g>
    <g id="xtick_41">
     <g id="line2d_66">
      <g>
       <use style="stroke:#000000;stroke-width:0.6;" x="590.769014" xlink:href="#mf407211da3" y="309.4"/>
      </g>
     </g>
    </g>
    <g id="xtick_42">
     <g id="line2d_67">
      <g>
       <use style="stroke:#000000;stroke-width:0.6;" x="595.72736" xlink:href="#mf407211da3" y="309.4"/>
      </g>
     </g>
    </g>
    <g id="xtick_43">
     <g id="line2d_68">
      <g>
       <use style="stroke:#000000;stroke-width:0.6;" x="629.342366" xlink:href="#mf407211da3" y="309.4"/>
      </g>
     </g>
    </g>
    <g id="xtick_44">
     <g id="line2d_69">
      <g>
       <use style="stroke:#000000;stroke-width:0.6;" x="646.411347" xlink:href="#mf407211da3" y="309.4"/>
      </g>
     </g>
    </g>
    <g id="xtick_45">
     <g id="line2d_70">
      <g>
       <use style="stroke:#000000;stroke-width:0.6;" x="658.521981" xlink:href="#mf407211da3" y="309.4"/>
      </g>
     </g>
    </g>
    <g id="xtick_46">
     <g id="line2d_71">
      <g>
       <use style="stroke:#000000;stroke-width:0.6;" x="667.915719" xlink:href="#mf407211da3" y="309.4"/>
      </g>
     </g>
    </g>
    <g id="xtick_47">
     <g id="line2d_72">
      <g>
       <use style="stroke:#000000;stroke-width:0.6;" x="675.590961" xlink:href="#mf407211da3" y="309.4"/>
      </g>
     </g>
    </g>
    <g id="xtick_48">
     <g id="line2d_73">
      <g>
       <use style="stroke:#000000;stroke-width:0.6;" x="682.080286" xlink:href="#mf407211da3" y="309.4"/>
      </g>
     </g>
    </g>
    <g id="xtick_49">
     <g id="line2d_74">
      <g>
       <use style="stroke:#000000;stroke-width:0.6;" x="687.701596" xlink:href="#mf407211da3" y="309.4"/>
      </g>
     </g>
    </g>
    <g id="xtick_50">
     <g id="line2d_75">
      <g>
       <use style="stroke:#000000;stroke-width:0.6;" x="692.659942" xlink:href="#mf407211da3" y="309.4"/>
      </g>
     </g>
    </g>
    <g id="text_13">
     <!-- $t$ (years ago) -->
     <defs>
      <path d="M 42.28125 54.6875 
L 40.921875 47.703125 
L 23 47.703125 
L 17.1875 18.015625 
Q 16.890625 16.359375 16.75 15.234375 
Q 16.609375 14.109375 16.609375 13.484375 
Q 16.609375 10.359375 18.484375 8.9375 
Q 20.359375 7.515625 24.515625 7.515625 
L 33.59375 7.515625 
L 32.078125 0 
L 23.484375 0 
Q 15.484375 0 11.546875 3.125 
Q 7.625 6.25 7.625 12.59375 
Q 7.625 13.71875 7.765625 15.0625 
Q 7.90625 16.40625 8.203125 18.015625 
L 14.015625 47.703125 
L 6.390625 47.703125 
L 7.8125 54.6875 
L 15.28125 54.6875 
L 18.3125 70.21875 
L 27.296875 70.21875 
L 24.3125 54.6875 
z
" id="DejaVuSans-Oblique-116"/>
      <path d="M 31 75.875 
Q 24.46875 64.65625 21.28125 53.65625 
Q 18.109375 42.671875 18.109375 31.390625 
Q 18.109375 20.125 21.3125 9.0625 
Q 24.515625 -2 31 -13.1875 
L 23.1875 -13.1875 
Q 15.875 -1.703125 12.234375 9.375 
Q 8.59375 20.453125 8.59375 31.390625 
Q 8.59375 42.28125 12.203125 53.3125 
Q 15.828125 64.359375 23.1875 75.875 
z
" id="DejaVuSans-40"/>
      <path d="M 45.40625 27.984375 
Q 45.40625 37.75 41.375 43.109375 
Q 37.359375 48.484375 30.078125 48.484375 
Q 22.859375 48.484375 18.828125 43.109375 
Q 14.796875 37.75 14.796875 27.984375 
Q 14.796875 18.265625 18.828125 12.890625 
Q 22.859375 7.515625 30.078125 7.515625 
Q 37.359375 7.515625 41.375 12.890625 
Q 45.40625 18.265625 45.40625 27.984375 
z
M 54.390625 6.78125 
Q 54.390625 -7.171875 48.1875 -13.984375 
Q 42 -20.796875 29.203125 -20.796875 
Q 24.46875 -20.796875 20.265625 -20.09375 
Q 16.0625 -19.390625 12.109375 -17.921875 
L 12.109375 -9.1875 
Q 16.0625 -11.328125 19.921875 -12.34375 
Q 23.78125 -13.375 27.78125 -13.375 
Q 36.625 -13.375 41.015625 -8.765625 
Q 45.40625 -4.15625 45.40625 5.171875 
L 45.40625 9.625 
Q 42.625 4.78125 38.28125 2.390625 
Q 33.9375 0 27.875 0 
Q 17.828125 0 11.671875 7.65625 
Q 5.515625 15.328125 5.515625 27.984375 
Q 5.515625 40.671875 11.671875 48.328125 
Q 17.828125 56 27.875 56 
Q 33.9375 56 38.28125 53.609375 
Q 42.625 51.21875 45.40625 46.390625 
L 45.40625 54.6875 
L 54.390625 54.6875 
z
" id="DejaVuSans-103"/>
      <path d="M 8.015625 75.875 
L 15.828125 75.875 
Q 23.140625 64.359375 26.78125 53.3125 
Q 30.421875 42.28125 30.421875 31.390625 
Q 30.421875 20.453125 26.78125 9.375 
Q 23.140625 -1.703125 15.828125 -13.1875 
L 8.015625 -13.1875 
Q 14.5 -2 17.703125 9.0625 
Q 20.90625 20.125 20.90625 31.390625 
Q 20.90625 42.671875 17.703125 53.65625 
Q 14.5 64.65625 8.015625 75.875 
z
" id="DejaVuSans-41"/>
     </defs>
     <g transform="translate(519.596461 337.678125)scale(0.1 -0.1)">
      <use transform="translate(0 0.125)" xlink:href="#DejaVuSans-Oblique-116"/>
      <use transform="translate(39.208984 0.125)" xlink:href="#DejaVuSans-32"/>
      <use transform="translate(70.996094 0.125)" xlink:href="#DejaVuSans-40"/>
      <use transform="translate(110.009766 0.125)" xlink:href="#DejaVuSans-121"/>
      <use transform="translate(169.189453 0.125)" xlink:href="#DejaVuSans-101"/>
      <use transform="translate(230.712891 0.125)" xlink:href="#DejaVuSans-97"/>
      <use transform="translate(291.992188 0.125)" xlink:href="#DejaVuSans-114"/>
      <use transform="translate(333.105469 0.125)" xlink:href="#DejaVuSans-115"/>
      <use transform="translate(385.205078 0.125)" xlink:href="#DejaVuSans-32"/>
      <use transform="translate(416.992188 0.125)" xlink:href="#DejaVuSans-97"/>
      <use transform="translate(478.271484 0.125)" xlink:href="#DejaVuSans-103"/>
      <use transform="translate(541.748047 0.125)" xlink:href="#DejaVuSans-111"/>
      <use transform="translate(602.929688 0.125)" xlink:href="#DejaVuSans-41"/>
     </g>
    </g>
   </g>
   <g id="matplotlib.axis_4">
    <g id="ytick_24">
     <g id="line2d_76">
      <g>
       <use style="stroke:#000000;stroke-width:0.8;" x="406.297588" xlink:href="#me297839b79" y="37.617672"/>
      </g>
     </g>
     <g id="text_14">
      <!-- $\mathdefault{10^{5}}$ -->
      <g transform="translate(381.697588 41.41689)scale(0.1 -0.1)">
       <use transform="translate(0 0.684375)" xlink:href="#DejaVuSans-49"/>
       <use transform="translate(63.623047 0.684375)" xlink:href="#DejaVuSans-48"/>
       <use transform="translate(128.203125 38.965625)scale(0.7)" xlink:href="#DejaVuSans-53"/>
      </g>
     </g>
    </g>
    <g id="ytick_25">
     <g id="line2d_77">
      <g>
       <use style="stroke:#000000;stroke-width:0.6;" x="406.297588" xlink:href="#md9f08be75a" y="251.005545"/>
      </g>
     </g>
     <g id="text_15">
      <!-- $\mathdefault{2\times10^{4}}$ -->
      <defs>
       <path d="M 70.125 53.71875 
L 47.796875 31.296875 
L 70.125 8.984375 
L 64.3125 3.078125 
L 41.890625 25.484375 
L 19.484375 3.078125 
L 13.71875 8.984375 
L 35.984375 31.296875 
L 13.71875 53.71875 
L 19.484375 59.625 
L 41.890625 37.203125 
L 64.3125 59.625 
z
" id="DejaVuSans-215"/>
      </defs>
      <g transform="translate(364.697588 254.804763)scale(0.1 -0.1)">
       <use transform="translate(0 0.684375)" xlink:href="#DejaVuSans-50"/>
       <use transform="translate(83.105469 0.684375)" xlink:href="#DejaVuSans-215"/>
       <use transform="translate(186.376953 0.684375)" xlink:href="#DejaVuSans-49"/>
       <use transform="translate(250 0.684375)" xlink:href="#DejaVuSans-48"/>
       <use transform="translate(314.580078 38.965625)scale(0.7)" xlink:href="#DejaVuSans-52"/>
      </g>
     </g>
    </g>
    <g id="ytick_26">
     <g id="line2d_78">
      <g>
       <use style="stroke:#000000;stroke-width:0.6;" x="406.297588" xlink:href="#md9f08be75a" y="197.246815"/>
      </g>
     </g>
     <g id="text_16">
      <!-- $\mathdefault{3\times10^{4}}$ -->
      <g transform="translate(364.697588 201.046034)scale(0.1 -0.1)">
       <use transform="translate(0 0.684375)" xlink:href="#DejaVuSans-51"/>
       <use transform="translate(83.105469 0.684375)" xlink:href="#DejaVuSans-215"/>
       <use transform="translate(186.376953 0.684375)" xlink:href="#DejaVuSans-49"/>
       <use transform="translate(250 0.684375)" xlink:href="#DejaVuSans-48"/>
       <use transform="translate(314.580078 38.965625)scale(0.7)" xlink:href="#DejaVuSans-52"/>
      </g>
     </g>
    </g>
    <g id="ytick_27">
     <g id="line2d_79">
      <g>
       <use style="stroke:#000000;stroke-width:0.6;" x="406.297588" xlink:href="#md9f08be75a" y="159.10439"/>
      </g>
     </g>
     <g id="text_17">
      <!-- $\mathdefault{4\times10^{4}}$ -->
      <g transform="translate(364.697588 162.903609)scale(0.1 -0.1)">
       <use transform="translate(0 0.684375)" xlink:href="#DejaVuSans-52"/>
       <use transform="translate(83.105469 0.684375)" xlink:href="#DejaVuSans-215"/>
       <use transform="translate(186.376953 0.684375)" xlink:href="#DejaVuSans-49"/>
       <use transform="translate(250 0.684375)" xlink:href="#DejaVuSans-48"/>
       <use transform="translate(314.580078 38.965625)scale(0.7)" xlink:href="#DejaVuSans-52"/>
      </g>
     </g>
    </g>
    <g id="ytick_28">
     <g id="line2d_80">
      <g>
       <use style="stroke:#000000;stroke-width:0.6;" x="406.297588" xlink:href="#md9f08be75a" y="129.518826"/>
      </g>
     </g>
    </g>
    <g id="ytick_29">
     <g id="line2d_81">
      <g>
       <use style="stroke:#000000;stroke-width:0.6;" x="406.297588" xlink:href="#md9f08be75a" y="105.345661"/>
      </g>
     </g>
     <g id="text_18">
      <!-- $\mathdefault{6\times10^{4}}$ -->
      <g transform="translate(364.697588 109.144879)scale(0.1 -0.1)">
       <use transform="translate(0 0.684375)" xlink:href="#DejaVuSans-54"/>
       <use transform="translate(83.105469 0.684375)" xlink:href="#DejaVuSans-215"/>
       <use transform="translate(186.376953 0.684375)" xlink:href="#DejaVuSans-49"/>
       <use transform="translate(250 0.684375)" xlink:href="#DejaVuSans-48"/>
       <use transform="translate(314.580078 38.965625)scale(0.7)" xlink:href="#DejaVuSans-52"/>
      </g>
     </g>
    </g>
    <g id="ytick_30">
     <g id="line2d_82">
      <g>
       <use style="stroke:#000000;stroke-width:0.6;" x="406.297588" xlink:href="#md9f08be75a" y="84.90754"/>
      </g>
     </g>
    </g>
    <g id="ytick_31">
     <g id="line2d_83">
      <g>
       <use style="stroke:#000000;stroke-width:0.6;" x="406.297588" xlink:href="#md9f08be75a" y="67.203235"/>
      </g>
     </g>
    </g>
    <g id="ytick_32">
     <g id="line2d_84">
      <g>
       <use style="stroke:#000000;stroke-width:0.6;" x="406.297588" xlink:href="#md9f08be75a" y="51.586931"/>
      </g>
     </g>
    </g>
    <g id="text_19">
     <!-- $\eta(t)$ -->
     <defs>
      <path d="M 57.859375 33.015625 
L 47.40625 -20.796875 
L 38.421875 -20.796875 
L 48.828125 32.71875 
Q 50.34375 40.484375 48.046875 44.34375 
Q 45.796875 48.1875 39.75 48.1875 
Q 32.46875 48.1875 27.34375 43.5625 
Q 22.265625 38.921875 20.703125 30.90625 
L 14.703125 0 
L 5.671875 0 
L 16.3125 54.6875 
L 25.34375 54.6875 
L 23.6875 46.1875 
Q 27.828125 51.125 32.71875 53.5625 
Q 37.546875 56 43.265625 56 
Q 52.6875 56 56.390625 50.203125 
Q 60.0625 44.34375 57.859375 33.015625 
z
" id="DejaVuSans-Oblique-951"/>
     </defs>
     <g transform="translate(358.597588 167.35)rotate(-90)scale(0.1 -0.1)">
      <use transform="translate(0 0.125)" xlink:href="#DejaVuSans-Oblique-951"/>
      <use transform="translate(63.378906 0.125)" xlink:href="#DejaVuSans-40"/>
      <use transform="translate(102.392578 0.125)" xlink:href="#DejaVuSans-Oblique-116"/>
      <use transform="translate(141.601562 0.125)" xlink:href="#DejaVuSans-41"/>
     </g>
    </g>
   </g>
   <g id="line2d_85">
    <path clip-path="url(#p737a5b8da8)" d="M -1 20.936364 
L 365.703032 20.936364 
L 368.285156 21.077589 
L 370.867279 21.402145 
L 373.449402 21.908792 
L 376.031525 22.606337 
L 378.613648 23.505753 
L 381.195772 24.63077 
L 383.777895 26.00104 
L 386.360018 27.594905 
L 388.942141 29.413127 
L 391.524265 31.511668 
L 394.106388 33.936755 
L 396.688511 36.683685 
L 399.270634 39.720568 
L 401.852758 43.021146 
L 404.434881 46.574916 
L 407.017004 50.382603 
L 409.599127 54.450667 
L 412.18125 58.788171 
L 414.763374 63.406212 
L 417.345497 68.31875 
L 419.92762 73.541084 
L 422.509743 79.091771 
L 425.091867 85.005672 
L 427.67399 91.345038 
L 430.256113 98.187732 
L 432.838236 105.596047 
L 435.42036 113.591453 
L 438.002483 122.15225 
L 440.584606 131.228734 
L 445.748852 150.684294 
L 450.913099 171.442518 
L 461.241592 213.963395 
L 463.823715 223.993026 
L 466.405838 233.402248 
L 468.987962 241.96389 
L 471.570085 249.443231 
L 474.152208 255.612074 
L 476.734331 260.264323 
L 479.316454 263.231341 
L 481.898578 264.395415 
L 494.809194 264.395415 
L 497.391317 263.87429 
L 499.97344 262.002118 
L 502.555564 258.99418 
L 505.137687 255.08856 
L 507.71981 250.533446 
L 512.884056 240.456166 
L 515.46618 235.398821 
L 518.048303 230.615019 
L 520.630426 226.299729 
L 523.212549 222.632415 
L 525.794673 219.777852 
L 528.376796 217.887444 
L 530.958919 217.100997 
L 546.451659 217.100997 
L 549.033782 217.681968 
L 551.615905 219.730803 
L 554.198028 223.160799 
L 556.780151 227.85883 
L 559.362275 233.680256 
L 561.944398 240.443241 
L 564.526521 247.923922 
L 572.272891 271.789499 
L 574.855014 279.083521 
L 577.437137 285.438135 
L 580.019261 290.507313 
L 582.601384 293.992541 
L 585.183507 295.663636 
L 598.094123 295.663636 
L 600.676246 294.244895 
L 603.25837 291.104564 
L 605.840493 286.431175 
L 608.422616 280.439196 
L 611.004739 273.356439 
L 613.586863 265.414375 
L 616.168986 256.840703 
L 621.333232 238.656257 
L 626.497479 220.364799 
L 629.079602 211.592565 
L 631.661725 203.25506 
L 634.243848 195.471086 
L 636.825972 188.344721 
L 639.408095 181.966975 
L 641.990218 176.417449 
L 644.572341 171.765895 
L 647.154465 168.073521 
L 649.736588 165.393898 
L 652.318711 163.773733 
L 654.900834 163.253817 
L 675.55782 163.253817 
L 678.139943 163.660141 
L 680.722067 164.833221 
L 683.30419 166.671749 
L 685.886313 169.067976 
L 688.468436 171.908058 
L 691.050559 175.072913 
L 701.379052 188.527527 
L 703.961176 191.503594 
L 706.543299 194.121968 
L 709.125422 196.30739 
L 711.707545 198.004283 
L 714.095333 199.090702 
L 714.095333 199.090702 
" style="fill:none;stroke:#1f77b4;stroke-linecap:square;stroke-width:1.5;"/>
   </g>
   <g id="patch_8">
    <path d="M 406.297588 309.4 
L 406.297588 7.2 
" style="fill:none;stroke:#000000;stroke-linecap:square;stroke-linejoin:miter;stroke-width:0.8;"/>
   </g>
   <g id="patch_9">
    <path d="M 697.095333 309.4 
L 697.095333 7.2 
" style="fill:none;stroke:#000000;stroke-linecap:square;stroke-linejoin:miter;stroke-width:0.8;"/>
   </g>
   <g id="patch_10">
    <path d="M 406.297588 309.4 
L 697.095333 309.4 
" style="fill:none;stroke:#000000;stroke-linecap:square;stroke-linejoin:miter;stroke-width:0.8;"/>
   </g>
   <g id="patch_11">
    <path d="M 406.297588 7.2 
L 697.095333 7.2 
" style="fill:none;stroke:#000000;stroke-linecap:square;stroke-linejoin:miter;stroke-width:0.8;"/>
   </g>
  </g>
 </g>
 <defs>
  <clipPath id="p35c24e98d2">
   <rect height="302.2" width="290.797745" x="45.478125" y="7.2"/>
  </clipPath>
  <clipPath id="p737a5b8da8">
   <rect height="302.2" width="290.797745" x="406.297588" y="7.2"/>
  </clipPath>
 </defs>
</svg>
