<svg baseProfile="full" height="200" version="1.1" width="500" xmlns="http://www.w3.org/2000/svg" xmlns:ev="http://www.w3.org/2001/xml-events" xmlns:xlink="http://www.w3.org/1999/xlink"><defs/><g id="tree_0"><g fill="none" id="edges" stroke="black"><path d="M 26.40858208955224 144.71824627850393 V 30.0 H 98.39023874766777" id="edge_0_90450"/><path d="M 12.388059701492537 170.0 V 144.71824627850393 H 26.40858208955224" id="edge_0_26"/><path d="M 40.42910447761194 150.7544804949 V 144.71824627850393 H 26.40858208955224" id="edge_0_83152"/><path d="M 20.503731343283583 167.93384787515626 V 150.7544804949 H 40.42910447761194" id="edge_0_33450"/><path d="M 15.970149253731343 169.54304122197956 V 167.93384787515626 H 20.503731343283583" id="edge_0_3948"/><path d="M 14.776119402985074 170.0 V 169.54304122197956 H 15.970149253731343" id="edge_0_76"/><path d="M 17.16417910447761 170.0 V 169.54304122197956 H 15.970149253731343" id="edge_0_192"/><path d="M 25.03731343283582 168.46760556744658 V 167.93384787515626 H 20.503731343283583" id="edge_0_28917"/><path d="M 20.746268656716417 168.8333353280471 V 168.46760556744658 H 25.03731343283582" id="edge_0_22417"/><path d="M 19.55223880597015 170.0 V 168.8333353280471 H 20.746268656716417" id="edge_0_136"/><path d="M 21.940298507462686 170.0 V 168.8333353280471 H 20.746268656716417" id="edge_0_171"/><path d="M 29.328358208955223 168.58555569028167 V 168.46760556744658 H 25.03731343283582" id="edge_0_27375"/><path d="M 25.52238805970149 168.88307929997194 V 168.58555569028167 H 29.328358208955223" id="edge_0_21105"/><path d="M 24.328358208955223 170.0 V 168.88307929997194 H 25.52238805970149" id="edge_0_74"/><path d="M 26.71641791044776 170.0 V 168.88307929997194 H 25.52238805970149" id="edge_0_196"/><path d="M 33.134328358208954 168.79335258186515 V 168.58555569028167 H 29.328358208955223" id="edge_0_23325"/><path d="M 30.298507462686565 169.16006491483958 V 168.79335258186515 H 33.134328358208954" id="edge_0_13220"/><path d="M 29.104477611940297 170.0 V 169.16006491483958 H 30.298507462686565" id="edge_0_77"/><path d="M 31.492537313432834 170.0 V 169.16006491483958 H 30.298507462686565" id="edge_0_115"/><path d="M 35.97014925373134 168.86207801688826 V 168.79335258186515 H 33.134328358208954" id="edge_0_21665"/><path d="M 33.88059701492537 170.0 V 168.86207801688826 H 35.97014925373134" id="edge_0_116"/><path d="M 38.059701492537314 168.86210253531758 V 168.86207801688826 H 35.97014925373134" id="edge_0_21663"/><path d="M 36.26865671641791 170.0 V 168.86210253531758 H 38.059701492537314" id="edge_0_135"/><path d="M 39.850746268656714 169.56745726131547 V 168.86210253531758 H 38.059701492537314" id="edge_0_3549"/><path d="M 38.656716417910445 170.0 V 169.56745726131547 H 39.850746268656714" id="edge_0_190"/><path d="M 41.04477611940298 170.0 V 169.56745726131547 H 39.850746268656714" id="edge_0_195"/><path d="M 60.3544776119403 164.88526064805458 V 150.7544804949 H 40.42910447761194" id="edge_0_43876"/><path d="M 47.31343283582089 169.0291133478365 V 164.88526064805458 H 60.3544776119403" id="edge_0_17014"/><path d="M 44.62686567164179 169.69367962630153 V 169.0291133478365 H 47.31343283582089" id="edge_0_1924"/><path d="M 43.43283582089552 170.0 V 169.69367962630153 H 44.62686567164179" id="edge_0_19"/><path d="M 45.82089552238806 170.0 V 169.69367962630153 H 44.62686567164179" id="edge_0_89"/><path d="M 50.0 169.266666452572 V 169.0291133478365 H 47.31343283582089" id="edge_0_10183"/><path d="M 48.208955223880594 170.0 V 169.266666452572 H 50.0" id="edge_0_98"/><path d="M 51.7910447761194 169.36460756521222 V 169.266666452572 H 50.0" id="edge_0_7640"/><path d="M 50.59701492537313 170.0 V 169.36460756521222 H 51.7910447761194" id="edge_0_112"/><path d="M 52.98507462686567 170.0 V 169.36460756521222 H 51.7910447761194" id="edge_0_149"/><path d="M 73.3955223880597 166.65817017750987 V 164.88526064805458 H 60.3544776119403" id="edge_0_39399"/><path d="M 59.92537313432835 168.07158585579296 V 166.65817017750987 H 73.3955223880597" id="edge_0_32480"/><path d="M 55.373134328358205 170.0 V 168.07158585579296 H 59.92537313432835" id="edge_0_69"/><path d="M 64.4776119402985 168.7186124142603 V 168.07158585579296 H 59.92537313432835" id="edge_0_25042"/><path d="M 59.850746268656714 169.25592182939852 V 168.7186124142603 H 64.4776119402985" id="edge_0_10481"/><path d="M 57.76119402985074 170.0 V 169.25592182939852 H 59.850746268656714" id="edge_0_28"/><path d="M 61.940298507462686 169.2887842217694 V 169.25592182939852 H 59.850746268656714" id="edge_0_9607"/><path d="M 60.14925373134328 170.0 V 169.2887842217694 H 61.940298507462686" id="edge_0_152"/><path d="M 63.731343283582085 169.62060740947095 V 169.2887842217694 H 61.940298507462686" id="edge_0_2769"/><path d="M 62.537313432835816 170.0 V 169.62060740947095 H 63.731343283582085" id="edge_0_61"/><path d="M 64.92537313432835 170.0 V 169.62060740947095 H 63.731343283582085" id="edge_0_142"/><path d="M 69.1044776119403 168.9421388004479 V 168.7186124142603 H 64.4776119402985" id="edge_0_19532"/><path d="M 67.31343283582089 170.0 V 168.9421388004479 H 69.1044776119403" id="edge_0_150"/><path d="M 70.8955223880597 169.87210434223525 V 168.9421388004479 H 69.1044776119403" id="edge_0_517"/><path d="M 69.70149253731343 170.0 V 169.87210434223525 H 70.8955223880597" id="edge_0_59"/><path d="M 72.08955223880596 170.0 V 169.87210434223525 H 70.8955223880597" id="edge_0_109"/><path d="M 86.86567164179104 166.7887185144427 V 166.65817017750987 H 73.3955223880597" id="edge_0_38894"/><path d="M 79.8507462686567 168.81910889064704 V 166.7887185144427 H 86.86567164179104" id="edge_0_22750"/><path d="M 76.2686567164179 169.6436910712149 V 168.81910889064704 H 79.8507462686567" id="edge_0_2476"/><path d="M 74.4776119402985 170.0 V 169.6436910712149 H 76.2686567164179" id="edge_0_111"/><path d="M 78.0597014925373 169.9361111495024 V 169.6436910712149 H 76.2686567164179" id="edge_0_294"/><path d="M 76.86567164179104 170.0 V 169.9361111495024 H 78.0597014925373" id="edge_0_79"/><path d="M 79.25373134328358 170.0 V 169.9361111495024 H 78.0597014925373" id="edge_0_169"/><path d="M 83.43283582089552 169.27802234526726 V 168.81910889064704 H 79.8507462686567" id="edge_0_9887"/><path d="M 81.64179104477611 170.0 V 169.27802234526726 H 83.43283582089552" id="edge_0_45"/><path d="M 85.22388059701493 169.68419044037503 V 169.27802234526726 H 83.43283582089552" id="edge_0_2011"/><path d="M 84.02985074626865 170.0 V 169.68419044037503 H 85.22388059701493" id="edge_0_96"/><path d="M 86.41791044776119 170.0 V 169.68419044037503 H 85.22388059701493" id="edge_0_126"/><path d="M 93.88059701492536 167.72181020831044 V 166.7887185144427 H 86.86567164179104" id="edge_0_34712"/><path d="M 90.59701492537312 168.86615715290958 V 167.72181020831044 H 93.88059701492536" id="edge_0_21558"/><path d="M 88.80597014925372 170.0 V 168.86615715290958 H 90.59701492537312" id="edge_0_118"/><path d="M 92.38805970149252 168.94679150120817 V 168.86615715290958 H 90.59701492537312" id="edge_0_19418"/><path d="M 91.19402985074626 170.0 V 168.94679150120817 H 92.38805970149252" id="edge_0_38"/><path d="M 93.5820895522388 170.0 V 168.94679150120817 H 92.38805970149252" id="edge_0_155"/><path d="M 97.1641791044776 168.84039418829397 V 167.72181020831044 H 93.88059701492536" id="edge_0_22231"/><path d="M 95.97014925373134 170.0 V 168.84039418829397 H 97.1641791044776" id="edge_0_99"/><path d="M 98.35820895522387 170.0 V 168.84039418829397 H 97.1641791044776" id="edge_0_170"/><path d="M 170.37189540578328 59.54139117571418 V 30.0 H 98.39023874766777" id="edge_0_110400"/><path d="M 119.58488805970146 146.2417175762255 V 59.54139117571418 H 170.37189540578328" id="edge_0_89175"/><path d="M 104.32835820895521 168.6111701706043 V 146.2417175762255 H 119.58488805970146" id="edge_0_27024"/><path d="M 101.94029850746267 169.98806674873418 V 168.6111701706043 H 104.32835820895521" id="edge_0_207"/><path d="M 100.74626865671641 170.0 V 169.98806674873418 H 101.94029850746267" id="edge_0_2"/><path d="M 103.13432835820895 170.0 V 169.98806674873418 H 101.94029850746267" id="edge_0_65"/><path d="M 106.71641791044775 169.152980809098 V 168.6111701706043 H 104.32835820895521" id="edge_0_13408"/><path d="M 105.52238805970148 170.0 V 169.152980809098 H 106.71641791044775" id="edge_0_0"/><path d="M 107.91044776119402 170.0 V 169.152980809098 H 106.71641791044775" id="edge_0_188"/><path d="M 134.84141791044772 150.28662552309817 V 146.2417175762255 H 119.58488805970146" id="edge_0_83922"/><path d="M 120.29850746268656 163.24137479077987 V 150.28662552309817 H 134.84141791044772" id="edge_0_47460"/><path d="M 115.3731343283582 167.84257385534303 V 163.24137479077987 H 120.29850746268656" id="edge_0_34051"/><path d="M 112.08955223880596 168.77029399801856 V 167.84257385534303 H 115.3731343283582" id="edge_0_23813"/><path d="M 110.29850746268656 170.0 V 168.77029399801856 H 112.08955223880596" id="edge_0_85"/><path d="M 113.88059701492537 169.69469239085075 V 168.77029399801856 H 112.08955223880596" id="edge_0_1911"/><path d="M 112.6865671641791 170.0 V 169.69469239085075 H 113.88059701492537" id="edge_0_54"/><path d="M 115.07462686567163 170.0 V 169.69469239085075 H 113.88059701492537" id="edge_0_133"/><path d="M 118.65671641791045 168.5971865956941 V 167.84257385534303 H 115.3731343283582" id="edge_0_27234"/><path d="M 117.46268656716417 170.0 V 168.5971865956941 H 118.65671641791045" id="edge_0_57"/><path d="M 119.8507462686567 170.0 V 168.5971865956941 H 118.65671641791045" id="edge_0_105"/><path d="M 125.22388059701493 167.438270971591 V 163.24137479077987 H 120.29850746268656" id="edge_0_36171"/><path d="M 122.23880597014924 170.0 V 167.438270971591 H 125.22388059701493" id="edge_0_34"/><path d="M 128.2089552238806 168.85631716869733 V 167.438270971591 H 125.22388059701493" id="edge_0_21806"/><path d="M 125.82089552238804 169.71295431825646 V 168.85631716869733 H 128.2089552238806" id="edge_0_1738"/><path d="M 124.62686567164178 170.0 V 169.71295431825646 H 125.82089552238804" id="edge_0_168"/><path d="M 127.01492537313432 170.0 V 169.71295431825646 H 125.82089552238804" id="edge_0_193"/><path d="M 130.59701492537312 169.1817464949727 V 168.85631716869733 H 128.2089552238806" id="edge_0_12600"/><path d="M 129.40298507462686 170.0 V 169.1817464949727 H 130.59701492537312" id="edge_0_146"/><path d="M 131.7910447761194 170.0 V 169.1817464949727 H 130.59701492537312" id="edge_0_174"/><path d="M 149.38432835820885 155.7035375135882 V 150.28662552309817 H 134.84141791044772" id="edge_0_71232"/><path d="M 135.97014925373134 169.7767785246312 V 155.7035375135882 H 149.38432835820885" id="edge_0_1191"/><path d="M 134.17910447761193 170.0 V 169.7767785246312 H 135.97014925373134" id="edge_0_90"/><path d="M 137.7611940298507 169.84273947888832 V 169.7767785246312 H 135.97014925373134" id="edge_0_702"/><path d="M 136.56716417910445 170.0 V 169.84273947888832 H 137.7611940298507" id="edge_0_156"/><path d="M 138.95522388059698 170.0 V 169.84273947888832 H 137.7611940298507" id="edge_0_186"/><path d="M 162.7985074626864 161.41052184202422 V 155.7035375135882 H 149.38432835820885" id="edge_0_52640"/><path d="M 149.92537313432825 168.38049022324182 V 161.41052184202422 H 162.7985074626864" id="edge_0_29847"/><path d="M 143.43283582089546 169.3012357793059 V 168.38049022324182 H 149.92537313432825" id="edge_0_9243"/><path d="M 141.3432835820895 170.0 V 169.3012357793059 H 143.43283582089546" id="edge_0_117"/><path d="M 145.52238805970143 169.43479615167502 V 169.3012357793059 H 143.43283582089546" id="edge_0_5992"/><path d="M 143.73134328358202 170.0 V 169.43479615167502 H 145.52238805970143" id="edge_0_30"/><path d="M 147.3134328358208 169.92927335469585 V 169.43479615167502 H 145.52238805970143" id="edge_0_315"/><path d="M 146.11940298507454 170.0 V 169.92927335469585 H 147.3134328358208" id="edge_0_84"/><path d="M 148.50746268656707 170.0 V 169.92927335469585 H 147.3134328358208" id="edge_0_123"/><path d="M 156.41791044776107 168.85933912650984 V 168.38049022324182 H 149.92537313432825" id="edge_0_21737"/><path d="M 152.686567164179 169.12931683022722 V 168.85933912650984 H 156.41791044776107" id="edge_0_14088"/><path d="M 150.8955223880596 170.0 V 169.12931683022722 H 152.686567164179" id="edge_0_68"/><path d="M 154.47761194029837 169.99725567113185 V 169.12931683022722 H 152.686567164179" id="edge_0_201"/><path d="M 153.2835820895521 170.0 V 169.99725567113185 H 154.47761194029837" id="edge_0_8"/><path d="M 155.67164179104464 170.0 V 169.99725567113185 H 154.47761194029837" id="edge_0_48"/><path d="M 160.14925373134312 168.91173493699335 V 168.85933912650984 H 156.41791044776107" id="edge_0_20266"/><path d="M 158.05970149253716 170.0 V 168.91173493699335 H 160.14925373134312" id="edge_0_18"/><path d="M 162.2388059701491 169.93268629032906 V 168.91173493699335 H 160.14925373134312" id="edge_0_304"/><path d="M 160.44776119402968 170.0 V 169.93268629032906 H 162.2388059701491" id="edge_0_159"/><path d="M 164.02985074626847 169.9900293025905 V 169.93268629032906 H 162.2388059701491" id="edge_0_206"/><path d="M 162.8358208955222 170.0 V 169.9900293025905 H 164.02985074626847" id="edge_0_181"/><path d="M 165.22388059701473 170.0 V 169.9900293025905 H 164.02985074626847" id="edge_0_191"/><path d="M 175.67164179104452 165.30797391421282 V 161.41052184202422 H 162.7985074626864" id="edge_0_43044"/><path d="M 170.5970149253729 168.38835370092835 V 165.30797391421282 H 175.67164179104452" id="edge_0_29760"/><path d="M 167.61194029850725 170.0 V 168.38835370092835 H 170.5970149253729" id="edge_0_67"/><path d="M 173.58208955223856 168.5921589238567 V 168.38835370092835 H 170.5970149253729" id="edge_0_27296"/><path d="M 171.19402985074603 169.47969352474811 V 168.5921589238567 H 173.58208955223856" id="edge_0_5035"/><path d="M 169.99999999999977 170.0 V 169.47969352474811 H 171.19402985074603" id="edge_0_41"/><path d="M 172.3880597014923 170.0 V 169.47969352474811 H 171.19402985074603" id="edge_0_53"/><path d="M 175.97014925373108 168.8374652471157 V 168.5921589238567 H 173.58208955223856" id="edge_0_22300"/><path d="M 174.77611940298482 170.0 V 168.8374652471157 H 175.97014925373108" id="edge_0_93"/><path d="M 177.16417910447734 170.0 V 168.8374652471157 H 175.97014925373108" id="edge_0_130"/><path d="M 180.74626865671613 167.63825007932414 V 165.30797391421282 H 175.67164179104452" id="edge_0_35176"/><path d="M 179.55223880596986 170.0 V 167.63825007932414 H 180.74626865671613" id="edge_0_46"/><path d="M 181.9402985074624 170.0 V 167.63825007932414 H 180.74626865671613" id="edge_0_86"/><path d="M 221.15890275186513 122.41887110931123 V 59.54139117571418 H 170.37189540578328" id="edge_0_100139"/><path d="M 186.41791044776087 168.04934568169372 V 122.41887110931123 H 221.15890275186513" id="edge_0_32675"/><path d="M 184.3283582089549 170.0 V 168.04934568169372 H 186.41791044776087" id="edge_0_17"/><path d="M 188.50746268656684 169.05545179221974 V 168.04934568169372 H 186.41791044776087" id="edge_0_16303"/><path d="M 186.71641791044743 170.0 V 169.05545179221974 H 188.50746268656684" id="edge_0_107"/><path d="M 190.29850746268622 169.24201661548355 V 169.05545179221974 H 188.50746268656684" id="edge_0_10857"/><path d="M 189.10447761193996 170.0 V 169.24201661548355 H 190.29850746268622" id="edge_0_13"/><path d="M 191.49253731343248 170.0 V 169.24201661548355 H 190.29850746268622" id="edge_0_108"/><path d="M 255.8998950559694 142.437690660114 V 122.41887110931123 H 221.15890275186513" id="edge_0_92091"/><path d="M 195.6716417910444 169.44041003610397 V 142.437690660114 H 255.8998950559694" id="edge_0_5866"/><path d="M 193.880597014925 170.0 V 169.44041003610397 H 195.6716417910444" id="edge_0_27"/><path d="M 197.4626865671638 169.55702324746608 V 169.44041003610397 H 195.6716417910444" id="edge_0_3708"/><path d="M 196.26865671641752 170.0 V 169.55702324746608 H 197.4626865671638" id="edge_0_24"/><path d="M 198.65671641791005 170.0 V 169.55702324746608 H 197.4626865671638" id="edge_0_183"/><path d="M 316.1281483208944 142.8457811962072 V 142.437690660114 H 255.8998950559694" id="edge_0_91805"/><path d="M 264.0555037313425 152.96322442078935 V 142.8457811962072 H 316.1281483208944" id="edge_0_78561"/><path d="M 224.15578358208901 164.01411527053034 V 152.96322442078935 H 264.0555037313425" id="edge_0_45578"/><path d="M 205.4104477611936 168.5255517691008 V 164.01411527053034 H 224.15578358208901" id="edge_0_28224"/><path d="M 202.23880597014883 169.35935319863395 V 168.5255517691008 H 205.4104477611936" id="edge_0_7761"/><path d="M 201.04477611940257 170.0 V 169.35935319863395 H 202.23880597014883" id="edge_0_95"/><path d="M 203.4328358208951 170.0 V 169.35935319863395 H 202.23880597014883" id="edge_0_137"/><path d="M 208.58208955223836 168.68736757720947 V 168.5255517691008 H 205.4104477611936" id="edge_0_25716"/><path d="M 205.82089552238762 170.0 V 168.68736757720947 H 208.58208955223836" id="edge_0_40"/><path d="M 211.34328358208907 168.77269781887642 V 168.68736757720947 H 208.58208955223836" id="edge_0_23751"/><path d="M 208.20895522388014 170.0 V 168.77269781887642 H 211.34328358208907" id="edge_0_20"/><path d="M 214.477611940298 168.88232841713756 V 168.77269781887642 H 211.34328358208907" id="edge_0_21127"/><path d="M 211.79104477611892 169.99092733941765 V 168.88232841713756 H 214.477611940298" id="edge_0_205"/><path d="M 210.59701492537266 170.0 V 169.99092733941765 H 211.79104477611892" id="edge_0_11"/><path d="M 212.98507462686518 170.0 V 169.99092733941765 H 211.79104477611892" id="edge_0_14"/><path d="M 217.1641791044771 168.999806042618 V 168.88232841713756 H 214.477611940298" id="edge_0_17949"/><path d="M 215.3731343283577 170.0 V 168.999806042618 H 217.1641791044771" id="edge_0_9"/><path d="M 218.9552238805965 169.31512451097754 V 168.999806042618 H 217.1641791044771" id="edge_0_8797"/><path d="M 217.76119402985023 170.0 V 169.31512451097754 H 218.9552238805965" id="edge_0_1"/><path d="M 220.14925373134275 170.0 V 169.31512451097754 H 218.9552238805965" id="edge_0_6"/><path d="M 242.90111940298442 165.63857160990463 V 164.01411527053034 H 224.15578358208901" id="edge_0_42325"/><path d="M 227.16417910447706 168.20009443193848 V 165.63857160990463 H 242.90111940298442" id="edge_0_31448"/><path d="M 222.53731343283528 170.0 V 168.20009443193848 H 227.16417910447706" id="edge_0_56"/><path d="M 231.7910447761188 168.3446341677417 V 168.20009443193848 H 227.16417910447706" id="edge_0_30197"/><path d="M 227.01492537313376 168.64498692610675 V 168.3446341677417 H 231.7910447761188" id="edge_0_26464"/><path d="M 224.9253731343278 170.0 V 168.64498692610675 H 227.01492537313376" id="edge_0_35"/><path d="M 229.10447761193973 168.87102897690662 V 168.64498692610675 H 227.01492537313376" id="edge_0_21441"/><path d="M 227.31343283582032 170.0 V 168.87102897690662 H 229.10447761193973" id="edge_0_172"/><path d="M 230.8955223880591 168.92837154231313 V 168.87102897690662 H 229.10447761193973" id="edge_0_19862"/><path d="M 229.70149253731284 170.0 V 168.92837154231313 H 230.8955223880591" id="edge_0_122"/><path d="M 232.08955223880537 170.0 V 168.92837154231313 H 230.8955223880591" id="edge_0_198"/><path d="M 236.56716417910386 168.4018334267135 V 168.3446341677417 H 231.7910447761188" id="edge_0_29612"/><path d="M 234.4776119402979 170.0 V 168.4018334267135 H 236.56716417910386" id="edge_0_44"/><path d="M 238.65671641790982 169.0249192290556 V 168.4018334267135 H 236.56716417910386" id="edge_0_17147"/><path d="M 236.8656716417904 170.0 V 169.0249192290556 H 238.65671641790982" id="edge_0_88"/><path d="M 240.4477611940292 169.06202676969195 V 169.0249192290556 H 238.65671641790982" id="edge_0_16147"/><path d="M 239.25373134328294 170.0 V 169.06202676969195 H 240.4477611940292" id="edge_0_58"/><path d="M 241.64179104477546 170.0 V 169.06202676969195 H 240.4477611940292" id="edge_0_144"/><path d="M 258.6380597014918 167.84059927875992 V 165.63857160990463 H 242.90111940298442" id="edge_0_34072"/><path d="M 248.17164179104407 168.5503469899447 V 167.84059927875992 H 258.6380597014918" id="edge_0_27871"/><path d="M 245.22388059701424 169.791373746971 V 168.5503469899447 H 248.17164179104407" id="edge_0_1071"/><path d="M 244.02985074626798 170.0 V 169.791373746971 H 245.22388059701424" id="edge_0_25"/><path d="M 246.4179104477605 170.0 V 169.791373746971 H 245.22388059701424" id="edge_0_70"/><path d="M 251.11940298507392 168.84226597757987 V 168.5503469899447 H 248.17164179104407" id="edge_0_22174"/><path d="M 248.80597014925303 170.0 V 168.84226597757987 H 251.11940298507392" id="edge_0_189"/><path d="M 253.4328358208948 168.9303174448944 V 168.84226597757987 H 251.11940298507392" id="edge_0_19811"/><path d="M 251.19402985074555 170.0 V 168.9303174448944 H 253.4328358208948" id="edge_0_83"/><path d="M 255.67164179104404 169.24666474639778 V 168.9303174448944 H 253.4328358208948" id="edge_0_10729"/><path d="M 253.58208955223807 170.0 V 169.24666474639778 H 255.67164179104404" id="edge_0_101"/><path d="M 257.76119402985 169.72087592863593 V 169.24666474639778 H 255.67164179104404" id="edge_0_1676"/><path d="M 255.9701492537306 170.0 V 169.72087592863593 H 257.76119402985" id="edge_0_161"/><path d="M 259.5522388059694 169.75481024312717 V 169.72087592863593 H 257.76119402985" id="edge_0_1373"/><path d="M 258.3582089552231 170.0 V 169.75481024312717 H 259.5522388059694" id="edge_0_5"/><path d="M 260.74626865671564 170.0 V 169.75481024312717 H 259.5522388059694" id="edge_0_167"/><path d="M 269.1044776119395 168.4990074609017 V 167.84059927875992 H 258.6380597014918" id="edge_0_28556"/><path d="M 263.13432835820817 170.0 V 168.4990074609017 H 269.1044776119395" id="edge_0_180"/><path d="M 275.0746268656708 168.73553098979716 V 168.4990074609017 H 269.1044776119395" id="edge_0_24663"/><path d="M 267.6119402985066 169.14177463693545 V 168.73553098979716 H 275.0746268656708" id="edge_0_13725"/><path d="M 265.5223880597007 170.0 V 169.14177463693545 H 267.6119402985066" id="edge_0_63"/><path d="M 269.70149253731256 169.25829669141532 V 169.14177463693545 H 267.6119402985066" id="edge_0_10423"/><path d="M 267.9104477611932 170.0 V 169.25829669141532 H 269.70149253731256" id="edge_0_15"/><path d="M 271.49253731343197 169.47944681969892 V 169.25829669141532 H 269.70149253731256" id="edge_0_5040"/><path d="M 270.29850746268573 170.0 V 169.47944681969892 H 271.49253731343197" id="edge_0_47"/><path d="M 272.68656716417826 170.0 V 169.47944681969892 H 271.49253731343197" id="edge_0_87"/><path d="M 282.53731343283494 168.77820225032787 V 168.73553098979716 H 275.0746268656708" id="edge_0_23660"/><path d="M 278.65671641790954 169.2274099435596 V 168.77820225032787 H 282.53731343283494" id="edge_0_11265"/><path d="M 276.268656716417 169.68794796823454 V 169.2274099435596 H 278.65671641790954" id="edge_0_1970"/><path d="M 275.0746268656708 170.0 V 169.68794796823454 H 276.268656716417" id="edge_0_16"/><path d="M 277.4626865671633 170.0 V 169.68794796823454 H 276.268656716417" id="edge_0_50"/><path d="M 281.04477611940206 169.33543824865 V 169.2274099435596 H 278.65671641790954" id="edge_0_8321"/><path d="M 279.8507462686558 170.0 V 169.33543824865 H 281.04477611940206" id="edge_0_7"/><path d="M 282.23880597014835 170.0 V 169.33543824865 H 281.04477611940206" id="edge_0_102"/><path d="M 286.4179104477603 168.80542013119248 V 168.77820225032787 H 282.53731343283494" id="edge_0_23069"/><path d="M 284.62686567164087 170.0 V 168.80542013119248 H 286.4179104477603" id="edge_0_143"/><path d="M 288.2089552238797 169.09866874654784 V 168.80542013119248 H 286.4179104477603" id="edge_0_15080"/><path d="M 287.0149253731334 170.0 V 169.09866874654784 H 288.2089552238797" id="edge_0_42"/><path d="M 289.4029850746259 170.0 V 169.09866874654784 H 288.2089552238797" id="edge_0_82"/><path d="M 303.955223880596 158.06036603392712 V 152.96322442078935 H 264.0555037313425" id="edge_0_63753"/><path d="M 295.37313432835725 168.72177921984132 V 158.06036603392712 H 303.955223880596" id="edge_0_24982"/><path d="M 292.98507462686473 169.60830711716642 V 168.72177921984132 H 295.37313432835725" id="edge_0_2931"/><path d="M 291.79104477611844 170.0 V 169.60830711716642 H 292.98507462686473" id="edge_0_128"/><path d="M 294.17910447761096 170.0 V 169.60830711716642 H 292.98507462686473" id="edge_0_177"/><path d="M 297.7611940298498 169.10320445828867 V 168.72177921984132 H 295.37313432835725" id="edge_0_14933"/><path d="M 296.5671641791035 170.0 V 169.10320445828867 H 297.7611940298498" id="edge_0_80"/><path d="M 298.955223880596 170.0 V 169.10320445828867 H 297.7611940298498" id="edge_0_151"/><path d="M 312.5373134328347 163.0389838471511 V 158.06036603392712 H 303.955223880596" id="edge_0_47963"/><path d="M 304.9253731343273 168.5638137861087 V 163.0389838471511 H 312.5373134328347" id="edge_0_27678"/><path d="M 301.34328358208853 170.0 V 168.5638137861087 H 304.9253731343273" id="edge_0_31"/><path d="M 308.5074626865661 168.77057427792886 V 168.5638137861087 H 304.9253731343273" id="edge_0_23807"/><path d="M 304.9253731343273 169.08765882700985 V 168.77057427792886 H 308.5074626865661" id="edge_0_15401"/><path d="M 303.73134328358105 170.0 V 169.08765882700985 H 304.9253731343273" id="edge_0_43"/><path d="M 306.1194029850736 170.0 V 169.08765882700985 H 304.9253731343273" id="edge_0_60"/><path d="M 312.08955223880486 168.81435754000017 V 168.77057427792886 H 308.5074626865661" id="edge_0_22859"/><path d="M 309.70149253731233 169.97527927495327 V 168.81435754000017 H 312.08955223880486" id="edge_0_216"/><path d="M 308.5074626865661 170.0 V 169.97527927495327 H 309.70149253731233" id="edge_0_29"/><path d="M 310.8955223880586 170.0 V 169.97527927495327 H 309.70149253731233" id="edge_0_73"/><path d="M 314.4776119402974 168.91268109515002 V 168.81435754000017 H 312.08955223880486" id="edge_0_20246"/><path d="M 313.28358208955115 170.0 V 168.91268109515002 H 314.4776119402974" id="edge_0_22"/><path d="M 315.67164179104367 170.0 V 168.91268109515002 H 314.4776119402974" id="edge_0_119"/><path d="M 320.1492537313421 164.68470325483767 V 163.0389838471511 H 312.5373134328347" id="edge_0_44221"/><path d="M 318.0597014925362 170.0 V 164.68470325483767 H 320.1492537313421" id="edge_0_103"/><path d="M 322.23880597014806 168.77080390157954 V 164.68470325483767 H 320.1492537313421" id="edge_0_23799"/><path d="M 320.4477611940287 170.0 V 168.77080390157954 H 322.23880597014806" id="edge_0_158"/><path d="M 324.02985074626747 169.17981797316875 V 168.77080390157954 H 322.23880597014806" id="edge_0_12658"/><path d="M 322.83582089552124 170.0 V 169.17981797316875 H 324.02985074626747" id="edge_0_32"/><path d="M 325.22388059701376 170.0 V 169.17981797316875 H 324.02985074626747" id="edge_0_110"/><path d="M 368.20079291044635 146.22530506139515 V 142.8457811962072 H 316.1281483208944" id="edge_0_89197"/><path d="M 327.6119402985063 170.0 V 146.22530506139515 H 368.20079291044635" id="edge_0_51"/><path d="M 408.78964552238637 153.65910600426787 V 146.22530506139515 H 368.20079291044635" id="edge_0_76849"/><path d="M 372.7518656716403 166.32841426798038 V 153.65910600426787 H 408.78964552238637" id="edge_0_40459"/><path d="M 356.24999999999864 168.18491177122488 V 166.32841426798038 H 372.7518656716403" id="edge_0_31582"/><path d="M 341.3059701492525 168.41016379815872 V 168.18491177122488 H 356.24999999999864" id="edge_0_29532"/><path d="M 333.5820895522376 169.03710732958896 V 168.41016379815872 H 341.3059701492525" id="edge_0_16805"/><path d="M 331.1940298507451 169.9999897329268 V 169.03710732958896 H 333.5820895522376" id="edge_0_200"/><path d="M 329.9999999999988 170.0 V 169.9999897329268 H 331.1940298507451" id="edge_0_139"/><path d="M 332.38805970149133 170.0 V 169.9999897329268 H 331.1940298507451" id="edge_0_175"/><path d="M 335.97014925373014 169.49519644832256 V 169.03710732958896 H 333.5820895522376" id="edge_0_4762"/><path d="M 334.77611940298385 170.0 V 169.49519644832256 H 335.97014925373014" id="edge_0_97"/><path d="M 337.1641791044764 170.0 V 169.49519644832256 H 335.97014925373014" id="edge_0_153"/><path d="M 349.02985074626736 168.56013824215984 V 168.41016379815872 H 341.3059701492525" id="edge_0_27733"/><path d="M 343.43283582089424 169.0239688309772 V 168.56013824215984 H 349.02985074626736" id="edge_0_17182"/><path d="M 340.7462686567152 169.3860973276046 V 169.0239688309772 H 343.43283582089424" id="edge_0_7097"/><path d="M 339.5522388059689 170.0 V 169.3860973276046 H 340.7462686567152" id="edge_0_55"/><path d="M 341.9402985074614 170.0 V 169.3860973276046 H 340.7462686567152" id="edge_0_163"/><path d="M 346.1194029850733 169.35100633120078 V 169.0239688309772 H 343.43283582089424" id="edge_0_7963"/><path d="M 344.32835820895394 170.0 V 169.35100633120078 H 346.1194029850733" id="edge_0_162"/><path d="M 347.9104477611927 169.35722938862995 V 169.35100633120078 H 346.1194029850733" id="edge_0_7814"/><path d="M 346.71641791044647 170.0 V 169.35722938862995 H 347.9104477611927" id="edge_0_37"/><path d="M 349.104477611939 170.0 V 169.35722938862995 H 347.9104477611927" id="edge_0_124"/><path d="M 354.6268656716404 168.66010312453602 V 168.56013824215984 H 349.02985074626736" id="edge_0_26201"/><path d="M 351.4925373134315 170.0 V 168.66010312453602 H 354.6268656716404" id="edge_0_187"/><path d="M 357.7611940298494 168.8921723356697 V 168.66010312453602 H 354.6268656716404" id="edge_0_20847"/><path d="M 355.0746268656703 169.79070608106272 V 168.8921723356697 H 357.7611940298494" id="edge_0_1076"/><path d="M 353.88059701492404 170.0 V 169.79070608106272 H 355.0746268656703" id="edge_0_100"/><path d="M 356.26865671641656 170.0 V 169.79070608106272 H 355.0746268656703" id="edge_0_185"/><path d="M 360.44776119402843 169.16281254037037 V 168.8921723356697 H 357.7611940298494" id="edge_0_13132"/><path d="M 358.6567164179091 170.0 V 169.16281254037037 H 360.44776119402843" id="edge_0_125"/><path d="M 362.23880597014784 169.74556851307108 V 169.16281254037037 H 360.44776119402843" id="edge_0_1445"/><path d="M 361.0447761194016 170.0 V 169.74556851307108 H 362.23880597014784" id="edge_0_4"/><path d="M 363.4328358208941 170.0 V 169.74556851307108 H 362.23880597014784" id="edge_0_92"/><path d="M 371.1940298507448 168.2367367765504 V 168.18491177122488 H 356.24999999999864" id="edge_0_31163"/><path d="M 367.61194029850606 168.69896379392392 V 168.2367367765504 H 371.1940298507448" id="edge_0_25461"/><path d="M 365.82089552238665 170.0 V 168.69896379392392 H 367.61194029850606" id="edge_0_71"/><path d="M 369.40298507462546 169.00409898847244 V 168.69896379392392 H 367.61194029850606" id="edge_0_17820"/><path d="M 368.2089552238792 170.0 V 169.00409898847244 H 369.40298507462546" id="edge_0_91"/><path d="M 370.5970149253717 170.0 V 169.00409898847244 H 369.40298507462546" id="edge_0_121"/><path d="M 374.77611940298357 168.52303824297206 V 168.2367367765504 H 371.1940298507448" id="edge_0_28259"/><path d="M 372.9850746268642 170.0 V 168.52303824297206 H 374.77611940298357" id="edge_0_52"/><path d="M 376.567164179103 168.8491776802603 V 168.52303824297206 H 374.77611940298357" id="edge_0_22001"/><path d="M 375.37313432835674 170.0 V 168.8491776802603 H 376.567164179103" id="edge_0_134"/><path d="M 377.76119402984926 170.0 V 168.8491776802603 H 376.567164179103" id="edge_0_173"/><path d="M 389.253731343282 167.00813810186207 V 166.32841426798038 H 372.7518656716403" id="edge_0_38080"/><path d="M 381.343283582088 169.1301025876451 V 167.00813810186207 H 389.253731343282" id="edge_0_14059"/><path d="M 380.1492537313418 170.0 V 169.1301025876451 H 381.343283582088" id="edge_0_33"/><path d="M 382.5373134328343 170.0 V 169.1301025876451 H 381.343283582088" id="edge_0_165"/><path d="M 397.16417910447603 168.296494880826 V 167.00813810186207 H 389.253731343282" id="edge_0_30669"/><path d="M 387.1641791044761 168.68181513537334 V 168.296494880826 H 397.16417910447603" id="edge_0_25828"/><path d="M 384.92537313432683 170.0 V 168.68181513537334 H 387.1641791044761" id="edge_0_62"/><path d="M 389.40298507462535 168.74266790388273 V 168.68181513537334 H 387.1641791044761" id="edge_0_24493"/><path d="M 387.31343283581936 170.0 V 168.74266790388273 H 389.40298507462535" id="edge_0_131"/><path d="M 391.4925373134313 168.74438248192305 V 168.74266790388273 H 389.40298507462535" id="edge_0_24447"/><path d="M 389.7014925373119 170.0 V 168.74438248192305 H 391.4925373134313" id="edge_0_145"/><path d="M 393.2835820895507 168.7785568711421 V 168.74438248192305 H 391.4925373134313" id="edge_0_23654"/><path d="M 392.0895522388044 170.0 V 168.7785568711421 H 393.2835820895507" id="edge_0_81"/><path d="M 394.4776119402969 170.0 V 168.7785568711421 H 393.2835820895507" id="edge_0_164"/><path d="M 407.1641791044759 168.47085123922486 V 168.296494880826 H 397.16417910447603" id="edge_0_28873"/><path d="M 399.5522388059685 169.11334734084593 V 168.47085123922486 H 407.1641791044759" id="edge_0_14605"/><path d="M 396.86567164178945 170.0 V 169.11334734084593 H 399.5522388059685" id="edge_0_127"/><path d="M 402.2388059701476 169.26961699719456 V 169.11334734084593 H 399.5522388059685" id="edge_0_10099"/><path d="M 399.25373134328197 170.0 V 169.26961699719456 H 402.2388059701476" id="edge_0_179"/><path d="M 405.2238805970133 169.36790999471808 V 169.26961699719456 H 402.2388059701476" id="edge_0_7563"/><path d="M 402.8358208955208 169.71475577372684 V 169.36790999471808 H 405.2238805970133" id="edge_0_1722"/><path d="M 401.6417910447745 170.0 V 169.71475577372684 H 402.8358208955208" id="edge_0_3"/><path d="M 404.029850746267 170.0 V 169.71475577372684 H 402.8358208955208" id="edge_0_36"/><path d="M 407.61194029850583 169.64339267669865 V 169.36790999471808 H 405.2238805970133" id="edge_0_2479"/><path d="M 406.41791044775954 170.0 V 169.64339267669865 H 407.61194029850583" id="edge_0_148"/><path d="M 408.80597014925206 170.0 V 169.64339267669865 H 407.61194029850583" id="edge_0_176"/><path d="M 414.7761194029834 168.86445212010142 V 168.47085123922486 H 407.1641791044759" id="edge_0_21598"/><path d="M 412.3880597014909 169.43843745552084 V 168.86445212010142 H 414.7761194029834" id="edge_0_5915"/><path d="M 411.1940298507446 170.0 V 169.43843745552084 H 412.3880597014909" id="edge_0_78"/><path d="M 413.5820895522371 170.0 V 169.43843745552084 H 412.3880597014909" id="edge_0_194"/><path d="M 417.1641791044759 169.1467726491513 V 168.86445212010142 H 414.7761194029834" id="edge_0_13582"/><path d="M 415.97014925372963 170.0 V 169.1467726491513 H 417.1641791044759" id="edge_0_10"/><path d="M 418.35820895522215 170.0 V 169.1467726491513 H 417.1641791044759" id="edge_0_21"/><path d="M 444.8274253731324 153.89626016701646 V 153.65910600426787 H 408.78964552238637" id="edge_0_76169"/><path d="M 430.9701492537296 168.3020996668372 V 153.89626016701646 H 444.8274253731324" id="edge_0_30613"/><path d="M 422.83582089552067 169.15101618445746 V 168.3020996668372 H 430.9701492537296" id="edge_0_13459"/><path d="M 420.7462686567147 170.0 V 169.15101618445746 H 422.83582089552067" id="edge_0_129"/><path d="M 424.9253731343266 169.51298515537178 V 169.15101618445746 H 422.83582089552067" id="edge_0_4442"/><path d="M 423.1343283582072 170.0 V 169.51298515537178 H 424.9253731343266" id="edge_0_49"/><path d="M 426.716417910446 169.60272529717182 V 169.51298515537178 H 424.9253731343266" id="edge_0_3021"/><path d="M 425.5223880596997 170.0 V 169.60272529717182 H 426.716417910446" id="edge_0_23"/><path d="M 427.91044776119224 170.0 V 169.60272529717182 H 426.716417910446" id="edge_0_132"/><path d="M 439.1044776119385 168.34026560156528 V 168.3020996668372 H 430.9701492537296" id="edge_0_30240"/><path d="M 434.1791044776101 168.69624154357606 V 168.34026560156528 H 439.1044776119385" id="edge_0_25510"/><path d="M 431.49253731343106 169.28234666632184 V 168.69624154357606 H 434.1791044776101" id="edge_0_9772"/><path d="M 430.29850746268477 170.0 V 169.28234666632184 H 431.49253731343106" id="edge_0_104"/><path d="M 432.6865671641773 170.0 V 169.28234666632184 H 431.49253731343106" id="edge_0_197"/><path d="M 436.86567164178916 168.82711058047994 V 168.69624154357606 H 434.1791044776101" id="edge_0_22566"/><path d="M 435.0746268656698 170.0 V 168.82711058047994 H 436.86567164178916" id="edge_0_120"/><path d="M 438.65671641790857 169.87219113517165 V 168.82711058047994 H 436.86567164178916" id="edge_0_516"/><path d="M 437.46268656716234 170.0 V 169.87219113517165 H 438.65671641790857" id="edge_0_39"/><path d="M 439.85074626865486 170.0 V 169.87219113517165 H 438.65671641790857" id="edge_0_94"/><path d="M 444.0298507462668 168.37813628118582 V 168.34026560156528 H 439.1044776119385" id="edge_0_29876"/><path d="M 442.2388059701474 170.0 V 168.37813628118582 H 444.0298507462668" id="edge_0_66"/><path d="M 445.8208955223862 168.83238477052745 V 168.37813628118582 H 444.0298507462668" id="edge_0_22446"/><path d="M 444.6268656716399 170.0 V 168.83238477052745 H 445.8208955223862" id="edge_0_12"/><path d="M 447.0149253731324 170.0 V 168.83238477052745 H 445.8208955223862" id="edge_0_160"/><path d="M 458.68470149253534 162.37380261559528 V 153.89626016701646 H 444.8274253731324" id="edge_0_49811"/><path d="M 449.40298507462495 170.0 V 162.37380261559528 H 458.68470149253534" id="edge_0_72"/><path d="M 467.9664179104457 164.90320171306018 V 162.37380261559528 H 458.68470149253534" id="edge_0_43843"/><path d="M 456.3805970149234 168.3972792769085 V 164.90320171306018 H 467.9664179104457" id="edge_0_29658"/><path d="M 452.9850746268637 168.84047402818916 V 168.3972792769085 H 456.3805970149234" id="edge_0_22229"/><path d="M 451.7910447761175 170.0 V 168.84047402818916 H 452.9850746268637" id="edge_0_64"/><path d="M 454.17910447761 170.0 V 168.84047402818916 H 452.9850746268637" id="edge_0_154"/><path d="M 459.7761194029831 168.5335227693352 V 168.3972792769085 H 456.3805970149234" id="edge_0_28113"/><path d="M 456.5671641791025 170.0 V 168.5335227693352 H 459.7761194029831" id="edge_0_184"/><path d="M 462.9850746268637 168.792700267314 V 168.5335227693352 H 459.7761194029831" id="edge_0_23337"/><path d="M 460.14925373134133 169.02423908985205 V 168.792700267314 H 462.9850746268637" id="edge_0_17174"/><path d="M 458.95522388059504 170.0 V 169.02423908985205 H 460.14925373134133" id="edge_0_157"/><path d="M 461.34328358208757 170.0 V 169.02423908985205 H 460.14925373134133" id="edge_0_199"/><path d="M 465.8208955223861 168.83792086379918 V 168.792700267314 H 462.9850746268637" id="edge_0_22287"/><path d="M 463.7313432835801 170.0 V 168.83792086379918 H 465.8208955223861" id="edge_0_178"/><path d="M 467.910447761192 168.95643730021183 V 168.83792086379918 H 465.8208955223861" id="edge_0_19178"/><path d="M 466.1194029850726 170.0 V 168.95643730021183 H 467.910447761192" id="edge_0_147"/><path d="M 469.7014925373114 169.00671132483245 V 168.95643730021183 H 467.910447761192" id="edge_0_17743"/><path d="M 468.50746268656513 170.0 V 169.00671132483245 H 469.7014925373114" id="edge_0_113"/><path d="M 470.89552238805766 170.0 V 169.00671132483245 H 469.7014925373114" id="edge_0_114"/><path d="M 479.55223880596805 168.0499362978903 V 164.90320171306018 H 467.9664179104457" id="edge_0_32664"/><path d="M 475.07462686566953 169.25116843827027 V 168.0499362978903 H 479.55223880596805" id="edge_0_10601"/><path d="M 473.2835820895502 170.0 V 169.25116843827027 H 475.07462686566953" id="edge_0_166"/><path d="M 476.86567164178894 169.63830685272828 V 169.25116843827027 H 475.07462686566953" id="edge_0_2548"/><path d="M 475.6716417910427 170.0 V 169.63830685272828 H 476.86567164178894" id="edge_0_106"/><path d="M 478.0597014925352 170.0 V 169.63830685272828 H 476.86567164178894" id="edge_0_138"/><path d="M 484.0298507462665 168.93354093598435 V 168.0499362978903 H 479.55223880596805" id="edge_0_19746"/><path d="M 481.641791044774 169.50476578815187 V 168.93354093598435 H 484.0298507462665" id="edge_0_4573"/><path d="M 480.44776119402775 170.0 V 169.50476578815187 H 481.641791044774" id="edge_0_75"/><path d="M 482.83582089552027 170.0 V 169.50476578815187 H 481.641791044774" id="edge_0_140"/><path d="M 486.417910447759 169.08221567307353 V 168.93354093598435 H 484.0298507462665" id="edge_0_15578"/><path d="M 485.2238805970128 170.0 V 169.08221567307353 H 486.417910447759" id="edge_0_141"/><path d="M 487.6119402985053 170.0 V 169.08221567307353 H 486.417910447759" id="edge_0_182"/></g><g id="symbols"><g class="nodes"><circle cx="98.39023874766777" cy="30.0" id="node_0_115808" r="3"/><circle cx="26.40858208955224" cy="144.71824627850393" id="node_0_90450" r="3"/><circle cx="12.388059701492537" cy="170.0" id="node_0_26" r="3"/><circle cx="40.42910447761194" cy="150.7544804949" id="node_0_83152" r="3"/><circle cx="20.503731343283583" cy="167.93384787515626" id="node_0_33450" r="3"/><circle cx="15.970149253731343" cy="169.54304122197956" id="node_0_3948" r="3"/><circle cx="14.776119402985074" cy="170.0" id="node_0_76" r="3"/><circle cx="17.16417910447761" cy="170.0" id="node_0_192" r="3"/><circle cx="25.03731343283582" cy="168.46760556744658" id="node_0_28917" r="3"/><circle cx="20.746268656716417" cy="168.8333353280471" id="node_0_22417" r="3"/><circle cx="19.55223880597015" cy="170.0" id="node_0_136" r="3"/><circle cx="21.940298507462686" cy="170.0" id="node_0_171" r="3"/><circle cx="29.328358208955223" cy="168.58555569028167" id="node_0_27375" r="3"/><circle cx="25.52238805970149" cy="168.88307929997194" id="node_0_21105" r="3"/><circle cx="24.328358208955223" cy="170.0" id="node_0_74" r="3"/><circle cx="26.71641791044776" cy="170.0" id="node_0_196" r="3"/><circle cx="33.134328358208954" cy="168.79335258186515" id="node_0_23325" r="3"/><circle cx="30.298507462686565" cy="169.16006491483958" id="node_0_13220" r="3"/><circle cx="29.104477611940297" cy="170.0" id="node_0_77" r="3"/><circle cx="31.492537313432834" cy="170.0" id="node_0_115" r="3"/><circle cx="35.97014925373134" cy="168.86207801688826" id="node_0_21665" r="3"/><circle cx="33.88059701492537" cy="170.0" id="node_0_116" r="3"/><circle cx="38.059701492537314" cy="168.86210253531758" id="node_0_21663" r="3"/><circle cx="36.26865671641791" cy="170.0" id="node_0_135" r="3"/><circle cx="39.850746268656714" cy="169.56745726131547" id="node_0_3549" r="3"/><circle cx="38.656716417910445" cy="170.0" id="node_0_190" r="3"/><circle cx="41.04477611940298" cy="170.0" id="node_0_195" r="3"/><circle cx="60.3544776119403" cy="164.88526064805458" id="node_0_43876" r="3"/><circle cx="47.31343283582089" cy="169.0291133478365" id="node_0_17014" r="3"/><circle cx="44.62686567164179" cy="169.69367962630153" id="node_0_1924" r="3"/><circle cx="43.43283582089552" cy="170.0" id="node_0_19" r="3"/><circle cx="45.82089552238806" cy="170.0" id="node_0_89" r="3"/><circle cx="50.0" cy="169.266666452572" id="node_0_10183" r="3"/><circle cx="48.208955223880594" cy="170.0" id="node_0_98" r="3"/><circle cx="51.7910447761194" cy="169.36460756521222" id="node_0_7640" r="3"/><circle cx="50.59701492537313" cy="170.0" id="node_0_112" r="3"/><circle cx="52.98507462686567" cy="170.0" id="node_0_149" r="3"/><circle cx="73.3955223880597" cy="166.65817017750987" id="node_0_39399" r="3"/><circle cx="59.92537313432835" cy="168.07158585579296" id="node_0_32480" r="3"/><circle cx="55.373134328358205" cy="170.0" id="node_0_69" r="3"/><circle cx="64.4776119402985" cy="168.7186124142603" id="node_0_25042" r="3"/><circle cx="59.850746268656714" cy="169.25592182939852" id="node_0_10481" r="3"/><circle cx="57.76119402985074" cy="170.0" id="node_0_28" r="3"/><circle cx="61.940298507462686" cy="169.2887842217694" id="node_0_9607" r="3"/><circle cx="60.14925373134328" cy="170.0" id="node_0_152" r="3"/><circle cx="63.731343283582085" cy="169.62060740947095" id="node_0_2769" r="3"/><circle cx="62.537313432835816" cy="170.0" id="node_0_61" r="3"/><circle cx="64.92537313432835" cy="170.0" id="node_0_142" r="3"/><circle cx="69.1044776119403" cy="168.9421388004479" id="node_0_19532" r="3"/><circle cx="67.31343283582089" cy="170.0" id="node_0_150" r="3"/><circle cx="70.8955223880597" cy="169.87210434223525" id="node_0_517" r="3"/><circle cx="69.70149253731343" cy="170.0" id="node_0_59" r="3"/><circle cx="72.08955223880596" cy="170.0" id="node_0_109" r="3"/><circle cx="86.86567164179104" cy="166.7887185144427" id="node_0_38894" r="3"/><circle cx="79.8507462686567" cy="168.81910889064704" id="node_0_22750" r="3"/><circle cx="76.2686567164179" cy="169.6436910712149" id="node_0_2476" r="3"/><circle cx="74.4776119402985" cy="170.0" id="node_0_111" r="3"/><circle cx="78.0597014925373" cy="169.9361111495024" id="node_0_294" r="3"/><circle cx="76.86567164179104" cy="170.0" id="node_0_79" r="3"/><circle cx="79.25373134328358" cy="170.0" id="node_0_169" r="3"/><circle cx="83.43283582089552" cy="169.27802234526726" id="node_0_9887" r="3"/><circle cx="81.64179104477611" cy="170.0" id="node_0_45" r="3"/><circle cx="85.22388059701493" cy="169.68419044037503" id="node_0_2011" r="3"/><circle cx="84.02985074626865" cy="170.0" id="node_0_96" r="3"/><circle cx="86.41791044776119" cy="170.0" id="node_0_126" r="3"/><circle cx="93.88059701492536" cy="167.72181020831044" id="node_0_34712" r="3"/><circle cx="90.59701492537312" cy="168.86615715290958" id="node_0_21558" r="3"/><circle cx="88.80597014925372" cy="170.0" id="node_0_118" r="3"/><circle cx="92.38805970149252" cy="168.94679150120817" id="node_0_19418" r="3"/><circle cx="91.19402985074626" cy="170.0" id="node_0_38" r="3"/><circle cx="93.5820895522388" cy="170.0" id="node_0_155" r="3"/><circle cx="97.1641791044776" cy="168.84039418829397" id="node_0_22231" r="3"/><circle cx="95.97014925373134" cy="170.0" id="node_0_99" r="3"/><circle cx="98.35820895522387" cy="170.0" id="node_0_170" r="3"/><circle cx="170.37189540578328" cy="59.54139117571418" id="node_0_110400" r="3"/><circle cx="119.58488805970146" cy="146.2417175762255" id="node_0_89175" r="3"/><circle cx="104.32835820895521" cy="168.6111701706043" id="node_0_27024" r="3"/><circle cx="101.94029850746267" cy="169.98806674873418" id="node_0_207" r="3"/><circle cx="100.74626865671641" cy="170.0" id="node_0_2" r="3"/><circle cx="103.13432835820895" cy="170.0" id="node_0_65" r="3"/><circle cx="106.71641791044775" cy="169.152980809098" id="node_0_13408" r="3"/><circle cx="105.52238805970148" cy="170.0" id="node_0_0" r="3"/><circle cx="107.91044776119402" cy="170.0" id="node_0_188" r="3"/><circle cx="134.84141791044772" cy="150.28662552309817" id="node_0_83922" r="3"/><circle cx="120.29850746268656" cy="163.24137479077987" id="node_0_47460" r="3"/><circle cx="115.3731343283582" cy="167.84257385534303" id="node_0_34051" r="3"/><circle cx="112.08955223880596" cy="168.77029399801856" id="node_0_23813" r="3"/><circle cx="110.29850746268656" cy="170.0" id="node_0_85" r="3"/><circle cx="113.88059701492537" cy="169.69469239085075" id="node_0_1911" r="3"/><circle cx="112.6865671641791" cy="170.0" id="node_0_54" r="3"/><circle cx="115.07462686567163" cy="170.0" id="node_0_133" r="3"/><circle cx="118.65671641791045" cy="168.5971865956941" id="node_0_27234" r="3"/><circle cx="117.46268656716417" cy="170.0" id="node_0_57" r="3"/><circle cx="119.8507462686567" cy="170.0" id="node_0_105" r="3"/><circle cx="125.22388059701493" cy="167.438270971591" id="node_0_36171" r="3"/><circle cx="122.23880597014924" cy="170.0" id="node_0_34" r="3"/><circle cx="128.2089552238806" cy="168.85631716869733" id="node_0_21806" r="3"/><circle cx="125.82089552238804" cy="169.71295431825646" id="node_0_1738" r="3"/><circle cx="124.62686567164178" cy="170.0" id="node_0_168" r="3"/><circle cx="127.01492537313432" cy="170.0" id="node_0_193" r="3"/><circle cx="130.59701492537312" cy="169.1817464949727" id="node_0_12600" r="3"/><circle cx="129.40298507462686" cy="170.0" id="node_0_146" r="3"/><circle cx="131.7910447761194" cy="170.0" id="node_0_174" r="3"/><circle cx="149.38432835820885" cy="155.7035375135882" id="node_0_71232" r="3"/><circle cx="135.97014925373134" cy="169.7767785246312" id="node_0_1191" r="3"/><circle cx="134.17910447761193" cy="170.0" id="node_0_90" r="3"/><circle cx="137.7611940298507" cy="169.84273947888832" id="node_0_702" r="3"/><circle cx="136.56716417910445" cy="170.0" id="node_0_156" r="3"/><circle cx="138.95522388059698" cy="170.0" id="node_0_186" r="3"/><circle cx="162.7985074626864" cy="161.41052184202422" id="node_0_52640" r="3"/><circle cx="149.92537313432825" cy="168.38049022324182" id="node_0_29847" r="3"/><circle cx="143.43283582089546" cy="169.3012357793059" id="node_0_9243" r="3"/><circle cx="141.3432835820895" cy="170.0" id="node_0_117" r="3"/><circle cx="145.52238805970143" cy="169.43479615167502" id="node_0_5992" r="3"/><circle cx="143.73134328358202" cy="170.0" id="node_0_30" r="3"/><circle cx="147.3134328358208" cy="169.92927335469585" id="node_0_315" r="3"/><circle cx="146.11940298507454" cy="170.0" id="node_0_84" r="3"/><circle cx="148.50746268656707" cy="170.0" id="node_0_123" r="3"/><circle cx="156.41791044776107" cy="168.85933912650984" id="node_0_21737" r="3"/><circle cx="152.686567164179" cy="169.12931683022722" id="node_0_14088" r="3"/><circle cx="150.8955223880596" cy="170.0" id="node_0_68" r="3"/><circle cx="154.47761194029837" cy="169.99725567113185" id="node_0_201" r="3"/><circle cx="153.2835820895521" cy="170.0" id="node_0_8" r="3"/><circle cx="155.67164179104464" cy="170.0" id="node_0_48" r="3"/><circle cx="160.14925373134312" cy="168.91173493699335" id="node_0_20266" r="3"/><circle cx="158.05970149253716" cy="170.0" id="node_0_18" r="3"/><circle cx="162.2388059701491" cy="169.93268629032906" id="node_0_304" r="3"/><circle cx="160.44776119402968" cy="170.0" id="node_0_159" r="3"/><circle cx="164.02985074626847" cy="169.9900293025905" id="node_0_206" r="3"/><circle cx="162.8358208955222" cy="170.0" id="node_0_181" r="3"/><circle cx="165.22388059701473" cy="170.0" id="node_0_191" r="3"/><circle cx="175.67164179104452" cy="165.30797391421282" id="node_0_43044" r="3"/><circle cx="170.5970149253729" cy="168.38835370092835" id="node_0_29760" r="3"/><circle cx="167.61194029850725" cy="170.0" id="node_0_67" r="3"/><circle cx="173.58208955223856" cy="168.5921589238567" id="node_0_27296" r="3"/><circle cx="171.19402985074603" cy="169.47969352474811" id="node_0_5035" r="3"/><circle cx="169.99999999999977" cy="170.0" id="node_0_41" r="3"/><circle cx="172.3880597014923" cy="170.0" id="node_0_53" r="3"/><circle cx="175.97014925373108" cy="168.8374652471157" id="node_0_22300" r="3"/><circle cx="174.77611940298482" cy="170.0" id="node_0_93" r="3"/><circle cx="177.16417910447734" cy="170.0" id="node_0_130" r="3"/><circle cx="180.74626865671613" cy="167.63825007932414" id="node_0_35176" r="3"/><circle cx="179.55223880596986" cy="170.0" id="node_0_46" r="3"/><circle cx="181.9402985074624" cy="170.0" id="node_0_86" r="3"/><circle cx="221.15890275186513" cy="122.41887110931123" id="node_0_100139" r="3"/><circle cx="186.41791044776087" cy="168.04934568169372" id="node_0_32675" r="3"/><circle cx="184.3283582089549" cy="170.0" id="node_0_17" r="3"/><circle cx="188.50746268656684" cy="169.05545179221974" id="node_0_16303" r="3"/><circle cx="186.71641791044743" cy="170.0" id="node_0_107" r="3"/><circle cx="190.29850746268622" cy="169.24201661548355" id="node_0_10857" r="3"/><circle cx="189.10447761193996" cy="170.0" id="node_0_13" r="3"/><circle cx="191.49253731343248" cy="170.0" id="node_0_108" r="3"/><circle cx="255.8998950559694" cy="142.437690660114" id="node_0_92091" r="3"/><circle cx="195.6716417910444" cy="169.44041003610397" id="node_0_5866" r="3"/><circle cx="193.880597014925" cy="170.0" id="node_0_27" r="3"/><circle cx="197.4626865671638" cy="169.55702324746608" id="node_0_3708" r="3"/><circle cx="196.26865671641752" cy="170.0" id="node_0_24" r="3"/><circle cx="198.65671641791005" cy="170.0" id="node_0_183" r="3"/><circle cx="316.1281483208944" cy="142.8457811962072" id="node_0_91805" r="3"/><circle cx="264.0555037313425" cy="152.96322442078935" id="node_0_78561" r="3"/><circle cx="224.15578358208901" cy="164.01411527053034" id="node_0_45578" r="3"/><circle cx="205.4104477611936" cy="168.5255517691008" id="node_0_28224" r="3"/><circle cx="202.23880597014883" cy="169.35935319863395" id="node_0_7761" r="3"/><circle cx="201.04477611940257" cy="170.0" id="node_0_95" r="3"/><circle cx="203.4328358208951" cy="170.0" id="node_0_137" r="3"/><circle cx="208.58208955223836" cy="168.68736757720947" id="node_0_25716" r="3"/><circle cx="205.82089552238762" cy="170.0" id="node_0_40" r="3"/><circle cx="211.34328358208907" cy="168.77269781887642" id="node_0_23751" r="3"/><circle cx="208.20895522388014" cy="170.0" id="node_0_20" r="3"/><circle cx="214.477611940298" cy="168.88232841713756" id="node_0_21127" r="3"/><circle cx="211.79104477611892" cy="169.99092733941765" id="node_0_205" r="3"/><circle cx="210.59701492537266" cy="170.0" id="node_0_11" r="3"/><circle cx="212.98507462686518" cy="170.0" id="node_0_14" r="3"/><circle cx="217.1641791044771" cy="168.999806042618" id="node_0_17949" r="3"/><circle cx="215.3731343283577" cy="170.0" id="node_0_9" r="3"/><circle cx="218.9552238805965" cy="169.31512451097754" id="node_0_8797" r="3"/><circle cx="217.76119402985023" cy="170.0" id="node_0_1" r="3"/><circle cx="220.14925373134275" cy="170.0" id="node_0_6" r="3"/><circle cx="242.90111940298442" cy="165.63857160990463" id="node_0_42325" r="3"/><circle cx="227.16417910447706" cy="168.20009443193848" id="node_0_31448" r="3"/><circle cx="222.53731343283528" cy="170.0" id="node_0_56" r="3"/><circle cx="231.7910447761188" cy="168.3446341677417" id="node_0_30197" r="3"/><circle cx="227.01492537313376" cy="168.64498692610675" id="node_0_26464" r="3"/><circle cx="224.9253731343278" cy="170.0" id="node_0_35" r="3"/><circle cx="229.10447761193973" cy="168.87102897690662" id="node_0_21441" r="3"/><circle cx="227.31343283582032" cy="170.0" id="node_0_172" r="3"/><circle cx="230.8955223880591" cy="168.92837154231313" id="node_0_19862" r="3"/><circle cx="229.70149253731284" cy="170.0" id="node_0_122" r="3"/><circle cx="232.08955223880537" cy="170.0" id="node_0_198" r="3"/><circle cx="236.56716417910386" cy="168.4018334267135" id="node_0_29612" r="3"/><circle cx="234.4776119402979" cy="170.0" id="node_0_44" r="3"/><circle cx="238.65671641790982" cy="169.0249192290556" id="node_0_17147" r="3"/><circle cx="236.8656716417904" cy="170.0" id="node_0_88" r="3"/><circle cx="240.4477611940292" cy="169.06202676969195" id="node_0_16147" r="3"/><circle cx="239.25373134328294" cy="170.0" id="node_0_58" r="3"/><circle cx="241.64179104477546" cy="170.0" id="node_0_144" r="3"/><circle cx="258.6380597014918" cy="167.84059927875992" id="node_0_34072" r="3"/><circle cx="248.17164179104407" cy="168.5503469899447" id="node_0_27871" r="3"/><circle cx="245.22388059701424" cy="169.791373746971" id="node_0_1071" r="3"/><circle cx="244.02985074626798" cy="170.0" id="node_0_25" r="3"/><circle cx="246.4179104477605" cy="170.0" id="node_0_70" r="3"/><circle cx="251.11940298507392" cy="168.84226597757987" id="node_0_22174" r="3"/><circle cx="248.80597014925303" cy="170.0" id="node_0_189" r="3"/><circle cx="253.4328358208948" cy="168.9303174448944" id="node_0_19811" r="3"/><circle cx="251.19402985074555" cy="170.0" id="node_0_83" r="3"/><circle cx="255.67164179104404" cy="169.24666474639778" id="node_0_10729" r="3"/><circle cx="253.58208955223807" cy="170.0" id="node_0_101" r="3"/><circle cx="257.76119402985" cy="169.72087592863593" id="node_0_1676" r="3"/><circle cx="255.9701492537306" cy="170.0" id="node_0_161" r="3"/><circle cx="259.5522388059694" cy="169.75481024312717" id="node_0_1373" r="3"/><circle cx="258.3582089552231" cy="170.0" id="node_0_5" r="3"/><circle cx="260.74626865671564" cy="170.0" id="node_0_167" r="3"/><circle cx="269.1044776119395" cy="168.4990074609017" id="node_0_28556" r="3"/><circle cx="263.13432835820817" cy="170.0" id="node_0_180" r="3"/><circle cx="275.0746268656708" cy="168.73553098979716" id="node_0_24663" r="3"/><circle cx="267.6119402985066" cy="169.14177463693545" id="node_0_13725" r="3"/><circle cx="265.5223880597007" cy="170.0" id="node_0_63" r="3"/><circle cx="269.70149253731256" cy="169.25829669141532" id="node_0_10423" r="3"/><circle cx="267.9104477611932" cy="170.0" id="node_0_15" r="3"/><circle cx="271.49253731343197" cy="169.47944681969892" id="node_0_5040" r="3"/><circle cx="270.29850746268573" cy="170.0" id="node_0_47" r="3"/><circle cx="272.68656716417826" cy="170.0" id="node_0_87" r="3"/><circle cx="282.53731343283494" cy="168.77820225032787" id="node_0_23660" r="3"/><circle cx="278.65671641790954" cy="169.2274099435596" id="node_0_11265" r="3"/><circle cx="276.268656716417" cy="169.68794796823454" id="node_0_1970" r="3"/><circle cx="275.0746268656708" cy="170.0" id="node_0_16" r="3"/><circle cx="277.4626865671633" cy="170.0" id="node_0_50" r="3"/><circle cx="281.04477611940206" cy="169.33543824865" id="node_0_8321" r="3"/><circle cx="279.8507462686558" cy="170.0" id="node_0_7" r="3"/><circle cx="282.23880597014835" cy="170.0" id="node_0_102" r="3"/><circle cx="286.4179104477603" cy="168.80542013119248" id="node_0_23069" r="3"/><circle cx="284.62686567164087" cy="170.0" id="node_0_143" r="3"/><circle cx="288.2089552238797" cy="169.09866874654784" id="node_0_15080" r="3"/><circle cx="287.0149253731334" cy="170.0" id="node_0_42" r="3"/><circle cx="289.4029850746259" cy="170.0" id="node_0_82" r="3"/><circle cx="303.955223880596" cy="158.06036603392712" id="node_0_63753" r="3"/><circle cx="295.37313432835725" cy="168.72177921984132" id="node_0_24982" r="3"/><circle cx="292.98507462686473" cy="169.60830711716642" id="node_0_2931" r="3"/><circle cx="291.79104477611844" cy="170.0" id="node_0_128" r="3"/><circle cx="294.17910447761096" cy="170.0" id="node_0_177" r="3"/><circle cx="297.7611940298498" cy="169.10320445828867" id="node_0_14933" r="3"/><circle cx="296.5671641791035" cy="170.0" id="node_0_80" r="3"/><circle cx="298.955223880596" cy="170.0" id="node_0_151" r="3"/><circle cx="312.5373134328347" cy="163.0389838471511" id="node_0_47963" r="3"/><circle cx="304.9253731343273" cy="168.5638137861087" id="node_0_27678" r="3"/><circle cx="301.34328358208853" cy="170.0" id="node_0_31" r="3"/><circle cx="308.5074626865661" cy="168.77057427792886" id="node_0_23807" r="3"/><circle cx="304.9253731343273" cy="169.08765882700985" id="node_0_15401" r="3"/><circle cx="303.73134328358105" cy="170.0" id="node_0_43" r="3"/><circle cx="306.1194029850736" cy="170.0" id="node_0_60" r="3"/><circle cx="312.08955223880486" cy="168.81435754000017" id="node_0_22859" r="3"/><circle cx="309.70149253731233" cy="169.97527927495327" id="node_0_216" r="3"/><circle cx="308.5074626865661" cy="170.0" id="node_0_29" r="3"/><circle cx="310.8955223880586" cy="170.0" id="node_0_73" r="3"/><circle cx="314.4776119402974" cy="168.91268109515002" id="node_0_20246" r="3"/><circle cx="313.28358208955115" cy="170.0" id="node_0_22" r="3"/><circle cx="315.67164179104367" cy="170.0" id="node_0_119" r="3"/><circle cx="320.1492537313421" cy="164.68470325483767" id="node_0_44221" r="3"/><circle cx="318.0597014925362" cy="170.0" id="node_0_103" r="3"/><circle cx="322.23880597014806" cy="168.77080390157954" id="node_0_23799" r="3"/><circle cx="320.4477611940287" cy="170.0" id="node_0_158" r="3"/><circle cx="324.02985074626747" cy="169.17981797316875" id="node_0_12658" r="3"/><circle cx="322.83582089552124" cy="170.0" id="node_0_32" r="3"/><circle cx="325.22388059701376" cy="170.0" id="node_0_110" r="3"/><circle cx="368.20079291044635" cy="146.22530506139515" id="node_0_89197" r="3"/><circle cx="327.6119402985063" cy="170.0" id="node_0_51" r="3"/><circle cx="408.78964552238637" cy="153.65910600426787" id="node_0_76849" r="3"/><circle cx="372.7518656716403" cy="166.32841426798038" id="node_0_40459" r="3"/><circle cx="356.24999999999864" cy="168.18491177122488" id="node_0_31582" r="3"/><circle cx="341.3059701492525" cy="168.41016379815872" id="node_0_29532" r="3"/><circle cx="333.5820895522376" cy="169.03710732958896" id="node_0_16805" r="3"/><circle cx="331.1940298507451" cy="169.9999897329268" id="node_0_200" r="3"/><circle cx="329.9999999999988" cy="170.0" id="node_0_139" r="3"/><circle cx="332.38805970149133" cy="170.0" id="node_0_175" r="3"/><circle cx="335.97014925373014" cy="169.49519644832256" id="node_0_4762" r="3"/><circle cx="334.77611940298385" cy="170.0" id="node_0_97" r="3"/><circle cx="337.1641791044764" cy="170.0" id="node_0_153" r="3"/><circle cx="349.02985074626736" cy="168.56013824215984" id="node_0_27733" r="3"/><circle cx="343.43283582089424" cy="169.0239688309772" id="node_0_17182" r="3"/><circle cx="340.7462686567152" cy="169.3860973276046" id="node_0_7097" r="3"/><circle cx="339.5522388059689" cy="170.0" id="node_0_55" r="3"/><circle cx="341.9402985074614" cy="170.0" id="node_0_163" r="3"/><circle cx="346.1194029850733" cy="169.35100633120078" id="node_0_7963" r="3"/><circle cx="344.32835820895394" cy="170.0" id="node_0_162" r="3"/><circle cx="347.9104477611927" cy="169.35722938862995" id="node_0_7814" r="3"/><circle cx="346.71641791044647" cy="170.0" id="node_0_37" r="3"/><circle cx="349.104477611939" cy="170.0" id="node_0_124" r="3"/><circle cx="354.6268656716404" cy="168.66010312453602" id="node_0_26201" r="3"/><circle cx="351.4925373134315" cy="170.0" id="node_0_187" r="3"/><circle cx="357.7611940298494" cy="168.8921723356697" id="node_0_20847" r="3"/><circle cx="355.0746268656703" cy="169.79070608106272" id="node_0_1076" r="3"/><circle cx="353.88059701492404" cy="170.0" id="node_0_100" r="3"/><circle cx="356.26865671641656" cy="170.0" id="node_0_185" r="3"/><circle cx="360.44776119402843" cy="169.16281254037037" id="node_0_13132" r="3"/><circle cx="358.6567164179091" cy="170.0" id="node_0_125" r="3"/><circle cx="362.23880597014784" cy="169.74556851307108" id="node_0_1445" r="3"/><circle cx="361.0447761194016" cy="170.0" id="node_0_4" r="3"/><circle cx="363.4328358208941" cy="170.0" id="node_0_92" r="3"/><circle cx="371.1940298507448" cy="168.2367367765504" id="node_0_31163" r="3"/><circle cx="367.61194029850606" cy="168.69896379392392" id="node_0_25461" r="3"/><circle cx="365.82089552238665" cy="170.0" id="node_0_71" r="3"/><circle cx="369.40298507462546" cy="169.00409898847244" id="node_0_17820" r="3"/><circle cx="368.2089552238792" cy="170.0" id="node_0_91" r="3"/><circle cx="370.5970149253717" cy="170.0" id="node_0_121" r="3"/><circle cx="374.77611940298357" cy="168.52303824297206" id="node_0_28259" r="3"/><circle cx="372.9850746268642" cy="170.0" id="node_0_52" r="3"/><circle cx="376.567164179103" cy="168.8491776802603" id="node_0_22001" r="3"/><circle cx="375.37313432835674" cy="170.0" id="node_0_134" r="3"/><circle cx="377.76119402984926" cy="170.0" id="node_0_173" r="3"/><circle cx="389.253731343282" cy="167.00813810186207" id="node_0_38080" r="3"/><circle cx="381.343283582088" cy="169.1301025876451" id="node_0_14059" r="3"/><circle cx="380.1492537313418" cy="170.0" id="node_0_33" r="3"/><circle cx="382.5373134328343" cy="170.0" id="node_0_165" r="3"/><circle cx="397.16417910447603" cy="168.296494880826" id="node_0_30669" r="3"/><circle cx="387.1641791044761" cy="168.68181513537334" id="node_0_25828" r="3"/><circle cx="384.92537313432683" cy="170.0" id="node_0_62" r="3"/><circle cx="389.40298507462535" cy="168.74266790388273" id="node_0_24493" r="3"/><circle cx="387.31343283581936" cy="170.0" id="node_0_131" r="3"/><circle cx="391.4925373134313" cy="168.74438248192305" id="node_0_24447" r="3"/><circle cx="389.7014925373119" cy="170.0" id="node_0_145" r="3"/><circle cx="393.2835820895507" cy="168.7785568711421" id="node_0_23654" r="3"/><circle cx="392.0895522388044" cy="170.0" id="node_0_81" r="3"/><circle cx="394.4776119402969" cy="170.0" id="node_0_164" r="3"/><circle cx="407.1641791044759" cy="168.47085123922486" id="node_0_28873" r="3"/><circle cx="399.5522388059685" cy="169.11334734084593" id="node_0_14605" r="3"/><circle cx="396.86567164178945" cy="170.0" id="node_0_127" r="3"/><circle cx="402.2388059701476" cy="169.26961699719456" id="node_0_10099" r="3"/><circle cx="399.25373134328197" cy="170.0" id="node_0_179" r="3"/><circle cx="405.2238805970133" cy="169.36790999471808" id="node_0_7563" r="3"/><circle cx="402.8358208955208" cy="169.71475577372684" id="node_0_1722" r="3"/><circle cx="401.6417910447745" cy="170.0" id="node_0_3" r="3"/><circle cx="404.029850746267" cy="170.0" id="node_0_36" r="3"/><circle cx="407.61194029850583" cy="169.64339267669865" id="node_0_2479" r="3"/><circle cx="406.41791044775954" cy="170.0" id="node_0_148" r="3"/><circle cx="408.80597014925206" cy="170.0" id="node_0_176" r="3"/><circle cx="414.7761194029834" cy="168.86445212010142" id="node_0_21598" r="3"/><circle cx="412.3880597014909" cy="169.43843745552084" id="node_0_5915" r="3"/><circle cx="411.1940298507446" cy="170.0" id="node_0_78" r="3"/><circle cx="413.5820895522371" cy="170.0" id="node_0_194" r="3"/><circle cx="417.1641791044759" cy="169.1467726491513" id="node_0_13582" r="3"/><circle cx="415.97014925372963" cy="170.0" id="node_0_10" r="3"/><circle cx="418.35820895522215" cy="170.0" id="node_0_21" r="3"/><circle cx="444.8274253731324" cy="153.89626016701646" id="node_0_76169" r="3"/><circle cx="430.9701492537296" cy="168.3020996668372" id="node_0_30613" r="3"/><circle cx="422.83582089552067" cy="169.15101618445746" id="node_0_13459" r="3"/><circle cx="420.7462686567147" cy="170.0" id="node_0_129" r="3"/><circle cx="424.9253731343266" cy="169.51298515537178" id="node_0_4442" r="3"/><circle cx="423.1343283582072" cy="170.0" id="node_0_49" r="3"/><circle cx="426.716417910446" cy="169.60272529717182" id="node_0_3021" r="3"/><circle cx="425.5223880596997" cy="170.0" id="node_0_23" r="3"/><circle cx="427.91044776119224" cy="170.0" id="node_0_132" r="3"/><circle cx="439.1044776119385" cy="168.34026560156528" id="node_0_30240" r="3"/><circle cx="434.1791044776101" cy="168.69624154357606" id="node_0_25510" r="3"/><circle cx="431.49253731343106" cy="169.28234666632184" id="node_0_9772" r="3"/><circle cx="430.29850746268477" cy="170.0" id="node_0_104" r="3"/><circle cx="432.6865671641773" cy="170.0" id="node_0_197" r="3"/><circle cx="436.86567164178916" cy="168.82711058047994" id="node_0_22566" r="3"/><circle cx="435.0746268656698" cy="170.0" id="node_0_120" r="3"/><circle cx="438.65671641790857" cy="169.87219113517165" id="node_0_516" r="3"/><circle cx="437.46268656716234" cy="170.0" id="node_0_39" r="3"/><circle cx="439.85074626865486" cy="170.0" id="node_0_94" r="3"/><circle cx="444.0298507462668" cy="168.37813628118582" id="node_0_29876" r="3"/><circle cx="442.2388059701474" cy="170.0" id="node_0_66" r="3"/><circle cx="445.8208955223862" cy="168.83238477052745" id="node_0_22446" r="3"/><circle cx="444.6268656716399" cy="170.0" id="node_0_12" r="3"/><circle cx="447.0149253731324" cy="170.0" id="node_0_160" r="3"/><circle cx="458.68470149253534" cy="162.37380261559528" id="node_0_49811" r="3"/><circle cx="449.40298507462495" cy="170.0" id="node_0_72" r="3"/><circle cx="467.9664179104457" cy="164.90320171306018" id="node_0_43843" r="3"/><circle cx="456.3805970149234" cy="168.3972792769085" id="node_0_29658" r="3"/><circle cx="452.9850746268637" cy="168.84047402818916" id="node_0_22229" r="3"/><circle cx="451.7910447761175" cy="170.0" id="node_0_64" r="3"/><circle cx="454.17910447761" cy="170.0" id="node_0_154" r="3"/><circle cx="459.7761194029831" cy="168.5335227693352" id="node_0_28113" r="3"/><circle cx="456.5671641791025" cy="170.0" id="node_0_184" r="3"/><circle cx="462.9850746268637" cy="168.792700267314" id="node_0_23337" r="3"/><circle cx="460.14925373134133" cy="169.02423908985205" id="node_0_17174" r="3"/><circle cx="458.95522388059504" cy="170.0" id="node_0_157" r="3"/><circle cx="461.34328358208757" cy="170.0" id="node_0_199" r="3"/><circle cx="465.8208955223861" cy="168.83792086379918" id="node_0_22287" r="3"/><circle cx="463.7313432835801" cy="170.0" id="node_0_178" r="3"/><circle cx="467.910447761192" cy="168.95643730021183" id="node_0_19178" r="3"/><circle cx="466.1194029850726" cy="170.0" id="node_0_147" r="3"/><circle cx="469.7014925373114" cy="169.00671132483245" id="node_0_17743" r="3"/><circle cx="468.50746268656513" cy="170.0" id="node_0_113" r="3"/><circle cx="470.89552238805766" cy="170.0" id="node_0_114" r="3"/><circle cx="479.55223880596805" cy="168.0499362978903" id="node_0_32664" r="3"/><circle cx="475.07462686566953" cy="169.25116843827027" id="node_0_10601" r="3"/><circle cx="473.2835820895502" cy="170.0" id="node_0_166" r="3"/><circle cx="476.86567164178894" cy="169.63830685272828" id="node_0_2548" r="3"/><circle cx="475.6716417910427" cy="170.0" id="node_0_106" r="3"/><circle cx="478.0597014925352" cy="170.0" id="node_0_138" r="3"/><circle cx="484.0298507462665" cy="168.93354093598435" id="node_0_19746" r="3"/><circle cx="481.641791044774" cy="169.50476578815187" id="node_0_4573" r="3"/><circle cx="480.44776119402775" cy="170.0" id="node_0_75" r="3"/><circle cx="482.83582089552027" cy="170.0" id="node_0_140" r="3"/><circle cx="486.417910447759" cy="169.08221567307353" id="node_0_15578" r="3"/><circle cx="485.2238805970128" cy="170.0" id="node_0_141" r="3"/><circle cx="487.6119402985053" cy="170.0" id="node_0_182" r="3"/></g><g class="mutations" fill="red"/></g><g font-size="14" id="labels"><g class="nodes"><g text-anchor="start"><text x="45.42910447761194" y="145.7544804949"/><text x="30.03731343283582" y="163.46760556744658"/><text x="34.32835820895522" y="163.58555569028167"/><text x="38.134328358208954" y="163.79335258186515"/><text x="40.97014925373134" y="163.86207801688826"/><text x="43.059701492537314" y="163.86210253531758"/><text x="44.850746268656714" y="164.56745726131547"/><text x="65.3544776119403" y="159.88526064805458"/><text x="55.0" y="164.266666452572"/><text x="56.7910447761194" y="164.36460756521222"/><text x="78.3955223880597" y="161.65817017750987"/><text x="69.4776119402985" y="163.7186124142603"/><text x="66.94029850746269" y="164.2887842217694"/><text x="68.73134328358208" y="164.62060740947095"/><text x="74.1044776119403" y="163.9421388004479"/><text x="75.8955223880597" y="164.87210434223525"/><text x="91.86567164179104" y="161.7887185144427"/><text x="83.0597014925373" y="164.9361111495024"/><text x="88.43283582089552" y="164.27802234526726"/><text x="90.22388059701493" y="164.68419044037503"/><text x="98.88059701492536" y="162.72181020831044"/><text x="97.38805970149252" y="163.94679150120817"/><text x="102.1641791044776" y="163.84039418829397"/><text x="175.37189540578328" y="54.54139117571418"/><text x="111.71641791044775" y="164.152980809098"/><text x="139.84141791044772" y="145.28662552309817"/><text x="118.88059701492537" y="164.69469239085075"/><text x="123.65671641791045" y="163.5971865956941"/><text x="130.22388059701493" y="162.438270971591"/><text x="133.2089552238806" y="163.85631716869733"/><text x="135.59701492537312" y="164.1817464949727"/><text x="154.38432835820885" y="150.7035375135882"/><text x="142.7611940298507" y="164.84273947888832"/><text x="167.7985074626864" y="156.41052184202422"/><text x="150.52238805970143" y="164.43479615167502"/><text x="152.3134328358208" y="164.92927335469585"/><text x="161.41791044776107" y="163.85933912650984"/><text x="159.47761194029837" y="164.99725567113185"/><text x="165.14925373134312" y="163.91173493699335"/><text x="167.2388059701491" y="164.93268629032906"/><text x="169.02985074626847" y="164.9900293025905"/><text x="180.67164179104452" y="160.30797391421282"/><text x="178.58208955223856" y="163.5921589238567"/><text x="180.97014925373108" y="163.8374652471157"/><text x="185.74626865671613" y="162.63825007932414"/><text x="226.15890275186513" y="117.41887110931123"/><text x="193.50746268656684" y="164.05545179221974"/><text x="195.29850746268622" y="164.24201661548355"/><text x="260.8998950559694" y="137.437690660114"/><text x="202.4626865671638" y="164.55702324746608"/><text x="321.1281483208944" y="137.8457811962072"/><text x="213.58208955223836" y="163.68736757720947"/><text x="216.34328358208907" y="163.77269781887642"/><text x="219.477611940298" y="163.88232841713756"/><text x="222.1641791044771" y="163.999806042618"/><text x="223.9552238805965" y="164.31512451097754"/><text x="247.90111940298442" y="160.63857160990463"/><text x="236.7910447761188" y="163.3446341677417"/><text x="234.10447761193973" y="163.87102897690662"/><text x="235.8955223880591" y="163.92837154231313"/><text x="241.56716417910386" y="163.4018334267135"/><text x="243.65671641790982" y="164.0249192290556"/><text x="245.4477611940292" y="164.06202676969195"/><text x="263.6380597014918" y="162.84059927875992"/><text x="256.1194029850739" y="163.84226597757987"/><text x="258.4328358208948" y="163.9303174448944"/><text x="260.67164179104407" y="164.24666474639778"/><text x="262.76119402985" y="164.72087592863593"/><text x="264.5522388059694" y="164.75481024312717"/><text x="274.1044776119395" y="163.4990074609017"/><text x="280.0746268656708" y="163.73553098979716"/><text x="274.70149253731256" y="164.25829669141532"/><text x="276.49253731343197" y="164.47944681969892"/><text x="287.53731343283494" y="163.77820225032787"/><text x="286.04477611940206" y="164.33543824865"/><text x="291.4179104477603" y="163.80542013119248"/><text x="293.2089552238797" y="164.09866874654784"/><text x="308.955223880596" y="153.06036603392712"/><text x="302.7611940298498" y="164.10320445828867"/><text x="317.5373134328347" y="158.0389838471511"/><text x="313.5074626865661" y="163.77057427792886"/><text x="317.08955223880486" y="163.81435754000017"/><text x="319.4776119402974" y="163.91268109515002"/><text x="325.1492537313421" y="159.68470325483767"/><text x="327.23880597014806" y="163.77080390157954"/><text x="329.02985074626747" y="164.17981797316875"/><text x="373.20079291044635" y="141.22530506139515"/><text x="413.78964552238637" y="148.65910600426787"/><text x="340.97014925373014" y="164.49519644832256"/><text x="354.02985074626736" y="163.56013824215984"/><text x="351.1194029850733" y="164.35100633120078"/><text x="352.9104477611927" y="164.35722938862995"/><text x="359.6268656716404" y="163.66010312453602"/><text x="362.7611940298494" y="163.8921723356697"/><text x="365.44776119402843" y="164.16281254037037"/><text x="367.23880597014784" y="164.74556851307108"/><text x="376.1940298507448" y="163.2367367765504"/><text x="374.40298507462546" y="164.00409898847244"/><text x="379.77611940298357" y="163.52303824297206"/><text x="381.567164179103" y="163.8491776802603"/><text x="394.253731343282" y="162.00813810186207"/><text x="402.16417910447603" y="163.296494880826"/><text x="394.40298507462535" y="163.74266790388273"/><text x="396.4925373134313" y="163.74438248192305"/><text x="398.2835820895507" y="163.7785568711421"/><text x="412.1641791044759" y="163.47085123922486"/><text x="407.2388059701476" y="164.26961699719456"/><text x="410.2238805970133" y="164.36790999471808"/><text x="412.61194029850583" y="164.64339267669865"/><text x="419.7761194029834" y="163.86445212010142"/><text x="422.1641791044759" y="164.1467726491513"/><text x="449.8274253731324" y="148.89626016701646"/><text x="429.9253731343266" y="164.51298515537178"/><text x="431.716417910446" y="164.60272529717182"/><text x="444.1044776119385" y="163.34026560156528"/><text x="441.86567164178916" y="163.82711058047994"/><text x="443.65671641790857" y="164.87219113517165"/><text x="449.0298507462668" y="163.37813628118582"/><text x="450.8208955223862" y="163.83238477052745"/><text x="463.68470149253534" y="157.37380261559528"/><text x="472.9664179104457" y="159.90320171306018"/><text x="464.7761194029831" y="163.5335227693352"/><text x="467.9850746268637" y="163.792700267314"/><text x="470.8208955223861" y="163.83792086379918"/><text x="472.910447761192" y="163.95643730021183"/><text x="474.7014925373114" y="164.00671132483245"/><text x="484.55223880596805" y="163.0499362978903"/><text x="481.86567164178894" y="164.63830685272828"/><text x="489.0298507462665" y="163.93354093598435"/><text x="491.417910447759" y="164.08221567307353"/></g><g text-anchor="middle"><text x="98.39023874766777" y="25.0"/><text x="12.388059701492537" y="190.0"/><text x="14.776119402985074" y="190.0"/><text x="17.16417910447761" y="190.0"/><text x="19.55223880597015" y="190.0"/><text x="21.940298507462686" y="190.0"/><text x="24.328358208955223" y="190.0"/><text x="26.71641791044776" y="190.0"/><text x="29.104477611940297" y="190.0"/><text x="31.492537313432834" y="190.0"/><text x="33.88059701492537" y="190.0"/><text x="36.26865671641791" y="190.0"/><text x="38.656716417910445" y="190.0"/><text x="41.04477611940298" y="190.0"/><text x="43.43283582089552" y="190.0"/><text x="45.82089552238806" y="190.0"/><text x="48.208955223880594" y="190.0"/><text x="50.59701492537313" y="190.0"/><text x="52.98507462686567" y="190.0"/><text x="55.373134328358205" y="190.0"/><text x="57.76119402985074" y="190.0"/><text x="60.14925373134328" y="190.0"/><text x="62.537313432835816" y="190.0"/><text x="64.92537313432835" y="190.0"/><text x="67.31343283582089" y="190.0"/><text x="69.70149253731343" y="190.0"/><text x="72.08955223880596" y="190.0"/><text x="74.4776119402985" y="190.0"/><text x="76.86567164179104" y="190.0"/><text x="79.25373134328358" y="190.0"/><text x="81.64179104477611" y="190.0"/><text x="84.02985074626865" y="190.0"/><text x="86.41791044776119" y="190.0"/><text x="88.80597014925372" y="190.0"/><text x="91.19402985074626" y="190.0"/><text x="93.5820895522388" y="190.0"/><text x="95.97014925373134" y="190.0"/><text x="98.35820895522387" y="190.0"/><text x="100.74626865671641" y="190.0"/><text x="103.13432835820895" y="190.0"/><text x="105.52238805970148" y="190.0"/><text x="107.91044776119402" y="190.0"/><text x="110.29850746268656" y="190.0"/><text x="112.6865671641791" y="190.0"/><text x="115.07462686567163" y="190.0"/><text x="117.46268656716417" y="190.0"/><text x="119.8507462686567" y="190.0"/><text x="122.23880597014924" y="190.0"/><text x="124.62686567164178" y="190.0"/><text x="127.01492537313432" y="190.0"/><text x="129.40298507462686" y="190.0"/><text x="131.7910447761194" y="190.0"/><text x="134.17910447761193" y="190.0"/><text x="136.56716417910445" y="190.0"/><text x="138.95522388059698" y="190.0"/><text x="141.3432835820895" y="190.0"/><text x="143.73134328358202" y="190.0"/><text x="146.11940298507454" y="190.0"/><text x="148.50746268656707" y="190.0"/><text x="150.8955223880596" y="190.0"/><text x="153.2835820895521" y="190.0"/><text x="155.67164179104464" y="190.0"/><text x="158.05970149253716" y="190.0"/><text x="160.44776119402968" y="190.0"/><text x="162.8358208955222" y="190.0"/><text x="165.22388059701473" y="190.0"/><text x="167.61194029850725" y="190.0"/><text x="169.99999999999977" y="190.0"/><text x="172.3880597014923" y="190.0"/><text x="174.77611940298482" y="190.0"/><text x="177.16417910447734" y="190.0"/><text x="179.55223880596986" y="190.0"/><text x="181.9402985074624" y="190.0"/><text x="184.3283582089549" y="190.0"/><text x="186.71641791044743" y="190.0"/><text x="189.10447761193996" y="190.0"/><text x="191.49253731343248" y="190.0"/><text x="193.880597014925" y="190.0"/><text x="196.26865671641752" y="190.0"/><text x="198.65671641791005" y="190.0"/><text x="201.04477611940257" y="190.0"/><text x="203.4328358208951" y="190.0"/><text x="205.82089552238762" y="190.0"/><text x="208.20895522388014" y="190.0"/><text x="210.59701492537266" y="190.0"/><text x="212.98507462686518" y="190.0"/><text x="215.3731343283577" y="190.0"/><text x="217.76119402985023" y="190.0"/><text x="220.14925373134275" y="190.0"/><text x="222.53731343283528" y="190.0"/><text x="224.9253731343278" y="190.0"/><text x="227.31343283582032" y="190.0"/><text x="229.70149253731284" y="190.0"/><text x="232.08955223880537" y="190.0"/><text x="234.4776119402979" y="190.0"/><text x="236.8656716417904" y="190.0"/><text x="239.25373134328294" y="190.0"/><text x="241.64179104477546" y="190.0"/><text x="244.02985074626798" y="190.0"/><text x="246.4179104477605" y="190.0"/><text x="248.80597014925303" y="190.0"/><text x="251.19402985074555" y="190.0"/><text x="253.58208955223807" y="190.0"/><text x="255.9701492537306" y="190.0"/><text x="258.3582089552231" y="190.0"/><text x="260.74626865671564" y="190.0"/><text x="263.13432835820817" y="190.0"/><text x="265.5223880597007" y="190.0"/><text x="267.9104477611932" y="190.0"/><text x="270.29850746268573" y="190.0"/><text x="272.68656716417826" y="190.0"/><text x="275.0746268656708" y="190.0"/><text x="277.4626865671633" y="190.0"/><text x="279.8507462686558" y="190.0"/><text x="282.23880597014835" y="190.0"/><text x="284.62686567164087" y="190.0"/><text x="287.0149253731334" y="190.0"/><text x="289.4029850746259" y="190.0"/><text x="291.79104477611844" y="190.0"/><text x="294.17910447761096" y="190.0"/><text x="296.5671641791035" y="190.0"/><text x="298.955223880596" y="190.0"/><text x="301.34328358208853" y="190.0"/><text x="303.73134328358105" y="190.0"/><text x="306.1194029850736" y="190.0"/><text x="308.5074626865661" y="190.0"/><text x="310.8955223880586" y="190.0"/><text x="313.28358208955115" y="190.0"/><text x="315.67164179104367" y="190.0"/><text x="318.0597014925362" y="190.0"/><text x="320.4477611940287" y="190.0"/><text x="322.83582089552124" y="190.0"/><text x="325.22388059701376" y="190.0"/><text x="327.6119402985063" y="190.0"/><text x="329.9999999999988" y="190.0"/><text x="332.38805970149133" y="190.0"/><text x="334.77611940298385" y="190.0"/><text x="337.1641791044764" y="190.0"/><text x="339.5522388059689" y="190.0"/><text x="341.9402985074614" y="190.0"/><text x="344.32835820895394" y="190.0"/><text x="346.71641791044647" y="190.0"/><text x="349.104477611939" y="190.0"/><text x="351.4925373134315" y="190.0"/><text x="353.88059701492404" y="190.0"/><text x="356.26865671641656" y="190.0"/><text x="358.6567164179091" y="190.0"/><text x="361.0447761194016" y="190.0"/><text x="363.4328358208941" y="190.0"/><text x="365.82089552238665" y="190.0"/><text x="368.2089552238792" y="190.0"/><text x="370.5970149253717" y="190.0"/><text x="372.9850746268642" y="190.0"/><text x="375.37313432835674" y="190.0"/><text x="377.76119402984926" y="190.0"/><text x="380.1492537313418" y="190.0"/><text x="382.5373134328343" y="190.0"/><text x="384.92537313432683" y="190.0"/><text x="387.31343283581936" y="190.0"/><text x="389.7014925373119" y="190.0"/><text x="392.0895522388044" y="190.0"/><text x="394.4776119402969" y="190.0"/><text x="396.86567164178945" y="190.0"/><text x="399.25373134328197" y="190.0"/><text x="401.6417910447745" y="190.0"/><text x="404.029850746267" y="190.0"/><text x="406.41791044775954" y="190.0"/><text x="408.80597014925206" y="190.0"/><text x="411.1940298507446" y="190.0"/><text x="413.5820895522371" y="190.0"/><text x="415.97014925372963" y="190.0"/><text x="418.35820895522215" y="190.0"/><text x="420.7462686567147" y="190.0"/><text x="423.1343283582072" y="190.0"/><text x="425.5223880596997" y="190.0"/><text x="427.91044776119224" y="190.0"/><text x="430.29850746268477" y="190.0"/><text x="432.6865671641773" y="190.0"/><text x="435.0746268656698" y="190.0"/><text x="437.46268656716234" y="190.0"/><text x="439.85074626865486" y="190.0"/><text x="442.2388059701474" y="190.0"/><text x="444.6268656716399" y="190.0"/><text x="447.0149253731324" y="190.0"/><text x="449.40298507462495" y="190.0"/><text x="451.7910447761175" y="190.0"/><text x="454.17910447761" y="190.0"/><text x="456.5671641791025" y="190.0"/><text x="458.95522388059504" y="190.0"/><text x="461.34328358208757" y="190.0"/><text x="463.7313432835801" y="190.0"/><text x="466.1194029850726" y="190.0"/><text x="468.50746268656513" y="190.0"/><text x="470.89552238805766" y="190.0"/><text x="473.2835820895502" y="190.0"/><text x="475.6716417910427" y="190.0"/><text x="478.0597014925352" y="190.0"/><text x="480.44776119402775" y="190.0"/><text x="482.83582089552027" y="190.0"/><text x="485.2238805970128" y="190.0"/><text x="487.6119402985053" y="190.0"/></g><g text-anchor="end"><text x="21.40858208955224" y="139.71824627850393"/><text x="15.503731343283583" y="162.93384787515626"/><text x="10.970149253731343" y="164.54304122197956"/><text x="15.746268656716417" y="163.8333353280471"/><text x="20.52238805970149" y="163.88307929997194"/><text x="25.298507462686565" y="164.16006491483958"/><text x="42.31343283582089" y="164.0291133478365"/><text x="39.62686567164179" y="164.69367962630153"/><text x="54.92537313432835" y="163.07158585579296"/><text x="54.850746268656714" y="164.25592182939852"/><text x="74.8507462686567" y="163.81910889064704"/><text x="71.2686567164179" y="164.6436910712149"/><text x="85.59701492537312" y="163.86615715290958"/><text x="114.58488805970146" y="141.2417175762255"/><text x="99.32835820895521" y="163.6111701706043"/><text x="96.94029850746267" y="164.98806674873418"/><text x="115.29850746268656" y="158.24137479077987"/><text x="110.3731343283582" y="162.84257385534303"/><text x="107.08955223880596" y="163.77029399801856"/><text x="120.82089552238804" y="164.71295431825646"/><text x="130.97014925373134" y="164.7767785246312"/><text x="144.92537313432825" y="163.38049022324182"/><text x="138.43283582089546" y="164.3012357793059"/><text x="147.686567164179" y="164.12931683022722"/><text x="165.5970149253729" y="163.38835370092835"/><text x="166.19402985074603" y="164.47969352474811"/><text x="181.41791044776087" y="163.04934568169372"/><text x="190.6716417910444" y="164.44041003610397"/><text x="259.0555037313425" y="147.96322442078935"/><text x="219.15578358208901" y="159.01411527053034"/><text x="200.4104477611936" y="163.5255517691008"/><text x="197.23880597014883" y="164.35935319863395"/><text x="206.79104477611892" y="164.99092733941765"/><text x="222.16417910447706" y="163.20009443193848"/><text x="222.01492537313376" y="163.64498692610675"/><text x="243.17164179104407" y="163.5503469899447"/><text x="240.22388059701424" y="164.791373746971"/><text x="262.6119402985066" y="164.14177463693545"/><text x="273.65671641790954" y="164.2274099435596"/><text x="271.268656716417" y="164.68794796823454"/><text x="290.37313432835725" y="163.72177921984132"/><text x="287.98507462686473" y="164.60830711716642"/><text x="299.9253731343273" y="163.5638137861087"/><text x="299.9253731343273" y="164.08765882700985"/><text x="304.70149253731233" y="164.97527927495327"/><text x="367.7518656716403" y="161.32841426798038"/><text x="351.24999999999864" y="163.18491177122488"/><text x="336.3059701492525" y="163.41016379815872"/><text x="328.5820895522376" y="164.03710732958896"/><text x="326.1940298507451" y="164.9999897329268"/><text x="338.43283582089424" y="164.0239688309772"/><text x="335.7462686567152" y="164.3860973276046"/><text x="350.0746268656703" y="164.79070608106272"/><text x="362.61194029850606" y="163.69896379392392"/><text x="376.343283582088" y="164.1301025876451"/><text x="382.1641791044761" y="163.68181513537334"/><text x="394.5522388059685" y="164.11334734084593"/><text x="397.8358208955208" y="164.71475577372684"/><text x="407.3880597014909" y="164.43843745552084"/><text x="425.9701492537296" y="163.3020996668372"/><text x="417.83582089552067" y="164.15101618445746"/><text x="429.1791044776101" y="163.69624154357606"/><text x="426.49253731343106" y="164.28234666632184"/><text x="451.3805970149234" y="163.3972792769085"/><text x="447.9850746268637" y="163.84047402818916"/><text x="455.14925373134133" y="164.02423908985205"/><text x="470.07462686566953" y="164.25116843827027"/><text x="476.641791044774" y="164.50476578815187"/></g></g><g class="mutations" font-style="italic"><g text-anchor="start"/><g text-anchor="end"/></g></g></g></svg>