<?xml version="1.0" encoding="utf-8" standalone="no"?>
<!DOCTYPE svg PUBLIC "-//W3C//DTD SVG 1.1//EN"
  "http://www.w3.org/Graphics/SVG/1.1/DTD/svg11.dtd">
<!-- Created with matplotlib (https://matplotlib.org/) -->
<svg height="338.354687pt" version="1.1" viewBox="0 0 453.4 338.354687" width="453.4pt" xmlns="http://www.w3.org/2000/svg" xmlns:xlink="http://www.w3.org/1999/xlink">
 <defs>
  <style type="text/css">
*{stroke-linecap:butt;stroke-linejoin:round;}
  </style>
 </defs>
 <g id="figure_1">
  <g id="patch_1">
   <path d="M 0 338.354687 
L 453.4 338.354687 
L 453.4 0 
L 0 0 
z
" style="fill:#ffffff;"/>
  </g>
  <g id="axes_1">
   <g id="patch_2">
    <path d="M 43.78125 300.798437 
L 446.2 300.798437 
L 446.2 17.798437 
L 43.78125 17.798437 
z
" style="fill:#ffffff;"/>
   </g>
   <g id="matplotlib.axis_1">
    <g id="xtick_1">
     <g id="line2d_1">
      <defs>
       <path d="M 0 0 
L 0 3.5 
" id="mcbbc770e9b" style="stroke:#000000;stroke-width:0.8;"/>
      </defs>
      <g>
       <use style="stroke:#000000;stroke-width:0.8;" x="60.206505" xlink:href="#mcbbc770e9b" y="300.798437"/>
      </g>
     </g>
     <g id="text_1">
      <!-- 0 -->
      <defs>
       <path d="M 31.78125 66.40625 
Q 24.171875 66.40625 20.328125 58.90625 
Q 16.5 51.421875 16.5 36.375 
Q 16.5 21.390625 20.328125 13.890625 
Q 24.171875 6.390625 31.78125 6.390625 
Q 39.453125 6.390625 43.28125 13.890625 
Q 47.125 21.390625 47.125 36.375 
Q 47.125 51.421875 43.28125 58.90625 
Q 39.453125 66.40625 31.78125 66.40625 
z
M 31.78125 74.21875 
Q 44.046875 74.21875 50.515625 64.515625 
Q 56.984375 54.828125 56.984375 36.375 
Q 56.984375 17.96875 50.515625 8.265625 
Q 44.046875 -1.421875 31.78125 -1.421875 
Q 19.53125 -1.421875 13.0625 8.265625 
Q 6.59375 17.96875 6.59375 36.375 
Q 6.59375 54.828125 13.0625 64.515625 
Q 19.53125 74.21875 31.78125 74.21875 
z
" id="DejaVuSans-48"/>
      </defs>
      <g transform="translate(57.025255 315.396875)scale(0.1 -0.1)">
       <use xlink:href="#DejaVuSans-48"/>
      </g>
     </g>
    </g>
    <g id="xtick_2">
     <g id="line2d_2">
      <g>
       <use style="stroke:#000000;stroke-width:0.8;" x="106.869162" xlink:href="#mcbbc770e9b" y="300.798437"/>
      </g>
     </g>
     <g id="text_2">
      <!-- 25 -->
      <defs>
       <path d="M 19.1875 8.296875 
L 53.609375 8.296875 
L 53.609375 0 
L 7.328125 0 
L 7.328125 8.296875 
Q 12.9375 14.109375 22.625 23.890625 
Q 32.328125 33.6875 34.8125 36.53125 
Q 39.546875 41.84375 41.421875 45.53125 
Q 43.3125 49.21875 43.3125 52.78125 
Q 43.3125 58.59375 39.234375 62.25 
Q 35.15625 65.921875 28.609375 65.921875 
Q 23.96875 65.921875 18.8125 64.3125 
Q 13.671875 62.703125 7.8125 59.421875 
L 7.8125 69.390625 
Q 13.765625 71.78125 18.9375 73 
Q 24.125 74.21875 28.421875 74.21875 
Q 39.75 74.21875 46.484375 68.546875 
Q 53.21875 62.890625 53.21875 53.421875 
Q 53.21875 48.921875 51.53125 44.890625 
Q 49.859375 40.875 45.40625 35.40625 
Q 44.1875 33.984375 37.640625 27.21875 
Q 31.109375 20.453125 19.1875 8.296875 
z
" id="DejaVuSans-50"/>
       <path d="M 10.796875 72.90625 
L 49.515625 72.90625 
L 49.515625 64.59375 
L 19.828125 64.59375 
L 19.828125 46.734375 
Q 21.96875 47.46875 24.109375 47.828125 
Q 26.265625 48.1875 28.421875 48.1875 
Q 40.625 48.1875 47.75 41.5 
Q 54.890625 34.8125 54.890625 23.390625 
Q 54.890625 11.625 47.5625 5.09375 
Q 40.234375 -1.421875 26.90625 -1.421875 
Q 22.3125 -1.421875 17.546875 -0.640625 
Q 12.796875 0.140625 7.71875 1.703125 
L 7.71875 11.625 
Q 12.109375 9.234375 16.796875 8.0625 
Q 21.484375 6.890625 26.703125 6.890625 
Q 35.15625 6.890625 40.078125 11.328125 
Q 45.015625 15.765625 45.015625 23.390625 
Q 45.015625 31 40.078125 35.4375 
Q 35.15625 39.890625 26.703125 39.890625 
Q 22.75 39.890625 18.8125 39.015625 
Q 14.890625 38.140625 10.796875 36.28125 
z
" id="DejaVuSans-53"/>
      </defs>
      <g transform="translate(100.506662 315.396875)scale(0.1 -0.1)">
       <use xlink:href="#DejaVuSans-50"/>
       <use x="63.623047" xlink:href="#DejaVuSans-53"/>
      </g>
     </g>
    </g>
    <g id="xtick_3">
     <g id="line2d_3">
      <g>
       <use style="stroke:#000000;stroke-width:0.8;" x="153.531818" xlink:href="#mcbbc770e9b" y="300.798437"/>
      </g>
     </g>
     <g id="text_3">
      <!-- 50 -->
      <g transform="translate(147.169318 315.396875)scale(0.1 -0.1)">
       <use xlink:href="#DejaVuSans-53"/>
       <use x="63.623047" xlink:href="#DejaVuSans-48"/>
      </g>
     </g>
    </g>
    <g id="xtick_4">
     <g id="line2d_4">
      <g>
       <use style="stroke:#000000;stroke-width:0.8;" x="200.194475" xlink:href="#mcbbc770e9b" y="300.798437"/>
      </g>
     </g>
     <g id="text_4">
      <!-- 75 -->
      <defs>
       <path d="M 8.203125 72.90625 
L 55.078125 72.90625 
L 55.078125 68.703125 
L 28.609375 0 
L 18.3125 0 
L 43.21875 64.59375 
L 8.203125 64.59375 
z
" id="DejaVuSans-55"/>
      </defs>
      <g transform="translate(193.831975 315.396875)scale(0.1 -0.1)">
       <use xlink:href="#DejaVuSans-55"/>
       <use x="63.623047" xlink:href="#DejaVuSans-53"/>
      </g>
     </g>
    </g>
    <g id="xtick_5">
     <g id="line2d_5">
      <g>
       <use style="stroke:#000000;stroke-width:0.8;" x="246.857131" xlink:href="#mcbbc770e9b" y="300.798437"/>
      </g>
     </g>
     <g id="text_5">
      <!-- 100 -->
      <defs>
       <path d="M 12.40625 8.296875 
L 28.515625 8.296875 
L 28.515625 63.921875 
L 10.984375 60.40625 
L 10.984375 69.390625 
L 28.421875 72.90625 
L 38.28125 72.90625 
L 38.28125 8.296875 
L 54.390625 8.296875 
L 54.390625 0 
L 12.40625 0 
z
" id="DejaVuSans-49"/>
      </defs>
      <g transform="translate(237.313381 315.396875)scale(0.1 -0.1)">
       <use xlink:href="#DejaVuSans-49"/>
       <use x="63.623047" xlink:href="#DejaVuSans-48"/>
       <use x="127.246094" xlink:href="#DejaVuSans-48"/>
      </g>
     </g>
    </g>
    <g id="xtick_6">
     <g id="line2d_6">
      <g>
       <use style="stroke:#000000;stroke-width:0.8;" x="293.519788" xlink:href="#mcbbc770e9b" y="300.798437"/>
      </g>
     </g>
     <g id="text_6">
      <!-- 125 -->
      <g transform="translate(283.976038 315.396875)scale(0.1 -0.1)">
       <use xlink:href="#DejaVuSans-49"/>
       <use x="63.623047" xlink:href="#DejaVuSans-50"/>
       <use x="127.246094" xlink:href="#DejaVuSans-53"/>
      </g>
     </g>
    </g>
    <g id="xtick_7">
     <g id="line2d_7">
      <g>
       <use style="stroke:#000000;stroke-width:0.8;" x="340.182444" xlink:href="#mcbbc770e9b" y="300.798437"/>
      </g>
     </g>
     <g id="text_7">
      <!-- 150 -->
      <g transform="translate(330.638694 315.396875)scale(0.1 -0.1)">
       <use xlink:href="#DejaVuSans-49"/>
       <use x="63.623047" xlink:href="#DejaVuSans-53"/>
       <use x="127.246094" xlink:href="#DejaVuSans-48"/>
      </g>
     </g>
    </g>
    <g id="xtick_8">
     <g id="line2d_8">
      <g>
       <use style="stroke:#000000;stroke-width:0.8;" x="386.845101" xlink:href="#mcbbc770e9b" y="300.798437"/>
      </g>
     </g>
     <g id="text_8">
      <!-- 175 -->
      <g transform="translate(377.301351 315.396875)scale(0.1 -0.1)">
       <use xlink:href="#DejaVuSans-49"/>
       <use x="63.623047" xlink:href="#DejaVuSans-55"/>
       <use x="127.246094" xlink:href="#DejaVuSans-53"/>
      </g>
     </g>
    </g>
    <g id="xtick_9">
     <g id="line2d_9">
      <g>
       <use style="stroke:#000000;stroke-width:0.8;" x="433.507757" xlink:href="#mcbbc770e9b" y="300.798437"/>
      </g>
     </g>
     <g id="text_9">
      <!-- 200 -->
      <g transform="translate(423.964007 315.396875)scale(0.1 -0.1)">
       <use xlink:href="#DejaVuSans-50"/>
       <use x="63.623047" xlink:href="#DejaVuSans-48"/>
       <use x="127.246094" xlink:href="#DejaVuSans-48"/>
      </g>
     </g>
    </g>
    <g id="text_10">
     <!-- sample frequency -->
     <defs>
      <path d="M 44.28125 53.078125 
L 44.28125 44.578125 
Q 40.484375 46.53125 36.375 47.5 
Q 32.28125 48.484375 27.875 48.484375 
Q 21.1875 48.484375 17.84375 46.4375 
Q 14.5 44.390625 14.5 40.28125 
Q 14.5 37.15625 16.890625 35.375 
Q 19.28125 33.59375 26.515625 31.984375 
L 29.59375 31.296875 
Q 39.15625 29.25 43.1875 25.515625 
Q 47.21875 21.78125 47.21875 15.09375 
Q 47.21875 7.46875 41.1875 3.015625 
Q 35.15625 -1.421875 24.609375 -1.421875 
Q 20.21875 -1.421875 15.453125 -0.5625 
Q 10.6875 0.296875 5.421875 2 
L 5.421875 11.28125 
Q 10.40625 8.6875 15.234375 7.390625 
Q 20.0625 6.109375 24.8125 6.109375 
Q 31.15625 6.109375 34.5625 8.28125 
Q 37.984375 10.453125 37.984375 14.40625 
Q 37.984375 18.0625 35.515625 20.015625 
Q 33.0625 21.96875 24.703125 23.78125 
L 21.578125 24.515625 
Q 13.234375 26.265625 9.515625 29.90625 
Q 5.8125 33.546875 5.8125 39.890625 
Q 5.8125 47.609375 11.28125 51.796875 
Q 16.75 56 26.8125 56 
Q 31.78125 56 36.171875 55.265625 
Q 40.578125 54.546875 44.28125 53.078125 
z
" id="DejaVuSans-115"/>
      <path d="M 34.28125 27.484375 
Q 23.390625 27.484375 19.1875 25 
Q 14.984375 22.515625 14.984375 16.5 
Q 14.984375 11.71875 18.140625 8.90625 
Q 21.296875 6.109375 26.703125 6.109375 
Q 34.1875 6.109375 38.703125 11.40625 
Q 43.21875 16.703125 43.21875 25.484375 
L 43.21875 27.484375 
z
M 52.203125 31.203125 
L 52.203125 0 
L 43.21875 0 
L 43.21875 8.296875 
Q 40.140625 3.328125 35.546875 0.953125 
Q 30.953125 -1.421875 24.3125 -1.421875 
Q 15.921875 -1.421875 10.953125 3.296875 
Q 6 8.015625 6 15.921875 
Q 6 25.140625 12.171875 29.828125 
Q 18.359375 34.515625 30.609375 34.515625 
L 43.21875 34.515625 
L 43.21875 35.40625 
Q 43.21875 41.609375 39.140625 45 
Q 35.0625 48.390625 27.6875 48.390625 
Q 23 48.390625 18.546875 47.265625 
Q 14.109375 46.140625 10.015625 43.890625 
L 10.015625 52.203125 
Q 14.9375 54.109375 19.578125 55.046875 
Q 24.21875 56 28.609375 56 
Q 40.484375 56 46.34375 49.84375 
Q 52.203125 43.703125 52.203125 31.203125 
z
" id="DejaVuSans-97"/>
      <path d="M 52 44.1875 
Q 55.375 50.25 60.0625 53.125 
Q 64.75 56 71.09375 56 
Q 79.640625 56 84.28125 50.015625 
Q 88.921875 44.046875 88.921875 33.015625 
L 88.921875 0 
L 79.890625 0 
L 79.890625 32.71875 
Q 79.890625 40.578125 77.09375 44.375 
Q 74.3125 48.1875 68.609375 48.1875 
Q 61.625 48.1875 57.5625 43.546875 
Q 53.515625 38.921875 53.515625 30.90625 
L 53.515625 0 
L 44.484375 0 
L 44.484375 32.71875 
Q 44.484375 40.625 41.703125 44.40625 
Q 38.921875 48.1875 33.109375 48.1875 
Q 26.21875 48.1875 22.15625 43.53125 
Q 18.109375 38.875 18.109375 30.90625 
L 18.109375 0 
L 9.078125 0 
L 9.078125 54.6875 
L 18.109375 54.6875 
L 18.109375 46.1875 
Q 21.1875 51.21875 25.484375 53.609375 
Q 29.78125 56 35.6875 56 
Q 41.65625 56 45.828125 52.96875 
Q 50 49.953125 52 44.1875 
z
" id="DejaVuSans-109"/>
      <path d="M 18.109375 8.203125 
L 18.109375 -20.796875 
L 9.078125 -20.796875 
L 9.078125 54.6875 
L 18.109375 54.6875 
L 18.109375 46.390625 
Q 20.953125 51.265625 25.265625 53.625 
Q 29.59375 56 35.59375 56 
Q 45.5625 56 51.78125 48.09375 
Q 58.015625 40.1875 58.015625 27.296875 
Q 58.015625 14.40625 51.78125 6.484375 
Q 45.5625 -1.421875 35.59375 -1.421875 
Q 29.59375 -1.421875 25.265625 0.953125 
Q 20.953125 3.328125 18.109375 8.203125 
z
M 48.6875 27.296875 
Q 48.6875 37.203125 44.609375 42.84375 
Q 40.53125 48.484375 33.40625 48.484375 
Q 26.265625 48.484375 22.1875 42.84375 
Q 18.109375 37.203125 18.109375 27.296875 
Q 18.109375 17.390625 22.1875 11.75 
Q 26.265625 6.109375 33.40625 6.109375 
Q 40.53125 6.109375 44.609375 11.75 
Q 48.6875 17.390625 48.6875 27.296875 
z
" id="DejaVuSans-112"/>
      <path d="M 9.421875 75.984375 
L 18.40625 75.984375 
L 18.40625 0 
L 9.421875 0 
z
" id="DejaVuSans-108"/>
      <path d="M 56.203125 29.59375 
L 56.203125 25.203125 
L 14.890625 25.203125 
Q 15.484375 15.921875 20.484375 11.0625 
Q 25.484375 6.203125 34.421875 6.203125 
Q 39.59375 6.203125 44.453125 7.46875 
Q 49.3125 8.734375 54.109375 11.28125 
L 54.109375 2.78125 
Q 49.265625 0.734375 44.1875 -0.34375 
Q 39.109375 -1.421875 33.890625 -1.421875 
Q 20.796875 -1.421875 13.15625 6.1875 
Q 5.515625 13.8125 5.515625 26.8125 
Q 5.515625 40.234375 12.765625 48.109375 
Q 20.015625 56 32.328125 56 
Q 43.359375 56 49.78125 48.890625 
Q 56.203125 41.796875 56.203125 29.59375 
z
M 47.21875 32.234375 
Q 47.125 39.59375 43.09375 43.984375 
Q 39.0625 48.390625 32.421875 48.390625 
Q 24.90625 48.390625 20.390625 44.140625 
Q 15.875 39.890625 15.1875 32.171875 
z
" id="DejaVuSans-101"/>
      <path id="DejaVuSans-32"/>
      <path d="M 37.109375 75.984375 
L 37.109375 68.5 
L 28.515625 68.5 
Q 23.6875 68.5 21.796875 66.546875 
Q 19.921875 64.59375 19.921875 59.515625 
L 19.921875 54.6875 
L 34.71875 54.6875 
L 34.71875 47.703125 
L 19.921875 47.703125 
L 19.921875 0 
L 10.890625 0 
L 10.890625 47.703125 
L 2.296875 47.703125 
L 2.296875 54.6875 
L 10.890625 54.6875 
L 10.890625 58.5 
Q 10.890625 67.625 15.140625 71.796875 
Q 19.390625 75.984375 28.609375 75.984375 
z
" id="DejaVuSans-102"/>
      <path d="M 41.109375 46.296875 
Q 39.59375 47.171875 37.8125 47.578125 
Q 36.03125 48 33.890625 48 
Q 26.265625 48 22.1875 43.046875 
Q 18.109375 38.09375 18.109375 28.8125 
L 18.109375 0 
L 9.078125 0 
L 9.078125 54.6875 
L 18.109375 54.6875 
L 18.109375 46.1875 
Q 20.953125 51.171875 25.484375 53.578125 
Q 30.03125 56 36.53125 56 
Q 37.453125 56 38.578125 55.875 
Q 39.703125 55.765625 41.0625 55.515625 
z
" id="DejaVuSans-114"/>
      <path d="M 14.796875 27.296875 
Q 14.796875 17.390625 18.875 11.75 
Q 22.953125 6.109375 30.078125 6.109375 
Q 37.203125 6.109375 41.296875 11.75 
Q 45.40625 17.390625 45.40625 27.296875 
Q 45.40625 37.203125 41.296875 42.84375 
Q 37.203125 48.484375 30.078125 48.484375 
Q 22.953125 48.484375 18.875 42.84375 
Q 14.796875 37.203125 14.796875 27.296875 
z
M 45.40625 8.203125 
Q 42.578125 3.328125 38.25 0.953125 
Q 33.9375 -1.421875 27.875 -1.421875 
Q 17.96875 -1.421875 11.734375 6.484375 
Q 5.515625 14.40625 5.515625 27.296875 
Q 5.515625 40.1875 11.734375 48.09375 
Q 17.96875 56 27.875 56 
Q 33.9375 56 38.25 53.625 
Q 42.578125 51.265625 45.40625 46.390625 
L 45.40625 54.6875 
L 54.390625 54.6875 
L 54.390625 -20.796875 
L 45.40625 -20.796875 
z
" id="DejaVuSans-113"/>
      <path d="M 8.5 21.578125 
L 8.5 54.6875 
L 17.484375 54.6875 
L 17.484375 21.921875 
Q 17.484375 14.15625 20.5 10.265625 
Q 23.53125 6.390625 29.59375 6.390625 
Q 36.859375 6.390625 41.078125 11.03125 
Q 45.3125 15.671875 45.3125 23.6875 
L 45.3125 54.6875 
L 54.296875 54.6875 
L 54.296875 0 
L 45.3125 0 
L 45.3125 8.40625 
Q 42.046875 3.421875 37.71875 1 
Q 33.40625 -1.421875 27.6875 -1.421875 
Q 18.265625 -1.421875 13.375 4.4375 
Q 8.5 10.296875 8.5 21.578125 
z
M 31.109375 56 
z
" id="DejaVuSans-117"/>
      <path d="M 54.890625 33.015625 
L 54.890625 0 
L 45.90625 0 
L 45.90625 32.71875 
Q 45.90625 40.484375 42.875 44.328125 
Q 39.84375 48.1875 33.796875 48.1875 
Q 26.515625 48.1875 22.3125 43.546875 
Q 18.109375 38.921875 18.109375 30.90625 
L 18.109375 0 
L 9.078125 0 
L 9.078125 54.6875 
L 18.109375 54.6875 
L 18.109375 46.1875 
Q 21.34375 51.125 25.703125 53.5625 
Q 30.078125 56 35.796875 56 
Q 45.21875 56 50.046875 50.171875 
Q 54.890625 44.34375 54.890625 33.015625 
z
" id="DejaVuSans-110"/>
      <path d="M 48.78125 52.59375 
L 48.78125 44.1875 
Q 44.96875 46.296875 41.140625 47.34375 
Q 37.3125 48.390625 33.40625 48.390625 
Q 24.65625 48.390625 19.8125 42.84375 
Q 14.984375 37.3125 14.984375 27.296875 
Q 14.984375 17.28125 19.8125 11.734375 
Q 24.65625 6.203125 33.40625 6.203125 
Q 37.3125 6.203125 41.140625 7.25 
Q 44.96875 8.296875 48.78125 10.40625 
L 48.78125 2.09375 
Q 45.015625 0.34375 40.984375 -0.53125 
Q 36.96875 -1.421875 32.421875 -1.421875 
Q 20.0625 -1.421875 12.78125 6.34375 
Q 5.515625 14.109375 5.515625 27.296875 
Q 5.515625 40.671875 12.859375 48.328125 
Q 20.21875 56 33.015625 56 
Q 37.15625 56 41.109375 55.140625 
Q 45.0625 54.296875 48.78125 52.59375 
z
" id="DejaVuSans-99"/>
      <path d="M 32.171875 -5.078125 
Q 28.375 -14.84375 24.75 -17.8125 
Q 21.140625 -20.796875 15.09375 -20.796875 
L 7.90625 -20.796875 
L 7.90625 -13.28125 
L 13.1875 -13.28125 
Q 16.890625 -13.28125 18.9375 -11.515625 
Q 21 -9.765625 23.484375 -3.21875 
L 25.09375 0.875 
L 2.984375 54.6875 
L 12.5 54.6875 
L 29.59375 11.921875 
L 46.6875 54.6875 
L 56.203125 54.6875 
z
" id="DejaVuSans-121"/>
     </defs>
     <g transform="translate(200.146094 329.075)scale(0.1 -0.1)">
      <use xlink:href="#DejaVuSans-115"/>
      <use x="52.099609" xlink:href="#DejaVuSans-97"/>
      <use x="113.378906" xlink:href="#DejaVuSans-109"/>
      <use x="210.791016" xlink:href="#DejaVuSans-112"/>
      <use x="274.267578" xlink:href="#DejaVuSans-108"/>
      <use x="302.050781" xlink:href="#DejaVuSans-101"/>
      <use x="363.574219" xlink:href="#DejaVuSans-32"/>
      <use x="395.361328" xlink:href="#DejaVuSans-102"/>
      <use x="430.566406" xlink:href="#DejaVuSans-114"/>
      <use x="469.429688" xlink:href="#DejaVuSans-101"/>
      <use x="530.953125" xlink:href="#DejaVuSans-113"/>
      <use x="594.429688" xlink:href="#DejaVuSans-117"/>
      <use x="657.808594" xlink:href="#DejaVuSans-101"/>
      <use x="719.332031" xlink:href="#DejaVuSans-110"/>
      <use x="782.710938" xlink:href="#DejaVuSans-99"/>
      <use x="837.691406" xlink:href="#DejaVuSans-121"/>
     </g>
    </g>
   </g>
   <g id="matplotlib.axis_2">
    <g id="ytick_1">
     <g id="line2d_10">
      <defs>
       <path d="M 0 0 
L -3.5 0 
" id="m3feca60d73" style="stroke:#000000;stroke-width:0.8;"/>
      </defs>
      <g>
       <use style="stroke:#000000;stroke-width:0.8;" x="43.78125" xlink:href="#m3feca60d73" y="289.315167"/>
      </g>
     </g>
     <g id="text_11">
      <!-- 0.0 -->
      <defs>
       <path d="M 10.6875 12.40625 
L 21 12.40625 
L 21 0 
L 10.6875 0 
z
" id="DejaVuSans-46"/>
      </defs>
      <g transform="translate(20.878125 293.114385)scale(0.1 -0.1)">
       <use xlink:href="#DejaVuSans-48"/>
       <use x="63.623047" xlink:href="#DejaVuSans-46"/>
       <use x="95.410156" xlink:href="#DejaVuSans-48"/>
      </g>
     </g>
    </g>
    <g id="ytick_2">
     <g id="line2d_11">
      <g>
       <use style="stroke:#000000;stroke-width:0.8;" x="43.78125" xlink:href="#m3feca60d73" y="252.797563"/>
      </g>
     </g>
     <g id="text_12">
      <!-- 0.2 -->
      <g transform="translate(20.878125 256.596781)scale(0.1 -0.1)">
       <use xlink:href="#DejaVuSans-48"/>
       <use x="63.623047" xlink:href="#DejaVuSans-46"/>
       <use x="95.410156" xlink:href="#DejaVuSans-50"/>
      </g>
     </g>
    </g>
    <g id="ytick_3">
     <g id="line2d_12">
      <g>
       <use style="stroke:#000000;stroke-width:0.8;" x="43.78125" xlink:href="#m3feca60d73" y="216.279959"/>
      </g>
     </g>
     <g id="text_13">
      <!-- 0.4 -->
      <defs>
       <path d="M 37.796875 64.3125 
L 12.890625 25.390625 
L 37.796875 25.390625 
z
M 35.203125 72.90625 
L 47.609375 72.90625 
L 47.609375 25.390625 
L 58.015625 25.390625 
L 58.015625 17.1875 
L 47.609375 17.1875 
L 47.609375 0 
L 37.796875 0 
L 37.796875 17.1875 
L 4.890625 17.1875 
L 4.890625 26.703125 
z
" id="DejaVuSans-52"/>
      </defs>
      <g transform="translate(20.878125 220.079178)scale(0.1 -0.1)">
       <use xlink:href="#DejaVuSans-48"/>
       <use x="63.623047" xlink:href="#DejaVuSans-46"/>
       <use x="95.410156" xlink:href="#DejaVuSans-52"/>
      </g>
     </g>
    </g>
    <g id="ytick_4">
     <g id="line2d_13">
      <g>
       <use style="stroke:#000000;stroke-width:0.8;" x="43.78125" xlink:href="#m3feca60d73" y="179.762355"/>
      </g>
     </g>
     <g id="text_14">
      <!-- 0.6 -->
      <defs>
       <path d="M 33.015625 40.375 
Q 26.375 40.375 22.484375 35.828125 
Q 18.609375 31.296875 18.609375 23.390625 
Q 18.609375 15.53125 22.484375 10.953125 
Q 26.375 6.390625 33.015625 6.390625 
Q 39.65625 6.390625 43.53125 10.953125 
Q 47.40625 15.53125 47.40625 23.390625 
Q 47.40625 31.296875 43.53125 35.828125 
Q 39.65625 40.375 33.015625 40.375 
z
M 52.59375 71.296875 
L 52.59375 62.3125 
Q 48.875 64.0625 45.09375 64.984375 
Q 41.3125 65.921875 37.59375 65.921875 
Q 27.828125 65.921875 22.671875 59.328125 
Q 17.53125 52.734375 16.796875 39.40625 
Q 19.671875 43.65625 24.015625 45.921875 
Q 28.375 48.1875 33.59375 48.1875 
Q 44.578125 48.1875 50.953125 41.515625 
Q 57.328125 34.859375 57.328125 23.390625 
Q 57.328125 12.15625 50.6875 5.359375 
Q 44.046875 -1.421875 33.015625 -1.421875 
Q 20.359375 -1.421875 13.671875 8.265625 
Q 6.984375 17.96875 6.984375 36.375 
Q 6.984375 53.65625 15.1875 63.9375 
Q 23.390625 74.21875 37.203125 74.21875 
Q 40.921875 74.21875 44.703125 73.484375 
Q 48.484375 72.75 52.59375 71.296875 
z
" id="DejaVuSans-54"/>
      </defs>
      <g transform="translate(20.878125 183.561574)scale(0.1 -0.1)">
       <use xlink:href="#DejaVuSans-48"/>
       <use x="63.623047" xlink:href="#DejaVuSans-46"/>
       <use x="95.410156" xlink:href="#DejaVuSans-54"/>
      </g>
     </g>
    </g>
    <g id="ytick_5">
     <g id="line2d_14">
      <g>
       <use style="stroke:#000000;stroke-width:0.8;" x="43.78125" xlink:href="#m3feca60d73" y="143.244751"/>
      </g>
     </g>
     <g id="text_15">
      <!-- 0.8 -->
      <defs>
       <path d="M 31.78125 34.625 
Q 24.75 34.625 20.71875 30.859375 
Q 16.703125 27.09375 16.703125 20.515625 
Q 16.703125 13.921875 20.71875 10.15625 
Q 24.75 6.390625 31.78125 6.390625 
Q 38.8125 6.390625 42.859375 10.171875 
Q 46.921875 13.96875 46.921875 20.515625 
Q 46.921875 27.09375 42.890625 30.859375 
Q 38.875 34.625 31.78125 34.625 
z
M 21.921875 38.8125 
Q 15.578125 40.375 12.03125 44.71875 
Q 8.5 49.078125 8.5 55.328125 
Q 8.5 64.0625 14.71875 69.140625 
Q 20.953125 74.21875 31.78125 74.21875 
Q 42.671875 74.21875 48.875 69.140625 
Q 55.078125 64.0625 55.078125 55.328125 
Q 55.078125 49.078125 51.53125 44.71875 
Q 48 40.375 41.703125 38.8125 
Q 48.828125 37.15625 52.796875 32.3125 
Q 56.78125 27.484375 56.78125 20.515625 
Q 56.78125 9.90625 50.3125 4.234375 
Q 43.84375 -1.421875 31.78125 -1.421875 
Q 19.734375 -1.421875 13.25 4.234375 
Q 6.78125 9.90625 6.78125 20.515625 
Q 6.78125 27.484375 10.78125 32.3125 
Q 14.796875 37.15625 21.921875 38.8125 
z
M 18.3125 54.390625 
Q 18.3125 48.734375 21.84375 45.5625 
Q 25.390625 42.390625 31.78125 42.390625 
Q 38.140625 42.390625 41.71875 45.5625 
Q 45.3125 48.734375 45.3125 54.390625 
Q 45.3125 60.0625 41.71875 63.234375 
Q 38.140625 66.40625 31.78125 66.40625 
Q 25.390625 66.40625 21.84375 63.234375 
Q 18.3125 60.0625 18.3125 54.390625 
z
" id="DejaVuSans-56"/>
      </defs>
      <g transform="translate(20.878125 147.04397)scale(0.1 -0.1)">
       <use xlink:href="#DejaVuSans-48"/>
       <use x="63.623047" xlink:href="#DejaVuSans-46"/>
       <use x="95.410156" xlink:href="#DejaVuSans-56"/>
      </g>
     </g>
    </g>
    <g id="ytick_6">
     <g id="line2d_15">
      <g>
       <use style="stroke:#000000;stroke-width:0.8;" x="43.78125" xlink:href="#m3feca60d73" y="106.727147"/>
      </g>
     </g>
     <g id="text_16">
      <!-- 1.0 -->
      <g transform="translate(20.878125 110.526366)scale(0.1 -0.1)">
       <use xlink:href="#DejaVuSans-49"/>
       <use x="63.623047" xlink:href="#DejaVuSans-46"/>
       <use x="95.410156" xlink:href="#DejaVuSans-48"/>
      </g>
     </g>
    </g>
    <g id="ytick_7">
     <g id="line2d_16">
      <g>
       <use style="stroke:#000000;stroke-width:0.8;" x="43.78125" xlink:href="#m3feca60d73" y="70.209543"/>
      </g>
     </g>
     <g id="text_17">
      <!-- 1.2 -->
      <g transform="translate(20.878125 74.008762)scale(0.1 -0.1)">
       <use xlink:href="#DejaVuSans-49"/>
       <use x="63.623047" xlink:href="#DejaVuSans-46"/>
       <use x="95.410156" xlink:href="#DejaVuSans-50"/>
      </g>
     </g>
    </g>
    <g id="ytick_8">
     <g id="line2d_17">
      <g>
       <use style="stroke:#000000;stroke-width:0.8;" x="43.78125" xlink:href="#m3feca60d73" y="33.691939"/>
      </g>
     </g>
     <g id="text_18">
      <!-- 1.4 -->
      <g transform="translate(20.878125 37.491158)scale(0.1 -0.1)">
       <use xlink:href="#DejaVuSans-49"/>
       <use x="63.623047" xlink:href="#DejaVuSans-46"/>
       <use x="95.410156" xlink:href="#DejaVuSans-52"/>
      </g>
     </g>
    </g>
    <g id="text_19">
     <!-- variant count -->
     <defs>
      <path d="M 2.984375 54.6875 
L 12.5 54.6875 
L 29.59375 8.796875 
L 46.6875 54.6875 
L 56.203125 54.6875 
L 35.6875 0 
L 23.484375 0 
z
" id="DejaVuSans-118"/>
      <path d="M 9.421875 54.6875 
L 18.40625 54.6875 
L 18.40625 0 
L 9.421875 0 
z
M 9.421875 75.984375 
L 18.40625 75.984375 
L 18.40625 64.59375 
L 9.421875 64.59375 
z
" id="DejaVuSans-105"/>
      <path d="M 18.3125 70.21875 
L 18.3125 54.6875 
L 36.8125 54.6875 
L 36.8125 47.703125 
L 18.3125 47.703125 
L 18.3125 18.015625 
Q 18.3125 11.328125 20.140625 9.421875 
Q 21.96875 7.515625 27.59375 7.515625 
L 36.8125 7.515625 
L 36.8125 0 
L 27.59375 0 
Q 17.1875 0 13.234375 3.875 
Q 9.28125 7.765625 9.28125 18.015625 
L 9.28125 47.703125 
L 2.6875 47.703125 
L 2.6875 54.6875 
L 9.28125 54.6875 
L 9.28125 70.21875 
z
" id="DejaVuSans-116"/>
      <path d="M 30.609375 48.390625 
Q 23.390625 48.390625 19.1875 42.75 
Q 14.984375 37.109375 14.984375 27.296875 
Q 14.984375 17.484375 19.15625 11.84375 
Q 23.34375 6.203125 30.609375 6.203125 
Q 37.796875 6.203125 41.984375 11.859375 
Q 46.1875 17.53125 46.1875 27.296875 
Q 46.1875 37.015625 41.984375 42.703125 
Q 37.796875 48.390625 30.609375 48.390625 
z
M 30.609375 56 
Q 42.328125 56 49.015625 48.375 
Q 55.71875 40.765625 55.71875 27.296875 
Q 55.71875 13.875 49.015625 6.21875 
Q 42.328125 -1.421875 30.609375 -1.421875 
Q 18.84375 -1.421875 12.171875 6.21875 
Q 5.515625 13.875 5.515625 27.296875 
Q 5.515625 40.765625 12.171875 48.375 
Q 18.84375 56 30.609375 56 
z
" id="DejaVuSans-111"/>
     </defs>
     <g transform="translate(14.798438 192.654687)rotate(-90)scale(0.1 -0.1)">
      <use xlink:href="#DejaVuSans-118"/>
      <use x="59.179688" xlink:href="#DejaVuSans-97"/>
      <use x="120.458984" xlink:href="#DejaVuSans-114"/>
      <use x="161.572266" xlink:href="#DejaVuSans-105"/>
      <use x="189.355469" xlink:href="#DejaVuSans-97"/>
      <use x="250.634766" xlink:href="#DejaVuSans-110"/>
      <use x="314.013672" xlink:href="#DejaVuSans-116"/>
      <use x="353.222656" xlink:href="#DejaVuSans-32"/>
      <use x="385.009766" xlink:href="#DejaVuSans-99"/>
      <use x="439.990234" xlink:href="#DejaVuSans-111"/>
      <use x="501.171875" xlink:href="#DejaVuSans-117"/>
      <use x="564.550781" xlink:href="#DejaVuSans-110"/>
      <use x="627.929688" xlink:href="#DejaVuSans-116"/>
     </g>
    </g>
    <g id="text_20">
     <!-- 1e6 -->
     <g transform="translate(43.78125 14.798437)scale(0.1 -0.1)">
      <use xlink:href="#DejaVuSans-49"/>
      <use x="63.623047" xlink:href="#DejaVuSans-101"/>
      <use x="125.146484" xlink:href="#DejaVuSans-54"/>
     </g>
    </g>
   </g>
   <g id="line2d_18">
    <defs>
     <path d="M 0 1.5 
C 0.397805 1.5 0.77937 1.341951 1.06066 1.06066 
C 1.341951 0.77937 1.5 0.397805 1.5 0 
C 1.5 -0.397805 1.341951 -0.77937 1.06066 -1.06066 
C 0.77937 -1.341951 0.397805 -1.5 0 -1.5 
C -0.397805 -1.5 -0.77937 -1.341951 -1.06066 -1.06066 
C -1.341951 -0.77937 -1.5 -0.397805 -1.5 0 
C -1.5 0.397805 -1.341951 0.77937 -1.06066 1.06066 
C -0.77937 1.341951 -0.397805 1.5 0 1.5 
z
" id="me429760667" style="stroke:#1f77b4;"/>
    </defs>
    <g clip-path="url(#p544c6539ed)">
     <use style="fill:#1f77b4;stroke:#1f77b4;" x="62.073011" xlink:href="#me429760667" y="30.662074"/>
     <use style="fill:#1f77b4;stroke:#1f77b4;" x="63.939518" xlink:href="#me429760667" y="188.872219"/>
     <use style="fill:#1f77b4;stroke:#1f77b4;" x="65.806024" xlink:href="#me429760667" y="222.336403"/>
     <use style="fill:#1f77b4;stroke:#1f77b4;" x="67.67253" xlink:href="#me429760667" y="239.254827"/>
     <use style="fill:#1f77b4;stroke:#1f77b4;" x="69.539036" xlink:href="#me429760667" y="248.960658"/>
     <use style="fill:#1f77b4;stroke:#1f77b4;" x="71.405543" xlink:href="#me429760667" y="255.821038"/>
     <use style="fill:#1f77b4;stroke:#1f77b4;" x="73.272049" xlink:href="#me429760667" y="259.989705"/>
     <use style="fill:#1f77b4;stroke:#1f77b4;" x="75.138555" xlink:href="#me429760667" y="263.489735"/>
     <use style="fill:#1f77b4;stroke:#1f77b4;" x="77.005061" xlink:href="#me429760667" y="267.077772"/>
     <use style="fill:#1f77b4;stroke:#1f77b4;" x="78.871568" xlink:href="#me429760667" y="268.94583"/>
     <use style="fill:#1f77b4;stroke:#1f77b4;" x="80.738074" xlink:href="#me429760667" y="270.858622"/>
     <use style="fill:#1f77b4;stroke:#1f77b4;" x="82.60458" xlink:href="#me429760667" y="272.59193"/>
     <use style="fill:#1f77b4;stroke:#1f77b4;" x="84.471087" xlink:href="#me429760667" y="273.586487"/>
     <use style="fill:#1f77b4;stroke:#1f77b4;" x="86.337593" xlink:href="#me429760667" y="274.092803"/>
     <use style="fill:#1f77b4;stroke:#1f77b4;" x="88.204099" xlink:href="#me429760667" y="275.45491"/>
     <use style="fill:#1f77b4;stroke:#1f77b4;" x="90.070605" xlink:href="#me429760667" y="276.394143"/>
     <use style="fill:#1f77b4;stroke:#1f77b4;" x="91.937112" xlink:href="#me429760667" y="276.897173"/>
     <use style="fill:#1f77b4;stroke:#1f77b4;" x="93.803618" xlink:href="#me429760667" y="277.394543"/>
     <use style="fill:#1f77b4;stroke:#1f77b4;" x="95.670124" xlink:href="#me429760667" y="277.952349"/>
     <use style="fill:#1f77b4;stroke:#1f77b4;" x="97.53663" xlink:href="#me429760667" y="278.841005"/>
     <use style="fill:#1f77b4;stroke:#1f77b4;" x="99.403137" xlink:href="#me429760667" y="278.714289"/>
     <use style="fill:#1f77b4;stroke:#1f77b4;" x="101.269643" xlink:href="#me429760667" y="279.441354"/>
     <use style="fill:#1f77b4;stroke:#1f77b4;" x="103.136149" xlink:href="#me429760667" y="279.473672"/>
     <use style="fill:#1f77b4;stroke:#1f77b4;" x="105.002655" xlink:href="#me429760667" y="279.986745"/>
     <use style="fill:#1f77b4;stroke:#1f77b4;" x="106.869162" xlink:href="#me429760667" y="280.070005"/>
     <use style="fill:#1f77b4;stroke:#1f77b4;" x="108.735668" xlink:href="#me429760667" y="280.236525"/>
     <use style="fill:#1f77b4;stroke:#1f77b4;" x="110.602174" xlink:href="#me429760667" y="280.701577"/>
     <use style="fill:#1f77b4;stroke:#1f77b4;" x="112.46868" xlink:href="#me429760667" y="280.961217"/>
     <use style="fill:#1f77b4;stroke:#1f77b4;" x="114.335187" xlink:href="#me429760667" y="280.917213"/>
     <use style="fill:#1f77b4;stroke:#1f77b4;" x="116.201693" xlink:href="#me429760667" y="281.332784"/>
     <use style="fill:#1f77b4;stroke:#1f77b4;" x="118.068199" xlink:href="#me429760667" y="281.17941"/>
     <use style="fill:#1f77b4;stroke:#1f77b4;" x="119.934705" xlink:href="#me429760667" y="281.461143"/>
     <use style="fill:#1f77b4;stroke:#1f77b4;" x="121.801212" xlink:href="#me429760667" y="281.852064"/>
     <use style="fill:#1f77b4;stroke:#1f77b4;" x="123.667718" xlink:href="#me429760667" y="281.880548"/>
     <use style="fill:#1f77b4;stroke:#1f77b4;" x="125.534224" xlink:href="#me429760667" y="282.058936"/>
     <use style="fill:#1f77b4;stroke:#1f77b4;" x="127.400731" xlink:href="#me429760667" y="282.406584"/>
     <use style="fill:#1f77b4;stroke:#1f77b4;" x="129.267237" xlink:href="#me429760667" y="282.673893"/>
     <use style="fill:#1f77b4;stroke:#1f77b4;" x="131.133743" xlink:href="#me429760667" y="282.492948"/>
     <use style="fill:#1f77b4;stroke:#1f77b4;" x="133.000249" xlink:href="#me429760667" y="282.799148"/>
     <use style="fill:#1f77b4;stroke:#1f77b4;" x="134.866756" xlink:href="#me429760667" y="282.598849"/>
     <use style="fill:#1f77b4;stroke:#1f77b4;" x="136.733262" xlink:href="#me429760667" y="282.961286"/>
     <use style="fill:#1f77b4;stroke:#1f77b4;" x="138.599768" xlink:href="#me429760667" y="282.988674"/>
     <use style="fill:#1f77b4;stroke:#1f77b4;" x="140.466274" xlink:href="#me429760667" y="283.039434"/>
     <use style="fill:#1f77b4;stroke:#1f77b4;" x="142.332781" xlink:href="#me429760667" y="283.26"/>
     <use style="fill:#1f77b4;stroke:#1f77b4;" x="144.199287" xlink:href="#me429760667" y="283.274607"/>
     <use style="fill:#1f77b4;stroke:#1f77b4;" x="146.065793" xlink:href="#me429760667" y="283.515258"/>
     <use style="fill:#1f77b4;stroke:#1f77b4;" x="147.932299" xlink:href="#me429760667" y="283.588476"/>
     <use style="fill:#1f77b4;stroke:#1f77b4;" x="149.798806" xlink:href="#me429760667" y="283.837709"/>
     <use style="fill:#1f77b4;stroke:#1f77b4;" x="151.665312" xlink:href="#me429760667" y="283.728886"/>
     <use style="fill:#1f77b4;stroke:#1f77b4;" x="153.531818" xlink:href="#me429760667" y="283.94927"/>
     <use style="fill:#1f77b4;stroke:#1f77b4;" x="155.398324" xlink:href="#me429760667" y="283.847021"/>
     <use style="fill:#1f77b4;stroke:#1f77b4;" x="157.264831" xlink:href="#me429760667" y="284.075986"/>
     <use style="fill:#1f77b4;stroke:#1f77b4;" x="159.131337" xlink:href="#me429760667" y="284.119624"/>
     <use style="fill:#1f77b4;stroke:#1f77b4;" x="160.997843" xlink:href="#me429760667" y="284.086941"/>
     <use style="fill:#1f77b4;stroke:#1f77b4;" x="162.864349" xlink:href="#me429760667" y="284.225343"/>
     <use style="fill:#1f77b4;stroke:#1f77b4;" x="164.730856" xlink:href="#me429760667" y="284.348955"/>
     <use style="fill:#1f77b4;stroke:#1f77b4;" x="166.597362" xlink:href="#me429760667" y="284.408661"/>
     <use style="fill:#1f77b4;stroke:#1f77b4;" x="168.463868" xlink:href="#me429760667" y="284.411765"/>
     <use style="fill:#1f77b4;stroke:#1f77b4;" x="170.330375" xlink:href="#me429760667" y="284.487905"/>
     <use style="fill:#1f77b4;stroke:#1f77b4;" x="172.196881" xlink:href="#me429760667" y="284.526796"/>
     <use style="fill:#1f77b4;stroke:#1f77b4;" x="174.063387" xlink:href="#me429760667" y="284.457777"/>
     <use style="fill:#1f77b4;stroke:#1f77b4;" x="175.929893" xlink:href="#me429760667" y="284.420712"/>
     <use style="fill:#1f77b4;stroke:#1f77b4;" x="177.7964" xlink:href="#me429760667" y="284.641461"/>
     <use style="fill:#1f77b4;stroke:#1f77b4;" x="179.662906" xlink:href="#me429760667" y="284.81492"/>
     <use style="fill:#1f77b4;stroke:#1f77b4;" x="181.529412" xlink:href="#me429760667" y="284.891607"/>
     <use style="fill:#1f77b4;stroke:#1f77b4;" x="183.395918" xlink:href="#me429760667" y="284.833544"/>
     <use style="fill:#1f77b4;stroke:#1f77b4;" x="185.262425" xlink:href="#me429760667" y="285.049545"/>
     <use style="fill:#1f77b4;stroke:#1f77b4;" x="187.128931" xlink:href="#me429760667" y="285.128058"/>
     <use style="fill:#1f77b4;stroke:#1f77b4;" x="188.995437" xlink:href="#me429760667" y="285.18393"/>
     <use style="fill:#1f77b4;stroke:#1f77b4;" x="190.861943" xlink:href="#me429760667" y="285.154899"/>
     <use style="fill:#1f77b4;stroke:#1f77b4;" x="192.72845" xlink:href="#me429760667" y="285.15855"/>
     <use style="fill:#1f77b4;stroke:#1f77b4;" x="194.594956" xlink:href="#me429760667" y="285.26646"/>
     <use style="fill:#1f77b4;stroke:#1f77b4;" x="196.461462" xlink:href="#me429760667" y="285.194338"/>
     <use style="fill:#1f77b4;stroke:#1f77b4;" x="198.327968" xlink:href="#me429760667" y="285.533951"/>
     <use style="fill:#1f77b4;stroke:#1f77b4;" x="200.194475" xlink:href="#me429760667" y="285.458908"/>
     <use style="fill:#1f77b4;stroke:#1f77b4;" x="202.060981" xlink:href="#me429760667" y="285.309551"/>
     <use style="fill:#1f77b4;stroke:#1f77b4;" x="203.927487" xlink:href="#me429760667" y="285.476619"/>
     <use style="fill:#1f77b4;stroke:#1f77b4;" x="205.793994" xlink:href="#me429760667" y="285.480088"/>
     <use style="fill:#1f77b4;stroke:#1f77b4;" x="207.6605" xlink:href="#me429760667" y="285.489035"/>
     <use style="fill:#1f77b4;stroke:#1f77b4;" x="209.527006" xlink:href="#me429760667" y="285.547828"/>
     <use style="fill:#1f77b4;stroke:#1f77b4;" x="211.393512" xlink:href="#me429760667" y="285.704306"/>
     <use style="fill:#1f77b4;stroke:#1f77b4;" x="213.260019" xlink:href="#me429760667" y="285.678561"/>
     <use style="fill:#1f77b4;stroke:#1f77b4;" x="215.126525" xlink:href="#me429760667" y="285.695542"/>
     <use style="fill:#1f77b4;stroke:#1f77b4;" x="216.993031" xlink:href="#me429760667" y="285.683491"/>
     <use style="fill:#1f77b4;stroke:#1f77b4;" x="218.859537" xlink:href="#me429760667" y="285.77588"/>
     <use style="fill:#1f77b4;stroke:#1f77b4;" x="220.726044" xlink:href="#me429760667" y="285.694264"/>
     <use style="fill:#1f77b4;stroke:#1f77b4;" x="222.59255" xlink:href="#me429760667" y="285.85348"/>
     <use style="fill:#1f77b4;stroke:#1f77b4;" x="224.459056" xlink:href="#me429760667" y="285.853115"/>
     <use style="fill:#1f77b4;stroke:#1f77b4;" x="226.325562" xlink:href="#me429760667" y="285.897484"/>
     <use style="fill:#1f77b4;stroke:#1f77b4;" x="228.192069" xlink:href="#me429760667" y="286.085002"/>
     <use style="fill:#1f77b4;stroke:#1f77b4;" x="230.058575" xlink:href="#me429760667" y="286.025478"/>
     <use style="fill:#1f77b4;stroke:#1f77b4;" x="231.925081" xlink:href="#me429760667" y="285.946783"/>
     <use style="fill:#1f77b4;stroke:#1f77b4;" x="233.791587" xlink:href="#me429760667" y="286.052866"/>
     <use style="fill:#1f77b4;stroke:#1f77b4;" x="235.658094" xlink:href="#me429760667" y="286.279093"/>
     <use style="fill:#1f77b4;stroke:#1f77b4;" x="237.5246" xlink:href="#me429760667" y="286.222856"/>
     <use style="fill:#1f77b4;stroke:#1f77b4;" x="239.391106" xlink:href="#me429760667" y="286.177209"/>
     <use style="fill:#1f77b4;stroke:#1f77b4;" x="241.257612" xlink:href="#me429760667" y="286.397593"/>
     <use style="fill:#1f77b4;stroke:#1f77b4;" x="243.124119" xlink:href="#me429760667" y="286.168627"/>
     <use style="fill:#1f77b4;stroke:#1f77b4;" x="244.990625" xlink:href="#me429760667" y="286.148177"/>
     <use style="fill:#1f77b4;stroke:#1f77b4;" x="246.857131" xlink:href="#me429760667" y="286.276719"/>
     <use style="fill:#1f77b4;stroke:#1f77b4;" x="248.723638" xlink:href="#me429760667" y="286.296074"/>
     <use style="fill:#1f77b4;stroke:#1f77b4;" x="250.590144" xlink:href="#me429760667" y="286.312872"/>
     <use style="fill:#1f77b4;stroke:#1f77b4;" x="252.45665" xlink:href="#me429760667" y="286.187982"/>
     <use style="fill:#1f77b4;stroke:#1f77b4;" x="254.323156" xlink:href="#me429760667" y="286.305203"/>
     <use style="fill:#1f77b4;stroke:#1f77b4;" x="256.189663" xlink:href="#me429760667" y="286.394306"/>
     <use style="fill:#1f77b4;stroke:#1f77b4;" x="258.056169" xlink:href="#me429760667" y="286.315245"/>
     <use style="fill:#1f77b4;stroke:#1f77b4;" x="259.922675" xlink:href="#me429760667" y="286.499477"/>
     <use style="fill:#1f77b4;stroke:#1f77b4;" x="261.789181" xlink:href="#me429760667" y="286.457847"/>
     <use style="fill:#1f77b4;stroke:#1f77b4;" x="263.655688" xlink:href="#me429760667" y="286.513171"/>
     <use style="fill:#1f77b4;stroke:#1f77b4;" x="265.522194" xlink:href="#me429760667" y="286.556627"/>
     <use style="fill:#1f77b4;stroke:#1f77b4;" x="267.3887" xlink:href="#me429760667" y="286.608117"/>
     <use style="fill:#1f77b4;stroke:#1f77b4;" x="269.255206" xlink:href="#me429760667" y="286.672205"/>
     <use style="fill:#1f77b4;stroke:#1f77b4;" x="271.121713" xlink:href="#me429760667" y="286.662528"/>
     <use style="fill:#1f77b4;stroke:#1f77b4;" x="272.988219" xlink:href="#me429760667" y="286.754187"/>
     <use style="fill:#1f77b4;stroke:#1f77b4;" x="274.854725" xlink:href="#me429760667" y="286.616333"/>
     <use style="fill:#1f77b4;stroke:#1f77b4;" x="276.721231" xlink:href="#me429760667" y="286.815171"/>
     <use style="fill:#1f77b4;stroke:#1f77b4;" x="278.587738" xlink:href="#me429760667" y="286.815902"/>
     <use style="fill:#1f77b4;stroke:#1f77b4;" x="280.454244" xlink:href="#me429760667" y="286.586023"/>
     <use style="fill:#1f77b4;stroke:#1f77b4;" x="282.32075" xlink:href="#me429760667" y="286.774637"/>
     <use style="fill:#1f77b4;stroke:#1f77b4;" x="284.187256" xlink:href="#me429760667" y="286.812067"/>
     <use style="fill:#1f77b4;stroke:#1f77b4;" x="286.053763" xlink:href="#me429760667" y="286.834891"/>
     <use style="fill:#1f77b4;stroke:#1f77b4;" x="287.920269" xlink:href="#me429760667" y="286.897153"/>
     <use style="fill:#1f77b4;stroke:#1f77b4;" x="289.786775" xlink:href="#me429760667" y="286.825944"/>
     <use style="fill:#1f77b4;stroke:#1f77b4;" x="291.653282" xlink:href="#me429760667" y="286.762221"/>
     <use style="fill:#1f77b4;stroke:#1f77b4;" x="293.519788" xlink:href="#me429760667" y="286.880355"/>
     <use style="fill:#1f77b4;stroke:#1f77b4;" x="295.386294" xlink:href="#me429760667" y="286.767881"/>
     <use style="fill:#1f77b4;stroke:#1f77b4;" x="297.2528" xlink:href="#me429760667" y="286.908474"/>
     <use style="fill:#1f77b4;stroke:#1f77b4;" x="299.119307" xlink:href="#me429760667" y="286.87013"/>
     <use style="fill:#1f77b4;stroke:#1f77b4;" x="300.985813" xlink:href="#me429760667" y="286.868852"/>
     <use style="fill:#1f77b4;stroke:#1f77b4;" x="302.852319" xlink:href="#me429760667" y="287.013462"/>
     <use style="fill:#1f77b4;stroke:#1f77b4;" x="304.718825" xlink:href="#me429760667" y="287.022774"/>
     <use style="fill:#1f77b4;stroke:#1f77b4;" x="306.585332" xlink:href="#me429760667" y="286.907378"/>
     <use style="fill:#1f77b4;stroke:#1f77b4;" x="308.451838" xlink:href="#me429760667" y="287.017479"/>
     <use style="fill:#1f77b4;stroke:#1f77b4;" x="310.318344" xlink:href="#me429760667" y="286.963798"/>
     <use style="fill:#1f77b4;stroke:#1f77b4;" x="312.18485" xlink:href="#me429760667" y="286.957407"/>
     <use style="fill:#1f77b4;stroke:#1f77b4;" x="314.051357" xlink:href="#me429760667" y="286.934949"/>
     <use style="fill:#1f77b4;stroke:#1f77b4;" x="315.917863" xlink:href="#me429760667" y="287.085219"/>
     <use style="fill:#1f77b4;stroke:#1f77b4;" x="317.784369" xlink:href="#me429760667" y="287.140361"/>
     <use style="fill:#1f77b4;stroke:#1f77b4;" x="319.650875" xlink:href="#me429760667" y="287.072621"/>
     <use style="fill:#1f77b4;stroke:#1f77b4;" x="321.517382" xlink:href="#me429760667" y="287.154785"/>
     <use style="fill:#1f77b4;stroke:#1f77b4;" x="323.383888" xlink:href="#me429760667" y="287.236219"/>
     <use style="fill:#1f77b4;stroke:#1f77b4;" x="325.250394" xlink:href="#me429760667" y="287.156063"/>
     <use style="fill:#1f77b4;stroke:#1f77b4;" x="327.116901" xlink:href="#me429760667" y="287.246809"/>
     <use style="fill:#1f77b4;stroke:#1f77b4;" x="328.983407" xlink:href="#me429760667" y="287.186373"/>
     <use style="fill:#1f77b4;stroke:#1f77b4;" x="330.849913" xlink:href="#me429760667" y="287.162819"/>
     <use style="fill:#1f77b4;stroke:#1f77b4;" x="332.716419" xlink:href="#me429760667" y="287.23768"/>
     <use style="fill:#1f77b4;stroke:#1f77b4;" x="334.582926" xlink:href="#me429760667" y="287.349059"/>
     <use style="fill:#1f77b4;stroke:#1f77b4;" x="336.449432" xlink:href="#me429760667" y="287.249548"/>
     <use style="fill:#1f77b4;stroke:#1f77b4;" x="338.315938" xlink:href="#me429760667" y="287.375899"/>
     <use style="fill:#1f77b4;stroke:#1f77b4;" x="340.182444" xlink:href="#me429760667" y="287.370787"/>
     <use style="fill:#1f77b4;stroke:#1f77b4;" x="342.048951" xlink:href="#me429760667" y="287.347233"/>
     <use style="fill:#1f77b4;stroke:#1f77b4;" x="343.915457" xlink:href="#me429760667" y="287.380464"/>
     <use style="fill:#1f77b4;stroke:#1f77b4;" x="345.781963" xlink:href="#me429760667" y="287.269998"/>
     <use style="fill:#1f77b4;stroke:#1f77b4;" x="347.648469" xlink:href="#me429760667" y="287.351067"/>
     <use style="fill:#1f77b4;stroke:#1f77b4;" x="349.514976" xlink:href="#me429760667" y="287.382107"/>
     <use style="fill:#1f77b4;stroke:#1f77b4;" x="351.381482" xlink:href="#me429760667" y="287.484356"/>
     <use style="fill:#1f77b4;stroke:#1f77b4;" x="353.247988" xlink:href="#me429760667" y="287.325322"/>
     <use style="fill:#1f77b4;stroke:#1f77b4;" x="355.114494" xlink:href="#me429760667" y="287.45003"/>
     <use style="fill:#1f77b4;stroke:#1f77b4;" x="356.981001" xlink:href="#me429760667" y="287.431771"/>
     <use style="fill:#1f77b4;stroke:#1f77b4;" x="358.847507" xlink:href="#me429760667" y="287.400914"/>
     <use style="fill:#1f77b4;stroke:#1f77b4;" x="360.714013" xlink:href="#me429760667" y="287.542602"/>
     <use style="fill:#1f77b4;stroke:#1f77b4;" x="362.580519" xlink:href="#me429760667" y="287.573825"/>
     <use style="fill:#1f77b4;stroke:#1f77b4;" x="364.447026" xlink:href="#me429760667" y="287.66877"/>
     <use style="fill:#1f77b4;stroke:#1f77b4;" x="366.313532" xlink:href="#me429760667" y="287.637365"/>
     <use style="fill:#1f77b4;stroke:#1f77b4;" x="368.180038" xlink:href="#me429760667" y="287.604317"/>
     <use style="fill:#1f77b4;stroke:#1f77b4;" x="370.046545" xlink:href="#me429760667" y="287.531464"/>
     <use style="fill:#1f77b4;stroke:#1f77b4;" x="371.913051" xlink:href="#me429760667" y="287.664753"/>
     <use style="fill:#1f77b4;stroke:#1f77b4;" x="373.779557" xlink:href="#me429760667" y="287.568895"/>
     <use style="fill:#1f77b4;stroke:#1f77b4;" x="375.646063" xlink:href="#me429760667" y="287.536029"/>
     <use style="fill:#1f77b4;stroke:#1f77b4;" x="377.51257" xlink:href="#me429760667" y="287.700906"/>
     <use style="fill:#1f77b4;stroke:#1f77b4;" x="379.379076" xlink:href="#me429760667" y="287.5594"/>
     <use style="fill:#1f77b4;stroke:#1f77b4;" x="381.245582" xlink:href="#me429760667" y="287.723547"/>
     <use style="fill:#1f77b4;stroke:#1f77b4;" x="383.112088" xlink:href="#me429760667" y="287.697254"/>
     <use style="fill:#1f77b4;stroke:#1f77b4;" x="384.978595" xlink:href="#me429760667" y="287.638278"/>
     <use style="fill:#1f77b4;stroke:#1f77b4;" x="386.845101" xlink:href="#me429760667" y="287.778323"/>
     <use style="fill:#1f77b4;stroke:#1f77b4;" x="388.711607" xlink:href="#me429760667" y="287.675344"/>
     <use style="fill:#1f77b4;stroke:#1f77b4;" x="390.578113" xlink:href="#me429760667" y="287.774489"/>
     <use style="fill:#1f77b4;stroke:#1f77b4;" x="392.44462" xlink:href="#me429760667" y="287.719895"/>
     <use style="fill:#1f77b4;stroke:#1f77b4;" x="394.311126" xlink:href="#me429760667" y="287.934801"/>
     <use style="fill:#1f77b4;stroke:#1f77b4;" x="396.177632" xlink:href="#me429760667" y="287.73998"/>
     <use style="fill:#1f77b4;stroke:#1f77b4;" x="398.044138" xlink:href="#me429760667" y="287.84369"/>
     <use style="fill:#1f77b4;stroke:#1f77b4;" x="399.910645" xlink:href="#me429760667" y="287.811189"/>
     <use style="fill:#1f77b4;stroke:#1f77b4;" x="401.777151" xlink:href="#me429760667" y="287.858479"/>
     <use style="fill:#1f77b4;stroke:#1f77b4;" x="403.643657" xlink:href="#me429760667" y="287.751665"/>
     <use style="fill:#1f77b4;stroke:#1f77b4;" x="405.510163" xlink:href="#me429760667" y="287.848072"/>
     <use style="fill:#1f77b4;stroke:#1f77b4;" x="407.37667" xlink:href="#me429760667" y="287.842412"/>
     <use style="fill:#1f77b4;stroke:#1f77b4;" x="409.243176" xlink:href="#me429760667" y="287.856288"/>
     <use style="fill:#1f77b4;stroke:#1f77b4;" x="411.109682" xlink:href="#me429760667" y="287.771933"/>
     <use style="fill:#1f77b4;stroke:#1f77b4;" x="412.976189" xlink:href="#me429760667" y="287.815389"/>
     <use style="fill:#1f77b4;stroke:#1f77b4;" x="414.842695" xlink:href="#me429760667" y="287.792565"/>
     <use style="fill:#1f77b4;stroke:#1f77b4;" x="416.709201" xlink:href="#me429760667" y="287.796399"/>
     <use style="fill:#1f77b4;stroke:#1f77b4;" x="418.575707" xlink:href="#me429760667" y="287.910882"/>
     <use style="fill:#1f77b4;stroke:#1f77b4;" x="420.442214" xlink:href="#me429760667" y="287.735232"/>
     <use style="fill:#1f77b4;stroke:#1f77b4;" x="422.30872" xlink:href="#me429760667" y="287.725373"/>
     <use style="fill:#1f77b4;stroke:#1f77b4;" x="424.175226" xlink:href="#me429760667" y="287.684473"/>
     <use style="fill:#1f77b4;stroke:#1f77b4;" x="426.041732" xlink:href="#me429760667" y="287.354354"/>
     <use style="fill:#1f77b4;stroke:#1f77b4;" x="427.908239" xlink:href="#me429760667" y="286.887294"/>
    </g>
   </g>
   <g id="patch_3">
    <path d="M 43.78125 300.798437 
L 43.78125 17.798437 
" style="fill:none;stroke:#000000;stroke-linecap:square;stroke-linejoin:miter;stroke-width:0.8;"/>
   </g>
   <g id="patch_4">
    <path d="M 446.2 300.798437 
L 446.2 17.798437 
" style="fill:none;stroke:#000000;stroke-linecap:square;stroke-linejoin:miter;stroke-width:0.8;"/>
   </g>
   <g id="patch_5">
    <path d="M 43.78125 300.798437 
L 446.2 300.798437 
" style="fill:none;stroke:#000000;stroke-linecap:square;stroke-linejoin:miter;stroke-width:0.8;"/>
   </g>
   <g id="patch_6">
    <path d="M 43.78125 17.798437 
L 446.2 17.798437 
" style="fill:none;stroke:#000000;stroke-linecap:square;stroke-linejoin:miter;stroke-width:0.8;"/>
   </g>
  </g>
 </g>
 <defs>
  <clipPath id="p544c6539ed">
   <rect height="283" width="402.41875" x="43.78125" y="17.798438"/>
  </clipPath>
 </defs>
</svg>
