<?xml version="1.0" encoding="utf-8" standalone="no"?>
<!DOCTYPE svg PUBLIC "-//W3C//DTD SVG 1.1//EN"
  "http://www.w3.org/Graphics/SVG/1.1/DTD/svg11.dtd">
<!-- Created with matplotlib (https://matplotlib.org/) -->
<svg height="424.8pt" version="1.1" viewBox="0 0 424.8 424.8" width="424.8pt" xmlns="http://www.w3.org/2000/svg" xmlns:xlink="http://www.w3.org/1999/xlink">
 <defs>
  <style type="text/css">
*{stroke-linecap:butt;stroke-linejoin:round;}
  </style>
 </defs>
 <g id="figure_1">
  <g id="patch_1">
   <path d="M 0 424.8 
L 424.8 424.8 
L 424.8 0 
L 0 0 
z
" style="fill:#ffffff;"/>
  </g>
  <g id="patch_2">
   <path d="M 7.2 417.6 
L 417.6 417.6 
L 417.6 7.2 
L 7.2 7.2 
z
" style="fill:#ffffff;"/>
  </g>
  <g id="pane3d_1">
   <g id="patch_3">
    <path d="M 281.853968 260.459393 
L 367.74917 340.57447 
L 373.349819 117.703946 
L 284.032953 54.47605 
" style="fill:#f2f2f2;opacity:0.5;stroke:#f2f2f2;stroke-linejoin:miter;"/>
   </g>
  </g>
  <g id="pane3d_2">
   <g id="patch_4">
    <path d="M 281.853968 260.459393 
L 76.512719 287.98966 
L 71.530846 76.158015 
L 284.032953 54.47605 
" style="fill:#e6e6e6;opacity:0.5;stroke:#e6e6e6;stroke-linejoin:miter;"/>
   </g>
  </g>
  <g id="pane3d_3">
   <g id="patch_5">
    <path d="M 281.853968 260.459393 
L 76.512719 287.98966 
L 145.642951 373.564373 
L 367.74917 340.57447 
" style="fill:#ececec;opacity:0.5;stroke:#ececec;stroke-linejoin:miter;"/>
   </g>
  </g>
  <g id="axis3d_1">
   <g id="line2d_1">
    <path d="M 367.74917 340.57447 
L 145.642951 373.564373 
" style="fill:none;stroke:#000000;stroke-linecap:square;stroke-width:0.8;"/>
   </g>
   <g id="text_1">
    <!-- UMAP 1 -->
    <defs>
     <path d="M 8.6875 72.90625 
L 18.609375 72.90625 
L 18.609375 28.609375 
Q 18.609375 16.890625 22.84375 11.734375 
Q 27.09375 6.59375 36.625 6.59375 
Q 46.09375 6.59375 50.34375 11.734375 
Q 54.59375 16.890625 54.59375 28.609375 
L 54.59375 72.90625 
L 64.5 72.90625 
L 64.5 27.390625 
Q 64.5 13.140625 57.4375 5.859375 
Q 50.390625 -1.421875 36.625 -1.421875 
Q 22.796875 -1.421875 15.734375 5.859375 
Q 8.6875 13.140625 8.6875 27.390625 
z
" id="DejaVuSans-85"/>
     <path d="M 9.8125 72.90625 
L 24.515625 72.90625 
L 43.109375 23.296875 
L 61.8125 72.90625 
L 76.515625 72.90625 
L 76.515625 0 
L 66.890625 0 
L 66.890625 64.015625 
L 48.09375 14.015625 
L 38.1875 14.015625 
L 19.390625 64.015625 
L 19.390625 0 
L 9.8125 0 
z
" id="DejaVuSans-77"/>
     <path d="M 34.1875 63.1875 
L 20.796875 26.90625 
L 47.609375 26.90625 
z
M 28.609375 72.90625 
L 39.796875 72.90625 
L 67.578125 0 
L 57.328125 0 
L 50.6875 18.703125 
L 17.828125 18.703125 
L 11.1875 0 
L 0.78125 0 
z
" id="DejaVuSans-65"/>
     <path d="M 19.671875 64.796875 
L 19.671875 37.40625 
L 32.078125 37.40625 
Q 38.96875 37.40625 42.71875 40.96875 
Q 46.484375 44.53125 46.484375 51.125 
Q 46.484375 57.671875 42.71875 61.234375 
Q 38.96875 64.796875 32.078125 64.796875 
z
M 9.8125 72.90625 
L 32.078125 72.90625 
Q 44.34375 72.90625 50.609375 67.359375 
Q 56.890625 61.8125 56.890625 51.125 
Q 56.890625 40.328125 50.609375 34.8125 
Q 44.34375 29.296875 32.078125 29.296875 
L 19.671875 29.296875 
L 19.671875 0 
L 9.8125 0 
z
" id="DejaVuSans-80"/>
     <path id="DejaVuSans-32"/>
     <path d="M 12.40625 8.296875 
L 28.515625 8.296875 
L 28.515625 63.921875 
L 10.984375 60.40625 
L 10.984375 69.390625 
L 28.421875 72.90625 
L 38.28125 72.90625 
L 38.28125 8.296875 
L 54.390625 8.296875 
L 54.390625 0 
L 12.40625 0 
z
" id="DejaVuSans-49"/>
    </defs>
    <g transform="translate(249.897957 398.667447)rotate(-8.448494)scale(0.1 -0.1)">
     <use xlink:href="#DejaVuSans-85"/>
     <use x="73.193359" xlink:href="#DejaVuSans-77"/>
     <use x="159.472656" xlink:href="#DejaVuSans-65"/>
     <use x="227.880859" xlink:href="#DejaVuSans-80"/>
     <use x="288.183594" xlink:href="#DejaVuSans-32"/>
     <use x="319.970703" xlink:href="#DejaVuSans-49"/>
    </g>
   </g>
   <g id="Line3DCollection_1">
    <path d="M 336.616436 345.198681 
L 252.997372 264.32822 
L 254.198027 57.52016 
" style="fill:none;stroke:#b0b0b0;stroke-width:0.8;"/>
    <path d="M 306.177562 349.719831 
L 224.807227 268.107696 
L 225.043316 60.494867 
" style="fill:none;stroke:#b0b0b0;stroke-width:0.8;"/>
    <path d="M 275.446271 354.284414 
L 196.369627 271.920348 
L 195.623837 63.496588 
" style="fill:none;stroke:#b0b0b0;stroke-width:0.8;"/>
    <path d="M 244.418327 358.893059 
L 167.681299 275.766615 
L 165.935968 66.525694 
" style="fill:none;stroke:#b0b0b0;stroke-width:0.8;"/>
    <path d="M 213.089416 363.546408 
L 138.738913 279.646944 
L 135.976017 69.58256 
" style="fill:none;stroke:#b0b0b0;stroke-width:0.8;"/>
    <path d="M 181.455136 368.245114 
L 109.539079 283.561789 
L 105.740229 72.667571 
" style="fill:none;stroke:#b0b0b0;stroke-width:0.8;"/>
   </g>
   <g id="xtick_1">
    <g id="line2d_2">
     <path d="M 335.885481 344.491753 
L 338.081631 346.615714 
" style="fill:none;stroke:#000000;stroke-linecap:square;stroke-width:0.8;"/>
    </g>
    <g id="text_2">
     <!-- −5 -->
     <defs>
      <path d="M 10.59375 35.5 
L 73.1875 35.5 
L 73.1875 27.203125 
L 10.59375 27.203125 
z
" id="DejaVuSans-8722"/>
      <path d="M 10.796875 72.90625 
L 49.515625 72.90625 
L 49.515625 64.59375 
L 19.828125 64.59375 
L 19.828125 46.734375 
Q 21.96875 47.46875 24.109375 47.828125 
Q 26.265625 48.1875 28.421875 48.1875 
Q 40.625 48.1875 47.75 41.5 
Q 54.890625 34.8125 54.890625 23.390625 
Q 54.890625 11.625 47.5625 5.09375 
Q 40.234375 -1.421875 26.90625 -1.421875 
Q 22.3125 -1.421875 17.546875 -0.640625 
Q 12.796875 0.140625 7.71875 1.703125 
L 7.71875 11.625 
Q 12.109375 9.234375 16.796875 8.0625 
Q 21.484375 6.890625 26.703125 6.890625 
Q 35.15625 6.890625 40.078125 11.328125 
Q 45.015625 15.765625 45.015625 23.390625 
Q 45.015625 31 40.078125 35.4375 
Q 35.15625 39.890625 26.703125 39.890625 
Q 22.75 39.890625 18.8125 39.015625 
Q 14.890625 38.140625 10.796875 36.28125 
z
" id="DejaVuSans-53"/>
     </defs>
     <g transform="translate(333.948063 369.211799)scale(0.1 -0.1)">
      <use xlink:href="#DejaVuSans-8722"/>
      <use x="83.789062" xlink:href="#DejaVuSans-53"/>
     </g>
    </g>
   </g>
   <g id="xtick_2">
    <g id="line2d_3">
     <path d="M 305.465977 349.00613 
L 307.603947 351.150454 
" style="fill:none;stroke:#000000;stroke-linecap:square;stroke-width:0.8;"/>
    </g>
    <g id="text_3">
     <!-- 0 -->
     <defs>
      <path d="M 31.78125 66.40625 
Q 24.171875 66.40625 20.328125 58.90625 
Q 16.5 51.421875 16.5 36.375 
Q 16.5 21.390625 20.328125 13.890625 
Q 24.171875 6.390625 31.78125 6.390625 
Q 39.453125 6.390625 43.28125 13.890625 
Q 47.125 21.390625 47.125 36.375 
Q 47.125 51.421875 43.28125 58.90625 
Q 39.453125 66.40625 31.78125 66.40625 
z
M 31.78125 74.21875 
Q 44.046875 74.21875 50.515625 64.515625 
Q 56.984375 54.828125 56.984375 36.375 
Q 56.984375 17.96875 50.515625 8.265625 
Q 44.046875 -1.421875 31.78125 -1.421875 
Q 19.53125 -1.421875 13.0625 8.265625 
Q 6.59375 17.96875 6.59375 36.375 
Q 6.59375 54.828125 13.0625 64.515625 
Q 19.53125 74.21875 31.78125 74.21875 
z
" id="DejaVuSans-48"/>
     </defs>
     <g transform="translate(307.627028 373.825706)scale(0.1 -0.1)">
      <use xlink:href="#DejaVuSans-48"/>
     </g>
    </g>
   </g>
   <g id="xtick_3">
    <g id="line2d_4">
     <path d="M 274.754461 353.563843 
L 276.83303 355.728825 
" style="fill:none;stroke:#000000;stroke-linecap:square;stroke-width:0.8;"/>
    </g>
    <g id="text_4">
     <!-- 5 -->
     <g transform="translate(276.822124 378.484076)scale(0.1 -0.1)">
      <use xlink:href="#DejaVuSans-53"/>
     </g>
    </g>
   </g>
   <g id="xtick_4">
    <g id="line2d_5">
     <path d="M 243.746708 358.165519 
L 245.764627 360.351458 
" style="fill:none;stroke:#000000;stroke-linecap:square;stroke-width:0.8;"/>
    </g>
    <g id="text_5">
     <!-- 10 -->
     <g transform="translate(242.537675 383.187554)scale(0.1 -0.1)">
      <use xlink:href="#DejaVuSans-49"/>
      <use x="63.623047" xlink:href="#DejaVuSans-48"/>
     </g>
    </g>
   </g>
   <g id="xtick_5">
    <g id="line2d_6">
     <path d="M 212.438413 362.811796 
L 214.394404 365.018998 
" style="fill:none;stroke:#000000;stroke-linecap:square;stroke-width:0.8;"/>
    </g>
    <g id="text_6">
     <!-- 15 -->
     <g transform="translate(211.131827 387.9368)scale(0.1 -0.1)">
      <use xlink:href="#DejaVuSans-49"/>
      <use x="63.623047" xlink:href="#DejaVuSans-53"/>
     </g>
    </g>
   </g>
   <g id="xtick_6">
    <g id="line2d_7">
     <path d="M 180.825184 367.503327 
L 182.717939 369.732104 
" style="fill:none;stroke:#000000;stroke-linecap:square;stroke-width:0.8;"/>
    </g>
    <g id="text_7">
     <!-- 20 -->
     <defs>
      <path d="M 19.1875 8.296875 
L 53.609375 8.296875 
L 53.609375 0 
L 7.328125 0 
L 7.328125 8.296875 
Q 12.9375 14.109375 22.625 23.890625 
Q 32.328125 33.6875 34.8125 36.53125 
Q 39.546875 41.84375 41.421875 45.53125 
Q 43.3125 49.21875 43.3125 52.78125 
Q 43.3125 58.59375 39.234375 62.25 
Q 35.15625 65.921875 28.609375 65.921875 
Q 23.96875 65.921875 18.8125 64.3125 
Q 13.671875 62.703125 7.8125 59.421875 
L 7.8125 69.390625 
Q 13.765625 71.78125 18.9375 73 
Q 24.125 74.21875 28.421875 74.21875 
Q 39.75 74.21875 46.484375 68.546875 
Q 53.21875 62.890625 53.21875 53.421875 
Q 53.21875 48.921875 51.53125 44.890625 
Q 49.859375 40.875 45.40625 35.40625 
Q 44.1875 33.984375 37.640625 27.21875 
Q 31.109375 20.453125 19.1875 8.296875 
z
" id="DejaVuSans-50"/>
     </defs>
     <g transform="translate(179.418891 392.732484)scale(0.1 -0.1)">
      <use xlink:href="#DejaVuSans-50"/>
      <use x="63.623047" xlink:href="#DejaVuSans-48"/>
     </g>
    </g>
   </g>
  </g>
  <g id="axis3d_2">
   <g id="line2d_8">
    <path d="M 76.512719 287.98966 
L 145.642951 373.564373 
" style="fill:none;stroke:#000000;stroke-linecap:square;stroke-width:0.8;"/>
   </g>
   <g id="text_8">
    <!-- UMAP 2 -->
    <g transform="translate(69.955021 344.116533)rotate(-308.932484)scale(0.1 -0.1)">
     <use xlink:href="#DejaVuSans-85"/>
     <use x="73.193359" xlink:href="#DejaVuSans-77"/>
     <use x="159.472656" xlink:href="#DejaVuSans-65"/>
     <use x="227.880859" xlink:href="#DejaVuSans-80"/>
     <use x="288.183594" xlink:href="#DejaVuSans-32"/>
     <use x="319.970703" xlink:href="#DejaVuSans-50"/>
    </g>
   </g>
   <g id="Line3DCollection_2">
    <path d="M 295.426253 62.54143 
L 292.84121 270.707273 
L 85.332527 298.907495 
" style="fill:none;stroke:#b0b0b0;stroke-width:0.8;"/>
    <path d="M 310.664502 73.328669 
L 307.522433 284.400556 
L 97.128098 313.50896 
" style="fill:none;stroke:#b0b0b0;stroke-width:0.8;"/>
    <path d="M 326.406728 84.472677 
L 322.672495 298.531129 
L 109.31295 328.592306 
" style="fill:none;stroke:#b0b0b0;stroke-width:0.8;"/>
    <path d="M 342.678356 95.991451 
L 338.314218 313.120277 
L 121.906677 344.181789 
" style="fill:none;stroke:#b0b0b0;stroke-width:0.8;"/>
    <path d="M 359.506548 107.904219 
L 354.471931 328.190693 
L 134.93021 360.303319 
" style="fill:none;stroke:#b0b0b0;stroke-width:0.8;"/>
   </g>
   <g id="xtick_7">
    <g id="line2d_9">
     <path d="M 87.045884 298.674652 
L 81.903151 299.373544 
" style="fill:none;stroke:#000000;stroke-linecap:square;stroke-width:0.8;"/>
    </g>
    <g id="text_9">
     <!-- −5 -->
     <g transform="translate(66.682885 319.19487)scale(0.1 -0.1)">
      <use xlink:href="#DejaVuSans-8722"/>
      <use x="83.789062" xlink:href="#DejaVuSans-53"/>
     </g>
    </g>
   </g>
   <g id="xtick_8">
    <g id="line2d_10">
     <path d="M 98.866158 313.268496 
L 93.649233 313.990266 
" style="fill:none;stroke:#000000;stroke-linecap:square;stroke-width:0.8;"/>
    </g>
    <g id="text_10">
     <!-- 0 -->
     <g transform="translate(82.483893 334.000636)scale(0.1 -0.1)">
      <use xlink:href="#DejaVuSans-48"/>
     </g>
    </g>
   </g>
   <g id="xtick_9">
    <g id="line2d_11">
     <path d="M 111.076423 328.343842 
L 105.783171 329.089632 
" style="fill:none;stroke:#000000;stroke-linecap:square;stroke-width:0.8;"/>
    </g>
    <g id="text_11">
     <!-- 5 -->
     <g transform="translate(94.478208 349.29497)scale(0.1 -0.1)">
      <use xlink:href="#DejaVuSans-53"/>
     </g>
    </g>
   </g>
   <g id="xtick_10">
    <g id="line2d_12">
     <path d="M 123.696306 343.924919 
L 118.324497 344.695948 
" style="fill:none;stroke:#000000;stroke-linecap:square;stroke-width:0.8;"/>
    </g>
    <g id="text_12">
     <!-- 10 -->
     <g transform="translate(103.693708 365.10246)scale(0.1 -0.1)">
      <use xlink:href="#DejaVuSans-49"/>
      <use x="63.623047" xlink:href="#DejaVuSans-48"/>
     </g>
    </g>
   </g>
   <g id="xtick_11">
    <g id="line2d_13">
     <path d="M 136.746768 360.037609 
L 131.294078 360.835181 
" style="fill:none;stroke:#000000;stroke-linecap:square;stroke-width:0.8;"/>
    </g>
    <g id="text_13">
     <!-- 15 -->
     <g transform="translate(116.51349 381.449374)scale(0.1 -0.1)">
      <use xlink:href="#DejaVuSans-49"/>
      <use x="63.623047" xlink:href="#DejaVuSans-53"/>
     </g>
    </g>
   </g>
  </g>
  <g id="axis3d_3">
   <g id="line2d_14">
    <path d="M 76.512719 287.98966 
L 71.530846 76.158015 
" style="fill:none;stroke:#000000;stroke-linecap:square;stroke-width:0.8;"/>
   </g>
   <g id="text_14">
    <!-- $\log_{10}(t)$ -->
    <defs>
     <path d="M 9.421875 75.984375 
L 18.40625 75.984375 
L 18.40625 0 
L 9.421875 0 
z
" id="DejaVuSans-108"/>
     <path d="M 30.609375 48.390625 
Q 23.390625 48.390625 19.1875 42.75 
Q 14.984375 37.109375 14.984375 27.296875 
Q 14.984375 17.484375 19.15625 11.84375 
Q 23.34375 6.203125 30.609375 6.203125 
Q 37.796875 6.203125 41.984375 11.859375 
Q 46.1875 17.53125 46.1875 27.296875 
Q 46.1875 37.015625 41.984375 42.703125 
Q 37.796875 48.390625 30.609375 48.390625 
z
M 30.609375 56 
Q 42.328125 56 49.015625 48.375 
Q 55.71875 40.765625 55.71875 27.296875 
Q 55.71875 13.875 49.015625 6.21875 
Q 42.328125 -1.421875 30.609375 -1.421875 
Q 18.84375 -1.421875 12.171875 6.21875 
Q 5.515625 13.875 5.515625 27.296875 
Q 5.515625 40.765625 12.171875 48.375 
Q 18.84375 56 30.609375 56 
z
" id="DejaVuSans-111"/>
     <path d="M 45.40625 27.984375 
Q 45.40625 37.75 41.375 43.109375 
Q 37.359375 48.484375 30.078125 48.484375 
Q 22.859375 48.484375 18.828125 43.109375 
Q 14.796875 37.75 14.796875 27.984375 
Q 14.796875 18.265625 18.828125 12.890625 
Q 22.859375 7.515625 30.078125 7.515625 
Q 37.359375 7.515625 41.375 12.890625 
Q 45.40625 18.265625 45.40625 27.984375 
z
M 54.390625 6.78125 
Q 54.390625 -7.171875 48.1875 -13.984375 
Q 42 -20.796875 29.203125 -20.796875 
Q 24.46875 -20.796875 20.265625 -20.09375 
Q 16.0625 -19.390625 12.109375 -17.921875 
L 12.109375 -9.1875 
Q 16.0625 -11.328125 19.921875 -12.34375 
Q 23.78125 -13.375 27.78125 -13.375 
Q 36.625 -13.375 41.015625 -8.765625 
Q 45.40625 -4.15625 45.40625 5.171875 
L 45.40625 9.625 
Q 42.625 4.78125 38.28125 2.390625 
Q 33.9375 0 27.875 0 
Q 17.828125 0 11.671875 7.65625 
Q 5.515625 15.328125 5.515625 27.984375 
Q 5.515625 40.671875 11.671875 48.328125 
Q 17.828125 56 27.875 56 
Q 33.9375 56 38.28125 53.609375 
Q 42.625 51.21875 45.40625 46.390625 
L 45.40625 54.6875 
L 54.390625 54.6875 
z
" id="DejaVuSans-103"/>
     <path d="M 31 75.875 
Q 24.46875 64.65625 21.28125 53.65625 
Q 18.109375 42.671875 18.109375 31.390625 
Q 18.109375 20.125 21.3125 9.0625 
Q 24.515625 -2 31 -13.1875 
L 23.1875 -13.1875 
Q 15.875 -1.703125 12.234375 9.375 
Q 8.59375 20.453125 8.59375 31.390625 
Q 8.59375 42.28125 12.203125 53.3125 
Q 15.828125 64.359375 23.1875 75.875 
z
" id="DejaVuSans-40"/>
     <path d="M 42.28125 54.6875 
L 40.921875 47.703125 
L 23 47.703125 
L 17.1875 18.015625 
Q 16.890625 16.359375 16.75 15.234375 
Q 16.609375 14.109375 16.609375 13.484375 
Q 16.609375 10.359375 18.484375 8.9375 
Q 20.359375 7.515625 24.515625 7.515625 
L 33.59375 7.515625 
L 32.078125 0 
L 23.484375 0 
Q 15.484375 0 11.546875 3.125 
Q 7.625 6.25 7.625 12.59375 
Q 7.625 13.71875 7.765625 15.0625 
Q 7.90625 16.40625 8.203125 18.015625 
L 14.015625 47.703125 
L 6.390625 47.703125 
L 7.8125 54.6875 
L 15.28125 54.6875 
L 18.3125 70.21875 
L 27.296875 70.21875 
L 24.3125 54.6875 
z
" id="DejaVuSans-Oblique-116"/>
     <path d="M 8.015625 75.875 
L 15.828125 75.875 
Q 23.140625 64.359375 26.78125 53.3125 
Q 30.421875 42.28125 30.421875 31.390625 
Q 30.421875 20.453125 26.78125 9.375 
Q 23.140625 -1.703125 15.828125 -13.1875 
L 8.015625 -13.1875 
Q 14.5 -2 17.703125 9.0625 
Q 20.90625 20.125 20.90625 31.390625 
Q 20.90625 42.671875 17.703125 53.65625 
Q 14.5 64.65625 8.015625 75.875 
z
" id="DejaVuSans-41"/>
    </defs>
    <g transform="translate(38.405005 160.645877)rotate(-271.347238)scale(0.1 -0.1)">
     <use transform="translate(0 0.015625)" xlink:href="#DejaVuSans-108"/>
     <use transform="translate(27.783203 0.015625)" xlink:href="#DejaVuSans-111"/>
     <use transform="translate(88.964844 0.015625)" xlink:href="#DejaVuSans-103"/>
     <use transform="translate(153.398438 -16.390625)scale(0.7)" xlink:href="#DejaVuSans-49"/>
     <use transform="translate(197.93457 -16.390625)scale(0.7)" xlink:href="#DejaVuSans-48"/>
     <use transform="translate(245.205078 0.015625)" xlink:href="#DejaVuSans-40"/>
     <use transform="translate(284.21875 0.015625)" xlink:href="#DejaVuSans-Oblique-116"/>
     <use transform="translate(323.427734 0.015625)" xlink:href="#DejaVuSans-41"/>
    </g>
   </g>
   <g id="Line3DCollection_3">
    <path d="M 76.416407 283.894394 
L 281.896139 256.472929 
L 367.857224 336.274603 
" style="fill:none;stroke:#b0b0b0;stroke-width:0.8;"/>
    <path d="M 74.857366 217.603242 
L 282.578518 191.966364 
L 369.607536 266.623255 
" style="fill:none;stroke:#b0b0b0;stroke-width:0.8;"/>
    <path d="M 73.263595 149.835342 
L 283.275618 126.068318 
L 371.399201 195.326244 
" style="fill:none;stroke:#b0b0b0;stroke-width:0.8;"/>
    <path d="M 71.633921 80.540792 
L 283.987918 58.733277 
L 373.233705 122.32455 
" style="fill:none;stroke:#b0b0b0;stroke-width:0.8;"/>
   </g>
   <g id="xtick_12">
    <g id="line2d_15">
     <path d="M 78.112406 283.668061 
L 73.021802 284.347407 
" style="fill:none;stroke:#000000;stroke-linecap:square;stroke-width:0.8;"/>
    </g>
    <g id="text_15">
     <!-- 3 -->
     <defs>
      <path d="M 40.578125 39.3125 
Q 47.65625 37.796875 51.625 33 
Q 55.609375 28.21875 55.609375 21.1875 
Q 55.609375 10.40625 48.1875 4.484375 
Q 40.765625 -1.421875 27.09375 -1.421875 
Q 22.515625 -1.421875 17.65625 -0.515625 
Q 12.796875 0.390625 7.625 2.203125 
L 7.625 11.71875 
Q 11.71875 9.328125 16.59375 8.109375 
Q 21.484375 6.890625 26.8125 6.890625 
Q 36.078125 6.890625 40.9375 10.546875 
Q 45.796875 14.203125 45.796875 21.1875 
Q 45.796875 27.640625 41.28125 31.265625 
Q 36.765625 34.90625 28.71875 34.90625 
L 20.21875 34.90625 
L 20.21875 43.015625 
L 29.109375 43.015625 
Q 36.375 43.015625 40.234375 45.921875 
Q 44.09375 48.828125 44.09375 54.296875 
Q 44.09375 59.90625 40.109375 62.90625 
Q 36.140625 65.921875 28.71875 65.921875 
Q 24.65625 65.921875 20.015625 65.03125 
Q 15.375 64.15625 9.8125 62.3125 
L 9.8125 71.09375 
Q 15.4375 72.65625 20.34375 73.4375 
Q 25.25 74.21875 29.59375 74.21875 
Q 40.828125 74.21875 47.359375 69.109375 
Q 53.90625 64.015625 53.90625 55.328125 
Q 53.90625 49.265625 50.4375 45.09375 
Q 46.96875 40.921875 40.578125 39.3125 
z
" id="DejaVuSans-51"/>
     </defs>
     <g transform="translate(58.476377 288.840259)scale(0.1 -0.1)">
      <use xlink:href="#DejaVuSans-51"/>
     </g>
    </g>
   </g>
   <g id="xtick_13">
    <g id="line2d_16">
     <path d="M 76.572446 217.391567 
L 71.424541 218.02692 
" style="fill:none;stroke:#000000;stroke-linecap:square;stroke-width:0.8;"/>
    </g>
    <g id="text_16">
     <!-- 4 -->
     <defs>
      <path d="M 37.796875 64.3125 
L 12.890625 25.390625 
L 37.796875 25.390625 
z
M 35.203125 72.90625 
L 47.609375 72.90625 
L 47.609375 25.390625 
L 58.015625 25.390625 
L 58.015625 17.1875 
L 47.609375 17.1875 
L 47.609375 0 
L 37.796875 0 
L 37.796875 17.1875 
L 4.890625 17.1875 
L 4.890625 26.703125 
z
" id="DejaVuSans-52"/>
     </defs>
     <g transform="translate(56.759979 222.720971)scale(0.1 -0.1)">
      <use xlink:href="#DejaVuSans-52"/>
     </g>
    </g>
   </g>
   <g id="xtick_14">
    <g id="line2d_17">
     <path d="M 74.998191 149.639038 
L 69.79168 150.228258 
" style="fill:none;stroke:#000000;stroke-linecap:square;stroke-width:0.8;"/>
    </g>
    <g id="text_17">
     <!-- 5 -->
     <g transform="translate(55.005462 155.133279)scale(0.1 -0.1)">
      <use xlink:href="#DejaVuSans-53"/>
     </g>
    </g>
   </g>
   <g id="xtick_15">
    <g id="line2d_18">
     <path d="M 73.38848 80.360609 
L 68.122015 80.901444 
" style="fill:none;stroke:#000000;stroke-linecap:square;stroke-width:0.8;"/>
    </g>
    <g id="text_18">
     <!-- 6 -->
     <defs>
      <path d="M 33.015625 40.375 
Q 26.375 40.375 22.484375 35.828125 
Q 18.609375 31.296875 18.609375 23.390625 
Q 18.609375 15.53125 22.484375 10.953125 
Q 26.375 6.390625 33.015625 6.390625 
Q 39.65625 6.390625 43.53125 10.953125 
Q 47.40625 15.53125 47.40625 23.390625 
Q 47.40625 31.296875 43.53125 35.828125 
Q 39.65625 40.375 33.015625 40.375 
z
M 52.59375 71.296875 
L 52.59375 62.3125 
Q 48.875 64.0625 45.09375 64.984375 
Q 41.3125 65.921875 37.59375 65.921875 
Q 27.828125 65.921875 22.671875 59.328125 
Q 17.53125 52.734375 16.796875 39.40625 
Q 19.671875 43.65625 24.015625 45.921875 
Q 28.375 48.1875 33.59375 48.1875 
Q 44.578125 48.1875 50.953125 41.515625 
Q 57.328125 34.859375 57.328125 23.390625 
Q 57.328125 12.15625 50.6875 5.359375 
Q 44.046875 -1.421875 33.015625 -1.421875 
Q 20.359375 -1.421875 13.671875 8.265625 
Q 6.984375 17.96875 6.984375 36.375 
Q 6.984375 53.65625 15.1875 63.9375 
Q 23.390625 74.21875 37.203125 74.21875 
Q 40.921875 74.21875 44.703125 73.484375 
Q 48.484375 72.75 52.59375 71.296875 
z
" id="DejaVuSans-54"/>
     </defs>
     <g transform="translate(53.211543 86.027718)scale(0.1 -0.1)">
      <use xlink:href="#DejaVuSans-54"/>
     </g>
    </g>
   </g>
  </g>
  <g id="axes_1">
   <g id="line2d_19">
    <path clip-path="url(#p0e42f0b2c0)" d="M 256.474583 324.527169 
L 256.073573 322.588469 
L 255.92088 320.708046 
L 255.736976 318.821464 
L 255.097525 316.782559 
L 255.359552 315.048759 
L 254.643836 312.992728 
L 254.269392 311.026587 
L 253.618411 309.022857 
L 253.526997 307.145308 
L 253.211494 305.21257 
L 252.616145 303.223015 
L 252.709175 301.347168 
L 252.042732 299.311953 
L 251.15994 297.216459 
L 250.810244 295.347477 
L 250.712486 293.400678 
L 250.027395 291.328185 
L 250.109282 289.571118 
L 249.365891 287.4358 
L 248.49359 285.338016 
L 247.759756 283.303118 
L 247.420415 281.289381 
L 247.038528 279.374052 
L 246.533224 277.343278 
L 246.042669 275.389553 
L 245.430011 273.312515 
L 245.238101 271.413088 
L 244.784918 269.368901 
L 244.734281 267.508531 
L 244.306352 265.509351 
L 243.903546 263.514776 
L 243.243916 261.481267 
L 243.208621 259.613525 
L 242.756113 257.537194 
L 242.241811 255.507273 
L 242.276647 253.596948 
L 241.390254 251.462277 
L 241.179567 249.521267 
L 241.09266 247.619486 
L 240.446681 245.520045 
L 240.210016 243.550443 
L 239.827979 241.554051 
L 239.28906 239.486111 
L 239.176989 237.611785 
L 238.602157 235.507352 
L 238.345061 233.46164 
L 237.651678 231.411365 
L 237.431318 229.449179 
L 237.330829 227.448392 
L 236.86039 225.503842 
L 236.193052 223.404195 
L 235.721875 221.548758 
L 235.008402 219.459025 
L 234.758786 217.610037 
L 233.364016 215.610824 
L 233.58291 213.814578 
L 232.741334 211.846805 
L 232.525622 209.934846 
L 231.204689 208.071217 
L 230.918214 206.205575 
L 229.959087 204.288738 
L 229.600133 202.429407 
L 228.436635 200.539427 
L 227.639836 198.695039 
L 227.10317 196.864894 
L 226.510242 194.988978 
L 225.874833 193.159206 
L 224.627274 191.29789 
L 224.464675 189.464922 
L 223.151897 187.668864 
L 222.136197 185.871538 
L 221.777062 184.043506 
L 220.774467 182.428864 
L 219.345599 180.961334 
L 217.135995 179.221644 
L 215.955776 177.504496 
L 214.51782 175.233768 
L 213.455615 173.010782 
L 211.814598 170.646525 
L 210.241854 168.299497 
L 208.511209 165.951109 
L 207.260745 163.735883 
L 204.998313 161.306207 
L 203.631128 159.069094 
L 201.427182 156.650354 
L 200.065613 154.422113 
L 198.515507 152.15318 
L 196.785264 149.86144 
L 194.475499 147.430078 
L 192.826796 145.149698 
L 190.849301 142.790507 
L 188.974288 140.439612 
L 186.616819 137.949749 
L 185.065665 135.629945 
L 182.951232 133.162407 
L 180.580821 130.601322 
L 178.653087 128.13082 
L 176.631642 125.656844 
L 174.021264 122.772249 
L 172.59842 120.099899 
L 170.887176 117.330326 
L 169.001974 114.419571 
L 167.390961 111.466859 
L 165.270461 108.096442 
L 163.515911 105.069034 
L 160.650827 101.811844 
L 157.78251 98.74624 
L 153.161797 95.669461 
L 145.434635 92.540288 
L 140.959832 89.895939 
L 135.458557 86.808514 
L 130.769579 82.817319 
" style="fill:none;stroke:#1f77b4;stroke-linecap:square;stroke-width:3;"/>
   </g>
   <g id="line2d_20">
    <path clip-path="url(#p0e42f0b2c0)" d="M 297.466748 319.125398 
L 296.606474 317.317599 
L 295.99777 315.485478 
L 295.145553 313.692839 
L 294.126148 311.870973 
L 293.460263 310.067626 
L 292.399735 308.248506 
L 291.58302 306.372545 
L 290.90664 304.605603 
L 289.475127 302.746727 
L 287.656754 300.889862 
L 286.965804 298.977999 
L 285.581051 297.089575 
L 284.390293 295.187472 
L 283.982475 293.37808 
L 282.908488 291.49641 
L 282.01129 289.629166 
L 280.811073 287.737715 
L 280.202702 285.925766 
L 279.002107 284.055509 
L 277.786773 282.133344 
L 276.331382 280.316075 
L 275.823696 278.423033 
L 274.68389 276.529663 
L 273.577701 274.613881 
L 272.390539 272.714588 
L 271.549462 270.83914 
L 270.596137 268.967238 
L 269.814633 267.11214 
L 268.82576 265.226496 
L 267.701197 263.306143 
L 266.847701 261.435557 
L 265.920518 259.591551 
L 265.301734 257.765261 
L 263.733409 255.719087 
L 262.680137 253.876028 
L 261.493069 251.941473 
L 260.244111 249.993526 
L 259.34458 248.125783 
L 257.962323 246.175461 
L 256.777564 244.27517 
L 255.315655 242.329414 
L 254.251934 240.400143 
L 253.824411 238.568247 
L 252.155728 236.575842 
L 251.184126 234.70108 
L 249.799311 232.804916 
L 248.776459 230.886031 
L 248.237949 229.011278 
L 246.591279 227.026866 
L 246.272066 225.211867 
L 245.690401 223.344821 
L 244.669583 221.513842 
L 243.609757 219.542162 
L 242.582431 217.635177 
L 241.970245 215.816759 
L 240.881756 213.783919 
L 239.301941 212.026611 
L 237.483024 209.999176 
L 236.086248 208.215593 
L 235.378936 206.255378 
L 234.42955 204.396018 
L 233.156102 202.512837 
L 232.282602 200.555108 
L 231.938205 198.758784 
L 230.493127 196.807106 
L 229.677361 194.953045 
L 228.714105 193.08077 
L 228.000503 191.188169 
L 226.554995 189.329087 
L 225.929634 187.514327 
L 225.285494 185.682937 
L 224.43926 183.84372 
L 222.749078 181.987021 
L 222.191788 180.244229 
L 221.208127 178.438401 
L 219.796597 176.59424 
L 218.146419 174.875916 
L 216.485417 173.107991 
L 213.853505 170.932856 
L 212.564571 168.856022 
L 210.422179 166.421618 
L 208.578361 164.049964 
L 206.079455 161.569357 
L 204.10846 159.189081 
L 202.477238 156.896453 
L 200.062568 154.431375 
L 198.089445 152.061755 
L 196.606088 149.813588 
L 194.523256 147.437645 
L 192.391472 145.047692 
L 190.007209 142.595745 
L 188.149925 140.230421 
L 185.841438 137.747005 
L 183.969739 135.341872 
L 181.568874 132.781897 
L 179.630529 130.34648 
L 177.689942 127.774532 
L 175.442901 125.199237 
L 173.398702 122.371104 
L 171.805865 119.581519 
L 170.039577 116.786911 
L 168.089753 113.800381 
L 166.11829 110.517555 
L 164.304582 107.393698 
L 161.643642 104.144159 
L 158.950979 101.066733 
L 155.050285 97.978569 
L 147.380264 94.728192 
L 143.013193 92.116708 
L 137.942235 89.192729 
L 133.011253 85.807177 
L 129.402551 81.948282 
" style="fill:none;stroke:#1f77b4;stroke-linecap:square;stroke-width:3;"/>
   </g>
   <g id="line2d_21">
    <path clip-path="url(#p0e42f0b2c0)" d="M 193.982655 329.920302 
L 194.246261 328.129756 
L 194.408338 326.317218 
L 194.488034 324.478017 
L 195.055396 322.74023 
L 195.614753 320.97283 
L 195.682737 319.179873 
L 195.838105 317.311071 
L 196.395467 315.556271 
L 195.951559 313.598479 
L 196.732484 311.85563 
L 196.817535 310.028654 
L 197.65152 308.237019 
L 197.417668 306.378116 
L 197.928475 304.577688 
L 198.145404 302.703241 
L 198.572083 300.889429 
L 198.736653 299.007955 
L 198.994927 297.156831 
L 199.042088 295.319465 
L 199.50946 293.431833 
L 200.268669 291.616981 
L 200.101219 289.721815 
L 200.355094 287.858556 
L 200.578182 285.999275 
L 201.094931 284.113048 
L 201.355054 282.218596 
L 201.383579 280.368742 
L 201.577304 278.486023 
L 201.790369 276.589317 
L 202.374947 274.693201 
L 202.599242 272.803918 
L 202.783725 270.931069 
L 203.099908 269.08606 
L 203.374364 267.191165 
L 203.685635 265.201737 
L 204.406291 263.385789 
L 204.562932 261.384554 
L 205.367978 259.458962 
L 205.601125 257.499026 
L 206.098962 255.360291 
L 206.216574 253.634999 
L 206.774169 251.452582 
L 207.024845 249.463274 
L 207.278273 247.431284 
L 207.687017 245.227069 
L 208.152298 242.9677 
L 208.306687 240.993034 
L 208.62999 238.866585 
L 208.68903 236.940126 
L 209.040463 234.797404 
L 209.388386 232.71435 
L 209.728895 230.589018 
L 210.098294 228.462465 
L 210.331301 226.466384 
L 210.59327 224.423307 
L 210.999335 222.23298 
L 211.234275 220.322875 
L 211.528489 218.259352 
L 212.127053 216.021338 
L 212.081396 214.205432 
L 212.715238 211.963318 
L 213.174302 209.82684 
L 213.585795 207.68829 
L 213.916112 205.47119 
L 214.181878 202.912815 
L 214.37996 200.661868 
L 214.590888 198.276335 
L 214.803093 195.805469 
L 214.835307 193.627893 
L 215.232186 191.511027 
L 215.31735 188.554629 
L 215.416148 185.995425 
L 214.990392 183.701187 
L 214.416183 181.378763 
L 213.955899 179.055031 
L 213.030879 176.778786 
L 212.180667 174.531012 
L 210.973624 172.303794 
L 209.750215 170.021007 
L 208.454312 167.830834 
L 206.724041 165.495475 
L 205.415554 163.278519 
L 203.741988 160.983459 
L 202.474691 158.781239 
L 200.993797 156.525741 
L 199.07236 154.178791 
L 197.554822 151.93018 
L 195.632962 149.587791 
L 193.667687 147.242203 
L 192.202371 145.002137 
L 190.324115 142.663913 
L 188.471713 140.31512 
L 186.268988 137.872432 
L 184.425344 135.474126 
L 182.803768 133.103826 
L 180.606958 130.586186 
L 178.747246 128.150771 
L 176.555474 125.64453 
L 174.501083 122.886152 
L 172.698129 120.179063 
L 171.431813 117.499187 
L 169.565581 114.658914 
L 167.679956 111.717919 
L 165.951939 108.45478 
L 163.759476 105.246311 
L 161.163063 102.02358 
L 158.426662 98.941429 
L 154.467485 95.909474 
L 146.544574 92.647258 
L 141.813827 89.983553 
L 135.69628 86.869436 
L 131.374708 83.12805 
" style="fill:none;stroke:#1f77b4;stroke-linecap:square;stroke-width:3;"/>
   </g>
   <g id="line2d_22">
    <path clip-path="url(#p0e42f0b2c0)" d="M 221.038591 336.978591 
L 220.954699 335.087256 
L 220.917675 332.974825 
L 220.854845 330.958021 
L 220.774771 328.845978 
L 220.726639 326.928549 
L 220.721326 324.828737 
L 220.61782 322.843621 
L 220.566935 320.804463 
L 220.510696 318.755412 
L 220.456717 316.731913 
L 220.407426 314.727647 
L 220.380996 312.77375 
L 220.296686 310.509702 
L 220.210453 308.681827 
L 220.1776 306.659148 
L 220.09385 304.659526 
L 220.013606 302.585613 
L 219.973362 300.617088 
L 219.89598 298.635171 
L 219.75623 296.70095 
L 219.75975 294.459411 
L 219.780527 292.504134 
L 219.46106 290.753072 
L 219.528729 288.446815 
L 219.399707 286.280352 
L 219.327275 284.202535 
L 219.249351 282.15442 
L 219.186463 280.136017 
L 219.089207 278.089844 
L 218.954757 276.186178 
L 218.900449 274.236705 
L 218.788131 272.015927 
L 218.598024 270.126023 
L 218.623965 267.725256 
L 218.564456 265.749374 
L 218.419698 263.674954 
L 218.404249 261.778819 
L 218.19677 259.66173 
L 218.143181 257.32371 
L 217.998506 255.424785 
L 217.760545 253.192384 
L 217.595056 251.080923 
L 217.470981 249.041219 
L 217.325002 246.91781 
L 217.163684 244.777726 
L 217.088948 242.745362 
L 216.787324 240.517545 
L 216.602533 238.288781 
L 216.409014 236.256076 
L 216.087791 233.919406 
L 215.903265 231.888439 
L 215.5303 229.589775 
L 215.451764 227.601393 
L 215.20668 225.379362 
L 215.003656 223.340784 
L 214.868769 221.136347 
L 214.595379 219.07095 
L 214.560621 216.94232 
L 214.439992 215.030526 
L 214.452309 212.807352 
L 214.397482 210.837161 
L 214.31982 208.761468 
L 214.452754 206.579598 
L 214.504565 204.440497 
L 214.588502 202.355545 
L 214.410969 200.487027 
L 214.590705 198.196844 
L 214.727373 195.929841 
L 214.859974 193.847119 
L 215.070941 191.275729 
L 215.28986 188.998359 
L 215.240483 186.476023 
L 215.297565 184.192414 
L 214.896368 181.594826 
L 214.563943 179.438444 
L 213.939164 177.080927 
L 212.718533 174.68819 
L 211.322739 172.409374 
L 210.340808 170.151306 
L 209.178476 168.013672 
L 207.560303 165.705846 
L 206.000592 163.437352 
L 204.209768 161.102322 
L 203.110379 158.938354 
L 201.280648 156.616092 
L 200.106653 154.428063 
L 198.070212 152.054422 
L 195.722057 149.621034 
L 194.756333 147.491841 
L 193.02252 145.195311 
L 191.038128 142.836399 
L 188.919304 140.428231 
L 187.183652 138.092528 
L 184.940008 135.621911 
L 183.275468 133.236367 
L 181.025497 130.706181 
L 179.030939 128.249989 
L 176.921771 125.709024 
L 174.83702 123.042939 
L 173.066137 120.34013 
L 171.375648 117.510285 
L 169.633848 114.679661 
L 167.748803 111.733549 
L 165.733984 108.354854 
L 163.745094 105.178681 
L 161.282762 101.989662 
L 158.565579 98.898976 
L 154.413647 95.867853 
L 146.518964 92.66148 
L 141.567561 90.116786 
L 135.529607 86.782967 
L 131.108073 83.233922 
" style="fill:none;stroke:#1f77b4;stroke-linecap:square;stroke-width:3;"/>
   </g>
   <g id="line2d_23">
    <path clip-path="url(#p0e42f0b2c0)" d="M 250.389252 337.239124 
L 249.801333 335.143262 
L 249.449001 333.122312 
L 249.179377 331.153082 
L 248.706183 329.078795 
L 248.548295 327.141702 
L 248.615742 325.338959 
L 248.030145 323.183995 
L 247.625434 321.12998 
L 247.425964 319.176957 
L 246.481795 316.956808 
L 246.717969 315.143082 
L 246.502609 313.14856 
L 246.09116 311.095883 
L 245.819948 309.095985 
L 245.465547 307.057537 
L 245.21359 305.083103 
L 244.711377 302.969402 
L 244.255209 300.875069 
L 243.987771 298.88754 
L 243.562803 296.80753 
L 243.278948 294.808146 
L 242.794945 292.695778 
L 242.415777 290.642001 
L 242.021231 288.565434 
L 241.744337 286.554548 
L 241.328851 284.498264 
L 240.863768 282.389278 
L 240.545169 280.365515 
L 240.039353 278.243314 
L 239.944554 276.274718 
L 239.516269 274.184179 
L 238.848447 272.01607 
L 238.387701 269.925144 
L 237.896119 267.824863 
L 237.269355 265.672464 
L 236.917818 263.605812 
L 236.621943 261.613353 
L 236.286275 259.585427 
L 235.570288 257.418536 
L 235.485864 255.461611 
L 235.082739 253.387406 
L 234.883551 251.342005 
L 234.393042 249.279056 
L 234.213849 247.311614 
L 233.429114 245.078518 
L 232.823231 242.941206 
L 232.704389 240.988639 
L 232.518485 239.005439 
L 232.038802 236.914891 
L 231.483106 234.804658 
L 231.545303 232.872491 
L 230.922742 230.777779 
L 230.667412 228.787147 
L 229.989933 226.621472 
L 229.740398 224.643919 
L 229.374138 222.612058 
L 229.084859 220.582262 
L 228.729384 218.57783 
L 228.372159 216.542481 
L 227.873052 214.429502 
L 227.83248 212.545154 
L 227.535467 210.524672 
L 227.099175 208.478118 
L 226.875797 206.481556 
L 226.257268 204.380844 
L 225.478981 202.33111 
L 225.045628 200.220283 
L 224.418455 198.116849 
L 223.598728 195.980723 
L 222.850315 193.768125 
L 222.110405 191.637073 
L 221.524182 189.393314 
L 220.90419 186.952772 
L 219.70022 184.560678 
L 218.818325 181.927201 
L 217.280859 179.133568 
L 214.788924 176.003069 
L 212.822282 173.353711 
L 211.438764 170.783178 
L 209.962422 168.368546 
L 208.382084 165.974761 
L 207.734237 163.865329 
L 204.762965 161.252331 
L 203.471011 159.024563 
L 201.873145 156.746031 
L 200.012716 154.39877 
L 198.194053 152.079178 
L 196.226879 149.728963 
L 195.127086 147.586731 
L 192.745539 145.130779 
L 190.709375 142.759289 
L 188.66213 140.360868 
L 186.997278 138.051381 
L 184.897827 135.601609 
L 182.923653 133.150131 
L 181.02502 130.703547 
L 179.121073 128.283773 
L 176.907472 125.748082 
L 174.829245 123.034929 
L 173.100011 120.342204 
L 171.434358 117.556502 
L 169.548079 114.567475 
L 167.849054 111.750488 
L 165.625876 108.369997 
L 164.049019 105.350286 
L 161.104145 102.045254 
L 158.426989 98.966942 
L 154.428229 95.839991 
L 146.871301 92.716182 
L 142.185561 90.047373 
L 135.725559 86.850951 
L 131.698402 83.101571 
" style="fill:none;stroke:#1f77b4;stroke-linecap:square;stroke-width:3;"/>
   </g>
   <g id="line2d_24">
    <path clip-path="url(#p0e42f0b2c0)" d="M 201.013846 336.707548 
L 201.29024 334.603654 
L 201.418554 332.652045 
L 201.436646 330.819666 
L 201.706541 328.722859 
L 201.857207 326.716238 
L 202.196966 324.562554 
L 202.108702 322.819165 
L 202.323541 320.782735 
L 202.495506 318.789541 
L 202.639905 316.785004 
L 202.790428 314.791883 
L 203.071066 312.669808 
L 203.14647 310.767607 
L 203.359887 308.735416 
L 203.500399 306.725121 
L 203.673537 304.714718 
L 203.884465 302.623695 
L 204.001773 300.622647 
L 204.239497 298.552559 
L 204.435474 296.491492 
L 204.611611 294.38569 
L 204.684992 292.475039 
L 204.842894 290.428481 
L 205.043044 288.31577 
L 205.09456 286.393906 
L 205.183762 284.329199 
L 205.252617 282.330908 
L 205.454694 280.200406 
L 205.516014 278.190709 
L 205.655482 276.133136 
L 205.71587 274.030704 
L 205.769126 272.078293 
L 205.96777 269.858208 
L 205.774674 267.67992 
L 206.342098 265.736042 
L 206.433813 263.465143 
L 206.39401 261.588497 
L 206.701639 259.372351 
L 206.860967 257.358127 
L 207.111747 255.223192 
L 207.197906 253.286998 
L 207.472234 251.109824 
L 207.801793 248.926781 
L 207.989678 246.941771 
L 208.032627 245.081906 
L 208.686289 242.558483 
L 208.794137 240.645404 
L 208.921509 238.672783 
L 209.251401 236.551817 
L 209.564755 234.474363 
L 209.633615 232.605604 
L 210.101489 230.349175 
L 210.512625 228.170422 
L 210.807536 226.184673 
L 211.019764 224.167262 
L 211.412403 222.107 
L 211.620755 220.070417 
L 211.938415 218.051868 
L 212.263464 216.000115 
L 212.613553 213.888041 
L 213.037712 211.81507 
L 213.374734 209.772681 
L 213.675615 207.659865 
L 213.864092 205.650277 
L 214.16641 203.335422 
L 214.239844 201.2642 
L 214.385383 198.988831 
L 214.332635 196.752289 
L 214.598772 194.329135 
L 214.691346 192.064816 
L 215.096203 189.65177 
L 215.368523 187.091238 
L 215.317169 184.656497 
L 215.233194 181.897884 
L 214.75898 179.825523 
L 214.082913 177.31322 
L 213.271221 174.976652 
L 212.302231 172.732413 
L 211.029008 170.436133 
L 209.828308 168.196044 
L 208.477573 165.954671 
L 206.751561 163.628382 
L 205.260061 161.368187 
L 203.794636 159.111784 
L 202.610063 156.914468 
L 201.062159 154.66813 
L 198.783054 152.221236 
L 197.22023 149.954139 
L 195.272026 147.614887 
L 193.517254 145.313241 
L 191.500257 142.9444 
L 189.375342 140.543823 
L 187.267203 138.115843 
L 185.971763 135.866025 
L 183.664787 133.359715 
L 181.285404 130.809946 
L 179.370714 128.338083 
L 177.02622 125.739177 
L 175.326334 123.237436 
L 173.258818 120.448722 
L 171.635806 117.678094 
L 169.804793 114.802213 
L 167.835896 111.803449 
L 166.048639 108.559132 
L 163.895332 105.357979 
L 161.233516 102.119827 
L 158.711051 99.038492 
L 154.577867 96.020698 
L 146.653292 92.66443 
L 141.628454 89.824475 
L 135.859264 86.847971 
L 131.509596 83.094997 
" style="fill:none;stroke:#1f77b4;stroke-linecap:square;stroke-width:3;"/>
   </g>
   <g id="line2d_25">
    <path clip-path="url(#p0e42f0b2c0)" d="M 239.570398 343.798053 
L 239.476801 341.834074 
L 239.324545 339.820947 
L 238.98302 337.58729 
L 238.779647 335.505861 
L 238.473032 333.314856 
L 238.429136 331.416276 
L 238.141011 329.250078 
L 237.886035 327.127072 
L 237.757917 325.15689 
L 237.504238 322.984101 
L 237.357394 320.849092 
L 237.033624 318.75357 
L 236.760754 316.610224 
L 236.53672 314.492873 
L 236.164782 312.443445 
L 236.051795 310.251743 
L 235.846356 308.175626 
L 235.588239 306.021075 
L 235.28774 303.836863 
L 235.073122 301.7416 
L 234.828291 299.594605 
L 234.666314 297.556233 
L 234.2882 295.297846 
L 233.881666 292.951233 
L 233.914746 291.156565 
L 233.613998 288.843056 
L 233.347739 286.777706 
L 233.009548 284.527982 
L 232.798616 282.461882 
L 232.630544 280.396249 
L 232.159419 277.997364 
L 232.063988 276.040112 
L 231.680481 273.761191 
L 231.405054 271.588254 
L 231.267546 269.576624 
L 230.902838 267.298372 
L 230.534294 265.01543 
L 230.109305 262.709285 
L 229.871369 260.593324 
L 229.652037 258.478611 
L 229.312529 256.249406 
L 228.998442 254.046055 
L 228.705728 251.875184 
L 228.497977 249.787423 
L 228.151343 247.558682 
L 227.758031 245.275508 
L 227.393708 243.028898 
L 226.742108 240.713935 
L 226.757948 238.571515 
L 226.415457 236.437712 
L 226.024172 234.173561 
L 225.68185 231.919303 
L 225.450052 229.558182 
L 224.99881 227.494005 
L 224.6775 225.331139 
L 224.404207 223.124022 
L 224.066402 220.969783 
L 223.925236 218.835639 
L 223.614996 216.674315 
L 223.274095 214.438786 
L 222.870168 212.188001 
L 222.663793 210.024387 
L 222.333964 207.845085 
L 222.121475 205.68202 
L 222.020082 203.548763 
L 221.814695 201.368605 
L 221.488246 199.139455 
L 221.121632 196.912907 
L 220.816102 194.772518 
L 220.153187 192.466351 
L 219.304435 190.020799 
L 218.699305 187.61553 
L 217.369278 184.89911 
L 216.366759 182.486653 
L 214.794172 179.668632 
L 213.219468 177.126142 
L 211.978699 174.70007 
L 210.556888 172.304825 
L 209.693719 170.09689 
L 207.961335 167.75311 
L 206.833588 165.534328 
L 205.48492 163.313228 
L 203.878861 161.01089 
L 202.539363 158.790148 
L 200.610045 156.441793 
L 199.193691 154.208072 
L 197.066811 151.820654 
L 195.875936 149.645697 
L 194.139936 147.346375 
L 191.797622 144.922974 
L 190.257913 142.648565 
L 188.266033 140.268349 
L 186.545065 137.926995 
L 184.057145 135.40968 
L 182.643724 133.072736 
L 180.649322 130.619477 
L 178.901882 128.196009 
L 176.836886 125.699121 
L 175.013284 123.123079 
L 173.102734 120.361391 
L 171.558018 117.598844 
L 169.976923 114.768417 
L 167.858029 111.800009 
L 165.846472 108.497023 
L 164.072121 105.363918 
L 161.363558 101.96042 
L 158.773846 98.967589 
L 154.481424 95.900627 
L 146.790251 92.662085 
L 141.968856 90.006477 
L 135.885619 86.849656 
L 131.531993 83.175823 
" style="fill:none;stroke:#1f77b4;stroke-linecap:square;stroke-width:3;"/>
   </g>
   <g id="line2d_26">
    <path clip-path="url(#p0e42f0b2c0)" d="M 251.348659 314.86347 
L 251.448348 312.829344 
L 251.490792 310.883173 
L 251.666217 308.685471 
L 251.642188 306.644 
L 251.74063 304.546561 
L 251.772695 302.509443 
L 251.968161 300.333395 
L 251.846821 298.377598 
L 251.830148 296.217834 
L 252.006923 294.435769 
L 252.149393 292.322708 
L 252.176973 290.510918 
L 252.304402 288.397364 
L 252.416695 286.44239 
L 252.416759 284.470814 
L 252.454765 282.56315 
L 252.602384 280.482388 
L 252.618486 278.561425 
L 252.735471 276.457234 
L 252.858371 274.405937 
L 252.820207 272.422659 
L 252.972523 270.403419 
L 253.134935 268.316231 
L 253.24994 266.227083 
L 253.327367 264.17105 
L 253.348136 262.291974 
L 253.41161 260.208248 
L 253.704574 258.14293 
L 253.658982 255.87937 
L 253.875583 253.922117 
L 253.969296 251.831159 
L 253.912149 249.796741 
L 254.175749 247.757669 
L 254.369988 245.634845 
L 254.442589 243.534614 
L 254.731157 241.286981 
L 254.943201 239.224056 
L 255.2084 237.136945 
L 255.446967 234.908727 
L 255.595145 232.920169 
L 255.838234 230.719591 
L 256.074457 228.591319 
L 256.247041 226.383602 
L 256.447624 224.227926 
L 256.574464 222.085871 
L 256.996913 219.792198 
L 257.200627 217.286018 
L 257.085749 215.184436 
L 257.337402 212.998765 
L 257.373952 210.786896 
L 257.418942 208.675541 
L 257.304586 206.591839 
L 257.288105 204.707616 
L 257.38937 202.426029 
L 257.278123 200.327023 
L 257.40953 198.338228 
L 257.371129 196.425198 
L 257.339864 194.500902 
L 257.372548 192.537417 
L 257.276453 190.675066 
L 257.296462 188.821717 
L 257.242172 186.87163 
L 257.263484 185.081368 
L 256.949372 183.069422 
L 256.373869 181.139961 
L 255.905714 179.1556 
L 255.261204 177.217552 
L 253.960512 175.113256 
L 252.277366 172.98945 
L 251.255315 171.100452 
L 249.526762 169.255479 
L 248.014378 167.234249 
L 246.658815 165.366255 
L 244.521393 163.461171 
L 241.948575 161.474101 
L 239.830368 159.416878 
L 238.261161 157.502441 
L 235.620943 155.419761 
L 233.424545 153.611756 
L 231.019398 151.664681 
L 229.096518 149.939466 
L 227.111015 148.112101 
L 224.785226 146.490349 
L 222.575033 144.834994 
L 220.432738 142.995702 
L 218.421019 141.067705 
L 215.746633 139.352507 
L 213.456543 137.578447 
L 210.577876 135.558874 
L 208.297178 133.796653 
L 206.312235 131.984144 
L 204.146071 130.296808 
L 201.822514 128.536125 
L 199.525407 126.732114 
L 196.916679 124.974189 
L 194.222071 123.31579 
L 191.419404 121.522388 
L 188.871119 119.534255 
L 186.594324 117.272268 
L 184.218334 114.715042 
L 180.525282 112.044824 
L 176.830445 109.463236 
L 172.473076 106.67101 
L 168.614887 104.222103 
L 164.439368 101.548798 
L 160.361922 98.982213 
L 153.889045 96.377926 
L 147.245622 94.143536 
L 140.374391 92.237256 
L 135.190208 89.184909 
L 131.424026 85.571268 
L 128.646055 81.767078 
" style="fill:none;stroke:#ff7f0e;stroke-linecap:square;stroke-width:3;"/>
   </g>
   <g id="line2d_27">
    <path clip-path="url(#p0e42f0b2c0)" d="M 258.336041 292.354426 
L 258.489933 290.825004 
L 258.579919 289.055595 
L 258.840488 287.691899 
L 258.983765 286.088442 
L 259.307299 284.662818 
L 259.498706 283.237998 
L 259.765865 281.727271 
L 260.036128 280.22321 
L 260.511927 278.812997 
L 260.626537 277.322204 
L 260.829791 275.827994 
L 261.032426 274.300811 
L 261.304804 272.837997 
L 261.446907 271.242287 
L 261.639119 269.725964 
L 261.902382 268.209799 
L 261.944103 266.574637 
L 262.161101 265.086205 
L 262.216675 263.563172 
L 262.391183 262.044996 
L 262.533425 260.670348 
L 262.601186 259.019946 
L 262.697887 257.57616 
L 262.771898 256.022311 
L 262.877541 254.436951 
L 262.902219 253.014401 
L 262.905047 251.42992 
L 262.91746 250.069202 
L 262.912104 248.561362 
L 262.926705 246.981958 
L 262.820276 245.424677 
L 262.935731 243.879395 
L 262.780555 242.150896 
L 262.574723 240.608444 
L 262.49856 238.810358 
L 262.314125 237.344111 
L 262.32274 235.661725 
L 262.363156 233.574469 
L 261.784157 231.900188 
L 261.645176 230.123734 
L 261.401541 228.114863 
L 261.099205 226.117457 
L 260.441485 224.14894 
L 259.851904 222.140057 
L 260.037929 220.064037 
L 259.589237 218.321884 
L 259.066668 216.352078 
L 259.379846 214.478442 
L 258.418027 212.290942 
L 258.160204 210.423114 
L 257.599531 208.143664 
L 257.158975 206.285465 
L 257.040176 204.320365 
L 256.501695 202.356474 
L 256.109847 200.3539 
L 255.517576 198.229061 
L 255.516286 196.336165 
L 254.845974 194.28325 
L 254.503756 192.257617 
L 253.308677 190.142322 
L 252.340068 188.054224 
L 251.732505 186.060931 
L 250.545288 184.122693 
L 249.050103 182.373725 
L 248.078004 180.205092 
L 246.592813 178.646382 
L 245.116187 176.834717 
L 243.378763 174.811693 
L 241.697629 172.727226 
L 240.067356 170.804507 
L 238.055541 168.626248 
L 236.453802 166.632899 
L 234.869606 164.769538 
L 232.651913 162.8889 
L 231.003816 161.012358 
L 229.421574 159.194754 
L 227.48715 157.513456 
L 226.073202 155.765781 
L 224.539496 154.241033 
L 222.48184 152.497669 
L 221.087053 150.744485 
L 219.595741 148.944614 
L 217.371632 147.156775 
L 215.878673 145.479244 
L 213.771091 143.700013 
L 211.83953 141.822586 
L 209.769132 139.731604 
L 207.703307 138.148242 
L 205.946864 136.226766 
L 203.951017 134.446028 
L 201.947746 132.761522 
L 200.01071 130.99388 
L 198.16273 129.141286 
L 196.145123 127.356552 
L 193.918869 125.633216 
L 191.258855 123.935505 
L 189.024922 122.072998 
L 186.618693 119.93407 
L 184.632304 117.534483 
L 181.949312 114.862174 
L 178.545536 112.249028 
L 174.492211 109.552695 
L 171.017767 106.7933 
L 167.562904 104.229584 
L 164.505794 101.651672 
L 160.552678 99.036261 
L 153.837348 96.340846 
L 147.463365 94.128576 
L 141.068219 92.307175 
L 136.775102 89.773914 
L 132.265928 86.079984 
L 128.950535 82.007346 
" style="fill:none;stroke:#ff7f0e;stroke-linecap:square;stroke-width:3;"/>
   </g>
   <g id="line2d_28">
    <path clip-path="url(#p0e42f0b2c0)" d="M 256.626966 308.178748 
L 257.124038 306.466261 
L 257.681389 304.659305 
L 258.066386 302.798834 
L 258.493274 300.993204 
L 258.614072 299.204136 
L 259.332272 297.595714 
L 259.386359 295.486559 
L 259.787442 293.648074 
L 259.906538 291.830524 
L 260.410787 289.887579 
L 260.633838 288.044437 
L 260.649551 286.292156 
L 261.033101 284.286502 
L 261.181513 282.270506 
L 261.177283 280.521981 
L 261.244671 278.556297 
L 261.329481 276.699474 
L 261.306304 274.672444 
L 261.223047 272.792768 
L 261.290186 270.76823 
L 261.234034 268.817944 
L 261.108617 266.841107 
L 261.02946 264.865935 
L 260.874097 262.827926 
L 260.682907 260.778977 
L 260.651522 258.952988 
L 260.370951 256.903331 
L 260.066662 254.91868 
L 259.918268 252.99383 
L 259.781681 251.035531 
L 259.341578 248.955444 
L 258.932586 246.96782 
L 258.553922 244.906777 
L 258.347715 243.007308 
L 257.954622 240.889511 
L 257.387838 238.929464 
L 257.021898 236.853333 
L 256.519727 234.82703 
L 255.784856 232.902176 
L 255.446498 230.728001 
L 254.486292 228.705111 
L 253.79136 226.710881 
L 252.983776 224.59605 
L 252.536567 222.655274 
L 251.529078 220.563787 
L 250.942311 218.563976 
L 250.034454 216.446638 
L 248.906045 214.163416 
L 248.588314 212.153403 
L 246.909278 209.67551 
L 245.27229 207.152364 
L 244.28506 204.837171 
L 243.771145 202.777082 
L 241.90283 200.401539 
L 240.502852 198.290847 
L 239.478912 196.385813 
L 237.99557 194.389456 
L 236.813758 192.328652 
L 235.146401 190.422575 
L 233.665477 188.560797 
L 232.118511 186.72298 
L 231.104675 184.894763 
L 229.548296 183.094656 
L 228.287366 181.464709 
L 226.885638 179.736703 
L 226.149432 178.06559 
L 224.483808 176.460516 
L 223.892216 174.764118 
L 222.62326 173.114294 
L 221.064816 171.525626 
L 220.058068 169.738689 
L 219.274225 167.980121 
L 218.109647 166.305126 
L 216.718041 164.460345 
L 215.278554 162.582997 
L 214.61741 160.848298 
L 213.573747 159.021495 
L 212.451738 157.19581 
L 210.951242 155.399266 
L 210.189708 153.586366 
L 208.816374 151.789563 
L 207.885902 150.007915 
L 206.54822 148.1904 
L 205.392195 146.338763 
L 204.467766 144.547031 
L 203.425975 142.654103 
L 201.901708 140.702204 
L 200.896666 138.865044 
L 199.670585 136.959302 
L 198.353033 135.157984 
L 197.164557 133.265344 
L 195.824819 131.457883 
L 194.023902 129.672885 
L 192.174121 128.071221 
L 189.710727 126.417777 
L 186.81756 124.880613 
L 185.994007 122.768424 
L 185.104672 120.4329 
L 183.816681 117.929436 
L 181.800303 115.227026 
L 178.461815 112.491081 
L 174.846697 109.745717 
L 171.888043 107.217628 
L 169.167766 104.556414 
L 165.91757 101.999911 
L 162.143985 99.34898 
L 156.914747 96.840196 
L 149.704971 94.248206 
L 143.663881 92.49591 
L 138.339053 90.11422 
L 134.54214 87.082318 
L 130.873299 83.434279 
" style="fill:none;stroke:#ff7f0e;stroke-linecap:square;stroke-width:3;"/>
   </g>
   <g id="line2d_29">
    <path clip-path="url(#p0e42f0b2c0)" d="M 271.134251 284.981194 
L 271.100509 283.379686 
L 271.052445 281.809804 
L 271.008284 280.229731 
L 271.069966 278.463143 
L 270.932579 277.004679 
L 270.878244 275.427923 
L 270.869862 273.748484 
L 270.721008 272.272214 
L 270.779348 270.503421 
L 270.700544 268.926662 
L 270.543183 267.475852 
L 270.626208 265.639756 
L 270.425498 264.192897 
L 270.356055 262.608548 
L 270.280099 260.997349 
L 270.304893 259.212271 
L 270.124059 257.743121 
L 269.961784 256.211095 
L 270.006142 254.431534 
L 269.808524 252.96674 
L 269.677824 251.358741 
L 269.660292 249.632515 
L 269.388051 248.214337 
L 269.162629 246.772631 
L 269.14322 244.993632 
L 268.999316 243.394275 
L 268.977794 241.63759 
L 268.711704 240.165715 
L 268.563693 238.558257 
L 268.437904 236.900821 
L 268.248725 235.305243 
L 268.059731 233.701776 
L 267.812587 232.133638 
L 267.579148 230.583706 
L 267.518529 228.810045 
L 267.150292 227.324169 
L 266.984625 225.657803 
L 266.829654 224.004409 
L 266.552391 222.377366 
L 266.351186 220.715489 
L 265.949129 219.173935 
L 265.732952 217.52568 
L 265.434317 215.921315 
L 265.142406 214.251417 
L 264.664611 212.710512 
L 264.123543 211.096847 
L 263.653028 209.649034 
L 263.189882 207.910603 
L 262.749289 206.304632 
L 262.171612 204.660382 
L 261.64931 203.010471 
L 261.10724 201.322575 
L 260.633303 199.666637 
L 260.048066 198.014703 
L 259.766667 196.257477 
L 259.151963 194.720711 
L 258.887058 192.897491 
L 258.512105 191.189969 
L 258.175708 189.482758 
L 257.646394 187.828952 
L 257.359917 186.090947 
L 256.776702 184.47589 
L 256.271806 182.840272 
L 255.455698 181.115419 
L 255.024454 179.458661 
L 253.429301 177.943656 
L 252.725673 176.028133 
L 251.875223 174.379727 
L 250.344797 172.533792 
L 249.294668 170.742906 
L 248.009284 168.770425 
L 246.555527 166.916961 
L 245.499171 165.041316 
L 243.686831 163.080148 
L 241.940534 161.196941 
L 239.956414 159.222469 
L 237.260854 157.381708 
L 235.498425 155.453752 
L 232.907284 153.530574 
L 231.331721 151.57374 
L 228.945122 149.913791 
L 227.349886 148.230305 
L 225.223506 146.513278 
L 223.524851 144.871168 
L 221.297352 143.160704 
L 219.011142 141.360974 
L 216.840669 139.549594 
L 214.680923 137.633167 
L 212.234507 135.791259 
L 209.909451 133.975932 
L 207.690474 132.221973 
L 205.31869 130.448488 
L 203.105081 128.689586 
L 201.058108 126.88555 
L 198.932036 125.147942 
L 196.331889 123.464754 
L 193.568439 121.617319 
L 190.833206 119.751935 
L 188.178705 117.89288 
L 185.314554 115.624334 
L 182.967124 112.619323 
L 178.214026 110.073596 
L 174.094185 107.368222 
L 169.77356 104.6028 
L 166.118174 101.998089 
L 161.234954 99.078653 
L 155.033704 96.527165 
L 148.330306 94.06892 
L 141.91294 92.416894 
L 136.912273 89.794065 
L 132.052998 86.008428 
L 128.750422 81.827123 
" style="fill:none;stroke:#ff7f0e;stroke-linecap:square;stroke-width:3;"/>
   </g>
   <g id="line2d_30">
    <path clip-path="url(#p0e42f0b2c0)" d="M 135.496631 338.462401 
L 135.546041 336.426878 
L 135.682819 334.219165 
L 135.721162 332.179275 
L 135.769031 330.110938 
L 135.698774 328.212062 
L 135.885425 325.954391 
L 135.972882 323.834668 
L 136.01357 321.821383 
L 136.112049 319.685542 
L 136.288899 317.474247 
L 136.216459 315.647112 
L 136.30834 313.564784 
L 136.415608 311.452563 
L 136.431033 309.460833 
L 136.461335 307.516967 
L 136.587457 305.407909 
L 136.658718 303.3553 
L 136.780908 301.265442 
L 137.065976 298.985328 
L 137.1042 297.031924 
L 137.284151 294.880879 
L 137.499053 292.728257 
L 137.54712 290.753196 
L 137.867868 288.49563 
L 137.907951 286.56703 
L 137.858385 284.698739 
L 138.214865 282.447394 
L 138.37181 280.395245 
L 138.468475 278.423614 
L 138.679333 276.338179 
L 138.789222 274.348456 
L 139.04842 272.246395 
L 139.341192 270.12231 
L 139.581651 268.0617 
L 139.914345 265.942622 
L 140.280884 263.787089 
L 140.588201 261.73804 
L 141.105178 259.490818 
L 141.419074 257.393939 
L 141.930635 255.255141 
L 142.454171 252.971423 
L 142.928077 250.754507 
L 143.611039 248.474124 
L 143.647893 246.293972 
L 144.474985 244.029408 
L 144.790358 241.941005 
L 145.021256 239.782664 
L 145.304776 237.607991 
L 145.73009 235.260073 
L 146.325563 233.095547 
L 146.760248 230.941228 
L 147.114333 228.582484 
L 147.589958 226.480707 
L 147.922602 224.192659 
L 148.258152 221.992812 
L 148.471404 219.929279 
L 148.82677 217.647359 
L 149.374912 215.400886 
L 149.84373 213.12716 
L 150.321151 210.92967 
L 150.738923 208.912729 
L 151.21224 206.782977 
L 151.906106 204.423971 
L 152.04624 202.5825 
L 152.912291 200.264669 
L 153.174966 198.242759 
L 154.147916 195.858456 
L 154.835379 193.71476 
L 155.36998 191.609109 
L 156.203735 189.367766 
L 156.84813 187.215722 
L 157.506115 185.075713 
L 158.519591 182.802597 
L 159.054227 180.730577 
L 159.914185 178.60007 
L 160.493889 176.673144 
L 161.808919 174.236901 
L 162.466958 172.11878 
L 163.693472 169.768338 
L 164.675688 167.462999 
L 165.431874 165.169862 
L 166.235592 162.841463 
L 167.008052 160.454886 
L 168.081168 157.849693 
L 168.765533 155.445973 
L 169.531364 153.032759 
L 170.523833 150.447995 
L 171.404259 147.966861 
L 172.458629 145.378432 
L 173.569844 142.793373 
L 175.151461 139.937296 
L 178.801059 136.121789 
L 180.717043 133.303954 
L 182.658203 130.437072 
L 184.607399 127.425632 
L 185.269159 124.896669 
L 184.95542 122.434073 
L 184.196996 119.927682 
L 182.344598 117.305247 
L 179.202658 114.411695 
L 175.758719 111.800399 
L 172.92635 109.281188 
L 170.413057 106.686751 
L 167.893319 104.301836 
L 164.354503 101.648358 
L 160.712224 99.051175 
L 154.203073 96.403944 
L 147.978199 94.092855 
L 142.641905 92.554032 
L 137.666972 90.034564 
L 133.243618 86.659619 
L 129.975467 82.842645 
" style="fill:none;stroke:#2ca02c;stroke-linecap:square;stroke-width:3;"/>
   </g>
   <g id="line2d_31">
    <path clip-path="url(#p0e42f0b2c0)" d="M 171.838421 340.504203 
L 171.088045 338.395025 
L 171.212137 336.54612 
L 170.416857 334.38295 
L 170.304031 332.500338 
L 169.905264 330.460832 
L 169.324335 328.396343 
L 168.834777 326.328359 
L 168.129162 324.240817 
L 167.56734 322.170304 
L 167.257601 320.150037 
L 167.086197 318.213172 
L 166.888678 316.242877 
L 166.547749 314.282456 
L 165.853158 312.122842 
L 165.248336 310.000638 
L 165.000132 308.043456 
L 164.584001 306.00433 
L 163.986029 303.917874 
L 163.658816 301.883651 
L 163.199565 299.819316 
L 162.615668 297.698733 
L 162.660332 295.814828 
L 161.859936 293.645979 
L 161.325304 291.536825 
L 161.180971 289.589124 
L 160.647798 287.502722 
L 160.326956 285.493137 
L 159.796771 283.360887 
L 159.228026 281.214656 
L 158.91579 279.207726 
L 158.556617 277.149352 
L 158.321736 275.08433 
L 157.82385 273.019523 
L 157.339637 270.883214 
L 156.734072 268.631159 
L 156.071655 266.430899 
L 155.674392 264.22978 
L 154.900662 261.99909 
L 154.394531 259.788686 
L 154.225215 257.674823 
L 153.363492 255.418408 
L 152.453267 253.171183 
L 152.034373 250.739634 
L 151.281214 248.187532 
L 151.070063 245.742776 
L 150.702701 243.428001 
L 150.235885 241.098488 
L 149.999105 238.788801 
L 149.912636 236.50469 
L 149.814227 234.196005 
L 149.669903 231.693259 
L 149.756643 229.658247 
L 149.696492 227.441154 
L 149.976493 225.26774 
L 149.780901 222.937809 
L 150.151006 220.665243 
L 150.185406 218.425205 
L 150.322676 216.220009 
L 150.453017 214.081411 
L 150.496612 211.834407 
L 150.694091 209.694649 
L 151.14905 207.338579 
L 151.259367 205.342812 
L 152.179129 202.710953 
L 152.469574 200.606998 
L 153.146206 198.282737 
L 153.506275 196.229184 
L 154.218522 193.96732 
L 155.015495 191.755244 
L 155.666022 189.589578 
L 156.641356 187.27615 
L 157.318076 185.164335 
L 158.327924 182.903607 
L 159.013107 180.816693 
L 159.854646 178.663837 
L 160.640833 176.617089 
L 161.862311 174.264543 
L 162.474483 172.181624 
L 163.712125 169.817324 
L 164.455682 167.602656 
L 165.44151 165.185478 
L 166.417029 162.723086 
L 167.152736 160.338924 
L 167.997093 157.901298 
L 168.765431 155.471736 
L 169.712554 152.906613 
L 170.882533 150.186634 
L 171.669452 147.783636 
L 172.87153 145.114745 
L 173.861502 142.585404 
L 175.172745 139.930347 
L 179.287807 135.882947 
L 181.027206 133.144352 
L 183.242326 130.123784 
L 185.114604 127.174962 
L 185.439749 124.475431 
L 184.344167 122.19812 
L 183.393185 119.645689 
L 181.830363 117.10297 
L 178.560542 114.292097 
L 175.282149 111.684135 
L 172.374211 109.12568 
L 169.66443 106.525612 
L 166.72655 104.031245 
L 163.863695 101.528805 
L 160.451212 99.016391 
L 154.508462 96.50628 
L 148.113877 94.141335 
L 142.114189 92.431243 
L 137.487129 89.973544 
L 132.957464 86.548263 
L 129.781391 82.706236 
" style="fill:none;stroke:#2ca02c;stroke-linecap:square;stroke-width:3;"/>
   </g>
   <g id="line2d_32">
    <path clip-path="url(#p0e42f0b2c0)" d="M 153.067814 338.892668 
L 152.971973 336.963484 
L 152.844729 335.026856 
L 152.741185 332.902416 
L 152.64466 330.845809 
L 152.528623 328.791713 
L 152.379056 326.636439 
L 152.312281 324.716828 
L 152.23804 322.68767 
L 152.201747 320.543571 
L 152.005628 318.581914 
L 151.91698 316.565979 
L 151.86145 314.491725 
L 151.720189 312.535113 
L 151.593975 310.370425 
L 151.533033 308.34861 
L 151.488728 306.192261 
L 151.30346 304.109431 
L 151.273858 302.162755 
L 151.21092 300.077262 
L 151.160867 298.159305 
L 151.058505 295.974886 
L 151.010161 293.904485 
L 150.957317 291.857888 
L 150.876489 289.740629 
L 150.812518 287.570135 
L 150.776834 285.543697 
L 150.749292 283.466654 
L 150.675355 281.422231 
L 150.63645 279.367373 
L 150.638217 277.398785 
L 150.568178 275.367368 
L 150.671887 273.032841 
L 150.731911 271.041008 
L 150.677369 268.899278 
L 150.57761 266.63632 
L 150.525389 264.536395 
L 150.507991 262.018812 
L 150.712559 259.804884 
L 150.520799 257.314164 
L 150.463231 254.891725 
L 150.079408 252.765246 
L 149.995684 250.32382 
L 149.846155 248.163062 
L 149.725819 245.890489 
L 149.626681 243.724884 
L 149.527854 241.481369 
L 149.485672 239.50794 
L 149.542084 237.152221 
L 149.531229 234.838346 
L 149.765918 232.808506 
L 149.704936 230.465628 
L 149.722195 228.349144 
L 149.770291 226.339704 
L 149.984711 224.002211 
L 150.270639 221.674896 
L 150.597779 219.615923 
L 150.481786 217.466025 
L 150.777976 215.238964 
L 151.151249 212.962481 
L 151.372863 210.861941 
L 152.09415 208.363717 
L 152.459722 206.236855 
L 152.615105 204.28957 
L 153.48813 201.828549 
L 153.801584 199.850963 
L 154.196807 197.587564 
L 154.8425 195.613798 
L 155.591497 193.414392 
L 156.032157 191.435466 
L 156.843108 189.113008 
L 157.642564 186.939576 
L 158.623745 184.724206 
L 158.996528 182.717601 
L 159.78995 180.577628 
L 160.825062 178.376082 
L 161.844369 176.072592 
L 162.607907 174.007413 
L 163.25274 171.908469 
L 164.134273 169.670271 
L 164.865365 167.287953 
L 165.699254 164.991427 
L 166.635254 162.583665 
L 167.407903 160.153821 
L 168.044125 157.882573 
L 168.88813 155.391029 
L 169.787813 152.860432 
L 170.863879 150.215544 
L 171.700759 147.772317 
L 172.781226 145.163863 
L 173.727587 142.68872 
L 174.885308 140.164485 
L 178.957058 136.05785 
L 180.778041 133.263172 
L 182.960059 130.242405 
L 184.634745 127.38635 
L 185.131881 124.837612 
L 184.801553 122.273556 
L 183.838873 119.862187 
L 181.631254 117.094586 
L 178.993317 114.279541 
L 175.529084 111.726772 
L 172.646878 109.194117 
L 169.710055 106.532276 
L 167.331712 104.17508 
L 164.257854 101.627267 
L 160.568959 99.033072 
L 154.882943 96.537934 
L 148.209371 94.138398 
L 141.814867 92.369683 
L 137.821458 90.017547 
L 133.203421 86.591604 
L 129.62774 82.699072 
" style="fill:none;stroke:#2ca02c;stroke-linecap:square;stroke-width:3;"/>
   </g>
   <g id="line2d_33">
    <path clip-path="url(#p0e42f0b2c0)" d="M 189.930731 352.664524 
L 189.986975 350.847864 
L 189.561183 348.536833 
L 189.264867 346.362866 
L 189.114728 344.352127 
L 188.72061 342.061947 
L 188.549369 339.996535 
L 188.30492 337.871039 
L 188.140109 335.815728 
L 187.831435 333.603396 
L 187.557323 331.502908 
L 187.165134 329.184655 
L 187.184051 327.265671 
L 186.865553 325.026157 
L 186.567065 322.830562 
L 186.438243 320.775296 
L 186.106366 318.550707 
L 185.890622 316.358524 
L 185.655209 314.09905 
L 185.064106 311.697909 
L 185.001943 309.416951 
L 184.579242 307.107494 
L 184.377526 304.896603 
L 184.161684 302.594693 
L 184.012327 299.980768 
L 183.629038 297.58373 
L 183.335799 294.961774 
L 183.148195 292.723682 
L 182.840425 290.522105 
L 182.620089 288.269702 
L 182.406921 286.005705 
L 182.095368 283.561853 
L 181.74191 281.163459 
L 181.414995 278.83474 
L 181.051385 276.354874 
L 180.797669 274.036435 
L 180.506298 271.690448 
L 180.203099 269.322977 
L 179.806527 266.754719 
L 179.499993 264.336657 
L 179.148634 261.936833 
L 178.826357 259.54038 
L 178.52736 257.155673 
L 178.152077 254.649789 
L 177.821236 252.243506 
L 177.463982 249.747428 
L 177.231985 247.542989 
L 176.854452 245.04226 
L 176.580575 242.815814 
L 176.236966 240.26818 
L 175.924482 237.892871 
L 175.485057 235.318301 
L 175.230805 233.042495 
L 174.920688 230.668431 
L 174.53978 228.225949 
L 174.117335 225.668939 
L 173.851548 223.484214 
L 173.451101 220.979309 
L 173.063413 218.55763 
L 172.7518 216.292873 
L 172.449608 214.011608 
L 172.131597 211.665544 
L 171.72761 209.313467 
L 171.477595 207.132904 
L 171.157117 204.791045 
L 170.863311 202.626648 
L 170.565305 200.436626 
L 170.061928 197.948214 
L 169.782239 195.777741 
L 169.510097 193.432738 
L 169.164113 191.373271 
L 168.637178 189.002415 
L 168.229234 186.731479 
L 167.8493 184.417206 
L 167.264378 181.965267 
L 166.927712 179.780052 
L 166.52906 177.26309 
L 166.22978 174.951592 
L 166.059807 172.607314 
L 166.004557 170.333717 
L 166.026807 167.901993 
L 166.117184 165.389051 
L 166.897726 162.917219 
L 167.376177 160.469354 
L 167.969107 158.067261 
L 168.694195 155.59632 
L 169.467083 153.113966 
L 170.585837 150.425428 
L 171.551737 147.863148 
L 172.541813 145.32026 
L 173.630349 142.741892 
L 174.915183 140.130482 
L 178.963792 136.029286 
L 180.636966 133.328409 
L 182.444066 130.582724 
L 184.46291 127.496593 
L 184.951652 125.01278 
L 184.879452 122.444629 
L 184.073688 119.963642 
L 182.576901 117.327826 
L 179.379472 114.467992 
L 176.0414 111.853358 
L 172.771723 109.247928 
L 170.174159 106.636296 
L 167.71416 104.326853 
L 164.180751 101.64444 
L 160.520724 99.032069 
L 155.304311 96.395943 
L 148.040889 94.100277 
L 142.383446 92.495822 
L 137.544127 89.980947 
L 133.184283 86.61439 
L 130.007442 82.866101 
" style="fill:none;stroke:#2ca02c;stroke-linecap:square;stroke-width:3;"/>
   </g>
   <g id="line2d_34">
    <path clip-path="url(#p0e42f0b2c0)" d="M 157.94299 329.675338 
L 157.036611 327.681452 
L 156.971321 325.904932 
L 156.870343 324.147818 
L 156.689942 322.343681 
L 156.139068 320.505874 
L 155.964095 318.676908 
L 155.902715 316.934817 
L 155.508324 315.031438 
L 154.983337 313.197193 
L 154.548211 311.359509 
L 154.385486 309.473676 
L 154.079391 307.731348 
L 153.431284 305.866507 
L 153.223473 304.015231 
L 152.560868 302.095023 
L 152.475862 300.265659 
L 152.122708 298.594457 
L 151.431741 296.655669 
L 150.907021 294.747383 
L 150.67402 292.934454 
L 150.134726 291.02321 
L 149.636236 289.118601 
L 149.329895 287.264768 
L 149.385386 285.427042 
L 148.977366 283.512739 
L 148.349075 281.505086 
L 148.362375 279.696978 
L 148.183304 277.782094 
L 147.637112 275.748426 
L 147.635195 273.869116 
L 147.174569 271.83903 
L 147.015435 269.961352 
L 146.668535 267.948141 
L 146.729295 266.038997 
L 146.473209 263.928023 
L 146.411274 262.067449 
L 146.378448 260.110312 
L 146.227146 258.099519 
L 146.213658 256.145204 
L 146.270507 254.061736 
L 146.136826 252.127742 
L 146.630831 250.036351 
L 146.356495 247.748687 
L 146.575101 245.782314 
L 146.647261 243.667896 
L 146.807136 241.451156 
L 147.033088 239.398785 
L 147.118485 237.154352 
L 147.123399 234.975967 
L 147.63349 232.8546 
L 147.756154 230.792357 
L 148.197372 228.512022 
L 148.644712 226.341849 
L 148.811596 223.891728 
L 149.016121 221.873417 
L 149.208558 219.767725 
L 149.594244 217.489048 
L 149.894816 215.450362 
L 150.278345 213.240027 
L 150.716361 211.048548 
L 151.174585 208.806571 
L 151.718006 206.582285 
L 152.17921 204.429768 
L 152.732295 202.245364 
L 153.004456 200.228878 
L 153.5239 198.087927 
L 154.00585 196.033067 
L 154.654497 193.779672 
L 155.453793 191.566698 
L 156.337524 189.28806 
L 156.693941 187.248943 
L 157.673147 185.023224 
L 158.39722 182.888934 
L 159.398694 180.618499 
L 159.908069 178.632749 
L 160.702913 176.427267 
L 161.627754 174.343736 
L 162.764611 172.037277 
L 163.465131 169.902496 
L 164.340728 167.693018 
L 165.254257 165.285007 
L 166.054171 162.914209 
L 166.839201 160.56615 
L 167.622754 158.166134 
L 168.401497 155.737293 
L 169.499803 153.045436 
L 170.299859 150.598509 
L 171.374624 147.981528 
L 172.275273 145.50912 
L 173.571182 142.762663 
L 174.75306 140.205929 
L 178.936533 136.145592 
L 180.565683 133.357953 
L 182.514854 130.51059 
L 184.4371 127.532909 
L 185.192908 124.920269 
L 185.110434 122.474675 
L 184.059518 119.909255 
L 182.311363 117.33028 
L 178.816522 114.297478 
L 175.900494 111.812988 
L 172.74606 109.22142 
L 170.090717 106.634938 
L 167.625577 104.220284 
L 164.522098 101.735705 
L 160.523583 99.136588 
L 154.562217 96.467909 
L 148.185538 94.133721 
L 142.651721 92.584987 
L 138.029051 90.069416 
L 133.006378 86.665665 
L 129.709633 82.666886 
" style="fill:none;stroke:#2ca02c;stroke-linecap:square;stroke-width:3;"/>
   </g>
   <g id="line2d_35">
    <path clip-path="url(#p0e42f0b2c0)" d="M 313.145852 339.239022 
L 313.272856 337.078584 
L 313.379193 335.040716 
L 313.544669 332.861339 
L 313.606856 330.825708 
L 313.683367 328.8196 
L 313.776734 326.759305 
L 313.867697 324.693271 
L 314.034688 322.50873 
L 314.059083 320.499888 
L 314.155336 318.339589 
L 314.235519 316.308119 
L 314.324428 314.100882 
L 314.413541 312.013444 
L 314.530778 309.75403 
L 314.633614 307.589447 
L 314.655938 305.754299 
L 314.742056 303.534051 
L 314.843871 301.42311 
L 314.925435 299.25086 
L 314.990477 297.138133 
L 315.062184 295.019646 
L 315.129066 292.892979 
L 315.214681 290.71769 
L 315.230584 288.548421 
L 315.36685 286.368105 
L 315.461694 284.105514 
L 315.544967 281.863311 
L 315.564563 279.733046 
L 315.754221 277.347198 
L 315.775191 274.977549 
L 315.974798 272.568369 
L 316.077088 270.168204 
L 316.06901 267.561866 
L 315.753246 264.926955 
L 315.036177 261.829884 
L 314.543746 259.134067 
L 313.910843 256.291791 
L 313.192281 253.439803 
L 312.135817 250.254256 
L 309.28462 244.883195 
L 307.53708 240.824646 
L 306.147816 237.553208 
L 305.348811 234.800693 
L 305.107673 232.360992 
L 305.242668 229.909984 
L 305.755515 227.373651 
L 305.826161 225.353918 
L 306.177385 223.42169 
L 306.192111 221.351655 
L 306.351904 219.458358 
L 306.149504 217.459613 
L 306.140463 215.577632 
L 306.113128 213.698394 
L 306.023479 211.866707 
L 306.1102 210.035396 
L 305.992519 207.838076 
L 305.690136 205.615619 
L 304.985795 203.309503 
L 304.157978 200.963636 
L 302.613487 198.634959 
L 302.122563 196.606265 
L 301.683293 194.479741 
L 299.701495 192.325485 
L 298.845005 190.459828 
L 295.726165 188.031113 
L 293.41174 185.607344 
L 290.91161 183.139287 
L 287.643123 180.449642 
L 284.683758 177.88263 
L 282.421336 175.504614 
L 278.804902 172.895534 
L 276.456011 170.595135 
L 273.5029 168.20225 
L 272.160583 166.163671 
L 253.746997 161.841048 
L 252.052448 159.684761 
L 250.210679 157.687861 
L 246.566927 155.628451 
L 244.269956 153.643407 
L 241.312726 151.609038 
L 237.542805 149.423417 
L 234.705646 147.425116 
L 231.181913 145.393861 
L 228.011258 143.40032 
L 224.449029 141.360215 
L 221.451719 139.347019 
L 218.568035 137.380149 
L 215.637581 135.47368 
L 213.020089 133.606813 
L 210.797035 131.786279 
L 207.668256 130.003193 
L 205.329658 128.219561 
L 202.921049 126.435664 
L 200.443119 124.698141 
L 197.251579 122.986492 
L 194.569322 121.219654 
L 192.269215 119.469612 
L 189.694297 117.602405 
L 187.246969 115.603492 
L 184.199757 113.560251 
L 180.316049 110.9883 
L 176.312003 108.694281 
L 171.308784 105.938501 
L 166.475932 103.455311 
L 162.209662 100.95255 
L 155.71508 98.183656 
L 148.931518 96.0469 
L 142.614129 94.357784 
L 138.075061 91.960738 
L 133.71835 88.808679 
L 130.910778 85.31965 
L 128.522908 81.660005 
" style="fill:none;stroke:#d62728;stroke-linecap:square;stroke-width:3;"/>
   </g>
   <g id="line2d_36">
    <path clip-path="url(#p0e42f0b2c0)" d="M 322.355281 333.425512 
L 322.06531 331.307853 
L 321.995593 329.363128 
L 321.640766 327.211696 
L 321.297764 325.051417 
L 320.833052 322.906273 
L 320.714673 320.863046 
L 320.324161 318.676189 
L 319.985496 316.539694 
L 319.60329 314.353343 
L 318.962753 312.01111 
L 318.974049 310.011761 
L 318.498155 307.842417 
L 318.247314 305.772851 
L 318.067097 303.740048 
L 317.647702 301.467305 
L 317.315046 299.346822 
L 316.919065 297.066935 
L 316.862853 295.040895 
L 316.46259 292.73911 
L 315.959855 290.533085 
L 315.764802 288.444963 
L 315.504607 286.293466 
L 315.091073 283.871072 
L 314.841377 281.778708 
L 314.589122 279.619453 
L 314.148982 277.197731 
L 313.751357 274.7633 
L 313.37089 272.447934 
L 312.997848 270.079329 
L 312.675259 267.794476 
L 312.292593 265.419725 
L 311.658267 262.783065 
L 310.275492 259.345752 
L 309.209909 255.936581 
L 308.042689 252.797421 
L 307.628683 250.353785 
L 306.99368 247.784098 
L 306.258059 245.164741 
L 305.634757 242.784571 
L 305.156739 240.512307 
L 304.602018 238.204297 
L 303.825178 236.082374 
L 303.404554 233.789162 
L 303.106838 231.794995 
L 302.558724 229.579598 
L 302.351241 227.47084 
L 301.666241 225.247824 
L 301.354512 223.244436 
L 300.967036 221.078492 
L 300.566049 219.154652 
L 299.881216 216.822547 
L 299.220326 214.598539 
L 298.655083 212.164114 
L 297.223887 209.593293 
L 295.846155 207.084851 
L 293.777886 204.496643 
L 293.126716 202.330079 
L 291.325834 199.9557 
L 290.133914 197.779155 
L 287.992496 195.350683 
L 286.352399 193.089319 
L 284.830877 190.890744 
L 282.342738 188.457917 
L 280.896239 186.287232 
L 278.868778 184.019021 
L 277.066617 181.815979 
L 275.227624 179.622115 
L 272.857933 177.389109 
L 270.820125 175.239092 
L 254.888353 171.174362 
L 253.748733 169.167413 
L 251.462719 167.119855 
L 249.385666 165.158932 
L 246.981221 163.240104 
L 244.985718 161.217548 
L 242.932768 159.239017 
L 240.609382 157.232776 
L 237.037703 155.161978 
L 235.348636 153.194348 
L 232.53427 151.182934 
L 229.446071 149.230712 
L 226.589626 147.129219 
L 224.092585 145.190765 
L 221.17331 143.119476 
L 218.835908 141.1899 
L 216.093495 139.314016 
L 214.035386 137.411355 
L 211.532019 135.62924 
L 209.407352 133.74529 
L 207.207058 131.961663 
L 205.319025 130.186681 
L 202.87949 128.390807 
L 200.810983 126.68984 
L 198.364916 124.883965 
L 196.002319 123.171332 
L 193.582507 121.342928 
L 191.46641 119.580455 
L 189.070829 117.627741 
L 187.018242 115.650665 
L 183.61526 113.545198 
L 180.01732 111.189424 
L 176.263711 108.730585 
L 171.51419 106.137724 
L 167.049553 103.52302 
L 163.216771 101.144824 
L 155.744575 98.368501 
L 149.156824 96.037492 
L 142.763416 94.393899 
L 138.145109 91.980336 
L 134.343873 88.956429 
L 130.998487 85.500054 
L 128.556703 81.655236 
" style="fill:none;stroke:#d62728;stroke-linecap:square;stroke-width:3;"/>
   </g>
   <g id="line2d_37">
    <path clip-path="url(#p0e42f0b2c0)" d="M 297.815103 318.390504 
L 297.601351 316.304002 
L 297.392427 314.228259 
L 297.019971 311.978666 
L 296.887444 309.95899 
L 296.533081 307.7981 
L 296.19364 305.682646 
L 295.989158 303.640259 
L 295.72361 301.47193 
L 295.613642 299.550239 
L 295.345228 297.462031 
L 295.095261 295.367938 
L 294.835047 293.232352 
L 294.482845 291.115774 
L 294.187851 288.952314 
L 293.693573 286.649108 
L 293.504184 284.558642 
L 293.143002 282.235992 
L 293.041181 280.217799 
L 292.730564 278.157055 
L 292.833059 276.044545 
L 292.929923 274.166514 
L 292.851375 271.802586 
L 293.183927 269.905686 
L 293.048688 267.702171 
L 293.213249 265.682754 
L 293.348728 263.531904 
L 293.714675 261.359098 
L 293.867282 259.085527 
L 294.220851 257.077751 
L 294.162862 255.107156 
L 294.726197 253.142152 
L 295.297303 251.212385 
L 295.898081 249.466585 
L 296.232008 247.690912 
L 297.568068 245.944757 
L 297.977469 244.200753 
L 299.405924 242.385554 
L 299.959467 240.584408 
L 301.410039 238.880139 
L 301.835452 237.110505 
L 302.343724 235.139129 
L 304.00642 233.431498 
L 304.682986 231.515917 
L 305.450428 229.691752 
L 305.890993 227.770164 
L 307.10517 225.892219 
L 306.4139 223.988862 
L 306.505349 222.344416 
L 306.824085 220.151541 
L 306.967576 218.363721 
L 306.705111 216.331392 
L 307.299508 214.533726 
L 306.490023 212.674009 
L 306.857996 210.782882 
L 306.048344 208.752534 
L 304.864419 206.522982 
L 304.432087 204.524371 
L 303.962083 202.592694 
L 303.315637 200.499155 
L 302.443168 198.534933 
L 301.020392 196.308657 
L 299.826832 194.224678 
L 298.02197 192.042499 
L 296.136419 189.916907 
L 293.523012 187.454728 
L 290.864626 184.938982 
L 288.039417 182.450486 
L 284.894503 180.002118 
L 282.451766 177.367811 
L 280.006226 174.996549 
L 277.307302 172.613254 
L 274.77399 170.29651 
L 272.628284 168.089303 
L 255.209783 163.918439 
L 252.503516 161.586917 
L 251.192381 159.648009 
L 248.295762 157.64175 
L 245.66514 155.582289 
L 242.995083 153.595109 
L 240.214223 151.551478 
L 236.436468 149.296847 
L 233.770317 147.392798 
L 230.068658 145.293753 
L 226.807353 143.300459 
L 223.692837 141.325785 
L 220.627751 139.30142 
L 217.688273 137.379529 
L 214.694036 135.43439 
L 212.29952 133.619344 
L 209.946439 131.808654 
L 207.238403 130.020559 
L 204.803116 128.236376 
L 202.548141 126.460282 
L 199.769421 124.664529 
L 197.320208 123.030825 
L 194.094498 121.226004 
L 192.143558 119.471549 
L 190.212922 117.563385 
L 187.024085 115.627637 
L 183.972358 113.534391 
L 180.483149 111.213253 
L 176.309157 108.624041 
L 171.256887 106.031639 
L 166.47425 103.423899 
L 161.867112 100.945573 
L 155.674666 98.237652 
L 148.732916 96.027258 
L 142.509854 94.353677 
L 138.250396 91.996812 
L 134.042167 88.810725 
L 130.75556 85.351925 
L 128.503171 81.580528 
" style="fill:none;stroke:#d62728;stroke-linecap:square;stroke-width:3;"/>
   </g>
   <g id="line2d_38">
    <path clip-path="url(#p0e42f0b2c0)" d="M 243.588728 315.225075 
L 244.342119 313.144989 
L 245.151736 311.298434 
L 245.326293 309.464174 
L 246.516403 307.428418 
L 247.150698 305.517311 
L 247.813842 303.564536 
L 248.405857 301.687022 
L 249.388707 299.666588 
L 250.041236 297.831333 
L 250.722381 295.921847 
L 251.539277 293.994714 
L 252.31245 292.124003 
L 253.204319 290.111088 
L 254.311986 288.124291 
L 255.304718 286.189934 
L 256.329743 284.219755 
L 256.974571 282.254704 
L 258.0128 280.282651 
L 259.15339 278.302115 
L 260.319609 276.282504 
L 260.753588 274.330401 
L 261.639614 272.379717 
L 262.857662 270.211881 
L 263.144538 268.03787 
L 264.233635 266.046468 
L 264.666817 263.913422 
L 265.394458 261.686955 
L 264.934874 258.848557 
L 267.332402 256.555141 
L 269.304274 254.710701 
L 270.187923 252.80282 
L 271.113614 250.909564 
L 274.655995 248.47514 
L 276.871921 246.304866 
L 278.811115 244.532848 
L 281.195977 242.880367 
L 283.283193 241.361926 
L 285.302716 239.730203 
L 287.459365 237.930249 
L 288.865461 236.077034 
L 290.624104 234.36138 
L 292.467284 232.682966 
L 293.493811 230.879206 
L 295.579312 229.26939 
L 296.654538 227.234784 
L 298.415716 225.675772 
L 299.609362 224.085215 
L 300.440007 222.276607 
L 301.232155 220.027941 
L 302.405502 217.429354 
L 303.084828 215.507866 
L 303.160719 213.458652 
L 303.392699 211.740764 
L 303.582084 209.896936 
L 304.026364 208.088281 
L 303.800023 206.196989 
L 303.732729 204.377945 
L 303.654869 202.488461 
L 303.418662 200.574302 
L 303.45363 198.724218 
L 302.519756 196.67088 
L 301.752775 194.658703 
L 300.541469 192.49943 
L 299.22825 190.412554 
L 297.979888 188.301538 
L 295.304493 186.000667 
L 293.178304 183.635942 
L 290.456833 181.12078 
L 287.27999 178.545071 
L 284.320464 175.963584 
L 281.792576 173.523571 
L 279.178486 171.113473 
L 276.139674 168.68929 
L 273.9418 166.447418 
L 272.054898 164.296171 
L 253.800159 159.877275 
L 251.465361 157.679533 
L 249.207793 155.820158 
L 246.35872 153.810992 
L 243.824942 151.788894 
L 240.116631 149.608799 
L 236.845341 147.569535 
L 233.446698 145.500484 
L 230.258642 143.441591 
L 226.85833 141.455271 
L 223.526836 139.459535 
L 220.241105 137.449094 
L 217.116228 135.508473 
L 214.134898 133.604947 
L 211.895519 131.79693 
L 208.78199 129.970274 
L 206.030538 128.178483 
L 203.599451 126.413522 
L 201.215336 124.655713 
L 198.251338 122.942743 
L 195.459849 121.230709 
L 192.922358 119.419366 
L 190.638099 117.612863 
L 187.641459 115.635765 
L 184.48856 113.538824 
L 180.957768 111.258811 
L 176.756041 108.770872 
L 172.020292 106.045688 
L 166.772019 103.502458 
L 162.829372 101.054417 
L 155.828342 98.285594 
L 148.570025 95.997719 
L 142.726137 94.372208 
L 138.123606 91.990518 
L 133.681109 88.812656 
L 130.972239 85.368602 
L 128.52699 81.609011 
" style="fill:none;stroke:#d62728;stroke-linecap:square;stroke-width:3;"/>
   </g>
   <g id="line2d_39">
    <path clip-path="url(#p0e42f0b2c0)" d="M 263.294872 316.238198 
L 263.403721 314.199805 
L 263.401752 312.360931 
L 263.414439 310.283726 
L 263.422742 308.184985 
L 263.375284 306.166813 
L 263.482245 304.29403 
L 263.52579 302.121428 
L 263.605501 300.033312 
L 263.615251 298.012061 
L 263.695726 295.851025 
L 263.724511 293.883388 
L 263.68656 291.764589 
L 263.806413 289.672732 
L 263.858962 287.591083 
L 264.026469 285.614272 
L 264.682415 283.576583 
L 264.401668 281.396827 
L 264.452969 279.457334 
L 264.882587 277.346145 
L 265.198736 275.26478 
L 265.739722 273.155444 
L 266.093951 271.118293 
L 266.707605 268.953902 
L 267.972788 266.732952 
L 269.152564 264.58507 
L 270.684169 262.590685 
L 271.170461 260.579745 
L 272.38018 258.529565 
L 275.878731 256.021765 
L 277.048576 253.971297 
L 280.615447 252.287154 
L 283.417445 250.59292 
L 284.681529 249.083742 
L 285.983527 247.281853 
L 287.811274 245.519079 
L 289.032557 243.574336 
L 291.249954 241.836722 
L 292.423857 240.002141 
L 294.363824 238.273125 
L 295.819257 236.609665 
L 297.373923 234.966751 
L 298.95034 233.418726 
L 300.614514 231.800575 
L 302.154019 229.827298 
L 302.983575 227.534558 
L 304.046544 225.838671 
L 305.742123 224.135693 
L 306.670759 222.134728 
L 306.734515 220.290394 
L 307.295203 218.365968 
L 307.88598 216.514336 
L 307.828809 214.570967 
L 308.066391 212.691921 
L 308.20753 210.91963 
L 308.083461 209.033293 
L 308.334682 207.157412 
L 308.058104 205.36185 
L 307.982001 203.47135 
L 307.876394 201.640332 
L 305.710113 199.544466 
L 305.363703 197.435424 
L 304.166256 195.202214 
L 303.618881 193.195588 
L 302.127402 190.975186 
L 300.658539 188.819108 
L 298.753167 186.597331 
L 296.173502 184.256657 
L 293.252375 181.818577 
L 289.959752 179.14368 
L 286.949195 176.587739 
L 283.547458 173.902612 
L 280.99105 171.494922 
L 277.2393 168.887345 
L 274.656288 166.567103 
L 272.523023 164.364431 
L 254.437425 160.045081 
L 252.102191 157.751013 
L 249.846277 155.835562 
L 246.359425 153.711481 
L 243.677492 151.673714 
L 240.211433 149.59817 
L 236.716413 147.559932 
L 233.305516 145.47594 
L 230.073707 143.367099 
L 226.686117 141.458624 
L 222.854502 139.390177 
L 219.927045 137.454604 
L 216.667428 135.479849 
L 213.679826 133.598414 
L 211.107269 131.770212 
L 208.048452 130.001134 
L 205.439714 128.200362 
L 202.91345 126.436988 
L 200.493035 124.68411 
L 197.591064 122.972744 
L 195.151788 121.274396 
L 192.025221 119.419674 
L 190.076258 117.597761 
L 187.157325 115.620935 
L 183.851571 113.50959 
L 179.865076 111.146177 
L 176.133532 108.553283 
L 171.282303 105.979694 
L 165.966796 103.359918 
L 161.09209 100.820007 
L 155.454587 98.237987 
L 148.680561 96.020322 
L 142.386543 94.345874 
L 137.777778 91.911357 
L 134.03924 88.80234 
L 130.859771 85.292203 
L 128.452609 81.559795 
" style="fill:none;stroke:#d62728;stroke-linecap:square;stroke-width:3;"/>
   </g>
   <g id="line2d_40">
    <path clip-path="url(#p0e42f0b2c0)" d="M 280.116631 323.38878 
L 279.972823 321.30048 
L 279.834478 319.192064 
L 279.639355 317.019064 
L 279.565616 315.018974 
L 279.353901 312.788278 
L 279.198029 310.702498 
L 279.130365 308.790752 
L 278.983236 306.586385 
L 278.841383 304.472286 
L 278.696788 302.348705 
L 278.497167 300.182046 
L 278.367716 297.704369 
L 278.237363 295.881577 
L 278.070165 293.694396 
L 277.756349 291.516884 
L 277.515493 289.237518 
L 277.545315 287.174682 
L 277.319395 285.002318 
L 277.136798 282.850403 
L 276.941555 280.706132 
L 276.817212 278.618533 
L 276.762652 276.623903 
L 276.521944 274.487435 
L 276.337449 272.280981 
L 276.165654 270.243161 
L 276.059599 268.296429 
L 275.795598 266.090946 
L 275.601866 263.994779 
L 275.461331 261.918303 
L 275.262951 259.81908 
L 274.982899 257.628464 
L 275.010316 255.678054 
L 274.672765 253.542906 
L 274.56124 251.514244 
L 274.319263 249.405173 
L 274.107756 247.301156 
L 273.98185 245.332108 
L 273.769874 243.232401 
L 273.513731 241.08324 
L 273.293469 239.170165 
L 273.276811 237.059311 
L 272.976679 234.931339 
L 272.737616 232.8394 
L 272.522472 230.727192 
L 272.110086 228.50666 
L 271.896099 226.403001 
L 271.830347 224.213554 
L 271.047263 222.034161 
L 270.696194 220.037604 
L 270.105166 218.005365 
L 270.075815 216.050032 
L 269.295363 213.832424 
L 268.245107 211.464178 
L 262.187021 207.043018 
L 260.498881 204.738738 
L 259.924834 202.588503 
L 256.814211 200.01436 
L 254.18976 197.635219 
L 251.93559 195.481553 
L 250.322078 193.446238 
L 248.329881 191.396629 
L 246.101994 189.314416 
L 244.55251 187.380761 
L 242.787004 185.381512 
L 240.609215 183.390337 
L 238.677821 181.408241 
L 237.051159 179.449572 
L 235.485841 177.483806 
L 234.220206 175.508719 
L 232.522893 173.505939 
L 231.608755 171.556371 
L 229.502653 169.433744 
L 227.904723 167.399606 
L 226.888054 165.386178 
L 225.406698 163.352993 
L 223.684516 161.281953 
L 222.476926 159.300706 
L 221.181738 157.422298 
L 219.712818 155.477991 
L 218.161983 153.508315 
L 216.587657 151.640122 
L 214.965606 149.786806 
L 213.793499 147.959071 
L 211.490914 146.113184 
L 209.959327 144.308852 
L 208.233437 142.559597 
L 206.625985 140.735185 
L 204.853684 138.892799 
L 202.980078 136.971445 
L 201.396731 135.243294 
L 199.558292 133.214395 
L 197.996091 131.433397 
L 195.898524 129.55866 
L 194.075309 127.758381 
L 191.380879 126.095306 
L 188.837715 124.34317 
L 186.248125 122.38234 
L 184.52869 119.939028 
L 182.246833 117.163433 
L 178.439105 114.365234 
L 175.125277 111.628793 
L 172.426426 109.13215 
L 169.06228 106.417258 
L 165.089988 103.706274 
L 161.633925 101.11123 
L 155.485821 98.60554 
L 148.567577 96.003207 
L 143.125601 94.351864 
L 138.23717 91.993276 
L 134.193083 88.962921 
L 131.142594 85.438693 
L 128.558744 81.649955 
" style="fill:none;stroke:#9467bd;stroke-linecap:square;stroke-width:3;"/>
   </g>
   <g id="line2d_41">
    <path clip-path="url(#p0e42f0b2c0)" d="M 319.759219 321.977423 
L 318.970751 319.873566 
L 318.602424 317.894375 
L 318.212164 315.92209 
L 318.113414 314.032963 
L 317.171327 311.854316 
L 317.152919 309.963662 
L 316.380397 307.861575 
L 315.766179 305.819847 
L 314.819055 303.678481 
L 314.917779 301.71934 
L 314.240487 299.542281 
L 312.647981 297.156095 
L 312.056735 295.061775 
L 311.464943 292.954009 
L 310.79752 290.802825 
L 310.211768 288.771378 
L 310.201717 286.893106 
L 309.325171 284.783162 
L 308.660506 282.718853 
L 307.788549 280.580524 
L 307.175046 278.509369 
L 306.563079 276.441956 
L 305.823236 274.363752 
L 305.23476 272.351451 
L 304.338157 270.185857 
L 303.774488 268.174886 
L 303.184463 266.151366 
L 302.277844 263.979168 
L 301.671236 261.966359 
L 300.74987 259.805888 
L 299.93751 257.693471 
L 299.607221 255.722643 
L 299.09674 253.715111 
L 297.876974 251.4546 
L 297.19825 249.376358 
L 296.602499 247.23455 
L 295.426637 245.049494 
L 294.440355 242.877371 
L 293.602773 240.692377 
L 292.143761 238.485959 
L 291.326549 236.369235 
L 290.743496 234.322424 
L 289.672778 232.162844 
L 288.898622 230.010801 
L 287.821038 227.777759 
L 286.66482 225.684453 
L 285.843346 223.724067 
L 285.244168 221.630659 
L 283.838949 219.536361 
L 283.546467 217.597717 
L 281.696577 215.497626 
L 280.197474 213.413596 
L 278.274631 211.392038 
L 276.862237 209.2892 
L 274.84377 207.001919 
L 272.816819 204.691243 
L 271.110796 202.347395 
L 266.38358 199.142222 
L 262.065539 196.471048 
L 258.016574 194.287409 
L 255.293054 192.147859 
L 253.46882 189.988747 
L 251.160883 187.785259 
L 249.162641 185.84686 
L 246.779122 183.807211 
L 244.451119 181.76647 
L 242.200729 179.781328 
L 240.368598 177.867509 
L 238.128365 175.848116 
L 236.13202 173.834561 
L 234.750214 171.86463 
L 232.905425 169.841399 
L 231.47325 167.8458 
L 229.416908 165.713368 
L 228.007659 163.69109 
L 226.704759 161.665596 
L 224.59542 159.514514 
L 223.082483 157.456255 
L 221.728866 155.451727 
L 219.642344 153.417822 
L 218.137132 151.658962 
L 216.304612 149.840991 
L 214.625565 147.85553 
L 212.945812 146.102076 
L 211.079857 144.251465 
L 209.38261 142.493182 
L 207.62143 140.680712 
L 205.587184 138.888418 
L 204.503978 137.045255 
L 201.888252 135.070492 
L 200.199638 133.161667 
L 198.422917 131.323808 
L 195.972968 129.5071 
L 193.955479 127.742258 
L 191.465209 125.967304 
L 188.655906 124.249839 
L 186.52823 122.121082 
L 184.081517 119.558001 
L 181.908915 117.069626 
L 178.578126 114.254388 
L 175.054619 111.623917 
L 171.697099 108.931493 
L 168.463023 106.333397 
L 164.899207 103.650313 
L 161.008152 100.971387 
L 155.126765 98.48438 
L 148.632187 96.032853 
L 142.806156 94.342414 
L 138.568639 92.043416 
L 134.58352 88.954061 
L 130.95961 85.461546 
L 128.463699 81.584375 
" style="fill:none;stroke:#9467bd;stroke-linecap:square;stroke-width:3;"/>
   </g>
   <g id="line2d_42">
    <path clip-path="url(#p0e42f0b2c0)" d="M 290.513527 298.643954 
L 290.309133 297.224085 
L 290.303721 295.513109 
L 290.338646 293.742524 
L 290.155596 292.263486 
L 290.113421 290.590859 
L 290.006219 289.016923 
L 290.017799 287.259477 
L 289.833805 285.790606 
L 289.663143 284.268814 
L 289.558995 282.668997 
L 289.547754 280.948759 
L 289.452531 279.312663 
L 289.326601 277.726644 
L 289.234651 276.09148 
L 289.175509 274.406252 
L 288.991306 272.868907 
L 288.931913 271.205121 
L 288.853626 269.544715 
L 288.795064 267.832203 
L 288.730662 266.158225 
L 288.515585 264.674872 
L 288.350146 263.141974 
L 288.203794 261.551225 
L 288.012995 260.035484 
L 287.811729 258.694183 
L 287.842981 257.05425 
L 287.465435 255.702935 
L 287.263872 254.146138 
L 286.969449 252.504899 
L 286.807787 251.028345 
L 286.530835 249.43788 
L 286.340204 247.821037 
L 286.140664 246.32445 
L 285.761827 244.895706 
L 285.516295 243.370004 
L 285.421288 241.855694 
L 284.906221 240.482478 
L 285.074837 239.001922 
L 284.743099 237.44197 
L 284.262741 236.024264 
L 283.946819 234.56747 
L 283.387615 232.856586 
L 283.171767 231.189934 
L 282.307392 229.227797 
L 281.706927 227.342234 
L 281.3341 225.503042 
L 280.531967 223.492128 
L 279.920872 221.429058 
L 279.540853 219.414512 
L 278.5475 217.369156 
L 277.724348 215.269328 
L 276.952214 213.197285 
L 275.700729 211.02349 
L 274.060223 208.789324 
L 271.811973 206.173037 
L 267.898117 203.248666 
L 263.109371 199.792506 
L 262.024652 197.659384 
L 257.317673 195.905661 
L 254.176888 193.802531 
L 251.508105 191.601462 
L 249.930961 189.618979 
L 247.119525 187.493077 
L 245.154671 185.466951 
L 243.32494 183.566514 
L 240.527453 181.467874 
L 238.788605 179.591918 
L 236.959643 177.59734 
L 235.455306 175.630891 
L 233.400723 173.572818 
L 232.358873 171.643903 
L 230.582677 169.587792 
L 228.725956 167.505476 
L 227.195089 165.438505 
L 225.749553 163.392704 
L 224.280937 161.35246 
L 222.85339 159.316829 
L 221.158519 157.295712 
L 219.844554 155.4048 
L 218.302397 153.523592 
L 216.999677 151.698414 
L 215.014138 149.772546 
L 213.587921 147.91797 
L 211.517197 146.10949 
L 209.788123 144.323583 
L 208.220684 142.555269 
L 206.202163 140.757062 
L 204.951244 138.896604 
L 202.70309 136.940744 
L 201.252174 135.111288 
L 199.262512 133.229 
L 197.851278 131.375382 
L 195.648442 129.563349 
L 193.454407 127.797435 
L 191.2737 126.035374 
L 188.464095 124.364397 
L 186.40722 122.483608 
L 184.380704 119.905865 
L 182.064647 117.328865 
L 178.706684 114.330233 
L 175.445426 111.736501 
L 172.103521 109.061297 
L 168.945754 106.389745 
L 165.25011 103.741752 
L 161.898973 101.161191 
L 155.34444 98.532349 
L 148.926841 96.062267 
L 143.348966 94.402123 
L 138.567217 92.048169 
L 134.508035 88.97594 
L 131.00279 85.446264 
L 128.633901 81.706511 
" style="fill:none;stroke:#9467bd;stroke-linecap:square;stroke-width:3;"/>
   </g>
   <g id="line2d_43">
    <path clip-path="url(#p0e42f0b2c0)" d="M 309.676022 297.634943 
L 309.51401 296.039965 
L 309.347533 294.440988 
L 309.079998 292.926862 
L 308.979088 291.241783 
L 308.75674 289.672181 
L 308.579194 288.055111 
L 308.327537 286.492449 
L 308.118512 284.888499 
L 307.878112 283.306468 
L 307.704979 281.678895 
L 307.464534 280.081178 
L 307.361689 278.356522 
L 307.194712 276.725931 
L 306.883276 275.176308 
L 306.757637 273.458012 
L 306.352635 272.022444 
L 306.316621 270.232563 
L 306.108708 268.57096 
L 305.837531 266.923354 
L 305.410163 265.488524 
L 305.268615 263.7404 
L 305.058648 262.067378 
L 304.929956 260.298827 
L 304.465595 258.823147 
L 304.105203 257.235402 
L 304.030969 255.479488 
L 303.601167 253.913835 
L 303.139183 252.363999 
L 302.93865 250.666354 
L 302.547961 249.11023 
L 302.339385 247.370788 
L 302.039389 245.706293 
L 301.734339 244.007531 
L 301.265658 242.453271 
L 300.886468 240.795568 
L 300.471845 239.195432 
L 300.031814 237.6699 
L 299.876151 235.817738 
L 299.156043 234.421386 
L 298.80459 232.756534 
L 298.381956 231.136486 
L 297.88594 229.588384 
L 297.475788 227.965636 
L 296.622359 226.820456 
L 295.538652 225.464895 
L 294.997792 224.069366 
L 294.019406 222.484255 
L 293.659392 220.943273 
L 293.098948 219.224934 
L 292.29991 217.349513 
L 291.473842 215.587889 
L 290.7444 213.89642 
L 289.5697 212.011152 
L 288.469125 210.218362 
L 287.476796 208.258272 
L 285.102981 206.198712 
L 282.427113 204.098181 
L 280.231013 201.895924 
L 277.966058 199.565115 
L 261.029721 192.599872 
L 260.196553 190.820092 
L 260.213422 189.147154 
L 260.319271 187.56324 
L 254.312888 186.233225 
L 252.165521 184.052533 
L 250.350868 181.80846 
L 247.694542 179.706167 
L 245.555004 177.522712 
L 242.649509 176.035414 
L 239.641629 174.077509 
L 238.10452 172.175203 
L 235.711566 170.103185 
L 233.371413 168.022061 
L 231.304866 165.950215 
L 229.308928 163.82073 
L 227.986666 161.77864 
L 226.222227 159.658779 
L 224.105139 157.465459 
L 222.659794 155.32818 
L 220.54459 153.407562 
L 219.095292 151.699761 
L 216.969708 149.693477 
L 215.254782 147.849102 
L 213.540438 146.035556 
L 211.97271 144.274917 
L 209.55946 142.498512 
L 207.733027 140.679272 
L 205.68874 138.849509 
L 203.877399 136.963111 
L 202.171341 135.065147 
L 200.165976 133.23814 
L 198.440071 131.343284 
L 196.221668 129.579646 
L 194.107286 127.723823 
L 191.577745 126.000582 
L 188.791081 124.26775 
L 186.497077 122.3373 
L 184.428252 119.893812 
L 182.33217 117.239921 
L 178.608962 114.254634 
L 175.426616 111.725513 
L 172.096252 109.191378 
L 169.109698 106.4207 
L 165.21479 103.728196 
L 161.425588 101.075883 
L 155.347278 98.52847 
L 148.721476 96.034934 
L 143.127584 94.349317 
L 138.297389 92.01161 
L 134.430504 88.909626 
L 131.042667 85.386378 
L 128.785292 81.662238 
" style="fill:none;stroke:#9467bd;stroke-linecap:square;stroke-width:3;"/>
   </g>
   <g id="line2d_44">
    <path clip-path="url(#p0e42f0b2c0)" d="M 288.645804 316.977348 
L 288.564677 315.202837 
L 288.397875 313.021937 
L 288.323093 311.201385 
L 288.178586 309.06482 
L 288.078582 307.020726 
L 287.963838 305.001427 
L 287.888503 303.076536 
L 287.817221 301.103855 
L 287.64393 299.02702 
L 287.590634 297.093812 
L 287.501015 295.074936 
L 287.147194 293.124498 
L 287.230714 291.109348 
L 287.220577 289.156019 
L 287.101165 287.13442 
L 287.049439 285.323103 
L 286.895994 283.153587 
L 286.779758 280.994377 
L 286.860768 279.3289 
L 286.587651 277.280864 
L 286.49788 275.26033 
L 286.357666 273.17065 
L 286.419343 271.399575 
L 286.280832 269.412199 
L 286.07077 267.288426 
L 285.97018 265.310559 
L 285.823582 263.301597 
L 285.862336 261.490326 
L 285.692402 259.439649 
L 285.514639 257.409814 
L 285.296036 255.315562 
L 285.179244 253.398901 
L 285.038824 251.39565 
L 284.81613 249.307681 
L 284.599869 247.258442 
L 284.386196 245.315651 
L 284.463938 243.392579 
L 283.598581 241.187078 
L 282.826558 238.99232 
L 282.309796 236.985877 
L 281.403369 234.89195 
L 281.165229 232.924019 
L 280.685324 231.011334 
L 280.310828 228.998856 
L 279.54047 226.992039 
L 279.213081 225.073504 
L 278.420307 222.934713 
L 277.45855 220.895705 
L 276.894089 218.854725 
L 275.582136 216.705669 
L 274.882811 214.782335 
L 273.337506 212.449115 
L 271.829019 210.121159 
L 269.74847 207.779121 
L 263.88913 203.922884 
L 262.707477 201.197864 
L 260.410951 199.679533 
L 255.598827 197.715713 
L 253.221901 195.587563 
L 251.201259 193.525406 
L 249.577057 191.482006 
L 247.217313 189.369473 
L 245.367191 187.386526 
L 243.678251 185.427328 
L 241.169513 183.383722 
L 239.854694 181.510718 
L 237.978233 179.523154 
L 236.383505 177.541041 
L 234.597424 175.539396 
L 232.969543 173.529246 
L 231.618723 171.545111 
L 230.31061 169.547951 
L 228.847237 167.52698 
L 227.495211 165.473895 
L 226.459359 163.48517 
L 223.840806 161.270152 
L 222.921365 159.376336 
L 221.316477 157.33073 
L 220.234011 155.453386 
L 218.113246 153.599445 
L 217.080086 151.705349 
L 214.965567 149.769153 
L 213.60653 147.920184 
L 212.169847 146.117634 
L 210.288867 144.303619 
L 208.693897 142.565089 
L 207.118387 140.774563 
L 205.09112 138.889057 
L 203.449747 137.042333 
L 202.16599 135.16873 
L 199.897828 133.20918 
L 198.425967 131.426329 
L 196.429976 129.605379 
L 194.160108 127.81703 
L 192.019235 125.961719 
L 189.516523 124.233786 
L 187.139061 122.394112 
L 184.728341 119.96759 
L 182.506681 117.249241 
L 178.785818 114.352518 
L 175.33772 111.719392 
L 172.224123 109.093461 
L 168.667846 106.354316 
L 165.770504 103.749116 
L 161.653603 101.106652 
L 155.663261 98.569209 
L 148.374192 95.959019 
L 143.057123 94.343201 
L 138.487249 92.025145 
L 134.075856 88.889823 
L 130.973673 85.494703 
L 128.542362 81.635105 
" style="fill:none;stroke:#9467bd;stroke-linecap:square;stroke-width:3;"/>
   </g>
  </g>
 </g>
 <defs>
  <clipPath id="p0e42f0b2c0">
   <rect height="410.4" width="410.4" x="7.2" y="7.2"/>
  </clipPath>
 </defs>
</svg>
