<?xml version="1.0" encoding="utf-8" standalone="no"?>
<!DOCTYPE svg PUBLIC "-//W3C//DTD SVG 1.1//EN"
  "http://www.w3.org/Graphics/SVG/1.1/DTD/svg11.dtd">
<!-- Created with matplotlib (https://matplotlib.org/) -->
<svg height="338.25625pt" version="1.1" viewBox="0 0 432.784375 338.25625" width="432.784375pt" xmlns="http://www.w3.org/2000/svg" xmlns:xlink="http://www.w3.org/1999/xlink">
 <defs>
  <style type="text/css">
*{stroke-linecap:butt;stroke-linejoin:round;}
  </style>
 </defs>
 <g id="figure_1">
  <g id="patch_1">
   <path d="M 0 338.25625 
L 432.784375 338.25625 
L 432.784375 0 
L 0 0 
z
" style="fill:#ffffff;"/>
  </g>
  <g id="axes_1">
   <g id="patch_2">
    <path d="M 45.478125 300.7 
L 425.584375 300.7 
L 425.584375 7.2 
L 45.478125 7.2 
z
" style="fill:#ffffff;"/>
   </g>
   <g id="matplotlib.axis_1">
    <g id="xtick_1">
     <g id="line2d_1">
      <defs>
       <path d="M 0 0 
L 0 3.5 
" id="ma77b62228e" style="stroke:#000000;stroke-width:0.8;"/>
      </defs>
      <g>
       <use style="stroke:#000000;stroke-width:0.8;" x="62.755682" xlink:href="#ma77b62228e" y="300.7"/>
      </g>
     </g>
     <g id="text_1">
      <!-- $\mathdefault{10^{0}}$ -->
      <defs>
       <path d="M 12.40625 8.296875 
L 28.515625 8.296875 
L 28.515625 63.921875 
L 10.984375 60.40625 
L 10.984375 69.390625 
L 28.421875 72.90625 
L 38.28125 72.90625 
L 38.28125 8.296875 
L 54.390625 8.296875 
L 54.390625 0 
L 12.40625 0 
z
" id="DejaVuSans-49"/>
       <path d="M 31.78125 66.40625 
Q 24.171875 66.40625 20.328125 58.90625 
Q 16.5 51.421875 16.5 36.375 
Q 16.5 21.390625 20.328125 13.890625 
Q 24.171875 6.390625 31.78125 6.390625 
Q 39.453125 6.390625 43.28125 13.890625 
Q 47.125 21.390625 47.125 36.375 
Q 47.125 51.421875 43.28125 58.90625 
Q 39.453125 66.40625 31.78125 66.40625 
z
M 31.78125 74.21875 
Q 44.046875 74.21875 50.515625 64.515625 
Q 56.984375 54.828125 56.984375 36.375 
Q 56.984375 17.96875 50.515625 8.265625 
Q 44.046875 -1.421875 31.78125 -1.421875 
Q 19.53125 -1.421875 13.0625 8.265625 
Q 6.59375 17.96875 6.59375 36.375 
Q 6.59375 54.828125 13.0625 64.515625 
Q 19.53125 74.21875 31.78125 74.21875 
z
" id="DejaVuSans-48"/>
      </defs>
      <g transform="translate(53.955682 315.298437)scale(0.1 -0.1)">
       <use transform="translate(0 0.765625)" xlink:href="#DejaVuSans-49"/>
       <use transform="translate(63.623047 0.765625)" xlink:href="#DejaVuSans-48"/>
       <use transform="translate(128.203125 39.046875)scale(0.7)" xlink:href="#DejaVuSans-48"/>
      </g>
     </g>
    </g>
    <g id="xtick_2">
     <g id="line2d_2">
      <g>
       <use style="stroke:#000000;stroke-width:0.8;" x="213.070263" xlink:href="#ma77b62228e" y="300.7"/>
      </g>
     </g>
     <g id="text_2">
      <!-- $\mathdefault{10^{1}}$ -->
      <g transform="translate(204.270263 315.298437)scale(0.1 -0.1)">
       <use transform="translate(0 0.684375)" xlink:href="#DejaVuSans-49"/>
       <use transform="translate(63.623047 0.684375)" xlink:href="#DejaVuSans-48"/>
       <use transform="translate(128.203125 38.965625)scale(0.7)" xlink:href="#DejaVuSans-49"/>
      </g>
     </g>
    </g>
    <g id="xtick_3">
     <g id="line2d_3">
      <g>
       <use style="stroke:#000000;stroke-width:0.8;" x="363.384843" xlink:href="#ma77b62228e" y="300.7"/>
      </g>
     </g>
     <g id="text_3">
      <!-- $\mathdefault{10^{2}}$ -->
      <defs>
       <path d="M 19.1875 8.296875 
L 53.609375 8.296875 
L 53.609375 0 
L 7.328125 0 
L 7.328125 8.296875 
Q 12.9375 14.109375 22.625 23.890625 
Q 32.328125 33.6875 34.8125 36.53125 
Q 39.546875 41.84375 41.421875 45.53125 
Q 43.3125 49.21875 43.3125 52.78125 
Q 43.3125 58.59375 39.234375 62.25 
Q 35.15625 65.921875 28.609375 65.921875 
Q 23.96875 65.921875 18.8125 64.3125 
Q 13.671875 62.703125 7.8125 59.421875 
L 7.8125 69.390625 
Q 13.765625 71.78125 18.9375 73 
Q 24.125 74.21875 28.421875 74.21875 
Q 39.75 74.21875 46.484375 68.546875 
Q 53.21875 62.890625 53.21875 53.421875 
Q 53.21875 48.921875 51.53125 44.890625 
Q 49.859375 40.875 45.40625 35.40625 
Q 44.1875 33.984375 37.640625 27.21875 
Q 31.109375 20.453125 19.1875 8.296875 
z
" id="DejaVuSans-50"/>
      </defs>
      <g transform="translate(354.584843 315.298437)scale(0.1 -0.1)">
       <use transform="translate(0 0.765625)" xlink:href="#DejaVuSans-49"/>
       <use transform="translate(63.623047 0.765625)" xlink:href="#DejaVuSans-48"/>
       <use transform="translate(128.203125 39.046875)scale(0.7)" xlink:href="#DejaVuSans-50"/>
      </g>
     </g>
    </g>
    <g id="xtick_4">
     <g id="line2d_4">
      <defs>
       <path d="M 0 0 
L 0 2 
" id="m20fecf3c23" style="stroke:#000000;stroke-width:0.6;"/>
      </defs>
      <g>
       <use style="stroke:#000000;stroke-width:0.6;" x="48.188694" xlink:href="#m20fecf3c23" y="300.7"/>
      </g>
     </g>
    </g>
    <g id="xtick_5">
     <g id="line2d_5">
      <g>
       <use style="stroke:#000000;stroke-width:0.6;" x="55.877664" xlink:href="#m20fecf3c23" y="300.7"/>
      </g>
     </g>
    </g>
    <g id="xtick_6">
     <g id="line2d_6">
      <g>
       <use style="stroke:#000000;stroke-width:0.6;" x="108.004879" xlink:href="#m20fecf3c23" y="300.7"/>
      </g>
     </g>
    </g>
    <g id="xtick_7">
     <g id="line2d_7">
      <g>
       <use style="stroke:#000000;stroke-width:0.6;" x="134.473963" xlink:href="#m20fecf3c23" y="300.7"/>
      </g>
     </g>
    </g>
    <g id="xtick_8">
     <g id="line2d_8">
      <g>
       <use style="stroke:#000000;stroke-width:0.6;" x="153.254077" xlink:href="#m20fecf3c23" y="300.7"/>
      </g>
     </g>
    </g>
    <g id="xtick_9">
     <g id="line2d_9">
      <g>
       <use style="stroke:#000000;stroke-width:0.6;" x="167.821065" xlink:href="#m20fecf3c23" y="300.7"/>
      </g>
     </g>
    </g>
    <g id="xtick_10">
     <g id="line2d_10">
      <g>
       <use style="stroke:#000000;stroke-width:0.6;" x="179.723161" xlink:href="#m20fecf3c23" y="300.7"/>
      </g>
     </g>
    </g>
    <g id="xtick_11">
     <g id="line2d_11">
      <g>
       <use style="stroke:#000000;stroke-width:0.6;" x="189.786239" xlink:href="#m20fecf3c23" y="300.7"/>
      </g>
     </g>
    </g>
    <g id="xtick_12">
     <g id="line2d_12">
      <g>
       <use style="stroke:#000000;stroke-width:0.6;" x="198.503275" xlink:href="#m20fecf3c23" y="300.7"/>
      </g>
     </g>
    </g>
    <g id="xtick_13">
     <g id="line2d_13">
      <g>
       <use style="stroke:#000000;stroke-width:0.6;" x="206.192245" xlink:href="#m20fecf3c23" y="300.7"/>
      </g>
     </g>
    </g>
    <g id="xtick_14">
     <g id="line2d_14">
      <g>
       <use style="stroke:#000000;stroke-width:0.6;" x="258.31946" xlink:href="#m20fecf3c23" y="300.7"/>
      </g>
     </g>
    </g>
    <g id="xtick_15">
     <g id="line2d_15">
      <g>
       <use style="stroke:#000000;stroke-width:0.6;" x="284.788544" xlink:href="#m20fecf3c23" y="300.7"/>
      </g>
     </g>
    </g>
    <g id="xtick_16">
     <g id="line2d_16">
      <g>
       <use style="stroke:#000000;stroke-width:0.6;" x="303.568658" xlink:href="#m20fecf3c23" y="300.7"/>
      </g>
     </g>
    </g>
    <g id="xtick_17">
     <g id="line2d_17">
      <g>
       <use style="stroke:#000000;stroke-width:0.6;" x="318.135646" xlink:href="#m20fecf3c23" y="300.7"/>
      </g>
     </g>
    </g>
    <g id="xtick_18">
     <g id="line2d_18">
      <g>
       <use style="stroke:#000000;stroke-width:0.6;" x="330.037742" xlink:href="#m20fecf3c23" y="300.7"/>
      </g>
     </g>
    </g>
    <g id="xtick_19">
     <g id="line2d_19">
      <g>
       <use style="stroke:#000000;stroke-width:0.6;" x="340.10082" xlink:href="#m20fecf3c23" y="300.7"/>
      </g>
     </g>
    </g>
    <g id="xtick_20">
     <g id="line2d_20">
      <g>
       <use style="stroke:#000000;stroke-width:0.6;" x="348.817855" xlink:href="#m20fecf3c23" y="300.7"/>
      </g>
     </g>
    </g>
    <g id="xtick_21">
     <g id="line2d_21">
      <g>
       <use style="stroke:#000000;stroke-width:0.6;" x="356.506825" xlink:href="#m20fecf3c23" y="300.7"/>
      </g>
     </g>
    </g>
    <g id="xtick_22">
     <g id="line2d_22">
      <g>
       <use style="stroke:#000000;stroke-width:0.6;" x="408.634041" xlink:href="#m20fecf3c23" y="300.7"/>
      </g>
     </g>
    </g>
    <g id="text_4">
     <!-- sample frequency -->
     <defs>
      <path d="M 44.28125 53.078125 
L 44.28125 44.578125 
Q 40.484375 46.53125 36.375 47.5 
Q 32.28125 48.484375 27.875 48.484375 
Q 21.1875 48.484375 17.84375 46.4375 
Q 14.5 44.390625 14.5 40.28125 
Q 14.5 37.15625 16.890625 35.375 
Q 19.28125 33.59375 26.515625 31.984375 
L 29.59375 31.296875 
Q 39.15625 29.25 43.1875 25.515625 
Q 47.21875 21.78125 47.21875 15.09375 
Q 47.21875 7.46875 41.1875 3.015625 
Q 35.15625 -1.421875 24.609375 -1.421875 
Q 20.21875 -1.421875 15.453125 -0.5625 
Q 10.6875 0.296875 5.421875 2 
L 5.421875 11.28125 
Q 10.40625 8.6875 15.234375 7.390625 
Q 20.0625 6.109375 24.8125 6.109375 
Q 31.15625 6.109375 34.5625 8.28125 
Q 37.984375 10.453125 37.984375 14.40625 
Q 37.984375 18.0625 35.515625 20.015625 
Q 33.0625 21.96875 24.703125 23.78125 
L 21.578125 24.515625 
Q 13.234375 26.265625 9.515625 29.90625 
Q 5.8125 33.546875 5.8125 39.890625 
Q 5.8125 47.609375 11.28125 51.796875 
Q 16.75 56 26.8125 56 
Q 31.78125 56 36.171875 55.265625 
Q 40.578125 54.546875 44.28125 53.078125 
z
" id="DejaVuSans-115"/>
      <path d="M 34.28125 27.484375 
Q 23.390625 27.484375 19.1875 25 
Q 14.984375 22.515625 14.984375 16.5 
Q 14.984375 11.71875 18.140625 8.90625 
Q 21.296875 6.109375 26.703125 6.109375 
Q 34.1875 6.109375 38.703125 11.40625 
Q 43.21875 16.703125 43.21875 25.484375 
L 43.21875 27.484375 
z
M 52.203125 31.203125 
L 52.203125 0 
L 43.21875 0 
L 43.21875 8.296875 
Q 40.140625 3.328125 35.546875 0.953125 
Q 30.953125 -1.421875 24.3125 -1.421875 
Q 15.921875 -1.421875 10.953125 3.296875 
Q 6 8.015625 6 15.921875 
Q 6 25.140625 12.171875 29.828125 
Q 18.359375 34.515625 30.609375 34.515625 
L 43.21875 34.515625 
L 43.21875 35.40625 
Q 43.21875 41.609375 39.140625 45 
Q 35.0625 48.390625 27.6875 48.390625 
Q 23 48.390625 18.546875 47.265625 
Q 14.109375 46.140625 10.015625 43.890625 
L 10.015625 52.203125 
Q 14.9375 54.109375 19.578125 55.046875 
Q 24.21875 56 28.609375 56 
Q 40.484375 56 46.34375 49.84375 
Q 52.203125 43.703125 52.203125 31.203125 
z
" id="DejaVuSans-97"/>
      <path d="M 52 44.1875 
Q 55.375 50.25 60.0625 53.125 
Q 64.75 56 71.09375 56 
Q 79.640625 56 84.28125 50.015625 
Q 88.921875 44.046875 88.921875 33.015625 
L 88.921875 0 
L 79.890625 0 
L 79.890625 32.71875 
Q 79.890625 40.578125 77.09375 44.375 
Q 74.3125 48.1875 68.609375 48.1875 
Q 61.625 48.1875 57.5625 43.546875 
Q 53.515625 38.921875 53.515625 30.90625 
L 53.515625 0 
L 44.484375 0 
L 44.484375 32.71875 
Q 44.484375 40.625 41.703125 44.40625 
Q 38.921875 48.1875 33.109375 48.1875 
Q 26.21875 48.1875 22.15625 43.53125 
Q 18.109375 38.875 18.109375 30.90625 
L 18.109375 0 
L 9.078125 0 
L 9.078125 54.6875 
L 18.109375 54.6875 
L 18.109375 46.1875 
Q 21.1875 51.21875 25.484375 53.609375 
Q 29.78125 56 35.6875 56 
Q 41.65625 56 45.828125 52.96875 
Q 50 49.953125 52 44.1875 
z
" id="DejaVuSans-109"/>
      <path d="M 18.109375 8.203125 
L 18.109375 -20.796875 
L 9.078125 -20.796875 
L 9.078125 54.6875 
L 18.109375 54.6875 
L 18.109375 46.390625 
Q 20.953125 51.265625 25.265625 53.625 
Q 29.59375 56 35.59375 56 
Q 45.5625 56 51.78125 48.09375 
Q 58.015625 40.1875 58.015625 27.296875 
Q 58.015625 14.40625 51.78125 6.484375 
Q 45.5625 -1.421875 35.59375 -1.421875 
Q 29.59375 -1.421875 25.265625 0.953125 
Q 20.953125 3.328125 18.109375 8.203125 
z
M 48.6875 27.296875 
Q 48.6875 37.203125 44.609375 42.84375 
Q 40.53125 48.484375 33.40625 48.484375 
Q 26.265625 48.484375 22.1875 42.84375 
Q 18.109375 37.203125 18.109375 27.296875 
Q 18.109375 17.390625 22.1875 11.75 
Q 26.265625 6.109375 33.40625 6.109375 
Q 40.53125 6.109375 44.609375 11.75 
Q 48.6875 17.390625 48.6875 27.296875 
z
" id="DejaVuSans-112"/>
      <path d="M 9.421875 75.984375 
L 18.40625 75.984375 
L 18.40625 0 
L 9.421875 0 
z
" id="DejaVuSans-108"/>
      <path d="M 56.203125 29.59375 
L 56.203125 25.203125 
L 14.890625 25.203125 
Q 15.484375 15.921875 20.484375 11.0625 
Q 25.484375 6.203125 34.421875 6.203125 
Q 39.59375 6.203125 44.453125 7.46875 
Q 49.3125 8.734375 54.109375 11.28125 
L 54.109375 2.78125 
Q 49.265625 0.734375 44.1875 -0.34375 
Q 39.109375 -1.421875 33.890625 -1.421875 
Q 20.796875 -1.421875 13.15625 6.1875 
Q 5.515625 13.8125 5.515625 26.8125 
Q 5.515625 40.234375 12.765625 48.109375 
Q 20.015625 56 32.328125 56 
Q 43.359375 56 49.78125 48.890625 
Q 56.203125 41.796875 56.203125 29.59375 
z
M 47.21875 32.234375 
Q 47.125 39.59375 43.09375 43.984375 
Q 39.0625 48.390625 32.421875 48.390625 
Q 24.90625 48.390625 20.390625 44.140625 
Q 15.875 39.890625 15.1875 32.171875 
z
" id="DejaVuSans-101"/>
      <path id="DejaVuSans-32"/>
      <path d="M 37.109375 75.984375 
L 37.109375 68.5 
L 28.515625 68.5 
Q 23.6875 68.5 21.796875 66.546875 
Q 19.921875 64.59375 19.921875 59.515625 
L 19.921875 54.6875 
L 34.71875 54.6875 
L 34.71875 47.703125 
L 19.921875 47.703125 
L 19.921875 0 
L 10.890625 0 
L 10.890625 47.703125 
L 2.296875 47.703125 
L 2.296875 54.6875 
L 10.890625 54.6875 
L 10.890625 58.5 
Q 10.890625 67.625 15.140625 71.796875 
Q 19.390625 75.984375 28.609375 75.984375 
z
" id="DejaVuSans-102"/>
      <path d="M 41.109375 46.296875 
Q 39.59375 47.171875 37.8125 47.578125 
Q 36.03125 48 33.890625 48 
Q 26.265625 48 22.1875 43.046875 
Q 18.109375 38.09375 18.109375 28.8125 
L 18.109375 0 
L 9.078125 0 
L 9.078125 54.6875 
L 18.109375 54.6875 
L 18.109375 46.1875 
Q 20.953125 51.171875 25.484375 53.578125 
Q 30.03125 56 36.53125 56 
Q 37.453125 56 38.578125 55.875 
Q 39.703125 55.765625 41.0625 55.515625 
z
" id="DejaVuSans-114"/>
      <path d="M 14.796875 27.296875 
Q 14.796875 17.390625 18.875 11.75 
Q 22.953125 6.109375 30.078125 6.109375 
Q 37.203125 6.109375 41.296875 11.75 
Q 45.40625 17.390625 45.40625 27.296875 
Q 45.40625 37.203125 41.296875 42.84375 
Q 37.203125 48.484375 30.078125 48.484375 
Q 22.953125 48.484375 18.875 42.84375 
Q 14.796875 37.203125 14.796875 27.296875 
z
M 45.40625 8.203125 
Q 42.578125 3.328125 38.25 0.953125 
Q 33.9375 -1.421875 27.875 -1.421875 
Q 17.96875 -1.421875 11.734375 6.484375 
Q 5.515625 14.40625 5.515625 27.296875 
Q 5.515625 40.1875 11.734375 48.09375 
Q 17.96875 56 27.875 56 
Q 33.9375 56 38.25 53.625 
Q 42.578125 51.265625 45.40625 46.390625 
L 45.40625 54.6875 
L 54.390625 54.6875 
L 54.390625 -20.796875 
L 45.40625 -20.796875 
z
" id="DejaVuSans-113"/>
      <path d="M 8.5 21.578125 
L 8.5 54.6875 
L 17.484375 54.6875 
L 17.484375 21.921875 
Q 17.484375 14.15625 20.5 10.265625 
Q 23.53125 6.390625 29.59375 6.390625 
Q 36.859375 6.390625 41.078125 11.03125 
Q 45.3125 15.671875 45.3125 23.6875 
L 45.3125 54.6875 
L 54.296875 54.6875 
L 54.296875 0 
L 45.3125 0 
L 45.3125 8.40625 
Q 42.046875 3.421875 37.71875 1 
Q 33.40625 -1.421875 27.6875 -1.421875 
Q 18.265625 -1.421875 13.375 4.4375 
Q 8.5 10.296875 8.5 21.578125 
z
M 31.109375 56 
z
" id="DejaVuSans-117"/>
      <path d="M 54.890625 33.015625 
L 54.890625 0 
L 45.90625 0 
L 45.90625 32.71875 
Q 45.90625 40.484375 42.875 44.328125 
Q 39.84375 48.1875 33.796875 48.1875 
Q 26.515625 48.1875 22.3125 43.546875 
Q 18.109375 38.921875 18.109375 30.90625 
L 18.109375 0 
L 9.078125 0 
L 9.078125 54.6875 
L 18.109375 54.6875 
L 18.109375 46.1875 
Q 21.34375 51.125 25.703125 53.5625 
Q 30.078125 56 35.796875 56 
Q 45.21875 56 50.046875 50.171875 
Q 54.890625 44.34375 54.890625 33.015625 
z
" id="DejaVuSans-110"/>
      <path d="M 48.78125 52.59375 
L 48.78125 44.1875 
Q 44.96875 46.296875 41.140625 47.34375 
Q 37.3125 48.390625 33.40625 48.390625 
Q 24.65625 48.390625 19.8125 42.84375 
Q 14.984375 37.3125 14.984375 27.296875 
Q 14.984375 17.28125 19.8125 11.734375 
Q 24.65625 6.203125 33.40625 6.203125 
Q 37.3125 6.203125 41.140625 7.25 
Q 44.96875 8.296875 48.78125 10.40625 
L 48.78125 2.09375 
Q 45.015625 0.34375 40.984375 -0.53125 
Q 36.96875 -1.421875 32.421875 -1.421875 
Q 20.0625 -1.421875 12.78125 6.34375 
Q 5.515625 14.109375 5.515625 27.296875 
Q 5.515625 40.671875 12.859375 48.328125 
Q 20.21875 56 33.015625 56 
Q 37.15625 56 41.109375 55.140625 
Q 45.0625 54.296875 48.78125 52.59375 
z
" id="DejaVuSans-99"/>
      <path d="M 32.171875 -5.078125 
Q 28.375 -14.84375 24.75 -17.8125 
Q 21.140625 -20.796875 15.09375 -20.796875 
L 7.90625 -20.796875 
L 7.90625 -13.28125 
L 13.1875 -13.28125 
Q 16.890625 -13.28125 18.9375 -11.515625 
Q 21 -9.765625 23.484375 -3.21875 
L 25.09375 0.875 
L 2.984375 54.6875 
L 12.5 54.6875 
L 29.59375 11.921875 
L 46.6875 54.6875 
L 56.203125 54.6875 
z
" id="DejaVuSans-121"/>
     </defs>
     <g transform="translate(190.686719 328.976562)scale(0.1 -0.1)">
      <use xlink:href="#DejaVuSans-115"/>
      <use x="52.099609" xlink:href="#DejaVuSans-97"/>
      <use x="113.378906" xlink:href="#DejaVuSans-109"/>
      <use x="210.791016" xlink:href="#DejaVuSans-112"/>
      <use x="274.267578" xlink:href="#DejaVuSans-108"/>
      <use x="302.050781" xlink:href="#DejaVuSans-101"/>
      <use x="363.574219" xlink:href="#DejaVuSans-32"/>
      <use x="395.361328" xlink:href="#DejaVuSans-102"/>
      <use x="430.566406" xlink:href="#DejaVuSans-114"/>
      <use x="469.429688" xlink:href="#DejaVuSans-101"/>
      <use x="530.953125" xlink:href="#DejaVuSans-113"/>
      <use x="594.429688" xlink:href="#DejaVuSans-117"/>
      <use x="657.808594" xlink:href="#DejaVuSans-101"/>
      <use x="719.332031" xlink:href="#DejaVuSans-110"/>
      <use x="782.710938" xlink:href="#DejaVuSans-99"/>
      <use x="837.691406" xlink:href="#DejaVuSans-121"/>
     </g>
    </g>
   </g>
   <g id="matplotlib.axis_2">
    <g id="ytick_1">
     <g id="line2d_23">
      <defs>
       <path d="M 0 0 
L -3.5 0 
" id="m50adc323dc" style="stroke:#000000;stroke-width:0.8;"/>
      </defs>
      <g>
       <use style="stroke:#000000;stroke-width:0.8;" x="45.478125" xlink:href="#m50adc323dc" y="258.766601"/>
      </g>
     </g>
     <g id="text_5">
      <!-- $\mathdefault{10^{4}}$ -->
      <defs>
       <path d="M 37.796875 64.3125 
L 12.890625 25.390625 
L 37.796875 25.390625 
z
M 35.203125 72.90625 
L 47.609375 72.90625 
L 47.609375 25.390625 
L 58.015625 25.390625 
L 58.015625 17.1875 
L 47.609375 17.1875 
L 47.609375 0 
L 37.796875 0 
L 37.796875 17.1875 
L 4.890625 17.1875 
L 4.890625 26.703125 
z
" id="DejaVuSans-52"/>
      </defs>
      <g transform="translate(20.878125 262.56582)scale(0.1 -0.1)">
       <use transform="translate(0 0.684375)" xlink:href="#DejaVuSans-49"/>
       <use transform="translate(63.623047 0.684375)" xlink:href="#DejaVuSans-48"/>
       <use transform="translate(128.203125 38.965625)scale(0.7)" xlink:href="#DejaVuSans-52"/>
      </g>
     </g>
    </g>
    <g id="ytick_2">
     <g id="line2d_24">
      <g>
       <use style="stroke:#000000;stroke-width:0.8;" x="45.478125" xlink:href="#m50adc323dc" y="120.015253"/>
      </g>
     </g>
     <g id="text_6">
      <!-- $\mathdefault{10^{5}}$ -->
      <defs>
       <path d="M 10.796875 72.90625 
L 49.515625 72.90625 
L 49.515625 64.59375 
L 19.828125 64.59375 
L 19.828125 46.734375 
Q 21.96875 47.46875 24.109375 47.828125 
Q 26.265625 48.1875 28.421875 48.1875 
Q 40.625 48.1875 47.75 41.5 
Q 54.890625 34.8125 54.890625 23.390625 
Q 54.890625 11.625 47.5625 5.09375 
Q 40.234375 -1.421875 26.90625 -1.421875 
Q 22.3125 -1.421875 17.546875 -0.640625 
Q 12.796875 0.140625 7.71875 1.703125 
L 7.71875 11.625 
Q 12.109375 9.234375 16.796875 8.0625 
Q 21.484375 6.890625 26.703125 6.890625 
Q 35.15625 6.890625 40.078125 11.328125 
Q 45.015625 15.765625 45.015625 23.390625 
Q 45.015625 31 40.078125 35.4375 
Q 35.15625 39.890625 26.703125 39.890625 
Q 22.75 39.890625 18.8125 39.015625 
Q 14.890625 38.140625 10.796875 36.28125 
z
" id="DejaVuSans-53"/>
      </defs>
      <g transform="translate(20.878125 123.814472)scale(0.1 -0.1)">
       <use transform="translate(0 0.684375)" xlink:href="#DejaVuSans-49"/>
       <use transform="translate(63.623047 0.684375)" xlink:href="#DejaVuSans-48"/>
       <use transform="translate(128.203125 38.965625)scale(0.7)" xlink:href="#DejaVuSans-53"/>
      </g>
     </g>
    </g>
    <g id="ytick_3">
     <g id="line2d_25">
      <defs>
       <path d="M 0 0 
L -2 0 
" id="mb5460cd856" style="stroke:#000000;stroke-width:0.6;"/>
      </defs>
      <g>
       <use style="stroke:#000000;stroke-width:0.6;" x="45.478125" xlink:href="#mb5460cd856" y="300.534919"/>
      </g>
     </g>
    </g>
    <g id="ytick_4">
     <g id="line2d_26">
      <g>
       <use style="stroke:#000000;stroke-width:0.6;" x="45.478125" xlink:href="#mb5460cd856" y="289.548415"/>
      </g>
     </g>
    </g>
    <g id="ytick_5">
     <g id="line2d_27">
      <g>
       <use style="stroke:#000000;stroke-width:0.6;" x="45.478125" xlink:href="#mb5460cd856" y="280.259457"/>
      </g>
     </g>
    </g>
    <g id="ytick_6">
     <g id="line2d_28">
      <g>
       <use style="stroke:#000000;stroke-width:0.6;" x="45.478125" xlink:href="#mb5460cd856" y="272.212996"/>
      </g>
     </g>
    </g>
    <g id="ytick_7">
     <g id="line2d_29">
      <g>
       <use style="stroke:#000000;stroke-width:0.6;" x="45.478125" xlink:href="#mb5460cd856" y="265.115515"/>
      </g>
     </g>
    </g>
    <g id="ytick_8">
     <g id="line2d_30">
      <g>
       <use style="stroke:#000000;stroke-width:0.6;" x="45.478125" xlink:href="#mb5460cd856" y="216.998284"/>
      </g>
     </g>
    </g>
    <g id="ytick_9">
     <g id="line2d_31">
      <g>
       <use style="stroke:#000000;stroke-width:0.6;" x="45.478125" xlink:href="#mb5460cd856" y="192.565384"/>
      </g>
     </g>
    </g>
    <g id="ytick_10">
     <g id="line2d_32">
      <g>
       <use style="stroke:#000000;stroke-width:0.6;" x="45.478125" xlink:href="#mb5460cd856" y="175.229966"/>
      </g>
     </g>
    </g>
    <g id="ytick_11">
     <g id="line2d_33">
      <g>
       <use style="stroke:#000000;stroke-width:0.6;" x="45.478125" xlink:href="#mb5460cd856" y="161.783571"/>
      </g>
     </g>
    </g>
    <g id="ytick_12">
     <g id="line2d_34">
      <g>
       <use style="stroke:#000000;stroke-width:0.6;" x="45.478125" xlink:href="#mb5460cd856" y="150.797066"/>
      </g>
     </g>
    </g>
    <g id="ytick_13">
     <g id="line2d_35">
      <g>
       <use style="stroke:#000000;stroke-width:0.6;" x="45.478125" xlink:href="#mb5460cd856" y="141.508109"/>
      </g>
     </g>
    </g>
    <g id="ytick_14">
     <g id="line2d_36">
      <g>
       <use style="stroke:#000000;stroke-width:0.6;" x="45.478125" xlink:href="#mb5460cd856" y="133.461648"/>
      </g>
     </g>
    </g>
    <g id="ytick_15">
     <g id="line2d_37">
      <g>
       <use style="stroke:#000000;stroke-width:0.6;" x="45.478125" xlink:href="#mb5460cd856" y="126.364166"/>
      </g>
     </g>
    </g>
    <g id="ytick_16">
     <g id="line2d_38">
      <g>
       <use style="stroke:#000000;stroke-width:0.6;" x="45.478125" xlink:href="#mb5460cd856" y="78.246935"/>
      </g>
     </g>
    </g>
    <g id="ytick_17">
     <g id="line2d_39">
      <g>
       <use style="stroke:#000000;stroke-width:0.6;" x="45.478125" xlink:href="#mb5460cd856" y="53.814035"/>
      </g>
     </g>
    </g>
    <g id="ytick_18">
     <g id="line2d_40">
      <g>
       <use style="stroke:#000000;stroke-width:0.6;" x="45.478125" xlink:href="#mb5460cd856" y="36.478617"/>
      </g>
     </g>
    </g>
    <g id="ytick_19">
     <g id="line2d_41">
      <g>
       <use style="stroke:#000000;stroke-width:0.6;" x="45.478125" xlink:href="#mb5460cd856" y="23.032222"/>
      </g>
     </g>
    </g>
    <g id="ytick_20">
     <g id="line2d_42">
      <g>
       <use style="stroke:#000000;stroke-width:0.6;" x="45.478125" xlink:href="#mb5460cd856" y="12.045718"/>
      </g>
     </g>
    </g>
    <g id="text_7">
     <!-- variant count -->
     <defs>
      <path d="M 2.984375 54.6875 
L 12.5 54.6875 
L 29.59375 8.796875 
L 46.6875 54.6875 
L 56.203125 54.6875 
L 35.6875 0 
L 23.484375 0 
z
" id="DejaVuSans-118"/>
      <path d="M 9.421875 54.6875 
L 18.40625 54.6875 
L 18.40625 0 
L 9.421875 0 
z
M 9.421875 75.984375 
L 18.40625 75.984375 
L 18.40625 64.59375 
L 9.421875 64.59375 
z
" id="DejaVuSans-105"/>
      <path d="M 18.3125 70.21875 
L 18.3125 54.6875 
L 36.8125 54.6875 
L 36.8125 47.703125 
L 18.3125 47.703125 
L 18.3125 18.015625 
Q 18.3125 11.328125 20.140625 9.421875 
Q 21.96875 7.515625 27.59375 7.515625 
L 36.8125 7.515625 
L 36.8125 0 
L 27.59375 0 
Q 17.1875 0 13.234375 3.875 
Q 9.28125 7.765625 9.28125 18.015625 
L 9.28125 47.703125 
L 2.6875 47.703125 
L 2.6875 54.6875 
L 9.28125 54.6875 
L 9.28125 70.21875 
z
" id="DejaVuSans-116"/>
      <path d="M 30.609375 48.390625 
Q 23.390625 48.390625 19.1875 42.75 
Q 14.984375 37.109375 14.984375 27.296875 
Q 14.984375 17.484375 19.15625 11.84375 
Q 23.34375 6.203125 30.609375 6.203125 
Q 37.796875 6.203125 41.984375 11.859375 
Q 46.1875 17.53125 46.1875 27.296875 
Q 46.1875 37.015625 41.984375 42.703125 
Q 37.796875 48.390625 30.609375 48.390625 
z
M 30.609375 56 
Q 42.328125 56 49.015625 48.375 
Q 55.71875 40.765625 55.71875 27.296875 
Q 55.71875 13.875 49.015625 6.21875 
Q 42.328125 -1.421875 30.609375 -1.421875 
Q 18.84375 -1.421875 12.171875 6.21875 
Q 5.515625 13.875 5.515625 27.296875 
Q 5.515625 40.765625 12.171875 48.375 
Q 18.84375 56 30.609375 56 
z
" id="DejaVuSans-111"/>
     </defs>
     <g transform="translate(14.798438 187.30625)rotate(-90)scale(0.1 -0.1)">
      <use xlink:href="#DejaVuSans-118"/>
      <use x="59.179688" xlink:href="#DejaVuSans-97"/>
      <use x="120.458984" xlink:href="#DejaVuSans-114"/>
      <use x="161.572266" xlink:href="#DejaVuSans-105"/>
      <use x="189.355469" xlink:href="#DejaVuSans-97"/>
      <use x="250.634766" xlink:href="#DejaVuSans-110"/>
      <use x="314.013672" xlink:href="#DejaVuSans-116"/>
      <use x="353.222656" xlink:href="#DejaVuSans-32"/>
      <use x="385.009766" xlink:href="#DejaVuSans-99"/>
      <use x="439.990234" xlink:href="#DejaVuSans-111"/>
      <use x="501.171875" xlink:href="#DejaVuSans-117"/>
      <use x="564.550781" xlink:href="#DejaVuSans-110"/>
      <use x="627.929688" xlink:href="#DejaVuSans-116"/>
     </g>
    </g>
   </g>
   <g id="line2d_43">
    <defs>
     <path d="M 0 1.5 
C 0.397805 1.5 0.77937 1.341951 1.06066 1.06066 
C 1.341951 0.77937 1.5 0.397805 1.5 0 
C 1.5 -0.397805 1.341951 -0.77937 1.06066 -1.06066 
C 0.77937 -1.341951 0.397805 -1.5 0 -1.5 
C -0.397805 -1.5 -0.77937 -1.341951 -1.06066 -1.06066 
C -1.341951 -0.77937 -1.5 -0.397805 -1.5 0 
C -1.5 0.397805 -1.341951 0.77937 -1.06066 1.06066 
C -0.77937 1.341951 -0.397805 1.5 0 1.5 
z
" id="m58b1efa89b" style="stroke:#1f77b4;"/>
    </defs>
    <g clip-path="url(#pdcf98e55bc)">
     <use style="fill:#1f77b4;stroke:#1f77b4;" x="62.755682" xlink:href="#m58b1efa89b" y="20.540909"/>
     <use style="fill:#1f77b4;stroke:#1f77b4;" x="108.004879" xlink:href="#m58b1efa89b" y="72.315492"/>
     <use style="fill:#1f77b4;stroke:#1f77b4;" x="134.473963" xlink:href="#m58b1efa89b" y="93.972245"/>
     <use style="fill:#1f77b4;stroke:#1f77b4;" x="153.254077" xlink:href="#m58b1efa89b" y="105.74725"/>
     <use style="fill:#1f77b4;stroke:#1f77b4;" x="167.821065" xlink:href="#m58b1efa89b" y="113.913122"/>
     <use style="fill:#1f77b4;stroke:#1f77b4;" x="179.723161" xlink:href="#m58b1efa89b" y="120.468898"/>
     <use style="fill:#1f77b4;stroke:#1f77b4;" x="189.786239" xlink:href="#m58b1efa89b" y="125.746674"/>
     <use style="fill:#1f77b4;stroke:#1f77b4;" x="198.503275" xlink:href="#m58b1efa89b" y="130.701933"/>
     <use style="fill:#1f77b4;stroke:#1f77b4;" x="206.192245" xlink:href="#m58b1efa89b" y="134.837584"/>
     <use style="fill:#1f77b4;stroke:#1f77b4;" x="213.070263" xlink:href="#m58b1efa89b" y="138.341393"/>
     <use style="fill:#1f77b4;stroke:#1f77b4;" x="219.292187" xlink:href="#m58b1efa89b" y="142.660535"/>
     <use style="fill:#1f77b4;stroke:#1f77b4;" x="224.972358" xlink:href="#m58b1efa89b" y="145.947825"/>
     <use style="fill:#1f77b4;stroke:#1f77b4;" x="230.19761" xlink:href="#m58b1efa89b" y="149.291481"/>
     <use style="fill:#1f77b4;stroke:#1f77b4;" x="235.035437" xlink:href="#m58b1efa89b" y="151.364152"/>
     <use style="fill:#1f77b4;stroke:#1f77b4;" x="239.539346" xlink:href="#m58b1efa89b" y="154.773998"/>
     <use style="fill:#1f77b4;stroke:#1f77b4;" x="243.752472" xlink:href="#m58b1efa89b" y="157.583886"/>
     <use style="fill:#1f77b4;stroke:#1f77b4;" x="247.710096" xlink:href="#m58b1efa89b" y="160.602102"/>
     <use style="fill:#1f77b4;stroke:#1f77b4;" x="251.441442" xlink:href="#m58b1efa89b" y="163.435408"/>
     <use style="fill:#1f77b4;stroke:#1f77b4;" x="254.970993" xlink:href="#m58b1efa89b" y="165.100687"/>
     <use style="fill:#1f77b4;stroke:#1f77b4;" x="258.31946" xlink:href="#m58b1efa89b" y="168.152574"/>
     <use style="fill:#1f77b4;stroke:#1f77b4;" x="261.504521" xlink:href="#m58b1efa89b" y="170.589585"/>
     <use style="fill:#1f77b4;stroke:#1f77b4;" x="264.541384" xlink:href="#m58b1efa89b" y="172.619376"/>
     <use style="fill:#1f77b4;stroke:#1f77b4;" x="267.443231" xlink:href="#m58b1efa89b" y="174.766254"/>
     <use style="fill:#1f77b4;stroke:#1f77b4;" x="270.221556" xlink:href="#m58b1efa89b" y="176.905652"/>
     <use style="fill:#1f77b4;stroke:#1f77b4;" x="272.886448" xlink:href="#m58b1efa89b" y="179.544712"/>
     <use style="fill:#1f77b4;stroke:#1f77b4;" x="275.446807" xlink:href="#m58b1efa89b" y="180.936209"/>
     <use style="fill:#1f77b4;stroke:#1f77b4;" x="277.910526" xlink:href="#m58b1efa89b" y="183.835113"/>
     <use style="fill:#1f77b4;stroke:#1f77b4;" x="280.284635" xlink:href="#m58b1efa89b" y="184.87803"/>
     <use style="fill:#1f77b4;stroke:#1f77b4;" x="282.575424" xlink:href="#m58b1efa89b" y="186.213458"/>
     <use style="fill:#1f77b4;stroke:#1f77b4;" x="284.788544" xlink:href="#m58b1efa89b" y="188.235451"/>
     <use style="fill:#1f77b4;stroke:#1f77b4;" x="286.92909" xlink:href="#m58b1efa89b" y="190.971705"/>
     <use style="fill:#1f77b4;stroke:#1f77b4;" x="289.00167" xlink:href="#m58b1efa89b" y="192.396895"/>
     <use style="fill:#1f77b4;stroke:#1f77b4;" x="291.010468" xlink:href="#m58b1efa89b" y="193.364063"/>
     <use style="fill:#1f77b4;stroke:#1f77b4;" x="292.959293" xlink:href="#m58b1efa89b" y="195.398864"/>
     <use style="fill:#1f77b4;stroke:#1f77b4;" x="294.851623" xlink:href="#m58b1efa89b" y="196.800347"/>
     <use style="fill:#1f77b4;stroke:#1f77b4;" x="296.69064" xlink:href="#m58b1efa89b" y="198.611533"/>
     <use style="fill:#1f77b4;stroke:#1f77b4;" x="298.479266" xlink:href="#m58b1efa89b" y="200.703738"/>
     <use style="fill:#1f77b4;stroke:#1f77b4;" x="300.220191" xlink:href="#m58b1efa89b" y="202.045128"/>
     <use style="fill:#1f77b4;stroke:#1f77b4;" x="301.915891" xlink:href="#m58b1efa89b" y="203.277732"/>
     <use style="fill:#1f77b4;stroke:#1f77b4;" x="303.568658" xlink:href="#m58b1efa89b" y="205.454458"/>
     <use style="fill:#1f77b4;stroke:#1f77b4;" x="305.180611" xlink:href="#m58b1efa89b" y="206.394633"/>
     <use style="fill:#1f77b4;stroke:#1f77b4;" x="306.753718" xlink:href="#m58b1efa89b" y="207.836866"/>
     <use style="fill:#1f77b4;stroke:#1f77b4;" x="308.289808" xlink:href="#m58b1efa89b" y="208.487364"/>
     <use style="fill:#1f77b4;stroke:#1f77b4;" x="309.790582" xlink:href="#m58b1efa89b" y="210.64455"/>
     <use style="fill:#1f77b4;stroke:#1f77b4;" x="311.257628" xlink:href="#m58b1efa89b" y="211.181084"/>
     <use style="fill:#1f77b4;stroke:#1f77b4;" x="312.692428" xlink:href="#m58b1efa89b" y="212.383015"/>
     <use style="fill:#1f77b4;stroke:#1f77b4;" x="314.09637" xlink:href="#m58b1efa89b" y="214.745074"/>
     <use style="fill:#1f77b4;stroke:#1f77b4;" x="315.470754" xlink:href="#m58b1efa89b" y="214.73927"/>
     <use style="fill:#1f77b4;stroke:#1f77b4;" x="316.816797" xlink:href="#m58b1efa89b" y="217.567397"/>
     <use style="fill:#1f77b4;stroke:#1f77b4;" x="318.135646" xlink:href="#m58b1efa89b" y="217.603906"/>
     <use style="fill:#1f77b4;stroke:#1f77b4;" x="319.428377" xlink:href="#m58b1efa89b" y="218.830617"/>
     <use style="fill:#1f77b4;stroke:#1f77b4;" x="320.696005" xlink:href="#m58b1efa89b" y="219.709777"/>
     <use style="fill:#1f77b4;stroke:#1f77b4;" x="321.939486" xlink:href="#m58b1efa89b" y="221.306557"/>
     <use style="fill:#1f77b4;stroke:#1f77b4;" x="323.159724" xlink:href="#m58b1efa89b" y="223.073308"/>
     <use style="fill:#1f77b4;stroke:#1f77b4;" x="324.35757" xlink:href="#m58b1efa89b" y="223.451066"/>
     <use style="fill:#1f77b4;stroke:#1f77b4;" x="325.533832" xlink:href="#m58b1efa89b" y="224.547513"/>
     <use style="fill:#1f77b4;stroke:#1f77b4;" x="326.689275" xlink:href="#m58b1efa89b" y="225.241337"/>
     <use style="fill:#1f77b4;stroke:#1f77b4;" x="327.824621" xlink:href="#m58b1efa89b" y="226.255111"/>
     <use style="fill:#1f77b4;stroke:#1f77b4;" x="328.94056" xlink:href="#m58b1efa89b" y="227.132753"/>
     <use style="fill:#1f77b4;stroke:#1f77b4;" x="330.037742" xlink:href="#m58b1efa89b" y="228.637906"/>
     <use style="fill:#1f77b4;stroke:#1f77b4;" x="331.116787" xlink:href="#m58b1efa89b" y="230.663514"/>
     <use style="fill:#1f77b4;stroke:#1f77b4;" x="332.178287" xlink:href="#m58b1efa89b" y="231.82755"/>
     <use style="fill:#1f77b4;stroke:#1f77b4;" x="333.222802" xlink:href="#m58b1efa89b" y="232.012808"/>
     <use style="fill:#1f77b4;stroke:#1f77b4;" x="334.250867" xlink:href="#m58b1efa89b" y="232.455092"/>
     <use style="fill:#1f77b4;stroke:#1f77b4;" x="335.262993" xlink:href="#m58b1efa89b" y="234.353791"/>
     <use style="fill:#1f77b4;stroke:#1f77b4;" x="336.259666" xlink:href="#m58b1efa89b" y="234.261434"/>
     <use style="fill:#1f77b4;stroke:#1f77b4;" x="337.24135" xlink:href="#m58b1efa89b" y="235.620823"/>
     <use style="fill:#1f77b4;stroke:#1f77b4;" x="338.208491" xlink:href="#m58b1efa89b" y="236.609748"/>
     <use style="fill:#1f77b4;stroke:#1f77b4;" x="339.161512" xlink:href="#m58b1efa89b" y="237.390762"/>
     <use style="fill:#1f77b4;stroke:#1f77b4;" x="340.10082" xlink:href="#m58b1efa89b" y="237.666101"/>
     <use style="fill:#1f77b4;stroke:#1f77b4;" x="341.026804" xlink:href="#m58b1efa89b" y="239.266561"/>
     <use style="fill:#1f77b4;stroke:#1f77b4;" x="341.939837" xlink:href="#m58b1efa89b" y="240.468741"/>
     <use style="fill:#1f77b4;stroke:#1f77b4;" x="342.840276" xlink:href="#m58b1efa89b" y="240.167047"/>
     <use style="fill:#1f77b4;stroke:#1f77b4;" x="343.728464" xlink:href="#m58b1efa89b" y="241.009344"/>
     <use style="fill:#1f77b4;stroke:#1f77b4;" x="344.604729" xlink:href="#m58b1efa89b" y="241.845377"/>
     <use style="fill:#1f77b4;stroke:#1f77b4;" x="345.469388" xlink:href="#m58b1efa89b" y="242.439877"/>
     <use style="fill:#1f77b4;stroke:#1f77b4;" x="346.322744" xlink:href="#m58b1efa89b" y="244.501452"/>
     <use style="fill:#1f77b4;stroke:#1f77b4;" x="347.165089" xlink:href="#m58b1efa89b" y="244.03719"/>
     <use style="fill:#1f77b4;stroke:#1f77b4;" x="347.996702" xlink:href="#m58b1efa89b" y="244.572829"/>
     <use style="fill:#1f77b4;stroke:#1f77b4;" x="348.817855" xlink:href="#m58b1efa89b" y="246.116036"/>
     <use style="fill:#1f77b4;stroke:#1f77b4;" x="349.628807" xlink:href="#m58b1efa89b" y="246.991865"/>
     <use style="fill:#1f77b4;stroke:#1f77b4;" x="350.429809" xlink:href="#m58b1efa89b" y="247.140739"/>
     <use style="fill:#1f77b4;stroke:#1f77b4;" x="351.221101" xlink:href="#m58b1efa89b" y="248.284359"/>
     <use style="fill:#1f77b4;stroke:#1f77b4;" x="352.002916" xlink:href="#m58b1efa89b" y="248.203393"/>
     <use style="fill:#1f77b4;stroke:#1f77b4;" x="352.775479" xlink:href="#m58b1efa89b" y="248.411086"/>
     <use style="fill:#1f77b4;stroke:#1f77b4;" x="353.539005" xlink:href="#m58b1efa89b" y="249.786616"/>
     <use style="fill:#1f77b4;stroke:#1f77b4;" x="354.293705" xlink:href="#m58b1efa89b" y="249.388183"/>
     <use style="fill:#1f77b4;stroke:#1f77b4;" x="355.039779" xlink:href="#m58b1efa89b" y="250.386628"/>
     <use style="fill:#1f77b4;stroke:#1f77b4;" x="355.777423" xlink:href="#m58b1efa89b" y="252.16393"/>
     <use style="fill:#1f77b4;stroke:#1f77b4;" x="356.506825" xlink:href="#m58b1efa89b" y="252.467121"/>
     <use style="fill:#1f77b4;stroke:#1f77b4;" x="357.228167" xlink:href="#m58b1efa89b" y="252.255809"/>
     <use style="fill:#1f77b4;stroke:#1f77b4;" x="357.941626" xlink:href="#m58b1efa89b" y="254.095542"/>
     <use style="fill:#1f77b4;stroke:#1f77b4;" x="358.647371" xlink:href="#m58b1efa89b" y="255.175844"/>
     <use style="fill:#1f77b4;stroke:#1f77b4;" x="359.345568" xlink:href="#m58b1efa89b" y="255.918451"/>
     <use style="fill:#1f77b4;stroke:#1f77b4;" x="360.036376" xlink:href="#m58b1efa89b" y="255.16449"/>
     <use style="fill:#1f77b4;stroke:#1f77b4;" x="360.719951" xlink:href="#m58b1efa89b" y="257.026386"/>
     <use style="fill:#1f77b4;stroke:#1f77b4;" x="361.396442" xlink:href="#m58b1efa89b" y="257.774515"/>
     <use style="fill:#1f77b4;stroke:#1f77b4;" x="362.065995" xlink:href="#m58b1efa89b" y="257.869429"/>
     <use style="fill:#1f77b4;stroke:#1f77b4;" x="362.728749" xlink:href="#m58b1efa89b" y="258.047798"/>
     <use style="fill:#1f77b4;stroke:#1f77b4;" x="363.384843" xlink:href="#m58b1efa89b" y="258.077578"/>
     <use style="fill:#1f77b4;stroke:#1f77b4;" x="364.034409" xlink:href="#m58b1efa89b" y="259.408756"/>
     <use style="fill:#1f77b4;stroke:#1f77b4;" x="364.677575" xlink:href="#m58b1efa89b" y="259.341798"/>
     <use style="fill:#1f77b4;stroke:#1f77b4;" x="365.314465" xlink:href="#m58b1efa89b" y="260.490324"/>
     <use style="fill:#1f77b4;stroke:#1f77b4;" x="365.945203" xlink:href="#m58b1efa89b" y="261.144946"/>
     <use style="fill:#1f77b4;stroke:#1f77b4;" x="366.569904" xlink:href="#m58b1efa89b" y="261.914596"/>
     <use style="fill:#1f77b4;stroke:#1f77b4;" x="367.188684" xlink:href="#m58b1efa89b" y="261.990833"/>
     <use style="fill:#1f77b4;stroke:#1f77b4;" x="367.801654" xlink:href="#m58b1efa89b" y="262.105369"/>
     <use style="fill:#1f77b4;stroke:#1f77b4;" x="368.408921" xlink:href="#m58b1efa89b" y="264.56234"/>
     <use style="fill:#1f77b4;stroke:#1f77b4;" x="369.010592" xlink:href="#m58b1efa89b" y="263.392865"/>
     <use style="fill:#1f77b4;stroke:#1f77b4;" x="369.606767" xlink:href="#m58b1efa89b" y="264.469532"/>
     <use style="fill:#1f77b4;stroke:#1f77b4;" x="370.197548" xlink:href="#m58b1efa89b" y="264.568975"/>
     <use style="fill:#1f77b4;stroke:#1f77b4;" x="370.78303" xlink:href="#m58b1efa89b" y="265.135605"/>
     <use style="fill:#1f77b4;stroke:#1f77b4;" x="371.363307" xlink:href="#m58b1efa89b" y="266.18279"/>
     <use style="fill:#1f77b4;stroke:#1f77b4;" x="371.938472" xlink:href="#m58b1efa89b" y="265.788806"/>
     <use style="fill:#1f77b4;stroke:#1f77b4;" x="372.508614" xlink:href="#m58b1efa89b" y="266.264627"/>
     <use style="fill:#1f77b4;stroke:#1f77b4;" x="373.073819" xlink:href="#m58b1efa89b" y="266.442321"/>
     <use style="fill:#1f77b4;stroke:#1f77b4;" x="373.634173" xlink:href="#m58b1efa89b" y="267.415207"/>
     <use style="fill:#1f77b4;stroke:#1f77b4;" x="374.189757" xlink:href="#m58b1efa89b" y="268.432348"/>
     <use style="fill:#1f77b4;stroke:#1f77b4;" x="374.740653" xlink:href="#m58b1efa89b" y="268.872559"/>
     <use style="fill:#1f77b4;stroke:#1f77b4;" x="375.286939" xlink:href="#m58b1efa89b" y="268.922463"/>
     <use style="fill:#1f77b4;stroke:#1f77b4;" x="375.828692" xlink:href="#m58b1efa89b" y="270.249267"/>
     <use style="fill:#1f77b4;stroke:#1f77b4;" x="376.365985" xlink:href="#m58b1efa89b" y="270.373339"/>
     <use style="fill:#1f77b4;stroke:#1f77b4;" x="376.898892" xlink:href="#m58b1efa89b" y="269.625492"/>
     <use style="fill:#1f77b4;stroke:#1f77b4;" x="377.427485" xlink:href="#m58b1efa89b" y="270.658944"/>
     <use style="fill:#1f77b4;stroke:#1f77b4;" x="377.951831" xlink:href="#m58b1efa89b" y="271.919948"/>
     <use style="fill:#1f77b4;stroke:#1f77b4;" x="378.472" xlink:href="#m58b1efa89b" y="271.800134"/>
     <use style="fill:#1f77b4;stroke:#1f77b4;" x="378.988056" xlink:href="#m58b1efa89b" y="272.145243"/>
     <use style="fill:#1f77b4;stroke:#1f77b4;" x="379.500065" xlink:href="#m58b1efa89b" y="272.674232"/>
     <use style="fill:#1f77b4;stroke:#1f77b4;" x="380.008089" xlink:href="#m58b1efa89b" y="273.001499"/>
     <use style="fill:#1f77b4;stroke:#1f77b4;" x="380.512191" xlink:href="#m58b1efa89b" y="273.862356"/>
     <use style="fill:#1f77b4;stroke:#1f77b4;" x="381.012429" xlink:href="#m58b1efa89b" y="274.203943"/>
     <use style="fill:#1f77b4;stroke:#1f77b4;" x="381.508863" xlink:href="#m58b1efa89b" y="273.692286"/>
     <use style="fill:#1f77b4;stroke:#1f77b4;" x="382.001551" xlink:href="#m58b1efa89b" y="274.398893"/>
     <use style="fill:#1f77b4;stroke:#1f77b4;" x="382.490548" xlink:href="#m58b1efa89b" y="275.957571"/>
     <use style="fill:#1f77b4;stroke:#1f77b4;" x="382.975909" xlink:href="#m58b1efa89b" y="275.877472"/>
     <use style="fill:#1f77b4;stroke:#1f77b4;" x="383.457688" xlink:href="#m58b1efa89b" y="275.773501"/>
     <use style="fill:#1f77b4;stroke:#1f77b4;" x="383.935938" xlink:href="#m58b1efa89b" y="275.177149"/>
     <use style="fill:#1f77b4;stroke:#1f77b4;" x="384.41071" xlink:href="#m58b1efa89b" y="277.237484"/>
     <use style="fill:#1f77b4;stroke:#1f77b4;" x="384.882053" xlink:href="#m58b1efa89b" y="277.780287"/>
     <use style="fill:#1f77b4;stroke:#1f77b4;" x="385.350018" xlink:href="#m58b1efa89b" y="276.976057"/>
     <use style="fill:#1f77b4;stroke:#1f77b4;" x="385.814652" xlink:href="#m58b1efa89b" y="278.361381"/>
     <use style="fill:#1f77b4;stroke:#1f77b4;" x="386.276002" xlink:href="#m58b1efa89b" y="278.3447"/>
     <use style="fill:#1f77b4;stroke:#1f77b4;" x="386.734115" xlink:href="#m58b1efa89b" y="279.116831"/>
     <use style="fill:#1f77b4;stroke:#1f77b4;" x="387.189035" xlink:href="#m58b1efa89b" y="278.84714"/>
     <use style="fill:#1f77b4;stroke:#1f77b4;" x="387.640807" xlink:href="#m58b1efa89b" y="280.061788"/>
     <use style="fill:#1f77b4;stroke:#1f77b4;" x="388.089474" xlink:href="#m58b1efa89b" y="279.464146"/>
     <use style="fill:#1f77b4;stroke:#1f77b4;" x="388.535078" xlink:href="#m58b1efa89b" y="280.760826"/>
     <use style="fill:#1f77b4;stroke:#1f77b4;" x="388.977662" xlink:href="#m58b1efa89b" y="280.838999"/>
     <use style="fill:#1f77b4;stroke:#1f77b4;" x="389.417265" xlink:href="#m58b1efa89b" y="279.890427"/>
     <use style="fill:#1f77b4;stroke:#1f77b4;" x="389.853927" xlink:href="#m58b1efa89b" y="281.213903"/>
     <use style="fill:#1f77b4;stroke:#1f77b4;" x="390.287688" xlink:href="#m58b1efa89b" y="280.319746"/>
     <use style="fill:#1f77b4;stroke:#1f77b4;" x="390.718586" xlink:href="#m58b1efa89b" y="280.535558"/>
     <use style="fill:#1f77b4;stroke:#1f77b4;" x="391.146658" xlink:href="#m58b1efa89b" y="280.978226"/>
     <use style="fill:#1f77b4;stroke:#1f77b4;" x="391.571942" xlink:href="#m58b1efa89b" y="283.160346"/>
     <use style="fill:#1f77b4;stroke:#1f77b4;" x="391.994473" xlink:href="#m58b1efa89b" y="281.873438"/>
     <use style="fill:#1f77b4;stroke:#1f77b4;" x="392.414286" xlink:href="#m58b1efa89b" y="281.89997"/>
     <use style="fill:#1f77b4;stroke:#1f77b4;" x="392.831417" xlink:href="#m58b1efa89b" y="282.245955"/>
     <use style="fill:#1f77b4;stroke:#1f77b4;" x="393.2459" xlink:href="#m58b1efa89b" y="283.650111"/>
     <use style="fill:#1f77b4;stroke:#1f77b4;" x="393.657768" xlink:href="#m58b1efa89b" y="283.088125"/>
     <use style="fill:#1f77b4;stroke:#1f77b4;" x="394.067053" xlink:href="#m58b1efa89b" y="282.925945"/>
     <use style="fill:#1f77b4;stroke:#1f77b4;" x="394.473788" xlink:href="#m58b1efa89b" y="284.290975"/>
     <use style="fill:#1f77b4;stroke:#1f77b4;" x="394.878005" xlink:href="#m58b1efa89b" y="282.952945"/>
     <use style="fill:#1f77b4;stroke:#1f77b4;" x="395.279734" xlink:href="#m58b1efa89b" y="284.235776"/>
     <use style="fill:#1f77b4;stroke:#1f77b4;" x="395.679006" xlink:href="#m58b1efa89b" y="284.808619"/>
     <use style="fill:#1f77b4;stroke:#1f77b4;" x="396.075851" xlink:href="#m58b1efa89b" y="285.546512"/>
     <use style="fill:#1f77b4;stroke:#1f77b4;" x="396.470298" xlink:href="#m58b1efa89b" y="283.960536"/>
     <use style="fill:#1f77b4;stroke:#1f77b4;" x="396.862376" xlink:href="#m58b1efa89b" y="284.641748"/>
     <use style="fill:#1f77b4;stroke:#1f77b4;" x="397.252114" xlink:href="#m58b1efa89b" y="285.34948"/>
     <use style="fill:#1f77b4;stroke:#1f77b4;" x="397.639538" xlink:href="#m58b1efa89b" y="285.961442"/>
     <use style="fill:#1f77b4;stroke:#1f77b4;" x="398.024676" xlink:href="#m58b1efa89b" y="284.957338"/>
     <use style="fill:#1f77b4;stroke:#1f77b4;" x="398.407556" xlink:href="#m58b1efa89b" y="287.252652"/>
     <use style="fill:#1f77b4;stroke:#1f77b4;" x="398.788203" xlink:href="#m58b1efa89b" y="286.445986"/>
     <use style="fill:#1f77b4;stroke:#1f77b4;" x="399.166643" xlink:href="#m58b1efa89b" y="286.312586"/>
     <use style="fill:#1f77b4;stroke:#1f77b4;" x="399.542903" xlink:href="#m58b1efa89b" y="285.74419"/>
     <use style="fill:#1f77b4;stroke:#1f77b4;" x="399.917006" xlink:href="#m58b1efa89b" y="286.265014"/>
     <use style="fill:#1f77b4;stroke:#1f77b4;" x="400.288977" xlink:href="#m58b1efa89b" y="286.027718"/>
     <use style="fill:#1f77b4;stroke:#1f77b4;" x="400.658841" xlink:href="#m58b1efa89b" y="286.150995"/>
     <use style="fill:#1f77b4;stroke:#1f77b4;" x="401.026621" xlink:href="#m58b1efa89b" y="286.732843"/>
     <use style="fill:#1f77b4;stroke:#1f77b4;" x="401.392341" xlink:href="#m58b1efa89b" y="287.359091"/>
     <use style="fill:#1f77b4;stroke:#1f77b4;" x="401.756023" xlink:href="#m58b1efa89b" y="287.10781"/>
     <use style="fill:#1f77b4;stroke:#1f77b4;" x="402.11769" xlink:href="#m58b1efa89b" y="285.209136"/>
     <use style="fill:#1f77b4;stroke:#1f77b4;" x="402.477365" xlink:href="#m58b1efa89b" y="285.218482"/>
     <use style="fill:#1f77b4;stroke:#1f77b4;" x="402.835069" xlink:href="#m58b1efa89b" y="284.827189"/>
     <use style="fill:#1f77b4;stroke:#1f77b4;" x="403.190823" xlink:href="#m58b1efa89b" y="284.725126"/>
     <use style="fill:#1f77b4;stroke:#1f77b4;" x="403.54465" xlink:href="#m58b1efa89b" y="286.21748"/>
     <use style="fill:#1f77b4;stroke:#1f77b4;" x="403.896569" xlink:href="#m58b1efa89b" y="285.115754"/>
     <use style="fill:#1f77b4;stroke:#1f77b4;" x="404.2466" xlink:href="#m58b1efa89b" y="284.938728"/>
     <use style="fill:#1f77b4;stroke:#1f77b4;" x="404.594765" xlink:href="#m58b1efa89b" y="284.429194"/>
     <use style="fill:#1f77b4;stroke:#1f77b4;" x="404.941083" xlink:href="#m58b1efa89b" y="283.914785"/>
     <use style="fill:#1f77b4;stroke:#1f77b4;" x="405.285574" xlink:href="#m58b1efa89b" y="282.611838"/>
     <use style="fill:#1f77b4;stroke:#1f77b4;" x="405.628256" xlink:href="#m58b1efa89b" y="281.520788"/>
     <use style="fill:#1f77b4;stroke:#1f77b4;" x="405.969149" xlink:href="#m58b1efa89b" y="281.231397"/>
     <use style="fill:#1f77b4;stroke:#1f77b4;" x="406.30827" xlink:href="#m58b1efa89b" y="280.596124"/>
     <use style="fill:#1f77b4;stroke:#1f77b4;" x="406.64564" xlink:href="#m58b1efa89b" y="279.489638"/>
     <use style="fill:#1f77b4;stroke:#1f77b4;" x="406.981274" xlink:href="#m58b1efa89b" y="277.212927"/>
     <use style="fill:#1f77b4;stroke:#1f77b4;" x="407.315192" xlink:href="#m58b1efa89b" y="276.254869"/>
     <use style="fill:#1f77b4;stroke:#1f77b4;" x="407.647411" xlink:href="#m58b1efa89b" y="271.957439"/>
     <use style="fill:#1f77b4;stroke:#1f77b4;" x="407.977947" xlink:href="#m58b1efa89b" y="261.132411"/>
     <use style="fill:#1f77b4;stroke:#1f77b4;" x="408.306818" xlink:href="#m58b1efa89b" y="231.819844"/>
    </g>
   </g>
   <g id="patch_3">
    <path d="M 45.478125 300.7 
L 45.478125 7.2 
" style="fill:none;stroke:#000000;stroke-linecap:square;stroke-linejoin:miter;stroke-width:0.8;"/>
   </g>
   <g id="patch_4">
    <path d="M 425.584375 300.7 
L 425.584375 7.2 
" style="fill:none;stroke:#000000;stroke-linecap:square;stroke-linejoin:miter;stroke-width:0.8;"/>
   </g>
   <g id="patch_5">
    <path d="M 45.478125 300.7 
L 425.584375 300.7 
" style="fill:none;stroke:#000000;stroke-linecap:square;stroke-linejoin:miter;stroke-width:0.8;"/>
   </g>
   <g id="patch_6">
    <path d="M 45.478125 7.2 
L 425.584375 7.2 
" style="fill:none;stroke:#000000;stroke-linecap:square;stroke-linejoin:miter;stroke-width:0.8;"/>
   </g>
  </g>
 </g>
 <defs>
  <clipPath id="pdcf98e55bc">
   <rect height="293.5" width="380.10625" x="45.478125" y="7.2"/>
  </clipPath>
 </defs>
</svg>
